<?xml version="1.0" encoding="UTF-8" standalone="no"?>
<!DOCTYPE svg PUBLIC "-//W3C//DTD SVG 1.1//EN"
 "http://www.w3.org/Graphics/SVG/1.1/DTD/svg11.dtd">
<!-- Generated by graphviz version 2.43.0 (0)
 -->
<!-- Title: G Pages: 1 -->
<svg width="158pt" height="404pt"
 viewBox="0.00 0.00 157.61 404.00" xmlns="http://www.w3.org/2000/svg" xmlns:xlink="http://www.w3.org/1999/xlink">
<g id="graph0" class="graph" transform="scale(1 1) rotate(0) translate(4 400)">
<title>G</title>
<polygon fill="transparent" stroke="transparent" points="-4,4 -4,-400 153.61,-400 153.61,4 -4,4"/>
<!-- de498467&#45;b294&#45;47a1&#45;9bfd&#45;6a85fd086df7 -->
<g id="node1" class="node">
<title>de498467&#45;b294&#45;47a1&#45;9bfd&#45;6a85fd086df7</title>
<ellipse fill="none" stroke="black" cx="74.8" cy="-306" rx="33.6" ry="18"/>
<text text-anchor="middle" x="74.8" y="-302.3" font-family="Times,serif" font-size="14.00">Descend</text>
</g>
<!-- 52d5b373&#45;2da0&#45;4074&#45;bc9d&#45;d2e9cf39c8d5 -->
<g id="node2" class="node">
<title>52d5b373&#45;2da0&#45;4074&#45;bc9d&#45;d2e9cf39c8d5</title>
<ellipse fill="none" stroke="black" cx="74.8" cy="-234" rx="47.1" ry="18"/>
<text text-anchor="middle" x="74.8" y="-230.3" font-family="Times,serif" font-size="14.00">DelayAction</text>
</g>
<!-- de498467&#45;b294&#45;47a1&#45;9bfd&#45;6a85fd086df7&#45;&gt;52d5b373&#45;2da0&#45;4074&#45;bc9d&#45;d2e9cf39c8d5 -->
<g id="edge1" class="edge">
<title>de498467&#45;b294&#45;47a1&#45;9bfd&#45;6a85fd086df7&#45;&gt;52d5b373&#45;2da0&#45;4074&#45;bc9d&#45;d2e9cf39c8d5</title>
<path fill="none" stroke="black" d="M74.8,-287.7C74.8,-279.98 74.8,-270.71 74.8,-262.11"/>
<polygon fill="black" stroke="black" points="78.3,-262.1 74.8,-252.1 71.3,-262.1 78.3,-262.1"/>
</g>
<!-- 4e8c79ae&#45;fa32&#45;42b2&#45;a261&#45;678ec0ab0a04 -->
<g id="node3" class="node">
<title>4e8c79ae&#45;fa32&#45;42b2&#45;a261&#45;678ec0ab0a04</title>
<ellipse fill="none" stroke="black" cx="74.8" cy="-162" rx="74.61" ry="18"/>
<text text-anchor="middle" x="74.8" y="-158.3" font-family="Times,serif" font-size="14.00">StraightMovement</text>
</g>
<!-- 52d5b373&#45;2da0&#45;4074&#45;bc9d&#45;d2e9cf39c8d5&#45;&gt;4e8c79ae&#45;fa32&#45;42b2&#45;a261&#45;678ec0ab0a04 -->
<g id="edge4" class="edge">
<title>52d5b373&#45;2da0&#45;4074&#45;bc9d&#45;d2e9cf39c8d5&#45;&gt;4e8c79ae&#45;fa32&#45;42b2&#45;a261&#45;678ec0ab0a04</title>
<path fill="none" stroke="black" d="M74.8,-215.7C74.8,-207.98 74.8,-198.71 74.8,-190.11"/>
<polygon fill="black" stroke="black" points="78.3,-190.1 74.8,-180.1 71.3,-190.1 78.3,-190.1"/>
</g>
<!-- 0a8a08ed&#45;32cd&#45;40d4&#45;a30d&#45;e5d056e68f42 -->
<g id="node4" class="node">
<title>0a8a08ed&#45;32cd&#45;40d4&#45;a30d&#45;e5d056e68f42</title>
<ellipse fill="none" stroke="black" cx="74.8" cy="-90" rx="47.1" ry="18"/>
<text text-anchor="middle" x="74.8" y="-86.3" font-family="Times,serif" font-size="14.00">DelayAction</text>
</g>
<!-- 4e8c79ae&#45;fa32&#45;42b2&#45;a261&#45;678ec0ab0a04&#45;&gt;0a8a08ed&#45;32cd&#45;40d4&#45;a30d&#45;e5d056e68f42 -->
<g id="edge2" class="edge">
<title>4e8c79ae&#45;fa32&#45;42b2&#45;a261&#45;678ec0ab0a04&#45;&gt;0a8a08ed&#45;32cd&#45;40d4&#45;a30d&#45;e5d056e68f42</title>
<path fill="none" stroke="black" d="M74.8,-143.7C74.8,-135.98 74.8,-126.71 74.8,-118.11"/>
<polygon fill="black" stroke="black" points="78.3,-118.1 74.8,-108.1 71.3,-118.1 78.3,-118.1"/>
</g>
<!-- bc82d9ab&#45;2b68&#45;4443&#45;b82a&#45;65accb1d4946 -->
<g id="node5" class="node">
<title>bc82d9ab&#45;2b68&#45;4443&#45;b82a&#45;65accb1d4946</title>
<ellipse fill="none" stroke="black" cx="74.8" cy="-18" rx="59.9" ry="18"/>
<text text-anchor="middle" x="74.8" y="-14.3" font-family="Times,serif" font-size="14.00">ZeroMovement</text>
</g>
<!-- 0a8a08ed&#45;32cd&#45;40d4&#45;a30d&#45;e5d056e68f42&#45;&gt;bc82d9ab&#45;2b68&#45;4443&#45;b82a&#45;65accb1d4946 -->
<g id="edge3" class="edge">
<title>0a8a08ed&#45;32cd&#45;40d4&#45;a30d&#45;e5d056e68f42&#45;&gt;bc82d9ab&#45;2b68&#45;4443&#45;b82a&#45;65accb1d4946</title>
<path fill="none" stroke="black" d="M74.8,-71.7C74.8,-63.98 74.8,-54.71 74.8,-46.11"/>
<polygon fill="black" stroke="black" points="78.3,-46.1 74.8,-36.1 71.3,-46.1 78.3,-46.1"/>
</g>
<!-- 4aee0720&#45;0dfa&#45;4264&#45;b627&#45;a2b1cbf03680 -->
<g id="node6" class="node">
<title>4aee0720&#45;0dfa&#45;4264&#45;b627&#45;a2b1cbf03680</title>
<ellipse fill="none" stroke="black" cx="74.8" cy="-378" rx="34.8" ry="18"/>
<text text-anchor="middle" x="74.8" y="-374.3" font-family="Times,serif" font-size="14.00">WaitArm</text>
</g>
<!-- 4aee0720&#45;0dfa&#45;4264&#45;b627&#45;a2b1cbf03680&#45;&gt;de498467&#45;b294&#45;47a1&#45;9bfd&#45;6a85fd086df7 -->
<g id="edge5" class="edge">
<title>4aee0720&#45;0dfa&#45;4264&#45;b627&#45;a2b1cbf03680&#45;&gt;de498467&#45;b294&#45;47a1&#45;9bfd&#45;6a85fd086df7</title>
<path fill="none" stroke="black" d="M74.8,-359.7C74.8,-351.98 74.8,-342.71 74.8,-334.11"/>
<polygon fill="black" stroke="black" points="78.3,-334.1 74.8,-324.1 71.3,-334.1 78.3,-334.1"/>
</g>
</g>
</svg>
