<?xml version="1.0" encoding="UTF-8" standalone="no"?>
<!DOCTYPE svg PUBLIC "-//W3C//DTD SVG 1.1//EN"
 "http://www.w3.org/Graphics/SVG/1.1/DTD/svg11.dtd">
<!-- Generated by graphviz version 2.43.0 (0)
 -->
<!-- Title: G Pages: 1 -->
<svg width="158pt" height="404pt"
 viewBox="0.00 0.00 157.61 404.00" xmlns="http://www.w3.org/2000/svg" xmlns:xlink="http://www.w3.org/1999/xlink">
<g id="graph0" class="graph" transform="scale(1 1) rotate(0) translate(4 400)">
<title>G</title>
<polygon fill="transparent" stroke="transparent" points="-4,4 -4,-400 153.61,-400 153.61,4 -4,4"/>
<!-- 5606cb66&#45;5f4c&#45;4150&#45;92be&#45;5e32ffac546a -->
<g id="node1" class="node">
<title>5606cb66&#45;5f4c&#45;4150&#45;92be&#45;5e32ffac546a</title>
<ellipse fill="none" stroke="black" cx="74.8" cy="-306" rx="33.6" ry="18"/>
<text text-anchor="middle" x="74.8" y="-302.3" font-family="Times,serif" font-size="14.00">Descend</text>
</g>
<!-- 5c30c914&#45;b649&#45;4998&#45;81da&#45;a2f0fec5bd2c -->
<g id="node2" class="node">
<title>5c30c914&#45;b649&#45;4998&#45;81da&#45;a2f0fec5bd2c</title>
<ellipse fill="none" stroke="black" cx="74.8" cy="-234" rx="47.1" ry="18"/>
<text text-anchor="middle" x="74.8" y="-230.3" font-family="Times,serif" font-size="14.00">DelayAction</text>
</g>
<!-- 5606cb66&#45;5f4c&#45;4150&#45;92be&#45;5e32ffac546a&#45;&gt;5c30c914&#45;b649&#45;4998&#45;81da&#45;a2f0fec5bd2c -->
<g id="edge1" class="edge">
<title>5606cb66&#45;5f4c&#45;4150&#45;92be&#45;5e32ffac546a&#45;&gt;5c30c914&#45;b649&#45;4998&#45;81da&#45;a2f0fec5bd2c</title>
<path fill="none" stroke="black" d="M74.8,-287.7C74.8,-279.98 74.8,-270.71 74.8,-262.11"/>
<polygon fill="black" stroke="black" points="78.3,-262.1 74.8,-252.1 71.3,-262.1 78.3,-262.1"/>
</g>
<!-- e7084f48&#45;c9ea&#45;4f34&#45;a719&#45;c26d399990a4 -->
<g id="node3" class="node">
<title>e7084f48&#45;c9ea&#45;4f34&#45;a719&#45;c26d399990a4</title>
<ellipse fill="none" stroke="black" cx="74.8" cy="-162" rx="74.61" ry="18"/>
<text text-anchor="middle" x="74.8" y="-158.3" font-family="Times,serif" font-size="14.00">StraightMovement</text>
</g>
<!-- 5c30c914&#45;b649&#45;4998&#45;81da&#45;a2f0fec5bd2c&#45;&gt;e7084f48&#45;c9ea&#45;4f34&#45;a719&#45;c26d399990a4 -->
<g id="edge4" class="edge">
<title>5c30c914&#45;b649&#45;4998&#45;81da&#45;a2f0fec5bd2c&#45;&gt;e7084f48&#45;c9ea&#45;4f34&#45;a719&#45;c26d399990a4</title>
<path fill="none" stroke="black" d="M74.8,-215.7C74.8,-207.98 74.8,-198.71 74.8,-190.11"/>
<polygon fill="black" stroke="black" points="78.3,-190.1 74.8,-180.1 71.3,-190.1 78.3,-190.1"/>
</g>
<!-- a48b8230&#45;ffba&#45;47f7&#45;9da5&#45;0a6ef01ce22d -->
<g id="node4" class="node">
<title>a48b8230&#45;ffba&#45;47f7&#45;9da5&#45;0a6ef01ce22d</title>
<ellipse fill="none" stroke="black" cx="74.8" cy="-90" rx="47.1" ry="18"/>
<text text-anchor="middle" x="74.8" y="-86.3" font-family="Times,serif" font-size="14.00">DelayAction</text>
</g>
<!-- e7084f48&#45;c9ea&#45;4f34&#45;a719&#45;c26d399990a4&#45;&gt;a48b8230&#45;ffba&#45;47f7&#45;9da5&#45;0a6ef01ce22d -->
<g id="edge2" class="edge">
<title>e7084f48&#45;c9ea&#45;4f34&#45;a719&#45;c26d399990a4&#45;&gt;a48b8230&#45;ffba&#45;47f7&#45;9da5&#45;0a6ef01ce22d</title>
<path fill="none" stroke="black" d="M74.8,-143.7C74.8,-135.98 74.8,-126.71 74.8,-118.11"/>
<polygon fill="black" stroke="black" points="78.3,-118.1 74.8,-108.1 71.3,-118.1 78.3,-118.1"/>
</g>
<!-- c19cc6fd&#45;b837&#45;444c&#45;a912&#45;2f20eecdcba8 -->
<g id="node5" class="node">
<title>c19cc6fd&#45;b837&#45;444c&#45;a912&#45;2f20eecdcba8</title>
<ellipse fill="none" stroke="black" cx="74.8" cy="-18" rx="59.9" ry="18"/>
<text text-anchor="middle" x="74.8" y="-14.3" font-family="Times,serif" font-size="14.00">ZeroMovement</text>
</g>
<!-- a48b8230&#45;ffba&#45;47f7&#45;9da5&#45;0a6ef01ce22d&#45;&gt;c19cc6fd&#45;b837&#45;444c&#45;a912&#45;2f20eecdcba8 -->
<g id="edge3" class="edge">
<title>a48b8230&#45;ffba&#45;47f7&#45;9da5&#45;0a6ef01ce22d&#45;&gt;c19cc6fd&#45;b837&#45;444c&#45;a912&#45;2f20eecdcba8</title>
<path fill="none" stroke="black" d="M74.8,-71.7C74.8,-63.98 74.8,-54.71 74.8,-46.11"/>
<polygon fill="black" stroke="black" points="78.3,-46.1 74.8,-36.1 71.3,-46.1 78.3,-46.1"/>
</g>
<!-- 174eeaf1&#45;4e2d&#45;4d71&#45;bcea&#45;8d97fa6022da -->
<g id="node6" class="node">
<title>174eeaf1&#45;4e2d&#45;4d71&#45;bcea&#45;8d97fa6022da</title>
<ellipse fill="none" stroke="black" cx="74.8" cy="-378" rx="34.8" ry="18"/>
<text text-anchor="middle" x="74.8" y="-374.3" font-family="Times,serif" font-size="14.00">WaitArm</text>
</g>
<!-- 174eeaf1&#45;4e2d&#45;4d71&#45;bcea&#45;8d97fa6022da&#45;&gt;5606cb66&#45;5f4c&#45;4150&#45;92be&#45;5e32ffac546a -->
<g id="edge5" class="edge">
<title>174eeaf1&#45;4e2d&#45;4d71&#45;bcea&#45;8d97fa6022da&#45;&gt;5606cb66&#45;5f4c&#45;4150&#45;92be&#45;5e32ffac546a</title>
<path fill="none" stroke="black" d="M74.8,-359.7C74.8,-351.98 74.8,-342.71 74.8,-334.11"/>
<polygon fill="black" stroke="black" points="78.3,-334.1 74.8,-324.1 71.3,-334.1 78.3,-334.1"/>
</g>
</g>
</svg>
