<?xml version="1.0" encoding="UTF-8" standalone="no"?>
<!DOCTYPE svg PUBLIC "-//W3C//DTD SVG 1.1//EN"
 "http://www.w3.org/Graphics/SVG/1.1/DTD/svg11.dtd">
<!-- Generated by graphviz version 2.43.0 (0)
 -->
<!-- Title: G Pages: 1 -->
<svg width="158pt" height="404pt"
 viewBox="0.00 0.00 157.61 404.00" xmlns="http://www.w3.org/2000/svg" xmlns:xlink="http://www.w3.org/1999/xlink">
<g id="graph0" class="graph" transform="scale(1 1) rotate(0) translate(4 400)">
<title>G</title>
<polygon fill="transparent" stroke="transparent" points="-4,4 -4,-400 153.61,-400 153.61,4 -4,4"/>
<!-- b5cae9ff&#45;e514&#45;4a6f&#45;a4de&#45;385c2817189a -->
<g id="node1" class="node">
<title>b5cae9ff&#45;e514&#45;4a6f&#45;a4de&#45;385c2817189a</title>
<ellipse fill="none" stroke="black" cx="74.8" cy="-306" rx="33.6" ry="18"/>
<text text-anchor="middle" x="74.8" y="-302.3" font-family="Times,serif" font-size="14.00">Descend</text>
</g>
<!-- 776e84f5&#45;8325&#45;4f8c&#45;9680&#45;588422395d8e -->
<g id="node2" class="node">
<title>776e84f5&#45;8325&#45;4f8c&#45;9680&#45;588422395d8e</title>
<ellipse fill="none" stroke="black" cx="74.8" cy="-234" rx="47.1" ry="18"/>
<text text-anchor="middle" x="74.8" y="-230.3" font-family="Times,serif" font-size="14.00">DelayAction</text>
</g>
<!-- b5cae9ff&#45;e514&#45;4a6f&#45;a4de&#45;385c2817189a&#45;&gt;776e84f5&#45;8325&#45;4f8c&#45;9680&#45;588422395d8e -->
<g id="edge1" class="edge">
<title>b5cae9ff&#45;e514&#45;4a6f&#45;a4de&#45;385c2817189a&#45;&gt;776e84f5&#45;8325&#45;4f8c&#45;9680&#45;588422395d8e</title>
<path fill="none" stroke="black" d="M74.8,-287.7C74.8,-279.98 74.8,-270.71 74.8,-262.11"/>
<polygon fill="black" stroke="black" points="78.3,-262.1 74.8,-252.1 71.3,-262.1 78.3,-262.1"/>
</g>
<!-- fcbc1591&#45;3700&#45;4344&#45;ba35&#45;690f5c7eb893 -->
<g id="node3" class="node">
<title>fcbc1591&#45;3700&#45;4344&#45;ba35&#45;690f5c7eb893</title>
<ellipse fill="none" stroke="black" cx="74.8" cy="-162" rx="74.61" ry="18"/>
<text text-anchor="middle" x="74.8" y="-158.3" font-family="Times,serif" font-size="14.00">StraightMovement</text>
</g>
<!-- 776e84f5&#45;8325&#45;4f8c&#45;9680&#45;588422395d8e&#45;&gt;fcbc1591&#45;3700&#45;4344&#45;ba35&#45;690f5c7eb893 -->
<g id="edge4" class="edge">
<title>776e84f5&#45;8325&#45;4f8c&#45;9680&#45;588422395d8e&#45;&gt;fcbc1591&#45;3700&#45;4344&#45;ba35&#45;690f5c7eb893</title>
<path fill="none" stroke="black" d="M74.8,-215.7C74.8,-207.98 74.8,-198.71 74.8,-190.11"/>
<polygon fill="black" stroke="black" points="78.3,-190.1 74.8,-180.1 71.3,-190.1 78.3,-190.1"/>
</g>
<!-- d78cc640&#45;ff72&#45;4b0e&#45;83cb&#45;9fb6a7478ee9 -->
<g id="node4" class="node">
<title>d78cc640&#45;ff72&#45;4b0e&#45;83cb&#45;9fb6a7478ee9</title>
<ellipse fill="none" stroke="black" cx="74.8" cy="-90" rx="47.1" ry="18"/>
<text text-anchor="middle" x="74.8" y="-86.3" font-family="Times,serif" font-size="14.00">DelayAction</text>
</g>
<!-- fcbc1591&#45;3700&#45;4344&#45;ba35&#45;690f5c7eb893&#45;&gt;d78cc640&#45;ff72&#45;4b0e&#45;83cb&#45;9fb6a7478ee9 -->
<g id="edge2" class="edge">
<title>fcbc1591&#45;3700&#45;4344&#45;ba35&#45;690f5c7eb893&#45;&gt;d78cc640&#45;ff72&#45;4b0e&#45;83cb&#45;9fb6a7478ee9</title>
<path fill="none" stroke="black" d="M74.8,-143.7C74.8,-135.98 74.8,-126.71 74.8,-118.11"/>
<polygon fill="black" stroke="black" points="78.3,-118.1 74.8,-108.1 71.3,-118.1 78.3,-118.1"/>
</g>
<!-- e8dff48a&#45;8315&#45;4aee&#45;a6fb&#45;702862d7bc3e -->
<g id="node5" class="node">
<title>e8dff48a&#45;8315&#45;4aee&#45;a6fb&#45;702862d7bc3e</title>
<ellipse fill="none" stroke="black" cx="74.8" cy="-18" rx="59.9" ry="18"/>
<text text-anchor="middle" x="74.8" y="-14.3" font-family="Times,serif" font-size="14.00">ZeroMovement</text>
</g>
<!-- d78cc640&#45;ff72&#45;4b0e&#45;83cb&#45;9fb6a7478ee9&#45;&gt;e8dff48a&#45;8315&#45;4aee&#45;a6fb&#45;702862d7bc3e -->
<g id="edge3" class="edge">
<title>d78cc640&#45;ff72&#45;4b0e&#45;83cb&#45;9fb6a7478ee9&#45;&gt;e8dff48a&#45;8315&#45;4aee&#45;a6fb&#45;702862d7bc3e</title>
<path fill="none" stroke="black" d="M74.8,-71.7C74.8,-63.98 74.8,-54.71 74.8,-46.11"/>
<polygon fill="black" stroke="black" points="78.3,-46.1 74.8,-36.1 71.3,-46.1 78.3,-46.1"/>
</g>
<!-- 65e938c1&#45;c8da&#45;478e&#45;93b9&#45;8d1d29b88fb3 -->
<g id="node6" class="node">
<title>65e938c1&#45;c8da&#45;478e&#45;93b9&#45;8d1d29b88fb3</title>
<ellipse fill="none" stroke="black" cx="74.8" cy="-378" rx="34.8" ry="18"/>
<text text-anchor="middle" x="74.8" y="-374.3" font-family="Times,serif" font-size="14.00">WaitArm</text>
</g>
<!-- 65e938c1&#45;c8da&#45;478e&#45;93b9&#45;8d1d29b88fb3&#45;&gt;b5cae9ff&#45;e514&#45;4a6f&#45;a4de&#45;385c2817189a -->
<g id="edge5" class="edge">
<title>65e938c1&#45;c8da&#45;478e&#45;93b9&#45;8d1d29b88fb3&#45;&gt;b5cae9ff&#45;e514&#45;4a6f&#45;a4de&#45;385c2817189a</title>
<path fill="none" stroke="black" d="M74.8,-359.7C74.8,-351.98 74.8,-342.71 74.8,-334.11"/>
<polygon fill="black" stroke="black" points="78.3,-334.1 74.8,-324.1 71.3,-334.1 78.3,-334.1"/>
</g>
</g>
</svg>
