<?xml version="1.0" encoding="UTF-8" standalone="no"?>
<!DOCTYPE svg PUBLIC "-//W3C//DTD SVG 1.1//EN"
 "http://www.w3.org/Graphics/SVG/1.1/DTD/svg11.dtd">
<!-- Generated by graphviz version 2.43.0 (0)
 -->
<!-- Title: G Pages: 1 -->
<svg width="262pt" height="277pt"
 viewBox="0.00 0.00 262.30 277.00" xmlns="http://www.w3.org/2000/svg" xmlns:xlink="http://www.w3.org/1999/xlink">
<g id="graph0" class="graph" transform="scale(1 1) rotate(0) translate(4 273)">
<title>G</title>
<polygon fill="transparent" stroke="transparent" points="-4,4 -4,-273 258.3,-273 258.3,4 -4,4"/>
<!-- 33deffff&#45;3404&#45;4b0c&#45;abef&#45;e0647c23b3d9 -->
<g id="node1" class="node">
<title>33deffff&#45;3404&#45;4b0c&#45;abef&#45;e0647c23b3d9</title>
<polygon fill="none" stroke="black" points="115.65,-123 50.47,-105 115.65,-87 180.83,-105 115.65,-123"/>
<text text-anchor="middle" x="115.65" y="-101.3" font-family="Times,serif" font-size="14.00">AlwaysTrue</text>
</g>
<!-- b9bbe3c1&#45;6b6d&#45;4fe2&#45;be25&#45;5a0d4ed4fd7a -->
<g id="node4" class="node">
<title>b9bbe3c1&#45;6b6d&#45;4fe2&#45;be25&#45;5a0d4ed4fd7a</title>
<ellipse fill="none" stroke="black" cx="34.65" cy="-18" rx="34.8" ry="18"/>
<text text-anchor="middle" x="34.65" y="-14.3" font-family="Times,serif" font-size="14.00">WaitArm</text>
</g>
<!-- 33deffff&#45;3404&#45;4b0c&#45;abef&#45;e0647c23b3d9&#45;&gt;b9bbe3c1&#45;6b6d&#45;4fe2&#45;be25&#45;5a0d4ed4fd7a -->
<g id="edge2" class="edge">
<title>33deffff&#45;3404&#45;4b0c&#45;abef&#45;e0647c23b3d9&#45;&gt;b9bbe3c1&#45;6b6d&#45;4fe2&#45;be25&#45;5a0d4ed4fd7a</title>
<path fill="none" stroke="black" d="M98.99,-91.47C90.97,-85.11 81.44,-77.05 73.65,-69 66.07,-61.17 58.52,-51.92 52.11,-43.52"/>
<polygon fill="black" stroke="black" points="54.9,-41.41 46.12,-35.48 49.29,-45.59 54.9,-41.41"/>
<text text-anchor="middle" x="90.65" y="-57.8" font-family="Times,serif" font-size="14.00">True</text>
</g>
<!-- 2cce9787&#45;4c37&#45;413d&#45;a3a2&#45;617d9a976d79 -->
<g id="node5" class="node">
<title>2cce9787&#45;4c37&#45;413d&#45;a3a2&#45;617d9a976d79</title>
<ellipse fill="none" stroke="black" cx="197.65" cy="-18" rx="56.8" ry="18"/>
<text text-anchor="middle" x="197.65" y="-14.3" font-family="Times,serif" font-size="14.00">UnwrapAction</text>
</g>
<!-- 33deffff&#45;3404&#45;4b0c&#45;abef&#45;e0647c23b3d9&#45;&gt;2cce9787&#45;4c37&#45;413d&#45;a3a2&#45;617d9a976d79 -->
<g id="edge3" class="edge">
<title>33deffff&#45;3404&#45;4b0c&#45;abef&#45;e0647c23b3d9&#45;&gt;2cce9787&#45;4c37&#45;413d&#45;a3a2&#45;617d9a976d79</title>
<path fill="none" stroke="black" d="M128.83,-90.34C141.09,-77.64 159.63,-58.41 174.38,-43.12"/>
<polygon fill="black" stroke="black" points="177.27,-45.17 181.7,-35.54 172.23,-40.31 177.27,-45.17"/>
<text text-anchor="middle" x="179.65" y="-57.8" font-family="Times,serif" font-size="14.00">False</text>
</g>
<!-- fbfc4763&#45;0157&#45;411d&#45;bb8f&#45;8e376db84c8b -->
<g id="node2" class="node">
<title>fbfc4763&#45;0157&#45;411d&#45;bb8f&#45;8e376db84c8b</title>
<ellipse fill="none" stroke="black" cx="115.65" cy="-251" rx="34.8" ry="18"/>
<text text-anchor="middle" x="115.65" y="-247.3" font-family="Times,serif" font-size="14.00">WaitArm</text>
</g>
<!-- ea803dc5&#45;113b&#45;4092&#45;9c6d&#45;a748c654b88b -->
<g id="node3" class="node">
<title>ea803dc5&#45;113b&#45;4092&#45;9c6d&#45;a748c654b88b</title>
<ellipse fill="none" stroke="black" cx="115.65" cy="-178" rx="33.6" ry="18"/>
<text text-anchor="middle" x="115.65" y="-174.3" font-family="Times,serif" font-size="14.00">Descend</text>
</g>
<!-- fbfc4763&#45;0157&#45;411d&#45;bb8f&#45;8e376db84c8b&#45;&gt;ea803dc5&#45;113b&#45;4092&#45;9c6d&#45;a748c654b88b -->
<g id="edge1" class="edge">
<title>fbfc4763&#45;0157&#45;411d&#45;bb8f&#45;8e376db84c8b&#45;&gt;ea803dc5&#45;113b&#45;4092&#45;9c6d&#45;a748c654b88b</title>
<path fill="none" stroke="black" d="M115.65,-232.81C115.65,-224.79 115.65,-215.05 115.65,-206.07"/>
<polygon fill="black" stroke="black" points="119.15,-206.03 115.65,-196.03 112.15,-206.03 119.15,-206.03"/>
</g>
<!-- ea803dc5&#45;113b&#45;4092&#45;9c6d&#45;a748c654b88b&#45;&gt;33deffff&#45;3404&#45;4b0c&#45;abef&#45;e0647c23b3d9 -->
<g id="edge4" class="edge">
<title>ea803dc5&#45;113b&#45;4092&#45;9c6d&#45;a748c654b88b&#45;&gt;33deffff&#45;3404&#45;4b0c&#45;abef&#45;e0647c23b3d9</title>
<path fill="none" stroke="black" d="M115.65,-159.81C115.65,-151.79 115.65,-142.05 115.65,-133.07"/>
<polygon fill="black" stroke="black" points="119.15,-133.03 115.65,-123.03 112.15,-133.03 119.15,-133.03"/>
</g>
</g>
</svg>
