<?xml version="1.0" encoding="UTF-8" standalone="no"?>
<!DOCTYPE svg PUBLIC "-//W3C//DTD SVG 1.1//EN"
 "http://www.w3.org/Graphics/SVG/1.1/DTD/svg11.dtd">
<!-- Generated by graphviz version 2.43.0 (0)
 -->
<!-- Title: G Pages: 1 -->
<svg width="158pt" height="404pt"
 viewBox="0.00 0.00 157.61 404.00" xmlns="http://www.w3.org/2000/svg" xmlns:xlink="http://www.w3.org/1999/xlink">
<g id="graph0" class="graph" transform="scale(1 1) rotate(0) translate(4 400)">
<title>G</title>
<polygon fill="transparent" stroke="transparent" points="-4,4 -4,-400 153.61,-400 153.61,4 -4,4"/>
<!-- 8be8b235&#45;686a&#45;456d&#45;b842&#45;e7802ca3774d -->
<g id="node1" class="node">
<title>8be8b235&#45;686a&#45;456d&#45;b842&#45;e7802ca3774d</title>
<ellipse fill="none" stroke="black" cx="74.8" cy="-378" rx="34.8" ry="18"/>
<text text-anchor="middle" x="74.8" y="-374.3" font-family="Times,serif" font-size="14.00">WaitArm</text>
</g>
<!-- 874f3585&#45;e0a8&#45;4e40&#45;a45a&#45;bfd4667d368a -->
<g id="node2" class="node">
<title>874f3585&#45;e0a8&#45;4e40&#45;a45a&#45;bfd4667d368a</title>
<ellipse fill="none" stroke="black" cx="74.8" cy="-306" rx="33.6" ry="18"/>
<text text-anchor="middle" x="74.8" y="-302.3" font-family="Times,serif" font-size="14.00">Descend</text>
</g>
<!-- 8be8b235&#45;686a&#45;456d&#45;b842&#45;e7802ca3774d&#45;&gt;874f3585&#45;e0a8&#45;4e40&#45;a45a&#45;bfd4667d368a -->
<g id="edge5" class="edge">
<title>8be8b235&#45;686a&#45;456d&#45;b842&#45;e7802ca3774d&#45;&gt;874f3585&#45;e0a8&#45;4e40&#45;a45a&#45;bfd4667d368a</title>
<path fill="none" stroke="black" d="M74.8,-359.7C74.8,-351.98 74.8,-342.71 74.8,-334.11"/>
<polygon fill="black" stroke="black" points="78.3,-334.1 74.8,-324.1 71.3,-334.1 78.3,-334.1"/>
</g>
<!-- 34a5d239&#45;d0bb&#45;491d&#45;b7b1&#45;5ab5f40bcc3e -->
<g id="node3" class="node">
<title>34a5d239&#45;d0bb&#45;491d&#45;b7b1&#45;5ab5f40bcc3e</title>
<ellipse fill="none" stroke="black" cx="74.8" cy="-234" rx="47.1" ry="18"/>
<text text-anchor="middle" x="74.8" y="-230.3" font-family="Times,serif" font-size="14.00">DelayAction</text>
</g>
<!-- 874f3585&#45;e0a8&#45;4e40&#45;a45a&#45;bfd4667d368a&#45;&gt;34a5d239&#45;d0bb&#45;491d&#45;b7b1&#45;5ab5f40bcc3e -->
<g id="edge1" class="edge">
<title>874f3585&#45;e0a8&#45;4e40&#45;a45a&#45;bfd4667d368a&#45;&gt;34a5d239&#45;d0bb&#45;491d&#45;b7b1&#45;5ab5f40bcc3e</title>
<path fill="none" stroke="black" d="M74.8,-287.7C74.8,-279.98 74.8,-270.71 74.8,-262.11"/>
<polygon fill="black" stroke="black" points="78.3,-262.1 74.8,-252.1 71.3,-262.1 78.3,-262.1"/>
</g>
<!-- d29db818&#45;715e&#45;474b&#45;a76a&#45;59e12e1b729e -->
<g id="node4" class="node">
<title>d29db818&#45;715e&#45;474b&#45;a76a&#45;59e12e1b729e</title>
<ellipse fill="none" stroke="black" cx="74.8" cy="-162" rx="74.61" ry="18"/>
<text text-anchor="middle" x="74.8" y="-158.3" font-family="Times,serif" font-size="14.00">StraightMovement</text>
</g>
<!-- 34a5d239&#45;d0bb&#45;491d&#45;b7b1&#45;5ab5f40bcc3e&#45;&gt;d29db818&#45;715e&#45;474b&#45;a76a&#45;59e12e1b729e -->
<g id="edge4" class="edge">
<title>34a5d239&#45;d0bb&#45;491d&#45;b7b1&#45;5ab5f40bcc3e&#45;&gt;d29db818&#45;715e&#45;474b&#45;a76a&#45;59e12e1b729e</title>
<path fill="none" stroke="black" d="M74.8,-215.7C74.8,-207.98 74.8,-198.71 74.8,-190.11"/>
<polygon fill="black" stroke="black" points="78.3,-190.1 74.8,-180.1 71.3,-190.1 78.3,-190.1"/>
</g>
<!-- 6cdd92ef&#45;f270&#45;4ac6&#45;8ed7&#45;6dbc240c1f3e -->
<g id="node5" class="node">
<title>6cdd92ef&#45;f270&#45;4ac6&#45;8ed7&#45;6dbc240c1f3e</title>
<ellipse fill="none" stroke="black" cx="74.8" cy="-90" rx="47.1" ry="18"/>
<text text-anchor="middle" x="74.8" y="-86.3" font-family="Times,serif" font-size="14.00">DelayAction</text>
</g>
<!-- d29db818&#45;715e&#45;474b&#45;a76a&#45;59e12e1b729e&#45;&gt;6cdd92ef&#45;f270&#45;4ac6&#45;8ed7&#45;6dbc240c1f3e -->
<g id="edge2" class="edge">
<title>d29db818&#45;715e&#45;474b&#45;a76a&#45;59e12e1b729e&#45;&gt;6cdd92ef&#45;f270&#45;4ac6&#45;8ed7&#45;6dbc240c1f3e</title>
<path fill="none" stroke="black" d="M74.8,-143.7C74.8,-135.98 74.8,-126.71 74.8,-118.11"/>
<polygon fill="black" stroke="black" points="78.3,-118.1 74.8,-108.1 71.3,-118.1 78.3,-118.1"/>
</g>
<!-- c5580e64&#45;d065&#45;4011&#45;913d&#45;7fe0502c10b0 -->
<g id="node6" class="node">
<title>c5580e64&#45;d065&#45;4011&#45;913d&#45;7fe0502c10b0</title>
<ellipse fill="none" stroke="black" cx="74.8" cy="-18" rx="59.9" ry="18"/>
<text text-anchor="middle" x="74.8" y="-14.3" font-family="Times,serif" font-size="14.00">ZeroMovement</text>
</g>
<!-- 6cdd92ef&#45;f270&#45;4ac6&#45;8ed7&#45;6dbc240c1f3e&#45;&gt;c5580e64&#45;d065&#45;4011&#45;913d&#45;7fe0502c10b0 -->
<g id="edge3" class="edge">
<title>6cdd92ef&#45;f270&#45;4ac6&#45;8ed7&#45;6dbc240c1f3e&#45;&gt;c5580e64&#45;d065&#45;4011&#45;913d&#45;7fe0502c10b0</title>
<path fill="none" stroke="black" d="M74.8,-71.7C74.8,-63.98 74.8,-54.71 74.8,-46.11"/>
<polygon fill="black" stroke="black" points="78.3,-46.1 74.8,-36.1 71.3,-46.1 78.3,-46.1"/>
</g>
</g>
</svg>
