<?xml version="1.0" encoding="UTF-8" standalone="no"?>
<!DOCTYPE svg PUBLIC "-//W3C//DTD SVG 1.1//EN"
 "http://www.w3.org/Graphics/SVG/1.1/DTD/svg11.dtd">
<!-- Generated by graphviz version 2.43.0 (0)
 -->
<!-- Title: G Pages: 1 -->
<svg width="583pt" height="552pt"
 viewBox="0.00 0.00 582.60 552.00" xmlns="http://www.w3.org/2000/svg" xmlns:xlink="http://www.w3.org/1999/xlink">
<g id="graph0" class="graph" transform="scale(1 1) rotate(0) translate(4 548)">
<title>G</title>
<polygon fill="transparent" stroke="transparent" points="-4,4 -4,-548 578.6,-548 578.6,4 -4,4"/>
<!-- 14a8eab4&#45;3b06&#45;4c62&#45;830c&#45;3bf4f5c51b06 -->
<g id="node1" class="node">
<title>14a8eab4&#45;3b06&#45;4c62&#45;830c&#45;3bf4f5c51b06</title>
<polygon fill="none" stroke="black" points="294.3,-384 166.67,-366 294.3,-348 421.93,-366 294.3,-384"/>
<text text-anchor="middle" x="294.3" y="-362.3" font-family="Times,serif" font-size="14.00">Consecutive True &lt; 34</text>
</g>
<!-- efccccc8&#45;2728&#45;4e93&#45;a0b4&#45;0f724a5e1fc7 -->
<g id="node5" class="node">
<title>efccccc8&#45;2728&#45;4e93&#45;a0b4&#45;0f724a5e1fc7</title>
<ellipse fill="none" stroke="black" cx="86.3" cy="-279" rx="38.5" ry="18"/>
<text text-anchor="middle" x="86.3" y="-275.3" font-family="Times,serif" font-size="14.00">ConstYaw</text>
</g>
<!-- 14a8eab4&#45;3b06&#45;4c62&#45;830c&#45;3bf4f5c51b06&#45;&gt;efccccc8&#45;2728&#45;4e93&#45;a0b4&#45;0f724a5e1fc7 -->
<g id="edge6" class="edge">
<title>14a8eab4&#45;3b06&#45;4c62&#45;830c&#45;3bf4f5c51b06&#45;&gt;efccccc8&#45;2728&#45;4e93&#45;a0b4&#45;0f724a5e1fc7</title>
<path fill="none" stroke="black" d="M263.16,-352.27C225.89,-337.04 163.53,-311.56 123.69,-295.28"/>
<polygon fill="black" stroke="black" points="124.9,-291.99 114.32,-291.45 122.25,-298.47 124.9,-291.99"/>
<text text-anchor="middle" x="220.3" y="-318.8" font-family="Times,serif" font-size="14.00">True</text>
</g>
<!-- 10a2bb07&#45;5786&#45;49b0&#45;a8f7&#45;0ef5498afd4e -->
<g id="node8" class="node">
<title>10a2bb07&#45;5786&#45;49b0&#45;a8f7&#45;0ef5498afd4e</title>
<ellipse fill="none" stroke="black" cx="294.3" cy="-279" rx="59.9" ry="18"/>
<text text-anchor="middle" x="294.3" y="-275.3" font-family="Times,serif" font-size="14.00">ZeroMovement</text>
</g>
<!-- 14a8eab4&#45;3b06&#45;4c62&#45;830c&#45;3bf4f5c51b06&#45;&gt;10a2bb07&#45;5786&#45;49b0&#45;a8f7&#45;0ef5498afd4e -->
<g id="edge7" class="edge">
<title>14a8eab4&#45;3b06&#45;4c62&#45;830c&#45;3bf4f5c51b06&#45;&gt;10a2bb07&#45;5786&#45;49b0&#45;a8f7&#45;0ef5498afd4e</title>
<path fill="none" stroke="black" d="M294.3,-347.8C294.3,-336.16 294.3,-320.55 294.3,-307.24"/>
<polygon fill="black" stroke="black" points="297.8,-307.18 294.3,-297.18 290.8,-307.18 297.8,-307.18"/>
<text text-anchor="middle" x="313.3" y="-318.8" font-family="Times,serif" font-size="14.00">False</text>
</g>
<!-- ba0f0021&#45;0e5b&#45;4a9e&#45;88f6&#45;c80e679f4ed4 -->
<g id="node2" class="node">
<title>ba0f0021&#45;0e5b&#45;4a9e&#45;88f6&#45;c80e679f4ed4</title>
<ellipse fill="none" stroke="black" cx="86.3" cy="-105" rx="36.1" ry="18"/>
<text text-anchor="middle" x="86.3" y="-101.3" font-family="Times,serif" font-size="14.00">SideMult</text>
</g>
<!-- 14c76b66&#45;81ab&#45;4c95&#45;adbc&#45;525427de1de8 -->
<g id="node3" class="node">
<title>14c76b66&#45;81ab&#45;4c95&#45;adbc&#45;525427de1de8</title>
<ellipse fill="none" stroke="black" cx="86.3" cy="-18" rx="80.11" ry="18"/>
<text text-anchor="middle" x="86.3" y="-14.3" font-family="Times,serif" font-size="14.00">Stability2Movement</text>
</g>
<!-- ba0f0021&#45;0e5b&#45;4a9e&#45;88f6&#45;c80e679f4ed4&#45;&gt;14c76b66&#45;81ab&#45;4c95&#45;adbc&#45;525427de1de8 -->
<g id="edge1" class="edge">
<title>ba0f0021&#45;0e5b&#45;4a9e&#45;88f6&#45;c80e679f4ed4&#45;&gt;14c76b66&#45;81ab&#45;4c95&#45;adbc&#45;525427de1de8</title>
<path fill="none" stroke="purple" d="M86.3,-86.8C86.3,-75.16 86.3,-59.55 86.3,-46.24"/>
<polygon fill="purple" stroke="purple" points="89.8,-46.18 86.3,-36.18 82.8,-46.18 89.8,-46.18"/>
<text text-anchor="middle" x="121.8" y="-57.8" font-family="Times,serif" font-size="14.00" fill="purple">Pass Data</text>
</g>
<!-- a90644bd&#45;fddc&#45;4f5d&#45;bdbb&#45;914496a2f4d8 -->
<g id="node4" class="node">
<title>a90644bd&#45;fddc&#45;4f5d&#45;bdbb&#45;914496a2f4d8</title>
<ellipse fill="none" stroke="black" cx="86.3" cy="-192" rx="27" ry="18"/>
<text text-anchor="middle" x="86.3" y="-188.3" font-family="Times,serif" font-size="14.00">SetX</text>
</g>
<!-- a90644bd&#45;fddc&#45;4f5d&#45;bdbb&#45;914496a2f4d8&#45;&gt;ba0f0021&#45;0e5b&#45;4a9e&#45;88f6&#45;c80e679f4ed4 -->
<g id="edge2" class="edge">
<title>a90644bd&#45;fddc&#45;4f5d&#45;bdbb&#45;914496a2f4d8&#45;&gt;ba0f0021&#45;0e5b&#45;4a9e&#45;88f6&#45;c80e679f4ed4</title>
<path fill="none" stroke="purple" d="M86.3,-173.8C86.3,-162.16 86.3,-146.55 86.3,-133.24"/>
<polygon fill="purple" stroke="purple" points="89.8,-133.18 86.3,-123.18 82.8,-133.18 89.8,-133.18"/>
<text text-anchor="middle" x="121.8" y="-144.8" font-family="Times,serif" font-size="14.00" fill="purple">Pass Data</text>
</g>
<!-- efccccc8&#45;2728&#45;4e93&#45;a0b4&#45;0f724a5e1fc7&#45;&gt;a90644bd&#45;fddc&#45;4f5d&#45;bdbb&#45;914496a2f4d8 -->
<g id="edge3" class="edge">
<title>efccccc8&#45;2728&#45;4e93&#45;a0b4&#45;0f724a5e1fc7&#45;&gt;a90644bd&#45;fddc&#45;4f5d&#45;bdbb&#45;914496a2f4d8</title>
<path fill="none" stroke="purple" d="M86.3,-260.8C86.3,-249.16 86.3,-233.55 86.3,-220.24"/>
<polygon fill="purple" stroke="purple" points="89.8,-220.18 86.3,-210.18 82.8,-220.18 89.8,-220.18"/>
<text text-anchor="middle" x="121.8" y="-231.8" font-family="Times,serif" font-size="14.00" fill="purple">Pass Data</text>
</g>
<!-- 20915aa6&#45;21ca&#45;4345&#45;8092&#45;7ced56c3bbfc -->
<g id="node6" class="node">
<title>20915aa6&#45;21ca&#45;4345&#45;8092&#45;7ced56c3bbfc</title>
<ellipse fill="none" stroke="black" cx="294.3" cy="-453" rx="46.4" ry="18"/>
<text text-anchor="middle" x="294.3" y="-449.3" font-family="Times,serif" font-size="14.00">AlwaysTrue</text>
</g>
<!-- 20915aa6&#45;21ca&#45;4345&#45;8092&#45;7ced56c3bbfc&#45;&gt;14a8eab4&#45;3b06&#45;4c62&#45;830c&#45;3bf4f5c51b06 -->
<g id="edge4" class="edge">
<title>20915aa6&#45;21ca&#45;4345&#45;8092&#45;7ced56c3bbfc&#45;&gt;14a8eab4&#45;3b06&#45;4c62&#45;830c&#45;3bf4f5c51b06</title>
<path fill="none" stroke="purple" d="M294.3,-434.8C294.3,-423.16 294.3,-407.55 294.3,-394.24"/>
<polygon fill="purple" stroke="purple" points="297.8,-394.18 294.3,-384.18 290.8,-394.18 297.8,-394.18"/>
<text text-anchor="middle" x="329.8" y="-405.8" font-family="Times,serif" font-size="14.00" fill="purple">Pass Data</text>
</g>
<!-- 855e8ce6&#45;4849&#45;43ee&#45;afe4&#45;f68b3d2c3f4f -->
<g id="node7" class="node">
<title>855e8ce6&#45;4849&#45;43ee&#45;afe4&#45;f68b3d2c3f4f</title>
<ellipse fill="none" stroke="black" cx="294.3" cy="-526" rx="47.1" ry="18"/>
<text text-anchor="middle" x="294.3" y="-522.3" font-family="Times,serif" font-size="14.00">DelayAction</text>
</g>
<!-- 855e8ce6&#45;4849&#45;43ee&#45;afe4&#45;f68b3d2c3f4f&#45;&gt;20915aa6&#45;21ca&#45;4345&#45;8092&#45;7ced56c3bbfc -->
<g id="edge5" class="edge">
<title>855e8ce6&#45;4849&#45;43ee&#45;afe4&#45;f68b3d2c3f4f&#45;&gt;20915aa6&#45;21ca&#45;4345&#45;8092&#45;7ced56c3bbfc</title>
<path fill="none" stroke="black" d="M294.3,-507.81C294.3,-499.79 294.3,-490.05 294.3,-481.07"/>
<polygon fill="black" stroke="black" points="297.8,-481.03 294.3,-471.03 290.8,-481.03 297.8,-481.03"/>
</g>
<!-- dfd9d4a7&#45;e802&#45;4a3d&#45;b955&#45;deffd2e24133 -->
<g id="node9" class="node">
<title>dfd9d4a7&#45;e802&#45;4a3d&#45;b955&#45;deffd2e24133</title>
<ellipse fill="none" stroke="black" cx="47.3" cy="-366" rx="47.1" ry="18"/>
<text text-anchor="middle" x="47.3" y="-362.3" font-family="Times,serif" font-size="14.00">DelayAction</text>
</g>
<!-- dfd9d4a7&#45;e802&#45;4a3d&#45;b955&#45;deffd2e24133&#45;&gt;efccccc8&#45;2728&#45;4e93&#45;a0b4&#45;0f724a5e1fc7 -->
<g id="edge8" class="edge">
<title>dfd9d4a7&#45;e802&#45;4a3d&#45;b955&#45;deffd2e24133&#45;&gt;efccccc8&#45;2728&#45;4e93&#45;a0b4&#45;0f724a5e1fc7</title>
<path fill="none" stroke="black" d="M55.01,-348.21C60.51,-336.22 68.02,-319.85 74.3,-306.16"/>
<polygon fill="black" stroke="black" points="77.62,-307.31 78.61,-296.76 71.26,-304.39 77.62,-307.31"/>
</g>
<!-- 233ab4c6&#45;385f&#45;4ab7&#45;a10e&#45;0b5c52cdc279 -->
<g id="node10" class="node">
<title>233ab4c6&#45;385f&#45;4ab7&#45;a10e&#45;0b5c52cdc279</title>
<ellipse fill="none" stroke="black" cx="494.3" cy="-526" rx="80.11" ry="18"/>
<text text-anchor="middle" x="494.3" y="-522.3" font-family="Times,serif" font-size="14.00">Stability2Movement</text>
</g>
</g>
</svg>
