<?xml version="1.0" encoding="UTF-8" standalone="no"?>
<!DOCTYPE svg PUBLIC "-//W3C//DTD SVG 1.1//EN"
 "http://www.w3.org/Graphics/SVG/1.1/DTD/svg11.dtd">
<!-- Generated by graphviz version 2.43.0 (0)
 -->
<!-- Title: G Pages: 1 -->
<svg width="318pt" height="987pt"
 viewBox="0.00 0.00 318.29 987.00" xmlns="http://www.w3.org/2000/svg" xmlns:xlink="http://www.w3.org/1999/xlink">
<g id="graph0" class="graph" transform="scale(1 1) rotate(0) translate(4 983)">
<title>G</title>
<polygon fill="transparent" stroke="transparent" points="-4,4 -4,-983 314.29,-983 314.29,4 -4,4"/>
<!-- b11ad593&#45;4e1e&#45;4396&#45;9e9c&#45;7c0238fbae51 -->
<g id="node1" class="node">
<title>b11ad593&#45;4e1e&#45;4396&#45;9e9c&#45;7c0238fbae51</title>
<polygon fill="none" stroke="black" points="65.34,-906 0.16,-888 65.34,-870 130.52,-888 65.34,-906"/>
<text text-anchor="middle" x="65.34" y="-884.3" font-family="Times,serif" font-size="14.00">AlwaysTrue</text>
</g>
<!-- da65fac5&#45;3b1b&#45;422f&#45;90a4&#45;9fa6b5f2b3aa -->
<g id="node11" class="node">
<title>da65fac5&#45;3b1b&#45;422f&#45;90a4&#45;9fa6b5f2b3aa</title>
<ellipse fill="none" stroke="black" cx="103.34" cy="-801" rx="46.5" ry="18"/>
<text text-anchor="middle" x="103.34" y="-797.3" font-family="Times,serif" font-size="14.00">VisionNorm</text>
</g>
<!-- b11ad593&#45;4e1e&#45;4396&#45;9e9c&#45;7c0238fbae51&#45;&gt;da65fac5&#45;3b1b&#45;422f&#45;90a4&#45;9fa6b5f2b3aa -->
<g id="edge10" class="edge">
<title>b11ad593&#45;4e1e&#45;4396&#45;9e9c&#45;7c0238fbae51&#45;&gt;da65fac5&#45;3b1b&#45;422f&#45;90a4&#45;9fa6b5f2b3aa</title>
<path fill="none" stroke="black" d="M72.13,-871.8C77.54,-859.7 85.25,-842.47 91.65,-828.16"/>
<polygon fill="black" stroke="black" points="94.94,-829.37 95.82,-818.81 88.55,-826.51 94.94,-829.37"/>
<text text-anchor="middle" x="104.34" y="-840.8" font-family="Times,serif" font-size="14.00">True</text>
</g>
<!-- faeb001e&#45;9fae&#45;468f&#45;bce1&#45;591759f05791 -->
<g id="node2" class="node">
<title>faeb001e&#45;9fae&#45;468f&#45;bce1&#45;591759f05791</title>
<ellipse fill="none" stroke="black" cx="103.34" cy="-105" rx="27" ry="18"/>
<text text-anchor="middle" x="103.34" y="-101.3" font-family="Times,serif" font-size="14.00">FlatX</text>
</g>
<!-- fe27896d&#45;49e7&#45;4448&#45;8877&#45;e902db73842f -->
<g id="node3" class="node">
<title>fe27896d&#45;49e7&#45;4448&#45;8877&#45;e902db73842f</title>
<ellipse fill="none" stroke="black" cx="103.34" cy="-18" rx="80.11" ry="18"/>
<text text-anchor="middle" x="103.34" y="-14.3" font-family="Times,serif" font-size="14.00">Stability2Movement</text>
</g>
<!-- faeb001e&#45;9fae&#45;468f&#45;bce1&#45;591759f05791&#45;&gt;fe27896d&#45;49e7&#45;4448&#45;8877&#45;e902db73842f -->
<g id="edge1" class="edge">
<title>faeb001e&#45;9fae&#45;468f&#45;bce1&#45;591759f05791&#45;&gt;fe27896d&#45;49e7&#45;4448&#45;8877&#45;e902db73842f</title>
<path fill="none" stroke="purple" d="M103.34,-86.8C103.34,-75.16 103.34,-59.55 103.34,-46.24"/>
<polygon fill="purple" stroke="purple" points="106.84,-46.18 103.34,-36.18 99.84,-46.18 106.84,-46.18"/>
<text text-anchor="middle" x="138.84" y="-57.8" font-family="Times,serif" font-size="14.00" fill="purple">Pass Data</text>
</g>
<!-- a554ba01&#45;1c98&#45;4c81&#45;96f3&#45;889a93ccbe21 -->
<g id="node4" class="node">
<title>a554ba01&#45;1c98&#45;4c81&#45;96f3&#45;889a93ccbe21</title>
<ellipse fill="none" stroke="black" cx="103.34" cy="-192" rx="27" ry="18"/>
<text text-anchor="middle" x="103.34" y="-188.3" font-family="Times,serif" font-size="14.00">StripY</text>
</g>
<!-- a554ba01&#45;1c98&#45;4c81&#45;96f3&#45;889a93ccbe21&#45;&gt;faeb001e&#45;9fae&#45;468f&#45;bce1&#45;591759f05791 -->
<g id="edge2" class="edge">
<title>a554ba01&#45;1c98&#45;4c81&#45;96f3&#45;889a93ccbe21&#45;&gt;faeb001e&#45;9fae&#45;468f&#45;bce1&#45;591759f05791</title>
<path fill="none" stroke="purple" d="M103.34,-173.8C103.34,-162.16 103.34,-146.55 103.34,-133.24"/>
<polygon fill="purple" stroke="purple" points="106.84,-133.18 103.34,-123.18 99.84,-133.18 106.84,-133.18"/>
<text text-anchor="middle" x="138.84" y="-144.8" font-family="Times,serif" font-size="14.00" fill="purple">Pass Data</text>
</g>
<!-- 5454b336&#45;75d3&#45;439c&#45;9463&#45;a7bef485ec7b -->
<g id="node5" class="node">
<title>5454b336&#45;75d3&#45;439c&#45;9463&#45;a7bef485ec7b</title>
<ellipse fill="none" stroke="black" cx="103.34" cy="-279" rx="52.6" ry="18"/>
<text text-anchor="middle" x="103.34" y="-275.3" font-family="Times,serif" font-size="14.00">Anon Closure</text>
</g>
<!-- 5454b336&#45;75d3&#45;439c&#45;9463&#45;a7bef485ec7b&#45;&gt;a554ba01&#45;1c98&#45;4c81&#45;96f3&#45;889a93ccbe21 -->
<g id="edge3" class="edge">
<title>5454b336&#45;75d3&#45;439c&#45;9463&#45;a7bef485ec7b&#45;&gt;a554ba01&#45;1c98&#45;4c81&#45;96f3&#45;889a93ccbe21</title>
<path fill="none" stroke="purple" d="M103.34,-260.8C103.34,-249.16 103.34,-233.55 103.34,-220.24"/>
<polygon fill="purple" stroke="purple" points="106.84,-220.18 103.34,-210.18 99.84,-220.18 106.84,-220.18"/>
<text text-anchor="middle" x="138.84" y="-231.8" font-family="Times,serif" font-size="14.00" fill="purple">Pass Data</text>
</g>
<!-- 8e113cf3&#45;d37c&#45;4c3d&#45;a8e4&#45;e9a1e2110d46 -->
<g id="node6" class="node">
<title>8e113cf3&#45;d37c&#45;4c3d&#45;a8e4&#45;e9a1e2110d46</title>
<ellipse fill="none" stroke="black" cx="103.34" cy="-366" rx="51.3" ry="18"/>
<text text-anchor="middle" x="103.34" y="-362.3" font-family="Times,serif" font-size="14.00">OffsetToPose</text>
</g>
<!-- 8e113cf3&#45;d37c&#45;4c3d&#45;a8e4&#45;e9a1e2110d46&#45;&gt;5454b336&#45;75d3&#45;439c&#45;9463&#45;a7bef485ec7b -->
<g id="edge4" class="edge">
<title>8e113cf3&#45;d37c&#45;4c3d&#45;a8e4&#45;e9a1e2110d46&#45;&gt;5454b336&#45;75d3&#45;439c&#45;9463&#45;a7bef485ec7b</title>
<path fill="none" stroke="purple" d="M103.34,-347.8C103.34,-336.16 103.34,-320.55 103.34,-307.24"/>
<polygon fill="purple" stroke="purple" points="106.84,-307.18 103.34,-297.18 99.84,-307.18 106.84,-307.18"/>
<text text-anchor="middle" x="138.84" y="-318.8" font-family="Times,serif" font-size="14.00" fill="purple">Pass Data</text>
</g>
<!-- 6924f80f&#45;4be5&#45;4710&#45;ad37&#45;e9901db76c48 -->
<g id="node7" class="node">
<title>6924f80f&#45;4be5&#45;4710&#45;ad37&#45;e9901db76c48</title>
<ellipse fill="none" stroke="black" cx="103.34" cy="-453" rx="32.4" ry="18"/>
<text text-anchor="middle" x="103.34" y="-449.3" font-family="Times,serif" font-size="14.00">Average</text>
</g>
<!-- 6924f80f&#45;4be5&#45;4710&#45;ad37&#45;e9901db76c48&#45;&gt;8e113cf3&#45;d37c&#45;4c3d&#45;a8e4&#45;e9a1e2110d46 -->
<g id="edge5" class="edge">
<title>6924f80f&#45;4be5&#45;4710&#45;ad37&#45;e9901db76c48&#45;&gt;8e113cf3&#45;d37c&#45;4c3d&#45;a8e4&#45;e9a1e2110d46</title>
<path fill="none" stroke="purple" d="M103.34,-434.8C103.34,-423.16 103.34,-407.55 103.34,-394.24"/>
<polygon fill="purple" stroke="purple" points="106.84,-394.18 103.34,-384.18 99.84,-394.18 106.84,-394.18"/>
<text text-anchor="middle" x="138.84" y="-405.8" font-family="Times,serif" font-size="14.00" fill="purple">Pass Data</text>
</g>
<!-- d33130fb&#45;bde8&#45;4e87&#45;b3d1&#45;ab72958a5fcb -->
<g id="node8" class="node">
<title>d33130fb&#45;bde8&#45;4e87&#45;b3d1&#45;ab72958a5fcb</title>
<ellipse fill="none" stroke="black" cx="103.34" cy="-540" rx="61.1" ry="18"/>
<text text-anchor="middle" x="103.34" y="-536.3" font-family="Times,serif" font-size="14.00">ExtractPosition</text>
</g>
<!-- d33130fb&#45;bde8&#45;4e87&#45;b3d1&#45;ab72958a5fcb&#45;&gt;6924f80f&#45;4be5&#45;4710&#45;ad37&#45;e9901db76c48 -->
<g id="edge6" class="edge">
<title>d33130fb&#45;bde8&#45;4e87&#45;b3d1&#45;ab72958a5fcb&#45;&gt;6924f80f&#45;4be5&#45;4710&#45;ad37&#45;e9901db76c48</title>
<path fill="none" stroke="purple" d="M103.34,-521.8C103.34,-510.16 103.34,-494.55 103.34,-481.24"/>
<polygon fill="purple" stroke="purple" points="106.84,-481.18 103.34,-471.18 99.84,-481.18 106.84,-481.18"/>
<text text-anchor="middle" x="138.84" y="-492.8" font-family="Times,serif" font-size="14.00" fill="purple">Pass Data</text>
</g>
<!-- a7a28015&#45;93cb&#45;4474&#45;ac76&#45;f7bf38bd1008 -->
<g id="node9" class="node">
<title>a7a28015&#45;93cb&#45;4474&#45;ac76&#45;f7bf38bd1008</title>
<ellipse fill="none" stroke="black" cx="103.34" cy="-627" rx="27" ry="18"/>
<text text-anchor="middle" x="103.34" y="-623.3" font-family="Times,serif" font-size="14.00">ToVec</text>
</g>
<!-- a7a28015&#45;93cb&#45;4474&#45;ac76&#45;f7bf38bd1008&#45;&gt;d33130fb&#45;bde8&#45;4e87&#45;b3d1&#45;ab72958a5fcb -->
<g id="edge7" class="edge">
<title>a7a28015&#45;93cb&#45;4474&#45;ac76&#45;f7bf38bd1008&#45;&gt;d33130fb&#45;bde8&#45;4e87&#45;b3d1&#45;ab72958a5fcb</title>
<path fill="none" stroke="purple" d="M103.34,-608.8C103.34,-597.16 103.34,-581.55 103.34,-568.24"/>
<polygon fill="purple" stroke="purple" points="106.84,-568.18 103.34,-558.18 99.84,-568.18 106.84,-568.18"/>
<text text-anchor="middle" x="138.84" y="-579.8" font-family="Times,serif" font-size="14.00" fill="purple">Pass Data</text>
</g>
<!-- 6223d2b1&#45;df10&#45;4c4f&#45;89ed&#45;3bf4b19e68d5 -->
<g id="node10" class="node">
<title>6223d2b1&#45;df10&#45;4c4f&#45;89ed&#45;3bf4b19e68d5</title>
<ellipse fill="none" stroke="black" cx="103.34" cy="-714" rx="45.2" ry="18"/>
<text text-anchor="middle" x="103.34" y="-710.3" font-family="Times,serif" font-size="14.00">Detect true</text>
</g>
<!-- 6223d2b1&#45;df10&#45;4c4f&#45;89ed&#45;3bf4b19e68d5&#45;&gt;a7a28015&#45;93cb&#45;4474&#45;ac76&#45;f7bf38bd1008 -->
<g id="edge8" class="edge">
<title>6223d2b1&#45;df10&#45;4c4f&#45;89ed&#45;3bf4b19e68d5&#45;&gt;a7a28015&#45;93cb&#45;4474&#45;ac76&#45;f7bf38bd1008</title>
<path fill="none" stroke="purple" d="M103.34,-695.8C103.34,-684.16 103.34,-668.55 103.34,-655.24"/>
<polygon fill="purple" stroke="purple" points="106.84,-655.18 103.34,-645.18 99.84,-655.18 106.84,-655.18"/>
<text text-anchor="middle" x="138.84" y="-666.8" font-family="Times,serif" font-size="14.00" fill="purple">Pass Data</text>
</g>
<!-- da65fac5&#45;3b1b&#45;422f&#45;90a4&#45;9fa6b5f2b3aa&#45;&gt;6223d2b1&#45;df10&#45;4c4f&#45;89ed&#45;3bf4b19e68d5 -->
<g id="edge9" class="edge">
<title>da65fac5&#45;3b1b&#45;422f&#45;90a4&#45;9fa6b5f2b3aa&#45;&gt;6223d2b1&#45;df10&#45;4c4f&#45;89ed&#45;3bf4b19e68d5</title>
<path fill="none" stroke="purple" d="M103.34,-782.8C103.34,-771.16 103.34,-755.55 103.34,-742.24"/>
<polygon fill="purple" stroke="purple" points="106.84,-742.18 103.34,-732.18 99.84,-742.18 106.84,-742.18"/>
<text text-anchor="middle" x="138.84" y="-753.8" font-family="Times,serif" font-size="14.00" fill="purple">Pass Data</text>
</g>
<!-- a1535146&#45;75e3&#45;4e78&#45;9bba&#45;6bca83aed78e -->
<g id="node12" class="node">
<title>a1535146&#45;75e3&#45;4e78&#45;9bba&#45;6bca83aed78e</title>
<ellipse fill="none" stroke="black" cx="250.34" cy="-888" rx="47.1" ry="18"/>
<text text-anchor="middle" x="250.34" y="-884.3" font-family="Times,serif" font-size="14.00">DelayAction</text>
</g>
<!-- a1535146&#45;75e3&#45;4e78&#45;9bba&#45;6bca83aed78e&#45;&gt;da65fac5&#45;3b1b&#45;422f&#45;90a4&#45;9fa6b5f2b3aa -->
<g id="edge11" class="edge">
<title>a1535146&#45;75e3&#45;4e78&#45;9bba&#45;6bca83aed78e&#45;&gt;da65fac5&#45;3b1b&#45;422f&#45;90a4&#45;9fa6b5f2b3aa</title>
<path fill="none" stroke="black" d="M225.4,-872.58C201.12,-858.54 164.03,-837.09 137.1,-821.52"/>
<polygon fill="black" stroke="black" points="138.81,-818.47 128.4,-816.49 135.3,-824.53 138.81,-818.47"/>
</g>
<!-- 8061171f&#45;8643&#45;457d&#45;a01e&#45;02e757bcd286 -->
<g id="node13" class="node">
<title>8061171f&#45;8643&#45;457d&#45;a01e&#45;02e757bcd286</title>
<ellipse fill="none" stroke="black" cx="250.34" cy="-961" rx="59.9" ry="18"/>
<text text-anchor="middle" x="250.34" y="-957.3" font-family="Times,serif" font-size="14.00">ZeroMovement</text>
</g>
<!-- 8061171f&#45;8643&#45;457d&#45;a01e&#45;02e757bcd286&#45;&gt;a1535146&#45;75e3&#45;4e78&#45;9bba&#45;6bca83aed78e -->
<g id="edge12" class="edge">
<title>8061171f&#45;8643&#45;457d&#45;a01e&#45;02e757bcd286&#45;&gt;a1535146&#45;75e3&#45;4e78&#45;9bba&#45;6bca83aed78e</title>
<path fill="none" stroke="black" d="M250.34,-942.81C250.34,-934.79 250.34,-925.05 250.34,-916.07"/>
<polygon fill="black" stroke="black" points="253.84,-916.03 250.34,-906.03 246.84,-916.03 253.84,-916.03"/>
</g>
</g>
</svg>
