<?xml version="1.0" encoding="UTF-8" standalone="no"?>
<!DOCTYPE svg PUBLIC "-//W3C//DTD SVG 1.1//EN"
 "http://www.w3.org/Graphics/SVG/1.1/DTD/svg11.dtd">
<!-- Generated by graphviz version 2.43.0 (0)
 -->
<!-- Title: G Pages: 1 -->
<svg width="318pt" height="987pt"
 viewBox="0.00 0.00 318.29 987.00" xmlns="http://www.w3.org/2000/svg" xmlns:xlink="http://www.w3.org/1999/xlink">
<g id="graph0" class="graph" transform="scale(1 1) rotate(0) translate(4 983)">
<title>G</title>
<polygon fill="transparent" stroke="transparent" points="-4,4 -4,-983 314.29,-983 314.29,4 -4,4"/>
<!-- be22e633&#45;9629&#45;438e&#45;bf35&#45;a676962da4a7 -->
<g id="node1" class="node">
<title>be22e633&#45;9629&#45;438e&#45;bf35&#45;a676962da4a7</title>
<polygon fill="none" stroke="black" points="65.34,-906 0.16,-888 65.34,-870 130.52,-888 65.34,-906"/>
<text text-anchor="middle" x="65.34" y="-884.3" font-family="Times,serif" font-size="14.00">AlwaysTrue</text>
</g>
<!-- 2ef053b4&#45;5696&#45;4087&#45;8003&#45;adb20e56ae3c -->
<g id="node11" class="node">
<title>2ef053b4&#45;5696&#45;4087&#45;8003&#45;adb20e56ae3c</title>
<ellipse fill="none" stroke="black" cx="103.34" cy="-801" rx="46.5" ry="18"/>
<text text-anchor="middle" x="103.34" y="-797.3" font-family="Times,serif" font-size="14.00">VisionNorm</text>
</g>
<!-- be22e633&#45;9629&#45;438e&#45;bf35&#45;a676962da4a7&#45;&gt;2ef053b4&#45;5696&#45;4087&#45;8003&#45;adb20e56ae3c -->
<g id="edge10" class="edge">
<title>be22e633&#45;9629&#45;438e&#45;bf35&#45;a676962da4a7&#45;&gt;2ef053b4&#45;5696&#45;4087&#45;8003&#45;adb20e56ae3c</title>
<path fill="none" stroke="black" d="M72.13,-871.8C77.54,-859.7 85.25,-842.47 91.65,-828.16"/>
<polygon fill="black" stroke="black" points="94.94,-829.37 95.82,-818.81 88.55,-826.51 94.94,-829.37"/>
<text text-anchor="middle" x="104.34" y="-840.8" font-family="Times,serif" font-size="14.00">True</text>
</g>
<!-- 5577775e&#45;66e5&#45;4eaa&#45;95cb&#45;1bc9f966a195 -->
<g id="node2" class="node">
<title>5577775e&#45;66e5&#45;4eaa&#45;95cb&#45;1bc9f966a195</title>
<ellipse fill="none" stroke="black" cx="103.34" cy="-105" rx="27" ry="18"/>
<text text-anchor="middle" x="103.34" y="-101.3" font-family="Times,serif" font-size="14.00">FlatX</text>
</g>
<!-- e8e28344&#45;cd75&#45;4ec6&#45;b54c&#45;e2b3d1825c1b -->
<g id="node3" class="node">
<title>e8e28344&#45;cd75&#45;4ec6&#45;b54c&#45;e2b3d1825c1b</title>
<ellipse fill="none" stroke="black" cx="103.34" cy="-18" rx="80.11" ry="18"/>
<text text-anchor="middle" x="103.34" y="-14.3" font-family="Times,serif" font-size="14.00">Stability2Movement</text>
</g>
<!-- 5577775e&#45;66e5&#45;4eaa&#45;95cb&#45;1bc9f966a195&#45;&gt;e8e28344&#45;cd75&#45;4ec6&#45;b54c&#45;e2b3d1825c1b -->
<g id="edge1" class="edge">
<title>5577775e&#45;66e5&#45;4eaa&#45;95cb&#45;1bc9f966a195&#45;&gt;e8e28344&#45;cd75&#45;4ec6&#45;b54c&#45;e2b3d1825c1b</title>
<path fill="none" stroke="purple" d="M103.34,-86.8C103.34,-75.16 103.34,-59.55 103.34,-46.24"/>
<polygon fill="purple" stroke="purple" points="106.84,-46.18 103.34,-36.18 99.84,-46.18 106.84,-46.18"/>
<text text-anchor="middle" x="138.84" y="-57.8" font-family="Times,serif" font-size="14.00" fill="purple">Pass Data</text>
</g>
<!-- c3fec2a0&#45;892b&#45;4fd0&#45;8193&#45;b3a70d4eef31 -->
<g id="node4" class="node">
<title>c3fec2a0&#45;892b&#45;4fd0&#45;8193&#45;b3a70d4eef31</title>
<ellipse fill="none" stroke="black" cx="103.34" cy="-192" rx="27" ry="18"/>
<text text-anchor="middle" x="103.34" y="-188.3" font-family="Times,serif" font-size="14.00">StripY</text>
</g>
<!-- c3fec2a0&#45;892b&#45;4fd0&#45;8193&#45;b3a70d4eef31&#45;&gt;5577775e&#45;66e5&#45;4eaa&#45;95cb&#45;1bc9f966a195 -->
<g id="edge2" class="edge">
<title>c3fec2a0&#45;892b&#45;4fd0&#45;8193&#45;b3a70d4eef31&#45;&gt;5577775e&#45;66e5&#45;4eaa&#45;95cb&#45;1bc9f966a195</title>
<path fill="none" stroke="purple" d="M103.34,-173.8C103.34,-162.16 103.34,-146.55 103.34,-133.24"/>
<polygon fill="purple" stroke="purple" points="106.84,-133.18 103.34,-123.18 99.84,-133.18 106.84,-133.18"/>
<text text-anchor="middle" x="138.84" y="-144.8" font-family="Times,serif" font-size="14.00" fill="purple">Pass Data</text>
</g>
<!-- 3347e239&#45;ebac&#45;4e93&#45;b5ff&#45;c91466aac658 -->
<g id="node5" class="node">
<title>3347e239&#45;ebac&#45;4e93&#45;b5ff&#45;c91466aac658</title>
<ellipse fill="none" stroke="black" cx="103.34" cy="-279" rx="52.6" ry="18"/>
<text text-anchor="middle" x="103.34" y="-275.3" font-family="Times,serif" font-size="14.00">Anon Closure</text>
</g>
<!-- 3347e239&#45;ebac&#45;4e93&#45;b5ff&#45;c91466aac658&#45;&gt;c3fec2a0&#45;892b&#45;4fd0&#45;8193&#45;b3a70d4eef31 -->
<g id="edge3" class="edge">
<title>3347e239&#45;ebac&#45;4e93&#45;b5ff&#45;c91466aac658&#45;&gt;c3fec2a0&#45;892b&#45;4fd0&#45;8193&#45;b3a70d4eef31</title>
<path fill="none" stroke="purple" d="M103.34,-260.8C103.34,-249.16 103.34,-233.55 103.34,-220.24"/>
<polygon fill="purple" stroke="purple" points="106.84,-220.18 103.34,-210.18 99.84,-220.18 106.84,-220.18"/>
<text text-anchor="middle" x="138.84" y="-231.8" font-family="Times,serif" font-size="14.00" fill="purple">Pass Data</text>
</g>
<!-- bb765cb4&#45;07e3&#45;453a&#45;bf39&#45;07a88743c536 -->
<g id="node6" class="node">
<title>bb765cb4&#45;07e3&#45;453a&#45;bf39&#45;07a88743c536</title>
<ellipse fill="none" stroke="black" cx="103.34" cy="-366" rx="51.3" ry="18"/>
<text text-anchor="middle" x="103.34" y="-362.3" font-family="Times,serif" font-size="14.00">OffsetToPose</text>
</g>
<!-- bb765cb4&#45;07e3&#45;453a&#45;bf39&#45;07a88743c536&#45;&gt;3347e239&#45;ebac&#45;4e93&#45;b5ff&#45;c91466aac658 -->
<g id="edge4" class="edge">
<title>bb765cb4&#45;07e3&#45;453a&#45;bf39&#45;07a88743c536&#45;&gt;3347e239&#45;ebac&#45;4e93&#45;b5ff&#45;c91466aac658</title>
<path fill="none" stroke="purple" d="M103.34,-347.8C103.34,-336.16 103.34,-320.55 103.34,-307.24"/>
<polygon fill="purple" stroke="purple" points="106.84,-307.18 103.34,-297.18 99.84,-307.18 106.84,-307.18"/>
<text text-anchor="middle" x="138.84" y="-318.8" font-family="Times,serif" font-size="14.00" fill="purple">Pass Data</text>
</g>
<!-- f6a8d1be&#45;1586&#45;4f52&#45;9f26&#45;364daf2cd1b8 -->
<g id="node7" class="node">
<title>f6a8d1be&#45;1586&#45;4f52&#45;9f26&#45;364daf2cd1b8</title>
<ellipse fill="none" stroke="black" cx="103.34" cy="-453" rx="32.4" ry="18"/>
<text text-anchor="middle" x="103.34" y="-449.3" font-family="Times,serif" font-size="14.00">Average</text>
</g>
<!-- f6a8d1be&#45;1586&#45;4f52&#45;9f26&#45;364daf2cd1b8&#45;&gt;bb765cb4&#45;07e3&#45;453a&#45;bf39&#45;07a88743c536 -->
<g id="edge5" class="edge">
<title>f6a8d1be&#45;1586&#45;4f52&#45;9f26&#45;364daf2cd1b8&#45;&gt;bb765cb4&#45;07e3&#45;453a&#45;bf39&#45;07a88743c536</title>
<path fill="none" stroke="purple" d="M103.34,-434.8C103.34,-423.16 103.34,-407.55 103.34,-394.24"/>
<polygon fill="purple" stroke="purple" points="106.84,-394.18 103.34,-384.18 99.84,-394.18 106.84,-394.18"/>
<text text-anchor="middle" x="138.84" y="-405.8" font-family="Times,serif" font-size="14.00" fill="purple">Pass Data</text>
</g>
<!-- 08fcd6a6&#45;d702&#45;4d7d&#45;bfa5&#45;6c5d4d9bfeb5 -->
<g id="node8" class="node">
<title>08fcd6a6&#45;d702&#45;4d7d&#45;bfa5&#45;6c5d4d9bfeb5</title>
<ellipse fill="none" stroke="black" cx="103.34" cy="-540" rx="61.1" ry="18"/>
<text text-anchor="middle" x="103.34" y="-536.3" font-family="Times,serif" font-size="14.00">ExtractPosition</text>
</g>
<!-- 08fcd6a6&#45;d702&#45;4d7d&#45;bfa5&#45;6c5d4d9bfeb5&#45;&gt;f6a8d1be&#45;1586&#45;4f52&#45;9f26&#45;364daf2cd1b8 -->
<g id="edge6" class="edge">
<title>08fcd6a6&#45;d702&#45;4d7d&#45;bfa5&#45;6c5d4d9bfeb5&#45;&gt;f6a8d1be&#45;1586&#45;4f52&#45;9f26&#45;364daf2cd1b8</title>
<path fill="none" stroke="purple" d="M103.34,-521.8C103.34,-510.16 103.34,-494.55 103.34,-481.24"/>
<polygon fill="purple" stroke="purple" points="106.84,-481.18 103.34,-471.18 99.84,-481.18 106.84,-481.18"/>
<text text-anchor="middle" x="138.84" y="-492.8" font-family="Times,serif" font-size="14.00" fill="purple">Pass Data</text>
</g>
<!-- 9df4ecee&#45;a41d&#45;4b7c&#45;aa90&#45;2a8e823ecf27 -->
<g id="node9" class="node">
<title>9df4ecee&#45;a41d&#45;4b7c&#45;aa90&#45;2a8e823ecf27</title>
<ellipse fill="none" stroke="black" cx="103.34" cy="-627" rx="27" ry="18"/>
<text text-anchor="middle" x="103.34" y="-623.3" font-family="Times,serif" font-size="14.00">ToVec</text>
</g>
<!-- 9df4ecee&#45;a41d&#45;4b7c&#45;aa90&#45;2a8e823ecf27&#45;&gt;08fcd6a6&#45;d702&#45;4d7d&#45;bfa5&#45;6c5d4d9bfeb5 -->
<g id="edge7" class="edge">
<title>9df4ecee&#45;a41d&#45;4b7c&#45;aa90&#45;2a8e823ecf27&#45;&gt;08fcd6a6&#45;d702&#45;4d7d&#45;bfa5&#45;6c5d4d9bfeb5</title>
<path fill="none" stroke="purple" d="M103.34,-608.8C103.34,-597.16 103.34,-581.55 103.34,-568.24"/>
<polygon fill="purple" stroke="purple" points="106.84,-568.18 103.34,-558.18 99.84,-568.18 106.84,-568.18"/>
<text text-anchor="middle" x="138.84" y="-579.8" font-family="Times,serif" font-size="14.00" fill="purple">Pass Data</text>
</g>
<!-- 3b15def2&#45;3a36&#45;4973&#45;ad70&#45;fa8ff4c02a87 -->
<g id="node10" class="node">
<title>3b15def2&#45;3a36&#45;4973&#45;ad70&#45;fa8ff4c02a87</title>
<ellipse fill="none" stroke="black" cx="103.34" cy="-714" rx="45.2" ry="18"/>
<text text-anchor="middle" x="103.34" y="-710.3" font-family="Times,serif" font-size="14.00">Detect true</text>
</g>
<!-- 3b15def2&#45;3a36&#45;4973&#45;ad70&#45;fa8ff4c02a87&#45;&gt;9df4ecee&#45;a41d&#45;4b7c&#45;aa90&#45;2a8e823ecf27 -->
<g id="edge8" class="edge">
<title>3b15def2&#45;3a36&#45;4973&#45;ad70&#45;fa8ff4c02a87&#45;&gt;9df4ecee&#45;a41d&#45;4b7c&#45;aa90&#45;2a8e823ecf27</title>
<path fill="none" stroke="purple" d="M103.34,-695.8C103.34,-684.16 103.34,-668.55 103.34,-655.24"/>
<polygon fill="purple" stroke="purple" points="106.84,-655.18 103.34,-645.18 99.84,-655.18 106.84,-655.18"/>
<text text-anchor="middle" x="138.84" y="-666.8" font-family="Times,serif" font-size="14.00" fill="purple">Pass Data</text>
</g>
<!-- 2ef053b4&#45;5696&#45;4087&#45;8003&#45;adb20e56ae3c&#45;&gt;3b15def2&#45;3a36&#45;4973&#45;ad70&#45;fa8ff4c02a87 -->
<g id="edge9" class="edge">
<title>2ef053b4&#45;5696&#45;4087&#45;8003&#45;adb20e56ae3c&#45;&gt;3b15def2&#45;3a36&#45;4973&#45;ad70&#45;fa8ff4c02a87</title>
<path fill="none" stroke="purple" d="M103.34,-782.8C103.34,-771.16 103.34,-755.55 103.34,-742.24"/>
<polygon fill="purple" stroke="purple" points="106.84,-742.18 103.34,-732.18 99.84,-742.18 106.84,-742.18"/>
<text text-anchor="middle" x="138.84" y="-753.8" font-family="Times,serif" font-size="14.00" fill="purple">Pass Data</text>
</g>
<!-- f14113c8&#45;010f&#45;4302&#45;82dc&#45;b584be0798d5 -->
<g id="node12" class="node">
<title>f14113c8&#45;010f&#45;4302&#45;82dc&#45;b584be0798d5</title>
<ellipse fill="none" stroke="black" cx="250.34" cy="-888" rx="47.1" ry="18"/>
<text text-anchor="middle" x="250.34" y="-884.3" font-family="Times,serif" font-size="14.00">DelayAction</text>
</g>
<!-- f14113c8&#45;010f&#45;4302&#45;82dc&#45;b584be0798d5&#45;&gt;2ef053b4&#45;5696&#45;4087&#45;8003&#45;adb20e56ae3c -->
<g id="edge11" class="edge">
<title>f14113c8&#45;010f&#45;4302&#45;82dc&#45;b584be0798d5&#45;&gt;2ef053b4&#45;5696&#45;4087&#45;8003&#45;adb20e56ae3c</title>
<path fill="none" stroke="black" d="M225.4,-872.58C201.12,-858.54 164.03,-837.09 137.1,-821.52"/>
<polygon fill="black" stroke="black" points="138.81,-818.47 128.4,-816.49 135.3,-824.53 138.81,-818.47"/>
</g>
<!-- 34c1d4a9&#45;b5a3&#45;4950&#45;a5b8&#45;7f2688266f26 -->
<g id="node13" class="node">
<title>34c1d4a9&#45;b5a3&#45;4950&#45;a5b8&#45;7f2688266f26</title>
<ellipse fill="none" stroke="black" cx="250.34" cy="-961" rx="59.9" ry="18"/>
<text text-anchor="middle" x="250.34" y="-957.3" font-family="Times,serif" font-size="14.00">ZeroMovement</text>
</g>
<!-- 34c1d4a9&#45;b5a3&#45;4950&#45;a5b8&#45;7f2688266f26&#45;&gt;f14113c8&#45;010f&#45;4302&#45;82dc&#45;b584be0798d5 -->
<g id="edge12" class="edge">
<title>34c1d4a9&#45;b5a3&#45;4950&#45;a5b8&#45;7f2688266f26&#45;&gt;f14113c8&#45;010f&#45;4302&#45;82dc&#45;b584be0798d5</title>
<path fill="none" stroke="black" d="M250.34,-942.81C250.34,-934.79 250.34,-925.05 250.34,-916.07"/>
<polygon fill="black" stroke="black" points="253.84,-916.03 250.34,-906.03 246.84,-916.03 253.84,-916.03"/>
</g>
</g>
</svg>
