<?xml version="1.0" encoding="UTF-8" standalone="no"?>
<!DOCTYPE svg PUBLIC "-//W3C//DTD SVG 1.1//EN"
 "http://www.w3.org/Graphics/SVG/1.1/DTD/svg11.dtd">
<!-- Generated by graphviz version 2.43.0 (0)
 -->
<!-- Title: G Pages: 1 -->
<svg width="743pt" height="1121pt"
 viewBox="0.00 0.00 742.80 1121.00" xmlns="http://www.w3.org/2000/svg" xmlns:xlink="http://www.w3.org/1999/xlink">
<g id="graph0" class="graph" transform="scale(1 1) rotate(0) translate(4 1117)">
<title>G</title>
<polygon fill="transparent" stroke="transparent" points="-4,4 -4,-1117 738.8,-1117 738.8,4 -4,4"/>
<g id="clust1" class="cluster">
<title>cluster_28831adf&#45;c3c9&#45;4595&#45;9756&#45;ce80d2939475</title>
<polygon fill="transparent" stroke="blue" stroke-dasharray="5,2" points="8,-8 8,-829 280,-829 280,-8 8,-8"/>
</g>
<!-- b739c1d5&#45;3dd2&#45;4126&#45;9c25&#45;ec0b2b91ae14 -->
<g id="node1" class="node">
<title>b739c1d5&#45;3dd2&#45;4126&#45;9c25&#45;ec0b2b91ae14</title>
<polygon fill="none" stroke="black" points="207,-748 141.82,-730 207,-712 272.18,-730 207,-748"/>
<text text-anchor="middle" x="207" y="-726.3" font-family="Times,serif" font-size="14.00">AlwaysTrue</text>
</g>
<!-- bbb8776a&#45;c0d0&#45;42cd&#45;882b&#45;96623eb6dcc1 -->
<g id="node19" class="node">
<title>bbb8776a&#45;c0d0&#45;42cd&#45;882b&#45;96623eb6dcc1</title>
<ellipse fill="none" stroke="black" cx="335" cy="-643" rx="46.5" ry="18"/>
<text text-anchor="middle" x="335" y="-639.3" font-family="Times,serif" font-size="14.00">VisionNorm</text>
</g>
<!-- b739c1d5&#45;3dd2&#45;4126&#45;9c25&#45;ec0b2b91ae14&#45;&gt;bbb8776a&#45;c0d0&#45;42cd&#45;882b&#45;96623eb6dcc1 -->
<g id="edge18" class="edge">
<title>b739c1d5&#45;3dd2&#45;4126&#45;9c25&#45;ec0b2b91ae14&#45;&gt;bbb8776a&#45;c0d0&#45;42cd&#45;882b&#45;96623eb6dcc1</title>
<path fill="none" stroke="black" d="M225.34,-716.82C245.78,-703.25 279.18,-681.06 303.76,-664.74"/>
<polygon fill="black" stroke="black" points="305.98,-667.47 312.38,-659.02 302.11,-661.64 305.98,-667.47"/>
<text text-anchor="middle" x="296" y="-682.8" font-family="Times,serif" font-size="14.00">True</text>
</g>
<!-- fcec001e&#45;41a2&#45;4d32&#45;8cb7&#45;f9edf583ccb7 -->
<g id="node2" class="node">
<title>fcec001e&#45;41a2&#45;4d32&#45;8cb7&#45;f9edf583ccb7</title>
<ellipse fill="none" stroke="black" cx="95" cy="-121" rx="31.2" ry="18"/>
<text text-anchor="middle" x="95" y="-117.3" font-family="Times,serif" font-size="14.00">MinYaw</text>
</g>
<!-- 98667dc5&#45;16d3&#45;40ce&#45;a240&#45;05e144ba7375 -->
<g id="node3" class="node">
<title>98667dc5&#45;16d3&#45;40ce&#45;a240&#45;05e144ba7375</title>
<ellipse fill="none" stroke="black" cx="96" cy="-34" rx="80.11" ry="18"/>
<text text-anchor="middle" x="96" y="-30.3" font-family="Times,serif" font-size="14.00">Stability1Movement</text>
</g>
<!-- fcec001e&#45;41a2&#45;4d32&#45;8cb7&#45;f9edf583ccb7&#45;&gt;98667dc5&#45;16d3&#45;40ce&#45;a240&#45;05e144ba7375 -->
<g id="edge1" class="edge">
<title>fcec001e&#45;41a2&#45;4d32&#45;8cb7&#45;f9edf583ccb7&#45;&gt;98667dc5&#45;16d3&#45;40ce&#45;a240&#45;05e144ba7375</title>
<path fill="none" stroke="purple" d="M95.2,-102.8C95.34,-91.16 95.52,-75.55 95.68,-62.24"/>
<polygon fill="purple" stroke="purple" points="99.18,-62.22 95.8,-52.18 92.18,-62.13 99.18,-62.22"/>
<text text-anchor="middle" x="131.5" y="-73.8" font-family="Times,serif" font-size="14.00" fill="purple">Pass Data</text>
</g>
<!-- 74cc8007&#45;eef6&#45;403a&#45;aa74&#45;a3eb6d27a8fd -->
<g id="node4" class="node">
<title>74cc8007&#45;eef6&#45;403a&#45;aa74&#45;a3eb6d27a8fd</title>
<ellipse fill="none" stroke="black" cx="94" cy="-208" rx="27" ry="18"/>
<text text-anchor="middle" x="94" y="-204.3" font-family="Times,serif" font-size="14.00">StripY</text>
</g>
<!-- 74cc8007&#45;eef6&#45;403a&#45;aa74&#45;a3eb6d27a8fd&#45;&gt;fcec001e&#45;41a2&#45;4d32&#45;8cb7&#45;f9edf583ccb7 -->
<g id="edge2" class="edge">
<title>74cc8007&#45;eef6&#45;403a&#45;aa74&#45;a3eb6d27a8fd&#45;&gt;fcec001e&#45;41a2&#45;4d32&#45;8cb7&#45;f9edf583ccb7</title>
<path fill="none" stroke="purple" d="M94.2,-189.8C94.34,-178.16 94.52,-162.55 94.68,-149.24"/>
<polygon fill="purple" stroke="purple" points="98.18,-149.22 94.8,-139.18 91.18,-149.13 98.18,-149.22"/>
<text text-anchor="middle" x="130.5" y="-160.8" font-family="Times,serif" font-size="14.00" fill="purple">Pass Data</text>
</g>
<!-- ee3c3a96&#45;4985&#45;4e84&#45;b47f&#45;7f7bbe125d09 -->
<g id="node5" class="node">
<title>ee3c3a96&#45;4985&#45;4e84&#45;b47f&#45;7f7bbe125d09</title>
<ellipse fill="none" stroke="black" cx="94" cy="-295" rx="75.81" ry="18"/>
<text text-anchor="middle" x="94" y="-291.3" font-family="Times,serif" font-size="14.00">CautiousConstantX</text>
</g>
<!-- ee3c3a96&#45;4985&#45;4e84&#45;b47f&#45;7f7bbe125d09&#45;&gt;74cc8007&#45;eef6&#45;403a&#45;aa74&#45;a3eb6d27a8fd -->
<g id="edge3" class="edge">
<title>ee3c3a96&#45;4985&#45;4e84&#45;b47f&#45;7f7bbe125d09&#45;&gt;74cc8007&#45;eef6&#45;403a&#45;aa74&#45;a3eb6d27a8fd</title>
<path fill="none" stroke="purple" d="M94,-276.8C94,-265.16 94,-249.55 94,-236.24"/>
<polygon fill="purple" stroke="purple" points="97.5,-236.18 94,-226.18 90.5,-236.18 97.5,-236.18"/>
<text text-anchor="middle" x="129.5" y="-247.8" font-family="Times,serif" font-size="14.00" fill="purple">Pass Data</text>
</g>
<!-- 34937971&#45;d25d&#45;4f47&#45;b6e7&#45;ba28e65f658b -->
<g id="node6" class="node">
<title>34937971&#45;d25d&#45;4f47&#45;b6e7&#45;ba28e65f658b</title>
<ellipse fill="none" stroke="black" cx="93" cy="-382" rx="67.81" ry="18"/>
<text text-anchor="middle" x="93" y="-378.3" font-family="Times,serif" font-size="14.00">LinearYawFromX</text>
</g>
<!-- 34937971&#45;d25d&#45;4f47&#45;b6e7&#45;ba28e65f658b&#45;&gt;ee3c3a96&#45;4985&#45;4e84&#45;b47f&#45;7f7bbe125d09 -->
<g id="edge4" class="edge">
<title>34937971&#45;d25d&#45;4f47&#45;b6e7&#45;ba28e65f658b&#45;&gt;ee3c3a96&#45;4985&#45;4e84&#45;b47f&#45;7f7bbe125d09</title>
<path fill="none" stroke="purple" d="M93.2,-363.8C93.34,-352.16 93.52,-336.55 93.68,-323.24"/>
<polygon fill="purple" stroke="purple" points="97.18,-323.22 93.8,-313.18 90.18,-323.13 97.18,-323.22"/>
<text text-anchor="middle" x="129.5" y="-334.8" font-family="Times,serif" font-size="14.00" fill="purple">Pass Data</text>
</g>
<!-- ca8cee9b&#45;ad3a&#45;413b&#45;9227&#45;8ab993c34f5f -->
<g id="node7" class="node">
<title>ca8cee9b&#45;ad3a&#45;413b&#45;9227&#45;8ab993c34f5f</title>
<ellipse fill="none" stroke="black" cx="92" cy="-469" rx="51.3" ry="18"/>
<text text-anchor="middle" x="92" y="-465.3" font-family="Times,serif" font-size="14.00">OffsetToPose</text>
</g>
<!-- ca8cee9b&#45;ad3a&#45;413b&#45;9227&#45;8ab993c34f5f&#45;&gt;34937971&#45;d25d&#45;4f47&#45;b6e7&#45;ba28e65f658b -->
<g id="edge5" class="edge">
<title>ca8cee9b&#45;ad3a&#45;413b&#45;9227&#45;8ab993c34f5f&#45;&gt;34937971&#45;d25d&#45;4f47&#45;b6e7&#45;ba28e65f658b</title>
<path fill="none" stroke="purple" d="M92.2,-450.8C92.34,-439.16 92.52,-423.55 92.68,-410.24"/>
<polygon fill="purple" stroke="purple" points="96.18,-410.22 92.8,-400.18 89.18,-410.13 96.18,-410.22"/>
<text text-anchor="middle" x="128.5" y="-421.8" font-family="Times,serif" font-size="14.00" fill="purple">Pass Data</text>
</g>
<!-- 359cd003&#45;9ace&#45;4853&#45;9c88&#45;30fee84add64 -->
<g id="node8" class="node">
<title>359cd003&#45;9ace&#45;4853&#45;9c88&#45;30fee84add64</title>
<ellipse fill="none" stroke="black" cx="91" cy="-556" rx="32.4" ry="18"/>
<text text-anchor="middle" x="91" y="-552.3" font-family="Times,serif" font-size="14.00">Average</text>
</g>
<!-- 359cd003&#45;9ace&#45;4853&#45;9c88&#45;30fee84add64&#45;&gt;ca8cee9b&#45;ad3a&#45;413b&#45;9227&#45;8ab993c34f5f -->
<g id="edge6" class="edge">
<title>359cd003&#45;9ace&#45;4853&#45;9c88&#45;30fee84add64&#45;&gt;ca8cee9b&#45;ad3a&#45;413b&#45;9227&#45;8ab993c34f5f</title>
<path fill="none" stroke="purple" d="M91.2,-537.8C91.34,-526.16 91.52,-510.55 91.68,-497.24"/>
<polygon fill="purple" stroke="purple" points="95.18,-497.22 91.8,-487.18 88.18,-497.13 95.18,-497.22"/>
<text text-anchor="middle" x="127.5" y="-508.8" font-family="Times,serif" font-size="14.00" fill="purple">Pass Data</text>
</g>
<!-- 90575f77&#45;e33f&#45;499b&#45;bc55&#45;27a9906e236c -->
<g id="node9" class="node">
<title>90575f77&#45;e33f&#45;499b&#45;bc55&#45;27a9906e236c</title>
<ellipse fill="none" stroke="black" cx="90" cy="-643" rx="61.1" ry="18"/>
<text text-anchor="middle" x="90" y="-639.3" font-family="Times,serif" font-size="14.00">ExtractPosition</text>
</g>
<!-- 90575f77&#45;e33f&#45;499b&#45;bc55&#45;27a9906e236c&#45;&gt;359cd003&#45;9ace&#45;4853&#45;9c88&#45;30fee84add64 -->
<g id="edge7" class="edge">
<title>90575f77&#45;e33f&#45;499b&#45;bc55&#45;27a9906e236c&#45;&gt;359cd003&#45;9ace&#45;4853&#45;9c88&#45;30fee84add64</title>
<path fill="none" stroke="purple" d="M90.2,-624.8C90.34,-613.16 90.52,-597.55 90.68,-584.24"/>
<polygon fill="purple" stroke="purple" points="94.18,-584.22 90.8,-574.18 87.18,-584.13 94.18,-584.22"/>
<text text-anchor="middle" x="126.5" y="-595.8" font-family="Times,serif" font-size="14.00" fill="purple">Pass Data</text>
</g>
<!-- b767529b&#45;de5a&#45;4cba&#45;a8b5&#45;85b0249a2944 -->
<g id="node10" class="node">
<title>b767529b&#45;de5a&#45;4cba&#45;a8b5&#45;85b0249a2944</title>
<ellipse fill="none" stroke="black" cx="43" cy="-730" rx="27" ry="18"/>
<text text-anchor="middle" x="43" y="-726.3" font-family="Times,serif" font-size="14.00">ToVec</text>
</g>
<!-- b767529b&#45;de5a&#45;4cba&#45;a8b5&#45;85b0249a2944&#45;&gt;90575f77&#45;e33f&#45;499b&#45;bc55&#45;27a9906e236c -->
<g id="edge8" class="edge">
<title>b767529b&#45;de5a&#45;4cba&#45;a8b5&#45;85b0249a2944&#45;&gt;90575f77&#45;e33f&#45;499b&#45;bc55&#45;27a9906e236c</title>
<path fill="none" stroke="purple" d="M52.06,-712.61C58.74,-700.54 67.95,-683.88 75.63,-670"/>
<polygon fill="purple" stroke="purple" points="78.87,-671.37 80.64,-660.92 72.74,-667.98 78.87,-671.37"/>
<text text-anchor="middle" x="105.5" y="-682.8" font-family="Times,serif" font-size="14.00" fill="purple">Pass Data</text>
</g>
<!-- 9416c6d0&#45;59d2&#45;4879&#45;a09b&#45;b11b507607ba -->
<g id="node11" class="node">
<title>9416c6d0&#45;59d2&#45;4879&#45;a09b&#45;b11b507607ba</title>
<polygon fill="none" stroke="black" stroke-dasharray="5,2" points="256,-821 158,-821 158,-785 256,-785 256,-821"/>
<text text-anchor="middle" x="207" y="-799.3" font-family="Times,serif" font-size="14.00" fill="blue">Concurrent</text>
</g>
<!-- 9416c6d0&#45;59d2&#45;4879&#45;a09b&#45;b11b507607ba&#45;&gt;b739c1d5&#45;3dd2&#45;4126&#45;9c25&#45;ec0b2b91ae14 -->
<g id="edge10" class="edge">
<title>9416c6d0&#45;59d2&#45;4879&#45;a09b&#45;b11b507607ba&#45;&gt;b739c1d5&#45;3dd2&#45;4126&#45;9c25&#45;ec0b2b91ae14</title>
<path fill="none" stroke="black" d="M207,-784.81C207,-776.79 207,-767.05 207,-758.07"/>
<polygon fill="black" stroke="black" points="210.5,-758.03 207,-748.03 203.5,-758.03 210.5,-758.03"/>
</g>
<!-- 9416c6d0&#45;59d2&#45;4879&#45;a09b&#45;b11b507607ba&#45;&gt;b767529b&#45;de5a&#45;4cba&#45;a8b5&#45;85b0249a2944 -->
<g id="edge9" class="edge">
<title>9416c6d0&#45;59d2&#45;4879&#45;a09b&#45;b11b507607ba&#45;&gt;b767529b&#45;de5a&#45;4cba&#45;a8b5&#45;85b0249a2944</title>
<path fill="none" stroke="black" d="M167.72,-784.99C139.19,-772.64 101.1,-756.15 74.55,-744.66"/>
<polygon fill="black" stroke="black" points="75.89,-741.43 65.32,-740.66 73.11,-747.85 75.89,-741.43"/>
</g>
<!-- f363bad4&#45;b150&#45;461e&#45;85a1&#45;ade6718fcd3f -->
<g id="node12" class="node">
<title>f363bad4&#45;b150&#45;461e&#45;85a1&#45;ade6718fcd3f</title>
<ellipse fill="none" stroke="black" cx="660" cy="-1022" rx="33.6" ry="18"/>
<text text-anchor="middle" x="660" y="-1018.3" font-family="Times,serif" font-size="14.00">Descend</text>
</g>
<!-- 64a40948&#45;ac46&#45;44c3&#45;8f8e&#45;37317311944f -->
<g id="node13" class="node">
<title>64a40948&#45;ac46&#45;44c3&#45;8f8e&#45;37317311944f</title>
<ellipse fill="none" stroke="black" cx="660" cy="-949" rx="47.1" ry="18"/>
<text text-anchor="middle" x="660" y="-945.3" font-family="Times,serif" font-size="14.00">DelayAction</text>
</g>
<!-- f363bad4&#45;b150&#45;461e&#45;85a1&#45;ade6718fcd3f&#45;&gt;64a40948&#45;ac46&#45;44c3&#45;8f8e&#45;37317311944f -->
<g id="edge11" class="edge">
<title>f363bad4&#45;b150&#45;461e&#45;85a1&#45;ade6718fcd3f&#45;&gt;64a40948&#45;ac46&#45;44c3&#45;8f8e&#45;37317311944f</title>
<path fill="none" stroke="black" d="M660,-1003.81C660,-995.79 660,-986.05 660,-977.07"/>
<polygon fill="black" stroke="black" points="663.5,-977.03 660,-967.03 656.5,-977.03 663.5,-977.03"/>
</g>
<!-- cbeee338&#45;d52b&#45;4177&#45;9a5f&#45;e81bd0387f33 -->
<g id="node14" class="node">
<title>cbeee338&#45;d52b&#45;4177&#45;9a5f&#45;e81bd0387f33</title>
<ellipse fill="none" stroke="black" cx="660" cy="-876" rx="74.61" ry="18"/>
<text text-anchor="middle" x="660" y="-872.3" font-family="Times,serif" font-size="14.00">StraightMovement</text>
</g>
<!-- 64a40948&#45;ac46&#45;44c3&#45;8f8e&#45;37317311944f&#45;&gt;cbeee338&#45;d52b&#45;4177&#45;9a5f&#45;e81bd0387f33 -->
<g id="edge14" class="edge">
<title>64a40948&#45;ac46&#45;44c3&#45;8f8e&#45;37317311944f&#45;&gt;cbeee338&#45;d52b&#45;4177&#45;9a5f&#45;e81bd0387f33</title>
<path fill="none" stroke="black" d="M660,-930.81C660,-922.79 660,-913.05 660,-904.07"/>
<polygon fill="black" stroke="black" points="663.5,-904.03 660,-894.03 656.5,-904.03 663.5,-904.03"/>
</g>
<!-- 2c463c04&#45;2bdb&#45;42d8&#45;975f&#45;9ce7ef88bb46 -->
<g id="node15" class="node">
<title>2c463c04&#45;2bdb&#45;42d8&#45;975f&#45;9ce7ef88bb46</title>
<ellipse fill="none" stroke="black" cx="660" cy="-803" rx="47.1" ry="18"/>
<text text-anchor="middle" x="660" y="-799.3" font-family="Times,serif" font-size="14.00">DelayAction</text>
</g>
<!-- cbeee338&#45;d52b&#45;4177&#45;9a5f&#45;e81bd0387f33&#45;&gt;2c463c04&#45;2bdb&#45;42d8&#45;975f&#45;9ce7ef88bb46 -->
<g id="edge12" class="edge">
<title>cbeee338&#45;d52b&#45;4177&#45;9a5f&#45;e81bd0387f33&#45;&gt;2c463c04&#45;2bdb&#45;42d8&#45;975f&#45;9ce7ef88bb46</title>
<path fill="none" stroke="black" d="M660,-857.81C660,-849.79 660,-840.05 660,-831.07"/>
<polygon fill="black" stroke="black" points="663.5,-831.03 660,-821.03 656.5,-831.03 663.5,-831.03"/>
</g>
<!-- a44dd305&#45;ce49&#45;40d9&#45;b42f&#45;38c66199260b -->
<g id="node16" class="node">
<title>a44dd305&#45;ce49&#45;40d9&#45;b42f&#45;38c66199260b</title>
<ellipse fill="none" stroke="black" cx="660" cy="-730" rx="59.9" ry="18"/>
<text text-anchor="middle" x="660" y="-726.3" font-family="Times,serif" font-size="14.00">ZeroMovement</text>
</g>
<!-- 2c463c04&#45;2bdb&#45;42d8&#45;975f&#45;9ce7ef88bb46&#45;&gt;a44dd305&#45;ce49&#45;40d9&#45;b42f&#45;38c66199260b -->
<g id="edge13" class="edge">
<title>2c463c04&#45;2bdb&#45;42d8&#45;975f&#45;9ce7ef88bb46&#45;&gt;a44dd305&#45;ce49&#45;40d9&#45;b42f&#45;38c66199260b</title>
<path fill="none" stroke="black" d="M660,-784.81C660,-776.79 660,-767.05 660,-758.07"/>
<polygon fill="black" stroke="black" points="663.5,-758.03 660,-748.03 656.5,-758.03 663.5,-758.03"/>
</g>
<!-- a44dd305&#45;ce49&#45;40d9&#45;b42f&#45;38c66199260b&#45;&gt;bbb8776a&#45;c0d0&#45;42cd&#45;882b&#45;96623eb6dcc1 -->
<g id="edge19" class="edge">
<title>a44dd305&#45;ce49&#45;40d9&#45;b42f&#45;38c66199260b&#45;&gt;bbb8776a&#45;c0d0&#45;42cd&#45;882b&#45;96623eb6dcc1</title>
<path fill="none" stroke="black" d="M639.53,-712.83C624.07,-701.49 601.85,-686.98 580,-679 518.08,-656.38 442.38,-648.3 391.65,-645.46"/>
<polygon fill="black" stroke="black" points="391.7,-641.96 381.54,-644.94 391.35,-648.95 391.7,-641.96"/>
</g>
<!-- fb4816d3&#45;843c&#45;4c62&#45;aa7c&#45;efd90873bc41 -->
<g id="node17" class="node">
<title>fb4816d3&#45;843c&#45;4c62&#45;aa7c&#45;efd90873bc41</title>
<ellipse fill="none" stroke="black" cx="660" cy="-1095" rx="34.8" ry="18"/>
<text text-anchor="middle" x="660" y="-1091.3" font-family="Times,serif" font-size="14.00">WaitArm</text>
</g>
<!-- fb4816d3&#45;843c&#45;4c62&#45;aa7c&#45;efd90873bc41&#45;&gt;f363bad4&#45;b150&#45;461e&#45;85a1&#45;ade6718fcd3f -->
<g id="edge15" class="edge">
<title>fb4816d3&#45;843c&#45;4c62&#45;aa7c&#45;efd90873bc41&#45;&gt;f363bad4&#45;b150&#45;461e&#45;85a1&#45;ade6718fcd3f</title>
<path fill="none" stroke="black" d="M660,-1076.81C660,-1068.79 660,-1059.05 660,-1050.07"/>
<polygon fill="black" stroke="black" points="663.5,-1050.03 660,-1040.03 656.5,-1050.03 663.5,-1050.03"/>
</g>
<!-- 4978c3fe&#45;6338&#45;42e1&#45;80ea&#45;b453a1aa6b3d -->
<g id="node18" class="node">
<title>4978c3fe&#45;6338&#45;42e1&#45;80ea&#45;b453a1aa6b3d</title>
<ellipse fill="none" stroke="black" cx="430" cy="-556" rx="48.3" ry="18"/>
<text text-anchor="middle" x="430" y="-552.3" font-family="Times,serif" font-size="14.00">Detect Buoy</text>
</g>
<!-- 4978c3fe&#45;6338&#45;42e1&#45;80ea&#45;b453a1aa6b3d&#45;&gt;9416c6d0&#45;59d2&#45;4879&#45;a09b&#45;b11b507607ba -->
<g id="edge16" class="edge">
<title>4978c3fe&#45;6338&#45;42e1&#45;80ea&#45;b453a1aa6b3d&#45;&gt;9416c6d0&#45;59d2&#45;4879&#45;a09b&#45;b11b507607ba</title>
<path fill="none" stroke="purple" d="M442.64,-573.8C448.32,-583.35 453.11,-595.64 450,-607 442.63,-633.91 436.36,-640 418,-661 371.25,-714.49 299.68,-756.54 253.1,-780.34"/>
<polygon fill="purple" stroke="purple" points="251.49,-777.23 244.14,-784.85 254.64,-783.48 251.49,-777.23"/>
<text text-anchor="middle" x="434.5" y="-682.8" font-family="Times,serif" font-size="14.00" fill="purple">Pass Data</text>
</g>
<!-- bbb8776a&#45;c0d0&#45;42cd&#45;882b&#45;96623eb6dcc1&#45;&gt;4978c3fe&#45;6338&#45;42e1&#45;80ea&#45;b453a1aa6b3d -->
<g id="edge17" class="edge">
<title>bbb8776a&#45;c0d0&#45;42cd&#45;882b&#45;96623eb6dcc1&#45;&gt;4978c3fe&#45;6338&#45;42e1&#45;80ea&#45;b453a1aa6b3d</title>
<path fill="none" stroke="purple" d="M342.26,-625.14C347.43,-614.63 355.19,-601.37 365,-592 372.09,-585.23 380.74,-579.39 389.39,-574.52"/>
<polygon fill="purple" stroke="purple" points="391.12,-577.56 398.33,-569.79 387.85,-571.37 391.12,-577.56"/>
<text text-anchor="middle" x="400.5" y="-595.8" font-family="Times,serif" font-size="14.00" fill="purple">Pass Data</text>
</g>
</g>
</svg>
