<?xml version="1.0" encoding="UTF-8" standalone="no"?>
<!DOCTYPE svg PUBLIC "-//W3C//DTD SVG 1.1//EN"
 "http://www.w3.org/Graphics/SVG/1.1/DTD/svg11.dtd">
<!-- Generated by graphviz version 2.43.0 (0)
 -->
<!-- Title: G Pages: 1 -->
<svg width="262pt" height="277pt"
 viewBox="0.00 0.00 262.30 277.00" xmlns="http://www.w3.org/2000/svg" xmlns:xlink="http://www.w3.org/1999/xlink">
<g id="graph0" class="graph" transform="scale(1 1) rotate(0) translate(4 273)">
<title>G</title>
<polygon fill="transparent" stroke="transparent" points="-4,4 -4,-273 258.3,-273 258.3,4 -4,4"/>
<!-- 50e10b5f&#45;089e&#45;454c&#45;970f&#45;5ea0fe69a0d6 -->
<g id="node1" class="node">
<title>50e10b5f&#45;089e&#45;454c&#45;970f&#45;5ea0fe69a0d6</title>
<polygon fill="none" stroke="black" points="115.65,-123 50.47,-105 115.65,-87 180.83,-105 115.65,-123"/>
<text text-anchor="middle" x="115.65" y="-101.3" font-family="Times,serif" font-size="14.00">AlwaysTrue</text>
</g>
<!-- af38bf85&#45;a892&#45;4896&#45;9f90&#45;5d4c618db305 -->
<g id="node4" class="node">
<title>af38bf85&#45;a892&#45;4896&#45;9f90&#45;5d4c618db305</title>
<ellipse fill="none" stroke="black" cx="34.65" cy="-18" rx="34.8" ry="18"/>
<text text-anchor="middle" x="34.65" y="-14.3" font-family="Times,serif" font-size="14.00">WaitArm</text>
</g>
<!-- 50e10b5f&#45;089e&#45;454c&#45;970f&#45;5ea0fe69a0d6&#45;&gt;af38bf85&#45;a892&#45;4896&#45;9f90&#45;5d4c618db305 -->
<g id="edge2" class="edge">
<title>50e10b5f&#45;089e&#45;454c&#45;970f&#45;5ea0fe69a0d6&#45;&gt;af38bf85&#45;a892&#45;4896&#45;9f90&#45;5d4c618db305</title>
<path fill="none" stroke="black" d="M98.99,-91.47C90.97,-85.11 81.44,-77.05 73.65,-69 66.07,-61.17 58.52,-51.92 52.11,-43.52"/>
<polygon fill="black" stroke="black" points="54.9,-41.41 46.12,-35.48 49.29,-45.59 54.9,-41.41"/>
<text text-anchor="middle" x="90.65" y="-57.8" font-family="Times,serif" font-size="14.00">True</text>
</g>
<!-- 453bbcbf&#45;6f3b&#45;472a&#45;8c54&#45;1c50043635f2 -->
<g id="node5" class="node">
<title>453bbcbf&#45;6f3b&#45;472a&#45;8c54&#45;1c50043635f2</title>
<ellipse fill="none" stroke="black" cx="197.65" cy="-18" rx="56.8" ry="18"/>
<text text-anchor="middle" x="197.65" y="-14.3" font-family="Times,serif" font-size="14.00">UnwrapAction</text>
</g>
<!-- 50e10b5f&#45;089e&#45;454c&#45;970f&#45;5ea0fe69a0d6&#45;&gt;453bbcbf&#45;6f3b&#45;472a&#45;8c54&#45;1c50043635f2 -->
<g id="edge3" class="edge">
<title>50e10b5f&#45;089e&#45;454c&#45;970f&#45;5ea0fe69a0d6&#45;&gt;453bbcbf&#45;6f3b&#45;472a&#45;8c54&#45;1c50043635f2</title>
<path fill="none" stroke="black" d="M128.83,-90.34C141.09,-77.64 159.63,-58.41 174.38,-43.12"/>
<polygon fill="black" stroke="black" points="177.27,-45.17 181.7,-35.54 172.23,-40.31 177.27,-45.17"/>
<text text-anchor="middle" x="179.65" y="-57.8" font-family="Times,serif" font-size="14.00">False</text>
</g>
<!-- 58e6943e&#45;41aa&#45;4018&#45;911d&#45;50ed38b6e1ad -->
<g id="node2" class="node">
<title>58e6943e&#45;41aa&#45;4018&#45;911d&#45;50ed38b6e1ad</title>
<ellipse fill="none" stroke="black" cx="115.65" cy="-251" rx="34.8" ry="18"/>
<text text-anchor="middle" x="115.65" y="-247.3" font-family="Times,serif" font-size="14.00">WaitArm</text>
</g>
<!-- ca9280cd&#45;0d90&#45;42bb&#45;b7ad&#45;0675f790b100 -->
<g id="node3" class="node">
<title>ca9280cd&#45;0d90&#45;42bb&#45;b7ad&#45;0675f790b100</title>
<ellipse fill="none" stroke="black" cx="115.65" cy="-178" rx="33.6" ry="18"/>
<text text-anchor="middle" x="115.65" y="-174.3" font-family="Times,serif" font-size="14.00">Descend</text>
</g>
<!-- 58e6943e&#45;41aa&#45;4018&#45;911d&#45;50ed38b6e1ad&#45;&gt;ca9280cd&#45;0d90&#45;42bb&#45;b7ad&#45;0675f790b100 -->
<g id="edge1" class="edge">
<title>58e6943e&#45;41aa&#45;4018&#45;911d&#45;50ed38b6e1ad&#45;&gt;ca9280cd&#45;0d90&#45;42bb&#45;b7ad&#45;0675f790b100</title>
<path fill="none" stroke="black" d="M115.65,-232.81C115.65,-224.79 115.65,-215.05 115.65,-206.07"/>
<polygon fill="black" stroke="black" points="119.15,-206.03 115.65,-196.03 112.15,-206.03 119.15,-206.03"/>
</g>
<!-- ca9280cd&#45;0d90&#45;42bb&#45;b7ad&#45;0675f790b100&#45;&gt;50e10b5f&#45;089e&#45;454c&#45;970f&#45;5ea0fe69a0d6 -->
<g id="edge4" class="edge">
<title>ca9280cd&#45;0d90&#45;42bb&#45;b7ad&#45;0675f790b100&#45;&gt;50e10b5f&#45;089e&#45;454c&#45;970f&#45;5ea0fe69a0d6</title>
<path fill="none" stroke="black" d="M115.65,-159.81C115.65,-151.79 115.65,-142.05 115.65,-133.07"/>
<polygon fill="black" stroke="black" points="119.15,-133.03 115.65,-123.03 112.15,-133.03 119.15,-133.03"/>
</g>
</g>
</svg>
