<?xml version="1.0" encoding="UTF-8" standalone="no"?>
<!DOCTYPE svg PUBLIC "-//W3C//DTD SVG 1.1//EN"
 "http://www.w3.org/Graphics/SVG/1.1/DTD/svg11.dtd">
<!-- Generated by graphviz version 2.43.0 (0)
 -->
<!-- Title: G Pages: 1 -->
<svg width="158pt" height="404pt"
 viewBox="0.00 0.00 157.61 404.00" xmlns="http://www.w3.org/2000/svg" xmlns:xlink="http://www.w3.org/1999/xlink">
<g id="graph0" class="graph" transform="scale(1 1) rotate(0) translate(4 400)">
<title>G</title>
<polygon fill="transparent" stroke="transparent" points="-4,4 -4,-400 153.61,-400 153.61,4 -4,4"/>
<!-- 8860e696&#45;0720&#45;48e1&#45;9fd1&#45;593275a94731 -->
<g id="node1" class="node">
<title>8860e696&#45;0720&#45;48e1&#45;9fd1&#45;593275a94731</title>
<ellipse fill="none" stroke="black" cx="74.8" cy="-378" rx="34.8" ry="18"/>
<text text-anchor="middle" x="74.8" y="-374.3" font-family="Times,serif" font-size="14.00">WaitArm</text>
</g>
<!-- b715d337&#45;88a9&#45;4c3b&#45;ab97&#45;af15f808ec2b -->
<g id="node2" class="node">
<title>b715d337&#45;88a9&#45;4c3b&#45;ab97&#45;af15f808ec2b</title>
<ellipse fill="none" stroke="black" cx="74.8" cy="-306" rx="33.6" ry="18"/>
<text text-anchor="middle" x="74.8" y="-302.3" font-family="Times,serif" font-size="14.00">Descend</text>
</g>
<!-- 8860e696&#45;0720&#45;48e1&#45;9fd1&#45;593275a94731&#45;&gt;b715d337&#45;88a9&#45;4c3b&#45;ab97&#45;af15f808ec2b -->
<g id="edge5" class="edge">
<title>8860e696&#45;0720&#45;48e1&#45;9fd1&#45;593275a94731&#45;&gt;b715d337&#45;88a9&#45;4c3b&#45;ab97&#45;af15f808ec2b</title>
<path fill="none" stroke="black" d="M74.8,-359.7C74.8,-351.98 74.8,-342.71 74.8,-334.11"/>
<polygon fill="black" stroke="black" points="78.3,-334.1 74.8,-324.1 71.3,-334.1 78.3,-334.1"/>
</g>
<!-- 23f5232f&#45;4dd7&#45;489f&#45;9ddc&#45;cb48991844e7 -->
<g id="node3" class="node">
<title>23f5232f&#45;4dd7&#45;489f&#45;9ddc&#45;cb48991844e7</title>
<ellipse fill="none" stroke="black" cx="74.8" cy="-234" rx="47.1" ry="18"/>
<text text-anchor="middle" x="74.8" y="-230.3" font-family="Times,serif" font-size="14.00">DelayAction</text>
</g>
<!-- b715d337&#45;88a9&#45;4c3b&#45;ab97&#45;af15f808ec2b&#45;&gt;23f5232f&#45;4dd7&#45;489f&#45;9ddc&#45;cb48991844e7 -->
<g id="edge1" class="edge">
<title>b715d337&#45;88a9&#45;4c3b&#45;ab97&#45;af15f808ec2b&#45;&gt;23f5232f&#45;4dd7&#45;489f&#45;9ddc&#45;cb48991844e7</title>
<path fill="none" stroke="black" d="M74.8,-287.7C74.8,-279.98 74.8,-270.71 74.8,-262.11"/>
<polygon fill="black" stroke="black" points="78.3,-262.1 74.8,-252.1 71.3,-262.1 78.3,-262.1"/>
</g>
<!-- d5d5a441&#45;d67d&#45;4286&#45;8366&#45;0f3a58cd298f -->
<g id="node4" class="node">
<title>d5d5a441&#45;d67d&#45;4286&#45;8366&#45;0f3a58cd298f</title>
<ellipse fill="none" stroke="black" cx="74.8" cy="-162" rx="74.61" ry="18"/>
<text text-anchor="middle" x="74.8" y="-158.3" font-family="Times,serif" font-size="14.00">StraightMovement</text>
</g>
<!-- 23f5232f&#45;4dd7&#45;489f&#45;9ddc&#45;cb48991844e7&#45;&gt;d5d5a441&#45;d67d&#45;4286&#45;8366&#45;0f3a58cd298f -->
<g id="edge4" class="edge">
<title>23f5232f&#45;4dd7&#45;489f&#45;9ddc&#45;cb48991844e7&#45;&gt;d5d5a441&#45;d67d&#45;4286&#45;8366&#45;0f3a58cd298f</title>
<path fill="none" stroke="black" d="M74.8,-215.7C74.8,-207.98 74.8,-198.71 74.8,-190.11"/>
<polygon fill="black" stroke="black" points="78.3,-190.1 74.8,-180.1 71.3,-190.1 78.3,-190.1"/>
</g>
<!-- 975069b1&#45;8a65&#45;49c9&#45;92a7&#45;111e5e592f1d -->
<g id="node5" class="node">
<title>975069b1&#45;8a65&#45;49c9&#45;92a7&#45;111e5e592f1d</title>
<ellipse fill="none" stroke="black" cx="74.8" cy="-90" rx="47.1" ry="18"/>
<text text-anchor="middle" x="74.8" y="-86.3" font-family="Times,serif" font-size="14.00">DelayAction</text>
</g>
<!-- d5d5a441&#45;d67d&#45;4286&#45;8366&#45;0f3a58cd298f&#45;&gt;975069b1&#45;8a65&#45;49c9&#45;92a7&#45;111e5e592f1d -->
<g id="edge2" class="edge">
<title>d5d5a441&#45;d67d&#45;4286&#45;8366&#45;0f3a58cd298f&#45;&gt;975069b1&#45;8a65&#45;49c9&#45;92a7&#45;111e5e592f1d</title>
<path fill="none" stroke="black" d="M74.8,-143.7C74.8,-135.98 74.8,-126.71 74.8,-118.11"/>
<polygon fill="black" stroke="black" points="78.3,-118.1 74.8,-108.1 71.3,-118.1 78.3,-118.1"/>
</g>
<!-- 7cd7d2e4&#45;9a28&#45;4c2d&#45;988e&#45;71b1b89798a6 -->
<g id="node6" class="node">
<title>7cd7d2e4&#45;9a28&#45;4c2d&#45;988e&#45;71b1b89798a6</title>
<ellipse fill="none" stroke="black" cx="74.8" cy="-18" rx="59.9" ry="18"/>
<text text-anchor="middle" x="74.8" y="-14.3" font-family="Times,serif" font-size="14.00">ZeroMovement</text>
</g>
<!-- 975069b1&#45;8a65&#45;49c9&#45;92a7&#45;111e5e592f1d&#45;&gt;7cd7d2e4&#45;9a28&#45;4c2d&#45;988e&#45;71b1b89798a6 -->
<g id="edge3" class="edge">
<title>975069b1&#45;8a65&#45;49c9&#45;92a7&#45;111e5e592f1d&#45;&gt;7cd7d2e4&#45;9a28&#45;4c2d&#45;988e&#45;71b1b89798a6</title>
<path fill="none" stroke="black" d="M74.8,-71.7C74.8,-63.98 74.8,-54.71 74.8,-46.11"/>
<polygon fill="black" stroke="black" points="78.3,-46.1 74.8,-36.1 71.3,-46.1 78.3,-46.1"/>
</g>
</g>
</svg>
