<?xml version="1.0" encoding="UTF-8" standalone="no"?>
<!DOCTYPE svg PUBLIC "-//W3C//DTD SVG 1.1//EN"
 "http://www.w3.org/Graphics/SVG/1.1/DTD/svg11.dtd">
<!-- Generated by graphviz version 2.43.0 (0)
 -->
<!-- Title: G Pages: 1 -->
<svg width="158pt" height="404pt"
 viewBox="0.00 0.00 157.61 404.00" xmlns="http://www.w3.org/2000/svg" xmlns:xlink="http://www.w3.org/1999/xlink">
<g id="graph0" class="graph" transform="scale(1 1) rotate(0) translate(4 400)">
<title>G</title>
<polygon fill="transparent" stroke="transparent" points="-4,4 -4,-400 153.61,-400 153.61,4 -4,4"/>
<!-- 99ccab29&#45;bb6e&#45;44cc&#45;897f&#45;032939f97ba1 -->
<g id="node1" class="node">
<title>99ccab29&#45;bb6e&#45;44cc&#45;897f&#45;032939f97ba1</title>
<ellipse fill="none" stroke="black" cx="74.8" cy="-378" rx="34.8" ry="18"/>
<text text-anchor="middle" x="74.8" y="-374.3" font-family="Times,serif" font-size="14.00">WaitArm</text>
</g>
<!-- f6ed6dd4&#45;1f53&#45;4633&#45;97dc&#45;78ed7d57687b -->
<g id="node2" class="node">
<title>f6ed6dd4&#45;1f53&#45;4633&#45;97dc&#45;78ed7d57687b</title>
<ellipse fill="none" stroke="black" cx="74.8" cy="-306" rx="33.6" ry="18"/>
<text text-anchor="middle" x="74.8" y="-302.3" font-family="Times,serif" font-size="14.00">Descend</text>
</g>
<!-- 99ccab29&#45;bb6e&#45;44cc&#45;897f&#45;032939f97ba1&#45;&gt;f6ed6dd4&#45;1f53&#45;4633&#45;97dc&#45;78ed7d57687b -->
<g id="edge5" class="edge">
<title>99ccab29&#45;bb6e&#45;44cc&#45;897f&#45;032939f97ba1&#45;&gt;f6ed6dd4&#45;1f53&#45;4633&#45;97dc&#45;78ed7d57687b</title>
<path fill="none" stroke="black" d="M74.8,-359.7C74.8,-351.98 74.8,-342.71 74.8,-334.11"/>
<polygon fill="black" stroke="black" points="78.3,-334.1 74.8,-324.1 71.3,-334.1 78.3,-334.1"/>
</g>
<!-- 7dddec74&#45;7b84&#45;496e&#45;8944&#45;60b559d0e4a4 -->
<g id="node3" class="node">
<title>7dddec74&#45;7b84&#45;496e&#45;8944&#45;60b559d0e4a4</title>
<ellipse fill="none" stroke="black" cx="74.8" cy="-234" rx="47.1" ry="18"/>
<text text-anchor="middle" x="74.8" y="-230.3" font-family="Times,serif" font-size="14.00">DelayAction</text>
</g>
<!-- f6ed6dd4&#45;1f53&#45;4633&#45;97dc&#45;78ed7d57687b&#45;&gt;7dddec74&#45;7b84&#45;496e&#45;8944&#45;60b559d0e4a4 -->
<g id="edge1" class="edge">
<title>f6ed6dd4&#45;1f53&#45;4633&#45;97dc&#45;78ed7d57687b&#45;&gt;7dddec74&#45;7b84&#45;496e&#45;8944&#45;60b559d0e4a4</title>
<path fill="none" stroke="black" d="M74.8,-287.7C74.8,-279.98 74.8,-270.71 74.8,-262.11"/>
<polygon fill="black" stroke="black" points="78.3,-262.1 74.8,-252.1 71.3,-262.1 78.3,-262.1"/>
</g>
<!-- 58d27796&#45;8bfa&#45;49fc&#45;928d&#45;90474664efe0 -->
<g id="node4" class="node">
<title>58d27796&#45;8bfa&#45;49fc&#45;928d&#45;90474664efe0</title>
<ellipse fill="none" stroke="black" cx="74.8" cy="-162" rx="74.61" ry="18"/>
<text text-anchor="middle" x="74.8" y="-158.3" font-family="Times,serif" font-size="14.00">StraightMovement</text>
</g>
<!-- 7dddec74&#45;7b84&#45;496e&#45;8944&#45;60b559d0e4a4&#45;&gt;58d27796&#45;8bfa&#45;49fc&#45;928d&#45;90474664efe0 -->
<g id="edge4" class="edge">
<title>7dddec74&#45;7b84&#45;496e&#45;8944&#45;60b559d0e4a4&#45;&gt;58d27796&#45;8bfa&#45;49fc&#45;928d&#45;90474664efe0</title>
<path fill="none" stroke="black" d="M74.8,-215.7C74.8,-207.98 74.8,-198.71 74.8,-190.11"/>
<polygon fill="black" stroke="black" points="78.3,-190.1 74.8,-180.1 71.3,-190.1 78.3,-190.1"/>
</g>
<!-- f8ce1332&#45;b60c&#45;4dea&#45;be17&#45;a2aaa664f4ff -->
<g id="node5" class="node">
<title>f8ce1332&#45;b60c&#45;4dea&#45;be17&#45;a2aaa664f4ff</title>
<ellipse fill="none" stroke="black" cx="74.8" cy="-90" rx="47.1" ry="18"/>
<text text-anchor="middle" x="74.8" y="-86.3" font-family="Times,serif" font-size="14.00">DelayAction</text>
</g>
<!-- 58d27796&#45;8bfa&#45;49fc&#45;928d&#45;90474664efe0&#45;&gt;f8ce1332&#45;b60c&#45;4dea&#45;be17&#45;a2aaa664f4ff -->
<g id="edge2" class="edge">
<title>58d27796&#45;8bfa&#45;49fc&#45;928d&#45;90474664efe0&#45;&gt;f8ce1332&#45;b60c&#45;4dea&#45;be17&#45;a2aaa664f4ff</title>
<path fill="none" stroke="black" d="M74.8,-143.7C74.8,-135.98 74.8,-126.71 74.8,-118.11"/>
<polygon fill="black" stroke="black" points="78.3,-118.1 74.8,-108.1 71.3,-118.1 78.3,-118.1"/>
</g>
<!-- 6e0236c4&#45;d3d2&#45;4856&#45;b2d3&#45;1b5f07450623 -->
<g id="node6" class="node">
<title>6e0236c4&#45;d3d2&#45;4856&#45;b2d3&#45;1b5f07450623</title>
<ellipse fill="none" stroke="black" cx="74.8" cy="-18" rx="59.9" ry="18"/>
<text text-anchor="middle" x="74.8" y="-14.3" font-family="Times,serif" font-size="14.00">ZeroMovement</text>
</g>
<!-- f8ce1332&#45;b60c&#45;4dea&#45;be17&#45;a2aaa664f4ff&#45;&gt;6e0236c4&#45;d3d2&#45;4856&#45;b2d3&#45;1b5f07450623 -->
<g id="edge3" class="edge">
<title>f8ce1332&#45;b60c&#45;4dea&#45;be17&#45;a2aaa664f4ff&#45;&gt;6e0236c4&#45;d3d2&#45;4856&#45;b2d3&#45;1b5f07450623</title>
<path fill="none" stroke="black" d="M74.8,-71.7C74.8,-63.98 74.8,-54.71 74.8,-46.11"/>
<polygon fill="black" stroke="black" points="78.3,-46.1 74.8,-36.1 71.3,-46.1 78.3,-46.1"/>
</g>
</g>
</svg>
