<?xml version="1.0" encoding="UTF-8" standalone="no"?>
<!DOCTYPE svg PUBLIC "-//W3C//DTD SVG 1.1//EN"
 "http://www.w3.org/Graphics/SVG/1.1/DTD/svg11.dtd">
<!-- Generated by graphviz version 2.43.0 (0)
 -->
<!-- Title: G Pages: 1 -->
<svg width="286pt" height="839pt"
 viewBox="0.00 0.00 286.10 839.00" xmlns="http://www.w3.org/2000/svg" xmlns:xlink="http://www.w3.org/1999/xlink">
<g id="graph0" class="graph" transform="scale(1 1) rotate(0) translate(4 835)">
<title>G</title>
<polygon fill="transparent" stroke="transparent" points="-4,4 -4,-835 282.1,-835 282.1,4 -4,4"/>
<g id="clust1" class="cluster">
<title>cluster_8308bff3&#45;032e&#45;414f&#45;b835&#45;06a1432ae739</title>
<polygon fill="transparent" stroke="blue" stroke-dasharray="5,2" points="30.1,-225 30.1,-823 270.1,-823 270.1,-225 30.1,-225"/>
</g>
<!-- 1b251576&#45;07f4&#45;441b&#45;8014&#45;402964fc1392 -->
<g id="node1" class="node">
<title>1b251576&#45;07f4&#45;441b&#45;8014&#45;402964fc1392</title>
<polygon fill="none" stroke="black" stroke-dasharray="5,2" points="232.1,-815 134.1,-815 134.1,-779 232.1,-779 232.1,-815"/>
<text text-anchor="middle" x="183.1" y="-793.3" font-family="Times,serif" font-size="14.00" fill="blue">Concurrent</text>
</g>
<!-- 6a49dd6b&#45;1d69&#45;401d&#45;aabb&#45;4fb03beb3839 -->
<g id="node3" class="node">
<title>6a49dd6b&#45;1d69&#45;401d&#45;aabb&#45;4fb03beb3839</title>
<ellipse fill="none" stroke="black" cx="104.1" cy="-724" rx="34.8" ry="18"/>
<text text-anchor="middle" x="104.1" y="-720.3" font-family="Times,serif" font-size="14.00">WaitArm</text>
</g>
<!-- 1b251576&#45;07f4&#45;441b&#45;8014&#45;402964fc1392&#45;&gt;6a49dd6b&#45;1d69&#45;401d&#45;aabb&#45;4fb03beb3839 -->
<g id="edge6" class="edge">
<title>1b251576&#45;07f4&#45;441b&#45;8014&#45;402964fc1392&#45;&gt;6a49dd6b&#45;1d69&#45;401d&#45;aabb&#45;4fb03beb3839</title>
<path fill="none" stroke="black" d="M163.98,-778.81C153.22,-769.14 139.68,-756.98 128.2,-746.66"/>
<polygon fill="black" stroke="black" points="130.42,-743.95 120.64,-739.87 125.74,-749.15 130.42,-743.95"/>
</g>
<!-- 1101982d&#45;5208&#45;4c4f&#45;8c4d&#45;8b89b85d21e2 -->
<g id="node9" class="node">
<title>1101982d&#45;5208&#45;4c4f&#45;8c4d&#45;8b89b85d21e2</title>
<ellipse fill="none" stroke="black" cx="211.1" cy="-670" rx="50.7" ry="18"/>
<text text-anchor="middle" x="211.1" y="-666.3" font-family="Times,serif" font-size="14.00">StartBno055</text>
</g>
<!-- 1b251576&#45;07f4&#45;441b&#45;8014&#45;402964fc1392&#45;&gt;1101982d&#45;5208&#45;4c4f&#45;8c4d&#45;8b89b85d21e2 -->
<g id="edge7" class="edge">
<title>1b251576&#45;07f4&#45;441b&#45;8014&#45;402964fc1392&#45;&gt;1101982d&#45;5208&#45;4c4f&#45;8c4d&#45;8b89b85d21e2</title>
<path fill="none" stroke="black" d="M186.94,-778.88C191.6,-758.05 199.54,-722.64 205.03,-698.09"/>
<polygon fill="black" stroke="black" points="208.45,-698.84 207.22,-688.31 201.62,-697.31 208.45,-698.84"/>
</g>
<!-- 42b3cb49&#45;9739&#45;4fba&#45;86fd&#45;3b871d962c07 -->
<g id="node2" class="node">
<title>42b3cb49&#45;9739&#45;4fba&#45;86fd&#45;3b871d962c07</title>
<polygon fill="none" stroke="black" stroke-dasharray="5,2" points="214.6,-269 129.6,-269 129.6,-233 214.6,-233 214.6,-269"/>
<text text-anchor="middle" x="172.1" y="-247.3" font-family="Times,serif" font-size="14.00" fill="blue">Converge</text>
</g>
<!-- 4f7eb538&#45;8923&#45;4c6f&#45;b342&#45;14dee2f8b6c0 -->
<g id="node10" class="node">
<title>4f7eb538&#45;8923&#45;4c6f&#45;b342&#45;14dee2f8b6c0</title>
<ellipse fill="none" stroke="black" cx="172.1" cy="-178" rx="69.71" ry="18"/>
<text text-anchor="middle" x="172.1" y="-174.3" font-family="Times,serif" font-size="14.00">VisionNormOffset</text>
</g>
<!-- 42b3cb49&#45;9739&#45;4fba&#45;86fd&#45;3b871d962c07&#45;&gt;4f7eb538&#45;8923&#45;4c6f&#45;b342&#45;14dee2f8b6c0 -->
<g id="edge13" class="edge">
<title>42b3cb49&#45;9739&#45;4fba&#45;86fd&#45;3b871d962c07&#45;&gt;4f7eb538&#45;8923&#45;4c6f&#45;b342&#45;14dee2f8b6c0</title>
<path fill="none" stroke="black" d="M172.1,-232.81C172.1,-224.79 172.1,-215.05 172.1,-206.07"/>
<polygon fill="black" stroke="black" points="175.6,-206.03 172.1,-196.03 168.6,-206.03 175.6,-206.03"/>
</g>
<!-- 9fdea150&#45;6abf&#45;46a5&#45;9452&#45;59a09159aadc -->
<g id="node4" class="node">
<title>9fdea150&#45;6abf&#45;46a5&#45;9452&#45;59a09159aadc</title>
<ellipse fill="none" stroke="black" cx="110.1" cy="-616" rx="33.6" ry="18"/>
<text text-anchor="middle" x="110.1" y="-612.3" font-family="Times,serif" font-size="14.00">Descend</text>
</g>
<!-- 6a49dd6b&#45;1d69&#45;401d&#45;aabb&#45;4fb03beb3839&#45;&gt;9fdea150&#45;6abf&#45;46a5&#45;9452&#45;59a09159aadc -->
<g id="edge5" class="edge">
<title>6a49dd6b&#45;1d69&#45;401d&#45;aabb&#45;4fb03beb3839&#45;&gt;9fdea150&#45;6abf&#45;46a5&#45;9452&#45;59a09159aadc</title>
<path fill="none" stroke="black" d="M105.07,-705.97C106.01,-689.38 107.45,-663.88 108.55,-644.43"/>
<polygon fill="black" stroke="black" points="112.05,-644.52 109.12,-634.34 105.06,-644.13 112.05,-644.52"/>
</g>
<!-- e5e7e1ad&#45;55b5&#45;465d&#45;9243&#45;3a0f198061cf -->
<g id="node5" class="node">
<title>e5e7e1ad&#45;55b5&#45;465d&#45;9243&#45;3a0f198061cf</title>
<ellipse fill="none" stroke="black" cx="110.1" cy="-543" rx="47.1" ry="18"/>
<text text-anchor="middle" x="110.1" y="-539.3" font-family="Times,serif" font-size="14.00">DelayAction</text>
</g>
<!-- 9fdea150&#45;6abf&#45;46a5&#45;9452&#45;59a09159aadc&#45;&gt;e5e7e1ad&#45;55b5&#45;465d&#45;9243&#45;3a0f198061cf -->
<g id="edge1" class="edge">
<title>9fdea150&#45;6abf&#45;46a5&#45;9452&#45;59a09159aadc&#45;&gt;e5e7e1ad&#45;55b5&#45;465d&#45;9243&#45;3a0f198061cf</title>
<path fill="none" stroke="black" d="M110.1,-597.81C110.1,-589.79 110.1,-580.05 110.1,-571.07"/>
<polygon fill="black" stroke="black" points="113.6,-571.03 110.1,-561.03 106.6,-571.03 113.6,-571.03"/>
</g>
<!-- 3aef2c86&#45;a19d&#45;4d2f&#45;9303&#45;e813eb824e59 -->
<g id="node6" class="node">
<title>3aef2c86&#45;a19d&#45;4d2f&#45;9303&#45;e813eb824e59</title>
<ellipse fill="none" stroke="black" cx="113.1" cy="-470" rx="74.61" ry="18"/>
<text text-anchor="middle" x="113.1" y="-466.3" font-family="Times,serif" font-size="14.00">StraightMovement</text>
</g>
<!-- e5e7e1ad&#45;55b5&#45;465d&#45;9243&#45;3a0f198061cf&#45;&gt;3aef2c86&#45;a19d&#45;4d2f&#45;9303&#45;e813eb824e59 -->
<g id="edge4" class="edge">
<title>e5e7e1ad&#45;55b5&#45;465d&#45;9243&#45;3a0f198061cf&#45;&gt;3aef2c86&#45;a19d&#45;4d2f&#45;9303&#45;e813eb824e59</title>
<path fill="none" stroke="black" d="M110.83,-524.81C111.17,-516.79 111.58,-507.05 111.96,-498.07"/>
<polygon fill="black" stroke="black" points="115.46,-498.17 112.38,-488.03 108.46,-497.87 115.46,-498.17"/>
</g>
<!-- a41acfeb&#45;bace&#45;478a&#45;bdc3&#45;535e08c309ab -->
<g id="node7" class="node">
<title>a41acfeb&#45;bace&#45;478a&#45;bdc3&#45;535e08c309ab</title>
<ellipse fill="none" stroke="black" cx="115.1" cy="-397" rx="47.1" ry="18"/>
<text text-anchor="middle" x="115.1" y="-393.3" font-family="Times,serif" font-size="14.00">DelayAction</text>
</g>
<!-- 3aef2c86&#45;a19d&#45;4d2f&#45;9303&#45;e813eb824e59&#45;&gt;a41acfeb&#45;bace&#45;478a&#45;bdc3&#45;535e08c309ab -->
<g id="edge2" class="edge">
<title>3aef2c86&#45;a19d&#45;4d2f&#45;9303&#45;e813eb824e59&#45;&gt;a41acfeb&#45;bace&#45;478a&#45;bdc3&#45;535e08c309ab</title>
<path fill="none" stroke="black" d="M113.59,-451.81C113.81,-443.79 114.09,-434.05 114.34,-425.07"/>
<polygon fill="black" stroke="black" points="117.84,-425.12 114.62,-415.03 110.84,-424.93 117.84,-425.12"/>
</g>
<!-- b8d41fbb&#45;10dc&#45;4bc0&#45;ab3f&#45;ff97413308af -->
<g id="node8" class="node">
<title>b8d41fbb&#45;10dc&#45;4bc0&#45;ab3f&#45;ff97413308af</title>
<ellipse fill="none" stroke="black" cx="124.1" cy="-324" rx="59.9" ry="18"/>
<text text-anchor="middle" x="124.1" y="-320.3" font-family="Times,serif" font-size="14.00">ZeroMovement</text>
</g>
<!-- a41acfeb&#45;bace&#45;478a&#45;bdc3&#45;535e08c309ab&#45;&gt;b8d41fbb&#45;10dc&#45;4bc0&#45;ab3f&#45;ff97413308af -->
<g id="edge3" class="edge">
<title>a41acfeb&#45;bace&#45;478a&#45;bdc3&#45;535e08c309ab&#45;&gt;b8d41fbb&#45;10dc&#45;4bc0&#45;ab3f&#45;ff97413308af</title>
<path fill="none" stroke="black" d="M117.28,-378.81C118.3,-370.79 119.53,-361.05 120.67,-352.07"/>
<polygon fill="black" stroke="black" points="124.16,-352.39 121.94,-342.03 117.21,-351.51 124.16,-352.39"/>
</g>
<!-- b8d41fbb&#45;10dc&#45;4bc0&#45;ab3f&#45;ff97413308af&#45;&gt;42b3cb49&#45;9739&#45;4fba&#45;86fd&#45;3b871d962c07 -->
<g id="edge8" class="edge">
<title>b8d41fbb&#45;10dc&#45;4bc0&#45;ab3f&#45;ff97413308af&#45;&gt;42b3cb49&#45;9739&#45;4fba&#45;86fd&#45;3b871d962c07</title>
<path fill="none" stroke="black" d="M135.48,-306.17C141.25,-297.63 148.39,-287.08 154.82,-277.56"/>
<polygon fill="black" stroke="black" points="157.77,-279.44 160.48,-269.2 151.97,-275.52 157.77,-279.44"/>
</g>
<!-- 1101982d&#45;5208&#45;4c4f&#45;8c4d&#45;8b89b85d21e2&#45;&gt;42b3cb49&#45;9739&#45;4fba&#45;86fd&#45;3b871d962c07 -->
<g id="edge9" class="edge">
<title>1101982d&#45;5208&#45;4c4f&#45;8c4d&#45;8b89b85d21e2&#45;&gt;42b3cb49&#45;9739&#45;4fba&#45;86fd&#45;3b871d962c07</title>
<path fill="none" stroke="black" d="M226.92,-652.8C241.57,-636.03 261.1,-608.36 261.1,-580 261.1,-580 261.1,-580 261.1,-323 261.1,-300.36 243.28,-283.76 223.59,-272.34"/>
<polygon fill="black" stroke="black" points="225.24,-269.25 214.78,-267.6 221.93,-275.42 225.24,-269.25"/>
</g>
<!-- b54e2d3c&#45;c4e2&#45;46d6&#45;806f&#45;7b47b6d65ba1 -->
<g id="node11" class="node">
<title>b54e2d3c&#45;c4e2&#45;46d6&#45;806f&#45;7b47b6d65ba1</title>
<ellipse fill="none" stroke="black" cx="67.1" cy="-91" rx="67.2" ry="18"/>
<text text-anchor="middle" x="67.1" y="-87.3" font-family="Times,serif" font-size="14.00">AdjustMovement</text>
</g>
<!-- 4f7eb538&#45;8923&#45;4c6f&#45;b342&#45;14dee2f8b6c0&#45;&gt;b54e2d3c&#45;c4e2&#45;46d6&#45;806f&#45;7b47b6d65ba1 -->
<g id="edge10" class="edge">
<title>4f7eb538&#45;8923&#45;4c6f&#45;b342&#45;14dee2f8b6c0&#45;&gt;b54e2d3c&#45;c4e2&#45;46d6&#45;806f&#45;7b47b6d65ba1</title>
<path fill="none" stroke="purple" d="M151.86,-160.61C135.73,-147.56 112.98,-129.14 95.11,-114.67"/>
<polygon fill="purple" stroke="purple" points="97.26,-111.91 87.29,-108.34 92.86,-117.35 97.26,-111.91"/>
<text text-anchor="middle" x="161.6" y="-130.8" font-family="Times,serif" font-size="14.00" fill="purple">Pass Data</text>
</g>
<!-- 40f8f81a&#45;91de&#45;4baf&#45;a2b0&#45;d2b6a7a4a031 -->
<g id="node12" class="node">
<title>40f8f81a&#45;91de&#45;4baf&#45;a2b0&#45;d2b6a7a4a031</title>
<polygon fill="none" stroke="black" points="172.1,-36 106.92,-18 172.1,0 237.28,-18 172.1,-36"/>
<text text-anchor="middle" x="172.1" y="-14.3" font-family="Times,serif" font-size="14.00">AlwaysTrue</text>
</g>
<!-- b54e2d3c&#45;c4e2&#45;46d6&#45;806f&#45;7b47b6d65ba1&#45;&gt;40f8f81a&#45;91de&#45;4baf&#45;a2b0&#45;d2b6a7a4a031 -->
<g id="edge11" class="edge">
<title>b54e2d3c&#45;c4e2&#45;46d6&#45;806f&#45;7b47b6d65ba1&#45;&gt;40f8f81a&#45;91de&#45;4baf&#45;a2b0&#45;d2b6a7a4a031</title>
<path fill="none" stroke="black" d="M90.67,-74.07C107.04,-62.99 128.87,-48.23 145.81,-36.78"/>
<polygon fill="black" stroke="black" points="147.85,-39.63 154.17,-31.13 143.92,-33.83 147.85,-39.63"/>
</g>
<!-- 40f8f81a&#45;91de&#45;4baf&#45;a2b0&#45;d2b6a7a4a031&#45;&gt;4f7eb538&#45;8923&#45;4c6f&#45;b342&#45;14dee2f8b6c0 -->
<g id="edge12" class="edge">
<title>40f8f81a&#45;91de&#45;4baf&#45;a2b0&#45;d2b6a7a4a031&#45;&gt;4f7eb538&#45;8923&#45;4c6f&#45;b342&#45;14dee2f8b6c0</title>
<path fill="none" stroke="black" d="M184.04,-33.04C202.28,-56.29 233.17,-104 215.1,-142 212.99,-146.44 210.01,-150.5 206.6,-154.16"/>
<polygon fill="black" stroke="black" points="204.07,-151.73 199.1,-161.09 208.82,-156.87 204.07,-151.73"/>
<text text-anchor="middle" x="236.1" y="-87.3" font-family="Times,serif" font-size="14.00">True</text>
</g>
</g>
</svg>
