<?xml version="1.0" encoding="UTF-8" standalone="no"?>
<!DOCTYPE svg PUBLIC "-//W3C//DTD SVG 1.1//EN"
 "http://www.w3.org/Graphics/SVG/1.1/DTD/svg11.dtd">
<!-- Generated by graphviz version 2.43.0 (0)
 -->
<!-- Title: G Pages: 1 -->
<svg width="286pt" height="839pt"
 viewBox="0.00 0.00 286.10 839.00" xmlns="http://www.w3.org/2000/svg" xmlns:xlink="http://www.w3.org/1999/xlink">
<g id="graph0" class="graph" transform="scale(1 1) rotate(0) translate(4 835)">
<title>G</title>
<polygon fill="transparent" stroke="transparent" points="-4,4 -4,-835 282.1,-835 282.1,4 -4,4"/>
<g id="clust1" class="cluster">
<title>cluster_9ac409aa&#45;f7a1&#45;4530&#45;b012&#45;5a2a0788ed4c</title>
<polygon fill="transparent" stroke="blue" stroke-dasharray="5,2" points="30.1,-225 30.1,-823 270.1,-823 270.1,-225 30.1,-225"/>
</g>
<!-- 501b6abf&#45;2610&#45;4df6&#45;8b50&#45;1ba67e22e32d -->
<g id="node1" class="node">
<title>501b6abf&#45;2610&#45;4df6&#45;8b50&#45;1ba67e22e32d</title>
<polygon fill="none" stroke="black" stroke-dasharray="5,2" points="232.1,-815 134.1,-815 134.1,-779 232.1,-779 232.1,-815"/>
<text text-anchor="middle" x="183.1" y="-793.3" font-family="Times,serif" font-size="14.00" fill="blue">Concurrent</text>
</g>
<!-- b64ac20e&#45;a9d4&#45;444a&#45;a32a&#45;24a995be58d8 -->
<g id="node3" class="node">
<title>b64ac20e&#45;a9d4&#45;444a&#45;a32a&#45;24a995be58d8</title>
<ellipse fill="none" stroke="black" cx="104.1" cy="-724" rx="34.8" ry="18"/>
<text text-anchor="middle" x="104.1" y="-720.3" font-family="Times,serif" font-size="14.00">WaitArm</text>
</g>
<!-- 501b6abf&#45;2610&#45;4df6&#45;8b50&#45;1ba67e22e32d&#45;&gt;b64ac20e&#45;a9d4&#45;444a&#45;a32a&#45;24a995be58d8 -->
<g id="edge6" class="edge">
<title>501b6abf&#45;2610&#45;4df6&#45;8b50&#45;1ba67e22e32d&#45;&gt;b64ac20e&#45;a9d4&#45;444a&#45;a32a&#45;24a995be58d8</title>
<path fill="none" stroke="black" d="M163.98,-778.81C153.22,-769.14 139.68,-756.98 128.2,-746.66"/>
<polygon fill="black" stroke="black" points="130.42,-743.95 120.64,-739.87 125.74,-749.15 130.42,-743.95"/>
</g>
<!-- ec403ed0&#45;ab1b&#45;4831&#45;968a&#45;da9e57fadf4a -->
<g id="node9" class="node">
<title>ec403ed0&#45;ab1b&#45;4831&#45;968a&#45;da9e57fadf4a</title>
<ellipse fill="none" stroke="black" cx="211.1" cy="-670" rx="50.7" ry="18"/>
<text text-anchor="middle" x="211.1" y="-666.3" font-family="Times,serif" font-size="14.00">StartBno055</text>
</g>
<!-- 501b6abf&#45;2610&#45;4df6&#45;8b50&#45;1ba67e22e32d&#45;&gt;ec403ed0&#45;ab1b&#45;4831&#45;968a&#45;da9e57fadf4a -->
<g id="edge7" class="edge">
<title>501b6abf&#45;2610&#45;4df6&#45;8b50&#45;1ba67e22e32d&#45;&gt;ec403ed0&#45;ab1b&#45;4831&#45;968a&#45;da9e57fadf4a</title>
<path fill="none" stroke="black" d="M186.94,-778.88C191.6,-758.05 199.54,-722.64 205.03,-698.09"/>
<polygon fill="black" stroke="black" points="208.45,-698.84 207.22,-688.31 201.62,-697.31 208.45,-698.84"/>
</g>
<!-- 93e19b7e&#45;7c1b&#45;4998&#45;b90a&#45;35151525f538 -->
<g id="node2" class="node">
<title>93e19b7e&#45;7c1b&#45;4998&#45;b90a&#45;35151525f538</title>
<polygon fill="none" stroke="black" stroke-dasharray="5,2" points="214.6,-269 129.6,-269 129.6,-233 214.6,-233 214.6,-269"/>
<text text-anchor="middle" x="172.1" y="-247.3" font-family="Times,serif" font-size="14.00" fill="blue">Converge</text>
</g>
<!-- 2cd7fddd&#45;a210&#45;4d7f&#45;aab2&#45;70f6fdb5d864 -->
<g id="node10" class="node">
<title>2cd7fddd&#45;a210&#45;4d7f&#45;aab2&#45;70f6fdb5d864</title>
<ellipse fill="none" stroke="black" cx="172.1" cy="-178" rx="69.71" ry="18"/>
<text text-anchor="middle" x="172.1" y="-174.3" font-family="Times,serif" font-size="14.00">VisionNormOffset</text>
</g>
<!-- 93e19b7e&#45;7c1b&#45;4998&#45;b90a&#45;35151525f538&#45;&gt;2cd7fddd&#45;a210&#45;4d7f&#45;aab2&#45;70f6fdb5d864 -->
<g id="edge13" class="edge">
<title>93e19b7e&#45;7c1b&#45;4998&#45;b90a&#45;35151525f538&#45;&gt;2cd7fddd&#45;a210&#45;4d7f&#45;aab2&#45;70f6fdb5d864</title>
<path fill="none" stroke="black" d="M172.1,-232.81C172.1,-224.79 172.1,-215.05 172.1,-206.07"/>
<polygon fill="black" stroke="black" points="175.6,-206.03 172.1,-196.03 168.6,-206.03 175.6,-206.03"/>
</g>
<!-- f07c5953&#45;8f4c&#45;42f0&#45;98b0&#45;f07a39c6a4f7 -->
<g id="node4" class="node">
<title>f07c5953&#45;8f4c&#45;42f0&#45;98b0&#45;f07a39c6a4f7</title>
<ellipse fill="none" stroke="black" cx="110.1" cy="-616" rx="33.6" ry="18"/>
<text text-anchor="middle" x="110.1" y="-612.3" font-family="Times,serif" font-size="14.00">Descend</text>
</g>
<!-- b64ac20e&#45;a9d4&#45;444a&#45;a32a&#45;24a995be58d8&#45;&gt;f07c5953&#45;8f4c&#45;42f0&#45;98b0&#45;f07a39c6a4f7 -->
<g id="edge5" class="edge">
<title>b64ac20e&#45;a9d4&#45;444a&#45;a32a&#45;24a995be58d8&#45;&gt;f07c5953&#45;8f4c&#45;42f0&#45;98b0&#45;f07a39c6a4f7</title>
<path fill="none" stroke="black" d="M105.07,-705.97C106.01,-689.38 107.45,-663.88 108.55,-644.43"/>
<polygon fill="black" stroke="black" points="112.05,-644.52 109.12,-634.34 105.06,-644.13 112.05,-644.52"/>
</g>
<!-- 25d7d53e&#45;c9b4&#45;4950&#45;99d3&#45;b3ae6da7d506 -->
<g id="node5" class="node">
<title>25d7d53e&#45;c9b4&#45;4950&#45;99d3&#45;b3ae6da7d506</title>
<ellipse fill="none" stroke="black" cx="110.1" cy="-543" rx="47.1" ry="18"/>
<text text-anchor="middle" x="110.1" y="-539.3" font-family="Times,serif" font-size="14.00">DelayAction</text>
</g>
<!-- f07c5953&#45;8f4c&#45;42f0&#45;98b0&#45;f07a39c6a4f7&#45;&gt;25d7d53e&#45;c9b4&#45;4950&#45;99d3&#45;b3ae6da7d506 -->
<g id="edge1" class="edge">
<title>f07c5953&#45;8f4c&#45;42f0&#45;98b0&#45;f07a39c6a4f7&#45;&gt;25d7d53e&#45;c9b4&#45;4950&#45;99d3&#45;b3ae6da7d506</title>
<path fill="none" stroke="black" d="M110.1,-597.81C110.1,-589.79 110.1,-580.05 110.1,-571.07"/>
<polygon fill="black" stroke="black" points="113.6,-571.03 110.1,-561.03 106.6,-571.03 113.6,-571.03"/>
</g>
<!-- 524d2bec&#45;938a&#45;494c&#45;8387&#45;f724d77d8b3e -->
<g id="node6" class="node">
<title>524d2bec&#45;938a&#45;494c&#45;8387&#45;f724d77d8b3e</title>
<ellipse fill="none" stroke="black" cx="113.1" cy="-470" rx="74.61" ry="18"/>
<text text-anchor="middle" x="113.1" y="-466.3" font-family="Times,serif" font-size="14.00">StraightMovement</text>
</g>
<!-- 25d7d53e&#45;c9b4&#45;4950&#45;99d3&#45;b3ae6da7d506&#45;&gt;524d2bec&#45;938a&#45;494c&#45;8387&#45;f724d77d8b3e -->
<g id="edge4" class="edge">
<title>25d7d53e&#45;c9b4&#45;4950&#45;99d3&#45;b3ae6da7d506&#45;&gt;524d2bec&#45;938a&#45;494c&#45;8387&#45;f724d77d8b3e</title>
<path fill="none" stroke="black" d="M110.83,-524.81C111.17,-516.79 111.58,-507.05 111.96,-498.07"/>
<polygon fill="black" stroke="black" points="115.46,-498.17 112.38,-488.03 108.46,-497.87 115.46,-498.17"/>
</g>
<!-- 5bf33886&#45;4059&#45;473e&#45;94e0&#45;288d0e00716a -->
<g id="node7" class="node">
<title>5bf33886&#45;4059&#45;473e&#45;94e0&#45;288d0e00716a</title>
<ellipse fill="none" stroke="black" cx="115.1" cy="-397" rx="47.1" ry="18"/>
<text text-anchor="middle" x="115.1" y="-393.3" font-family="Times,serif" font-size="14.00">DelayAction</text>
</g>
<!-- 524d2bec&#45;938a&#45;494c&#45;8387&#45;f724d77d8b3e&#45;&gt;5bf33886&#45;4059&#45;473e&#45;94e0&#45;288d0e00716a -->
<g id="edge2" class="edge">
<title>524d2bec&#45;938a&#45;494c&#45;8387&#45;f724d77d8b3e&#45;&gt;5bf33886&#45;4059&#45;473e&#45;94e0&#45;288d0e00716a</title>
<path fill="none" stroke="black" d="M113.59,-451.81C113.81,-443.79 114.09,-434.05 114.34,-425.07"/>
<polygon fill="black" stroke="black" points="117.84,-425.12 114.62,-415.03 110.84,-424.93 117.84,-425.12"/>
</g>
<!-- 4e8bf800&#45;1406&#45;44ec&#45;a09a&#45;c2bc81f02189 -->
<g id="node8" class="node">
<title>4e8bf800&#45;1406&#45;44ec&#45;a09a&#45;c2bc81f02189</title>
<ellipse fill="none" stroke="black" cx="124.1" cy="-324" rx="59.9" ry="18"/>
<text text-anchor="middle" x="124.1" y="-320.3" font-family="Times,serif" font-size="14.00">ZeroMovement</text>
</g>
<!-- 5bf33886&#45;4059&#45;473e&#45;94e0&#45;288d0e00716a&#45;&gt;4e8bf800&#45;1406&#45;44ec&#45;a09a&#45;c2bc81f02189 -->
<g id="edge3" class="edge">
<title>5bf33886&#45;4059&#45;473e&#45;94e0&#45;288d0e00716a&#45;&gt;4e8bf800&#45;1406&#45;44ec&#45;a09a&#45;c2bc81f02189</title>
<path fill="none" stroke="black" d="M117.28,-378.81C118.3,-370.79 119.53,-361.05 120.67,-352.07"/>
<polygon fill="black" stroke="black" points="124.16,-352.39 121.94,-342.03 117.21,-351.51 124.16,-352.39"/>
</g>
<!-- 4e8bf800&#45;1406&#45;44ec&#45;a09a&#45;c2bc81f02189&#45;&gt;93e19b7e&#45;7c1b&#45;4998&#45;b90a&#45;35151525f538 -->
<g id="edge8" class="edge">
<title>4e8bf800&#45;1406&#45;44ec&#45;a09a&#45;c2bc81f02189&#45;&gt;93e19b7e&#45;7c1b&#45;4998&#45;b90a&#45;35151525f538</title>
<path fill="none" stroke="black" d="M135.48,-306.17C141.25,-297.63 148.39,-287.08 154.82,-277.56"/>
<polygon fill="black" stroke="black" points="157.77,-279.44 160.48,-269.2 151.97,-275.52 157.77,-279.44"/>
</g>
<!-- ec403ed0&#45;ab1b&#45;4831&#45;968a&#45;da9e57fadf4a&#45;&gt;93e19b7e&#45;7c1b&#45;4998&#45;b90a&#45;35151525f538 -->
<g id="edge9" class="edge">
<title>ec403ed0&#45;ab1b&#45;4831&#45;968a&#45;da9e57fadf4a&#45;&gt;93e19b7e&#45;7c1b&#45;4998&#45;b90a&#45;35151525f538</title>
<path fill="none" stroke="black" d="M226.92,-652.8C241.57,-636.03 261.1,-608.36 261.1,-580 261.1,-580 261.1,-580 261.1,-323 261.1,-300.36 243.28,-283.76 223.59,-272.34"/>
<polygon fill="black" stroke="black" points="225.24,-269.25 214.78,-267.6 221.93,-275.42 225.24,-269.25"/>
</g>
<!-- 9c85a6d6&#45;35be&#45;457d&#45;90fc&#45;1b63ed56cd52 -->
<g id="node11" class="node">
<title>9c85a6d6&#45;35be&#45;457d&#45;90fc&#45;1b63ed56cd52</title>
<ellipse fill="none" stroke="black" cx="67.1" cy="-91" rx="67.2" ry="18"/>
<text text-anchor="middle" x="67.1" y="-87.3" font-family="Times,serif" font-size="14.00">AdjustMovement</text>
</g>
<!-- 2cd7fddd&#45;a210&#45;4d7f&#45;aab2&#45;70f6fdb5d864&#45;&gt;9c85a6d6&#45;35be&#45;457d&#45;90fc&#45;1b63ed56cd52 -->
<g id="edge10" class="edge">
<title>2cd7fddd&#45;a210&#45;4d7f&#45;aab2&#45;70f6fdb5d864&#45;&gt;9c85a6d6&#45;35be&#45;457d&#45;90fc&#45;1b63ed56cd52</title>
<path fill="none" stroke="purple" d="M151.86,-160.61C135.73,-147.56 112.98,-129.14 95.11,-114.67"/>
<polygon fill="purple" stroke="purple" points="97.26,-111.91 87.29,-108.34 92.86,-117.35 97.26,-111.91"/>
<text text-anchor="middle" x="161.6" y="-130.8" font-family="Times,serif" font-size="14.00" fill="purple">Pass Data</text>
</g>
<!-- e313bb1c&#45;ff74&#45;4693&#45;b3d9&#45;f802730fcdc1 -->
<g id="node12" class="node">
<title>e313bb1c&#45;ff74&#45;4693&#45;b3d9&#45;f802730fcdc1</title>
<polygon fill="none" stroke="black" points="172.1,-36 106.92,-18 172.1,0 237.28,-18 172.1,-36"/>
<text text-anchor="middle" x="172.1" y="-14.3" font-family="Times,serif" font-size="14.00">AlwaysTrue</text>
</g>
<!-- 9c85a6d6&#45;35be&#45;457d&#45;90fc&#45;1b63ed56cd52&#45;&gt;e313bb1c&#45;ff74&#45;4693&#45;b3d9&#45;f802730fcdc1 -->
<g id="edge11" class="edge">
<title>9c85a6d6&#45;35be&#45;457d&#45;90fc&#45;1b63ed56cd52&#45;&gt;e313bb1c&#45;ff74&#45;4693&#45;b3d9&#45;f802730fcdc1</title>
<path fill="none" stroke="black" d="M90.67,-74.07C107.04,-62.99 128.87,-48.23 145.81,-36.78"/>
<polygon fill="black" stroke="black" points="147.85,-39.63 154.17,-31.13 143.92,-33.83 147.85,-39.63"/>
</g>
<!-- e313bb1c&#45;ff74&#45;4693&#45;b3d9&#45;f802730fcdc1&#45;&gt;2cd7fddd&#45;a210&#45;4d7f&#45;aab2&#45;70f6fdb5d864 -->
<g id="edge12" class="edge">
<title>e313bb1c&#45;ff74&#45;4693&#45;b3d9&#45;f802730fcdc1&#45;&gt;2cd7fddd&#45;a210&#45;4d7f&#45;aab2&#45;70f6fdb5d864</title>
<path fill="none" stroke="black" d="M184.04,-33.04C202.28,-56.29 233.17,-104 215.1,-142 212.99,-146.44 210.01,-150.5 206.6,-154.16"/>
<polygon fill="black" stroke="black" points="204.07,-151.73 199.1,-161.09 208.82,-156.87 204.07,-151.73"/>
<text text-anchor="middle" x="236.1" y="-87.3" font-family="Times,serif" font-size="14.00">True</text>
</g>
</g>
</svg>
