<?xml version="1.0" encoding="UTF-8" standalone="no"?>
<!DOCTYPE svg PUBLIC "-//W3C//DTD SVG 1.1//EN"
 "http://www.w3.org/Graphics/SVG/1.1/DTD/svg11.dtd">
<!-- Generated by graphviz version 2.43.0 (0)
 -->
<!-- Title: G Pages: 1 -->
<svg width="336pt" height="728pt"
 viewBox="0.00 0.00 336.00 728.00" xmlns="http://www.w3.org/2000/svg" xmlns:xlink="http://www.w3.org/1999/xlink">
<g id="graph0" class="graph" transform="scale(1 1) rotate(0) translate(4 724)">
<title>G</title>
<polygon fill="transparent" stroke="transparent" points="-4,4 -4,-724 332,-724 332,4 -4,4"/>
<g id="clust1" class="cluster">
<title>cluster_0578bfd1&#45;52c0&#45;4c55&#45;9995&#45;3e9735c296c9</title>
<polygon fill="transparent" stroke="blue" stroke-dasharray="5,2" points="8,-8 8,-568 320,-568 320,-8 8,-8"/>
</g>
<!-- ce8b742a&#45;1b8c&#45;441a&#45;8362&#45;d0077e060a0a -->
<g id="node1" class="node">
<title>ce8b742a&#45;1b8c&#45;441a&#45;8362&#45;d0077e060a0a</title>
<ellipse fill="none" stroke="black" cx="95" cy="-121" rx="67.81" ry="18"/>
<text text-anchor="middle" x="95" y="-117.3" font-family="Times,serif" font-size="14.00">LinearYawFromX</text>
</g>
<!-- 05a257a3&#45;4c7c&#45;4622&#45;9211&#45;8bc636208628 -->
<g id="node2" class="node">
<title>05a257a3&#45;4c7c&#45;4622&#45;9211&#45;8bc636208628</title>
<ellipse fill="none" stroke="black" cx="96" cy="-34" rx="80.11" ry="18"/>
<text text-anchor="middle" x="96" y="-30.3" font-family="Times,serif" font-size="14.00">Stability2Movement</text>
</g>
<!-- ce8b742a&#45;1b8c&#45;441a&#45;8362&#45;d0077e060a0a&#45;&gt;05a257a3&#45;4c7c&#45;4622&#45;9211&#45;8bc636208628 -->
<g id="edge1" class="edge">
<title>ce8b742a&#45;1b8c&#45;441a&#45;8362&#45;d0077e060a0a&#45;&gt;05a257a3&#45;4c7c&#45;4622&#45;9211&#45;8bc636208628</title>
<path fill="none" stroke="purple" d="M95.2,-102.8C95.34,-91.16 95.52,-75.55 95.68,-62.24"/>
<polygon fill="purple" stroke="purple" points="99.18,-62.22 95.8,-52.18 92.18,-62.13 99.18,-62.22"/>
<text text-anchor="middle" x="130.5" y="-73.8" font-family="Times,serif" font-size="14.00" fill="purple">Pass Data</text>
</g>
<!-- 37dd1cc5&#45;c82e&#45;4f3a&#45;8983&#45;eb27df5769d9 -->
<g id="node3" class="node">
<title>37dd1cc5&#45;c82e&#45;4f3a&#45;8983&#45;eb27df5769d9</title>
<ellipse fill="none" stroke="black" cx="95" cy="-208" rx="51.3" ry="18"/>
<text text-anchor="middle" x="95" y="-204.3" font-family="Times,serif" font-size="14.00">OffsetToPose</text>
</g>
<!-- 37dd1cc5&#45;c82e&#45;4f3a&#45;8983&#45;eb27df5769d9&#45;&gt;ce8b742a&#45;1b8c&#45;441a&#45;8362&#45;d0077e060a0a -->
<g id="edge2" class="edge">
<title>37dd1cc5&#45;c82e&#45;4f3a&#45;8983&#45;eb27df5769d9&#45;&gt;ce8b742a&#45;1b8c&#45;441a&#45;8362&#45;d0077e060a0a</title>
<path fill="none" stroke="purple" d="M95,-189.8C95,-178.16 95,-162.55 95,-149.24"/>
<polygon fill="purple" stroke="purple" points="98.5,-149.18 95,-139.18 91.5,-149.18 98.5,-149.18"/>
<text text-anchor="middle" x="130.5" y="-160.8" font-family="Times,serif" font-size="14.00" fill="purple">Pass Data</text>
</g>
<!-- 41b5dedd&#45;3bd5&#45;4d07&#45;b4dd&#45;a82ea5b71aeb -->
<g id="node4" class="node">
<title>41b5dedd&#45;3bd5&#45;4d07&#45;b4dd&#45;a82ea5b71aeb</title>
<ellipse fill="none" stroke="black" cx="94" cy="-295" rx="35.5" ry="18"/>
<text text-anchor="middle" x="94" y="-291.3" font-family="Times,serif" font-size="14.00">MidPoint</text>
</g>
<!-- 41b5dedd&#45;3bd5&#45;4d07&#45;b4dd&#45;a82ea5b71aeb&#45;&gt;37dd1cc5&#45;c82e&#45;4f3a&#45;8983&#45;eb27df5769d9 -->
<g id="edge3" class="edge">
<title>41b5dedd&#45;3bd5&#45;4d07&#45;b4dd&#45;a82ea5b71aeb&#45;&gt;37dd1cc5&#45;c82e&#45;4f3a&#45;8983&#45;eb27df5769d9</title>
<path fill="none" stroke="purple" d="M94.2,-276.8C94.34,-265.16 94.52,-249.55 94.68,-236.24"/>
<polygon fill="purple" stroke="purple" points="98.18,-236.22 94.8,-226.18 91.18,-236.13 98.18,-236.22"/>
<text text-anchor="middle" x="129.5" y="-247.8" font-family="Times,serif" font-size="14.00" fill="purple">Pass Data</text>
</g>
<!-- 352e5bfb&#45;9bc2&#45;4e4c&#45;addf&#45;92f2d08874dd -->
<g id="node5" class="node">
<title>352e5bfb&#45;9bc2&#45;4e4c&#45;addf&#45;92f2d08874dd</title>
<ellipse fill="none" stroke="black" cx="92" cy="-382" rx="61.1" ry="18"/>
<text text-anchor="middle" x="92" y="-378.3" font-family="Times,serif" font-size="14.00">ExtractPosition</text>
</g>
<!-- 352e5bfb&#45;9bc2&#45;4e4c&#45;addf&#45;92f2d08874dd&#45;&gt;41b5dedd&#45;3bd5&#45;4d07&#45;b4dd&#45;a82ea5b71aeb -->
<g id="edge4" class="edge">
<title>352e5bfb&#45;9bc2&#45;4e4c&#45;addf&#45;92f2d08874dd&#45;&gt;41b5dedd&#45;3bd5&#45;4d07&#45;b4dd&#45;a82ea5b71aeb</title>
<path fill="none" stroke="purple" d="M92.4,-363.8C92.68,-352.16 93.05,-336.55 93.36,-323.24"/>
<polygon fill="purple" stroke="purple" points="96.86,-323.26 93.6,-313.18 89.86,-323.09 96.86,-323.26"/>
<text text-anchor="middle" x="128.5" y="-334.8" font-family="Times,serif" font-size="14.00" fill="purple">Pass Data</text>
</g>
<!-- 2b7b9683&#45;7b04&#45;4181&#45;9ed8&#45;35d53ee6ad7a -->
<g id="node6" class="node">
<title>2b7b9683&#45;7b04&#45;4181&#45;9ed8&#45;35d53ee6ad7a</title>
<ellipse fill="none" stroke="black" cx="43" cy="-469" rx="27" ry="18"/>
<text text-anchor="middle" x="43" y="-465.3" font-family="Times,serif" font-size="14.00">ToVec</text>
</g>
<!-- 2b7b9683&#45;7b04&#45;4181&#45;9ed8&#45;35d53ee6ad7a&#45;&gt;352e5bfb&#45;9bc2&#45;4e4c&#45;addf&#45;92f2d08874dd -->
<g id="edge5" class="edge">
<title>2b7b9683&#45;7b04&#45;4181&#45;9ed8&#45;35d53ee6ad7a&#45;&gt;352e5bfb&#45;9bc2&#45;4e4c&#45;addf&#45;92f2d08874dd</title>
<path fill="none" stroke="purple" d="M52.22,-452.01C59.27,-439.78 69.13,-422.68 77.27,-408.56"/>
<polygon fill="purple" stroke="purple" points="80.36,-410.2 82.32,-399.79 74.3,-406.7 80.36,-410.2"/>
<text text-anchor="middle" x="105.5" y="-421.8" font-family="Times,serif" font-size="14.00" fill="purple">Pass Data</text>
</g>
<!-- 8d948832&#45;bc7f&#45;48f2&#45;a1e9&#45;ebdabeb1d2d8 -->
<g id="node7" class="node">
<title>8d948832&#45;bc7f&#45;48f2&#45;a1e9&#45;ebdabeb1d2d8</title>
<polygon fill="none" stroke="black" stroke-dasharray="5,2" points="195,-560 97,-560 97,-524 195,-524 195,-560"/>
<text text-anchor="middle" x="146" y="-538.3" font-family="Times,serif" font-size="14.00" fill="blue">Concurrent</text>
</g>
<!-- 8d948832&#45;bc7f&#45;48f2&#45;a1e9&#45;ebdabeb1d2d8&#45;&gt;2b7b9683&#45;7b04&#45;4181&#45;9ed8&#45;35d53ee6ad7a -->
<g id="edge6" class="edge">
<title>8d948832&#45;bc7f&#45;48f2&#45;a1e9&#45;ebdabeb1d2d8&#45;&gt;2b7b9683&#45;7b04&#45;4181&#45;9ed8&#45;35d53ee6ad7a</title>
<path fill="none" stroke="black" d="M121.33,-523.99C105.66,-513.19 85.4,-499.23 69.41,-488.2"/>
<polygon fill="black" stroke="black" points="71.24,-485.21 61.02,-482.42 67.27,-490.98 71.24,-485.21"/>
</g>
<!-- 1db5de9f&#45;7b60&#45;4d29&#45;8afb&#45;2e30fd293da4 -->
<g id="node8" class="node">
<title>1db5de9f&#45;7b60&#45;4d29&#45;8afb&#45;2e30fd293da4</title>
<ellipse fill="none" stroke="black" cx="227" cy="-469" rx="85.01" ry="18"/>
<text text-anchor="middle" x="227" y="-465.3" font-family="Times,serif" font-size="14.00">Consecutive True &lt; 3</text>
</g>
<!-- 8d948832&#45;bc7f&#45;48f2&#45;a1e9&#45;ebdabeb1d2d8&#45;&gt;1db5de9f&#45;7b60&#45;4d29&#45;8afb&#45;2e30fd293da4 -->
<g id="edge7" class="edge">
<title>8d948832&#45;bc7f&#45;48f2&#45;a1e9&#45;ebdabeb1d2d8&#45;&gt;1db5de9f&#45;7b60&#45;4d29&#45;8afb&#45;2e30fd293da4</title>
<path fill="none" stroke="black" d="M165.61,-523.81C176.03,-514.68 189,-503.31 200.32,-493.38"/>
<polygon fill="black" stroke="black" points="202.64,-496.01 207.85,-486.78 198.03,-490.74 202.64,-496.01"/>
</g>
<!-- e594af76&#45;c27a&#45;4473&#45;9ab2&#45;be463042c9bc -->
<g id="node9" class="node">
<title>e594af76&#45;c27a&#45;4473&#45;9ab2&#45;be463042c9bc</title>
<ellipse fill="none" stroke="black" cx="146" cy="-629" rx="75.21" ry="18"/>
<text text-anchor="middle" x="146" y="-625.3" font-family="Times,serif" font-size="14.00">VisionNormBottom</text>
</g>
<!-- e594af76&#45;c27a&#45;4473&#45;9ab2&#45;be463042c9bc&#45;&gt;8d948832&#45;bc7f&#45;48f2&#45;a1e9&#45;ebdabeb1d2d8 -->
<g id="edge8" class="edge">
<title>e594af76&#45;c27a&#45;4473&#45;9ab2&#45;be463042c9bc&#45;&gt;8d948832&#45;bc7f&#45;48f2&#45;a1e9&#45;ebdabeb1d2d8</title>
<path fill="none" stroke="purple" d="M146,-610.8C146,-599.16 146,-583.55 146,-570.24"/>
<polygon fill="purple" stroke="purple" points="149.5,-570.18 146,-560.18 142.5,-570.18 149.5,-570.18"/>
<text text-anchor="middle" x="181.5" y="-581.8" font-family="Times,serif" font-size="14.00" fill="purple">Pass Data</text>
</g>
<!-- 1b7080c6&#45;11f1&#45;45e4&#45;a334&#45;b389962b183d -->
<g id="node10" class="node">
<title>1b7080c6&#45;11f1&#45;45e4&#45;a334&#45;b389962b183d</title>
<ellipse fill="none" stroke="black" cx="146" cy="-702" rx="59.9" ry="18"/>
<text text-anchor="middle" x="146" y="-698.3" font-family="Times,serif" font-size="14.00">ZeroMovement</text>
</g>
<!-- 1b7080c6&#45;11f1&#45;45e4&#45;a334&#45;b389962b183d&#45;&gt;e594af76&#45;c27a&#45;4473&#45;9ab2&#45;be463042c9bc -->
<g id="edge9" class="edge">
<title>1b7080c6&#45;11f1&#45;45e4&#45;a334&#45;b389962b183d&#45;&gt;e594af76&#45;c27a&#45;4473&#45;9ab2&#45;be463042c9bc</title>
<path fill="none" stroke="black" d="M146,-683.81C146,-675.79 146,-666.05 146,-657.07"/>
<polygon fill="black" stroke="black" points="149.5,-657.03 146,-647.03 142.5,-657.03 149.5,-657.03"/>
</g>
</g>
</svg>
