<?xml version="1.0" encoding="UTF-8" standalone="no"?>
<!DOCTYPE svg PUBLIC "-//W3C//DTD SVG 1.1//EN"
 "http://www.w3.org/Graphics/SVG/1.1/DTD/svg11.dtd">
<!-- Generated by graphviz version 2.43.0 (0)
 -->
<!-- Title: G Pages: 1 -->
<svg width="336pt" height="728pt"
 viewBox="0.00 0.00 336.00 728.00" xmlns="http://www.w3.org/2000/svg" xmlns:xlink="http://www.w3.org/1999/xlink">
<g id="graph0" class="graph" transform="scale(1 1) rotate(0) translate(4 724)">
<title>G</title>
<polygon fill="transparent" stroke="transparent" points="-4,4 -4,-724 332,-724 332,4 -4,4"/>
<g id="clust1" class="cluster">
<title>cluster_554d4ac1&#45;14de&#45;45a4&#45;b01a&#45;711cbb839b07</title>
<polygon fill="transparent" stroke="blue" stroke-dasharray="5,2" points="8,-8 8,-568 320,-568 320,-8 8,-8"/>
</g>
<!-- 64faba0c&#45;1244&#45;4cac&#45;b942&#45;a501e7c917a1 -->
<g id="node1" class="node">
<title>64faba0c&#45;1244&#45;4cac&#45;b942&#45;a501e7c917a1</title>
<ellipse fill="none" stroke="black" cx="95" cy="-121" rx="67.81" ry="18"/>
<text text-anchor="middle" x="95" y="-117.3" font-family="Times,serif" font-size="14.00">LinearYawFromX</text>
</g>
<!-- 6ff50ed7&#45;6c6f&#45;433a&#45;9358&#45;d8223b4abcc9 -->
<g id="node2" class="node">
<title>6ff50ed7&#45;6c6f&#45;433a&#45;9358&#45;d8223b4abcc9</title>
<ellipse fill="none" stroke="black" cx="96" cy="-34" rx="80.11" ry="18"/>
<text text-anchor="middle" x="96" y="-30.3" font-family="Times,serif" font-size="14.00">Stability2Movement</text>
</g>
<!-- 64faba0c&#45;1244&#45;4cac&#45;b942&#45;a501e7c917a1&#45;&gt;6ff50ed7&#45;6c6f&#45;433a&#45;9358&#45;d8223b4abcc9 -->
<g id="edge1" class="edge">
<title>64faba0c&#45;1244&#45;4cac&#45;b942&#45;a501e7c917a1&#45;&gt;6ff50ed7&#45;6c6f&#45;433a&#45;9358&#45;d8223b4abcc9</title>
<path fill="none" stroke="purple" d="M95.2,-102.8C95.34,-91.16 95.52,-75.55 95.68,-62.24"/>
<polygon fill="purple" stroke="purple" points="99.18,-62.22 95.8,-52.18 92.18,-62.13 99.18,-62.22"/>
<text text-anchor="middle" x="130.5" y="-73.8" font-family="Times,serif" font-size="14.00" fill="purple">Pass Data</text>
</g>
<!-- 676df659&#45;2eab&#45;4ae6&#45;b0bc&#45;661ecfb398c3 -->
<g id="node3" class="node">
<title>676df659&#45;2eab&#45;4ae6&#45;b0bc&#45;661ecfb398c3</title>
<ellipse fill="none" stroke="black" cx="95" cy="-208" rx="51.3" ry="18"/>
<text text-anchor="middle" x="95" y="-204.3" font-family="Times,serif" font-size="14.00">OffsetToPose</text>
</g>
<!-- 676df659&#45;2eab&#45;4ae6&#45;b0bc&#45;661ecfb398c3&#45;&gt;64faba0c&#45;1244&#45;4cac&#45;b942&#45;a501e7c917a1 -->
<g id="edge2" class="edge">
<title>676df659&#45;2eab&#45;4ae6&#45;b0bc&#45;661ecfb398c3&#45;&gt;64faba0c&#45;1244&#45;4cac&#45;b942&#45;a501e7c917a1</title>
<path fill="none" stroke="purple" d="M95,-189.8C95,-178.16 95,-162.55 95,-149.24"/>
<polygon fill="purple" stroke="purple" points="98.5,-149.18 95,-139.18 91.5,-149.18 98.5,-149.18"/>
<text text-anchor="middle" x="130.5" y="-160.8" font-family="Times,serif" font-size="14.00" fill="purple">Pass Data</text>
</g>
<!-- 48ca9e82&#45;02b3&#45;4b76&#45;96f7&#45;9755c286d23e -->
<g id="node4" class="node">
<title>48ca9e82&#45;02b3&#45;4b76&#45;96f7&#45;9755c286d23e</title>
<ellipse fill="none" stroke="black" cx="94" cy="-295" rx="35.5" ry="18"/>
<text text-anchor="middle" x="94" y="-291.3" font-family="Times,serif" font-size="14.00">MidPoint</text>
</g>
<!-- 48ca9e82&#45;02b3&#45;4b76&#45;96f7&#45;9755c286d23e&#45;&gt;676df659&#45;2eab&#45;4ae6&#45;b0bc&#45;661ecfb398c3 -->
<g id="edge3" class="edge">
<title>48ca9e82&#45;02b3&#45;4b76&#45;96f7&#45;9755c286d23e&#45;&gt;676df659&#45;2eab&#45;4ae6&#45;b0bc&#45;661ecfb398c3</title>
<path fill="none" stroke="purple" d="M94.2,-276.8C94.34,-265.16 94.52,-249.55 94.68,-236.24"/>
<polygon fill="purple" stroke="purple" points="98.18,-236.22 94.8,-226.18 91.18,-236.13 98.18,-236.22"/>
<text text-anchor="middle" x="129.5" y="-247.8" font-family="Times,serif" font-size="14.00" fill="purple">Pass Data</text>
</g>
<!-- 7df59c01&#45;92c4&#45;49df&#45;9c75&#45;b83a3c8d3801 -->
<g id="node5" class="node">
<title>7df59c01&#45;92c4&#45;49df&#45;9c75&#45;b83a3c8d3801</title>
<ellipse fill="none" stroke="black" cx="92" cy="-382" rx="61.1" ry="18"/>
<text text-anchor="middle" x="92" y="-378.3" font-family="Times,serif" font-size="14.00">ExtractPosition</text>
</g>
<!-- 7df59c01&#45;92c4&#45;49df&#45;9c75&#45;b83a3c8d3801&#45;&gt;48ca9e82&#45;02b3&#45;4b76&#45;96f7&#45;9755c286d23e -->
<g id="edge4" class="edge">
<title>7df59c01&#45;92c4&#45;49df&#45;9c75&#45;b83a3c8d3801&#45;&gt;48ca9e82&#45;02b3&#45;4b76&#45;96f7&#45;9755c286d23e</title>
<path fill="none" stroke="purple" d="M92.4,-363.8C92.68,-352.16 93.05,-336.55 93.36,-323.24"/>
<polygon fill="purple" stroke="purple" points="96.86,-323.26 93.6,-313.18 89.86,-323.09 96.86,-323.26"/>
<text text-anchor="middle" x="128.5" y="-334.8" font-family="Times,serif" font-size="14.00" fill="purple">Pass Data</text>
</g>
<!-- 41e94447&#45;6503&#45;44dd&#45;823c&#45;404244ce4c2c -->
<g id="node6" class="node">
<title>41e94447&#45;6503&#45;44dd&#45;823c&#45;404244ce4c2c</title>
<ellipse fill="none" stroke="black" cx="43" cy="-469" rx="27" ry="18"/>
<text text-anchor="middle" x="43" y="-465.3" font-family="Times,serif" font-size="14.00">ToVec</text>
</g>
<!-- 41e94447&#45;6503&#45;44dd&#45;823c&#45;404244ce4c2c&#45;&gt;7df59c01&#45;92c4&#45;49df&#45;9c75&#45;b83a3c8d3801 -->
<g id="edge5" class="edge">
<title>41e94447&#45;6503&#45;44dd&#45;823c&#45;404244ce4c2c&#45;&gt;7df59c01&#45;92c4&#45;49df&#45;9c75&#45;b83a3c8d3801</title>
<path fill="none" stroke="purple" d="M52.22,-452.01C59.27,-439.78 69.13,-422.68 77.27,-408.56"/>
<polygon fill="purple" stroke="purple" points="80.36,-410.2 82.32,-399.79 74.3,-406.7 80.36,-410.2"/>
<text text-anchor="middle" x="105.5" y="-421.8" font-family="Times,serif" font-size="14.00" fill="purple">Pass Data</text>
</g>
<!-- a152569a&#45;1b30&#45;4635&#45;9abd&#45;5b4ab8eefb15 -->
<g id="node7" class="node">
<title>a152569a&#45;1b30&#45;4635&#45;9abd&#45;5b4ab8eefb15</title>
<polygon fill="none" stroke="black" stroke-dasharray="5,2" points="195,-560 97,-560 97,-524 195,-524 195,-560"/>
<text text-anchor="middle" x="146" y="-538.3" font-family="Times,serif" font-size="14.00" fill="blue">Concurrent</text>
</g>
<!-- a152569a&#45;1b30&#45;4635&#45;9abd&#45;5b4ab8eefb15&#45;&gt;41e94447&#45;6503&#45;44dd&#45;823c&#45;404244ce4c2c -->
<g id="edge6" class="edge">
<title>a152569a&#45;1b30&#45;4635&#45;9abd&#45;5b4ab8eefb15&#45;&gt;41e94447&#45;6503&#45;44dd&#45;823c&#45;404244ce4c2c</title>
<path fill="none" stroke="black" d="M121.33,-523.99C105.66,-513.19 85.4,-499.23 69.41,-488.2"/>
<polygon fill="black" stroke="black" points="71.24,-485.21 61.02,-482.42 67.27,-490.98 71.24,-485.21"/>
</g>
<!-- d8b461c3&#45;0c58&#45;4ea7&#45;be4b&#45;e03f1167e001 -->
<g id="node8" class="node">
<title>d8b461c3&#45;0c58&#45;4ea7&#45;be4b&#45;e03f1167e001</title>
<ellipse fill="none" stroke="black" cx="227" cy="-469" rx="85.01" ry="18"/>
<text text-anchor="middle" x="227" y="-465.3" font-family="Times,serif" font-size="14.00">Consecutive True &lt; 3</text>
</g>
<!-- a152569a&#45;1b30&#45;4635&#45;9abd&#45;5b4ab8eefb15&#45;&gt;d8b461c3&#45;0c58&#45;4ea7&#45;be4b&#45;e03f1167e001 -->
<g id="edge7" class="edge">
<title>a152569a&#45;1b30&#45;4635&#45;9abd&#45;5b4ab8eefb15&#45;&gt;d8b461c3&#45;0c58&#45;4ea7&#45;be4b&#45;e03f1167e001</title>
<path fill="none" stroke="black" d="M165.61,-523.81C176.03,-514.68 189,-503.31 200.32,-493.38"/>
<polygon fill="black" stroke="black" points="202.64,-496.01 207.85,-486.78 198.03,-490.74 202.64,-496.01"/>
</g>
<!-- c3b728e6&#45;b19e&#45;41e3&#45;9d38&#45;e618afc547ff -->
<g id="node9" class="node">
<title>c3b728e6&#45;b19e&#45;41e3&#45;9d38&#45;e618afc547ff</title>
<ellipse fill="none" stroke="black" cx="146" cy="-629" rx="75.21" ry="18"/>
<text text-anchor="middle" x="146" y="-625.3" font-family="Times,serif" font-size="14.00">VisionNormBottom</text>
</g>
<!-- c3b728e6&#45;b19e&#45;41e3&#45;9d38&#45;e618afc547ff&#45;&gt;a152569a&#45;1b30&#45;4635&#45;9abd&#45;5b4ab8eefb15 -->
<g id="edge8" class="edge">
<title>c3b728e6&#45;b19e&#45;41e3&#45;9d38&#45;e618afc547ff&#45;&gt;a152569a&#45;1b30&#45;4635&#45;9abd&#45;5b4ab8eefb15</title>
<path fill="none" stroke="purple" d="M146,-610.8C146,-599.16 146,-583.55 146,-570.24"/>
<polygon fill="purple" stroke="purple" points="149.5,-570.18 146,-560.18 142.5,-570.18 149.5,-570.18"/>
<text text-anchor="middle" x="181.5" y="-581.8" font-family="Times,serif" font-size="14.00" fill="purple">Pass Data</text>
</g>
<!-- d4e1a956&#45;8d1e&#45;42d4&#45;bf48&#45;8d197102ecc4 -->
<g id="node10" class="node">
<title>d4e1a956&#45;8d1e&#45;42d4&#45;bf48&#45;8d197102ecc4</title>
<ellipse fill="none" stroke="black" cx="146" cy="-702" rx="59.9" ry="18"/>
<text text-anchor="middle" x="146" y="-698.3" font-family="Times,serif" font-size="14.00">ZeroMovement</text>
</g>
<!-- d4e1a956&#45;8d1e&#45;42d4&#45;bf48&#45;8d197102ecc4&#45;&gt;c3b728e6&#45;b19e&#45;41e3&#45;9d38&#45;e618afc547ff -->
<g id="edge9" class="edge">
<title>d4e1a956&#45;8d1e&#45;42d4&#45;bf48&#45;8d197102ecc4&#45;&gt;c3b728e6&#45;b19e&#45;41e3&#45;9d38&#45;e618afc547ff</title>
<path fill="none" stroke="black" d="M146,-683.81C146,-675.79 146,-666.05 146,-657.07"/>
<polygon fill="black" stroke="black" points="149.5,-657.03 146,-647.03 142.5,-657.03 149.5,-657.03"/>
</g>
</g>
</svg>
