<?xml version="1.0" encoding="UTF-8" standalone="no"?>
<!DOCTYPE svg PUBLIC "-//W3C//DTD SVG 1.1//EN"
 "http://www.w3.org/Graphics/SVG/1.1/DTD/svg11.dtd">
<!-- Generated by graphviz version 2.43.0 (0)
 -->
<!-- Title: G Pages: 1 -->
<svg width="430pt" height="378pt"
 viewBox="0.00 0.00 429.87 378.00" xmlns="http://www.w3.org/2000/svg" xmlns:xlink="http://www.w3.org/1999/xlink">
<g id="graph0" class="graph" transform="scale(1 1) rotate(0) translate(4 374)">
<title>G</title>
<polygon fill="transparent" stroke="transparent" points="-4,4 -4,-374 425.87,-374 425.87,4 -4,4"/>
<!-- 1f8e319d&#45;9d1c&#45;46cd&#45;85f8&#45;fe2c75cc8984 -->
<g id="node1" class="node">
<title>1f8e319d&#45;9d1c&#45;46cd&#45;85f8&#45;fe2c75cc8984</title>
<polygon fill="none" stroke="black" points="294.3,-210 166.67,-192 294.3,-174 421.93,-192 294.3,-210"/>
<text text-anchor="middle" x="294.3" y="-188.3" font-family="Times,serif" font-size="14.00">Consecutive True &lt; 28</text>
</g>
<!-- 9ab80148&#45;2e27&#45;4f24&#45;b9e5&#45;0ebf2d5ffb05 -->
<g id="node2" class="node">
<title>9ab80148&#45;2e27&#45;4f24&#45;b9e5&#45;0ebf2d5ffb05</title>
<ellipse fill="none" stroke="black" cx="97.3" cy="-105" rx="38.5" ry="18"/>
<text text-anchor="middle" x="97.3" y="-101.3" font-family="Times,serif" font-size="14.00">ConstYaw</text>
</g>
<!-- 1f8e319d&#45;9d1c&#45;46cd&#45;85f8&#45;fe2c75cc8984&#45;&gt;9ab80148&#45;2e27&#45;4f24&#45;b9e5&#45;0ebf2d5ffb05 -->
<g id="edge4" class="edge">
<title>1f8e319d&#45;9d1c&#45;46cd&#45;85f8&#45;fe2c75cc8984&#45;&gt;9ab80148&#45;2e27&#45;4f24&#45;b9e5&#45;0ebf2d5ffb05</title>
<path fill="none" stroke="black" d="M264.38,-178.09C229.5,-163.04 171.85,-138.16 134.22,-121.93"/>
<polygon fill="black" stroke="black" points="135.21,-118.54 124.64,-117.8 132.44,-124.97 135.21,-118.54"/>
<text text-anchor="middle" x="225.3" y="-144.8" font-family="Times,serif" font-size="14.00">True</text>
</g>
<!-- 63206a66&#45;11f5&#45;46e6&#45;be82&#45;08b1eb567bf2 -->
<g id="node6" class="node">
<title>63206a66&#45;11f5&#45;46e6&#45;be82&#45;08b1eb567bf2</title>
<ellipse fill="none" stroke="black" cx="294.3" cy="-105" rx="59.9" ry="18"/>
<text text-anchor="middle" x="294.3" y="-101.3" font-family="Times,serif" font-size="14.00">ZeroMovement</text>
</g>
<!-- 1f8e319d&#45;9d1c&#45;46cd&#45;85f8&#45;fe2c75cc8984&#45;&gt;63206a66&#45;11f5&#45;46e6&#45;be82&#45;08b1eb567bf2 -->
<g id="edge5" class="edge">
<title>1f8e319d&#45;9d1c&#45;46cd&#45;85f8&#45;fe2c75cc8984&#45;&gt;63206a66&#45;11f5&#45;46e6&#45;be82&#45;08b1eb567bf2</title>
<path fill="none" stroke="black" d="M294.3,-173.8C294.3,-162.16 294.3,-146.55 294.3,-133.24"/>
<polygon fill="black" stroke="black" points="297.8,-133.18 294.3,-123.18 290.8,-133.18 297.8,-133.18"/>
<text text-anchor="middle" x="313.3" y="-144.8" font-family="Times,serif" font-size="14.00">False</text>
</g>
<!-- 81b25ce7&#45;22e7&#45;4d89&#45;9e1b&#45;642166a37859 -->
<g id="node3" class="node">
<title>81b25ce7&#45;22e7&#45;4d89&#45;9e1b&#45;642166a37859</title>
<ellipse fill="none" stroke="black" cx="97.3" cy="-18" rx="80.11" ry="18"/>
<text text-anchor="middle" x="97.3" y="-14.3" font-family="Times,serif" font-size="14.00">Stability2Movement</text>
</g>
<!-- 9ab80148&#45;2e27&#45;4f24&#45;b9e5&#45;0ebf2d5ffb05&#45;&gt;81b25ce7&#45;22e7&#45;4d89&#45;9e1b&#45;642166a37859 -->
<g id="edge1" class="edge">
<title>9ab80148&#45;2e27&#45;4f24&#45;b9e5&#45;0ebf2d5ffb05&#45;&gt;81b25ce7&#45;22e7&#45;4d89&#45;9e1b&#45;642166a37859</title>
<path fill="none" stroke="purple" d="M97.3,-86.8C97.3,-75.16 97.3,-59.55 97.3,-46.24"/>
<polygon fill="purple" stroke="purple" points="100.8,-46.18 97.3,-36.18 93.8,-46.18 100.8,-46.18"/>
<text text-anchor="middle" x="132.8" y="-57.8" font-family="Times,serif" font-size="14.00" fill="purple">Pass Data</text>
</g>
<!-- a29aa37d&#45;eaf7&#45;4f6c&#45;ba03&#45;e740bf7ce1fc -->
<g id="node4" class="node">
<title>a29aa37d&#45;eaf7&#45;4f6c&#45;ba03&#45;e740bf7ce1fc</title>
<ellipse fill="none" stroke="black" cx="294.3" cy="-279" rx="46.4" ry="18"/>
<text text-anchor="middle" x="294.3" y="-275.3" font-family="Times,serif" font-size="14.00">AlwaysTrue</text>
</g>
<!-- a29aa37d&#45;eaf7&#45;4f6c&#45;ba03&#45;e740bf7ce1fc&#45;&gt;1f8e319d&#45;9d1c&#45;46cd&#45;85f8&#45;fe2c75cc8984 -->
<g id="edge2" class="edge">
<title>a29aa37d&#45;eaf7&#45;4f6c&#45;ba03&#45;e740bf7ce1fc&#45;&gt;1f8e319d&#45;9d1c&#45;46cd&#45;85f8&#45;fe2c75cc8984</title>
<path fill="none" stroke="purple" d="M294.3,-260.8C294.3,-249.16 294.3,-233.55 294.3,-220.24"/>
<polygon fill="purple" stroke="purple" points="297.8,-220.18 294.3,-210.18 290.8,-220.18 297.8,-220.18"/>
<text text-anchor="middle" x="329.8" y="-231.8" font-family="Times,serif" font-size="14.00" fill="purple">Pass Data</text>
</g>
<!-- 20fe3373&#45;8940&#45;400a&#45;a4db&#45;036a1e5282df -->
<g id="node5" class="node">
<title>20fe3373&#45;8940&#45;400a&#45;a4db&#45;036a1e5282df</title>
<ellipse fill="none" stroke="black" cx="294.3" cy="-352" rx="47.1" ry="18"/>
<text text-anchor="middle" x="294.3" y="-348.3" font-family="Times,serif" font-size="14.00">DelayAction</text>
</g>
<!-- 20fe3373&#45;8940&#45;400a&#45;a4db&#45;036a1e5282df&#45;&gt;a29aa37d&#45;eaf7&#45;4f6c&#45;ba03&#45;e740bf7ce1fc -->
<g id="edge3" class="edge">
<title>20fe3373&#45;8940&#45;400a&#45;a4db&#45;036a1e5282df&#45;&gt;a29aa37d&#45;eaf7&#45;4f6c&#45;ba03&#45;e740bf7ce1fc</title>
<path fill="none" stroke="black" d="M294.3,-333.81C294.3,-325.79 294.3,-316.05 294.3,-307.07"/>
<polygon fill="black" stroke="black" points="297.8,-307.03 294.3,-297.03 290.8,-307.03 297.8,-307.03"/>
</g>
<!-- fcc28409&#45;ac41&#45;42ca&#45;beff&#45;91dd0c3e1a31 -->
<g id="node7" class="node">
<title>fcc28409&#45;ac41&#45;42ca&#45;beff&#45;91dd0c3e1a31</title>
<ellipse fill="none" stroke="black" cx="47.3" cy="-192" rx="47.1" ry="18"/>
<text text-anchor="middle" x="47.3" y="-188.3" font-family="Times,serif" font-size="14.00">DelayAction</text>
</g>
<!-- fcc28409&#45;ac41&#45;42ca&#45;beff&#45;91dd0c3e1a31&#45;&gt;9ab80148&#45;2e27&#45;4f24&#45;b9e5&#45;0ebf2d5ffb05 -->
<g id="edge6" class="edge">
<title>fcc28409&#45;ac41&#45;42ca&#45;beff&#45;91dd0c3e1a31&#45;&gt;9ab80148&#45;2e27&#45;4f24&#45;b9e5&#45;0ebf2d5ffb05</title>
<path fill="none" stroke="black" d="M57.18,-174.21C64.42,-161.9 74.36,-145 82.54,-131.09"/>
<polygon fill="black" stroke="black" points="85.56,-132.86 87.61,-122.47 79.53,-129.31 85.56,-132.86"/>
</g>
<!-- 3cf777df&#45;fae8&#45;4623&#45;938f&#45;e42a4e4161c2 -->
<g id="node8" class="node">
<title>3cf777df&#45;fae8&#45;4623&#45;938f&#45;e42a4e4161c2</title>
<ellipse fill="none" stroke="black" cx="47.3" cy="-279" rx="33.6" ry="18"/>
<text text-anchor="middle" x="47.3" y="-275.3" font-family="Times,serif" font-size="14.00">Descend</text>
</g>
<!-- 3cf777df&#45;fae8&#45;4623&#45;938f&#45;e42a4e4161c2&#45;&gt;fcc28409&#45;ac41&#45;42ca&#45;beff&#45;91dd0c3e1a31 -->
<g id="edge7" class="edge">
<title>3cf777df&#45;fae8&#45;4623&#45;938f&#45;e42a4e4161c2&#45;&gt;fcc28409&#45;ac41&#45;42ca&#45;beff&#45;91dd0c3e1a31</title>
<path fill="none" stroke="black" d="M47.3,-260.8C47.3,-249.16 47.3,-233.55 47.3,-220.24"/>
<polygon fill="black" stroke="black" points="50.8,-220.18 47.3,-210.18 43.8,-220.18 50.8,-220.18"/>
</g>
</g>
</svg>
