<?xml version="1.0" encoding="UTF-8" standalone="no"?>
<!DOCTYPE svg PUBLIC "-//W3C//DTD SVG 1.1//EN"
 "http://www.w3.org/Graphics/SVG/1.1/DTD/svg11.dtd">
<!-- Generated by graphviz version 2.43.0 (0)
 -->
<!-- Title: G Pages: 1 -->
<svg width="318pt" height="987pt"
 viewBox="0.00 0.00 318.29 987.00" xmlns="http://www.w3.org/2000/svg" xmlns:xlink="http://www.w3.org/1999/xlink">
<g id="graph0" class="graph" transform="scale(1 1) rotate(0) translate(4 983)">
<title>G</title>
<polygon fill="transparent" stroke="transparent" points="-4,4 -4,-983 314.29,-983 314.29,4 -4,4"/>
<!-- ed50a932&#45;cf5c&#45;4b73&#45;9208&#45;587986f32e3c -->
<g id="node1" class="node">
<title>ed50a932&#45;cf5c&#45;4b73&#45;9208&#45;587986f32e3c</title>
<polygon fill="none" stroke="black" points="65.34,-906 0.16,-888 65.34,-870 130.52,-888 65.34,-906"/>
<text text-anchor="middle" x="65.34" y="-884.3" font-family="Times,serif" font-size="14.00">AlwaysTrue</text>
</g>
<!-- f0deb514&#45;397d&#45;4506&#45;9f8a&#45;77f318cb3854 -->
<g id="node11" class="node">
<title>f0deb514&#45;397d&#45;4506&#45;9f8a&#45;77f318cb3854</title>
<ellipse fill="none" stroke="black" cx="103.34" cy="-801" rx="46.5" ry="18"/>
<text text-anchor="middle" x="103.34" y="-797.3" font-family="Times,serif" font-size="14.00">VisionNorm</text>
</g>
<!-- ed50a932&#45;cf5c&#45;4b73&#45;9208&#45;587986f32e3c&#45;&gt;f0deb514&#45;397d&#45;4506&#45;9f8a&#45;77f318cb3854 -->
<g id="edge10" class="edge">
<title>ed50a932&#45;cf5c&#45;4b73&#45;9208&#45;587986f32e3c&#45;&gt;f0deb514&#45;397d&#45;4506&#45;9f8a&#45;77f318cb3854</title>
<path fill="none" stroke="black" d="M72.13,-871.8C77.54,-859.7 85.25,-842.47 91.65,-828.16"/>
<polygon fill="black" stroke="black" points="94.94,-829.37 95.82,-818.81 88.55,-826.51 94.94,-829.37"/>
<text text-anchor="middle" x="104.34" y="-840.8" font-family="Times,serif" font-size="14.00">True</text>
</g>
<!-- 0182e669&#45;1e3d&#45;4d2b&#45;bb21&#45;f9b5d4d139f2 -->
<g id="node2" class="node">
<title>0182e669&#45;1e3d&#45;4d2b&#45;bb21&#45;f9b5d4d139f2</title>
<ellipse fill="none" stroke="black" cx="103.34" cy="-105" rx="27" ry="18"/>
<text text-anchor="middle" x="103.34" y="-101.3" font-family="Times,serif" font-size="14.00">FlatX</text>
</g>
<!-- b05e44e7&#45;6255&#45;49a5&#45;886c&#45;8805bd6b13bb -->
<g id="node3" class="node">
<title>b05e44e7&#45;6255&#45;49a5&#45;886c&#45;8805bd6b13bb</title>
<ellipse fill="none" stroke="black" cx="103.34" cy="-18" rx="80.11" ry="18"/>
<text text-anchor="middle" x="103.34" y="-14.3" font-family="Times,serif" font-size="14.00">Stability2Movement</text>
</g>
<!-- 0182e669&#45;1e3d&#45;4d2b&#45;bb21&#45;f9b5d4d139f2&#45;&gt;b05e44e7&#45;6255&#45;49a5&#45;886c&#45;8805bd6b13bb -->
<g id="edge1" class="edge">
<title>0182e669&#45;1e3d&#45;4d2b&#45;bb21&#45;f9b5d4d139f2&#45;&gt;b05e44e7&#45;6255&#45;49a5&#45;886c&#45;8805bd6b13bb</title>
<path fill="none" stroke="purple" d="M103.34,-86.8C103.34,-75.16 103.34,-59.55 103.34,-46.24"/>
<polygon fill="purple" stroke="purple" points="106.84,-46.18 103.34,-36.18 99.84,-46.18 106.84,-46.18"/>
<text text-anchor="middle" x="138.84" y="-57.8" font-family="Times,serif" font-size="14.00" fill="purple">Pass Data</text>
</g>
<!-- 57632499&#45;42db&#45;4c4f&#45;bb27&#45;f5e22d9aaf80 -->
<g id="node4" class="node">
<title>57632499&#45;42db&#45;4c4f&#45;bb27&#45;f5e22d9aaf80</title>
<ellipse fill="none" stroke="black" cx="103.34" cy="-192" rx="27" ry="18"/>
<text text-anchor="middle" x="103.34" y="-188.3" font-family="Times,serif" font-size="14.00">StripY</text>
</g>
<!-- 57632499&#45;42db&#45;4c4f&#45;bb27&#45;f5e22d9aaf80&#45;&gt;0182e669&#45;1e3d&#45;4d2b&#45;bb21&#45;f9b5d4d139f2 -->
<g id="edge2" class="edge">
<title>57632499&#45;42db&#45;4c4f&#45;bb27&#45;f5e22d9aaf80&#45;&gt;0182e669&#45;1e3d&#45;4d2b&#45;bb21&#45;f9b5d4d139f2</title>
<path fill="none" stroke="purple" d="M103.34,-173.8C103.34,-162.16 103.34,-146.55 103.34,-133.24"/>
<polygon fill="purple" stroke="purple" points="106.84,-133.18 103.34,-123.18 99.84,-133.18 106.84,-133.18"/>
<text text-anchor="middle" x="138.84" y="-144.8" font-family="Times,serif" font-size="14.00" fill="purple">Pass Data</text>
</g>
<!-- 3ee1efbb&#45;59de&#45;4e19&#45;95ad&#45;7285a08ad846 -->
<g id="node5" class="node">
<title>3ee1efbb&#45;59de&#45;4e19&#45;95ad&#45;7285a08ad846</title>
<ellipse fill="none" stroke="black" cx="103.34" cy="-279" rx="52.6" ry="18"/>
<text text-anchor="middle" x="103.34" y="-275.3" font-family="Times,serif" font-size="14.00">Anon Closure</text>
</g>
<!-- 3ee1efbb&#45;59de&#45;4e19&#45;95ad&#45;7285a08ad846&#45;&gt;57632499&#45;42db&#45;4c4f&#45;bb27&#45;f5e22d9aaf80 -->
<g id="edge3" class="edge">
<title>3ee1efbb&#45;59de&#45;4e19&#45;95ad&#45;7285a08ad846&#45;&gt;57632499&#45;42db&#45;4c4f&#45;bb27&#45;f5e22d9aaf80</title>
<path fill="none" stroke="purple" d="M103.34,-260.8C103.34,-249.16 103.34,-233.55 103.34,-220.24"/>
<polygon fill="purple" stroke="purple" points="106.84,-220.18 103.34,-210.18 99.84,-220.18 106.84,-220.18"/>
<text text-anchor="middle" x="138.84" y="-231.8" font-family="Times,serif" font-size="14.00" fill="purple">Pass Data</text>
</g>
<!-- 19e1ac42&#45;a267&#45;4a51&#45;8326&#45;d121f4b5a66c -->
<g id="node6" class="node">
<title>19e1ac42&#45;a267&#45;4a51&#45;8326&#45;d121f4b5a66c</title>
<ellipse fill="none" stroke="black" cx="103.34" cy="-366" rx="51.3" ry="18"/>
<text text-anchor="middle" x="103.34" y="-362.3" font-family="Times,serif" font-size="14.00">OffsetToPose</text>
</g>
<!-- 19e1ac42&#45;a267&#45;4a51&#45;8326&#45;d121f4b5a66c&#45;&gt;3ee1efbb&#45;59de&#45;4e19&#45;95ad&#45;7285a08ad846 -->
<g id="edge4" class="edge">
<title>19e1ac42&#45;a267&#45;4a51&#45;8326&#45;d121f4b5a66c&#45;&gt;3ee1efbb&#45;59de&#45;4e19&#45;95ad&#45;7285a08ad846</title>
<path fill="none" stroke="purple" d="M103.34,-347.8C103.34,-336.16 103.34,-320.55 103.34,-307.24"/>
<polygon fill="purple" stroke="purple" points="106.84,-307.18 103.34,-297.18 99.84,-307.18 106.84,-307.18"/>
<text text-anchor="middle" x="138.84" y="-318.8" font-family="Times,serif" font-size="14.00" fill="purple">Pass Data</text>
</g>
<!-- bab9dabd&#45;224d&#45;4104&#45;9788&#45;e7ef7ea6bec0 -->
<g id="node7" class="node">
<title>bab9dabd&#45;224d&#45;4104&#45;9788&#45;e7ef7ea6bec0</title>
<ellipse fill="none" stroke="black" cx="103.34" cy="-453" rx="32.4" ry="18"/>
<text text-anchor="middle" x="103.34" y="-449.3" font-family="Times,serif" font-size="14.00">Average</text>
</g>
<!-- bab9dabd&#45;224d&#45;4104&#45;9788&#45;e7ef7ea6bec0&#45;&gt;19e1ac42&#45;a267&#45;4a51&#45;8326&#45;d121f4b5a66c -->
<g id="edge5" class="edge">
<title>bab9dabd&#45;224d&#45;4104&#45;9788&#45;e7ef7ea6bec0&#45;&gt;19e1ac42&#45;a267&#45;4a51&#45;8326&#45;d121f4b5a66c</title>
<path fill="none" stroke="purple" d="M103.34,-434.8C103.34,-423.16 103.34,-407.55 103.34,-394.24"/>
<polygon fill="purple" stroke="purple" points="106.84,-394.18 103.34,-384.18 99.84,-394.18 106.84,-394.18"/>
<text text-anchor="middle" x="138.84" y="-405.8" font-family="Times,serif" font-size="14.00" fill="purple">Pass Data</text>
</g>
<!-- 8bb5f6e7&#45;9736&#45;4781&#45;bfef&#45;110dff29f0a3 -->
<g id="node8" class="node">
<title>8bb5f6e7&#45;9736&#45;4781&#45;bfef&#45;110dff29f0a3</title>
<ellipse fill="none" stroke="black" cx="103.34" cy="-540" rx="61.1" ry="18"/>
<text text-anchor="middle" x="103.34" y="-536.3" font-family="Times,serif" font-size="14.00">ExtractPosition</text>
</g>
<!-- 8bb5f6e7&#45;9736&#45;4781&#45;bfef&#45;110dff29f0a3&#45;&gt;bab9dabd&#45;224d&#45;4104&#45;9788&#45;e7ef7ea6bec0 -->
<g id="edge6" class="edge">
<title>8bb5f6e7&#45;9736&#45;4781&#45;bfef&#45;110dff29f0a3&#45;&gt;bab9dabd&#45;224d&#45;4104&#45;9788&#45;e7ef7ea6bec0</title>
<path fill="none" stroke="purple" d="M103.34,-521.8C103.34,-510.16 103.34,-494.55 103.34,-481.24"/>
<polygon fill="purple" stroke="purple" points="106.84,-481.18 103.34,-471.18 99.84,-481.18 106.84,-481.18"/>
<text text-anchor="middle" x="138.84" y="-492.8" font-family="Times,serif" font-size="14.00" fill="purple">Pass Data</text>
</g>
<!-- 884a5316&#45;974e&#45;4d7c&#45;9294&#45;d48779a3b294 -->
<g id="node9" class="node">
<title>884a5316&#45;974e&#45;4d7c&#45;9294&#45;d48779a3b294</title>
<ellipse fill="none" stroke="black" cx="103.34" cy="-627" rx="27" ry="18"/>
<text text-anchor="middle" x="103.34" y="-623.3" font-family="Times,serif" font-size="14.00">ToVec</text>
</g>
<!-- 884a5316&#45;974e&#45;4d7c&#45;9294&#45;d48779a3b294&#45;&gt;8bb5f6e7&#45;9736&#45;4781&#45;bfef&#45;110dff29f0a3 -->
<g id="edge7" class="edge">
<title>884a5316&#45;974e&#45;4d7c&#45;9294&#45;d48779a3b294&#45;&gt;8bb5f6e7&#45;9736&#45;4781&#45;bfef&#45;110dff29f0a3</title>
<path fill="none" stroke="purple" d="M103.34,-608.8C103.34,-597.16 103.34,-581.55 103.34,-568.24"/>
<polygon fill="purple" stroke="purple" points="106.84,-568.18 103.34,-558.18 99.84,-568.18 106.84,-568.18"/>
<text text-anchor="middle" x="138.84" y="-579.8" font-family="Times,serif" font-size="14.00" fill="purple">Pass Data</text>
</g>
<!-- ddf65349&#45;ae45&#45;4305&#45;83c9&#45;793f4092f33e -->
<g id="node10" class="node">
<title>ddf65349&#45;ae45&#45;4305&#45;83c9&#45;793f4092f33e</title>
<ellipse fill="none" stroke="black" cx="103.34" cy="-714" rx="45.2" ry="18"/>
<text text-anchor="middle" x="103.34" y="-710.3" font-family="Times,serif" font-size="14.00">Detect true</text>
</g>
<!-- ddf65349&#45;ae45&#45;4305&#45;83c9&#45;793f4092f33e&#45;&gt;884a5316&#45;974e&#45;4d7c&#45;9294&#45;d48779a3b294 -->
<g id="edge8" class="edge">
<title>ddf65349&#45;ae45&#45;4305&#45;83c9&#45;793f4092f33e&#45;&gt;884a5316&#45;974e&#45;4d7c&#45;9294&#45;d48779a3b294</title>
<path fill="none" stroke="purple" d="M103.34,-695.8C103.34,-684.16 103.34,-668.55 103.34,-655.24"/>
<polygon fill="purple" stroke="purple" points="106.84,-655.18 103.34,-645.18 99.84,-655.18 106.84,-655.18"/>
<text text-anchor="middle" x="138.84" y="-666.8" font-family="Times,serif" font-size="14.00" fill="purple">Pass Data</text>
</g>
<!-- f0deb514&#45;397d&#45;4506&#45;9f8a&#45;77f318cb3854&#45;&gt;ddf65349&#45;ae45&#45;4305&#45;83c9&#45;793f4092f33e -->
<g id="edge9" class="edge">
<title>f0deb514&#45;397d&#45;4506&#45;9f8a&#45;77f318cb3854&#45;&gt;ddf65349&#45;ae45&#45;4305&#45;83c9&#45;793f4092f33e</title>
<path fill="none" stroke="purple" d="M103.34,-782.8C103.34,-771.16 103.34,-755.55 103.34,-742.24"/>
<polygon fill="purple" stroke="purple" points="106.84,-742.18 103.34,-732.18 99.84,-742.18 106.84,-742.18"/>
<text text-anchor="middle" x="138.84" y="-753.8" font-family="Times,serif" font-size="14.00" fill="purple">Pass Data</text>
</g>
<!-- a3c6507a&#45;d9df&#45;4c45&#45;937a&#45;42b9a9e929e7 -->
<g id="node12" class="node">
<title>a3c6507a&#45;d9df&#45;4c45&#45;937a&#45;42b9a9e929e7</title>
<ellipse fill="none" stroke="black" cx="250.34" cy="-888" rx="47.1" ry="18"/>
<text text-anchor="middle" x="250.34" y="-884.3" font-family="Times,serif" font-size="14.00">DelayAction</text>
</g>
<!-- a3c6507a&#45;d9df&#45;4c45&#45;937a&#45;42b9a9e929e7&#45;&gt;f0deb514&#45;397d&#45;4506&#45;9f8a&#45;77f318cb3854 -->
<g id="edge11" class="edge">
<title>a3c6507a&#45;d9df&#45;4c45&#45;937a&#45;42b9a9e929e7&#45;&gt;f0deb514&#45;397d&#45;4506&#45;9f8a&#45;77f318cb3854</title>
<path fill="none" stroke="black" d="M225.4,-872.58C201.12,-858.54 164.03,-837.09 137.1,-821.52"/>
<polygon fill="black" stroke="black" points="138.81,-818.47 128.4,-816.49 135.3,-824.53 138.81,-818.47"/>
</g>
<!-- 87a3b4a2&#45;f5fb&#45;410a&#45;bf92&#45;a281cb519668 -->
<g id="node13" class="node">
<title>87a3b4a2&#45;f5fb&#45;410a&#45;bf92&#45;a281cb519668</title>
<ellipse fill="none" stroke="black" cx="250.34" cy="-961" rx="59.9" ry="18"/>
<text text-anchor="middle" x="250.34" y="-957.3" font-family="Times,serif" font-size="14.00">ZeroMovement</text>
</g>
<!-- 87a3b4a2&#45;f5fb&#45;410a&#45;bf92&#45;a281cb519668&#45;&gt;a3c6507a&#45;d9df&#45;4c45&#45;937a&#45;42b9a9e929e7 -->
<g id="edge12" class="edge">
<title>87a3b4a2&#45;f5fb&#45;410a&#45;bf92&#45;a281cb519668&#45;&gt;a3c6507a&#45;d9df&#45;4c45&#45;937a&#45;42b9a9e929e7</title>
<path fill="none" stroke="black" d="M250.34,-942.81C250.34,-934.79 250.34,-925.05 250.34,-916.07"/>
<polygon fill="black" stroke="black" points="253.84,-916.03 250.34,-906.03 246.84,-916.03 253.84,-916.03"/>
</g>
</g>
</svg>
