<?xml version="1.0" encoding="UTF-8" standalone="no"?>
<!DOCTYPE svg PUBLIC "-//W3C//DTD SVG 1.1//EN"
 "http://www.w3.org/Graphics/SVG/1.1/DTD/svg11.dtd">
<!-- Generated by graphviz version 2.43.0 (0)
 -->
<!-- Title: G Pages: 1 -->
<svg width="318pt" height="987pt"
 viewBox="0.00 0.00 318.29 987.00" xmlns="http://www.w3.org/2000/svg" xmlns:xlink="http://www.w3.org/1999/xlink">
<g id="graph0" class="graph" transform="scale(1 1) rotate(0) translate(4 983)">
<title>G</title>
<polygon fill="transparent" stroke="transparent" points="-4,4 -4,-983 314.29,-983 314.29,4 -4,4"/>
<!-- 41ad4b6b&#45;66d0&#45;4165&#45;ab8f&#45;1d5b3959b46b -->
<g id="node1" class="node">
<title>41ad4b6b&#45;66d0&#45;4165&#45;ab8f&#45;1d5b3959b46b</title>
<polygon fill="none" stroke="black" points="65.34,-906 0.16,-888 65.34,-870 130.52,-888 65.34,-906"/>
<text text-anchor="middle" x="65.34" y="-884.3" font-family="Times,serif" font-size="14.00">AlwaysTrue</text>
</g>
<!-- 39283146&#45;1885&#45;4ad9&#45;9956&#45;b0b16d43640d -->
<g id="node11" class="node">
<title>39283146&#45;1885&#45;4ad9&#45;9956&#45;b0b16d43640d</title>
<ellipse fill="none" stroke="black" cx="103.34" cy="-801" rx="46.5" ry="18"/>
<text text-anchor="middle" x="103.34" y="-797.3" font-family="Times,serif" font-size="14.00">VisionNorm</text>
</g>
<!-- 41ad4b6b&#45;66d0&#45;4165&#45;ab8f&#45;1d5b3959b46b&#45;&gt;39283146&#45;1885&#45;4ad9&#45;9956&#45;b0b16d43640d -->
<g id="edge10" class="edge">
<title>41ad4b6b&#45;66d0&#45;4165&#45;ab8f&#45;1d5b3959b46b&#45;&gt;39283146&#45;1885&#45;4ad9&#45;9956&#45;b0b16d43640d</title>
<path fill="none" stroke="black" d="M72.13,-871.8C77.54,-859.7 85.25,-842.47 91.65,-828.16"/>
<polygon fill="black" stroke="black" points="94.94,-829.37 95.82,-818.81 88.55,-826.51 94.94,-829.37"/>
<text text-anchor="middle" x="104.34" y="-840.8" font-family="Times,serif" font-size="14.00">True</text>
</g>
<!-- 85cdc4bb&#45;973a&#45;4e91&#45;b26a&#45;1de6f8f0a5dd -->
<g id="node2" class="node">
<title>85cdc4bb&#45;973a&#45;4e91&#45;b26a&#45;1de6f8f0a5dd</title>
<ellipse fill="none" stroke="black" cx="103.34" cy="-105" rx="27" ry="18"/>
<text text-anchor="middle" x="103.34" y="-101.3" font-family="Times,serif" font-size="14.00">FlatX</text>
</g>
<!-- 2624d42d&#45;6ac5&#45;4e75&#45;b8fd&#45;16be444b7d41 -->
<g id="node3" class="node">
<title>2624d42d&#45;6ac5&#45;4e75&#45;b8fd&#45;16be444b7d41</title>
<ellipse fill="none" stroke="black" cx="103.34" cy="-18" rx="80.11" ry="18"/>
<text text-anchor="middle" x="103.34" y="-14.3" font-family="Times,serif" font-size="14.00">Stability2Movement</text>
</g>
<!-- 85cdc4bb&#45;973a&#45;4e91&#45;b26a&#45;1de6f8f0a5dd&#45;&gt;2624d42d&#45;6ac5&#45;4e75&#45;b8fd&#45;16be444b7d41 -->
<g id="edge1" class="edge">
<title>85cdc4bb&#45;973a&#45;4e91&#45;b26a&#45;1de6f8f0a5dd&#45;&gt;2624d42d&#45;6ac5&#45;4e75&#45;b8fd&#45;16be444b7d41</title>
<path fill="none" stroke="purple" d="M103.34,-86.8C103.34,-75.16 103.34,-59.55 103.34,-46.24"/>
<polygon fill="purple" stroke="purple" points="106.84,-46.18 103.34,-36.18 99.84,-46.18 106.84,-46.18"/>
<text text-anchor="middle" x="138.84" y="-57.8" font-family="Times,serif" font-size="14.00" fill="purple">Pass Data</text>
</g>
<!-- bf9803ad&#45;9342&#45;4ac6&#45;a109&#45;ecaff5716314 -->
<g id="node4" class="node">
<title>bf9803ad&#45;9342&#45;4ac6&#45;a109&#45;ecaff5716314</title>
<ellipse fill="none" stroke="black" cx="103.34" cy="-192" rx="27" ry="18"/>
<text text-anchor="middle" x="103.34" y="-188.3" font-family="Times,serif" font-size="14.00">StripY</text>
</g>
<!-- bf9803ad&#45;9342&#45;4ac6&#45;a109&#45;ecaff5716314&#45;&gt;85cdc4bb&#45;973a&#45;4e91&#45;b26a&#45;1de6f8f0a5dd -->
<g id="edge2" class="edge">
<title>bf9803ad&#45;9342&#45;4ac6&#45;a109&#45;ecaff5716314&#45;&gt;85cdc4bb&#45;973a&#45;4e91&#45;b26a&#45;1de6f8f0a5dd</title>
<path fill="none" stroke="purple" d="M103.34,-173.8C103.34,-162.16 103.34,-146.55 103.34,-133.24"/>
<polygon fill="purple" stroke="purple" points="106.84,-133.18 103.34,-123.18 99.84,-133.18 106.84,-133.18"/>
<text text-anchor="middle" x="138.84" y="-144.8" font-family="Times,serif" font-size="14.00" fill="purple">Pass Data</text>
</g>
<!-- d8426407&#45;76b7&#45;4ced&#45;9ffc&#45;f080cf51c0f5 -->
<g id="node5" class="node">
<title>d8426407&#45;76b7&#45;4ced&#45;9ffc&#45;f080cf51c0f5</title>
<ellipse fill="none" stroke="black" cx="103.34" cy="-279" rx="52.6" ry="18"/>
<text text-anchor="middle" x="103.34" y="-275.3" font-family="Times,serif" font-size="14.00">Anon Closure</text>
</g>
<!-- d8426407&#45;76b7&#45;4ced&#45;9ffc&#45;f080cf51c0f5&#45;&gt;bf9803ad&#45;9342&#45;4ac6&#45;a109&#45;ecaff5716314 -->
<g id="edge3" class="edge">
<title>d8426407&#45;76b7&#45;4ced&#45;9ffc&#45;f080cf51c0f5&#45;&gt;bf9803ad&#45;9342&#45;4ac6&#45;a109&#45;ecaff5716314</title>
<path fill="none" stroke="purple" d="M103.34,-260.8C103.34,-249.16 103.34,-233.55 103.34,-220.24"/>
<polygon fill="purple" stroke="purple" points="106.84,-220.18 103.34,-210.18 99.84,-220.18 106.84,-220.18"/>
<text text-anchor="middle" x="138.84" y="-231.8" font-family="Times,serif" font-size="14.00" fill="purple">Pass Data</text>
</g>
<!-- 97891814&#45;7e6d&#45;4e2a&#45;bbbe&#45;7ef09b11c613 -->
<g id="node6" class="node">
<title>97891814&#45;7e6d&#45;4e2a&#45;bbbe&#45;7ef09b11c613</title>
<ellipse fill="none" stroke="black" cx="103.34" cy="-366" rx="51.3" ry="18"/>
<text text-anchor="middle" x="103.34" y="-362.3" font-family="Times,serif" font-size="14.00">OffsetToPose</text>
</g>
<!-- 97891814&#45;7e6d&#45;4e2a&#45;bbbe&#45;7ef09b11c613&#45;&gt;d8426407&#45;76b7&#45;4ced&#45;9ffc&#45;f080cf51c0f5 -->
<g id="edge4" class="edge">
<title>97891814&#45;7e6d&#45;4e2a&#45;bbbe&#45;7ef09b11c613&#45;&gt;d8426407&#45;76b7&#45;4ced&#45;9ffc&#45;f080cf51c0f5</title>
<path fill="none" stroke="purple" d="M103.34,-347.8C103.34,-336.16 103.34,-320.55 103.34,-307.24"/>
<polygon fill="purple" stroke="purple" points="106.84,-307.18 103.34,-297.18 99.84,-307.18 106.84,-307.18"/>
<text text-anchor="middle" x="138.84" y="-318.8" font-family="Times,serif" font-size="14.00" fill="purple">Pass Data</text>
</g>
<!-- ba6320d3&#45;37e8&#45;4e04&#45;9ca1&#45;e46445b24013 -->
<g id="node7" class="node">
<title>ba6320d3&#45;37e8&#45;4e04&#45;9ca1&#45;e46445b24013</title>
<ellipse fill="none" stroke="black" cx="103.34" cy="-453" rx="32.4" ry="18"/>
<text text-anchor="middle" x="103.34" y="-449.3" font-family="Times,serif" font-size="14.00">Average</text>
</g>
<!-- ba6320d3&#45;37e8&#45;4e04&#45;9ca1&#45;e46445b24013&#45;&gt;97891814&#45;7e6d&#45;4e2a&#45;bbbe&#45;7ef09b11c613 -->
<g id="edge5" class="edge">
<title>ba6320d3&#45;37e8&#45;4e04&#45;9ca1&#45;e46445b24013&#45;&gt;97891814&#45;7e6d&#45;4e2a&#45;bbbe&#45;7ef09b11c613</title>
<path fill="none" stroke="purple" d="M103.34,-434.8C103.34,-423.16 103.34,-407.55 103.34,-394.24"/>
<polygon fill="purple" stroke="purple" points="106.84,-394.18 103.34,-384.18 99.84,-394.18 106.84,-394.18"/>
<text text-anchor="middle" x="138.84" y="-405.8" font-family="Times,serif" font-size="14.00" fill="purple">Pass Data</text>
</g>
<!-- 81166329&#45;3b4f&#45;43bb&#45;9aee&#45;36a130878f87 -->
<g id="node8" class="node">
<title>81166329&#45;3b4f&#45;43bb&#45;9aee&#45;36a130878f87</title>
<ellipse fill="none" stroke="black" cx="103.34" cy="-540" rx="61.1" ry="18"/>
<text text-anchor="middle" x="103.34" y="-536.3" font-family="Times,serif" font-size="14.00">ExtractPosition</text>
</g>
<!-- 81166329&#45;3b4f&#45;43bb&#45;9aee&#45;36a130878f87&#45;&gt;ba6320d3&#45;37e8&#45;4e04&#45;9ca1&#45;e46445b24013 -->
<g id="edge6" class="edge">
<title>81166329&#45;3b4f&#45;43bb&#45;9aee&#45;36a130878f87&#45;&gt;ba6320d3&#45;37e8&#45;4e04&#45;9ca1&#45;e46445b24013</title>
<path fill="none" stroke="purple" d="M103.34,-521.8C103.34,-510.16 103.34,-494.55 103.34,-481.24"/>
<polygon fill="purple" stroke="purple" points="106.84,-481.18 103.34,-471.18 99.84,-481.18 106.84,-481.18"/>
<text text-anchor="middle" x="138.84" y="-492.8" font-family="Times,serif" font-size="14.00" fill="purple">Pass Data</text>
</g>
<!-- 58497310&#45;48d7&#45;417c&#45;8ae5&#45;65aa88e67608 -->
<g id="node9" class="node">
<title>58497310&#45;48d7&#45;417c&#45;8ae5&#45;65aa88e67608</title>
<ellipse fill="none" stroke="black" cx="103.34" cy="-627" rx="27" ry="18"/>
<text text-anchor="middle" x="103.34" y="-623.3" font-family="Times,serif" font-size="14.00">ToVec</text>
</g>
<!-- 58497310&#45;48d7&#45;417c&#45;8ae5&#45;65aa88e67608&#45;&gt;81166329&#45;3b4f&#45;43bb&#45;9aee&#45;36a130878f87 -->
<g id="edge7" class="edge">
<title>58497310&#45;48d7&#45;417c&#45;8ae5&#45;65aa88e67608&#45;&gt;81166329&#45;3b4f&#45;43bb&#45;9aee&#45;36a130878f87</title>
<path fill="none" stroke="purple" d="M103.34,-608.8C103.34,-597.16 103.34,-581.55 103.34,-568.24"/>
<polygon fill="purple" stroke="purple" points="106.84,-568.18 103.34,-558.18 99.84,-568.18 106.84,-568.18"/>
<text text-anchor="middle" x="138.84" y="-579.8" font-family="Times,serif" font-size="14.00" fill="purple">Pass Data</text>
</g>
<!-- aaa12121&#45;df00&#45;4bb1&#45;a5ba&#45;3d178a0735c5 -->
<g id="node10" class="node">
<title>aaa12121&#45;df00&#45;4bb1&#45;a5ba&#45;3d178a0735c5</title>
<ellipse fill="none" stroke="black" cx="103.34" cy="-714" rx="45.2" ry="18"/>
<text text-anchor="middle" x="103.34" y="-710.3" font-family="Times,serif" font-size="14.00">Detect true</text>
</g>
<!-- aaa12121&#45;df00&#45;4bb1&#45;a5ba&#45;3d178a0735c5&#45;&gt;58497310&#45;48d7&#45;417c&#45;8ae5&#45;65aa88e67608 -->
<g id="edge8" class="edge">
<title>aaa12121&#45;df00&#45;4bb1&#45;a5ba&#45;3d178a0735c5&#45;&gt;58497310&#45;48d7&#45;417c&#45;8ae5&#45;65aa88e67608</title>
<path fill="none" stroke="purple" d="M103.34,-695.8C103.34,-684.16 103.34,-668.55 103.34,-655.24"/>
<polygon fill="purple" stroke="purple" points="106.84,-655.18 103.34,-645.18 99.84,-655.18 106.84,-655.18"/>
<text text-anchor="middle" x="138.84" y="-666.8" font-family="Times,serif" font-size="14.00" fill="purple">Pass Data</text>
</g>
<!-- 39283146&#45;1885&#45;4ad9&#45;9956&#45;b0b16d43640d&#45;&gt;aaa12121&#45;df00&#45;4bb1&#45;a5ba&#45;3d178a0735c5 -->
<g id="edge9" class="edge">
<title>39283146&#45;1885&#45;4ad9&#45;9956&#45;b0b16d43640d&#45;&gt;aaa12121&#45;df00&#45;4bb1&#45;a5ba&#45;3d178a0735c5</title>
<path fill="none" stroke="purple" d="M103.34,-782.8C103.34,-771.16 103.34,-755.55 103.34,-742.24"/>
<polygon fill="purple" stroke="purple" points="106.84,-742.18 103.34,-732.18 99.84,-742.18 106.84,-742.18"/>
<text text-anchor="middle" x="138.84" y="-753.8" font-family="Times,serif" font-size="14.00" fill="purple">Pass Data</text>
</g>
<!-- 40b99cbf&#45;50be&#45;4745&#45;bc5c&#45;96a4120a18a6 -->
<g id="node12" class="node">
<title>40b99cbf&#45;50be&#45;4745&#45;bc5c&#45;96a4120a18a6</title>
<ellipse fill="none" stroke="black" cx="250.34" cy="-888" rx="47.1" ry="18"/>
<text text-anchor="middle" x="250.34" y="-884.3" font-family="Times,serif" font-size="14.00">DelayAction</text>
</g>
<!-- 40b99cbf&#45;50be&#45;4745&#45;bc5c&#45;96a4120a18a6&#45;&gt;39283146&#45;1885&#45;4ad9&#45;9956&#45;b0b16d43640d -->
<g id="edge11" class="edge">
<title>40b99cbf&#45;50be&#45;4745&#45;bc5c&#45;96a4120a18a6&#45;&gt;39283146&#45;1885&#45;4ad9&#45;9956&#45;b0b16d43640d</title>
<path fill="none" stroke="black" d="M225.4,-872.58C201.12,-858.54 164.03,-837.09 137.1,-821.52"/>
<polygon fill="black" stroke="black" points="138.81,-818.47 128.4,-816.49 135.3,-824.53 138.81,-818.47"/>
</g>
<!-- 726c650e&#45;5002&#45;4a49&#45;9e6d&#45;508982832d4c -->
<g id="node13" class="node">
<title>726c650e&#45;5002&#45;4a49&#45;9e6d&#45;508982832d4c</title>
<ellipse fill="none" stroke="black" cx="250.34" cy="-961" rx="59.9" ry="18"/>
<text text-anchor="middle" x="250.34" y="-957.3" font-family="Times,serif" font-size="14.00">ZeroMovement</text>
</g>
<!-- 726c650e&#45;5002&#45;4a49&#45;9e6d&#45;508982832d4c&#45;&gt;40b99cbf&#45;50be&#45;4745&#45;bc5c&#45;96a4120a18a6 -->
<g id="edge12" class="edge">
<title>726c650e&#45;5002&#45;4a49&#45;9e6d&#45;508982832d4c&#45;&gt;40b99cbf&#45;50be&#45;4745&#45;bc5c&#45;96a4120a18a6</title>
<path fill="none" stroke="black" d="M250.34,-942.81C250.34,-934.79 250.34,-925.05 250.34,-916.07"/>
<polygon fill="black" stroke="black" points="253.84,-916.03 250.34,-906.03 246.84,-916.03 253.84,-916.03"/>
</g>
</g>
</svg>
