<?xml version="1.0" encoding="UTF-8" standalone="no"?>
<!DOCTYPE svg PUBLIC "-//W3C//DTD SVG 1.1//EN"
 "http://www.w3.org/Graphics/SVG/1.1/DTD/svg11.dtd">
<!-- Generated by graphviz version 2.43.0 (0)
 -->
<!-- Title: G Pages: 1 -->
<svg width="430pt" height="378pt"
 viewBox="0.00 0.00 429.87 378.00" xmlns="http://www.w3.org/2000/svg" xmlns:xlink="http://www.w3.org/1999/xlink">
<g id="graph0" class="graph" transform="scale(1 1) rotate(0) translate(4 374)">
<title>G</title>
<polygon fill="transparent" stroke="transparent" points="-4,4 -4,-374 425.87,-374 425.87,4 -4,4"/>
<!-- 4ed037a6&#45;d6cd&#45;41f0&#45;bcb1&#45;3e4b03ecc3d7 -->
<g id="node1" class="node">
<title>4ed037a6&#45;d6cd&#45;41f0&#45;bcb1&#45;3e4b03ecc3d7</title>
<polygon fill="none" stroke="black" points="294.3,-210 166.67,-192 294.3,-174 421.93,-192 294.3,-210"/>
<text text-anchor="middle" x="294.3" y="-188.3" font-family="Times,serif" font-size="14.00">Consecutive True &lt; 28</text>
</g>
<!-- eb21156a&#45;5fc0&#45;48fd&#45;8723&#45;b4d17fc42ff1 -->
<g id="node2" class="node">
<title>eb21156a&#45;5fc0&#45;48fd&#45;8723&#45;b4d17fc42ff1</title>
<ellipse fill="none" stroke="black" cx="97.3" cy="-105" rx="38.5" ry="18"/>
<text text-anchor="middle" x="97.3" y="-101.3" font-family="Times,serif" font-size="14.00">ConstYaw</text>
</g>
<!-- 4ed037a6&#45;d6cd&#45;41f0&#45;bcb1&#45;3e4b03ecc3d7&#45;&gt;eb21156a&#45;5fc0&#45;48fd&#45;8723&#45;b4d17fc42ff1 -->
<g id="edge4" class="edge">
<title>4ed037a6&#45;d6cd&#45;41f0&#45;bcb1&#45;3e4b03ecc3d7&#45;&gt;eb21156a&#45;5fc0&#45;48fd&#45;8723&#45;b4d17fc42ff1</title>
<path fill="none" stroke="black" d="M264.38,-178.09C229.5,-163.04 171.85,-138.16 134.22,-121.93"/>
<polygon fill="black" stroke="black" points="135.21,-118.54 124.64,-117.8 132.44,-124.97 135.21,-118.54"/>
<text text-anchor="middle" x="225.3" y="-144.8" font-family="Times,serif" font-size="14.00">True</text>
</g>
<!-- 82e693c7&#45;3cbc&#45;4014&#45;9f00&#45;5a7bae5144f5 -->
<g id="node6" class="node">
<title>82e693c7&#45;3cbc&#45;4014&#45;9f00&#45;5a7bae5144f5</title>
<ellipse fill="none" stroke="black" cx="294.3" cy="-105" rx="59.9" ry="18"/>
<text text-anchor="middle" x="294.3" y="-101.3" font-family="Times,serif" font-size="14.00">ZeroMovement</text>
</g>
<!-- 4ed037a6&#45;d6cd&#45;41f0&#45;bcb1&#45;3e4b03ecc3d7&#45;&gt;82e693c7&#45;3cbc&#45;4014&#45;9f00&#45;5a7bae5144f5 -->
<g id="edge5" class="edge">
<title>4ed037a6&#45;d6cd&#45;41f0&#45;bcb1&#45;3e4b03ecc3d7&#45;&gt;82e693c7&#45;3cbc&#45;4014&#45;9f00&#45;5a7bae5144f5</title>
<path fill="none" stroke="black" d="M294.3,-173.8C294.3,-162.16 294.3,-146.55 294.3,-133.24"/>
<polygon fill="black" stroke="black" points="297.8,-133.18 294.3,-123.18 290.8,-133.18 297.8,-133.18"/>
<text text-anchor="middle" x="313.3" y="-144.8" font-family="Times,serif" font-size="14.00">False</text>
</g>
<!-- ebb003f3&#45;7a54&#45;4eca&#45;b289&#45;76bcc25681bf -->
<g id="node3" class="node">
<title>ebb003f3&#45;7a54&#45;4eca&#45;b289&#45;76bcc25681bf</title>
<ellipse fill="none" stroke="black" cx="97.3" cy="-18" rx="80.11" ry="18"/>
<text text-anchor="middle" x="97.3" y="-14.3" font-family="Times,serif" font-size="14.00">Stability2Movement</text>
</g>
<!-- eb21156a&#45;5fc0&#45;48fd&#45;8723&#45;b4d17fc42ff1&#45;&gt;ebb003f3&#45;7a54&#45;4eca&#45;b289&#45;76bcc25681bf -->
<g id="edge1" class="edge">
<title>eb21156a&#45;5fc0&#45;48fd&#45;8723&#45;b4d17fc42ff1&#45;&gt;ebb003f3&#45;7a54&#45;4eca&#45;b289&#45;76bcc25681bf</title>
<path fill="none" stroke="purple" d="M97.3,-86.8C97.3,-75.16 97.3,-59.55 97.3,-46.24"/>
<polygon fill="purple" stroke="purple" points="100.8,-46.18 97.3,-36.18 93.8,-46.18 100.8,-46.18"/>
<text text-anchor="middle" x="132.8" y="-57.8" font-family="Times,serif" font-size="14.00" fill="purple">Pass Data</text>
</g>
<!-- 1659280f&#45;135d&#45;42aa&#45;977f&#45;5d9acf8d71be -->
<g id="node4" class="node">
<title>1659280f&#45;135d&#45;42aa&#45;977f&#45;5d9acf8d71be</title>
<ellipse fill="none" stroke="black" cx="294.3" cy="-279" rx="46.4" ry="18"/>
<text text-anchor="middle" x="294.3" y="-275.3" font-family="Times,serif" font-size="14.00">AlwaysTrue</text>
</g>
<!-- 1659280f&#45;135d&#45;42aa&#45;977f&#45;5d9acf8d71be&#45;&gt;4ed037a6&#45;d6cd&#45;41f0&#45;bcb1&#45;3e4b03ecc3d7 -->
<g id="edge2" class="edge">
<title>1659280f&#45;135d&#45;42aa&#45;977f&#45;5d9acf8d71be&#45;&gt;4ed037a6&#45;d6cd&#45;41f0&#45;bcb1&#45;3e4b03ecc3d7</title>
<path fill="none" stroke="purple" d="M294.3,-260.8C294.3,-249.16 294.3,-233.55 294.3,-220.24"/>
<polygon fill="purple" stroke="purple" points="297.8,-220.18 294.3,-210.18 290.8,-220.18 297.8,-220.18"/>
<text text-anchor="middle" x="329.8" y="-231.8" font-family="Times,serif" font-size="14.00" fill="purple">Pass Data</text>
</g>
<!-- c86299cc&#45;d4b9&#45;4032&#45;89fd&#45;44dfa464f4b2 -->
<g id="node5" class="node">
<title>c86299cc&#45;d4b9&#45;4032&#45;89fd&#45;44dfa464f4b2</title>
<ellipse fill="none" stroke="black" cx="294.3" cy="-352" rx="47.1" ry="18"/>
<text text-anchor="middle" x="294.3" y="-348.3" font-family="Times,serif" font-size="14.00">DelayAction</text>
</g>
<!-- c86299cc&#45;d4b9&#45;4032&#45;89fd&#45;44dfa464f4b2&#45;&gt;1659280f&#45;135d&#45;42aa&#45;977f&#45;5d9acf8d71be -->
<g id="edge3" class="edge">
<title>c86299cc&#45;d4b9&#45;4032&#45;89fd&#45;44dfa464f4b2&#45;&gt;1659280f&#45;135d&#45;42aa&#45;977f&#45;5d9acf8d71be</title>
<path fill="none" stroke="black" d="M294.3,-333.81C294.3,-325.79 294.3,-316.05 294.3,-307.07"/>
<polygon fill="black" stroke="black" points="297.8,-307.03 294.3,-297.03 290.8,-307.03 297.8,-307.03"/>
</g>
<!-- 00f0b131&#45;a89b&#45;4272&#45;a475&#45;7a2229cc9950 -->
<g id="node7" class="node">
<title>00f0b131&#45;a89b&#45;4272&#45;a475&#45;7a2229cc9950</title>
<ellipse fill="none" stroke="black" cx="47.3" cy="-192" rx="47.1" ry="18"/>
<text text-anchor="middle" x="47.3" y="-188.3" font-family="Times,serif" font-size="14.00">DelayAction</text>
</g>
<!-- 00f0b131&#45;a89b&#45;4272&#45;a475&#45;7a2229cc9950&#45;&gt;eb21156a&#45;5fc0&#45;48fd&#45;8723&#45;b4d17fc42ff1 -->
<g id="edge6" class="edge">
<title>00f0b131&#45;a89b&#45;4272&#45;a475&#45;7a2229cc9950&#45;&gt;eb21156a&#45;5fc0&#45;48fd&#45;8723&#45;b4d17fc42ff1</title>
<path fill="none" stroke="black" d="M57.18,-174.21C64.42,-161.9 74.36,-145 82.54,-131.09"/>
<polygon fill="black" stroke="black" points="85.56,-132.86 87.61,-122.47 79.53,-129.31 85.56,-132.86"/>
</g>
<!-- ce5669b1&#45;d72b&#45;4bb4&#45;9273&#45;2c7e014ccdf0 -->
<g id="node8" class="node">
<title>ce5669b1&#45;d72b&#45;4bb4&#45;9273&#45;2c7e014ccdf0</title>
<ellipse fill="none" stroke="black" cx="47.3" cy="-279" rx="33.6" ry="18"/>
<text text-anchor="middle" x="47.3" y="-275.3" font-family="Times,serif" font-size="14.00">Descend</text>
</g>
<!-- ce5669b1&#45;d72b&#45;4bb4&#45;9273&#45;2c7e014ccdf0&#45;&gt;00f0b131&#45;a89b&#45;4272&#45;a475&#45;7a2229cc9950 -->
<g id="edge7" class="edge">
<title>ce5669b1&#45;d72b&#45;4bb4&#45;9273&#45;2c7e014ccdf0&#45;&gt;00f0b131&#45;a89b&#45;4272&#45;a475&#45;7a2229cc9950</title>
<path fill="none" stroke="black" d="M47.3,-260.8C47.3,-249.16 47.3,-233.55 47.3,-220.24"/>
<polygon fill="black" stroke="black" points="50.8,-220.18 47.3,-210.18 43.8,-220.18 50.8,-220.18"/>
</g>
</g>
</svg>
