<?xml version="1.0" encoding="UTF-8" standalone="no"?>
<!DOCTYPE svg PUBLIC "-//W3C//DTD SVG 1.1//EN"
 "http://www.w3.org/Graphics/SVG/1.1/DTD/svg11.dtd">
<!-- Generated by graphviz version 2.43.0 (0)
 -->
<!-- Title: G Pages: 1 -->
<svg width="318pt" height="987pt"
 viewBox="0.00 0.00 318.29 987.00" xmlns="http://www.w3.org/2000/svg" xmlns:xlink="http://www.w3.org/1999/xlink">
<g id="graph0" class="graph" transform="scale(1 1) rotate(0) translate(4 983)">
<title>G</title>
<polygon fill="transparent" stroke="transparent" points="-4,4 -4,-983 314.29,-983 314.29,4 -4,4"/>
<!-- da1f00e9&#45;6c02&#45;4236&#45;bac3&#45;62b75038369e -->
<g id="node1" class="node">
<title>da1f00e9&#45;6c02&#45;4236&#45;bac3&#45;62b75038369e</title>
<polygon fill="none" stroke="black" points="65.34,-906 0.16,-888 65.34,-870 130.52,-888 65.34,-906"/>
<text text-anchor="middle" x="65.34" y="-884.3" font-family="Times,serif" font-size="14.00">AlwaysTrue</text>
</g>
<!-- c0c4c0ca&#45;b325&#45;43d2&#45;9a9d&#45;5ca06f9b8062 -->
<g id="node11" class="node">
<title>c0c4c0ca&#45;b325&#45;43d2&#45;9a9d&#45;5ca06f9b8062</title>
<ellipse fill="none" stroke="black" cx="103.34" cy="-801" rx="46.5" ry="18"/>
<text text-anchor="middle" x="103.34" y="-797.3" font-family="Times,serif" font-size="14.00">VisionNorm</text>
</g>
<!-- da1f00e9&#45;6c02&#45;4236&#45;bac3&#45;62b75038369e&#45;&gt;c0c4c0ca&#45;b325&#45;43d2&#45;9a9d&#45;5ca06f9b8062 -->
<g id="edge10" class="edge">
<title>da1f00e9&#45;6c02&#45;4236&#45;bac3&#45;62b75038369e&#45;&gt;c0c4c0ca&#45;b325&#45;43d2&#45;9a9d&#45;5ca06f9b8062</title>
<path fill="none" stroke="black" d="M72.13,-871.8C77.54,-859.7 85.25,-842.47 91.65,-828.16"/>
<polygon fill="black" stroke="black" points="94.94,-829.37 95.82,-818.81 88.55,-826.51 94.94,-829.37"/>
<text text-anchor="middle" x="104.34" y="-840.8" font-family="Times,serif" font-size="14.00">True</text>
</g>
<!-- 9bf74227&#45;933c&#45;47db&#45;8c31&#45;7fcfe3b66d0f -->
<g id="node2" class="node">
<title>9bf74227&#45;933c&#45;47db&#45;8c31&#45;7fcfe3b66d0f</title>
<ellipse fill="none" stroke="black" cx="103.34" cy="-105" rx="27" ry="18"/>
<text text-anchor="middle" x="103.34" y="-101.3" font-family="Times,serif" font-size="14.00">FlatX</text>
</g>
<!-- 7fd479c8&#45;4565&#45;4a81&#45;b309&#45;c1c07750fe51 -->
<g id="node3" class="node">
<title>7fd479c8&#45;4565&#45;4a81&#45;b309&#45;c1c07750fe51</title>
<ellipse fill="none" stroke="black" cx="103.34" cy="-18" rx="80.11" ry="18"/>
<text text-anchor="middle" x="103.34" y="-14.3" font-family="Times,serif" font-size="14.00">Stability2Movement</text>
</g>
<!-- 9bf74227&#45;933c&#45;47db&#45;8c31&#45;7fcfe3b66d0f&#45;&gt;7fd479c8&#45;4565&#45;4a81&#45;b309&#45;c1c07750fe51 -->
<g id="edge1" class="edge">
<title>9bf74227&#45;933c&#45;47db&#45;8c31&#45;7fcfe3b66d0f&#45;&gt;7fd479c8&#45;4565&#45;4a81&#45;b309&#45;c1c07750fe51</title>
<path fill="none" stroke="purple" d="M103.34,-86.8C103.34,-75.16 103.34,-59.55 103.34,-46.24"/>
<polygon fill="purple" stroke="purple" points="106.84,-46.18 103.34,-36.18 99.84,-46.18 106.84,-46.18"/>
<text text-anchor="middle" x="138.84" y="-57.8" font-family="Times,serif" font-size="14.00" fill="purple">Pass Data</text>
</g>
<!-- 213b4868&#45;20c1&#45;422a&#45;9daf&#45;568696ee0249 -->
<g id="node4" class="node">
<title>213b4868&#45;20c1&#45;422a&#45;9daf&#45;568696ee0249</title>
<ellipse fill="none" stroke="black" cx="103.34" cy="-192" rx="27" ry="18"/>
<text text-anchor="middle" x="103.34" y="-188.3" font-family="Times,serif" font-size="14.00">StripY</text>
</g>
<!-- 213b4868&#45;20c1&#45;422a&#45;9daf&#45;568696ee0249&#45;&gt;9bf74227&#45;933c&#45;47db&#45;8c31&#45;7fcfe3b66d0f -->
<g id="edge2" class="edge">
<title>213b4868&#45;20c1&#45;422a&#45;9daf&#45;568696ee0249&#45;&gt;9bf74227&#45;933c&#45;47db&#45;8c31&#45;7fcfe3b66d0f</title>
<path fill="none" stroke="purple" d="M103.34,-173.8C103.34,-162.16 103.34,-146.55 103.34,-133.24"/>
<polygon fill="purple" stroke="purple" points="106.84,-133.18 103.34,-123.18 99.84,-133.18 106.84,-133.18"/>
<text text-anchor="middle" x="138.84" y="-144.8" font-family="Times,serif" font-size="14.00" fill="purple">Pass Data</text>
</g>
<!-- 4d669105&#45;7667&#45;4edc&#45;927e&#45;de6ae721f466 -->
<g id="node5" class="node">
<title>4d669105&#45;7667&#45;4edc&#45;927e&#45;de6ae721f466</title>
<ellipse fill="none" stroke="black" cx="103.34" cy="-279" rx="52.6" ry="18"/>
<text text-anchor="middle" x="103.34" y="-275.3" font-family="Times,serif" font-size="14.00">Anon Closure</text>
</g>
<!-- 4d669105&#45;7667&#45;4edc&#45;927e&#45;de6ae721f466&#45;&gt;213b4868&#45;20c1&#45;422a&#45;9daf&#45;568696ee0249 -->
<g id="edge3" class="edge">
<title>4d669105&#45;7667&#45;4edc&#45;927e&#45;de6ae721f466&#45;&gt;213b4868&#45;20c1&#45;422a&#45;9daf&#45;568696ee0249</title>
<path fill="none" stroke="purple" d="M103.34,-260.8C103.34,-249.16 103.34,-233.55 103.34,-220.24"/>
<polygon fill="purple" stroke="purple" points="106.84,-220.18 103.34,-210.18 99.84,-220.18 106.84,-220.18"/>
<text text-anchor="middle" x="138.84" y="-231.8" font-family="Times,serif" font-size="14.00" fill="purple">Pass Data</text>
</g>
<!-- 78b07cc7&#45;557a&#45;42e2&#45;baf0&#45;c17e17a3194e -->
<g id="node6" class="node">
<title>78b07cc7&#45;557a&#45;42e2&#45;baf0&#45;c17e17a3194e</title>
<ellipse fill="none" stroke="black" cx="103.34" cy="-366" rx="51.3" ry="18"/>
<text text-anchor="middle" x="103.34" y="-362.3" font-family="Times,serif" font-size="14.00">OffsetToPose</text>
</g>
<!-- 78b07cc7&#45;557a&#45;42e2&#45;baf0&#45;c17e17a3194e&#45;&gt;4d669105&#45;7667&#45;4edc&#45;927e&#45;de6ae721f466 -->
<g id="edge4" class="edge">
<title>78b07cc7&#45;557a&#45;42e2&#45;baf0&#45;c17e17a3194e&#45;&gt;4d669105&#45;7667&#45;4edc&#45;927e&#45;de6ae721f466</title>
<path fill="none" stroke="purple" d="M103.34,-347.8C103.34,-336.16 103.34,-320.55 103.34,-307.24"/>
<polygon fill="purple" stroke="purple" points="106.84,-307.18 103.34,-297.18 99.84,-307.18 106.84,-307.18"/>
<text text-anchor="middle" x="138.84" y="-318.8" font-family="Times,serif" font-size="14.00" fill="purple">Pass Data</text>
</g>
<!-- 1aef2558&#45;3d40&#45;403c&#45;ae2a&#45;e2ae9e4e2550 -->
<g id="node7" class="node">
<title>1aef2558&#45;3d40&#45;403c&#45;ae2a&#45;e2ae9e4e2550</title>
<ellipse fill="none" stroke="black" cx="103.34" cy="-453" rx="32.4" ry="18"/>
<text text-anchor="middle" x="103.34" y="-449.3" font-family="Times,serif" font-size="14.00">Average</text>
</g>
<!-- 1aef2558&#45;3d40&#45;403c&#45;ae2a&#45;e2ae9e4e2550&#45;&gt;78b07cc7&#45;557a&#45;42e2&#45;baf0&#45;c17e17a3194e -->
<g id="edge5" class="edge">
<title>1aef2558&#45;3d40&#45;403c&#45;ae2a&#45;e2ae9e4e2550&#45;&gt;78b07cc7&#45;557a&#45;42e2&#45;baf0&#45;c17e17a3194e</title>
<path fill="none" stroke="purple" d="M103.34,-434.8C103.34,-423.16 103.34,-407.55 103.34,-394.24"/>
<polygon fill="purple" stroke="purple" points="106.84,-394.18 103.34,-384.18 99.84,-394.18 106.84,-394.18"/>
<text text-anchor="middle" x="138.84" y="-405.8" font-family="Times,serif" font-size="14.00" fill="purple">Pass Data</text>
</g>
<!-- c4cb7925&#45;da39&#45;40b1&#45;aa23&#45;406472136f86 -->
<g id="node8" class="node">
<title>c4cb7925&#45;da39&#45;40b1&#45;aa23&#45;406472136f86</title>
<ellipse fill="none" stroke="black" cx="103.34" cy="-540" rx="61.1" ry="18"/>
<text text-anchor="middle" x="103.34" y="-536.3" font-family="Times,serif" font-size="14.00">ExtractPosition</text>
</g>
<!-- c4cb7925&#45;da39&#45;40b1&#45;aa23&#45;406472136f86&#45;&gt;1aef2558&#45;3d40&#45;403c&#45;ae2a&#45;e2ae9e4e2550 -->
<g id="edge6" class="edge">
<title>c4cb7925&#45;da39&#45;40b1&#45;aa23&#45;406472136f86&#45;&gt;1aef2558&#45;3d40&#45;403c&#45;ae2a&#45;e2ae9e4e2550</title>
<path fill="none" stroke="purple" d="M103.34,-521.8C103.34,-510.16 103.34,-494.55 103.34,-481.24"/>
<polygon fill="purple" stroke="purple" points="106.84,-481.18 103.34,-471.18 99.84,-481.18 106.84,-481.18"/>
<text text-anchor="middle" x="138.84" y="-492.8" font-family="Times,serif" font-size="14.00" fill="purple">Pass Data</text>
</g>
<!-- 1ecdf23f&#45;dd23&#45;4e3e&#45;aabd&#45;3bc5e36a9202 -->
<g id="node9" class="node">
<title>1ecdf23f&#45;dd23&#45;4e3e&#45;aabd&#45;3bc5e36a9202</title>
<ellipse fill="none" stroke="black" cx="103.34" cy="-627" rx="27" ry="18"/>
<text text-anchor="middle" x="103.34" y="-623.3" font-family="Times,serif" font-size="14.00">ToVec</text>
</g>
<!-- 1ecdf23f&#45;dd23&#45;4e3e&#45;aabd&#45;3bc5e36a9202&#45;&gt;c4cb7925&#45;da39&#45;40b1&#45;aa23&#45;406472136f86 -->
<g id="edge7" class="edge">
<title>1ecdf23f&#45;dd23&#45;4e3e&#45;aabd&#45;3bc5e36a9202&#45;&gt;c4cb7925&#45;da39&#45;40b1&#45;aa23&#45;406472136f86</title>
<path fill="none" stroke="purple" d="M103.34,-608.8C103.34,-597.16 103.34,-581.55 103.34,-568.24"/>
<polygon fill="purple" stroke="purple" points="106.84,-568.18 103.34,-558.18 99.84,-568.18 106.84,-568.18"/>
<text text-anchor="middle" x="138.84" y="-579.8" font-family="Times,serif" font-size="14.00" fill="purple">Pass Data</text>
</g>
<!-- 09fad1af&#45;b1ff&#45;40a3&#45;9fe0&#45;fd17bd5b206d -->
<g id="node10" class="node">
<title>09fad1af&#45;b1ff&#45;40a3&#45;9fe0&#45;fd17bd5b206d</title>
<ellipse fill="none" stroke="black" cx="103.34" cy="-714" rx="45.2" ry="18"/>
<text text-anchor="middle" x="103.34" y="-710.3" font-family="Times,serif" font-size="14.00">Detect true</text>
</g>
<!-- 09fad1af&#45;b1ff&#45;40a3&#45;9fe0&#45;fd17bd5b206d&#45;&gt;1ecdf23f&#45;dd23&#45;4e3e&#45;aabd&#45;3bc5e36a9202 -->
<g id="edge8" class="edge">
<title>09fad1af&#45;b1ff&#45;40a3&#45;9fe0&#45;fd17bd5b206d&#45;&gt;1ecdf23f&#45;dd23&#45;4e3e&#45;aabd&#45;3bc5e36a9202</title>
<path fill="none" stroke="purple" d="M103.34,-695.8C103.34,-684.16 103.34,-668.55 103.34,-655.24"/>
<polygon fill="purple" stroke="purple" points="106.84,-655.18 103.34,-645.18 99.84,-655.18 106.84,-655.18"/>
<text text-anchor="middle" x="138.84" y="-666.8" font-family="Times,serif" font-size="14.00" fill="purple">Pass Data</text>
</g>
<!-- c0c4c0ca&#45;b325&#45;43d2&#45;9a9d&#45;5ca06f9b8062&#45;&gt;09fad1af&#45;b1ff&#45;40a3&#45;9fe0&#45;fd17bd5b206d -->
<g id="edge9" class="edge">
<title>c0c4c0ca&#45;b325&#45;43d2&#45;9a9d&#45;5ca06f9b8062&#45;&gt;09fad1af&#45;b1ff&#45;40a3&#45;9fe0&#45;fd17bd5b206d</title>
<path fill="none" stroke="purple" d="M103.34,-782.8C103.34,-771.16 103.34,-755.55 103.34,-742.24"/>
<polygon fill="purple" stroke="purple" points="106.84,-742.18 103.34,-732.18 99.84,-742.18 106.84,-742.18"/>
<text text-anchor="middle" x="138.84" y="-753.8" font-family="Times,serif" font-size="14.00" fill="purple">Pass Data</text>
</g>
<!-- 53d07dd5&#45;63e8&#45;406b&#45;834b&#45;e03b665d374d -->
<g id="node12" class="node">
<title>53d07dd5&#45;63e8&#45;406b&#45;834b&#45;e03b665d374d</title>
<ellipse fill="none" stroke="black" cx="250.34" cy="-888" rx="47.1" ry="18"/>
<text text-anchor="middle" x="250.34" y="-884.3" font-family="Times,serif" font-size="14.00">DelayAction</text>
</g>
<!-- 53d07dd5&#45;63e8&#45;406b&#45;834b&#45;e03b665d374d&#45;&gt;c0c4c0ca&#45;b325&#45;43d2&#45;9a9d&#45;5ca06f9b8062 -->
<g id="edge11" class="edge">
<title>53d07dd5&#45;63e8&#45;406b&#45;834b&#45;e03b665d374d&#45;&gt;c0c4c0ca&#45;b325&#45;43d2&#45;9a9d&#45;5ca06f9b8062</title>
<path fill="none" stroke="black" d="M225.4,-872.58C201.12,-858.54 164.03,-837.09 137.1,-821.52"/>
<polygon fill="black" stroke="black" points="138.81,-818.47 128.4,-816.49 135.3,-824.53 138.81,-818.47"/>
</g>
<!-- 2eb70d67&#45;dbca&#45;4df7&#45;9b8c&#45;1207c1f4aa7f -->
<g id="node13" class="node">
<title>2eb70d67&#45;dbca&#45;4df7&#45;9b8c&#45;1207c1f4aa7f</title>
<ellipse fill="none" stroke="black" cx="250.34" cy="-961" rx="59.9" ry="18"/>
<text text-anchor="middle" x="250.34" y="-957.3" font-family="Times,serif" font-size="14.00">ZeroMovement</text>
</g>
<!-- 2eb70d67&#45;dbca&#45;4df7&#45;9b8c&#45;1207c1f4aa7f&#45;&gt;53d07dd5&#45;63e8&#45;406b&#45;834b&#45;e03b665d374d -->
<g id="edge12" class="edge">
<title>2eb70d67&#45;dbca&#45;4df7&#45;9b8c&#45;1207c1f4aa7f&#45;&gt;53d07dd5&#45;63e8&#45;406b&#45;834b&#45;e03b665d374d</title>
<path fill="none" stroke="black" d="M250.34,-942.81C250.34,-934.79 250.34,-925.05 250.34,-916.07"/>
<polygon fill="black" stroke="black" points="253.84,-916.03 250.34,-906.03 246.84,-916.03 253.84,-916.03"/>
</g>
</g>
</svg>
