<?xml version="1.0" encoding="UTF-8" standalone="no"?>
<!DOCTYPE svg PUBLIC "-//W3C//DTD SVG 1.1//EN"
 "http://www.w3.org/Graphics/SVG/1.1/DTD/svg11.dtd">
<!-- Generated by graphviz version 2.43.0 (0)
 -->
<!-- Title: G Pages: 1 -->
<svg width="158pt" height="404pt"
 viewBox="0.00 0.00 157.61 404.00" xmlns="http://www.w3.org/2000/svg" xmlns:xlink="http://www.w3.org/1999/xlink">
<g id="graph0" class="graph" transform="scale(1 1) rotate(0) translate(4 400)">
<title>G</title>
<polygon fill="transparent" stroke="transparent" points="-4,4 -4,-400 153.61,-400 153.61,4 -4,4"/>
<!-- c2c5af66&#45;3eb6&#45;4384&#45;8a3e&#45;b2e2b6e4f2fa -->
<g id="node1" class="node">
<title>c2c5af66&#45;3eb6&#45;4384&#45;8a3e&#45;b2e2b6e4f2fa</title>
<ellipse fill="none" stroke="black" cx="74.8" cy="-306" rx="33.6" ry="18"/>
<text text-anchor="middle" x="74.8" y="-302.3" font-family="Times,serif" font-size="14.00">Descend</text>
</g>
<!-- 48c28b0b&#45;54c6&#45;4fb7&#45;953e&#45;d190abca3752 -->
<g id="node2" class="node">
<title>48c28b0b&#45;54c6&#45;4fb7&#45;953e&#45;d190abca3752</title>
<ellipse fill="none" stroke="black" cx="74.8" cy="-234" rx="47.1" ry="18"/>
<text text-anchor="middle" x="74.8" y="-230.3" font-family="Times,serif" font-size="14.00">DelayAction</text>
</g>
<!-- c2c5af66&#45;3eb6&#45;4384&#45;8a3e&#45;b2e2b6e4f2fa&#45;&gt;48c28b0b&#45;54c6&#45;4fb7&#45;953e&#45;d190abca3752 -->
<g id="edge1" class="edge">
<title>c2c5af66&#45;3eb6&#45;4384&#45;8a3e&#45;b2e2b6e4f2fa&#45;&gt;48c28b0b&#45;54c6&#45;4fb7&#45;953e&#45;d190abca3752</title>
<path fill="none" stroke="black" d="M74.8,-287.7C74.8,-279.98 74.8,-270.71 74.8,-262.11"/>
<polygon fill="black" stroke="black" points="78.3,-262.1 74.8,-252.1 71.3,-262.1 78.3,-262.1"/>
</g>
<!-- eeb2dd16&#45;e3a9&#45;4eb4&#45;b2ec&#45;4f40ab7b5a6c -->
<g id="node3" class="node">
<title>eeb2dd16&#45;e3a9&#45;4eb4&#45;b2ec&#45;4f40ab7b5a6c</title>
<ellipse fill="none" stroke="black" cx="74.8" cy="-162" rx="74.61" ry="18"/>
<text text-anchor="middle" x="74.8" y="-158.3" font-family="Times,serif" font-size="14.00">StraightMovement</text>
</g>
<!-- 48c28b0b&#45;54c6&#45;4fb7&#45;953e&#45;d190abca3752&#45;&gt;eeb2dd16&#45;e3a9&#45;4eb4&#45;b2ec&#45;4f40ab7b5a6c -->
<g id="edge4" class="edge">
<title>48c28b0b&#45;54c6&#45;4fb7&#45;953e&#45;d190abca3752&#45;&gt;eeb2dd16&#45;e3a9&#45;4eb4&#45;b2ec&#45;4f40ab7b5a6c</title>
<path fill="none" stroke="black" d="M74.8,-215.7C74.8,-207.98 74.8,-198.71 74.8,-190.11"/>
<polygon fill="black" stroke="black" points="78.3,-190.1 74.8,-180.1 71.3,-190.1 78.3,-190.1"/>
</g>
<!-- a1e3a41f&#45;9ea9&#45;45d6&#45;bf10&#45;6f80ea718c28 -->
<g id="node4" class="node">
<title>a1e3a41f&#45;9ea9&#45;45d6&#45;bf10&#45;6f80ea718c28</title>
<ellipse fill="none" stroke="black" cx="74.8" cy="-90" rx="47.1" ry="18"/>
<text text-anchor="middle" x="74.8" y="-86.3" font-family="Times,serif" font-size="14.00">DelayAction</text>
</g>
<!-- eeb2dd16&#45;e3a9&#45;4eb4&#45;b2ec&#45;4f40ab7b5a6c&#45;&gt;a1e3a41f&#45;9ea9&#45;45d6&#45;bf10&#45;6f80ea718c28 -->
<g id="edge2" class="edge">
<title>eeb2dd16&#45;e3a9&#45;4eb4&#45;b2ec&#45;4f40ab7b5a6c&#45;&gt;a1e3a41f&#45;9ea9&#45;45d6&#45;bf10&#45;6f80ea718c28</title>
<path fill="none" stroke="black" d="M74.8,-143.7C74.8,-135.98 74.8,-126.71 74.8,-118.11"/>
<polygon fill="black" stroke="black" points="78.3,-118.1 74.8,-108.1 71.3,-118.1 78.3,-118.1"/>
</g>
<!-- 05ed7f47&#45;5ddf&#45;44f5&#45;81d6&#45;ffdb4c8cc103 -->
<g id="node5" class="node">
<title>05ed7f47&#45;5ddf&#45;44f5&#45;81d6&#45;ffdb4c8cc103</title>
<ellipse fill="none" stroke="black" cx="74.8" cy="-18" rx="59.9" ry="18"/>
<text text-anchor="middle" x="74.8" y="-14.3" font-family="Times,serif" font-size="14.00">ZeroMovement</text>
</g>
<!-- a1e3a41f&#45;9ea9&#45;45d6&#45;bf10&#45;6f80ea718c28&#45;&gt;05ed7f47&#45;5ddf&#45;44f5&#45;81d6&#45;ffdb4c8cc103 -->
<g id="edge3" class="edge">
<title>a1e3a41f&#45;9ea9&#45;45d6&#45;bf10&#45;6f80ea718c28&#45;&gt;05ed7f47&#45;5ddf&#45;44f5&#45;81d6&#45;ffdb4c8cc103</title>
<path fill="none" stroke="black" d="M74.8,-71.7C74.8,-63.98 74.8,-54.71 74.8,-46.11"/>
<polygon fill="black" stroke="black" points="78.3,-46.1 74.8,-36.1 71.3,-46.1 78.3,-46.1"/>
</g>
<!-- 557c6b53&#45;9d94&#45;4dc2&#45;ace8&#45;f2ce9b516c73 -->
<g id="node6" class="node">
<title>557c6b53&#45;9d94&#45;4dc2&#45;ace8&#45;f2ce9b516c73</title>
<ellipse fill="none" stroke="black" cx="74.8" cy="-378" rx="34.8" ry="18"/>
<text text-anchor="middle" x="74.8" y="-374.3" font-family="Times,serif" font-size="14.00">WaitArm</text>
</g>
<!-- 557c6b53&#45;9d94&#45;4dc2&#45;ace8&#45;f2ce9b516c73&#45;&gt;c2c5af66&#45;3eb6&#45;4384&#45;8a3e&#45;b2e2b6e4f2fa -->
<g id="edge5" class="edge">
<title>557c6b53&#45;9d94&#45;4dc2&#45;ace8&#45;f2ce9b516c73&#45;&gt;c2c5af66&#45;3eb6&#45;4384&#45;8a3e&#45;b2e2b6e4f2fa</title>
<path fill="none" stroke="black" d="M74.8,-359.7C74.8,-351.98 74.8,-342.71 74.8,-334.11"/>
<polygon fill="black" stroke="black" points="78.3,-334.1 74.8,-324.1 71.3,-334.1 78.3,-334.1"/>
</g>
</g>
</svg>
