<?xml version="1.0" encoding="UTF-8" standalone="no"?>
<!DOCTYPE svg PUBLIC "-//W3C//DTD SVG 1.1//EN"
 "http://www.w3.org/Graphics/SVG/1.1/DTD/svg11.dtd">
<!-- Generated by graphviz version 2.43.0 (0)
 -->
<!-- Title: G Pages: 1 -->
<svg width="158pt" height="404pt"
 viewBox="0.00 0.00 157.61 404.00" xmlns="http://www.w3.org/2000/svg" xmlns:xlink="http://www.w3.org/1999/xlink">
<g id="graph0" class="graph" transform="scale(1 1) rotate(0) translate(4 400)">
<title>G</title>
<polygon fill="transparent" stroke="transparent" points="-4,4 -4,-400 153.61,-400 153.61,4 -4,4"/>
<!-- 467dc835&#45;be86&#45;4175&#45;bb48&#45;7f780aa51d2d -->
<g id="node1" class="node">
<title>467dc835&#45;be86&#45;4175&#45;bb48&#45;7f780aa51d2d</title>
<ellipse fill="none" stroke="black" cx="74.8" cy="-306" rx="33.6" ry="18"/>
<text text-anchor="middle" x="74.8" y="-302.3" font-family="Times,serif" font-size="14.00">Descend</text>
</g>
<!-- f5d24b6e&#45;8a5b&#45;465d&#45;8592&#45;7945b0f7a777 -->
<g id="node2" class="node">
<title>f5d24b6e&#45;8a5b&#45;465d&#45;8592&#45;7945b0f7a777</title>
<ellipse fill="none" stroke="black" cx="74.8" cy="-234" rx="47.1" ry="18"/>
<text text-anchor="middle" x="74.8" y="-230.3" font-family="Times,serif" font-size="14.00">DelayAction</text>
</g>
<!-- 467dc835&#45;be86&#45;4175&#45;bb48&#45;7f780aa51d2d&#45;&gt;f5d24b6e&#45;8a5b&#45;465d&#45;8592&#45;7945b0f7a777 -->
<g id="edge1" class="edge">
<title>467dc835&#45;be86&#45;4175&#45;bb48&#45;7f780aa51d2d&#45;&gt;f5d24b6e&#45;8a5b&#45;465d&#45;8592&#45;7945b0f7a777</title>
<path fill="none" stroke="black" d="M74.8,-287.7C74.8,-279.98 74.8,-270.71 74.8,-262.11"/>
<polygon fill="black" stroke="black" points="78.3,-262.1 74.8,-252.1 71.3,-262.1 78.3,-262.1"/>
</g>
<!-- 4fbe8239&#45;244c&#45;4957&#45;99f3&#45;d1237d7d1c73 -->
<g id="node3" class="node">
<title>4fbe8239&#45;244c&#45;4957&#45;99f3&#45;d1237d7d1c73</title>
<ellipse fill="none" stroke="black" cx="74.8" cy="-162" rx="74.61" ry="18"/>
<text text-anchor="middle" x="74.8" y="-158.3" font-family="Times,serif" font-size="14.00">StraightMovement</text>
</g>
<!-- f5d24b6e&#45;8a5b&#45;465d&#45;8592&#45;7945b0f7a777&#45;&gt;4fbe8239&#45;244c&#45;4957&#45;99f3&#45;d1237d7d1c73 -->
<g id="edge4" class="edge">
<title>f5d24b6e&#45;8a5b&#45;465d&#45;8592&#45;7945b0f7a777&#45;&gt;4fbe8239&#45;244c&#45;4957&#45;99f3&#45;d1237d7d1c73</title>
<path fill="none" stroke="black" d="M74.8,-215.7C74.8,-207.98 74.8,-198.71 74.8,-190.11"/>
<polygon fill="black" stroke="black" points="78.3,-190.1 74.8,-180.1 71.3,-190.1 78.3,-190.1"/>
</g>
<!-- 6081192d&#45;5434&#45;46cb&#45;85f1&#45;5fbc2f437cc4 -->
<g id="node4" class="node">
<title>6081192d&#45;5434&#45;46cb&#45;85f1&#45;5fbc2f437cc4</title>
<ellipse fill="none" stroke="black" cx="74.8" cy="-90" rx="47.1" ry="18"/>
<text text-anchor="middle" x="74.8" y="-86.3" font-family="Times,serif" font-size="14.00">DelayAction</text>
</g>
<!-- 4fbe8239&#45;244c&#45;4957&#45;99f3&#45;d1237d7d1c73&#45;&gt;6081192d&#45;5434&#45;46cb&#45;85f1&#45;5fbc2f437cc4 -->
<g id="edge2" class="edge">
<title>4fbe8239&#45;244c&#45;4957&#45;99f3&#45;d1237d7d1c73&#45;&gt;6081192d&#45;5434&#45;46cb&#45;85f1&#45;5fbc2f437cc4</title>
<path fill="none" stroke="black" d="M74.8,-143.7C74.8,-135.98 74.8,-126.71 74.8,-118.11"/>
<polygon fill="black" stroke="black" points="78.3,-118.1 74.8,-108.1 71.3,-118.1 78.3,-118.1"/>
</g>
<!-- 63f6da3c&#45;15c5&#45;4f71&#45;8c36&#45;fbed9204034d -->
<g id="node5" class="node">
<title>63f6da3c&#45;15c5&#45;4f71&#45;8c36&#45;fbed9204034d</title>
<ellipse fill="none" stroke="black" cx="74.8" cy="-18" rx="59.9" ry="18"/>
<text text-anchor="middle" x="74.8" y="-14.3" font-family="Times,serif" font-size="14.00">ZeroMovement</text>
</g>
<!-- 6081192d&#45;5434&#45;46cb&#45;85f1&#45;5fbc2f437cc4&#45;&gt;63f6da3c&#45;15c5&#45;4f71&#45;8c36&#45;fbed9204034d -->
<g id="edge3" class="edge">
<title>6081192d&#45;5434&#45;46cb&#45;85f1&#45;5fbc2f437cc4&#45;&gt;63f6da3c&#45;15c5&#45;4f71&#45;8c36&#45;fbed9204034d</title>
<path fill="none" stroke="black" d="M74.8,-71.7C74.8,-63.98 74.8,-54.71 74.8,-46.11"/>
<polygon fill="black" stroke="black" points="78.3,-46.1 74.8,-36.1 71.3,-46.1 78.3,-46.1"/>
</g>
<!-- 04f2c253&#45;d15a&#45;484d&#45;a850&#45;518286781d95 -->
<g id="node6" class="node">
<title>04f2c253&#45;d15a&#45;484d&#45;a850&#45;518286781d95</title>
<ellipse fill="none" stroke="black" cx="74.8" cy="-378" rx="34.8" ry="18"/>
<text text-anchor="middle" x="74.8" y="-374.3" font-family="Times,serif" font-size="14.00">WaitArm</text>
</g>
<!-- 04f2c253&#45;d15a&#45;484d&#45;a850&#45;518286781d95&#45;&gt;467dc835&#45;be86&#45;4175&#45;bb48&#45;7f780aa51d2d -->
<g id="edge5" class="edge">
<title>04f2c253&#45;d15a&#45;484d&#45;a850&#45;518286781d95&#45;&gt;467dc835&#45;be86&#45;4175&#45;bb48&#45;7f780aa51d2d</title>
<path fill="none" stroke="black" d="M74.8,-359.7C74.8,-351.98 74.8,-342.71 74.8,-334.11"/>
<polygon fill="black" stroke="black" points="78.3,-334.1 74.8,-324.1 71.3,-334.1 78.3,-334.1"/>
</g>
</g>
</svg>
