<?xml version="1.0" encoding="UTF-8" standalone="no"?>
<!DOCTYPE svg PUBLIC "-//W3C//DTD SVG 1.1//EN"
 "http://www.w3.org/Graphics/SVG/1.1/DTD/svg11.dtd">
<!-- Generated by graphviz version 2.43.0 (0)
 -->
<!-- Title: G Pages: 1 -->
<svg width="743pt" height="1121pt"
 viewBox="0.00 0.00 742.80 1121.00" xmlns="http://www.w3.org/2000/svg" xmlns:xlink="http://www.w3.org/1999/xlink">
<g id="graph0" class="graph" transform="scale(1 1) rotate(0) translate(4 1117)">
<title>G</title>
<polygon fill="transparent" stroke="transparent" points="-4,4 -4,-1117 738.8,-1117 738.8,4 -4,4"/>
<g id="clust1" class="cluster">
<title>cluster_cb06d823&#45;4382&#45;45a4&#45;ac2e&#45;d077d1a70643</title>
<polygon fill="transparent" stroke="blue" stroke-dasharray="5,2" points="8,-8 8,-829 280,-829 280,-8 8,-8"/>
</g>
<!-- dbdd7cee&#45;29b6&#45;4c51&#45;bd78&#45;11399d115586 -->
<g id="node1" class="node">
<title>dbdd7cee&#45;29b6&#45;4c51&#45;bd78&#45;11399d115586</title>
<polygon fill="none" stroke="black" points="207,-748 141.82,-730 207,-712 272.18,-730 207,-748"/>
<text text-anchor="middle" x="207" y="-726.3" font-family="Times,serif" font-size="14.00">AlwaysTrue</text>
</g>
<!-- e0b1a953&#45;c263&#45;46e6&#45;aaf0&#45;f113a5e02010 -->
<g id="node19" class="node">
<title>e0b1a953&#45;c263&#45;46e6&#45;aaf0&#45;f113a5e02010</title>
<ellipse fill="none" stroke="black" cx="335" cy="-643" rx="46.5" ry="18"/>
<text text-anchor="middle" x="335" y="-639.3" font-family="Times,serif" font-size="14.00">VisionNorm</text>
</g>
<!-- dbdd7cee&#45;29b6&#45;4c51&#45;bd78&#45;11399d115586&#45;&gt;e0b1a953&#45;c263&#45;46e6&#45;aaf0&#45;f113a5e02010 -->
<g id="edge18" class="edge">
<title>dbdd7cee&#45;29b6&#45;4c51&#45;bd78&#45;11399d115586&#45;&gt;e0b1a953&#45;c263&#45;46e6&#45;aaf0&#45;f113a5e02010</title>
<path fill="none" stroke="black" d="M225.34,-716.82C245.78,-703.25 279.18,-681.06 303.76,-664.74"/>
<polygon fill="black" stroke="black" points="305.98,-667.47 312.38,-659.02 302.11,-661.64 305.98,-667.47"/>
<text text-anchor="middle" x="296" y="-682.8" font-family="Times,serif" font-size="14.00">True</text>
</g>
<!-- 9cc120b1&#45;ad8f&#45;4486&#45;8970&#45;a48bb3910727 -->
<g id="node2" class="node">
<title>9cc120b1&#45;ad8f&#45;4486&#45;8970&#45;a48bb3910727</title>
<ellipse fill="none" stroke="black" cx="95" cy="-121" rx="31.2" ry="18"/>
<text text-anchor="middle" x="95" y="-117.3" font-family="Times,serif" font-size="14.00">MinYaw</text>
</g>
<!-- aa71ee9f&#45;830a&#45;4d50&#45;a312&#45;834a3300ed19 -->
<g id="node3" class="node">
<title>aa71ee9f&#45;830a&#45;4d50&#45;a312&#45;834a3300ed19</title>
<ellipse fill="none" stroke="black" cx="96" cy="-34" rx="80.11" ry="18"/>
<text text-anchor="middle" x="96" y="-30.3" font-family="Times,serif" font-size="14.00">Stability1Movement</text>
</g>
<!-- 9cc120b1&#45;ad8f&#45;4486&#45;8970&#45;a48bb3910727&#45;&gt;aa71ee9f&#45;830a&#45;4d50&#45;a312&#45;834a3300ed19 -->
<g id="edge1" class="edge">
<title>9cc120b1&#45;ad8f&#45;4486&#45;8970&#45;a48bb3910727&#45;&gt;aa71ee9f&#45;830a&#45;4d50&#45;a312&#45;834a3300ed19</title>
<path fill="none" stroke="purple" d="M95.2,-102.8C95.34,-91.16 95.52,-75.55 95.68,-62.24"/>
<polygon fill="purple" stroke="purple" points="99.18,-62.22 95.8,-52.18 92.18,-62.13 99.18,-62.22"/>
<text text-anchor="middle" x="131.5" y="-73.8" font-family="Times,serif" font-size="14.00" fill="purple">Pass Data</text>
</g>
<!-- be63fc53&#45;8db0&#45;4fff&#45;b2d1&#45;e7dc2aaa0d85 -->
<g id="node4" class="node">
<title>be63fc53&#45;8db0&#45;4fff&#45;b2d1&#45;e7dc2aaa0d85</title>
<ellipse fill="none" stroke="black" cx="94" cy="-208" rx="27" ry="18"/>
<text text-anchor="middle" x="94" y="-204.3" font-family="Times,serif" font-size="14.00">StripY</text>
</g>
<!-- be63fc53&#45;8db0&#45;4fff&#45;b2d1&#45;e7dc2aaa0d85&#45;&gt;9cc120b1&#45;ad8f&#45;4486&#45;8970&#45;a48bb3910727 -->
<g id="edge2" class="edge">
<title>be63fc53&#45;8db0&#45;4fff&#45;b2d1&#45;e7dc2aaa0d85&#45;&gt;9cc120b1&#45;ad8f&#45;4486&#45;8970&#45;a48bb3910727</title>
<path fill="none" stroke="purple" d="M94.2,-189.8C94.34,-178.16 94.52,-162.55 94.68,-149.24"/>
<polygon fill="purple" stroke="purple" points="98.18,-149.22 94.8,-139.18 91.18,-149.13 98.18,-149.22"/>
<text text-anchor="middle" x="130.5" y="-160.8" font-family="Times,serif" font-size="14.00" fill="purple">Pass Data</text>
</g>
<!-- 9d324dde&#45;28e8&#45;4e54&#45;9e61&#45;5b9d9d3a71d3 -->
<g id="node5" class="node">
<title>9d324dde&#45;28e8&#45;4e54&#45;9e61&#45;5b9d9d3a71d3</title>
<ellipse fill="none" stroke="black" cx="94" cy="-295" rx="75.81" ry="18"/>
<text text-anchor="middle" x="94" y="-291.3" font-family="Times,serif" font-size="14.00">CautiousConstantX</text>
</g>
<!-- 9d324dde&#45;28e8&#45;4e54&#45;9e61&#45;5b9d9d3a71d3&#45;&gt;be63fc53&#45;8db0&#45;4fff&#45;b2d1&#45;e7dc2aaa0d85 -->
<g id="edge3" class="edge">
<title>9d324dde&#45;28e8&#45;4e54&#45;9e61&#45;5b9d9d3a71d3&#45;&gt;be63fc53&#45;8db0&#45;4fff&#45;b2d1&#45;e7dc2aaa0d85</title>
<path fill="none" stroke="purple" d="M94,-276.8C94,-265.16 94,-249.55 94,-236.24"/>
<polygon fill="purple" stroke="purple" points="97.5,-236.18 94,-226.18 90.5,-236.18 97.5,-236.18"/>
<text text-anchor="middle" x="129.5" y="-247.8" font-family="Times,serif" font-size="14.00" fill="purple">Pass Data</text>
</g>
<!-- 3b577563&#45;8db9&#45;4770&#45;b15d&#45;4aae1a832239 -->
<g id="node6" class="node">
<title>3b577563&#45;8db9&#45;4770&#45;b15d&#45;4aae1a832239</title>
<ellipse fill="none" stroke="black" cx="93" cy="-382" rx="67.81" ry="18"/>
<text text-anchor="middle" x="93" y="-378.3" font-family="Times,serif" font-size="14.00">LinearYawFromX</text>
</g>
<!-- 3b577563&#45;8db9&#45;4770&#45;b15d&#45;4aae1a832239&#45;&gt;9d324dde&#45;28e8&#45;4e54&#45;9e61&#45;5b9d9d3a71d3 -->
<g id="edge4" class="edge">
<title>3b577563&#45;8db9&#45;4770&#45;b15d&#45;4aae1a832239&#45;&gt;9d324dde&#45;28e8&#45;4e54&#45;9e61&#45;5b9d9d3a71d3</title>
<path fill="none" stroke="purple" d="M93.2,-363.8C93.34,-352.16 93.52,-336.55 93.68,-323.24"/>
<polygon fill="purple" stroke="purple" points="97.18,-323.22 93.8,-313.18 90.18,-323.13 97.18,-323.22"/>
<text text-anchor="middle" x="129.5" y="-334.8" font-family="Times,serif" font-size="14.00" fill="purple">Pass Data</text>
</g>
<!-- b9d15397&#45;650f&#45;4b48&#45;8abb&#45;0d3bfa746b21 -->
<g id="node7" class="node">
<title>b9d15397&#45;650f&#45;4b48&#45;8abb&#45;0d3bfa746b21</title>
<ellipse fill="none" stroke="black" cx="92" cy="-469" rx="51.3" ry="18"/>
<text text-anchor="middle" x="92" y="-465.3" font-family="Times,serif" font-size="14.00">OffsetToPose</text>
</g>
<!-- b9d15397&#45;650f&#45;4b48&#45;8abb&#45;0d3bfa746b21&#45;&gt;3b577563&#45;8db9&#45;4770&#45;b15d&#45;4aae1a832239 -->
<g id="edge5" class="edge">
<title>b9d15397&#45;650f&#45;4b48&#45;8abb&#45;0d3bfa746b21&#45;&gt;3b577563&#45;8db9&#45;4770&#45;b15d&#45;4aae1a832239</title>
<path fill="none" stroke="purple" d="M92.2,-450.8C92.34,-439.16 92.52,-423.55 92.68,-410.24"/>
<polygon fill="purple" stroke="purple" points="96.18,-410.22 92.8,-400.18 89.18,-410.13 96.18,-410.22"/>
<text text-anchor="middle" x="128.5" y="-421.8" font-family="Times,serif" font-size="14.00" fill="purple">Pass Data</text>
</g>
<!-- d2bd3535&#45;db48&#45;430c&#45;9fa1&#45;b510ca966d43 -->
<g id="node8" class="node">
<title>d2bd3535&#45;db48&#45;430c&#45;9fa1&#45;b510ca966d43</title>
<ellipse fill="none" stroke="black" cx="91" cy="-556" rx="32.4" ry="18"/>
<text text-anchor="middle" x="91" y="-552.3" font-family="Times,serif" font-size="14.00">Average</text>
</g>
<!-- d2bd3535&#45;db48&#45;430c&#45;9fa1&#45;b510ca966d43&#45;&gt;b9d15397&#45;650f&#45;4b48&#45;8abb&#45;0d3bfa746b21 -->
<g id="edge6" class="edge">
<title>d2bd3535&#45;db48&#45;430c&#45;9fa1&#45;b510ca966d43&#45;&gt;b9d15397&#45;650f&#45;4b48&#45;8abb&#45;0d3bfa746b21</title>
<path fill="none" stroke="purple" d="M91.2,-537.8C91.34,-526.16 91.52,-510.55 91.68,-497.24"/>
<polygon fill="purple" stroke="purple" points="95.18,-497.22 91.8,-487.18 88.18,-497.13 95.18,-497.22"/>
<text text-anchor="middle" x="127.5" y="-508.8" font-family="Times,serif" font-size="14.00" fill="purple">Pass Data</text>
</g>
<!-- 2975de09&#45;9de1&#45;48cd&#45;8c6c&#45;458d355abf2d -->
<g id="node9" class="node">
<title>2975de09&#45;9de1&#45;48cd&#45;8c6c&#45;458d355abf2d</title>
<ellipse fill="none" stroke="black" cx="90" cy="-643" rx="61.1" ry="18"/>
<text text-anchor="middle" x="90" y="-639.3" font-family="Times,serif" font-size="14.00">ExtractPosition</text>
</g>
<!-- 2975de09&#45;9de1&#45;48cd&#45;8c6c&#45;458d355abf2d&#45;&gt;d2bd3535&#45;db48&#45;430c&#45;9fa1&#45;b510ca966d43 -->
<g id="edge7" class="edge">
<title>2975de09&#45;9de1&#45;48cd&#45;8c6c&#45;458d355abf2d&#45;&gt;d2bd3535&#45;db48&#45;430c&#45;9fa1&#45;b510ca966d43</title>
<path fill="none" stroke="purple" d="M90.2,-624.8C90.34,-613.16 90.52,-597.55 90.68,-584.24"/>
<polygon fill="purple" stroke="purple" points="94.18,-584.22 90.8,-574.18 87.18,-584.13 94.18,-584.22"/>
<text text-anchor="middle" x="126.5" y="-595.8" font-family="Times,serif" font-size="14.00" fill="purple">Pass Data</text>
</g>
<!-- 006bdbb2&#45;4740&#45;406c&#45;8383&#45;4ade6dfed519 -->
<g id="node10" class="node">
<title>006bdbb2&#45;4740&#45;406c&#45;8383&#45;4ade6dfed519</title>
<ellipse fill="none" stroke="black" cx="43" cy="-730" rx="27" ry="18"/>
<text text-anchor="middle" x="43" y="-726.3" font-family="Times,serif" font-size="14.00">ToVec</text>
</g>
<!-- 006bdbb2&#45;4740&#45;406c&#45;8383&#45;4ade6dfed519&#45;&gt;2975de09&#45;9de1&#45;48cd&#45;8c6c&#45;458d355abf2d -->
<g id="edge8" class="edge">
<title>006bdbb2&#45;4740&#45;406c&#45;8383&#45;4ade6dfed519&#45;&gt;2975de09&#45;9de1&#45;48cd&#45;8c6c&#45;458d355abf2d</title>
<path fill="none" stroke="purple" d="M52.06,-712.61C58.74,-700.54 67.95,-683.88 75.63,-670"/>
<polygon fill="purple" stroke="purple" points="78.87,-671.37 80.64,-660.92 72.74,-667.98 78.87,-671.37"/>
<text text-anchor="middle" x="105.5" y="-682.8" font-family="Times,serif" font-size="14.00" fill="purple">Pass Data</text>
</g>
<!-- 06a92e97&#45;0a88&#45;4c58&#45;a8a9&#45;2ecb6336f3a6 -->
<g id="node11" class="node">
<title>06a92e97&#45;0a88&#45;4c58&#45;a8a9&#45;2ecb6336f3a6</title>
<polygon fill="none" stroke="black" stroke-dasharray="5,2" points="256,-821 158,-821 158,-785 256,-785 256,-821"/>
<text text-anchor="middle" x="207" y="-799.3" font-family="Times,serif" font-size="14.00" fill="blue">Concurrent</text>
</g>
<!-- 06a92e97&#45;0a88&#45;4c58&#45;a8a9&#45;2ecb6336f3a6&#45;&gt;dbdd7cee&#45;29b6&#45;4c51&#45;bd78&#45;11399d115586 -->
<g id="edge10" class="edge">
<title>06a92e97&#45;0a88&#45;4c58&#45;a8a9&#45;2ecb6336f3a6&#45;&gt;dbdd7cee&#45;29b6&#45;4c51&#45;bd78&#45;11399d115586</title>
<path fill="none" stroke="black" d="M207,-784.81C207,-776.79 207,-767.05 207,-758.07"/>
<polygon fill="black" stroke="black" points="210.5,-758.03 207,-748.03 203.5,-758.03 210.5,-758.03"/>
</g>
<!-- 06a92e97&#45;0a88&#45;4c58&#45;a8a9&#45;2ecb6336f3a6&#45;&gt;006bdbb2&#45;4740&#45;406c&#45;8383&#45;4ade6dfed519 -->
<g id="edge9" class="edge">
<title>06a92e97&#45;0a88&#45;4c58&#45;a8a9&#45;2ecb6336f3a6&#45;&gt;006bdbb2&#45;4740&#45;406c&#45;8383&#45;4ade6dfed519</title>
<path fill="none" stroke="black" d="M167.72,-784.99C139.19,-772.64 101.1,-756.15 74.55,-744.66"/>
<polygon fill="black" stroke="black" points="75.89,-741.43 65.32,-740.66 73.11,-747.85 75.89,-741.43"/>
</g>
<!-- feef1b47&#45;213f&#45;4d13&#45;a34e&#45;8983db4f4bc9 -->
<g id="node12" class="node">
<title>feef1b47&#45;213f&#45;4d13&#45;a34e&#45;8983db4f4bc9</title>
<ellipse fill="none" stroke="black" cx="660" cy="-1022" rx="33.6" ry="18"/>
<text text-anchor="middle" x="660" y="-1018.3" font-family="Times,serif" font-size="14.00">Descend</text>
</g>
<!-- e86430e6&#45;5744&#45;4508&#45;9355&#45;9caabee0b78b -->
<g id="node13" class="node">
<title>e86430e6&#45;5744&#45;4508&#45;9355&#45;9caabee0b78b</title>
<ellipse fill="none" stroke="black" cx="660" cy="-949" rx="47.1" ry="18"/>
<text text-anchor="middle" x="660" y="-945.3" font-family="Times,serif" font-size="14.00">DelayAction</text>
</g>
<!-- feef1b47&#45;213f&#45;4d13&#45;a34e&#45;8983db4f4bc9&#45;&gt;e86430e6&#45;5744&#45;4508&#45;9355&#45;9caabee0b78b -->
<g id="edge11" class="edge">
<title>feef1b47&#45;213f&#45;4d13&#45;a34e&#45;8983db4f4bc9&#45;&gt;e86430e6&#45;5744&#45;4508&#45;9355&#45;9caabee0b78b</title>
<path fill="none" stroke="black" d="M660,-1003.81C660,-995.79 660,-986.05 660,-977.07"/>
<polygon fill="black" stroke="black" points="663.5,-977.03 660,-967.03 656.5,-977.03 663.5,-977.03"/>
</g>
<!-- 3e762caf&#45;a8eb&#45;4a33&#45;912b&#45;9fcb24e89896 -->
<g id="node14" class="node">
<title>3e762caf&#45;a8eb&#45;4a33&#45;912b&#45;9fcb24e89896</title>
<ellipse fill="none" stroke="black" cx="660" cy="-876" rx="74.61" ry="18"/>
<text text-anchor="middle" x="660" y="-872.3" font-family="Times,serif" font-size="14.00">StraightMovement</text>
</g>
<!-- e86430e6&#45;5744&#45;4508&#45;9355&#45;9caabee0b78b&#45;&gt;3e762caf&#45;a8eb&#45;4a33&#45;912b&#45;9fcb24e89896 -->
<g id="edge14" class="edge">
<title>e86430e6&#45;5744&#45;4508&#45;9355&#45;9caabee0b78b&#45;&gt;3e762caf&#45;a8eb&#45;4a33&#45;912b&#45;9fcb24e89896</title>
<path fill="none" stroke="black" d="M660,-930.81C660,-922.79 660,-913.05 660,-904.07"/>
<polygon fill="black" stroke="black" points="663.5,-904.03 660,-894.03 656.5,-904.03 663.5,-904.03"/>
</g>
<!-- 3b14d119&#45;e344&#45;4906&#45;ac1b&#45;0956ac4c30da -->
<g id="node15" class="node">
<title>3b14d119&#45;e344&#45;4906&#45;ac1b&#45;0956ac4c30da</title>
<ellipse fill="none" stroke="black" cx="660" cy="-803" rx="47.1" ry="18"/>
<text text-anchor="middle" x="660" y="-799.3" font-family="Times,serif" font-size="14.00">DelayAction</text>
</g>
<!-- 3e762caf&#45;a8eb&#45;4a33&#45;912b&#45;9fcb24e89896&#45;&gt;3b14d119&#45;e344&#45;4906&#45;ac1b&#45;0956ac4c30da -->
<g id="edge12" class="edge">
<title>3e762caf&#45;a8eb&#45;4a33&#45;912b&#45;9fcb24e89896&#45;&gt;3b14d119&#45;e344&#45;4906&#45;ac1b&#45;0956ac4c30da</title>
<path fill="none" stroke="black" d="M660,-857.81C660,-849.79 660,-840.05 660,-831.07"/>
<polygon fill="black" stroke="black" points="663.5,-831.03 660,-821.03 656.5,-831.03 663.5,-831.03"/>
</g>
<!-- e1730a8c&#45;322c&#45;48ed&#45;a703&#45;610774b16d36 -->
<g id="node16" class="node">
<title>e1730a8c&#45;322c&#45;48ed&#45;a703&#45;610774b16d36</title>
<ellipse fill="none" stroke="black" cx="660" cy="-730" rx="59.9" ry="18"/>
<text text-anchor="middle" x="660" y="-726.3" font-family="Times,serif" font-size="14.00">ZeroMovement</text>
</g>
<!-- 3b14d119&#45;e344&#45;4906&#45;ac1b&#45;0956ac4c30da&#45;&gt;e1730a8c&#45;322c&#45;48ed&#45;a703&#45;610774b16d36 -->
<g id="edge13" class="edge">
<title>3b14d119&#45;e344&#45;4906&#45;ac1b&#45;0956ac4c30da&#45;&gt;e1730a8c&#45;322c&#45;48ed&#45;a703&#45;610774b16d36</title>
<path fill="none" stroke="black" d="M660,-784.81C660,-776.79 660,-767.05 660,-758.07"/>
<polygon fill="black" stroke="black" points="663.5,-758.03 660,-748.03 656.5,-758.03 663.5,-758.03"/>
</g>
<!-- e1730a8c&#45;322c&#45;48ed&#45;a703&#45;610774b16d36&#45;&gt;e0b1a953&#45;c263&#45;46e6&#45;aaf0&#45;f113a5e02010 -->
<g id="edge19" class="edge">
<title>e1730a8c&#45;322c&#45;48ed&#45;a703&#45;610774b16d36&#45;&gt;e0b1a953&#45;c263&#45;46e6&#45;aaf0&#45;f113a5e02010</title>
<path fill="none" stroke="black" d="M639.53,-712.83C624.07,-701.49 601.85,-686.98 580,-679 518.08,-656.38 442.38,-648.3 391.65,-645.46"/>
<polygon fill="black" stroke="black" points="391.7,-641.96 381.54,-644.94 391.35,-648.95 391.7,-641.96"/>
</g>
<!-- bce56320&#45;bdbd&#45;43b3&#45;821c&#45;e3b445bf7fe0 -->
<g id="node17" class="node">
<title>bce56320&#45;bdbd&#45;43b3&#45;821c&#45;e3b445bf7fe0</title>
<ellipse fill="none" stroke="black" cx="660" cy="-1095" rx="34.8" ry="18"/>
<text text-anchor="middle" x="660" y="-1091.3" font-family="Times,serif" font-size="14.00">WaitArm</text>
</g>
<!-- bce56320&#45;bdbd&#45;43b3&#45;821c&#45;e3b445bf7fe0&#45;&gt;feef1b47&#45;213f&#45;4d13&#45;a34e&#45;8983db4f4bc9 -->
<g id="edge15" class="edge">
<title>bce56320&#45;bdbd&#45;43b3&#45;821c&#45;e3b445bf7fe0&#45;&gt;feef1b47&#45;213f&#45;4d13&#45;a34e&#45;8983db4f4bc9</title>
<path fill="none" stroke="black" d="M660,-1076.81C660,-1068.79 660,-1059.05 660,-1050.07"/>
<polygon fill="black" stroke="black" points="663.5,-1050.03 660,-1040.03 656.5,-1050.03 663.5,-1050.03"/>
</g>
<!-- dc8fa032&#45;14bf&#45;4f70&#45;91b8&#45;1c366d06529d -->
<g id="node18" class="node">
<title>dc8fa032&#45;14bf&#45;4f70&#45;91b8&#45;1c366d06529d</title>
<ellipse fill="none" stroke="black" cx="430" cy="-556" rx="48.3" ry="18"/>
<text text-anchor="middle" x="430" y="-552.3" font-family="Times,serif" font-size="14.00">Detect Buoy</text>
</g>
<!-- dc8fa032&#45;14bf&#45;4f70&#45;91b8&#45;1c366d06529d&#45;&gt;06a92e97&#45;0a88&#45;4c58&#45;a8a9&#45;2ecb6336f3a6 -->
<g id="edge16" class="edge">
<title>dc8fa032&#45;14bf&#45;4f70&#45;91b8&#45;1c366d06529d&#45;&gt;06a92e97&#45;0a88&#45;4c58&#45;a8a9&#45;2ecb6336f3a6</title>
<path fill="none" stroke="purple" d="M442.64,-573.8C448.32,-583.35 453.11,-595.64 450,-607 442.63,-633.91 436.36,-640 418,-661 371.25,-714.49 299.68,-756.54 253.1,-780.34"/>
<polygon fill="purple" stroke="purple" points="251.49,-777.23 244.14,-784.85 254.64,-783.48 251.49,-777.23"/>
<text text-anchor="middle" x="434.5" y="-682.8" font-family="Times,serif" font-size="14.00" fill="purple">Pass Data</text>
</g>
<!-- e0b1a953&#45;c263&#45;46e6&#45;aaf0&#45;f113a5e02010&#45;&gt;dc8fa032&#45;14bf&#45;4f70&#45;91b8&#45;1c366d06529d -->
<g id="edge17" class="edge">
<title>e0b1a953&#45;c263&#45;46e6&#45;aaf0&#45;f113a5e02010&#45;&gt;dc8fa032&#45;14bf&#45;4f70&#45;91b8&#45;1c366d06529d</title>
<path fill="none" stroke="purple" d="M342.26,-625.14C347.43,-614.63 355.19,-601.37 365,-592 372.09,-585.23 380.74,-579.39 389.39,-574.52"/>
<polygon fill="purple" stroke="purple" points="391.12,-577.56 398.33,-569.79 387.85,-571.37 391.12,-577.56"/>
<text text-anchor="middle" x="400.5" y="-595.8" font-family="Times,serif" font-size="14.00" fill="purple">Pass Data</text>
</g>
</g>
</svg>
