<?xml version="1.0" encoding="UTF-8" standalone="no"?>
<!DOCTYPE svg PUBLIC "-//W3C//DTD SVG 1.1//EN"
 "http://www.w3.org/Graphics/SVG/1.1/DTD/svg11.dtd">
<!-- Generated by graphviz version 2.43.0 (0)
 -->
<!-- Title: G Pages: 1 -->
<svg width="430pt" height="552pt"
 viewBox="0.00 0.00 429.87 552.00" xmlns="http://www.w3.org/2000/svg" xmlns:xlink="http://www.w3.org/1999/xlink">
<g id="graph0" class="graph" transform="scale(1 1) rotate(0) translate(4 548)">
<title>G</title>
<polygon fill="transparent" stroke="transparent" points="-4,4 -4,-548 425.87,-548 425.87,4 -4,4"/>
<!-- 5226290b&#45;6e24&#45;43ca&#45;b9f4&#45;57b6387d70d0 -->
<g id="node1" class="node">
<title>5226290b&#45;6e24&#45;43ca&#45;b9f4&#45;57b6387d70d0</title>
<polygon fill="none" stroke="black" points="294.3,-384 166.67,-366 294.3,-348 421.93,-366 294.3,-384"/>
<text text-anchor="middle" x="294.3" y="-362.3" font-family="Times,serif" font-size="14.00">Consecutive True &lt; 28</text>
</g>
<!-- 39eaddb0&#45;0bd8&#45;4e43&#45;9d49&#45;f12221f19b77 -->
<g id="node5" class="node">
<title>39eaddb0&#45;0bd8&#45;4e43&#45;9d49&#45;f12221f19b77</title>
<ellipse fill="none" stroke="black" cx="97.3" cy="-279" rx="38.5" ry="18"/>
<text text-anchor="middle" x="97.3" y="-275.3" font-family="Times,serif" font-size="14.00">ConstYaw</text>
</g>
<!-- 5226290b&#45;6e24&#45;43ca&#45;b9f4&#45;57b6387d70d0&#45;&gt;39eaddb0&#45;0bd8&#45;4e43&#45;9d49&#45;f12221f19b77 -->
<g id="edge6" class="edge">
<title>5226290b&#45;6e24&#45;43ca&#45;b9f4&#45;57b6387d70d0&#45;&gt;39eaddb0&#45;0bd8&#45;4e43&#45;9d49&#45;f12221f19b77</title>
<path fill="none" stroke="black" d="M264.38,-352.09C229.5,-337.04 171.85,-312.16 134.22,-295.93"/>
<polygon fill="black" stroke="black" points="135.21,-292.54 124.64,-291.8 132.44,-298.97 135.21,-292.54"/>
<text text-anchor="middle" x="225.3" y="-318.8" font-family="Times,serif" font-size="14.00">True</text>
</g>
<!-- bda5628e&#45;8b1d&#45;4926&#45;ac78&#45;37572dfca82f -->
<g id="node8" class="node">
<title>bda5628e&#45;8b1d&#45;4926&#45;ac78&#45;37572dfca82f</title>
<ellipse fill="none" stroke="black" cx="294.3" cy="-279" rx="59.9" ry="18"/>
<text text-anchor="middle" x="294.3" y="-275.3" font-family="Times,serif" font-size="14.00">ZeroMovement</text>
</g>
<!-- 5226290b&#45;6e24&#45;43ca&#45;b9f4&#45;57b6387d70d0&#45;&gt;bda5628e&#45;8b1d&#45;4926&#45;ac78&#45;37572dfca82f -->
<g id="edge7" class="edge">
<title>5226290b&#45;6e24&#45;43ca&#45;b9f4&#45;57b6387d70d0&#45;&gt;bda5628e&#45;8b1d&#45;4926&#45;ac78&#45;37572dfca82f</title>
<path fill="none" stroke="black" d="M294.3,-347.8C294.3,-336.16 294.3,-320.55 294.3,-307.24"/>
<polygon fill="black" stroke="black" points="297.8,-307.18 294.3,-297.18 290.8,-307.18 297.8,-307.18"/>
<text text-anchor="middle" x="313.3" y="-318.8" font-family="Times,serif" font-size="14.00">False</text>
</g>
<!-- 9679d0f4&#45;8a8d&#45;4006&#45;845e&#45;15e31a1f94ef -->
<g id="node2" class="node">
<title>9679d0f4&#45;8a8d&#45;4006&#45;845e&#45;15e31a1f94ef</title>
<ellipse fill="none" stroke="black" cx="97.3" cy="-105" rx="36.1" ry="18"/>
<text text-anchor="middle" x="97.3" y="-101.3" font-family="Times,serif" font-size="14.00">SideMult</text>
</g>
<!-- 4f6e9678&#45;d87c&#45;46de&#45;b56d&#45;f1680d63ad5f -->
<g id="node3" class="node">
<title>4f6e9678&#45;d87c&#45;46de&#45;b56d&#45;f1680d63ad5f</title>
<ellipse fill="none" stroke="black" cx="97.3" cy="-18" rx="80.11" ry="18"/>
<text text-anchor="middle" x="97.3" y="-14.3" font-family="Times,serif" font-size="14.00">Stability2Movement</text>
</g>
<!-- 9679d0f4&#45;8a8d&#45;4006&#45;845e&#45;15e31a1f94ef&#45;&gt;4f6e9678&#45;d87c&#45;46de&#45;b56d&#45;f1680d63ad5f -->
<g id="edge1" class="edge">
<title>9679d0f4&#45;8a8d&#45;4006&#45;845e&#45;15e31a1f94ef&#45;&gt;4f6e9678&#45;d87c&#45;46de&#45;b56d&#45;f1680d63ad5f</title>
<path fill="none" stroke="purple" d="M97.3,-86.8C97.3,-75.16 97.3,-59.55 97.3,-46.24"/>
<polygon fill="purple" stroke="purple" points="100.8,-46.18 97.3,-36.18 93.8,-46.18 100.8,-46.18"/>
<text text-anchor="middle" x="132.8" y="-57.8" font-family="Times,serif" font-size="14.00" fill="purple">Pass Data</text>
</g>
<!-- ae9da92e&#45;429a&#45;47e6&#45;88ad&#45;2f624f7e3365 -->
<g id="node4" class="node">
<title>ae9da92e&#45;429a&#45;47e6&#45;88ad&#45;2f624f7e3365</title>
<ellipse fill="none" stroke="black" cx="97.3" cy="-192" rx="27" ry="18"/>
<text text-anchor="middle" x="97.3" y="-188.3" font-family="Times,serif" font-size="14.00">SetX</text>
</g>
<!-- ae9da92e&#45;429a&#45;47e6&#45;88ad&#45;2f624f7e3365&#45;&gt;9679d0f4&#45;8a8d&#45;4006&#45;845e&#45;15e31a1f94ef -->
<g id="edge2" class="edge">
<title>ae9da92e&#45;429a&#45;47e6&#45;88ad&#45;2f624f7e3365&#45;&gt;9679d0f4&#45;8a8d&#45;4006&#45;845e&#45;15e31a1f94ef</title>
<path fill="none" stroke="purple" d="M97.3,-173.8C97.3,-162.16 97.3,-146.55 97.3,-133.24"/>
<polygon fill="purple" stroke="purple" points="100.8,-133.18 97.3,-123.18 93.8,-133.18 100.8,-133.18"/>
<text text-anchor="middle" x="132.8" y="-144.8" font-family="Times,serif" font-size="14.00" fill="purple">Pass Data</text>
</g>
<!-- 39eaddb0&#45;0bd8&#45;4e43&#45;9d49&#45;f12221f19b77&#45;&gt;ae9da92e&#45;429a&#45;47e6&#45;88ad&#45;2f624f7e3365 -->
<g id="edge3" class="edge">
<title>39eaddb0&#45;0bd8&#45;4e43&#45;9d49&#45;f12221f19b77&#45;&gt;ae9da92e&#45;429a&#45;47e6&#45;88ad&#45;2f624f7e3365</title>
<path fill="none" stroke="purple" d="M97.3,-260.8C97.3,-249.16 97.3,-233.55 97.3,-220.24"/>
<polygon fill="purple" stroke="purple" points="100.8,-220.18 97.3,-210.18 93.8,-220.18 100.8,-220.18"/>
<text text-anchor="middle" x="132.8" y="-231.8" font-family="Times,serif" font-size="14.00" fill="purple">Pass Data</text>
</g>
<!-- 2e6a1f8e&#45;731f&#45;4dc7&#45;8344&#45;45a7d77d2893 -->
<g id="node6" class="node">
<title>2e6a1f8e&#45;731f&#45;4dc7&#45;8344&#45;45a7d77d2893</title>
<ellipse fill="none" stroke="black" cx="294.3" cy="-453" rx="46.4" ry="18"/>
<text text-anchor="middle" x="294.3" y="-449.3" font-family="Times,serif" font-size="14.00">AlwaysTrue</text>
</g>
<!-- 2e6a1f8e&#45;731f&#45;4dc7&#45;8344&#45;45a7d77d2893&#45;&gt;5226290b&#45;6e24&#45;43ca&#45;b9f4&#45;57b6387d70d0 -->
<g id="edge4" class="edge">
<title>2e6a1f8e&#45;731f&#45;4dc7&#45;8344&#45;45a7d77d2893&#45;&gt;5226290b&#45;6e24&#45;43ca&#45;b9f4&#45;57b6387d70d0</title>
<path fill="none" stroke="purple" d="M294.3,-434.8C294.3,-423.16 294.3,-407.55 294.3,-394.24"/>
<polygon fill="purple" stroke="purple" points="297.8,-394.18 294.3,-384.18 290.8,-394.18 297.8,-394.18"/>
<text text-anchor="middle" x="329.8" y="-405.8" font-family="Times,serif" font-size="14.00" fill="purple">Pass Data</text>
</g>
<!-- e19f8619&#45;4bc1&#45;494f&#45;bb58&#45;d0dbabf2fbc4 -->
<g id="node7" class="node">
<title>e19f8619&#45;4bc1&#45;494f&#45;bb58&#45;d0dbabf2fbc4</title>
<ellipse fill="none" stroke="black" cx="294.3" cy="-526" rx="47.1" ry="18"/>
<text text-anchor="middle" x="294.3" y="-522.3" font-family="Times,serif" font-size="14.00">DelayAction</text>
</g>
<!-- e19f8619&#45;4bc1&#45;494f&#45;bb58&#45;d0dbabf2fbc4&#45;&gt;2e6a1f8e&#45;731f&#45;4dc7&#45;8344&#45;45a7d77d2893 -->
<g id="edge5" class="edge">
<title>e19f8619&#45;4bc1&#45;494f&#45;bb58&#45;d0dbabf2fbc4&#45;&gt;2e6a1f8e&#45;731f&#45;4dc7&#45;8344&#45;45a7d77d2893</title>
<path fill="none" stroke="black" d="M294.3,-507.81C294.3,-499.79 294.3,-490.05 294.3,-481.07"/>
<polygon fill="black" stroke="black" points="297.8,-481.03 294.3,-471.03 290.8,-481.03 297.8,-481.03"/>
</g>
<!-- acb9b458&#45;d5f6&#45;4970&#45;a1aa&#45;fcd3e955c748 -->
<g id="node9" class="node">
<title>acb9b458&#45;d5f6&#45;4970&#45;a1aa&#45;fcd3e955c748</title>
<ellipse fill="none" stroke="black" cx="47.3" cy="-366" rx="47.1" ry="18"/>
<text text-anchor="middle" x="47.3" y="-362.3" font-family="Times,serif" font-size="14.00">DelayAction</text>
</g>
<!-- acb9b458&#45;d5f6&#45;4970&#45;a1aa&#45;fcd3e955c748&#45;&gt;39eaddb0&#45;0bd8&#45;4e43&#45;9d49&#45;f12221f19b77 -->
<g id="edge8" class="edge">
<title>acb9b458&#45;d5f6&#45;4970&#45;a1aa&#45;fcd3e955c748&#45;&gt;39eaddb0&#45;0bd8&#45;4e43&#45;9d49&#45;f12221f19b77</title>
<path fill="none" stroke="black" d="M57.18,-348.21C64.42,-335.9 74.36,-319 82.54,-305.09"/>
<polygon fill="black" stroke="black" points="85.56,-306.86 87.61,-296.47 79.53,-303.31 85.56,-306.86"/>
</g>
<!-- 6aa779b0&#45;b53f&#45;4b95&#45;8328&#45;77d433da3021 -->
<g id="node10" class="node">
<title>6aa779b0&#45;b53f&#45;4b95&#45;8328&#45;77d433da3021</title>
<ellipse fill="none" stroke="black" cx="47.3" cy="-453" rx="33.6" ry="18"/>
<text text-anchor="middle" x="47.3" y="-449.3" font-family="Times,serif" font-size="14.00">Descend</text>
</g>
<!-- 6aa779b0&#45;b53f&#45;4b95&#45;8328&#45;77d433da3021&#45;&gt;acb9b458&#45;d5f6&#45;4970&#45;a1aa&#45;fcd3e955c748 -->
<g id="edge9" class="edge">
<title>6aa779b0&#45;b53f&#45;4b95&#45;8328&#45;77d433da3021&#45;&gt;acb9b458&#45;d5f6&#45;4970&#45;a1aa&#45;fcd3e955c748</title>
<path fill="none" stroke="black" d="M47.3,-434.8C47.3,-423.16 47.3,-407.55 47.3,-394.24"/>
<polygon fill="black" stroke="black" points="50.8,-394.18 47.3,-384.18 43.8,-394.18 50.8,-394.18"/>
</g>
</g>
</svg>
