<?xml version="1.0" encoding="UTF-8" standalone="no"?>
<!DOCTYPE svg PUBLIC "-//W3C//DTD SVG 1.1//EN"
 "http://www.w3.org/Graphics/SVG/1.1/DTD/svg11.dtd">
<!-- Generated by graphviz version 2.43.0 (0)
 -->
<!-- Title: G Pages: 1 -->
<svg width="583pt" height="552pt"
 viewBox="0.00 0.00 582.60 552.00" xmlns="http://www.w3.org/2000/svg" xmlns:xlink="http://www.w3.org/1999/xlink">
<g id="graph0" class="graph" transform="scale(1 1) rotate(0) translate(4 548)">
<title>G</title>
<polygon fill="transparent" stroke="transparent" points="-4,4 -4,-548 578.6,-548 578.6,4 -4,4"/>
<!-- 4e4df581&#45;3ba9&#45;4e16&#45;abb7&#45;10e83bb43c11 -->
<g id="node1" class="node">
<title>4e4df581&#45;3ba9&#45;4e16&#45;abb7&#45;10e83bb43c11</title>
<polygon fill="none" stroke="black" points="294.3,-384 166.67,-366 294.3,-348 421.93,-366 294.3,-384"/>
<text text-anchor="middle" x="294.3" y="-362.3" font-family="Times,serif" font-size="14.00">Consecutive True &lt; 34</text>
</g>
<!-- 3986f877&#45;9762&#45;4965&#45;b686&#45;b0729223afde -->
<g id="node5" class="node">
<title>3986f877&#45;9762&#45;4965&#45;b686&#45;b0729223afde</title>
<ellipse fill="none" stroke="black" cx="86.3" cy="-279" rx="38.5" ry="18"/>
<text text-anchor="middle" x="86.3" y="-275.3" font-family="Times,serif" font-size="14.00">ConstYaw</text>
</g>
<!-- 4e4df581&#45;3ba9&#45;4e16&#45;abb7&#45;10e83bb43c11&#45;&gt;3986f877&#45;9762&#45;4965&#45;b686&#45;b0729223afde -->
<g id="edge6" class="edge">
<title>4e4df581&#45;3ba9&#45;4e16&#45;abb7&#45;10e83bb43c11&#45;&gt;3986f877&#45;9762&#45;4965&#45;b686&#45;b0729223afde</title>
<path fill="none" stroke="black" d="M263.16,-352.27C225.89,-337.04 163.53,-311.56 123.69,-295.28"/>
<polygon fill="black" stroke="black" points="124.9,-291.99 114.32,-291.45 122.25,-298.47 124.9,-291.99"/>
<text text-anchor="middle" x="220.3" y="-318.8" font-family="Times,serif" font-size="14.00">True</text>
</g>
<!-- 79c52ac8&#45;00ba&#45;4341&#45;bf56&#45;bcf4e43b0a8c -->
<g id="node8" class="node">
<title>79c52ac8&#45;00ba&#45;4341&#45;bf56&#45;bcf4e43b0a8c</title>
<ellipse fill="none" stroke="black" cx="294.3" cy="-279" rx="59.9" ry="18"/>
<text text-anchor="middle" x="294.3" y="-275.3" font-family="Times,serif" font-size="14.00">ZeroMovement</text>
</g>
<!-- 4e4df581&#45;3ba9&#45;4e16&#45;abb7&#45;10e83bb43c11&#45;&gt;79c52ac8&#45;00ba&#45;4341&#45;bf56&#45;bcf4e43b0a8c -->
<g id="edge7" class="edge">
<title>4e4df581&#45;3ba9&#45;4e16&#45;abb7&#45;10e83bb43c11&#45;&gt;79c52ac8&#45;00ba&#45;4341&#45;bf56&#45;bcf4e43b0a8c</title>
<path fill="none" stroke="black" d="M294.3,-347.8C294.3,-336.16 294.3,-320.55 294.3,-307.24"/>
<polygon fill="black" stroke="black" points="297.8,-307.18 294.3,-297.18 290.8,-307.18 297.8,-307.18"/>
<text text-anchor="middle" x="313.3" y="-318.8" font-family="Times,serif" font-size="14.00">False</text>
</g>
<!-- a54a71db&#45;c67e&#45;4251&#45;8811&#45;2242f6d91d2b -->
<g id="node2" class="node">
<title>a54a71db&#45;c67e&#45;4251&#45;8811&#45;2242f6d91d2b</title>
<ellipse fill="none" stroke="black" cx="86.3" cy="-105" rx="36.1" ry="18"/>
<text text-anchor="middle" x="86.3" y="-101.3" font-family="Times,serif" font-size="14.00">SideMult</text>
</g>
<!-- e353678f&#45;7c36&#45;4f71&#45;a88d&#45;1ec1f801453c -->
<g id="node3" class="node">
<title>e353678f&#45;7c36&#45;4f71&#45;a88d&#45;1ec1f801453c</title>
<ellipse fill="none" stroke="black" cx="86.3" cy="-18" rx="80.11" ry="18"/>
<text text-anchor="middle" x="86.3" y="-14.3" font-family="Times,serif" font-size="14.00">Stability2Movement</text>
</g>
<!-- a54a71db&#45;c67e&#45;4251&#45;8811&#45;2242f6d91d2b&#45;&gt;e353678f&#45;7c36&#45;4f71&#45;a88d&#45;1ec1f801453c -->
<g id="edge1" class="edge">
<title>a54a71db&#45;c67e&#45;4251&#45;8811&#45;2242f6d91d2b&#45;&gt;e353678f&#45;7c36&#45;4f71&#45;a88d&#45;1ec1f801453c</title>
<path fill="none" stroke="purple" d="M86.3,-86.8C86.3,-75.16 86.3,-59.55 86.3,-46.24"/>
<polygon fill="purple" stroke="purple" points="89.8,-46.18 86.3,-36.18 82.8,-46.18 89.8,-46.18"/>
<text text-anchor="middle" x="121.8" y="-57.8" font-family="Times,serif" font-size="14.00" fill="purple">Pass Data</text>
</g>
<!-- 0a4b4d03&#45;eae2&#45;4f22&#45;9591&#45;b6346b44a4b0 -->
<g id="node4" class="node">
<title>0a4b4d03&#45;eae2&#45;4f22&#45;9591&#45;b6346b44a4b0</title>
<ellipse fill="none" stroke="black" cx="86.3" cy="-192" rx="27" ry="18"/>
<text text-anchor="middle" x="86.3" y="-188.3" font-family="Times,serif" font-size="14.00">SetX</text>
</g>
<!-- 0a4b4d03&#45;eae2&#45;4f22&#45;9591&#45;b6346b44a4b0&#45;&gt;a54a71db&#45;c67e&#45;4251&#45;8811&#45;2242f6d91d2b -->
<g id="edge2" class="edge">
<title>0a4b4d03&#45;eae2&#45;4f22&#45;9591&#45;b6346b44a4b0&#45;&gt;a54a71db&#45;c67e&#45;4251&#45;8811&#45;2242f6d91d2b</title>
<path fill="none" stroke="purple" d="M86.3,-173.8C86.3,-162.16 86.3,-146.55 86.3,-133.24"/>
<polygon fill="purple" stroke="purple" points="89.8,-133.18 86.3,-123.18 82.8,-133.18 89.8,-133.18"/>
<text text-anchor="middle" x="121.8" y="-144.8" font-family="Times,serif" font-size="14.00" fill="purple">Pass Data</text>
</g>
<!-- 3986f877&#45;9762&#45;4965&#45;b686&#45;b0729223afde&#45;&gt;0a4b4d03&#45;eae2&#45;4f22&#45;9591&#45;b6346b44a4b0 -->
<g id="edge3" class="edge">
<title>3986f877&#45;9762&#45;4965&#45;b686&#45;b0729223afde&#45;&gt;0a4b4d03&#45;eae2&#45;4f22&#45;9591&#45;b6346b44a4b0</title>
<path fill="none" stroke="purple" d="M86.3,-260.8C86.3,-249.16 86.3,-233.55 86.3,-220.24"/>
<polygon fill="purple" stroke="purple" points="89.8,-220.18 86.3,-210.18 82.8,-220.18 89.8,-220.18"/>
<text text-anchor="middle" x="121.8" y="-231.8" font-family="Times,serif" font-size="14.00" fill="purple">Pass Data</text>
</g>
<!-- d611f4be&#45;a90d&#45;417f&#45;b206&#45;6266b4b9bec1 -->
<g id="node6" class="node">
<title>d611f4be&#45;a90d&#45;417f&#45;b206&#45;6266b4b9bec1</title>
<ellipse fill="none" stroke="black" cx="294.3" cy="-453" rx="46.4" ry="18"/>
<text text-anchor="middle" x="294.3" y="-449.3" font-family="Times,serif" font-size="14.00">AlwaysTrue</text>
</g>
<!-- d611f4be&#45;a90d&#45;417f&#45;b206&#45;6266b4b9bec1&#45;&gt;4e4df581&#45;3ba9&#45;4e16&#45;abb7&#45;10e83bb43c11 -->
<g id="edge4" class="edge">
<title>d611f4be&#45;a90d&#45;417f&#45;b206&#45;6266b4b9bec1&#45;&gt;4e4df581&#45;3ba9&#45;4e16&#45;abb7&#45;10e83bb43c11</title>
<path fill="none" stroke="purple" d="M294.3,-434.8C294.3,-423.16 294.3,-407.55 294.3,-394.24"/>
<polygon fill="purple" stroke="purple" points="297.8,-394.18 294.3,-384.18 290.8,-394.18 297.8,-394.18"/>
<text text-anchor="middle" x="329.8" y="-405.8" font-family="Times,serif" font-size="14.00" fill="purple">Pass Data</text>
</g>
<!-- 3a19e0a7&#45;0f20&#45;473d&#45;b54c&#45;064ff90b1ca1 -->
<g id="node7" class="node">
<title>3a19e0a7&#45;0f20&#45;473d&#45;b54c&#45;064ff90b1ca1</title>
<ellipse fill="none" stroke="black" cx="294.3" cy="-526" rx="47.1" ry="18"/>
<text text-anchor="middle" x="294.3" y="-522.3" font-family="Times,serif" font-size="14.00">DelayAction</text>
</g>
<!-- 3a19e0a7&#45;0f20&#45;473d&#45;b54c&#45;064ff90b1ca1&#45;&gt;d611f4be&#45;a90d&#45;417f&#45;b206&#45;6266b4b9bec1 -->
<g id="edge5" class="edge">
<title>3a19e0a7&#45;0f20&#45;473d&#45;b54c&#45;064ff90b1ca1&#45;&gt;d611f4be&#45;a90d&#45;417f&#45;b206&#45;6266b4b9bec1</title>
<path fill="none" stroke="black" d="M294.3,-507.81C294.3,-499.79 294.3,-490.05 294.3,-481.07"/>
<polygon fill="black" stroke="black" points="297.8,-481.03 294.3,-471.03 290.8,-481.03 297.8,-481.03"/>
</g>
<!-- 212df54d&#45;2fd9&#45;414f&#45;b82d&#45;e5fb9a917562 -->
<g id="node9" class="node">
<title>212df54d&#45;2fd9&#45;414f&#45;b82d&#45;e5fb9a917562</title>
<ellipse fill="none" stroke="black" cx="47.3" cy="-366" rx="47.1" ry="18"/>
<text text-anchor="middle" x="47.3" y="-362.3" font-family="Times,serif" font-size="14.00">DelayAction</text>
</g>
<!-- 212df54d&#45;2fd9&#45;414f&#45;b82d&#45;e5fb9a917562&#45;&gt;3986f877&#45;9762&#45;4965&#45;b686&#45;b0729223afde -->
<g id="edge8" class="edge">
<title>212df54d&#45;2fd9&#45;414f&#45;b82d&#45;e5fb9a917562&#45;&gt;3986f877&#45;9762&#45;4965&#45;b686&#45;b0729223afde</title>
<path fill="none" stroke="black" d="M55.01,-348.21C60.51,-336.22 68.02,-319.85 74.3,-306.16"/>
<polygon fill="black" stroke="black" points="77.62,-307.31 78.61,-296.76 71.26,-304.39 77.62,-307.31"/>
</g>
<!-- 7e232712&#45;a7c9&#45;4e83&#45;8b48&#45;dde1ebefc39b -->
<g id="node10" class="node">
<title>7e232712&#45;a7c9&#45;4e83&#45;8b48&#45;dde1ebefc39b</title>
<ellipse fill="none" stroke="black" cx="494.3" cy="-526" rx="80.11" ry="18"/>
<text text-anchor="middle" x="494.3" y="-522.3" font-family="Times,serif" font-size="14.00">Stability2Movement</text>
</g>
</g>
</svg>
