<?xml version="1.0" encoding="UTF-8" standalone="no"?>
<!DOCTYPE svg PUBLIC "-//W3C//DTD SVG 1.1//EN"
 "http://www.w3.org/Graphics/SVG/1.1/DTD/svg11.dtd">
<!-- Generated by graphviz version 2.43.0 (0)
 -->
<!-- Title: G Pages: 1 -->
<svg width="430pt" height="552pt"
 viewBox="0.00 0.00 429.87 552.00" xmlns="http://www.w3.org/2000/svg" xmlns:xlink="http://www.w3.org/1999/xlink">
<g id="graph0" class="graph" transform="scale(1 1) rotate(0) translate(4 548)">
<title>G</title>
<polygon fill="transparent" stroke="transparent" points="-4,4 -4,-548 425.87,-548 425.87,4 -4,4"/>
<!-- 89b70a6a&#45;359b&#45;4eb5&#45;b12f&#45;20d6151080cf -->
<g id="node1" class="node">
<title>89b70a6a&#45;359b&#45;4eb5&#45;b12f&#45;20d6151080cf</title>
<polygon fill="none" stroke="black" points="294.3,-384 166.67,-366 294.3,-348 421.93,-366 294.3,-384"/>
<text text-anchor="middle" x="294.3" y="-362.3" font-family="Times,serif" font-size="14.00">Consecutive True &lt; 28</text>
</g>
<!-- 87ad200c&#45;88ed&#45;4e89&#45;ad0f&#45;8ba9f691c4a4 -->
<g id="node5" class="node">
<title>87ad200c&#45;88ed&#45;4e89&#45;ad0f&#45;8ba9f691c4a4</title>
<ellipse fill="none" stroke="black" cx="97.3" cy="-279" rx="38.5" ry="18"/>
<text text-anchor="middle" x="97.3" y="-275.3" font-family="Times,serif" font-size="14.00">ConstYaw</text>
</g>
<!-- 89b70a6a&#45;359b&#45;4eb5&#45;b12f&#45;20d6151080cf&#45;&gt;87ad200c&#45;88ed&#45;4e89&#45;ad0f&#45;8ba9f691c4a4 -->
<g id="edge6" class="edge">
<title>89b70a6a&#45;359b&#45;4eb5&#45;b12f&#45;20d6151080cf&#45;&gt;87ad200c&#45;88ed&#45;4e89&#45;ad0f&#45;8ba9f691c4a4</title>
<path fill="none" stroke="black" d="M264.38,-352.09C229.5,-337.04 171.85,-312.16 134.22,-295.93"/>
<polygon fill="black" stroke="black" points="135.21,-292.54 124.64,-291.8 132.44,-298.97 135.21,-292.54"/>
<text text-anchor="middle" x="225.3" y="-318.8" font-family="Times,serif" font-size="14.00">True</text>
</g>
<!-- 14f89bde&#45;e093&#45;4333&#45;ae1b&#45;3071e87e19d4 -->
<g id="node8" class="node">
<title>14f89bde&#45;e093&#45;4333&#45;ae1b&#45;3071e87e19d4</title>
<ellipse fill="none" stroke="black" cx="294.3" cy="-279" rx="59.9" ry="18"/>
<text text-anchor="middle" x="294.3" y="-275.3" font-family="Times,serif" font-size="14.00">ZeroMovement</text>
</g>
<!-- 89b70a6a&#45;359b&#45;4eb5&#45;b12f&#45;20d6151080cf&#45;&gt;14f89bde&#45;e093&#45;4333&#45;ae1b&#45;3071e87e19d4 -->
<g id="edge7" class="edge">
<title>89b70a6a&#45;359b&#45;4eb5&#45;b12f&#45;20d6151080cf&#45;&gt;14f89bde&#45;e093&#45;4333&#45;ae1b&#45;3071e87e19d4</title>
<path fill="none" stroke="black" d="M294.3,-347.8C294.3,-336.16 294.3,-320.55 294.3,-307.24"/>
<polygon fill="black" stroke="black" points="297.8,-307.18 294.3,-297.18 290.8,-307.18 297.8,-307.18"/>
<text text-anchor="middle" x="313.3" y="-318.8" font-family="Times,serif" font-size="14.00">False</text>
</g>
<!-- c2ff5624&#45;5e84&#45;42ed&#45;8fe3&#45;4739e9693b10 -->
<g id="node2" class="node">
<title>c2ff5624&#45;5e84&#45;42ed&#45;8fe3&#45;4739e9693b10</title>
<ellipse fill="none" stroke="black" cx="97.3" cy="-105" rx="36.1" ry="18"/>
<text text-anchor="middle" x="97.3" y="-101.3" font-family="Times,serif" font-size="14.00">SideMult</text>
</g>
<!-- 3c0ae7d8&#45;1c7b&#45;4bae&#45;848b&#45;ad83609ac599 -->
<g id="node3" class="node">
<title>3c0ae7d8&#45;1c7b&#45;4bae&#45;848b&#45;ad83609ac599</title>
<ellipse fill="none" stroke="black" cx="97.3" cy="-18" rx="80.11" ry="18"/>
<text text-anchor="middle" x="97.3" y="-14.3" font-family="Times,serif" font-size="14.00">Stability2Movement</text>
</g>
<!-- c2ff5624&#45;5e84&#45;42ed&#45;8fe3&#45;4739e9693b10&#45;&gt;3c0ae7d8&#45;1c7b&#45;4bae&#45;848b&#45;ad83609ac599 -->
<g id="edge1" class="edge">
<title>c2ff5624&#45;5e84&#45;42ed&#45;8fe3&#45;4739e9693b10&#45;&gt;3c0ae7d8&#45;1c7b&#45;4bae&#45;848b&#45;ad83609ac599</title>
<path fill="none" stroke="purple" d="M97.3,-86.8C97.3,-75.16 97.3,-59.55 97.3,-46.24"/>
<polygon fill="purple" stroke="purple" points="100.8,-46.18 97.3,-36.18 93.8,-46.18 100.8,-46.18"/>
<text text-anchor="middle" x="132.8" y="-57.8" font-family="Times,serif" font-size="14.00" fill="purple">Pass Data</text>
</g>
<!-- 666e79ee&#45;a970&#45;4509&#45;8abc&#45;bf346486b4f4 -->
<g id="node4" class="node">
<title>666e79ee&#45;a970&#45;4509&#45;8abc&#45;bf346486b4f4</title>
<ellipse fill="none" stroke="black" cx="97.3" cy="-192" rx="27" ry="18"/>
<text text-anchor="middle" x="97.3" y="-188.3" font-family="Times,serif" font-size="14.00">SetX</text>
</g>
<!-- 666e79ee&#45;a970&#45;4509&#45;8abc&#45;bf346486b4f4&#45;&gt;c2ff5624&#45;5e84&#45;42ed&#45;8fe3&#45;4739e9693b10 -->
<g id="edge2" class="edge">
<title>666e79ee&#45;a970&#45;4509&#45;8abc&#45;bf346486b4f4&#45;&gt;c2ff5624&#45;5e84&#45;42ed&#45;8fe3&#45;4739e9693b10</title>
<path fill="none" stroke="purple" d="M97.3,-173.8C97.3,-162.16 97.3,-146.55 97.3,-133.24"/>
<polygon fill="purple" stroke="purple" points="100.8,-133.18 97.3,-123.18 93.8,-133.18 100.8,-133.18"/>
<text text-anchor="middle" x="132.8" y="-144.8" font-family="Times,serif" font-size="14.00" fill="purple">Pass Data</text>
</g>
<!-- 87ad200c&#45;88ed&#45;4e89&#45;ad0f&#45;8ba9f691c4a4&#45;&gt;666e79ee&#45;a970&#45;4509&#45;8abc&#45;bf346486b4f4 -->
<g id="edge3" class="edge">
<title>87ad200c&#45;88ed&#45;4e89&#45;ad0f&#45;8ba9f691c4a4&#45;&gt;666e79ee&#45;a970&#45;4509&#45;8abc&#45;bf346486b4f4</title>
<path fill="none" stroke="purple" d="M97.3,-260.8C97.3,-249.16 97.3,-233.55 97.3,-220.24"/>
<polygon fill="purple" stroke="purple" points="100.8,-220.18 97.3,-210.18 93.8,-220.18 100.8,-220.18"/>
<text text-anchor="middle" x="132.8" y="-231.8" font-family="Times,serif" font-size="14.00" fill="purple">Pass Data</text>
</g>
<!-- 20d34732&#45;32f8&#45;43aa&#45;b45d&#45;8313070ab9df -->
<g id="node6" class="node">
<title>20d34732&#45;32f8&#45;43aa&#45;b45d&#45;8313070ab9df</title>
<ellipse fill="none" stroke="black" cx="294.3" cy="-453" rx="46.4" ry="18"/>
<text text-anchor="middle" x="294.3" y="-449.3" font-family="Times,serif" font-size="14.00">AlwaysTrue</text>
</g>
<!-- 20d34732&#45;32f8&#45;43aa&#45;b45d&#45;8313070ab9df&#45;&gt;89b70a6a&#45;359b&#45;4eb5&#45;b12f&#45;20d6151080cf -->
<g id="edge4" class="edge">
<title>20d34732&#45;32f8&#45;43aa&#45;b45d&#45;8313070ab9df&#45;&gt;89b70a6a&#45;359b&#45;4eb5&#45;b12f&#45;20d6151080cf</title>
<path fill="none" stroke="purple" d="M294.3,-434.8C294.3,-423.16 294.3,-407.55 294.3,-394.24"/>
<polygon fill="purple" stroke="purple" points="297.8,-394.18 294.3,-384.18 290.8,-394.18 297.8,-394.18"/>
<text text-anchor="middle" x="329.8" y="-405.8" font-family="Times,serif" font-size="14.00" fill="purple">Pass Data</text>
</g>
<!-- ece1cfd5&#45;c99a&#45;4fa5&#45;886a&#45;c9afdb6e8449 -->
<g id="node7" class="node">
<title>ece1cfd5&#45;c99a&#45;4fa5&#45;886a&#45;c9afdb6e8449</title>
<ellipse fill="none" stroke="black" cx="294.3" cy="-526" rx="47.1" ry="18"/>
<text text-anchor="middle" x="294.3" y="-522.3" font-family="Times,serif" font-size="14.00">DelayAction</text>
</g>
<!-- ece1cfd5&#45;c99a&#45;4fa5&#45;886a&#45;c9afdb6e8449&#45;&gt;20d34732&#45;32f8&#45;43aa&#45;b45d&#45;8313070ab9df -->
<g id="edge5" class="edge">
<title>ece1cfd5&#45;c99a&#45;4fa5&#45;886a&#45;c9afdb6e8449&#45;&gt;20d34732&#45;32f8&#45;43aa&#45;b45d&#45;8313070ab9df</title>
<path fill="none" stroke="black" d="M294.3,-507.81C294.3,-499.79 294.3,-490.05 294.3,-481.07"/>
<polygon fill="black" stroke="black" points="297.8,-481.03 294.3,-471.03 290.8,-481.03 297.8,-481.03"/>
</g>
<!-- 3f7dca44&#45;174a&#45;475e&#45;95f1&#45;934d8e8faf01 -->
<g id="node9" class="node">
<title>3f7dca44&#45;174a&#45;475e&#45;95f1&#45;934d8e8faf01</title>
<ellipse fill="none" stroke="black" cx="47.3" cy="-366" rx="47.1" ry="18"/>
<text text-anchor="middle" x="47.3" y="-362.3" font-family="Times,serif" font-size="14.00">DelayAction</text>
</g>
<!-- 3f7dca44&#45;174a&#45;475e&#45;95f1&#45;934d8e8faf01&#45;&gt;87ad200c&#45;88ed&#45;4e89&#45;ad0f&#45;8ba9f691c4a4 -->
<g id="edge8" class="edge">
<title>3f7dca44&#45;174a&#45;475e&#45;95f1&#45;934d8e8faf01&#45;&gt;87ad200c&#45;88ed&#45;4e89&#45;ad0f&#45;8ba9f691c4a4</title>
<path fill="none" stroke="black" d="M57.18,-348.21C64.42,-335.9 74.36,-319 82.54,-305.09"/>
<polygon fill="black" stroke="black" points="85.56,-306.86 87.61,-296.47 79.53,-303.31 85.56,-306.86"/>
</g>
<!-- 46da47fa&#45;dfee&#45;41c8&#45;88e2&#45;01c36e1f0786 -->
<g id="node10" class="node">
<title>46da47fa&#45;dfee&#45;41c8&#45;88e2&#45;01c36e1f0786</title>
<ellipse fill="none" stroke="black" cx="47.3" cy="-453" rx="33.6" ry="18"/>
<text text-anchor="middle" x="47.3" y="-449.3" font-family="Times,serif" font-size="14.00">Descend</text>
</g>
<!-- 46da47fa&#45;dfee&#45;41c8&#45;88e2&#45;01c36e1f0786&#45;&gt;3f7dca44&#45;174a&#45;475e&#45;95f1&#45;934d8e8faf01 -->
<g id="edge9" class="edge">
<title>46da47fa&#45;dfee&#45;41c8&#45;88e2&#45;01c36e1f0786&#45;&gt;3f7dca44&#45;174a&#45;475e&#45;95f1&#45;934d8e8faf01</title>
<path fill="none" stroke="black" d="M47.3,-434.8C47.3,-423.16 47.3,-407.55 47.3,-394.24"/>
<polygon fill="black" stroke="black" points="50.8,-394.18 47.3,-384.18 43.8,-394.18 50.8,-394.18"/>
</g>
</g>
</svg>
