<?xml version="1.0" encoding="UTF-8" standalone="no"?>
<!DOCTYPE svg PUBLIC "-//W3C//DTD SVG 1.1//EN"
 "http://www.w3.org/Graphics/SVG/1.1/DTD/svg11.dtd">
<!-- Generated by graphviz version 2.43.0 (0)
 -->
<!-- Title: G Pages: 1 -->
<svg width="430pt" height="552pt"
 viewBox="0.00 0.00 429.87 552.00" xmlns="http://www.w3.org/2000/svg" xmlns:xlink="http://www.w3.org/1999/xlink">
<g id="graph0" class="graph" transform="scale(1 1) rotate(0) translate(4 548)">
<title>G</title>
<polygon fill="transparent" stroke="transparent" points="-4,4 -4,-548 425.87,-548 425.87,4 -4,4"/>
<!-- 7cec562f&#45;281e&#45;41f9&#45;9956&#45;145db37f5845 -->
<g id="node1" class="node">
<title>7cec562f&#45;281e&#45;41f9&#45;9956&#45;145db37f5845</title>
<polygon fill="none" stroke="black" points="294.3,-384 166.67,-366 294.3,-348 421.93,-366 294.3,-384"/>
<text text-anchor="middle" x="294.3" y="-362.3" font-family="Times,serif" font-size="14.00">Consecutive True &lt; 28</text>
</g>
<!-- 47cd0db0&#45;d781&#45;4d3f&#45;a467&#45;bbfbdf1e6d50 -->
<g id="node5" class="node">
<title>47cd0db0&#45;d781&#45;4d3f&#45;a467&#45;bbfbdf1e6d50</title>
<ellipse fill="none" stroke="black" cx="97.3" cy="-279" rx="38.5" ry="18"/>
<text text-anchor="middle" x="97.3" y="-275.3" font-family="Times,serif" font-size="14.00">ConstYaw</text>
</g>
<!-- 7cec562f&#45;281e&#45;41f9&#45;9956&#45;145db37f5845&#45;&gt;47cd0db0&#45;d781&#45;4d3f&#45;a467&#45;bbfbdf1e6d50 -->
<g id="edge6" class="edge">
<title>7cec562f&#45;281e&#45;41f9&#45;9956&#45;145db37f5845&#45;&gt;47cd0db0&#45;d781&#45;4d3f&#45;a467&#45;bbfbdf1e6d50</title>
<path fill="none" stroke="black" d="M264.38,-352.09C229.5,-337.04 171.85,-312.16 134.22,-295.93"/>
<polygon fill="black" stroke="black" points="135.21,-292.54 124.64,-291.8 132.44,-298.97 135.21,-292.54"/>
<text text-anchor="middle" x="225.3" y="-318.8" font-family="Times,serif" font-size="14.00">True</text>
</g>
<!-- d2d144b3&#45;558d&#45;4dc1&#45;9788&#45;5254455a1e13 -->
<g id="node8" class="node">
<title>d2d144b3&#45;558d&#45;4dc1&#45;9788&#45;5254455a1e13</title>
<ellipse fill="none" stroke="black" cx="294.3" cy="-279" rx="59.9" ry="18"/>
<text text-anchor="middle" x="294.3" y="-275.3" font-family="Times,serif" font-size="14.00">ZeroMovement</text>
</g>
<!-- 7cec562f&#45;281e&#45;41f9&#45;9956&#45;145db37f5845&#45;&gt;d2d144b3&#45;558d&#45;4dc1&#45;9788&#45;5254455a1e13 -->
<g id="edge7" class="edge">
<title>7cec562f&#45;281e&#45;41f9&#45;9956&#45;145db37f5845&#45;&gt;d2d144b3&#45;558d&#45;4dc1&#45;9788&#45;5254455a1e13</title>
<path fill="none" stroke="black" d="M294.3,-347.8C294.3,-336.16 294.3,-320.55 294.3,-307.24"/>
<polygon fill="black" stroke="black" points="297.8,-307.18 294.3,-297.18 290.8,-307.18 297.8,-307.18"/>
<text text-anchor="middle" x="313.3" y="-318.8" font-family="Times,serif" font-size="14.00">False</text>
</g>
<!-- 83cd2a46&#45;b0e3&#45;4479&#45;8edd&#45;6e998b0df88c -->
<g id="node2" class="node">
<title>83cd2a46&#45;b0e3&#45;4479&#45;8edd&#45;6e998b0df88c</title>
<ellipse fill="none" stroke="black" cx="97.3" cy="-105" rx="36.1" ry="18"/>
<text text-anchor="middle" x="97.3" y="-101.3" font-family="Times,serif" font-size="14.00">SideMult</text>
</g>
<!-- b597887d&#45;4bb4&#45;4175&#45;980f&#45;3fa2805bea4b -->
<g id="node3" class="node">
<title>b597887d&#45;4bb4&#45;4175&#45;980f&#45;3fa2805bea4b</title>
<ellipse fill="none" stroke="black" cx="97.3" cy="-18" rx="80.11" ry="18"/>
<text text-anchor="middle" x="97.3" y="-14.3" font-family="Times,serif" font-size="14.00">Stability2Movement</text>
</g>
<!-- 83cd2a46&#45;b0e3&#45;4479&#45;8edd&#45;6e998b0df88c&#45;&gt;b597887d&#45;4bb4&#45;4175&#45;980f&#45;3fa2805bea4b -->
<g id="edge1" class="edge">
<title>83cd2a46&#45;b0e3&#45;4479&#45;8edd&#45;6e998b0df88c&#45;&gt;b597887d&#45;4bb4&#45;4175&#45;980f&#45;3fa2805bea4b</title>
<path fill="none" stroke="purple" d="M97.3,-86.8C97.3,-75.16 97.3,-59.55 97.3,-46.24"/>
<polygon fill="purple" stroke="purple" points="100.8,-46.18 97.3,-36.18 93.8,-46.18 100.8,-46.18"/>
<text text-anchor="middle" x="132.8" y="-57.8" font-family="Times,serif" font-size="14.00" fill="purple">Pass Data</text>
</g>
<!-- 2297ae41&#45;9407&#45;41a1&#45;a8b8&#45;496ced83c9f5 -->
<g id="node4" class="node">
<title>2297ae41&#45;9407&#45;41a1&#45;a8b8&#45;496ced83c9f5</title>
<ellipse fill="none" stroke="black" cx="97.3" cy="-192" rx="27" ry="18"/>
<text text-anchor="middle" x="97.3" y="-188.3" font-family="Times,serif" font-size="14.00">SetX</text>
</g>
<!-- 2297ae41&#45;9407&#45;41a1&#45;a8b8&#45;496ced83c9f5&#45;&gt;83cd2a46&#45;b0e3&#45;4479&#45;8edd&#45;6e998b0df88c -->
<g id="edge2" class="edge">
<title>2297ae41&#45;9407&#45;41a1&#45;a8b8&#45;496ced83c9f5&#45;&gt;83cd2a46&#45;b0e3&#45;4479&#45;8edd&#45;6e998b0df88c</title>
<path fill="none" stroke="purple" d="M97.3,-173.8C97.3,-162.16 97.3,-146.55 97.3,-133.24"/>
<polygon fill="purple" stroke="purple" points="100.8,-133.18 97.3,-123.18 93.8,-133.18 100.8,-133.18"/>
<text text-anchor="middle" x="132.8" y="-144.8" font-family="Times,serif" font-size="14.00" fill="purple">Pass Data</text>
</g>
<!-- 47cd0db0&#45;d781&#45;4d3f&#45;a467&#45;bbfbdf1e6d50&#45;&gt;2297ae41&#45;9407&#45;41a1&#45;a8b8&#45;496ced83c9f5 -->
<g id="edge3" class="edge">
<title>47cd0db0&#45;d781&#45;4d3f&#45;a467&#45;bbfbdf1e6d50&#45;&gt;2297ae41&#45;9407&#45;41a1&#45;a8b8&#45;496ced83c9f5</title>
<path fill="none" stroke="purple" d="M97.3,-260.8C97.3,-249.16 97.3,-233.55 97.3,-220.24"/>
<polygon fill="purple" stroke="purple" points="100.8,-220.18 97.3,-210.18 93.8,-220.18 100.8,-220.18"/>
<text text-anchor="middle" x="132.8" y="-231.8" font-family="Times,serif" font-size="14.00" fill="purple">Pass Data</text>
</g>
<!-- 0a2671d4&#45;5b49&#45;4e00&#45;8f4f&#45;8d62f94d33f8 -->
<g id="node6" class="node">
<title>0a2671d4&#45;5b49&#45;4e00&#45;8f4f&#45;8d62f94d33f8</title>
<ellipse fill="none" stroke="black" cx="294.3" cy="-453" rx="46.4" ry="18"/>
<text text-anchor="middle" x="294.3" y="-449.3" font-family="Times,serif" font-size="14.00">AlwaysTrue</text>
</g>
<!-- 0a2671d4&#45;5b49&#45;4e00&#45;8f4f&#45;8d62f94d33f8&#45;&gt;7cec562f&#45;281e&#45;41f9&#45;9956&#45;145db37f5845 -->
<g id="edge4" class="edge">
<title>0a2671d4&#45;5b49&#45;4e00&#45;8f4f&#45;8d62f94d33f8&#45;&gt;7cec562f&#45;281e&#45;41f9&#45;9956&#45;145db37f5845</title>
<path fill="none" stroke="purple" d="M294.3,-434.8C294.3,-423.16 294.3,-407.55 294.3,-394.24"/>
<polygon fill="purple" stroke="purple" points="297.8,-394.18 294.3,-384.18 290.8,-394.18 297.8,-394.18"/>
<text text-anchor="middle" x="329.8" y="-405.8" font-family="Times,serif" font-size="14.00" fill="purple">Pass Data</text>
</g>
<!-- 63ffe7b7&#45;ff77&#45;4944&#45;ac6b&#45;cfcaf39f4109 -->
<g id="node7" class="node">
<title>63ffe7b7&#45;ff77&#45;4944&#45;ac6b&#45;cfcaf39f4109</title>
<ellipse fill="none" stroke="black" cx="294.3" cy="-526" rx="47.1" ry="18"/>
<text text-anchor="middle" x="294.3" y="-522.3" font-family="Times,serif" font-size="14.00">DelayAction</text>
</g>
<!-- 63ffe7b7&#45;ff77&#45;4944&#45;ac6b&#45;cfcaf39f4109&#45;&gt;0a2671d4&#45;5b49&#45;4e00&#45;8f4f&#45;8d62f94d33f8 -->
<g id="edge5" class="edge">
<title>63ffe7b7&#45;ff77&#45;4944&#45;ac6b&#45;cfcaf39f4109&#45;&gt;0a2671d4&#45;5b49&#45;4e00&#45;8f4f&#45;8d62f94d33f8</title>
<path fill="none" stroke="black" d="M294.3,-507.81C294.3,-499.79 294.3,-490.05 294.3,-481.07"/>
<polygon fill="black" stroke="black" points="297.8,-481.03 294.3,-471.03 290.8,-481.03 297.8,-481.03"/>
</g>
<!-- bc4e075e&#45;d900&#45;49c3&#45;923d&#45;39006c408469 -->
<g id="node9" class="node">
<title>bc4e075e&#45;d900&#45;49c3&#45;923d&#45;39006c408469</title>
<ellipse fill="none" stroke="black" cx="47.3" cy="-366" rx="47.1" ry="18"/>
<text text-anchor="middle" x="47.3" y="-362.3" font-family="Times,serif" font-size="14.00">DelayAction</text>
</g>
<!-- bc4e075e&#45;d900&#45;49c3&#45;923d&#45;39006c408469&#45;&gt;47cd0db0&#45;d781&#45;4d3f&#45;a467&#45;bbfbdf1e6d50 -->
<g id="edge8" class="edge">
<title>bc4e075e&#45;d900&#45;49c3&#45;923d&#45;39006c408469&#45;&gt;47cd0db0&#45;d781&#45;4d3f&#45;a467&#45;bbfbdf1e6d50</title>
<path fill="none" stroke="black" d="M57.18,-348.21C64.42,-335.9 74.36,-319 82.54,-305.09"/>
<polygon fill="black" stroke="black" points="85.56,-306.86 87.61,-296.47 79.53,-303.31 85.56,-306.86"/>
</g>
<!-- 85e66410&#45;529f&#45;4fb9&#45;b363&#45;023cddae5d4c -->
<g id="node10" class="node">
<title>85e66410&#45;529f&#45;4fb9&#45;b363&#45;023cddae5d4c</title>
<ellipse fill="none" stroke="black" cx="47.3" cy="-453" rx="33.6" ry="18"/>
<text text-anchor="middle" x="47.3" y="-449.3" font-family="Times,serif" font-size="14.00">Descend</text>
</g>
<!-- 85e66410&#45;529f&#45;4fb9&#45;b363&#45;023cddae5d4c&#45;&gt;bc4e075e&#45;d900&#45;49c3&#45;923d&#45;39006c408469 -->
<g id="edge9" class="edge">
<title>85e66410&#45;529f&#45;4fb9&#45;b363&#45;023cddae5d4c&#45;&gt;bc4e075e&#45;d900&#45;49c3&#45;923d&#45;39006c408469</title>
<path fill="none" stroke="black" d="M47.3,-434.8C47.3,-423.16 47.3,-407.55 47.3,-394.24"/>
<polygon fill="black" stroke="black" points="50.8,-394.18 47.3,-384.18 43.8,-394.18 50.8,-394.18"/>
</g>
</g>
</svg>
