<?xml version="1.0" encoding="UTF-8" standalone="no"?>
<!DOCTYPE svg PUBLIC "-//W3C//DTD SVG 1.1//EN"
 "http://www.w3.org/Graphics/SVG/1.1/DTD/svg11.dtd">
<!-- Generated by graphviz version 2.43.0 (0)
 -->
<!-- Title: G Pages: 1 -->
<svg width="583pt" height="552pt"
 viewBox="0.00 0.00 582.60 552.00" xmlns="http://www.w3.org/2000/svg" xmlns:xlink="http://www.w3.org/1999/xlink">
<g id="graph0" class="graph" transform="scale(1 1) rotate(0) translate(4 548)">
<title>G</title>
<polygon fill="transparent" stroke="transparent" points="-4,4 -4,-548 578.6,-548 578.6,4 -4,4"/>
<!-- 86428646&#45;be4f&#45;4e54&#45;a550&#45;48b47ce4d2f9 -->
<g id="node1" class="node">
<title>86428646&#45;be4f&#45;4e54&#45;a550&#45;48b47ce4d2f9</title>
<polygon fill="none" stroke="black" points="294.3,-384 166.67,-366 294.3,-348 421.93,-366 294.3,-384"/>
<text text-anchor="middle" x="294.3" y="-362.3" font-family="Times,serif" font-size="14.00">Consecutive True &lt; 34</text>
</g>
<!-- 8156e821&#45;d06a&#45;4c0d&#45;9a41&#45;cd70777e6a99 -->
<g id="node5" class="node">
<title>8156e821&#45;d06a&#45;4c0d&#45;9a41&#45;cd70777e6a99</title>
<ellipse fill="none" stroke="black" cx="86.3" cy="-279" rx="38.5" ry="18"/>
<text text-anchor="middle" x="86.3" y="-275.3" font-family="Times,serif" font-size="14.00">ConstYaw</text>
</g>
<!-- 86428646&#45;be4f&#45;4e54&#45;a550&#45;48b47ce4d2f9&#45;&gt;8156e821&#45;d06a&#45;4c0d&#45;9a41&#45;cd70777e6a99 -->
<g id="edge6" class="edge">
<title>86428646&#45;be4f&#45;4e54&#45;a550&#45;48b47ce4d2f9&#45;&gt;8156e821&#45;d06a&#45;4c0d&#45;9a41&#45;cd70777e6a99</title>
<path fill="none" stroke="black" d="M263.16,-352.27C225.89,-337.04 163.53,-311.56 123.69,-295.28"/>
<polygon fill="black" stroke="black" points="124.9,-291.99 114.32,-291.45 122.25,-298.47 124.9,-291.99"/>
<text text-anchor="middle" x="220.3" y="-318.8" font-family="Times,serif" font-size="14.00">True</text>
</g>
<!-- bec67055&#45;cee6&#45;4201&#45;9d23&#45;7b90e30c339b -->
<g id="node8" class="node">
<title>bec67055&#45;cee6&#45;4201&#45;9d23&#45;7b90e30c339b</title>
<ellipse fill="none" stroke="black" cx="294.3" cy="-279" rx="59.9" ry="18"/>
<text text-anchor="middle" x="294.3" y="-275.3" font-family="Times,serif" font-size="14.00">ZeroMovement</text>
</g>
<!-- 86428646&#45;be4f&#45;4e54&#45;a550&#45;48b47ce4d2f9&#45;&gt;bec67055&#45;cee6&#45;4201&#45;9d23&#45;7b90e30c339b -->
<g id="edge7" class="edge">
<title>86428646&#45;be4f&#45;4e54&#45;a550&#45;48b47ce4d2f9&#45;&gt;bec67055&#45;cee6&#45;4201&#45;9d23&#45;7b90e30c339b</title>
<path fill="none" stroke="black" d="M294.3,-347.8C294.3,-336.16 294.3,-320.55 294.3,-307.24"/>
<polygon fill="black" stroke="black" points="297.8,-307.18 294.3,-297.18 290.8,-307.18 297.8,-307.18"/>
<text text-anchor="middle" x="313.3" y="-318.8" font-family="Times,serif" font-size="14.00">False</text>
</g>
<!-- 7bd2d8f5&#45;32d5&#45;436f&#45;99da&#45;cf998725b12e -->
<g id="node2" class="node">
<title>7bd2d8f5&#45;32d5&#45;436f&#45;99da&#45;cf998725b12e</title>
<ellipse fill="none" stroke="black" cx="86.3" cy="-105" rx="36.1" ry="18"/>
<text text-anchor="middle" x="86.3" y="-101.3" font-family="Times,serif" font-size="14.00">SideMult</text>
</g>
<!-- da0d26bf&#45;4485&#45;4849&#45;b19d&#45;602b9dab85cb -->
<g id="node3" class="node">
<title>da0d26bf&#45;4485&#45;4849&#45;b19d&#45;602b9dab85cb</title>
<ellipse fill="none" stroke="black" cx="86.3" cy="-18" rx="80.11" ry="18"/>
<text text-anchor="middle" x="86.3" y="-14.3" font-family="Times,serif" font-size="14.00">Stability2Movement</text>
</g>
<!-- 7bd2d8f5&#45;32d5&#45;436f&#45;99da&#45;cf998725b12e&#45;&gt;da0d26bf&#45;4485&#45;4849&#45;b19d&#45;602b9dab85cb -->
<g id="edge1" class="edge">
<title>7bd2d8f5&#45;32d5&#45;436f&#45;99da&#45;cf998725b12e&#45;&gt;da0d26bf&#45;4485&#45;4849&#45;b19d&#45;602b9dab85cb</title>
<path fill="none" stroke="purple" d="M86.3,-86.8C86.3,-75.16 86.3,-59.55 86.3,-46.24"/>
<polygon fill="purple" stroke="purple" points="89.8,-46.18 86.3,-36.18 82.8,-46.18 89.8,-46.18"/>
<text text-anchor="middle" x="121.8" y="-57.8" font-family="Times,serif" font-size="14.00" fill="purple">Pass Data</text>
</g>
<!-- 73c39e58&#45;9730&#45;4e91&#45;9b4e&#45;bdb04305bc4c -->
<g id="node4" class="node">
<title>73c39e58&#45;9730&#45;4e91&#45;9b4e&#45;bdb04305bc4c</title>
<ellipse fill="none" stroke="black" cx="86.3" cy="-192" rx="27" ry="18"/>
<text text-anchor="middle" x="86.3" y="-188.3" font-family="Times,serif" font-size="14.00">SetX</text>
</g>
<!-- 73c39e58&#45;9730&#45;4e91&#45;9b4e&#45;bdb04305bc4c&#45;&gt;7bd2d8f5&#45;32d5&#45;436f&#45;99da&#45;cf998725b12e -->
<g id="edge2" class="edge">
<title>73c39e58&#45;9730&#45;4e91&#45;9b4e&#45;bdb04305bc4c&#45;&gt;7bd2d8f5&#45;32d5&#45;436f&#45;99da&#45;cf998725b12e</title>
<path fill="none" stroke="purple" d="M86.3,-173.8C86.3,-162.16 86.3,-146.55 86.3,-133.24"/>
<polygon fill="purple" stroke="purple" points="89.8,-133.18 86.3,-123.18 82.8,-133.18 89.8,-133.18"/>
<text text-anchor="middle" x="121.8" y="-144.8" font-family="Times,serif" font-size="14.00" fill="purple">Pass Data</text>
</g>
<!-- 8156e821&#45;d06a&#45;4c0d&#45;9a41&#45;cd70777e6a99&#45;&gt;73c39e58&#45;9730&#45;4e91&#45;9b4e&#45;bdb04305bc4c -->
<g id="edge3" class="edge">
<title>8156e821&#45;d06a&#45;4c0d&#45;9a41&#45;cd70777e6a99&#45;&gt;73c39e58&#45;9730&#45;4e91&#45;9b4e&#45;bdb04305bc4c</title>
<path fill="none" stroke="purple" d="M86.3,-260.8C86.3,-249.16 86.3,-233.55 86.3,-220.24"/>
<polygon fill="purple" stroke="purple" points="89.8,-220.18 86.3,-210.18 82.8,-220.18 89.8,-220.18"/>
<text text-anchor="middle" x="121.8" y="-231.8" font-family="Times,serif" font-size="14.00" fill="purple">Pass Data</text>
</g>
<!-- 38138a76&#45;b5cd&#45;4d68&#45;8fe6&#45;7f0693e3e3fa -->
<g id="node6" class="node">
<title>38138a76&#45;b5cd&#45;4d68&#45;8fe6&#45;7f0693e3e3fa</title>
<ellipse fill="none" stroke="black" cx="294.3" cy="-453" rx="46.4" ry="18"/>
<text text-anchor="middle" x="294.3" y="-449.3" font-family="Times,serif" font-size="14.00">AlwaysTrue</text>
</g>
<!-- 38138a76&#45;b5cd&#45;4d68&#45;8fe6&#45;7f0693e3e3fa&#45;&gt;86428646&#45;be4f&#45;4e54&#45;a550&#45;48b47ce4d2f9 -->
<g id="edge4" class="edge">
<title>38138a76&#45;b5cd&#45;4d68&#45;8fe6&#45;7f0693e3e3fa&#45;&gt;86428646&#45;be4f&#45;4e54&#45;a550&#45;48b47ce4d2f9</title>
<path fill="none" stroke="purple" d="M294.3,-434.8C294.3,-423.16 294.3,-407.55 294.3,-394.24"/>
<polygon fill="purple" stroke="purple" points="297.8,-394.18 294.3,-384.18 290.8,-394.18 297.8,-394.18"/>
<text text-anchor="middle" x="329.8" y="-405.8" font-family="Times,serif" font-size="14.00" fill="purple">Pass Data</text>
</g>
<!-- d4d43499&#45;0e91&#45;4c28&#45;88bb&#45;25de3d121809 -->
<g id="node7" class="node">
<title>d4d43499&#45;0e91&#45;4c28&#45;88bb&#45;25de3d121809</title>
<ellipse fill="none" stroke="black" cx="294.3" cy="-526" rx="47.1" ry="18"/>
<text text-anchor="middle" x="294.3" y="-522.3" font-family="Times,serif" font-size="14.00">DelayAction</text>
</g>
<!-- d4d43499&#45;0e91&#45;4c28&#45;88bb&#45;25de3d121809&#45;&gt;38138a76&#45;b5cd&#45;4d68&#45;8fe6&#45;7f0693e3e3fa -->
<g id="edge5" class="edge">
<title>d4d43499&#45;0e91&#45;4c28&#45;88bb&#45;25de3d121809&#45;&gt;38138a76&#45;b5cd&#45;4d68&#45;8fe6&#45;7f0693e3e3fa</title>
<path fill="none" stroke="black" d="M294.3,-507.81C294.3,-499.79 294.3,-490.05 294.3,-481.07"/>
<polygon fill="black" stroke="black" points="297.8,-481.03 294.3,-471.03 290.8,-481.03 297.8,-481.03"/>
</g>
<!-- d78713f9&#45;5d66&#45;4fde&#45;8194&#45;2cda071194e6 -->
<g id="node9" class="node">
<title>d78713f9&#45;5d66&#45;4fde&#45;8194&#45;2cda071194e6</title>
<ellipse fill="none" stroke="black" cx="47.3" cy="-366" rx="47.1" ry="18"/>
<text text-anchor="middle" x="47.3" y="-362.3" font-family="Times,serif" font-size="14.00">DelayAction</text>
</g>
<!-- d78713f9&#45;5d66&#45;4fde&#45;8194&#45;2cda071194e6&#45;&gt;8156e821&#45;d06a&#45;4c0d&#45;9a41&#45;cd70777e6a99 -->
<g id="edge8" class="edge">
<title>d78713f9&#45;5d66&#45;4fde&#45;8194&#45;2cda071194e6&#45;&gt;8156e821&#45;d06a&#45;4c0d&#45;9a41&#45;cd70777e6a99</title>
<path fill="none" stroke="black" d="M55.01,-348.21C60.51,-336.22 68.02,-319.85 74.3,-306.16"/>
<polygon fill="black" stroke="black" points="77.62,-307.31 78.61,-296.76 71.26,-304.39 77.62,-307.31"/>
</g>
<!-- 52ebffc4&#45;0e37&#45;41cb&#45;aafb&#45;16a45643d6d6 -->
<g id="node10" class="node">
<title>52ebffc4&#45;0e37&#45;41cb&#45;aafb&#45;16a45643d6d6</title>
<ellipse fill="none" stroke="black" cx="494.3" cy="-526" rx="80.11" ry="18"/>
<text text-anchor="middle" x="494.3" y="-522.3" font-family="Times,serif" font-size="14.00">Stability2Movement</text>
</g>
</g>
</svg>
