<?xml version="1.0" encoding="UTF-8" standalone="no"?>
<!DOCTYPE svg PUBLIC "-//W3C//DTD SVG 1.1//EN"
 "http://www.w3.org/Graphics/SVG/1.1/DTD/svg11.dtd">
<!-- Generated by graphviz version 2.43.0 (0)
 -->
<!-- Title: G Pages: 1 -->
<svg width="430pt" height="552pt"
 viewBox="0.00 0.00 429.87 552.00" xmlns="http://www.w3.org/2000/svg" xmlns:xlink="http://www.w3.org/1999/xlink">
<g id="graph0" class="graph" transform="scale(1 1) rotate(0) translate(4 548)">
<title>G</title>
<polygon fill="transparent" stroke="transparent" points="-4,4 -4,-548 425.87,-548 425.87,4 -4,4"/>
<!-- e96926f0&#45;600f&#45;4b54&#45;8343&#45;53d54a64f432 -->
<g id="node1" class="node">
<title>e96926f0&#45;600f&#45;4b54&#45;8343&#45;53d54a64f432</title>
<polygon fill="none" stroke="black" points="294.3,-384 166.67,-366 294.3,-348 421.93,-366 294.3,-384"/>
<text text-anchor="middle" x="294.3" y="-362.3" font-family="Times,serif" font-size="14.00">Consecutive True &lt; 34</text>
</g>
<!-- 03c76ae9&#45;c94a&#45;4b22&#45;8427&#45;9d74f4379ddc -->
<g id="node5" class="node">
<title>03c76ae9&#45;c94a&#45;4b22&#45;8427&#45;9d74f4379ddc</title>
<ellipse fill="none" stroke="black" cx="97.3" cy="-279" rx="38.5" ry="18"/>
<text text-anchor="middle" x="97.3" y="-275.3" font-family="Times,serif" font-size="14.00">ConstYaw</text>
</g>
<!-- e96926f0&#45;600f&#45;4b54&#45;8343&#45;53d54a64f432&#45;&gt;03c76ae9&#45;c94a&#45;4b22&#45;8427&#45;9d74f4379ddc -->
<g id="edge6" class="edge">
<title>e96926f0&#45;600f&#45;4b54&#45;8343&#45;53d54a64f432&#45;&gt;03c76ae9&#45;c94a&#45;4b22&#45;8427&#45;9d74f4379ddc</title>
<path fill="none" stroke="black" d="M264.38,-352.09C229.5,-337.04 171.85,-312.16 134.22,-295.93"/>
<polygon fill="black" stroke="black" points="135.21,-292.54 124.64,-291.8 132.44,-298.97 135.21,-292.54"/>
<text text-anchor="middle" x="225.3" y="-318.8" font-family="Times,serif" font-size="14.00">True</text>
</g>
<!-- 93f38b3a&#45;4dc5&#45;4b00&#45;b4f0&#45;d25d980e8c6a -->
<g id="node8" class="node">
<title>93f38b3a&#45;4dc5&#45;4b00&#45;b4f0&#45;d25d980e8c6a</title>
<ellipse fill="none" stroke="black" cx="294.3" cy="-279" rx="59.9" ry="18"/>
<text text-anchor="middle" x="294.3" y="-275.3" font-family="Times,serif" font-size="14.00">ZeroMovement</text>
</g>
<!-- e96926f0&#45;600f&#45;4b54&#45;8343&#45;53d54a64f432&#45;&gt;93f38b3a&#45;4dc5&#45;4b00&#45;b4f0&#45;d25d980e8c6a -->
<g id="edge7" class="edge">
<title>e96926f0&#45;600f&#45;4b54&#45;8343&#45;53d54a64f432&#45;&gt;93f38b3a&#45;4dc5&#45;4b00&#45;b4f0&#45;d25d980e8c6a</title>
<path fill="none" stroke="black" d="M294.3,-347.8C294.3,-336.16 294.3,-320.55 294.3,-307.24"/>
<polygon fill="black" stroke="black" points="297.8,-307.18 294.3,-297.18 290.8,-307.18 297.8,-307.18"/>
<text text-anchor="middle" x="313.3" y="-318.8" font-family="Times,serif" font-size="14.00">False</text>
</g>
<!-- e65ae624&#45;7296&#45;408c&#45;a0d8&#45;d999b8f7fb26 -->
<g id="node2" class="node">
<title>e65ae624&#45;7296&#45;408c&#45;a0d8&#45;d999b8f7fb26</title>
<ellipse fill="none" stroke="black" cx="97.3" cy="-105" rx="36.1" ry="18"/>
<text text-anchor="middle" x="97.3" y="-101.3" font-family="Times,serif" font-size="14.00">SideMult</text>
</g>
<!-- 52fb945d&#45;0cdf&#45;423c&#45;af2d&#45;35db82758019 -->
<g id="node3" class="node">
<title>52fb945d&#45;0cdf&#45;423c&#45;af2d&#45;35db82758019</title>
<ellipse fill="none" stroke="black" cx="97.3" cy="-18" rx="80.11" ry="18"/>
<text text-anchor="middle" x="97.3" y="-14.3" font-family="Times,serif" font-size="14.00">Stability2Movement</text>
</g>
<!-- e65ae624&#45;7296&#45;408c&#45;a0d8&#45;d999b8f7fb26&#45;&gt;52fb945d&#45;0cdf&#45;423c&#45;af2d&#45;35db82758019 -->
<g id="edge1" class="edge">
<title>e65ae624&#45;7296&#45;408c&#45;a0d8&#45;d999b8f7fb26&#45;&gt;52fb945d&#45;0cdf&#45;423c&#45;af2d&#45;35db82758019</title>
<path fill="none" stroke="purple" d="M97.3,-86.8C97.3,-75.16 97.3,-59.55 97.3,-46.24"/>
<polygon fill="purple" stroke="purple" points="100.8,-46.18 97.3,-36.18 93.8,-46.18 100.8,-46.18"/>
<text text-anchor="middle" x="132.8" y="-57.8" font-family="Times,serif" font-size="14.00" fill="purple">Pass Data</text>
</g>
<!-- 96447ac6&#45;27fd&#45;41b9&#45;a1de&#45;6c5057b0d389 -->
<g id="node4" class="node">
<title>96447ac6&#45;27fd&#45;41b9&#45;a1de&#45;6c5057b0d389</title>
<ellipse fill="none" stroke="black" cx="97.3" cy="-192" rx="27" ry="18"/>
<text text-anchor="middle" x="97.3" y="-188.3" font-family="Times,serif" font-size="14.00">SetX</text>
</g>
<!-- 96447ac6&#45;27fd&#45;41b9&#45;a1de&#45;6c5057b0d389&#45;&gt;e65ae624&#45;7296&#45;408c&#45;a0d8&#45;d999b8f7fb26 -->
<g id="edge2" class="edge">
<title>96447ac6&#45;27fd&#45;41b9&#45;a1de&#45;6c5057b0d389&#45;&gt;e65ae624&#45;7296&#45;408c&#45;a0d8&#45;d999b8f7fb26</title>
<path fill="none" stroke="purple" d="M97.3,-173.8C97.3,-162.16 97.3,-146.55 97.3,-133.24"/>
<polygon fill="purple" stroke="purple" points="100.8,-133.18 97.3,-123.18 93.8,-133.18 100.8,-133.18"/>
<text text-anchor="middle" x="132.8" y="-144.8" font-family="Times,serif" font-size="14.00" fill="purple">Pass Data</text>
</g>
<!-- 03c76ae9&#45;c94a&#45;4b22&#45;8427&#45;9d74f4379ddc&#45;&gt;96447ac6&#45;27fd&#45;41b9&#45;a1de&#45;6c5057b0d389 -->
<g id="edge3" class="edge">
<title>03c76ae9&#45;c94a&#45;4b22&#45;8427&#45;9d74f4379ddc&#45;&gt;96447ac6&#45;27fd&#45;41b9&#45;a1de&#45;6c5057b0d389</title>
<path fill="none" stroke="purple" d="M97.3,-260.8C97.3,-249.16 97.3,-233.55 97.3,-220.24"/>
<polygon fill="purple" stroke="purple" points="100.8,-220.18 97.3,-210.18 93.8,-220.18 100.8,-220.18"/>
<text text-anchor="middle" x="132.8" y="-231.8" font-family="Times,serif" font-size="14.00" fill="purple">Pass Data</text>
</g>
<!-- e366d2bf&#45;72c6&#45;4a0a&#45;8781&#45;3c99af93e53a -->
<g id="node6" class="node">
<title>e366d2bf&#45;72c6&#45;4a0a&#45;8781&#45;3c99af93e53a</title>
<ellipse fill="none" stroke="black" cx="294.3" cy="-453" rx="46.4" ry="18"/>
<text text-anchor="middle" x="294.3" y="-449.3" font-family="Times,serif" font-size="14.00">AlwaysTrue</text>
</g>
<!-- e366d2bf&#45;72c6&#45;4a0a&#45;8781&#45;3c99af93e53a&#45;&gt;e96926f0&#45;600f&#45;4b54&#45;8343&#45;53d54a64f432 -->
<g id="edge4" class="edge">
<title>e366d2bf&#45;72c6&#45;4a0a&#45;8781&#45;3c99af93e53a&#45;&gt;e96926f0&#45;600f&#45;4b54&#45;8343&#45;53d54a64f432</title>
<path fill="none" stroke="purple" d="M294.3,-434.8C294.3,-423.16 294.3,-407.55 294.3,-394.24"/>
<polygon fill="purple" stroke="purple" points="297.8,-394.18 294.3,-384.18 290.8,-394.18 297.8,-394.18"/>
<text text-anchor="middle" x="329.8" y="-405.8" font-family="Times,serif" font-size="14.00" fill="purple">Pass Data</text>
</g>
<!-- 5a812656&#45;67a6&#45;46ab&#45;9515&#45;69d0bd718476 -->
<g id="node7" class="node">
<title>5a812656&#45;67a6&#45;46ab&#45;9515&#45;69d0bd718476</title>
<ellipse fill="none" stroke="black" cx="294.3" cy="-526" rx="47.1" ry="18"/>
<text text-anchor="middle" x="294.3" y="-522.3" font-family="Times,serif" font-size="14.00">DelayAction</text>
</g>
<!-- 5a812656&#45;67a6&#45;46ab&#45;9515&#45;69d0bd718476&#45;&gt;e366d2bf&#45;72c6&#45;4a0a&#45;8781&#45;3c99af93e53a -->
<g id="edge5" class="edge">
<title>5a812656&#45;67a6&#45;46ab&#45;9515&#45;69d0bd718476&#45;&gt;e366d2bf&#45;72c6&#45;4a0a&#45;8781&#45;3c99af93e53a</title>
<path fill="none" stroke="black" d="M294.3,-507.81C294.3,-499.79 294.3,-490.05 294.3,-481.07"/>
<polygon fill="black" stroke="black" points="297.8,-481.03 294.3,-471.03 290.8,-481.03 297.8,-481.03"/>
</g>
<!-- f80324a2&#45;0e03&#45;48c7&#45;8110&#45;c06e0e6ac55f -->
<g id="node9" class="node">
<title>f80324a2&#45;0e03&#45;48c7&#45;8110&#45;c06e0e6ac55f</title>
<ellipse fill="none" stroke="black" cx="47.3" cy="-366" rx="47.1" ry="18"/>
<text text-anchor="middle" x="47.3" y="-362.3" font-family="Times,serif" font-size="14.00">DelayAction</text>
</g>
<!-- f80324a2&#45;0e03&#45;48c7&#45;8110&#45;c06e0e6ac55f&#45;&gt;03c76ae9&#45;c94a&#45;4b22&#45;8427&#45;9d74f4379ddc -->
<g id="edge8" class="edge">
<title>f80324a2&#45;0e03&#45;48c7&#45;8110&#45;c06e0e6ac55f&#45;&gt;03c76ae9&#45;c94a&#45;4b22&#45;8427&#45;9d74f4379ddc</title>
<path fill="none" stroke="black" d="M57.18,-348.21C64.42,-335.9 74.36,-319 82.54,-305.09"/>
<polygon fill="black" stroke="black" points="85.56,-306.86 87.61,-296.47 79.53,-303.31 85.56,-306.86"/>
</g>
<!-- 41b23b00&#45;67d0&#45;471f&#45;9c5b&#45;d1f3db9e9c58 -->
<g id="node10" class="node">
<title>41b23b00&#45;67d0&#45;471f&#45;9c5b&#45;d1f3db9e9c58</title>
<ellipse fill="none" stroke="black" cx="47.3" cy="-453" rx="33.6" ry="18"/>
<text text-anchor="middle" x="47.3" y="-449.3" font-family="Times,serif" font-size="14.00">Descend</text>
</g>
<!-- 41b23b00&#45;67d0&#45;471f&#45;9c5b&#45;d1f3db9e9c58&#45;&gt;f80324a2&#45;0e03&#45;48c7&#45;8110&#45;c06e0e6ac55f -->
<g id="edge9" class="edge">
<title>41b23b00&#45;67d0&#45;471f&#45;9c5b&#45;d1f3db9e9c58&#45;&gt;f80324a2&#45;0e03&#45;48c7&#45;8110&#45;c06e0e6ac55f</title>
<path fill="none" stroke="black" d="M47.3,-434.8C47.3,-423.16 47.3,-407.55 47.3,-394.24"/>
<polygon fill="black" stroke="black" points="50.8,-394.18 47.3,-384.18 43.8,-394.18 50.8,-394.18"/>
</g>
</g>
</svg>
