<?xml version="1.0" encoding="UTF-8" standalone="no"?>
<!DOCTYPE svg PUBLIC "-//W3C//DTD SVG 1.1//EN"
 "http://www.w3.org/Graphics/SVG/1.1/DTD/svg11.dtd">
<!-- Generated by graphviz version 2.43.0 (0)
 -->
<!-- Title: G Pages: 1 -->
<svg width="318pt" height="987pt"
 viewBox="0.00 0.00 318.29 987.00" xmlns="http://www.w3.org/2000/svg" xmlns:xlink="http://www.w3.org/1999/xlink">
<g id="graph0" class="graph" transform="scale(1 1) rotate(0) translate(4 983)">
<title>G</title>
<polygon fill="transparent" stroke="transparent" points="-4,4 -4,-983 314.29,-983 314.29,4 -4,4"/>
<!-- 9af469a0&#45;10b0&#45;4fc3&#45;8a41&#45;b8df67ae091e -->
<g id="node1" class="node">
<title>9af469a0&#45;10b0&#45;4fc3&#45;8a41&#45;b8df67ae091e</title>
<polygon fill="none" stroke="black" points="65.34,-906 0.16,-888 65.34,-870 130.52,-888 65.34,-906"/>
<text text-anchor="middle" x="65.34" y="-884.3" font-family="Times,serif" font-size="14.00">AlwaysTrue</text>
</g>
<!-- 4ef75fd8&#45;08ad&#45;497b&#45;a7d5&#45;05a051c68694 -->
<g id="node11" class="node">
<title>4ef75fd8&#45;08ad&#45;497b&#45;a7d5&#45;05a051c68694</title>
<ellipse fill="none" stroke="black" cx="103.34" cy="-801" rx="46.5" ry="18"/>
<text text-anchor="middle" x="103.34" y="-797.3" font-family="Times,serif" font-size="14.00">VisionNorm</text>
</g>
<!-- 9af469a0&#45;10b0&#45;4fc3&#45;8a41&#45;b8df67ae091e&#45;&gt;4ef75fd8&#45;08ad&#45;497b&#45;a7d5&#45;05a051c68694 -->
<g id="edge10" class="edge">
<title>9af469a0&#45;10b0&#45;4fc3&#45;8a41&#45;b8df67ae091e&#45;&gt;4ef75fd8&#45;08ad&#45;497b&#45;a7d5&#45;05a051c68694</title>
<path fill="none" stroke="black" d="M72.13,-871.8C77.54,-859.7 85.25,-842.47 91.65,-828.16"/>
<polygon fill="black" stroke="black" points="94.94,-829.37 95.82,-818.81 88.55,-826.51 94.94,-829.37"/>
<text text-anchor="middle" x="104.34" y="-840.8" font-family="Times,serif" font-size="14.00">True</text>
</g>
<!-- 403cd8ca&#45;8500&#45;49c4&#45;8832&#45;74af72bd94ca -->
<g id="node2" class="node">
<title>403cd8ca&#45;8500&#45;49c4&#45;8832&#45;74af72bd94ca</title>
<ellipse fill="none" stroke="black" cx="103.34" cy="-105" rx="27" ry="18"/>
<text text-anchor="middle" x="103.34" y="-101.3" font-family="Times,serif" font-size="14.00">FlatX</text>
</g>
<!-- 13d86e63&#45;9c72&#45;4123&#45;b9a8&#45;ed8343ab8f31 -->
<g id="node3" class="node">
<title>13d86e63&#45;9c72&#45;4123&#45;b9a8&#45;ed8343ab8f31</title>
<ellipse fill="none" stroke="black" cx="103.34" cy="-18" rx="80.11" ry="18"/>
<text text-anchor="middle" x="103.34" y="-14.3" font-family="Times,serif" font-size="14.00">Stability2Movement</text>
</g>
<!-- 403cd8ca&#45;8500&#45;49c4&#45;8832&#45;74af72bd94ca&#45;&gt;13d86e63&#45;9c72&#45;4123&#45;b9a8&#45;ed8343ab8f31 -->
<g id="edge1" class="edge">
<title>403cd8ca&#45;8500&#45;49c4&#45;8832&#45;74af72bd94ca&#45;&gt;13d86e63&#45;9c72&#45;4123&#45;b9a8&#45;ed8343ab8f31</title>
<path fill="none" stroke="purple" d="M103.34,-86.8C103.34,-75.16 103.34,-59.55 103.34,-46.24"/>
<polygon fill="purple" stroke="purple" points="106.84,-46.18 103.34,-36.18 99.84,-46.18 106.84,-46.18"/>
<text text-anchor="middle" x="138.84" y="-57.8" font-family="Times,serif" font-size="14.00" fill="purple">Pass Data</text>
</g>
<!-- bd012be1&#45;10ca&#45;46f0&#45;a399&#45;08580b58c62f -->
<g id="node4" class="node">
<title>bd012be1&#45;10ca&#45;46f0&#45;a399&#45;08580b58c62f</title>
<ellipse fill="none" stroke="black" cx="103.34" cy="-192" rx="27" ry="18"/>
<text text-anchor="middle" x="103.34" y="-188.3" font-family="Times,serif" font-size="14.00">StripY</text>
</g>
<!-- bd012be1&#45;10ca&#45;46f0&#45;a399&#45;08580b58c62f&#45;&gt;403cd8ca&#45;8500&#45;49c4&#45;8832&#45;74af72bd94ca -->
<g id="edge2" class="edge">
<title>bd012be1&#45;10ca&#45;46f0&#45;a399&#45;08580b58c62f&#45;&gt;403cd8ca&#45;8500&#45;49c4&#45;8832&#45;74af72bd94ca</title>
<path fill="none" stroke="purple" d="M103.34,-173.8C103.34,-162.16 103.34,-146.55 103.34,-133.24"/>
<polygon fill="purple" stroke="purple" points="106.84,-133.18 103.34,-123.18 99.84,-133.18 106.84,-133.18"/>
<text text-anchor="middle" x="138.84" y="-144.8" font-family="Times,serif" font-size="14.00" fill="purple">Pass Data</text>
</g>
<!-- 30888355&#45;a37b&#45;46dc&#45;a4d3&#45;ee0400c7743d -->
<g id="node5" class="node">
<title>30888355&#45;a37b&#45;46dc&#45;a4d3&#45;ee0400c7743d</title>
<ellipse fill="none" stroke="black" cx="103.34" cy="-279" rx="52.6" ry="18"/>
<text text-anchor="middle" x="103.34" y="-275.3" font-family="Times,serif" font-size="14.00">Anon Closure</text>
</g>
<!-- 30888355&#45;a37b&#45;46dc&#45;a4d3&#45;ee0400c7743d&#45;&gt;bd012be1&#45;10ca&#45;46f0&#45;a399&#45;08580b58c62f -->
<g id="edge3" class="edge">
<title>30888355&#45;a37b&#45;46dc&#45;a4d3&#45;ee0400c7743d&#45;&gt;bd012be1&#45;10ca&#45;46f0&#45;a399&#45;08580b58c62f</title>
<path fill="none" stroke="purple" d="M103.34,-260.8C103.34,-249.16 103.34,-233.55 103.34,-220.24"/>
<polygon fill="purple" stroke="purple" points="106.84,-220.18 103.34,-210.18 99.84,-220.18 106.84,-220.18"/>
<text text-anchor="middle" x="138.84" y="-231.8" font-family="Times,serif" font-size="14.00" fill="purple">Pass Data</text>
</g>
<!-- b70aca0f&#45;ed92&#45;4ed5&#45;886f&#45;e7fe28a0f894 -->
<g id="node6" class="node">
<title>b70aca0f&#45;ed92&#45;4ed5&#45;886f&#45;e7fe28a0f894</title>
<ellipse fill="none" stroke="black" cx="103.34" cy="-366" rx="51.3" ry="18"/>
<text text-anchor="middle" x="103.34" y="-362.3" font-family="Times,serif" font-size="14.00">OffsetToPose</text>
</g>
<!-- b70aca0f&#45;ed92&#45;4ed5&#45;886f&#45;e7fe28a0f894&#45;&gt;30888355&#45;a37b&#45;46dc&#45;a4d3&#45;ee0400c7743d -->
<g id="edge4" class="edge">
<title>b70aca0f&#45;ed92&#45;4ed5&#45;886f&#45;e7fe28a0f894&#45;&gt;30888355&#45;a37b&#45;46dc&#45;a4d3&#45;ee0400c7743d</title>
<path fill="none" stroke="purple" d="M103.34,-347.8C103.34,-336.16 103.34,-320.55 103.34,-307.24"/>
<polygon fill="purple" stroke="purple" points="106.84,-307.18 103.34,-297.18 99.84,-307.18 106.84,-307.18"/>
<text text-anchor="middle" x="138.84" y="-318.8" font-family="Times,serif" font-size="14.00" fill="purple">Pass Data</text>
</g>
<!-- ecf3ec08&#45;6cf5&#45;4fb5&#45;8a0b&#45;0509ec221b24 -->
<g id="node7" class="node">
<title>ecf3ec08&#45;6cf5&#45;4fb5&#45;8a0b&#45;0509ec221b24</title>
<ellipse fill="none" stroke="black" cx="103.34" cy="-453" rx="32.4" ry="18"/>
<text text-anchor="middle" x="103.34" y="-449.3" font-family="Times,serif" font-size="14.00">Average</text>
</g>
<!-- ecf3ec08&#45;6cf5&#45;4fb5&#45;8a0b&#45;0509ec221b24&#45;&gt;b70aca0f&#45;ed92&#45;4ed5&#45;886f&#45;e7fe28a0f894 -->
<g id="edge5" class="edge">
<title>ecf3ec08&#45;6cf5&#45;4fb5&#45;8a0b&#45;0509ec221b24&#45;&gt;b70aca0f&#45;ed92&#45;4ed5&#45;886f&#45;e7fe28a0f894</title>
<path fill="none" stroke="purple" d="M103.34,-434.8C103.34,-423.16 103.34,-407.55 103.34,-394.24"/>
<polygon fill="purple" stroke="purple" points="106.84,-394.18 103.34,-384.18 99.84,-394.18 106.84,-394.18"/>
<text text-anchor="middle" x="138.84" y="-405.8" font-family="Times,serif" font-size="14.00" fill="purple">Pass Data</text>
</g>
<!-- 39706ce9&#45;7a75&#45;4b43&#45;9d27&#45;0cce998b69d5 -->
<g id="node8" class="node">
<title>39706ce9&#45;7a75&#45;4b43&#45;9d27&#45;0cce998b69d5</title>
<ellipse fill="none" stroke="black" cx="103.34" cy="-540" rx="61.1" ry="18"/>
<text text-anchor="middle" x="103.34" y="-536.3" font-family="Times,serif" font-size="14.00">ExtractPosition</text>
</g>
<!-- 39706ce9&#45;7a75&#45;4b43&#45;9d27&#45;0cce998b69d5&#45;&gt;ecf3ec08&#45;6cf5&#45;4fb5&#45;8a0b&#45;0509ec221b24 -->
<g id="edge6" class="edge">
<title>39706ce9&#45;7a75&#45;4b43&#45;9d27&#45;0cce998b69d5&#45;&gt;ecf3ec08&#45;6cf5&#45;4fb5&#45;8a0b&#45;0509ec221b24</title>
<path fill="none" stroke="purple" d="M103.34,-521.8C103.34,-510.16 103.34,-494.55 103.34,-481.24"/>
<polygon fill="purple" stroke="purple" points="106.84,-481.18 103.34,-471.18 99.84,-481.18 106.84,-481.18"/>
<text text-anchor="middle" x="138.84" y="-492.8" font-family="Times,serif" font-size="14.00" fill="purple">Pass Data</text>
</g>
<!-- d58e29da&#45;a85b&#45;4b38&#45;bde3&#45;94edebe19db9 -->
<g id="node9" class="node">
<title>d58e29da&#45;a85b&#45;4b38&#45;bde3&#45;94edebe19db9</title>
<ellipse fill="none" stroke="black" cx="103.34" cy="-627" rx="27" ry="18"/>
<text text-anchor="middle" x="103.34" y="-623.3" font-family="Times,serif" font-size="14.00">ToVec</text>
</g>
<!-- d58e29da&#45;a85b&#45;4b38&#45;bde3&#45;94edebe19db9&#45;&gt;39706ce9&#45;7a75&#45;4b43&#45;9d27&#45;0cce998b69d5 -->
<g id="edge7" class="edge">
<title>d58e29da&#45;a85b&#45;4b38&#45;bde3&#45;94edebe19db9&#45;&gt;39706ce9&#45;7a75&#45;4b43&#45;9d27&#45;0cce998b69d5</title>
<path fill="none" stroke="purple" d="M103.34,-608.8C103.34,-597.16 103.34,-581.55 103.34,-568.24"/>
<polygon fill="purple" stroke="purple" points="106.84,-568.18 103.34,-558.18 99.84,-568.18 106.84,-568.18"/>
<text text-anchor="middle" x="138.84" y="-579.8" font-family="Times,serif" font-size="14.00" fill="purple">Pass Data</text>
</g>
<!-- 5148848a&#45;626b&#45;4680&#45;9901&#45;7c7089c47d58 -->
<g id="node10" class="node">
<title>5148848a&#45;626b&#45;4680&#45;9901&#45;7c7089c47d58</title>
<ellipse fill="none" stroke="black" cx="103.34" cy="-714" rx="45.2" ry="18"/>
<text text-anchor="middle" x="103.34" y="-710.3" font-family="Times,serif" font-size="14.00">Detect true</text>
</g>
<!-- 5148848a&#45;626b&#45;4680&#45;9901&#45;7c7089c47d58&#45;&gt;d58e29da&#45;a85b&#45;4b38&#45;bde3&#45;94edebe19db9 -->
<g id="edge8" class="edge">
<title>5148848a&#45;626b&#45;4680&#45;9901&#45;7c7089c47d58&#45;&gt;d58e29da&#45;a85b&#45;4b38&#45;bde3&#45;94edebe19db9</title>
<path fill="none" stroke="purple" d="M103.34,-695.8C103.34,-684.16 103.34,-668.55 103.34,-655.24"/>
<polygon fill="purple" stroke="purple" points="106.84,-655.18 103.34,-645.18 99.84,-655.18 106.84,-655.18"/>
<text text-anchor="middle" x="138.84" y="-666.8" font-family="Times,serif" font-size="14.00" fill="purple">Pass Data</text>
</g>
<!-- 4ef75fd8&#45;08ad&#45;497b&#45;a7d5&#45;05a051c68694&#45;&gt;5148848a&#45;626b&#45;4680&#45;9901&#45;7c7089c47d58 -->
<g id="edge9" class="edge">
<title>4ef75fd8&#45;08ad&#45;497b&#45;a7d5&#45;05a051c68694&#45;&gt;5148848a&#45;626b&#45;4680&#45;9901&#45;7c7089c47d58</title>
<path fill="none" stroke="purple" d="M103.34,-782.8C103.34,-771.16 103.34,-755.55 103.34,-742.24"/>
<polygon fill="purple" stroke="purple" points="106.84,-742.18 103.34,-732.18 99.84,-742.18 106.84,-742.18"/>
<text text-anchor="middle" x="138.84" y="-753.8" font-family="Times,serif" font-size="14.00" fill="purple">Pass Data</text>
</g>
<!-- 57c43a15&#45;e06c&#45;49d1&#45;8bba&#45;bf42b2109525 -->
<g id="node12" class="node">
<title>57c43a15&#45;e06c&#45;49d1&#45;8bba&#45;bf42b2109525</title>
<ellipse fill="none" stroke="black" cx="250.34" cy="-888" rx="47.1" ry="18"/>
<text text-anchor="middle" x="250.34" y="-884.3" font-family="Times,serif" font-size="14.00">DelayAction</text>
</g>
<!-- 57c43a15&#45;e06c&#45;49d1&#45;8bba&#45;bf42b2109525&#45;&gt;4ef75fd8&#45;08ad&#45;497b&#45;a7d5&#45;05a051c68694 -->
<g id="edge11" class="edge">
<title>57c43a15&#45;e06c&#45;49d1&#45;8bba&#45;bf42b2109525&#45;&gt;4ef75fd8&#45;08ad&#45;497b&#45;a7d5&#45;05a051c68694</title>
<path fill="none" stroke="black" d="M225.4,-872.58C201.12,-858.54 164.03,-837.09 137.1,-821.52"/>
<polygon fill="black" stroke="black" points="138.81,-818.47 128.4,-816.49 135.3,-824.53 138.81,-818.47"/>
</g>
<!-- 123434fa&#45;ae75&#45;4434&#45;87c3&#45;929c02da7428 -->
<g id="node13" class="node">
<title>123434fa&#45;ae75&#45;4434&#45;87c3&#45;929c02da7428</title>
<ellipse fill="none" stroke="black" cx="250.34" cy="-961" rx="59.9" ry="18"/>
<text text-anchor="middle" x="250.34" y="-957.3" font-family="Times,serif" font-size="14.00">ZeroMovement</text>
</g>
<!-- 123434fa&#45;ae75&#45;4434&#45;87c3&#45;929c02da7428&#45;&gt;57c43a15&#45;e06c&#45;49d1&#45;8bba&#45;bf42b2109525 -->
<g id="edge12" class="edge">
<title>123434fa&#45;ae75&#45;4434&#45;87c3&#45;929c02da7428&#45;&gt;57c43a15&#45;e06c&#45;49d1&#45;8bba&#45;bf42b2109525</title>
<path fill="none" stroke="black" d="M250.34,-942.81C250.34,-934.79 250.34,-925.05 250.34,-916.07"/>
<polygon fill="black" stroke="black" points="253.84,-916.03 250.34,-906.03 246.84,-916.03 253.84,-916.03"/>
</g>
</g>
</svg>
