<?xml version="1.0" encoding="UTF-8" standalone="no"?>
<!DOCTYPE svg PUBLIC "-//W3C//DTD SVG 1.1//EN"
 "http://www.w3.org/Graphics/SVG/1.1/DTD/svg11.dtd">
<!-- Generated by graphviz version 2.43.0 (0)
 -->
<!-- Title: G Pages: 1 -->
<svg width="583pt" height="552pt"
 viewBox="0.00 0.00 582.60 552.00" xmlns="http://www.w3.org/2000/svg" xmlns:xlink="http://www.w3.org/1999/xlink">
<g id="graph0" class="graph" transform="scale(1 1) rotate(0) translate(4 548)">
<title>G</title>
<polygon fill="transparent" stroke="transparent" points="-4,4 -4,-548 578.6,-548 578.6,4 -4,4"/>
<!-- 493fac1e&#45;24e4&#45;4115&#45;8d64&#45;6d480a6cb158 -->
<g id="node1" class="node">
<title>493fac1e&#45;24e4&#45;4115&#45;8d64&#45;6d480a6cb158</title>
<polygon fill="none" stroke="black" points="294.3,-384 166.67,-366 294.3,-348 421.93,-366 294.3,-384"/>
<text text-anchor="middle" x="294.3" y="-362.3" font-family="Times,serif" font-size="14.00">Consecutive True &lt; 34</text>
</g>
<!-- 23d91af6&#45;9791&#45;4de2&#45;b2fb&#45;df9b0f400fe5 -->
<g id="node5" class="node">
<title>23d91af6&#45;9791&#45;4de2&#45;b2fb&#45;df9b0f400fe5</title>
<ellipse fill="none" stroke="black" cx="86.3" cy="-279" rx="38.5" ry="18"/>
<text text-anchor="middle" x="86.3" y="-275.3" font-family="Times,serif" font-size="14.00">ConstYaw</text>
</g>
<!-- 493fac1e&#45;24e4&#45;4115&#45;8d64&#45;6d480a6cb158&#45;&gt;23d91af6&#45;9791&#45;4de2&#45;b2fb&#45;df9b0f400fe5 -->
<g id="edge6" class="edge">
<title>493fac1e&#45;24e4&#45;4115&#45;8d64&#45;6d480a6cb158&#45;&gt;23d91af6&#45;9791&#45;4de2&#45;b2fb&#45;df9b0f400fe5</title>
<path fill="none" stroke="black" d="M263.16,-352.27C225.89,-337.04 163.53,-311.56 123.69,-295.28"/>
<polygon fill="black" stroke="black" points="124.9,-291.99 114.32,-291.45 122.25,-298.47 124.9,-291.99"/>
<text text-anchor="middle" x="220.3" y="-318.8" font-family="Times,serif" font-size="14.00">True</text>
</g>
<!-- f10cb5b8&#45;d507&#45;47e6&#45;bb79&#45;8a1a02ecea40 -->
<g id="node8" class="node">
<title>f10cb5b8&#45;d507&#45;47e6&#45;bb79&#45;8a1a02ecea40</title>
<ellipse fill="none" stroke="black" cx="294.3" cy="-279" rx="59.9" ry="18"/>
<text text-anchor="middle" x="294.3" y="-275.3" font-family="Times,serif" font-size="14.00">ZeroMovement</text>
</g>
<!-- 493fac1e&#45;24e4&#45;4115&#45;8d64&#45;6d480a6cb158&#45;&gt;f10cb5b8&#45;d507&#45;47e6&#45;bb79&#45;8a1a02ecea40 -->
<g id="edge7" class="edge">
<title>493fac1e&#45;24e4&#45;4115&#45;8d64&#45;6d480a6cb158&#45;&gt;f10cb5b8&#45;d507&#45;47e6&#45;bb79&#45;8a1a02ecea40</title>
<path fill="none" stroke="black" d="M294.3,-347.8C294.3,-336.16 294.3,-320.55 294.3,-307.24"/>
<polygon fill="black" stroke="black" points="297.8,-307.18 294.3,-297.18 290.8,-307.18 297.8,-307.18"/>
<text text-anchor="middle" x="313.3" y="-318.8" font-family="Times,serif" font-size="14.00">False</text>
</g>
<!-- 960b705c&#45;16c1&#45;4051&#45;9055&#45;c10315c0d6c0 -->
<g id="node2" class="node">
<title>960b705c&#45;16c1&#45;4051&#45;9055&#45;c10315c0d6c0</title>
<ellipse fill="none" stroke="black" cx="86.3" cy="-105" rx="36.1" ry="18"/>
<text text-anchor="middle" x="86.3" y="-101.3" font-family="Times,serif" font-size="14.00">SideMult</text>
</g>
<!-- d6a2b39d&#45;c213&#45;41a4&#45;9a3c&#45;d2f82f2c0dc0 -->
<g id="node3" class="node">
<title>d6a2b39d&#45;c213&#45;41a4&#45;9a3c&#45;d2f82f2c0dc0</title>
<ellipse fill="none" stroke="black" cx="86.3" cy="-18" rx="80.11" ry="18"/>
<text text-anchor="middle" x="86.3" y="-14.3" font-family="Times,serif" font-size="14.00">Stability2Movement</text>
</g>
<!-- 960b705c&#45;16c1&#45;4051&#45;9055&#45;c10315c0d6c0&#45;&gt;d6a2b39d&#45;c213&#45;41a4&#45;9a3c&#45;d2f82f2c0dc0 -->
<g id="edge1" class="edge">
<title>960b705c&#45;16c1&#45;4051&#45;9055&#45;c10315c0d6c0&#45;&gt;d6a2b39d&#45;c213&#45;41a4&#45;9a3c&#45;d2f82f2c0dc0</title>
<path fill="none" stroke="purple" d="M86.3,-86.8C86.3,-75.16 86.3,-59.55 86.3,-46.24"/>
<polygon fill="purple" stroke="purple" points="89.8,-46.18 86.3,-36.18 82.8,-46.18 89.8,-46.18"/>
<text text-anchor="middle" x="121.8" y="-57.8" font-family="Times,serif" font-size="14.00" fill="purple">Pass Data</text>
</g>
<!-- 4a7b32e6&#45;b6fd&#45;4d11&#45;8495&#45;40b735354ed9 -->
<g id="node4" class="node">
<title>4a7b32e6&#45;b6fd&#45;4d11&#45;8495&#45;40b735354ed9</title>
<ellipse fill="none" stroke="black" cx="86.3" cy="-192" rx="27" ry="18"/>
<text text-anchor="middle" x="86.3" y="-188.3" font-family="Times,serif" font-size="14.00">SetX</text>
</g>
<!-- 4a7b32e6&#45;b6fd&#45;4d11&#45;8495&#45;40b735354ed9&#45;&gt;960b705c&#45;16c1&#45;4051&#45;9055&#45;c10315c0d6c0 -->
<g id="edge2" class="edge">
<title>4a7b32e6&#45;b6fd&#45;4d11&#45;8495&#45;40b735354ed9&#45;&gt;960b705c&#45;16c1&#45;4051&#45;9055&#45;c10315c0d6c0</title>
<path fill="none" stroke="purple" d="M86.3,-173.8C86.3,-162.16 86.3,-146.55 86.3,-133.24"/>
<polygon fill="purple" stroke="purple" points="89.8,-133.18 86.3,-123.18 82.8,-133.18 89.8,-133.18"/>
<text text-anchor="middle" x="121.8" y="-144.8" font-family="Times,serif" font-size="14.00" fill="purple">Pass Data</text>
</g>
<!-- 23d91af6&#45;9791&#45;4de2&#45;b2fb&#45;df9b0f400fe5&#45;&gt;4a7b32e6&#45;b6fd&#45;4d11&#45;8495&#45;40b735354ed9 -->
<g id="edge3" class="edge">
<title>23d91af6&#45;9791&#45;4de2&#45;b2fb&#45;df9b0f400fe5&#45;&gt;4a7b32e6&#45;b6fd&#45;4d11&#45;8495&#45;40b735354ed9</title>
<path fill="none" stroke="purple" d="M86.3,-260.8C86.3,-249.16 86.3,-233.55 86.3,-220.24"/>
<polygon fill="purple" stroke="purple" points="89.8,-220.18 86.3,-210.18 82.8,-220.18 89.8,-220.18"/>
<text text-anchor="middle" x="121.8" y="-231.8" font-family="Times,serif" font-size="14.00" fill="purple">Pass Data</text>
</g>
<!-- 932f0888&#45;86ec&#45;47f0&#45;9585&#45;78a97ccd6809 -->
<g id="node6" class="node">
<title>932f0888&#45;86ec&#45;47f0&#45;9585&#45;78a97ccd6809</title>
<ellipse fill="none" stroke="black" cx="294.3" cy="-453" rx="46.4" ry="18"/>
<text text-anchor="middle" x="294.3" y="-449.3" font-family="Times,serif" font-size="14.00">AlwaysTrue</text>
</g>
<!-- 932f0888&#45;86ec&#45;47f0&#45;9585&#45;78a97ccd6809&#45;&gt;493fac1e&#45;24e4&#45;4115&#45;8d64&#45;6d480a6cb158 -->
<g id="edge4" class="edge">
<title>932f0888&#45;86ec&#45;47f0&#45;9585&#45;78a97ccd6809&#45;&gt;493fac1e&#45;24e4&#45;4115&#45;8d64&#45;6d480a6cb158</title>
<path fill="none" stroke="purple" d="M294.3,-434.8C294.3,-423.16 294.3,-407.55 294.3,-394.24"/>
<polygon fill="purple" stroke="purple" points="297.8,-394.18 294.3,-384.18 290.8,-394.18 297.8,-394.18"/>
<text text-anchor="middle" x="329.8" y="-405.8" font-family="Times,serif" font-size="14.00" fill="purple">Pass Data</text>
</g>
<!-- 1839969d&#45;8908&#45;4297&#45;8a0e&#45;9c4bf5b99026 -->
<g id="node7" class="node">
<title>1839969d&#45;8908&#45;4297&#45;8a0e&#45;9c4bf5b99026</title>
<ellipse fill="none" stroke="black" cx="294.3" cy="-526" rx="47.1" ry="18"/>
<text text-anchor="middle" x="294.3" y="-522.3" font-family="Times,serif" font-size="14.00">DelayAction</text>
</g>
<!-- 1839969d&#45;8908&#45;4297&#45;8a0e&#45;9c4bf5b99026&#45;&gt;932f0888&#45;86ec&#45;47f0&#45;9585&#45;78a97ccd6809 -->
<g id="edge5" class="edge">
<title>1839969d&#45;8908&#45;4297&#45;8a0e&#45;9c4bf5b99026&#45;&gt;932f0888&#45;86ec&#45;47f0&#45;9585&#45;78a97ccd6809</title>
<path fill="none" stroke="black" d="M294.3,-507.81C294.3,-499.79 294.3,-490.05 294.3,-481.07"/>
<polygon fill="black" stroke="black" points="297.8,-481.03 294.3,-471.03 290.8,-481.03 297.8,-481.03"/>
</g>
<!-- e70a8e04&#45;1b91&#45;45ca&#45;a6b8&#45;bda04c4cc89c -->
<g id="node9" class="node">
<title>e70a8e04&#45;1b91&#45;45ca&#45;a6b8&#45;bda04c4cc89c</title>
<ellipse fill="none" stroke="black" cx="47.3" cy="-366" rx="47.1" ry="18"/>
<text text-anchor="middle" x="47.3" y="-362.3" font-family="Times,serif" font-size="14.00">DelayAction</text>
</g>
<!-- e70a8e04&#45;1b91&#45;45ca&#45;a6b8&#45;bda04c4cc89c&#45;&gt;23d91af6&#45;9791&#45;4de2&#45;b2fb&#45;df9b0f400fe5 -->
<g id="edge8" class="edge">
<title>e70a8e04&#45;1b91&#45;45ca&#45;a6b8&#45;bda04c4cc89c&#45;&gt;23d91af6&#45;9791&#45;4de2&#45;b2fb&#45;df9b0f400fe5</title>
<path fill="none" stroke="black" d="M55.01,-348.21C60.51,-336.22 68.02,-319.85 74.3,-306.16"/>
<polygon fill="black" stroke="black" points="77.62,-307.31 78.61,-296.76 71.26,-304.39 77.62,-307.31"/>
</g>
<!-- 7ed648e5&#45;aeeb&#45;4c90&#45;81a2&#45;e45c4e5ab91e -->
<g id="node10" class="node">
<title>7ed648e5&#45;aeeb&#45;4c90&#45;81a2&#45;e45c4e5ab91e</title>
<ellipse fill="none" stroke="black" cx="494.3" cy="-526" rx="80.11" ry="18"/>
<text text-anchor="middle" x="494.3" y="-522.3" font-family="Times,serif" font-size="14.00">Stability2Movement</text>
</g>
</g>
</svg>
