<?xml version="1.0" encoding="UTF-8" standalone="no"?>
<!DOCTYPE svg PUBLIC "-//W3C//DTD SVG 1.1//EN"
 "http://www.w3.org/Graphics/SVG/1.1/DTD/svg11.dtd">
<!-- Generated by graphviz version 2.43.0 (0)
 -->
<!-- Title: G Pages: 1 -->
<svg width="318pt" height="987pt"
 viewBox="0.00 0.00 318.29 987.00" xmlns="http://www.w3.org/2000/svg" xmlns:xlink="http://www.w3.org/1999/xlink">
<g id="graph0" class="graph" transform="scale(1 1) rotate(0) translate(4 983)">
<title>G</title>
<polygon fill="transparent" stroke="transparent" points="-4,4 -4,-983 314.29,-983 314.29,4 -4,4"/>
<!-- bd5fcd31&#45;24c1&#45;4ebb&#45;ad9b&#45;d48aef2ccc5a -->
<g id="node1" class="node">
<title>bd5fcd31&#45;24c1&#45;4ebb&#45;ad9b&#45;d48aef2ccc5a</title>
<polygon fill="none" stroke="black" points="65.34,-906 0.16,-888 65.34,-870 130.52,-888 65.34,-906"/>
<text text-anchor="middle" x="65.34" y="-884.3" font-family="Times,serif" font-size="14.00">AlwaysTrue</text>
</g>
<!-- 26099dfa&#45;b7cc&#45;4a78&#45;8e96&#45;31288cd16b21 -->
<g id="node11" class="node">
<title>26099dfa&#45;b7cc&#45;4a78&#45;8e96&#45;31288cd16b21</title>
<ellipse fill="none" stroke="black" cx="103.34" cy="-801" rx="46.5" ry="18"/>
<text text-anchor="middle" x="103.34" y="-797.3" font-family="Times,serif" font-size="14.00">VisionNorm</text>
</g>
<!-- bd5fcd31&#45;24c1&#45;4ebb&#45;ad9b&#45;d48aef2ccc5a&#45;&gt;26099dfa&#45;b7cc&#45;4a78&#45;8e96&#45;31288cd16b21 -->
<g id="edge10" class="edge">
<title>bd5fcd31&#45;24c1&#45;4ebb&#45;ad9b&#45;d48aef2ccc5a&#45;&gt;26099dfa&#45;b7cc&#45;4a78&#45;8e96&#45;31288cd16b21</title>
<path fill="none" stroke="black" d="M72.13,-871.8C77.54,-859.7 85.25,-842.47 91.65,-828.16"/>
<polygon fill="black" stroke="black" points="94.94,-829.37 95.82,-818.81 88.55,-826.51 94.94,-829.37"/>
<text text-anchor="middle" x="104.34" y="-840.8" font-family="Times,serif" font-size="14.00">True</text>
</g>
<!-- 546e173d&#45;0ed3&#45;4122&#45;a79c&#45;cd42f3645e9a -->
<g id="node2" class="node">
<title>546e173d&#45;0ed3&#45;4122&#45;a79c&#45;cd42f3645e9a</title>
<ellipse fill="none" stroke="black" cx="103.34" cy="-105" rx="27" ry="18"/>
<text text-anchor="middle" x="103.34" y="-101.3" font-family="Times,serif" font-size="14.00">FlatX</text>
</g>
<!-- 20a99b08&#45;653d&#45;4dda&#45;b215&#45;ca5e9469b19f -->
<g id="node3" class="node">
<title>20a99b08&#45;653d&#45;4dda&#45;b215&#45;ca5e9469b19f</title>
<ellipse fill="none" stroke="black" cx="103.34" cy="-18" rx="80.11" ry="18"/>
<text text-anchor="middle" x="103.34" y="-14.3" font-family="Times,serif" font-size="14.00">Stability2Movement</text>
</g>
<!-- 546e173d&#45;0ed3&#45;4122&#45;a79c&#45;cd42f3645e9a&#45;&gt;20a99b08&#45;653d&#45;4dda&#45;b215&#45;ca5e9469b19f -->
<g id="edge1" class="edge">
<title>546e173d&#45;0ed3&#45;4122&#45;a79c&#45;cd42f3645e9a&#45;&gt;20a99b08&#45;653d&#45;4dda&#45;b215&#45;ca5e9469b19f</title>
<path fill="none" stroke="purple" d="M103.34,-86.8C103.34,-75.16 103.34,-59.55 103.34,-46.24"/>
<polygon fill="purple" stroke="purple" points="106.84,-46.18 103.34,-36.18 99.84,-46.18 106.84,-46.18"/>
<text text-anchor="middle" x="138.84" y="-57.8" font-family="Times,serif" font-size="14.00" fill="purple">Pass Data</text>
</g>
<!-- ab47252f&#45;bc31&#45;40f4&#45;ab35&#45;147efc3e797f -->
<g id="node4" class="node">
<title>ab47252f&#45;bc31&#45;40f4&#45;ab35&#45;147efc3e797f</title>
<ellipse fill="none" stroke="black" cx="103.34" cy="-192" rx="27" ry="18"/>
<text text-anchor="middle" x="103.34" y="-188.3" font-family="Times,serif" font-size="14.00">StripY</text>
</g>
<!-- ab47252f&#45;bc31&#45;40f4&#45;ab35&#45;147efc3e797f&#45;&gt;546e173d&#45;0ed3&#45;4122&#45;a79c&#45;cd42f3645e9a -->
<g id="edge2" class="edge">
<title>ab47252f&#45;bc31&#45;40f4&#45;ab35&#45;147efc3e797f&#45;&gt;546e173d&#45;0ed3&#45;4122&#45;a79c&#45;cd42f3645e9a</title>
<path fill="none" stroke="purple" d="M103.34,-173.8C103.34,-162.16 103.34,-146.55 103.34,-133.24"/>
<polygon fill="purple" stroke="purple" points="106.84,-133.18 103.34,-123.18 99.84,-133.18 106.84,-133.18"/>
<text text-anchor="middle" x="138.84" y="-144.8" font-family="Times,serif" font-size="14.00" fill="purple">Pass Data</text>
</g>
<!-- 78fc0a95&#45;206d&#45;4df7&#45;91af&#45;a00d87951d84 -->
<g id="node5" class="node">
<title>78fc0a95&#45;206d&#45;4df7&#45;91af&#45;a00d87951d84</title>
<ellipse fill="none" stroke="black" cx="103.34" cy="-279" rx="52.6" ry="18"/>
<text text-anchor="middle" x="103.34" y="-275.3" font-family="Times,serif" font-size="14.00">Anon Closure</text>
</g>
<!-- 78fc0a95&#45;206d&#45;4df7&#45;91af&#45;a00d87951d84&#45;&gt;ab47252f&#45;bc31&#45;40f4&#45;ab35&#45;147efc3e797f -->
<g id="edge3" class="edge">
<title>78fc0a95&#45;206d&#45;4df7&#45;91af&#45;a00d87951d84&#45;&gt;ab47252f&#45;bc31&#45;40f4&#45;ab35&#45;147efc3e797f</title>
<path fill="none" stroke="purple" d="M103.34,-260.8C103.34,-249.16 103.34,-233.55 103.34,-220.24"/>
<polygon fill="purple" stroke="purple" points="106.84,-220.18 103.34,-210.18 99.84,-220.18 106.84,-220.18"/>
<text text-anchor="middle" x="138.84" y="-231.8" font-family="Times,serif" font-size="14.00" fill="purple">Pass Data</text>
</g>
<!-- f5b05e26&#45;5d33&#45;4620&#45;8190&#45;ed1ac5c2a6e9 -->
<g id="node6" class="node">
<title>f5b05e26&#45;5d33&#45;4620&#45;8190&#45;ed1ac5c2a6e9</title>
<ellipse fill="none" stroke="black" cx="103.34" cy="-366" rx="51.3" ry="18"/>
<text text-anchor="middle" x="103.34" y="-362.3" font-family="Times,serif" font-size="14.00">OffsetToPose</text>
</g>
<!-- f5b05e26&#45;5d33&#45;4620&#45;8190&#45;ed1ac5c2a6e9&#45;&gt;78fc0a95&#45;206d&#45;4df7&#45;91af&#45;a00d87951d84 -->
<g id="edge4" class="edge">
<title>f5b05e26&#45;5d33&#45;4620&#45;8190&#45;ed1ac5c2a6e9&#45;&gt;78fc0a95&#45;206d&#45;4df7&#45;91af&#45;a00d87951d84</title>
<path fill="none" stroke="purple" d="M103.34,-347.8C103.34,-336.16 103.34,-320.55 103.34,-307.24"/>
<polygon fill="purple" stroke="purple" points="106.84,-307.18 103.34,-297.18 99.84,-307.18 106.84,-307.18"/>
<text text-anchor="middle" x="138.84" y="-318.8" font-family="Times,serif" font-size="14.00" fill="purple">Pass Data</text>
</g>
<!-- dbd65147&#45;1761&#45;4741&#45;9e81&#45;4b6f6a119f3d -->
<g id="node7" class="node">
<title>dbd65147&#45;1761&#45;4741&#45;9e81&#45;4b6f6a119f3d</title>
<ellipse fill="none" stroke="black" cx="103.34" cy="-453" rx="32.4" ry="18"/>
<text text-anchor="middle" x="103.34" y="-449.3" font-family="Times,serif" font-size="14.00">Average</text>
</g>
<!-- dbd65147&#45;1761&#45;4741&#45;9e81&#45;4b6f6a119f3d&#45;&gt;f5b05e26&#45;5d33&#45;4620&#45;8190&#45;ed1ac5c2a6e9 -->
<g id="edge5" class="edge">
<title>dbd65147&#45;1761&#45;4741&#45;9e81&#45;4b6f6a119f3d&#45;&gt;f5b05e26&#45;5d33&#45;4620&#45;8190&#45;ed1ac5c2a6e9</title>
<path fill="none" stroke="purple" d="M103.34,-434.8C103.34,-423.16 103.34,-407.55 103.34,-394.24"/>
<polygon fill="purple" stroke="purple" points="106.84,-394.18 103.34,-384.18 99.84,-394.18 106.84,-394.18"/>
<text text-anchor="middle" x="138.84" y="-405.8" font-family="Times,serif" font-size="14.00" fill="purple">Pass Data</text>
</g>
<!-- 3096f895&#45;a34c&#45;4cb4&#45;b26b&#45;7243c7f15f96 -->
<g id="node8" class="node">
<title>3096f895&#45;a34c&#45;4cb4&#45;b26b&#45;7243c7f15f96</title>
<ellipse fill="none" stroke="black" cx="103.34" cy="-540" rx="61.1" ry="18"/>
<text text-anchor="middle" x="103.34" y="-536.3" font-family="Times,serif" font-size="14.00">ExtractPosition</text>
</g>
<!-- 3096f895&#45;a34c&#45;4cb4&#45;b26b&#45;7243c7f15f96&#45;&gt;dbd65147&#45;1761&#45;4741&#45;9e81&#45;4b6f6a119f3d -->
<g id="edge6" class="edge">
<title>3096f895&#45;a34c&#45;4cb4&#45;b26b&#45;7243c7f15f96&#45;&gt;dbd65147&#45;1761&#45;4741&#45;9e81&#45;4b6f6a119f3d</title>
<path fill="none" stroke="purple" d="M103.34,-521.8C103.34,-510.16 103.34,-494.55 103.34,-481.24"/>
<polygon fill="purple" stroke="purple" points="106.84,-481.18 103.34,-471.18 99.84,-481.18 106.84,-481.18"/>
<text text-anchor="middle" x="138.84" y="-492.8" font-family="Times,serif" font-size="14.00" fill="purple">Pass Data</text>
</g>
<!-- 9b5bf591&#45;e49b&#45;444a&#45;8c52&#45;9b6e422ed872 -->
<g id="node9" class="node">
<title>9b5bf591&#45;e49b&#45;444a&#45;8c52&#45;9b6e422ed872</title>
<ellipse fill="none" stroke="black" cx="103.34" cy="-627" rx="27" ry="18"/>
<text text-anchor="middle" x="103.34" y="-623.3" font-family="Times,serif" font-size="14.00">ToVec</text>
</g>
<!-- 9b5bf591&#45;e49b&#45;444a&#45;8c52&#45;9b6e422ed872&#45;&gt;3096f895&#45;a34c&#45;4cb4&#45;b26b&#45;7243c7f15f96 -->
<g id="edge7" class="edge">
<title>9b5bf591&#45;e49b&#45;444a&#45;8c52&#45;9b6e422ed872&#45;&gt;3096f895&#45;a34c&#45;4cb4&#45;b26b&#45;7243c7f15f96</title>
<path fill="none" stroke="purple" d="M103.34,-608.8C103.34,-597.16 103.34,-581.55 103.34,-568.24"/>
<polygon fill="purple" stroke="purple" points="106.84,-568.18 103.34,-558.18 99.84,-568.18 106.84,-568.18"/>
<text text-anchor="middle" x="138.84" y="-579.8" font-family="Times,serif" font-size="14.00" fill="purple">Pass Data</text>
</g>
<!-- 0899f1d5&#45;a971&#45;4085&#45;857f&#45;e901a3213d72 -->
<g id="node10" class="node">
<title>0899f1d5&#45;a971&#45;4085&#45;857f&#45;e901a3213d72</title>
<ellipse fill="none" stroke="black" cx="103.34" cy="-714" rx="45.2" ry="18"/>
<text text-anchor="middle" x="103.34" y="-710.3" font-family="Times,serif" font-size="14.00">Detect true</text>
</g>
<!-- 0899f1d5&#45;a971&#45;4085&#45;857f&#45;e901a3213d72&#45;&gt;9b5bf591&#45;e49b&#45;444a&#45;8c52&#45;9b6e422ed872 -->
<g id="edge8" class="edge">
<title>0899f1d5&#45;a971&#45;4085&#45;857f&#45;e901a3213d72&#45;&gt;9b5bf591&#45;e49b&#45;444a&#45;8c52&#45;9b6e422ed872</title>
<path fill="none" stroke="purple" d="M103.34,-695.8C103.34,-684.16 103.34,-668.55 103.34,-655.24"/>
<polygon fill="purple" stroke="purple" points="106.84,-655.18 103.34,-645.18 99.84,-655.18 106.84,-655.18"/>
<text text-anchor="middle" x="138.84" y="-666.8" font-family="Times,serif" font-size="14.00" fill="purple">Pass Data</text>
</g>
<!-- 26099dfa&#45;b7cc&#45;4a78&#45;8e96&#45;31288cd16b21&#45;&gt;0899f1d5&#45;a971&#45;4085&#45;857f&#45;e901a3213d72 -->
<g id="edge9" class="edge">
<title>26099dfa&#45;b7cc&#45;4a78&#45;8e96&#45;31288cd16b21&#45;&gt;0899f1d5&#45;a971&#45;4085&#45;857f&#45;e901a3213d72</title>
<path fill="none" stroke="purple" d="M103.34,-782.8C103.34,-771.16 103.34,-755.55 103.34,-742.24"/>
<polygon fill="purple" stroke="purple" points="106.84,-742.18 103.34,-732.18 99.84,-742.18 106.84,-742.18"/>
<text text-anchor="middle" x="138.84" y="-753.8" font-family="Times,serif" font-size="14.00" fill="purple">Pass Data</text>
</g>
<!-- f50e8ba9&#45;95d1&#45;47a2&#45;8fde&#45;402a9a452603 -->
<g id="node12" class="node">
<title>f50e8ba9&#45;95d1&#45;47a2&#45;8fde&#45;402a9a452603</title>
<ellipse fill="none" stroke="black" cx="250.34" cy="-888" rx="47.1" ry="18"/>
<text text-anchor="middle" x="250.34" y="-884.3" font-family="Times,serif" font-size="14.00">DelayAction</text>
</g>
<!-- f50e8ba9&#45;95d1&#45;47a2&#45;8fde&#45;402a9a452603&#45;&gt;26099dfa&#45;b7cc&#45;4a78&#45;8e96&#45;31288cd16b21 -->
<g id="edge11" class="edge">
<title>f50e8ba9&#45;95d1&#45;47a2&#45;8fde&#45;402a9a452603&#45;&gt;26099dfa&#45;b7cc&#45;4a78&#45;8e96&#45;31288cd16b21</title>
<path fill="none" stroke="black" d="M225.4,-872.58C201.12,-858.54 164.03,-837.09 137.1,-821.52"/>
<polygon fill="black" stroke="black" points="138.81,-818.47 128.4,-816.49 135.3,-824.53 138.81,-818.47"/>
</g>
<!-- 32147b15&#45;1c4c&#45;445b&#45;890b&#45;db95c92ae507 -->
<g id="node13" class="node">
<title>32147b15&#45;1c4c&#45;445b&#45;890b&#45;db95c92ae507</title>
<ellipse fill="none" stroke="black" cx="250.34" cy="-961" rx="59.9" ry="18"/>
<text text-anchor="middle" x="250.34" y="-957.3" font-family="Times,serif" font-size="14.00">ZeroMovement</text>
</g>
<!-- 32147b15&#45;1c4c&#45;445b&#45;890b&#45;db95c92ae507&#45;&gt;f50e8ba9&#45;95d1&#45;47a2&#45;8fde&#45;402a9a452603 -->
<g id="edge12" class="edge">
<title>32147b15&#45;1c4c&#45;445b&#45;890b&#45;db95c92ae507&#45;&gt;f50e8ba9&#45;95d1&#45;47a2&#45;8fde&#45;402a9a452603</title>
<path fill="none" stroke="black" d="M250.34,-942.81C250.34,-934.79 250.34,-925.05 250.34,-916.07"/>
<polygon fill="black" stroke="black" points="253.84,-916.03 250.34,-906.03 246.84,-916.03 253.84,-916.03"/>
</g>
</g>
</svg>
