<?xml version="1.0" encoding="UTF-8" standalone="no"?>
<!DOCTYPE svg PUBLIC "-//W3C//DTD SVG 1.1//EN"
 "http://www.w3.org/Graphics/SVG/1.1/DTD/svg11.dtd">
<!-- Generated by graphviz version 2.43.0 (0)
 -->
<!-- Title: G Pages: 1 -->
<svg width="583pt" height="552pt"
 viewBox="0.00 0.00 582.60 552.00" xmlns="http://www.w3.org/2000/svg" xmlns:xlink="http://www.w3.org/1999/xlink">
<g id="graph0" class="graph" transform="scale(1 1) rotate(0) translate(4 548)">
<title>G</title>
<polygon fill="transparent" stroke="transparent" points="-4,4 -4,-548 578.6,-548 578.6,4 -4,4"/>
<!-- e7bae52d&#45;3d99&#45;41ec&#45;b669&#45;e004dd08c317 -->
<g id="node1" class="node">
<title>e7bae52d&#45;3d99&#45;41ec&#45;b669&#45;e004dd08c317</title>
<polygon fill="none" stroke="black" points="294.3,-384 166.67,-366 294.3,-348 421.93,-366 294.3,-384"/>
<text text-anchor="middle" x="294.3" y="-362.3" font-family="Times,serif" font-size="14.00">Consecutive True &lt; 34</text>
</g>
<!-- 978a4afb&#45;38fc&#45;4fc5&#45;8842&#45;2cfd1b036496 -->
<g id="node5" class="node">
<title>978a4afb&#45;38fc&#45;4fc5&#45;8842&#45;2cfd1b036496</title>
<ellipse fill="none" stroke="black" cx="86.3" cy="-279" rx="38.5" ry="18"/>
<text text-anchor="middle" x="86.3" y="-275.3" font-family="Times,serif" font-size="14.00">ConstYaw</text>
</g>
<!-- e7bae52d&#45;3d99&#45;41ec&#45;b669&#45;e004dd08c317&#45;&gt;978a4afb&#45;38fc&#45;4fc5&#45;8842&#45;2cfd1b036496 -->
<g id="edge6" class="edge">
<title>e7bae52d&#45;3d99&#45;41ec&#45;b669&#45;e004dd08c317&#45;&gt;978a4afb&#45;38fc&#45;4fc5&#45;8842&#45;2cfd1b036496</title>
<path fill="none" stroke="black" d="M263.16,-352.27C225.89,-337.04 163.53,-311.56 123.69,-295.28"/>
<polygon fill="black" stroke="black" points="124.9,-291.99 114.32,-291.45 122.25,-298.47 124.9,-291.99"/>
<text text-anchor="middle" x="220.3" y="-318.8" font-family="Times,serif" font-size="14.00">True</text>
</g>
<!-- 9ecb4327&#45;048f&#45;45cf&#45;9acb&#45;179bb9c0f527 -->
<g id="node8" class="node">
<title>9ecb4327&#45;048f&#45;45cf&#45;9acb&#45;179bb9c0f527</title>
<ellipse fill="none" stroke="black" cx="294.3" cy="-279" rx="59.9" ry="18"/>
<text text-anchor="middle" x="294.3" y="-275.3" font-family="Times,serif" font-size="14.00">ZeroMovement</text>
</g>
<!-- e7bae52d&#45;3d99&#45;41ec&#45;b669&#45;e004dd08c317&#45;&gt;9ecb4327&#45;048f&#45;45cf&#45;9acb&#45;179bb9c0f527 -->
<g id="edge7" class="edge">
<title>e7bae52d&#45;3d99&#45;41ec&#45;b669&#45;e004dd08c317&#45;&gt;9ecb4327&#45;048f&#45;45cf&#45;9acb&#45;179bb9c0f527</title>
<path fill="none" stroke="black" d="M294.3,-347.8C294.3,-336.16 294.3,-320.55 294.3,-307.24"/>
<polygon fill="black" stroke="black" points="297.8,-307.18 294.3,-297.18 290.8,-307.18 297.8,-307.18"/>
<text text-anchor="middle" x="313.3" y="-318.8" font-family="Times,serif" font-size="14.00">False</text>
</g>
<!-- 6107e7ff&#45;eab3&#45;42ec&#45;ae32&#45;250c53e70d05 -->
<g id="node2" class="node">
<title>6107e7ff&#45;eab3&#45;42ec&#45;ae32&#45;250c53e70d05</title>
<ellipse fill="none" stroke="black" cx="86.3" cy="-105" rx="36.1" ry="18"/>
<text text-anchor="middle" x="86.3" y="-101.3" font-family="Times,serif" font-size="14.00">SideMult</text>
</g>
<!-- a5144211&#45;040c&#45;4113&#45;988c&#45;fe73f5e0ecdd -->
<g id="node3" class="node">
<title>a5144211&#45;040c&#45;4113&#45;988c&#45;fe73f5e0ecdd</title>
<ellipse fill="none" stroke="black" cx="86.3" cy="-18" rx="80.11" ry="18"/>
<text text-anchor="middle" x="86.3" y="-14.3" font-family="Times,serif" font-size="14.00">Stability2Movement</text>
</g>
<!-- 6107e7ff&#45;eab3&#45;42ec&#45;ae32&#45;250c53e70d05&#45;&gt;a5144211&#45;040c&#45;4113&#45;988c&#45;fe73f5e0ecdd -->
<g id="edge1" class="edge">
<title>6107e7ff&#45;eab3&#45;42ec&#45;ae32&#45;250c53e70d05&#45;&gt;a5144211&#45;040c&#45;4113&#45;988c&#45;fe73f5e0ecdd</title>
<path fill="none" stroke="purple" d="M86.3,-86.8C86.3,-75.16 86.3,-59.55 86.3,-46.24"/>
<polygon fill="purple" stroke="purple" points="89.8,-46.18 86.3,-36.18 82.8,-46.18 89.8,-46.18"/>
<text text-anchor="middle" x="121.8" y="-57.8" font-family="Times,serif" font-size="14.00" fill="purple">Pass Data</text>
</g>
<!-- 7d28f4e2&#45;31ba&#45;4260&#45;9213&#45;6b2cc8b127fa -->
<g id="node4" class="node">
<title>7d28f4e2&#45;31ba&#45;4260&#45;9213&#45;6b2cc8b127fa</title>
<ellipse fill="none" stroke="black" cx="86.3" cy="-192" rx="27" ry="18"/>
<text text-anchor="middle" x="86.3" y="-188.3" font-family="Times,serif" font-size="14.00">SetX</text>
</g>
<!-- 7d28f4e2&#45;31ba&#45;4260&#45;9213&#45;6b2cc8b127fa&#45;&gt;6107e7ff&#45;eab3&#45;42ec&#45;ae32&#45;250c53e70d05 -->
<g id="edge2" class="edge">
<title>7d28f4e2&#45;31ba&#45;4260&#45;9213&#45;6b2cc8b127fa&#45;&gt;6107e7ff&#45;eab3&#45;42ec&#45;ae32&#45;250c53e70d05</title>
<path fill="none" stroke="purple" d="M86.3,-173.8C86.3,-162.16 86.3,-146.55 86.3,-133.24"/>
<polygon fill="purple" stroke="purple" points="89.8,-133.18 86.3,-123.18 82.8,-133.18 89.8,-133.18"/>
<text text-anchor="middle" x="121.8" y="-144.8" font-family="Times,serif" font-size="14.00" fill="purple">Pass Data</text>
</g>
<!-- 978a4afb&#45;38fc&#45;4fc5&#45;8842&#45;2cfd1b036496&#45;&gt;7d28f4e2&#45;31ba&#45;4260&#45;9213&#45;6b2cc8b127fa -->
<g id="edge3" class="edge">
<title>978a4afb&#45;38fc&#45;4fc5&#45;8842&#45;2cfd1b036496&#45;&gt;7d28f4e2&#45;31ba&#45;4260&#45;9213&#45;6b2cc8b127fa</title>
<path fill="none" stroke="purple" d="M86.3,-260.8C86.3,-249.16 86.3,-233.55 86.3,-220.24"/>
<polygon fill="purple" stroke="purple" points="89.8,-220.18 86.3,-210.18 82.8,-220.18 89.8,-220.18"/>
<text text-anchor="middle" x="121.8" y="-231.8" font-family="Times,serif" font-size="14.00" fill="purple">Pass Data</text>
</g>
<!-- 5976cf68&#45;e380&#45;4b94&#45;9756&#45;b02df9381360 -->
<g id="node6" class="node">
<title>5976cf68&#45;e380&#45;4b94&#45;9756&#45;b02df9381360</title>
<ellipse fill="none" stroke="black" cx="294.3" cy="-453" rx="46.4" ry="18"/>
<text text-anchor="middle" x="294.3" y="-449.3" font-family="Times,serif" font-size="14.00">AlwaysTrue</text>
</g>
<!-- 5976cf68&#45;e380&#45;4b94&#45;9756&#45;b02df9381360&#45;&gt;e7bae52d&#45;3d99&#45;41ec&#45;b669&#45;e004dd08c317 -->
<g id="edge4" class="edge">
<title>5976cf68&#45;e380&#45;4b94&#45;9756&#45;b02df9381360&#45;&gt;e7bae52d&#45;3d99&#45;41ec&#45;b669&#45;e004dd08c317</title>
<path fill="none" stroke="purple" d="M294.3,-434.8C294.3,-423.16 294.3,-407.55 294.3,-394.24"/>
<polygon fill="purple" stroke="purple" points="297.8,-394.18 294.3,-384.18 290.8,-394.18 297.8,-394.18"/>
<text text-anchor="middle" x="329.8" y="-405.8" font-family="Times,serif" font-size="14.00" fill="purple">Pass Data</text>
</g>
<!-- d25b06ec&#45;d217&#45;4640&#45;9345&#45;889c3795d41e -->
<g id="node7" class="node">
<title>d25b06ec&#45;d217&#45;4640&#45;9345&#45;889c3795d41e</title>
<ellipse fill="none" stroke="black" cx="294.3" cy="-526" rx="47.1" ry="18"/>
<text text-anchor="middle" x="294.3" y="-522.3" font-family="Times,serif" font-size="14.00">DelayAction</text>
</g>
<!-- d25b06ec&#45;d217&#45;4640&#45;9345&#45;889c3795d41e&#45;&gt;5976cf68&#45;e380&#45;4b94&#45;9756&#45;b02df9381360 -->
<g id="edge5" class="edge">
<title>d25b06ec&#45;d217&#45;4640&#45;9345&#45;889c3795d41e&#45;&gt;5976cf68&#45;e380&#45;4b94&#45;9756&#45;b02df9381360</title>
<path fill="none" stroke="black" d="M294.3,-507.81C294.3,-499.79 294.3,-490.05 294.3,-481.07"/>
<polygon fill="black" stroke="black" points="297.8,-481.03 294.3,-471.03 290.8,-481.03 297.8,-481.03"/>
</g>
<!-- 9b5c3b27&#45;ad3e&#45;48a4&#45;b599&#45;e2e24be5af2e -->
<g id="node9" class="node">
<title>9b5c3b27&#45;ad3e&#45;48a4&#45;b599&#45;e2e24be5af2e</title>
<ellipse fill="none" stroke="black" cx="47.3" cy="-366" rx="47.1" ry="18"/>
<text text-anchor="middle" x="47.3" y="-362.3" font-family="Times,serif" font-size="14.00">DelayAction</text>
</g>
<!-- 9b5c3b27&#45;ad3e&#45;48a4&#45;b599&#45;e2e24be5af2e&#45;&gt;978a4afb&#45;38fc&#45;4fc5&#45;8842&#45;2cfd1b036496 -->
<g id="edge8" class="edge">
<title>9b5c3b27&#45;ad3e&#45;48a4&#45;b599&#45;e2e24be5af2e&#45;&gt;978a4afb&#45;38fc&#45;4fc5&#45;8842&#45;2cfd1b036496</title>
<path fill="none" stroke="black" d="M55.01,-348.21C60.51,-336.22 68.02,-319.85 74.3,-306.16"/>
<polygon fill="black" stroke="black" points="77.62,-307.31 78.61,-296.76 71.26,-304.39 77.62,-307.31"/>
</g>
<!-- 0514c234&#45;2986&#45;4d67&#45;906a&#45;386310315754 -->
<g id="node10" class="node">
<title>0514c234&#45;2986&#45;4d67&#45;906a&#45;386310315754</title>
<ellipse fill="none" stroke="black" cx="494.3" cy="-526" rx="80.11" ry="18"/>
<text text-anchor="middle" x="494.3" y="-522.3" font-family="Times,serif" font-size="14.00">Stability2Movement</text>
</g>
</g>
</svg>
