<?xml version="1.0" encoding="UTF-8" standalone="no"?>
<!DOCTYPE svg PUBLIC "-//W3C//DTD SVG 1.1//EN"
 "http://www.w3.org/Graphics/SVG/1.1/DTD/svg11.dtd">
<!-- Generated by graphviz version 2.43.0 (0)
 -->
<!-- Title: G Pages: 1 -->
<svg width="318pt" height="987pt"
 viewBox="0.00 0.00 318.29 987.00" xmlns="http://www.w3.org/2000/svg" xmlns:xlink="http://www.w3.org/1999/xlink">
<g id="graph0" class="graph" transform="scale(1 1) rotate(0) translate(4 983)">
<title>G</title>
<polygon fill="transparent" stroke="transparent" points="-4,4 -4,-983 314.29,-983 314.29,4 -4,4"/>
<!-- cb7bdf61&#45;2371&#45;4c52&#45;b20a&#45;8723cbae5348 -->
<g id="node1" class="node">
<title>cb7bdf61&#45;2371&#45;4c52&#45;b20a&#45;8723cbae5348</title>
<polygon fill="none" stroke="black" points="65.34,-906 0.16,-888 65.34,-870 130.52,-888 65.34,-906"/>
<text text-anchor="middle" x="65.34" y="-884.3" font-family="Times,serif" font-size="14.00">AlwaysTrue</text>
</g>
<!-- a8f6bfae&#45;a498&#45;41fd&#45;8a08&#45;b063941fec68 -->
<g id="node11" class="node">
<title>a8f6bfae&#45;a498&#45;41fd&#45;8a08&#45;b063941fec68</title>
<ellipse fill="none" stroke="black" cx="103.34" cy="-801" rx="46.5" ry="18"/>
<text text-anchor="middle" x="103.34" y="-797.3" font-family="Times,serif" font-size="14.00">VisionNorm</text>
</g>
<!-- cb7bdf61&#45;2371&#45;4c52&#45;b20a&#45;8723cbae5348&#45;&gt;a8f6bfae&#45;a498&#45;41fd&#45;8a08&#45;b063941fec68 -->
<g id="edge10" class="edge">
<title>cb7bdf61&#45;2371&#45;4c52&#45;b20a&#45;8723cbae5348&#45;&gt;a8f6bfae&#45;a498&#45;41fd&#45;8a08&#45;b063941fec68</title>
<path fill="none" stroke="black" d="M72.13,-871.8C77.54,-859.7 85.25,-842.47 91.65,-828.16"/>
<polygon fill="black" stroke="black" points="94.94,-829.37 95.82,-818.81 88.55,-826.51 94.94,-829.37"/>
<text text-anchor="middle" x="104.34" y="-840.8" font-family="Times,serif" font-size="14.00">True</text>
</g>
<!-- 06d115fc&#45;838a&#45;4c29&#45;a5b8&#45;a3486822600c -->
<g id="node2" class="node">
<title>06d115fc&#45;838a&#45;4c29&#45;a5b8&#45;a3486822600c</title>
<ellipse fill="none" stroke="black" cx="103.34" cy="-105" rx="27" ry="18"/>
<text text-anchor="middle" x="103.34" y="-101.3" font-family="Times,serif" font-size="14.00">FlatX</text>
</g>
<!-- 058a1d55&#45;b635&#45;480c&#45;a212&#45;599643b448fe -->
<g id="node3" class="node">
<title>058a1d55&#45;b635&#45;480c&#45;a212&#45;599643b448fe</title>
<ellipse fill="none" stroke="black" cx="103.34" cy="-18" rx="80.11" ry="18"/>
<text text-anchor="middle" x="103.34" y="-14.3" font-family="Times,serif" font-size="14.00">Stability2Movement</text>
</g>
<!-- 06d115fc&#45;838a&#45;4c29&#45;a5b8&#45;a3486822600c&#45;&gt;058a1d55&#45;b635&#45;480c&#45;a212&#45;599643b448fe -->
<g id="edge1" class="edge">
<title>06d115fc&#45;838a&#45;4c29&#45;a5b8&#45;a3486822600c&#45;&gt;058a1d55&#45;b635&#45;480c&#45;a212&#45;599643b448fe</title>
<path fill="none" stroke="purple" d="M103.34,-86.8C103.34,-75.16 103.34,-59.55 103.34,-46.24"/>
<polygon fill="purple" stroke="purple" points="106.84,-46.18 103.34,-36.18 99.84,-46.18 106.84,-46.18"/>
<text text-anchor="middle" x="138.84" y="-57.8" font-family="Times,serif" font-size="14.00" fill="purple">Pass Data</text>
</g>
<!-- f8fe7da8&#45;c13b&#45;434c&#45;9134&#45;e8b924060b9c -->
<g id="node4" class="node">
<title>f8fe7da8&#45;c13b&#45;434c&#45;9134&#45;e8b924060b9c</title>
<ellipse fill="none" stroke="black" cx="103.34" cy="-192" rx="27" ry="18"/>
<text text-anchor="middle" x="103.34" y="-188.3" font-family="Times,serif" font-size="14.00">StripY</text>
</g>
<!-- f8fe7da8&#45;c13b&#45;434c&#45;9134&#45;e8b924060b9c&#45;&gt;06d115fc&#45;838a&#45;4c29&#45;a5b8&#45;a3486822600c -->
<g id="edge2" class="edge">
<title>f8fe7da8&#45;c13b&#45;434c&#45;9134&#45;e8b924060b9c&#45;&gt;06d115fc&#45;838a&#45;4c29&#45;a5b8&#45;a3486822600c</title>
<path fill="none" stroke="purple" d="M103.34,-173.8C103.34,-162.16 103.34,-146.55 103.34,-133.24"/>
<polygon fill="purple" stroke="purple" points="106.84,-133.18 103.34,-123.18 99.84,-133.18 106.84,-133.18"/>
<text text-anchor="middle" x="138.84" y="-144.8" font-family="Times,serif" font-size="14.00" fill="purple">Pass Data</text>
</g>
<!-- 4dc66565&#45;4d2d&#45;408b&#45;abc7&#45;4662a12ff12a -->
<g id="node5" class="node">
<title>4dc66565&#45;4d2d&#45;408b&#45;abc7&#45;4662a12ff12a</title>
<ellipse fill="none" stroke="black" cx="103.34" cy="-279" rx="52.6" ry="18"/>
<text text-anchor="middle" x="103.34" y="-275.3" font-family="Times,serif" font-size="14.00">Anon Closure</text>
</g>
<!-- 4dc66565&#45;4d2d&#45;408b&#45;abc7&#45;4662a12ff12a&#45;&gt;f8fe7da8&#45;c13b&#45;434c&#45;9134&#45;e8b924060b9c -->
<g id="edge3" class="edge">
<title>4dc66565&#45;4d2d&#45;408b&#45;abc7&#45;4662a12ff12a&#45;&gt;f8fe7da8&#45;c13b&#45;434c&#45;9134&#45;e8b924060b9c</title>
<path fill="none" stroke="purple" d="M103.34,-260.8C103.34,-249.16 103.34,-233.55 103.34,-220.24"/>
<polygon fill="purple" stroke="purple" points="106.84,-220.18 103.34,-210.18 99.84,-220.18 106.84,-220.18"/>
<text text-anchor="middle" x="138.84" y="-231.8" font-family="Times,serif" font-size="14.00" fill="purple">Pass Data</text>
</g>
<!-- 179dff30&#45;3803&#45;4491&#45;8a94&#45;5776b7aba914 -->
<g id="node6" class="node">
<title>179dff30&#45;3803&#45;4491&#45;8a94&#45;5776b7aba914</title>
<ellipse fill="none" stroke="black" cx="103.34" cy="-366" rx="51.3" ry="18"/>
<text text-anchor="middle" x="103.34" y="-362.3" font-family="Times,serif" font-size="14.00">OffsetToPose</text>
</g>
<!-- 179dff30&#45;3803&#45;4491&#45;8a94&#45;5776b7aba914&#45;&gt;4dc66565&#45;4d2d&#45;408b&#45;abc7&#45;4662a12ff12a -->
<g id="edge4" class="edge">
<title>179dff30&#45;3803&#45;4491&#45;8a94&#45;5776b7aba914&#45;&gt;4dc66565&#45;4d2d&#45;408b&#45;abc7&#45;4662a12ff12a</title>
<path fill="none" stroke="purple" d="M103.34,-347.8C103.34,-336.16 103.34,-320.55 103.34,-307.24"/>
<polygon fill="purple" stroke="purple" points="106.84,-307.18 103.34,-297.18 99.84,-307.18 106.84,-307.18"/>
<text text-anchor="middle" x="138.84" y="-318.8" font-family="Times,serif" font-size="14.00" fill="purple">Pass Data</text>
</g>
<!-- 37dc993f&#45;6b5b&#45;4f1a&#45;a69a&#45;4b3ce4d24ed1 -->
<g id="node7" class="node">
<title>37dc993f&#45;6b5b&#45;4f1a&#45;a69a&#45;4b3ce4d24ed1</title>
<ellipse fill="none" stroke="black" cx="103.34" cy="-453" rx="32.4" ry="18"/>
<text text-anchor="middle" x="103.34" y="-449.3" font-family="Times,serif" font-size="14.00">Average</text>
</g>
<!-- 37dc993f&#45;6b5b&#45;4f1a&#45;a69a&#45;4b3ce4d24ed1&#45;&gt;179dff30&#45;3803&#45;4491&#45;8a94&#45;5776b7aba914 -->
<g id="edge5" class="edge">
<title>37dc993f&#45;6b5b&#45;4f1a&#45;a69a&#45;4b3ce4d24ed1&#45;&gt;179dff30&#45;3803&#45;4491&#45;8a94&#45;5776b7aba914</title>
<path fill="none" stroke="purple" d="M103.34,-434.8C103.34,-423.16 103.34,-407.55 103.34,-394.24"/>
<polygon fill="purple" stroke="purple" points="106.84,-394.18 103.34,-384.18 99.84,-394.18 106.84,-394.18"/>
<text text-anchor="middle" x="138.84" y="-405.8" font-family="Times,serif" font-size="14.00" fill="purple">Pass Data</text>
</g>
<!-- 399db1c5&#45;9e11&#45;4350&#45;932c&#45;c5a962b599d4 -->
<g id="node8" class="node">
<title>399db1c5&#45;9e11&#45;4350&#45;932c&#45;c5a962b599d4</title>
<ellipse fill="none" stroke="black" cx="103.34" cy="-540" rx="61.1" ry="18"/>
<text text-anchor="middle" x="103.34" y="-536.3" font-family="Times,serif" font-size="14.00">ExtractPosition</text>
</g>
<!-- 399db1c5&#45;9e11&#45;4350&#45;932c&#45;c5a962b599d4&#45;&gt;37dc993f&#45;6b5b&#45;4f1a&#45;a69a&#45;4b3ce4d24ed1 -->
<g id="edge6" class="edge">
<title>399db1c5&#45;9e11&#45;4350&#45;932c&#45;c5a962b599d4&#45;&gt;37dc993f&#45;6b5b&#45;4f1a&#45;a69a&#45;4b3ce4d24ed1</title>
<path fill="none" stroke="purple" d="M103.34,-521.8C103.34,-510.16 103.34,-494.55 103.34,-481.24"/>
<polygon fill="purple" stroke="purple" points="106.84,-481.18 103.34,-471.18 99.84,-481.18 106.84,-481.18"/>
<text text-anchor="middle" x="138.84" y="-492.8" font-family="Times,serif" font-size="14.00" fill="purple">Pass Data</text>
</g>
<!-- d975848b&#45;cb7d&#45;4742&#45;bae3&#45;537799a9c6c1 -->
<g id="node9" class="node">
<title>d975848b&#45;cb7d&#45;4742&#45;bae3&#45;537799a9c6c1</title>
<ellipse fill="none" stroke="black" cx="103.34" cy="-627" rx="27" ry="18"/>
<text text-anchor="middle" x="103.34" y="-623.3" font-family="Times,serif" font-size="14.00">ToVec</text>
</g>
<!-- d975848b&#45;cb7d&#45;4742&#45;bae3&#45;537799a9c6c1&#45;&gt;399db1c5&#45;9e11&#45;4350&#45;932c&#45;c5a962b599d4 -->
<g id="edge7" class="edge">
<title>d975848b&#45;cb7d&#45;4742&#45;bae3&#45;537799a9c6c1&#45;&gt;399db1c5&#45;9e11&#45;4350&#45;932c&#45;c5a962b599d4</title>
<path fill="none" stroke="purple" d="M103.34,-608.8C103.34,-597.16 103.34,-581.55 103.34,-568.24"/>
<polygon fill="purple" stroke="purple" points="106.84,-568.18 103.34,-558.18 99.84,-568.18 106.84,-568.18"/>
<text text-anchor="middle" x="138.84" y="-579.8" font-family="Times,serif" font-size="14.00" fill="purple">Pass Data</text>
</g>
<!-- 7602fbb4&#45;8e8d&#45;4d68&#45;bef2&#45;85f5b7383a25 -->
<g id="node10" class="node">
<title>7602fbb4&#45;8e8d&#45;4d68&#45;bef2&#45;85f5b7383a25</title>
<ellipse fill="none" stroke="black" cx="103.34" cy="-714" rx="45.2" ry="18"/>
<text text-anchor="middle" x="103.34" y="-710.3" font-family="Times,serif" font-size="14.00">Detect true</text>
</g>
<!-- 7602fbb4&#45;8e8d&#45;4d68&#45;bef2&#45;85f5b7383a25&#45;&gt;d975848b&#45;cb7d&#45;4742&#45;bae3&#45;537799a9c6c1 -->
<g id="edge8" class="edge">
<title>7602fbb4&#45;8e8d&#45;4d68&#45;bef2&#45;85f5b7383a25&#45;&gt;d975848b&#45;cb7d&#45;4742&#45;bae3&#45;537799a9c6c1</title>
<path fill="none" stroke="purple" d="M103.34,-695.8C103.34,-684.16 103.34,-668.55 103.34,-655.24"/>
<polygon fill="purple" stroke="purple" points="106.84,-655.18 103.34,-645.18 99.84,-655.18 106.84,-655.18"/>
<text text-anchor="middle" x="138.84" y="-666.8" font-family="Times,serif" font-size="14.00" fill="purple">Pass Data</text>
</g>
<!-- a8f6bfae&#45;a498&#45;41fd&#45;8a08&#45;b063941fec68&#45;&gt;7602fbb4&#45;8e8d&#45;4d68&#45;bef2&#45;85f5b7383a25 -->
<g id="edge9" class="edge">
<title>a8f6bfae&#45;a498&#45;41fd&#45;8a08&#45;b063941fec68&#45;&gt;7602fbb4&#45;8e8d&#45;4d68&#45;bef2&#45;85f5b7383a25</title>
<path fill="none" stroke="purple" d="M103.34,-782.8C103.34,-771.16 103.34,-755.55 103.34,-742.24"/>
<polygon fill="purple" stroke="purple" points="106.84,-742.18 103.34,-732.18 99.84,-742.18 106.84,-742.18"/>
<text text-anchor="middle" x="138.84" y="-753.8" font-family="Times,serif" font-size="14.00" fill="purple">Pass Data</text>
</g>
<!-- 550a5c5f&#45;43b1&#45;413c&#45;a68b&#45;9d409047e2bd -->
<g id="node12" class="node">
<title>550a5c5f&#45;43b1&#45;413c&#45;a68b&#45;9d409047e2bd</title>
<ellipse fill="none" stroke="black" cx="250.34" cy="-888" rx="47.1" ry="18"/>
<text text-anchor="middle" x="250.34" y="-884.3" font-family="Times,serif" font-size="14.00">DelayAction</text>
</g>
<!-- 550a5c5f&#45;43b1&#45;413c&#45;a68b&#45;9d409047e2bd&#45;&gt;a8f6bfae&#45;a498&#45;41fd&#45;8a08&#45;b063941fec68 -->
<g id="edge11" class="edge">
<title>550a5c5f&#45;43b1&#45;413c&#45;a68b&#45;9d409047e2bd&#45;&gt;a8f6bfae&#45;a498&#45;41fd&#45;8a08&#45;b063941fec68</title>
<path fill="none" stroke="black" d="M225.4,-872.58C201.12,-858.54 164.03,-837.09 137.1,-821.52"/>
<polygon fill="black" stroke="black" points="138.81,-818.47 128.4,-816.49 135.3,-824.53 138.81,-818.47"/>
</g>
<!-- 5827957a&#45;8285&#45;4bb8&#45;8ed1&#45;43fe17a38af4 -->
<g id="node13" class="node">
<title>5827957a&#45;8285&#45;4bb8&#45;8ed1&#45;43fe17a38af4</title>
<ellipse fill="none" stroke="black" cx="250.34" cy="-961" rx="59.9" ry="18"/>
<text text-anchor="middle" x="250.34" y="-957.3" font-family="Times,serif" font-size="14.00">ZeroMovement</text>
</g>
<!-- 5827957a&#45;8285&#45;4bb8&#45;8ed1&#45;43fe17a38af4&#45;&gt;550a5c5f&#45;43b1&#45;413c&#45;a68b&#45;9d409047e2bd -->
<g id="edge12" class="edge">
<title>5827957a&#45;8285&#45;4bb8&#45;8ed1&#45;43fe17a38af4&#45;&gt;550a5c5f&#45;43b1&#45;413c&#45;a68b&#45;9d409047e2bd</title>
<path fill="none" stroke="black" d="M250.34,-942.81C250.34,-934.79 250.34,-925.05 250.34,-916.07"/>
<polygon fill="black" stroke="black" points="253.84,-916.03 250.34,-906.03 246.84,-916.03 253.84,-916.03"/>
</g>
</g>
</svg>
