<?xml version="1.0" encoding="UTF-8" standalone="no"?>
<!DOCTYPE svg PUBLIC "-//W3C//DTD SVG 1.1//EN"
 "http://www.w3.org/Graphics/SVG/1.1/DTD/svg11.dtd">
<!-- Generated by graphviz version 2.43.0 (0)
 -->
<!-- Title: G Pages: 1 -->
<svg width="318pt" height="987pt"
 viewBox="0.00 0.00 318.29 987.00" xmlns="http://www.w3.org/2000/svg" xmlns:xlink="http://www.w3.org/1999/xlink">
<g id="graph0" class="graph" transform="scale(1 1) rotate(0) translate(4 983)">
<title>G</title>
<polygon fill="transparent" stroke="transparent" points="-4,4 -4,-983 314.29,-983 314.29,4 -4,4"/>
<!-- 658dd693&#45;dd0c&#45;4f32&#45;bc12&#45;2534a7051b72 -->
<g id="node1" class="node">
<title>658dd693&#45;dd0c&#45;4f32&#45;bc12&#45;2534a7051b72</title>
<polygon fill="none" stroke="black" points="65.34,-906 0.16,-888 65.34,-870 130.52,-888 65.34,-906"/>
<text text-anchor="middle" x="65.34" y="-884.3" font-family="Times,serif" font-size="14.00">AlwaysTrue</text>
</g>
<!-- be3d9b12&#45;1581&#45;4ed2&#45;97c7&#45;8d99472aac03 -->
<g id="node11" class="node">
<title>be3d9b12&#45;1581&#45;4ed2&#45;97c7&#45;8d99472aac03</title>
<ellipse fill="none" stroke="black" cx="103.34" cy="-801" rx="46.5" ry="18"/>
<text text-anchor="middle" x="103.34" y="-797.3" font-family="Times,serif" font-size="14.00">VisionNorm</text>
</g>
<!-- 658dd693&#45;dd0c&#45;4f32&#45;bc12&#45;2534a7051b72&#45;&gt;be3d9b12&#45;1581&#45;4ed2&#45;97c7&#45;8d99472aac03 -->
<g id="edge10" class="edge">
<title>658dd693&#45;dd0c&#45;4f32&#45;bc12&#45;2534a7051b72&#45;&gt;be3d9b12&#45;1581&#45;4ed2&#45;97c7&#45;8d99472aac03</title>
<path fill="none" stroke="black" d="M72.13,-871.8C77.54,-859.7 85.25,-842.47 91.65,-828.16"/>
<polygon fill="black" stroke="black" points="94.94,-829.37 95.82,-818.81 88.55,-826.51 94.94,-829.37"/>
<text text-anchor="middle" x="104.34" y="-840.8" font-family="Times,serif" font-size="14.00">True</text>
</g>
<!-- 0b64c400&#45;227c&#45;461f&#45;92c9&#45;09e65ba69c94 -->
<g id="node2" class="node">
<title>0b64c400&#45;227c&#45;461f&#45;92c9&#45;09e65ba69c94</title>
<ellipse fill="none" stroke="black" cx="103.34" cy="-105" rx="27" ry="18"/>
<text text-anchor="middle" x="103.34" y="-101.3" font-family="Times,serif" font-size="14.00">FlatX</text>
</g>
<!-- 658e58e6&#45;faa2&#45;4a50&#45;b0f0&#45;a02427bb4a3b -->
<g id="node3" class="node">
<title>658e58e6&#45;faa2&#45;4a50&#45;b0f0&#45;a02427bb4a3b</title>
<ellipse fill="none" stroke="black" cx="103.34" cy="-18" rx="80.11" ry="18"/>
<text text-anchor="middle" x="103.34" y="-14.3" font-family="Times,serif" font-size="14.00">Stability2Movement</text>
</g>
<!-- 0b64c400&#45;227c&#45;461f&#45;92c9&#45;09e65ba69c94&#45;&gt;658e58e6&#45;faa2&#45;4a50&#45;b0f0&#45;a02427bb4a3b -->
<g id="edge1" class="edge">
<title>0b64c400&#45;227c&#45;461f&#45;92c9&#45;09e65ba69c94&#45;&gt;658e58e6&#45;faa2&#45;4a50&#45;b0f0&#45;a02427bb4a3b</title>
<path fill="none" stroke="purple" d="M103.34,-86.8C103.34,-75.16 103.34,-59.55 103.34,-46.24"/>
<polygon fill="purple" stroke="purple" points="106.84,-46.18 103.34,-36.18 99.84,-46.18 106.84,-46.18"/>
<text text-anchor="middle" x="138.84" y="-57.8" font-family="Times,serif" font-size="14.00" fill="purple">Pass Data</text>
</g>
<!-- 9a2b02b5&#45;1237&#45;4da3&#45;a661&#45;8ebcf266b9e1 -->
<g id="node4" class="node">
<title>9a2b02b5&#45;1237&#45;4da3&#45;a661&#45;8ebcf266b9e1</title>
<ellipse fill="none" stroke="black" cx="103.34" cy="-192" rx="27" ry="18"/>
<text text-anchor="middle" x="103.34" y="-188.3" font-family="Times,serif" font-size="14.00">StripY</text>
</g>
<!-- 9a2b02b5&#45;1237&#45;4da3&#45;a661&#45;8ebcf266b9e1&#45;&gt;0b64c400&#45;227c&#45;461f&#45;92c9&#45;09e65ba69c94 -->
<g id="edge2" class="edge">
<title>9a2b02b5&#45;1237&#45;4da3&#45;a661&#45;8ebcf266b9e1&#45;&gt;0b64c400&#45;227c&#45;461f&#45;92c9&#45;09e65ba69c94</title>
<path fill="none" stroke="purple" d="M103.34,-173.8C103.34,-162.16 103.34,-146.55 103.34,-133.24"/>
<polygon fill="purple" stroke="purple" points="106.84,-133.18 103.34,-123.18 99.84,-133.18 106.84,-133.18"/>
<text text-anchor="middle" x="138.84" y="-144.8" font-family="Times,serif" font-size="14.00" fill="purple">Pass Data</text>
</g>
<!-- 07717bb7&#45;115a&#45;4bd6&#45;9e73&#45;bfd777b3069d -->
<g id="node5" class="node">
<title>07717bb7&#45;115a&#45;4bd6&#45;9e73&#45;bfd777b3069d</title>
<ellipse fill="none" stroke="black" cx="103.34" cy="-279" rx="52.6" ry="18"/>
<text text-anchor="middle" x="103.34" y="-275.3" font-family="Times,serif" font-size="14.00">Anon Closure</text>
</g>
<!-- 07717bb7&#45;115a&#45;4bd6&#45;9e73&#45;bfd777b3069d&#45;&gt;9a2b02b5&#45;1237&#45;4da3&#45;a661&#45;8ebcf266b9e1 -->
<g id="edge3" class="edge">
<title>07717bb7&#45;115a&#45;4bd6&#45;9e73&#45;bfd777b3069d&#45;&gt;9a2b02b5&#45;1237&#45;4da3&#45;a661&#45;8ebcf266b9e1</title>
<path fill="none" stroke="purple" d="M103.34,-260.8C103.34,-249.16 103.34,-233.55 103.34,-220.24"/>
<polygon fill="purple" stroke="purple" points="106.84,-220.18 103.34,-210.18 99.84,-220.18 106.84,-220.18"/>
<text text-anchor="middle" x="138.84" y="-231.8" font-family="Times,serif" font-size="14.00" fill="purple">Pass Data</text>
</g>
<!-- de55b04f&#45;55dd&#45;4ca6&#45;b861&#45;8a0f03e181ad -->
<g id="node6" class="node">
<title>de55b04f&#45;55dd&#45;4ca6&#45;b861&#45;8a0f03e181ad</title>
<ellipse fill="none" stroke="black" cx="103.34" cy="-366" rx="51.3" ry="18"/>
<text text-anchor="middle" x="103.34" y="-362.3" font-family="Times,serif" font-size="14.00">OffsetToPose</text>
</g>
<!-- de55b04f&#45;55dd&#45;4ca6&#45;b861&#45;8a0f03e181ad&#45;&gt;07717bb7&#45;115a&#45;4bd6&#45;9e73&#45;bfd777b3069d -->
<g id="edge4" class="edge">
<title>de55b04f&#45;55dd&#45;4ca6&#45;b861&#45;8a0f03e181ad&#45;&gt;07717bb7&#45;115a&#45;4bd6&#45;9e73&#45;bfd777b3069d</title>
<path fill="none" stroke="purple" d="M103.34,-347.8C103.34,-336.16 103.34,-320.55 103.34,-307.24"/>
<polygon fill="purple" stroke="purple" points="106.84,-307.18 103.34,-297.18 99.84,-307.18 106.84,-307.18"/>
<text text-anchor="middle" x="138.84" y="-318.8" font-family="Times,serif" font-size="14.00" fill="purple">Pass Data</text>
</g>
<!-- e5509fee&#45;7230&#45;41f4&#45;9582&#45;c5be11eae911 -->
<g id="node7" class="node">
<title>e5509fee&#45;7230&#45;41f4&#45;9582&#45;c5be11eae911</title>
<ellipse fill="none" stroke="black" cx="103.34" cy="-453" rx="32.4" ry="18"/>
<text text-anchor="middle" x="103.34" y="-449.3" font-family="Times,serif" font-size="14.00">Average</text>
</g>
<!-- e5509fee&#45;7230&#45;41f4&#45;9582&#45;c5be11eae911&#45;&gt;de55b04f&#45;55dd&#45;4ca6&#45;b861&#45;8a0f03e181ad -->
<g id="edge5" class="edge">
<title>e5509fee&#45;7230&#45;41f4&#45;9582&#45;c5be11eae911&#45;&gt;de55b04f&#45;55dd&#45;4ca6&#45;b861&#45;8a0f03e181ad</title>
<path fill="none" stroke="purple" d="M103.34,-434.8C103.34,-423.16 103.34,-407.55 103.34,-394.24"/>
<polygon fill="purple" stroke="purple" points="106.84,-394.18 103.34,-384.18 99.84,-394.18 106.84,-394.18"/>
<text text-anchor="middle" x="138.84" y="-405.8" font-family="Times,serif" font-size="14.00" fill="purple">Pass Data</text>
</g>
<!-- aaef5175&#45;6b64&#45;44c6&#45;b10c&#45;52130f33daf5 -->
<g id="node8" class="node">
<title>aaef5175&#45;6b64&#45;44c6&#45;b10c&#45;52130f33daf5</title>
<ellipse fill="none" stroke="black" cx="103.34" cy="-540" rx="61.1" ry="18"/>
<text text-anchor="middle" x="103.34" y="-536.3" font-family="Times,serif" font-size="14.00">ExtractPosition</text>
</g>
<!-- aaef5175&#45;6b64&#45;44c6&#45;b10c&#45;52130f33daf5&#45;&gt;e5509fee&#45;7230&#45;41f4&#45;9582&#45;c5be11eae911 -->
<g id="edge6" class="edge">
<title>aaef5175&#45;6b64&#45;44c6&#45;b10c&#45;52130f33daf5&#45;&gt;e5509fee&#45;7230&#45;41f4&#45;9582&#45;c5be11eae911</title>
<path fill="none" stroke="purple" d="M103.34,-521.8C103.34,-510.16 103.34,-494.55 103.34,-481.24"/>
<polygon fill="purple" stroke="purple" points="106.84,-481.18 103.34,-471.18 99.84,-481.18 106.84,-481.18"/>
<text text-anchor="middle" x="138.84" y="-492.8" font-family="Times,serif" font-size="14.00" fill="purple">Pass Data</text>
</g>
<!-- 39b4e4a9&#45;67bb&#45;4d5a&#45;83fb&#45;f601459a13a6 -->
<g id="node9" class="node">
<title>39b4e4a9&#45;67bb&#45;4d5a&#45;83fb&#45;f601459a13a6</title>
<ellipse fill="none" stroke="black" cx="103.34" cy="-627" rx="27" ry="18"/>
<text text-anchor="middle" x="103.34" y="-623.3" font-family="Times,serif" font-size="14.00">ToVec</text>
</g>
<!-- 39b4e4a9&#45;67bb&#45;4d5a&#45;83fb&#45;f601459a13a6&#45;&gt;aaef5175&#45;6b64&#45;44c6&#45;b10c&#45;52130f33daf5 -->
<g id="edge7" class="edge">
<title>39b4e4a9&#45;67bb&#45;4d5a&#45;83fb&#45;f601459a13a6&#45;&gt;aaef5175&#45;6b64&#45;44c6&#45;b10c&#45;52130f33daf5</title>
<path fill="none" stroke="purple" d="M103.34,-608.8C103.34,-597.16 103.34,-581.55 103.34,-568.24"/>
<polygon fill="purple" stroke="purple" points="106.84,-568.18 103.34,-558.18 99.84,-568.18 106.84,-568.18"/>
<text text-anchor="middle" x="138.84" y="-579.8" font-family="Times,serif" font-size="14.00" fill="purple">Pass Data</text>
</g>
<!-- cfee3b5f&#45;4109&#45;40b0&#45;b624&#45;aa73bae6a3c6 -->
<g id="node10" class="node">
<title>cfee3b5f&#45;4109&#45;40b0&#45;b624&#45;aa73bae6a3c6</title>
<ellipse fill="none" stroke="black" cx="103.34" cy="-714" rx="45.2" ry="18"/>
<text text-anchor="middle" x="103.34" y="-710.3" font-family="Times,serif" font-size="14.00">Detect true</text>
</g>
<!-- cfee3b5f&#45;4109&#45;40b0&#45;b624&#45;aa73bae6a3c6&#45;&gt;39b4e4a9&#45;67bb&#45;4d5a&#45;83fb&#45;f601459a13a6 -->
<g id="edge8" class="edge">
<title>cfee3b5f&#45;4109&#45;40b0&#45;b624&#45;aa73bae6a3c6&#45;&gt;39b4e4a9&#45;67bb&#45;4d5a&#45;83fb&#45;f601459a13a6</title>
<path fill="none" stroke="purple" d="M103.34,-695.8C103.34,-684.16 103.34,-668.55 103.34,-655.24"/>
<polygon fill="purple" stroke="purple" points="106.84,-655.18 103.34,-645.18 99.84,-655.18 106.84,-655.18"/>
<text text-anchor="middle" x="138.84" y="-666.8" font-family="Times,serif" font-size="14.00" fill="purple">Pass Data</text>
</g>
<!-- be3d9b12&#45;1581&#45;4ed2&#45;97c7&#45;8d99472aac03&#45;&gt;cfee3b5f&#45;4109&#45;40b0&#45;b624&#45;aa73bae6a3c6 -->
<g id="edge9" class="edge">
<title>be3d9b12&#45;1581&#45;4ed2&#45;97c7&#45;8d99472aac03&#45;&gt;cfee3b5f&#45;4109&#45;40b0&#45;b624&#45;aa73bae6a3c6</title>
<path fill="none" stroke="purple" d="M103.34,-782.8C103.34,-771.16 103.34,-755.55 103.34,-742.24"/>
<polygon fill="purple" stroke="purple" points="106.84,-742.18 103.34,-732.18 99.84,-742.18 106.84,-742.18"/>
<text text-anchor="middle" x="138.84" y="-753.8" font-family="Times,serif" font-size="14.00" fill="purple">Pass Data</text>
</g>
<!-- 60fd0f40&#45;6336&#45;413a&#45;a2e1&#45;000ef58f4cb5 -->
<g id="node12" class="node">
<title>60fd0f40&#45;6336&#45;413a&#45;a2e1&#45;000ef58f4cb5</title>
<ellipse fill="none" stroke="black" cx="250.34" cy="-888" rx="47.1" ry="18"/>
<text text-anchor="middle" x="250.34" y="-884.3" font-family="Times,serif" font-size="14.00">DelayAction</text>
</g>
<!-- 60fd0f40&#45;6336&#45;413a&#45;a2e1&#45;000ef58f4cb5&#45;&gt;be3d9b12&#45;1581&#45;4ed2&#45;97c7&#45;8d99472aac03 -->
<g id="edge11" class="edge">
<title>60fd0f40&#45;6336&#45;413a&#45;a2e1&#45;000ef58f4cb5&#45;&gt;be3d9b12&#45;1581&#45;4ed2&#45;97c7&#45;8d99472aac03</title>
<path fill="none" stroke="black" d="M225.4,-872.58C201.12,-858.54 164.03,-837.09 137.1,-821.52"/>
<polygon fill="black" stroke="black" points="138.81,-818.47 128.4,-816.49 135.3,-824.53 138.81,-818.47"/>
</g>
<!-- 6bbea4df&#45;6aaa&#45;428e&#45;8dc5&#45;e5b57713c42e -->
<g id="node13" class="node">
<title>6bbea4df&#45;6aaa&#45;428e&#45;8dc5&#45;e5b57713c42e</title>
<ellipse fill="none" stroke="black" cx="250.34" cy="-961" rx="59.9" ry="18"/>
<text text-anchor="middle" x="250.34" y="-957.3" font-family="Times,serif" font-size="14.00">ZeroMovement</text>
</g>
<!-- 6bbea4df&#45;6aaa&#45;428e&#45;8dc5&#45;e5b57713c42e&#45;&gt;60fd0f40&#45;6336&#45;413a&#45;a2e1&#45;000ef58f4cb5 -->
<g id="edge12" class="edge">
<title>6bbea4df&#45;6aaa&#45;428e&#45;8dc5&#45;e5b57713c42e&#45;&gt;60fd0f40&#45;6336&#45;413a&#45;a2e1&#45;000ef58f4cb5</title>
<path fill="none" stroke="black" d="M250.34,-942.81C250.34,-934.79 250.34,-925.05 250.34,-916.07"/>
<polygon fill="black" stroke="black" points="253.84,-916.03 250.34,-906.03 246.84,-916.03 253.84,-916.03"/>
</g>
</g>
</svg>
