<?xml version="1.0" encoding="UTF-8" standalone="no"?>
<!DOCTYPE svg PUBLIC "-//W3C//DTD SVG 1.1//EN"
 "http://www.w3.org/Graphics/SVG/1.1/DTD/svg11.dtd">
<!-- Generated by graphviz version 2.43.0 (0)
 -->
<!-- Title: G Pages: 1 -->
<svg width="743pt" height="1121pt"
 viewBox="0.00 0.00 742.80 1121.00" xmlns="http://www.w3.org/2000/svg" xmlns:xlink="http://www.w3.org/1999/xlink">
<g id="graph0" class="graph" transform="scale(1 1) rotate(0) translate(4 1117)">
<title>G</title>
<polygon fill="transparent" stroke="transparent" points="-4,4 -4,-1117 738.8,-1117 738.8,4 -4,4"/>
<g id="clust1" class="cluster">
<title>cluster_faeb6c61&#45;b17c&#45;48e7&#45;b40a&#45;1075fb74d276</title>
<polygon fill="transparent" stroke="blue" stroke-dasharray="5,2" points="8,-8 8,-829 280,-829 280,-8 8,-8"/>
</g>
<!-- 793ecc49&#45;c8b4&#45;4f8c&#45;9bf6&#45;1a451a939a77 -->
<g id="node1" class="node">
<title>793ecc49&#45;c8b4&#45;4f8c&#45;9bf6&#45;1a451a939a77</title>
<polygon fill="none" stroke="black" points="207,-748 141.82,-730 207,-712 272.18,-730 207,-748"/>
<text text-anchor="middle" x="207" y="-726.3" font-family="Times,serif" font-size="14.00">AlwaysTrue</text>
</g>
<!-- 5592ef3a&#45;c5e2&#45;4e82&#45;9263&#45;85ac19580d3b -->
<g id="node19" class="node">
<title>5592ef3a&#45;c5e2&#45;4e82&#45;9263&#45;85ac19580d3b</title>
<ellipse fill="none" stroke="black" cx="335" cy="-643" rx="46.5" ry="18"/>
<text text-anchor="middle" x="335" y="-639.3" font-family="Times,serif" font-size="14.00">VisionNorm</text>
</g>
<!-- 793ecc49&#45;c8b4&#45;4f8c&#45;9bf6&#45;1a451a939a77&#45;&gt;5592ef3a&#45;c5e2&#45;4e82&#45;9263&#45;85ac19580d3b -->
<g id="edge18" class="edge">
<title>793ecc49&#45;c8b4&#45;4f8c&#45;9bf6&#45;1a451a939a77&#45;&gt;5592ef3a&#45;c5e2&#45;4e82&#45;9263&#45;85ac19580d3b</title>
<path fill="none" stroke="black" d="M225.34,-716.82C245.78,-703.25 279.18,-681.06 303.76,-664.74"/>
<polygon fill="black" stroke="black" points="305.98,-667.47 312.38,-659.02 302.11,-661.64 305.98,-667.47"/>
<text text-anchor="middle" x="296" y="-682.8" font-family="Times,serif" font-size="14.00">True</text>
</g>
<!-- 00f0c3d3&#45;25f6&#45;45f4&#45;ade0&#45;9e85a7a577ca -->
<g id="node2" class="node">
<title>00f0c3d3&#45;25f6&#45;45f4&#45;ade0&#45;9e85a7a577ca</title>
<ellipse fill="none" stroke="black" cx="95" cy="-121" rx="31.2" ry="18"/>
<text text-anchor="middle" x="95" y="-117.3" font-family="Times,serif" font-size="14.00">MinYaw</text>
</g>
<!-- f9c68f5a&#45;15ac&#45;41b3&#45;8f32&#45;0a9f06b9ab35 -->
<g id="node3" class="node">
<title>f9c68f5a&#45;15ac&#45;41b3&#45;8f32&#45;0a9f06b9ab35</title>
<ellipse fill="none" stroke="black" cx="96" cy="-34" rx="80.11" ry="18"/>
<text text-anchor="middle" x="96" y="-30.3" font-family="Times,serif" font-size="14.00">Stability1Movement</text>
</g>
<!-- 00f0c3d3&#45;25f6&#45;45f4&#45;ade0&#45;9e85a7a577ca&#45;&gt;f9c68f5a&#45;15ac&#45;41b3&#45;8f32&#45;0a9f06b9ab35 -->
<g id="edge1" class="edge">
<title>00f0c3d3&#45;25f6&#45;45f4&#45;ade0&#45;9e85a7a577ca&#45;&gt;f9c68f5a&#45;15ac&#45;41b3&#45;8f32&#45;0a9f06b9ab35</title>
<path fill="none" stroke="purple" d="M95.2,-102.8C95.34,-91.16 95.52,-75.55 95.68,-62.24"/>
<polygon fill="purple" stroke="purple" points="99.18,-62.22 95.8,-52.18 92.18,-62.13 99.18,-62.22"/>
<text text-anchor="middle" x="131.5" y="-73.8" font-family="Times,serif" font-size="14.00" fill="purple">Pass Data</text>
</g>
<!-- 9e454b26&#45;0a58&#45;4f53&#45;a743&#45;36e9587d887e -->
<g id="node4" class="node">
<title>9e454b26&#45;0a58&#45;4f53&#45;a743&#45;36e9587d887e</title>
<ellipse fill="none" stroke="black" cx="94" cy="-208" rx="27" ry="18"/>
<text text-anchor="middle" x="94" y="-204.3" font-family="Times,serif" font-size="14.00">StripY</text>
</g>
<!-- 9e454b26&#45;0a58&#45;4f53&#45;a743&#45;36e9587d887e&#45;&gt;00f0c3d3&#45;25f6&#45;45f4&#45;ade0&#45;9e85a7a577ca -->
<g id="edge2" class="edge">
<title>9e454b26&#45;0a58&#45;4f53&#45;a743&#45;36e9587d887e&#45;&gt;00f0c3d3&#45;25f6&#45;45f4&#45;ade0&#45;9e85a7a577ca</title>
<path fill="none" stroke="purple" d="M94.2,-189.8C94.34,-178.16 94.52,-162.55 94.68,-149.24"/>
<polygon fill="purple" stroke="purple" points="98.18,-149.22 94.8,-139.18 91.18,-149.13 98.18,-149.22"/>
<text text-anchor="middle" x="130.5" y="-160.8" font-family="Times,serif" font-size="14.00" fill="purple">Pass Data</text>
</g>
<!-- 630007f5&#45;7a24&#45;421e&#45;9b09&#45;d595151ce628 -->
<g id="node5" class="node">
<title>630007f5&#45;7a24&#45;421e&#45;9b09&#45;d595151ce628</title>
<ellipse fill="none" stroke="black" cx="94" cy="-295" rx="75.81" ry="18"/>
<text text-anchor="middle" x="94" y="-291.3" font-family="Times,serif" font-size="14.00">CautiousConstantX</text>
</g>
<!-- 630007f5&#45;7a24&#45;421e&#45;9b09&#45;d595151ce628&#45;&gt;9e454b26&#45;0a58&#45;4f53&#45;a743&#45;36e9587d887e -->
<g id="edge3" class="edge">
<title>630007f5&#45;7a24&#45;421e&#45;9b09&#45;d595151ce628&#45;&gt;9e454b26&#45;0a58&#45;4f53&#45;a743&#45;36e9587d887e</title>
<path fill="none" stroke="purple" d="M94,-276.8C94,-265.16 94,-249.55 94,-236.24"/>
<polygon fill="purple" stroke="purple" points="97.5,-236.18 94,-226.18 90.5,-236.18 97.5,-236.18"/>
<text text-anchor="middle" x="129.5" y="-247.8" font-family="Times,serif" font-size="14.00" fill="purple">Pass Data</text>
</g>
<!-- 3405699e&#45;21b3&#45;41d1&#45;8a2c&#45;be2538067944 -->
<g id="node6" class="node">
<title>3405699e&#45;21b3&#45;41d1&#45;8a2c&#45;be2538067944</title>
<ellipse fill="none" stroke="black" cx="93" cy="-382" rx="67.81" ry="18"/>
<text text-anchor="middle" x="93" y="-378.3" font-family="Times,serif" font-size="14.00">LinearYawFromX</text>
</g>
<!-- 3405699e&#45;21b3&#45;41d1&#45;8a2c&#45;be2538067944&#45;&gt;630007f5&#45;7a24&#45;421e&#45;9b09&#45;d595151ce628 -->
<g id="edge4" class="edge">
<title>3405699e&#45;21b3&#45;41d1&#45;8a2c&#45;be2538067944&#45;&gt;630007f5&#45;7a24&#45;421e&#45;9b09&#45;d595151ce628</title>
<path fill="none" stroke="purple" d="M93.2,-363.8C93.34,-352.16 93.52,-336.55 93.68,-323.24"/>
<polygon fill="purple" stroke="purple" points="97.18,-323.22 93.8,-313.18 90.18,-323.13 97.18,-323.22"/>
<text text-anchor="middle" x="129.5" y="-334.8" font-family="Times,serif" font-size="14.00" fill="purple">Pass Data</text>
</g>
<!-- 1ffdc3f4&#45;13f1&#45;4d17&#45;9a26&#45;1ba3e8642c00 -->
<g id="node7" class="node">
<title>1ffdc3f4&#45;13f1&#45;4d17&#45;9a26&#45;1ba3e8642c00</title>
<ellipse fill="none" stroke="black" cx="92" cy="-469" rx="51.3" ry="18"/>
<text text-anchor="middle" x="92" y="-465.3" font-family="Times,serif" font-size="14.00">OffsetToPose</text>
</g>
<!-- 1ffdc3f4&#45;13f1&#45;4d17&#45;9a26&#45;1ba3e8642c00&#45;&gt;3405699e&#45;21b3&#45;41d1&#45;8a2c&#45;be2538067944 -->
<g id="edge5" class="edge">
<title>1ffdc3f4&#45;13f1&#45;4d17&#45;9a26&#45;1ba3e8642c00&#45;&gt;3405699e&#45;21b3&#45;41d1&#45;8a2c&#45;be2538067944</title>
<path fill="none" stroke="purple" d="M92.2,-450.8C92.34,-439.16 92.52,-423.55 92.68,-410.24"/>
<polygon fill="purple" stroke="purple" points="96.18,-410.22 92.8,-400.18 89.18,-410.13 96.18,-410.22"/>
<text text-anchor="middle" x="128.5" y="-421.8" font-family="Times,serif" font-size="14.00" fill="purple">Pass Data</text>
</g>
<!-- f4f5aaf6&#45;1988&#45;4c7d&#45;b15e&#45;c33da470ca6d -->
<g id="node8" class="node">
<title>f4f5aaf6&#45;1988&#45;4c7d&#45;b15e&#45;c33da470ca6d</title>
<ellipse fill="none" stroke="black" cx="91" cy="-556" rx="32.4" ry="18"/>
<text text-anchor="middle" x="91" y="-552.3" font-family="Times,serif" font-size="14.00">Average</text>
</g>
<!-- f4f5aaf6&#45;1988&#45;4c7d&#45;b15e&#45;c33da470ca6d&#45;&gt;1ffdc3f4&#45;13f1&#45;4d17&#45;9a26&#45;1ba3e8642c00 -->
<g id="edge6" class="edge">
<title>f4f5aaf6&#45;1988&#45;4c7d&#45;b15e&#45;c33da470ca6d&#45;&gt;1ffdc3f4&#45;13f1&#45;4d17&#45;9a26&#45;1ba3e8642c00</title>
<path fill="none" stroke="purple" d="M91.2,-537.8C91.34,-526.16 91.52,-510.55 91.68,-497.24"/>
<polygon fill="purple" stroke="purple" points="95.18,-497.22 91.8,-487.18 88.18,-497.13 95.18,-497.22"/>
<text text-anchor="middle" x="127.5" y="-508.8" font-family="Times,serif" font-size="14.00" fill="purple">Pass Data</text>
</g>
<!-- 61f8466c&#45;0d15&#45;4a40&#45;8aaf&#45;5c74784229d3 -->
<g id="node9" class="node">
<title>61f8466c&#45;0d15&#45;4a40&#45;8aaf&#45;5c74784229d3</title>
<ellipse fill="none" stroke="black" cx="90" cy="-643" rx="61.1" ry="18"/>
<text text-anchor="middle" x="90" y="-639.3" font-family="Times,serif" font-size="14.00">ExtractPosition</text>
</g>
<!-- 61f8466c&#45;0d15&#45;4a40&#45;8aaf&#45;5c74784229d3&#45;&gt;f4f5aaf6&#45;1988&#45;4c7d&#45;b15e&#45;c33da470ca6d -->
<g id="edge7" class="edge">
<title>61f8466c&#45;0d15&#45;4a40&#45;8aaf&#45;5c74784229d3&#45;&gt;f4f5aaf6&#45;1988&#45;4c7d&#45;b15e&#45;c33da470ca6d</title>
<path fill="none" stroke="purple" d="M90.2,-624.8C90.34,-613.16 90.52,-597.55 90.68,-584.24"/>
<polygon fill="purple" stroke="purple" points="94.18,-584.22 90.8,-574.18 87.18,-584.13 94.18,-584.22"/>
<text text-anchor="middle" x="126.5" y="-595.8" font-family="Times,serif" font-size="14.00" fill="purple">Pass Data</text>
</g>
<!-- 39e2f696&#45;e831&#45;4749&#45;93ee&#45;b85f2403d8df -->
<g id="node10" class="node">
<title>39e2f696&#45;e831&#45;4749&#45;93ee&#45;b85f2403d8df</title>
<ellipse fill="none" stroke="black" cx="43" cy="-730" rx="27" ry="18"/>
<text text-anchor="middle" x="43" y="-726.3" font-family="Times,serif" font-size="14.00">ToVec</text>
</g>
<!-- 39e2f696&#45;e831&#45;4749&#45;93ee&#45;b85f2403d8df&#45;&gt;61f8466c&#45;0d15&#45;4a40&#45;8aaf&#45;5c74784229d3 -->
<g id="edge8" class="edge">
<title>39e2f696&#45;e831&#45;4749&#45;93ee&#45;b85f2403d8df&#45;&gt;61f8466c&#45;0d15&#45;4a40&#45;8aaf&#45;5c74784229d3</title>
<path fill="none" stroke="purple" d="M52.06,-712.61C58.74,-700.54 67.95,-683.88 75.63,-670"/>
<polygon fill="purple" stroke="purple" points="78.87,-671.37 80.64,-660.92 72.74,-667.98 78.87,-671.37"/>
<text text-anchor="middle" x="105.5" y="-682.8" font-family="Times,serif" font-size="14.00" fill="purple">Pass Data</text>
</g>
<!-- f3f81ed8&#45;2783&#45;46de&#45;8ecf&#45;4ab10c123a4d -->
<g id="node11" class="node">
<title>f3f81ed8&#45;2783&#45;46de&#45;8ecf&#45;4ab10c123a4d</title>
<polygon fill="none" stroke="black" stroke-dasharray="5,2" points="256,-821 158,-821 158,-785 256,-785 256,-821"/>
<text text-anchor="middle" x="207" y="-799.3" font-family="Times,serif" font-size="14.00" fill="blue">Concurrent</text>
</g>
<!-- f3f81ed8&#45;2783&#45;46de&#45;8ecf&#45;4ab10c123a4d&#45;&gt;793ecc49&#45;c8b4&#45;4f8c&#45;9bf6&#45;1a451a939a77 -->
<g id="edge10" class="edge">
<title>f3f81ed8&#45;2783&#45;46de&#45;8ecf&#45;4ab10c123a4d&#45;&gt;793ecc49&#45;c8b4&#45;4f8c&#45;9bf6&#45;1a451a939a77</title>
<path fill="none" stroke="black" d="M207,-784.81C207,-776.79 207,-767.05 207,-758.07"/>
<polygon fill="black" stroke="black" points="210.5,-758.03 207,-748.03 203.5,-758.03 210.5,-758.03"/>
</g>
<!-- f3f81ed8&#45;2783&#45;46de&#45;8ecf&#45;4ab10c123a4d&#45;&gt;39e2f696&#45;e831&#45;4749&#45;93ee&#45;b85f2403d8df -->
<g id="edge9" class="edge">
<title>f3f81ed8&#45;2783&#45;46de&#45;8ecf&#45;4ab10c123a4d&#45;&gt;39e2f696&#45;e831&#45;4749&#45;93ee&#45;b85f2403d8df</title>
<path fill="none" stroke="black" d="M167.72,-784.99C139.19,-772.64 101.1,-756.15 74.55,-744.66"/>
<polygon fill="black" stroke="black" points="75.89,-741.43 65.32,-740.66 73.11,-747.85 75.89,-741.43"/>
</g>
<!-- dc2d7c6e&#45;00b2&#45;4b4e&#45;95a3&#45;b15bbae10fb9 -->
<g id="node12" class="node">
<title>dc2d7c6e&#45;00b2&#45;4b4e&#45;95a3&#45;b15bbae10fb9</title>
<ellipse fill="none" stroke="black" cx="660" cy="-1022" rx="33.6" ry="18"/>
<text text-anchor="middle" x="660" y="-1018.3" font-family="Times,serif" font-size="14.00">Descend</text>
</g>
<!-- 9d777b90&#45;03b1&#45;426b&#45;931f&#45;5787e05ec29b -->
<g id="node13" class="node">
<title>9d777b90&#45;03b1&#45;426b&#45;931f&#45;5787e05ec29b</title>
<ellipse fill="none" stroke="black" cx="660" cy="-949" rx="47.1" ry="18"/>
<text text-anchor="middle" x="660" y="-945.3" font-family="Times,serif" font-size="14.00">DelayAction</text>
</g>
<!-- dc2d7c6e&#45;00b2&#45;4b4e&#45;95a3&#45;b15bbae10fb9&#45;&gt;9d777b90&#45;03b1&#45;426b&#45;931f&#45;5787e05ec29b -->
<g id="edge11" class="edge">
<title>dc2d7c6e&#45;00b2&#45;4b4e&#45;95a3&#45;b15bbae10fb9&#45;&gt;9d777b90&#45;03b1&#45;426b&#45;931f&#45;5787e05ec29b</title>
<path fill="none" stroke="black" d="M660,-1003.81C660,-995.79 660,-986.05 660,-977.07"/>
<polygon fill="black" stroke="black" points="663.5,-977.03 660,-967.03 656.5,-977.03 663.5,-977.03"/>
</g>
<!-- 3ef49afa&#45;e07c&#45;4384&#45;b4c9&#45;afd416f90bae -->
<g id="node14" class="node">
<title>3ef49afa&#45;e07c&#45;4384&#45;b4c9&#45;afd416f90bae</title>
<ellipse fill="none" stroke="black" cx="660" cy="-876" rx="74.61" ry="18"/>
<text text-anchor="middle" x="660" y="-872.3" font-family="Times,serif" font-size="14.00">StraightMovement</text>
</g>
<!-- 9d777b90&#45;03b1&#45;426b&#45;931f&#45;5787e05ec29b&#45;&gt;3ef49afa&#45;e07c&#45;4384&#45;b4c9&#45;afd416f90bae -->
<g id="edge14" class="edge">
<title>9d777b90&#45;03b1&#45;426b&#45;931f&#45;5787e05ec29b&#45;&gt;3ef49afa&#45;e07c&#45;4384&#45;b4c9&#45;afd416f90bae</title>
<path fill="none" stroke="black" d="M660,-930.81C660,-922.79 660,-913.05 660,-904.07"/>
<polygon fill="black" stroke="black" points="663.5,-904.03 660,-894.03 656.5,-904.03 663.5,-904.03"/>
</g>
<!-- 607601ea&#45;da5a&#45;4833&#45;a16d&#45;4c264b04f613 -->
<g id="node15" class="node">
<title>607601ea&#45;da5a&#45;4833&#45;a16d&#45;4c264b04f613</title>
<ellipse fill="none" stroke="black" cx="660" cy="-803" rx="47.1" ry="18"/>
<text text-anchor="middle" x="660" y="-799.3" font-family="Times,serif" font-size="14.00">DelayAction</text>
</g>
<!-- 3ef49afa&#45;e07c&#45;4384&#45;b4c9&#45;afd416f90bae&#45;&gt;607601ea&#45;da5a&#45;4833&#45;a16d&#45;4c264b04f613 -->
<g id="edge12" class="edge">
<title>3ef49afa&#45;e07c&#45;4384&#45;b4c9&#45;afd416f90bae&#45;&gt;607601ea&#45;da5a&#45;4833&#45;a16d&#45;4c264b04f613</title>
<path fill="none" stroke="black" d="M660,-857.81C660,-849.79 660,-840.05 660,-831.07"/>
<polygon fill="black" stroke="black" points="663.5,-831.03 660,-821.03 656.5,-831.03 663.5,-831.03"/>
</g>
<!-- d9a5615f&#45;88e0&#45;441c&#45;821f&#45;d6bd88084896 -->
<g id="node16" class="node">
<title>d9a5615f&#45;88e0&#45;441c&#45;821f&#45;d6bd88084896</title>
<ellipse fill="none" stroke="black" cx="660" cy="-730" rx="59.9" ry="18"/>
<text text-anchor="middle" x="660" y="-726.3" font-family="Times,serif" font-size="14.00">ZeroMovement</text>
</g>
<!-- 607601ea&#45;da5a&#45;4833&#45;a16d&#45;4c264b04f613&#45;&gt;d9a5615f&#45;88e0&#45;441c&#45;821f&#45;d6bd88084896 -->
<g id="edge13" class="edge">
<title>607601ea&#45;da5a&#45;4833&#45;a16d&#45;4c264b04f613&#45;&gt;d9a5615f&#45;88e0&#45;441c&#45;821f&#45;d6bd88084896</title>
<path fill="none" stroke="black" d="M660,-784.81C660,-776.79 660,-767.05 660,-758.07"/>
<polygon fill="black" stroke="black" points="663.5,-758.03 660,-748.03 656.5,-758.03 663.5,-758.03"/>
</g>
<!-- d9a5615f&#45;88e0&#45;441c&#45;821f&#45;d6bd88084896&#45;&gt;5592ef3a&#45;c5e2&#45;4e82&#45;9263&#45;85ac19580d3b -->
<g id="edge19" class="edge">
<title>d9a5615f&#45;88e0&#45;441c&#45;821f&#45;d6bd88084896&#45;&gt;5592ef3a&#45;c5e2&#45;4e82&#45;9263&#45;85ac19580d3b</title>
<path fill="none" stroke="black" d="M639.53,-712.83C624.07,-701.49 601.85,-686.98 580,-679 518.08,-656.38 442.38,-648.3 391.65,-645.46"/>
<polygon fill="black" stroke="black" points="391.7,-641.96 381.54,-644.94 391.35,-648.95 391.7,-641.96"/>
</g>
<!-- ae8d03ba&#45;2d41&#45;442c&#45;8e68&#45;809c7dff1f7c -->
<g id="node17" class="node">
<title>ae8d03ba&#45;2d41&#45;442c&#45;8e68&#45;809c7dff1f7c</title>
<ellipse fill="none" stroke="black" cx="660" cy="-1095" rx="34.8" ry="18"/>
<text text-anchor="middle" x="660" y="-1091.3" font-family="Times,serif" font-size="14.00">WaitArm</text>
</g>
<!-- ae8d03ba&#45;2d41&#45;442c&#45;8e68&#45;809c7dff1f7c&#45;&gt;dc2d7c6e&#45;00b2&#45;4b4e&#45;95a3&#45;b15bbae10fb9 -->
<g id="edge15" class="edge">
<title>ae8d03ba&#45;2d41&#45;442c&#45;8e68&#45;809c7dff1f7c&#45;&gt;dc2d7c6e&#45;00b2&#45;4b4e&#45;95a3&#45;b15bbae10fb9</title>
<path fill="none" stroke="black" d="M660,-1076.81C660,-1068.79 660,-1059.05 660,-1050.07"/>
<polygon fill="black" stroke="black" points="663.5,-1050.03 660,-1040.03 656.5,-1050.03 663.5,-1050.03"/>
</g>
<!-- 1758f88f&#45;9b53&#45;4cfe&#45;a7b1&#45;6553497faf6e -->
<g id="node18" class="node">
<title>1758f88f&#45;9b53&#45;4cfe&#45;a7b1&#45;6553497faf6e</title>
<ellipse fill="none" stroke="black" cx="430" cy="-556" rx="48.3" ry="18"/>
<text text-anchor="middle" x="430" y="-552.3" font-family="Times,serif" font-size="14.00">Detect Buoy</text>
</g>
<!-- 1758f88f&#45;9b53&#45;4cfe&#45;a7b1&#45;6553497faf6e&#45;&gt;f3f81ed8&#45;2783&#45;46de&#45;8ecf&#45;4ab10c123a4d -->
<g id="edge16" class="edge">
<title>1758f88f&#45;9b53&#45;4cfe&#45;a7b1&#45;6553497faf6e&#45;&gt;f3f81ed8&#45;2783&#45;46de&#45;8ecf&#45;4ab10c123a4d</title>
<path fill="none" stroke="purple" d="M442.64,-573.8C448.32,-583.35 453.11,-595.64 450,-607 442.63,-633.91 436.36,-640 418,-661 371.25,-714.49 299.68,-756.54 253.1,-780.34"/>
<polygon fill="purple" stroke="purple" points="251.49,-777.23 244.14,-784.85 254.64,-783.48 251.49,-777.23"/>
<text text-anchor="middle" x="434.5" y="-682.8" font-family="Times,serif" font-size="14.00" fill="purple">Pass Data</text>
</g>
<!-- 5592ef3a&#45;c5e2&#45;4e82&#45;9263&#45;85ac19580d3b&#45;&gt;1758f88f&#45;9b53&#45;4cfe&#45;a7b1&#45;6553497faf6e -->
<g id="edge17" class="edge">
<title>5592ef3a&#45;c5e2&#45;4e82&#45;9263&#45;85ac19580d3b&#45;&gt;1758f88f&#45;9b53&#45;4cfe&#45;a7b1&#45;6553497faf6e</title>
<path fill="none" stroke="purple" d="M342.26,-625.14C347.43,-614.63 355.19,-601.37 365,-592 372.09,-585.23 380.74,-579.39 389.39,-574.52"/>
<polygon fill="purple" stroke="purple" points="391.12,-577.56 398.33,-569.79 387.85,-571.37 391.12,-577.56"/>
<text text-anchor="middle" x="400.5" y="-595.8" font-family="Times,serif" font-size="14.00" fill="purple">Pass Data</text>
</g>
</g>
</svg>
