<?xml version="1.0" encoding="UTF-8" standalone="no"?>
<!DOCTYPE svg PUBLIC "-//W3C//DTD SVG 1.1//EN"
 "http://www.w3.org/Graphics/SVG/1.1/DTD/svg11.dtd">
<!-- Generated by graphviz version 2.43.0 (0)
 -->
<!-- Title: G Pages: 1 -->
<svg width="743pt" height="1121pt"
 viewBox="0.00 0.00 742.80 1121.00" xmlns="http://www.w3.org/2000/svg" xmlns:xlink="http://www.w3.org/1999/xlink">
<g id="graph0" class="graph" transform="scale(1 1) rotate(0) translate(4 1117)">
<title>G</title>
<polygon fill="transparent" stroke="transparent" points="-4,4 -4,-1117 738.8,-1117 738.8,4 -4,4"/>
<g id="clust1" class="cluster">
<title>cluster_e938d0f0&#45;a69d&#45;47f0&#45;871d&#45;2a10de94cbef</title>
<polygon fill="transparent" stroke="blue" stroke-dasharray="5,2" points="8,-8 8,-829 280,-829 280,-8 8,-8"/>
</g>
<!-- c676b8e6&#45;6471&#45;4acf&#45;8125&#45;ec168a6087cb -->
<g id="node1" class="node">
<title>c676b8e6&#45;6471&#45;4acf&#45;8125&#45;ec168a6087cb</title>
<polygon fill="none" stroke="black" points="207,-748 141.82,-730 207,-712 272.18,-730 207,-748"/>
<text text-anchor="middle" x="207" y="-726.3" font-family="Times,serif" font-size="14.00">AlwaysTrue</text>
</g>
<!-- b02a3f28&#45;c876&#45;424e&#45;abf2&#45;be760c020d41 -->
<g id="node19" class="node">
<title>b02a3f28&#45;c876&#45;424e&#45;abf2&#45;be760c020d41</title>
<ellipse fill="none" stroke="black" cx="335" cy="-643" rx="46.5" ry="18"/>
<text text-anchor="middle" x="335" y="-639.3" font-family="Times,serif" font-size="14.00">VisionNorm</text>
</g>
<!-- c676b8e6&#45;6471&#45;4acf&#45;8125&#45;ec168a6087cb&#45;&gt;b02a3f28&#45;c876&#45;424e&#45;abf2&#45;be760c020d41 -->
<g id="edge18" class="edge">
<title>c676b8e6&#45;6471&#45;4acf&#45;8125&#45;ec168a6087cb&#45;&gt;b02a3f28&#45;c876&#45;424e&#45;abf2&#45;be760c020d41</title>
<path fill="none" stroke="black" d="M225.34,-716.82C245.78,-703.25 279.18,-681.06 303.76,-664.74"/>
<polygon fill="black" stroke="black" points="305.98,-667.47 312.38,-659.02 302.11,-661.64 305.98,-667.47"/>
<text text-anchor="middle" x="296" y="-682.8" font-family="Times,serif" font-size="14.00">True</text>
</g>
<!-- 13098a01&#45;26d8&#45;4497&#45;81e6&#45;f6f7c663bf9d -->
<g id="node2" class="node">
<title>13098a01&#45;26d8&#45;4497&#45;81e6&#45;f6f7c663bf9d</title>
<ellipse fill="none" stroke="black" cx="95" cy="-121" rx="31.2" ry="18"/>
<text text-anchor="middle" x="95" y="-117.3" font-family="Times,serif" font-size="14.00">MinYaw</text>
</g>
<!-- 5c410675&#45;6e1e&#45;4292&#45;a814&#45;ce13cecc5950 -->
<g id="node3" class="node">
<title>5c410675&#45;6e1e&#45;4292&#45;a814&#45;ce13cecc5950</title>
<ellipse fill="none" stroke="black" cx="96" cy="-34" rx="80.11" ry="18"/>
<text text-anchor="middle" x="96" y="-30.3" font-family="Times,serif" font-size="14.00">Stability1Movement</text>
</g>
<!-- 13098a01&#45;26d8&#45;4497&#45;81e6&#45;f6f7c663bf9d&#45;&gt;5c410675&#45;6e1e&#45;4292&#45;a814&#45;ce13cecc5950 -->
<g id="edge1" class="edge">
<title>13098a01&#45;26d8&#45;4497&#45;81e6&#45;f6f7c663bf9d&#45;&gt;5c410675&#45;6e1e&#45;4292&#45;a814&#45;ce13cecc5950</title>
<path fill="none" stroke="purple" d="M95.2,-102.8C95.34,-91.16 95.52,-75.55 95.68,-62.24"/>
<polygon fill="purple" stroke="purple" points="99.18,-62.22 95.8,-52.18 92.18,-62.13 99.18,-62.22"/>
<text text-anchor="middle" x="131.5" y="-73.8" font-family="Times,serif" font-size="14.00" fill="purple">Pass Data</text>
</g>
<!-- d1aa9c56&#45;729e&#45;4c39&#45;8d62&#45;20e3a3020732 -->
<g id="node4" class="node">
<title>d1aa9c56&#45;729e&#45;4c39&#45;8d62&#45;20e3a3020732</title>
<ellipse fill="none" stroke="black" cx="94" cy="-208" rx="27" ry="18"/>
<text text-anchor="middle" x="94" y="-204.3" font-family="Times,serif" font-size="14.00">StripY</text>
</g>
<!-- d1aa9c56&#45;729e&#45;4c39&#45;8d62&#45;20e3a3020732&#45;&gt;13098a01&#45;26d8&#45;4497&#45;81e6&#45;f6f7c663bf9d -->
<g id="edge2" class="edge">
<title>d1aa9c56&#45;729e&#45;4c39&#45;8d62&#45;20e3a3020732&#45;&gt;13098a01&#45;26d8&#45;4497&#45;81e6&#45;f6f7c663bf9d</title>
<path fill="none" stroke="purple" d="M94.2,-189.8C94.34,-178.16 94.52,-162.55 94.68,-149.24"/>
<polygon fill="purple" stroke="purple" points="98.18,-149.22 94.8,-139.18 91.18,-149.13 98.18,-149.22"/>
<text text-anchor="middle" x="130.5" y="-160.8" font-family="Times,serif" font-size="14.00" fill="purple">Pass Data</text>
</g>
<!-- 9c0229b1&#45;0280&#45;4562&#45;a75b&#45;86f3bf5cac44 -->
<g id="node5" class="node">
<title>9c0229b1&#45;0280&#45;4562&#45;a75b&#45;86f3bf5cac44</title>
<ellipse fill="none" stroke="black" cx="94" cy="-295" rx="75.81" ry="18"/>
<text text-anchor="middle" x="94" y="-291.3" font-family="Times,serif" font-size="14.00">CautiousConstantX</text>
</g>
<!-- 9c0229b1&#45;0280&#45;4562&#45;a75b&#45;86f3bf5cac44&#45;&gt;d1aa9c56&#45;729e&#45;4c39&#45;8d62&#45;20e3a3020732 -->
<g id="edge3" class="edge">
<title>9c0229b1&#45;0280&#45;4562&#45;a75b&#45;86f3bf5cac44&#45;&gt;d1aa9c56&#45;729e&#45;4c39&#45;8d62&#45;20e3a3020732</title>
<path fill="none" stroke="purple" d="M94,-276.8C94,-265.16 94,-249.55 94,-236.24"/>
<polygon fill="purple" stroke="purple" points="97.5,-236.18 94,-226.18 90.5,-236.18 97.5,-236.18"/>
<text text-anchor="middle" x="129.5" y="-247.8" font-family="Times,serif" font-size="14.00" fill="purple">Pass Data</text>
</g>
<!-- dff80f0e&#45;212f&#45;4e86&#45;86e7&#45;515c74d61c05 -->
<g id="node6" class="node">
<title>dff80f0e&#45;212f&#45;4e86&#45;86e7&#45;515c74d61c05</title>
<ellipse fill="none" stroke="black" cx="93" cy="-382" rx="67.81" ry="18"/>
<text text-anchor="middle" x="93" y="-378.3" font-family="Times,serif" font-size="14.00">LinearYawFromX</text>
</g>
<!-- dff80f0e&#45;212f&#45;4e86&#45;86e7&#45;515c74d61c05&#45;&gt;9c0229b1&#45;0280&#45;4562&#45;a75b&#45;86f3bf5cac44 -->
<g id="edge4" class="edge">
<title>dff80f0e&#45;212f&#45;4e86&#45;86e7&#45;515c74d61c05&#45;&gt;9c0229b1&#45;0280&#45;4562&#45;a75b&#45;86f3bf5cac44</title>
<path fill="none" stroke="purple" d="M93.2,-363.8C93.34,-352.16 93.52,-336.55 93.68,-323.24"/>
<polygon fill="purple" stroke="purple" points="97.18,-323.22 93.8,-313.18 90.18,-323.13 97.18,-323.22"/>
<text text-anchor="middle" x="129.5" y="-334.8" font-family="Times,serif" font-size="14.00" fill="purple">Pass Data</text>
</g>
<!-- 08cbbaff&#45;a647&#45;43ff&#45;b038&#45;c3c34e91facd -->
<g id="node7" class="node">
<title>08cbbaff&#45;a647&#45;43ff&#45;b038&#45;c3c34e91facd</title>
<ellipse fill="none" stroke="black" cx="92" cy="-469" rx="51.3" ry="18"/>
<text text-anchor="middle" x="92" y="-465.3" font-family="Times,serif" font-size="14.00">OffsetToPose</text>
</g>
<!-- 08cbbaff&#45;a647&#45;43ff&#45;b038&#45;c3c34e91facd&#45;&gt;dff80f0e&#45;212f&#45;4e86&#45;86e7&#45;515c74d61c05 -->
<g id="edge5" class="edge">
<title>08cbbaff&#45;a647&#45;43ff&#45;b038&#45;c3c34e91facd&#45;&gt;dff80f0e&#45;212f&#45;4e86&#45;86e7&#45;515c74d61c05</title>
<path fill="none" stroke="purple" d="M92.2,-450.8C92.34,-439.16 92.52,-423.55 92.68,-410.24"/>
<polygon fill="purple" stroke="purple" points="96.18,-410.22 92.8,-400.18 89.18,-410.13 96.18,-410.22"/>
<text text-anchor="middle" x="128.5" y="-421.8" font-family="Times,serif" font-size="14.00" fill="purple">Pass Data</text>
</g>
<!-- d3894375&#45;24df&#45;4ff8&#45;8d9d&#45;fd2471efcd8b -->
<g id="node8" class="node">
<title>d3894375&#45;24df&#45;4ff8&#45;8d9d&#45;fd2471efcd8b</title>
<ellipse fill="none" stroke="black" cx="91" cy="-556" rx="32.4" ry="18"/>
<text text-anchor="middle" x="91" y="-552.3" font-family="Times,serif" font-size="14.00">Average</text>
</g>
<!-- d3894375&#45;24df&#45;4ff8&#45;8d9d&#45;fd2471efcd8b&#45;&gt;08cbbaff&#45;a647&#45;43ff&#45;b038&#45;c3c34e91facd -->
<g id="edge6" class="edge">
<title>d3894375&#45;24df&#45;4ff8&#45;8d9d&#45;fd2471efcd8b&#45;&gt;08cbbaff&#45;a647&#45;43ff&#45;b038&#45;c3c34e91facd</title>
<path fill="none" stroke="purple" d="M91.2,-537.8C91.34,-526.16 91.52,-510.55 91.68,-497.24"/>
<polygon fill="purple" stroke="purple" points="95.18,-497.22 91.8,-487.18 88.18,-497.13 95.18,-497.22"/>
<text text-anchor="middle" x="127.5" y="-508.8" font-family="Times,serif" font-size="14.00" fill="purple">Pass Data</text>
</g>
<!-- caf73f8a&#45;91d3&#45;4540&#45;a2ce&#45;534a5a72ff11 -->
<g id="node9" class="node">
<title>caf73f8a&#45;91d3&#45;4540&#45;a2ce&#45;534a5a72ff11</title>
<ellipse fill="none" stroke="black" cx="90" cy="-643" rx="61.1" ry="18"/>
<text text-anchor="middle" x="90" y="-639.3" font-family="Times,serif" font-size="14.00">ExtractPosition</text>
</g>
<!-- caf73f8a&#45;91d3&#45;4540&#45;a2ce&#45;534a5a72ff11&#45;&gt;d3894375&#45;24df&#45;4ff8&#45;8d9d&#45;fd2471efcd8b -->
<g id="edge7" class="edge">
<title>caf73f8a&#45;91d3&#45;4540&#45;a2ce&#45;534a5a72ff11&#45;&gt;d3894375&#45;24df&#45;4ff8&#45;8d9d&#45;fd2471efcd8b</title>
<path fill="none" stroke="purple" d="M90.2,-624.8C90.34,-613.16 90.52,-597.55 90.68,-584.24"/>
<polygon fill="purple" stroke="purple" points="94.18,-584.22 90.8,-574.18 87.18,-584.13 94.18,-584.22"/>
<text text-anchor="middle" x="126.5" y="-595.8" font-family="Times,serif" font-size="14.00" fill="purple">Pass Data</text>
</g>
<!-- 7e2c912f&#45;7320&#45;44a4&#45;890b&#45;f48c848c2526 -->
<g id="node10" class="node">
<title>7e2c912f&#45;7320&#45;44a4&#45;890b&#45;f48c848c2526</title>
<ellipse fill="none" stroke="black" cx="43" cy="-730" rx="27" ry="18"/>
<text text-anchor="middle" x="43" y="-726.3" font-family="Times,serif" font-size="14.00">ToVec</text>
</g>
<!-- 7e2c912f&#45;7320&#45;44a4&#45;890b&#45;f48c848c2526&#45;&gt;caf73f8a&#45;91d3&#45;4540&#45;a2ce&#45;534a5a72ff11 -->
<g id="edge8" class="edge">
<title>7e2c912f&#45;7320&#45;44a4&#45;890b&#45;f48c848c2526&#45;&gt;caf73f8a&#45;91d3&#45;4540&#45;a2ce&#45;534a5a72ff11</title>
<path fill="none" stroke="purple" d="M52.06,-712.61C58.74,-700.54 67.95,-683.88 75.63,-670"/>
<polygon fill="purple" stroke="purple" points="78.87,-671.37 80.64,-660.92 72.74,-667.98 78.87,-671.37"/>
<text text-anchor="middle" x="105.5" y="-682.8" font-family="Times,serif" font-size="14.00" fill="purple">Pass Data</text>
</g>
<!-- c7a9e483&#45;05d1&#45;41e8&#45;b086&#45;2410d6f3c12c -->
<g id="node11" class="node">
<title>c7a9e483&#45;05d1&#45;41e8&#45;b086&#45;2410d6f3c12c</title>
<polygon fill="none" stroke="black" stroke-dasharray="5,2" points="256,-821 158,-821 158,-785 256,-785 256,-821"/>
<text text-anchor="middle" x="207" y="-799.3" font-family="Times,serif" font-size="14.00" fill="blue">Concurrent</text>
</g>
<!-- c7a9e483&#45;05d1&#45;41e8&#45;b086&#45;2410d6f3c12c&#45;&gt;c676b8e6&#45;6471&#45;4acf&#45;8125&#45;ec168a6087cb -->
<g id="edge10" class="edge">
<title>c7a9e483&#45;05d1&#45;41e8&#45;b086&#45;2410d6f3c12c&#45;&gt;c676b8e6&#45;6471&#45;4acf&#45;8125&#45;ec168a6087cb</title>
<path fill="none" stroke="black" d="M207,-784.81C207,-776.79 207,-767.05 207,-758.07"/>
<polygon fill="black" stroke="black" points="210.5,-758.03 207,-748.03 203.5,-758.03 210.5,-758.03"/>
</g>
<!-- c7a9e483&#45;05d1&#45;41e8&#45;b086&#45;2410d6f3c12c&#45;&gt;7e2c912f&#45;7320&#45;44a4&#45;890b&#45;f48c848c2526 -->
<g id="edge9" class="edge">
<title>c7a9e483&#45;05d1&#45;41e8&#45;b086&#45;2410d6f3c12c&#45;&gt;7e2c912f&#45;7320&#45;44a4&#45;890b&#45;f48c848c2526</title>
<path fill="none" stroke="black" d="M167.72,-784.99C139.19,-772.64 101.1,-756.15 74.55,-744.66"/>
<polygon fill="black" stroke="black" points="75.89,-741.43 65.32,-740.66 73.11,-747.85 75.89,-741.43"/>
</g>
<!-- 976d1dc2&#45;b7e8&#45;4061&#45;b621&#45;952f7bec6b9a -->
<g id="node12" class="node">
<title>976d1dc2&#45;b7e8&#45;4061&#45;b621&#45;952f7bec6b9a</title>
<ellipse fill="none" stroke="black" cx="660" cy="-1022" rx="33.6" ry="18"/>
<text text-anchor="middle" x="660" y="-1018.3" font-family="Times,serif" font-size="14.00">Descend</text>
</g>
<!-- 10c28a82&#45;a5bd&#45;48f3&#45;b735&#45;76d5e8ff5291 -->
<g id="node13" class="node">
<title>10c28a82&#45;a5bd&#45;48f3&#45;b735&#45;76d5e8ff5291</title>
<ellipse fill="none" stroke="black" cx="660" cy="-949" rx="47.1" ry="18"/>
<text text-anchor="middle" x="660" y="-945.3" font-family="Times,serif" font-size="14.00">DelayAction</text>
</g>
<!-- 976d1dc2&#45;b7e8&#45;4061&#45;b621&#45;952f7bec6b9a&#45;&gt;10c28a82&#45;a5bd&#45;48f3&#45;b735&#45;76d5e8ff5291 -->
<g id="edge11" class="edge">
<title>976d1dc2&#45;b7e8&#45;4061&#45;b621&#45;952f7bec6b9a&#45;&gt;10c28a82&#45;a5bd&#45;48f3&#45;b735&#45;76d5e8ff5291</title>
<path fill="none" stroke="black" d="M660,-1003.81C660,-995.79 660,-986.05 660,-977.07"/>
<polygon fill="black" stroke="black" points="663.5,-977.03 660,-967.03 656.5,-977.03 663.5,-977.03"/>
</g>
<!-- 7f86cbf9&#45;4955&#45;45c1&#45;b63a&#45;e31a9901b1cf -->
<g id="node14" class="node">
<title>7f86cbf9&#45;4955&#45;45c1&#45;b63a&#45;e31a9901b1cf</title>
<ellipse fill="none" stroke="black" cx="660" cy="-876" rx="74.61" ry="18"/>
<text text-anchor="middle" x="660" y="-872.3" font-family="Times,serif" font-size="14.00">StraightMovement</text>
</g>
<!-- 10c28a82&#45;a5bd&#45;48f3&#45;b735&#45;76d5e8ff5291&#45;&gt;7f86cbf9&#45;4955&#45;45c1&#45;b63a&#45;e31a9901b1cf -->
<g id="edge14" class="edge">
<title>10c28a82&#45;a5bd&#45;48f3&#45;b735&#45;76d5e8ff5291&#45;&gt;7f86cbf9&#45;4955&#45;45c1&#45;b63a&#45;e31a9901b1cf</title>
<path fill="none" stroke="black" d="M660,-930.81C660,-922.79 660,-913.05 660,-904.07"/>
<polygon fill="black" stroke="black" points="663.5,-904.03 660,-894.03 656.5,-904.03 663.5,-904.03"/>
</g>
<!-- 2b834186&#45;6fce&#45;43ef&#45;82dc&#45;a22674f022e7 -->
<g id="node15" class="node">
<title>2b834186&#45;6fce&#45;43ef&#45;82dc&#45;a22674f022e7</title>
<ellipse fill="none" stroke="black" cx="660" cy="-803" rx="47.1" ry="18"/>
<text text-anchor="middle" x="660" y="-799.3" font-family="Times,serif" font-size="14.00">DelayAction</text>
</g>
<!-- 7f86cbf9&#45;4955&#45;45c1&#45;b63a&#45;e31a9901b1cf&#45;&gt;2b834186&#45;6fce&#45;43ef&#45;82dc&#45;a22674f022e7 -->
<g id="edge12" class="edge">
<title>7f86cbf9&#45;4955&#45;45c1&#45;b63a&#45;e31a9901b1cf&#45;&gt;2b834186&#45;6fce&#45;43ef&#45;82dc&#45;a22674f022e7</title>
<path fill="none" stroke="black" d="M660,-857.81C660,-849.79 660,-840.05 660,-831.07"/>
<polygon fill="black" stroke="black" points="663.5,-831.03 660,-821.03 656.5,-831.03 663.5,-831.03"/>
</g>
<!-- 00c75a60&#45;32f8&#45;43f7&#45;9201&#45;3ac4e37b920c -->
<g id="node16" class="node">
<title>00c75a60&#45;32f8&#45;43f7&#45;9201&#45;3ac4e37b920c</title>
<ellipse fill="none" stroke="black" cx="660" cy="-730" rx="59.9" ry="18"/>
<text text-anchor="middle" x="660" y="-726.3" font-family="Times,serif" font-size="14.00">ZeroMovement</text>
</g>
<!-- 2b834186&#45;6fce&#45;43ef&#45;82dc&#45;a22674f022e7&#45;&gt;00c75a60&#45;32f8&#45;43f7&#45;9201&#45;3ac4e37b920c -->
<g id="edge13" class="edge">
<title>2b834186&#45;6fce&#45;43ef&#45;82dc&#45;a22674f022e7&#45;&gt;00c75a60&#45;32f8&#45;43f7&#45;9201&#45;3ac4e37b920c</title>
<path fill="none" stroke="black" d="M660,-784.81C660,-776.79 660,-767.05 660,-758.07"/>
<polygon fill="black" stroke="black" points="663.5,-758.03 660,-748.03 656.5,-758.03 663.5,-758.03"/>
</g>
<!-- 00c75a60&#45;32f8&#45;43f7&#45;9201&#45;3ac4e37b920c&#45;&gt;b02a3f28&#45;c876&#45;424e&#45;abf2&#45;be760c020d41 -->
<g id="edge19" class="edge">
<title>00c75a60&#45;32f8&#45;43f7&#45;9201&#45;3ac4e37b920c&#45;&gt;b02a3f28&#45;c876&#45;424e&#45;abf2&#45;be760c020d41</title>
<path fill="none" stroke="black" d="M639.53,-712.83C624.07,-701.49 601.85,-686.98 580,-679 518.08,-656.38 442.38,-648.3 391.65,-645.46"/>
<polygon fill="black" stroke="black" points="391.7,-641.96 381.54,-644.94 391.35,-648.95 391.7,-641.96"/>
</g>
<!-- 35d48b88&#45;303d&#45;4c51&#45;ac8e&#45;854a88ffc743 -->
<g id="node17" class="node">
<title>35d48b88&#45;303d&#45;4c51&#45;ac8e&#45;854a88ffc743</title>
<ellipse fill="none" stroke="black" cx="660" cy="-1095" rx="34.8" ry="18"/>
<text text-anchor="middle" x="660" y="-1091.3" font-family="Times,serif" font-size="14.00">WaitArm</text>
</g>
<!-- 35d48b88&#45;303d&#45;4c51&#45;ac8e&#45;854a88ffc743&#45;&gt;976d1dc2&#45;b7e8&#45;4061&#45;b621&#45;952f7bec6b9a -->
<g id="edge15" class="edge">
<title>35d48b88&#45;303d&#45;4c51&#45;ac8e&#45;854a88ffc743&#45;&gt;976d1dc2&#45;b7e8&#45;4061&#45;b621&#45;952f7bec6b9a</title>
<path fill="none" stroke="black" d="M660,-1076.81C660,-1068.79 660,-1059.05 660,-1050.07"/>
<polygon fill="black" stroke="black" points="663.5,-1050.03 660,-1040.03 656.5,-1050.03 663.5,-1050.03"/>
</g>
<!-- 2145c90f&#45;6930&#45;4caa&#45;aa20&#45;e2fbaf48f816 -->
<g id="node18" class="node">
<title>2145c90f&#45;6930&#45;4caa&#45;aa20&#45;e2fbaf48f816</title>
<ellipse fill="none" stroke="black" cx="430" cy="-556" rx="48.3" ry="18"/>
<text text-anchor="middle" x="430" y="-552.3" font-family="Times,serif" font-size="14.00">Detect Buoy</text>
</g>
<!-- 2145c90f&#45;6930&#45;4caa&#45;aa20&#45;e2fbaf48f816&#45;&gt;c7a9e483&#45;05d1&#45;41e8&#45;b086&#45;2410d6f3c12c -->
<g id="edge16" class="edge">
<title>2145c90f&#45;6930&#45;4caa&#45;aa20&#45;e2fbaf48f816&#45;&gt;c7a9e483&#45;05d1&#45;41e8&#45;b086&#45;2410d6f3c12c</title>
<path fill="none" stroke="purple" d="M442.64,-573.8C448.32,-583.35 453.11,-595.64 450,-607 442.63,-633.91 436.36,-640 418,-661 371.25,-714.49 299.68,-756.54 253.1,-780.34"/>
<polygon fill="purple" stroke="purple" points="251.49,-777.23 244.14,-784.85 254.64,-783.48 251.49,-777.23"/>
<text text-anchor="middle" x="434.5" y="-682.8" font-family="Times,serif" font-size="14.00" fill="purple">Pass Data</text>
</g>
<!-- b02a3f28&#45;c876&#45;424e&#45;abf2&#45;be760c020d41&#45;&gt;2145c90f&#45;6930&#45;4caa&#45;aa20&#45;e2fbaf48f816 -->
<g id="edge17" class="edge">
<title>b02a3f28&#45;c876&#45;424e&#45;abf2&#45;be760c020d41&#45;&gt;2145c90f&#45;6930&#45;4caa&#45;aa20&#45;e2fbaf48f816</title>
<path fill="none" stroke="purple" d="M342.26,-625.14C347.43,-614.63 355.19,-601.37 365,-592 372.09,-585.23 380.74,-579.39 389.39,-574.52"/>
<polygon fill="purple" stroke="purple" points="391.12,-577.56 398.33,-569.79 387.85,-571.37 391.12,-577.56"/>
<text text-anchor="middle" x="400.5" y="-595.8" font-family="Times,serif" font-size="14.00" fill="purple">Pass Data</text>
</g>
</g>
</svg>
