<?xml version="1.0" encoding="UTF-8" standalone="no"?>
<!DOCTYPE svg PUBLIC "-//W3C//DTD SVG 1.1//EN"
 "http://www.w3.org/Graphics/SVG/1.1/DTD/svg11.dtd">
<!-- Generated by graphviz version 2.43.0 (0)
 -->
<!-- Title: G Pages: 1 -->
<svg width="430pt" height="552pt"
 viewBox="0.00 0.00 429.87 552.00" xmlns="http://www.w3.org/2000/svg" xmlns:xlink="http://www.w3.org/1999/xlink">
<g id="graph0" class="graph" transform="scale(1 1) rotate(0) translate(4 548)">
<title>G</title>
<polygon fill="transparent" stroke="transparent" points="-4,4 -4,-548 425.87,-548 425.87,4 -4,4"/>
<!-- f78e5fd0&#45;7a5e&#45;4a11&#45;986f&#45;4eb57717cd77 -->
<g id="node1" class="node">
<title>f78e5fd0&#45;7a5e&#45;4a11&#45;986f&#45;4eb57717cd77</title>
<polygon fill="none" stroke="black" points="294.3,-384 166.67,-366 294.3,-348 421.93,-366 294.3,-384"/>
<text text-anchor="middle" x="294.3" y="-362.3" font-family="Times,serif" font-size="14.00">Consecutive True &lt; 34</text>
</g>
<!-- 1e018f95&#45;7d02&#45;4050&#45;a3f1&#45;d55b728b5171 -->
<g id="node5" class="node">
<title>1e018f95&#45;7d02&#45;4050&#45;a3f1&#45;d55b728b5171</title>
<ellipse fill="none" stroke="black" cx="97.3" cy="-279" rx="38.5" ry="18"/>
<text text-anchor="middle" x="97.3" y="-275.3" font-family="Times,serif" font-size="14.00">ConstYaw</text>
</g>
<!-- f78e5fd0&#45;7a5e&#45;4a11&#45;986f&#45;4eb57717cd77&#45;&gt;1e018f95&#45;7d02&#45;4050&#45;a3f1&#45;d55b728b5171 -->
<g id="edge6" class="edge">
<title>f78e5fd0&#45;7a5e&#45;4a11&#45;986f&#45;4eb57717cd77&#45;&gt;1e018f95&#45;7d02&#45;4050&#45;a3f1&#45;d55b728b5171</title>
<path fill="none" stroke="black" d="M264.38,-352.09C229.5,-337.04 171.85,-312.16 134.22,-295.93"/>
<polygon fill="black" stroke="black" points="135.21,-292.54 124.64,-291.8 132.44,-298.97 135.21,-292.54"/>
<text text-anchor="middle" x="225.3" y="-318.8" font-family="Times,serif" font-size="14.00">True</text>
</g>
<!-- 9f59d99e&#45;9388&#45;4d6c&#45;a7c1&#45;244faeae52e6 -->
<g id="node8" class="node">
<title>9f59d99e&#45;9388&#45;4d6c&#45;a7c1&#45;244faeae52e6</title>
<ellipse fill="none" stroke="black" cx="294.3" cy="-279" rx="59.9" ry="18"/>
<text text-anchor="middle" x="294.3" y="-275.3" font-family="Times,serif" font-size="14.00">ZeroMovement</text>
</g>
<!-- f78e5fd0&#45;7a5e&#45;4a11&#45;986f&#45;4eb57717cd77&#45;&gt;9f59d99e&#45;9388&#45;4d6c&#45;a7c1&#45;244faeae52e6 -->
<g id="edge7" class="edge">
<title>f78e5fd0&#45;7a5e&#45;4a11&#45;986f&#45;4eb57717cd77&#45;&gt;9f59d99e&#45;9388&#45;4d6c&#45;a7c1&#45;244faeae52e6</title>
<path fill="none" stroke="black" d="M294.3,-347.8C294.3,-336.16 294.3,-320.55 294.3,-307.24"/>
<polygon fill="black" stroke="black" points="297.8,-307.18 294.3,-297.18 290.8,-307.18 297.8,-307.18"/>
<text text-anchor="middle" x="313.3" y="-318.8" font-family="Times,serif" font-size="14.00">False</text>
</g>
<!-- 4b106791&#45;82d8&#45;44e8&#45;9cfe&#45;aac2c82c609c -->
<g id="node2" class="node">
<title>4b106791&#45;82d8&#45;44e8&#45;9cfe&#45;aac2c82c609c</title>
<ellipse fill="none" stroke="black" cx="97.3" cy="-105" rx="36.1" ry="18"/>
<text text-anchor="middle" x="97.3" y="-101.3" font-family="Times,serif" font-size="14.00">SideMult</text>
</g>
<!-- e3e3965d&#45;736b&#45;40ea&#45;88df&#45;a53f7e716445 -->
<g id="node3" class="node">
<title>e3e3965d&#45;736b&#45;40ea&#45;88df&#45;a53f7e716445</title>
<ellipse fill="none" stroke="black" cx="97.3" cy="-18" rx="80.11" ry="18"/>
<text text-anchor="middle" x="97.3" y="-14.3" font-family="Times,serif" font-size="14.00">Stability2Movement</text>
</g>
<!-- 4b106791&#45;82d8&#45;44e8&#45;9cfe&#45;aac2c82c609c&#45;&gt;e3e3965d&#45;736b&#45;40ea&#45;88df&#45;a53f7e716445 -->
<g id="edge1" class="edge">
<title>4b106791&#45;82d8&#45;44e8&#45;9cfe&#45;aac2c82c609c&#45;&gt;e3e3965d&#45;736b&#45;40ea&#45;88df&#45;a53f7e716445</title>
<path fill="none" stroke="purple" d="M97.3,-86.8C97.3,-75.16 97.3,-59.55 97.3,-46.24"/>
<polygon fill="purple" stroke="purple" points="100.8,-46.18 97.3,-36.18 93.8,-46.18 100.8,-46.18"/>
<text text-anchor="middle" x="132.8" y="-57.8" font-family="Times,serif" font-size="14.00" fill="purple">Pass Data</text>
</g>
<!-- 903b33c0&#45;6826&#45;40d2&#45;86ce&#45;7e7f84c0a2f3 -->
<g id="node4" class="node">
<title>903b33c0&#45;6826&#45;40d2&#45;86ce&#45;7e7f84c0a2f3</title>
<ellipse fill="none" stroke="black" cx="97.3" cy="-192" rx="27" ry="18"/>
<text text-anchor="middle" x="97.3" y="-188.3" font-family="Times,serif" font-size="14.00">SetX</text>
</g>
<!-- 903b33c0&#45;6826&#45;40d2&#45;86ce&#45;7e7f84c0a2f3&#45;&gt;4b106791&#45;82d8&#45;44e8&#45;9cfe&#45;aac2c82c609c -->
<g id="edge2" class="edge">
<title>903b33c0&#45;6826&#45;40d2&#45;86ce&#45;7e7f84c0a2f3&#45;&gt;4b106791&#45;82d8&#45;44e8&#45;9cfe&#45;aac2c82c609c</title>
<path fill="none" stroke="purple" d="M97.3,-173.8C97.3,-162.16 97.3,-146.55 97.3,-133.24"/>
<polygon fill="purple" stroke="purple" points="100.8,-133.18 97.3,-123.18 93.8,-133.18 100.8,-133.18"/>
<text text-anchor="middle" x="132.8" y="-144.8" font-family="Times,serif" font-size="14.00" fill="purple">Pass Data</text>
</g>
<!-- 1e018f95&#45;7d02&#45;4050&#45;a3f1&#45;d55b728b5171&#45;&gt;903b33c0&#45;6826&#45;40d2&#45;86ce&#45;7e7f84c0a2f3 -->
<g id="edge3" class="edge">
<title>1e018f95&#45;7d02&#45;4050&#45;a3f1&#45;d55b728b5171&#45;&gt;903b33c0&#45;6826&#45;40d2&#45;86ce&#45;7e7f84c0a2f3</title>
<path fill="none" stroke="purple" d="M97.3,-260.8C97.3,-249.16 97.3,-233.55 97.3,-220.24"/>
<polygon fill="purple" stroke="purple" points="100.8,-220.18 97.3,-210.18 93.8,-220.18 100.8,-220.18"/>
<text text-anchor="middle" x="132.8" y="-231.8" font-family="Times,serif" font-size="14.00" fill="purple">Pass Data</text>
</g>
<!-- 7aeb65a0&#45;fc3e&#45;464a&#45;b17b&#45;f1c324df1804 -->
<g id="node6" class="node">
<title>7aeb65a0&#45;fc3e&#45;464a&#45;b17b&#45;f1c324df1804</title>
<ellipse fill="none" stroke="black" cx="294.3" cy="-453" rx="46.4" ry="18"/>
<text text-anchor="middle" x="294.3" y="-449.3" font-family="Times,serif" font-size="14.00">AlwaysTrue</text>
</g>
<!-- 7aeb65a0&#45;fc3e&#45;464a&#45;b17b&#45;f1c324df1804&#45;&gt;f78e5fd0&#45;7a5e&#45;4a11&#45;986f&#45;4eb57717cd77 -->
<g id="edge4" class="edge">
<title>7aeb65a0&#45;fc3e&#45;464a&#45;b17b&#45;f1c324df1804&#45;&gt;f78e5fd0&#45;7a5e&#45;4a11&#45;986f&#45;4eb57717cd77</title>
<path fill="none" stroke="purple" d="M294.3,-434.8C294.3,-423.16 294.3,-407.55 294.3,-394.24"/>
<polygon fill="purple" stroke="purple" points="297.8,-394.18 294.3,-384.18 290.8,-394.18 297.8,-394.18"/>
<text text-anchor="middle" x="329.8" y="-405.8" font-family="Times,serif" font-size="14.00" fill="purple">Pass Data</text>
</g>
<!-- 22000fe1&#45;23bc&#45;4773&#45;b8d1&#45;368ee53b5af2 -->
<g id="node7" class="node">
<title>22000fe1&#45;23bc&#45;4773&#45;b8d1&#45;368ee53b5af2</title>
<ellipse fill="none" stroke="black" cx="294.3" cy="-526" rx="47.1" ry="18"/>
<text text-anchor="middle" x="294.3" y="-522.3" font-family="Times,serif" font-size="14.00">DelayAction</text>
</g>
<!-- 22000fe1&#45;23bc&#45;4773&#45;b8d1&#45;368ee53b5af2&#45;&gt;7aeb65a0&#45;fc3e&#45;464a&#45;b17b&#45;f1c324df1804 -->
<g id="edge5" class="edge">
<title>22000fe1&#45;23bc&#45;4773&#45;b8d1&#45;368ee53b5af2&#45;&gt;7aeb65a0&#45;fc3e&#45;464a&#45;b17b&#45;f1c324df1804</title>
<path fill="none" stroke="black" d="M294.3,-507.81C294.3,-499.79 294.3,-490.05 294.3,-481.07"/>
<polygon fill="black" stroke="black" points="297.8,-481.03 294.3,-471.03 290.8,-481.03 297.8,-481.03"/>
</g>
<!-- dcf6278d&#45;97f5&#45;4554&#45;95c4&#45;836d5bda45f5 -->
<g id="node9" class="node">
<title>dcf6278d&#45;97f5&#45;4554&#45;95c4&#45;836d5bda45f5</title>
<ellipse fill="none" stroke="black" cx="47.3" cy="-366" rx="47.1" ry="18"/>
<text text-anchor="middle" x="47.3" y="-362.3" font-family="Times,serif" font-size="14.00">DelayAction</text>
</g>
<!-- dcf6278d&#45;97f5&#45;4554&#45;95c4&#45;836d5bda45f5&#45;&gt;1e018f95&#45;7d02&#45;4050&#45;a3f1&#45;d55b728b5171 -->
<g id="edge8" class="edge">
<title>dcf6278d&#45;97f5&#45;4554&#45;95c4&#45;836d5bda45f5&#45;&gt;1e018f95&#45;7d02&#45;4050&#45;a3f1&#45;d55b728b5171</title>
<path fill="none" stroke="black" d="M57.18,-348.21C64.42,-335.9 74.36,-319 82.54,-305.09"/>
<polygon fill="black" stroke="black" points="85.56,-306.86 87.61,-296.47 79.53,-303.31 85.56,-306.86"/>
</g>
<!-- a42a886d&#45;80df&#45;4803&#45;aed2&#45;52f862456a29 -->
<g id="node10" class="node">
<title>a42a886d&#45;80df&#45;4803&#45;aed2&#45;52f862456a29</title>
<ellipse fill="none" stroke="black" cx="47.3" cy="-453" rx="33.6" ry="18"/>
<text text-anchor="middle" x="47.3" y="-449.3" font-family="Times,serif" font-size="14.00">Descend</text>
</g>
<!-- a42a886d&#45;80df&#45;4803&#45;aed2&#45;52f862456a29&#45;&gt;dcf6278d&#45;97f5&#45;4554&#45;95c4&#45;836d5bda45f5 -->
<g id="edge9" class="edge">
<title>a42a886d&#45;80df&#45;4803&#45;aed2&#45;52f862456a29&#45;&gt;dcf6278d&#45;97f5&#45;4554&#45;95c4&#45;836d5bda45f5</title>
<path fill="none" stroke="black" d="M47.3,-434.8C47.3,-423.16 47.3,-407.55 47.3,-394.24"/>
<polygon fill="black" stroke="black" points="50.8,-394.18 47.3,-384.18 43.8,-394.18 50.8,-394.18"/>
</g>
</g>
</svg>
