<?xml version="1.0" encoding="UTF-8" standalone="no"?>
<!DOCTYPE svg PUBLIC "-//W3C//DTD SVG 1.1//EN"
 "http://www.w3.org/Graphics/SVG/1.1/DTD/svg11.dtd">
<!-- Generated by graphviz version 2.43.0 (0)
 -->
<!-- Title: G Pages: 1 -->
<svg width="318pt" height="987pt"
 viewBox="0.00 0.00 318.29 987.00" xmlns="http://www.w3.org/2000/svg" xmlns:xlink="http://www.w3.org/1999/xlink">
<g id="graph0" class="graph" transform="scale(1 1) rotate(0) translate(4 983)">
<title>G</title>
<polygon fill="transparent" stroke="transparent" points="-4,4 -4,-983 314.29,-983 314.29,4 -4,4"/>
<!-- c036455e&#45;add8&#45;4481&#45;802b&#45;e46254dcd394 -->
<g id="node1" class="node">
<title>c036455e&#45;add8&#45;4481&#45;802b&#45;e46254dcd394</title>
<polygon fill="none" stroke="black" points="65.34,-906 0.16,-888 65.34,-870 130.52,-888 65.34,-906"/>
<text text-anchor="middle" x="65.34" y="-884.3" font-family="Times,serif" font-size="14.00">AlwaysTrue</text>
</g>
<!-- d8b44bc6&#45;6ac3&#45;4b83&#45;b2cb&#45;897514f91d8e -->
<g id="node11" class="node">
<title>d8b44bc6&#45;6ac3&#45;4b83&#45;b2cb&#45;897514f91d8e</title>
<ellipse fill="none" stroke="black" cx="103.34" cy="-801" rx="46.5" ry="18"/>
<text text-anchor="middle" x="103.34" y="-797.3" font-family="Times,serif" font-size="14.00">VisionNorm</text>
</g>
<!-- c036455e&#45;add8&#45;4481&#45;802b&#45;e46254dcd394&#45;&gt;d8b44bc6&#45;6ac3&#45;4b83&#45;b2cb&#45;897514f91d8e -->
<g id="edge10" class="edge">
<title>c036455e&#45;add8&#45;4481&#45;802b&#45;e46254dcd394&#45;&gt;d8b44bc6&#45;6ac3&#45;4b83&#45;b2cb&#45;897514f91d8e</title>
<path fill="none" stroke="black" d="M72.13,-871.8C77.54,-859.7 85.25,-842.47 91.65,-828.16"/>
<polygon fill="black" stroke="black" points="94.94,-829.37 95.82,-818.81 88.55,-826.51 94.94,-829.37"/>
<text text-anchor="middle" x="104.34" y="-840.8" font-family="Times,serif" font-size="14.00">True</text>
</g>
<!-- cab81bde&#45;f7e9&#45;40da&#45;8c90&#45;bbe66c6d7258 -->
<g id="node2" class="node">
<title>cab81bde&#45;f7e9&#45;40da&#45;8c90&#45;bbe66c6d7258</title>
<ellipse fill="none" stroke="black" cx="103.34" cy="-105" rx="27" ry="18"/>
<text text-anchor="middle" x="103.34" y="-101.3" font-family="Times,serif" font-size="14.00">FlatX</text>
</g>
<!-- aed714d5&#45;0b1c&#45;4e49&#45;b842&#45;af98f9ca19f1 -->
<g id="node3" class="node">
<title>aed714d5&#45;0b1c&#45;4e49&#45;b842&#45;af98f9ca19f1</title>
<ellipse fill="none" stroke="black" cx="103.34" cy="-18" rx="80.11" ry="18"/>
<text text-anchor="middle" x="103.34" y="-14.3" font-family="Times,serif" font-size="14.00">Stability2Movement</text>
</g>
<!-- cab81bde&#45;f7e9&#45;40da&#45;8c90&#45;bbe66c6d7258&#45;&gt;aed714d5&#45;0b1c&#45;4e49&#45;b842&#45;af98f9ca19f1 -->
<g id="edge1" class="edge">
<title>cab81bde&#45;f7e9&#45;40da&#45;8c90&#45;bbe66c6d7258&#45;&gt;aed714d5&#45;0b1c&#45;4e49&#45;b842&#45;af98f9ca19f1</title>
<path fill="none" stroke="purple" d="M103.34,-86.8C103.34,-75.16 103.34,-59.55 103.34,-46.24"/>
<polygon fill="purple" stroke="purple" points="106.84,-46.18 103.34,-36.18 99.84,-46.18 106.84,-46.18"/>
<text text-anchor="middle" x="138.84" y="-57.8" font-family="Times,serif" font-size="14.00" fill="purple">Pass Data</text>
</g>
<!-- da0e1598&#45;c269&#45;44d2&#45;bfbd&#45;7b5f15c506cf -->
<g id="node4" class="node">
<title>da0e1598&#45;c269&#45;44d2&#45;bfbd&#45;7b5f15c506cf</title>
<ellipse fill="none" stroke="black" cx="103.34" cy="-192" rx="27" ry="18"/>
<text text-anchor="middle" x="103.34" y="-188.3" font-family="Times,serif" font-size="14.00">StripY</text>
</g>
<!-- da0e1598&#45;c269&#45;44d2&#45;bfbd&#45;7b5f15c506cf&#45;&gt;cab81bde&#45;f7e9&#45;40da&#45;8c90&#45;bbe66c6d7258 -->
<g id="edge2" class="edge">
<title>da0e1598&#45;c269&#45;44d2&#45;bfbd&#45;7b5f15c506cf&#45;&gt;cab81bde&#45;f7e9&#45;40da&#45;8c90&#45;bbe66c6d7258</title>
<path fill="none" stroke="purple" d="M103.34,-173.8C103.34,-162.16 103.34,-146.55 103.34,-133.24"/>
<polygon fill="purple" stroke="purple" points="106.84,-133.18 103.34,-123.18 99.84,-133.18 106.84,-133.18"/>
<text text-anchor="middle" x="138.84" y="-144.8" font-family="Times,serif" font-size="14.00" fill="purple">Pass Data</text>
</g>
<!-- c92b258f&#45;1738&#45;4f41&#45;a7b7&#45;b3a4703e3aca -->
<g id="node5" class="node">
<title>c92b258f&#45;1738&#45;4f41&#45;a7b7&#45;b3a4703e3aca</title>
<ellipse fill="none" stroke="black" cx="103.34" cy="-279" rx="52.6" ry="18"/>
<text text-anchor="middle" x="103.34" y="-275.3" font-family="Times,serif" font-size="14.00">Anon Closure</text>
</g>
<!-- c92b258f&#45;1738&#45;4f41&#45;a7b7&#45;b3a4703e3aca&#45;&gt;da0e1598&#45;c269&#45;44d2&#45;bfbd&#45;7b5f15c506cf -->
<g id="edge3" class="edge">
<title>c92b258f&#45;1738&#45;4f41&#45;a7b7&#45;b3a4703e3aca&#45;&gt;da0e1598&#45;c269&#45;44d2&#45;bfbd&#45;7b5f15c506cf</title>
<path fill="none" stroke="purple" d="M103.34,-260.8C103.34,-249.16 103.34,-233.55 103.34,-220.24"/>
<polygon fill="purple" stroke="purple" points="106.84,-220.18 103.34,-210.18 99.84,-220.18 106.84,-220.18"/>
<text text-anchor="middle" x="138.84" y="-231.8" font-family="Times,serif" font-size="14.00" fill="purple">Pass Data</text>
</g>
<!-- 66989521&#45;207d&#45;4965&#45;b44e&#45;fb3fd32ee438 -->
<g id="node6" class="node">
<title>66989521&#45;207d&#45;4965&#45;b44e&#45;fb3fd32ee438</title>
<ellipse fill="none" stroke="black" cx="103.34" cy="-366" rx="51.3" ry="18"/>
<text text-anchor="middle" x="103.34" y="-362.3" font-family="Times,serif" font-size="14.00">OffsetToPose</text>
</g>
<!-- 66989521&#45;207d&#45;4965&#45;b44e&#45;fb3fd32ee438&#45;&gt;c92b258f&#45;1738&#45;4f41&#45;a7b7&#45;b3a4703e3aca -->
<g id="edge4" class="edge">
<title>66989521&#45;207d&#45;4965&#45;b44e&#45;fb3fd32ee438&#45;&gt;c92b258f&#45;1738&#45;4f41&#45;a7b7&#45;b3a4703e3aca</title>
<path fill="none" stroke="purple" d="M103.34,-347.8C103.34,-336.16 103.34,-320.55 103.34,-307.24"/>
<polygon fill="purple" stroke="purple" points="106.84,-307.18 103.34,-297.18 99.84,-307.18 106.84,-307.18"/>
<text text-anchor="middle" x="138.84" y="-318.8" font-family="Times,serif" font-size="14.00" fill="purple">Pass Data</text>
</g>
<!-- 003e419f&#45;dd63&#45;4e26&#45;a95d&#45;be148d2c20d8 -->
<g id="node7" class="node">
<title>003e419f&#45;dd63&#45;4e26&#45;a95d&#45;be148d2c20d8</title>
<ellipse fill="none" stroke="black" cx="103.34" cy="-453" rx="32.4" ry="18"/>
<text text-anchor="middle" x="103.34" y="-449.3" font-family="Times,serif" font-size="14.00">Average</text>
</g>
<!-- 003e419f&#45;dd63&#45;4e26&#45;a95d&#45;be148d2c20d8&#45;&gt;66989521&#45;207d&#45;4965&#45;b44e&#45;fb3fd32ee438 -->
<g id="edge5" class="edge">
<title>003e419f&#45;dd63&#45;4e26&#45;a95d&#45;be148d2c20d8&#45;&gt;66989521&#45;207d&#45;4965&#45;b44e&#45;fb3fd32ee438</title>
<path fill="none" stroke="purple" d="M103.34,-434.8C103.34,-423.16 103.34,-407.55 103.34,-394.24"/>
<polygon fill="purple" stroke="purple" points="106.84,-394.18 103.34,-384.18 99.84,-394.18 106.84,-394.18"/>
<text text-anchor="middle" x="138.84" y="-405.8" font-family="Times,serif" font-size="14.00" fill="purple">Pass Data</text>
</g>
<!-- ae630559&#45;1199&#45;4c18&#45;ada9&#45;3fa01dbc24cf -->
<g id="node8" class="node">
<title>ae630559&#45;1199&#45;4c18&#45;ada9&#45;3fa01dbc24cf</title>
<ellipse fill="none" stroke="black" cx="103.34" cy="-540" rx="61.1" ry="18"/>
<text text-anchor="middle" x="103.34" y="-536.3" font-family="Times,serif" font-size="14.00">ExtractPosition</text>
</g>
<!-- ae630559&#45;1199&#45;4c18&#45;ada9&#45;3fa01dbc24cf&#45;&gt;003e419f&#45;dd63&#45;4e26&#45;a95d&#45;be148d2c20d8 -->
<g id="edge6" class="edge">
<title>ae630559&#45;1199&#45;4c18&#45;ada9&#45;3fa01dbc24cf&#45;&gt;003e419f&#45;dd63&#45;4e26&#45;a95d&#45;be148d2c20d8</title>
<path fill="none" stroke="purple" d="M103.34,-521.8C103.34,-510.16 103.34,-494.55 103.34,-481.24"/>
<polygon fill="purple" stroke="purple" points="106.84,-481.18 103.34,-471.18 99.84,-481.18 106.84,-481.18"/>
<text text-anchor="middle" x="138.84" y="-492.8" font-family="Times,serif" font-size="14.00" fill="purple">Pass Data</text>
</g>
<!-- 846bd83a&#45;7367&#45;407b&#45;ac2b&#45;26efa8507e62 -->
<g id="node9" class="node">
<title>846bd83a&#45;7367&#45;407b&#45;ac2b&#45;26efa8507e62</title>
<ellipse fill="none" stroke="black" cx="103.34" cy="-627" rx="27" ry="18"/>
<text text-anchor="middle" x="103.34" y="-623.3" font-family="Times,serif" font-size="14.00">ToVec</text>
</g>
<!-- 846bd83a&#45;7367&#45;407b&#45;ac2b&#45;26efa8507e62&#45;&gt;ae630559&#45;1199&#45;4c18&#45;ada9&#45;3fa01dbc24cf -->
<g id="edge7" class="edge">
<title>846bd83a&#45;7367&#45;407b&#45;ac2b&#45;26efa8507e62&#45;&gt;ae630559&#45;1199&#45;4c18&#45;ada9&#45;3fa01dbc24cf</title>
<path fill="none" stroke="purple" d="M103.34,-608.8C103.34,-597.16 103.34,-581.55 103.34,-568.24"/>
<polygon fill="purple" stroke="purple" points="106.84,-568.18 103.34,-558.18 99.84,-568.18 106.84,-568.18"/>
<text text-anchor="middle" x="138.84" y="-579.8" font-family="Times,serif" font-size="14.00" fill="purple">Pass Data</text>
</g>
<!-- c2136452&#45;5657&#45;4413&#45;8a8a&#45;4108e63ea7a5 -->
<g id="node10" class="node">
<title>c2136452&#45;5657&#45;4413&#45;8a8a&#45;4108e63ea7a5</title>
<ellipse fill="none" stroke="black" cx="103.34" cy="-714" rx="45.2" ry="18"/>
<text text-anchor="middle" x="103.34" y="-710.3" font-family="Times,serif" font-size="14.00">Detect true</text>
</g>
<!-- c2136452&#45;5657&#45;4413&#45;8a8a&#45;4108e63ea7a5&#45;&gt;846bd83a&#45;7367&#45;407b&#45;ac2b&#45;26efa8507e62 -->
<g id="edge8" class="edge">
<title>c2136452&#45;5657&#45;4413&#45;8a8a&#45;4108e63ea7a5&#45;&gt;846bd83a&#45;7367&#45;407b&#45;ac2b&#45;26efa8507e62</title>
<path fill="none" stroke="purple" d="M103.34,-695.8C103.34,-684.16 103.34,-668.55 103.34,-655.24"/>
<polygon fill="purple" stroke="purple" points="106.84,-655.18 103.34,-645.18 99.84,-655.18 106.84,-655.18"/>
<text text-anchor="middle" x="138.84" y="-666.8" font-family="Times,serif" font-size="14.00" fill="purple">Pass Data</text>
</g>
<!-- d8b44bc6&#45;6ac3&#45;4b83&#45;b2cb&#45;897514f91d8e&#45;&gt;c2136452&#45;5657&#45;4413&#45;8a8a&#45;4108e63ea7a5 -->
<g id="edge9" class="edge">
<title>d8b44bc6&#45;6ac3&#45;4b83&#45;b2cb&#45;897514f91d8e&#45;&gt;c2136452&#45;5657&#45;4413&#45;8a8a&#45;4108e63ea7a5</title>
<path fill="none" stroke="purple" d="M103.34,-782.8C103.34,-771.16 103.34,-755.55 103.34,-742.24"/>
<polygon fill="purple" stroke="purple" points="106.84,-742.18 103.34,-732.18 99.84,-742.18 106.84,-742.18"/>
<text text-anchor="middle" x="138.84" y="-753.8" font-family="Times,serif" font-size="14.00" fill="purple">Pass Data</text>
</g>
<!-- b2600633&#45;ebb7&#45;4f37&#45;b653&#45;31a5d231fa57 -->
<g id="node12" class="node">
<title>b2600633&#45;ebb7&#45;4f37&#45;b653&#45;31a5d231fa57</title>
<ellipse fill="none" stroke="black" cx="250.34" cy="-888" rx="47.1" ry="18"/>
<text text-anchor="middle" x="250.34" y="-884.3" font-family="Times,serif" font-size="14.00">DelayAction</text>
</g>
<!-- b2600633&#45;ebb7&#45;4f37&#45;b653&#45;31a5d231fa57&#45;&gt;d8b44bc6&#45;6ac3&#45;4b83&#45;b2cb&#45;897514f91d8e -->
<g id="edge11" class="edge">
<title>b2600633&#45;ebb7&#45;4f37&#45;b653&#45;31a5d231fa57&#45;&gt;d8b44bc6&#45;6ac3&#45;4b83&#45;b2cb&#45;897514f91d8e</title>
<path fill="none" stroke="black" d="M225.4,-872.58C201.12,-858.54 164.03,-837.09 137.1,-821.52"/>
<polygon fill="black" stroke="black" points="138.81,-818.47 128.4,-816.49 135.3,-824.53 138.81,-818.47"/>
</g>
<!-- 34fc0b98&#45;45e8&#45;4589&#45;9118&#45;254b2c08398b -->
<g id="node13" class="node">
<title>34fc0b98&#45;45e8&#45;4589&#45;9118&#45;254b2c08398b</title>
<ellipse fill="none" stroke="black" cx="250.34" cy="-961" rx="59.9" ry="18"/>
<text text-anchor="middle" x="250.34" y="-957.3" font-family="Times,serif" font-size="14.00">ZeroMovement</text>
</g>
<!-- 34fc0b98&#45;45e8&#45;4589&#45;9118&#45;254b2c08398b&#45;&gt;b2600633&#45;ebb7&#45;4f37&#45;b653&#45;31a5d231fa57 -->
<g id="edge12" class="edge">
<title>34fc0b98&#45;45e8&#45;4589&#45;9118&#45;254b2c08398b&#45;&gt;b2600633&#45;ebb7&#45;4f37&#45;b653&#45;31a5d231fa57</title>
<path fill="none" stroke="black" d="M250.34,-942.81C250.34,-934.79 250.34,-925.05 250.34,-916.07"/>
<polygon fill="black" stroke="black" points="253.84,-916.03 250.34,-906.03 246.84,-916.03 253.84,-916.03"/>
</g>
</g>
</svg>
