<?xml version="1.0" encoding="UTF-8" standalone="no"?>
<!DOCTYPE svg PUBLIC "-//W3C//DTD SVG 1.1//EN"
 "http://www.w3.org/Graphics/SVG/1.1/DTD/svg11.dtd">
<!-- Generated by graphviz version 2.43.0 (0)
 -->
<!-- Title: G Pages: 1 -->
<svg width="408pt" height="293pt"
 viewBox="0.00 0.00 407.65 293.00" xmlns="http://www.w3.org/2000/svg" xmlns:xlink="http://www.w3.org/1999/xlink">
<g id="graph0" class="graph" transform="scale(1 1) rotate(0) translate(4 289)">
<title>G</title>
<polygon fill="transparent" stroke="transparent" points="-4,4 -4,-289 403.65,-289 403.65,4 -4,4"/>
<g id="clust1" class="cluster">
<title>cluster_aa1ed323&#45;b29c&#45;40fa&#45;93ef&#45;6f1f757943c1</title>
<polygon fill="transparent" stroke="red" stroke-dasharray="5,2" points="8,-8 8,-206 304,-206 304,-8 8,-8"/>
</g>
<!-- be567bfb&#45;204b&#45;4534&#45;b392&#45;cc9730696587 -->
<g id="node1" class="node">
<title>be567bfb&#45;204b&#45;4534&#45;b392&#45;cc9730696587</title>
<polygon fill="none" stroke="black" points="298,-285 232.82,-267 298,-249 363.18,-267 298,-285"/>
<text text-anchor="middle" x="298" y="-263.3" font-family="Times,serif" font-size="14.00">AlwaysTrue</text>
</g>
<!-- c5b77179&#45;9a73&#45;439e&#45;b687&#45;e337bd49ebc1 -->
<g id="node2" class="node">
<title>c5b77179&#45;9a73&#45;439e&#45;b687&#45;e337bd49ebc1</title>
<polygon fill="none" stroke="black" stroke-dasharray="5,2" points="258,-198 204,-198 204,-162 258,-162 258,-198"/>
<text text-anchor="middle" x="231" y="-176.3" font-family="Times,serif" font-size="14.00" fill="red">Race</text>
</g>
<!-- be567bfb&#45;204b&#45;4534&#45;b392&#45;cc9730696587&#45;&gt;c5b77179&#45;9a73&#45;439e&#45;b687&#45;e337bd49ebc1 -->
<g id="edge6" class="edge">
<title>be567bfb&#45;204b&#45;4534&#45;b392&#45;cc9730696587&#45;&gt;c5b77179&#45;9a73&#45;439e&#45;b687&#45;e337bd49ebc1</title>
<path fill="none" stroke="black" d="M286.94,-251.96C277.15,-239.55 262.64,-221.14 250.85,-206.19"/>
<polygon fill="black" stroke="black" points="253.57,-203.98 244.63,-198.29 248.07,-208.31 253.57,-203.98"/>
<text text-anchor="middle" x="287" y="-219.8" font-family="Times,serif" font-size="14.00">False</text>
</g>
<!-- ed8b53c5&#45;631f&#45;4f9f&#45;848d&#45;e62df2153e43 -->
<g id="node6" class="node">
<title>ed8b53c5&#45;631f&#45;4f9f&#45;848d&#45;e62df2153e43</title>
<ellipse fill="none" stroke="black" cx="365" cy="-180" rx="34.8" ry="18"/>
<text text-anchor="middle" x="365" y="-176.3" font-family="Times,serif" font-size="14.00">WaitArm</text>
</g>
<!-- be567bfb&#45;204b&#45;4534&#45;b392&#45;cc9730696587&#45;&gt;ed8b53c5&#45;631f&#45;4f9f&#45;848d&#45;e62df2153e43 -->
<g id="edge5" class="edge">
<title>be567bfb&#45;204b&#45;4534&#45;b392&#45;cc9730696587&#45;&gt;ed8b53c5&#45;631f&#45;4f9f&#45;848d&#45;e62df2153e43</title>
<path fill="none" stroke="black" d="M309.06,-251.96C319.1,-239.23 334.11,-220.19 346.05,-205.04"/>
<polygon fill="black" stroke="black" points="348.88,-207.11 352.32,-197.09 343.38,-202.77 348.88,-207.11"/>
<text text-anchor="middle" x="352" y="-219.8" font-family="Times,serif" font-size="14.00">True</text>
</g>
<!-- a4159326&#45;1812&#45;460c&#45;b3a4&#45;b93fc035ec41 -->
<g id="node3" class="node">
<title>a4159326&#45;1812&#45;460c&#45;b3a4&#45;b93fc035ec41</title>
<ellipse fill="none" stroke="black" cx="73" cy="-107" rx="56.8" ry="18"/>
<text text-anchor="middle" x="73" y="-103.3" font-family="Times,serif" font-size="14.00">UnwrapAction</text>
</g>
<!-- c5b77179&#45;9a73&#45;439e&#45;b687&#45;e337bd49ebc1&#45;&gt;a4159326&#45;1812&#45;460c&#45;b3a4&#45;b93fc035ec41 -->
<g id="edge1" class="edge">
<title>c5b77179&#45;9a73&#45;439e&#45;b687&#45;e337bd49ebc1&#45;&gt;a4159326&#45;1812&#45;460c&#45;b3a4&#45;b93fc035ec41</title>
<path fill="none" stroke="black" d="M203.84,-166.79C179.03,-155.65 142,-139.01 113.66,-126.27"/>
<polygon fill="black" stroke="black" points="114.97,-123.02 104.42,-122.12 112.1,-129.41 114.97,-123.02"/>
</g>
<!-- 76f79074&#45;8ecc&#45;440a&#45;a281&#45;eb0423bf6921 -->
<g id="node4" class="node">
<title>76f79074&#45;8ecc&#45;440a&#45;a281&#45;eb0423bf6921</title>
<ellipse fill="none" stroke="black" cx="249" cy="-107" rx="47.1" ry="18"/>
<text text-anchor="middle" x="249" y="-103.3" font-family="Times,serif" font-size="14.00">DelayAction</text>
</g>
<!-- c5b77179&#45;9a73&#45;439e&#45;b687&#45;e337bd49ebc1&#45;&gt;76f79074&#45;8ecc&#45;440a&#45;a281&#45;eb0423bf6921 -->
<g id="edge2" class="edge">
<title>c5b77179&#45;9a73&#45;439e&#45;b687&#45;e337bd49ebc1&#45;&gt;76f79074&#45;8ecc&#45;440a&#45;a281&#45;eb0423bf6921</title>
<path fill="none" stroke="black" d="M235.36,-161.81C237.41,-153.7 239.91,-143.84 242.21,-134.78"/>
<polygon fill="black" stroke="black" points="245.62,-135.58 244.68,-125.03 238.83,-133.86 245.62,-135.58"/>
</g>
<!-- fa18d548&#45;457b&#45;4e6a&#45;9487&#45;fd0b3823e15c -->
<g id="node5" class="node">
<title>fa18d548&#45;457b&#45;4e6a&#45;9487&#45;fd0b3823e15c</title>
<polygon fill="none" stroke="black" stroke-dasharray="5,2" points="197,-52 125,-52 125,-16 197,-16 197,-52"/>
<text text-anchor="middle" x="161" y="-30.3" font-family="Times,serif" font-size="14.00" fill="red">Resolve</text>
</g>
<!-- a4159326&#45;1812&#45;460c&#45;b3a4&#45;b93fc035ec41&#45;&gt;fa18d548&#45;457b&#45;4e6a&#45;9487&#45;fd0b3823e15c -->
<g id="edge3" class="edge">
<title>a4159326&#45;1812&#45;460c&#45;b3a4&#45;b93fc035ec41&#45;&gt;fa18d548&#45;457b&#45;4e6a&#45;9487&#45;fd0b3823e15c</title>
<path fill="none" stroke="black" d="M92.97,-89.89C104.45,-80.63 119.08,-68.82 131.83,-58.54"/>
<polygon fill="black" stroke="black" points="134.3,-61.04 139.88,-52.04 129.9,-55.59 134.3,-61.04"/>
</g>
<!-- 76f79074&#45;8ecc&#45;440a&#45;a281&#45;eb0423bf6921&#45;&gt;fa18d548&#45;457b&#45;4e6a&#45;9487&#45;fd0b3823e15c -->
<g id="edge4" class="edge">
<title>76f79074&#45;8ecc&#45;440a&#45;a281&#45;eb0423bf6921&#45;&gt;fa18d548&#45;457b&#45;4e6a&#45;9487&#45;fd0b3823e15c</title>
<path fill="none" stroke="black" d="M229.47,-90.24C218.01,-80.99 203.29,-69.12 190.44,-58.76"/>
<polygon fill="black" stroke="black" points="192.3,-55.76 182.32,-52.2 187.91,-61.21 192.3,-55.76"/>
</g>
</g>
</svg>
