<?xml version="1.0" encoding="UTF-8" standalone="no"?>
<!DOCTYPE svg PUBLIC "-//W3C//DTD SVG 1.1//EN"
 "http://www.w3.org/Graphics/SVG/1.1/DTD/svg11.dtd">
<!-- Generated by graphviz version 2.43.0 (0)
 -->
<!-- Title: G Pages: 1 -->
<svg width="249pt" height="276pt"
 viewBox="0.00 0.00 249.00 276.00" xmlns="http://www.w3.org/2000/svg" xmlns:xlink="http://www.w3.org/1999/xlink">
<g id="graph0" class="graph" transform="scale(1 1) rotate(0) translate(4 272)">
<title>G</title>
<polygon fill="transparent" stroke="transparent" points="-4,4 -4,-272 245,-272 245,4 -4,4"/>
<g id="clust1" class="cluster">
<title>cluster_27aa1498&#45;2dbf&#45;46b3&#45;a718&#45;8f7c215a33d6</title>
<polygon fill="transparent" stroke="blue" stroke-dasharray="5,2" points="8,-64 8,-260 233,-260 233,-64 8,-64"/>
</g>
<!-- 95bb707e&#45;4d65&#45;4f6e&#45;876e&#45;5d543861a7b5 -->
<g id="node1" class="node">
<title>95bb707e&#45;4d65&#45;4f6e&#45;876e&#45;5d543861a7b5</title>
<polygon fill="none" stroke="black" stroke-dasharray="5,2" points="169,-252 71,-252 71,-216 169,-216 169,-252"/>
<text text-anchor="middle" x="120" y="-230.3" font-family="Times,serif" font-size="14.00" fill="blue">Concurrent</text>
</g>
<!-- 8719ae64&#45;c60f&#45;4d7e&#45;be74&#45;59e6b249b8b7 -->
<g id="node2" class="node">
<title>8719ae64&#45;c60f&#45;4d7e&#45;be74&#45;59e6b249b8b7</title>
<ellipse fill="none" stroke="black" cx="51" cy="-162" rx="34.8" ry="18"/>
<text text-anchor="middle" x="51" y="-158.3" font-family="Times,serif" font-size="14.00">WaitArm</text>
</g>
<!-- 95bb707e&#45;4d65&#45;4f6e&#45;876e&#45;5d543861a7b5&#45;&gt;8719ae64&#45;c60f&#45;4d7e&#45;be74&#45;59e6b249b8b7 -->
<g id="edge1" class="edge">
<title>95bb707e&#45;4d65&#45;4f6e&#45;876e&#45;5d543861a7b5&#45;&gt;8719ae64&#45;c60f&#45;4d7e&#45;be74&#45;59e6b249b8b7</title>
<path fill="none" stroke="black" d="M102.94,-215.7C94.13,-206.75 83.25,-195.71 73.73,-186.06"/>
<polygon fill="black" stroke="black" points="75.96,-183.34 66.45,-178.67 70.97,-188.25 75.96,-183.34"/>
</g>
<!-- 71d8c457&#45;edac&#45;470e&#45;9241&#45;6c983e9f43a7 -->
<g id="node3" class="node">
<title>71d8c457&#45;edac&#45;470e&#45;9241&#45;6c983e9f43a7</title>
<ellipse fill="none" stroke="black" cx="191" cy="-162" rx="33.6" ry="18"/>
<text text-anchor="middle" x="191" y="-158.3" font-family="Times,serif" font-size="14.00">Descend</text>
</g>
<!-- 95bb707e&#45;4d65&#45;4f6e&#45;876e&#45;5d543861a7b5&#45;&gt;71d8c457&#45;edac&#45;470e&#45;9241&#45;6c983e9f43a7 -->
<g id="edge2" class="edge">
<title>95bb707e&#45;4d65&#45;4f6e&#45;876e&#45;5d543861a7b5&#45;&gt;71d8c457&#45;edac&#45;470e&#45;9241&#45;6c983e9f43a7</title>
<path fill="none" stroke="black" d="M137.55,-215.7C146.84,-206.53 158.36,-195.18 168.33,-185.35"/>
<polygon fill="black" stroke="black" points="170.92,-187.72 175.58,-178.2 166,-182.73 170.92,-187.72"/>
</g>
<!-- c3d6b694&#45;b5d2&#45;4504&#45;9db1&#45;59a7e2064088 -->
<g id="node4" class="node">
<title>c3d6b694&#45;b5d2&#45;4504&#45;9db1&#45;59a7e2064088</title>
<polygon fill="none" stroke="black" stroke-dasharray="5,2" points="162.5,-108 77.5,-108 77.5,-72 162.5,-72 162.5,-108"/>
<text text-anchor="middle" x="120" y="-86.3" font-family="Times,serif" font-size="14.00" fill="blue">Converge</text>
</g>
<!-- 8719ae64&#45;c60f&#45;4d7e&#45;be74&#45;59e6b249b8b7&#45;&gt;c3d6b694&#45;b5d2&#45;4504&#45;9db1&#45;59a7e2064088 -->
<g id="edge3" class="edge">
<title>8719ae64&#45;c60f&#45;4d7e&#45;be74&#45;59e6b249b8b7&#45;&gt;c3d6b694&#45;b5d2&#45;4504&#45;9db1&#45;59a7e2064088</title>
<path fill="none" stroke="black" d="M66.31,-145.46C74.92,-136.73 85.86,-125.63 95.62,-115.74"/>
<polygon fill="black" stroke="black" points="98.26,-118.04 102.79,-108.46 93.28,-113.13 98.26,-118.04"/>
</g>
<!-- 71d8c457&#45;edac&#45;470e&#45;9241&#45;6c983e9f43a7&#45;&gt;c3d6b694&#45;b5d2&#45;4504&#45;9db1&#45;59a7e2064088 -->
<g id="edge4" class="edge">
<title>71d8c457&#45;edac&#45;470e&#45;9241&#45;6c983e9f43a7&#45;&gt;c3d6b694&#45;b5d2&#45;4504&#45;9db1&#45;59a7e2064088</title>
<path fill="none" stroke="black" d="M175.59,-145.81C166.54,-136.88 154.88,-125.38 144.57,-115.23"/>
<polygon fill="black" stroke="black" points="146.95,-112.66 137.37,-108.13 142.04,-117.64 146.95,-112.66"/>
</g>
<!-- 583180c9&#45;dee3&#45;4a3f&#45;8032&#45;754a79ed8266 -->
<g id="node5" class="node">
<title>583180c9&#45;dee3&#45;4a3f&#45;8032&#45;754a79ed8266</title>
<ellipse fill="none" stroke="black" cx="120" cy="-18" rx="34.8" ry="18"/>
<text text-anchor="middle" x="120" y="-14.3" font-family="Times,serif" font-size="14.00">WaitArm</text>
</g>
<!-- c3d6b694&#45;b5d2&#45;4504&#45;9db1&#45;59a7e2064088&#45;&gt;583180c9&#45;dee3&#45;4a3f&#45;8032&#45;754a79ed8266 -->
<g id="edge5" class="edge">
<title>c3d6b694&#45;b5d2&#45;4504&#45;9db1&#45;59a7e2064088&#45;&gt;583180c9&#45;dee3&#45;4a3f&#45;8032&#45;754a79ed8266</title>
<path fill="none" stroke="black" d="M120,-71.7C120,-63.98 120,-54.71 120,-46.11"/>
<polygon fill="black" stroke="black" points="123.5,-46.1 120,-36.1 116.5,-46.1 123.5,-46.1"/>
</g>
</g>
</svg>
