<?xml version="1.0" encoding="UTF-8" standalone="no"?>
<!DOCTYPE svg PUBLIC "-//W3C//DTD SVG 1.1//EN"
 "http://www.w3.org/Graphics/SVG/1.1/DTD/svg11.dtd">
<!-- Generated by graphviz version 2.43.0 (0)
 -->
<!-- Title: G Pages: 1 -->
<svg width="583pt" height="552pt"
 viewBox="0.00 0.00 582.60 552.00" xmlns="http://www.w3.org/2000/svg" xmlns:xlink="http://www.w3.org/1999/xlink">
<g id="graph0" class="graph" transform="scale(1 1) rotate(0) translate(4 548)">
<title>G</title>
<polygon fill="transparent" stroke="transparent" points="-4,4 -4,-548 578.6,-548 578.6,4 -4,4"/>
<!-- d73cc639&#45;1828&#45;433e&#45;8e59&#45;ee27a6ded786 -->
<g id="node1" class="node">
<title>d73cc639&#45;1828&#45;433e&#45;8e59&#45;ee27a6ded786</title>
<polygon fill="none" stroke="black" points="294.3,-384 166.67,-366 294.3,-348 421.93,-366 294.3,-384"/>
<text text-anchor="middle" x="294.3" y="-362.3" font-family="Times,serif" font-size="14.00">Consecutive True &lt; 34</text>
</g>
<!-- 3cffcda6&#45;87a8&#45;494c&#45;8f7d&#45;c0651511dcd1 -->
<g id="node5" class="node">
<title>3cffcda6&#45;87a8&#45;494c&#45;8f7d&#45;c0651511dcd1</title>
<ellipse fill="none" stroke="black" cx="86.3" cy="-279" rx="38.5" ry="18"/>
<text text-anchor="middle" x="86.3" y="-275.3" font-family="Times,serif" font-size="14.00">ConstYaw</text>
</g>
<!-- d73cc639&#45;1828&#45;433e&#45;8e59&#45;ee27a6ded786&#45;&gt;3cffcda6&#45;87a8&#45;494c&#45;8f7d&#45;c0651511dcd1 -->
<g id="edge6" class="edge">
<title>d73cc639&#45;1828&#45;433e&#45;8e59&#45;ee27a6ded786&#45;&gt;3cffcda6&#45;87a8&#45;494c&#45;8f7d&#45;c0651511dcd1</title>
<path fill="none" stroke="black" d="M263.16,-352.27C225.89,-337.04 163.53,-311.56 123.69,-295.28"/>
<polygon fill="black" stroke="black" points="124.9,-291.99 114.32,-291.45 122.25,-298.47 124.9,-291.99"/>
<text text-anchor="middle" x="220.3" y="-318.8" font-family="Times,serif" font-size="14.00">True</text>
</g>
<!-- 068567cf&#45;8212&#45;4f21&#45;8743&#45;be18583e4200 -->
<g id="node8" class="node">
<title>068567cf&#45;8212&#45;4f21&#45;8743&#45;be18583e4200</title>
<ellipse fill="none" stroke="black" cx="294.3" cy="-279" rx="59.9" ry="18"/>
<text text-anchor="middle" x="294.3" y="-275.3" font-family="Times,serif" font-size="14.00">ZeroMovement</text>
</g>
<!-- d73cc639&#45;1828&#45;433e&#45;8e59&#45;ee27a6ded786&#45;&gt;068567cf&#45;8212&#45;4f21&#45;8743&#45;be18583e4200 -->
<g id="edge7" class="edge">
<title>d73cc639&#45;1828&#45;433e&#45;8e59&#45;ee27a6ded786&#45;&gt;068567cf&#45;8212&#45;4f21&#45;8743&#45;be18583e4200</title>
<path fill="none" stroke="black" d="M294.3,-347.8C294.3,-336.16 294.3,-320.55 294.3,-307.24"/>
<polygon fill="black" stroke="black" points="297.8,-307.18 294.3,-297.18 290.8,-307.18 297.8,-307.18"/>
<text text-anchor="middle" x="313.3" y="-318.8" font-family="Times,serif" font-size="14.00">False</text>
</g>
<!-- 2ba22822&#45;6e97&#45;494c&#45;9006&#45;17a7ea085656 -->
<g id="node2" class="node">
<title>2ba22822&#45;6e97&#45;494c&#45;9006&#45;17a7ea085656</title>
<ellipse fill="none" stroke="black" cx="86.3" cy="-105" rx="36.1" ry="18"/>
<text text-anchor="middle" x="86.3" y="-101.3" font-family="Times,serif" font-size="14.00">SideMult</text>
</g>
<!-- 42e1be9d&#45;2d98&#45;4dfb&#45;9aa3&#45;fc811f8ca1d5 -->
<g id="node3" class="node">
<title>42e1be9d&#45;2d98&#45;4dfb&#45;9aa3&#45;fc811f8ca1d5</title>
<ellipse fill="none" stroke="black" cx="86.3" cy="-18" rx="80.11" ry="18"/>
<text text-anchor="middle" x="86.3" y="-14.3" font-family="Times,serif" font-size="14.00">Stability2Movement</text>
</g>
<!-- 2ba22822&#45;6e97&#45;494c&#45;9006&#45;17a7ea085656&#45;&gt;42e1be9d&#45;2d98&#45;4dfb&#45;9aa3&#45;fc811f8ca1d5 -->
<g id="edge1" class="edge">
<title>2ba22822&#45;6e97&#45;494c&#45;9006&#45;17a7ea085656&#45;&gt;42e1be9d&#45;2d98&#45;4dfb&#45;9aa3&#45;fc811f8ca1d5</title>
<path fill="none" stroke="purple" d="M86.3,-86.8C86.3,-75.16 86.3,-59.55 86.3,-46.24"/>
<polygon fill="purple" stroke="purple" points="89.8,-46.18 86.3,-36.18 82.8,-46.18 89.8,-46.18"/>
<text text-anchor="middle" x="121.8" y="-57.8" font-family="Times,serif" font-size="14.00" fill="purple">Pass Data</text>
</g>
<!-- a83e1ef0&#45;85f9&#45;4a24&#45;957f&#45;874b5aa0a5cc -->
<g id="node4" class="node">
<title>a83e1ef0&#45;85f9&#45;4a24&#45;957f&#45;874b5aa0a5cc</title>
<ellipse fill="none" stroke="black" cx="86.3" cy="-192" rx="27" ry="18"/>
<text text-anchor="middle" x="86.3" y="-188.3" font-family="Times,serif" font-size="14.00">SetX</text>
</g>
<!-- a83e1ef0&#45;85f9&#45;4a24&#45;957f&#45;874b5aa0a5cc&#45;&gt;2ba22822&#45;6e97&#45;494c&#45;9006&#45;17a7ea085656 -->
<g id="edge2" class="edge">
<title>a83e1ef0&#45;85f9&#45;4a24&#45;957f&#45;874b5aa0a5cc&#45;&gt;2ba22822&#45;6e97&#45;494c&#45;9006&#45;17a7ea085656</title>
<path fill="none" stroke="purple" d="M86.3,-173.8C86.3,-162.16 86.3,-146.55 86.3,-133.24"/>
<polygon fill="purple" stroke="purple" points="89.8,-133.18 86.3,-123.18 82.8,-133.18 89.8,-133.18"/>
<text text-anchor="middle" x="121.8" y="-144.8" font-family="Times,serif" font-size="14.00" fill="purple">Pass Data</text>
</g>
<!-- 3cffcda6&#45;87a8&#45;494c&#45;8f7d&#45;c0651511dcd1&#45;&gt;a83e1ef0&#45;85f9&#45;4a24&#45;957f&#45;874b5aa0a5cc -->
<g id="edge3" class="edge">
<title>3cffcda6&#45;87a8&#45;494c&#45;8f7d&#45;c0651511dcd1&#45;&gt;a83e1ef0&#45;85f9&#45;4a24&#45;957f&#45;874b5aa0a5cc</title>
<path fill="none" stroke="purple" d="M86.3,-260.8C86.3,-249.16 86.3,-233.55 86.3,-220.24"/>
<polygon fill="purple" stroke="purple" points="89.8,-220.18 86.3,-210.18 82.8,-220.18 89.8,-220.18"/>
<text text-anchor="middle" x="121.8" y="-231.8" font-family="Times,serif" font-size="14.00" fill="purple">Pass Data</text>
</g>
<!-- 1c647531&#45;940d&#45;42f6&#45;9f6c&#45;ec4b30d5148e -->
<g id="node6" class="node">
<title>1c647531&#45;940d&#45;42f6&#45;9f6c&#45;ec4b30d5148e</title>
<ellipse fill="none" stroke="black" cx="294.3" cy="-453" rx="46.4" ry="18"/>
<text text-anchor="middle" x="294.3" y="-449.3" font-family="Times,serif" font-size="14.00">AlwaysTrue</text>
</g>
<!-- 1c647531&#45;940d&#45;42f6&#45;9f6c&#45;ec4b30d5148e&#45;&gt;d73cc639&#45;1828&#45;433e&#45;8e59&#45;ee27a6ded786 -->
<g id="edge4" class="edge">
<title>1c647531&#45;940d&#45;42f6&#45;9f6c&#45;ec4b30d5148e&#45;&gt;d73cc639&#45;1828&#45;433e&#45;8e59&#45;ee27a6ded786</title>
<path fill="none" stroke="purple" d="M294.3,-434.8C294.3,-423.16 294.3,-407.55 294.3,-394.24"/>
<polygon fill="purple" stroke="purple" points="297.8,-394.18 294.3,-384.18 290.8,-394.18 297.8,-394.18"/>
<text text-anchor="middle" x="329.8" y="-405.8" font-family="Times,serif" font-size="14.00" fill="purple">Pass Data</text>
</g>
<!-- dce2557f&#45;fc2d&#45;4807&#45;a477&#45;fe191c9a719d -->
<g id="node7" class="node">
<title>dce2557f&#45;fc2d&#45;4807&#45;a477&#45;fe191c9a719d</title>
<ellipse fill="none" stroke="black" cx="294.3" cy="-526" rx="47.1" ry="18"/>
<text text-anchor="middle" x="294.3" y="-522.3" font-family="Times,serif" font-size="14.00">DelayAction</text>
</g>
<!-- dce2557f&#45;fc2d&#45;4807&#45;a477&#45;fe191c9a719d&#45;&gt;1c647531&#45;940d&#45;42f6&#45;9f6c&#45;ec4b30d5148e -->
<g id="edge5" class="edge">
<title>dce2557f&#45;fc2d&#45;4807&#45;a477&#45;fe191c9a719d&#45;&gt;1c647531&#45;940d&#45;42f6&#45;9f6c&#45;ec4b30d5148e</title>
<path fill="none" stroke="black" d="M294.3,-507.81C294.3,-499.79 294.3,-490.05 294.3,-481.07"/>
<polygon fill="black" stroke="black" points="297.8,-481.03 294.3,-471.03 290.8,-481.03 297.8,-481.03"/>
</g>
<!-- 7a243073&#45;698f&#45;43d4&#45;852b&#45;3f799b6b2f6d -->
<g id="node9" class="node">
<title>7a243073&#45;698f&#45;43d4&#45;852b&#45;3f799b6b2f6d</title>
<ellipse fill="none" stroke="black" cx="47.3" cy="-366" rx="47.1" ry="18"/>
<text text-anchor="middle" x="47.3" y="-362.3" font-family="Times,serif" font-size="14.00">DelayAction</text>
</g>
<!-- 7a243073&#45;698f&#45;43d4&#45;852b&#45;3f799b6b2f6d&#45;&gt;3cffcda6&#45;87a8&#45;494c&#45;8f7d&#45;c0651511dcd1 -->
<g id="edge8" class="edge">
<title>7a243073&#45;698f&#45;43d4&#45;852b&#45;3f799b6b2f6d&#45;&gt;3cffcda6&#45;87a8&#45;494c&#45;8f7d&#45;c0651511dcd1</title>
<path fill="none" stroke="black" d="M55.01,-348.21C60.51,-336.22 68.02,-319.85 74.3,-306.16"/>
<polygon fill="black" stroke="black" points="77.62,-307.31 78.61,-296.76 71.26,-304.39 77.62,-307.31"/>
</g>
<!-- c5511e43&#45;5d14&#45;4f5c&#45;b42a&#45;bd4ab8a45bcb -->
<g id="node10" class="node">
<title>c5511e43&#45;5d14&#45;4f5c&#45;b42a&#45;bd4ab8a45bcb</title>
<ellipse fill="none" stroke="black" cx="494.3" cy="-526" rx="80.11" ry="18"/>
<text text-anchor="middle" x="494.3" y="-522.3" font-family="Times,serif" font-size="14.00">Stability2Movement</text>
</g>
</g>
</svg>
