<?xml version="1.0" encoding="UTF-8" standalone="no"?>
<!DOCTYPE svg PUBLIC "-//W3C//DTD SVG 1.1//EN"
 "http://www.w3.org/Graphics/SVG/1.1/DTD/svg11.dtd">
<!-- Generated by graphviz version 2.43.0 (0)
 -->
<!-- Title: G Pages: 1 -->
<svg width="318pt" height="987pt"
 viewBox="0.00 0.00 318.29 987.00" xmlns="http://www.w3.org/2000/svg" xmlns:xlink="http://www.w3.org/1999/xlink">
<g id="graph0" class="graph" transform="scale(1 1) rotate(0) translate(4 983)">
<title>G</title>
<polygon fill="transparent" stroke="transparent" points="-4,4 -4,-983 314.29,-983 314.29,4 -4,4"/>
<!-- bb139683&#45;fb7e&#45;4f5f&#45;84af&#45;83b796af01ce -->
<g id="node1" class="node">
<title>bb139683&#45;fb7e&#45;4f5f&#45;84af&#45;83b796af01ce</title>
<polygon fill="none" stroke="black" points="65.34,-906 0.16,-888 65.34,-870 130.52,-888 65.34,-906"/>
<text text-anchor="middle" x="65.34" y="-884.3" font-family="Times,serif" font-size="14.00">AlwaysTrue</text>
</g>
<!-- 5eab32d9&#45;f81e&#45;4bfd&#45;b54a&#45;1ba2564c6e25 -->
<g id="node11" class="node">
<title>5eab32d9&#45;f81e&#45;4bfd&#45;b54a&#45;1ba2564c6e25</title>
<ellipse fill="none" stroke="black" cx="103.34" cy="-801" rx="46.5" ry="18"/>
<text text-anchor="middle" x="103.34" y="-797.3" font-family="Times,serif" font-size="14.00">VisionNorm</text>
</g>
<!-- bb139683&#45;fb7e&#45;4f5f&#45;84af&#45;83b796af01ce&#45;&gt;5eab32d9&#45;f81e&#45;4bfd&#45;b54a&#45;1ba2564c6e25 -->
<g id="edge10" class="edge">
<title>bb139683&#45;fb7e&#45;4f5f&#45;84af&#45;83b796af01ce&#45;&gt;5eab32d9&#45;f81e&#45;4bfd&#45;b54a&#45;1ba2564c6e25</title>
<path fill="none" stroke="black" d="M72.13,-871.8C77.54,-859.7 85.25,-842.47 91.65,-828.16"/>
<polygon fill="black" stroke="black" points="94.94,-829.37 95.82,-818.81 88.55,-826.51 94.94,-829.37"/>
<text text-anchor="middle" x="104.34" y="-840.8" font-family="Times,serif" font-size="14.00">True</text>
</g>
<!-- 656f53af&#45;a4b2&#45;40e8&#45;9d9f&#45;332c5c72e266 -->
<g id="node2" class="node">
<title>656f53af&#45;a4b2&#45;40e8&#45;9d9f&#45;332c5c72e266</title>
<ellipse fill="none" stroke="black" cx="103.34" cy="-105" rx="27" ry="18"/>
<text text-anchor="middle" x="103.34" y="-101.3" font-family="Times,serif" font-size="14.00">FlatX</text>
</g>
<!-- ec97a068&#45;6b84&#45;47b4&#45;8706&#45;db8e570c3620 -->
<g id="node3" class="node">
<title>ec97a068&#45;6b84&#45;47b4&#45;8706&#45;db8e570c3620</title>
<ellipse fill="none" stroke="black" cx="103.34" cy="-18" rx="80.11" ry="18"/>
<text text-anchor="middle" x="103.34" y="-14.3" font-family="Times,serif" font-size="14.00">Stability2Movement</text>
</g>
<!-- 656f53af&#45;a4b2&#45;40e8&#45;9d9f&#45;332c5c72e266&#45;&gt;ec97a068&#45;6b84&#45;47b4&#45;8706&#45;db8e570c3620 -->
<g id="edge1" class="edge">
<title>656f53af&#45;a4b2&#45;40e8&#45;9d9f&#45;332c5c72e266&#45;&gt;ec97a068&#45;6b84&#45;47b4&#45;8706&#45;db8e570c3620</title>
<path fill="none" stroke="purple" d="M103.34,-86.8C103.34,-75.16 103.34,-59.55 103.34,-46.24"/>
<polygon fill="purple" stroke="purple" points="106.84,-46.18 103.34,-36.18 99.84,-46.18 106.84,-46.18"/>
<text text-anchor="middle" x="138.84" y="-57.8" font-family="Times,serif" font-size="14.00" fill="purple">Pass Data</text>
</g>
<!-- a0cbacf7&#45;cbba&#45;4945&#45;88c6&#45;5f06a9f0f7ef -->
<g id="node4" class="node">
<title>a0cbacf7&#45;cbba&#45;4945&#45;88c6&#45;5f06a9f0f7ef</title>
<ellipse fill="none" stroke="black" cx="103.34" cy="-192" rx="27" ry="18"/>
<text text-anchor="middle" x="103.34" y="-188.3" font-family="Times,serif" font-size="14.00">StripY</text>
</g>
<!-- a0cbacf7&#45;cbba&#45;4945&#45;88c6&#45;5f06a9f0f7ef&#45;&gt;656f53af&#45;a4b2&#45;40e8&#45;9d9f&#45;332c5c72e266 -->
<g id="edge2" class="edge">
<title>a0cbacf7&#45;cbba&#45;4945&#45;88c6&#45;5f06a9f0f7ef&#45;&gt;656f53af&#45;a4b2&#45;40e8&#45;9d9f&#45;332c5c72e266</title>
<path fill="none" stroke="purple" d="M103.34,-173.8C103.34,-162.16 103.34,-146.55 103.34,-133.24"/>
<polygon fill="purple" stroke="purple" points="106.84,-133.18 103.34,-123.18 99.84,-133.18 106.84,-133.18"/>
<text text-anchor="middle" x="138.84" y="-144.8" font-family="Times,serif" font-size="14.00" fill="purple">Pass Data</text>
</g>
<!-- baefb131&#45;bf2b&#45;4e08&#45;9ce4&#45;afd51c0253b3 -->
<g id="node5" class="node">
<title>baefb131&#45;bf2b&#45;4e08&#45;9ce4&#45;afd51c0253b3</title>
<ellipse fill="none" stroke="black" cx="103.34" cy="-279" rx="52.6" ry="18"/>
<text text-anchor="middle" x="103.34" y="-275.3" font-family="Times,serif" font-size="14.00">Anon Closure</text>
</g>
<!-- baefb131&#45;bf2b&#45;4e08&#45;9ce4&#45;afd51c0253b3&#45;&gt;a0cbacf7&#45;cbba&#45;4945&#45;88c6&#45;5f06a9f0f7ef -->
<g id="edge3" class="edge">
<title>baefb131&#45;bf2b&#45;4e08&#45;9ce4&#45;afd51c0253b3&#45;&gt;a0cbacf7&#45;cbba&#45;4945&#45;88c6&#45;5f06a9f0f7ef</title>
<path fill="none" stroke="purple" d="M103.34,-260.8C103.34,-249.16 103.34,-233.55 103.34,-220.24"/>
<polygon fill="purple" stroke="purple" points="106.84,-220.18 103.34,-210.18 99.84,-220.18 106.84,-220.18"/>
<text text-anchor="middle" x="138.84" y="-231.8" font-family="Times,serif" font-size="14.00" fill="purple">Pass Data</text>
</g>
<!-- acf4222f&#45;7c37&#45;4228&#45;99b9&#45;d0df05c5daf6 -->
<g id="node6" class="node">
<title>acf4222f&#45;7c37&#45;4228&#45;99b9&#45;d0df05c5daf6</title>
<ellipse fill="none" stroke="black" cx="103.34" cy="-366" rx="51.3" ry="18"/>
<text text-anchor="middle" x="103.34" y="-362.3" font-family="Times,serif" font-size="14.00">OffsetToPose</text>
</g>
<!-- acf4222f&#45;7c37&#45;4228&#45;99b9&#45;d0df05c5daf6&#45;&gt;baefb131&#45;bf2b&#45;4e08&#45;9ce4&#45;afd51c0253b3 -->
<g id="edge4" class="edge">
<title>acf4222f&#45;7c37&#45;4228&#45;99b9&#45;d0df05c5daf6&#45;&gt;baefb131&#45;bf2b&#45;4e08&#45;9ce4&#45;afd51c0253b3</title>
<path fill="none" stroke="purple" d="M103.34,-347.8C103.34,-336.16 103.34,-320.55 103.34,-307.24"/>
<polygon fill="purple" stroke="purple" points="106.84,-307.18 103.34,-297.18 99.84,-307.18 106.84,-307.18"/>
<text text-anchor="middle" x="138.84" y="-318.8" font-family="Times,serif" font-size="14.00" fill="purple">Pass Data</text>
</g>
<!-- 805071c8&#45;c5a9&#45;4a71&#45;907b&#45;7cc16236e93c -->
<g id="node7" class="node">
<title>805071c8&#45;c5a9&#45;4a71&#45;907b&#45;7cc16236e93c</title>
<ellipse fill="none" stroke="black" cx="103.34" cy="-453" rx="32.4" ry="18"/>
<text text-anchor="middle" x="103.34" y="-449.3" font-family="Times,serif" font-size="14.00">Average</text>
</g>
<!-- 805071c8&#45;c5a9&#45;4a71&#45;907b&#45;7cc16236e93c&#45;&gt;acf4222f&#45;7c37&#45;4228&#45;99b9&#45;d0df05c5daf6 -->
<g id="edge5" class="edge">
<title>805071c8&#45;c5a9&#45;4a71&#45;907b&#45;7cc16236e93c&#45;&gt;acf4222f&#45;7c37&#45;4228&#45;99b9&#45;d0df05c5daf6</title>
<path fill="none" stroke="purple" d="M103.34,-434.8C103.34,-423.16 103.34,-407.55 103.34,-394.24"/>
<polygon fill="purple" stroke="purple" points="106.84,-394.18 103.34,-384.18 99.84,-394.18 106.84,-394.18"/>
<text text-anchor="middle" x="138.84" y="-405.8" font-family="Times,serif" font-size="14.00" fill="purple">Pass Data</text>
</g>
<!-- 5f1e4e63&#45;6f22&#45;4c3b&#45;8e48&#45;6773a6158a5e -->
<g id="node8" class="node">
<title>5f1e4e63&#45;6f22&#45;4c3b&#45;8e48&#45;6773a6158a5e</title>
<ellipse fill="none" stroke="black" cx="103.34" cy="-540" rx="61.1" ry="18"/>
<text text-anchor="middle" x="103.34" y="-536.3" font-family="Times,serif" font-size="14.00">ExtractPosition</text>
</g>
<!-- 5f1e4e63&#45;6f22&#45;4c3b&#45;8e48&#45;6773a6158a5e&#45;&gt;805071c8&#45;c5a9&#45;4a71&#45;907b&#45;7cc16236e93c -->
<g id="edge6" class="edge">
<title>5f1e4e63&#45;6f22&#45;4c3b&#45;8e48&#45;6773a6158a5e&#45;&gt;805071c8&#45;c5a9&#45;4a71&#45;907b&#45;7cc16236e93c</title>
<path fill="none" stroke="purple" d="M103.34,-521.8C103.34,-510.16 103.34,-494.55 103.34,-481.24"/>
<polygon fill="purple" stroke="purple" points="106.84,-481.18 103.34,-471.18 99.84,-481.18 106.84,-481.18"/>
<text text-anchor="middle" x="138.84" y="-492.8" font-family="Times,serif" font-size="14.00" fill="purple">Pass Data</text>
</g>
<!-- 502518ac&#45;52b8&#45;43c6&#45;92d6&#45;e7f32081859c -->
<g id="node9" class="node">
<title>502518ac&#45;52b8&#45;43c6&#45;92d6&#45;e7f32081859c</title>
<ellipse fill="none" stroke="black" cx="103.34" cy="-627" rx="27" ry="18"/>
<text text-anchor="middle" x="103.34" y="-623.3" font-family="Times,serif" font-size="14.00">ToVec</text>
</g>
<!-- 502518ac&#45;52b8&#45;43c6&#45;92d6&#45;e7f32081859c&#45;&gt;5f1e4e63&#45;6f22&#45;4c3b&#45;8e48&#45;6773a6158a5e -->
<g id="edge7" class="edge">
<title>502518ac&#45;52b8&#45;43c6&#45;92d6&#45;e7f32081859c&#45;&gt;5f1e4e63&#45;6f22&#45;4c3b&#45;8e48&#45;6773a6158a5e</title>
<path fill="none" stroke="purple" d="M103.34,-608.8C103.34,-597.16 103.34,-581.55 103.34,-568.24"/>
<polygon fill="purple" stroke="purple" points="106.84,-568.18 103.34,-558.18 99.84,-568.18 106.84,-568.18"/>
<text text-anchor="middle" x="138.84" y="-579.8" font-family="Times,serif" font-size="14.00" fill="purple">Pass Data</text>
</g>
<!-- 68e12018&#45;365e&#45;409f&#45;a4ee&#45;aeedb64047d3 -->
<g id="node10" class="node">
<title>68e12018&#45;365e&#45;409f&#45;a4ee&#45;aeedb64047d3</title>
<ellipse fill="none" stroke="black" cx="103.34" cy="-714" rx="45.2" ry="18"/>
<text text-anchor="middle" x="103.34" y="-710.3" font-family="Times,serif" font-size="14.00">Detect true</text>
</g>
<!-- 68e12018&#45;365e&#45;409f&#45;a4ee&#45;aeedb64047d3&#45;&gt;502518ac&#45;52b8&#45;43c6&#45;92d6&#45;e7f32081859c -->
<g id="edge8" class="edge">
<title>68e12018&#45;365e&#45;409f&#45;a4ee&#45;aeedb64047d3&#45;&gt;502518ac&#45;52b8&#45;43c6&#45;92d6&#45;e7f32081859c</title>
<path fill="none" stroke="purple" d="M103.34,-695.8C103.34,-684.16 103.34,-668.55 103.34,-655.24"/>
<polygon fill="purple" stroke="purple" points="106.84,-655.18 103.34,-645.18 99.84,-655.18 106.84,-655.18"/>
<text text-anchor="middle" x="138.84" y="-666.8" font-family="Times,serif" font-size="14.00" fill="purple">Pass Data</text>
</g>
<!-- 5eab32d9&#45;f81e&#45;4bfd&#45;b54a&#45;1ba2564c6e25&#45;&gt;68e12018&#45;365e&#45;409f&#45;a4ee&#45;aeedb64047d3 -->
<g id="edge9" class="edge">
<title>5eab32d9&#45;f81e&#45;4bfd&#45;b54a&#45;1ba2564c6e25&#45;&gt;68e12018&#45;365e&#45;409f&#45;a4ee&#45;aeedb64047d3</title>
<path fill="none" stroke="purple" d="M103.34,-782.8C103.34,-771.16 103.34,-755.55 103.34,-742.24"/>
<polygon fill="purple" stroke="purple" points="106.84,-742.18 103.34,-732.18 99.84,-742.18 106.84,-742.18"/>
<text text-anchor="middle" x="138.84" y="-753.8" font-family="Times,serif" font-size="14.00" fill="purple">Pass Data</text>
</g>
<!-- 96591a4b&#45;1803&#45;49bc&#45;9165&#45;83276b2b62c7 -->
<g id="node12" class="node">
<title>96591a4b&#45;1803&#45;49bc&#45;9165&#45;83276b2b62c7</title>
<ellipse fill="none" stroke="black" cx="250.34" cy="-888" rx="47.1" ry="18"/>
<text text-anchor="middle" x="250.34" y="-884.3" font-family="Times,serif" font-size="14.00">DelayAction</text>
</g>
<!-- 96591a4b&#45;1803&#45;49bc&#45;9165&#45;83276b2b62c7&#45;&gt;5eab32d9&#45;f81e&#45;4bfd&#45;b54a&#45;1ba2564c6e25 -->
<g id="edge11" class="edge">
<title>96591a4b&#45;1803&#45;49bc&#45;9165&#45;83276b2b62c7&#45;&gt;5eab32d9&#45;f81e&#45;4bfd&#45;b54a&#45;1ba2564c6e25</title>
<path fill="none" stroke="black" d="M225.4,-872.58C201.12,-858.54 164.03,-837.09 137.1,-821.52"/>
<polygon fill="black" stroke="black" points="138.81,-818.47 128.4,-816.49 135.3,-824.53 138.81,-818.47"/>
</g>
<!-- cfd5fb3a&#45;dc61&#45;46e5&#45;b890&#45;f704b30ab2e4 -->
<g id="node13" class="node">
<title>cfd5fb3a&#45;dc61&#45;46e5&#45;b890&#45;f704b30ab2e4</title>
<ellipse fill="none" stroke="black" cx="250.34" cy="-961" rx="59.9" ry="18"/>
<text text-anchor="middle" x="250.34" y="-957.3" font-family="Times,serif" font-size="14.00">ZeroMovement</text>
</g>
<!-- cfd5fb3a&#45;dc61&#45;46e5&#45;b890&#45;f704b30ab2e4&#45;&gt;96591a4b&#45;1803&#45;49bc&#45;9165&#45;83276b2b62c7 -->
<g id="edge12" class="edge">
<title>cfd5fb3a&#45;dc61&#45;46e5&#45;b890&#45;f704b30ab2e4&#45;&gt;96591a4b&#45;1803&#45;49bc&#45;9165&#45;83276b2b62c7</title>
<path fill="none" stroke="black" d="M250.34,-942.81C250.34,-934.79 250.34,-925.05 250.34,-916.07"/>
<polygon fill="black" stroke="black" points="253.84,-916.03 250.34,-906.03 246.84,-916.03 253.84,-916.03"/>
</g>
</g>
</svg>
