<?xml version="1.0" encoding="UTF-8" standalone="no"?>
<!DOCTYPE svg PUBLIC "-//W3C//DTD SVG 1.1//EN"
 "http://www.w3.org/Graphics/SVG/1.1/DTD/svg11.dtd">
<!-- Generated by graphviz version 2.43.0 (0)
 -->
<!-- Title: G Pages: 1 -->
<svg width="583pt" height="552pt"
 viewBox="0.00 0.00 582.60 552.00" xmlns="http://www.w3.org/2000/svg" xmlns:xlink="http://www.w3.org/1999/xlink">
<g id="graph0" class="graph" transform="scale(1 1) rotate(0) translate(4 548)">
<title>G</title>
<polygon fill="transparent" stroke="transparent" points="-4,4 -4,-548 578.6,-548 578.6,4 -4,4"/>
<!-- e99d6c3d&#45;fa5d&#45;4eea&#45;bf81&#45;784f5c58b291 -->
<g id="node1" class="node">
<title>e99d6c3d&#45;fa5d&#45;4eea&#45;bf81&#45;784f5c58b291</title>
<polygon fill="none" stroke="black" points="294.3,-384 166.67,-366 294.3,-348 421.93,-366 294.3,-384"/>
<text text-anchor="middle" x="294.3" y="-362.3" font-family="Times,serif" font-size="14.00">Consecutive True &lt; 34</text>
</g>
<!-- 82e0e835&#45;0ae0&#45;49a3&#45;8542&#45;bd96695946db -->
<g id="node5" class="node">
<title>82e0e835&#45;0ae0&#45;49a3&#45;8542&#45;bd96695946db</title>
<ellipse fill="none" stroke="black" cx="86.3" cy="-279" rx="38.5" ry="18"/>
<text text-anchor="middle" x="86.3" y="-275.3" font-family="Times,serif" font-size="14.00">ConstYaw</text>
</g>
<!-- e99d6c3d&#45;fa5d&#45;4eea&#45;bf81&#45;784f5c58b291&#45;&gt;82e0e835&#45;0ae0&#45;49a3&#45;8542&#45;bd96695946db -->
<g id="edge6" class="edge">
<title>e99d6c3d&#45;fa5d&#45;4eea&#45;bf81&#45;784f5c58b291&#45;&gt;82e0e835&#45;0ae0&#45;49a3&#45;8542&#45;bd96695946db</title>
<path fill="none" stroke="black" d="M263.16,-352.27C225.89,-337.04 163.53,-311.56 123.69,-295.28"/>
<polygon fill="black" stroke="black" points="124.9,-291.99 114.32,-291.45 122.25,-298.47 124.9,-291.99"/>
<text text-anchor="middle" x="220.3" y="-318.8" font-family="Times,serif" font-size="14.00">True</text>
</g>
<!-- db522b58&#45;8776&#45;4c73&#45;b3c1&#45;aad5eb0e33ad -->
<g id="node8" class="node">
<title>db522b58&#45;8776&#45;4c73&#45;b3c1&#45;aad5eb0e33ad</title>
<ellipse fill="none" stroke="black" cx="294.3" cy="-279" rx="59.9" ry="18"/>
<text text-anchor="middle" x="294.3" y="-275.3" font-family="Times,serif" font-size="14.00">ZeroMovement</text>
</g>
<!-- e99d6c3d&#45;fa5d&#45;4eea&#45;bf81&#45;784f5c58b291&#45;&gt;db522b58&#45;8776&#45;4c73&#45;b3c1&#45;aad5eb0e33ad -->
<g id="edge7" class="edge">
<title>e99d6c3d&#45;fa5d&#45;4eea&#45;bf81&#45;784f5c58b291&#45;&gt;db522b58&#45;8776&#45;4c73&#45;b3c1&#45;aad5eb0e33ad</title>
<path fill="none" stroke="black" d="M294.3,-347.8C294.3,-336.16 294.3,-320.55 294.3,-307.24"/>
<polygon fill="black" stroke="black" points="297.8,-307.18 294.3,-297.18 290.8,-307.18 297.8,-307.18"/>
<text text-anchor="middle" x="313.3" y="-318.8" font-family="Times,serif" font-size="14.00">False</text>
</g>
<!-- e7243694&#45;53c6&#45;4f2b&#45;a914&#45;8db629f84ffb -->
<g id="node2" class="node">
<title>e7243694&#45;53c6&#45;4f2b&#45;a914&#45;8db629f84ffb</title>
<ellipse fill="none" stroke="black" cx="86.3" cy="-105" rx="36.1" ry="18"/>
<text text-anchor="middle" x="86.3" y="-101.3" font-family="Times,serif" font-size="14.00">SideMult</text>
</g>
<!-- 697eab00&#45;06a1&#45;401b&#45;b348&#45;fffbbe43da31 -->
<g id="node3" class="node">
<title>697eab00&#45;06a1&#45;401b&#45;b348&#45;fffbbe43da31</title>
<ellipse fill="none" stroke="black" cx="86.3" cy="-18" rx="80.11" ry="18"/>
<text text-anchor="middle" x="86.3" y="-14.3" font-family="Times,serif" font-size="14.00">Stability2Movement</text>
</g>
<!-- e7243694&#45;53c6&#45;4f2b&#45;a914&#45;8db629f84ffb&#45;&gt;697eab00&#45;06a1&#45;401b&#45;b348&#45;fffbbe43da31 -->
<g id="edge1" class="edge">
<title>e7243694&#45;53c6&#45;4f2b&#45;a914&#45;8db629f84ffb&#45;&gt;697eab00&#45;06a1&#45;401b&#45;b348&#45;fffbbe43da31</title>
<path fill="none" stroke="purple" d="M86.3,-86.8C86.3,-75.16 86.3,-59.55 86.3,-46.24"/>
<polygon fill="purple" stroke="purple" points="89.8,-46.18 86.3,-36.18 82.8,-46.18 89.8,-46.18"/>
<text text-anchor="middle" x="121.8" y="-57.8" font-family="Times,serif" font-size="14.00" fill="purple">Pass Data</text>
</g>
<!-- 7c352e7f&#45;42d0&#45;42e6&#45;b1d3&#45;e4cafc8a7bea -->
<g id="node4" class="node">
<title>7c352e7f&#45;42d0&#45;42e6&#45;b1d3&#45;e4cafc8a7bea</title>
<ellipse fill="none" stroke="black" cx="86.3" cy="-192" rx="27" ry="18"/>
<text text-anchor="middle" x="86.3" y="-188.3" font-family="Times,serif" font-size="14.00">SetX</text>
</g>
<!-- 7c352e7f&#45;42d0&#45;42e6&#45;b1d3&#45;e4cafc8a7bea&#45;&gt;e7243694&#45;53c6&#45;4f2b&#45;a914&#45;8db629f84ffb -->
<g id="edge2" class="edge">
<title>7c352e7f&#45;42d0&#45;42e6&#45;b1d3&#45;e4cafc8a7bea&#45;&gt;e7243694&#45;53c6&#45;4f2b&#45;a914&#45;8db629f84ffb</title>
<path fill="none" stroke="purple" d="M86.3,-173.8C86.3,-162.16 86.3,-146.55 86.3,-133.24"/>
<polygon fill="purple" stroke="purple" points="89.8,-133.18 86.3,-123.18 82.8,-133.18 89.8,-133.18"/>
<text text-anchor="middle" x="121.8" y="-144.8" font-family="Times,serif" font-size="14.00" fill="purple">Pass Data</text>
</g>
<!-- 82e0e835&#45;0ae0&#45;49a3&#45;8542&#45;bd96695946db&#45;&gt;7c352e7f&#45;42d0&#45;42e6&#45;b1d3&#45;e4cafc8a7bea -->
<g id="edge3" class="edge">
<title>82e0e835&#45;0ae0&#45;49a3&#45;8542&#45;bd96695946db&#45;&gt;7c352e7f&#45;42d0&#45;42e6&#45;b1d3&#45;e4cafc8a7bea</title>
<path fill="none" stroke="purple" d="M86.3,-260.8C86.3,-249.16 86.3,-233.55 86.3,-220.24"/>
<polygon fill="purple" stroke="purple" points="89.8,-220.18 86.3,-210.18 82.8,-220.18 89.8,-220.18"/>
<text text-anchor="middle" x="121.8" y="-231.8" font-family="Times,serif" font-size="14.00" fill="purple">Pass Data</text>
</g>
<!-- da653926&#45;f939&#45;466c&#45;a5b1&#45;917eb6ab18dc -->
<g id="node6" class="node">
<title>da653926&#45;f939&#45;466c&#45;a5b1&#45;917eb6ab18dc</title>
<ellipse fill="none" stroke="black" cx="294.3" cy="-453" rx="46.4" ry="18"/>
<text text-anchor="middle" x="294.3" y="-449.3" font-family="Times,serif" font-size="14.00">AlwaysTrue</text>
</g>
<!-- da653926&#45;f939&#45;466c&#45;a5b1&#45;917eb6ab18dc&#45;&gt;e99d6c3d&#45;fa5d&#45;4eea&#45;bf81&#45;784f5c58b291 -->
<g id="edge4" class="edge">
<title>da653926&#45;f939&#45;466c&#45;a5b1&#45;917eb6ab18dc&#45;&gt;e99d6c3d&#45;fa5d&#45;4eea&#45;bf81&#45;784f5c58b291</title>
<path fill="none" stroke="purple" d="M294.3,-434.8C294.3,-423.16 294.3,-407.55 294.3,-394.24"/>
<polygon fill="purple" stroke="purple" points="297.8,-394.18 294.3,-384.18 290.8,-394.18 297.8,-394.18"/>
<text text-anchor="middle" x="329.8" y="-405.8" font-family="Times,serif" font-size="14.00" fill="purple">Pass Data</text>
</g>
<!-- d5cc279d&#45;9b33&#45;4cef&#45;bd8e&#45;ad4e84d1a7c8 -->
<g id="node7" class="node">
<title>d5cc279d&#45;9b33&#45;4cef&#45;bd8e&#45;ad4e84d1a7c8</title>
<ellipse fill="none" stroke="black" cx="294.3" cy="-526" rx="47.1" ry="18"/>
<text text-anchor="middle" x="294.3" y="-522.3" font-family="Times,serif" font-size="14.00">DelayAction</text>
</g>
<!-- d5cc279d&#45;9b33&#45;4cef&#45;bd8e&#45;ad4e84d1a7c8&#45;&gt;da653926&#45;f939&#45;466c&#45;a5b1&#45;917eb6ab18dc -->
<g id="edge5" class="edge">
<title>d5cc279d&#45;9b33&#45;4cef&#45;bd8e&#45;ad4e84d1a7c8&#45;&gt;da653926&#45;f939&#45;466c&#45;a5b1&#45;917eb6ab18dc</title>
<path fill="none" stroke="black" d="M294.3,-507.81C294.3,-499.79 294.3,-490.05 294.3,-481.07"/>
<polygon fill="black" stroke="black" points="297.8,-481.03 294.3,-471.03 290.8,-481.03 297.8,-481.03"/>
</g>
<!-- 6bcbfa01&#45;46de&#45;421f&#45;b3ce&#45;32dda418d0eb -->
<g id="node9" class="node">
<title>6bcbfa01&#45;46de&#45;421f&#45;b3ce&#45;32dda418d0eb</title>
<ellipse fill="none" stroke="black" cx="47.3" cy="-366" rx="47.1" ry="18"/>
<text text-anchor="middle" x="47.3" y="-362.3" font-family="Times,serif" font-size="14.00">DelayAction</text>
</g>
<!-- 6bcbfa01&#45;46de&#45;421f&#45;b3ce&#45;32dda418d0eb&#45;&gt;82e0e835&#45;0ae0&#45;49a3&#45;8542&#45;bd96695946db -->
<g id="edge8" class="edge">
<title>6bcbfa01&#45;46de&#45;421f&#45;b3ce&#45;32dda418d0eb&#45;&gt;82e0e835&#45;0ae0&#45;49a3&#45;8542&#45;bd96695946db</title>
<path fill="none" stroke="black" d="M55.01,-348.21C60.51,-336.22 68.02,-319.85 74.3,-306.16"/>
<polygon fill="black" stroke="black" points="77.62,-307.31 78.61,-296.76 71.26,-304.39 77.62,-307.31"/>
</g>
<!-- 415fd63c&#45;b4b6&#45;4b90&#45;9000&#45;c0834466105b -->
<g id="node10" class="node">
<title>415fd63c&#45;b4b6&#45;4b90&#45;9000&#45;c0834466105b</title>
<ellipse fill="none" stroke="black" cx="494.3" cy="-526" rx="80.11" ry="18"/>
<text text-anchor="middle" x="494.3" y="-522.3" font-family="Times,serif" font-size="14.00">Stability2Movement</text>
</g>
</g>
</svg>
