<?xml version="1.0" encoding="UTF-8" standalone="no"?>
<!DOCTYPE svg PUBLIC "-//W3C//DTD SVG 1.1//EN"
 "http://www.w3.org/Graphics/SVG/1.1/DTD/svg11.dtd">
<!-- Generated by graphviz version 2.43.0 (0)
 -->
<!-- Title: G Pages: 1 -->
<svg width="318pt" height="987pt"
 viewBox="0.00 0.00 318.29 987.00" xmlns="http://www.w3.org/2000/svg" xmlns:xlink="http://www.w3.org/1999/xlink">
<g id="graph0" class="graph" transform="scale(1 1) rotate(0) translate(4 983)">
<title>G</title>
<polygon fill="transparent" stroke="transparent" points="-4,4 -4,-983 314.29,-983 314.29,4 -4,4"/>
<!-- 1ca98c0f&#45;1fda&#45;4e5a&#45;9011&#45;15bfb784a256 -->
<g id="node1" class="node">
<title>1ca98c0f&#45;1fda&#45;4e5a&#45;9011&#45;15bfb784a256</title>
<polygon fill="none" stroke="black" points="65.34,-906 0.16,-888 65.34,-870 130.52,-888 65.34,-906"/>
<text text-anchor="middle" x="65.34" y="-884.3" font-family="Times,serif" font-size="14.00">AlwaysTrue</text>
</g>
<!-- f5650a74&#45;0de0&#45;4be9&#45;9e4e&#45;65d0b0169c5e -->
<g id="node11" class="node">
<title>f5650a74&#45;0de0&#45;4be9&#45;9e4e&#45;65d0b0169c5e</title>
<ellipse fill="none" stroke="black" cx="103.34" cy="-801" rx="46.5" ry="18"/>
<text text-anchor="middle" x="103.34" y="-797.3" font-family="Times,serif" font-size="14.00">VisionNorm</text>
</g>
<!-- 1ca98c0f&#45;1fda&#45;4e5a&#45;9011&#45;15bfb784a256&#45;&gt;f5650a74&#45;0de0&#45;4be9&#45;9e4e&#45;65d0b0169c5e -->
<g id="edge10" class="edge">
<title>1ca98c0f&#45;1fda&#45;4e5a&#45;9011&#45;15bfb784a256&#45;&gt;f5650a74&#45;0de0&#45;4be9&#45;9e4e&#45;65d0b0169c5e</title>
<path fill="none" stroke="black" d="M72.13,-871.8C77.54,-859.7 85.25,-842.47 91.65,-828.16"/>
<polygon fill="black" stroke="black" points="94.94,-829.37 95.82,-818.81 88.55,-826.51 94.94,-829.37"/>
<text text-anchor="middle" x="104.34" y="-840.8" font-family="Times,serif" font-size="14.00">True</text>
</g>
<!-- 77169cb8&#45;bfbd&#45;40d9&#45;8e77&#45;cbf3e4677dfb -->
<g id="node2" class="node">
<title>77169cb8&#45;bfbd&#45;40d9&#45;8e77&#45;cbf3e4677dfb</title>
<ellipse fill="none" stroke="black" cx="103.34" cy="-105" rx="27" ry="18"/>
<text text-anchor="middle" x="103.34" y="-101.3" font-family="Times,serif" font-size="14.00">FlatX</text>
</g>
<!-- 6ec0bfff&#45;c740&#45;4490&#45;9607&#45;406029aaac5c -->
<g id="node3" class="node">
<title>6ec0bfff&#45;c740&#45;4490&#45;9607&#45;406029aaac5c</title>
<ellipse fill="none" stroke="black" cx="103.34" cy="-18" rx="80.11" ry="18"/>
<text text-anchor="middle" x="103.34" y="-14.3" font-family="Times,serif" font-size="14.00">Stability2Movement</text>
</g>
<!-- 77169cb8&#45;bfbd&#45;40d9&#45;8e77&#45;cbf3e4677dfb&#45;&gt;6ec0bfff&#45;c740&#45;4490&#45;9607&#45;406029aaac5c -->
<g id="edge1" class="edge">
<title>77169cb8&#45;bfbd&#45;40d9&#45;8e77&#45;cbf3e4677dfb&#45;&gt;6ec0bfff&#45;c740&#45;4490&#45;9607&#45;406029aaac5c</title>
<path fill="none" stroke="purple" d="M103.34,-86.8C103.34,-75.16 103.34,-59.55 103.34,-46.24"/>
<polygon fill="purple" stroke="purple" points="106.84,-46.18 103.34,-36.18 99.84,-46.18 106.84,-46.18"/>
<text text-anchor="middle" x="138.84" y="-57.8" font-family="Times,serif" font-size="14.00" fill="purple">Pass Data</text>
</g>
<!-- 4ef9aec8&#45;a233&#45;42a4&#45;8b78&#45;c526dee6c344 -->
<g id="node4" class="node">
<title>4ef9aec8&#45;a233&#45;42a4&#45;8b78&#45;c526dee6c344</title>
<ellipse fill="none" stroke="black" cx="103.34" cy="-192" rx="27" ry="18"/>
<text text-anchor="middle" x="103.34" y="-188.3" font-family="Times,serif" font-size="14.00">StripY</text>
</g>
<!-- 4ef9aec8&#45;a233&#45;42a4&#45;8b78&#45;c526dee6c344&#45;&gt;77169cb8&#45;bfbd&#45;40d9&#45;8e77&#45;cbf3e4677dfb -->
<g id="edge2" class="edge">
<title>4ef9aec8&#45;a233&#45;42a4&#45;8b78&#45;c526dee6c344&#45;&gt;77169cb8&#45;bfbd&#45;40d9&#45;8e77&#45;cbf3e4677dfb</title>
<path fill="none" stroke="purple" d="M103.34,-173.8C103.34,-162.16 103.34,-146.55 103.34,-133.24"/>
<polygon fill="purple" stroke="purple" points="106.84,-133.18 103.34,-123.18 99.84,-133.18 106.84,-133.18"/>
<text text-anchor="middle" x="138.84" y="-144.8" font-family="Times,serif" font-size="14.00" fill="purple">Pass Data</text>
</g>
<!-- d4c57e78&#45;bcdb&#45;4b02&#45;aac9&#45;c095d3b14a2e -->
<g id="node5" class="node">
<title>d4c57e78&#45;bcdb&#45;4b02&#45;aac9&#45;c095d3b14a2e</title>
<ellipse fill="none" stroke="black" cx="103.34" cy="-279" rx="52.6" ry="18"/>
<text text-anchor="middle" x="103.34" y="-275.3" font-family="Times,serif" font-size="14.00">Anon Closure</text>
</g>
<!-- d4c57e78&#45;bcdb&#45;4b02&#45;aac9&#45;c095d3b14a2e&#45;&gt;4ef9aec8&#45;a233&#45;42a4&#45;8b78&#45;c526dee6c344 -->
<g id="edge3" class="edge">
<title>d4c57e78&#45;bcdb&#45;4b02&#45;aac9&#45;c095d3b14a2e&#45;&gt;4ef9aec8&#45;a233&#45;42a4&#45;8b78&#45;c526dee6c344</title>
<path fill="none" stroke="purple" d="M103.34,-260.8C103.34,-249.16 103.34,-233.55 103.34,-220.24"/>
<polygon fill="purple" stroke="purple" points="106.84,-220.18 103.34,-210.18 99.84,-220.18 106.84,-220.18"/>
<text text-anchor="middle" x="138.84" y="-231.8" font-family="Times,serif" font-size="14.00" fill="purple">Pass Data</text>
</g>
<!-- 64ae82eb&#45;3785&#45;4c88&#45;b610&#45;b1a8370d2d26 -->
<g id="node6" class="node">
<title>64ae82eb&#45;3785&#45;4c88&#45;b610&#45;b1a8370d2d26</title>
<ellipse fill="none" stroke="black" cx="103.34" cy="-366" rx="51.3" ry="18"/>
<text text-anchor="middle" x="103.34" y="-362.3" font-family="Times,serif" font-size="14.00">OffsetToPose</text>
</g>
<!-- 64ae82eb&#45;3785&#45;4c88&#45;b610&#45;b1a8370d2d26&#45;&gt;d4c57e78&#45;bcdb&#45;4b02&#45;aac9&#45;c095d3b14a2e -->
<g id="edge4" class="edge">
<title>64ae82eb&#45;3785&#45;4c88&#45;b610&#45;b1a8370d2d26&#45;&gt;d4c57e78&#45;bcdb&#45;4b02&#45;aac9&#45;c095d3b14a2e</title>
<path fill="none" stroke="purple" d="M103.34,-347.8C103.34,-336.16 103.34,-320.55 103.34,-307.24"/>
<polygon fill="purple" stroke="purple" points="106.84,-307.18 103.34,-297.18 99.84,-307.18 106.84,-307.18"/>
<text text-anchor="middle" x="138.84" y="-318.8" font-family="Times,serif" font-size="14.00" fill="purple">Pass Data</text>
</g>
<!-- 9ad49a36&#45;85e5&#45;4e8f&#45;bafb&#45;168437a1e9b7 -->
<g id="node7" class="node">
<title>9ad49a36&#45;85e5&#45;4e8f&#45;bafb&#45;168437a1e9b7</title>
<ellipse fill="none" stroke="black" cx="103.34" cy="-453" rx="32.4" ry="18"/>
<text text-anchor="middle" x="103.34" y="-449.3" font-family="Times,serif" font-size="14.00">Average</text>
</g>
<!-- 9ad49a36&#45;85e5&#45;4e8f&#45;bafb&#45;168437a1e9b7&#45;&gt;64ae82eb&#45;3785&#45;4c88&#45;b610&#45;b1a8370d2d26 -->
<g id="edge5" class="edge">
<title>9ad49a36&#45;85e5&#45;4e8f&#45;bafb&#45;168437a1e9b7&#45;&gt;64ae82eb&#45;3785&#45;4c88&#45;b610&#45;b1a8370d2d26</title>
<path fill="none" stroke="purple" d="M103.34,-434.8C103.34,-423.16 103.34,-407.55 103.34,-394.24"/>
<polygon fill="purple" stroke="purple" points="106.84,-394.18 103.34,-384.18 99.84,-394.18 106.84,-394.18"/>
<text text-anchor="middle" x="138.84" y="-405.8" font-family="Times,serif" font-size="14.00" fill="purple">Pass Data</text>
</g>
<!-- 66c74b39&#45;a298&#45;401d&#45;a1c3&#45;7954953e1582 -->
<g id="node8" class="node">
<title>66c74b39&#45;a298&#45;401d&#45;a1c3&#45;7954953e1582</title>
<ellipse fill="none" stroke="black" cx="103.34" cy="-540" rx="61.1" ry="18"/>
<text text-anchor="middle" x="103.34" y="-536.3" font-family="Times,serif" font-size="14.00">ExtractPosition</text>
</g>
<!-- 66c74b39&#45;a298&#45;401d&#45;a1c3&#45;7954953e1582&#45;&gt;9ad49a36&#45;85e5&#45;4e8f&#45;bafb&#45;168437a1e9b7 -->
<g id="edge6" class="edge">
<title>66c74b39&#45;a298&#45;401d&#45;a1c3&#45;7954953e1582&#45;&gt;9ad49a36&#45;85e5&#45;4e8f&#45;bafb&#45;168437a1e9b7</title>
<path fill="none" stroke="purple" d="M103.34,-521.8C103.34,-510.16 103.34,-494.55 103.34,-481.24"/>
<polygon fill="purple" stroke="purple" points="106.84,-481.18 103.34,-471.18 99.84,-481.18 106.84,-481.18"/>
<text text-anchor="middle" x="138.84" y="-492.8" font-family="Times,serif" font-size="14.00" fill="purple">Pass Data</text>
</g>
<!-- 9e01cfa8&#45;5fd8&#45;4217&#45;af3c&#45;c4f95b3aeb95 -->
<g id="node9" class="node">
<title>9e01cfa8&#45;5fd8&#45;4217&#45;af3c&#45;c4f95b3aeb95</title>
<ellipse fill="none" stroke="black" cx="103.34" cy="-627" rx="27" ry="18"/>
<text text-anchor="middle" x="103.34" y="-623.3" font-family="Times,serif" font-size="14.00">ToVec</text>
</g>
<!-- 9e01cfa8&#45;5fd8&#45;4217&#45;af3c&#45;c4f95b3aeb95&#45;&gt;66c74b39&#45;a298&#45;401d&#45;a1c3&#45;7954953e1582 -->
<g id="edge7" class="edge">
<title>9e01cfa8&#45;5fd8&#45;4217&#45;af3c&#45;c4f95b3aeb95&#45;&gt;66c74b39&#45;a298&#45;401d&#45;a1c3&#45;7954953e1582</title>
<path fill="none" stroke="purple" d="M103.34,-608.8C103.34,-597.16 103.34,-581.55 103.34,-568.24"/>
<polygon fill="purple" stroke="purple" points="106.84,-568.18 103.34,-558.18 99.84,-568.18 106.84,-568.18"/>
<text text-anchor="middle" x="138.84" y="-579.8" font-family="Times,serif" font-size="14.00" fill="purple">Pass Data</text>
</g>
<!-- bea7936a&#45;6162&#45;4683&#45;ad96&#45;fba2a9a26776 -->
<g id="node10" class="node">
<title>bea7936a&#45;6162&#45;4683&#45;ad96&#45;fba2a9a26776</title>
<ellipse fill="none" stroke="black" cx="103.34" cy="-714" rx="45.2" ry="18"/>
<text text-anchor="middle" x="103.34" y="-710.3" font-family="Times,serif" font-size="14.00">Detect true</text>
</g>
<!-- bea7936a&#45;6162&#45;4683&#45;ad96&#45;fba2a9a26776&#45;&gt;9e01cfa8&#45;5fd8&#45;4217&#45;af3c&#45;c4f95b3aeb95 -->
<g id="edge8" class="edge">
<title>bea7936a&#45;6162&#45;4683&#45;ad96&#45;fba2a9a26776&#45;&gt;9e01cfa8&#45;5fd8&#45;4217&#45;af3c&#45;c4f95b3aeb95</title>
<path fill="none" stroke="purple" d="M103.34,-695.8C103.34,-684.16 103.34,-668.55 103.34,-655.24"/>
<polygon fill="purple" stroke="purple" points="106.84,-655.18 103.34,-645.18 99.84,-655.18 106.84,-655.18"/>
<text text-anchor="middle" x="138.84" y="-666.8" font-family="Times,serif" font-size="14.00" fill="purple">Pass Data</text>
</g>
<!-- f5650a74&#45;0de0&#45;4be9&#45;9e4e&#45;65d0b0169c5e&#45;&gt;bea7936a&#45;6162&#45;4683&#45;ad96&#45;fba2a9a26776 -->
<g id="edge9" class="edge">
<title>f5650a74&#45;0de0&#45;4be9&#45;9e4e&#45;65d0b0169c5e&#45;&gt;bea7936a&#45;6162&#45;4683&#45;ad96&#45;fba2a9a26776</title>
<path fill="none" stroke="purple" d="M103.34,-782.8C103.34,-771.16 103.34,-755.55 103.34,-742.24"/>
<polygon fill="purple" stroke="purple" points="106.84,-742.18 103.34,-732.18 99.84,-742.18 106.84,-742.18"/>
<text text-anchor="middle" x="138.84" y="-753.8" font-family="Times,serif" font-size="14.00" fill="purple">Pass Data</text>
</g>
<!-- 6978b947&#45;68cb&#45;4704&#45;941f&#45;2d837e5e4334 -->
<g id="node12" class="node">
<title>6978b947&#45;68cb&#45;4704&#45;941f&#45;2d837e5e4334</title>
<ellipse fill="none" stroke="black" cx="250.34" cy="-888" rx="47.1" ry="18"/>
<text text-anchor="middle" x="250.34" y="-884.3" font-family="Times,serif" font-size="14.00">DelayAction</text>
</g>
<!-- 6978b947&#45;68cb&#45;4704&#45;941f&#45;2d837e5e4334&#45;&gt;f5650a74&#45;0de0&#45;4be9&#45;9e4e&#45;65d0b0169c5e -->
<g id="edge11" class="edge">
<title>6978b947&#45;68cb&#45;4704&#45;941f&#45;2d837e5e4334&#45;&gt;f5650a74&#45;0de0&#45;4be9&#45;9e4e&#45;65d0b0169c5e</title>
<path fill="none" stroke="black" d="M225.4,-872.58C201.12,-858.54 164.03,-837.09 137.1,-821.52"/>
<polygon fill="black" stroke="black" points="138.81,-818.47 128.4,-816.49 135.3,-824.53 138.81,-818.47"/>
</g>
<!-- ebdcfcca&#45;1bc0&#45;4497&#45;9c14&#45;3d46891d8a6e -->
<g id="node13" class="node">
<title>ebdcfcca&#45;1bc0&#45;4497&#45;9c14&#45;3d46891d8a6e</title>
<ellipse fill="none" stroke="black" cx="250.34" cy="-961" rx="59.9" ry="18"/>
<text text-anchor="middle" x="250.34" y="-957.3" font-family="Times,serif" font-size="14.00">ZeroMovement</text>
</g>
<!-- ebdcfcca&#45;1bc0&#45;4497&#45;9c14&#45;3d46891d8a6e&#45;&gt;6978b947&#45;68cb&#45;4704&#45;941f&#45;2d837e5e4334 -->
<g id="edge12" class="edge">
<title>ebdcfcca&#45;1bc0&#45;4497&#45;9c14&#45;3d46891d8a6e&#45;&gt;6978b947&#45;68cb&#45;4704&#45;941f&#45;2d837e5e4334</title>
<path fill="none" stroke="black" d="M250.34,-942.81C250.34,-934.79 250.34,-925.05 250.34,-916.07"/>
<polygon fill="black" stroke="black" points="253.84,-916.03 250.34,-906.03 246.84,-916.03 253.84,-916.03"/>
</g>
</g>
</svg>
