<?xml version="1.0" encoding="UTF-8" standalone="no"?>
<!DOCTYPE svg PUBLIC "-//W3C//DTD SVG 1.1//EN"
 "http://www.w3.org/Graphics/SVG/1.1/DTD/svg11.dtd">
<!-- Generated by graphviz version 2.43.0 (0)
 -->
<!-- Title: G Pages: 1 -->
<svg width="583pt" height="552pt"
 viewBox="0.00 0.00 582.60 552.00" xmlns="http://www.w3.org/2000/svg" xmlns:xlink="http://www.w3.org/1999/xlink">
<g id="graph0" class="graph" transform="scale(1 1) rotate(0) translate(4 548)">
<title>G</title>
<polygon fill="transparent" stroke="transparent" points="-4,4 -4,-548 578.6,-548 578.6,4 -4,4"/>
<!-- 7b710ba8&#45;d8a8&#45;40df&#45;82cd&#45;35d476fb23ea -->
<g id="node1" class="node">
<title>7b710ba8&#45;d8a8&#45;40df&#45;82cd&#45;35d476fb23ea</title>
<polygon fill="none" stroke="black" points="294.3,-384 166.67,-366 294.3,-348 421.93,-366 294.3,-384"/>
<text text-anchor="middle" x="294.3" y="-362.3" font-family="Times,serif" font-size="14.00">Consecutive True &lt; 34</text>
</g>
<!-- 35533f4d&#45;9895&#45;477f&#45;a901&#45;0f341153791a -->
<g id="node5" class="node">
<title>35533f4d&#45;9895&#45;477f&#45;a901&#45;0f341153791a</title>
<ellipse fill="none" stroke="black" cx="86.3" cy="-279" rx="38.5" ry="18"/>
<text text-anchor="middle" x="86.3" y="-275.3" font-family="Times,serif" font-size="14.00">ConstYaw</text>
</g>
<!-- 7b710ba8&#45;d8a8&#45;40df&#45;82cd&#45;35d476fb23ea&#45;&gt;35533f4d&#45;9895&#45;477f&#45;a901&#45;0f341153791a -->
<g id="edge6" class="edge">
<title>7b710ba8&#45;d8a8&#45;40df&#45;82cd&#45;35d476fb23ea&#45;&gt;35533f4d&#45;9895&#45;477f&#45;a901&#45;0f341153791a</title>
<path fill="none" stroke="black" d="M263.16,-352.27C225.89,-337.04 163.53,-311.56 123.69,-295.28"/>
<polygon fill="black" stroke="black" points="124.9,-291.99 114.32,-291.45 122.25,-298.47 124.9,-291.99"/>
<text text-anchor="middle" x="220.3" y="-318.8" font-family="Times,serif" font-size="14.00">True</text>
</g>
<!-- 5cf54c21&#45;2468&#45;4efa&#45;b2d5&#45;74a93c41ca6b -->
<g id="node8" class="node">
<title>5cf54c21&#45;2468&#45;4efa&#45;b2d5&#45;74a93c41ca6b</title>
<ellipse fill="none" stroke="black" cx="294.3" cy="-279" rx="59.9" ry="18"/>
<text text-anchor="middle" x="294.3" y="-275.3" font-family="Times,serif" font-size="14.00">ZeroMovement</text>
</g>
<!-- 7b710ba8&#45;d8a8&#45;40df&#45;82cd&#45;35d476fb23ea&#45;&gt;5cf54c21&#45;2468&#45;4efa&#45;b2d5&#45;74a93c41ca6b -->
<g id="edge7" class="edge">
<title>7b710ba8&#45;d8a8&#45;40df&#45;82cd&#45;35d476fb23ea&#45;&gt;5cf54c21&#45;2468&#45;4efa&#45;b2d5&#45;74a93c41ca6b</title>
<path fill="none" stroke="black" d="M294.3,-347.8C294.3,-336.16 294.3,-320.55 294.3,-307.24"/>
<polygon fill="black" stroke="black" points="297.8,-307.18 294.3,-297.18 290.8,-307.18 297.8,-307.18"/>
<text text-anchor="middle" x="313.3" y="-318.8" font-family="Times,serif" font-size="14.00">False</text>
</g>
<!-- fbd08523&#45;b538&#45;45e5&#45;9c14&#45;d97c91594657 -->
<g id="node2" class="node">
<title>fbd08523&#45;b538&#45;45e5&#45;9c14&#45;d97c91594657</title>
<ellipse fill="none" stroke="black" cx="86.3" cy="-105" rx="36.1" ry="18"/>
<text text-anchor="middle" x="86.3" y="-101.3" font-family="Times,serif" font-size="14.00">SideMult</text>
</g>
<!-- 5de596ae&#45;22f9&#45;4845&#45;b0c6&#45;cec2a2a8f149 -->
<g id="node3" class="node">
<title>5de596ae&#45;22f9&#45;4845&#45;b0c6&#45;cec2a2a8f149</title>
<ellipse fill="none" stroke="black" cx="86.3" cy="-18" rx="80.11" ry="18"/>
<text text-anchor="middle" x="86.3" y="-14.3" font-family="Times,serif" font-size="14.00">Stability2Movement</text>
</g>
<!-- fbd08523&#45;b538&#45;45e5&#45;9c14&#45;d97c91594657&#45;&gt;5de596ae&#45;22f9&#45;4845&#45;b0c6&#45;cec2a2a8f149 -->
<g id="edge1" class="edge">
<title>fbd08523&#45;b538&#45;45e5&#45;9c14&#45;d97c91594657&#45;&gt;5de596ae&#45;22f9&#45;4845&#45;b0c6&#45;cec2a2a8f149</title>
<path fill="none" stroke="purple" d="M86.3,-86.8C86.3,-75.16 86.3,-59.55 86.3,-46.24"/>
<polygon fill="purple" stroke="purple" points="89.8,-46.18 86.3,-36.18 82.8,-46.18 89.8,-46.18"/>
<text text-anchor="middle" x="121.8" y="-57.8" font-family="Times,serif" font-size="14.00" fill="purple">Pass Data</text>
</g>
<!-- 80984ed3&#45;cc59&#45;4d5a&#45;8b55&#45;f22ec08e0598 -->
<g id="node4" class="node">
<title>80984ed3&#45;cc59&#45;4d5a&#45;8b55&#45;f22ec08e0598</title>
<ellipse fill="none" stroke="black" cx="86.3" cy="-192" rx="27" ry="18"/>
<text text-anchor="middle" x="86.3" y="-188.3" font-family="Times,serif" font-size="14.00">SetX</text>
</g>
<!-- 80984ed3&#45;cc59&#45;4d5a&#45;8b55&#45;f22ec08e0598&#45;&gt;fbd08523&#45;b538&#45;45e5&#45;9c14&#45;d97c91594657 -->
<g id="edge2" class="edge">
<title>80984ed3&#45;cc59&#45;4d5a&#45;8b55&#45;f22ec08e0598&#45;&gt;fbd08523&#45;b538&#45;45e5&#45;9c14&#45;d97c91594657</title>
<path fill="none" stroke="purple" d="M86.3,-173.8C86.3,-162.16 86.3,-146.55 86.3,-133.24"/>
<polygon fill="purple" stroke="purple" points="89.8,-133.18 86.3,-123.18 82.8,-133.18 89.8,-133.18"/>
<text text-anchor="middle" x="121.8" y="-144.8" font-family="Times,serif" font-size="14.00" fill="purple">Pass Data</text>
</g>
<!-- 35533f4d&#45;9895&#45;477f&#45;a901&#45;0f341153791a&#45;&gt;80984ed3&#45;cc59&#45;4d5a&#45;8b55&#45;f22ec08e0598 -->
<g id="edge3" class="edge">
<title>35533f4d&#45;9895&#45;477f&#45;a901&#45;0f341153791a&#45;&gt;80984ed3&#45;cc59&#45;4d5a&#45;8b55&#45;f22ec08e0598</title>
<path fill="none" stroke="purple" d="M86.3,-260.8C86.3,-249.16 86.3,-233.55 86.3,-220.24"/>
<polygon fill="purple" stroke="purple" points="89.8,-220.18 86.3,-210.18 82.8,-220.18 89.8,-220.18"/>
<text text-anchor="middle" x="121.8" y="-231.8" font-family="Times,serif" font-size="14.00" fill="purple">Pass Data</text>
</g>
<!-- e9e0b0dc&#45;be43&#45;4a09&#45;8149&#45;506460bd06ff -->
<g id="node6" class="node">
<title>e9e0b0dc&#45;be43&#45;4a09&#45;8149&#45;506460bd06ff</title>
<ellipse fill="none" stroke="black" cx="294.3" cy="-453" rx="46.4" ry="18"/>
<text text-anchor="middle" x="294.3" y="-449.3" font-family="Times,serif" font-size="14.00">AlwaysTrue</text>
</g>
<!-- e9e0b0dc&#45;be43&#45;4a09&#45;8149&#45;506460bd06ff&#45;&gt;7b710ba8&#45;d8a8&#45;40df&#45;82cd&#45;35d476fb23ea -->
<g id="edge4" class="edge">
<title>e9e0b0dc&#45;be43&#45;4a09&#45;8149&#45;506460bd06ff&#45;&gt;7b710ba8&#45;d8a8&#45;40df&#45;82cd&#45;35d476fb23ea</title>
<path fill="none" stroke="purple" d="M294.3,-434.8C294.3,-423.16 294.3,-407.55 294.3,-394.24"/>
<polygon fill="purple" stroke="purple" points="297.8,-394.18 294.3,-384.18 290.8,-394.18 297.8,-394.18"/>
<text text-anchor="middle" x="329.8" y="-405.8" font-family="Times,serif" font-size="14.00" fill="purple">Pass Data</text>
</g>
<!-- 081daca0&#45;1093&#45;4dee&#45;b47b&#45;35f691668263 -->
<g id="node7" class="node">
<title>081daca0&#45;1093&#45;4dee&#45;b47b&#45;35f691668263</title>
<ellipse fill="none" stroke="black" cx="294.3" cy="-526" rx="47.1" ry="18"/>
<text text-anchor="middle" x="294.3" y="-522.3" font-family="Times,serif" font-size="14.00">DelayAction</text>
</g>
<!-- 081daca0&#45;1093&#45;4dee&#45;b47b&#45;35f691668263&#45;&gt;e9e0b0dc&#45;be43&#45;4a09&#45;8149&#45;506460bd06ff -->
<g id="edge5" class="edge">
<title>081daca0&#45;1093&#45;4dee&#45;b47b&#45;35f691668263&#45;&gt;e9e0b0dc&#45;be43&#45;4a09&#45;8149&#45;506460bd06ff</title>
<path fill="none" stroke="black" d="M294.3,-507.81C294.3,-499.79 294.3,-490.05 294.3,-481.07"/>
<polygon fill="black" stroke="black" points="297.8,-481.03 294.3,-471.03 290.8,-481.03 297.8,-481.03"/>
</g>
<!-- e3b12384&#45;e0c9&#45;4827&#45;8a7e&#45;5b51529bad12 -->
<g id="node9" class="node">
<title>e3b12384&#45;e0c9&#45;4827&#45;8a7e&#45;5b51529bad12</title>
<ellipse fill="none" stroke="black" cx="47.3" cy="-366" rx="47.1" ry="18"/>
<text text-anchor="middle" x="47.3" y="-362.3" font-family="Times,serif" font-size="14.00">DelayAction</text>
</g>
<!-- e3b12384&#45;e0c9&#45;4827&#45;8a7e&#45;5b51529bad12&#45;&gt;35533f4d&#45;9895&#45;477f&#45;a901&#45;0f341153791a -->
<g id="edge8" class="edge">
<title>e3b12384&#45;e0c9&#45;4827&#45;8a7e&#45;5b51529bad12&#45;&gt;35533f4d&#45;9895&#45;477f&#45;a901&#45;0f341153791a</title>
<path fill="none" stroke="black" d="M55.01,-348.21C60.51,-336.22 68.02,-319.85 74.3,-306.16"/>
<polygon fill="black" stroke="black" points="77.62,-307.31 78.61,-296.76 71.26,-304.39 77.62,-307.31"/>
</g>
<!-- 2b0ff5bd&#45;e86d&#45;45ef&#45;ba6b&#45;85cfdc84e621 -->
<g id="node10" class="node">
<title>2b0ff5bd&#45;e86d&#45;45ef&#45;ba6b&#45;85cfdc84e621</title>
<ellipse fill="none" stroke="black" cx="494.3" cy="-526" rx="80.11" ry="18"/>
<text text-anchor="middle" x="494.3" y="-522.3" font-family="Times,serif" font-size="14.00">Stability2Movement</text>
</g>
</g>
</svg>
