<?xml version="1.0" encoding="UTF-8" standalone="no"?>
<!DOCTYPE svg PUBLIC "-//W3C//DTD SVG 1.1//EN"
 "http://www.w3.org/Graphics/SVG/1.1/DTD/svg11.dtd">
<!-- Generated by graphviz version 2.43.0 (0)
 -->
<!-- Title: G Pages: 1 -->
<svg width="318pt" height="987pt"
 viewBox="0.00 0.00 318.29 987.00" xmlns="http://www.w3.org/2000/svg" xmlns:xlink="http://www.w3.org/1999/xlink">
<g id="graph0" class="graph" transform="scale(1 1) rotate(0) translate(4 983)">
<title>G</title>
<polygon fill="transparent" stroke="transparent" points="-4,4 -4,-983 314.29,-983 314.29,4 -4,4"/>
<!-- 3b10fa36&#45;2d95&#45;43b9&#45;b586&#45;c6a2d17c1761 -->
<g id="node1" class="node">
<title>3b10fa36&#45;2d95&#45;43b9&#45;b586&#45;c6a2d17c1761</title>
<polygon fill="none" stroke="black" points="65.34,-906 0.16,-888 65.34,-870 130.52,-888 65.34,-906"/>
<text text-anchor="middle" x="65.34" y="-884.3" font-family="Times,serif" font-size="14.00">AlwaysTrue</text>
</g>
<!-- 84f8ff6b&#45;7839&#45;4de2&#45;9f22&#45;448d42407c4c -->
<g id="node11" class="node">
<title>84f8ff6b&#45;7839&#45;4de2&#45;9f22&#45;448d42407c4c</title>
<ellipse fill="none" stroke="black" cx="103.34" cy="-801" rx="46.5" ry="18"/>
<text text-anchor="middle" x="103.34" y="-797.3" font-family="Times,serif" font-size="14.00">VisionNorm</text>
</g>
<!-- 3b10fa36&#45;2d95&#45;43b9&#45;b586&#45;c6a2d17c1761&#45;&gt;84f8ff6b&#45;7839&#45;4de2&#45;9f22&#45;448d42407c4c -->
<g id="edge10" class="edge">
<title>3b10fa36&#45;2d95&#45;43b9&#45;b586&#45;c6a2d17c1761&#45;&gt;84f8ff6b&#45;7839&#45;4de2&#45;9f22&#45;448d42407c4c</title>
<path fill="none" stroke="black" d="M72.13,-871.8C77.54,-859.7 85.25,-842.47 91.65,-828.16"/>
<polygon fill="black" stroke="black" points="94.94,-829.37 95.82,-818.81 88.55,-826.51 94.94,-829.37"/>
<text text-anchor="middle" x="104.34" y="-840.8" font-family="Times,serif" font-size="14.00">True</text>
</g>
<!-- 58029460&#45;1e90&#45;42c5&#45;911d&#45;dc06d47c1e1c -->
<g id="node2" class="node">
<title>58029460&#45;1e90&#45;42c5&#45;911d&#45;dc06d47c1e1c</title>
<ellipse fill="none" stroke="black" cx="103.34" cy="-105" rx="27" ry="18"/>
<text text-anchor="middle" x="103.34" y="-101.3" font-family="Times,serif" font-size="14.00">FlatX</text>
</g>
<!-- 29a2713f&#45;4d31&#45;49e9&#45;b9ce&#45;f6b8261c47a4 -->
<g id="node3" class="node">
<title>29a2713f&#45;4d31&#45;49e9&#45;b9ce&#45;f6b8261c47a4</title>
<ellipse fill="none" stroke="black" cx="103.34" cy="-18" rx="80.11" ry="18"/>
<text text-anchor="middle" x="103.34" y="-14.3" font-family="Times,serif" font-size="14.00">Stability2Movement</text>
</g>
<!-- 58029460&#45;1e90&#45;42c5&#45;911d&#45;dc06d47c1e1c&#45;&gt;29a2713f&#45;4d31&#45;49e9&#45;b9ce&#45;f6b8261c47a4 -->
<g id="edge1" class="edge">
<title>58029460&#45;1e90&#45;42c5&#45;911d&#45;dc06d47c1e1c&#45;&gt;29a2713f&#45;4d31&#45;49e9&#45;b9ce&#45;f6b8261c47a4</title>
<path fill="none" stroke="purple" d="M103.34,-86.8C103.34,-75.16 103.34,-59.55 103.34,-46.24"/>
<polygon fill="purple" stroke="purple" points="106.84,-46.18 103.34,-36.18 99.84,-46.18 106.84,-46.18"/>
<text text-anchor="middle" x="138.84" y="-57.8" font-family="Times,serif" font-size="14.00" fill="purple">Pass Data</text>
</g>
<!-- a43bb2e6&#45;f747&#45;4f04&#45;8340&#45;dc3a044f264f -->
<g id="node4" class="node">
<title>a43bb2e6&#45;f747&#45;4f04&#45;8340&#45;dc3a044f264f</title>
<ellipse fill="none" stroke="black" cx="103.34" cy="-192" rx="27" ry="18"/>
<text text-anchor="middle" x="103.34" y="-188.3" font-family="Times,serif" font-size="14.00">StripY</text>
</g>
<!-- a43bb2e6&#45;f747&#45;4f04&#45;8340&#45;dc3a044f264f&#45;&gt;58029460&#45;1e90&#45;42c5&#45;911d&#45;dc06d47c1e1c -->
<g id="edge2" class="edge">
<title>a43bb2e6&#45;f747&#45;4f04&#45;8340&#45;dc3a044f264f&#45;&gt;58029460&#45;1e90&#45;42c5&#45;911d&#45;dc06d47c1e1c</title>
<path fill="none" stroke="purple" d="M103.34,-173.8C103.34,-162.16 103.34,-146.55 103.34,-133.24"/>
<polygon fill="purple" stroke="purple" points="106.84,-133.18 103.34,-123.18 99.84,-133.18 106.84,-133.18"/>
<text text-anchor="middle" x="138.84" y="-144.8" font-family="Times,serif" font-size="14.00" fill="purple">Pass Data</text>
</g>
<!-- cfce8ace&#45;91f7&#45;4a99&#45;b880&#45;14d7a4c94050 -->
<g id="node5" class="node">
<title>cfce8ace&#45;91f7&#45;4a99&#45;b880&#45;14d7a4c94050</title>
<ellipse fill="none" stroke="black" cx="103.34" cy="-279" rx="52.6" ry="18"/>
<text text-anchor="middle" x="103.34" y="-275.3" font-family="Times,serif" font-size="14.00">Anon Closure</text>
</g>
<!-- cfce8ace&#45;91f7&#45;4a99&#45;b880&#45;14d7a4c94050&#45;&gt;a43bb2e6&#45;f747&#45;4f04&#45;8340&#45;dc3a044f264f -->
<g id="edge3" class="edge">
<title>cfce8ace&#45;91f7&#45;4a99&#45;b880&#45;14d7a4c94050&#45;&gt;a43bb2e6&#45;f747&#45;4f04&#45;8340&#45;dc3a044f264f</title>
<path fill="none" stroke="purple" d="M103.34,-260.8C103.34,-249.16 103.34,-233.55 103.34,-220.24"/>
<polygon fill="purple" stroke="purple" points="106.84,-220.18 103.34,-210.18 99.84,-220.18 106.84,-220.18"/>
<text text-anchor="middle" x="138.84" y="-231.8" font-family="Times,serif" font-size="14.00" fill="purple">Pass Data</text>
</g>
<!-- 35e78ee6&#45;05b5&#45;4b53&#45;9887&#45;7902bb27f15d -->
<g id="node6" class="node">
<title>35e78ee6&#45;05b5&#45;4b53&#45;9887&#45;7902bb27f15d</title>
<ellipse fill="none" stroke="black" cx="103.34" cy="-366" rx="51.3" ry="18"/>
<text text-anchor="middle" x="103.34" y="-362.3" font-family="Times,serif" font-size="14.00">OffsetToPose</text>
</g>
<!-- 35e78ee6&#45;05b5&#45;4b53&#45;9887&#45;7902bb27f15d&#45;&gt;cfce8ace&#45;91f7&#45;4a99&#45;b880&#45;14d7a4c94050 -->
<g id="edge4" class="edge">
<title>35e78ee6&#45;05b5&#45;4b53&#45;9887&#45;7902bb27f15d&#45;&gt;cfce8ace&#45;91f7&#45;4a99&#45;b880&#45;14d7a4c94050</title>
<path fill="none" stroke="purple" d="M103.34,-347.8C103.34,-336.16 103.34,-320.55 103.34,-307.24"/>
<polygon fill="purple" stroke="purple" points="106.84,-307.18 103.34,-297.18 99.84,-307.18 106.84,-307.18"/>
<text text-anchor="middle" x="138.84" y="-318.8" font-family="Times,serif" font-size="14.00" fill="purple">Pass Data</text>
</g>
<!-- 930d097c&#45;2537&#45;4af5&#45;b5ba&#45;93fa5efa1373 -->
<g id="node7" class="node">
<title>930d097c&#45;2537&#45;4af5&#45;b5ba&#45;93fa5efa1373</title>
<ellipse fill="none" stroke="black" cx="103.34" cy="-453" rx="32.4" ry="18"/>
<text text-anchor="middle" x="103.34" y="-449.3" font-family="Times,serif" font-size="14.00">Average</text>
</g>
<!-- 930d097c&#45;2537&#45;4af5&#45;b5ba&#45;93fa5efa1373&#45;&gt;35e78ee6&#45;05b5&#45;4b53&#45;9887&#45;7902bb27f15d -->
<g id="edge5" class="edge">
<title>930d097c&#45;2537&#45;4af5&#45;b5ba&#45;93fa5efa1373&#45;&gt;35e78ee6&#45;05b5&#45;4b53&#45;9887&#45;7902bb27f15d</title>
<path fill="none" stroke="purple" d="M103.34,-434.8C103.34,-423.16 103.34,-407.55 103.34,-394.24"/>
<polygon fill="purple" stroke="purple" points="106.84,-394.18 103.34,-384.18 99.84,-394.18 106.84,-394.18"/>
<text text-anchor="middle" x="138.84" y="-405.8" font-family="Times,serif" font-size="14.00" fill="purple">Pass Data</text>
</g>
<!-- 6ad7bc3b&#45;d010&#45;4b34&#45;b315&#45;68989dfe35d8 -->
<g id="node8" class="node">
<title>6ad7bc3b&#45;d010&#45;4b34&#45;b315&#45;68989dfe35d8</title>
<ellipse fill="none" stroke="black" cx="103.34" cy="-540" rx="61.1" ry="18"/>
<text text-anchor="middle" x="103.34" y="-536.3" font-family="Times,serif" font-size="14.00">ExtractPosition</text>
</g>
<!-- 6ad7bc3b&#45;d010&#45;4b34&#45;b315&#45;68989dfe35d8&#45;&gt;930d097c&#45;2537&#45;4af5&#45;b5ba&#45;93fa5efa1373 -->
<g id="edge6" class="edge">
<title>6ad7bc3b&#45;d010&#45;4b34&#45;b315&#45;68989dfe35d8&#45;&gt;930d097c&#45;2537&#45;4af5&#45;b5ba&#45;93fa5efa1373</title>
<path fill="none" stroke="purple" d="M103.34,-521.8C103.34,-510.16 103.34,-494.55 103.34,-481.24"/>
<polygon fill="purple" stroke="purple" points="106.84,-481.18 103.34,-471.18 99.84,-481.18 106.84,-481.18"/>
<text text-anchor="middle" x="138.84" y="-492.8" font-family="Times,serif" font-size="14.00" fill="purple">Pass Data</text>
</g>
<!-- 5f0c740e&#45;2f1a&#45;4ef5&#45;a34e&#45;9ebd13f757e3 -->
<g id="node9" class="node">
<title>5f0c740e&#45;2f1a&#45;4ef5&#45;a34e&#45;9ebd13f757e3</title>
<ellipse fill="none" stroke="black" cx="103.34" cy="-627" rx="27" ry="18"/>
<text text-anchor="middle" x="103.34" y="-623.3" font-family="Times,serif" font-size="14.00">ToVec</text>
</g>
<!-- 5f0c740e&#45;2f1a&#45;4ef5&#45;a34e&#45;9ebd13f757e3&#45;&gt;6ad7bc3b&#45;d010&#45;4b34&#45;b315&#45;68989dfe35d8 -->
<g id="edge7" class="edge">
<title>5f0c740e&#45;2f1a&#45;4ef5&#45;a34e&#45;9ebd13f757e3&#45;&gt;6ad7bc3b&#45;d010&#45;4b34&#45;b315&#45;68989dfe35d8</title>
<path fill="none" stroke="purple" d="M103.34,-608.8C103.34,-597.16 103.34,-581.55 103.34,-568.24"/>
<polygon fill="purple" stroke="purple" points="106.84,-568.18 103.34,-558.18 99.84,-568.18 106.84,-568.18"/>
<text text-anchor="middle" x="138.84" y="-579.8" font-family="Times,serif" font-size="14.00" fill="purple">Pass Data</text>
</g>
<!-- f7103ad5&#45;5f6a&#45;4664&#45;b184&#45;5b1b51d1ca35 -->
<g id="node10" class="node">
<title>f7103ad5&#45;5f6a&#45;4664&#45;b184&#45;5b1b51d1ca35</title>
<ellipse fill="none" stroke="black" cx="103.34" cy="-714" rx="45.2" ry="18"/>
<text text-anchor="middle" x="103.34" y="-710.3" font-family="Times,serif" font-size="14.00">Detect true</text>
</g>
<!-- f7103ad5&#45;5f6a&#45;4664&#45;b184&#45;5b1b51d1ca35&#45;&gt;5f0c740e&#45;2f1a&#45;4ef5&#45;a34e&#45;9ebd13f757e3 -->
<g id="edge8" class="edge">
<title>f7103ad5&#45;5f6a&#45;4664&#45;b184&#45;5b1b51d1ca35&#45;&gt;5f0c740e&#45;2f1a&#45;4ef5&#45;a34e&#45;9ebd13f757e3</title>
<path fill="none" stroke="purple" d="M103.34,-695.8C103.34,-684.16 103.34,-668.55 103.34,-655.24"/>
<polygon fill="purple" stroke="purple" points="106.84,-655.18 103.34,-645.18 99.84,-655.18 106.84,-655.18"/>
<text text-anchor="middle" x="138.84" y="-666.8" font-family="Times,serif" font-size="14.00" fill="purple">Pass Data</text>
</g>
<!-- 84f8ff6b&#45;7839&#45;4de2&#45;9f22&#45;448d42407c4c&#45;&gt;f7103ad5&#45;5f6a&#45;4664&#45;b184&#45;5b1b51d1ca35 -->
<g id="edge9" class="edge">
<title>84f8ff6b&#45;7839&#45;4de2&#45;9f22&#45;448d42407c4c&#45;&gt;f7103ad5&#45;5f6a&#45;4664&#45;b184&#45;5b1b51d1ca35</title>
<path fill="none" stroke="purple" d="M103.34,-782.8C103.34,-771.16 103.34,-755.55 103.34,-742.24"/>
<polygon fill="purple" stroke="purple" points="106.84,-742.18 103.34,-732.18 99.84,-742.18 106.84,-742.18"/>
<text text-anchor="middle" x="138.84" y="-753.8" font-family="Times,serif" font-size="14.00" fill="purple">Pass Data</text>
</g>
<!-- 430a0bd4&#45;ad19&#45;46df&#45;adfe&#45;a00995170624 -->
<g id="node12" class="node">
<title>430a0bd4&#45;ad19&#45;46df&#45;adfe&#45;a00995170624</title>
<ellipse fill="none" stroke="black" cx="250.34" cy="-888" rx="47.1" ry="18"/>
<text text-anchor="middle" x="250.34" y="-884.3" font-family="Times,serif" font-size="14.00">DelayAction</text>
</g>
<!-- 430a0bd4&#45;ad19&#45;46df&#45;adfe&#45;a00995170624&#45;&gt;84f8ff6b&#45;7839&#45;4de2&#45;9f22&#45;448d42407c4c -->
<g id="edge11" class="edge">
<title>430a0bd4&#45;ad19&#45;46df&#45;adfe&#45;a00995170624&#45;&gt;84f8ff6b&#45;7839&#45;4de2&#45;9f22&#45;448d42407c4c</title>
<path fill="none" stroke="black" d="M225.4,-872.58C201.12,-858.54 164.03,-837.09 137.1,-821.52"/>
<polygon fill="black" stroke="black" points="138.81,-818.47 128.4,-816.49 135.3,-824.53 138.81,-818.47"/>
</g>
<!-- 6f4bc93b&#45;3c98&#45;4642&#45;b115&#45;cddaada879d8 -->
<g id="node13" class="node">
<title>6f4bc93b&#45;3c98&#45;4642&#45;b115&#45;cddaada879d8</title>
<ellipse fill="none" stroke="black" cx="250.34" cy="-961" rx="59.9" ry="18"/>
<text text-anchor="middle" x="250.34" y="-957.3" font-family="Times,serif" font-size="14.00">ZeroMovement</text>
</g>
<!-- 6f4bc93b&#45;3c98&#45;4642&#45;b115&#45;cddaada879d8&#45;&gt;430a0bd4&#45;ad19&#45;46df&#45;adfe&#45;a00995170624 -->
<g id="edge12" class="edge">
<title>6f4bc93b&#45;3c98&#45;4642&#45;b115&#45;cddaada879d8&#45;&gt;430a0bd4&#45;ad19&#45;46df&#45;adfe&#45;a00995170624</title>
<path fill="none" stroke="black" d="M250.34,-942.81C250.34,-934.79 250.34,-925.05 250.34,-916.07"/>
<polygon fill="black" stroke="black" points="253.84,-916.03 250.34,-906.03 246.84,-916.03 253.84,-916.03"/>
</g>
</g>
</svg>
