<?xml version="1.0" encoding="UTF-8" standalone="no"?>
<!DOCTYPE svg PUBLIC "-//W3C//DTD SVG 1.1//EN"
 "http://www.w3.org/Graphics/SVG/1.1/DTD/svg11.dtd">
<!-- Generated by graphviz version 2.43.0 (0)
 -->
<!-- Title: G Pages: 1 -->
<svg width="158pt" height="404pt"
 viewBox="0.00 0.00 157.61 404.00" xmlns="http://www.w3.org/2000/svg" xmlns:xlink="http://www.w3.org/1999/xlink">
<g id="graph0" class="graph" transform="scale(1 1) rotate(0) translate(4 400)">
<title>G</title>
<polygon fill="transparent" stroke="transparent" points="-4,4 -4,-400 153.61,-400 153.61,4 -4,4"/>
<!-- 50d6353e&#45;7ae0&#45;455a&#45;9741&#45;7f2845f91f6b -->
<g id="node1" class="node">
<title>50d6353e&#45;7ae0&#45;455a&#45;9741&#45;7f2845f91f6b</title>
<ellipse fill="none" stroke="black" cx="74.8" cy="-378" rx="34.8" ry="18"/>
<text text-anchor="middle" x="74.8" y="-374.3" font-family="Times,serif" font-size="14.00">WaitArm</text>
</g>
<!-- 6cf40cbb&#45;3d7a&#45;4dce&#45;8fcd&#45;2318022e5eb2 -->
<g id="node2" class="node">
<title>6cf40cbb&#45;3d7a&#45;4dce&#45;8fcd&#45;2318022e5eb2</title>
<ellipse fill="none" stroke="black" cx="74.8" cy="-306" rx="33.6" ry="18"/>
<text text-anchor="middle" x="74.8" y="-302.3" font-family="Times,serif" font-size="14.00">Descend</text>
</g>
<!-- 50d6353e&#45;7ae0&#45;455a&#45;9741&#45;7f2845f91f6b&#45;&gt;6cf40cbb&#45;3d7a&#45;4dce&#45;8fcd&#45;2318022e5eb2 -->
<g id="edge5" class="edge">
<title>50d6353e&#45;7ae0&#45;455a&#45;9741&#45;7f2845f91f6b&#45;&gt;6cf40cbb&#45;3d7a&#45;4dce&#45;8fcd&#45;2318022e5eb2</title>
<path fill="none" stroke="black" d="M74.8,-359.7C74.8,-351.98 74.8,-342.71 74.8,-334.11"/>
<polygon fill="black" stroke="black" points="78.3,-334.1 74.8,-324.1 71.3,-334.1 78.3,-334.1"/>
</g>
<!-- 93ae2281&#45;6dda&#45;4305&#45;860b&#45;4efe33e1ece6 -->
<g id="node3" class="node">
<title>93ae2281&#45;6dda&#45;4305&#45;860b&#45;4efe33e1ece6</title>
<ellipse fill="none" stroke="black" cx="74.8" cy="-234" rx="47.1" ry="18"/>
<text text-anchor="middle" x="74.8" y="-230.3" font-family="Times,serif" font-size="14.00">DelayAction</text>
</g>
<!-- 6cf40cbb&#45;3d7a&#45;4dce&#45;8fcd&#45;2318022e5eb2&#45;&gt;93ae2281&#45;6dda&#45;4305&#45;860b&#45;4efe33e1ece6 -->
<g id="edge1" class="edge">
<title>6cf40cbb&#45;3d7a&#45;4dce&#45;8fcd&#45;2318022e5eb2&#45;&gt;93ae2281&#45;6dda&#45;4305&#45;860b&#45;4efe33e1ece6</title>
<path fill="none" stroke="black" d="M74.8,-287.7C74.8,-279.98 74.8,-270.71 74.8,-262.11"/>
<polygon fill="black" stroke="black" points="78.3,-262.1 74.8,-252.1 71.3,-262.1 78.3,-262.1"/>
</g>
<!-- 283536cc&#45;3749&#45;47fe&#45;b05d&#45;3d7b7f23f5f9 -->
<g id="node4" class="node">
<title>283536cc&#45;3749&#45;47fe&#45;b05d&#45;3d7b7f23f5f9</title>
<ellipse fill="none" stroke="black" cx="74.8" cy="-162" rx="74.61" ry="18"/>
<text text-anchor="middle" x="74.8" y="-158.3" font-family="Times,serif" font-size="14.00">StraightMovement</text>
</g>
<!-- 93ae2281&#45;6dda&#45;4305&#45;860b&#45;4efe33e1ece6&#45;&gt;283536cc&#45;3749&#45;47fe&#45;b05d&#45;3d7b7f23f5f9 -->
<g id="edge4" class="edge">
<title>93ae2281&#45;6dda&#45;4305&#45;860b&#45;4efe33e1ece6&#45;&gt;283536cc&#45;3749&#45;47fe&#45;b05d&#45;3d7b7f23f5f9</title>
<path fill="none" stroke="black" d="M74.8,-215.7C74.8,-207.98 74.8,-198.71 74.8,-190.11"/>
<polygon fill="black" stroke="black" points="78.3,-190.1 74.8,-180.1 71.3,-190.1 78.3,-190.1"/>
</g>
<!-- a4a4fea6&#45;166c&#45;4b8f&#45;92a7&#45;3cc76a4a5f03 -->
<g id="node5" class="node">
<title>a4a4fea6&#45;166c&#45;4b8f&#45;92a7&#45;3cc76a4a5f03</title>
<ellipse fill="none" stroke="black" cx="74.8" cy="-90" rx="47.1" ry="18"/>
<text text-anchor="middle" x="74.8" y="-86.3" font-family="Times,serif" font-size="14.00">DelayAction</text>
</g>
<!-- 283536cc&#45;3749&#45;47fe&#45;b05d&#45;3d7b7f23f5f9&#45;&gt;a4a4fea6&#45;166c&#45;4b8f&#45;92a7&#45;3cc76a4a5f03 -->
<g id="edge2" class="edge">
<title>283536cc&#45;3749&#45;47fe&#45;b05d&#45;3d7b7f23f5f9&#45;&gt;a4a4fea6&#45;166c&#45;4b8f&#45;92a7&#45;3cc76a4a5f03</title>
<path fill="none" stroke="black" d="M74.8,-143.7C74.8,-135.98 74.8,-126.71 74.8,-118.11"/>
<polygon fill="black" stroke="black" points="78.3,-118.1 74.8,-108.1 71.3,-118.1 78.3,-118.1"/>
</g>
<!-- ca753195&#45;dfc0&#45;4764&#45;8366&#45;2b2e9446a82f -->
<g id="node6" class="node">
<title>ca753195&#45;dfc0&#45;4764&#45;8366&#45;2b2e9446a82f</title>
<ellipse fill="none" stroke="black" cx="74.8" cy="-18" rx="59.9" ry="18"/>
<text text-anchor="middle" x="74.8" y="-14.3" font-family="Times,serif" font-size="14.00">ZeroMovement</text>
</g>
<!-- a4a4fea6&#45;166c&#45;4b8f&#45;92a7&#45;3cc76a4a5f03&#45;&gt;ca753195&#45;dfc0&#45;4764&#45;8366&#45;2b2e9446a82f -->
<g id="edge3" class="edge">
<title>a4a4fea6&#45;166c&#45;4b8f&#45;92a7&#45;3cc76a4a5f03&#45;&gt;ca753195&#45;dfc0&#45;4764&#45;8366&#45;2b2e9446a82f</title>
<path fill="none" stroke="black" d="M74.8,-71.7C74.8,-63.98 74.8,-54.71 74.8,-46.11"/>
<polygon fill="black" stroke="black" points="78.3,-46.1 74.8,-36.1 71.3,-46.1 78.3,-46.1"/>
</g>
</g>
</svg>
