<?xml version="1.0" encoding="UTF-8" standalone="no"?>
<!DOCTYPE svg PUBLIC "-//W3C//DTD SVG 1.1//EN"
 "http://www.w3.org/Graphics/SVG/1.1/DTD/svg11.dtd">
<!-- Generated by graphviz version 2.43.0 (0)
 -->
<!-- Title: G Pages: 1 -->
<svg width="140pt" height="684pt"
 viewBox="0.00 0.00 140.05 684.00" xmlns="http://www.w3.org/2000/svg" xmlns:xlink="http://www.w3.org/1999/xlink">
<g id="graph0" class="graph" transform="scale(1 1) rotate(0) translate(4 680)">
<title>G</title>
<polygon fill="transparent" stroke="transparent" points="-4,4 -4,-680 136.05,-680 136.05,4 -4,4"/>
<!-- dd8eacc6&#45;f3cc&#45;4a49&#45;a18b&#45;75e1124a25c3 -->
<g id="node1" class="node">
<title>dd8eacc6&#45;f3cc&#45;4a49&#45;a18b&#45;75e1124a25c3</title>
<ellipse fill="none" stroke="black" cx="61.05" cy="-512" rx="47.1" ry="18"/>
<text text-anchor="middle" x="61.05" y="-508.3" font-family="Times,serif" font-size="14.00">DelayAction</text>
</g>
<!-- 42f66326&#45;0cfb&#45;4ccb&#45;876c&#45;4624973567ee -->
<g id="node2" class="node">
<title>42f66326&#45;0cfb&#45;4ccb&#45;876c&#45;4624973567ee</title>
<ellipse fill="none" stroke="black" cx="61.05" cy="-439" rx="59.9" ry="18"/>
<text text-anchor="middle" x="61.05" y="-435.3" font-family="Times,serif" font-size="14.00">ZeroMovement</text>
</g>
<!-- dd8eacc6&#45;f3cc&#45;4a49&#45;a18b&#45;75e1124a25c3&#45;&gt;42f66326&#45;0cfb&#45;4ccb&#45;876c&#45;4624973567ee -->
<g id="edge1" class="edge">
<title>dd8eacc6&#45;f3cc&#45;4a49&#45;a18b&#45;75e1124a25c3&#45;&gt;42f66326&#45;0cfb&#45;4ccb&#45;876c&#45;4624973567ee</title>
<path fill="none" stroke="black" d="M61.05,-493.81C61.05,-485.79 61.05,-476.05 61.05,-467.07"/>
<polygon fill="black" stroke="black" points="64.55,-467.03 61.05,-457.03 57.55,-467.03 64.55,-467.03"/>
</g>
<!-- 8b82b3ca&#45;5eef&#45;46aa&#45;a647&#45;59c3bc76d0d0 -->
<g id="node7" class="node">
<title>8b82b3ca&#45;5eef&#45;46aa&#45;a647&#45;59c3bc76d0d0</title>
<ellipse fill="none" stroke="black" cx="61.05" cy="-366" rx="46.5" ry="18"/>
<text text-anchor="middle" x="61.05" y="-362.3" font-family="Times,serif" font-size="14.00">VisionNorm</text>
</g>
<!-- 42f66326&#45;0cfb&#45;4ccb&#45;876c&#45;4624973567ee&#45;&gt;8b82b3ca&#45;5eef&#45;46aa&#45;a647&#45;59c3bc76d0d0 -->
<g id="edge6" class="edge">
<title>42f66326&#45;0cfb&#45;4ccb&#45;876c&#45;4624973567ee&#45;&gt;8b82b3ca&#45;5eef&#45;46aa&#45;a647&#45;59c3bc76d0d0</title>
<path fill="none" stroke="black" d="M61.05,-420.81C61.05,-412.79 61.05,-403.05 61.05,-394.07"/>
<polygon fill="black" stroke="black" points="64.55,-394.03 61.05,-384.03 57.55,-394.03 64.55,-394.03"/>
</g>
<!-- 5378d298&#45;fb30&#45;40d1&#45;901c&#45;12a2039d9d41 -->
<g id="node3" class="node">
<title>5378d298&#45;fb30&#45;40d1&#45;901c&#45;12a2039d9d41</title>
<ellipse fill="none" stroke="black" cx="61.05" cy="-105" rx="32.4" ry="18"/>
<text text-anchor="middle" x="61.05" y="-101.3" font-family="Times,serif" font-size="14.00">Average</text>
</g>
<!-- af047df8&#45;6652&#45;45a8&#45;8ad9&#45;3e76fc82e932 -->
<g id="node4" class="node">
<title>af047df8&#45;6652&#45;45a8&#45;8ad9&#45;3e76fc82e932</title>
<ellipse fill="none" stroke="black" cx="61.05" cy="-18" rx="43.4" ry="18"/>
<text text-anchor="middle" x="61.05" y="-14.3" font-family="Times,serif" font-size="14.00">CircleBuoy</text>
</g>
<!-- 5378d298&#45;fb30&#45;40d1&#45;901c&#45;12a2039d9d41&#45;&gt;af047df8&#45;6652&#45;45a8&#45;8ad9&#45;3e76fc82e932 -->
<g id="edge2" class="edge">
<title>5378d298&#45;fb30&#45;40d1&#45;901c&#45;12a2039d9d41&#45;&gt;af047df8&#45;6652&#45;45a8&#45;8ad9&#45;3e76fc82e932</title>
<path fill="none" stroke="purple" d="M61.05,-86.8C61.05,-75.16 61.05,-59.55 61.05,-46.24"/>
<polygon fill="purple" stroke="purple" points="64.55,-46.18 61.05,-36.18 57.55,-46.18 64.55,-46.18"/>
<text text-anchor="middle" x="96.55" y="-57.8" font-family="Times,serif" font-size="14.00" fill="purple">Pass Data</text>
</g>
<!-- 803d82d4&#45;37b5&#45;4ad6&#45;8bad&#45;725d13214af3 -->
<g id="node5" class="node">
<title>803d82d4&#45;37b5&#45;4ad6&#45;8bad&#45;725d13214af3</title>
<ellipse fill="none" stroke="black" cx="61.05" cy="-192" rx="61.1" ry="18"/>
<text text-anchor="middle" x="61.05" y="-188.3" font-family="Times,serif" font-size="14.00">ExtractPosition</text>
</g>
<!-- 803d82d4&#45;37b5&#45;4ad6&#45;8bad&#45;725d13214af3&#45;&gt;5378d298&#45;fb30&#45;40d1&#45;901c&#45;12a2039d9d41 -->
<g id="edge3" class="edge">
<title>803d82d4&#45;37b5&#45;4ad6&#45;8bad&#45;725d13214af3&#45;&gt;5378d298&#45;fb30&#45;40d1&#45;901c&#45;12a2039d9d41</title>
<path fill="none" stroke="purple" d="M61.05,-173.8C61.05,-162.16 61.05,-146.55 61.05,-133.24"/>
<polygon fill="purple" stroke="purple" points="64.55,-133.18 61.05,-123.18 57.55,-133.18 64.55,-133.18"/>
<text text-anchor="middle" x="96.55" y="-144.8" font-family="Times,serif" font-size="14.00" fill="purple">Pass Data</text>
</g>
<!-- 7fb8e9a0&#45;a59c&#45;44ba&#45;8adc&#45;7724cf8c0498 -->
<g id="node6" class="node">
<title>7fb8e9a0&#45;a59c&#45;44ba&#45;8adc&#45;7724cf8c0498</title>
<ellipse fill="none" stroke="black" cx="61.05" cy="-279" rx="27" ry="18"/>
<text text-anchor="middle" x="61.05" y="-275.3" font-family="Times,serif" font-size="14.00">ToVec</text>
</g>
<!-- 7fb8e9a0&#45;a59c&#45;44ba&#45;8adc&#45;7724cf8c0498&#45;&gt;803d82d4&#45;37b5&#45;4ad6&#45;8bad&#45;725d13214af3 -->
<g id="edge4" class="edge">
<title>7fb8e9a0&#45;a59c&#45;44ba&#45;8adc&#45;7724cf8c0498&#45;&gt;803d82d4&#45;37b5&#45;4ad6&#45;8bad&#45;725d13214af3</title>
<path fill="none" stroke="purple" d="M61.05,-260.8C61.05,-249.16 61.05,-233.55 61.05,-220.24"/>
<polygon fill="purple" stroke="purple" points="64.55,-220.18 61.05,-210.18 57.55,-220.18 64.55,-220.18"/>
<text text-anchor="middle" x="96.55" y="-231.8" font-family="Times,serif" font-size="14.00" fill="purple">Pass Data</text>
</g>
<!-- 8b82b3ca&#45;5eef&#45;46aa&#45;a647&#45;59c3bc76d0d0&#45;&gt;7fb8e9a0&#45;a59c&#45;44ba&#45;8adc&#45;7724cf8c0498 -->
<g id="edge5" class="edge">
<title>8b82b3ca&#45;5eef&#45;46aa&#45;a647&#45;59c3bc76d0d0&#45;&gt;7fb8e9a0&#45;a59c&#45;44ba&#45;8adc&#45;7724cf8c0498</title>
<path fill="none" stroke="purple" d="M61.05,-347.8C61.05,-336.16 61.05,-320.55 61.05,-307.24"/>
<polygon fill="purple" stroke="purple" points="64.55,-307.18 61.05,-297.18 57.55,-307.18 64.55,-307.18"/>
<text text-anchor="middle" x="96.55" y="-318.8" font-family="Times,serif" font-size="14.00" fill="purple">Pass Data</text>
</g>
<!-- ce0c75ab&#45;296a&#45;4970&#45;92d8&#45;3707a4479e00 -->
<g id="node8" class="node">
<title>ce0c75ab&#45;296a&#45;4970&#45;92d8&#45;3707a4479e00</title>
<ellipse fill="none" stroke="black" cx="61.05" cy="-585" rx="59.9" ry="18"/>
<text text-anchor="middle" x="61.05" y="-581.3" font-family="Times,serif" font-size="14.00">ZeroMovement</text>
</g>
<!-- ce0c75ab&#45;296a&#45;4970&#45;92d8&#45;3707a4479e00&#45;&gt;dd8eacc6&#45;f3cc&#45;4a49&#45;a18b&#45;75e1124a25c3 -->
<g id="edge7" class="edge">
<title>ce0c75ab&#45;296a&#45;4970&#45;92d8&#45;3707a4479e00&#45;&gt;dd8eacc6&#45;f3cc&#45;4a49&#45;a18b&#45;75e1124a25c3</title>
<path fill="none" stroke="black" d="M61.05,-566.81C61.05,-558.79 61.05,-549.05 61.05,-540.07"/>
<polygon fill="black" stroke="black" points="64.55,-540.03 61.05,-530.03 57.55,-540.03 64.55,-540.03"/>
</g>
<!-- 285525b5&#45;3c6a&#45;4f92&#45;b01a&#45;eae12ca384c9 -->
<g id="node9" class="node">
<title>285525b5&#45;3c6a&#45;4f92&#45;b01a&#45;eae12ca384c9</title>
<ellipse fill="none" stroke="black" cx="61.05" cy="-658" rx="47.1" ry="18"/>
<text text-anchor="middle" x="61.05" y="-654.3" font-family="Times,serif" font-size="14.00">DelayAction</text>
</g>
<!-- 285525b5&#45;3c6a&#45;4f92&#45;b01a&#45;eae12ca384c9&#45;&gt;ce0c75ab&#45;296a&#45;4970&#45;92d8&#45;3707a4479e00 -->
<g id="edge8" class="edge">
<title>285525b5&#45;3c6a&#45;4f92&#45;b01a&#45;eae12ca384c9&#45;&gt;ce0c75ab&#45;296a&#45;4970&#45;92d8&#45;3707a4479e00</title>
<path fill="none" stroke="black" d="M61.05,-639.81C61.05,-631.79 61.05,-622.05 61.05,-613.07"/>
<polygon fill="black" stroke="black" points="64.55,-613.03 61.05,-603.03 57.55,-613.03 64.55,-613.03"/>
</g>
</g>
</svg>
