<?xml version="1.0" encoding="UTF-8" standalone="no"?>
<!DOCTYPE svg PUBLIC "-//W3C//DTD SVG 1.1//EN"
 "http://www.w3.org/Graphics/SVG/1.1/DTD/svg11.dtd">
<!-- Generated by graphviz version 2.43.0 (0)
 -->
<!-- Title: G Pages: 1 -->
<svg width="318pt" height="987pt"
 viewBox="0.00 0.00 318.29 987.00" xmlns="http://www.w3.org/2000/svg" xmlns:xlink="http://www.w3.org/1999/xlink">
<g id="graph0" class="graph" transform="scale(1 1) rotate(0) translate(4 983)">
<title>G</title>
<polygon fill="transparent" stroke="transparent" points="-4,4 -4,-983 314.29,-983 314.29,4 -4,4"/>
<!-- ce07b09e&#45;479d&#45;4d27&#45;8e8c&#45;106d476bea7b -->
<g id="node1" class="node">
<title>ce07b09e&#45;479d&#45;4d27&#45;8e8c&#45;106d476bea7b</title>
<polygon fill="none" stroke="black" points="65.34,-906 0.16,-888 65.34,-870 130.52,-888 65.34,-906"/>
<text text-anchor="middle" x="65.34" y="-884.3" font-family="Times,serif" font-size="14.00">AlwaysTrue</text>
</g>
<!-- c12d67c2&#45;7515&#45;4947&#45;b76d&#45;963267a3de1a -->
<g id="node11" class="node">
<title>c12d67c2&#45;7515&#45;4947&#45;b76d&#45;963267a3de1a</title>
<ellipse fill="none" stroke="black" cx="103.34" cy="-801" rx="46.5" ry="18"/>
<text text-anchor="middle" x="103.34" y="-797.3" font-family="Times,serif" font-size="14.00">VisionNorm</text>
</g>
<!-- ce07b09e&#45;479d&#45;4d27&#45;8e8c&#45;106d476bea7b&#45;&gt;c12d67c2&#45;7515&#45;4947&#45;b76d&#45;963267a3de1a -->
<g id="edge10" class="edge">
<title>ce07b09e&#45;479d&#45;4d27&#45;8e8c&#45;106d476bea7b&#45;&gt;c12d67c2&#45;7515&#45;4947&#45;b76d&#45;963267a3de1a</title>
<path fill="none" stroke="black" d="M72.13,-871.8C77.54,-859.7 85.25,-842.47 91.65,-828.16"/>
<polygon fill="black" stroke="black" points="94.94,-829.37 95.82,-818.81 88.55,-826.51 94.94,-829.37"/>
<text text-anchor="middle" x="104.34" y="-840.8" font-family="Times,serif" font-size="14.00">True</text>
</g>
<!-- 380cdc72&#45;d3a0&#45;458a&#45;acd7&#45;1a202c0463d0 -->
<g id="node2" class="node">
<title>380cdc72&#45;d3a0&#45;458a&#45;acd7&#45;1a202c0463d0</title>
<ellipse fill="none" stroke="black" cx="103.34" cy="-105" rx="27" ry="18"/>
<text text-anchor="middle" x="103.34" y="-101.3" font-family="Times,serif" font-size="14.00">FlatX</text>
</g>
<!-- 42e6221b&#45;b186&#45;46b0&#45;86e3&#45;b8ff5ac4fb80 -->
<g id="node3" class="node">
<title>42e6221b&#45;b186&#45;46b0&#45;86e3&#45;b8ff5ac4fb80</title>
<ellipse fill="none" stroke="black" cx="103.34" cy="-18" rx="80.11" ry="18"/>
<text text-anchor="middle" x="103.34" y="-14.3" font-family="Times,serif" font-size="14.00">Stability2Movement</text>
</g>
<!-- 380cdc72&#45;d3a0&#45;458a&#45;acd7&#45;1a202c0463d0&#45;&gt;42e6221b&#45;b186&#45;46b0&#45;86e3&#45;b8ff5ac4fb80 -->
<g id="edge1" class="edge">
<title>380cdc72&#45;d3a0&#45;458a&#45;acd7&#45;1a202c0463d0&#45;&gt;42e6221b&#45;b186&#45;46b0&#45;86e3&#45;b8ff5ac4fb80</title>
<path fill="none" stroke="purple" d="M103.34,-86.8C103.34,-75.16 103.34,-59.55 103.34,-46.24"/>
<polygon fill="purple" stroke="purple" points="106.84,-46.18 103.34,-36.18 99.84,-46.18 106.84,-46.18"/>
<text text-anchor="middle" x="138.84" y="-57.8" font-family="Times,serif" font-size="14.00" fill="purple">Pass Data</text>
</g>
<!-- 5f14f68f&#45;4ae2&#45;4e16&#45;a4a3&#45;eeef4f09f2b5 -->
<g id="node4" class="node">
<title>5f14f68f&#45;4ae2&#45;4e16&#45;a4a3&#45;eeef4f09f2b5</title>
<ellipse fill="none" stroke="black" cx="103.34" cy="-192" rx="27" ry="18"/>
<text text-anchor="middle" x="103.34" y="-188.3" font-family="Times,serif" font-size="14.00">StripY</text>
</g>
<!-- 5f14f68f&#45;4ae2&#45;4e16&#45;a4a3&#45;eeef4f09f2b5&#45;&gt;380cdc72&#45;d3a0&#45;458a&#45;acd7&#45;1a202c0463d0 -->
<g id="edge2" class="edge">
<title>5f14f68f&#45;4ae2&#45;4e16&#45;a4a3&#45;eeef4f09f2b5&#45;&gt;380cdc72&#45;d3a0&#45;458a&#45;acd7&#45;1a202c0463d0</title>
<path fill="none" stroke="purple" d="M103.34,-173.8C103.34,-162.16 103.34,-146.55 103.34,-133.24"/>
<polygon fill="purple" stroke="purple" points="106.84,-133.18 103.34,-123.18 99.84,-133.18 106.84,-133.18"/>
<text text-anchor="middle" x="138.84" y="-144.8" font-family="Times,serif" font-size="14.00" fill="purple">Pass Data</text>
</g>
<!-- 7bb0d9bd&#45;b7dd&#45;417d&#45;b94e&#45;f15ba578996b -->
<g id="node5" class="node">
<title>7bb0d9bd&#45;b7dd&#45;417d&#45;b94e&#45;f15ba578996b</title>
<ellipse fill="none" stroke="black" cx="103.34" cy="-279" rx="52.6" ry="18"/>
<text text-anchor="middle" x="103.34" y="-275.3" font-family="Times,serif" font-size="14.00">Anon Closure</text>
</g>
<!-- 7bb0d9bd&#45;b7dd&#45;417d&#45;b94e&#45;f15ba578996b&#45;&gt;5f14f68f&#45;4ae2&#45;4e16&#45;a4a3&#45;eeef4f09f2b5 -->
<g id="edge3" class="edge">
<title>7bb0d9bd&#45;b7dd&#45;417d&#45;b94e&#45;f15ba578996b&#45;&gt;5f14f68f&#45;4ae2&#45;4e16&#45;a4a3&#45;eeef4f09f2b5</title>
<path fill="none" stroke="purple" d="M103.34,-260.8C103.34,-249.16 103.34,-233.55 103.34,-220.24"/>
<polygon fill="purple" stroke="purple" points="106.84,-220.18 103.34,-210.18 99.84,-220.18 106.84,-220.18"/>
<text text-anchor="middle" x="138.84" y="-231.8" font-family="Times,serif" font-size="14.00" fill="purple">Pass Data</text>
</g>
<!-- 7994d965&#45;eb10&#45;46f5&#45;9496&#45;e47072765bd0 -->
<g id="node6" class="node">
<title>7994d965&#45;eb10&#45;46f5&#45;9496&#45;e47072765bd0</title>
<ellipse fill="none" stroke="black" cx="103.34" cy="-366" rx="51.3" ry="18"/>
<text text-anchor="middle" x="103.34" y="-362.3" font-family="Times,serif" font-size="14.00">OffsetToPose</text>
</g>
<!-- 7994d965&#45;eb10&#45;46f5&#45;9496&#45;e47072765bd0&#45;&gt;7bb0d9bd&#45;b7dd&#45;417d&#45;b94e&#45;f15ba578996b -->
<g id="edge4" class="edge">
<title>7994d965&#45;eb10&#45;46f5&#45;9496&#45;e47072765bd0&#45;&gt;7bb0d9bd&#45;b7dd&#45;417d&#45;b94e&#45;f15ba578996b</title>
<path fill="none" stroke="purple" d="M103.34,-347.8C103.34,-336.16 103.34,-320.55 103.34,-307.24"/>
<polygon fill="purple" stroke="purple" points="106.84,-307.18 103.34,-297.18 99.84,-307.18 106.84,-307.18"/>
<text text-anchor="middle" x="138.84" y="-318.8" font-family="Times,serif" font-size="14.00" fill="purple">Pass Data</text>
</g>
<!-- 5629b193&#45;dc8d&#45;4bde&#45;b339&#45;e061de5c203b -->
<g id="node7" class="node">
<title>5629b193&#45;dc8d&#45;4bde&#45;b339&#45;e061de5c203b</title>
<ellipse fill="none" stroke="black" cx="103.34" cy="-453" rx="32.4" ry="18"/>
<text text-anchor="middle" x="103.34" y="-449.3" font-family="Times,serif" font-size="14.00">Average</text>
</g>
<!-- 5629b193&#45;dc8d&#45;4bde&#45;b339&#45;e061de5c203b&#45;&gt;7994d965&#45;eb10&#45;46f5&#45;9496&#45;e47072765bd0 -->
<g id="edge5" class="edge">
<title>5629b193&#45;dc8d&#45;4bde&#45;b339&#45;e061de5c203b&#45;&gt;7994d965&#45;eb10&#45;46f5&#45;9496&#45;e47072765bd0</title>
<path fill="none" stroke="purple" d="M103.34,-434.8C103.34,-423.16 103.34,-407.55 103.34,-394.24"/>
<polygon fill="purple" stroke="purple" points="106.84,-394.18 103.34,-384.18 99.84,-394.18 106.84,-394.18"/>
<text text-anchor="middle" x="138.84" y="-405.8" font-family="Times,serif" font-size="14.00" fill="purple">Pass Data</text>
</g>
<!-- b287e9a9&#45;a197&#45;4db5&#45;9d7c&#45;b8881f6927a4 -->
<g id="node8" class="node">
<title>b287e9a9&#45;a197&#45;4db5&#45;9d7c&#45;b8881f6927a4</title>
<ellipse fill="none" stroke="black" cx="103.34" cy="-540" rx="61.1" ry="18"/>
<text text-anchor="middle" x="103.34" y="-536.3" font-family="Times,serif" font-size="14.00">ExtractPosition</text>
</g>
<!-- b287e9a9&#45;a197&#45;4db5&#45;9d7c&#45;b8881f6927a4&#45;&gt;5629b193&#45;dc8d&#45;4bde&#45;b339&#45;e061de5c203b -->
<g id="edge6" class="edge">
<title>b287e9a9&#45;a197&#45;4db5&#45;9d7c&#45;b8881f6927a4&#45;&gt;5629b193&#45;dc8d&#45;4bde&#45;b339&#45;e061de5c203b</title>
<path fill="none" stroke="purple" d="M103.34,-521.8C103.34,-510.16 103.34,-494.55 103.34,-481.24"/>
<polygon fill="purple" stroke="purple" points="106.84,-481.18 103.34,-471.18 99.84,-481.18 106.84,-481.18"/>
<text text-anchor="middle" x="138.84" y="-492.8" font-family="Times,serif" font-size="14.00" fill="purple">Pass Data</text>
</g>
<!-- 43bf86ca&#45;1008&#45;4704&#45;8a87&#45;54036f78a0d0 -->
<g id="node9" class="node">
<title>43bf86ca&#45;1008&#45;4704&#45;8a87&#45;54036f78a0d0</title>
<ellipse fill="none" stroke="black" cx="103.34" cy="-627" rx="27" ry="18"/>
<text text-anchor="middle" x="103.34" y="-623.3" font-family="Times,serif" font-size="14.00">ToVec</text>
</g>
<!-- 43bf86ca&#45;1008&#45;4704&#45;8a87&#45;54036f78a0d0&#45;&gt;b287e9a9&#45;a197&#45;4db5&#45;9d7c&#45;b8881f6927a4 -->
<g id="edge7" class="edge">
<title>43bf86ca&#45;1008&#45;4704&#45;8a87&#45;54036f78a0d0&#45;&gt;b287e9a9&#45;a197&#45;4db5&#45;9d7c&#45;b8881f6927a4</title>
<path fill="none" stroke="purple" d="M103.34,-608.8C103.34,-597.16 103.34,-581.55 103.34,-568.24"/>
<polygon fill="purple" stroke="purple" points="106.84,-568.18 103.34,-558.18 99.84,-568.18 106.84,-568.18"/>
<text text-anchor="middle" x="138.84" y="-579.8" font-family="Times,serif" font-size="14.00" fill="purple">Pass Data</text>
</g>
<!-- fefe721e&#45;491c&#45;4234&#45;bfa4&#45;9b3f7b995f8b -->
<g id="node10" class="node">
<title>fefe721e&#45;491c&#45;4234&#45;bfa4&#45;9b3f7b995f8b</title>
<ellipse fill="none" stroke="black" cx="103.34" cy="-714" rx="45.2" ry="18"/>
<text text-anchor="middle" x="103.34" y="-710.3" font-family="Times,serif" font-size="14.00">Detect true</text>
</g>
<!-- fefe721e&#45;491c&#45;4234&#45;bfa4&#45;9b3f7b995f8b&#45;&gt;43bf86ca&#45;1008&#45;4704&#45;8a87&#45;54036f78a0d0 -->
<g id="edge8" class="edge">
<title>fefe721e&#45;491c&#45;4234&#45;bfa4&#45;9b3f7b995f8b&#45;&gt;43bf86ca&#45;1008&#45;4704&#45;8a87&#45;54036f78a0d0</title>
<path fill="none" stroke="purple" d="M103.34,-695.8C103.34,-684.16 103.34,-668.55 103.34,-655.24"/>
<polygon fill="purple" stroke="purple" points="106.84,-655.18 103.34,-645.18 99.84,-655.18 106.84,-655.18"/>
<text text-anchor="middle" x="138.84" y="-666.8" font-family="Times,serif" font-size="14.00" fill="purple">Pass Data</text>
</g>
<!-- c12d67c2&#45;7515&#45;4947&#45;b76d&#45;963267a3de1a&#45;&gt;fefe721e&#45;491c&#45;4234&#45;bfa4&#45;9b3f7b995f8b -->
<g id="edge9" class="edge">
<title>c12d67c2&#45;7515&#45;4947&#45;b76d&#45;963267a3de1a&#45;&gt;fefe721e&#45;491c&#45;4234&#45;bfa4&#45;9b3f7b995f8b</title>
<path fill="none" stroke="purple" d="M103.34,-782.8C103.34,-771.16 103.34,-755.55 103.34,-742.24"/>
<polygon fill="purple" stroke="purple" points="106.84,-742.18 103.34,-732.18 99.84,-742.18 106.84,-742.18"/>
<text text-anchor="middle" x="138.84" y="-753.8" font-family="Times,serif" font-size="14.00" fill="purple">Pass Data</text>
</g>
<!-- ebac95d2&#45;4bfa&#45;4b1b&#45;8b35&#45;9f28f33118ed -->
<g id="node12" class="node">
<title>ebac95d2&#45;4bfa&#45;4b1b&#45;8b35&#45;9f28f33118ed</title>
<ellipse fill="none" stroke="black" cx="250.34" cy="-888" rx="47.1" ry="18"/>
<text text-anchor="middle" x="250.34" y="-884.3" font-family="Times,serif" font-size="14.00">DelayAction</text>
</g>
<!-- ebac95d2&#45;4bfa&#45;4b1b&#45;8b35&#45;9f28f33118ed&#45;&gt;c12d67c2&#45;7515&#45;4947&#45;b76d&#45;963267a3de1a -->
<g id="edge11" class="edge">
<title>ebac95d2&#45;4bfa&#45;4b1b&#45;8b35&#45;9f28f33118ed&#45;&gt;c12d67c2&#45;7515&#45;4947&#45;b76d&#45;963267a3de1a</title>
<path fill="none" stroke="black" d="M225.4,-872.58C201.12,-858.54 164.03,-837.09 137.1,-821.52"/>
<polygon fill="black" stroke="black" points="138.81,-818.47 128.4,-816.49 135.3,-824.53 138.81,-818.47"/>
</g>
<!-- 237abe75&#45;ecdf&#45;4778&#45;9b13&#45;a3539f65aea2 -->
<g id="node13" class="node">
<title>237abe75&#45;ecdf&#45;4778&#45;9b13&#45;a3539f65aea2</title>
<ellipse fill="none" stroke="black" cx="250.34" cy="-961" rx="59.9" ry="18"/>
<text text-anchor="middle" x="250.34" y="-957.3" font-family="Times,serif" font-size="14.00">ZeroMovement</text>
</g>
<!-- 237abe75&#45;ecdf&#45;4778&#45;9b13&#45;a3539f65aea2&#45;&gt;ebac95d2&#45;4bfa&#45;4b1b&#45;8b35&#45;9f28f33118ed -->
<g id="edge12" class="edge">
<title>237abe75&#45;ecdf&#45;4778&#45;9b13&#45;a3539f65aea2&#45;&gt;ebac95d2&#45;4bfa&#45;4b1b&#45;8b35&#45;9f28f33118ed</title>
<path fill="none" stroke="black" d="M250.34,-942.81C250.34,-934.79 250.34,-925.05 250.34,-916.07"/>
<polygon fill="black" stroke="black" points="253.84,-916.03 250.34,-906.03 246.84,-916.03 253.84,-916.03"/>
</g>
</g>
</svg>
