<?xml version="1.0" encoding="UTF-8" standalone="no"?>
<!DOCTYPE svg PUBLIC "-//W3C//DTD SVG 1.1//EN"
 "http://www.w3.org/Graphics/SVG/1.1/DTD/svg11.dtd">
<!-- Generated by graphviz version 2.43.0 (0)
 -->
<!-- Title: G Pages: 1 -->
<svg width="318pt" height="987pt"
 viewBox="0.00 0.00 318.29 987.00" xmlns="http://www.w3.org/2000/svg" xmlns:xlink="http://www.w3.org/1999/xlink">
<g id="graph0" class="graph" transform="scale(1 1) rotate(0) translate(4 983)">
<title>G</title>
<polygon fill="transparent" stroke="transparent" points="-4,4 -4,-983 314.29,-983 314.29,4 -4,4"/>
<!-- 888de812&#45;cce3&#45;4d05&#45;9d66&#45;1335db1b667f -->
<g id="node1" class="node">
<title>888de812&#45;cce3&#45;4d05&#45;9d66&#45;1335db1b667f</title>
<polygon fill="none" stroke="black" points="65.34,-906 0.16,-888 65.34,-870 130.52,-888 65.34,-906"/>
<text text-anchor="middle" x="65.34" y="-884.3" font-family="Times,serif" font-size="14.00">AlwaysTrue</text>
</g>
<!-- b6bf976a&#45;2234&#45;4021&#45;96d9&#45;bd1aa2c62266 -->
<g id="node11" class="node">
<title>b6bf976a&#45;2234&#45;4021&#45;96d9&#45;bd1aa2c62266</title>
<ellipse fill="none" stroke="black" cx="103.34" cy="-801" rx="46.5" ry="18"/>
<text text-anchor="middle" x="103.34" y="-797.3" font-family="Times,serif" font-size="14.00">VisionNorm</text>
</g>
<!-- 888de812&#45;cce3&#45;4d05&#45;9d66&#45;1335db1b667f&#45;&gt;b6bf976a&#45;2234&#45;4021&#45;96d9&#45;bd1aa2c62266 -->
<g id="edge10" class="edge">
<title>888de812&#45;cce3&#45;4d05&#45;9d66&#45;1335db1b667f&#45;&gt;b6bf976a&#45;2234&#45;4021&#45;96d9&#45;bd1aa2c62266</title>
<path fill="none" stroke="black" d="M72.13,-871.8C77.54,-859.7 85.25,-842.47 91.65,-828.16"/>
<polygon fill="black" stroke="black" points="94.94,-829.37 95.82,-818.81 88.55,-826.51 94.94,-829.37"/>
<text text-anchor="middle" x="104.34" y="-840.8" font-family="Times,serif" font-size="14.00">True</text>
</g>
<!-- 2deeb222&#45;3101&#45;4b81&#45;a149&#45;e30ae26d5bd3 -->
<g id="node2" class="node">
<title>2deeb222&#45;3101&#45;4b81&#45;a149&#45;e30ae26d5bd3</title>
<ellipse fill="none" stroke="black" cx="103.34" cy="-105" rx="27" ry="18"/>
<text text-anchor="middle" x="103.34" y="-101.3" font-family="Times,serif" font-size="14.00">FlatX</text>
</g>
<!-- ee5876e1&#45;f560&#45;4a64&#45;81cb&#45;cf1161da2227 -->
<g id="node3" class="node">
<title>ee5876e1&#45;f560&#45;4a64&#45;81cb&#45;cf1161da2227</title>
<ellipse fill="none" stroke="black" cx="103.34" cy="-18" rx="80.11" ry="18"/>
<text text-anchor="middle" x="103.34" y="-14.3" font-family="Times,serif" font-size="14.00">Stability2Movement</text>
</g>
<!-- 2deeb222&#45;3101&#45;4b81&#45;a149&#45;e30ae26d5bd3&#45;&gt;ee5876e1&#45;f560&#45;4a64&#45;81cb&#45;cf1161da2227 -->
<g id="edge1" class="edge">
<title>2deeb222&#45;3101&#45;4b81&#45;a149&#45;e30ae26d5bd3&#45;&gt;ee5876e1&#45;f560&#45;4a64&#45;81cb&#45;cf1161da2227</title>
<path fill="none" stroke="purple" d="M103.34,-86.8C103.34,-75.16 103.34,-59.55 103.34,-46.24"/>
<polygon fill="purple" stroke="purple" points="106.84,-46.18 103.34,-36.18 99.84,-46.18 106.84,-46.18"/>
<text text-anchor="middle" x="138.84" y="-57.8" font-family="Times,serif" font-size="14.00" fill="purple">Pass Data</text>
</g>
<!-- 44f54626&#45;0d1e&#45;42ca&#45;854b&#45;d40c90cdf7e6 -->
<g id="node4" class="node">
<title>44f54626&#45;0d1e&#45;42ca&#45;854b&#45;d40c90cdf7e6</title>
<ellipse fill="none" stroke="black" cx="103.34" cy="-192" rx="27" ry="18"/>
<text text-anchor="middle" x="103.34" y="-188.3" font-family="Times,serif" font-size="14.00">StripY</text>
</g>
<!-- 44f54626&#45;0d1e&#45;42ca&#45;854b&#45;d40c90cdf7e6&#45;&gt;2deeb222&#45;3101&#45;4b81&#45;a149&#45;e30ae26d5bd3 -->
<g id="edge2" class="edge">
<title>44f54626&#45;0d1e&#45;42ca&#45;854b&#45;d40c90cdf7e6&#45;&gt;2deeb222&#45;3101&#45;4b81&#45;a149&#45;e30ae26d5bd3</title>
<path fill="none" stroke="purple" d="M103.34,-173.8C103.34,-162.16 103.34,-146.55 103.34,-133.24"/>
<polygon fill="purple" stroke="purple" points="106.84,-133.18 103.34,-123.18 99.84,-133.18 106.84,-133.18"/>
<text text-anchor="middle" x="138.84" y="-144.8" font-family="Times,serif" font-size="14.00" fill="purple">Pass Data</text>
</g>
<!-- fc208638&#45;dd02&#45;48a9&#45;9e61&#45;a3a5a41fbd91 -->
<g id="node5" class="node">
<title>fc208638&#45;dd02&#45;48a9&#45;9e61&#45;a3a5a41fbd91</title>
<ellipse fill="none" stroke="black" cx="103.34" cy="-279" rx="52.6" ry="18"/>
<text text-anchor="middle" x="103.34" y="-275.3" font-family="Times,serif" font-size="14.00">Anon Closure</text>
</g>
<!-- fc208638&#45;dd02&#45;48a9&#45;9e61&#45;a3a5a41fbd91&#45;&gt;44f54626&#45;0d1e&#45;42ca&#45;854b&#45;d40c90cdf7e6 -->
<g id="edge3" class="edge">
<title>fc208638&#45;dd02&#45;48a9&#45;9e61&#45;a3a5a41fbd91&#45;&gt;44f54626&#45;0d1e&#45;42ca&#45;854b&#45;d40c90cdf7e6</title>
<path fill="none" stroke="purple" d="M103.34,-260.8C103.34,-249.16 103.34,-233.55 103.34,-220.24"/>
<polygon fill="purple" stroke="purple" points="106.84,-220.18 103.34,-210.18 99.84,-220.18 106.84,-220.18"/>
<text text-anchor="middle" x="138.84" y="-231.8" font-family="Times,serif" font-size="14.00" fill="purple">Pass Data</text>
</g>
<!-- 33c2bfab&#45;8001&#45;4a0d&#45;9ac9&#45;fdd3f71f7349 -->
<g id="node6" class="node">
<title>33c2bfab&#45;8001&#45;4a0d&#45;9ac9&#45;fdd3f71f7349</title>
<ellipse fill="none" stroke="black" cx="103.34" cy="-366" rx="51.3" ry="18"/>
<text text-anchor="middle" x="103.34" y="-362.3" font-family="Times,serif" font-size="14.00">OffsetToPose</text>
</g>
<!-- 33c2bfab&#45;8001&#45;4a0d&#45;9ac9&#45;fdd3f71f7349&#45;&gt;fc208638&#45;dd02&#45;48a9&#45;9e61&#45;a3a5a41fbd91 -->
<g id="edge4" class="edge">
<title>33c2bfab&#45;8001&#45;4a0d&#45;9ac9&#45;fdd3f71f7349&#45;&gt;fc208638&#45;dd02&#45;48a9&#45;9e61&#45;a3a5a41fbd91</title>
<path fill="none" stroke="purple" d="M103.34,-347.8C103.34,-336.16 103.34,-320.55 103.34,-307.24"/>
<polygon fill="purple" stroke="purple" points="106.84,-307.18 103.34,-297.18 99.84,-307.18 106.84,-307.18"/>
<text text-anchor="middle" x="138.84" y="-318.8" font-family="Times,serif" font-size="14.00" fill="purple">Pass Data</text>
</g>
<!-- d245b4b5&#45;3051&#45;4d58&#45;b3ec&#45;c484c329608e -->
<g id="node7" class="node">
<title>d245b4b5&#45;3051&#45;4d58&#45;b3ec&#45;c484c329608e</title>
<ellipse fill="none" stroke="black" cx="103.34" cy="-453" rx="32.4" ry="18"/>
<text text-anchor="middle" x="103.34" y="-449.3" font-family="Times,serif" font-size="14.00">Average</text>
</g>
<!-- d245b4b5&#45;3051&#45;4d58&#45;b3ec&#45;c484c329608e&#45;&gt;33c2bfab&#45;8001&#45;4a0d&#45;9ac9&#45;fdd3f71f7349 -->
<g id="edge5" class="edge">
<title>d245b4b5&#45;3051&#45;4d58&#45;b3ec&#45;c484c329608e&#45;&gt;33c2bfab&#45;8001&#45;4a0d&#45;9ac9&#45;fdd3f71f7349</title>
<path fill="none" stroke="purple" d="M103.34,-434.8C103.34,-423.16 103.34,-407.55 103.34,-394.24"/>
<polygon fill="purple" stroke="purple" points="106.84,-394.18 103.34,-384.18 99.84,-394.18 106.84,-394.18"/>
<text text-anchor="middle" x="138.84" y="-405.8" font-family="Times,serif" font-size="14.00" fill="purple">Pass Data</text>
</g>
<!-- 018902f9&#45;fa25&#45;4d5a&#45;a250&#45;adad4a9f9ee3 -->
<g id="node8" class="node">
<title>018902f9&#45;fa25&#45;4d5a&#45;a250&#45;adad4a9f9ee3</title>
<ellipse fill="none" stroke="black" cx="103.34" cy="-540" rx="61.1" ry="18"/>
<text text-anchor="middle" x="103.34" y="-536.3" font-family="Times,serif" font-size="14.00">ExtractPosition</text>
</g>
<!-- 018902f9&#45;fa25&#45;4d5a&#45;a250&#45;adad4a9f9ee3&#45;&gt;d245b4b5&#45;3051&#45;4d58&#45;b3ec&#45;c484c329608e -->
<g id="edge6" class="edge">
<title>018902f9&#45;fa25&#45;4d5a&#45;a250&#45;adad4a9f9ee3&#45;&gt;d245b4b5&#45;3051&#45;4d58&#45;b3ec&#45;c484c329608e</title>
<path fill="none" stroke="purple" d="M103.34,-521.8C103.34,-510.16 103.34,-494.55 103.34,-481.24"/>
<polygon fill="purple" stroke="purple" points="106.84,-481.18 103.34,-471.18 99.84,-481.18 106.84,-481.18"/>
<text text-anchor="middle" x="138.84" y="-492.8" font-family="Times,serif" font-size="14.00" fill="purple">Pass Data</text>
</g>
<!-- 3928a987&#45;70a6&#45;4bb6&#45;a4c5&#45;374f6a8d495c -->
<g id="node9" class="node">
<title>3928a987&#45;70a6&#45;4bb6&#45;a4c5&#45;374f6a8d495c</title>
<ellipse fill="none" stroke="black" cx="103.34" cy="-627" rx="27" ry="18"/>
<text text-anchor="middle" x="103.34" y="-623.3" font-family="Times,serif" font-size="14.00">ToVec</text>
</g>
<!-- 3928a987&#45;70a6&#45;4bb6&#45;a4c5&#45;374f6a8d495c&#45;&gt;018902f9&#45;fa25&#45;4d5a&#45;a250&#45;adad4a9f9ee3 -->
<g id="edge7" class="edge">
<title>3928a987&#45;70a6&#45;4bb6&#45;a4c5&#45;374f6a8d495c&#45;&gt;018902f9&#45;fa25&#45;4d5a&#45;a250&#45;adad4a9f9ee3</title>
<path fill="none" stroke="purple" d="M103.34,-608.8C103.34,-597.16 103.34,-581.55 103.34,-568.24"/>
<polygon fill="purple" stroke="purple" points="106.84,-568.18 103.34,-558.18 99.84,-568.18 106.84,-568.18"/>
<text text-anchor="middle" x="138.84" y="-579.8" font-family="Times,serif" font-size="14.00" fill="purple">Pass Data</text>
</g>
<!-- 0607a303&#45;2759&#45;4288&#45;87a0&#45;27c7e59fa759 -->
<g id="node10" class="node">
<title>0607a303&#45;2759&#45;4288&#45;87a0&#45;27c7e59fa759</title>
<ellipse fill="none" stroke="black" cx="103.34" cy="-714" rx="45.2" ry="18"/>
<text text-anchor="middle" x="103.34" y="-710.3" font-family="Times,serif" font-size="14.00">Detect true</text>
</g>
<!-- 0607a303&#45;2759&#45;4288&#45;87a0&#45;27c7e59fa759&#45;&gt;3928a987&#45;70a6&#45;4bb6&#45;a4c5&#45;374f6a8d495c -->
<g id="edge8" class="edge">
<title>0607a303&#45;2759&#45;4288&#45;87a0&#45;27c7e59fa759&#45;&gt;3928a987&#45;70a6&#45;4bb6&#45;a4c5&#45;374f6a8d495c</title>
<path fill="none" stroke="purple" d="M103.34,-695.8C103.34,-684.16 103.34,-668.55 103.34,-655.24"/>
<polygon fill="purple" stroke="purple" points="106.84,-655.18 103.34,-645.18 99.84,-655.18 106.84,-655.18"/>
<text text-anchor="middle" x="138.84" y="-666.8" font-family="Times,serif" font-size="14.00" fill="purple">Pass Data</text>
</g>
<!-- b6bf976a&#45;2234&#45;4021&#45;96d9&#45;bd1aa2c62266&#45;&gt;0607a303&#45;2759&#45;4288&#45;87a0&#45;27c7e59fa759 -->
<g id="edge9" class="edge">
<title>b6bf976a&#45;2234&#45;4021&#45;96d9&#45;bd1aa2c62266&#45;&gt;0607a303&#45;2759&#45;4288&#45;87a0&#45;27c7e59fa759</title>
<path fill="none" stroke="purple" d="M103.34,-782.8C103.34,-771.16 103.34,-755.55 103.34,-742.24"/>
<polygon fill="purple" stroke="purple" points="106.84,-742.18 103.34,-732.18 99.84,-742.18 106.84,-742.18"/>
<text text-anchor="middle" x="138.84" y="-753.8" font-family="Times,serif" font-size="14.00" fill="purple">Pass Data</text>
</g>
<!-- b10676a1&#45;7657&#45;4df3&#45;b42b&#45;d9cf7744e299 -->
<g id="node12" class="node">
<title>b10676a1&#45;7657&#45;4df3&#45;b42b&#45;d9cf7744e299</title>
<ellipse fill="none" stroke="black" cx="250.34" cy="-888" rx="47.1" ry="18"/>
<text text-anchor="middle" x="250.34" y="-884.3" font-family="Times,serif" font-size="14.00">DelayAction</text>
</g>
<!-- b10676a1&#45;7657&#45;4df3&#45;b42b&#45;d9cf7744e299&#45;&gt;b6bf976a&#45;2234&#45;4021&#45;96d9&#45;bd1aa2c62266 -->
<g id="edge11" class="edge">
<title>b10676a1&#45;7657&#45;4df3&#45;b42b&#45;d9cf7744e299&#45;&gt;b6bf976a&#45;2234&#45;4021&#45;96d9&#45;bd1aa2c62266</title>
<path fill="none" stroke="black" d="M225.4,-872.58C201.12,-858.54 164.03,-837.09 137.1,-821.52"/>
<polygon fill="black" stroke="black" points="138.81,-818.47 128.4,-816.49 135.3,-824.53 138.81,-818.47"/>
</g>
<!-- 52b47570&#45;ff50&#45;49ad&#45;a14b&#45;354017853a8b -->
<g id="node13" class="node">
<title>52b47570&#45;ff50&#45;49ad&#45;a14b&#45;354017853a8b</title>
<ellipse fill="none" stroke="black" cx="250.34" cy="-961" rx="59.9" ry="18"/>
<text text-anchor="middle" x="250.34" y="-957.3" font-family="Times,serif" font-size="14.00">ZeroMovement</text>
</g>
<!-- 52b47570&#45;ff50&#45;49ad&#45;a14b&#45;354017853a8b&#45;&gt;b10676a1&#45;7657&#45;4df3&#45;b42b&#45;d9cf7744e299 -->
<g id="edge12" class="edge">
<title>52b47570&#45;ff50&#45;49ad&#45;a14b&#45;354017853a8b&#45;&gt;b10676a1&#45;7657&#45;4df3&#45;b42b&#45;d9cf7744e299</title>
<path fill="none" stroke="black" d="M250.34,-942.81C250.34,-934.79 250.34,-925.05 250.34,-916.07"/>
<polygon fill="black" stroke="black" points="253.84,-916.03 250.34,-906.03 246.84,-916.03 253.84,-916.03"/>
</g>
</g>
</svg>
