<?xml version="1.0" encoding="UTF-8" standalone="no"?>
<!DOCTYPE svg PUBLIC "-//W3C//DTD SVG 1.1//EN"
 "http://www.w3.org/Graphics/SVG/1.1/DTD/svg11.dtd">
<!-- Generated by graphviz version 2.43.0 (0)
 -->
<!-- Title: G Pages: 1 -->
<svg width="318pt" height="987pt"
 viewBox="0.00 0.00 318.29 987.00" xmlns="http://www.w3.org/2000/svg" xmlns:xlink="http://www.w3.org/1999/xlink">
<g id="graph0" class="graph" transform="scale(1 1) rotate(0) translate(4 983)">
<title>G</title>
<polygon fill="transparent" stroke="transparent" points="-4,4 -4,-983 314.29,-983 314.29,4 -4,4"/>
<!-- 3bc451d6&#45;596c&#45;467e&#45;bda0&#45;f5264e2ef2c0 -->
<g id="node1" class="node">
<title>3bc451d6&#45;596c&#45;467e&#45;bda0&#45;f5264e2ef2c0</title>
<polygon fill="none" stroke="black" points="65.34,-906 0.16,-888 65.34,-870 130.52,-888 65.34,-906"/>
<text text-anchor="middle" x="65.34" y="-884.3" font-family="Times,serif" font-size="14.00">AlwaysTrue</text>
</g>
<!-- 2e43d1f8&#45;fc5a&#45;4c3e&#45;86bb&#45;b19f4b3ff32a -->
<g id="node11" class="node">
<title>2e43d1f8&#45;fc5a&#45;4c3e&#45;86bb&#45;b19f4b3ff32a</title>
<ellipse fill="none" stroke="black" cx="103.34" cy="-801" rx="46.5" ry="18"/>
<text text-anchor="middle" x="103.34" y="-797.3" font-family="Times,serif" font-size="14.00">VisionNorm</text>
</g>
<!-- 3bc451d6&#45;596c&#45;467e&#45;bda0&#45;f5264e2ef2c0&#45;&gt;2e43d1f8&#45;fc5a&#45;4c3e&#45;86bb&#45;b19f4b3ff32a -->
<g id="edge10" class="edge">
<title>3bc451d6&#45;596c&#45;467e&#45;bda0&#45;f5264e2ef2c0&#45;&gt;2e43d1f8&#45;fc5a&#45;4c3e&#45;86bb&#45;b19f4b3ff32a</title>
<path fill="none" stroke="black" d="M72.13,-871.8C77.54,-859.7 85.25,-842.47 91.65,-828.16"/>
<polygon fill="black" stroke="black" points="94.94,-829.37 95.82,-818.81 88.55,-826.51 94.94,-829.37"/>
<text text-anchor="middle" x="104.34" y="-840.8" font-family="Times,serif" font-size="14.00">True</text>
</g>
<!-- b7de0e7a&#45;9bfd&#45;40e1&#45;83de&#45;3878e197a54f -->
<g id="node2" class="node">
<title>b7de0e7a&#45;9bfd&#45;40e1&#45;83de&#45;3878e197a54f</title>
<ellipse fill="none" stroke="black" cx="103.34" cy="-105" rx="27" ry="18"/>
<text text-anchor="middle" x="103.34" y="-101.3" font-family="Times,serif" font-size="14.00">FlatX</text>
</g>
<!-- 5c138e16&#45;d9be&#45;4b90&#45;880f&#45;02e36609d67b -->
<g id="node3" class="node">
<title>5c138e16&#45;d9be&#45;4b90&#45;880f&#45;02e36609d67b</title>
<ellipse fill="none" stroke="black" cx="103.34" cy="-18" rx="80.11" ry="18"/>
<text text-anchor="middle" x="103.34" y="-14.3" font-family="Times,serif" font-size="14.00">Stability2Movement</text>
</g>
<!-- b7de0e7a&#45;9bfd&#45;40e1&#45;83de&#45;3878e197a54f&#45;&gt;5c138e16&#45;d9be&#45;4b90&#45;880f&#45;02e36609d67b -->
<g id="edge1" class="edge">
<title>b7de0e7a&#45;9bfd&#45;40e1&#45;83de&#45;3878e197a54f&#45;&gt;5c138e16&#45;d9be&#45;4b90&#45;880f&#45;02e36609d67b</title>
<path fill="none" stroke="purple" d="M103.34,-86.8C103.34,-75.16 103.34,-59.55 103.34,-46.24"/>
<polygon fill="purple" stroke="purple" points="106.84,-46.18 103.34,-36.18 99.84,-46.18 106.84,-46.18"/>
<text text-anchor="middle" x="138.84" y="-57.8" font-family="Times,serif" font-size="14.00" fill="purple">Pass Data</text>
</g>
<!-- d560b9fe&#45;bd86&#45;48fe&#45;9d9d&#45;8e7a9d3d079b -->
<g id="node4" class="node">
<title>d560b9fe&#45;bd86&#45;48fe&#45;9d9d&#45;8e7a9d3d079b</title>
<ellipse fill="none" stroke="black" cx="103.34" cy="-192" rx="27" ry="18"/>
<text text-anchor="middle" x="103.34" y="-188.3" font-family="Times,serif" font-size="14.00">StripY</text>
</g>
<!-- d560b9fe&#45;bd86&#45;48fe&#45;9d9d&#45;8e7a9d3d079b&#45;&gt;b7de0e7a&#45;9bfd&#45;40e1&#45;83de&#45;3878e197a54f -->
<g id="edge2" class="edge">
<title>d560b9fe&#45;bd86&#45;48fe&#45;9d9d&#45;8e7a9d3d079b&#45;&gt;b7de0e7a&#45;9bfd&#45;40e1&#45;83de&#45;3878e197a54f</title>
<path fill="none" stroke="purple" d="M103.34,-173.8C103.34,-162.16 103.34,-146.55 103.34,-133.24"/>
<polygon fill="purple" stroke="purple" points="106.84,-133.18 103.34,-123.18 99.84,-133.18 106.84,-133.18"/>
<text text-anchor="middle" x="138.84" y="-144.8" font-family="Times,serif" font-size="14.00" fill="purple">Pass Data</text>
</g>
<!-- 57ed6bc3&#45;89b4&#45;41a9&#45;9159&#45;5dfb82816f4c -->
<g id="node5" class="node">
<title>57ed6bc3&#45;89b4&#45;41a9&#45;9159&#45;5dfb82816f4c</title>
<ellipse fill="none" stroke="black" cx="103.34" cy="-279" rx="52.6" ry="18"/>
<text text-anchor="middle" x="103.34" y="-275.3" font-family="Times,serif" font-size="14.00">Anon Closure</text>
</g>
<!-- 57ed6bc3&#45;89b4&#45;41a9&#45;9159&#45;5dfb82816f4c&#45;&gt;d560b9fe&#45;bd86&#45;48fe&#45;9d9d&#45;8e7a9d3d079b -->
<g id="edge3" class="edge">
<title>57ed6bc3&#45;89b4&#45;41a9&#45;9159&#45;5dfb82816f4c&#45;&gt;d560b9fe&#45;bd86&#45;48fe&#45;9d9d&#45;8e7a9d3d079b</title>
<path fill="none" stroke="purple" d="M103.34,-260.8C103.34,-249.16 103.34,-233.55 103.34,-220.24"/>
<polygon fill="purple" stroke="purple" points="106.84,-220.18 103.34,-210.18 99.84,-220.18 106.84,-220.18"/>
<text text-anchor="middle" x="138.84" y="-231.8" font-family="Times,serif" font-size="14.00" fill="purple">Pass Data</text>
</g>
<!-- 11d22613&#45;8ede&#45;4a16&#45;9f7a&#45;bb5ddea4e527 -->
<g id="node6" class="node">
<title>11d22613&#45;8ede&#45;4a16&#45;9f7a&#45;bb5ddea4e527</title>
<ellipse fill="none" stroke="black" cx="103.34" cy="-366" rx="51.3" ry="18"/>
<text text-anchor="middle" x="103.34" y="-362.3" font-family="Times,serif" font-size="14.00">OffsetToPose</text>
</g>
<!-- 11d22613&#45;8ede&#45;4a16&#45;9f7a&#45;bb5ddea4e527&#45;&gt;57ed6bc3&#45;89b4&#45;41a9&#45;9159&#45;5dfb82816f4c -->
<g id="edge4" class="edge">
<title>11d22613&#45;8ede&#45;4a16&#45;9f7a&#45;bb5ddea4e527&#45;&gt;57ed6bc3&#45;89b4&#45;41a9&#45;9159&#45;5dfb82816f4c</title>
<path fill="none" stroke="purple" d="M103.34,-347.8C103.34,-336.16 103.34,-320.55 103.34,-307.24"/>
<polygon fill="purple" stroke="purple" points="106.84,-307.18 103.34,-297.18 99.84,-307.18 106.84,-307.18"/>
<text text-anchor="middle" x="138.84" y="-318.8" font-family="Times,serif" font-size="14.00" fill="purple">Pass Data</text>
</g>
<!-- 09df88c7&#45;fc34&#45;457d&#45;809a&#45;858381e727b4 -->
<g id="node7" class="node">
<title>09df88c7&#45;fc34&#45;457d&#45;809a&#45;858381e727b4</title>
<ellipse fill="none" stroke="black" cx="103.34" cy="-453" rx="32.4" ry="18"/>
<text text-anchor="middle" x="103.34" y="-449.3" font-family="Times,serif" font-size="14.00">Average</text>
</g>
<!-- 09df88c7&#45;fc34&#45;457d&#45;809a&#45;858381e727b4&#45;&gt;11d22613&#45;8ede&#45;4a16&#45;9f7a&#45;bb5ddea4e527 -->
<g id="edge5" class="edge">
<title>09df88c7&#45;fc34&#45;457d&#45;809a&#45;858381e727b4&#45;&gt;11d22613&#45;8ede&#45;4a16&#45;9f7a&#45;bb5ddea4e527</title>
<path fill="none" stroke="purple" d="M103.34,-434.8C103.34,-423.16 103.34,-407.55 103.34,-394.24"/>
<polygon fill="purple" stroke="purple" points="106.84,-394.18 103.34,-384.18 99.84,-394.18 106.84,-394.18"/>
<text text-anchor="middle" x="138.84" y="-405.8" font-family="Times,serif" font-size="14.00" fill="purple">Pass Data</text>
</g>
<!-- 0f773fed&#45;9e0c&#45;4749&#45;86cf&#45;37fbaa971c3e -->
<g id="node8" class="node">
<title>0f773fed&#45;9e0c&#45;4749&#45;86cf&#45;37fbaa971c3e</title>
<ellipse fill="none" stroke="black" cx="103.34" cy="-540" rx="61.1" ry="18"/>
<text text-anchor="middle" x="103.34" y="-536.3" font-family="Times,serif" font-size="14.00">ExtractPosition</text>
</g>
<!-- 0f773fed&#45;9e0c&#45;4749&#45;86cf&#45;37fbaa971c3e&#45;&gt;09df88c7&#45;fc34&#45;457d&#45;809a&#45;858381e727b4 -->
<g id="edge6" class="edge">
<title>0f773fed&#45;9e0c&#45;4749&#45;86cf&#45;37fbaa971c3e&#45;&gt;09df88c7&#45;fc34&#45;457d&#45;809a&#45;858381e727b4</title>
<path fill="none" stroke="purple" d="M103.34,-521.8C103.34,-510.16 103.34,-494.55 103.34,-481.24"/>
<polygon fill="purple" stroke="purple" points="106.84,-481.18 103.34,-471.18 99.84,-481.18 106.84,-481.18"/>
<text text-anchor="middle" x="138.84" y="-492.8" font-family="Times,serif" font-size="14.00" fill="purple">Pass Data</text>
</g>
<!-- 4e79bcc7&#45;5f8c&#45;4d2b&#45;a772&#45;e61792e190e7 -->
<g id="node9" class="node">
<title>4e79bcc7&#45;5f8c&#45;4d2b&#45;a772&#45;e61792e190e7</title>
<ellipse fill="none" stroke="black" cx="103.34" cy="-627" rx="27" ry="18"/>
<text text-anchor="middle" x="103.34" y="-623.3" font-family="Times,serif" font-size="14.00">ToVec</text>
</g>
<!-- 4e79bcc7&#45;5f8c&#45;4d2b&#45;a772&#45;e61792e190e7&#45;&gt;0f773fed&#45;9e0c&#45;4749&#45;86cf&#45;37fbaa971c3e -->
<g id="edge7" class="edge">
<title>4e79bcc7&#45;5f8c&#45;4d2b&#45;a772&#45;e61792e190e7&#45;&gt;0f773fed&#45;9e0c&#45;4749&#45;86cf&#45;37fbaa971c3e</title>
<path fill="none" stroke="purple" d="M103.34,-608.8C103.34,-597.16 103.34,-581.55 103.34,-568.24"/>
<polygon fill="purple" stroke="purple" points="106.84,-568.18 103.34,-558.18 99.84,-568.18 106.84,-568.18"/>
<text text-anchor="middle" x="138.84" y="-579.8" font-family="Times,serif" font-size="14.00" fill="purple">Pass Data</text>
</g>
<!-- 6a9747fd&#45;56c0&#45;4f71&#45;8bbf&#45;9b42536d9495 -->
<g id="node10" class="node">
<title>6a9747fd&#45;56c0&#45;4f71&#45;8bbf&#45;9b42536d9495</title>
<ellipse fill="none" stroke="black" cx="103.34" cy="-714" rx="45.2" ry="18"/>
<text text-anchor="middle" x="103.34" y="-710.3" font-family="Times,serif" font-size="14.00">Detect true</text>
</g>
<!-- 6a9747fd&#45;56c0&#45;4f71&#45;8bbf&#45;9b42536d9495&#45;&gt;4e79bcc7&#45;5f8c&#45;4d2b&#45;a772&#45;e61792e190e7 -->
<g id="edge8" class="edge">
<title>6a9747fd&#45;56c0&#45;4f71&#45;8bbf&#45;9b42536d9495&#45;&gt;4e79bcc7&#45;5f8c&#45;4d2b&#45;a772&#45;e61792e190e7</title>
<path fill="none" stroke="purple" d="M103.34,-695.8C103.34,-684.16 103.34,-668.55 103.34,-655.24"/>
<polygon fill="purple" stroke="purple" points="106.84,-655.18 103.34,-645.18 99.84,-655.18 106.84,-655.18"/>
<text text-anchor="middle" x="138.84" y="-666.8" font-family="Times,serif" font-size="14.00" fill="purple">Pass Data</text>
</g>
<!-- 2e43d1f8&#45;fc5a&#45;4c3e&#45;86bb&#45;b19f4b3ff32a&#45;&gt;6a9747fd&#45;56c0&#45;4f71&#45;8bbf&#45;9b42536d9495 -->
<g id="edge9" class="edge">
<title>2e43d1f8&#45;fc5a&#45;4c3e&#45;86bb&#45;b19f4b3ff32a&#45;&gt;6a9747fd&#45;56c0&#45;4f71&#45;8bbf&#45;9b42536d9495</title>
<path fill="none" stroke="purple" d="M103.34,-782.8C103.34,-771.16 103.34,-755.55 103.34,-742.24"/>
<polygon fill="purple" stroke="purple" points="106.84,-742.18 103.34,-732.18 99.84,-742.18 106.84,-742.18"/>
<text text-anchor="middle" x="138.84" y="-753.8" font-family="Times,serif" font-size="14.00" fill="purple">Pass Data</text>
</g>
<!-- 61468887&#45;6122&#45;4159&#45;9db2&#45;0dc9a5c2429d -->
<g id="node12" class="node">
<title>61468887&#45;6122&#45;4159&#45;9db2&#45;0dc9a5c2429d</title>
<ellipse fill="none" stroke="black" cx="250.34" cy="-888" rx="47.1" ry="18"/>
<text text-anchor="middle" x="250.34" y="-884.3" font-family="Times,serif" font-size="14.00">DelayAction</text>
</g>
<!-- 61468887&#45;6122&#45;4159&#45;9db2&#45;0dc9a5c2429d&#45;&gt;2e43d1f8&#45;fc5a&#45;4c3e&#45;86bb&#45;b19f4b3ff32a -->
<g id="edge11" class="edge">
<title>61468887&#45;6122&#45;4159&#45;9db2&#45;0dc9a5c2429d&#45;&gt;2e43d1f8&#45;fc5a&#45;4c3e&#45;86bb&#45;b19f4b3ff32a</title>
<path fill="none" stroke="black" d="M225.4,-872.58C201.12,-858.54 164.03,-837.09 137.1,-821.52"/>
<polygon fill="black" stroke="black" points="138.81,-818.47 128.4,-816.49 135.3,-824.53 138.81,-818.47"/>
</g>
<!-- 017dc055&#45;4de7&#45;4ed1&#45;81ee&#45;0b562fcab0ff -->
<g id="node13" class="node">
<title>017dc055&#45;4de7&#45;4ed1&#45;81ee&#45;0b562fcab0ff</title>
<ellipse fill="none" stroke="black" cx="250.34" cy="-961" rx="59.9" ry="18"/>
<text text-anchor="middle" x="250.34" y="-957.3" font-family="Times,serif" font-size="14.00">ZeroMovement</text>
</g>
<!-- 017dc055&#45;4de7&#45;4ed1&#45;81ee&#45;0b562fcab0ff&#45;&gt;61468887&#45;6122&#45;4159&#45;9db2&#45;0dc9a5c2429d -->
<g id="edge12" class="edge">
<title>017dc055&#45;4de7&#45;4ed1&#45;81ee&#45;0b562fcab0ff&#45;&gt;61468887&#45;6122&#45;4159&#45;9db2&#45;0dc9a5c2429d</title>
<path fill="none" stroke="black" d="M250.34,-942.81C250.34,-934.79 250.34,-925.05 250.34,-916.07"/>
<polygon fill="black" stroke="black" points="253.84,-916.03 250.34,-906.03 246.84,-916.03 253.84,-916.03"/>
</g>
</g>
</svg>
