<?xml version="1.0" encoding="UTF-8" standalone="no"?>
<!DOCTYPE svg PUBLIC "-//W3C//DTD SVG 1.1//EN"
 "http://www.w3.org/Graphics/SVG/1.1/DTD/svg11.dtd">
<!-- Generated by graphviz version 2.43.0 (0)
 -->
<!-- Title: G Pages: 1 -->
<svg width="430pt" height="378pt"
 viewBox="0.00 0.00 429.87 378.00" xmlns="http://www.w3.org/2000/svg" xmlns:xlink="http://www.w3.org/1999/xlink">
<g id="graph0" class="graph" transform="scale(1 1) rotate(0) translate(4 374)">
<title>G</title>
<polygon fill="transparent" stroke="transparent" points="-4,4 -4,-374 425.87,-374 425.87,4 -4,4"/>
<!-- b9a5c37f&#45;ecf6&#45;4a48&#45;a734&#45;f1f59444fe08 -->
<g id="node1" class="node">
<title>b9a5c37f&#45;ecf6&#45;4a48&#45;a734&#45;f1f59444fe08</title>
<polygon fill="none" stroke="black" points="294.3,-210 166.67,-192 294.3,-174 421.93,-192 294.3,-210"/>
<text text-anchor="middle" x="294.3" y="-188.3" font-family="Times,serif" font-size="14.00">Consecutive True &lt; 28</text>
</g>
<!-- 8b34bd85&#45;7900&#45;4509&#45;89fc&#45;9174f10ebe70 -->
<g id="node2" class="node">
<title>8b34bd85&#45;7900&#45;4509&#45;89fc&#45;9174f10ebe70</title>
<ellipse fill="none" stroke="black" cx="97.3" cy="-105" rx="38.5" ry="18"/>
<text text-anchor="middle" x="97.3" y="-101.3" font-family="Times,serif" font-size="14.00">ConstYaw</text>
</g>
<!-- b9a5c37f&#45;ecf6&#45;4a48&#45;a734&#45;f1f59444fe08&#45;&gt;8b34bd85&#45;7900&#45;4509&#45;89fc&#45;9174f10ebe70 -->
<g id="edge4" class="edge">
<title>b9a5c37f&#45;ecf6&#45;4a48&#45;a734&#45;f1f59444fe08&#45;&gt;8b34bd85&#45;7900&#45;4509&#45;89fc&#45;9174f10ebe70</title>
<path fill="none" stroke="black" d="M264.38,-178.09C229.5,-163.04 171.85,-138.16 134.22,-121.93"/>
<polygon fill="black" stroke="black" points="135.21,-118.54 124.64,-117.8 132.44,-124.97 135.21,-118.54"/>
<text text-anchor="middle" x="225.3" y="-144.8" font-family="Times,serif" font-size="14.00">True</text>
</g>
<!-- e8f3c28b&#45;68c0&#45;4a3c&#45;a471&#45;66a6bf8362ae -->
<g id="node6" class="node">
<title>e8f3c28b&#45;68c0&#45;4a3c&#45;a471&#45;66a6bf8362ae</title>
<ellipse fill="none" stroke="black" cx="294.3" cy="-105" rx="59.9" ry="18"/>
<text text-anchor="middle" x="294.3" y="-101.3" font-family="Times,serif" font-size="14.00">ZeroMovement</text>
</g>
<!-- b9a5c37f&#45;ecf6&#45;4a48&#45;a734&#45;f1f59444fe08&#45;&gt;e8f3c28b&#45;68c0&#45;4a3c&#45;a471&#45;66a6bf8362ae -->
<g id="edge5" class="edge">
<title>b9a5c37f&#45;ecf6&#45;4a48&#45;a734&#45;f1f59444fe08&#45;&gt;e8f3c28b&#45;68c0&#45;4a3c&#45;a471&#45;66a6bf8362ae</title>
<path fill="none" stroke="black" d="M294.3,-173.8C294.3,-162.16 294.3,-146.55 294.3,-133.24"/>
<polygon fill="black" stroke="black" points="297.8,-133.18 294.3,-123.18 290.8,-133.18 297.8,-133.18"/>
<text text-anchor="middle" x="313.3" y="-144.8" font-family="Times,serif" font-size="14.00">False</text>
</g>
<!-- e69b7b61&#45;a191&#45;4eda&#45;a9ad&#45;cb08d6e88e10 -->
<g id="node3" class="node">
<title>e69b7b61&#45;a191&#45;4eda&#45;a9ad&#45;cb08d6e88e10</title>
<ellipse fill="none" stroke="black" cx="97.3" cy="-18" rx="80.11" ry="18"/>
<text text-anchor="middle" x="97.3" y="-14.3" font-family="Times,serif" font-size="14.00">Stability2Movement</text>
</g>
<!-- 8b34bd85&#45;7900&#45;4509&#45;89fc&#45;9174f10ebe70&#45;&gt;e69b7b61&#45;a191&#45;4eda&#45;a9ad&#45;cb08d6e88e10 -->
<g id="edge1" class="edge">
<title>8b34bd85&#45;7900&#45;4509&#45;89fc&#45;9174f10ebe70&#45;&gt;e69b7b61&#45;a191&#45;4eda&#45;a9ad&#45;cb08d6e88e10</title>
<path fill="none" stroke="purple" d="M97.3,-86.8C97.3,-75.16 97.3,-59.55 97.3,-46.24"/>
<polygon fill="purple" stroke="purple" points="100.8,-46.18 97.3,-36.18 93.8,-46.18 100.8,-46.18"/>
<text text-anchor="middle" x="132.8" y="-57.8" font-family="Times,serif" font-size="14.00" fill="purple">Pass Data</text>
</g>
<!-- f219704b&#45;3a8a&#45;4545&#45;9888&#45;b4247d003776 -->
<g id="node4" class="node">
<title>f219704b&#45;3a8a&#45;4545&#45;9888&#45;b4247d003776</title>
<ellipse fill="none" stroke="black" cx="294.3" cy="-279" rx="46.4" ry="18"/>
<text text-anchor="middle" x="294.3" y="-275.3" font-family="Times,serif" font-size="14.00">AlwaysTrue</text>
</g>
<!-- f219704b&#45;3a8a&#45;4545&#45;9888&#45;b4247d003776&#45;&gt;b9a5c37f&#45;ecf6&#45;4a48&#45;a734&#45;f1f59444fe08 -->
<g id="edge2" class="edge">
<title>f219704b&#45;3a8a&#45;4545&#45;9888&#45;b4247d003776&#45;&gt;b9a5c37f&#45;ecf6&#45;4a48&#45;a734&#45;f1f59444fe08</title>
<path fill="none" stroke="purple" d="M294.3,-260.8C294.3,-249.16 294.3,-233.55 294.3,-220.24"/>
<polygon fill="purple" stroke="purple" points="297.8,-220.18 294.3,-210.18 290.8,-220.18 297.8,-220.18"/>
<text text-anchor="middle" x="329.8" y="-231.8" font-family="Times,serif" font-size="14.00" fill="purple">Pass Data</text>
</g>
<!-- d59b15e9&#45;626c&#45;4503&#45;a424&#45;f2721c4da7a2 -->
<g id="node5" class="node">
<title>d59b15e9&#45;626c&#45;4503&#45;a424&#45;f2721c4da7a2</title>
<ellipse fill="none" stroke="black" cx="294.3" cy="-352" rx="47.1" ry="18"/>
<text text-anchor="middle" x="294.3" y="-348.3" font-family="Times,serif" font-size="14.00">DelayAction</text>
</g>
<!-- d59b15e9&#45;626c&#45;4503&#45;a424&#45;f2721c4da7a2&#45;&gt;f219704b&#45;3a8a&#45;4545&#45;9888&#45;b4247d003776 -->
<g id="edge3" class="edge">
<title>d59b15e9&#45;626c&#45;4503&#45;a424&#45;f2721c4da7a2&#45;&gt;f219704b&#45;3a8a&#45;4545&#45;9888&#45;b4247d003776</title>
<path fill="none" stroke="black" d="M294.3,-333.81C294.3,-325.79 294.3,-316.05 294.3,-307.07"/>
<polygon fill="black" stroke="black" points="297.8,-307.03 294.3,-297.03 290.8,-307.03 297.8,-307.03"/>
</g>
<!-- 212cd371&#45;0ae3&#45;443d&#45;9101&#45;d79371586aeb -->
<g id="node7" class="node">
<title>212cd371&#45;0ae3&#45;443d&#45;9101&#45;d79371586aeb</title>
<ellipse fill="none" stroke="black" cx="47.3" cy="-192" rx="47.1" ry="18"/>
<text text-anchor="middle" x="47.3" y="-188.3" font-family="Times,serif" font-size="14.00">DelayAction</text>
</g>
<!-- 212cd371&#45;0ae3&#45;443d&#45;9101&#45;d79371586aeb&#45;&gt;8b34bd85&#45;7900&#45;4509&#45;89fc&#45;9174f10ebe70 -->
<g id="edge6" class="edge">
<title>212cd371&#45;0ae3&#45;443d&#45;9101&#45;d79371586aeb&#45;&gt;8b34bd85&#45;7900&#45;4509&#45;89fc&#45;9174f10ebe70</title>
<path fill="none" stroke="black" d="M57.18,-174.21C64.42,-161.9 74.36,-145 82.54,-131.09"/>
<polygon fill="black" stroke="black" points="85.56,-132.86 87.61,-122.47 79.53,-129.31 85.56,-132.86"/>
</g>
<!-- e2e75856&#45;ca5f&#45;4ae5&#45;b2b2&#45;22d1b3063b56 -->
<g id="node8" class="node">
<title>e2e75856&#45;ca5f&#45;4ae5&#45;b2b2&#45;22d1b3063b56</title>
<ellipse fill="none" stroke="black" cx="47.3" cy="-279" rx="33.6" ry="18"/>
<text text-anchor="middle" x="47.3" y="-275.3" font-family="Times,serif" font-size="14.00">Descend</text>
</g>
<!-- e2e75856&#45;ca5f&#45;4ae5&#45;b2b2&#45;22d1b3063b56&#45;&gt;212cd371&#45;0ae3&#45;443d&#45;9101&#45;d79371586aeb -->
<g id="edge7" class="edge">
<title>e2e75856&#45;ca5f&#45;4ae5&#45;b2b2&#45;22d1b3063b56&#45;&gt;212cd371&#45;0ae3&#45;443d&#45;9101&#45;d79371586aeb</title>
<path fill="none" stroke="black" d="M47.3,-260.8C47.3,-249.16 47.3,-233.55 47.3,-220.24"/>
<polygon fill="black" stroke="black" points="50.8,-220.18 47.3,-210.18 43.8,-220.18 50.8,-220.18"/>
</g>
</g>
</svg>
