<?xml version="1.0" encoding="UTF-8" standalone="no"?>
<!DOCTYPE svg PUBLIC "-//W3C//DTD SVG 1.1//EN"
 "http://www.w3.org/Graphics/SVG/1.1/DTD/svg11.dtd">
<!-- Generated by graphviz version 2.43.0 (0)
 -->
<!-- Title: G Pages: 1 -->
<svg width="430pt" height="378pt"
 viewBox="0.00 0.00 429.87 378.00" xmlns="http://www.w3.org/2000/svg" xmlns:xlink="http://www.w3.org/1999/xlink">
<g id="graph0" class="graph" transform="scale(1 1) rotate(0) translate(4 374)">
<title>G</title>
<polygon fill="transparent" stroke="transparent" points="-4,4 -4,-374 425.87,-374 425.87,4 -4,4"/>
<!-- 82e05198&#45;ef12&#45;48a7&#45;9c0d&#45;665ce4896759 -->
<g id="node1" class="node">
<title>82e05198&#45;ef12&#45;48a7&#45;9c0d&#45;665ce4896759</title>
<polygon fill="none" stroke="black" points="294.3,-210 166.67,-192 294.3,-174 421.93,-192 294.3,-210"/>
<text text-anchor="middle" x="294.3" y="-188.3" font-family="Times,serif" font-size="14.00">Consecutive True &lt; 28</text>
</g>
<!-- 62b5879e&#45;ce49&#45;4d30&#45;b9de&#45;97c7cc8b4c27 -->
<g id="node2" class="node">
<title>62b5879e&#45;ce49&#45;4d30&#45;b9de&#45;97c7cc8b4c27</title>
<ellipse fill="none" stroke="black" cx="97.3" cy="-105" rx="38.5" ry="18"/>
<text text-anchor="middle" x="97.3" y="-101.3" font-family="Times,serif" font-size="14.00">ConstYaw</text>
</g>
<!-- 82e05198&#45;ef12&#45;48a7&#45;9c0d&#45;665ce4896759&#45;&gt;62b5879e&#45;ce49&#45;4d30&#45;b9de&#45;97c7cc8b4c27 -->
<g id="edge4" class="edge">
<title>82e05198&#45;ef12&#45;48a7&#45;9c0d&#45;665ce4896759&#45;&gt;62b5879e&#45;ce49&#45;4d30&#45;b9de&#45;97c7cc8b4c27</title>
<path fill="none" stroke="black" d="M264.38,-178.09C229.5,-163.04 171.85,-138.16 134.22,-121.93"/>
<polygon fill="black" stroke="black" points="135.21,-118.54 124.64,-117.8 132.44,-124.97 135.21,-118.54"/>
<text text-anchor="middle" x="225.3" y="-144.8" font-family="Times,serif" font-size="14.00">True</text>
</g>
<!-- 4bcebc14&#45;4609&#45;4337&#45;8174&#45;5d3f1df5b13c -->
<g id="node6" class="node">
<title>4bcebc14&#45;4609&#45;4337&#45;8174&#45;5d3f1df5b13c</title>
<ellipse fill="none" stroke="black" cx="294.3" cy="-105" rx="59.9" ry="18"/>
<text text-anchor="middle" x="294.3" y="-101.3" font-family="Times,serif" font-size="14.00">ZeroMovement</text>
</g>
<!-- 82e05198&#45;ef12&#45;48a7&#45;9c0d&#45;665ce4896759&#45;&gt;4bcebc14&#45;4609&#45;4337&#45;8174&#45;5d3f1df5b13c -->
<g id="edge5" class="edge">
<title>82e05198&#45;ef12&#45;48a7&#45;9c0d&#45;665ce4896759&#45;&gt;4bcebc14&#45;4609&#45;4337&#45;8174&#45;5d3f1df5b13c</title>
<path fill="none" stroke="black" d="M294.3,-173.8C294.3,-162.16 294.3,-146.55 294.3,-133.24"/>
<polygon fill="black" stroke="black" points="297.8,-133.18 294.3,-123.18 290.8,-133.18 297.8,-133.18"/>
<text text-anchor="middle" x="313.3" y="-144.8" font-family="Times,serif" font-size="14.00">False</text>
</g>
<!-- c793557a&#45;6234&#45;4d54&#45;88fe&#45;1263f5cec108 -->
<g id="node3" class="node">
<title>c793557a&#45;6234&#45;4d54&#45;88fe&#45;1263f5cec108</title>
<ellipse fill="none" stroke="black" cx="97.3" cy="-18" rx="80.11" ry="18"/>
<text text-anchor="middle" x="97.3" y="-14.3" font-family="Times,serif" font-size="14.00">Stability2Movement</text>
</g>
<!-- 62b5879e&#45;ce49&#45;4d30&#45;b9de&#45;97c7cc8b4c27&#45;&gt;c793557a&#45;6234&#45;4d54&#45;88fe&#45;1263f5cec108 -->
<g id="edge1" class="edge">
<title>62b5879e&#45;ce49&#45;4d30&#45;b9de&#45;97c7cc8b4c27&#45;&gt;c793557a&#45;6234&#45;4d54&#45;88fe&#45;1263f5cec108</title>
<path fill="none" stroke="purple" d="M97.3,-86.8C97.3,-75.16 97.3,-59.55 97.3,-46.24"/>
<polygon fill="purple" stroke="purple" points="100.8,-46.18 97.3,-36.18 93.8,-46.18 100.8,-46.18"/>
<text text-anchor="middle" x="132.8" y="-57.8" font-family="Times,serif" font-size="14.00" fill="purple">Pass Data</text>
</g>
<!-- 7cefb4e5&#45;6c59&#45;4e50&#45;a37d&#45;4527f1adf45c -->
<g id="node4" class="node">
<title>7cefb4e5&#45;6c59&#45;4e50&#45;a37d&#45;4527f1adf45c</title>
<ellipse fill="none" stroke="black" cx="294.3" cy="-279" rx="46.4" ry="18"/>
<text text-anchor="middle" x="294.3" y="-275.3" font-family="Times,serif" font-size="14.00">AlwaysTrue</text>
</g>
<!-- 7cefb4e5&#45;6c59&#45;4e50&#45;a37d&#45;4527f1adf45c&#45;&gt;82e05198&#45;ef12&#45;48a7&#45;9c0d&#45;665ce4896759 -->
<g id="edge2" class="edge">
<title>7cefb4e5&#45;6c59&#45;4e50&#45;a37d&#45;4527f1adf45c&#45;&gt;82e05198&#45;ef12&#45;48a7&#45;9c0d&#45;665ce4896759</title>
<path fill="none" stroke="purple" d="M294.3,-260.8C294.3,-249.16 294.3,-233.55 294.3,-220.24"/>
<polygon fill="purple" stroke="purple" points="297.8,-220.18 294.3,-210.18 290.8,-220.18 297.8,-220.18"/>
<text text-anchor="middle" x="329.8" y="-231.8" font-family="Times,serif" font-size="14.00" fill="purple">Pass Data</text>
</g>
<!-- 687b9747&#45;2c71&#45;4794&#45;90ad&#45;207e1470526e -->
<g id="node5" class="node">
<title>687b9747&#45;2c71&#45;4794&#45;90ad&#45;207e1470526e</title>
<ellipse fill="none" stroke="black" cx="294.3" cy="-352" rx="47.1" ry="18"/>
<text text-anchor="middle" x="294.3" y="-348.3" font-family="Times,serif" font-size="14.00">DelayAction</text>
</g>
<!-- 687b9747&#45;2c71&#45;4794&#45;90ad&#45;207e1470526e&#45;&gt;7cefb4e5&#45;6c59&#45;4e50&#45;a37d&#45;4527f1adf45c -->
<g id="edge3" class="edge">
<title>687b9747&#45;2c71&#45;4794&#45;90ad&#45;207e1470526e&#45;&gt;7cefb4e5&#45;6c59&#45;4e50&#45;a37d&#45;4527f1adf45c</title>
<path fill="none" stroke="black" d="M294.3,-333.81C294.3,-325.79 294.3,-316.05 294.3,-307.07"/>
<polygon fill="black" stroke="black" points="297.8,-307.03 294.3,-297.03 290.8,-307.03 297.8,-307.03"/>
</g>
<!-- 5cdf93ba&#45;8afb&#45;43e1&#45;8499&#45;d8312b6d3ff6 -->
<g id="node7" class="node">
<title>5cdf93ba&#45;8afb&#45;43e1&#45;8499&#45;d8312b6d3ff6</title>
<ellipse fill="none" stroke="black" cx="47.3" cy="-192" rx="47.1" ry="18"/>
<text text-anchor="middle" x="47.3" y="-188.3" font-family="Times,serif" font-size="14.00">DelayAction</text>
</g>
<!-- 5cdf93ba&#45;8afb&#45;43e1&#45;8499&#45;d8312b6d3ff6&#45;&gt;62b5879e&#45;ce49&#45;4d30&#45;b9de&#45;97c7cc8b4c27 -->
<g id="edge6" class="edge">
<title>5cdf93ba&#45;8afb&#45;43e1&#45;8499&#45;d8312b6d3ff6&#45;&gt;62b5879e&#45;ce49&#45;4d30&#45;b9de&#45;97c7cc8b4c27</title>
<path fill="none" stroke="black" d="M57.18,-174.21C64.42,-161.9 74.36,-145 82.54,-131.09"/>
<polygon fill="black" stroke="black" points="85.56,-132.86 87.61,-122.47 79.53,-129.31 85.56,-132.86"/>
</g>
<!-- 62d843a1&#45;a534&#45;4628&#45;aac8&#45;6f3b6dc1829d -->
<g id="node8" class="node">
<title>62d843a1&#45;a534&#45;4628&#45;aac8&#45;6f3b6dc1829d</title>
<ellipse fill="none" stroke="black" cx="47.3" cy="-279" rx="33.6" ry="18"/>
<text text-anchor="middle" x="47.3" y="-275.3" font-family="Times,serif" font-size="14.00">Descend</text>
</g>
<!-- 62d843a1&#45;a534&#45;4628&#45;aac8&#45;6f3b6dc1829d&#45;&gt;5cdf93ba&#45;8afb&#45;43e1&#45;8499&#45;d8312b6d3ff6 -->
<g id="edge7" class="edge">
<title>62d843a1&#45;a534&#45;4628&#45;aac8&#45;6f3b6dc1829d&#45;&gt;5cdf93ba&#45;8afb&#45;43e1&#45;8499&#45;d8312b6d3ff6</title>
<path fill="none" stroke="black" d="M47.3,-260.8C47.3,-249.16 47.3,-233.55 47.3,-220.24"/>
<polygon fill="black" stroke="black" points="50.8,-220.18 47.3,-210.18 43.8,-220.18 50.8,-220.18"/>
</g>
</g>
</svg>
