<?xml version="1.0" encoding="UTF-8" standalone="no"?>
<!DOCTYPE svg PUBLIC "-//W3C//DTD SVG 1.1//EN"
 "http://www.w3.org/Graphics/SVG/1.1/DTD/svg11.dtd">
<!-- Generated by graphviz version 2.43.0 (0)
 -->
<!-- Title: G Pages: 1 -->
<svg width="318pt" height="987pt"
 viewBox="0.00 0.00 318.29 987.00" xmlns="http://www.w3.org/2000/svg" xmlns:xlink="http://www.w3.org/1999/xlink">
<g id="graph0" class="graph" transform="scale(1 1) rotate(0) translate(4 983)">
<title>G</title>
<polygon fill="transparent" stroke="transparent" points="-4,4 -4,-983 314.29,-983 314.29,4 -4,4"/>
<!-- cbc82563&#45;d905&#45;4979&#45;90cf&#45;b9d6b1836f78 -->
<g id="node1" class="node">
<title>cbc82563&#45;d905&#45;4979&#45;90cf&#45;b9d6b1836f78</title>
<polygon fill="none" stroke="black" points="65.34,-906 0.16,-888 65.34,-870 130.52,-888 65.34,-906"/>
<text text-anchor="middle" x="65.34" y="-884.3" font-family="Times,serif" font-size="14.00">AlwaysTrue</text>
</g>
<!-- dfa70069&#45;f72d&#45;49dd&#45;9732&#45;a6262b4d8e94 -->
<g id="node11" class="node">
<title>dfa70069&#45;f72d&#45;49dd&#45;9732&#45;a6262b4d8e94</title>
<ellipse fill="none" stroke="black" cx="103.34" cy="-801" rx="46.5" ry="18"/>
<text text-anchor="middle" x="103.34" y="-797.3" font-family="Times,serif" font-size="14.00">VisionNorm</text>
</g>
<!-- cbc82563&#45;d905&#45;4979&#45;90cf&#45;b9d6b1836f78&#45;&gt;dfa70069&#45;f72d&#45;49dd&#45;9732&#45;a6262b4d8e94 -->
<g id="edge10" class="edge">
<title>cbc82563&#45;d905&#45;4979&#45;90cf&#45;b9d6b1836f78&#45;&gt;dfa70069&#45;f72d&#45;49dd&#45;9732&#45;a6262b4d8e94</title>
<path fill="none" stroke="black" d="M72.13,-871.8C77.54,-859.7 85.25,-842.47 91.65,-828.16"/>
<polygon fill="black" stroke="black" points="94.94,-829.37 95.82,-818.81 88.55,-826.51 94.94,-829.37"/>
<text text-anchor="middle" x="104.34" y="-840.8" font-family="Times,serif" font-size="14.00">True</text>
</g>
<!-- 494c9c4e&#45;44db&#45;49a9&#45;884e&#45;ed4f1e044d3e -->
<g id="node2" class="node">
<title>494c9c4e&#45;44db&#45;49a9&#45;884e&#45;ed4f1e044d3e</title>
<ellipse fill="none" stroke="black" cx="103.34" cy="-105" rx="27" ry="18"/>
<text text-anchor="middle" x="103.34" y="-101.3" font-family="Times,serif" font-size="14.00">FlatX</text>
</g>
<!-- d147646a&#45;119a&#45;4d25&#45;9830&#45;f7d6e789ab6c -->
<g id="node3" class="node">
<title>d147646a&#45;119a&#45;4d25&#45;9830&#45;f7d6e789ab6c</title>
<ellipse fill="none" stroke="black" cx="103.34" cy="-18" rx="80.11" ry="18"/>
<text text-anchor="middle" x="103.34" y="-14.3" font-family="Times,serif" font-size="14.00">Stability2Movement</text>
</g>
<!-- 494c9c4e&#45;44db&#45;49a9&#45;884e&#45;ed4f1e044d3e&#45;&gt;d147646a&#45;119a&#45;4d25&#45;9830&#45;f7d6e789ab6c -->
<g id="edge1" class="edge">
<title>494c9c4e&#45;44db&#45;49a9&#45;884e&#45;ed4f1e044d3e&#45;&gt;d147646a&#45;119a&#45;4d25&#45;9830&#45;f7d6e789ab6c</title>
<path fill="none" stroke="purple" d="M103.34,-86.8C103.34,-75.16 103.34,-59.55 103.34,-46.24"/>
<polygon fill="purple" stroke="purple" points="106.84,-46.18 103.34,-36.18 99.84,-46.18 106.84,-46.18"/>
<text text-anchor="middle" x="138.84" y="-57.8" font-family="Times,serif" font-size="14.00" fill="purple">Pass Data</text>
</g>
<!-- bb190ca0&#45;8654&#45;4fcd&#45;abf8&#45;3cfe94579dde -->
<g id="node4" class="node">
<title>bb190ca0&#45;8654&#45;4fcd&#45;abf8&#45;3cfe94579dde</title>
<ellipse fill="none" stroke="black" cx="103.34" cy="-192" rx="27" ry="18"/>
<text text-anchor="middle" x="103.34" y="-188.3" font-family="Times,serif" font-size="14.00">StripY</text>
</g>
<!-- bb190ca0&#45;8654&#45;4fcd&#45;abf8&#45;3cfe94579dde&#45;&gt;494c9c4e&#45;44db&#45;49a9&#45;884e&#45;ed4f1e044d3e -->
<g id="edge2" class="edge">
<title>bb190ca0&#45;8654&#45;4fcd&#45;abf8&#45;3cfe94579dde&#45;&gt;494c9c4e&#45;44db&#45;49a9&#45;884e&#45;ed4f1e044d3e</title>
<path fill="none" stroke="purple" d="M103.34,-173.8C103.34,-162.16 103.34,-146.55 103.34,-133.24"/>
<polygon fill="purple" stroke="purple" points="106.84,-133.18 103.34,-123.18 99.84,-133.18 106.84,-133.18"/>
<text text-anchor="middle" x="138.84" y="-144.8" font-family="Times,serif" font-size="14.00" fill="purple">Pass Data</text>
</g>
<!-- bbe20790&#45;8a74&#45;4265&#45;9cfc&#45;b85952f3ec1c -->
<g id="node5" class="node">
<title>bbe20790&#45;8a74&#45;4265&#45;9cfc&#45;b85952f3ec1c</title>
<ellipse fill="none" stroke="black" cx="103.34" cy="-279" rx="52.6" ry="18"/>
<text text-anchor="middle" x="103.34" y="-275.3" font-family="Times,serif" font-size="14.00">Anon Closure</text>
</g>
<!-- bbe20790&#45;8a74&#45;4265&#45;9cfc&#45;b85952f3ec1c&#45;&gt;bb190ca0&#45;8654&#45;4fcd&#45;abf8&#45;3cfe94579dde -->
<g id="edge3" class="edge">
<title>bbe20790&#45;8a74&#45;4265&#45;9cfc&#45;b85952f3ec1c&#45;&gt;bb190ca0&#45;8654&#45;4fcd&#45;abf8&#45;3cfe94579dde</title>
<path fill="none" stroke="purple" d="M103.34,-260.8C103.34,-249.16 103.34,-233.55 103.34,-220.24"/>
<polygon fill="purple" stroke="purple" points="106.84,-220.18 103.34,-210.18 99.84,-220.18 106.84,-220.18"/>
<text text-anchor="middle" x="138.84" y="-231.8" font-family="Times,serif" font-size="14.00" fill="purple">Pass Data</text>
</g>
<!-- 47084908&#45;9a1a&#45;4ec2&#45;bdf3&#45;235f5084303c -->
<g id="node6" class="node">
<title>47084908&#45;9a1a&#45;4ec2&#45;bdf3&#45;235f5084303c</title>
<ellipse fill="none" stroke="black" cx="103.34" cy="-366" rx="51.3" ry="18"/>
<text text-anchor="middle" x="103.34" y="-362.3" font-family="Times,serif" font-size="14.00">OffsetToPose</text>
</g>
<!-- 47084908&#45;9a1a&#45;4ec2&#45;bdf3&#45;235f5084303c&#45;&gt;bbe20790&#45;8a74&#45;4265&#45;9cfc&#45;b85952f3ec1c -->
<g id="edge4" class="edge">
<title>47084908&#45;9a1a&#45;4ec2&#45;bdf3&#45;235f5084303c&#45;&gt;bbe20790&#45;8a74&#45;4265&#45;9cfc&#45;b85952f3ec1c</title>
<path fill="none" stroke="purple" d="M103.34,-347.8C103.34,-336.16 103.34,-320.55 103.34,-307.24"/>
<polygon fill="purple" stroke="purple" points="106.84,-307.18 103.34,-297.18 99.84,-307.18 106.84,-307.18"/>
<text text-anchor="middle" x="138.84" y="-318.8" font-family="Times,serif" font-size="14.00" fill="purple">Pass Data</text>
</g>
<!-- 6023b2c1&#45;e10f&#45;4880&#45;8914&#45;d44fd2b7790a -->
<g id="node7" class="node">
<title>6023b2c1&#45;e10f&#45;4880&#45;8914&#45;d44fd2b7790a</title>
<ellipse fill="none" stroke="black" cx="103.34" cy="-453" rx="32.4" ry="18"/>
<text text-anchor="middle" x="103.34" y="-449.3" font-family="Times,serif" font-size="14.00">Average</text>
</g>
<!-- 6023b2c1&#45;e10f&#45;4880&#45;8914&#45;d44fd2b7790a&#45;&gt;47084908&#45;9a1a&#45;4ec2&#45;bdf3&#45;235f5084303c -->
<g id="edge5" class="edge">
<title>6023b2c1&#45;e10f&#45;4880&#45;8914&#45;d44fd2b7790a&#45;&gt;47084908&#45;9a1a&#45;4ec2&#45;bdf3&#45;235f5084303c</title>
<path fill="none" stroke="purple" d="M103.34,-434.8C103.34,-423.16 103.34,-407.55 103.34,-394.24"/>
<polygon fill="purple" stroke="purple" points="106.84,-394.18 103.34,-384.18 99.84,-394.18 106.84,-394.18"/>
<text text-anchor="middle" x="138.84" y="-405.8" font-family="Times,serif" font-size="14.00" fill="purple">Pass Data</text>
</g>
<!-- 35aa4e81&#45;4656&#45;4ea1&#45;89ee&#45;957903e9118c -->
<g id="node8" class="node">
<title>35aa4e81&#45;4656&#45;4ea1&#45;89ee&#45;957903e9118c</title>
<ellipse fill="none" stroke="black" cx="103.34" cy="-540" rx="61.1" ry="18"/>
<text text-anchor="middle" x="103.34" y="-536.3" font-family="Times,serif" font-size="14.00">ExtractPosition</text>
</g>
<!-- 35aa4e81&#45;4656&#45;4ea1&#45;89ee&#45;957903e9118c&#45;&gt;6023b2c1&#45;e10f&#45;4880&#45;8914&#45;d44fd2b7790a -->
<g id="edge6" class="edge">
<title>35aa4e81&#45;4656&#45;4ea1&#45;89ee&#45;957903e9118c&#45;&gt;6023b2c1&#45;e10f&#45;4880&#45;8914&#45;d44fd2b7790a</title>
<path fill="none" stroke="purple" d="M103.34,-521.8C103.34,-510.16 103.34,-494.55 103.34,-481.24"/>
<polygon fill="purple" stroke="purple" points="106.84,-481.18 103.34,-471.18 99.84,-481.18 106.84,-481.18"/>
<text text-anchor="middle" x="138.84" y="-492.8" font-family="Times,serif" font-size="14.00" fill="purple">Pass Data</text>
</g>
<!-- 2674d02c&#45;0ac7&#45;4233&#45;bcd1&#45;d97ae0a9eceb -->
<g id="node9" class="node">
<title>2674d02c&#45;0ac7&#45;4233&#45;bcd1&#45;d97ae0a9eceb</title>
<ellipse fill="none" stroke="black" cx="103.34" cy="-627" rx="27" ry="18"/>
<text text-anchor="middle" x="103.34" y="-623.3" font-family="Times,serif" font-size="14.00">ToVec</text>
</g>
<!-- 2674d02c&#45;0ac7&#45;4233&#45;bcd1&#45;d97ae0a9eceb&#45;&gt;35aa4e81&#45;4656&#45;4ea1&#45;89ee&#45;957903e9118c -->
<g id="edge7" class="edge">
<title>2674d02c&#45;0ac7&#45;4233&#45;bcd1&#45;d97ae0a9eceb&#45;&gt;35aa4e81&#45;4656&#45;4ea1&#45;89ee&#45;957903e9118c</title>
<path fill="none" stroke="purple" d="M103.34,-608.8C103.34,-597.16 103.34,-581.55 103.34,-568.24"/>
<polygon fill="purple" stroke="purple" points="106.84,-568.18 103.34,-558.18 99.84,-568.18 106.84,-568.18"/>
<text text-anchor="middle" x="138.84" y="-579.8" font-family="Times,serif" font-size="14.00" fill="purple">Pass Data</text>
</g>
<!-- c41fd52d&#45;8648&#45;4f71&#45;bb60&#45;fb835ff4640e -->
<g id="node10" class="node">
<title>c41fd52d&#45;8648&#45;4f71&#45;bb60&#45;fb835ff4640e</title>
<ellipse fill="none" stroke="black" cx="103.34" cy="-714" rx="45.2" ry="18"/>
<text text-anchor="middle" x="103.34" y="-710.3" font-family="Times,serif" font-size="14.00">Detect true</text>
</g>
<!-- c41fd52d&#45;8648&#45;4f71&#45;bb60&#45;fb835ff4640e&#45;&gt;2674d02c&#45;0ac7&#45;4233&#45;bcd1&#45;d97ae0a9eceb -->
<g id="edge8" class="edge">
<title>c41fd52d&#45;8648&#45;4f71&#45;bb60&#45;fb835ff4640e&#45;&gt;2674d02c&#45;0ac7&#45;4233&#45;bcd1&#45;d97ae0a9eceb</title>
<path fill="none" stroke="purple" d="M103.34,-695.8C103.34,-684.16 103.34,-668.55 103.34,-655.24"/>
<polygon fill="purple" stroke="purple" points="106.84,-655.18 103.34,-645.18 99.84,-655.18 106.84,-655.18"/>
<text text-anchor="middle" x="138.84" y="-666.8" font-family="Times,serif" font-size="14.00" fill="purple">Pass Data</text>
</g>
<!-- dfa70069&#45;f72d&#45;49dd&#45;9732&#45;a6262b4d8e94&#45;&gt;c41fd52d&#45;8648&#45;4f71&#45;bb60&#45;fb835ff4640e -->
<g id="edge9" class="edge">
<title>dfa70069&#45;f72d&#45;49dd&#45;9732&#45;a6262b4d8e94&#45;&gt;c41fd52d&#45;8648&#45;4f71&#45;bb60&#45;fb835ff4640e</title>
<path fill="none" stroke="purple" d="M103.34,-782.8C103.34,-771.16 103.34,-755.55 103.34,-742.24"/>
<polygon fill="purple" stroke="purple" points="106.84,-742.18 103.34,-732.18 99.84,-742.18 106.84,-742.18"/>
<text text-anchor="middle" x="138.84" y="-753.8" font-family="Times,serif" font-size="14.00" fill="purple">Pass Data</text>
</g>
<!-- c0646e03&#45;b85e&#45;4c46&#45;bb26&#45;bb8257250fe3 -->
<g id="node12" class="node">
<title>c0646e03&#45;b85e&#45;4c46&#45;bb26&#45;bb8257250fe3</title>
<ellipse fill="none" stroke="black" cx="250.34" cy="-888" rx="47.1" ry="18"/>
<text text-anchor="middle" x="250.34" y="-884.3" font-family="Times,serif" font-size="14.00">DelayAction</text>
</g>
<!-- c0646e03&#45;b85e&#45;4c46&#45;bb26&#45;bb8257250fe3&#45;&gt;dfa70069&#45;f72d&#45;49dd&#45;9732&#45;a6262b4d8e94 -->
<g id="edge11" class="edge">
<title>c0646e03&#45;b85e&#45;4c46&#45;bb26&#45;bb8257250fe3&#45;&gt;dfa70069&#45;f72d&#45;49dd&#45;9732&#45;a6262b4d8e94</title>
<path fill="none" stroke="black" d="M225.4,-872.58C201.12,-858.54 164.03,-837.09 137.1,-821.52"/>
<polygon fill="black" stroke="black" points="138.81,-818.47 128.4,-816.49 135.3,-824.53 138.81,-818.47"/>
</g>
<!-- 618512e3&#45;0ba2&#45;4925&#45;a415&#45;b5c609a7bdda -->
<g id="node13" class="node">
<title>618512e3&#45;0ba2&#45;4925&#45;a415&#45;b5c609a7bdda</title>
<ellipse fill="none" stroke="black" cx="250.34" cy="-961" rx="59.9" ry="18"/>
<text text-anchor="middle" x="250.34" y="-957.3" font-family="Times,serif" font-size="14.00">ZeroMovement</text>
</g>
<!-- 618512e3&#45;0ba2&#45;4925&#45;a415&#45;b5c609a7bdda&#45;&gt;c0646e03&#45;b85e&#45;4c46&#45;bb26&#45;bb8257250fe3 -->
<g id="edge12" class="edge">
<title>618512e3&#45;0ba2&#45;4925&#45;a415&#45;b5c609a7bdda&#45;&gt;c0646e03&#45;b85e&#45;4c46&#45;bb26&#45;bb8257250fe3</title>
<path fill="none" stroke="black" d="M250.34,-942.81C250.34,-934.79 250.34,-925.05 250.34,-916.07"/>
<polygon fill="black" stroke="black" points="253.84,-916.03 250.34,-906.03 246.84,-916.03 253.84,-916.03"/>
</g>
</g>
</svg>
