<?xml version="1.0" encoding="UTF-8" standalone="no"?>
<!DOCTYPE svg PUBLIC "-//W3C//DTD SVG 1.1//EN"
 "http://www.w3.org/Graphics/SVG/1.1/DTD/svg11.dtd">
<!-- Generated by graphviz version 2.43.0 (0)
 -->
<!-- Title: G Pages: 1 -->
<svg width="430pt" height="378pt"
 viewBox="0.00 0.00 429.87 378.00" xmlns="http://www.w3.org/2000/svg" xmlns:xlink="http://www.w3.org/1999/xlink">
<g id="graph0" class="graph" transform="scale(1 1) rotate(0) translate(4 374)">
<title>G</title>
<polygon fill="transparent" stroke="transparent" points="-4,4 -4,-374 425.87,-374 425.87,4 -4,4"/>
<!-- fdf1f917&#45;92a7&#45;4edb&#45;b7d4&#45;6babdba35bab -->
<g id="node1" class="node">
<title>fdf1f917&#45;92a7&#45;4edb&#45;b7d4&#45;6babdba35bab</title>
<polygon fill="none" stroke="black" points="294.3,-210 166.67,-192 294.3,-174 421.93,-192 294.3,-210"/>
<text text-anchor="middle" x="294.3" y="-188.3" font-family="Times,serif" font-size="14.00">Consecutive True &lt; 28</text>
</g>
<!-- dc3823a8&#45;0f33&#45;4012&#45;ba61&#45;07e6d4177a65 -->
<g id="node2" class="node">
<title>dc3823a8&#45;0f33&#45;4012&#45;ba61&#45;07e6d4177a65</title>
<ellipse fill="none" stroke="black" cx="97.3" cy="-105" rx="38.5" ry="18"/>
<text text-anchor="middle" x="97.3" y="-101.3" font-family="Times,serif" font-size="14.00">ConstYaw</text>
</g>
<!-- fdf1f917&#45;92a7&#45;4edb&#45;b7d4&#45;6babdba35bab&#45;&gt;dc3823a8&#45;0f33&#45;4012&#45;ba61&#45;07e6d4177a65 -->
<g id="edge4" class="edge">
<title>fdf1f917&#45;92a7&#45;4edb&#45;b7d4&#45;6babdba35bab&#45;&gt;dc3823a8&#45;0f33&#45;4012&#45;ba61&#45;07e6d4177a65</title>
<path fill="none" stroke="black" d="M264.38,-178.09C229.5,-163.04 171.85,-138.16 134.22,-121.93"/>
<polygon fill="black" stroke="black" points="135.21,-118.54 124.64,-117.8 132.44,-124.97 135.21,-118.54"/>
<text text-anchor="middle" x="225.3" y="-144.8" font-family="Times,serif" font-size="14.00">True</text>
</g>
<!-- 8be5ee56&#45;1664&#45;4cc0&#45;88b5&#45;08fa8df884f6 -->
<g id="node6" class="node">
<title>8be5ee56&#45;1664&#45;4cc0&#45;88b5&#45;08fa8df884f6</title>
<ellipse fill="none" stroke="black" cx="294.3" cy="-105" rx="59.9" ry="18"/>
<text text-anchor="middle" x="294.3" y="-101.3" font-family="Times,serif" font-size="14.00">ZeroMovement</text>
</g>
<!-- fdf1f917&#45;92a7&#45;4edb&#45;b7d4&#45;6babdba35bab&#45;&gt;8be5ee56&#45;1664&#45;4cc0&#45;88b5&#45;08fa8df884f6 -->
<g id="edge5" class="edge">
<title>fdf1f917&#45;92a7&#45;4edb&#45;b7d4&#45;6babdba35bab&#45;&gt;8be5ee56&#45;1664&#45;4cc0&#45;88b5&#45;08fa8df884f6</title>
<path fill="none" stroke="black" d="M294.3,-173.8C294.3,-162.16 294.3,-146.55 294.3,-133.24"/>
<polygon fill="black" stroke="black" points="297.8,-133.18 294.3,-123.18 290.8,-133.18 297.8,-133.18"/>
<text text-anchor="middle" x="313.3" y="-144.8" font-family="Times,serif" font-size="14.00">False</text>
</g>
<!-- 75293796&#45;1362&#45;47f4&#45;93d5&#45;bc6af77e5bdd -->
<g id="node3" class="node">
<title>75293796&#45;1362&#45;47f4&#45;93d5&#45;bc6af77e5bdd</title>
<ellipse fill="none" stroke="black" cx="97.3" cy="-18" rx="80.11" ry="18"/>
<text text-anchor="middle" x="97.3" y="-14.3" font-family="Times,serif" font-size="14.00">Stability2Movement</text>
</g>
<!-- dc3823a8&#45;0f33&#45;4012&#45;ba61&#45;07e6d4177a65&#45;&gt;75293796&#45;1362&#45;47f4&#45;93d5&#45;bc6af77e5bdd -->
<g id="edge1" class="edge">
<title>dc3823a8&#45;0f33&#45;4012&#45;ba61&#45;07e6d4177a65&#45;&gt;75293796&#45;1362&#45;47f4&#45;93d5&#45;bc6af77e5bdd</title>
<path fill="none" stroke="purple" d="M97.3,-86.8C97.3,-75.16 97.3,-59.55 97.3,-46.24"/>
<polygon fill="purple" stroke="purple" points="100.8,-46.18 97.3,-36.18 93.8,-46.18 100.8,-46.18"/>
<text text-anchor="middle" x="132.8" y="-57.8" font-family="Times,serif" font-size="14.00" fill="purple">Pass Data</text>
</g>
<!-- 28d5cc33&#45;221b&#45;4a82&#45;b602&#45;8b31f66be8ce -->
<g id="node4" class="node">
<title>28d5cc33&#45;221b&#45;4a82&#45;b602&#45;8b31f66be8ce</title>
<ellipse fill="none" stroke="black" cx="294.3" cy="-279" rx="46.4" ry="18"/>
<text text-anchor="middle" x="294.3" y="-275.3" font-family="Times,serif" font-size="14.00">AlwaysTrue</text>
</g>
<!-- 28d5cc33&#45;221b&#45;4a82&#45;b602&#45;8b31f66be8ce&#45;&gt;fdf1f917&#45;92a7&#45;4edb&#45;b7d4&#45;6babdba35bab -->
<g id="edge2" class="edge">
<title>28d5cc33&#45;221b&#45;4a82&#45;b602&#45;8b31f66be8ce&#45;&gt;fdf1f917&#45;92a7&#45;4edb&#45;b7d4&#45;6babdba35bab</title>
<path fill="none" stroke="purple" d="M294.3,-260.8C294.3,-249.16 294.3,-233.55 294.3,-220.24"/>
<polygon fill="purple" stroke="purple" points="297.8,-220.18 294.3,-210.18 290.8,-220.18 297.8,-220.18"/>
<text text-anchor="middle" x="329.8" y="-231.8" font-family="Times,serif" font-size="14.00" fill="purple">Pass Data</text>
</g>
<!-- 111c7101&#45;4450&#45;4306&#45;8472&#45;2118908d14ce -->
<g id="node5" class="node">
<title>111c7101&#45;4450&#45;4306&#45;8472&#45;2118908d14ce</title>
<ellipse fill="none" stroke="black" cx="294.3" cy="-352" rx="47.1" ry="18"/>
<text text-anchor="middle" x="294.3" y="-348.3" font-family="Times,serif" font-size="14.00">DelayAction</text>
</g>
<!-- 111c7101&#45;4450&#45;4306&#45;8472&#45;2118908d14ce&#45;&gt;28d5cc33&#45;221b&#45;4a82&#45;b602&#45;8b31f66be8ce -->
<g id="edge3" class="edge">
<title>111c7101&#45;4450&#45;4306&#45;8472&#45;2118908d14ce&#45;&gt;28d5cc33&#45;221b&#45;4a82&#45;b602&#45;8b31f66be8ce</title>
<path fill="none" stroke="black" d="M294.3,-333.81C294.3,-325.79 294.3,-316.05 294.3,-307.07"/>
<polygon fill="black" stroke="black" points="297.8,-307.03 294.3,-297.03 290.8,-307.03 297.8,-307.03"/>
</g>
<!-- 77d379cd&#45;632e&#45;4599&#45;a362&#45;3723bb7f0b3a -->
<g id="node7" class="node">
<title>77d379cd&#45;632e&#45;4599&#45;a362&#45;3723bb7f0b3a</title>
<ellipse fill="none" stroke="black" cx="47.3" cy="-192" rx="47.1" ry="18"/>
<text text-anchor="middle" x="47.3" y="-188.3" font-family="Times,serif" font-size="14.00">DelayAction</text>
</g>
<!-- 77d379cd&#45;632e&#45;4599&#45;a362&#45;3723bb7f0b3a&#45;&gt;dc3823a8&#45;0f33&#45;4012&#45;ba61&#45;07e6d4177a65 -->
<g id="edge6" class="edge">
<title>77d379cd&#45;632e&#45;4599&#45;a362&#45;3723bb7f0b3a&#45;&gt;dc3823a8&#45;0f33&#45;4012&#45;ba61&#45;07e6d4177a65</title>
<path fill="none" stroke="black" d="M57.18,-174.21C64.42,-161.9 74.36,-145 82.54,-131.09"/>
<polygon fill="black" stroke="black" points="85.56,-132.86 87.61,-122.47 79.53,-129.31 85.56,-132.86"/>
</g>
<!-- 5070ca0a&#45;278b&#45;4ae3&#45;a718&#45;594cfce986f4 -->
<g id="node8" class="node">
<title>5070ca0a&#45;278b&#45;4ae3&#45;a718&#45;594cfce986f4</title>
<ellipse fill="none" stroke="black" cx="47.3" cy="-279" rx="33.6" ry="18"/>
<text text-anchor="middle" x="47.3" y="-275.3" font-family="Times,serif" font-size="14.00">Descend</text>
</g>
<!-- 5070ca0a&#45;278b&#45;4ae3&#45;a718&#45;594cfce986f4&#45;&gt;77d379cd&#45;632e&#45;4599&#45;a362&#45;3723bb7f0b3a -->
<g id="edge7" class="edge">
<title>5070ca0a&#45;278b&#45;4ae3&#45;a718&#45;594cfce986f4&#45;&gt;77d379cd&#45;632e&#45;4599&#45;a362&#45;3723bb7f0b3a</title>
<path fill="none" stroke="black" d="M47.3,-260.8C47.3,-249.16 47.3,-233.55 47.3,-220.24"/>
<polygon fill="black" stroke="black" points="50.8,-220.18 47.3,-210.18 43.8,-220.18 50.8,-220.18"/>
</g>
</g>
</svg>
