<?xml version="1.0" encoding="UTF-8" standalone="no"?>
<!DOCTYPE svg PUBLIC "-//W3C//DTD SVG 1.1//EN"
 "http://www.w3.org/Graphics/SVG/1.1/DTD/svg11.dtd">
<!-- Generated by graphviz version 2.43.0 (0)
 -->
<!-- Title: G Pages: 1 -->
<svg width="158pt" height="404pt"
 viewBox="0.00 0.00 157.61 404.00" xmlns="http://www.w3.org/2000/svg" xmlns:xlink="http://www.w3.org/1999/xlink">
<g id="graph0" class="graph" transform="scale(1 1) rotate(0) translate(4 400)">
<title>G</title>
<polygon fill="transparent" stroke="transparent" points="-4,4 -4,-400 153.61,-400 153.61,4 -4,4"/>
<!-- 87583976&#45;2c9e&#45;4eeb&#45;9dc4&#45;e44f0f9986f1 -->
<g id="node1" class="node">
<title>87583976&#45;2c9e&#45;4eeb&#45;9dc4&#45;e44f0f9986f1</title>
<ellipse fill="none" stroke="black" cx="74.8" cy="-306" rx="33.6" ry="18"/>
<text text-anchor="middle" x="74.8" y="-302.3" font-family="Times,serif" font-size="14.00">Descend</text>
</g>
<!-- b18ac0c4&#45;d615&#45;49dc&#45;a8a2&#45;49cd52359ed5 -->
<g id="node2" class="node">
<title>b18ac0c4&#45;d615&#45;49dc&#45;a8a2&#45;49cd52359ed5</title>
<ellipse fill="none" stroke="black" cx="74.8" cy="-234" rx="47.1" ry="18"/>
<text text-anchor="middle" x="74.8" y="-230.3" font-family="Times,serif" font-size="14.00">DelayAction</text>
</g>
<!-- 87583976&#45;2c9e&#45;4eeb&#45;9dc4&#45;e44f0f9986f1&#45;&gt;b18ac0c4&#45;d615&#45;49dc&#45;a8a2&#45;49cd52359ed5 -->
<g id="edge1" class="edge">
<title>87583976&#45;2c9e&#45;4eeb&#45;9dc4&#45;e44f0f9986f1&#45;&gt;b18ac0c4&#45;d615&#45;49dc&#45;a8a2&#45;49cd52359ed5</title>
<path fill="none" stroke="black" d="M74.8,-287.7C74.8,-279.98 74.8,-270.71 74.8,-262.11"/>
<polygon fill="black" stroke="black" points="78.3,-262.1 74.8,-252.1 71.3,-262.1 78.3,-262.1"/>
</g>
<!-- 6ab2f003&#45;dbce&#45;4aa3&#45;a4a8&#45;d2731bd097dd -->
<g id="node3" class="node">
<title>6ab2f003&#45;dbce&#45;4aa3&#45;a4a8&#45;d2731bd097dd</title>
<ellipse fill="none" stroke="black" cx="74.8" cy="-162" rx="74.61" ry="18"/>
<text text-anchor="middle" x="74.8" y="-158.3" font-family="Times,serif" font-size="14.00">StraightMovement</text>
</g>
<!-- b18ac0c4&#45;d615&#45;49dc&#45;a8a2&#45;49cd52359ed5&#45;&gt;6ab2f003&#45;dbce&#45;4aa3&#45;a4a8&#45;d2731bd097dd -->
<g id="edge4" class="edge">
<title>b18ac0c4&#45;d615&#45;49dc&#45;a8a2&#45;49cd52359ed5&#45;&gt;6ab2f003&#45;dbce&#45;4aa3&#45;a4a8&#45;d2731bd097dd</title>
<path fill="none" stroke="black" d="M74.8,-215.7C74.8,-207.98 74.8,-198.71 74.8,-190.11"/>
<polygon fill="black" stroke="black" points="78.3,-190.1 74.8,-180.1 71.3,-190.1 78.3,-190.1"/>
</g>
<!-- 408d7943&#45;f462&#45;492e&#45;b400&#45;1f14a386e403 -->
<g id="node4" class="node">
<title>408d7943&#45;f462&#45;492e&#45;b400&#45;1f14a386e403</title>
<ellipse fill="none" stroke="black" cx="74.8" cy="-90" rx="47.1" ry="18"/>
<text text-anchor="middle" x="74.8" y="-86.3" font-family="Times,serif" font-size="14.00">DelayAction</text>
</g>
<!-- 6ab2f003&#45;dbce&#45;4aa3&#45;a4a8&#45;d2731bd097dd&#45;&gt;408d7943&#45;f462&#45;492e&#45;b400&#45;1f14a386e403 -->
<g id="edge2" class="edge">
<title>6ab2f003&#45;dbce&#45;4aa3&#45;a4a8&#45;d2731bd097dd&#45;&gt;408d7943&#45;f462&#45;492e&#45;b400&#45;1f14a386e403</title>
<path fill="none" stroke="black" d="M74.8,-143.7C74.8,-135.98 74.8,-126.71 74.8,-118.11"/>
<polygon fill="black" stroke="black" points="78.3,-118.1 74.8,-108.1 71.3,-118.1 78.3,-118.1"/>
</g>
<!-- be0a1fc5&#45;cb29&#45;44c8&#45;bd2f&#45;0c0f53657da4 -->
<g id="node5" class="node">
<title>be0a1fc5&#45;cb29&#45;44c8&#45;bd2f&#45;0c0f53657da4</title>
<ellipse fill="none" stroke="black" cx="74.8" cy="-18" rx="59.9" ry="18"/>
<text text-anchor="middle" x="74.8" y="-14.3" font-family="Times,serif" font-size="14.00">ZeroMovement</text>
</g>
<!-- 408d7943&#45;f462&#45;492e&#45;b400&#45;1f14a386e403&#45;&gt;be0a1fc5&#45;cb29&#45;44c8&#45;bd2f&#45;0c0f53657da4 -->
<g id="edge3" class="edge">
<title>408d7943&#45;f462&#45;492e&#45;b400&#45;1f14a386e403&#45;&gt;be0a1fc5&#45;cb29&#45;44c8&#45;bd2f&#45;0c0f53657da4</title>
<path fill="none" stroke="black" d="M74.8,-71.7C74.8,-63.98 74.8,-54.71 74.8,-46.11"/>
<polygon fill="black" stroke="black" points="78.3,-46.1 74.8,-36.1 71.3,-46.1 78.3,-46.1"/>
</g>
<!-- ed1edfba&#45;0729&#45;4387&#45;9b4d&#45;c0afe0d6e77d -->
<g id="node6" class="node">
<title>ed1edfba&#45;0729&#45;4387&#45;9b4d&#45;c0afe0d6e77d</title>
<ellipse fill="none" stroke="black" cx="74.8" cy="-378" rx="34.8" ry="18"/>
<text text-anchor="middle" x="74.8" y="-374.3" font-family="Times,serif" font-size="14.00">WaitArm</text>
</g>
<!-- ed1edfba&#45;0729&#45;4387&#45;9b4d&#45;c0afe0d6e77d&#45;&gt;87583976&#45;2c9e&#45;4eeb&#45;9dc4&#45;e44f0f9986f1 -->
<g id="edge5" class="edge">
<title>ed1edfba&#45;0729&#45;4387&#45;9b4d&#45;c0afe0d6e77d&#45;&gt;87583976&#45;2c9e&#45;4eeb&#45;9dc4&#45;e44f0f9986f1</title>
<path fill="none" stroke="black" d="M74.8,-359.7C74.8,-351.98 74.8,-342.71 74.8,-334.11"/>
<polygon fill="black" stroke="black" points="78.3,-334.1 74.8,-324.1 71.3,-334.1 78.3,-334.1"/>
</g>
</g>
</svg>
