<?xml version="1.0" encoding="UTF-8" standalone="no"?>
<!DOCTYPE svg PUBLIC "-//W3C//DTD SVG 1.1//EN"
 "http://www.w3.org/Graphics/SVG/1.1/DTD/svg11.dtd">
<!-- Generated by graphviz version 2.43.0 (0)
 -->
<!-- Title: G Pages: 1 -->
<svg width="158pt" height="404pt"
 viewBox="0.00 0.00 157.61 404.00" xmlns="http://www.w3.org/2000/svg" xmlns:xlink="http://www.w3.org/1999/xlink">
<g id="graph0" class="graph" transform="scale(1 1) rotate(0) translate(4 400)">
<title>G</title>
<polygon fill="transparent" stroke="transparent" points="-4,4 -4,-400 153.61,-400 153.61,4 -4,4"/>
<!-- e34d40a7&#45;604f&#45;41f4&#45;898e&#45;b5a180e1ddcc -->
<g id="node1" class="node">
<title>e34d40a7&#45;604f&#45;41f4&#45;898e&#45;b5a180e1ddcc</title>
<ellipse fill="none" stroke="black" cx="74.8" cy="-306" rx="33.6" ry="18"/>
<text text-anchor="middle" x="74.8" y="-302.3" font-family="Times,serif" font-size="14.00">Descend</text>
</g>
<!-- 8e6d7b27&#45;aaea&#45;4832&#45;a8a9&#45;d9f7f7400dff -->
<g id="node2" class="node">
<title>8e6d7b27&#45;aaea&#45;4832&#45;a8a9&#45;d9f7f7400dff</title>
<ellipse fill="none" stroke="black" cx="74.8" cy="-234" rx="47.1" ry="18"/>
<text text-anchor="middle" x="74.8" y="-230.3" font-family="Times,serif" font-size="14.00">DelayAction</text>
</g>
<!-- e34d40a7&#45;604f&#45;41f4&#45;898e&#45;b5a180e1ddcc&#45;&gt;8e6d7b27&#45;aaea&#45;4832&#45;a8a9&#45;d9f7f7400dff -->
<g id="edge1" class="edge">
<title>e34d40a7&#45;604f&#45;41f4&#45;898e&#45;b5a180e1ddcc&#45;&gt;8e6d7b27&#45;aaea&#45;4832&#45;a8a9&#45;d9f7f7400dff</title>
<path fill="none" stroke="black" d="M74.8,-287.7C74.8,-279.98 74.8,-270.71 74.8,-262.11"/>
<polygon fill="black" stroke="black" points="78.3,-262.1 74.8,-252.1 71.3,-262.1 78.3,-262.1"/>
</g>
<!-- 4d44b959&#45;7ec0&#45;40a8&#45;9044&#45;90ab8d7f20f5 -->
<g id="node3" class="node">
<title>4d44b959&#45;7ec0&#45;40a8&#45;9044&#45;90ab8d7f20f5</title>
<ellipse fill="none" stroke="black" cx="74.8" cy="-162" rx="74.61" ry="18"/>
<text text-anchor="middle" x="74.8" y="-158.3" font-family="Times,serif" font-size="14.00">StraightMovement</text>
</g>
<!-- 8e6d7b27&#45;aaea&#45;4832&#45;a8a9&#45;d9f7f7400dff&#45;&gt;4d44b959&#45;7ec0&#45;40a8&#45;9044&#45;90ab8d7f20f5 -->
<g id="edge4" class="edge">
<title>8e6d7b27&#45;aaea&#45;4832&#45;a8a9&#45;d9f7f7400dff&#45;&gt;4d44b959&#45;7ec0&#45;40a8&#45;9044&#45;90ab8d7f20f5</title>
<path fill="none" stroke="black" d="M74.8,-215.7C74.8,-207.98 74.8,-198.71 74.8,-190.11"/>
<polygon fill="black" stroke="black" points="78.3,-190.1 74.8,-180.1 71.3,-190.1 78.3,-190.1"/>
</g>
<!-- aa2be0f1&#45;0df8&#45;4cbc&#45;9961&#45;568b23ba3788 -->
<g id="node4" class="node">
<title>aa2be0f1&#45;0df8&#45;4cbc&#45;9961&#45;568b23ba3788</title>
<ellipse fill="none" stroke="black" cx="74.8" cy="-90" rx="47.1" ry="18"/>
<text text-anchor="middle" x="74.8" y="-86.3" font-family="Times,serif" font-size="14.00">DelayAction</text>
</g>
<!-- 4d44b959&#45;7ec0&#45;40a8&#45;9044&#45;90ab8d7f20f5&#45;&gt;aa2be0f1&#45;0df8&#45;4cbc&#45;9961&#45;568b23ba3788 -->
<g id="edge2" class="edge">
<title>4d44b959&#45;7ec0&#45;40a8&#45;9044&#45;90ab8d7f20f5&#45;&gt;aa2be0f1&#45;0df8&#45;4cbc&#45;9961&#45;568b23ba3788</title>
<path fill="none" stroke="black" d="M74.8,-143.7C74.8,-135.98 74.8,-126.71 74.8,-118.11"/>
<polygon fill="black" stroke="black" points="78.3,-118.1 74.8,-108.1 71.3,-118.1 78.3,-118.1"/>
</g>
<!-- 0c00b1c1&#45;3a4c&#45;4e08&#45;a9b0&#45;4162852dd401 -->
<g id="node5" class="node">
<title>0c00b1c1&#45;3a4c&#45;4e08&#45;a9b0&#45;4162852dd401</title>
<ellipse fill="none" stroke="black" cx="74.8" cy="-18" rx="59.9" ry="18"/>
<text text-anchor="middle" x="74.8" y="-14.3" font-family="Times,serif" font-size="14.00">ZeroMovement</text>
</g>
<!-- aa2be0f1&#45;0df8&#45;4cbc&#45;9961&#45;568b23ba3788&#45;&gt;0c00b1c1&#45;3a4c&#45;4e08&#45;a9b0&#45;4162852dd401 -->
<g id="edge3" class="edge">
<title>aa2be0f1&#45;0df8&#45;4cbc&#45;9961&#45;568b23ba3788&#45;&gt;0c00b1c1&#45;3a4c&#45;4e08&#45;a9b0&#45;4162852dd401</title>
<path fill="none" stroke="black" d="M74.8,-71.7C74.8,-63.98 74.8,-54.71 74.8,-46.11"/>
<polygon fill="black" stroke="black" points="78.3,-46.1 74.8,-36.1 71.3,-46.1 78.3,-46.1"/>
</g>
<!-- 9ade25c2&#45;b02c&#45;461e&#45;a9c4&#45;a09683ba9ddb -->
<g id="node6" class="node">
<title>9ade25c2&#45;b02c&#45;461e&#45;a9c4&#45;a09683ba9ddb</title>
<ellipse fill="none" stroke="black" cx="74.8" cy="-378" rx="34.8" ry="18"/>
<text text-anchor="middle" x="74.8" y="-374.3" font-family="Times,serif" font-size="14.00">WaitArm</text>
</g>
<!-- 9ade25c2&#45;b02c&#45;461e&#45;a9c4&#45;a09683ba9ddb&#45;&gt;e34d40a7&#45;604f&#45;41f4&#45;898e&#45;b5a180e1ddcc -->
<g id="edge5" class="edge">
<title>9ade25c2&#45;b02c&#45;461e&#45;a9c4&#45;a09683ba9ddb&#45;&gt;e34d40a7&#45;604f&#45;41f4&#45;898e&#45;b5a180e1ddcc</title>
<path fill="none" stroke="black" d="M74.8,-359.7C74.8,-351.98 74.8,-342.71 74.8,-334.11"/>
<polygon fill="black" stroke="black" points="78.3,-334.1 74.8,-324.1 71.3,-334.1 78.3,-334.1"/>
</g>
</g>
</svg>
