<?xml version="1.0" encoding="UTF-8" standalone="no"?>
<!DOCTYPE svg PUBLIC "-//W3C//DTD SVG 1.1//EN"
 "http://www.w3.org/Graphics/SVG/1.1/DTD/svg11.dtd">
<!-- Generated by graphviz version 2.43.0 (0)
 -->
<!-- Title: G Pages: 1 -->
<svg width="788pt" height="276pt"
 viewBox="0.00 0.00 788.00 276.00" xmlns="http://www.w3.org/2000/svg" xmlns:xlink="http://www.w3.org/1999/xlink">
<g id="graph0" class="graph" transform="scale(1 1) rotate(0) translate(4 272)">
<title>G</title>
<polygon fill="transparent" stroke="transparent" points="-4,4 -4,-272 784,-272 784,4 -4,4"/>
<g id="clust1" class="cluster">
<title>cluster_1489bf62&#45;bc37&#45;4000&#45;9f90&#45;63ef924006ce</title>
<polygon fill="transparent" stroke="red" stroke-dasharray="5,2" points="8,-64 8,-260 772,-260 772,-64 8,-64"/>
</g>
<!-- 6bf1db7d&#45;e7e7&#45;4562&#45;b354&#45;ae5f7fb4371d -->
<g id="node1" class="node">
<title>6bf1db7d&#45;e7e7&#45;4562&#45;b354&#45;ae5f7fb4371d</title>
<polygon fill="none" stroke="black" stroke-dasharray="5,2" points="417,-252 363,-252 363,-216 417,-216 417,-252"/>
<text text-anchor="middle" x="390" y="-230.3" font-family="Times,serif" font-size="14.00" fill="red">Race</text>
</g>
<!-- 82aa1c36&#45;c080&#45;4ec5&#45;9688&#45;8386b923fa66 -->
<g id="node2" class="node">
<title>82aa1c36&#45;c080&#45;4ec5&#45;9688&#45;8386b923fa66</title>
<ellipse fill="none" stroke="black" cx="62" cy="-162" rx="46.4" ry="18"/>
<text text-anchor="middle" x="62" y="-158.3" font-family="Times,serif" font-size="14.00">AlwaysTrue</text>
</g>
<!-- 6bf1db7d&#45;e7e7&#45;4562&#45;b354&#45;ae5f7fb4371d&#45;&gt;82aa1c36&#45;c080&#45;4ec5&#45;9688&#45;8386b923fa66 -->
<g id="edge1" class="edge">
<title>6bf1db7d&#45;e7e7&#45;4562&#45;b354&#45;ae5f7fb4371d&#45;&gt;82aa1c36&#45;c080&#45;4ec5&#45;9688&#45;8386b923fa66</title>
<path fill="none" stroke="black" d="M362.88,-227.21C307.73,-215.44 181.79,-188.57 111.59,-173.58"/>
<polygon fill="black" stroke="black" points="112.16,-170.13 101.65,-171.46 110.7,-176.97 112.16,-170.13"/>
</g>
<!-- 2f5993a4&#45;c65e&#45;4c65&#45;b9cc&#45;d58aec42242a -->
<g id="node3" class="node">
<title>2f5993a4&#45;c65e&#45;4c65&#45;b9cc&#45;d58aec42242a</title>
<ellipse fill="none" stroke="black" cx="226" cy="-162" rx="46.4" ry="18"/>
<text text-anchor="middle" x="226" y="-158.3" font-family="Times,serif" font-size="14.00">AlwaysTrue</text>
</g>
<!-- 6bf1db7d&#45;e7e7&#45;4562&#45;b354&#45;ae5f7fb4371d&#45;&gt;2f5993a4&#45;c65e&#45;4c65&#45;b9cc&#45;d58aec42242a -->
<g id="edge2" class="edge">
<title>6bf1db7d&#45;e7e7&#45;4562&#45;b354&#45;ae5f7fb4371d&#45;&gt;2f5993a4&#45;c65e&#45;4c65&#45;b9cc&#45;d58aec42242a</title>
<path fill="none" stroke="black" d="M362.92,-221.44C336.32,-210.09 295.45,-192.65 265.29,-179.77"/>
<polygon fill="black" stroke="black" points="266.47,-176.47 255.9,-175.76 263.72,-182.91 266.47,-176.47"/>
</g>
<!-- 5c38c3ef&#45;70bf&#45;478a&#45;9cba&#45;0554f9311f93 -->
<g id="node4" class="node">
<title>5c38c3ef&#45;70bf&#45;478a&#45;9cba&#45;0554f9311f93</title>
<ellipse fill="none" stroke="black" cx="390" cy="-162" rx="46.4" ry="18"/>
<text text-anchor="middle" x="390" y="-158.3" font-family="Times,serif" font-size="14.00">AlwaysTrue</text>
</g>
<!-- 6bf1db7d&#45;e7e7&#45;4562&#45;b354&#45;ae5f7fb4371d&#45;&gt;5c38c3ef&#45;70bf&#45;478a&#45;9cba&#45;0554f9311f93 -->
<g id="edge3" class="edge">
<title>6bf1db7d&#45;e7e7&#45;4562&#45;b354&#45;ae5f7fb4371d&#45;&gt;5c38c3ef&#45;70bf&#45;478a&#45;9cba&#45;0554f9311f93</title>
<path fill="none" stroke="black" d="M390,-215.7C390,-207.98 390,-198.71 390,-190.11"/>
<polygon fill="black" stroke="black" points="393.5,-190.1 390,-180.1 386.5,-190.1 393.5,-190.1"/>
</g>
<!-- 2a6c3679&#45;2c3c&#45;477a&#45;9396&#45;c05e54ceb168 -->
<g id="node5" class="node">
<title>2a6c3679&#45;2c3c&#45;477a&#45;9396&#45;c05e54ceb168</title>
<ellipse fill="none" stroke="black" cx="554" cy="-162" rx="46.4" ry="18"/>
<text text-anchor="middle" x="554" y="-158.3" font-family="Times,serif" font-size="14.00">AlwaysTrue</text>
</g>
<!-- 6bf1db7d&#45;e7e7&#45;4562&#45;b354&#45;ae5f7fb4371d&#45;&gt;2a6c3679&#45;2c3c&#45;477a&#45;9396&#45;c05e54ceb168 -->
<g id="edge4" class="edge">
<title>6bf1db7d&#45;e7e7&#45;4562&#45;b354&#45;ae5f7fb4371d&#45;&gt;2a6c3679&#45;2c3c&#45;477a&#45;9396&#45;c05e54ceb168</title>
<path fill="none" stroke="black" d="M417.08,-221.44C443.68,-210.09 484.55,-192.65 514.71,-179.77"/>
<polygon fill="black" stroke="black" points="516.28,-182.91 524.1,-175.76 513.53,-176.47 516.28,-182.91"/>
</g>
<!-- 5af07c32&#45;d2c4&#45;45f7&#45;8628&#45;85713c73ac8c -->
<g id="node6" class="node">
<title>5af07c32&#45;d2c4&#45;45f7&#45;8628&#45;85713c73ac8c</title>
<ellipse fill="none" stroke="black" cx="718" cy="-162" rx="46.4" ry="18"/>
<text text-anchor="middle" x="718" y="-158.3" font-family="Times,serif" font-size="14.00">AlwaysTrue</text>
</g>
<!-- 6bf1db7d&#45;e7e7&#45;4562&#45;b354&#45;ae5f7fb4371d&#45;&gt;5af07c32&#45;d2c4&#45;45f7&#45;8628&#45;85713c73ac8c -->
<g id="edge5" class="edge">
<title>6bf1db7d&#45;e7e7&#45;4562&#45;b354&#45;ae5f7fb4371d&#45;&gt;5af07c32&#45;d2c4&#45;45f7&#45;8628&#45;85713c73ac8c</title>
<path fill="none" stroke="black" d="M417.12,-227.21C472.27,-215.44 598.21,-188.57 668.41,-173.58"/>
<polygon fill="black" stroke="black" points="669.3,-176.97 678.35,-171.46 667.84,-170.13 669.3,-176.97"/>
</g>
<!-- 7f0440c0&#45;a2f2&#45;4c30&#45;b238&#45;573951f91b36 -->
<g id="node7" class="node">
<title>7f0440c0&#45;a2f2&#45;4c30&#45;b238&#45;573951f91b36</title>
<polygon fill="none" stroke="black" stroke-dasharray="5,2" points="426,-108 354,-108 354,-72 426,-72 426,-108"/>
<text text-anchor="middle" x="390" y="-86.3" font-family="Times,serif" font-size="14.00" fill="red">Resolve</text>
</g>
<!-- 82aa1c36&#45;c080&#45;4ec5&#45;9688&#45;8386b923fa66&#45;&gt;7f0440c0&#45;a2f2&#45;4c30&#45;b238&#45;573951f91b36 -->
<g id="edge6" class="edge">
<title>82aa1c36&#45;c080&#45;4ec5&#45;9688&#45;8386b923fa66&#45;&gt;7f0440c0&#45;a2f2&#45;4c30&#45;b238&#45;573951f91b36</title>
<path fill="none" stroke="black" d="M101.56,-152.56C162.54,-139.54 279.18,-114.65 343.89,-100.84"/>
<polygon fill="black" stroke="black" points="344.76,-104.23 353.81,-98.72 343.3,-97.39 344.76,-104.23"/>
</g>
<!-- 2f5993a4&#45;c65e&#45;4c65&#45;b9cc&#45;d58aec42242a&#45;&gt;7f0440c0&#45;a2f2&#45;4c30&#45;b238&#45;573951f91b36 -->
<g id="edge7" class="edge">
<title>2f5993a4&#45;c65e&#45;4c65&#45;b9cc&#45;d58aec42242a&#45;&gt;7f0440c0&#45;a2f2&#45;4c30&#45;b238&#45;573951f91b36</title>
<path fill="none" stroke="black" d="M256.08,-148.16C280.84,-137.59 316.32,-122.45 344.55,-110.4"/>
<polygon fill="black" stroke="black" points="345.99,-113.59 353.81,-106.45 343.24,-107.15 345.99,-113.59"/>
</g>
<!-- 5c38c3ef&#45;70bf&#45;478a&#45;9cba&#45;0554f9311f93&#45;&gt;7f0440c0&#45;a2f2&#45;4c30&#45;b238&#45;573951f91b36 -->
<g id="edge8" class="edge">
<title>5c38c3ef&#45;70bf&#45;478a&#45;9cba&#45;0554f9311f93&#45;&gt;7f0440c0&#45;a2f2&#45;4c30&#45;b238&#45;573951f91b36</title>
<path fill="none" stroke="black" d="M390,-143.7C390,-135.98 390,-126.71 390,-118.11"/>
<polygon fill="black" stroke="black" points="393.5,-118.1 390,-108.1 386.5,-118.1 393.5,-118.1"/>
</g>
<!-- 2a6c3679&#45;2c3c&#45;477a&#45;9396&#45;c05e54ceb168&#45;&gt;7f0440c0&#45;a2f2&#45;4c30&#45;b238&#45;573951f91b36 -->
<g id="edge9" class="edge">
<title>2a6c3679&#45;2c3c&#45;477a&#45;9396&#45;c05e54ceb168&#45;&gt;7f0440c0&#45;a2f2&#45;4c30&#45;b238&#45;573951f91b36</title>
<path fill="none" stroke="black" d="M523.92,-148.16C499.16,-137.59 463.68,-122.45 435.45,-110.4"/>
<polygon fill="black" stroke="black" points="436.76,-107.15 426.19,-106.45 434.01,-113.59 436.76,-107.15"/>
</g>
<!-- 5af07c32&#45;d2c4&#45;45f7&#45;8628&#45;85713c73ac8c&#45;&gt;7f0440c0&#45;a2f2&#45;4c30&#45;b238&#45;573951f91b36 -->
<g id="edge10" class="edge">
<title>5af07c32&#45;d2c4&#45;45f7&#45;8628&#45;85713c73ac8c&#45;&gt;7f0440c0&#45;a2f2&#45;4c30&#45;b238&#45;573951f91b36</title>
<path fill="none" stroke="black" d="M678.44,-152.56C617.46,-139.54 500.82,-114.65 436.11,-100.84"/>
<polygon fill="black" stroke="black" points="436.7,-97.39 426.19,-98.72 435.24,-104.23 436.7,-97.39"/>
</g>
<!-- 08bce7f4&#45;29c6&#45;47d1&#45;844f&#45;49b889cea404 -->
<g id="node8" class="node">
<title>08bce7f4&#45;29c6&#45;47d1&#45;844f&#45;49b889cea404</title>
<ellipse fill="none" stroke="black" cx="390" cy="-18" rx="46.4" ry="18"/>
<text text-anchor="middle" x="390" y="-14.3" font-family="Times,serif" font-size="14.00">AlwaysTrue</text>
</g>
<!-- 7f0440c0&#45;a2f2&#45;4c30&#45;b238&#45;573951f91b36&#45;&gt;08bce7f4&#45;29c6&#45;47d1&#45;844f&#45;49b889cea404 -->
<g id="edge11" class="edge">
<title>7f0440c0&#45;a2f2&#45;4c30&#45;b238&#45;573951f91b36&#45;&gt;08bce7f4&#45;29c6&#45;47d1&#45;844f&#45;49b889cea404</title>
<path fill="none" stroke="black" d="M390,-71.7C390,-63.98 390,-54.71 390,-46.11"/>
<polygon fill="black" stroke="black" points="393.5,-46.1 390,-36.1 386.5,-46.1 393.5,-46.1"/>
</g>
</g>
</svg>
