<?xml version="1.0" encoding="UTF-8" standalone="no"?>
<!DOCTYPE svg PUBLIC "-//W3C//DTD SVG 1.1//EN"
 "http://www.w3.org/Graphics/SVG/1.1/DTD/svg11.dtd">
<!-- Generated by graphviz version 2.43.0 (0)
 -->
<!-- Title: G Pages: 1 -->
<svg width="249pt" height="276pt"
 viewBox="0.00 0.00 249.00 276.00" xmlns="http://www.w3.org/2000/svg" xmlns:xlink="http://www.w3.org/1999/xlink">
<g id="graph0" class="graph" transform="scale(1 1) rotate(0) translate(4 272)">
<title>G</title>
<polygon fill="transparent" stroke="transparent" points="-4,4 -4,-272 245,-272 245,4 -4,4"/>
<g id="clust1" class="cluster">
<title>cluster_fcfa470e&#45;e11e&#45;409c&#45;b0e9&#45;fa16f0fa22ff</title>
<polygon fill="transparent" stroke="blue" stroke-dasharray="5,2" points="8,-64 8,-260 233,-260 233,-64 8,-64"/>
</g>
<!-- 1e7e052c&#45;5650&#45;41b5&#45;ac84&#45;d142f941237d -->
<g id="node1" class="node">
<title>1e7e052c&#45;5650&#45;41b5&#45;ac84&#45;d142f941237d</title>
<polygon fill="none" stroke="black" stroke-dasharray="5,2" points="169,-252 71,-252 71,-216 169,-216 169,-252"/>
<text text-anchor="middle" x="120" y="-230.3" font-family="Times,serif" font-size="14.00" fill="blue">Concurrent</text>
</g>
<!-- a2e0952f&#45;4d66&#45;4d2f&#45;a502&#45;e6ee1634dd29 -->
<g id="node3" class="node">
<title>a2e0952f&#45;4d66&#45;4d2f&#45;a502&#45;e6ee1634dd29</title>
<ellipse fill="none" stroke="black" cx="51" cy="-162" rx="34.8" ry="18"/>
<text text-anchor="middle" x="51" y="-158.3" font-family="Times,serif" font-size="14.00">WaitArm</text>
</g>
<!-- 1e7e052c&#45;5650&#45;41b5&#45;ac84&#45;d142f941237d&#45;&gt;a2e0952f&#45;4d66&#45;4d2f&#45;a502&#45;e6ee1634dd29 -->
<g id="edge1" class="edge">
<title>1e7e052c&#45;5650&#45;41b5&#45;ac84&#45;d142f941237d&#45;&gt;a2e0952f&#45;4d66&#45;4d2f&#45;a502&#45;e6ee1634dd29</title>
<path fill="none" stroke="black" d="M102.94,-215.7C94.13,-206.75 83.25,-195.71 73.73,-186.06"/>
<polygon fill="black" stroke="black" points="75.96,-183.34 66.45,-178.67 70.97,-188.25 75.96,-183.34"/>
</g>
<!-- d84f24aa&#45;2f2c&#45;459b&#45;86e4&#45;cb88b9682843 -->
<g id="node4" class="node">
<title>d84f24aa&#45;2f2c&#45;459b&#45;86e4&#45;cb88b9682843</title>
<ellipse fill="none" stroke="black" cx="191" cy="-162" rx="33.6" ry="18"/>
<text text-anchor="middle" x="191" y="-158.3" font-family="Times,serif" font-size="14.00">Descend</text>
</g>
<!-- 1e7e052c&#45;5650&#45;41b5&#45;ac84&#45;d142f941237d&#45;&gt;d84f24aa&#45;2f2c&#45;459b&#45;86e4&#45;cb88b9682843 -->
<g id="edge2" class="edge">
<title>1e7e052c&#45;5650&#45;41b5&#45;ac84&#45;d142f941237d&#45;&gt;d84f24aa&#45;2f2c&#45;459b&#45;86e4&#45;cb88b9682843</title>
<path fill="none" stroke="black" d="M137.55,-215.7C146.84,-206.53 158.36,-195.18 168.33,-185.35"/>
<polygon fill="black" stroke="black" points="170.92,-187.72 175.58,-178.2 166,-182.73 170.92,-187.72"/>
</g>
<!-- 1df6e99f&#45;da2d&#45;4c77&#45;b0a3&#45;214849876845 -->
<g id="node2" class="node">
<title>1df6e99f&#45;da2d&#45;4c77&#45;b0a3&#45;214849876845</title>
<polygon fill="none" stroke="black" stroke-dasharray="5,2" points="162.5,-108 77.5,-108 77.5,-72 162.5,-72 162.5,-108"/>
<text text-anchor="middle" x="120" y="-86.3" font-family="Times,serif" font-size="14.00" fill="blue">Converge</text>
</g>
<!-- aee99ae4&#45;9da3&#45;4c97&#45;9a57&#45;0594da9e1d1f -->
<g id="node5" class="node">
<title>aee99ae4&#45;9da3&#45;4c97&#45;9a57&#45;0594da9e1d1f</title>
<ellipse fill="none" stroke="black" cx="120" cy="-18" rx="34.8" ry="18"/>
<text text-anchor="middle" x="120" y="-14.3" font-family="Times,serif" font-size="14.00">WaitArm</text>
</g>
<!-- 1df6e99f&#45;da2d&#45;4c77&#45;b0a3&#45;214849876845&#45;&gt;aee99ae4&#45;9da3&#45;4c97&#45;9a57&#45;0594da9e1d1f -->
<g id="edge5" class="edge">
<title>1df6e99f&#45;da2d&#45;4c77&#45;b0a3&#45;214849876845&#45;&gt;aee99ae4&#45;9da3&#45;4c97&#45;9a57&#45;0594da9e1d1f</title>
<path fill="none" stroke="black" d="M120,-71.7C120,-63.98 120,-54.71 120,-46.11"/>
<polygon fill="black" stroke="black" points="123.5,-46.1 120,-36.1 116.5,-46.1 123.5,-46.1"/>
</g>
<!-- a2e0952f&#45;4d66&#45;4d2f&#45;a502&#45;e6ee1634dd29&#45;&gt;1df6e99f&#45;da2d&#45;4c77&#45;b0a3&#45;214849876845 -->
<g id="edge3" class="edge">
<title>a2e0952f&#45;4d66&#45;4d2f&#45;a502&#45;e6ee1634dd29&#45;&gt;1df6e99f&#45;da2d&#45;4c77&#45;b0a3&#45;214849876845</title>
<path fill="none" stroke="black" d="M66.31,-145.46C74.92,-136.73 85.86,-125.63 95.62,-115.74"/>
<polygon fill="black" stroke="black" points="98.26,-118.04 102.79,-108.46 93.28,-113.13 98.26,-118.04"/>
</g>
<!-- d84f24aa&#45;2f2c&#45;459b&#45;86e4&#45;cb88b9682843&#45;&gt;1df6e99f&#45;da2d&#45;4c77&#45;b0a3&#45;214849876845 -->
<g id="edge4" class="edge">
<title>d84f24aa&#45;2f2c&#45;459b&#45;86e4&#45;cb88b9682843&#45;&gt;1df6e99f&#45;da2d&#45;4c77&#45;b0a3&#45;214849876845</title>
<path fill="none" stroke="black" d="M175.59,-145.81C166.54,-136.88 154.88,-125.38 144.57,-115.23"/>
<polygon fill="black" stroke="black" points="146.95,-112.66 137.37,-108.13 142.04,-117.64 146.95,-112.66"/>
</g>
</g>
</svg>
