<?xml version="1.0" encoding="UTF-8" standalone="no"?>
<!DOCTYPE svg PUBLIC "-//W3C//DTD SVG 1.1//EN"
 "http://www.w3.org/Graphics/SVG/1.1/DTD/svg11.dtd">
<!-- Generated by graphviz version 2.43.0 (0)
 -->
<!-- Title: G Pages: 1 -->
<svg width="249pt" height="276pt"
 viewBox="0.00 0.00 249.00 276.00" xmlns="http://www.w3.org/2000/svg" xmlns:xlink="http://www.w3.org/1999/xlink">
<g id="graph0" class="graph" transform="scale(1 1) rotate(0) translate(4 272)">
<title>G</title>
<polygon fill="transparent" stroke="transparent" points="-4,4 -4,-272 245,-272 245,4 -4,4"/>
<g id="clust1" class="cluster">
<title>cluster_2a72e5ac&#45;ec53&#45;4a9f&#45;a137&#45;b7cc22d1d941</title>
<polygon fill="transparent" stroke="blue" stroke-dasharray="5,2" points="8,-64 8,-260 233,-260 233,-64 8,-64"/>
</g>
<!-- d341c115&#45;e9a9&#45;453a&#45;abd7&#45;7e3027c032f3 -->
<g id="node1" class="node">
<title>d341c115&#45;e9a9&#45;453a&#45;abd7&#45;7e3027c032f3</title>
<polygon fill="none" stroke="black" stroke-dasharray="5,2" points="169,-252 71,-252 71,-216 169,-216 169,-252"/>
<text text-anchor="middle" x="120" y="-230.3" font-family="Times,serif" font-size="14.00" fill="blue">Concurrent</text>
</g>
<!-- 33817213&#45;4e7c&#45;4794&#45;b438&#45;0ff6fb3753bc -->
<g id="node2" class="node">
<title>33817213&#45;4e7c&#45;4794&#45;b438&#45;0ff6fb3753bc</title>
<ellipse fill="none" stroke="black" cx="51" cy="-162" rx="34.8" ry="18"/>
<text text-anchor="middle" x="51" y="-158.3" font-family="Times,serif" font-size="14.00">WaitArm</text>
</g>
<!-- d341c115&#45;e9a9&#45;453a&#45;abd7&#45;7e3027c032f3&#45;&gt;33817213&#45;4e7c&#45;4794&#45;b438&#45;0ff6fb3753bc -->
<g id="edge1" class="edge">
<title>d341c115&#45;e9a9&#45;453a&#45;abd7&#45;7e3027c032f3&#45;&gt;33817213&#45;4e7c&#45;4794&#45;b438&#45;0ff6fb3753bc</title>
<path fill="none" stroke="black" d="M102.94,-215.7C94.13,-206.75 83.25,-195.71 73.73,-186.06"/>
<polygon fill="black" stroke="black" points="75.96,-183.34 66.45,-178.67 70.97,-188.25 75.96,-183.34"/>
</g>
<!-- d9685d11&#45;f153&#45;48e8&#45;828b&#45;451bf05b3107 -->
<g id="node3" class="node">
<title>d9685d11&#45;f153&#45;48e8&#45;828b&#45;451bf05b3107</title>
<ellipse fill="none" stroke="black" cx="191" cy="-162" rx="33.6" ry="18"/>
<text text-anchor="middle" x="191" y="-158.3" font-family="Times,serif" font-size="14.00">Descend</text>
</g>
<!-- d341c115&#45;e9a9&#45;453a&#45;abd7&#45;7e3027c032f3&#45;&gt;d9685d11&#45;f153&#45;48e8&#45;828b&#45;451bf05b3107 -->
<g id="edge2" class="edge">
<title>d341c115&#45;e9a9&#45;453a&#45;abd7&#45;7e3027c032f3&#45;&gt;d9685d11&#45;f153&#45;48e8&#45;828b&#45;451bf05b3107</title>
<path fill="none" stroke="black" d="M137.55,-215.7C146.84,-206.53 158.36,-195.18 168.33,-185.35"/>
<polygon fill="black" stroke="black" points="170.92,-187.72 175.58,-178.2 166,-182.73 170.92,-187.72"/>
</g>
<!-- 9a07095b&#45;1a40&#45;4579&#45;8595&#45;4e6c0090ac13 -->
<g id="node4" class="node">
<title>9a07095b&#45;1a40&#45;4579&#45;8595&#45;4e6c0090ac13</title>
<polygon fill="none" stroke="black" stroke-dasharray="5,2" points="162.5,-108 77.5,-108 77.5,-72 162.5,-72 162.5,-108"/>
<text text-anchor="middle" x="120" y="-86.3" font-family="Times,serif" font-size="14.00" fill="blue">Converge</text>
</g>
<!-- 33817213&#45;4e7c&#45;4794&#45;b438&#45;0ff6fb3753bc&#45;&gt;9a07095b&#45;1a40&#45;4579&#45;8595&#45;4e6c0090ac13 -->
<g id="edge3" class="edge">
<title>33817213&#45;4e7c&#45;4794&#45;b438&#45;0ff6fb3753bc&#45;&gt;9a07095b&#45;1a40&#45;4579&#45;8595&#45;4e6c0090ac13</title>
<path fill="none" stroke="black" d="M66.31,-145.46C74.92,-136.73 85.86,-125.63 95.62,-115.74"/>
<polygon fill="black" stroke="black" points="98.26,-118.04 102.79,-108.46 93.28,-113.13 98.26,-118.04"/>
</g>
<!-- d9685d11&#45;f153&#45;48e8&#45;828b&#45;451bf05b3107&#45;&gt;9a07095b&#45;1a40&#45;4579&#45;8595&#45;4e6c0090ac13 -->
<g id="edge4" class="edge">
<title>d9685d11&#45;f153&#45;48e8&#45;828b&#45;451bf05b3107&#45;&gt;9a07095b&#45;1a40&#45;4579&#45;8595&#45;4e6c0090ac13</title>
<path fill="none" stroke="black" d="M175.59,-145.81C166.54,-136.88 154.88,-125.38 144.57,-115.23"/>
<polygon fill="black" stroke="black" points="146.95,-112.66 137.37,-108.13 142.04,-117.64 146.95,-112.66"/>
</g>
<!-- c37d37c4&#45;2bea&#45;4c9d&#45;b632&#45;2427917b1d61 -->
<g id="node5" class="node">
<title>c37d37c4&#45;2bea&#45;4c9d&#45;b632&#45;2427917b1d61</title>
<ellipse fill="none" stroke="black" cx="120" cy="-18" rx="34.8" ry="18"/>
<text text-anchor="middle" x="120" y="-14.3" font-family="Times,serif" font-size="14.00">WaitArm</text>
</g>
<!-- 9a07095b&#45;1a40&#45;4579&#45;8595&#45;4e6c0090ac13&#45;&gt;c37d37c4&#45;2bea&#45;4c9d&#45;b632&#45;2427917b1d61 -->
<g id="edge5" class="edge">
<title>9a07095b&#45;1a40&#45;4579&#45;8595&#45;4e6c0090ac13&#45;&gt;c37d37c4&#45;2bea&#45;4c9d&#45;b632&#45;2427917b1d61</title>
<path fill="none" stroke="black" d="M120,-71.7C120,-63.98 120,-54.71 120,-46.11"/>
<polygon fill="black" stroke="black" points="123.5,-46.1 120,-36.1 116.5,-46.1 123.5,-46.1"/>
</g>
</g>
</svg>
