<?xml version="1.0" encoding="UTF-8" standalone="no"?>
<!DOCTYPE svg PUBLIC "-//W3C//DTD SVG 1.1//EN"
 "http://www.w3.org/Graphics/SVG/1.1/DTD/svg11.dtd">
<!-- Generated by graphviz version 2.43.0 (0)
 -->
<!-- Title: G Pages: 1 -->
<svg width="336pt" height="728pt"
 viewBox="0.00 0.00 336.00 728.00" xmlns="http://www.w3.org/2000/svg" xmlns:xlink="http://www.w3.org/1999/xlink">
<g id="graph0" class="graph" transform="scale(1 1) rotate(0) translate(4 724)">
<title>G</title>
<polygon fill="transparent" stroke="transparent" points="-4,4 -4,-724 332,-724 332,4 -4,4"/>
<g id="clust1" class="cluster">
<title>cluster_40533554&#45;68c3&#45;47e5&#45;8ca1&#45;55aa40cd964d</title>
<polygon fill="transparent" stroke="blue" stroke-dasharray="5,2" points="8,-8 8,-568 320,-568 320,-8 8,-8"/>
</g>
<!-- f7917c47&#45;90a5&#45;40ce&#45;b48d&#45;216519f7d257 -->
<g id="node1" class="node">
<title>f7917c47&#45;90a5&#45;40ce&#45;b48d&#45;216519f7d257</title>
<ellipse fill="none" stroke="black" cx="95" cy="-121" rx="67.81" ry="18"/>
<text text-anchor="middle" x="95" y="-117.3" font-family="Times,serif" font-size="14.00">LinearYawFromX</text>
</g>
<!-- 5e3e111c&#45;fa31&#45;4f17&#45;ae3d&#45;0a7bd71ef651 -->
<g id="node2" class="node">
<title>5e3e111c&#45;fa31&#45;4f17&#45;ae3d&#45;0a7bd71ef651</title>
<ellipse fill="none" stroke="black" cx="96" cy="-34" rx="80.11" ry="18"/>
<text text-anchor="middle" x="96" y="-30.3" font-family="Times,serif" font-size="14.00">Stability2Movement</text>
</g>
<!-- f7917c47&#45;90a5&#45;40ce&#45;b48d&#45;216519f7d257&#45;&gt;5e3e111c&#45;fa31&#45;4f17&#45;ae3d&#45;0a7bd71ef651 -->
<g id="edge1" class="edge">
<title>f7917c47&#45;90a5&#45;40ce&#45;b48d&#45;216519f7d257&#45;&gt;5e3e111c&#45;fa31&#45;4f17&#45;ae3d&#45;0a7bd71ef651</title>
<path fill="none" stroke="purple" d="M95.2,-102.8C95.34,-91.16 95.52,-75.55 95.68,-62.24"/>
<polygon fill="purple" stroke="purple" points="99.18,-62.22 95.8,-52.18 92.18,-62.13 99.18,-62.22"/>
<text text-anchor="middle" x="130.5" y="-73.8" font-family="Times,serif" font-size="14.00" fill="purple">Pass Data</text>
</g>
<!-- cbc4ccee&#45;e880&#45;4a89&#45;9246&#45;8c869ec6b123 -->
<g id="node3" class="node">
<title>cbc4ccee&#45;e880&#45;4a89&#45;9246&#45;8c869ec6b123</title>
<ellipse fill="none" stroke="black" cx="95" cy="-208" rx="51.3" ry="18"/>
<text text-anchor="middle" x="95" y="-204.3" font-family="Times,serif" font-size="14.00">OffsetToPose</text>
</g>
<!-- cbc4ccee&#45;e880&#45;4a89&#45;9246&#45;8c869ec6b123&#45;&gt;f7917c47&#45;90a5&#45;40ce&#45;b48d&#45;216519f7d257 -->
<g id="edge2" class="edge">
<title>cbc4ccee&#45;e880&#45;4a89&#45;9246&#45;8c869ec6b123&#45;&gt;f7917c47&#45;90a5&#45;40ce&#45;b48d&#45;216519f7d257</title>
<path fill="none" stroke="purple" d="M95,-189.8C95,-178.16 95,-162.55 95,-149.24"/>
<polygon fill="purple" stroke="purple" points="98.5,-149.18 95,-139.18 91.5,-149.18 98.5,-149.18"/>
<text text-anchor="middle" x="130.5" y="-160.8" font-family="Times,serif" font-size="14.00" fill="purple">Pass Data</text>
</g>
<!-- a0622f23&#45;e457&#45;4e3f&#45;abb4&#45;8d44705ecbcc -->
<g id="node4" class="node">
<title>a0622f23&#45;e457&#45;4e3f&#45;abb4&#45;8d44705ecbcc</title>
<ellipse fill="none" stroke="black" cx="94" cy="-295" rx="35.5" ry="18"/>
<text text-anchor="middle" x="94" y="-291.3" font-family="Times,serif" font-size="14.00">MidPoint</text>
</g>
<!-- a0622f23&#45;e457&#45;4e3f&#45;abb4&#45;8d44705ecbcc&#45;&gt;cbc4ccee&#45;e880&#45;4a89&#45;9246&#45;8c869ec6b123 -->
<g id="edge3" class="edge">
<title>a0622f23&#45;e457&#45;4e3f&#45;abb4&#45;8d44705ecbcc&#45;&gt;cbc4ccee&#45;e880&#45;4a89&#45;9246&#45;8c869ec6b123</title>
<path fill="none" stroke="purple" d="M94.2,-276.8C94.34,-265.16 94.52,-249.55 94.68,-236.24"/>
<polygon fill="purple" stroke="purple" points="98.18,-236.22 94.8,-226.18 91.18,-236.13 98.18,-236.22"/>
<text text-anchor="middle" x="129.5" y="-247.8" font-family="Times,serif" font-size="14.00" fill="purple">Pass Data</text>
</g>
<!-- cc577bbd&#45;8f33&#45;473d&#45;b384&#45;5d770742c436 -->
<g id="node5" class="node">
<title>cc577bbd&#45;8f33&#45;473d&#45;b384&#45;5d770742c436</title>
<ellipse fill="none" stroke="black" cx="92" cy="-382" rx="61.1" ry="18"/>
<text text-anchor="middle" x="92" y="-378.3" font-family="Times,serif" font-size="14.00">ExtractPosition</text>
</g>
<!-- cc577bbd&#45;8f33&#45;473d&#45;b384&#45;5d770742c436&#45;&gt;a0622f23&#45;e457&#45;4e3f&#45;abb4&#45;8d44705ecbcc -->
<g id="edge4" class="edge">
<title>cc577bbd&#45;8f33&#45;473d&#45;b384&#45;5d770742c436&#45;&gt;a0622f23&#45;e457&#45;4e3f&#45;abb4&#45;8d44705ecbcc</title>
<path fill="none" stroke="purple" d="M92.4,-363.8C92.68,-352.16 93.05,-336.55 93.36,-323.24"/>
<polygon fill="purple" stroke="purple" points="96.86,-323.26 93.6,-313.18 89.86,-323.09 96.86,-323.26"/>
<text text-anchor="middle" x="128.5" y="-334.8" font-family="Times,serif" font-size="14.00" fill="purple">Pass Data</text>
</g>
<!-- 505766df&#45;f6ae&#45;4e03&#45;a0ba&#45;d8b6e9250adc -->
<g id="node6" class="node">
<title>505766df&#45;f6ae&#45;4e03&#45;a0ba&#45;d8b6e9250adc</title>
<ellipse fill="none" stroke="black" cx="43" cy="-469" rx="27" ry="18"/>
<text text-anchor="middle" x="43" y="-465.3" font-family="Times,serif" font-size="14.00">ToVec</text>
</g>
<!-- 505766df&#45;f6ae&#45;4e03&#45;a0ba&#45;d8b6e9250adc&#45;&gt;cc577bbd&#45;8f33&#45;473d&#45;b384&#45;5d770742c436 -->
<g id="edge5" class="edge">
<title>505766df&#45;f6ae&#45;4e03&#45;a0ba&#45;d8b6e9250adc&#45;&gt;cc577bbd&#45;8f33&#45;473d&#45;b384&#45;5d770742c436</title>
<path fill="none" stroke="purple" d="M52.22,-452.01C59.27,-439.78 69.13,-422.68 77.27,-408.56"/>
<polygon fill="purple" stroke="purple" points="80.36,-410.2 82.32,-399.79 74.3,-406.7 80.36,-410.2"/>
<text text-anchor="middle" x="105.5" y="-421.8" font-family="Times,serif" font-size="14.00" fill="purple">Pass Data</text>
</g>
<!-- 36f069f3&#45;1927&#45;405e&#45;b779&#45;0e9c15bc78c2 -->
<g id="node7" class="node">
<title>36f069f3&#45;1927&#45;405e&#45;b779&#45;0e9c15bc78c2</title>
<polygon fill="none" stroke="black" stroke-dasharray="5,2" points="195,-560 97,-560 97,-524 195,-524 195,-560"/>
<text text-anchor="middle" x="146" y="-538.3" font-family="Times,serif" font-size="14.00" fill="blue">Concurrent</text>
</g>
<!-- 36f069f3&#45;1927&#45;405e&#45;b779&#45;0e9c15bc78c2&#45;&gt;505766df&#45;f6ae&#45;4e03&#45;a0ba&#45;d8b6e9250adc -->
<g id="edge6" class="edge">
<title>36f069f3&#45;1927&#45;405e&#45;b779&#45;0e9c15bc78c2&#45;&gt;505766df&#45;f6ae&#45;4e03&#45;a0ba&#45;d8b6e9250adc</title>
<path fill="none" stroke="black" d="M121.33,-523.99C105.66,-513.19 85.4,-499.23 69.41,-488.2"/>
<polygon fill="black" stroke="black" points="71.24,-485.21 61.02,-482.42 67.27,-490.98 71.24,-485.21"/>
</g>
<!-- 7a83f8dd&#45;9b9e&#45;4d2c&#45;89d1&#45;c87675ca0cc1 -->
<g id="node8" class="node">
<title>7a83f8dd&#45;9b9e&#45;4d2c&#45;89d1&#45;c87675ca0cc1</title>
<ellipse fill="none" stroke="black" cx="227" cy="-469" rx="85.01" ry="18"/>
<text text-anchor="middle" x="227" y="-465.3" font-family="Times,serif" font-size="14.00">Consecutive True &lt; 3</text>
</g>
<!-- 36f069f3&#45;1927&#45;405e&#45;b779&#45;0e9c15bc78c2&#45;&gt;7a83f8dd&#45;9b9e&#45;4d2c&#45;89d1&#45;c87675ca0cc1 -->
<g id="edge7" class="edge">
<title>36f069f3&#45;1927&#45;405e&#45;b779&#45;0e9c15bc78c2&#45;&gt;7a83f8dd&#45;9b9e&#45;4d2c&#45;89d1&#45;c87675ca0cc1</title>
<path fill="none" stroke="black" d="M165.61,-523.81C176.03,-514.68 189,-503.31 200.32,-493.38"/>
<polygon fill="black" stroke="black" points="202.64,-496.01 207.85,-486.78 198.03,-490.74 202.64,-496.01"/>
</g>
<!-- 705cf909&#45;178c&#45;474b&#45;b008&#45;14ef4f1ca931 -->
<g id="node9" class="node">
<title>705cf909&#45;178c&#45;474b&#45;b008&#45;14ef4f1ca931</title>
<ellipse fill="none" stroke="black" cx="146" cy="-629" rx="75.21" ry="18"/>
<text text-anchor="middle" x="146" y="-625.3" font-family="Times,serif" font-size="14.00">VisionNormBottom</text>
</g>
<!-- 705cf909&#45;178c&#45;474b&#45;b008&#45;14ef4f1ca931&#45;&gt;36f069f3&#45;1927&#45;405e&#45;b779&#45;0e9c15bc78c2 -->
<g id="edge8" class="edge">
<title>705cf909&#45;178c&#45;474b&#45;b008&#45;14ef4f1ca931&#45;&gt;36f069f3&#45;1927&#45;405e&#45;b779&#45;0e9c15bc78c2</title>
<path fill="none" stroke="purple" d="M146,-610.8C146,-599.16 146,-583.55 146,-570.24"/>
<polygon fill="purple" stroke="purple" points="149.5,-570.18 146,-560.18 142.5,-570.18 149.5,-570.18"/>
<text text-anchor="middle" x="181.5" y="-581.8" font-family="Times,serif" font-size="14.00" fill="purple">Pass Data</text>
</g>
<!-- e7c9ae0c&#45;ba34&#45;4f95&#45;bf0b&#45;5a6fa8c1d6c5 -->
<g id="node10" class="node">
<title>e7c9ae0c&#45;ba34&#45;4f95&#45;bf0b&#45;5a6fa8c1d6c5</title>
<ellipse fill="none" stroke="black" cx="146" cy="-702" rx="59.9" ry="18"/>
<text text-anchor="middle" x="146" y="-698.3" font-family="Times,serif" font-size="14.00">ZeroMovement</text>
</g>
<!-- e7c9ae0c&#45;ba34&#45;4f95&#45;bf0b&#45;5a6fa8c1d6c5&#45;&gt;705cf909&#45;178c&#45;474b&#45;b008&#45;14ef4f1ca931 -->
<g id="edge9" class="edge">
<title>e7c9ae0c&#45;ba34&#45;4f95&#45;bf0b&#45;5a6fa8c1d6c5&#45;&gt;705cf909&#45;178c&#45;474b&#45;b008&#45;14ef4f1ca931</title>
<path fill="none" stroke="black" d="M146,-683.81C146,-675.79 146,-666.05 146,-657.07"/>
<polygon fill="black" stroke="black" points="149.5,-657.03 146,-647.03 142.5,-657.03 149.5,-657.03"/>
</g>
</g>
</svg>
