<?xml version="1.0" encoding="UTF-8" standalone="no"?>
<!DOCTYPE svg PUBLIC "-//W3C//DTD SVG 1.1//EN"
 "http://www.w3.org/Graphics/SVG/1.1/DTD/svg11.dtd">
<!-- Generated by graphviz version 2.43.0 (0)
 -->
<!-- Title: G Pages: 1 -->
<svg width="158pt" height="404pt"
 viewBox="0.00 0.00 157.61 404.00" xmlns="http://www.w3.org/2000/svg" xmlns:xlink="http://www.w3.org/1999/xlink">
<g id="graph0" class="graph" transform="scale(1 1) rotate(0) translate(4 400)">
<title>G</title>
<polygon fill="transparent" stroke="transparent" points="-4,4 -4,-400 153.61,-400 153.61,4 -4,4"/>
<!-- 368ea998&#45;159b&#45;4f76&#45;8624&#45;b1c121660715 -->
<g id="node1" class="node">
<title>368ea998&#45;159b&#45;4f76&#45;8624&#45;b1c121660715</title>
<ellipse fill="none" stroke="black" cx="74.8" cy="-306" rx="33.6" ry="18"/>
<text text-anchor="middle" x="74.8" y="-302.3" font-family="Times,serif" font-size="14.00">Descend</text>
</g>
<!-- 835d1a1b&#45;e3ff&#45;452b&#45;9290&#45;56d50f87ec0d -->
<g id="node2" class="node">
<title>835d1a1b&#45;e3ff&#45;452b&#45;9290&#45;56d50f87ec0d</title>
<ellipse fill="none" stroke="black" cx="74.8" cy="-234" rx="47.1" ry="18"/>
<text text-anchor="middle" x="74.8" y="-230.3" font-family="Times,serif" font-size="14.00">DelayAction</text>
</g>
<!-- 368ea998&#45;159b&#45;4f76&#45;8624&#45;b1c121660715&#45;&gt;835d1a1b&#45;e3ff&#45;452b&#45;9290&#45;56d50f87ec0d -->
<g id="edge1" class="edge">
<title>368ea998&#45;159b&#45;4f76&#45;8624&#45;b1c121660715&#45;&gt;835d1a1b&#45;e3ff&#45;452b&#45;9290&#45;56d50f87ec0d</title>
<path fill="none" stroke="black" d="M74.8,-287.7C74.8,-279.98 74.8,-270.71 74.8,-262.11"/>
<polygon fill="black" stroke="black" points="78.3,-262.1 74.8,-252.1 71.3,-262.1 78.3,-262.1"/>
</g>
<!-- 595c87a6&#45;d83d&#45;46bd&#45;a051&#45;475c456b2d54 -->
<g id="node3" class="node">
<title>595c87a6&#45;d83d&#45;46bd&#45;a051&#45;475c456b2d54</title>
<ellipse fill="none" stroke="black" cx="74.8" cy="-162" rx="74.61" ry="18"/>
<text text-anchor="middle" x="74.8" y="-158.3" font-family="Times,serif" font-size="14.00">StraightMovement</text>
</g>
<!-- 835d1a1b&#45;e3ff&#45;452b&#45;9290&#45;56d50f87ec0d&#45;&gt;595c87a6&#45;d83d&#45;46bd&#45;a051&#45;475c456b2d54 -->
<g id="edge4" class="edge">
<title>835d1a1b&#45;e3ff&#45;452b&#45;9290&#45;56d50f87ec0d&#45;&gt;595c87a6&#45;d83d&#45;46bd&#45;a051&#45;475c456b2d54</title>
<path fill="none" stroke="black" d="M74.8,-215.7C74.8,-207.98 74.8,-198.71 74.8,-190.11"/>
<polygon fill="black" stroke="black" points="78.3,-190.1 74.8,-180.1 71.3,-190.1 78.3,-190.1"/>
</g>
<!-- 615d8381&#45;7149&#45;4782&#45;a25a&#45;57f2d01f591e -->
<g id="node4" class="node">
<title>615d8381&#45;7149&#45;4782&#45;a25a&#45;57f2d01f591e</title>
<ellipse fill="none" stroke="black" cx="74.8" cy="-90" rx="47.1" ry="18"/>
<text text-anchor="middle" x="74.8" y="-86.3" font-family="Times,serif" font-size="14.00">DelayAction</text>
</g>
<!-- 595c87a6&#45;d83d&#45;46bd&#45;a051&#45;475c456b2d54&#45;&gt;615d8381&#45;7149&#45;4782&#45;a25a&#45;57f2d01f591e -->
<g id="edge2" class="edge">
<title>595c87a6&#45;d83d&#45;46bd&#45;a051&#45;475c456b2d54&#45;&gt;615d8381&#45;7149&#45;4782&#45;a25a&#45;57f2d01f591e</title>
<path fill="none" stroke="black" d="M74.8,-143.7C74.8,-135.98 74.8,-126.71 74.8,-118.11"/>
<polygon fill="black" stroke="black" points="78.3,-118.1 74.8,-108.1 71.3,-118.1 78.3,-118.1"/>
</g>
<!-- 760abca2&#45;d32a&#45;4bcf&#45;aa66&#45;34e40f4f5baf -->
<g id="node5" class="node">
<title>760abca2&#45;d32a&#45;4bcf&#45;aa66&#45;34e40f4f5baf</title>
<ellipse fill="none" stroke="black" cx="74.8" cy="-18" rx="59.9" ry="18"/>
<text text-anchor="middle" x="74.8" y="-14.3" font-family="Times,serif" font-size="14.00">ZeroMovement</text>
</g>
<!-- 615d8381&#45;7149&#45;4782&#45;a25a&#45;57f2d01f591e&#45;&gt;760abca2&#45;d32a&#45;4bcf&#45;aa66&#45;34e40f4f5baf -->
<g id="edge3" class="edge">
<title>615d8381&#45;7149&#45;4782&#45;a25a&#45;57f2d01f591e&#45;&gt;760abca2&#45;d32a&#45;4bcf&#45;aa66&#45;34e40f4f5baf</title>
<path fill="none" stroke="black" d="M74.8,-71.7C74.8,-63.98 74.8,-54.71 74.8,-46.11"/>
<polygon fill="black" stroke="black" points="78.3,-46.1 74.8,-36.1 71.3,-46.1 78.3,-46.1"/>
</g>
<!-- 92f48f80&#45;b2c1&#45;452b&#45;bda1&#45;86610f4a010b -->
<g id="node6" class="node">
<title>92f48f80&#45;b2c1&#45;452b&#45;bda1&#45;86610f4a010b</title>
<ellipse fill="none" stroke="black" cx="74.8" cy="-378" rx="34.8" ry="18"/>
<text text-anchor="middle" x="74.8" y="-374.3" font-family="Times,serif" font-size="14.00">WaitArm</text>
</g>
<!-- 92f48f80&#45;b2c1&#45;452b&#45;bda1&#45;86610f4a010b&#45;&gt;368ea998&#45;159b&#45;4f76&#45;8624&#45;b1c121660715 -->
<g id="edge5" class="edge">
<title>92f48f80&#45;b2c1&#45;452b&#45;bda1&#45;86610f4a010b&#45;&gt;368ea998&#45;159b&#45;4f76&#45;8624&#45;b1c121660715</title>
<path fill="none" stroke="black" d="M74.8,-359.7C74.8,-351.98 74.8,-342.71 74.8,-334.11"/>
<polygon fill="black" stroke="black" points="78.3,-334.1 74.8,-324.1 71.3,-334.1 78.3,-334.1"/>
</g>
</g>
</svg>
