<?xml version="1.0" encoding="UTF-8" standalone="no"?>
<!DOCTYPE svg PUBLIC "-//W3C//DTD SVG 1.1//EN"
 "http://www.w3.org/Graphics/SVG/1.1/DTD/svg11.dtd">
<!-- Generated by graphviz version 2.43.0 (0)
 -->
<!-- Title: G Pages: 1 -->
<svg width="158pt" height="404pt"
 viewBox="0.00 0.00 157.61 404.00" xmlns="http://www.w3.org/2000/svg" xmlns:xlink="http://www.w3.org/1999/xlink">
<g id="graph0" class="graph" transform="scale(1 1) rotate(0) translate(4 400)">
<title>G</title>
<polygon fill="transparent" stroke="transparent" points="-4,4 -4,-400 153.61,-400 153.61,4 -4,4"/>
<!-- a34a8f2f&#45;391a&#45;4a84&#45;8fae&#45;96f17b0ae72c -->
<g id="node1" class="node">
<title>a34a8f2f&#45;391a&#45;4a84&#45;8fae&#45;96f17b0ae72c</title>
<ellipse fill="none" stroke="black" cx="74.8" cy="-306" rx="33.6" ry="18"/>
<text text-anchor="middle" x="74.8" y="-302.3" font-family="Times,serif" font-size="14.00">Descend</text>
</g>
<!-- 3912ac9b&#45;775c&#45;441a&#45;9b6a&#45;3c0b10b07135 -->
<g id="node2" class="node">
<title>3912ac9b&#45;775c&#45;441a&#45;9b6a&#45;3c0b10b07135</title>
<ellipse fill="none" stroke="black" cx="74.8" cy="-234" rx="47.1" ry="18"/>
<text text-anchor="middle" x="74.8" y="-230.3" font-family="Times,serif" font-size="14.00">DelayAction</text>
</g>
<!-- a34a8f2f&#45;391a&#45;4a84&#45;8fae&#45;96f17b0ae72c&#45;&gt;3912ac9b&#45;775c&#45;441a&#45;9b6a&#45;3c0b10b07135 -->
<g id="edge1" class="edge">
<title>a34a8f2f&#45;391a&#45;4a84&#45;8fae&#45;96f17b0ae72c&#45;&gt;3912ac9b&#45;775c&#45;441a&#45;9b6a&#45;3c0b10b07135</title>
<path fill="none" stroke="black" d="M74.8,-287.7C74.8,-279.98 74.8,-270.71 74.8,-262.11"/>
<polygon fill="black" stroke="black" points="78.3,-262.1 74.8,-252.1 71.3,-262.1 78.3,-262.1"/>
</g>
<!-- e01d84d9&#45;76c5&#45;4d4c&#45;917d&#45;743757501528 -->
<g id="node3" class="node">
<title>e01d84d9&#45;76c5&#45;4d4c&#45;917d&#45;743757501528</title>
<ellipse fill="none" stroke="black" cx="74.8" cy="-162" rx="74.61" ry="18"/>
<text text-anchor="middle" x="74.8" y="-158.3" font-family="Times,serif" font-size="14.00">StraightMovement</text>
</g>
<!-- 3912ac9b&#45;775c&#45;441a&#45;9b6a&#45;3c0b10b07135&#45;&gt;e01d84d9&#45;76c5&#45;4d4c&#45;917d&#45;743757501528 -->
<g id="edge4" class="edge">
<title>3912ac9b&#45;775c&#45;441a&#45;9b6a&#45;3c0b10b07135&#45;&gt;e01d84d9&#45;76c5&#45;4d4c&#45;917d&#45;743757501528</title>
<path fill="none" stroke="black" d="M74.8,-215.7C74.8,-207.98 74.8,-198.71 74.8,-190.11"/>
<polygon fill="black" stroke="black" points="78.3,-190.1 74.8,-180.1 71.3,-190.1 78.3,-190.1"/>
</g>
<!-- 1ca38738&#45;cd5c&#45;45dd&#45;a3a2&#45;a01bf4a41a4c -->
<g id="node4" class="node">
<title>1ca38738&#45;cd5c&#45;45dd&#45;a3a2&#45;a01bf4a41a4c</title>
<ellipse fill="none" stroke="black" cx="74.8" cy="-90" rx="47.1" ry="18"/>
<text text-anchor="middle" x="74.8" y="-86.3" font-family="Times,serif" font-size="14.00">DelayAction</text>
</g>
<!-- e01d84d9&#45;76c5&#45;4d4c&#45;917d&#45;743757501528&#45;&gt;1ca38738&#45;cd5c&#45;45dd&#45;a3a2&#45;a01bf4a41a4c -->
<g id="edge2" class="edge">
<title>e01d84d9&#45;76c5&#45;4d4c&#45;917d&#45;743757501528&#45;&gt;1ca38738&#45;cd5c&#45;45dd&#45;a3a2&#45;a01bf4a41a4c</title>
<path fill="none" stroke="black" d="M74.8,-143.7C74.8,-135.98 74.8,-126.71 74.8,-118.11"/>
<polygon fill="black" stroke="black" points="78.3,-118.1 74.8,-108.1 71.3,-118.1 78.3,-118.1"/>
</g>
<!-- 2824e13e&#45;a515&#45;4f4f&#45;9a0d&#45;2f1f2f3a1565 -->
<g id="node5" class="node">
<title>2824e13e&#45;a515&#45;4f4f&#45;9a0d&#45;2f1f2f3a1565</title>
<ellipse fill="none" stroke="black" cx="74.8" cy="-18" rx="59.9" ry="18"/>
<text text-anchor="middle" x="74.8" y="-14.3" font-family="Times,serif" font-size="14.00">ZeroMovement</text>
</g>
<!-- 1ca38738&#45;cd5c&#45;45dd&#45;a3a2&#45;a01bf4a41a4c&#45;&gt;2824e13e&#45;a515&#45;4f4f&#45;9a0d&#45;2f1f2f3a1565 -->
<g id="edge3" class="edge">
<title>1ca38738&#45;cd5c&#45;45dd&#45;a3a2&#45;a01bf4a41a4c&#45;&gt;2824e13e&#45;a515&#45;4f4f&#45;9a0d&#45;2f1f2f3a1565</title>
<path fill="none" stroke="black" d="M74.8,-71.7C74.8,-63.98 74.8,-54.71 74.8,-46.11"/>
<polygon fill="black" stroke="black" points="78.3,-46.1 74.8,-36.1 71.3,-46.1 78.3,-46.1"/>
</g>
<!-- 08bcd45d&#45;a3c6&#45;46d9&#45;bb28&#45;463c0b8cf3a4 -->
<g id="node6" class="node">
<title>08bcd45d&#45;a3c6&#45;46d9&#45;bb28&#45;463c0b8cf3a4</title>
<ellipse fill="none" stroke="black" cx="74.8" cy="-378" rx="34.8" ry="18"/>
<text text-anchor="middle" x="74.8" y="-374.3" font-family="Times,serif" font-size="14.00">WaitArm</text>
</g>
<!-- 08bcd45d&#45;a3c6&#45;46d9&#45;bb28&#45;463c0b8cf3a4&#45;&gt;a34a8f2f&#45;391a&#45;4a84&#45;8fae&#45;96f17b0ae72c -->
<g id="edge5" class="edge">
<title>08bcd45d&#45;a3c6&#45;46d9&#45;bb28&#45;463c0b8cf3a4&#45;&gt;a34a8f2f&#45;391a&#45;4a84&#45;8fae&#45;96f17b0ae72c</title>
<path fill="none" stroke="black" d="M74.8,-359.7C74.8,-351.98 74.8,-342.71 74.8,-334.11"/>
<polygon fill="black" stroke="black" points="78.3,-334.1 74.8,-324.1 71.3,-334.1 78.3,-334.1"/>
</g>
</g>
</svg>
