<?xml version="1.0" encoding="UTF-8" standalone="no"?>
<!DOCTYPE svg PUBLIC "-//W3C//DTD SVG 1.1//EN"
 "http://www.w3.org/Graphics/SVG/1.1/DTD/svg11.dtd">
<!-- Generated by graphviz version 2.43.0 (0)
 -->
<!-- Title: G Pages: 1 -->
<svg width="158pt" height="404pt"
 viewBox="0.00 0.00 157.61 404.00" xmlns="http://www.w3.org/2000/svg" xmlns:xlink="http://www.w3.org/1999/xlink">
<g id="graph0" class="graph" transform="scale(1 1) rotate(0) translate(4 400)">
<title>G</title>
<polygon fill="transparent" stroke="transparent" points="-4,4 -4,-400 153.61,-400 153.61,4 -4,4"/>
<!-- d2cc616c&#45;fc04&#45;4a3b&#45;97b3&#45;47c81c2a8bdd -->
<g id="node1" class="node">
<title>d2cc616c&#45;fc04&#45;4a3b&#45;97b3&#45;47c81c2a8bdd</title>
<ellipse fill="none" stroke="black" cx="74.8" cy="-306" rx="33.6" ry="18"/>
<text text-anchor="middle" x="74.8" y="-302.3" font-family="Times,serif" font-size="14.00">Descend</text>
</g>
<!-- c18128d9&#45;87d4&#45;4fc3&#45;b26c&#45;82e94303c91d -->
<g id="node2" class="node">
<title>c18128d9&#45;87d4&#45;4fc3&#45;b26c&#45;82e94303c91d</title>
<ellipse fill="none" stroke="black" cx="74.8" cy="-234" rx="47.1" ry="18"/>
<text text-anchor="middle" x="74.8" y="-230.3" font-family="Times,serif" font-size="14.00">DelayAction</text>
</g>
<!-- d2cc616c&#45;fc04&#45;4a3b&#45;97b3&#45;47c81c2a8bdd&#45;&gt;c18128d9&#45;87d4&#45;4fc3&#45;b26c&#45;82e94303c91d -->
<g id="edge1" class="edge">
<title>d2cc616c&#45;fc04&#45;4a3b&#45;97b3&#45;47c81c2a8bdd&#45;&gt;c18128d9&#45;87d4&#45;4fc3&#45;b26c&#45;82e94303c91d</title>
<path fill="none" stroke="black" d="M74.8,-287.7C74.8,-279.98 74.8,-270.71 74.8,-262.11"/>
<polygon fill="black" stroke="black" points="78.3,-262.1 74.8,-252.1 71.3,-262.1 78.3,-262.1"/>
</g>
<!-- 10f61c2f&#45;dc21&#45;4b45&#45;8edd&#45;2242dc25fab0 -->
<g id="node3" class="node">
<title>10f61c2f&#45;dc21&#45;4b45&#45;8edd&#45;2242dc25fab0</title>
<ellipse fill="none" stroke="black" cx="74.8" cy="-162" rx="74.61" ry="18"/>
<text text-anchor="middle" x="74.8" y="-158.3" font-family="Times,serif" font-size="14.00">StraightMovement</text>
</g>
<!-- c18128d9&#45;87d4&#45;4fc3&#45;b26c&#45;82e94303c91d&#45;&gt;10f61c2f&#45;dc21&#45;4b45&#45;8edd&#45;2242dc25fab0 -->
<g id="edge4" class="edge">
<title>c18128d9&#45;87d4&#45;4fc3&#45;b26c&#45;82e94303c91d&#45;&gt;10f61c2f&#45;dc21&#45;4b45&#45;8edd&#45;2242dc25fab0</title>
<path fill="none" stroke="black" d="M74.8,-215.7C74.8,-207.98 74.8,-198.71 74.8,-190.11"/>
<polygon fill="black" stroke="black" points="78.3,-190.1 74.8,-180.1 71.3,-190.1 78.3,-190.1"/>
</g>
<!-- 4b4a8396&#45;2ab6&#45;4bcc&#45;b82a&#45;ec9c5aa1355f -->
<g id="node4" class="node">
<title>4b4a8396&#45;2ab6&#45;4bcc&#45;b82a&#45;ec9c5aa1355f</title>
<ellipse fill="none" stroke="black" cx="74.8" cy="-90" rx="47.1" ry="18"/>
<text text-anchor="middle" x="74.8" y="-86.3" font-family="Times,serif" font-size="14.00">DelayAction</text>
</g>
<!-- 10f61c2f&#45;dc21&#45;4b45&#45;8edd&#45;2242dc25fab0&#45;&gt;4b4a8396&#45;2ab6&#45;4bcc&#45;b82a&#45;ec9c5aa1355f -->
<g id="edge2" class="edge">
<title>10f61c2f&#45;dc21&#45;4b45&#45;8edd&#45;2242dc25fab0&#45;&gt;4b4a8396&#45;2ab6&#45;4bcc&#45;b82a&#45;ec9c5aa1355f</title>
<path fill="none" stroke="black" d="M74.8,-143.7C74.8,-135.98 74.8,-126.71 74.8,-118.11"/>
<polygon fill="black" stroke="black" points="78.3,-118.1 74.8,-108.1 71.3,-118.1 78.3,-118.1"/>
</g>
<!-- 351abdda&#45;315d&#45;48b1&#45;a499&#45;fcc45e3e6d64 -->
<g id="node5" class="node">
<title>351abdda&#45;315d&#45;48b1&#45;a499&#45;fcc45e3e6d64</title>
<ellipse fill="none" stroke="black" cx="74.8" cy="-18" rx="59.9" ry="18"/>
<text text-anchor="middle" x="74.8" y="-14.3" font-family="Times,serif" font-size="14.00">ZeroMovement</text>
</g>
<!-- 4b4a8396&#45;2ab6&#45;4bcc&#45;b82a&#45;ec9c5aa1355f&#45;&gt;351abdda&#45;315d&#45;48b1&#45;a499&#45;fcc45e3e6d64 -->
<g id="edge3" class="edge">
<title>4b4a8396&#45;2ab6&#45;4bcc&#45;b82a&#45;ec9c5aa1355f&#45;&gt;351abdda&#45;315d&#45;48b1&#45;a499&#45;fcc45e3e6d64</title>
<path fill="none" stroke="black" d="M74.8,-71.7C74.8,-63.98 74.8,-54.71 74.8,-46.11"/>
<polygon fill="black" stroke="black" points="78.3,-46.1 74.8,-36.1 71.3,-46.1 78.3,-46.1"/>
</g>
<!-- fa30f52d&#45;03a7&#45;4508&#45;a079&#45;1190560fdf45 -->
<g id="node6" class="node">
<title>fa30f52d&#45;03a7&#45;4508&#45;a079&#45;1190560fdf45</title>
<ellipse fill="none" stroke="black" cx="74.8" cy="-378" rx="34.8" ry="18"/>
<text text-anchor="middle" x="74.8" y="-374.3" font-family="Times,serif" font-size="14.00">WaitArm</text>
</g>
<!-- fa30f52d&#45;03a7&#45;4508&#45;a079&#45;1190560fdf45&#45;&gt;d2cc616c&#45;fc04&#45;4a3b&#45;97b3&#45;47c81c2a8bdd -->
<g id="edge5" class="edge">
<title>fa30f52d&#45;03a7&#45;4508&#45;a079&#45;1190560fdf45&#45;&gt;d2cc616c&#45;fc04&#45;4a3b&#45;97b3&#45;47c81c2a8bdd</title>
<path fill="none" stroke="black" d="M74.8,-359.7C74.8,-351.98 74.8,-342.71 74.8,-334.11"/>
<polygon fill="black" stroke="black" points="78.3,-334.1 74.8,-324.1 71.3,-334.1 78.3,-334.1"/>
</g>
</g>
</svg>
