<?xml version="1.0" encoding="UTF-8" standalone="no"?>
<!DOCTYPE svg PUBLIC "-//W3C//DTD SVG 1.1//EN"
 "http://www.w3.org/Graphics/SVG/1.1/DTD/svg11.dtd">
<!-- Generated by graphviz version 2.43.0 (0)
 -->
<!-- Title: G Pages: 1 -->
<svg width="158pt" height="404pt"
 viewBox="0.00 0.00 157.61 404.00" xmlns="http://www.w3.org/2000/svg" xmlns:xlink="http://www.w3.org/1999/xlink">
<g id="graph0" class="graph" transform="scale(1 1) rotate(0) translate(4 400)">
<title>G</title>
<polygon fill="transparent" stroke="transparent" points="-4,4 -4,-400 153.61,-400 153.61,4 -4,4"/>
<!-- 63f1d905&#45;1bb7&#45;492d&#45;b50c&#45;91f375f02764 -->
<g id="node1" class="node">
<title>63f1d905&#45;1bb7&#45;492d&#45;b50c&#45;91f375f02764</title>
<ellipse fill="none" stroke="black" cx="74.8" cy="-306" rx="33.6" ry="18"/>
<text text-anchor="middle" x="74.8" y="-302.3" font-family="Times,serif" font-size="14.00">Descend</text>
</g>
<!-- 92bb4f88&#45;9d08&#45;43f4&#45;af32&#45;f5be83020969 -->
<g id="node2" class="node">
<title>92bb4f88&#45;9d08&#45;43f4&#45;af32&#45;f5be83020969</title>
<ellipse fill="none" stroke="black" cx="74.8" cy="-234" rx="47.1" ry="18"/>
<text text-anchor="middle" x="74.8" y="-230.3" font-family="Times,serif" font-size="14.00">DelayAction</text>
</g>
<!-- 63f1d905&#45;1bb7&#45;492d&#45;b50c&#45;91f375f02764&#45;&gt;92bb4f88&#45;9d08&#45;43f4&#45;af32&#45;f5be83020969 -->
<g id="edge1" class="edge">
<title>63f1d905&#45;1bb7&#45;492d&#45;b50c&#45;91f375f02764&#45;&gt;92bb4f88&#45;9d08&#45;43f4&#45;af32&#45;f5be83020969</title>
<path fill="none" stroke="black" d="M74.8,-287.7C74.8,-279.98 74.8,-270.71 74.8,-262.11"/>
<polygon fill="black" stroke="black" points="78.3,-262.1 74.8,-252.1 71.3,-262.1 78.3,-262.1"/>
</g>
<!-- 4272906b&#45;de37&#45;4682&#45;82c1&#45;b547b194256d -->
<g id="node3" class="node">
<title>4272906b&#45;de37&#45;4682&#45;82c1&#45;b547b194256d</title>
<ellipse fill="none" stroke="black" cx="74.8" cy="-162" rx="74.61" ry="18"/>
<text text-anchor="middle" x="74.8" y="-158.3" font-family="Times,serif" font-size="14.00">StraightMovement</text>
</g>
<!-- 92bb4f88&#45;9d08&#45;43f4&#45;af32&#45;f5be83020969&#45;&gt;4272906b&#45;de37&#45;4682&#45;82c1&#45;b547b194256d -->
<g id="edge4" class="edge">
<title>92bb4f88&#45;9d08&#45;43f4&#45;af32&#45;f5be83020969&#45;&gt;4272906b&#45;de37&#45;4682&#45;82c1&#45;b547b194256d</title>
<path fill="none" stroke="black" d="M74.8,-215.7C74.8,-207.98 74.8,-198.71 74.8,-190.11"/>
<polygon fill="black" stroke="black" points="78.3,-190.1 74.8,-180.1 71.3,-190.1 78.3,-190.1"/>
</g>
<!-- 305b7987&#45;d7b0&#45;4897&#45;90f3&#45;44dafdcbbdcb -->
<g id="node4" class="node">
<title>305b7987&#45;d7b0&#45;4897&#45;90f3&#45;44dafdcbbdcb</title>
<ellipse fill="none" stroke="black" cx="74.8" cy="-90" rx="47.1" ry="18"/>
<text text-anchor="middle" x="74.8" y="-86.3" font-family="Times,serif" font-size="14.00">DelayAction</text>
</g>
<!-- 4272906b&#45;de37&#45;4682&#45;82c1&#45;b547b194256d&#45;&gt;305b7987&#45;d7b0&#45;4897&#45;90f3&#45;44dafdcbbdcb -->
<g id="edge2" class="edge">
<title>4272906b&#45;de37&#45;4682&#45;82c1&#45;b547b194256d&#45;&gt;305b7987&#45;d7b0&#45;4897&#45;90f3&#45;44dafdcbbdcb</title>
<path fill="none" stroke="black" d="M74.8,-143.7C74.8,-135.98 74.8,-126.71 74.8,-118.11"/>
<polygon fill="black" stroke="black" points="78.3,-118.1 74.8,-108.1 71.3,-118.1 78.3,-118.1"/>
</g>
<!-- cf68abb9&#45;df77&#45;44d9&#45;be4d&#45;006dca2d02d9 -->
<g id="node5" class="node">
<title>cf68abb9&#45;df77&#45;44d9&#45;be4d&#45;006dca2d02d9</title>
<ellipse fill="none" stroke="black" cx="74.8" cy="-18" rx="59.9" ry="18"/>
<text text-anchor="middle" x="74.8" y="-14.3" font-family="Times,serif" font-size="14.00">ZeroMovement</text>
</g>
<!-- 305b7987&#45;d7b0&#45;4897&#45;90f3&#45;44dafdcbbdcb&#45;&gt;cf68abb9&#45;df77&#45;44d9&#45;be4d&#45;006dca2d02d9 -->
<g id="edge3" class="edge">
<title>305b7987&#45;d7b0&#45;4897&#45;90f3&#45;44dafdcbbdcb&#45;&gt;cf68abb9&#45;df77&#45;44d9&#45;be4d&#45;006dca2d02d9</title>
<path fill="none" stroke="black" d="M74.8,-71.7C74.8,-63.98 74.8,-54.71 74.8,-46.11"/>
<polygon fill="black" stroke="black" points="78.3,-46.1 74.8,-36.1 71.3,-46.1 78.3,-46.1"/>
</g>
<!-- 49d4c571&#45;c8cc&#45;4231&#45;9a74&#45;fea2bce7ec53 -->
<g id="node6" class="node">
<title>49d4c571&#45;c8cc&#45;4231&#45;9a74&#45;fea2bce7ec53</title>
<ellipse fill="none" stroke="black" cx="74.8" cy="-378" rx="34.8" ry="18"/>
<text text-anchor="middle" x="74.8" y="-374.3" font-family="Times,serif" font-size="14.00">WaitArm</text>
</g>
<!-- 49d4c571&#45;c8cc&#45;4231&#45;9a74&#45;fea2bce7ec53&#45;&gt;63f1d905&#45;1bb7&#45;492d&#45;b50c&#45;91f375f02764 -->
<g id="edge5" class="edge">
<title>49d4c571&#45;c8cc&#45;4231&#45;9a74&#45;fea2bce7ec53&#45;&gt;63f1d905&#45;1bb7&#45;492d&#45;b50c&#45;91f375f02764</title>
<path fill="none" stroke="black" d="M74.8,-359.7C74.8,-351.98 74.8,-342.71 74.8,-334.11"/>
<polygon fill="black" stroke="black" points="78.3,-334.1 74.8,-324.1 71.3,-334.1 78.3,-334.1"/>
</g>
</g>
</svg>
