<?xml version="1.0" encoding="UTF-8" standalone="no"?>
<!DOCTYPE svg PUBLIC "-//W3C//DTD SVG 1.1//EN"
 "http://www.w3.org/Graphics/SVG/1.1/DTD/svg11.dtd">
<!-- Generated by graphviz version 2.43.0 (0)
 -->
<!-- Title: G Pages: 1 -->
<svg width="158pt" height="404pt"
 viewBox="0.00 0.00 157.61 404.00" xmlns="http://www.w3.org/2000/svg" xmlns:xlink="http://www.w3.org/1999/xlink">
<g id="graph0" class="graph" transform="scale(1 1) rotate(0) translate(4 400)">
<title>G</title>
<polygon fill="transparent" stroke="transparent" points="-4,4 -4,-400 153.61,-400 153.61,4 -4,4"/>
<!-- 4607b9ff&#45;db9c&#45;4962&#45;a3cd&#45;285c2770dce1 -->
<g id="node1" class="node">
<title>4607b9ff&#45;db9c&#45;4962&#45;a3cd&#45;285c2770dce1</title>
<ellipse fill="none" stroke="black" cx="74.8" cy="-306" rx="33.6" ry="18"/>
<text text-anchor="middle" x="74.8" y="-302.3" font-family="Times,serif" font-size="14.00">Descend</text>
</g>
<!-- ff51ef1a&#45;b635&#45;4e5a&#45;8b96&#45;823429c7ebef -->
<g id="node2" class="node">
<title>ff51ef1a&#45;b635&#45;4e5a&#45;8b96&#45;823429c7ebef</title>
<ellipse fill="none" stroke="black" cx="74.8" cy="-234" rx="47.1" ry="18"/>
<text text-anchor="middle" x="74.8" y="-230.3" font-family="Times,serif" font-size="14.00">DelayAction</text>
</g>
<!-- 4607b9ff&#45;db9c&#45;4962&#45;a3cd&#45;285c2770dce1&#45;&gt;ff51ef1a&#45;b635&#45;4e5a&#45;8b96&#45;823429c7ebef -->
<g id="edge1" class="edge">
<title>4607b9ff&#45;db9c&#45;4962&#45;a3cd&#45;285c2770dce1&#45;&gt;ff51ef1a&#45;b635&#45;4e5a&#45;8b96&#45;823429c7ebef</title>
<path fill="none" stroke="black" d="M74.8,-287.7C74.8,-279.98 74.8,-270.71 74.8,-262.11"/>
<polygon fill="black" stroke="black" points="78.3,-262.1 74.8,-252.1 71.3,-262.1 78.3,-262.1"/>
</g>
<!-- 9f8910cc&#45;42f0&#45;483e&#45;a904&#45;426db8dea126 -->
<g id="node3" class="node">
<title>9f8910cc&#45;42f0&#45;483e&#45;a904&#45;426db8dea126</title>
<ellipse fill="none" stroke="black" cx="74.8" cy="-162" rx="74.61" ry="18"/>
<text text-anchor="middle" x="74.8" y="-158.3" font-family="Times,serif" font-size="14.00">StraightMovement</text>
</g>
<!-- ff51ef1a&#45;b635&#45;4e5a&#45;8b96&#45;823429c7ebef&#45;&gt;9f8910cc&#45;42f0&#45;483e&#45;a904&#45;426db8dea126 -->
<g id="edge4" class="edge">
<title>ff51ef1a&#45;b635&#45;4e5a&#45;8b96&#45;823429c7ebef&#45;&gt;9f8910cc&#45;42f0&#45;483e&#45;a904&#45;426db8dea126</title>
<path fill="none" stroke="black" d="M74.8,-215.7C74.8,-207.98 74.8,-198.71 74.8,-190.11"/>
<polygon fill="black" stroke="black" points="78.3,-190.1 74.8,-180.1 71.3,-190.1 78.3,-190.1"/>
</g>
<!-- 78b92e67&#45;1e1b&#45;4378&#45;82a2&#45;7a1b6a785c5e -->
<g id="node4" class="node">
<title>78b92e67&#45;1e1b&#45;4378&#45;82a2&#45;7a1b6a785c5e</title>
<ellipse fill="none" stroke="black" cx="74.8" cy="-90" rx="47.1" ry="18"/>
<text text-anchor="middle" x="74.8" y="-86.3" font-family="Times,serif" font-size="14.00">DelayAction</text>
</g>
<!-- 9f8910cc&#45;42f0&#45;483e&#45;a904&#45;426db8dea126&#45;&gt;78b92e67&#45;1e1b&#45;4378&#45;82a2&#45;7a1b6a785c5e -->
<g id="edge2" class="edge">
<title>9f8910cc&#45;42f0&#45;483e&#45;a904&#45;426db8dea126&#45;&gt;78b92e67&#45;1e1b&#45;4378&#45;82a2&#45;7a1b6a785c5e</title>
<path fill="none" stroke="black" d="M74.8,-143.7C74.8,-135.98 74.8,-126.71 74.8,-118.11"/>
<polygon fill="black" stroke="black" points="78.3,-118.1 74.8,-108.1 71.3,-118.1 78.3,-118.1"/>
</g>
<!-- eee82ad1&#45;e421&#45;4f71&#45;8681&#45;be648a877a28 -->
<g id="node5" class="node">
<title>eee82ad1&#45;e421&#45;4f71&#45;8681&#45;be648a877a28</title>
<ellipse fill="none" stroke="black" cx="74.8" cy="-18" rx="59.9" ry="18"/>
<text text-anchor="middle" x="74.8" y="-14.3" font-family="Times,serif" font-size="14.00">ZeroMovement</text>
</g>
<!-- 78b92e67&#45;1e1b&#45;4378&#45;82a2&#45;7a1b6a785c5e&#45;&gt;eee82ad1&#45;e421&#45;4f71&#45;8681&#45;be648a877a28 -->
<g id="edge3" class="edge">
<title>78b92e67&#45;1e1b&#45;4378&#45;82a2&#45;7a1b6a785c5e&#45;&gt;eee82ad1&#45;e421&#45;4f71&#45;8681&#45;be648a877a28</title>
<path fill="none" stroke="black" d="M74.8,-71.7C74.8,-63.98 74.8,-54.71 74.8,-46.11"/>
<polygon fill="black" stroke="black" points="78.3,-46.1 74.8,-36.1 71.3,-46.1 78.3,-46.1"/>
</g>
<!-- 76b71c29&#45;82e2&#45;4eaf&#45;beb9&#45;cdd957e79040 -->
<g id="node6" class="node">
<title>76b71c29&#45;82e2&#45;4eaf&#45;beb9&#45;cdd957e79040</title>
<ellipse fill="none" stroke="black" cx="74.8" cy="-378" rx="34.8" ry="18"/>
<text text-anchor="middle" x="74.8" y="-374.3" font-family="Times,serif" font-size="14.00">WaitArm</text>
</g>
<!-- 76b71c29&#45;82e2&#45;4eaf&#45;beb9&#45;cdd957e79040&#45;&gt;4607b9ff&#45;db9c&#45;4962&#45;a3cd&#45;285c2770dce1 -->
<g id="edge5" class="edge">
<title>76b71c29&#45;82e2&#45;4eaf&#45;beb9&#45;cdd957e79040&#45;&gt;4607b9ff&#45;db9c&#45;4962&#45;a3cd&#45;285c2770dce1</title>
<path fill="none" stroke="black" d="M74.8,-359.7C74.8,-351.98 74.8,-342.71 74.8,-334.11"/>
<polygon fill="black" stroke="black" points="78.3,-334.1 74.8,-324.1 71.3,-334.1 78.3,-334.1"/>
</g>
</g>
</svg>
