<?xml version="1.0" encoding="UTF-8" standalone="no"?>
<!DOCTYPE svg PUBLIC "-//W3C//DTD SVG 1.1//EN"
 "http://www.w3.org/Graphics/SVG/1.1/DTD/svg11.dtd">
<!-- Generated by graphviz version 2.43.0 (0)
 -->
<!-- Title: G Pages: 1 -->
<svg width="158pt" height="404pt"
 viewBox="0.00 0.00 157.61 404.00" xmlns="http://www.w3.org/2000/svg" xmlns:xlink="http://www.w3.org/1999/xlink">
<g id="graph0" class="graph" transform="scale(1 1) rotate(0) translate(4 400)">
<title>G</title>
<polygon fill="transparent" stroke="transparent" points="-4,4 -4,-400 153.61,-400 153.61,4 -4,4"/>
<!-- 1e50b63a&#45;9c24&#45;43c8&#45;ae5f&#45;cd0f5da86a40 -->
<g id="node1" class="node">
<title>1e50b63a&#45;9c24&#45;43c8&#45;ae5f&#45;cd0f5da86a40</title>
<ellipse fill="none" stroke="black" cx="74.8" cy="-306" rx="33.6" ry="18"/>
<text text-anchor="middle" x="74.8" y="-302.3" font-family="Times,serif" font-size="14.00">Descend</text>
</g>
<!-- 70c50224&#45;7fcb&#45;4436&#45;91c5&#45;9c5f56ef1b3f -->
<g id="node2" class="node">
<title>70c50224&#45;7fcb&#45;4436&#45;91c5&#45;9c5f56ef1b3f</title>
<ellipse fill="none" stroke="black" cx="74.8" cy="-234" rx="47.1" ry="18"/>
<text text-anchor="middle" x="74.8" y="-230.3" font-family="Times,serif" font-size="14.00">DelayAction</text>
</g>
<!-- 1e50b63a&#45;9c24&#45;43c8&#45;ae5f&#45;cd0f5da86a40&#45;&gt;70c50224&#45;7fcb&#45;4436&#45;91c5&#45;9c5f56ef1b3f -->
<g id="edge1" class="edge">
<title>1e50b63a&#45;9c24&#45;43c8&#45;ae5f&#45;cd0f5da86a40&#45;&gt;70c50224&#45;7fcb&#45;4436&#45;91c5&#45;9c5f56ef1b3f</title>
<path fill="none" stroke="black" d="M74.8,-287.7C74.8,-279.98 74.8,-270.71 74.8,-262.11"/>
<polygon fill="black" stroke="black" points="78.3,-262.1 74.8,-252.1 71.3,-262.1 78.3,-262.1"/>
</g>
<!-- ec85dde4&#45;76ca&#45;4ea0&#45;b3cf&#45;591171123e62 -->
<g id="node3" class="node">
<title>ec85dde4&#45;76ca&#45;4ea0&#45;b3cf&#45;591171123e62</title>
<ellipse fill="none" stroke="black" cx="74.8" cy="-162" rx="74.61" ry="18"/>
<text text-anchor="middle" x="74.8" y="-158.3" font-family="Times,serif" font-size="14.00">StraightMovement</text>
</g>
<!-- 70c50224&#45;7fcb&#45;4436&#45;91c5&#45;9c5f56ef1b3f&#45;&gt;ec85dde4&#45;76ca&#45;4ea0&#45;b3cf&#45;591171123e62 -->
<g id="edge4" class="edge">
<title>70c50224&#45;7fcb&#45;4436&#45;91c5&#45;9c5f56ef1b3f&#45;&gt;ec85dde4&#45;76ca&#45;4ea0&#45;b3cf&#45;591171123e62</title>
<path fill="none" stroke="black" d="M74.8,-215.7C74.8,-207.98 74.8,-198.71 74.8,-190.11"/>
<polygon fill="black" stroke="black" points="78.3,-190.1 74.8,-180.1 71.3,-190.1 78.3,-190.1"/>
</g>
<!-- 4936ad6a&#45;c10a&#45;4317&#45;a29f&#45;5556431042fd -->
<g id="node4" class="node">
<title>4936ad6a&#45;c10a&#45;4317&#45;a29f&#45;5556431042fd</title>
<ellipse fill="none" stroke="black" cx="74.8" cy="-90" rx="47.1" ry="18"/>
<text text-anchor="middle" x="74.8" y="-86.3" font-family="Times,serif" font-size="14.00">DelayAction</text>
</g>
<!-- ec85dde4&#45;76ca&#45;4ea0&#45;b3cf&#45;591171123e62&#45;&gt;4936ad6a&#45;c10a&#45;4317&#45;a29f&#45;5556431042fd -->
<g id="edge2" class="edge">
<title>ec85dde4&#45;76ca&#45;4ea0&#45;b3cf&#45;591171123e62&#45;&gt;4936ad6a&#45;c10a&#45;4317&#45;a29f&#45;5556431042fd</title>
<path fill="none" stroke="black" d="M74.8,-143.7C74.8,-135.98 74.8,-126.71 74.8,-118.11"/>
<polygon fill="black" stroke="black" points="78.3,-118.1 74.8,-108.1 71.3,-118.1 78.3,-118.1"/>
</g>
<!-- 8da14135&#45;5300&#45;4204&#45;a71f&#45;3fab45280da8 -->
<g id="node5" class="node">
<title>8da14135&#45;5300&#45;4204&#45;a71f&#45;3fab45280da8</title>
<ellipse fill="none" stroke="black" cx="74.8" cy="-18" rx="59.9" ry="18"/>
<text text-anchor="middle" x="74.8" y="-14.3" font-family="Times,serif" font-size="14.00">ZeroMovement</text>
</g>
<!-- 4936ad6a&#45;c10a&#45;4317&#45;a29f&#45;5556431042fd&#45;&gt;8da14135&#45;5300&#45;4204&#45;a71f&#45;3fab45280da8 -->
<g id="edge3" class="edge">
<title>4936ad6a&#45;c10a&#45;4317&#45;a29f&#45;5556431042fd&#45;&gt;8da14135&#45;5300&#45;4204&#45;a71f&#45;3fab45280da8</title>
<path fill="none" stroke="black" d="M74.8,-71.7C74.8,-63.98 74.8,-54.71 74.8,-46.11"/>
<polygon fill="black" stroke="black" points="78.3,-46.1 74.8,-36.1 71.3,-46.1 78.3,-46.1"/>
</g>
<!-- 024188b5&#45;1084&#45;4c16&#45;84b8&#45;80cffa4684f2 -->
<g id="node6" class="node">
<title>024188b5&#45;1084&#45;4c16&#45;84b8&#45;80cffa4684f2</title>
<ellipse fill="none" stroke="black" cx="74.8" cy="-378" rx="34.8" ry="18"/>
<text text-anchor="middle" x="74.8" y="-374.3" font-family="Times,serif" font-size="14.00">WaitArm</text>
</g>
<!-- 024188b5&#45;1084&#45;4c16&#45;84b8&#45;80cffa4684f2&#45;&gt;1e50b63a&#45;9c24&#45;43c8&#45;ae5f&#45;cd0f5da86a40 -->
<g id="edge5" class="edge">
<title>024188b5&#45;1084&#45;4c16&#45;84b8&#45;80cffa4684f2&#45;&gt;1e50b63a&#45;9c24&#45;43c8&#45;ae5f&#45;cd0f5da86a40</title>
<path fill="none" stroke="black" d="M74.8,-359.7C74.8,-351.98 74.8,-342.71 74.8,-334.11"/>
<polygon fill="black" stroke="black" points="78.3,-334.1 74.8,-324.1 71.3,-334.1 78.3,-334.1"/>
</g>
</g>
</svg>
