<?xml version="1.0" encoding="UTF-8" standalone="no"?>
<!DOCTYPE svg PUBLIC "-//W3C//DTD SVG 1.1//EN"
 "http://www.w3.org/Graphics/SVG/1.1/DTD/svg11.dtd">
<!-- Generated by graphviz version 2.43.0 (0)
 -->
<!-- Title: G Pages: 1 -->
<svg width="158pt" height="404pt"
 viewBox="0.00 0.00 157.61 404.00" xmlns="http://www.w3.org/2000/svg" xmlns:xlink="http://www.w3.org/1999/xlink">
<g id="graph0" class="graph" transform="scale(1 1) rotate(0) translate(4 400)">
<title>G</title>
<polygon fill="transparent" stroke="transparent" points="-4,4 -4,-400 153.61,-400 153.61,4 -4,4"/>
<!-- 39b1d292&#45;ba60&#45;4a51&#45;8ee3&#45;bd04c4eda0ee -->
<g id="node1" class="node">
<title>39b1d292&#45;ba60&#45;4a51&#45;8ee3&#45;bd04c4eda0ee</title>
<ellipse fill="none" stroke="black" cx="74.8" cy="-306" rx="33.6" ry="18"/>
<text text-anchor="middle" x="74.8" y="-302.3" font-family="Times,serif" font-size="14.00">Descend</text>
</g>
<!-- 2598b314&#45;c587&#45;403e&#45;a87e&#45;02428f94a5a9 -->
<g id="node2" class="node">
<title>2598b314&#45;c587&#45;403e&#45;a87e&#45;02428f94a5a9</title>
<ellipse fill="none" stroke="black" cx="74.8" cy="-234" rx="47.1" ry="18"/>
<text text-anchor="middle" x="74.8" y="-230.3" font-family="Times,serif" font-size="14.00">DelayAction</text>
</g>
<!-- 39b1d292&#45;ba60&#45;4a51&#45;8ee3&#45;bd04c4eda0ee&#45;&gt;2598b314&#45;c587&#45;403e&#45;a87e&#45;02428f94a5a9 -->
<g id="edge1" class="edge">
<title>39b1d292&#45;ba60&#45;4a51&#45;8ee3&#45;bd04c4eda0ee&#45;&gt;2598b314&#45;c587&#45;403e&#45;a87e&#45;02428f94a5a9</title>
<path fill="none" stroke="black" d="M74.8,-287.7C74.8,-279.98 74.8,-270.71 74.8,-262.11"/>
<polygon fill="black" stroke="black" points="78.3,-262.1 74.8,-252.1 71.3,-262.1 78.3,-262.1"/>
</g>
<!-- 96330fbe&#45;0358&#45;4813&#45;9a54&#45;2167f227fcc6 -->
<g id="node3" class="node">
<title>96330fbe&#45;0358&#45;4813&#45;9a54&#45;2167f227fcc6</title>
<ellipse fill="none" stroke="black" cx="74.8" cy="-162" rx="74.61" ry="18"/>
<text text-anchor="middle" x="74.8" y="-158.3" font-family="Times,serif" font-size="14.00">StraightMovement</text>
</g>
<!-- 2598b314&#45;c587&#45;403e&#45;a87e&#45;02428f94a5a9&#45;&gt;96330fbe&#45;0358&#45;4813&#45;9a54&#45;2167f227fcc6 -->
<g id="edge4" class="edge">
<title>2598b314&#45;c587&#45;403e&#45;a87e&#45;02428f94a5a9&#45;&gt;96330fbe&#45;0358&#45;4813&#45;9a54&#45;2167f227fcc6</title>
<path fill="none" stroke="black" d="M74.8,-215.7C74.8,-207.98 74.8,-198.71 74.8,-190.11"/>
<polygon fill="black" stroke="black" points="78.3,-190.1 74.8,-180.1 71.3,-190.1 78.3,-190.1"/>
</g>
<!-- dfce5921&#45;3790&#45;4010&#45;ba5c&#45;cdbe320e2725 -->
<g id="node4" class="node">
<title>dfce5921&#45;3790&#45;4010&#45;ba5c&#45;cdbe320e2725</title>
<ellipse fill="none" stroke="black" cx="74.8" cy="-90" rx="47.1" ry="18"/>
<text text-anchor="middle" x="74.8" y="-86.3" font-family="Times,serif" font-size="14.00">DelayAction</text>
</g>
<!-- 96330fbe&#45;0358&#45;4813&#45;9a54&#45;2167f227fcc6&#45;&gt;dfce5921&#45;3790&#45;4010&#45;ba5c&#45;cdbe320e2725 -->
<g id="edge2" class="edge">
<title>96330fbe&#45;0358&#45;4813&#45;9a54&#45;2167f227fcc6&#45;&gt;dfce5921&#45;3790&#45;4010&#45;ba5c&#45;cdbe320e2725</title>
<path fill="none" stroke="black" d="M74.8,-143.7C74.8,-135.98 74.8,-126.71 74.8,-118.11"/>
<polygon fill="black" stroke="black" points="78.3,-118.1 74.8,-108.1 71.3,-118.1 78.3,-118.1"/>
</g>
<!-- be22a192&#45;c078&#45;4e9b&#45;be2c&#45;e9998bd06b13 -->
<g id="node5" class="node">
<title>be22a192&#45;c078&#45;4e9b&#45;be2c&#45;e9998bd06b13</title>
<ellipse fill="none" stroke="black" cx="74.8" cy="-18" rx="59.9" ry="18"/>
<text text-anchor="middle" x="74.8" y="-14.3" font-family="Times,serif" font-size="14.00">ZeroMovement</text>
</g>
<!-- dfce5921&#45;3790&#45;4010&#45;ba5c&#45;cdbe320e2725&#45;&gt;be22a192&#45;c078&#45;4e9b&#45;be2c&#45;e9998bd06b13 -->
<g id="edge3" class="edge">
<title>dfce5921&#45;3790&#45;4010&#45;ba5c&#45;cdbe320e2725&#45;&gt;be22a192&#45;c078&#45;4e9b&#45;be2c&#45;e9998bd06b13</title>
<path fill="none" stroke="black" d="M74.8,-71.7C74.8,-63.98 74.8,-54.71 74.8,-46.11"/>
<polygon fill="black" stroke="black" points="78.3,-46.1 74.8,-36.1 71.3,-46.1 78.3,-46.1"/>
</g>
<!-- 447a7550&#45;7350&#45;4916&#45;bc0a&#45;250c13976c07 -->
<g id="node6" class="node">
<title>447a7550&#45;7350&#45;4916&#45;bc0a&#45;250c13976c07</title>
<ellipse fill="none" stroke="black" cx="74.8" cy="-378" rx="34.8" ry="18"/>
<text text-anchor="middle" x="74.8" y="-374.3" font-family="Times,serif" font-size="14.00">WaitArm</text>
</g>
<!-- 447a7550&#45;7350&#45;4916&#45;bc0a&#45;250c13976c07&#45;&gt;39b1d292&#45;ba60&#45;4a51&#45;8ee3&#45;bd04c4eda0ee -->
<g id="edge5" class="edge">
<title>447a7550&#45;7350&#45;4916&#45;bc0a&#45;250c13976c07&#45;&gt;39b1d292&#45;ba60&#45;4a51&#45;8ee3&#45;bd04c4eda0ee</title>
<path fill="none" stroke="black" d="M74.8,-359.7C74.8,-351.98 74.8,-342.71 74.8,-334.11"/>
<polygon fill="black" stroke="black" points="78.3,-334.1 74.8,-324.1 71.3,-334.1 78.3,-334.1"/>
</g>
</g>
</svg>
