<?xml version="1.0" encoding="UTF-8" standalone="no"?>
<!DOCTYPE svg PUBLIC "-//W3C//DTD SVG 1.1//EN"
 "http://www.w3.org/Graphics/SVG/1.1/DTD/svg11.dtd">
<!-- Generated by graphviz version 2.43.0 (0)
 -->
<!-- Title: G Pages: 1 -->
<svg width="158pt" height="404pt"
 viewBox="0.00 0.00 157.61 404.00" xmlns="http://www.w3.org/2000/svg" xmlns:xlink="http://www.w3.org/1999/xlink">
<g id="graph0" class="graph" transform="scale(1 1) rotate(0) translate(4 400)">
<title>G</title>
<polygon fill="transparent" stroke="transparent" points="-4,4 -4,-400 153.61,-400 153.61,4 -4,4"/>
<!-- 7e8f06e7&#45;3860&#45;4c0b&#45;b23d&#45;d2781a1d1ca2 -->
<g id="node1" class="node">
<title>7e8f06e7&#45;3860&#45;4c0b&#45;b23d&#45;d2781a1d1ca2</title>
<ellipse fill="none" stroke="black" cx="74.8" cy="-306" rx="33.6" ry="18"/>
<text text-anchor="middle" x="74.8" y="-302.3" font-family="Times,serif" font-size="14.00">Descend</text>
</g>
<!-- 796f4ccd&#45;0313&#45;40f2&#45;bb37&#45;ba6858f97eae -->
<g id="node2" class="node">
<title>796f4ccd&#45;0313&#45;40f2&#45;bb37&#45;ba6858f97eae</title>
<ellipse fill="none" stroke="black" cx="74.8" cy="-234" rx="47.1" ry="18"/>
<text text-anchor="middle" x="74.8" y="-230.3" font-family="Times,serif" font-size="14.00">DelayAction</text>
</g>
<!-- 7e8f06e7&#45;3860&#45;4c0b&#45;b23d&#45;d2781a1d1ca2&#45;&gt;796f4ccd&#45;0313&#45;40f2&#45;bb37&#45;ba6858f97eae -->
<g id="edge1" class="edge">
<title>7e8f06e7&#45;3860&#45;4c0b&#45;b23d&#45;d2781a1d1ca2&#45;&gt;796f4ccd&#45;0313&#45;40f2&#45;bb37&#45;ba6858f97eae</title>
<path fill="none" stroke="black" d="M74.8,-287.7C74.8,-279.98 74.8,-270.71 74.8,-262.11"/>
<polygon fill="black" stroke="black" points="78.3,-262.1 74.8,-252.1 71.3,-262.1 78.3,-262.1"/>
</g>
<!-- 34f2d2c4&#45;0d35&#45;45e5&#45;b6e7&#45;8f004787970e -->
<g id="node3" class="node">
<title>34f2d2c4&#45;0d35&#45;45e5&#45;b6e7&#45;8f004787970e</title>
<ellipse fill="none" stroke="black" cx="74.8" cy="-162" rx="74.61" ry="18"/>
<text text-anchor="middle" x="74.8" y="-158.3" font-family="Times,serif" font-size="14.00">StraightMovement</text>
</g>
<!-- 796f4ccd&#45;0313&#45;40f2&#45;bb37&#45;ba6858f97eae&#45;&gt;34f2d2c4&#45;0d35&#45;45e5&#45;b6e7&#45;8f004787970e -->
<g id="edge4" class="edge">
<title>796f4ccd&#45;0313&#45;40f2&#45;bb37&#45;ba6858f97eae&#45;&gt;34f2d2c4&#45;0d35&#45;45e5&#45;b6e7&#45;8f004787970e</title>
<path fill="none" stroke="black" d="M74.8,-215.7C74.8,-207.98 74.8,-198.71 74.8,-190.11"/>
<polygon fill="black" stroke="black" points="78.3,-190.1 74.8,-180.1 71.3,-190.1 78.3,-190.1"/>
</g>
<!-- 1e0141dd&#45;e038&#45;4ff6&#45;bb9f&#45;4edff21bcd82 -->
<g id="node4" class="node">
<title>1e0141dd&#45;e038&#45;4ff6&#45;bb9f&#45;4edff21bcd82</title>
<ellipse fill="none" stroke="black" cx="74.8" cy="-90" rx="47.1" ry="18"/>
<text text-anchor="middle" x="74.8" y="-86.3" font-family="Times,serif" font-size="14.00">DelayAction</text>
</g>
<!-- 34f2d2c4&#45;0d35&#45;45e5&#45;b6e7&#45;8f004787970e&#45;&gt;1e0141dd&#45;e038&#45;4ff6&#45;bb9f&#45;4edff21bcd82 -->
<g id="edge2" class="edge">
<title>34f2d2c4&#45;0d35&#45;45e5&#45;b6e7&#45;8f004787970e&#45;&gt;1e0141dd&#45;e038&#45;4ff6&#45;bb9f&#45;4edff21bcd82</title>
<path fill="none" stroke="black" d="M74.8,-143.7C74.8,-135.98 74.8,-126.71 74.8,-118.11"/>
<polygon fill="black" stroke="black" points="78.3,-118.1 74.8,-108.1 71.3,-118.1 78.3,-118.1"/>
</g>
<!-- c532bfad&#45;fee5&#45;478f&#45;a9ac&#45;d7ee5f4a4dde -->
<g id="node5" class="node">
<title>c532bfad&#45;fee5&#45;478f&#45;a9ac&#45;d7ee5f4a4dde</title>
<ellipse fill="none" stroke="black" cx="74.8" cy="-18" rx="59.9" ry="18"/>
<text text-anchor="middle" x="74.8" y="-14.3" font-family="Times,serif" font-size="14.00">ZeroMovement</text>
</g>
<!-- 1e0141dd&#45;e038&#45;4ff6&#45;bb9f&#45;4edff21bcd82&#45;&gt;c532bfad&#45;fee5&#45;478f&#45;a9ac&#45;d7ee5f4a4dde -->
<g id="edge3" class="edge">
<title>1e0141dd&#45;e038&#45;4ff6&#45;bb9f&#45;4edff21bcd82&#45;&gt;c532bfad&#45;fee5&#45;478f&#45;a9ac&#45;d7ee5f4a4dde</title>
<path fill="none" stroke="black" d="M74.8,-71.7C74.8,-63.98 74.8,-54.71 74.8,-46.11"/>
<polygon fill="black" stroke="black" points="78.3,-46.1 74.8,-36.1 71.3,-46.1 78.3,-46.1"/>
</g>
<!-- c6e1effa&#45;4bda&#45;43e9&#45;a972&#45;80ab0e3445ea -->
<g id="node6" class="node">
<title>c6e1effa&#45;4bda&#45;43e9&#45;a972&#45;80ab0e3445ea</title>
<ellipse fill="none" stroke="black" cx="74.8" cy="-378" rx="34.8" ry="18"/>
<text text-anchor="middle" x="74.8" y="-374.3" font-family="Times,serif" font-size="14.00">WaitArm</text>
</g>
<!-- c6e1effa&#45;4bda&#45;43e9&#45;a972&#45;80ab0e3445ea&#45;&gt;7e8f06e7&#45;3860&#45;4c0b&#45;b23d&#45;d2781a1d1ca2 -->
<g id="edge5" class="edge">
<title>c6e1effa&#45;4bda&#45;43e9&#45;a972&#45;80ab0e3445ea&#45;&gt;7e8f06e7&#45;3860&#45;4c0b&#45;b23d&#45;d2781a1d1ca2</title>
<path fill="none" stroke="black" d="M74.8,-359.7C74.8,-351.98 74.8,-342.71 74.8,-334.11"/>
<polygon fill="black" stroke="black" points="78.3,-334.1 74.8,-324.1 71.3,-334.1 78.3,-334.1"/>
</g>
</g>
</svg>
