<?xml version="1.0" encoding="UTF-8" standalone="no"?>
<!DOCTYPE svg PUBLIC "-//W3C//DTD SVG 1.1//EN"
 "http://www.w3.org/Graphics/SVG/1.1/DTD/svg11.dtd">
<!-- Generated by graphviz version 2.43.0 (0)
 -->
<!-- Title: G Pages: 1 -->
<svg width="158pt" height="404pt"
 viewBox="0.00 0.00 157.61 404.00" xmlns="http://www.w3.org/2000/svg" xmlns:xlink="http://www.w3.org/1999/xlink">
<g id="graph0" class="graph" transform="scale(1 1) rotate(0) translate(4 400)">
<title>G</title>
<polygon fill="transparent" stroke="transparent" points="-4,4 -4,-400 153.61,-400 153.61,4 -4,4"/>
<!-- 4221addb&#45;0710&#45;4f0c&#45;bdd1&#45;0b80c85f1afc -->
<g id="node1" class="node">
<title>4221addb&#45;0710&#45;4f0c&#45;bdd1&#45;0b80c85f1afc</title>
<ellipse fill="none" stroke="black" cx="74.8" cy="-306" rx="33.6" ry="18"/>
<text text-anchor="middle" x="74.8" y="-302.3" font-family="Times,serif" font-size="14.00">Descend</text>
</g>
<!-- 046ac8a6&#45;0feb&#45;4413&#45;9ef7&#45;aa36da5b2c4c -->
<g id="node2" class="node">
<title>046ac8a6&#45;0feb&#45;4413&#45;9ef7&#45;aa36da5b2c4c</title>
<ellipse fill="none" stroke="black" cx="74.8" cy="-234" rx="47.1" ry="18"/>
<text text-anchor="middle" x="74.8" y="-230.3" font-family="Times,serif" font-size="14.00">DelayAction</text>
</g>
<!-- 4221addb&#45;0710&#45;4f0c&#45;bdd1&#45;0b80c85f1afc&#45;&gt;046ac8a6&#45;0feb&#45;4413&#45;9ef7&#45;aa36da5b2c4c -->
<g id="edge1" class="edge">
<title>4221addb&#45;0710&#45;4f0c&#45;bdd1&#45;0b80c85f1afc&#45;&gt;046ac8a6&#45;0feb&#45;4413&#45;9ef7&#45;aa36da5b2c4c</title>
<path fill="none" stroke="black" d="M74.8,-287.7C74.8,-279.98 74.8,-270.71 74.8,-262.11"/>
<polygon fill="black" stroke="black" points="78.3,-262.1 74.8,-252.1 71.3,-262.1 78.3,-262.1"/>
</g>
<!-- cba4143c&#45;7bd2&#45;49df&#45;94ab&#45;a57988d4a7f6 -->
<g id="node3" class="node">
<title>cba4143c&#45;7bd2&#45;49df&#45;94ab&#45;a57988d4a7f6</title>
<ellipse fill="none" stroke="black" cx="74.8" cy="-162" rx="74.61" ry="18"/>
<text text-anchor="middle" x="74.8" y="-158.3" font-family="Times,serif" font-size="14.00">StraightMovement</text>
</g>
<!-- 046ac8a6&#45;0feb&#45;4413&#45;9ef7&#45;aa36da5b2c4c&#45;&gt;cba4143c&#45;7bd2&#45;49df&#45;94ab&#45;a57988d4a7f6 -->
<g id="edge4" class="edge">
<title>046ac8a6&#45;0feb&#45;4413&#45;9ef7&#45;aa36da5b2c4c&#45;&gt;cba4143c&#45;7bd2&#45;49df&#45;94ab&#45;a57988d4a7f6</title>
<path fill="none" stroke="black" d="M74.8,-215.7C74.8,-207.98 74.8,-198.71 74.8,-190.11"/>
<polygon fill="black" stroke="black" points="78.3,-190.1 74.8,-180.1 71.3,-190.1 78.3,-190.1"/>
</g>
<!-- 8a2ed04f&#45;1e42&#45;4095&#45;8af8&#45;b782b16623da -->
<g id="node4" class="node">
<title>8a2ed04f&#45;1e42&#45;4095&#45;8af8&#45;b782b16623da</title>
<ellipse fill="none" stroke="black" cx="74.8" cy="-90" rx="47.1" ry="18"/>
<text text-anchor="middle" x="74.8" y="-86.3" font-family="Times,serif" font-size="14.00">DelayAction</text>
</g>
<!-- cba4143c&#45;7bd2&#45;49df&#45;94ab&#45;a57988d4a7f6&#45;&gt;8a2ed04f&#45;1e42&#45;4095&#45;8af8&#45;b782b16623da -->
<g id="edge2" class="edge">
<title>cba4143c&#45;7bd2&#45;49df&#45;94ab&#45;a57988d4a7f6&#45;&gt;8a2ed04f&#45;1e42&#45;4095&#45;8af8&#45;b782b16623da</title>
<path fill="none" stroke="black" d="M74.8,-143.7C74.8,-135.98 74.8,-126.71 74.8,-118.11"/>
<polygon fill="black" stroke="black" points="78.3,-118.1 74.8,-108.1 71.3,-118.1 78.3,-118.1"/>
</g>
<!-- da704f84&#45;a36b&#45;4c8f&#45;9ad7&#45;bc855db69f32 -->
<g id="node5" class="node">
<title>da704f84&#45;a36b&#45;4c8f&#45;9ad7&#45;bc855db69f32</title>
<ellipse fill="none" stroke="black" cx="74.8" cy="-18" rx="59.9" ry="18"/>
<text text-anchor="middle" x="74.8" y="-14.3" font-family="Times,serif" font-size="14.00">ZeroMovement</text>
</g>
<!-- 8a2ed04f&#45;1e42&#45;4095&#45;8af8&#45;b782b16623da&#45;&gt;da704f84&#45;a36b&#45;4c8f&#45;9ad7&#45;bc855db69f32 -->
<g id="edge3" class="edge">
<title>8a2ed04f&#45;1e42&#45;4095&#45;8af8&#45;b782b16623da&#45;&gt;da704f84&#45;a36b&#45;4c8f&#45;9ad7&#45;bc855db69f32</title>
<path fill="none" stroke="black" d="M74.8,-71.7C74.8,-63.98 74.8,-54.71 74.8,-46.11"/>
<polygon fill="black" stroke="black" points="78.3,-46.1 74.8,-36.1 71.3,-46.1 78.3,-46.1"/>
</g>
<!-- ac1d275f&#45;3ed8&#45;4428&#45;a3b7&#45;b3ff60d4bb28 -->
<g id="node6" class="node">
<title>ac1d275f&#45;3ed8&#45;4428&#45;a3b7&#45;b3ff60d4bb28</title>
<ellipse fill="none" stroke="black" cx="74.8" cy="-378" rx="34.8" ry="18"/>
<text text-anchor="middle" x="74.8" y="-374.3" font-family="Times,serif" font-size="14.00">WaitArm</text>
</g>
<!-- ac1d275f&#45;3ed8&#45;4428&#45;a3b7&#45;b3ff60d4bb28&#45;&gt;4221addb&#45;0710&#45;4f0c&#45;bdd1&#45;0b80c85f1afc -->
<g id="edge5" class="edge">
<title>ac1d275f&#45;3ed8&#45;4428&#45;a3b7&#45;b3ff60d4bb28&#45;&gt;4221addb&#45;0710&#45;4f0c&#45;bdd1&#45;0b80c85f1afc</title>
<path fill="none" stroke="black" d="M74.8,-359.7C74.8,-351.98 74.8,-342.71 74.8,-334.11"/>
<polygon fill="black" stroke="black" points="78.3,-334.1 74.8,-324.1 71.3,-334.1 78.3,-334.1"/>
</g>
</g>
</svg>
