<?xml version="1.0" encoding="UTF-8" standalone="no"?>
<!DOCTYPE svg PUBLIC "-//W3C//DTD SVG 1.1//EN"
 "http://www.w3.org/Graphics/SVG/1.1/DTD/svg11.dtd">
<!-- Generated by graphviz version 2.43.0 (0)
 -->
<!-- Title: G Pages: 1 -->
<svg width="158pt" height="404pt"
 viewBox="0.00 0.00 157.61 404.00" xmlns="http://www.w3.org/2000/svg" xmlns:xlink="http://www.w3.org/1999/xlink">
<g id="graph0" class="graph" transform="scale(1 1) rotate(0) translate(4 400)">
<title>G</title>
<polygon fill="transparent" stroke="transparent" points="-4,4 -4,-400 153.61,-400 153.61,4 -4,4"/>
<!-- 5633e35e&#45;400a&#45;47bb&#45;b1bc&#45;b64c2d7c2912 -->
<g id="node1" class="node">
<title>5633e35e&#45;400a&#45;47bb&#45;b1bc&#45;b64c2d7c2912</title>
<ellipse fill="none" stroke="black" cx="74.8" cy="-306" rx="33.6" ry="18"/>
<text text-anchor="middle" x="74.8" y="-302.3" font-family="Times,serif" font-size="14.00">Descend</text>
</g>
<!-- a384e59d&#45;e3c7&#45;41ea&#45;beb5&#45;f5f525bdc9f9 -->
<g id="node2" class="node">
<title>a384e59d&#45;e3c7&#45;41ea&#45;beb5&#45;f5f525bdc9f9</title>
<ellipse fill="none" stroke="black" cx="74.8" cy="-234" rx="47.1" ry="18"/>
<text text-anchor="middle" x="74.8" y="-230.3" font-family="Times,serif" font-size="14.00">DelayAction</text>
</g>
<!-- 5633e35e&#45;400a&#45;47bb&#45;b1bc&#45;b64c2d7c2912&#45;&gt;a384e59d&#45;e3c7&#45;41ea&#45;beb5&#45;f5f525bdc9f9 -->
<g id="edge1" class="edge">
<title>5633e35e&#45;400a&#45;47bb&#45;b1bc&#45;b64c2d7c2912&#45;&gt;a384e59d&#45;e3c7&#45;41ea&#45;beb5&#45;f5f525bdc9f9</title>
<path fill="none" stroke="black" d="M74.8,-287.7C74.8,-279.98 74.8,-270.71 74.8,-262.11"/>
<polygon fill="black" stroke="black" points="78.3,-262.1 74.8,-252.1 71.3,-262.1 78.3,-262.1"/>
</g>
<!-- 48465df9&#45;9a77&#45;4c0d&#45;871b&#45;911a404fd1fc -->
<g id="node3" class="node">
<title>48465df9&#45;9a77&#45;4c0d&#45;871b&#45;911a404fd1fc</title>
<ellipse fill="none" stroke="black" cx="74.8" cy="-162" rx="74.61" ry="18"/>
<text text-anchor="middle" x="74.8" y="-158.3" font-family="Times,serif" font-size="14.00">StraightMovement</text>
</g>
<!-- a384e59d&#45;e3c7&#45;41ea&#45;beb5&#45;f5f525bdc9f9&#45;&gt;48465df9&#45;9a77&#45;4c0d&#45;871b&#45;911a404fd1fc -->
<g id="edge4" class="edge">
<title>a384e59d&#45;e3c7&#45;41ea&#45;beb5&#45;f5f525bdc9f9&#45;&gt;48465df9&#45;9a77&#45;4c0d&#45;871b&#45;911a404fd1fc</title>
<path fill="none" stroke="black" d="M74.8,-215.7C74.8,-207.98 74.8,-198.71 74.8,-190.11"/>
<polygon fill="black" stroke="black" points="78.3,-190.1 74.8,-180.1 71.3,-190.1 78.3,-190.1"/>
</g>
<!-- 28519883&#45;9b09&#45;493d&#45;b422&#45;c22b8d8d100a -->
<g id="node4" class="node">
<title>28519883&#45;9b09&#45;493d&#45;b422&#45;c22b8d8d100a</title>
<ellipse fill="none" stroke="black" cx="74.8" cy="-90" rx="47.1" ry="18"/>
<text text-anchor="middle" x="74.8" y="-86.3" font-family="Times,serif" font-size="14.00">DelayAction</text>
</g>
<!-- 48465df9&#45;9a77&#45;4c0d&#45;871b&#45;911a404fd1fc&#45;&gt;28519883&#45;9b09&#45;493d&#45;b422&#45;c22b8d8d100a -->
<g id="edge2" class="edge">
<title>48465df9&#45;9a77&#45;4c0d&#45;871b&#45;911a404fd1fc&#45;&gt;28519883&#45;9b09&#45;493d&#45;b422&#45;c22b8d8d100a</title>
<path fill="none" stroke="black" d="M74.8,-143.7C74.8,-135.98 74.8,-126.71 74.8,-118.11"/>
<polygon fill="black" stroke="black" points="78.3,-118.1 74.8,-108.1 71.3,-118.1 78.3,-118.1"/>
</g>
<!-- aa98cd5a&#45;3f56&#45;4825&#45;a1e9&#45;1c8ebdb6c273 -->
<g id="node5" class="node">
<title>aa98cd5a&#45;3f56&#45;4825&#45;a1e9&#45;1c8ebdb6c273</title>
<ellipse fill="none" stroke="black" cx="74.8" cy="-18" rx="59.9" ry="18"/>
<text text-anchor="middle" x="74.8" y="-14.3" font-family="Times,serif" font-size="14.00">ZeroMovement</text>
</g>
<!-- 28519883&#45;9b09&#45;493d&#45;b422&#45;c22b8d8d100a&#45;&gt;aa98cd5a&#45;3f56&#45;4825&#45;a1e9&#45;1c8ebdb6c273 -->
<g id="edge3" class="edge">
<title>28519883&#45;9b09&#45;493d&#45;b422&#45;c22b8d8d100a&#45;&gt;aa98cd5a&#45;3f56&#45;4825&#45;a1e9&#45;1c8ebdb6c273</title>
<path fill="none" stroke="black" d="M74.8,-71.7C74.8,-63.98 74.8,-54.71 74.8,-46.11"/>
<polygon fill="black" stroke="black" points="78.3,-46.1 74.8,-36.1 71.3,-46.1 78.3,-46.1"/>
</g>
<!-- ca50e3d1&#45;ed65&#45;41d7&#45;ac65&#45;9864ae1dbfaa -->
<g id="node6" class="node">
<title>ca50e3d1&#45;ed65&#45;41d7&#45;ac65&#45;9864ae1dbfaa</title>
<ellipse fill="none" stroke="black" cx="74.8" cy="-378" rx="34.8" ry="18"/>
<text text-anchor="middle" x="74.8" y="-374.3" font-family="Times,serif" font-size="14.00">WaitArm</text>
</g>
<!-- ca50e3d1&#45;ed65&#45;41d7&#45;ac65&#45;9864ae1dbfaa&#45;&gt;5633e35e&#45;400a&#45;47bb&#45;b1bc&#45;b64c2d7c2912 -->
<g id="edge5" class="edge">
<title>ca50e3d1&#45;ed65&#45;41d7&#45;ac65&#45;9864ae1dbfaa&#45;&gt;5633e35e&#45;400a&#45;47bb&#45;b1bc&#45;b64c2d7c2912</title>
<path fill="none" stroke="black" d="M74.8,-359.7C74.8,-351.98 74.8,-342.71 74.8,-334.11"/>
<polygon fill="black" stroke="black" points="78.3,-334.1 74.8,-324.1 71.3,-334.1 78.3,-334.1"/>
</g>
</g>
</svg>
