<?xml version="1.0" encoding="UTF-8" standalone="no"?>
<!DOCTYPE svg PUBLIC "-//W3C//DTD SVG 1.1//EN"
 "http://www.w3.org/Graphics/SVG/1.1/DTD/svg11.dtd">
<!-- Generated by graphviz version 2.43.0 (0)
 -->
<!-- Title: G Pages: 1 -->
<svg width="336pt" height="728pt"
 viewBox="0.00 0.00 336.00 728.00" xmlns="http://www.w3.org/2000/svg" xmlns:xlink="http://www.w3.org/1999/xlink">
<g id="graph0" class="graph" transform="scale(1 1) rotate(0) translate(4 724)">
<title>G</title>
<polygon fill="transparent" stroke="transparent" points="-4,4 -4,-724 332,-724 332,4 -4,4"/>
<g id="clust1" class="cluster">
<title>cluster_f24b259d&#45;7c86&#45;4aaf&#45;97f3&#45;fdc46e3387fd</title>
<polygon fill="transparent" stroke="blue" stroke-dasharray="5,2" points="8,-8 8,-568 320,-568 320,-8 8,-8"/>
</g>
<!-- 388c7d0b&#45;8622&#45;4ebd&#45;b0a2&#45;0e26744913b5 -->
<g id="node1" class="node">
<title>388c7d0b&#45;8622&#45;4ebd&#45;b0a2&#45;0e26744913b5</title>
<ellipse fill="none" stroke="black" cx="95" cy="-121" rx="67.81" ry="18"/>
<text text-anchor="middle" x="95" y="-117.3" font-family="Times,serif" font-size="14.00">LinearYawFromX</text>
</g>
<!-- ee547c07&#45;fb07&#45;48d3&#45;bf3c&#45;685dfb415029 -->
<g id="node2" class="node">
<title>ee547c07&#45;fb07&#45;48d3&#45;bf3c&#45;685dfb415029</title>
<ellipse fill="none" stroke="black" cx="96" cy="-34" rx="80.11" ry="18"/>
<text text-anchor="middle" x="96" y="-30.3" font-family="Times,serif" font-size="14.00">Stability2Movement</text>
</g>
<!-- 388c7d0b&#45;8622&#45;4ebd&#45;b0a2&#45;0e26744913b5&#45;&gt;ee547c07&#45;fb07&#45;48d3&#45;bf3c&#45;685dfb415029 -->
<g id="edge1" class="edge">
<title>388c7d0b&#45;8622&#45;4ebd&#45;b0a2&#45;0e26744913b5&#45;&gt;ee547c07&#45;fb07&#45;48d3&#45;bf3c&#45;685dfb415029</title>
<path fill="none" stroke="purple" d="M95.2,-102.8C95.34,-91.16 95.52,-75.55 95.68,-62.24"/>
<polygon fill="purple" stroke="purple" points="99.18,-62.22 95.8,-52.18 92.18,-62.13 99.18,-62.22"/>
<text text-anchor="middle" x="130.5" y="-73.8" font-family="Times,serif" font-size="14.00" fill="purple">Pass Data</text>
</g>
<!-- 113318bb&#45;6834&#45;465f&#45;92aa&#45;e32ab96c6aa8 -->
<g id="node3" class="node">
<title>113318bb&#45;6834&#45;465f&#45;92aa&#45;e32ab96c6aa8</title>
<ellipse fill="none" stroke="black" cx="95" cy="-208" rx="51.3" ry="18"/>
<text text-anchor="middle" x="95" y="-204.3" font-family="Times,serif" font-size="14.00">OffsetToPose</text>
</g>
<!-- 113318bb&#45;6834&#45;465f&#45;92aa&#45;e32ab96c6aa8&#45;&gt;388c7d0b&#45;8622&#45;4ebd&#45;b0a2&#45;0e26744913b5 -->
<g id="edge2" class="edge">
<title>113318bb&#45;6834&#45;465f&#45;92aa&#45;e32ab96c6aa8&#45;&gt;388c7d0b&#45;8622&#45;4ebd&#45;b0a2&#45;0e26744913b5</title>
<path fill="none" stroke="purple" d="M95,-189.8C95,-178.16 95,-162.55 95,-149.24"/>
<polygon fill="purple" stroke="purple" points="98.5,-149.18 95,-139.18 91.5,-149.18 98.5,-149.18"/>
<text text-anchor="middle" x="130.5" y="-160.8" font-family="Times,serif" font-size="14.00" fill="purple">Pass Data</text>
</g>
<!-- 9a572318&#45;5770&#45;4026&#45;afe8&#45;c8d9466b7d2b -->
<g id="node4" class="node">
<title>9a572318&#45;5770&#45;4026&#45;afe8&#45;c8d9466b7d2b</title>
<ellipse fill="none" stroke="black" cx="94" cy="-295" rx="35.5" ry="18"/>
<text text-anchor="middle" x="94" y="-291.3" font-family="Times,serif" font-size="14.00">MidPoint</text>
</g>
<!-- 9a572318&#45;5770&#45;4026&#45;afe8&#45;c8d9466b7d2b&#45;&gt;113318bb&#45;6834&#45;465f&#45;92aa&#45;e32ab96c6aa8 -->
<g id="edge3" class="edge">
<title>9a572318&#45;5770&#45;4026&#45;afe8&#45;c8d9466b7d2b&#45;&gt;113318bb&#45;6834&#45;465f&#45;92aa&#45;e32ab96c6aa8</title>
<path fill="none" stroke="purple" d="M94.2,-276.8C94.34,-265.16 94.52,-249.55 94.68,-236.24"/>
<polygon fill="purple" stroke="purple" points="98.18,-236.22 94.8,-226.18 91.18,-236.13 98.18,-236.22"/>
<text text-anchor="middle" x="129.5" y="-247.8" font-family="Times,serif" font-size="14.00" fill="purple">Pass Data</text>
</g>
<!-- 9e7a1b9b&#45;36f1&#45;454a&#45;a6b3&#45;2f6d4ab328be -->
<g id="node5" class="node">
<title>9e7a1b9b&#45;36f1&#45;454a&#45;a6b3&#45;2f6d4ab328be</title>
<ellipse fill="none" stroke="black" cx="92" cy="-382" rx="61.1" ry="18"/>
<text text-anchor="middle" x="92" y="-378.3" font-family="Times,serif" font-size="14.00">ExtractPosition</text>
</g>
<!-- 9e7a1b9b&#45;36f1&#45;454a&#45;a6b3&#45;2f6d4ab328be&#45;&gt;9a572318&#45;5770&#45;4026&#45;afe8&#45;c8d9466b7d2b -->
<g id="edge4" class="edge">
<title>9e7a1b9b&#45;36f1&#45;454a&#45;a6b3&#45;2f6d4ab328be&#45;&gt;9a572318&#45;5770&#45;4026&#45;afe8&#45;c8d9466b7d2b</title>
<path fill="none" stroke="purple" d="M92.4,-363.8C92.68,-352.16 93.05,-336.55 93.36,-323.24"/>
<polygon fill="purple" stroke="purple" points="96.86,-323.26 93.6,-313.18 89.86,-323.09 96.86,-323.26"/>
<text text-anchor="middle" x="128.5" y="-334.8" font-family="Times,serif" font-size="14.00" fill="purple">Pass Data</text>
</g>
<!-- 9317ad99&#45;04b3&#45;4892&#45;9959&#45;f68029379362 -->
<g id="node6" class="node">
<title>9317ad99&#45;04b3&#45;4892&#45;9959&#45;f68029379362</title>
<ellipse fill="none" stroke="black" cx="43" cy="-469" rx="27" ry="18"/>
<text text-anchor="middle" x="43" y="-465.3" font-family="Times,serif" font-size="14.00">ToVec</text>
</g>
<!-- 9317ad99&#45;04b3&#45;4892&#45;9959&#45;f68029379362&#45;&gt;9e7a1b9b&#45;36f1&#45;454a&#45;a6b3&#45;2f6d4ab328be -->
<g id="edge5" class="edge">
<title>9317ad99&#45;04b3&#45;4892&#45;9959&#45;f68029379362&#45;&gt;9e7a1b9b&#45;36f1&#45;454a&#45;a6b3&#45;2f6d4ab328be</title>
<path fill="none" stroke="purple" d="M52.22,-452.01C59.27,-439.78 69.13,-422.68 77.27,-408.56"/>
<polygon fill="purple" stroke="purple" points="80.36,-410.2 82.32,-399.79 74.3,-406.7 80.36,-410.2"/>
<text text-anchor="middle" x="105.5" y="-421.8" font-family="Times,serif" font-size="14.00" fill="purple">Pass Data</text>
</g>
<!-- 9d4061da&#45;6866&#45;4b77&#45;a9b2&#45;ee8981f108c6 -->
<g id="node7" class="node">
<title>9d4061da&#45;6866&#45;4b77&#45;a9b2&#45;ee8981f108c6</title>
<polygon fill="none" stroke="black" stroke-dasharray="5,2" points="195,-560 97,-560 97,-524 195,-524 195,-560"/>
<text text-anchor="middle" x="146" y="-538.3" font-family="Times,serif" font-size="14.00" fill="blue">Concurrent</text>
</g>
<!-- 9d4061da&#45;6866&#45;4b77&#45;a9b2&#45;ee8981f108c6&#45;&gt;9317ad99&#45;04b3&#45;4892&#45;9959&#45;f68029379362 -->
<g id="edge6" class="edge">
<title>9d4061da&#45;6866&#45;4b77&#45;a9b2&#45;ee8981f108c6&#45;&gt;9317ad99&#45;04b3&#45;4892&#45;9959&#45;f68029379362</title>
<path fill="none" stroke="black" d="M121.33,-523.99C105.66,-513.19 85.4,-499.23 69.41,-488.2"/>
<polygon fill="black" stroke="black" points="71.24,-485.21 61.02,-482.42 67.27,-490.98 71.24,-485.21"/>
</g>
<!-- e770f3fe&#45;5c86&#45;4e11&#45;a841&#45;fe1c17a03aaa -->
<g id="node8" class="node">
<title>e770f3fe&#45;5c86&#45;4e11&#45;a841&#45;fe1c17a03aaa</title>
<ellipse fill="none" stroke="black" cx="227" cy="-469" rx="85.01" ry="18"/>
<text text-anchor="middle" x="227" y="-465.3" font-family="Times,serif" font-size="14.00">Consecutive True &lt; 3</text>
</g>
<!-- 9d4061da&#45;6866&#45;4b77&#45;a9b2&#45;ee8981f108c6&#45;&gt;e770f3fe&#45;5c86&#45;4e11&#45;a841&#45;fe1c17a03aaa -->
<g id="edge7" class="edge">
<title>9d4061da&#45;6866&#45;4b77&#45;a9b2&#45;ee8981f108c6&#45;&gt;e770f3fe&#45;5c86&#45;4e11&#45;a841&#45;fe1c17a03aaa</title>
<path fill="none" stroke="black" d="M165.61,-523.81C176.03,-514.68 189,-503.31 200.32,-493.38"/>
<polygon fill="black" stroke="black" points="202.64,-496.01 207.85,-486.78 198.03,-490.74 202.64,-496.01"/>
</g>
<!-- 2c26d923&#45;4943&#45;409b&#45;a3c2&#45;2b07c94797ce -->
<g id="node9" class="node">
<title>2c26d923&#45;4943&#45;409b&#45;a3c2&#45;2b07c94797ce</title>
<ellipse fill="none" stroke="black" cx="146" cy="-629" rx="75.21" ry="18"/>
<text text-anchor="middle" x="146" y="-625.3" font-family="Times,serif" font-size="14.00">VisionNormBottom</text>
</g>
<!-- 2c26d923&#45;4943&#45;409b&#45;a3c2&#45;2b07c94797ce&#45;&gt;9d4061da&#45;6866&#45;4b77&#45;a9b2&#45;ee8981f108c6 -->
<g id="edge8" class="edge">
<title>2c26d923&#45;4943&#45;409b&#45;a3c2&#45;2b07c94797ce&#45;&gt;9d4061da&#45;6866&#45;4b77&#45;a9b2&#45;ee8981f108c6</title>
<path fill="none" stroke="purple" d="M146,-610.8C146,-599.16 146,-583.55 146,-570.24"/>
<polygon fill="purple" stroke="purple" points="149.5,-570.18 146,-560.18 142.5,-570.18 149.5,-570.18"/>
<text text-anchor="middle" x="181.5" y="-581.8" font-family="Times,serif" font-size="14.00" fill="purple">Pass Data</text>
</g>
<!-- b2ee3829&#45;cd84&#45;4eda&#45;ba0e&#45;6e47d6620f3a -->
<g id="node10" class="node">
<title>b2ee3829&#45;cd84&#45;4eda&#45;ba0e&#45;6e47d6620f3a</title>
<ellipse fill="none" stroke="black" cx="146" cy="-702" rx="59.9" ry="18"/>
<text text-anchor="middle" x="146" y="-698.3" font-family="Times,serif" font-size="14.00">ZeroMovement</text>
</g>
<!-- b2ee3829&#45;cd84&#45;4eda&#45;ba0e&#45;6e47d6620f3a&#45;&gt;2c26d923&#45;4943&#45;409b&#45;a3c2&#45;2b07c94797ce -->
<g id="edge9" class="edge">
<title>b2ee3829&#45;cd84&#45;4eda&#45;ba0e&#45;6e47d6620f3a&#45;&gt;2c26d923&#45;4943&#45;409b&#45;a3c2&#45;2b07c94797ce</title>
<path fill="none" stroke="black" d="M146,-683.81C146,-675.79 146,-666.05 146,-657.07"/>
<polygon fill="black" stroke="black" points="149.5,-657.03 146,-647.03 142.5,-657.03 149.5,-657.03"/>
</g>
</g>
</svg>
