<?xml version="1.0" encoding="UTF-8" standalone="no"?>
<!DOCTYPE svg PUBLIC "-//W3C//DTD SVG 1.1//EN"
 "http://www.w3.org/Graphics/SVG/1.1/DTD/svg11.dtd">
<!-- Generated by graphviz version 2.43.0 (0)
 -->
<!-- Title: G Pages: 1 -->
<svg width="788pt" height="276pt"
 viewBox="0.00 0.00 788.00 276.00" xmlns="http://www.w3.org/2000/svg" xmlns:xlink="http://www.w3.org/1999/xlink">
<g id="graph0" class="graph" transform="scale(1 1) rotate(0) translate(4 272)">
<title>G</title>
<polygon fill="transparent" stroke="transparent" points="-4,4 -4,-272 784,-272 784,4 -4,4"/>
<g id="clust1" class="cluster">
<title>cluster_91a60b7e&#45;f88f&#45;4383&#45;ab62&#45;8754a4d99f85</title>
<polygon fill="transparent" stroke="red" stroke-dasharray="5,2" points="8,-64 8,-260 772,-260 772,-64 8,-64"/>
</g>
<!-- 38e3ddb6&#45;c053&#45;4add&#45;b08b&#45;dd9c278fddb2 -->
<g id="node1" class="node">
<title>38e3ddb6&#45;c053&#45;4add&#45;b08b&#45;dd9c278fddb2</title>
<polygon fill="none" stroke="black" stroke-dasharray="5,2" points="417,-252 363,-252 363,-216 417,-216 417,-252"/>
<text text-anchor="middle" x="390" y="-230.3" font-family="Times,serif" font-size="14.00" fill="red">Race</text>
</g>
<!-- f430b9f2&#45;a690&#45;405d&#45;af4c&#45;841a01343182 -->
<g id="node2" class="node">
<title>f430b9f2&#45;a690&#45;405d&#45;af4c&#45;841a01343182</title>
<ellipse fill="none" stroke="black" cx="62" cy="-162" rx="46.4" ry="18"/>
<text text-anchor="middle" x="62" y="-158.3" font-family="Times,serif" font-size="14.00">AlwaysTrue</text>
</g>
<!-- 38e3ddb6&#45;c053&#45;4add&#45;b08b&#45;dd9c278fddb2&#45;&gt;f430b9f2&#45;a690&#45;405d&#45;af4c&#45;841a01343182 -->
<g id="edge1" class="edge">
<title>38e3ddb6&#45;c053&#45;4add&#45;b08b&#45;dd9c278fddb2&#45;&gt;f430b9f2&#45;a690&#45;405d&#45;af4c&#45;841a01343182</title>
<path fill="none" stroke="black" d="M362.88,-227.21C307.73,-215.44 181.79,-188.57 111.59,-173.58"/>
<polygon fill="black" stroke="black" points="112.16,-170.13 101.65,-171.46 110.7,-176.97 112.16,-170.13"/>
</g>
<!-- f92cd95d&#45;2020&#45;4d87&#45;99b1&#45;a9a82ec52613 -->
<g id="node3" class="node">
<title>f92cd95d&#45;2020&#45;4d87&#45;99b1&#45;a9a82ec52613</title>
<ellipse fill="none" stroke="black" cx="226" cy="-162" rx="46.4" ry="18"/>
<text text-anchor="middle" x="226" y="-158.3" font-family="Times,serif" font-size="14.00">AlwaysTrue</text>
</g>
<!-- 38e3ddb6&#45;c053&#45;4add&#45;b08b&#45;dd9c278fddb2&#45;&gt;f92cd95d&#45;2020&#45;4d87&#45;99b1&#45;a9a82ec52613 -->
<g id="edge2" class="edge">
<title>38e3ddb6&#45;c053&#45;4add&#45;b08b&#45;dd9c278fddb2&#45;&gt;f92cd95d&#45;2020&#45;4d87&#45;99b1&#45;a9a82ec52613</title>
<path fill="none" stroke="black" d="M362.92,-221.44C336.32,-210.09 295.45,-192.65 265.29,-179.77"/>
<polygon fill="black" stroke="black" points="266.47,-176.47 255.9,-175.76 263.72,-182.91 266.47,-176.47"/>
</g>
<!-- 25ffcc32&#45;6676&#45;49d7&#45;84ae&#45;8ce9445feadd -->
<g id="node4" class="node">
<title>25ffcc32&#45;6676&#45;49d7&#45;84ae&#45;8ce9445feadd</title>
<ellipse fill="none" stroke="black" cx="390" cy="-162" rx="46.4" ry="18"/>
<text text-anchor="middle" x="390" y="-158.3" font-family="Times,serif" font-size="14.00">AlwaysTrue</text>
</g>
<!-- 38e3ddb6&#45;c053&#45;4add&#45;b08b&#45;dd9c278fddb2&#45;&gt;25ffcc32&#45;6676&#45;49d7&#45;84ae&#45;8ce9445feadd -->
<g id="edge3" class="edge">
<title>38e3ddb6&#45;c053&#45;4add&#45;b08b&#45;dd9c278fddb2&#45;&gt;25ffcc32&#45;6676&#45;49d7&#45;84ae&#45;8ce9445feadd</title>
<path fill="none" stroke="black" d="M390,-215.7C390,-207.98 390,-198.71 390,-190.11"/>
<polygon fill="black" stroke="black" points="393.5,-190.1 390,-180.1 386.5,-190.1 393.5,-190.1"/>
</g>
<!-- 52dc0309&#45;a70c&#45;4e84&#45;b4e0&#45;25aab7c2c780 -->
<g id="node5" class="node">
<title>52dc0309&#45;a70c&#45;4e84&#45;b4e0&#45;25aab7c2c780</title>
<ellipse fill="none" stroke="black" cx="554" cy="-162" rx="46.4" ry="18"/>
<text text-anchor="middle" x="554" y="-158.3" font-family="Times,serif" font-size="14.00">AlwaysTrue</text>
</g>
<!-- 38e3ddb6&#45;c053&#45;4add&#45;b08b&#45;dd9c278fddb2&#45;&gt;52dc0309&#45;a70c&#45;4e84&#45;b4e0&#45;25aab7c2c780 -->
<g id="edge4" class="edge">
<title>38e3ddb6&#45;c053&#45;4add&#45;b08b&#45;dd9c278fddb2&#45;&gt;52dc0309&#45;a70c&#45;4e84&#45;b4e0&#45;25aab7c2c780</title>
<path fill="none" stroke="black" d="M417.08,-221.44C443.68,-210.09 484.55,-192.65 514.71,-179.77"/>
<polygon fill="black" stroke="black" points="516.28,-182.91 524.1,-175.76 513.53,-176.47 516.28,-182.91"/>
</g>
<!-- f7e24f77&#45;7c4f&#45;48eb&#45;8513&#45;607c8fe385fd -->
<g id="node6" class="node">
<title>f7e24f77&#45;7c4f&#45;48eb&#45;8513&#45;607c8fe385fd</title>
<ellipse fill="none" stroke="black" cx="718" cy="-162" rx="46.4" ry="18"/>
<text text-anchor="middle" x="718" y="-158.3" font-family="Times,serif" font-size="14.00">AlwaysTrue</text>
</g>
<!-- 38e3ddb6&#45;c053&#45;4add&#45;b08b&#45;dd9c278fddb2&#45;&gt;f7e24f77&#45;7c4f&#45;48eb&#45;8513&#45;607c8fe385fd -->
<g id="edge5" class="edge">
<title>38e3ddb6&#45;c053&#45;4add&#45;b08b&#45;dd9c278fddb2&#45;&gt;f7e24f77&#45;7c4f&#45;48eb&#45;8513&#45;607c8fe385fd</title>
<path fill="none" stroke="black" d="M417.12,-227.21C472.27,-215.44 598.21,-188.57 668.41,-173.58"/>
<polygon fill="black" stroke="black" points="669.3,-176.97 678.35,-171.46 667.84,-170.13 669.3,-176.97"/>
</g>
<!-- 272c1d0b&#45;9339&#45;43ef&#45;bbe0&#45;4d6b1f264c85 -->
<g id="node7" class="node">
<title>272c1d0b&#45;9339&#45;43ef&#45;bbe0&#45;4d6b1f264c85</title>
<polygon fill="none" stroke="black" stroke-dasharray="5,2" points="426,-108 354,-108 354,-72 426,-72 426,-108"/>
<text text-anchor="middle" x="390" y="-86.3" font-family="Times,serif" font-size="14.00" fill="red">Resolve</text>
</g>
<!-- f430b9f2&#45;a690&#45;405d&#45;af4c&#45;841a01343182&#45;&gt;272c1d0b&#45;9339&#45;43ef&#45;bbe0&#45;4d6b1f264c85 -->
<g id="edge6" class="edge">
<title>f430b9f2&#45;a690&#45;405d&#45;af4c&#45;841a01343182&#45;&gt;272c1d0b&#45;9339&#45;43ef&#45;bbe0&#45;4d6b1f264c85</title>
<path fill="none" stroke="black" d="M101.56,-152.56C162.54,-139.54 279.18,-114.65 343.89,-100.84"/>
<polygon fill="black" stroke="black" points="344.76,-104.23 353.81,-98.72 343.3,-97.39 344.76,-104.23"/>
</g>
<!-- f92cd95d&#45;2020&#45;4d87&#45;99b1&#45;a9a82ec52613&#45;&gt;272c1d0b&#45;9339&#45;43ef&#45;bbe0&#45;4d6b1f264c85 -->
<g id="edge7" class="edge">
<title>f92cd95d&#45;2020&#45;4d87&#45;99b1&#45;a9a82ec52613&#45;&gt;272c1d0b&#45;9339&#45;43ef&#45;bbe0&#45;4d6b1f264c85</title>
<path fill="none" stroke="black" d="M256.08,-148.16C280.84,-137.59 316.32,-122.45 344.55,-110.4"/>
<polygon fill="black" stroke="black" points="345.99,-113.59 353.81,-106.45 343.24,-107.15 345.99,-113.59"/>
</g>
<!-- 25ffcc32&#45;6676&#45;49d7&#45;84ae&#45;8ce9445feadd&#45;&gt;272c1d0b&#45;9339&#45;43ef&#45;bbe0&#45;4d6b1f264c85 -->
<g id="edge8" class="edge">
<title>25ffcc32&#45;6676&#45;49d7&#45;84ae&#45;8ce9445feadd&#45;&gt;272c1d0b&#45;9339&#45;43ef&#45;bbe0&#45;4d6b1f264c85</title>
<path fill="none" stroke="black" d="M390,-143.7C390,-135.98 390,-126.71 390,-118.11"/>
<polygon fill="black" stroke="black" points="393.5,-118.1 390,-108.1 386.5,-118.1 393.5,-118.1"/>
</g>
<!-- 52dc0309&#45;a70c&#45;4e84&#45;b4e0&#45;25aab7c2c780&#45;&gt;272c1d0b&#45;9339&#45;43ef&#45;bbe0&#45;4d6b1f264c85 -->
<g id="edge9" class="edge">
<title>52dc0309&#45;a70c&#45;4e84&#45;b4e0&#45;25aab7c2c780&#45;&gt;272c1d0b&#45;9339&#45;43ef&#45;bbe0&#45;4d6b1f264c85</title>
<path fill="none" stroke="black" d="M523.92,-148.16C499.16,-137.59 463.68,-122.45 435.45,-110.4"/>
<polygon fill="black" stroke="black" points="436.76,-107.15 426.19,-106.45 434.01,-113.59 436.76,-107.15"/>
</g>
<!-- f7e24f77&#45;7c4f&#45;48eb&#45;8513&#45;607c8fe385fd&#45;&gt;272c1d0b&#45;9339&#45;43ef&#45;bbe0&#45;4d6b1f264c85 -->
<g id="edge10" class="edge">
<title>f7e24f77&#45;7c4f&#45;48eb&#45;8513&#45;607c8fe385fd&#45;&gt;272c1d0b&#45;9339&#45;43ef&#45;bbe0&#45;4d6b1f264c85</title>
<path fill="none" stroke="black" d="M678.44,-152.56C617.46,-139.54 500.82,-114.65 436.11,-100.84"/>
<polygon fill="black" stroke="black" points="436.7,-97.39 426.19,-98.72 435.24,-104.23 436.7,-97.39"/>
</g>
<!-- f0b9b3bd&#45;3259&#45;4784&#45;bc67&#45;5bbf71cf462b -->
<g id="node8" class="node">
<title>f0b9b3bd&#45;3259&#45;4784&#45;bc67&#45;5bbf71cf462b</title>
<ellipse fill="none" stroke="black" cx="390" cy="-18" rx="46.4" ry="18"/>
<text text-anchor="middle" x="390" y="-14.3" font-family="Times,serif" font-size="14.00">AlwaysTrue</text>
</g>
<!-- 272c1d0b&#45;9339&#45;43ef&#45;bbe0&#45;4d6b1f264c85&#45;&gt;f0b9b3bd&#45;3259&#45;4784&#45;bc67&#45;5bbf71cf462b -->
<g id="edge11" class="edge">
<title>272c1d0b&#45;9339&#45;43ef&#45;bbe0&#45;4d6b1f264c85&#45;&gt;f0b9b3bd&#45;3259&#45;4784&#45;bc67&#45;5bbf71cf462b</title>
<path fill="none" stroke="black" d="M390,-71.7C390,-63.98 390,-54.71 390,-46.11"/>
<polygon fill="black" stroke="black" points="393.5,-46.1 390,-36.1 386.5,-46.1 393.5,-46.1"/>
</g>
</g>
</svg>
