<?xml version="1.0" encoding="UTF-8" standalone="no"?>
<!DOCTYPE svg PUBLIC "-//W3C//DTD SVG 1.1//EN"
 "http://www.w3.org/Graphics/SVG/1.1/DTD/svg11.dtd">
<!-- Generated by graphviz version 2.43.0 (0)
 -->
<!-- Title: G Pages: 1 -->
<svg width="262pt" height="277pt"
 viewBox="0.00 0.00 262.30 277.00" xmlns="http://www.w3.org/2000/svg" xmlns:xlink="http://www.w3.org/1999/xlink">
<g id="graph0" class="graph" transform="scale(1 1) rotate(0) translate(4 273)">
<title>G</title>
<polygon fill="transparent" stroke="transparent" points="-4,4 -4,-273 258.3,-273 258.3,4 -4,4"/>
<!-- 246d7abe&#45;2d04&#45;47fe&#45;a91b&#45;a74e89f0f290 -->
<g id="node1" class="node">
<title>246d7abe&#45;2d04&#45;47fe&#45;a91b&#45;a74e89f0f290</title>
<polygon fill="none" stroke="black" points="115.65,-123 50.47,-105 115.65,-87 180.83,-105 115.65,-123"/>
<text text-anchor="middle" x="115.65" y="-101.3" font-family="Times,serif" font-size="14.00">AlwaysTrue</text>
</g>
<!-- ffee4d7c&#45;dacd&#45;4e56&#45;9ce2&#45;a698af5dc552 -->
<g id="node4" class="node">
<title>ffee4d7c&#45;dacd&#45;4e56&#45;9ce2&#45;a698af5dc552</title>
<ellipse fill="none" stroke="black" cx="34.65" cy="-18" rx="34.8" ry="18"/>
<text text-anchor="middle" x="34.65" y="-14.3" font-family="Times,serif" font-size="14.00">WaitArm</text>
</g>
<!-- 246d7abe&#45;2d04&#45;47fe&#45;a91b&#45;a74e89f0f290&#45;&gt;ffee4d7c&#45;dacd&#45;4e56&#45;9ce2&#45;a698af5dc552 -->
<g id="edge2" class="edge">
<title>246d7abe&#45;2d04&#45;47fe&#45;a91b&#45;a74e89f0f290&#45;&gt;ffee4d7c&#45;dacd&#45;4e56&#45;9ce2&#45;a698af5dc552</title>
<path fill="none" stroke="black" d="M98.99,-91.47C90.97,-85.11 81.44,-77.05 73.65,-69 66.07,-61.17 58.52,-51.92 52.11,-43.52"/>
<polygon fill="black" stroke="black" points="54.9,-41.41 46.12,-35.48 49.29,-45.59 54.9,-41.41"/>
<text text-anchor="middle" x="90.65" y="-57.8" font-family="Times,serif" font-size="14.00">True</text>
</g>
<!-- c15bec1a&#45;b434&#45;4b8f&#45;8674&#45;fb2eae4eb77a -->
<g id="node5" class="node">
<title>c15bec1a&#45;b434&#45;4b8f&#45;8674&#45;fb2eae4eb77a</title>
<ellipse fill="none" stroke="black" cx="197.65" cy="-18" rx="56.8" ry="18"/>
<text text-anchor="middle" x="197.65" y="-14.3" font-family="Times,serif" font-size="14.00">UnwrapAction</text>
</g>
<!-- 246d7abe&#45;2d04&#45;47fe&#45;a91b&#45;a74e89f0f290&#45;&gt;c15bec1a&#45;b434&#45;4b8f&#45;8674&#45;fb2eae4eb77a -->
<g id="edge3" class="edge">
<title>246d7abe&#45;2d04&#45;47fe&#45;a91b&#45;a74e89f0f290&#45;&gt;c15bec1a&#45;b434&#45;4b8f&#45;8674&#45;fb2eae4eb77a</title>
<path fill="none" stroke="black" d="M128.83,-90.34C141.09,-77.64 159.63,-58.41 174.38,-43.12"/>
<polygon fill="black" stroke="black" points="177.27,-45.17 181.7,-35.54 172.23,-40.31 177.27,-45.17"/>
<text text-anchor="middle" x="179.65" y="-57.8" font-family="Times,serif" font-size="14.00">False</text>
</g>
<!-- 197e61f4&#45;0b27&#45;49e1&#45;a0d6&#45;41d64ab2ebb0 -->
<g id="node2" class="node">
<title>197e61f4&#45;0b27&#45;49e1&#45;a0d6&#45;41d64ab2ebb0</title>
<ellipse fill="none" stroke="black" cx="115.65" cy="-251" rx="34.8" ry="18"/>
<text text-anchor="middle" x="115.65" y="-247.3" font-family="Times,serif" font-size="14.00">WaitArm</text>
</g>
<!-- aa45ead1&#45;c3b9&#45;407c&#45;b00b&#45;c035d14cd3a7 -->
<g id="node3" class="node">
<title>aa45ead1&#45;c3b9&#45;407c&#45;b00b&#45;c035d14cd3a7</title>
<ellipse fill="none" stroke="black" cx="115.65" cy="-178" rx="33.6" ry="18"/>
<text text-anchor="middle" x="115.65" y="-174.3" font-family="Times,serif" font-size="14.00">Descend</text>
</g>
<!-- 197e61f4&#45;0b27&#45;49e1&#45;a0d6&#45;41d64ab2ebb0&#45;&gt;aa45ead1&#45;c3b9&#45;407c&#45;b00b&#45;c035d14cd3a7 -->
<g id="edge1" class="edge">
<title>197e61f4&#45;0b27&#45;49e1&#45;a0d6&#45;41d64ab2ebb0&#45;&gt;aa45ead1&#45;c3b9&#45;407c&#45;b00b&#45;c035d14cd3a7</title>
<path fill="none" stroke="black" d="M115.65,-232.81C115.65,-224.79 115.65,-215.05 115.65,-206.07"/>
<polygon fill="black" stroke="black" points="119.15,-206.03 115.65,-196.03 112.15,-206.03 119.15,-206.03"/>
</g>
<!-- aa45ead1&#45;c3b9&#45;407c&#45;b00b&#45;c035d14cd3a7&#45;&gt;246d7abe&#45;2d04&#45;47fe&#45;a91b&#45;a74e89f0f290 -->
<g id="edge4" class="edge">
<title>aa45ead1&#45;c3b9&#45;407c&#45;b00b&#45;c035d14cd3a7&#45;&gt;246d7abe&#45;2d04&#45;47fe&#45;a91b&#45;a74e89f0f290</title>
<path fill="none" stroke="black" d="M115.65,-159.81C115.65,-151.79 115.65,-142.05 115.65,-133.07"/>
<polygon fill="black" stroke="black" points="119.15,-133.03 115.65,-123.03 112.15,-133.03 119.15,-133.03"/>
</g>
</g>
</svg>
