<?xml version="1.0" encoding="UTF-8" standalone="no"?>
<!DOCTYPE svg PUBLIC "-//W3C//DTD SVG 1.1//EN"
 "http://www.w3.org/Graphics/SVG/1.1/DTD/svg11.dtd">
<!-- Generated by graphviz version 2.43.0 (0)
 -->
<!-- Title: G Pages: 1 -->
<svg width="318pt" height="987pt"
 viewBox="0.00 0.00 318.29 987.00" xmlns="http://www.w3.org/2000/svg" xmlns:xlink="http://www.w3.org/1999/xlink">
<g id="graph0" class="graph" transform="scale(1 1) rotate(0) translate(4 983)">
<title>G</title>
<polygon fill="transparent" stroke="transparent" points="-4,4 -4,-983 314.29,-983 314.29,4 -4,4"/>
<!-- bb83a6ad&#45;b811&#45;4d4c&#45;b29f&#45;d62bddb82921 -->
<g id="node1" class="node">
<title>bb83a6ad&#45;b811&#45;4d4c&#45;b29f&#45;d62bddb82921</title>
<polygon fill="none" stroke="black" points="65.34,-906 0.16,-888 65.34,-870 130.52,-888 65.34,-906"/>
<text text-anchor="middle" x="65.34" y="-884.3" font-family="Times,serif" font-size="14.00">AlwaysTrue</text>
</g>
<!-- 135a16f5&#45;2ef1&#45;431f&#45;957e&#45;f5126da0ffaf -->
<g id="node11" class="node">
<title>135a16f5&#45;2ef1&#45;431f&#45;957e&#45;f5126da0ffaf</title>
<ellipse fill="none" stroke="black" cx="103.34" cy="-801" rx="46.5" ry="18"/>
<text text-anchor="middle" x="103.34" y="-797.3" font-family="Times,serif" font-size="14.00">VisionNorm</text>
</g>
<!-- bb83a6ad&#45;b811&#45;4d4c&#45;b29f&#45;d62bddb82921&#45;&gt;135a16f5&#45;2ef1&#45;431f&#45;957e&#45;f5126da0ffaf -->
<g id="edge10" class="edge">
<title>bb83a6ad&#45;b811&#45;4d4c&#45;b29f&#45;d62bddb82921&#45;&gt;135a16f5&#45;2ef1&#45;431f&#45;957e&#45;f5126da0ffaf</title>
<path fill="none" stroke="black" d="M72.13,-871.8C77.54,-859.7 85.25,-842.47 91.65,-828.16"/>
<polygon fill="black" stroke="black" points="94.94,-829.37 95.82,-818.81 88.55,-826.51 94.94,-829.37"/>
<text text-anchor="middle" x="104.34" y="-840.8" font-family="Times,serif" font-size="14.00">True</text>
</g>
<!-- c351295a&#45;1b42&#45;4f12&#45;8e1e&#45;384600198319 -->
<g id="node2" class="node">
<title>c351295a&#45;1b42&#45;4f12&#45;8e1e&#45;384600198319</title>
<ellipse fill="none" stroke="black" cx="103.34" cy="-105" rx="27" ry="18"/>
<text text-anchor="middle" x="103.34" y="-101.3" font-family="Times,serif" font-size="14.00">FlatX</text>
</g>
<!-- e2d799a2&#45;82b2&#45;4cd2&#45;9065&#45;257d7fddcce6 -->
<g id="node3" class="node">
<title>e2d799a2&#45;82b2&#45;4cd2&#45;9065&#45;257d7fddcce6</title>
<ellipse fill="none" stroke="black" cx="103.34" cy="-18" rx="80.11" ry="18"/>
<text text-anchor="middle" x="103.34" y="-14.3" font-family="Times,serif" font-size="14.00">Stability2Movement</text>
</g>
<!-- c351295a&#45;1b42&#45;4f12&#45;8e1e&#45;384600198319&#45;&gt;e2d799a2&#45;82b2&#45;4cd2&#45;9065&#45;257d7fddcce6 -->
<g id="edge1" class="edge">
<title>c351295a&#45;1b42&#45;4f12&#45;8e1e&#45;384600198319&#45;&gt;e2d799a2&#45;82b2&#45;4cd2&#45;9065&#45;257d7fddcce6</title>
<path fill="none" stroke="purple" d="M103.34,-86.8C103.34,-75.16 103.34,-59.55 103.34,-46.24"/>
<polygon fill="purple" stroke="purple" points="106.84,-46.18 103.34,-36.18 99.84,-46.18 106.84,-46.18"/>
<text text-anchor="middle" x="138.84" y="-57.8" font-family="Times,serif" font-size="14.00" fill="purple">Pass Data</text>
</g>
<!-- a3a5a9d9&#45;8119&#45;4d31&#45;8d82&#45;eb31d88f5212 -->
<g id="node4" class="node">
<title>a3a5a9d9&#45;8119&#45;4d31&#45;8d82&#45;eb31d88f5212</title>
<ellipse fill="none" stroke="black" cx="103.34" cy="-192" rx="27" ry="18"/>
<text text-anchor="middle" x="103.34" y="-188.3" font-family="Times,serif" font-size="14.00">StripY</text>
</g>
<!-- a3a5a9d9&#45;8119&#45;4d31&#45;8d82&#45;eb31d88f5212&#45;&gt;c351295a&#45;1b42&#45;4f12&#45;8e1e&#45;384600198319 -->
<g id="edge2" class="edge">
<title>a3a5a9d9&#45;8119&#45;4d31&#45;8d82&#45;eb31d88f5212&#45;&gt;c351295a&#45;1b42&#45;4f12&#45;8e1e&#45;384600198319</title>
<path fill="none" stroke="purple" d="M103.34,-173.8C103.34,-162.16 103.34,-146.55 103.34,-133.24"/>
<polygon fill="purple" stroke="purple" points="106.84,-133.18 103.34,-123.18 99.84,-133.18 106.84,-133.18"/>
<text text-anchor="middle" x="138.84" y="-144.8" font-family="Times,serif" font-size="14.00" fill="purple">Pass Data</text>
</g>
<!-- a964a593&#45;ceb2&#45;4c32&#45;83fd&#45;4458021bee43 -->
<g id="node5" class="node">
<title>a964a593&#45;ceb2&#45;4c32&#45;83fd&#45;4458021bee43</title>
<ellipse fill="none" stroke="black" cx="103.34" cy="-279" rx="52.6" ry="18"/>
<text text-anchor="middle" x="103.34" y="-275.3" font-family="Times,serif" font-size="14.00">Anon Closure</text>
</g>
<!-- a964a593&#45;ceb2&#45;4c32&#45;83fd&#45;4458021bee43&#45;&gt;a3a5a9d9&#45;8119&#45;4d31&#45;8d82&#45;eb31d88f5212 -->
<g id="edge3" class="edge">
<title>a964a593&#45;ceb2&#45;4c32&#45;83fd&#45;4458021bee43&#45;&gt;a3a5a9d9&#45;8119&#45;4d31&#45;8d82&#45;eb31d88f5212</title>
<path fill="none" stroke="purple" d="M103.34,-260.8C103.34,-249.16 103.34,-233.55 103.34,-220.24"/>
<polygon fill="purple" stroke="purple" points="106.84,-220.18 103.34,-210.18 99.84,-220.18 106.84,-220.18"/>
<text text-anchor="middle" x="138.84" y="-231.8" font-family="Times,serif" font-size="14.00" fill="purple">Pass Data</text>
</g>
<!-- c6375ba9&#45;c8de&#45;498d&#45;a2ac&#45;2c38e8764846 -->
<g id="node6" class="node">
<title>c6375ba9&#45;c8de&#45;498d&#45;a2ac&#45;2c38e8764846</title>
<ellipse fill="none" stroke="black" cx="103.34" cy="-366" rx="51.3" ry="18"/>
<text text-anchor="middle" x="103.34" y="-362.3" font-family="Times,serif" font-size="14.00">OffsetToPose</text>
</g>
<!-- c6375ba9&#45;c8de&#45;498d&#45;a2ac&#45;2c38e8764846&#45;&gt;a964a593&#45;ceb2&#45;4c32&#45;83fd&#45;4458021bee43 -->
<g id="edge4" class="edge">
<title>c6375ba9&#45;c8de&#45;498d&#45;a2ac&#45;2c38e8764846&#45;&gt;a964a593&#45;ceb2&#45;4c32&#45;83fd&#45;4458021bee43</title>
<path fill="none" stroke="purple" d="M103.34,-347.8C103.34,-336.16 103.34,-320.55 103.34,-307.24"/>
<polygon fill="purple" stroke="purple" points="106.84,-307.18 103.34,-297.18 99.84,-307.18 106.84,-307.18"/>
<text text-anchor="middle" x="138.84" y="-318.8" font-family="Times,serif" font-size="14.00" fill="purple">Pass Data</text>
</g>
<!-- f800b250&#45;d9ad&#45;498c&#45;a81b&#45;00bf828eb61e -->
<g id="node7" class="node">
<title>f800b250&#45;d9ad&#45;498c&#45;a81b&#45;00bf828eb61e</title>
<ellipse fill="none" stroke="black" cx="103.34" cy="-453" rx="32.4" ry="18"/>
<text text-anchor="middle" x="103.34" y="-449.3" font-family="Times,serif" font-size="14.00">Average</text>
</g>
<!-- f800b250&#45;d9ad&#45;498c&#45;a81b&#45;00bf828eb61e&#45;&gt;c6375ba9&#45;c8de&#45;498d&#45;a2ac&#45;2c38e8764846 -->
<g id="edge5" class="edge">
<title>f800b250&#45;d9ad&#45;498c&#45;a81b&#45;00bf828eb61e&#45;&gt;c6375ba9&#45;c8de&#45;498d&#45;a2ac&#45;2c38e8764846</title>
<path fill="none" stroke="purple" d="M103.34,-434.8C103.34,-423.16 103.34,-407.55 103.34,-394.24"/>
<polygon fill="purple" stroke="purple" points="106.84,-394.18 103.34,-384.18 99.84,-394.18 106.84,-394.18"/>
<text text-anchor="middle" x="138.84" y="-405.8" font-family="Times,serif" font-size="14.00" fill="purple">Pass Data</text>
</g>
<!-- 7ebe7b09&#45;3923&#45;491d&#45;809b&#45;8895d9e39283 -->
<g id="node8" class="node">
<title>7ebe7b09&#45;3923&#45;491d&#45;809b&#45;8895d9e39283</title>
<ellipse fill="none" stroke="black" cx="103.34" cy="-540" rx="61.1" ry="18"/>
<text text-anchor="middle" x="103.34" y="-536.3" font-family="Times,serif" font-size="14.00">ExtractPosition</text>
</g>
<!-- 7ebe7b09&#45;3923&#45;491d&#45;809b&#45;8895d9e39283&#45;&gt;f800b250&#45;d9ad&#45;498c&#45;a81b&#45;00bf828eb61e -->
<g id="edge6" class="edge">
<title>7ebe7b09&#45;3923&#45;491d&#45;809b&#45;8895d9e39283&#45;&gt;f800b250&#45;d9ad&#45;498c&#45;a81b&#45;00bf828eb61e</title>
<path fill="none" stroke="purple" d="M103.34,-521.8C103.34,-510.16 103.34,-494.55 103.34,-481.24"/>
<polygon fill="purple" stroke="purple" points="106.84,-481.18 103.34,-471.18 99.84,-481.18 106.84,-481.18"/>
<text text-anchor="middle" x="138.84" y="-492.8" font-family="Times,serif" font-size="14.00" fill="purple">Pass Data</text>
</g>
<!-- 3396b301&#45;91bf&#45;43fd&#45;8ec3&#45;c1b2047ab80e -->
<g id="node9" class="node">
<title>3396b301&#45;91bf&#45;43fd&#45;8ec3&#45;c1b2047ab80e</title>
<ellipse fill="none" stroke="black" cx="103.34" cy="-627" rx="27" ry="18"/>
<text text-anchor="middle" x="103.34" y="-623.3" font-family="Times,serif" font-size="14.00">ToVec</text>
</g>
<!-- 3396b301&#45;91bf&#45;43fd&#45;8ec3&#45;c1b2047ab80e&#45;&gt;7ebe7b09&#45;3923&#45;491d&#45;809b&#45;8895d9e39283 -->
<g id="edge7" class="edge">
<title>3396b301&#45;91bf&#45;43fd&#45;8ec3&#45;c1b2047ab80e&#45;&gt;7ebe7b09&#45;3923&#45;491d&#45;809b&#45;8895d9e39283</title>
<path fill="none" stroke="purple" d="M103.34,-608.8C103.34,-597.16 103.34,-581.55 103.34,-568.24"/>
<polygon fill="purple" stroke="purple" points="106.84,-568.18 103.34,-558.18 99.84,-568.18 106.84,-568.18"/>
<text text-anchor="middle" x="138.84" y="-579.8" font-family="Times,serif" font-size="14.00" fill="purple">Pass Data</text>
</g>
<!-- ec887f03&#45;d1d6&#45;45d7&#45;a609&#45;c9735294b6bb -->
<g id="node10" class="node">
<title>ec887f03&#45;d1d6&#45;45d7&#45;a609&#45;c9735294b6bb</title>
<ellipse fill="none" stroke="black" cx="103.34" cy="-714" rx="45.2" ry="18"/>
<text text-anchor="middle" x="103.34" y="-710.3" font-family="Times,serif" font-size="14.00">Detect true</text>
</g>
<!-- ec887f03&#45;d1d6&#45;45d7&#45;a609&#45;c9735294b6bb&#45;&gt;3396b301&#45;91bf&#45;43fd&#45;8ec3&#45;c1b2047ab80e -->
<g id="edge8" class="edge">
<title>ec887f03&#45;d1d6&#45;45d7&#45;a609&#45;c9735294b6bb&#45;&gt;3396b301&#45;91bf&#45;43fd&#45;8ec3&#45;c1b2047ab80e</title>
<path fill="none" stroke="purple" d="M103.34,-695.8C103.34,-684.16 103.34,-668.55 103.34,-655.24"/>
<polygon fill="purple" stroke="purple" points="106.84,-655.18 103.34,-645.18 99.84,-655.18 106.84,-655.18"/>
<text text-anchor="middle" x="138.84" y="-666.8" font-family="Times,serif" font-size="14.00" fill="purple">Pass Data</text>
</g>
<!-- 135a16f5&#45;2ef1&#45;431f&#45;957e&#45;f5126da0ffaf&#45;&gt;ec887f03&#45;d1d6&#45;45d7&#45;a609&#45;c9735294b6bb -->
<g id="edge9" class="edge">
<title>135a16f5&#45;2ef1&#45;431f&#45;957e&#45;f5126da0ffaf&#45;&gt;ec887f03&#45;d1d6&#45;45d7&#45;a609&#45;c9735294b6bb</title>
<path fill="none" stroke="purple" d="M103.34,-782.8C103.34,-771.16 103.34,-755.55 103.34,-742.24"/>
<polygon fill="purple" stroke="purple" points="106.84,-742.18 103.34,-732.18 99.84,-742.18 106.84,-742.18"/>
<text text-anchor="middle" x="138.84" y="-753.8" font-family="Times,serif" font-size="14.00" fill="purple">Pass Data</text>
</g>
<!-- 7ff463aa&#45;78b0&#45;4b88&#45;ad4d&#45;854356a401e8 -->
<g id="node12" class="node">
<title>7ff463aa&#45;78b0&#45;4b88&#45;ad4d&#45;854356a401e8</title>
<ellipse fill="none" stroke="black" cx="250.34" cy="-888" rx="47.1" ry="18"/>
<text text-anchor="middle" x="250.34" y="-884.3" font-family="Times,serif" font-size="14.00">DelayAction</text>
</g>
<!-- 7ff463aa&#45;78b0&#45;4b88&#45;ad4d&#45;854356a401e8&#45;&gt;135a16f5&#45;2ef1&#45;431f&#45;957e&#45;f5126da0ffaf -->
<g id="edge11" class="edge">
<title>7ff463aa&#45;78b0&#45;4b88&#45;ad4d&#45;854356a401e8&#45;&gt;135a16f5&#45;2ef1&#45;431f&#45;957e&#45;f5126da0ffaf</title>
<path fill="none" stroke="black" d="M225.4,-872.58C201.12,-858.54 164.03,-837.09 137.1,-821.52"/>
<polygon fill="black" stroke="black" points="138.81,-818.47 128.4,-816.49 135.3,-824.53 138.81,-818.47"/>
</g>
<!-- 30130102&#45;c839&#45;4c0e&#45;aae9&#45;ea05a6d97440 -->
<g id="node13" class="node">
<title>30130102&#45;c839&#45;4c0e&#45;aae9&#45;ea05a6d97440</title>
<ellipse fill="none" stroke="black" cx="250.34" cy="-961" rx="59.9" ry="18"/>
<text text-anchor="middle" x="250.34" y="-957.3" font-family="Times,serif" font-size="14.00">ZeroMovement</text>
</g>
<!-- 30130102&#45;c839&#45;4c0e&#45;aae9&#45;ea05a6d97440&#45;&gt;7ff463aa&#45;78b0&#45;4b88&#45;ad4d&#45;854356a401e8 -->
<g id="edge12" class="edge">
<title>30130102&#45;c839&#45;4c0e&#45;aae9&#45;ea05a6d97440&#45;&gt;7ff463aa&#45;78b0&#45;4b88&#45;ad4d&#45;854356a401e8</title>
<path fill="none" stroke="black" d="M250.34,-942.81C250.34,-934.79 250.34,-925.05 250.34,-916.07"/>
<polygon fill="black" stroke="black" points="253.84,-916.03 250.34,-906.03 246.84,-916.03 253.84,-916.03"/>
</g>
</g>
</svg>
