<?xml version="1.0" encoding="UTF-8" standalone="no"?>
<!DOCTYPE svg PUBLIC "-//W3C//DTD SVG 1.1//EN"
 "http://www.w3.org/Graphics/SVG/1.1/DTD/svg11.dtd">
<!-- Generated by graphviz version 2.43.0 (0)
 -->
<!-- Title: G Pages: 1 -->
<svg width="430pt" height="378pt"
 viewBox="0.00 0.00 429.87 378.00" xmlns="http://www.w3.org/2000/svg" xmlns:xlink="http://www.w3.org/1999/xlink">
<g id="graph0" class="graph" transform="scale(1 1) rotate(0) translate(4 374)">
<title>G</title>
<polygon fill="transparent" stroke="transparent" points="-4,4 -4,-374 425.87,-374 425.87,4 -4,4"/>
<!-- f388f817&#45;bef6&#45;4c58&#45;95c1&#45;a4566cccb22c -->
<g id="node1" class="node">
<title>f388f817&#45;bef6&#45;4c58&#45;95c1&#45;a4566cccb22c</title>
<polygon fill="none" stroke="black" points="294.3,-210 166.67,-192 294.3,-174 421.93,-192 294.3,-210"/>
<text text-anchor="middle" x="294.3" y="-188.3" font-family="Times,serif" font-size="14.00">Consecutive True &lt; 28</text>
</g>
<!-- 7b01e992&#45;d6a4&#45;46aa&#45;88a6&#45;e3b58afa7e6d -->
<g id="node2" class="node">
<title>7b01e992&#45;d6a4&#45;46aa&#45;88a6&#45;e3b58afa7e6d</title>
<ellipse fill="none" stroke="black" cx="97.3" cy="-105" rx="38.5" ry="18"/>
<text text-anchor="middle" x="97.3" y="-101.3" font-family="Times,serif" font-size="14.00">ConstYaw</text>
</g>
<!-- f388f817&#45;bef6&#45;4c58&#45;95c1&#45;a4566cccb22c&#45;&gt;7b01e992&#45;d6a4&#45;46aa&#45;88a6&#45;e3b58afa7e6d -->
<g id="edge4" class="edge">
<title>f388f817&#45;bef6&#45;4c58&#45;95c1&#45;a4566cccb22c&#45;&gt;7b01e992&#45;d6a4&#45;46aa&#45;88a6&#45;e3b58afa7e6d</title>
<path fill="none" stroke="black" d="M264.38,-178.09C229.5,-163.04 171.85,-138.16 134.22,-121.93"/>
<polygon fill="black" stroke="black" points="135.21,-118.54 124.64,-117.8 132.44,-124.97 135.21,-118.54"/>
<text text-anchor="middle" x="225.3" y="-144.8" font-family="Times,serif" font-size="14.00">True</text>
</g>
<!-- c5142e76&#45;2c89&#45;4aa2&#45;acf0&#45;ee94ec600519 -->
<g id="node6" class="node">
<title>c5142e76&#45;2c89&#45;4aa2&#45;acf0&#45;ee94ec600519</title>
<ellipse fill="none" stroke="black" cx="294.3" cy="-105" rx="59.9" ry="18"/>
<text text-anchor="middle" x="294.3" y="-101.3" font-family="Times,serif" font-size="14.00">ZeroMovement</text>
</g>
<!-- f388f817&#45;bef6&#45;4c58&#45;95c1&#45;a4566cccb22c&#45;&gt;c5142e76&#45;2c89&#45;4aa2&#45;acf0&#45;ee94ec600519 -->
<g id="edge5" class="edge">
<title>f388f817&#45;bef6&#45;4c58&#45;95c1&#45;a4566cccb22c&#45;&gt;c5142e76&#45;2c89&#45;4aa2&#45;acf0&#45;ee94ec600519</title>
<path fill="none" stroke="black" d="M294.3,-173.8C294.3,-162.16 294.3,-146.55 294.3,-133.24"/>
<polygon fill="black" stroke="black" points="297.8,-133.18 294.3,-123.18 290.8,-133.18 297.8,-133.18"/>
<text text-anchor="middle" x="313.3" y="-144.8" font-family="Times,serif" font-size="14.00">False</text>
</g>
<!-- 6eec6b24&#45;f630&#45;4512&#45;8803&#45;f18af6013433 -->
<g id="node3" class="node">
<title>6eec6b24&#45;f630&#45;4512&#45;8803&#45;f18af6013433</title>
<ellipse fill="none" stroke="black" cx="97.3" cy="-18" rx="80.11" ry="18"/>
<text text-anchor="middle" x="97.3" y="-14.3" font-family="Times,serif" font-size="14.00">Stability2Movement</text>
</g>
<!-- 7b01e992&#45;d6a4&#45;46aa&#45;88a6&#45;e3b58afa7e6d&#45;&gt;6eec6b24&#45;f630&#45;4512&#45;8803&#45;f18af6013433 -->
<g id="edge1" class="edge">
<title>7b01e992&#45;d6a4&#45;46aa&#45;88a6&#45;e3b58afa7e6d&#45;&gt;6eec6b24&#45;f630&#45;4512&#45;8803&#45;f18af6013433</title>
<path fill="none" stroke="purple" d="M97.3,-86.8C97.3,-75.16 97.3,-59.55 97.3,-46.24"/>
<polygon fill="purple" stroke="purple" points="100.8,-46.18 97.3,-36.18 93.8,-46.18 100.8,-46.18"/>
<text text-anchor="middle" x="132.8" y="-57.8" font-family="Times,serif" font-size="14.00" fill="purple">Pass Data</text>
</g>
<!-- f8f4daf7&#45;2e38&#45;4569&#45;9ae8&#45;80fab0729cd8 -->
<g id="node4" class="node">
<title>f8f4daf7&#45;2e38&#45;4569&#45;9ae8&#45;80fab0729cd8</title>
<ellipse fill="none" stroke="black" cx="294.3" cy="-279" rx="46.4" ry="18"/>
<text text-anchor="middle" x="294.3" y="-275.3" font-family="Times,serif" font-size="14.00">AlwaysTrue</text>
</g>
<!-- f8f4daf7&#45;2e38&#45;4569&#45;9ae8&#45;80fab0729cd8&#45;&gt;f388f817&#45;bef6&#45;4c58&#45;95c1&#45;a4566cccb22c -->
<g id="edge2" class="edge">
<title>f8f4daf7&#45;2e38&#45;4569&#45;9ae8&#45;80fab0729cd8&#45;&gt;f388f817&#45;bef6&#45;4c58&#45;95c1&#45;a4566cccb22c</title>
<path fill="none" stroke="purple" d="M294.3,-260.8C294.3,-249.16 294.3,-233.55 294.3,-220.24"/>
<polygon fill="purple" stroke="purple" points="297.8,-220.18 294.3,-210.18 290.8,-220.18 297.8,-220.18"/>
<text text-anchor="middle" x="329.8" y="-231.8" font-family="Times,serif" font-size="14.00" fill="purple">Pass Data</text>
</g>
<!-- 1f92850f&#45;1ed2&#45;44e8&#45;b6fd&#45;1ca30355fb65 -->
<g id="node5" class="node">
<title>1f92850f&#45;1ed2&#45;44e8&#45;b6fd&#45;1ca30355fb65</title>
<ellipse fill="none" stroke="black" cx="294.3" cy="-352" rx="47.1" ry="18"/>
<text text-anchor="middle" x="294.3" y="-348.3" font-family="Times,serif" font-size="14.00">DelayAction</text>
</g>
<!-- 1f92850f&#45;1ed2&#45;44e8&#45;b6fd&#45;1ca30355fb65&#45;&gt;f8f4daf7&#45;2e38&#45;4569&#45;9ae8&#45;80fab0729cd8 -->
<g id="edge3" class="edge">
<title>1f92850f&#45;1ed2&#45;44e8&#45;b6fd&#45;1ca30355fb65&#45;&gt;f8f4daf7&#45;2e38&#45;4569&#45;9ae8&#45;80fab0729cd8</title>
<path fill="none" stroke="black" d="M294.3,-333.81C294.3,-325.79 294.3,-316.05 294.3,-307.07"/>
<polygon fill="black" stroke="black" points="297.8,-307.03 294.3,-297.03 290.8,-307.03 297.8,-307.03"/>
</g>
<!-- 9e9fac4f&#45;2ab8&#45;4082&#45;b10b&#45;08b82c988750 -->
<g id="node7" class="node">
<title>9e9fac4f&#45;2ab8&#45;4082&#45;b10b&#45;08b82c988750</title>
<ellipse fill="none" stroke="black" cx="47.3" cy="-192" rx="47.1" ry="18"/>
<text text-anchor="middle" x="47.3" y="-188.3" font-family="Times,serif" font-size="14.00">DelayAction</text>
</g>
<!-- 9e9fac4f&#45;2ab8&#45;4082&#45;b10b&#45;08b82c988750&#45;&gt;7b01e992&#45;d6a4&#45;46aa&#45;88a6&#45;e3b58afa7e6d -->
<g id="edge6" class="edge">
<title>9e9fac4f&#45;2ab8&#45;4082&#45;b10b&#45;08b82c988750&#45;&gt;7b01e992&#45;d6a4&#45;46aa&#45;88a6&#45;e3b58afa7e6d</title>
<path fill="none" stroke="black" d="M57.18,-174.21C64.42,-161.9 74.36,-145 82.54,-131.09"/>
<polygon fill="black" stroke="black" points="85.56,-132.86 87.61,-122.47 79.53,-129.31 85.56,-132.86"/>
</g>
<!-- 8e20d8bb&#45;1207&#45;44a9&#45;88d1&#45;ef2af51c2b60 -->
<g id="node8" class="node">
<title>8e20d8bb&#45;1207&#45;44a9&#45;88d1&#45;ef2af51c2b60</title>
<ellipse fill="none" stroke="black" cx="47.3" cy="-279" rx="33.6" ry="18"/>
<text text-anchor="middle" x="47.3" y="-275.3" font-family="Times,serif" font-size="14.00">Descend</text>
</g>
<!-- 8e20d8bb&#45;1207&#45;44a9&#45;88d1&#45;ef2af51c2b60&#45;&gt;9e9fac4f&#45;2ab8&#45;4082&#45;b10b&#45;08b82c988750 -->
<g id="edge7" class="edge">
<title>8e20d8bb&#45;1207&#45;44a9&#45;88d1&#45;ef2af51c2b60&#45;&gt;9e9fac4f&#45;2ab8&#45;4082&#45;b10b&#45;08b82c988750</title>
<path fill="none" stroke="black" d="M47.3,-260.8C47.3,-249.16 47.3,-233.55 47.3,-220.24"/>
<polygon fill="black" stroke="black" points="50.8,-220.18 47.3,-210.18 43.8,-220.18 50.8,-220.18"/>
</g>
</g>
</svg>
