<?xml version="1.0" encoding="UTF-8" standalone="no"?>
<!DOCTYPE svg PUBLIC "-//W3C//DTD SVG 1.1//EN"
 "http://www.w3.org/Graphics/SVG/1.1/DTD/svg11.dtd">
<!-- Generated by graphviz version 2.43.0 (0)
 -->
<!-- Title: G Pages: 1 -->
<svg width="318pt" height="987pt"
 viewBox="0.00 0.00 318.29 987.00" xmlns="http://www.w3.org/2000/svg" xmlns:xlink="http://www.w3.org/1999/xlink">
<g id="graph0" class="graph" transform="scale(1 1) rotate(0) translate(4 983)">
<title>G</title>
<polygon fill="transparent" stroke="transparent" points="-4,4 -4,-983 314.29,-983 314.29,4 -4,4"/>
<!-- 56a77f35&#45;c05f&#45;4f9a&#45;aed7&#45;79fa3b7d2ea9 -->
<g id="node1" class="node">
<title>56a77f35&#45;c05f&#45;4f9a&#45;aed7&#45;79fa3b7d2ea9</title>
<polygon fill="none" stroke="black" points="65.34,-906 0.16,-888 65.34,-870 130.52,-888 65.34,-906"/>
<text text-anchor="middle" x="65.34" y="-884.3" font-family="Times,serif" font-size="14.00">AlwaysTrue</text>
</g>
<!-- 923501c7&#45;96dc&#45;489b&#45;a437&#45;c9d5be225c55 -->
<g id="node11" class="node">
<title>923501c7&#45;96dc&#45;489b&#45;a437&#45;c9d5be225c55</title>
<ellipse fill="none" stroke="black" cx="103.34" cy="-801" rx="46.5" ry="18"/>
<text text-anchor="middle" x="103.34" y="-797.3" font-family="Times,serif" font-size="14.00">VisionNorm</text>
</g>
<!-- 56a77f35&#45;c05f&#45;4f9a&#45;aed7&#45;79fa3b7d2ea9&#45;&gt;923501c7&#45;96dc&#45;489b&#45;a437&#45;c9d5be225c55 -->
<g id="edge10" class="edge">
<title>56a77f35&#45;c05f&#45;4f9a&#45;aed7&#45;79fa3b7d2ea9&#45;&gt;923501c7&#45;96dc&#45;489b&#45;a437&#45;c9d5be225c55</title>
<path fill="none" stroke="black" d="M72.13,-871.8C77.54,-859.7 85.25,-842.47 91.65,-828.16"/>
<polygon fill="black" stroke="black" points="94.94,-829.37 95.82,-818.81 88.55,-826.51 94.94,-829.37"/>
<text text-anchor="middle" x="104.34" y="-840.8" font-family="Times,serif" font-size="14.00">True</text>
</g>
<!-- f516490f&#45;c868&#45;4a2f&#45;878f&#45;b4edafcc10ee -->
<g id="node2" class="node">
<title>f516490f&#45;c868&#45;4a2f&#45;878f&#45;b4edafcc10ee</title>
<ellipse fill="none" stroke="black" cx="103.34" cy="-105" rx="27" ry="18"/>
<text text-anchor="middle" x="103.34" y="-101.3" font-family="Times,serif" font-size="14.00">FlatX</text>
</g>
<!-- 9179215d&#45;b1f6&#45;48be&#45;8db0&#45;a2b08bf619ee -->
<g id="node3" class="node">
<title>9179215d&#45;b1f6&#45;48be&#45;8db0&#45;a2b08bf619ee</title>
<ellipse fill="none" stroke="black" cx="103.34" cy="-18" rx="80.11" ry="18"/>
<text text-anchor="middle" x="103.34" y="-14.3" font-family="Times,serif" font-size="14.00">Stability2Movement</text>
</g>
<!-- f516490f&#45;c868&#45;4a2f&#45;878f&#45;b4edafcc10ee&#45;&gt;9179215d&#45;b1f6&#45;48be&#45;8db0&#45;a2b08bf619ee -->
<g id="edge1" class="edge">
<title>f516490f&#45;c868&#45;4a2f&#45;878f&#45;b4edafcc10ee&#45;&gt;9179215d&#45;b1f6&#45;48be&#45;8db0&#45;a2b08bf619ee</title>
<path fill="none" stroke="purple" d="M103.34,-86.8C103.34,-75.16 103.34,-59.55 103.34,-46.24"/>
<polygon fill="purple" stroke="purple" points="106.84,-46.18 103.34,-36.18 99.84,-46.18 106.84,-46.18"/>
<text text-anchor="middle" x="138.84" y="-57.8" font-family="Times,serif" font-size="14.00" fill="purple">Pass Data</text>
</g>
<!-- a8a3f281&#45;42c5&#45;4abe&#45;8a08&#45;5536c66ee6ba -->
<g id="node4" class="node">
<title>a8a3f281&#45;42c5&#45;4abe&#45;8a08&#45;5536c66ee6ba</title>
<ellipse fill="none" stroke="black" cx="103.34" cy="-192" rx="27" ry="18"/>
<text text-anchor="middle" x="103.34" y="-188.3" font-family="Times,serif" font-size="14.00">StripY</text>
</g>
<!-- a8a3f281&#45;42c5&#45;4abe&#45;8a08&#45;5536c66ee6ba&#45;&gt;f516490f&#45;c868&#45;4a2f&#45;878f&#45;b4edafcc10ee -->
<g id="edge2" class="edge">
<title>a8a3f281&#45;42c5&#45;4abe&#45;8a08&#45;5536c66ee6ba&#45;&gt;f516490f&#45;c868&#45;4a2f&#45;878f&#45;b4edafcc10ee</title>
<path fill="none" stroke="purple" d="M103.34,-173.8C103.34,-162.16 103.34,-146.55 103.34,-133.24"/>
<polygon fill="purple" stroke="purple" points="106.84,-133.18 103.34,-123.18 99.84,-133.18 106.84,-133.18"/>
<text text-anchor="middle" x="138.84" y="-144.8" font-family="Times,serif" font-size="14.00" fill="purple">Pass Data</text>
</g>
<!-- bfdb3469&#45;2584&#45;4666&#45;96f9&#45;f2cb2723c0fd -->
<g id="node5" class="node">
<title>bfdb3469&#45;2584&#45;4666&#45;96f9&#45;f2cb2723c0fd</title>
<ellipse fill="none" stroke="black" cx="103.34" cy="-279" rx="52.6" ry="18"/>
<text text-anchor="middle" x="103.34" y="-275.3" font-family="Times,serif" font-size="14.00">Anon Closure</text>
</g>
<!-- bfdb3469&#45;2584&#45;4666&#45;96f9&#45;f2cb2723c0fd&#45;&gt;a8a3f281&#45;42c5&#45;4abe&#45;8a08&#45;5536c66ee6ba -->
<g id="edge3" class="edge">
<title>bfdb3469&#45;2584&#45;4666&#45;96f9&#45;f2cb2723c0fd&#45;&gt;a8a3f281&#45;42c5&#45;4abe&#45;8a08&#45;5536c66ee6ba</title>
<path fill="none" stroke="purple" d="M103.34,-260.8C103.34,-249.16 103.34,-233.55 103.34,-220.24"/>
<polygon fill="purple" stroke="purple" points="106.84,-220.18 103.34,-210.18 99.84,-220.18 106.84,-220.18"/>
<text text-anchor="middle" x="138.84" y="-231.8" font-family="Times,serif" font-size="14.00" fill="purple">Pass Data</text>
</g>
<!-- b04d2627&#45;9567&#45;4e37&#45;b8f3&#45;963d96140af4 -->
<g id="node6" class="node">
<title>b04d2627&#45;9567&#45;4e37&#45;b8f3&#45;963d96140af4</title>
<ellipse fill="none" stroke="black" cx="103.34" cy="-366" rx="51.3" ry="18"/>
<text text-anchor="middle" x="103.34" y="-362.3" font-family="Times,serif" font-size="14.00">OffsetToPose</text>
</g>
<!-- b04d2627&#45;9567&#45;4e37&#45;b8f3&#45;963d96140af4&#45;&gt;bfdb3469&#45;2584&#45;4666&#45;96f9&#45;f2cb2723c0fd -->
<g id="edge4" class="edge">
<title>b04d2627&#45;9567&#45;4e37&#45;b8f3&#45;963d96140af4&#45;&gt;bfdb3469&#45;2584&#45;4666&#45;96f9&#45;f2cb2723c0fd</title>
<path fill="none" stroke="purple" d="M103.34,-347.8C103.34,-336.16 103.34,-320.55 103.34,-307.24"/>
<polygon fill="purple" stroke="purple" points="106.84,-307.18 103.34,-297.18 99.84,-307.18 106.84,-307.18"/>
<text text-anchor="middle" x="138.84" y="-318.8" font-family="Times,serif" font-size="14.00" fill="purple">Pass Data</text>
</g>
<!-- c175ac8e&#45;20c0&#45;4467&#45;8609&#45;6d79827380ac -->
<g id="node7" class="node">
<title>c175ac8e&#45;20c0&#45;4467&#45;8609&#45;6d79827380ac</title>
<ellipse fill="none" stroke="black" cx="103.34" cy="-453" rx="32.4" ry="18"/>
<text text-anchor="middle" x="103.34" y="-449.3" font-family="Times,serif" font-size="14.00">Average</text>
</g>
<!-- c175ac8e&#45;20c0&#45;4467&#45;8609&#45;6d79827380ac&#45;&gt;b04d2627&#45;9567&#45;4e37&#45;b8f3&#45;963d96140af4 -->
<g id="edge5" class="edge">
<title>c175ac8e&#45;20c0&#45;4467&#45;8609&#45;6d79827380ac&#45;&gt;b04d2627&#45;9567&#45;4e37&#45;b8f3&#45;963d96140af4</title>
<path fill="none" stroke="purple" d="M103.34,-434.8C103.34,-423.16 103.34,-407.55 103.34,-394.24"/>
<polygon fill="purple" stroke="purple" points="106.84,-394.18 103.34,-384.18 99.84,-394.18 106.84,-394.18"/>
<text text-anchor="middle" x="138.84" y="-405.8" font-family="Times,serif" font-size="14.00" fill="purple">Pass Data</text>
</g>
<!-- ecbd6110&#45;64cc&#45;41c9&#45;b8a5&#45;d6a3e574d751 -->
<g id="node8" class="node">
<title>ecbd6110&#45;64cc&#45;41c9&#45;b8a5&#45;d6a3e574d751</title>
<ellipse fill="none" stroke="black" cx="103.34" cy="-540" rx="61.1" ry="18"/>
<text text-anchor="middle" x="103.34" y="-536.3" font-family="Times,serif" font-size="14.00">ExtractPosition</text>
</g>
<!-- ecbd6110&#45;64cc&#45;41c9&#45;b8a5&#45;d6a3e574d751&#45;&gt;c175ac8e&#45;20c0&#45;4467&#45;8609&#45;6d79827380ac -->
<g id="edge6" class="edge">
<title>ecbd6110&#45;64cc&#45;41c9&#45;b8a5&#45;d6a3e574d751&#45;&gt;c175ac8e&#45;20c0&#45;4467&#45;8609&#45;6d79827380ac</title>
<path fill="none" stroke="purple" d="M103.34,-521.8C103.34,-510.16 103.34,-494.55 103.34,-481.24"/>
<polygon fill="purple" stroke="purple" points="106.84,-481.18 103.34,-471.18 99.84,-481.18 106.84,-481.18"/>
<text text-anchor="middle" x="138.84" y="-492.8" font-family="Times,serif" font-size="14.00" fill="purple">Pass Data</text>
</g>
<!-- 6658b269&#45;70cd&#45;4908&#45;aec1&#45;343fe8688694 -->
<g id="node9" class="node">
<title>6658b269&#45;70cd&#45;4908&#45;aec1&#45;343fe8688694</title>
<ellipse fill="none" stroke="black" cx="103.34" cy="-627" rx="27" ry="18"/>
<text text-anchor="middle" x="103.34" y="-623.3" font-family="Times,serif" font-size="14.00">ToVec</text>
</g>
<!-- 6658b269&#45;70cd&#45;4908&#45;aec1&#45;343fe8688694&#45;&gt;ecbd6110&#45;64cc&#45;41c9&#45;b8a5&#45;d6a3e574d751 -->
<g id="edge7" class="edge">
<title>6658b269&#45;70cd&#45;4908&#45;aec1&#45;343fe8688694&#45;&gt;ecbd6110&#45;64cc&#45;41c9&#45;b8a5&#45;d6a3e574d751</title>
<path fill="none" stroke="purple" d="M103.34,-608.8C103.34,-597.16 103.34,-581.55 103.34,-568.24"/>
<polygon fill="purple" stroke="purple" points="106.84,-568.18 103.34,-558.18 99.84,-568.18 106.84,-568.18"/>
<text text-anchor="middle" x="138.84" y="-579.8" font-family="Times,serif" font-size="14.00" fill="purple">Pass Data</text>
</g>
<!-- a71af833&#45;0174&#45;422d&#45;ba96&#45;9835b93efc59 -->
<g id="node10" class="node">
<title>a71af833&#45;0174&#45;422d&#45;ba96&#45;9835b93efc59</title>
<ellipse fill="none" stroke="black" cx="103.34" cy="-714" rx="45.2" ry="18"/>
<text text-anchor="middle" x="103.34" y="-710.3" font-family="Times,serif" font-size="14.00">Detect true</text>
</g>
<!-- a71af833&#45;0174&#45;422d&#45;ba96&#45;9835b93efc59&#45;&gt;6658b269&#45;70cd&#45;4908&#45;aec1&#45;343fe8688694 -->
<g id="edge8" class="edge">
<title>a71af833&#45;0174&#45;422d&#45;ba96&#45;9835b93efc59&#45;&gt;6658b269&#45;70cd&#45;4908&#45;aec1&#45;343fe8688694</title>
<path fill="none" stroke="purple" d="M103.34,-695.8C103.34,-684.16 103.34,-668.55 103.34,-655.24"/>
<polygon fill="purple" stroke="purple" points="106.84,-655.18 103.34,-645.18 99.84,-655.18 106.84,-655.18"/>
<text text-anchor="middle" x="138.84" y="-666.8" font-family="Times,serif" font-size="14.00" fill="purple">Pass Data</text>
</g>
<!-- 923501c7&#45;96dc&#45;489b&#45;a437&#45;c9d5be225c55&#45;&gt;a71af833&#45;0174&#45;422d&#45;ba96&#45;9835b93efc59 -->
<g id="edge9" class="edge">
<title>923501c7&#45;96dc&#45;489b&#45;a437&#45;c9d5be225c55&#45;&gt;a71af833&#45;0174&#45;422d&#45;ba96&#45;9835b93efc59</title>
<path fill="none" stroke="purple" d="M103.34,-782.8C103.34,-771.16 103.34,-755.55 103.34,-742.24"/>
<polygon fill="purple" stroke="purple" points="106.84,-742.18 103.34,-732.18 99.84,-742.18 106.84,-742.18"/>
<text text-anchor="middle" x="138.84" y="-753.8" font-family="Times,serif" font-size="14.00" fill="purple">Pass Data</text>
</g>
<!-- 1ee41c44&#45;e877&#45;4bb5&#45;be1e&#45;4771e04e3ecc -->
<g id="node12" class="node">
<title>1ee41c44&#45;e877&#45;4bb5&#45;be1e&#45;4771e04e3ecc</title>
<ellipse fill="none" stroke="black" cx="250.34" cy="-888" rx="47.1" ry="18"/>
<text text-anchor="middle" x="250.34" y="-884.3" font-family="Times,serif" font-size="14.00">DelayAction</text>
</g>
<!-- 1ee41c44&#45;e877&#45;4bb5&#45;be1e&#45;4771e04e3ecc&#45;&gt;923501c7&#45;96dc&#45;489b&#45;a437&#45;c9d5be225c55 -->
<g id="edge11" class="edge">
<title>1ee41c44&#45;e877&#45;4bb5&#45;be1e&#45;4771e04e3ecc&#45;&gt;923501c7&#45;96dc&#45;489b&#45;a437&#45;c9d5be225c55</title>
<path fill="none" stroke="black" d="M225.4,-872.58C201.12,-858.54 164.03,-837.09 137.1,-821.52"/>
<polygon fill="black" stroke="black" points="138.81,-818.47 128.4,-816.49 135.3,-824.53 138.81,-818.47"/>
</g>
<!-- 3e3c1b30&#45;f035&#45;433e&#45;8022&#45;f6d97a107294 -->
<g id="node13" class="node">
<title>3e3c1b30&#45;f035&#45;433e&#45;8022&#45;f6d97a107294</title>
<ellipse fill="none" stroke="black" cx="250.34" cy="-961" rx="59.9" ry="18"/>
<text text-anchor="middle" x="250.34" y="-957.3" font-family="Times,serif" font-size="14.00">ZeroMovement</text>
</g>
<!-- 3e3c1b30&#45;f035&#45;433e&#45;8022&#45;f6d97a107294&#45;&gt;1ee41c44&#45;e877&#45;4bb5&#45;be1e&#45;4771e04e3ecc -->
<g id="edge12" class="edge">
<title>3e3c1b30&#45;f035&#45;433e&#45;8022&#45;f6d97a107294&#45;&gt;1ee41c44&#45;e877&#45;4bb5&#45;be1e&#45;4771e04e3ecc</title>
<path fill="none" stroke="black" d="M250.34,-942.81C250.34,-934.79 250.34,-925.05 250.34,-916.07"/>
<polygon fill="black" stroke="black" points="253.84,-916.03 250.34,-906.03 246.84,-916.03 253.84,-916.03"/>
</g>
</g>
</svg>
