<?xml version="1.0" encoding="UTF-8" standalone="no"?>
<!DOCTYPE svg PUBLIC "-//W3C//DTD SVG 1.1//EN"
 "http://www.w3.org/Graphics/SVG/1.1/DTD/svg11.dtd">
<!-- Generated by graphviz version 2.43.0 (0)
 -->
<!-- Title: G Pages: 1 -->
<svg width="318pt" height="987pt"
 viewBox="0.00 0.00 318.29 987.00" xmlns="http://www.w3.org/2000/svg" xmlns:xlink="http://www.w3.org/1999/xlink">
<g id="graph0" class="graph" transform="scale(1 1) rotate(0) translate(4 983)">
<title>G</title>
<polygon fill="transparent" stroke="transparent" points="-4,4 -4,-983 314.29,-983 314.29,4 -4,4"/>
<!-- 3eb679bb&#45;7e54&#45;4937&#45;a885&#45;cbc68e9c0444 -->
<g id="node1" class="node">
<title>3eb679bb&#45;7e54&#45;4937&#45;a885&#45;cbc68e9c0444</title>
<polygon fill="none" stroke="black" points="65.34,-906 0.16,-888 65.34,-870 130.52,-888 65.34,-906"/>
<text text-anchor="middle" x="65.34" y="-884.3" font-family="Times,serif" font-size="14.00">AlwaysTrue</text>
</g>
<!-- 6720e38b&#45;fde3&#45;4520&#45;9033&#45;38f04d680471 -->
<g id="node11" class="node">
<title>6720e38b&#45;fde3&#45;4520&#45;9033&#45;38f04d680471</title>
<ellipse fill="none" stroke="black" cx="103.34" cy="-801" rx="46.5" ry="18"/>
<text text-anchor="middle" x="103.34" y="-797.3" font-family="Times,serif" font-size="14.00">VisionNorm</text>
</g>
<!-- 3eb679bb&#45;7e54&#45;4937&#45;a885&#45;cbc68e9c0444&#45;&gt;6720e38b&#45;fde3&#45;4520&#45;9033&#45;38f04d680471 -->
<g id="edge10" class="edge">
<title>3eb679bb&#45;7e54&#45;4937&#45;a885&#45;cbc68e9c0444&#45;&gt;6720e38b&#45;fde3&#45;4520&#45;9033&#45;38f04d680471</title>
<path fill="none" stroke="black" d="M72.13,-871.8C77.54,-859.7 85.25,-842.47 91.65,-828.16"/>
<polygon fill="black" stroke="black" points="94.94,-829.37 95.82,-818.81 88.55,-826.51 94.94,-829.37"/>
<text text-anchor="middle" x="104.34" y="-840.8" font-family="Times,serif" font-size="14.00">True</text>
</g>
<!-- f667fccb&#45;ee3c&#45;4040&#45;adae&#45;5e2fa3209081 -->
<g id="node2" class="node">
<title>f667fccb&#45;ee3c&#45;4040&#45;adae&#45;5e2fa3209081</title>
<ellipse fill="none" stroke="black" cx="103.34" cy="-105" rx="27" ry="18"/>
<text text-anchor="middle" x="103.34" y="-101.3" font-family="Times,serif" font-size="14.00">FlatX</text>
</g>
<!-- 7e45666e&#45;ed1c&#45;4836&#45;be04&#45;6faaad05a649 -->
<g id="node3" class="node">
<title>7e45666e&#45;ed1c&#45;4836&#45;be04&#45;6faaad05a649</title>
<ellipse fill="none" stroke="black" cx="103.34" cy="-18" rx="80.11" ry="18"/>
<text text-anchor="middle" x="103.34" y="-14.3" font-family="Times,serif" font-size="14.00">Stability2Movement</text>
</g>
<!-- f667fccb&#45;ee3c&#45;4040&#45;adae&#45;5e2fa3209081&#45;&gt;7e45666e&#45;ed1c&#45;4836&#45;be04&#45;6faaad05a649 -->
<g id="edge1" class="edge">
<title>f667fccb&#45;ee3c&#45;4040&#45;adae&#45;5e2fa3209081&#45;&gt;7e45666e&#45;ed1c&#45;4836&#45;be04&#45;6faaad05a649</title>
<path fill="none" stroke="purple" d="M103.34,-86.8C103.34,-75.16 103.34,-59.55 103.34,-46.24"/>
<polygon fill="purple" stroke="purple" points="106.84,-46.18 103.34,-36.18 99.84,-46.18 106.84,-46.18"/>
<text text-anchor="middle" x="138.84" y="-57.8" font-family="Times,serif" font-size="14.00" fill="purple">Pass Data</text>
</g>
<!-- b56c6098&#45;be11&#45;4cce&#45;852d&#45;f707faa28412 -->
<g id="node4" class="node">
<title>b56c6098&#45;be11&#45;4cce&#45;852d&#45;f707faa28412</title>
<ellipse fill="none" stroke="black" cx="103.34" cy="-192" rx="27" ry="18"/>
<text text-anchor="middle" x="103.34" y="-188.3" font-family="Times,serif" font-size="14.00">StripY</text>
</g>
<!-- b56c6098&#45;be11&#45;4cce&#45;852d&#45;f707faa28412&#45;&gt;f667fccb&#45;ee3c&#45;4040&#45;adae&#45;5e2fa3209081 -->
<g id="edge2" class="edge">
<title>b56c6098&#45;be11&#45;4cce&#45;852d&#45;f707faa28412&#45;&gt;f667fccb&#45;ee3c&#45;4040&#45;adae&#45;5e2fa3209081</title>
<path fill="none" stroke="purple" d="M103.34,-173.8C103.34,-162.16 103.34,-146.55 103.34,-133.24"/>
<polygon fill="purple" stroke="purple" points="106.84,-133.18 103.34,-123.18 99.84,-133.18 106.84,-133.18"/>
<text text-anchor="middle" x="138.84" y="-144.8" font-family="Times,serif" font-size="14.00" fill="purple">Pass Data</text>
</g>
<!-- 89ea7ab2&#45;eb58&#45;4ed7&#45;bd25&#45;7e3ebad411c1 -->
<g id="node5" class="node">
<title>89ea7ab2&#45;eb58&#45;4ed7&#45;bd25&#45;7e3ebad411c1</title>
<ellipse fill="none" stroke="black" cx="103.34" cy="-279" rx="52.6" ry="18"/>
<text text-anchor="middle" x="103.34" y="-275.3" font-family="Times,serif" font-size="14.00">Anon Closure</text>
</g>
<!-- 89ea7ab2&#45;eb58&#45;4ed7&#45;bd25&#45;7e3ebad411c1&#45;&gt;b56c6098&#45;be11&#45;4cce&#45;852d&#45;f707faa28412 -->
<g id="edge3" class="edge">
<title>89ea7ab2&#45;eb58&#45;4ed7&#45;bd25&#45;7e3ebad411c1&#45;&gt;b56c6098&#45;be11&#45;4cce&#45;852d&#45;f707faa28412</title>
<path fill="none" stroke="purple" d="M103.34,-260.8C103.34,-249.16 103.34,-233.55 103.34,-220.24"/>
<polygon fill="purple" stroke="purple" points="106.84,-220.18 103.34,-210.18 99.84,-220.18 106.84,-220.18"/>
<text text-anchor="middle" x="138.84" y="-231.8" font-family="Times,serif" font-size="14.00" fill="purple">Pass Data</text>
</g>
<!-- 0a2ef002&#45;494c&#45;4662&#45;821d&#45;a831ca542042 -->
<g id="node6" class="node">
<title>0a2ef002&#45;494c&#45;4662&#45;821d&#45;a831ca542042</title>
<ellipse fill="none" stroke="black" cx="103.34" cy="-366" rx="51.3" ry="18"/>
<text text-anchor="middle" x="103.34" y="-362.3" font-family="Times,serif" font-size="14.00">OffsetToPose</text>
</g>
<!-- 0a2ef002&#45;494c&#45;4662&#45;821d&#45;a831ca542042&#45;&gt;89ea7ab2&#45;eb58&#45;4ed7&#45;bd25&#45;7e3ebad411c1 -->
<g id="edge4" class="edge">
<title>0a2ef002&#45;494c&#45;4662&#45;821d&#45;a831ca542042&#45;&gt;89ea7ab2&#45;eb58&#45;4ed7&#45;bd25&#45;7e3ebad411c1</title>
<path fill="none" stroke="purple" d="M103.34,-347.8C103.34,-336.16 103.34,-320.55 103.34,-307.24"/>
<polygon fill="purple" stroke="purple" points="106.84,-307.18 103.34,-297.18 99.84,-307.18 106.84,-307.18"/>
<text text-anchor="middle" x="138.84" y="-318.8" font-family="Times,serif" font-size="14.00" fill="purple">Pass Data</text>
</g>
<!-- abc8e5f0&#45;a397&#45;40dc&#45;a347&#45;ca8ac3f4aaf7 -->
<g id="node7" class="node">
<title>abc8e5f0&#45;a397&#45;40dc&#45;a347&#45;ca8ac3f4aaf7</title>
<ellipse fill="none" stroke="black" cx="103.34" cy="-453" rx="32.4" ry="18"/>
<text text-anchor="middle" x="103.34" y="-449.3" font-family="Times,serif" font-size="14.00">Average</text>
</g>
<!-- abc8e5f0&#45;a397&#45;40dc&#45;a347&#45;ca8ac3f4aaf7&#45;&gt;0a2ef002&#45;494c&#45;4662&#45;821d&#45;a831ca542042 -->
<g id="edge5" class="edge">
<title>abc8e5f0&#45;a397&#45;40dc&#45;a347&#45;ca8ac3f4aaf7&#45;&gt;0a2ef002&#45;494c&#45;4662&#45;821d&#45;a831ca542042</title>
<path fill="none" stroke="purple" d="M103.34,-434.8C103.34,-423.16 103.34,-407.55 103.34,-394.24"/>
<polygon fill="purple" stroke="purple" points="106.84,-394.18 103.34,-384.18 99.84,-394.18 106.84,-394.18"/>
<text text-anchor="middle" x="138.84" y="-405.8" font-family="Times,serif" font-size="14.00" fill="purple">Pass Data</text>
</g>
<!-- bb9ac007&#45;8f8a&#45;4b9d&#45;8d78&#45;aed41961ebe6 -->
<g id="node8" class="node">
<title>bb9ac007&#45;8f8a&#45;4b9d&#45;8d78&#45;aed41961ebe6</title>
<ellipse fill="none" stroke="black" cx="103.34" cy="-540" rx="61.1" ry="18"/>
<text text-anchor="middle" x="103.34" y="-536.3" font-family="Times,serif" font-size="14.00">ExtractPosition</text>
</g>
<!-- bb9ac007&#45;8f8a&#45;4b9d&#45;8d78&#45;aed41961ebe6&#45;&gt;abc8e5f0&#45;a397&#45;40dc&#45;a347&#45;ca8ac3f4aaf7 -->
<g id="edge6" class="edge">
<title>bb9ac007&#45;8f8a&#45;4b9d&#45;8d78&#45;aed41961ebe6&#45;&gt;abc8e5f0&#45;a397&#45;40dc&#45;a347&#45;ca8ac3f4aaf7</title>
<path fill="none" stroke="purple" d="M103.34,-521.8C103.34,-510.16 103.34,-494.55 103.34,-481.24"/>
<polygon fill="purple" stroke="purple" points="106.84,-481.18 103.34,-471.18 99.84,-481.18 106.84,-481.18"/>
<text text-anchor="middle" x="138.84" y="-492.8" font-family="Times,serif" font-size="14.00" fill="purple">Pass Data</text>
</g>
<!-- fd84cb62&#45;2d70&#45;4ad9&#45;ba13&#45;d93ede054e3a -->
<g id="node9" class="node">
<title>fd84cb62&#45;2d70&#45;4ad9&#45;ba13&#45;d93ede054e3a</title>
<ellipse fill="none" stroke="black" cx="103.34" cy="-627" rx="27" ry="18"/>
<text text-anchor="middle" x="103.34" y="-623.3" font-family="Times,serif" font-size="14.00">ToVec</text>
</g>
<!-- fd84cb62&#45;2d70&#45;4ad9&#45;ba13&#45;d93ede054e3a&#45;&gt;bb9ac007&#45;8f8a&#45;4b9d&#45;8d78&#45;aed41961ebe6 -->
<g id="edge7" class="edge">
<title>fd84cb62&#45;2d70&#45;4ad9&#45;ba13&#45;d93ede054e3a&#45;&gt;bb9ac007&#45;8f8a&#45;4b9d&#45;8d78&#45;aed41961ebe6</title>
<path fill="none" stroke="purple" d="M103.34,-608.8C103.34,-597.16 103.34,-581.55 103.34,-568.24"/>
<polygon fill="purple" stroke="purple" points="106.84,-568.18 103.34,-558.18 99.84,-568.18 106.84,-568.18"/>
<text text-anchor="middle" x="138.84" y="-579.8" font-family="Times,serif" font-size="14.00" fill="purple">Pass Data</text>
</g>
<!-- b5b313f0&#45;533b&#45;4e28&#45;ae25&#45;de8f7e341ad7 -->
<g id="node10" class="node">
<title>b5b313f0&#45;533b&#45;4e28&#45;ae25&#45;de8f7e341ad7</title>
<ellipse fill="none" stroke="black" cx="103.34" cy="-714" rx="45.2" ry="18"/>
<text text-anchor="middle" x="103.34" y="-710.3" font-family="Times,serif" font-size="14.00">Detect true</text>
</g>
<!-- b5b313f0&#45;533b&#45;4e28&#45;ae25&#45;de8f7e341ad7&#45;&gt;fd84cb62&#45;2d70&#45;4ad9&#45;ba13&#45;d93ede054e3a -->
<g id="edge8" class="edge">
<title>b5b313f0&#45;533b&#45;4e28&#45;ae25&#45;de8f7e341ad7&#45;&gt;fd84cb62&#45;2d70&#45;4ad9&#45;ba13&#45;d93ede054e3a</title>
<path fill="none" stroke="purple" d="M103.34,-695.8C103.34,-684.16 103.34,-668.55 103.34,-655.24"/>
<polygon fill="purple" stroke="purple" points="106.84,-655.18 103.34,-645.18 99.84,-655.18 106.84,-655.18"/>
<text text-anchor="middle" x="138.84" y="-666.8" font-family="Times,serif" font-size="14.00" fill="purple">Pass Data</text>
</g>
<!-- 6720e38b&#45;fde3&#45;4520&#45;9033&#45;38f04d680471&#45;&gt;b5b313f0&#45;533b&#45;4e28&#45;ae25&#45;de8f7e341ad7 -->
<g id="edge9" class="edge">
<title>6720e38b&#45;fde3&#45;4520&#45;9033&#45;38f04d680471&#45;&gt;b5b313f0&#45;533b&#45;4e28&#45;ae25&#45;de8f7e341ad7</title>
<path fill="none" stroke="purple" d="M103.34,-782.8C103.34,-771.16 103.34,-755.55 103.34,-742.24"/>
<polygon fill="purple" stroke="purple" points="106.84,-742.18 103.34,-732.18 99.84,-742.18 106.84,-742.18"/>
<text text-anchor="middle" x="138.84" y="-753.8" font-family="Times,serif" font-size="14.00" fill="purple">Pass Data</text>
</g>
<!-- 21f548b7&#45;060a&#45;4e60&#45;a572&#45;e521f5dcfcc5 -->
<g id="node12" class="node">
<title>21f548b7&#45;060a&#45;4e60&#45;a572&#45;e521f5dcfcc5</title>
<ellipse fill="none" stroke="black" cx="250.34" cy="-888" rx="47.1" ry="18"/>
<text text-anchor="middle" x="250.34" y="-884.3" font-family="Times,serif" font-size="14.00">DelayAction</text>
</g>
<!-- 21f548b7&#45;060a&#45;4e60&#45;a572&#45;e521f5dcfcc5&#45;&gt;6720e38b&#45;fde3&#45;4520&#45;9033&#45;38f04d680471 -->
<g id="edge11" class="edge">
<title>21f548b7&#45;060a&#45;4e60&#45;a572&#45;e521f5dcfcc5&#45;&gt;6720e38b&#45;fde3&#45;4520&#45;9033&#45;38f04d680471</title>
<path fill="none" stroke="black" d="M225.4,-872.58C201.12,-858.54 164.03,-837.09 137.1,-821.52"/>
<polygon fill="black" stroke="black" points="138.81,-818.47 128.4,-816.49 135.3,-824.53 138.81,-818.47"/>
</g>
<!-- b0081800&#45;4082&#45;40e0&#45;98df&#45;30c99d064203 -->
<g id="node13" class="node">
<title>b0081800&#45;4082&#45;40e0&#45;98df&#45;30c99d064203</title>
<ellipse fill="none" stroke="black" cx="250.34" cy="-961" rx="59.9" ry="18"/>
<text text-anchor="middle" x="250.34" y="-957.3" font-family="Times,serif" font-size="14.00">ZeroMovement</text>
</g>
<!-- b0081800&#45;4082&#45;40e0&#45;98df&#45;30c99d064203&#45;&gt;21f548b7&#45;060a&#45;4e60&#45;a572&#45;e521f5dcfcc5 -->
<g id="edge12" class="edge">
<title>b0081800&#45;4082&#45;40e0&#45;98df&#45;30c99d064203&#45;&gt;21f548b7&#45;060a&#45;4e60&#45;a572&#45;e521f5dcfcc5</title>
<path fill="none" stroke="black" d="M250.34,-942.81C250.34,-934.79 250.34,-925.05 250.34,-916.07"/>
<polygon fill="black" stroke="black" points="253.84,-916.03 250.34,-906.03 246.84,-916.03 253.84,-916.03"/>
</g>
</g>
</svg>
