<?xml version="1.0" encoding="UTF-8" standalone="no"?>
<!DOCTYPE svg PUBLIC "-//W3C//DTD SVG 1.1//EN"
 "http://www.w3.org/Graphics/SVG/1.1/DTD/svg11.dtd">
<!-- Generated by graphviz version 2.43.0 (0)
 -->
<!-- Title: G Pages: 1 -->
<svg width="430pt" height="552pt"
 viewBox="0.00 0.00 429.87 552.00" xmlns="http://www.w3.org/2000/svg" xmlns:xlink="http://www.w3.org/1999/xlink">
<g id="graph0" class="graph" transform="scale(1 1) rotate(0) translate(4 548)">
<title>G</title>
<polygon fill="transparent" stroke="transparent" points="-4,4 -4,-548 425.87,-548 425.87,4 -4,4"/>
<!-- e013d464&#45;083e&#45;4fd7&#45;a64a&#45;1465a76d9d1c -->
<g id="node1" class="node">
<title>e013d464&#45;083e&#45;4fd7&#45;a64a&#45;1465a76d9d1c</title>
<polygon fill="none" stroke="black" points="294.3,-384 166.67,-366 294.3,-348 421.93,-366 294.3,-384"/>
<text text-anchor="middle" x="294.3" y="-362.3" font-family="Times,serif" font-size="14.00">Consecutive True &lt; 28</text>
</g>
<!-- d7017aa4&#45;0d2e&#45;4078&#45;9e4c&#45;7240ed8e8b66 -->
<g id="node5" class="node">
<title>d7017aa4&#45;0d2e&#45;4078&#45;9e4c&#45;7240ed8e8b66</title>
<ellipse fill="none" stroke="black" cx="97.3" cy="-279" rx="38.5" ry="18"/>
<text text-anchor="middle" x="97.3" y="-275.3" font-family="Times,serif" font-size="14.00">ConstYaw</text>
</g>
<!-- e013d464&#45;083e&#45;4fd7&#45;a64a&#45;1465a76d9d1c&#45;&gt;d7017aa4&#45;0d2e&#45;4078&#45;9e4c&#45;7240ed8e8b66 -->
<g id="edge6" class="edge">
<title>e013d464&#45;083e&#45;4fd7&#45;a64a&#45;1465a76d9d1c&#45;&gt;d7017aa4&#45;0d2e&#45;4078&#45;9e4c&#45;7240ed8e8b66</title>
<path fill="none" stroke="black" d="M264.38,-352.09C229.5,-337.04 171.85,-312.16 134.22,-295.93"/>
<polygon fill="black" stroke="black" points="135.21,-292.54 124.64,-291.8 132.44,-298.97 135.21,-292.54"/>
<text text-anchor="middle" x="225.3" y="-318.8" font-family="Times,serif" font-size="14.00">True</text>
</g>
<!-- 7ebfee28&#45;1b94&#45;4d0c&#45;93bb&#45;af06d70b0188 -->
<g id="node8" class="node">
<title>7ebfee28&#45;1b94&#45;4d0c&#45;93bb&#45;af06d70b0188</title>
<ellipse fill="none" stroke="black" cx="294.3" cy="-279" rx="59.9" ry="18"/>
<text text-anchor="middle" x="294.3" y="-275.3" font-family="Times,serif" font-size="14.00">ZeroMovement</text>
</g>
<!-- e013d464&#45;083e&#45;4fd7&#45;a64a&#45;1465a76d9d1c&#45;&gt;7ebfee28&#45;1b94&#45;4d0c&#45;93bb&#45;af06d70b0188 -->
<g id="edge7" class="edge">
<title>e013d464&#45;083e&#45;4fd7&#45;a64a&#45;1465a76d9d1c&#45;&gt;7ebfee28&#45;1b94&#45;4d0c&#45;93bb&#45;af06d70b0188</title>
<path fill="none" stroke="black" d="M294.3,-347.8C294.3,-336.16 294.3,-320.55 294.3,-307.24"/>
<polygon fill="black" stroke="black" points="297.8,-307.18 294.3,-297.18 290.8,-307.18 297.8,-307.18"/>
<text text-anchor="middle" x="313.3" y="-318.8" font-family="Times,serif" font-size="14.00">False</text>
</g>
<!-- 2a62b501&#45;1e92&#45;4947&#45;9434&#45;db5e74e37428 -->
<g id="node2" class="node">
<title>2a62b501&#45;1e92&#45;4947&#45;9434&#45;db5e74e37428</title>
<ellipse fill="none" stroke="black" cx="97.3" cy="-105" rx="36.1" ry="18"/>
<text text-anchor="middle" x="97.3" y="-101.3" font-family="Times,serif" font-size="14.00">SideMult</text>
</g>
<!-- ebe16b1c&#45;5da1&#45;487e&#45;b500&#45;e629c241ead1 -->
<g id="node3" class="node">
<title>ebe16b1c&#45;5da1&#45;487e&#45;b500&#45;e629c241ead1</title>
<ellipse fill="none" stroke="black" cx="97.3" cy="-18" rx="80.11" ry="18"/>
<text text-anchor="middle" x="97.3" y="-14.3" font-family="Times,serif" font-size="14.00">Stability2Movement</text>
</g>
<!-- 2a62b501&#45;1e92&#45;4947&#45;9434&#45;db5e74e37428&#45;&gt;ebe16b1c&#45;5da1&#45;487e&#45;b500&#45;e629c241ead1 -->
<g id="edge1" class="edge">
<title>2a62b501&#45;1e92&#45;4947&#45;9434&#45;db5e74e37428&#45;&gt;ebe16b1c&#45;5da1&#45;487e&#45;b500&#45;e629c241ead1</title>
<path fill="none" stroke="purple" d="M97.3,-86.8C97.3,-75.16 97.3,-59.55 97.3,-46.24"/>
<polygon fill="purple" stroke="purple" points="100.8,-46.18 97.3,-36.18 93.8,-46.18 100.8,-46.18"/>
<text text-anchor="middle" x="132.8" y="-57.8" font-family="Times,serif" font-size="14.00" fill="purple">Pass Data</text>
</g>
<!-- 8d789ba6&#45;af46&#45;4ab4&#45;b3d0&#45;ab212883dd0b -->
<g id="node4" class="node">
<title>8d789ba6&#45;af46&#45;4ab4&#45;b3d0&#45;ab212883dd0b</title>
<ellipse fill="none" stroke="black" cx="97.3" cy="-192" rx="27" ry="18"/>
<text text-anchor="middle" x="97.3" y="-188.3" font-family="Times,serif" font-size="14.00">SetX</text>
</g>
<!-- 8d789ba6&#45;af46&#45;4ab4&#45;b3d0&#45;ab212883dd0b&#45;&gt;2a62b501&#45;1e92&#45;4947&#45;9434&#45;db5e74e37428 -->
<g id="edge2" class="edge">
<title>8d789ba6&#45;af46&#45;4ab4&#45;b3d0&#45;ab212883dd0b&#45;&gt;2a62b501&#45;1e92&#45;4947&#45;9434&#45;db5e74e37428</title>
<path fill="none" stroke="purple" d="M97.3,-173.8C97.3,-162.16 97.3,-146.55 97.3,-133.24"/>
<polygon fill="purple" stroke="purple" points="100.8,-133.18 97.3,-123.18 93.8,-133.18 100.8,-133.18"/>
<text text-anchor="middle" x="132.8" y="-144.8" font-family="Times,serif" font-size="14.00" fill="purple">Pass Data</text>
</g>
<!-- d7017aa4&#45;0d2e&#45;4078&#45;9e4c&#45;7240ed8e8b66&#45;&gt;8d789ba6&#45;af46&#45;4ab4&#45;b3d0&#45;ab212883dd0b -->
<g id="edge3" class="edge">
<title>d7017aa4&#45;0d2e&#45;4078&#45;9e4c&#45;7240ed8e8b66&#45;&gt;8d789ba6&#45;af46&#45;4ab4&#45;b3d0&#45;ab212883dd0b</title>
<path fill="none" stroke="purple" d="M97.3,-260.8C97.3,-249.16 97.3,-233.55 97.3,-220.24"/>
<polygon fill="purple" stroke="purple" points="100.8,-220.18 97.3,-210.18 93.8,-220.18 100.8,-220.18"/>
<text text-anchor="middle" x="132.8" y="-231.8" font-family="Times,serif" font-size="14.00" fill="purple">Pass Data</text>
</g>
<!-- 43071a17&#45;2bd6&#45;42b6&#45;a9e9&#45;a4b617877fec -->
<g id="node6" class="node">
<title>43071a17&#45;2bd6&#45;42b6&#45;a9e9&#45;a4b617877fec</title>
<ellipse fill="none" stroke="black" cx="294.3" cy="-453" rx="46.4" ry="18"/>
<text text-anchor="middle" x="294.3" y="-449.3" font-family="Times,serif" font-size="14.00">AlwaysTrue</text>
</g>
<!-- 43071a17&#45;2bd6&#45;42b6&#45;a9e9&#45;a4b617877fec&#45;&gt;e013d464&#45;083e&#45;4fd7&#45;a64a&#45;1465a76d9d1c -->
<g id="edge4" class="edge">
<title>43071a17&#45;2bd6&#45;42b6&#45;a9e9&#45;a4b617877fec&#45;&gt;e013d464&#45;083e&#45;4fd7&#45;a64a&#45;1465a76d9d1c</title>
<path fill="none" stroke="purple" d="M294.3,-434.8C294.3,-423.16 294.3,-407.55 294.3,-394.24"/>
<polygon fill="purple" stroke="purple" points="297.8,-394.18 294.3,-384.18 290.8,-394.18 297.8,-394.18"/>
<text text-anchor="middle" x="329.8" y="-405.8" font-family="Times,serif" font-size="14.00" fill="purple">Pass Data</text>
</g>
<!-- 6a7e6d8d&#45;87a0&#45;4f5b&#45;9d1c&#45;46be4c275c48 -->
<g id="node7" class="node">
<title>6a7e6d8d&#45;87a0&#45;4f5b&#45;9d1c&#45;46be4c275c48</title>
<ellipse fill="none" stroke="black" cx="294.3" cy="-526" rx="47.1" ry="18"/>
<text text-anchor="middle" x="294.3" y="-522.3" font-family="Times,serif" font-size="14.00">DelayAction</text>
</g>
<!-- 6a7e6d8d&#45;87a0&#45;4f5b&#45;9d1c&#45;46be4c275c48&#45;&gt;43071a17&#45;2bd6&#45;42b6&#45;a9e9&#45;a4b617877fec -->
<g id="edge5" class="edge">
<title>6a7e6d8d&#45;87a0&#45;4f5b&#45;9d1c&#45;46be4c275c48&#45;&gt;43071a17&#45;2bd6&#45;42b6&#45;a9e9&#45;a4b617877fec</title>
<path fill="none" stroke="black" d="M294.3,-507.81C294.3,-499.79 294.3,-490.05 294.3,-481.07"/>
<polygon fill="black" stroke="black" points="297.8,-481.03 294.3,-471.03 290.8,-481.03 297.8,-481.03"/>
</g>
<!-- 86349bc0&#45;010f&#45;4589&#45;a560&#45;f80b96c9d004 -->
<g id="node9" class="node">
<title>86349bc0&#45;010f&#45;4589&#45;a560&#45;f80b96c9d004</title>
<ellipse fill="none" stroke="black" cx="47.3" cy="-366" rx="47.1" ry="18"/>
<text text-anchor="middle" x="47.3" y="-362.3" font-family="Times,serif" font-size="14.00">DelayAction</text>
</g>
<!-- 86349bc0&#45;010f&#45;4589&#45;a560&#45;f80b96c9d004&#45;&gt;d7017aa4&#45;0d2e&#45;4078&#45;9e4c&#45;7240ed8e8b66 -->
<g id="edge8" class="edge">
<title>86349bc0&#45;010f&#45;4589&#45;a560&#45;f80b96c9d004&#45;&gt;d7017aa4&#45;0d2e&#45;4078&#45;9e4c&#45;7240ed8e8b66</title>
<path fill="none" stroke="black" d="M57.18,-348.21C64.42,-335.9 74.36,-319 82.54,-305.09"/>
<polygon fill="black" stroke="black" points="85.56,-306.86 87.61,-296.47 79.53,-303.31 85.56,-306.86"/>
</g>
<!-- 94e06be7&#45;2e45&#45;4456&#45;8615&#45;0c5a0a55ffcd -->
<g id="node10" class="node">
<title>94e06be7&#45;2e45&#45;4456&#45;8615&#45;0c5a0a55ffcd</title>
<ellipse fill="none" stroke="black" cx="47.3" cy="-453" rx="33.6" ry="18"/>
<text text-anchor="middle" x="47.3" y="-449.3" font-family="Times,serif" font-size="14.00">Descend</text>
</g>
<!-- 94e06be7&#45;2e45&#45;4456&#45;8615&#45;0c5a0a55ffcd&#45;&gt;86349bc0&#45;010f&#45;4589&#45;a560&#45;f80b96c9d004 -->
<g id="edge9" class="edge">
<title>94e06be7&#45;2e45&#45;4456&#45;8615&#45;0c5a0a55ffcd&#45;&gt;86349bc0&#45;010f&#45;4589&#45;a560&#45;f80b96c9d004</title>
<path fill="none" stroke="black" d="M47.3,-434.8C47.3,-423.16 47.3,-407.55 47.3,-394.24"/>
<polygon fill="black" stroke="black" points="50.8,-394.18 47.3,-384.18 43.8,-394.18 50.8,-394.18"/>
</g>
</g>
</svg>
