<?xml version="1.0" encoding="UTF-8" standalone="no"?>
<!DOCTYPE svg PUBLIC "-//W3C//DTD SVG 1.1//EN"
 "http://www.w3.org/Graphics/SVG/1.1/DTD/svg11.dtd">
<!-- Generated by graphviz version 2.43.0 (0)
 -->
<!-- Title: G Pages: 1 -->
<svg width="318pt" height="987pt"
 viewBox="0.00 0.00 318.29 987.00" xmlns="http://www.w3.org/2000/svg" xmlns:xlink="http://www.w3.org/1999/xlink">
<g id="graph0" class="graph" transform="scale(1 1) rotate(0) translate(4 983)">
<title>G</title>
<polygon fill="transparent" stroke="transparent" points="-4,4 -4,-983 314.29,-983 314.29,4 -4,4"/>
<!-- 41e698b3&#45;0d39&#45;4da4&#45;bd53&#45;5b57c6e94ea0 -->
<g id="node1" class="node">
<title>41e698b3&#45;0d39&#45;4da4&#45;bd53&#45;5b57c6e94ea0</title>
<polygon fill="none" stroke="black" points="65.34,-906 0.16,-888 65.34,-870 130.52,-888 65.34,-906"/>
<text text-anchor="middle" x="65.34" y="-884.3" font-family="Times,serif" font-size="14.00">AlwaysTrue</text>
</g>
<!-- adf730ef&#45;f48b&#45;4038&#45;8d86&#45;a9d2adedc0da -->
<g id="node11" class="node">
<title>adf730ef&#45;f48b&#45;4038&#45;8d86&#45;a9d2adedc0da</title>
<ellipse fill="none" stroke="black" cx="103.34" cy="-801" rx="46.5" ry="18"/>
<text text-anchor="middle" x="103.34" y="-797.3" font-family="Times,serif" font-size="14.00">VisionNorm</text>
</g>
<!-- 41e698b3&#45;0d39&#45;4da4&#45;bd53&#45;5b57c6e94ea0&#45;&gt;adf730ef&#45;f48b&#45;4038&#45;8d86&#45;a9d2adedc0da -->
<g id="edge10" class="edge">
<title>41e698b3&#45;0d39&#45;4da4&#45;bd53&#45;5b57c6e94ea0&#45;&gt;adf730ef&#45;f48b&#45;4038&#45;8d86&#45;a9d2adedc0da</title>
<path fill="none" stroke="black" d="M72.13,-871.8C77.54,-859.7 85.25,-842.47 91.65,-828.16"/>
<polygon fill="black" stroke="black" points="94.94,-829.37 95.82,-818.81 88.55,-826.51 94.94,-829.37"/>
<text text-anchor="middle" x="104.34" y="-840.8" font-family="Times,serif" font-size="14.00">True</text>
</g>
<!-- 0fc2609c&#45;447a&#45;4ad2&#45;81ae&#45;57bdc3279d67 -->
<g id="node2" class="node">
<title>0fc2609c&#45;447a&#45;4ad2&#45;81ae&#45;57bdc3279d67</title>
<ellipse fill="none" stroke="black" cx="103.34" cy="-105" rx="27" ry="18"/>
<text text-anchor="middle" x="103.34" y="-101.3" font-family="Times,serif" font-size="14.00">FlatX</text>
</g>
<!-- 2c9ff50d&#45;0feb&#45;434c&#45;92c5&#45;940c5238a5e4 -->
<g id="node3" class="node">
<title>2c9ff50d&#45;0feb&#45;434c&#45;92c5&#45;940c5238a5e4</title>
<ellipse fill="none" stroke="black" cx="103.34" cy="-18" rx="80.11" ry="18"/>
<text text-anchor="middle" x="103.34" y="-14.3" font-family="Times,serif" font-size="14.00">Stability2Movement</text>
</g>
<!-- 0fc2609c&#45;447a&#45;4ad2&#45;81ae&#45;57bdc3279d67&#45;&gt;2c9ff50d&#45;0feb&#45;434c&#45;92c5&#45;940c5238a5e4 -->
<g id="edge1" class="edge">
<title>0fc2609c&#45;447a&#45;4ad2&#45;81ae&#45;57bdc3279d67&#45;&gt;2c9ff50d&#45;0feb&#45;434c&#45;92c5&#45;940c5238a5e4</title>
<path fill="none" stroke="purple" d="M103.34,-86.8C103.34,-75.16 103.34,-59.55 103.34,-46.24"/>
<polygon fill="purple" stroke="purple" points="106.84,-46.18 103.34,-36.18 99.84,-46.18 106.84,-46.18"/>
<text text-anchor="middle" x="138.84" y="-57.8" font-family="Times,serif" font-size="14.00" fill="purple">Pass Data</text>
</g>
<!-- c90b9361&#45;b887&#45;45d7&#45;b3eb&#45;342e23b6348a -->
<g id="node4" class="node">
<title>c90b9361&#45;b887&#45;45d7&#45;b3eb&#45;342e23b6348a</title>
<ellipse fill="none" stroke="black" cx="103.34" cy="-192" rx="27" ry="18"/>
<text text-anchor="middle" x="103.34" y="-188.3" font-family="Times,serif" font-size="14.00">StripY</text>
</g>
<!-- c90b9361&#45;b887&#45;45d7&#45;b3eb&#45;342e23b6348a&#45;&gt;0fc2609c&#45;447a&#45;4ad2&#45;81ae&#45;57bdc3279d67 -->
<g id="edge2" class="edge">
<title>c90b9361&#45;b887&#45;45d7&#45;b3eb&#45;342e23b6348a&#45;&gt;0fc2609c&#45;447a&#45;4ad2&#45;81ae&#45;57bdc3279d67</title>
<path fill="none" stroke="purple" d="M103.34,-173.8C103.34,-162.16 103.34,-146.55 103.34,-133.24"/>
<polygon fill="purple" stroke="purple" points="106.84,-133.18 103.34,-123.18 99.84,-133.18 106.84,-133.18"/>
<text text-anchor="middle" x="138.84" y="-144.8" font-family="Times,serif" font-size="14.00" fill="purple">Pass Data</text>
</g>
<!-- 62209862&#45;388c&#45;4ef3&#45;ad30&#45;58b10ff6639f -->
<g id="node5" class="node">
<title>62209862&#45;388c&#45;4ef3&#45;ad30&#45;58b10ff6639f</title>
<ellipse fill="none" stroke="black" cx="103.34" cy="-279" rx="52.6" ry="18"/>
<text text-anchor="middle" x="103.34" y="-275.3" font-family="Times,serif" font-size="14.00">Anon Closure</text>
</g>
<!-- 62209862&#45;388c&#45;4ef3&#45;ad30&#45;58b10ff6639f&#45;&gt;c90b9361&#45;b887&#45;45d7&#45;b3eb&#45;342e23b6348a -->
<g id="edge3" class="edge">
<title>62209862&#45;388c&#45;4ef3&#45;ad30&#45;58b10ff6639f&#45;&gt;c90b9361&#45;b887&#45;45d7&#45;b3eb&#45;342e23b6348a</title>
<path fill="none" stroke="purple" d="M103.34,-260.8C103.34,-249.16 103.34,-233.55 103.34,-220.24"/>
<polygon fill="purple" stroke="purple" points="106.84,-220.18 103.34,-210.18 99.84,-220.18 106.84,-220.18"/>
<text text-anchor="middle" x="138.84" y="-231.8" font-family="Times,serif" font-size="14.00" fill="purple">Pass Data</text>
</g>
<!-- c00d0762&#45;9893&#45;4243&#45;ac44&#45;93172dcb2d8f -->
<g id="node6" class="node">
<title>c00d0762&#45;9893&#45;4243&#45;ac44&#45;93172dcb2d8f</title>
<ellipse fill="none" stroke="black" cx="103.34" cy="-366" rx="51.3" ry="18"/>
<text text-anchor="middle" x="103.34" y="-362.3" font-family="Times,serif" font-size="14.00">OffsetToPose</text>
</g>
<!-- c00d0762&#45;9893&#45;4243&#45;ac44&#45;93172dcb2d8f&#45;&gt;62209862&#45;388c&#45;4ef3&#45;ad30&#45;58b10ff6639f -->
<g id="edge4" class="edge">
<title>c00d0762&#45;9893&#45;4243&#45;ac44&#45;93172dcb2d8f&#45;&gt;62209862&#45;388c&#45;4ef3&#45;ad30&#45;58b10ff6639f</title>
<path fill="none" stroke="purple" d="M103.34,-347.8C103.34,-336.16 103.34,-320.55 103.34,-307.24"/>
<polygon fill="purple" stroke="purple" points="106.84,-307.18 103.34,-297.18 99.84,-307.18 106.84,-307.18"/>
<text text-anchor="middle" x="138.84" y="-318.8" font-family="Times,serif" font-size="14.00" fill="purple">Pass Data</text>
</g>
<!-- 7230da7a&#45;ce7e&#45;47bc&#45;8eb2&#45;e996f15da158 -->
<g id="node7" class="node">
<title>7230da7a&#45;ce7e&#45;47bc&#45;8eb2&#45;e996f15da158</title>
<ellipse fill="none" stroke="black" cx="103.34" cy="-453" rx="32.4" ry="18"/>
<text text-anchor="middle" x="103.34" y="-449.3" font-family="Times,serif" font-size="14.00">Average</text>
</g>
<!-- 7230da7a&#45;ce7e&#45;47bc&#45;8eb2&#45;e996f15da158&#45;&gt;c00d0762&#45;9893&#45;4243&#45;ac44&#45;93172dcb2d8f -->
<g id="edge5" class="edge">
<title>7230da7a&#45;ce7e&#45;47bc&#45;8eb2&#45;e996f15da158&#45;&gt;c00d0762&#45;9893&#45;4243&#45;ac44&#45;93172dcb2d8f</title>
<path fill="none" stroke="purple" d="M103.34,-434.8C103.34,-423.16 103.34,-407.55 103.34,-394.24"/>
<polygon fill="purple" stroke="purple" points="106.84,-394.18 103.34,-384.18 99.84,-394.18 106.84,-394.18"/>
<text text-anchor="middle" x="138.84" y="-405.8" font-family="Times,serif" font-size="14.00" fill="purple">Pass Data</text>
</g>
<!-- 13523c9e&#45;ce54&#45;4b65&#45;ab09&#45;9f83c1501398 -->
<g id="node8" class="node">
<title>13523c9e&#45;ce54&#45;4b65&#45;ab09&#45;9f83c1501398</title>
<ellipse fill="none" stroke="black" cx="103.34" cy="-540" rx="61.1" ry="18"/>
<text text-anchor="middle" x="103.34" y="-536.3" font-family="Times,serif" font-size="14.00">ExtractPosition</text>
</g>
<!-- 13523c9e&#45;ce54&#45;4b65&#45;ab09&#45;9f83c1501398&#45;&gt;7230da7a&#45;ce7e&#45;47bc&#45;8eb2&#45;e996f15da158 -->
<g id="edge6" class="edge">
<title>13523c9e&#45;ce54&#45;4b65&#45;ab09&#45;9f83c1501398&#45;&gt;7230da7a&#45;ce7e&#45;47bc&#45;8eb2&#45;e996f15da158</title>
<path fill="none" stroke="purple" d="M103.34,-521.8C103.34,-510.16 103.34,-494.55 103.34,-481.24"/>
<polygon fill="purple" stroke="purple" points="106.84,-481.18 103.34,-471.18 99.84,-481.18 106.84,-481.18"/>
<text text-anchor="middle" x="138.84" y="-492.8" font-family="Times,serif" font-size="14.00" fill="purple">Pass Data</text>
</g>
<!-- 2462917b&#45;45bc&#45;4899&#45;836c&#45;90ecabb184ec -->
<g id="node9" class="node">
<title>2462917b&#45;45bc&#45;4899&#45;836c&#45;90ecabb184ec</title>
<ellipse fill="none" stroke="black" cx="103.34" cy="-627" rx="27" ry="18"/>
<text text-anchor="middle" x="103.34" y="-623.3" font-family="Times,serif" font-size="14.00">ToVec</text>
</g>
<!-- 2462917b&#45;45bc&#45;4899&#45;836c&#45;90ecabb184ec&#45;&gt;13523c9e&#45;ce54&#45;4b65&#45;ab09&#45;9f83c1501398 -->
<g id="edge7" class="edge">
<title>2462917b&#45;45bc&#45;4899&#45;836c&#45;90ecabb184ec&#45;&gt;13523c9e&#45;ce54&#45;4b65&#45;ab09&#45;9f83c1501398</title>
<path fill="none" stroke="purple" d="M103.34,-608.8C103.34,-597.16 103.34,-581.55 103.34,-568.24"/>
<polygon fill="purple" stroke="purple" points="106.84,-568.18 103.34,-558.18 99.84,-568.18 106.84,-568.18"/>
<text text-anchor="middle" x="138.84" y="-579.8" font-family="Times,serif" font-size="14.00" fill="purple">Pass Data</text>
</g>
<!-- 637e269e&#45;1cbd&#45;456a&#45;9424&#45;cce93ceb02a6 -->
<g id="node10" class="node">
<title>637e269e&#45;1cbd&#45;456a&#45;9424&#45;cce93ceb02a6</title>
<ellipse fill="none" stroke="black" cx="103.34" cy="-714" rx="45.2" ry="18"/>
<text text-anchor="middle" x="103.34" y="-710.3" font-family="Times,serif" font-size="14.00">Detect true</text>
</g>
<!-- 637e269e&#45;1cbd&#45;456a&#45;9424&#45;cce93ceb02a6&#45;&gt;2462917b&#45;45bc&#45;4899&#45;836c&#45;90ecabb184ec -->
<g id="edge8" class="edge">
<title>637e269e&#45;1cbd&#45;456a&#45;9424&#45;cce93ceb02a6&#45;&gt;2462917b&#45;45bc&#45;4899&#45;836c&#45;90ecabb184ec</title>
<path fill="none" stroke="purple" d="M103.34,-695.8C103.34,-684.16 103.34,-668.55 103.34,-655.24"/>
<polygon fill="purple" stroke="purple" points="106.84,-655.18 103.34,-645.18 99.84,-655.18 106.84,-655.18"/>
<text text-anchor="middle" x="138.84" y="-666.8" font-family="Times,serif" font-size="14.00" fill="purple">Pass Data</text>
</g>
<!-- adf730ef&#45;f48b&#45;4038&#45;8d86&#45;a9d2adedc0da&#45;&gt;637e269e&#45;1cbd&#45;456a&#45;9424&#45;cce93ceb02a6 -->
<g id="edge9" class="edge">
<title>adf730ef&#45;f48b&#45;4038&#45;8d86&#45;a9d2adedc0da&#45;&gt;637e269e&#45;1cbd&#45;456a&#45;9424&#45;cce93ceb02a6</title>
<path fill="none" stroke="purple" d="M103.34,-782.8C103.34,-771.16 103.34,-755.55 103.34,-742.24"/>
<polygon fill="purple" stroke="purple" points="106.84,-742.18 103.34,-732.18 99.84,-742.18 106.84,-742.18"/>
<text text-anchor="middle" x="138.84" y="-753.8" font-family="Times,serif" font-size="14.00" fill="purple">Pass Data</text>
</g>
<!-- 4e45ed80&#45;44eb&#45;440a&#45;8a03&#45;4ffc5ede8db4 -->
<g id="node12" class="node">
<title>4e45ed80&#45;44eb&#45;440a&#45;8a03&#45;4ffc5ede8db4</title>
<ellipse fill="none" stroke="black" cx="250.34" cy="-888" rx="47.1" ry="18"/>
<text text-anchor="middle" x="250.34" y="-884.3" font-family="Times,serif" font-size="14.00">DelayAction</text>
</g>
<!-- 4e45ed80&#45;44eb&#45;440a&#45;8a03&#45;4ffc5ede8db4&#45;&gt;adf730ef&#45;f48b&#45;4038&#45;8d86&#45;a9d2adedc0da -->
<g id="edge11" class="edge">
<title>4e45ed80&#45;44eb&#45;440a&#45;8a03&#45;4ffc5ede8db4&#45;&gt;adf730ef&#45;f48b&#45;4038&#45;8d86&#45;a9d2adedc0da</title>
<path fill="none" stroke="black" d="M225.4,-872.58C201.12,-858.54 164.03,-837.09 137.1,-821.52"/>
<polygon fill="black" stroke="black" points="138.81,-818.47 128.4,-816.49 135.3,-824.53 138.81,-818.47"/>
</g>
<!-- 2b179b1e&#45;8beb&#45;492d&#45;88b7&#45;44d9408d9dd1 -->
<g id="node13" class="node">
<title>2b179b1e&#45;8beb&#45;492d&#45;88b7&#45;44d9408d9dd1</title>
<ellipse fill="none" stroke="black" cx="250.34" cy="-961" rx="59.9" ry="18"/>
<text text-anchor="middle" x="250.34" y="-957.3" font-family="Times,serif" font-size="14.00">ZeroMovement</text>
</g>
<!-- 2b179b1e&#45;8beb&#45;492d&#45;88b7&#45;44d9408d9dd1&#45;&gt;4e45ed80&#45;44eb&#45;440a&#45;8a03&#45;4ffc5ede8db4 -->
<g id="edge12" class="edge">
<title>2b179b1e&#45;8beb&#45;492d&#45;88b7&#45;44d9408d9dd1&#45;&gt;4e45ed80&#45;44eb&#45;440a&#45;8a03&#45;4ffc5ede8db4</title>
<path fill="none" stroke="black" d="M250.34,-942.81C250.34,-934.79 250.34,-925.05 250.34,-916.07"/>
<polygon fill="black" stroke="black" points="253.84,-916.03 250.34,-906.03 246.84,-916.03 253.84,-916.03"/>
</g>
</g>
</svg>
