<?xml version="1.0" encoding="UTF-8" standalone="no"?>
<!DOCTYPE svg PUBLIC "-//W3C//DTD SVG 1.1//EN"
 "http://www.w3.org/Graphics/SVG/1.1/DTD/svg11.dtd">
<!-- Generated by graphviz version 2.43.0 (0)
 -->
<!-- Title: G Pages: 1 -->
<svg width="430pt" height="378pt"
 viewBox="0.00 0.00 429.87 378.00" xmlns="http://www.w3.org/2000/svg" xmlns:xlink="http://www.w3.org/1999/xlink">
<g id="graph0" class="graph" transform="scale(1 1) rotate(0) translate(4 374)">
<title>G</title>
<polygon fill="transparent" stroke="transparent" points="-4,4 -4,-374 425.87,-374 425.87,4 -4,4"/>
<!-- 58610e4d&#45;0f6d&#45;44ae&#45;9ca5&#45;373c52ff3d5c -->
<g id="node1" class="node">
<title>58610e4d&#45;0f6d&#45;44ae&#45;9ca5&#45;373c52ff3d5c</title>
<polygon fill="none" stroke="black" points="294.3,-210 166.67,-192 294.3,-174 421.93,-192 294.3,-210"/>
<text text-anchor="middle" x="294.3" y="-188.3" font-family="Times,serif" font-size="14.00">Consecutive True &lt; 28</text>
</g>
<!-- b0fd5fef&#45;ad7d&#45;4a6a&#45;89dd&#45;378b5d0d1358 -->
<g id="node2" class="node">
<title>b0fd5fef&#45;ad7d&#45;4a6a&#45;89dd&#45;378b5d0d1358</title>
<ellipse fill="none" stroke="black" cx="97.3" cy="-105" rx="38.5" ry="18"/>
<text text-anchor="middle" x="97.3" y="-101.3" font-family="Times,serif" font-size="14.00">ConstYaw</text>
</g>
<!-- 58610e4d&#45;0f6d&#45;44ae&#45;9ca5&#45;373c52ff3d5c&#45;&gt;b0fd5fef&#45;ad7d&#45;4a6a&#45;89dd&#45;378b5d0d1358 -->
<g id="edge4" class="edge">
<title>58610e4d&#45;0f6d&#45;44ae&#45;9ca5&#45;373c52ff3d5c&#45;&gt;b0fd5fef&#45;ad7d&#45;4a6a&#45;89dd&#45;378b5d0d1358</title>
<path fill="none" stroke="black" d="M264.38,-178.09C229.5,-163.04 171.85,-138.16 134.22,-121.93"/>
<polygon fill="black" stroke="black" points="135.21,-118.54 124.64,-117.8 132.44,-124.97 135.21,-118.54"/>
<text text-anchor="middle" x="225.3" y="-144.8" font-family="Times,serif" font-size="14.00">True</text>
</g>
<!-- 58214b63&#45;0e74&#45;4b37&#45;99ce&#45;cf23d5833713 -->
<g id="node6" class="node">
<title>58214b63&#45;0e74&#45;4b37&#45;99ce&#45;cf23d5833713</title>
<ellipse fill="none" stroke="black" cx="294.3" cy="-105" rx="59.9" ry="18"/>
<text text-anchor="middle" x="294.3" y="-101.3" font-family="Times,serif" font-size="14.00">ZeroMovement</text>
</g>
<!-- 58610e4d&#45;0f6d&#45;44ae&#45;9ca5&#45;373c52ff3d5c&#45;&gt;58214b63&#45;0e74&#45;4b37&#45;99ce&#45;cf23d5833713 -->
<g id="edge5" class="edge">
<title>58610e4d&#45;0f6d&#45;44ae&#45;9ca5&#45;373c52ff3d5c&#45;&gt;58214b63&#45;0e74&#45;4b37&#45;99ce&#45;cf23d5833713</title>
<path fill="none" stroke="black" d="M294.3,-173.8C294.3,-162.16 294.3,-146.55 294.3,-133.24"/>
<polygon fill="black" stroke="black" points="297.8,-133.18 294.3,-123.18 290.8,-133.18 297.8,-133.18"/>
<text text-anchor="middle" x="313.3" y="-144.8" font-family="Times,serif" font-size="14.00">False</text>
</g>
<!-- 7096310b&#45;2d4e&#45;48f3&#45;a65e&#45;ba17711e5a20 -->
<g id="node3" class="node">
<title>7096310b&#45;2d4e&#45;48f3&#45;a65e&#45;ba17711e5a20</title>
<ellipse fill="none" stroke="black" cx="97.3" cy="-18" rx="80.11" ry="18"/>
<text text-anchor="middle" x="97.3" y="-14.3" font-family="Times,serif" font-size="14.00">Stability2Movement</text>
</g>
<!-- b0fd5fef&#45;ad7d&#45;4a6a&#45;89dd&#45;378b5d0d1358&#45;&gt;7096310b&#45;2d4e&#45;48f3&#45;a65e&#45;ba17711e5a20 -->
<g id="edge1" class="edge">
<title>b0fd5fef&#45;ad7d&#45;4a6a&#45;89dd&#45;378b5d0d1358&#45;&gt;7096310b&#45;2d4e&#45;48f3&#45;a65e&#45;ba17711e5a20</title>
<path fill="none" stroke="purple" d="M97.3,-86.8C97.3,-75.16 97.3,-59.55 97.3,-46.24"/>
<polygon fill="purple" stroke="purple" points="100.8,-46.18 97.3,-36.18 93.8,-46.18 100.8,-46.18"/>
<text text-anchor="middle" x="132.8" y="-57.8" font-family="Times,serif" font-size="14.00" fill="purple">Pass Data</text>
</g>
<!-- 1ddffa01&#45;72ba&#45;43e3&#45;b117&#45;c3c555d25c49 -->
<g id="node4" class="node">
<title>1ddffa01&#45;72ba&#45;43e3&#45;b117&#45;c3c555d25c49</title>
<ellipse fill="none" stroke="black" cx="294.3" cy="-279" rx="46.4" ry="18"/>
<text text-anchor="middle" x="294.3" y="-275.3" font-family="Times,serif" font-size="14.00">AlwaysTrue</text>
</g>
<!-- 1ddffa01&#45;72ba&#45;43e3&#45;b117&#45;c3c555d25c49&#45;&gt;58610e4d&#45;0f6d&#45;44ae&#45;9ca5&#45;373c52ff3d5c -->
<g id="edge2" class="edge">
<title>1ddffa01&#45;72ba&#45;43e3&#45;b117&#45;c3c555d25c49&#45;&gt;58610e4d&#45;0f6d&#45;44ae&#45;9ca5&#45;373c52ff3d5c</title>
<path fill="none" stroke="purple" d="M294.3,-260.8C294.3,-249.16 294.3,-233.55 294.3,-220.24"/>
<polygon fill="purple" stroke="purple" points="297.8,-220.18 294.3,-210.18 290.8,-220.18 297.8,-220.18"/>
<text text-anchor="middle" x="329.8" y="-231.8" font-family="Times,serif" font-size="14.00" fill="purple">Pass Data</text>
</g>
<!-- bece99da&#45;c6b5&#45;4135&#45;b327&#45;14e49578e0a7 -->
<g id="node5" class="node">
<title>bece99da&#45;c6b5&#45;4135&#45;b327&#45;14e49578e0a7</title>
<ellipse fill="none" stroke="black" cx="294.3" cy="-352" rx="47.1" ry="18"/>
<text text-anchor="middle" x="294.3" y="-348.3" font-family="Times,serif" font-size="14.00">DelayAction</text>
</g>
<!-- bece99da&#45;c6b5&#45;4135&#45;b327&#45;14e49578e0a7&#45;&gt;1ddffa01&#45;72ba&#45;43e3&#45;b117&#45;c3c555d25c49 -->
<g id="edge3" class="edge">
<title>bece99da&#45;c6b5&#45;4135&#45;b327&#45;14e49578e0a7&#45;&gt;1ddffa01&#45;72ba&#45;43e3&#45;b117&#45;c3c555d25c49</title>
<path fill="none" stroke="black" d="M294.3,-333.81C294.3,-325.79 294.3,-316.05 294.3,-307.07"/>
<polygon fill="black" stroke="black" points="297.8,-307.03 294.3,-297.03 290.8,-307.03 297.8,-307.03"/>
</g>
<!-- fb8ed7e7&#45;cd62&#45;4106&#45;8b61&#45;7942c77bd3a6 -->
<g id="node7" class="node">
<title>fb8ed7e7&#45;cd62&#45;4106&#45;8b61&#45;7942c77bd3a6</title>
<ellipse fill="none" stroke="black" cx="47.3" cy="-192" rx="47.1" ry="18"/>
<text text-anchor="middle" x="47.3" y="-188.3" font-family="Times,serif" font-size="14.00">DelayAction</text>
</g>
<!-- fb8ed7e7&#45;cd62&#45;4106&#45;8b61&#45;7942c77bd3a6&#45;&gt;b0fd5fef&#45;ad7d&#45;4a6a&#45;89dd&#45;378b5d0d1358 -->
<g id="edge6" class="edge">
<title>fb8ed7e7&#45;cd62&#45;4106&#45;8b61&#45;7942c77bd3a6&#45;&gt;b0fd5fef&#45;ad7d&#45;4a6a&#45;89dd&#45;378b5d0d1358</title>
<path fill="none" stroke="black" d="M57.18,-174.21C64.42,-161.9 74.36,-145 82.54,-131.09"/>
<polygon fill="black" stroke="black" points="85.56,-132.86 87.61,-122.47 79.53,-129.31 85.56,-132.86"/>
</g>
<!-- 0dfc61f7&#45;4997&#45;4d49&#45;baa3&#45;49a74f8c83de -->
<g id="node8" class="node">
<title>0dfc61f7&#45;4997&#45;4d49&#45;baa3&#45;49a74f8c83de</title>
<ellipse fill="none" stroke="black" cx="47.3" cy="-279" rx="33.6" ry="18"/>
<text text-anchor="middle" x="47.3" y="-275.3" font-family="Times,serif" font-size="14.00">Descend</text>
</g>
<!-- 0dfc61f7&#45;4997&#45;4d49&#45;baa3&#45;49a74f8c83de&#45;&gt;fb8ed7e7&#45;cd62&#45;4106&#45;8b61&#45;7942c77bd3a6 -->
<g id="edge7" class="edge">
<title>0dfc61f7&#45;4997&#45;4d49&#45;baa3&#45;49a74f8c83de&#45;&gt;fb8ed7e7&#45;cd62&#45;4106&#45;8b61&#45;7942c77bd3a6</title>
<path fill="none" stroke="black" d="M47.3,-260.8C47.3,-249.16 47.3,-233.55 47.3,-220.24"/>
<polygon fill="black" stroke="black" points="50.8,-220.18 47.3,-210.18 43.8,-220.18 50.8,-220.18"/>
</g>
</g>
</svg>
