<?xml version="1.0" encoding="UTF-8" standalone="no"?>
<!DOCTYPE svg PUBLIC "-//W3C//DTD SVG 1.1//EN"
 "http://www.w3.org/Graphics/SVG/1.1/DTD/svg11.dtd">
<!-- Generated by graphviz version 2.43.0 (0)
 -->
<!-- Title: G Pages: 1 -->
<svg width="318pt" height="987pt"
 viewBox="0.00 0.00 318.29 987.00" xmlns="http://www.w3.org/2000/svg" xmlns:xlink="http://www.w3.org/1999/xlink">
<g id="graph0" class="graph" transform="scale(1 1) rotate(0) translate(4 983)">
<title>G</title>
<polygon fill="transparent" stroke="transparent" points="-4,4 -4,-983 314.29,-983 314.29,4 -4,4"/>
<!-- abcf93e6&#45;ebd8&#45;4fba&#45;970c&#45;ff2ec2e3bed1 -->
<g id="node1" class="node">
<title>abcf93e6&#45;ebd8&#45;4fba&#45;970c&#45;ff2ec2e3bed1</title>
<polygon fill="none" stroke="black" points="65.34,-906 0.16,-888 65.34,-870 130.52,-888 65.34,-906"/>
<text text-anchor="middle" x="65.34" y="-884.3" font-family="Times,serif" font-size="14.00">AlwaysTrue</text>
</g>
<!-- 3c626107&#45;5294&#45;41da&#45;a5d8&#45;bccf1c40705c -->
<g id="node11" class="node">
<title>3c626107&#45;5294&#45;41da&#45;a5d8&#45;bccf1c40705c</title>
<ellipse fill="none" stroke="black" cx="103.34" cy="-801" rx="46.5" ry="18"/>
<text text-anchor="middle" x="103.34" y="-797.3" font-family="Times,serif" font-size="14.00">VisionNorm</text>
</g>
<!-- abcf93e6&#45;ebd8&#45;4fba&#45;970c&#45;ff2ec2e3bed1&#45;&gt;3c626107&#45;5294&#45;41da&#45;a5d8&#45;bccf1c40705c -->
<g id="edge10" class="edge">
<title>abcf93e6&#45;ebd8&#45;4fba&#45;970c&#45;ff2ec2e3bed1&#45;&gt;3c626107&#45;5294&#45;41da&#45;a5d8&#45;bccf1c40705c</title>
<path fill="none" stroke="black" d="M72.13,-871.8C77.54,-859.7 85.25,-842.47 91.65,-828.16"/>
<polygon fill="black" stroke="black" points="94.94,-829.37 95.82,-818.81 88.55,-826.51 94.94,-829.37"/>
<text text-anchor="middle" x="104.34" y="-840.8" font-family="Times,serif" font-size="14.00">True</text>
</g>
<!-- e4ac6837&#45;ae36&#45;449b&#45;81b5&#45;5ecbe2f8edfd -->
<g id="node2" class="node">
<title>e4ac6837&#45;ae36&#45;449b&#45;81b5&#45;5ecbe2f8edfd</title>
<ellipse fill="none" stroke="black" cx="103.34" cy="-105" rx="27" ry="18"/>
<text text-anchor="middle" x="103.34" y="-101.3" font-family="Times,serif" font-size="14.00">FlatX</text>
</g>
<!-- 67d71178&#45;76ba&#45;49f7&#45;84f5&#45;2b329367da35 -->
<g id="node3" class="node">
<title>67d71178&#45;76ba&#45;49f7&#45;84f5&#45;2b329367da35</title>
<ellipse fill="none" stroke="black" cx="103.34" cy="-18" rx="80.11" ry="18"/>
<text text-anchor="middle" x="103.34" y="-14.3" font-family="Times,serif" font-size="14.00">Stability2Movement</text>
</g>
<!-- e4ac6837&#45;ae36&#45;449b&#45;81b5&#45;5ecbe2f8edfd&#45;&gt;67d71178&#45;76ba&#45;49f7&#45;84f5&#45;2b329367da35 -->
<g id="edge1" class="edge">
<title>e4ac6837&#45;ae36&#45;449b&#45;81b5&#45;5ecbe2f8edfd&#45;&gt;67d71178&#45;76ba&#45;49f7&#45;84f5&#45;2b329367da35</title>
<path fill="none" stroke="purple" d="M103.34,-86.8C103.34,-75.16 103.34,-59.55 103.34,-46.24"/>
<polygon fill="purple" stroke="purple" points="106.84,-46.18 103.34,-36.18 99.84,-46.18 106.84,-46.18"/>
<text text-anchor="middle" x="138.84" y="-57.8" font-family="Times,serif" font-size="14.00" fill="purple">Pass Data</text>
</g>
<!-- 6ad87dac&#45;fd87&#45;4b24&#45;8221&#45;c1d7b3b33844 -->
<g id="node4" class="node">
<title>6ad87dac&#45;fd87&#45;4b24&#45;8221&#45;c1d7b3b33844</title>
<ellipse fill="none" stroke="black" cx="103.34" cy="-192" rx="27" ry="18"/>
<text text-anchor="middle" x="103.34" y="-188.3" font-family="Times,serif" font-size="14.00">StripY</text>
</g>
<!-- 6ad87dac&#45;fd87&#45;4b24&#45;8221&#45;c1d7b3b33844&#45;&gt;e4ac6837&#45;ae36&#45;449b&#45;81b5&#45;5ecbe2f8edfd -->
<g id="edge2" class="edge">
<title>6ad87dac&#45;fd87&#45;4b24&#45;8221&#45;c1d7b3b33844&#45;&gt;e4ac6837&#45;ae36&#45;449b&#45;81b5&#45;5ecbe2f8edfd</title>
<path fill="none" stroke="purple" d="M103.34,-173.8C103.34,-162.16 103.34,-146.55 103.34,-133.24"/>
<polygon fill="purple" stroke="purple" points="106.84,-133.18 103.34,-123.18 99.84,-133.18 106.84,-133.18"/>
<text text-anchor="middle" x="138.84" y="-144.8" font-family="Times,serif" font-size="14.00" fill="purple">Pass Data</text>
</g>
<!-- 5d81f591&#45;11d8&#45;4d51&#45;8d73&#45;ee1132e3254c -->
<g id="node5" class="node">
<title>5d81f591&#45;11d8&#45;4d51&#45;8d73&#45;ee1132e3254c</title>
<ellipse fill="none" stroke="black" cx="103.34" cy="-279" rx="52.6" ry="18"/>
<text text-anchor="middle" x="103.34" y="-275.3" font-family="Times,serif" font-size="14.00">Anon Closure</text>
</g>
<!-- 5d81f591&#45;11d8&#45;4d51&#45;8d73&#45;ee1132e3254c&#45;&gt;6ad87dac&#45;fd87&#45;4b24&#45;8221&#45;c1d7b3b33844 -->
<g id="edge3" class="edge">
<title>5d81f591&#45;11d8&#45;4d51&#45;8d73&#45;ee1132e3254c&#45;&gt;6ad87dac&#45;fd87&#45;4b24&#45;8221&#45;c1d7b3b33844</title>
<path fill="none" stroke="purple" d="M103.34,-260.8C103.34,-249.16 103.34,-233.55 103.34,-220.24"/>
<polygon fill="purple" stroke="purple" points="106.84,-220.18 103.34,-210.18 99.84,-220.18 106.84,-220.18"/>
<text text-anchor="middle" x="138.84" y="-231.8" font-family="Times,serif" font-size="14.00" fill="purple">Pass Data</text>
</g>
<!-- 991514cb&#45;9ac4&#45;4c87&#45;9b05&#45;c1f12e50b1be -->
<g id="node6" class="node">
<title>991514cb&#45;9ac4&#45;4c87&#45;9b05&#45;c1f12e50b1be</title>
<ellipse fill="none" stroke="black" cx="103.34" cy="-366" rx="51.3" ry="18"/>
<text text-anchor="middle" x="103.34" y="-362.3" font-family="Times,serif" font-size="14.00">OffsetToPose</text>
</g>
<!-- 991514cb&#45;9ac4&#45;4c87&#45;9b05&#45;c1f12e50b1be&#45;&gt;5d81f591&#45;11d8&#45;4d51&#45;8d73&#45;ee1132e3254c -->
<g id="edge4" class="edge">
<title>991514cb&#45;9ac4&#45;4c87&#45;9b05&#45;c1f12e50b1be&#45;&gt;5d81f591&#45;11d8&#45;4d51&#45;8d73&#45;ee1132e3254c</title>
<path fill="none" stroke="purple" d="M103.34,-347.8C103.34,-336.16 103.34,-320.55 103.34,-307.24"/>
<polygon fill="purple" stroke="purple" points="106.84,-307.18 103.34,-297.18 99.84,-307.18 106.84,-307.18"/>
<text text-anchor="middle" x="138.84" y="-318.8" font-family="Times,serif" font-size="14.00" fill="purple">Pass Data</text>
</g>
<!-- ae23af2d&#45;090f&#45;4cb8&#45;8c37&#45;9503a71cc221 -->
<g id="node7" class="node">
<title>ae23af2d&#45;090f&#45;4cb8&#45;8c37&#45;9503a71cc221</title>
<ellipse fill="none" stroke="black" cx="103.34" cy="-453" rx="32.4" ry="18"/>
<text text-anchor="middle" x="103.34" y="-449.3" font-family="Times,serif" font-size="14.00">Average</text>
</g>
<!-- ae23af2d&#45;090f&#45;4cb8&#45;8c37&#45;9503a71cc221&#45;&gt;991514cb&#45;9ac4&#45;4c87&#45;9b05&#45;c1f12e50b1be -->
<g id="edge5" class="edge">
<title>ae23af2d&#45;090f&#45;4cb8&#45;8c37&#45;9503a71cc221&#45;&gt;991514cb&#45;9ac4&#45;4c87&#45;9b05&#45;c1f12e50b1be</title>
<path fill="none" stroke="purple" d="M103.34,-434.8C103.34,-423.16 103.34,-407.55 103.34,-394.24"/>
<polygon fill="purple" stroke="purple" points="106.84,-394.18 103.34,-384.18 99.84,-394.18 106.84,-394.18"/>
<text text-anchor="middle" x="138.84" y="-405.8" font-family="Times,serif" font-size="14.00" fill="purple">Pass Data</text>
</g>
<!-- d66a0794&#45;d94c&#45;40e5&#45;b146&#45;909c07463f08 -->
<g id="node8" class="node">
<title>d66a0794&#45;d94c&#45;40e5&#45;b146&#45;909c07463f08</title>
<ellipse fill="none" stroke="black" cx="103.34" cy="-540" rx="61.1" ry="18"/>
<text text-anchor="middle" x="103.34" y="-536.3" font-family="Times,serif" font-size="14.00">ExtractPosition</text>
</g>
<!-- d66a0794&#45;d94c&#45;40e5&#45;b146&#45;909c07463f08&#45;&gt;ae23af2d&#45;090f&#45;4cb8&#45;8c37&#45;9503a71cc221 -->
<g id="edge6" class="edge">
<title>d66a0794&#45;d94c&#45;40e5&#45;b146&#45;909c07463f08&#45;&gt;ae23af2d&#45;090f&#45;4cb8&#45;8c37&#45;9503a71cc221</title>
<path fill="none" stroke="purple" d="M103.34,-521.8C103.34,-510.16 103.34,-494.55 103.34,-481.24"/>
<polygon fill="purple" stroke="purple" points="106.84,-481.18 103.34,-471.18 99.84,-481.18 106.84,-481.18"/>
<text text-anchor="middle" x="138.84" y="-492.8" font-family="Times,serif" font-size="14.00" fill="purple">Pass Data</text>
</g>
<!-- 84fbdd30&#45;d8a2&#45;450e&#45;9643&#45;88fef96fd90d -->
<g id="node9" class="node">
<title>84fbdd30&#45;d8a2&#45;450e&#45;9643&#45;88fef96fd90d</title>
<ellipse fill="none" stroke="black" cx="103.34" cy="-627" rx="27" ry="18"/>
<text text-anchor="middle" x="103.34" y="-623.3" font-family="Times,serif" font-size="14.00">ToVec</text>
</g>
<!-- 84fbdd30&#45;d8a2&#45;450e&#45;9643&#45;88fef96fd90d&#45;&gt;d66a0794&#45;d94c&#45;40e5&#45;b146&#45;909c07463f08 -->
<g id="edge7" class="edge">
<title>84fbdd30&#45;d8a2&#45;450e&#45;9643&#45;88fef96fd90d&#45;&gt;d66a0794&#45;d94c&#45;40e5&#45;b146&#45;909c07463f08</title>
<path fill="none" stroke="purple" d="M103.34,-608.8C103.34,-597.16 103.34,-581.55 103.34,-568.24"/>
<polygon fill="purple" stroke="purple" points="106.84,-568.18 103.34,-558.18 99.84,-568.18 106.84,-568.18"/>
<text text-anchor="middle" x="138.84" y="-579.8" font-family="Times,serif" font-size="14.00" fill="purple">Pass Data</text>
</g>
<!-- be988843&#45;2e9f&#45;44f4&#45;8a2e&#45;79f2558e5d33 -->
<g id="node10" class="node">
<title>be988843&#45;2e9f&#45;44f4&#45;8a2e&#45;79f2558e5d33</title>
<ellipse fill="none" stroke="black" cx="103.34" cy="-714" rx="45.2" ry="18"/>
<text text-anchor="middle" x="103.34" y="-710.3" font-family="Times,serif" font-size="14.00">Detect true</text>
</g>
<!-- be988843&#45;2e9f&#45;44f4&#45;8a2e&#45;79f2558e5d33&#45;&gt;84fbdd30&#45;d8a2&#45;450e&#45;9643&#45;88fef96fd90d -->
<g id="edge8" class="edge">
<title>be988843&#45;2e9f&#45;44f4&#45;8a2e&#45;79f2558e5d33&#45;&gt;84fbdd30&#45;d8a2&#45;450e&#45;9643&#45;88fef96fd90d</title>
<path fill="none" stroke="purple" d="M103.34,-695.8C103.34,-684.16 103.34,-668.55 103.34,-655.24"/>
<polygon fill="purple" stroke="purple" points="106.84,-655.18 103.34,-645.18 99.84,-655.18 106.84,-655.18"/>
<text text-anchor="middle" x="138.84" y="-666.8" font-family="Times,serif" font-size="14.00" fill="purple">Pass Data</text>
</g>
<!-- 3c626107&#45;5294&#45;41da&#45;a5d8&#45;bccf1c40705c&#45;&gt;be988843&#45;2e9f&#45;44f4&#45;8a2e&#45;79f2558e5d33 -->
<g id="edge9" class="edge">
<title>3c626107&#45;5294&#45;41da&#45;a5d8&#45;bccf1c40705c&#45;&gt;be988843&#45;2e9f&#45;44f4&#45;8a2e&#45;79f2558e5d33</title>
<path fill="none" stroke="purple" d="M103.34,-782.8C103.34,-771.16 103.34,-755.55 103.34,-742.24"/>
<polygon fill="purple" stroke="purple" points="106.84,-742.18 103.34,-732.18 99.84,-742.18 106.84,-742.18"/>
<text text-anchor="middle" x="138.84" y="-753.8" font-family="Times,serif" font-size="14.00" fill="purple">Pass Data</text>
</g>
<!-- 66cef1b4&#45;00f1&#45;4d59&#45;9ff5&#45;adb1f608bd5a -->
<g id="node12" class="node">
<title>66cef1b4&#45;00f1&#45;4d59&#45;9ff5&#45;adb1f608bd5a</title>
<ellipse fill="none" stroke="black" cx="250.34" cy="-888" rx="47.1" ry="18"/>
<text text-anchor="middle" x="250.34" y="-884.3" font-family="Times,serif" font-size="14.00">DelayAction</text>
</g>
<!-- 66cef1b4&#45;00f1&#45;4d59&#45;9ff5&#45;adb1f608bd5a&#45;&gt;3c626107&#45;5294&#45;41da&#45;a5d8&#45;bccf1c40705c -->
<g id="edge11" class="edge">
<title>66cef1b4&#45;00f1&#45;4d59&#45;9ff5&#45;adb1f608bd5a&#45;&gt;3c626107&#45;5294&#45;41da&#45;a5d8&#45;bccf1c40705c</title>
<path fill="none" stroke="black" d="M225.4,-872.58C201.12,-858.54 164.03,-837.09 137.1,-821.52"/>
<polygon fill="black" stroke="black" points="138.81,-818.47 128.4,-816.49 135.3,-824.53 138.81,-818.47"/>
</g>
<!-- 90fd7751&#45;f3dd&#45;467c&#45;897d&#45;f12a03ab2412 -->
<g id="node13" class="node">
<title>90fd7751&#45;f3dd&#45;467c&#45;897d&#45;f12a03ab2412</title>
<ellipse fill="none" stroke="black" cx="250.34" cy="-961" rx="59.9" ry="18"/>
<text text-anchor="middle" x="250.34" y="-957.3" font-family="Times,serif" font-size="14.00">ZeroMovement</text>
</g>
<!-- 90fd7751&#45;f3dd&#45;467c&#45;897d&#45;f12a03ab2412&#45;&gt;66cef1b4&#45;00f1&#45;4d59&#45;9ff5&#45;adb1f608bd5a -->
<g id="edge12" class="edge">
<title>90fd7751&#45;f3dd&#45;467c&#45;897d&#45;f12a03ab2412&#45;&gt;66cef1b4&#45;00f1&#45;4d59&#45;9ff5&#45;adb1f608bd5a</title>
<path fill="none" stroke="black" d="M250.34,-942.81C250.34,-934.79 250.34,-925.05 250.34,-916.07"/>
<polygon fill="black" stroke="black" points="253.84,-916.03 250.34,-906.03 246.84,-916.03 253.84,-916.03"/>
</g>
</g>
</svg>
