<?xml version="1.0" encoding="UTF-8" standalone="no"?>
<!DOCTYPE svg PUBLIC "-//W3C//DTD SVG 1.1//EN"
 "http://www.w3.org/Graphics/SVG/1.1/DTD/svg11.dtd">
<!-- Generated by graphviz version 2.43.0 (0)
 -->
<!-- Title: G Pages: 1 -->
<svg width="318pt" height="987pt"
 viewBox="0.00 0.00 318.29 987.00" xmlns="http://www.w3.org/2000/svg" xmlns:xlink="http://www.w3.org/1999/xlink">
<g id="graph0" class="graph" transform="scale(1 1) rotate(0) translate(4 983)">
<title>G</title>
<polygon fill="transparent" stroke="transparent" points="-4,4 -4,-983 314.29,-983 314.29,4 -4,4"/>
<!-- 13d1b2f7&#45;a0a7&#45;4867&#45;9382&#45;f69961d41a3d -->
<g id="node1" class="node">
<title>13d1b2f7&#45;a0a7&#45;4867&#45;9382&#45;f69961d41a3d</title>
<polygon fill="none" stroke="black" points="65.34,-906 0.16,-888 65.34,-870 130.52,-888 65.34,-906"/>
<text text-anchor="middle" x="65.34" y="-884.3" font-family="Times,serif" font-size="14.00">AlwaysTrue</text>
</g>
<!-- abf66225&#45;5314&#45;4811&#45;962b&#45;16e83bd5cae1 -->
<g id="node11" class="node">
<title>abf66225&#45;5314&#45;4811&#45;962b&#45;16e83bd5cae1</title>
<ellipse fill="none" stroke="black" cx="103.34" cy="-801" rx="46.5" ry="18"/>
<text text-anchor="middle" x="103.34" y="-797.3" font-family="Times,serif" font-size="14.00">VisionNorm</text>
</g>
<!-- 13d1b2f7&#45;a0a7&#45;4867&#45;9382&#45;f69961d41a3d&#45;&gt;abf66225&#45;5314&#45;4811&#45;962b&#45;16e83bd5cae1 -->
<g id="edge10" class="edge">
<title>13d1b2f7&#45;a0a7&#45;4867&#45;9382&#45;f69961d41a3d&#45;&gt;abf66225&#45;5314&#45;4811&#45;962b&#45;16e83bd5cae1</title>
<path fill="none" stroke="black" d="M72.13,-871.8C77.54,-859.7 85.25,-842.47 91.65,-828.16"/>
<polygon fill="black" stroke="black" points="94.94,-829.37 95.82,-818.81 88.55,-826.51 94.94,-829.37"/>
<text text-anchor="middle" x="104.34" y="-840.8" font-family="Times,serif" font-size="14.00">True</text>
</g>
<!-- eb0a7fee&#45;b31e&#45;4aa4&#45;92fc&#45;ed5cb9bf2711 -->
<g id="node2" class="node">
<title>eb0a7fee&#45;b31e&#45;4aa4&#45;92fc&#45;ed5cb9bf2711</title>
<ellipse fill="none" stroke="black" cx="103.34" cy="-105" rx="27" ry="18"/>
<text text-anchor="middle" x="103.34" y="-101.3" font-family="Times,serif" font-size="14.00">FlatX</text>
</g>
<!-- 56641c79&#45;ec75&#45;41cb&#45;9797&#45;c0329fb5c6df -->
<g id="node3" class="node">
<title>56641c79&#45;ec75&#45;41cb&#45;9797&#45;c0329fb5c6df</title>
<ellipse fill="none" stroke="black" cx="103.34" cy="-18" rx="80.11" ry="18"/>
<text text-anchor="middle" x="103.34" y="-14.3" font-family="Times,serif" font-size="14.00">Stability2Movement</text>
</g>
<!-- eb0a7fee&#45;b31e&#45;4aa4&#45;92fc&#45;ed5cb9bf2711&#45;&gt;56641c79&#45;ec75&#45;41cb&#45;9797&#45;c0329fb5c6df -->
<g id="edge1" class="edge">
<title>eb0a7fee&#45;b31e&#45;4aa4&#45;92fc&#45;ed5cb9bf2711&#45;&gt;56641c79&#45;ec75&#45;41cb&#45;9797&#45;c0329fb5c6df</title>
<path fill="none" stroke="purple" d="M103.34,-86.8C103.34,-75.16 103.34,-59.55 103.34,-46.24"/>
<polygon fill="purple" stroke="purple" points="106.84,-46.18 103.34,-36.18 99.84,-46.18 106.84,-46.18"/>
<text text-anchor="middle" x="138.84" y="-57.8" font-family="Times,serif" font-size="14.00" fill="purple">Pass Data</text>
</g>
<!-- a8c194ba&#45;2a33&#45;4620&#45;bc9f&#45;57b6aef789cc -->
<g id="node4" class="node">
<title>a8c194ba&#45;2a33&#45;4620&#45;bc9f&#45;57b6aef789cc</title>
<ellipse fill="none" stroke="black" cx="103.34" cy="-192" rx="27" ry="18"/>
<text text-anchor="middle" x="103.34" y="-188.3" font-family="Times,serif" font-size="14.00">StripY</text>
</g>
<!-- a8c194ba&#45;2a33&#45;4620&#45;bc9f&#45;57b6aef789cc&#45;&gt;eb0a7fee&#45;b31e&#45;4aa4&#45;92fc&#45;ed5cb9bf2711 -->
<g id="edge2" class="edge">
<title>a8c194ba&#45;2a33&#45;4620&#45;bc9f&#45;57b6aef789cc&#45;&gt;eb0a7fee&#45;b31e&#45;4aa4&#45;92fc&#45;ed5cb9bf2711</title>
<path fill="none" stroke="purple" d="M103.34,-173.8C103.34,-162.16 103.34,-146.55 103.34,-133.24"/>
<polygon fill="purple" stroke="purple" points="106.84,-133.18 103.34,-123.18 99.84,-133.18 106.84,-133.18"/>
<text text-anchor="middle" x="138.84" y="-144.8" font-family="Times,serif" font-size="14.00" fill="purple">Pass Data</text>
</g>
<!-- 3c75723d&#45;5d99&#45;4e3f&#45;9a66&#45;08c99323d4be -->
<g id="node5" class="node">
<title>3c75723d&#45;5d99&#45;4e3f&#45;9a66&#45;08c99323d4be</title>
<ellipse fill="none" stroke="black" cx="103.34" cy="-279" rx="52.6" ry="18"/>
<text text-anchor="middle" x="103.34" y="-275.3" font-family="Times,serif" font-size="14.00">Anon Closure</text>
</g>
<!-- 3c75723d&#45;5d99&#45;4e3f&#45;9a66&#45;08c99323d4be&#45;&gt;a8c194ba&#45;2a33&#45;4620&#45;bc9f&#45;57b6aef789cc -->
<g id="edge3" class="edge">
<title>3c75723d&#45;5d99&#45;4e3f&#45;9a66&#45;08c99323d4be&#45;&gt;a8c194ba&#45;2a33&#45;4620&#45;bc9f&#45;57b6aef789cc</title>
<path fill="none" stroke="purple" d="M103.34,-260.8C103.34,-249.16 103.34,-233.55 103.34,-220.24"/>
<polygon fill="purple" stroke="purple" points="106.84,-220.18 103.34,-210.18 99.84,-220.18 106.84,-220.18"/>
<text text-anchor="middle" x="138.84" y="-231.8" font-family="Times,serif" font-size="14.00" fill="purple">Pass Data</text>
</g>
<!-- 7805b3e8&#45;cfd5&#45;4903&#45;ba9d&#45;cc048123d13e -->
<g id="node6" class="node">
<title>7805b3e8&#45;cfd5&#45;4903&#45;ba9d&#45;cc048123d13e</title>
<ellipse fill="none" stroke="black" cx="103.34" cy="-366" rx="51.3" ry="18"/>
<text text-anchor="middle" x="103.34" y="-362.3" font-family="Times,serif" font-size="14.00">OffsetToPose</text>
</g>
<!-- 7805b3e8&#45;cfd5&#45;4903&#45;ba9d&#45;cc048123d13e&#45;&gt;3c75723d&#45;5d99&#45;4e3f&#45;9a66&#45;08c99323d4be -->
<g id="edge4" class="edge">
<title>7805b3e8&#45;cfd5&#45;4903&#45;ba9d&#45;cc048123d13e&#45;&gt;3c75723d&#45;5d99&#45;4e3f&#45;9a66&#45;08c99323d4be</title>
<path fill="none" stroke="purple" d="M103.34,-347.8C103.34,-336.16 103.34,-320.55 103.34,-307.24"/>
<polygon fill="purple" stroke="purple" points="106.84,-307.18 103.34,-297.18 99.84,-307.18 106.84,-307.18"/>
<text text-anchor="middle" x="138.84" y="-318.8" font-family="Times,serif" font-size="14.00" fill="purple">Pass Data</text>
</g>
<!-- 27aa5bb0&#45;13f5&#45;450a&#45;a42a&#45;9d1778d22692 -->
<g id="node7" class="node">
<title>27aa5bb0&#45;13f5&#45;450a&#45;a42a&#45;9d1778d22692</title>
<ellipse fill="none" stroke="black" cx="103.34" cy="-453" rx="32.4" ry="18"/>
<text text-anchor="middle" x="103.34" y="-449.3" font-family="Times,serif" font-size="14.00">Average</text>
</g>
<!-- 27aa5bb0&#45;13f5&#45;450a&#45;a42a&#45;9d1778d22692&#45;&gt;7805b3e8&#45;cfd5&#45;4903&#45;ba9d&#45;cc048123d13e -->
<g id="edge5" class="edge">
<title>27aa5bb0&#45;13f5&#45;450a&#45;a42a&#45;9d1778d22692&#45;&gt;7805b3e8&#45;cfd5&#45;4903&#45;ba9d&#45;cc048123d13e</title>
<path fill="none" stroke="purple" d="M103.34,-434.8C103.34,-423.16 103.34,-407.55 103.34,-394.24"/>
<polygon fill="purple" stroke="purple" points="106.84,-394.18 103.34,-384.18 99.84,-394.18 106.84,-394.18"/>
<text text-anchor="middle" x="138.84" y="-405.8" font-family="Times,serif" font-size="14.00" fill="purple">Pass Data</text>
</g>
<!-- ca6f1036&#45;2b44&#45;41b7&#45;b9d6&#45;573573492acf -->
<g id="node8" class="node">
<title>ca6f1036&#45;2b44&#45;41b7&#45;b9d6&#45;573573492acf</title>
<ellipse fill="none" stroke="black" cx="103.34" cy="-540" rx="61.1" ry="18"/>
<text text-anchor="middle" x="103.34" y="-536.3" font-family="Times,serif" font-size="14.00">ExtractPosition</text>
</g>
<!-- ca6f1036&#45;2b44&#45;41b7&#45;b9d6&#45;573573492acf&#45;&gt;27aa5bb0&#45;13f5&#45;450a&#45;a42a&#45;9d1778d22692 -->
<g id="edge6" class="edge">
<title>ca6f1036&#45;2b44&#45;41b7&#45;b9d6&#45;573573492acf&#45;&gt;27aa5bb0&#45;13f5&#45;450a&#45;a42a&#45;9d1778d22692</title>
<path fill="none" stroke="purple" d="M103.34,-521.8C103.34,-510.16 103.34,-494.55 103.34,-481.24"/>
<polygon fill="purple" stroke="purple" points="106.84,-481.18 103.34,-471.18 99.84,-481.18 106.84,-481.18"/>
<text text-anchor="middle" x="138.84" y="-492.8" font-family="Times,serif" font-size="14.00" fill="purple">Pass Data</text>
</g>
<!-- 07f8f813&#45;f552&#45;4484&#45;8451&#45;b360b7be41ba -->
<g id="node9" class="node">
<title>07f8f813&#45;f552&#45;4484&#45;8451&#45;b360b7be41ba</title>
<ellipse fill="none" stroke="black" cx="103.34" cy="-627" rx="27" ry="18"/>
<text text-anchor="middle" x="103.34" y="-623.3" font-family="Times,serif" font-size="14.00">ToVec</text>
</g>
<!-- 07f8f813&#45;f552&#45;4484&#45;8451&#45;b360b7be41ba&#45;&gt;ca6f1036&#45;2b44&#45;41b7&#45;b9d6&#45;573573492acf -->
<g id="edge7" class="edge">
<title>07f8f813&#45;f552&#45;4484&#45;8451&#45;b360b7be41ba&#45;&gt;ca6f1036&#45;2b44&#45;41b7&#45;b9d6&#45;573573492acf</title>
<path fill="none" stroke="purple" d="M103.34,-608.8C103.34,-597.16 103.34,-581.55 103.34,-568.24"/>
<polygon fill="purple" stroke="purple" points="106.84,-568.18 103.34,-558.18 99.84,-568.18 106.84,-568.18"/>
<text text-anchor="middle" x="138.84" y="-579.8" font-family="Times,serif" font-size="14.00" fill="purple">Pass Data</text>
</g>
<!-- e0675e82&#45;ebc9&#45;4dd2&#45;9f54&#45;4ada27663c1a -->
<g id="node10" class="node">
<title>e0675e82&#45;ebc9&#45;4dd2&#45;9f54&#45;4ada27663c1a</title>
<ellipse fill="none" stroke="black" cx="103.34" cy="-714" rx="45.2" ry="18"/>
<text text-anchor="middle" x="103.34" y="-710.3" font-family="Times,serif" font-size="14.00">Detect true</text>
</g>
<!-- e0675e82&#45;ebc9&#45;4dd2&#45;9f54&#45;4ada27663c1a&#45;&gt;07f8f813&#45;f552&#45;4484&#45;8451&#45;b360b7be41ba -->
<g id="edge8" class="edge">
<title>e0675e82&#45;ebc9&#45;4dd2&#45;9f54&#45;4ada27663c1a&#45;&gt;07f8f813&#45;f552&#45;4484&#45;8451&#45;b360b7be41ba</title>
<path fill="none" stroke="purple" d="M103.34,-695.8C103.34,-684.16 103.34,-668.55 103.34,-655.24"/>
<polygon fill="purple" stroke="purple" points="106.84,-655.18 103.34,-645.18 99.84,-655.18 106.84,-655.18"/>
<text text-anchor="middle" x="138.84" y="-666.8" font-family="Times,serif" font-size="14.00" fill="purple">Pass Data</text>
</g>
<!-- abf66225&#45;5314&#45;4811&#45;962b&#45;16e83bd5cae1&#45;&gt;e0675e82&#45;ebc9&#45;4dd2&#45;9f54&#45;4ada27663c1a -->
<g id="edge9" class="edge">
<title>abf66225&#45;5314&#45;4811&#45;962b&#45;16e83bd5cae1&#45;&gt;e0675e82&#45;ebc9&#45;4dd2&#45;9f54&#45;4ada27663c1a</title>
<path fill="none" stroke="purple" d="M103.34,-782.8C103.34,-771.16 103.34,-755.55 103.34,-742.24"/>
<polygon fill="purple" stroke="purple" points="106.84,-742.18 103.34,-732.18 99.84,-742.18 106.84,-742.18"/>
<text text-anchor="middle" x="138.84" y="-753.8" font-family="Times,serif" font-size="14.00" fill="purple">Pass Data</text>
</g>
<!-- ee9872fb&#45;c32d&#45;4de5&#45;b43a&#45;c91044ab3cd6 -->
<g id="node12" class="node">
<title>ee9872fb&#45;c32d&#45;4de5&#45;b43a&#45;c91044ab3cd6</title>
<ellipse fill="none" stroke="black" cx="250.34" cy="-888" rx="47.1" ry="18"/>
<text text-anchor="middle" x="250.34" y="-884.3" font-family="Times,serif" font-size="14.00">DelayAction</text>
</g>
<!-- ee9872fb&#45;c32d&#45;4de5&#45;b43a&#45;c91044ab3cd6&#45;&gt;abf66225&#45;5314&#45;4811&#45;962b&#45;16e83bd5cae1 -->
<g id="edge11" class="edge">
<title>ee9872fb&#45;c32d&#45;4de5&#45;b43a&#45;c91044ab3cd6&#45;&gt;abf66225&#45;5314&#45;4811&#45;962b&#45;16e83bd5cae1</title>
<path fill="none" stroke="black" d="M225.4,-872.58C201.12,-858.54 164.03,-837.09 137.1,-821.52"/>
<polygon fill="black" stroke="black" points="138.81,-818.47 128.4,-816.49 135.3,-824.53 138.81,-818.47"/>
</g>
<!-- ece5b53e&#45;1054&#45;413b&#45;8353&#45;b4a16a1fa9c9 -->
<g id="node13" class="node">
<title>ece5b53e&#45;1054&#45;413b&#45;8353&#45;b4a16a1fa9c9</title>
<ellipse fill="none" stroke="black" cx="250.34" cy="-961" rx="59.9" ry="18"/>
<text text-anchor="middle" x="250.34" y="-957.3" font-family="Times,serif" font-size="14.00">ZeroMovement</text>
</g>
<!-- ece5b53e&#45;1054&#45;413b&#45;8353&#45;b4a16a1fa9c9&#45;&gt;ee9872fb&#45;c32d&#45;4de5&#45;b43a&#45;c91044ab3cd6 -->
<g id="edge12" class="edge">
<title>ece5b53e&#45;1054&#45;413b&#45;8353&#45;b4a16a1fa9c9&#45;&gt;ee9872fb&#45;c32d&#45;4de5&#45;b43a&#45;c91044ab3cd6</title>
<path fill="none" stroke="black" d="M250.34,-942.81C250.34,-934.79 250.34,-925.05 250.34,-916.07"/>
<polygon fill="black" stroke="black" points="253.84,-916.03 250.34,-906.03 246.84,-916.03 253.84,-916.03"/>
</g>
</g>
</svg>
