<?xml version="1.0" encoding="UTF-8" standalone="no"?>
<!DOCTYPE svg PUBLIC "-//W3C//DTD SVG 1.1//EN"
 "http://www.w3.org/Graphics/SVG/1.1/DTD/svg11.dtd">
<!-- Generated by graphviz version 2.43.0 (0)
 -->
<!-- Title: G Pages: 1 -->
<svg width="326pt" height="277pt"
 viewBox="0.00 0.00 325.57 277.00" xmlns="http://www.w3.org/2000/svg" xmlns:xlink="http://www.w3.org/1999/xlink">
<g id="graph0" class="graph" transform="scale(1 1) rotate(0) translate(4 273)">
<title>G</title>
<polygon fill="transparent" stroke="transparent" points="-4,4 -4,-273 321.57,-273 321.57,4 -4,4"/>
<!-- ccbfed9c&#45;756b&#45;4e98&#45;a064&#45;8873eea9bec7 -->
<g id="node1" class="node">
<title>ccbfed9c&#45;756b&#45;4e98&#45;a064&#45;8873eea9bec7</title>
<polygon fill="none" stroke="black" points="105.79,-269 0.21,-251 105.79,-233 211.36,-251 105.79,-269"/>
<text text-anchor="middle" x="105.79" y="-247.3" font-family="Times,serif" font-size="14.00">DriveToBuoyVision</text>
</g>
<!-- ccbfed9c&#45;756b&#45;4e98&#45;a064&#45;8873eea9bec7&#45;&gt;ccbfed9c&#45;756b&#45;4e98&#45;a064&#45;8873eea9bec7 -->
<g id="edge1" class="edge">
<title>ccbfed9c&#45;756b&#45;4e98&#45;a064&#45;8873eea9bec7&#45;&gt;ccbfed9c&#45;756b&#45;4e98&#45;a064&#45;8873eea9bec7</title>
<path fill="none" stroke="black" d="M172.36,-257.72C226.91,-260.5 283.57,-258.26 283.57,-251 283.57,-244.19 233.78,-241.8 182.6,-243.82"/>
<polygon fill="black" stroke="black" points="182.19,-240.33 172.36,-244.28 182.5,-247.32 182.19,-240.33"/>
<text text-anchor="middle" x="300.57" y="-247.3" font-family="Times,serif" font-size="14.00">True</text>
</g>
<!-- 936e7bc7&#45;ae02&#45;4cb1&#45;90dc&#45;fc5e841bc7d1 -->
<g id="node4" class="node">
<title>936e7bc7&#45;ae02&#45;4cb1&#45;90dc&#45;fc5e841bc7d1</title>
<ellipse fill="none" stroke="black" cx="105.79" cy="-164" rx="74.61" ry="18"/>
<text text-anchor="middle" x="105.79" y="-160.3" font-family="Times,serif" font-size="14.00">StraightMovement</text>
</g>
<!-- ccbfed9c&#45;756b&#45;4e98&#45;a064&#45;8873eea9bec7&#45;&gt;936e7bc7&#45;ae02&#45;4cb1&#45;90dc&#45;fc5e841bc7d1 -->
<g id="edge4" class="edge">
<title>ccbfed9c&#45;756b&#45;4e98&#45;a064&#45;8873eea9bec7&#45;&gt;936e7bc7&#45;ae02&#45;4cb1&#45;90dc&#45;fc5e841bc7d1</title>
<path fill="none" stroke="black" d="M105.79,-232.8C105.79,-221.16 105.79,-205.55 105.79,-192.24"/>
<polygon fill="black" stroke="black" points="109.29,-192.18 105.79,-182.18 102.29,-192.18 109.29,-192.18"/>
<text text-anchor="middle" x="124.79" y="-203.8" font-family="Times,serif" font-size="14.00">False</text>
</g>
<!-- 90a9a0ad&#45;a602&#45;472e&#45;acc1&#45;4f66def86f00 -->
<g id="node2" class="node">
<title>90a9a0ad&#45;a602&#45;472e&#45;acc1&#45;4f66def86f00</title>
<ellipse fill="none" stroke="black" cx="105.79" cy="-91" rx="47.1" ry="18"/>
<text text-anchor="middle" x="105.79" y="-87.3" font-family="Times,serif" font-size="14.00">DelayAction</text>
</g>
<!-- 41444ba8&#45;2abd&#45;4d07&#45;986f&#45;fa126b912a2e -->
<g id="node3" class="node">
<title>41444ba8&#45;2abd&#45;4d07&#45;986f&#45;fa126b912a2e</title>
<ellipse fill="none" stroke="black" cx="105.79" cy="-18" rx="59.9" ry="18"/>
<text text-anchor="middle" x="105.79" y="-14.3" font-family="Times,serif" font-size="14.00">ZeroMovement</text>
</g>
<!-- 90a9a0ad&#45;a602&#45;472e&#45;acc1&#45;4f66def86f00&#45;&gt;41444ba8&#45;2abd&#45;4d07&#45;986f&#45;fa126b912a2e -->
<g id="edge2" class="edge">
<title>90a9a0ad&#45;a602&#45;472e&#45;acc1&#45;4f66def86f00&#45;&gt;41444ba8&#45;2abd&#45;4d07&#45;986f&#45;fa126b912a2e</title>
<path fill="none" stroke="black" d="M105.79,-72.81C105.79,-64.79 105.79,-55.05 105.79,-46.07"/>
<polygon fill="black" stroke="black" points="109.29,-46.03 105.79,-36.03 102.29,-46.03 109.29,-46.03"/>
</g>
<!-- 936e7bc7&#45;ae02&#45;4cb1&#45;90dc&#45;fc5e841bc7d1&#45;&gt;90a9a0ad&#45;a602&#45;472e&#45;acc1&#45;4f66def86f00 -->
<g id="edge3" class="edge">
<title>936e7bc7&#45;ae02&#45;4cb1&#45;90dc&#45;fc5e841bc7d1&#45;&gt;90a9a0ad&#45;a602&#45;472e&#45;acc1&#45;4f66def86f00</title>
<path fill="none" stroke="black" d="M105.79,-145.81C105.79,-137.79 105.79,-128.05 105.79,-119.07"/>
<polygon fill="black" stroke="black" points="109.29,-119.03 105.79,-109.03 102.29,-119.03 109.29,-119.03"/>
</g>
</g>
</svg>
