<?xml version="1.0" encoding="UTF-8" standalone="no"?>
<!DOCTYPE svg PUBLIC "-//W3C//DTD SVG 1.1//EN"
 "http://www.w3.org/Graphics/SVG/1.1/DTD/svg11.dtd">
<!-- Generated by graphviz version 2.43.0 (0)
 -->
<!-- Title: G Pages: 1 -->
<svg width="788pt" height="276pt"
 viewBox="0.00 0.00 788.00 276.00" xmlns="http://www.w3.org/2000/svg" xmlns:xlink="http://www.w3.org/1999/xlink">
<g id="graph0" class="graph" transform="scale(1 1) rotate(0) translate(4 272)">
<title>G</title>
<polygon fill="transparent" stroke="transparent" points="-4,4 -4,-272 784,-272 784,4 -4,4"/>
<g id="clust1" class="cluster">
<title>cluster_8c5a2d70&#45;4fff&#45;429f&#45;bbab&#45;27efdd1a55e8</title>
<polygon fill="transparent" stroke="red" stroke-dasharray="5,2" points="8,-64 8,-260 772,-260 772,-64 8,-64"/>
</g>
<!-- 96aa2100&#45;7469&#45;4673&#45;9140&#45;e17f7040a31a -->
<g id="node1" class="node">
<title>96aa2100&#45;7469&#45;4673&#45;9140&#45;e17f7040a31a</title>
<polygon fill="none" stroke="black" stroke-dasharray="5,2" points="417,-252 363,-252 363,-216 417,-216 417,-252"/>
<text text-anchor="middle" x="390" y="-230.3" font-family="Times,serif" font-size="14.00" fill="red">Race</text>
</g>
<!-- b3a6c204&#45;3669&#45;4e83&#45;8fa6&#45;31b1faf533ca -->
<g id="node2" class="node">
<title>b3a6c204&#45;3669&#45;4e83&#45;8fa6&#45;31b1faf533ca</title>
<ellipse fill="none" stroke="black" cx="62" cy="-162" rx="46.4" ry="18"/>
<text text-anchor="middle" x="62" y="-158.3" font-family="Times,serif" font-size="14.00">AlwaysTrue</text>
</g>
<!-- 96aa2100&#45;7469&#45;4673&#45;9140&#45;e17f7040a31a&#45;&gt;b3a6c204&#45;3669&#45;4e83&#45;8fa6&#45;31b1faf533ca -->
<g id="edge1" class="edge">
<title>96aa2100&#45;7469&#45;4673&#45;9140&#45;e17f7040a31a&#45;&gt;b3a6c204&#45;3669&#45;4e83&#45;8fa6&#45;31b1faf533ca</title>
<path fill="none" stroke="black" d="M362.88,-227.21C307.73,-215.44 181.79,-188.57 111.59,-173.58"/>
<polygon fill="black" stroke="black" points="112.16,-170.13 101.65,-171.46 110.7,-176.97 112.16,-170.13"/>
</g>
<!-- fc267f81&#45;f3ab&#45;42a9&#45;ae90&#45;1de4bfabc598 -->
<g id="node3" class="node">
<title>fc267f81&#45;f3ab&#45;42a9&#45;ae90&#45;1de4bfabc598</title>
<ellipse fill="none" stroke="black" cx="226" cy="-162" rx="46.4" ry="18"/>
<text text-anchor="middle" x="226" y="-158.3" font-family="Times,serif" font-size="14.00">AlwaysTrue</text>
</g>
<!-- 96aa2100&#45;7469&#45;4673&#45;9140&#45;e17f7040a31a&#45;&gt;fc267f81&#45;f3ab&#45;42a9&#45;ae90&#45;1de4bfabc598 -->
<g id="edge2" class="edge">
<title>96aa2100&#45;7469&#45;4673&#45;9140&#45;e17f7040a31a&#45;&gt;fc267f81&#45;f3ab&#45;42a9&#45;ae90&#45;1de4bfabc598</title>
<path fill="none" stroke="black" d="M362.92,-221.44C336.32,-210.09 295.45,-192.65 265.29,-179.77"/>
<polygon fill="black" stroke="black" points="266.47,-176.47 255.9,-175.76 263.72,-182.91 266.47,-176.47"/>
</g>
<!-- a16fb018&#45;4b9c&#45;455d&#45;8dc7&#45;4dbfa5f4c072 -->
<g id="node4" class="node">
<title>a16fb018&#45;4b9c&#45;455d&#45;8dc7&#45;4dbfa5f4c072</title>
<ellipse fill="none" stroke="black" cx="390" cy="-162" rx="46.4" ry="18"/>
<text text-anchor="middle" x="390" y="-158.3" font-family="Times,serif" font-size="14.00">AlwaysTrue</text>
</g>
<!-- 96aa2100&#45;7469&#45;4673&#45;9140&#45;e17f7040a31a&#45;&gt;a16fb018&#45;4b9c&#45;455d&#45;8dc7&#45;4dbfa5f4c072 -->
<g id="edge3" class="edge">
<title>96aa2100&#45;7469&#45;4673&#45;9140&#45;e17f7040a31a&#45;&gt;a16fb018&#45;4b9c&#45;455d&#45;8dc7&#45;4dbfa5f4c072</title>
<path fill="none" stroke="black" d="M390,-215.7C390,-207.98 390,-198.71 390,-190.11"/>
<polygon fill="black" stroke="black" points="393.5,-190.1 390,-180.1 386.5,-190.1 393.5,-190.1"/>
</g>
<!-- 132f5707&#45;1c42&#45;44c3&#45;b02b&#45;057fcaa3ef0b -->
<g id="node5" class="node">
<title>132f5707&#45;1c42&#45;44c3&#45;b02b&#45;057fcaa3ef0b</title>
<ellipse fill="none" stroke="black" cx="554" cy="-162" rx="46.4" ry="18"/>
<text text-anchor="middle" x="554" y="-158.3" font-family="Times,serif" font-size="14.00">AlwaysTrue</text>
</g>
<!-- 96aa2100&#45;7469&#45;4673&#45;9140&#45;e17f7040a31a&#45;&gt;132f5707&#45;1c42&#45;44c3&#45;b02b&#45;057fcaa3ef0b -->
<g id="edge4" class="edge">
<title>96aa2100&#45;7469&#45;4673&#45;9140&#45;e17f7040a31a&#45;&gt;132f5707&#45;1c42&#45;44c3&#45;b02b&#45;057fcaa3ef0b</title>
<path fill="none" stroke="black" d="M417.08,-221.44C443.68,-210.09 484.55,-192.65 514.71,-179.77"/>
<polygon fill="black" stroke="black" points="516.28,-182.91 524.1,-175.76 513.53,-176.47 516.28,-182.91"/>
</g>
<!-- d858b261&#45;e10b&#45;4229&#45;92f7&#45;1408fa6cf59d -->
<g id="node6" class="node">
<title>d858b261&#45;e10b&#45;4229&#45;92f7&#45;1408fa6cf59d</title>
<ellipse fill="none" stroke="black" cx="718" cy="-162" rx="46.4" ry="18"/>
<text text-anchor="middle" x="718" y="-158.3" font-family="Times,serif" font-size="14.00">AlwaysTrue</text>
</g>
<!-- 96aa2100&#45;7469&#45;4673&#45;9140&#45;e17f7040a31a&#45;&gt;d858b261&#45;e10b&#45;4229&#45;92f7&#45;1408fa6cf59d -->
<g id="edge5" class="edge">
<title>96aa2100&#45;7469&#45;4673&#45;9140&#45;e17f7040a31a&#45;&gt;d858b261&#45;e10b&#45;4229&#45;92f7&#45;1408fa6cf59d</title>
<path fill="none" stroke="black" d="M417.12,-227.21C472.27,-215.44 598.21,-188.57 668.41,-173.58"/>
<polygon fill="black" stroke="black" points="669.3,-176.97 678.35,-171.46 667.84,-170.13 669.3,-176.97"/>
</g>
<!-- da78176b&#45;b850&#45;4823&#45;96c2&#45;2baf84243881 -->
<g id="node7" class="node">
<title>da78176b&#45;b850&#45;4823&#45;96c2&#45;2baf84243881</title>
<polygon fill="none" stroke="black" stroke-dasharray="5,2" points="426,-108 354,-108 354,-72 426,-72 426,-108"/>
<text text-anchor="middle" x="390" y="-86.3" font-family="Times,serif" font-size="14.00" fill="red">Resolve</text>
</g>
<!-- b3a6c204&#45;3669&#45;4e83&#45;8fa6&#45;31b1faf533ca&#45;&gt;da78176b&#45;b850&#45;4823&#45;96c2&#45;2baf84243881 -->
<g id="edge6" class="edge">
<title>b3a6c204&#45;3669&#45;4e83&#45;8fa6&#45;31b1faf533ca&#45;&gt;da78176b&#45;b850&#45;4823&#45;96c2&#45;2baf84243881</title>
<path fill="none" stroke="black" d="M101.56,-152.56C162.54,-139.54 279.18,-114.65 343.89,-100.84"/>
<polygon fill="black" stroke="black" points="344.76,-104.23 353.81,-98.72 343.3,-97.39 344.76,-104.23"/>
</g>
<!-- fc267f81&#45;f3ab&#45;42a9&#45;ae90&#45;1de4bfabc598&#45;&gt;da78176b&#45;b850&#45;4823&#45;96c2&#45;2baf84243881 -->
<g id="edge7" class="edge">
<title>fc267f81&#45;f3ab&#45;42a9&#45;ae90&#45;1de4bfabc598&#45;&gt;da78176b&#45;b850&#45;4823&#45;96c2&#45;2baf84243881</title>
<path fill="none" stroke="black" d="M256.08,-148.16C280.84,-137.59 316.32,-122.45 344.55,-110.4"/>
<polygon fill="black" stroke="black" points="345.99,-113.59 353.81,-106.45 343.24,-107.15 345.99,-113.59"/>
</g>
<!-- a16fb018&#45;4b9c&#45;455d&#45;8dc7&#45;4dbfa5f4c072&#45;&gt;da78176b&#45;b850&#45;4823&#45;96c2&#45;2baf84243881 -->
<g id="edge8" class="edge">
<title>a16fb018&#45;4b9c&#45;455d&#45;8dc7&#45;4dbfa5f4c072&#45;&gt;da78176b&#45;b850&#45;4823&#45;96c2&#45;2baf84243881</title>
<path fill="none" stroke="black" d="M390,-143.7C390,-135.98 390,-126.71 390,-118.11"/>
<polygon fill="black" stroke="black" points="393.5,-118.1 390,-108.1 386.5,-118.1 393.5,-118.1"/>
</g>
<!-- 132f5707&#45;1c42&#45;44c3&#45;b02b&#45;057fcaa3ef0b&#45;&gt;da78176b&#45;b850&#45;4823&#45;96c2&#45;2baf84243881 -->
<g id="edge9" class="edge">
<title>132f5707&#45;1c42&#45;44c3&#45;b02b&#45;057fcaa3ef0b&#45;&gt;da78176b&#45;b850&#45;4823&#45;96c2&#45;2baf84243881</title>
<path fill="none" stroke="black" d="M523.92,-148.16C499.16,-137.59 463.68,-122.45 435.45,-110.4"/>
<polygon fill="black" stroke="black" points="436.76,-107.15 426.19,-106.45 434.01,-113.59 436.76,-107.15"/>
</g>
<!-- d858b261&#45;e10b&#45;4229&#45;92f7&#45;1408fa6cf59d&#45;&gt;da78176b&#45;b850&#45;4823&#45;96c2&#45;2baf84243881 -->
<g id="edge10" class="edge">
<title>d858b261&#45;e10b&#45;4229&#45;92f7&#45;1408fa6cf59d&#45;&gt;da78176b&#45;b850&#45;4823&#45;96c2&#45;2baf84243881</title>
<path fill="none" stroke="black" d="M678.44,-152.56C617.46,-139.54 500.82,-114.65 436.11,-100.84"/>
<polygon fill="black" stroke="black" points="436.7,-97.39 426.19,-98.72 435.24,-104.23 436.7,-97.39"/>
</g>
<!-- bd62e5bb&#45;c11b&#45;491b&#45;bb74&#45;4284cb2f24aa -->
<g id="node8" class="node">
<title>bd62e5bb&#45;c11b&#45;491b&#45;bb74&#45;4284cb2f24aa</title>
<ellipse fill="none" stroke="black" cx="390" cy="-18" rx="46.4" ry="18"/>
<text text-anchor="middle" x="390" y="-14.3" font-family="Times,serif" font-size="14.00">AlwaysTrue</text>
</g>
<!-- da78176b&#45;b850&#45;4823&#45;96c2&#45;2baf84243881&#45;&gt;bd62e5bb&#45;c11b&#45;491b&#45;bb74&#45;4284cb2f24aa -->
<g id="edge11" class="edge">
<title>da78176b&#45;b850&#45;4823&#45;96c2&#45;2baf84243881&#45;&gt;bd62e5bb&#45;c11b&#45;491b&#45;bb74&#45;4284cb2f24aa</title>
<path fill="none" stroke="black" d="M390,-71.7C390,-63.98 390,-54.71 390,-46.11"/>
<polygon fill="black" stroke="black" points="393.5,-46.1 390,-36.1 386.5,-46.1 393.5,-46.1"/>
</g>
</g>
</svg>
