<?xml version="1.0" encoding="UTF-8" standalone="no"?>
<!DOCTYPE svg PUBLIC "-//W3C//DTD SVG 1.1//EN"
 "http://www.w3.org/Graphics/SVG/1.1/DTD/svg11.dtd">
<!-- Generated by graphviz version 2.43.0 (0)
 -->
<!-- Title: G Pages: 1 -->
<svg width="158pt" height="404pt"
 viewBox="0.00 0.00 157.61 404.00" xmlns="http://www.w3.org/2000/svg" xmlns:xlink="http://www.w3.org/1999/xlink">
<g id="graph0" class="graph" transform="scale(1 1) rotate(0) translate(4 400)">
<title>G</title>
<polygon fill="transparent" stroke="transparent" points="-4,4 -4,-400 153.61,-400 153.61,4 -4,4"/>
<!-- 50252594&#45;7119&#45;4cb2&#45;953b&#45;b904ce7fbee0 -->
<g id="node1" class="node">
<title>50252594&#45;7119&#45;4cb2&#45;953b&#45;b904ce7fbee0</title>
<ellipse fill="none" stroke="black" cx="74.8" cy="-306" rx="33.6" ry="18"/>
<text text-anchor="middle" x="74.8" y="-302.3" font-family="Times,serif" font-size="14.00">Descend</text>
</g>
<!-- 7853895e&#45;6e4a&#45;4ecc&#45;b7d7&#45;8690dd141230 -->
<g id="node2" class="node">
<title>7853895e&#45;6e4a&#45;4ecc&#45;b7d7&#45;8690dd141230</title>
<ellipse fill="none" stroke="black" cx="74.8" cy="-234" rx="47.1" ry="18"/>
<text text-anchor="middle" x="74.8" y="-230.3" font-family="Times,serif" font-size="14.00">DelayAction</text>
</g>
<!-- 50252594&#45;7119&#45;4cb2&#45;953b&#45;b904ce7fbee0&#45;&gt;7853895e&#45;6e4a&#45;4ecc&#45;b7d7&#45;8690dd141230 -->
<g id="edge1" class="edge">
<title>50252594&#45;7119&#45;4cb2&#45;953b&#45;b904ce7fbee0&#45;&gt;7853895e&#45;6e4a&#45;4ecc&#45;b7d7&#45;8690dd141230</title>
<path fill="none" stroke="black" d="M74.8,-287.7C74.8,-279.98 74.8,-270.71 74.8,-262.11"/>
<polygon fill="black" stroke="black" points="78.3,-262.1 74.8,-252.1 71.3,-262.1 78.3,-262.1"/>
</g>
<!-- 789ecaf1&#45;89ea&#45;4739&#45;a3c1&#45;cfbba0a26e9d -->
<g id="node3" class="node">
<title>789ecaf1&#45;89ea&#45;4739&#45;a3c1&#45;cfbba0a26e9d</title>
<ellipse fill="none" stroke="black" cx="74.8" cy="-162" rx="74.61" ry="18"/>
<text text-anchor="middle" x="74.8" y="-158.3" font-family="Times,serif" font-size="14.00">StraightMovement</text>
</g>
<!-- 7853895e&#45;6e4a&#45;4ecc&#45;b7d7&#45;8690dd141230&#45;&gt;789ecaf1&#45;89ea&#45;4739&#45;a3c1&#45;cfbba0a26e9d -->
<g id="edge4" class="edge">
<title>7853895e&#45;6e4a&#45;4ecc&#45;b7d7&#45;8690dd141230&#45;&gt;789ecaf1&#45;89ea&#45;4739&#45;a3c1&#45;cfbba0a26e9d</title>
<path fill="none" stroke="black" d="M74.8,-215.7C74.8,-207.98 74.8,-198.71 74.8,-190.11"/>
<polygon fill="black" stroke="black" points="78.3,-190.1 74.8,-180.1 71.3,-190.1 78.3,-190.1"/>
</g>
<!-- 0d51c8c9&#45;c17b&#45;4615&#45;8a86&#45;fde53737171c -->
<g id="node4" class="node">
<title>0d51c8c9&#45;c17b&#45;4615&#45;8a86&#45;fde53737171c</title>
<ellipse fill="none" stroke="black" cx="74.8" cy="-90" rx="47.1" ry="18"/>
<text text-anchor="middle" x="74.8" y="-86.3" font-family="Times,serif" font-size="14.00">DelayAction</text>
</g>
<!-- 789ecaf1&#45;89ea&#45;4739&#45;a3c1&#45;cfbba0a26e9d&#45;&gt;0d51c8c9&#45;c17b&#45;4615&#45;8a86&#45;fde53737171c -->
<g id="edge2" class="edge">
<title>789ecaf1&#45;89ea&#45;4739&#45;a3c1&#45;cfbba0a26e9d&#45;&gt;0d51c8c9&#45;c17b&#45;4615&#45;8a86&#45;fde53737171c</title>
<path fill="none" stroke="black" d="M74.8,-143.7C74.8,-135.98 74.8,-126.71 74.8,-118.11"/>
<polygon fill="black" stroke="black" points="78.3,-118.1 74.8,-108.1 71.3,-118.1 78.3,-118.1"/>
</g>
<!-- 90208249&#45;da63&#45;4c8b&#45;bbb8&#45;fc7ad2ce4ef2 -->
<g id="node5" class="node">
<title>90208249&#45;da63&#45;4c8b&#45;bbb8&#45;fc7ad2ce4ef2</title>
<ellipse fill="none" stroke="black" cx="74.8" cy="-18" rx="59.9" ry="18"/>
<text text-anchor="middle" x="74.8" y="-14.3" font-family="Times,serif" font-size="14.00">ZeroMovement</text>
</g>
<!-- 0d51c8c9&#45;c17b&#45;4615&#45;8a86&#45;fde53737171c&#45;&gt;90208249&#45;da63&#45;4c8b&#45;bbb8&#45;fc7ad2ce4ef2 -->
<g id="edge3" class="edge">
<title>0d51c8c9&#45;c17b&#45;4615&#45;8a86&#45;fde53737171c&#45;&gt;90208249&#45;da63&#45;4c8b&#45;bbb8&#45;fc7ad2ce4ef2</title>
<path fill="none" stroke="black" d="M74.8,-71.7C74.8,-63.98 74.8,-54.71 74.8,-46.11"/>
<polygon fill="black" stroke="black" points="78.3,-46.1 74.8,-36.1 71.3,-46.1 78.3,-46.1"/>
</g>
<!-- 07934473&#45;85f1&#45;4545&#45;8b97&#45;7b3f2242d96c -->
<g id="node6" class="node">
<title>07934473&#45;85f1&#45;4545&#45;8b97&#45;7b3f2242d96c</title>
<ellipse fill="none" stroke="black" cx="74.8" cy="-378" rx="34.8" ry="18"/>
<text text-anchor="middle" x="74.8" y="-374.3" font-family="Times,serif" font-size="14.00">WaitArm</text>
</g>
<!-- 07934473&#45;85f1&#45;4545&#45;8b97&#45;7b3f2242d96c&#45;&gt;50252594&#45;7119&#45;4cb2&#45;953b&#45;b904ce7fbee0 -->
<g id="edge5" class="edge">
<title>07934473&#45;85f1&#45;4545&#45;8b97&#45;7b3f2242d96c&#45;&gt;50252594&#45;7119&#45;4cb2&#45;953b&#45;b904ce7fbee0</title>
<path fill="none" stroke="black" d="M74.8,-359.7C74.8,-351.98 74.8,-342.71 74.8,-334.11"/>
<polygon fill="black" stroke="black" points="78.3,-334.1 74.8,-324.1 71.3,-334.1 78.3,-334.1"/>
</g>
</g>
</svg>
