<?xml version="1.0" encoding="UTF-8" standalone="no"?>
<!DOCTYPE svg PUBLIC "-//W3C//DTD SVG 1.1//EN"
 "http://www.w3.org/Graphics/SVG/1.1/DTD/svg11.dtd">
<!-- Generated by graphviz version 2.43.0 (0)
 -->
<!-- Title: G Pages: 1 -->
<svg width="2024pt" height="1071pt"
 viewBox="0.00 0.00 2024.00 1071.00" xmlns="http://www.w3.org/2000/svg" xmlns:xlink="http://www.w3.org/1999/xlink">
<g id="graph0" class="graph" transform="scale(1 1) rotate(0) translate(4 1067)">
<title>G</title>
<polygon fill="transparent" stroke="transparent" points="-4,4 -4,-1067 2020,-1067 2020,4 -4,4"/>
<g id="clust1" class="cluster">
<title>cluster_30487024&#45;3a3f&#45;4cfd&#45;b388&#45;8a5a0a207526</title>
<polygon fill="transparent" stroke="blue" stroke-dasharray="5,2" points="8,-443 8,-1055 248,-1055 248,-443 8,-443"/>
</g>
<g id="clust2" class="cluster">
<title>cluster_e2c666ba&#45;7dfe&#45;4665&#45;98ac&#45;bdeb898b7dad</title>
<polygon fill="transparent" stroke="darkgreen" stroke-dasharray="5,2" points="450,-603 450,-801 1128,-801 1128,-603 450,-603"/>
</g>
<g id="clust3" class="cluster">
<title>cluster_892aad6d&#45;7508&#45;470e&#45;8bba&#45;1277d8ffbcae</title>
<polygon fill="transparent" stroke="blue" stroke-dasharray="5,2" points="598,-8 598,-568 982,-568 982,-8 598,-8"/>
</g>
<g id="clust4" class="cluster">
<title>cluster_8c8291c2&#45;13ef&#45;462c&#45;9861&#45;4e3538676dc0</title>
<polygon fill="transparent" stroke="darkgreen" stroke-dasharray="5,2" points="1330,-603 1330,-801 2008,-801 2008,-603 1330,-603"/>
</g>
<g id="clust5" class="cluster">
<title>cluster_49428747&#45;3d62&#45;4ec5&#45;96df&#45;6836ac0be9d3</title>
<polygon fill="transparent" stroke="blue" stroke-dasharray="5,2" points="1330,-8 1330,-568 1734,-568 1734,-8 1330,-8"/>
</g>
<!-- d0040cbe&#45;ca99&#45;4584&#45;80ac&#45;fe38e9a29c46 -->
<g id="node1" class="node">
<title>d0040cbe&#45;ca99&#45;4584&#45;80ac&#45;fe38e9a29c46</title>
<polygon fill="none" stroke="black" points="727,-487 606.37,-469 727,-451 847.63,-469 727,-487"/>
<text text-anchor="middle" x="727" y="-465.3" font-family="Times,serif" font-size="14.00">Consecutive True &lt; 3</text>
</g>
<!-- d499b3cd&#45;7048&#45;4a95&#45;9410&#45;3581c6f597d5 -->
<g id="node38" class="node">
<title>d499b3cd&#45;7048&#45;4a95&#45;9410&#45;3581c6f597d5</title>
<ellipse fill="none" stroke="black" cx="349" cy="-382" rx="46.5" ry="18"/>
<text text-anchor="middle" x="349" y="-378.3" font-family="Times,serif" font-size="14.00">VisionNorm</text>
</g>
<!-- d0040cbe&#45;ca99&#45;4584&#45;80ac&#45;fe38e9a29c46&#45;&gt;d499b3cd&#45;7048&#45;4a95&#45;9410&#45;3581c6f597d5 -->
<g id="edge42" class="edge">
<title>d0040cbe&#45;ca99&#45;4584&#45;80ac&#45;fe38e9a29c46&#45;&gt;d499b3cd&#45;7048&#45;4a95&#45;9410&#45;3581c6f597d5</title>
<path fill="none" stroke="black" d="M681.4,-457.75C609.95,-441.68 472.16,-410.7 398.42,-394.11"/>
<polygon fill="black" stroke="black" points="398.98,-390.65 388.45,-391.87 397.44,-397.48 398.98,-390.65"/>
<text text-anchor="middle" x="578" y="-421.8" font-family="Times,serif" font-size="14.00">True</text>
</g>
<!-- a570766e&#45;e284&#45;4afc&#45;8ba9&#45;5d4ca317dc12 -->
<g id="node39" class="node">
<title>a570766e&#45;e284&#45;4afc&#45;8ba9&#45;5d4ca317dc12</title>
<ellipse fill="none" stroke="black" cx="1229" cy="-382" rx="46.5" ry="18"/>
<text text-anchor="middle" x="1229" y="-378.3" font-family="Times,serif" font-size="14.00">VisionNorm</text>
</g>
<!-- d0040cbe&#45;ca99&#45;4584&#45;80ac&#45;fe38e9a29c46&#45;&gt;a570766e&#45;e284&#45;4afc&#45;8ba9&#45;5d4ca317dc12 -->
<g id="edge47" class="edge">
<title>d0040cbe&#45;ca99&#45;4584&#45;80ac&#45;fe38e9a29c46&#45;&gt;a570766e&#45;e284&#45;4afc&#45;8ba9&#45;5d4ca317dc12</title>
<path fill="none" stroke="black" d="M778.83,-458.66C809.36,-453.43 848.78,-447.15 884,-443 941.55,-436.22 956.73,-441.81 1014,-433 1072.86,-423.95 1139.48,-407.46 1182.76,-395.9"/>
<polygon fill="black" stroke="black" points="1183.68,-399.28 1192.43,-393.3 1181.86,-392.52 1183.68,-399.28"/>
<text text-anchor="middle" x="1110" y="-421.8" font-family="Times,serif" font-size="14.00">False</text>
</g>
<!-- 81d15aae&#45;3b51&#45;4b63&#45;80e8&#45;0b20183933a0 -->
<g id="node2" class="node">
<title>81d15aae&#45;3b51&#45;4b63&#45;80e8&#45;0b20183933a0</title>
<polygon fill="none" stroke="black" points="1469,-487 1337.59,-469 1469,-451 1600.41,-469 1469,-487"/>
<text text-anchor="middle" x="1469" y="-465.3" font-family="Times,serif" font-size="14.00">Consecutive False &lt; 10</text>
</g>
<!-- 81d15aae&#45;3b51&#45;4b63&#45;80e8&#45;0b20183933a0&#45;&gt;a570766e&#45;e284&#45;4afc&#45;8ba9&#45;5d4ca317dc12 -->
<g id="edge45" class="edge">
<title>81d15aae&#45;3b51&#45;4b63&#45;80e8&#45;0b20183933a0&#45;&gt;a570766e&#45;e284&#45;4afc&#45;8ba9&#45;5d4ca317dc12</title>
<path fill="none" stroke="black" d="M1434.36,-455.73C1391.34,-440.49 1317.96,-414.51 1271.56,-398.07"/>
<polygon fill="black" stroke="black" points="1272.68,-394.76 1262.09,-394.72 1270.34,-401.36 1272.68,-394.76"/>
<text text-anchor="middle" x="1380" y="-421.8" font-family="Times,serif" font-size="14.00">True</text>
</g>
<!-- 09c69413&#45;5217&#45;4421&#45;88e2&#45;23cb43b549e5 -->
<g id="node40" class="node">
<title>09c69413&#45;5217&#45;4421&#45;88e2&#45;23cb43b549e5</title>
<ellipse fill="none" stroke="black" cx="1802" cy="-382" rx="59.9" ry="18"/>
<text text-anchor="middle" x="1802" y="-378.3" font-family="Times,serif" font-size="14.00">ZeroMovement</text>
</g>
<!-- 81d15aae&#45;3b51&#45;4b63&#45;80e8&#45;0b20183933a0&#45;&gt;09c69413&#45;5217&#45;4421&#45;88e2&#45;23cb43b549e5 -->
<g id="edge46" class="edge">
<title>81d15aae&#45;3b51&#45;4b63&#45;80e8&#45;0b20183933a0&#45;&gt;09c69413&#45;5217&#45;4421&#45;88e2&#45;23cb43b549e5</title>
<path fill="none" stroke="black" d="M1526.5,-458.84C1558.67,-453.86 1599.52,-447.76 1636,-443 1675.91,-437.8 1688.14,-446.66 1726,-433 1743.59,-426.65 1761.17,-415.48 1774.99,-405.3"/>
<polygon fill="black" stroke="black" points="1777.23,-407.99 1783.07,-399.14 1772.99,-402.42 1777.23,-407.99"/>
<text text-anchor="middle" x="1773" y="-421.8" font-family="Times,serif" font-size="14.00">False</text>
</g>
<!-- b3bdedf8&#45;befa&#45;44b5&#45;ab57&#45;eb8d951edb8d -->
<g id="node3" class="node">
<title>b3bdedf8&#45;befa&#45;44b5&#45;ab57&#45;eb8d951edb8d</title>
<ellipse fill="none" stroke="black" cx="88" cy="-848" rx="33.6" ry="18"/>
<text text-anchor="middle" x="88" y="-844.3" font-family="Times,serif" font-size="14.00">Descend</text>
</g>
<!-- 01ed4445&#45;64a7&#45;4a89&#45;893a&#45;9751c98a46cb -->
<g id="node4" class="node">
<title>01ed4445&#45;64a7&#45;4a89&#45;893a&#45;9751c98a46cb</title>
<ellipse fill="none" stroke="black" cx="88" cy="-775" rx="47.1" ry="18"/>
<text text-anchor="middle" x="88" y="-771.3" font-family="Times,serif" font-size="14.00">DelayAction</text>
</g>
<!-- b3bdedf8&#45;befa&#45;44b5&#45;ab57&#45;eb8d951edb8d&#45;&gt;01ed4445&#45;64a7&#45;4a89&#45;893a&#45;9751c98a46cb -->
<g id="edge1" class="edge">
<title>b3bdedf8&#45;befa&#45;44b5&#45;ab57&#45;eb8d951edb8d&#45;&gt;01ed4445&#45;64a7&#45;4a89&#45;893a&#45;9751c98a46cb</title>
<path fill="none" stroke="black" d="M88,-829.81C88,-821.79 88,-812.05 88,-803.07"/>
<polygon fill="black" stroke="black" points="91.5,-803.03 88,-793.03 84.5,-803.03 91.5,-803.03"/>
</g>
<!-- af567838&#45;8319&#45;444a&#45;b4b2&#45;97e01c0b244a -->
<g id="node5" class="node">
<title>af567838&#45;8319&#45;444a&#45;b4b2&#45;97e01c0b244a</title>
<ellipse fill="none" stroke="black" cx="91" cy="-702" rx="74.61" ry="18"/>
<text text-anchor="middle" x="91" y="-698.3" font-family="Times,serif" font-size="14.00">StraightMovement</text>
</g>
<!-- 01ed4445&#45;64a7&#45;4a89&#45;893a&#45;9751c98a46cb&#45;&gt;af567838&#45;8319&#45;444a&#45;b4b2&#45;97e01c0b244a -->
<g id="edge4" class="edge">
<title>01ed4445&#45;64a7&#45;4a89&#45;893a&#45;9751c98a46cb&#45;&gt;af567838&#45;8319&#45;444a&#45;b4b2&#45;97e01c0b244a</title>
<path fill="none" stroke="black" d="M88.73,-756.81C89.07,-748.79 89.48,-739.05 89.86,-730.07"/>
<polygon fill="black" stroke="black" points="93.36,-730.17 90.28,-720.03 86.36,-729.87 93.36,-730.17"/>
</g>
<!-- 71117ed3&#45;27e1&#45;47a3&#45;ad47&#45;7803f51ea271 -->
<g id="node6" class="node">
<title>71117ed3&#45;27e1&#45;47a3&#45;ad47&#45;7803f51ea271</title>
<ellipse fill="none" stroke="black" cx="99" cy="-629" rx="47.1" ry="18"/>
<text text-anchor="middle" x="99" y="-625.3" font-family="Times,serif" font-size="14.00">DelayAction</text>
</g>
<!-- af567838&#45;8319&#45;444a&#45;b4b2&#45;97e01c0b244a&#45;&gt;71117ed3&#45;27e1&#45;47a3&#45;ad47&#45;7803f51ea271 -->
<g id="edge2" class="edge">
<title>af567838&#45;8319&#45;444a&#45;b4b2&#45;97e01c0b244a&#45;&gt;71117ed3&#45;27e1&#45;47a3&#45;ad47&#45;7803f51ea271</title>
<path fill="none" stroke="black" d="M92.94,-683.81C93.84,-675.79 94.94,-666.05 95.95,-657.07"/>
<polygon fill="black" stroke="black" points="99.44,-657.36 97.08,-647.03 92.48,-656.57 99.44,-657.36"/>
</g>
<!-- 1e10a7ee&#45;e257&#45;4163&#45;b854&#45;f96ff1d2bae8 -->
<g id="node7" class="node">
<title>1e10a7ee&#45;e257&#45;4163&#45;b854&#45;f96ff1d2bae8</title>
<ellipse fill="none" stroke="black" cx="104" cy="-542" rx="59.9" ry="18"/>
<text text-anchor="middle" x="104" y="-538.3" font-family="Times,serif" font-size="14.00">ZeroMovement</text>
</g>
<!-- 71117ed3&#45;27e1&#45;47a3&#45;ad47&#45;7803f51ea271&#45;&gt;1e10a7ee&#45;e257&#45;4163&#45;b854&#45;f96ff1d2bae8 -->
<g id="edge3" class="edge">
<title>71117ed3&#45;27e1&#45;47a3&#45;ad47&#45;7803f51ea271&#45;&gt;1e10a7ee&#45;e257&#45;4163&#45;b854&#45;f96ff1d2bae8</title>
<path fill="none" stroke="black" d="M100.01,-610.8C100.7,-599.16 101.61,-583.55 102.4,-570.24"/>
<polygon fill="black" stroke="black" points="105.9,-570.36 102.99,-560.18 98.91,-569.95 105.9,-570.36"/>
</g>
<!-- d085c7e6&#45;658f&#45;47ab&#45;beb7&#45;b74cc23b5fa5 -->
<g id="node11" class="node">
<title>d085c7e6&#45;658f&#45;47ab&#45;beb7&#45;b74cc23b5fa5</title>
<polygon fill="none" stroke="black" stroke-dasharray="5,2" points="239.5,-487 154.5,-487 154.5,-451 239.5,-451 239.5,-487"/>
<text text-anchor="middle" x="197" y="-465.3" font-family="Times,serif" font-size="14.00" fill="blue">Converge</text>
</g>
<!-- 1e10a7ee&#45;e257&#45;4163&#45;b854&#45;f96ff1d2bae8&#45;&gt;d085c7e6&#45;658f&#45;47ab&#45;beb7&#45;b74cc23b5fa5 -->
<g id="edge8" class="edge">
<title>1e10a7ee&#45;e257&#45;4163&#45;b854&#45;f96ff1d2bae8&#45;&gt;d085c7e6&#45;658f&#45;47ab&#45;beb7&#45;b74cc23b5fa5</title>
<path fill="none" stroke="black" d="M125.1,-524.89C137.35,-515.54 152.99,-503.6 166.56,-493.24"/>
<polygon fill="black" stroke="black" points="168.86,-495.89 174.68,-487.04 164.61,-490.32 168.86,-495.89"/>
</g>
<!-- b02270f4&#45;f413&#45;4917&#45;906f&#45;d1d4845ccbf1 -->
<g id="node8" class="node">
<title>b02270f4&#45;f413&#45;4917&#45;906f&#45;d1d4845ccbf1</title>
<ellipse fill="none" stroke="black" cx="82" cy="-956" rx="34.8" ry="18"/>
<text text-anchor="middle" x="82" y="-952.3" font-family="Times,serif" font-size="14.00">WaitArm</text>
</g>
<!-- b02270f4&#45;f413&#45;4917&#45;906f&#45;d1d4845ccbf1&#45;&gt;b3bdedf8&#45;befa&#45;44b5&#45;ab57&#45;eb8d951edb8d -->
<g id="edge5" class="edge">
<title>b02270f4&#45;f413&#45;4917&#45;906f&#45;d1d4845ccbf1&#45;&gt;b3bdedf8&#45;befa&#45;44b5&#45;ab57&#45;eb8d951edb8d</title>
<path fill="none" stroke="black" d="M82.96,-937.97C83.9,-921.38 85.35,-895.88 86.45,-876.43"/>
<polygon fill="black" stroke="black" points="89.95,-876.52 87.02,-866.34 82.96,-876.13 89.95,-876.52"/>
</g>
<!-- e4ba2b37&#45;ca0f&#45;4890&#45;bce1&#45;0f931166ed1b -->
<g id="node9" class="node">
<title>e4ba2b37&#45;ca0f&#45;4890&#45;bce1&#45;0f931166ed1b</title>
<polygon fill="none" stroke="black" stroke-dasharray="5,2" points="212,-1047 114,-1047 114,-1011 212,-1011 212,-1047"/>
<text text-anchor="middle" x="163" y="-1025.3" font-family="Times,serif" font-size="14.00" fill="blue">Concurrent</text>
</g>
<!-- e4ba2b37&#45;ca0f&#45;4890&#45;bce1&#45;0f931166ed1b&#45;&gt;b02270f4&#45;f413&#45;4917&#45;906f&#45;d1d4845ccbf1 -->
<g id="edge6" class="edge">
<title>e4ba2b37&#45;ca0f&#45;4890&#45;bce1&#45;0f931166ed1b&#45;&gt;b02270f4&#45;f413&#45;4917&#45;906f&#45;d1d4845ccbf1</title>
<path fill="none" stroke="black" d="M143.39,-1010.81C132.36,-1001.14 118.48,-988.98 106.71,-978.66"/>
<polygon fill="black" stroke="black" points="108.79,-975.82 98.96,-971.87 104.17,-981.09 108.79,-975.82"/>
</g>
<!-- 45f51689&#45;94c1&#45;49d7&#45;90d3&#45;f7973c8fc104 -->
<g id="node10" class="node">
<title>45f51689&#45;94c1&#45;49d7&#45;90d3&#45;f7973c8fc104</title>
<ellipse fill="none" stroke="black" cx="189" cy="-902" rx="50.7" ry="18"/>
<text text-anchor="middle" x="189" y="-898.3" font-family="Times,serif" font-size="14.00">StartBno055</text>
</g>
<!-- e4ba2b37&#45;ca0f&#45;4890&#45;bce1&#45;0f931166ed1b&#45;&gt;45f51689&#45;94c1&#45;49d7&#45;90d3&#45;f7973c8fc104 -->
<g id="edge7" class="edge">
<title>e4ba2b37&#45;ca0f&#45;4890&#45;bce1&#45;0f931166ed1b&#45;&gt;45f51689&#45;94c1&#45;49d7&#45;90d3&#45;f7973c8fc104</title>
<path fill="none" stroke="black" d="M166.56,-1010.88C170.87,-990.15 178.19,-954.95 183.3,-930.42"/>
<polygon fill="black" stroke="black" points="186.79,-930.82 185.4,-920.31 179.94,-929.39 186.79,-930.82"/>
</g>
<!-- 45f51689&#45;94c1&#45;49d7&#45;90d3&#45;f7973c8fc104&#45;&gt;d085c7e6&#45;658f&#45;47ab&#45;beb7&#45;b74cc23b5fa5 -->
<g id="edge9" class="edge">
<title>45f51689&#45;94c1&#45;49d7&#45;90d3&#45;f7973c8fc104&#45;&gt;d085c7e6&#45;658f&#45;47ab&#45;beb7&#45;b74cc23b5fa5</title>
<path fill="none" stroke="black" d="M204.82,-884.8C219.47,-868.03 239,-840.36 239,-812 239,-812 239,-812 239,-541 239,-524.08 230.06,-507.66 220.43,-494.88"/>
<polygon fill="black" stroke="black" points="223.09,-492.61 214.08,-487.04 217.65,-497.01 223.09,-492.61"/>
</g>
<!-- d085c7e6&#45;658f&#45;47ab&#45;beb7&#45;b74cc23b5fa5&#45;&gt;d499b3cd&#45;7048&#45;4a95&#45;9410&#45;3581c6f597d5 -->
<g id="edge48" class="edge">
<title>d085c7e6&#45;658f&#45;47ab&#45;beb7&#45;b74cc23b5fa5&#45;&gt;d499b3cd&#45;7048&#45;4a95&#45;9410&#45;3581c6f597d5</title>
<path fill="none" stroke="black" d="M227.76,-450.8C252.9,-436.74 288.43,-416.87 314.53,-402.28"/>
<polygon fill="black" stroke="black" points="316.31,-405.29 323.33,-397.35 312.9,-399.18 316.31,-405.29"/>
</g>
<!-- c1b6bbb8&#45;9f39&#45;40de&#45;81fe&#45;0f2d9bf394f1 -->
<g id="node12" class="node">
<title>c1b6bbb8&#45;9f39&#45;40de&#45;81fe&#45;0f2d9bf394f1</title>
<polygon fill="none" stroke="black" stroke-dasharray="5,2" points="780,-793 598,-793 598,-757 780,-757 780,-793"/>
<text text-anchor="middle" x="689" y="-771.3" font-family="Times,serif" font-size="14.00" fill="darkgreen">FirstValid (Concurrent)</text>
</g>
<!-- bb7bcf49&#45;bae8&#45;4d7c&#45;ad59&#45;e440a65830bc -->
<g id="node13" class="node">
<title>bb7bcf49&#45;bae8&#45;4d7c&#45;ad59&#45;e440a65830bc</title>
<ellipse fill="none" stroke="black" cx="509" cy="-702" rx="51.3" ry="18"/>
<text text-anchor="middle" x="509" y="-698.3" font-family="Times,serif" font-size="14.00">Detect Earth</text>
</g>
<!-- c1b6bbb8&#45;9f39&#45;40de&#45;81fe&#45;0f2d9bf394f1&#45;&gt;bb7bcf49&#45;bae8&#45;4d7c&#45;ad59&#45;e440a65830bc -->
<g id="edge10" class="edge">
<title>c1b6bbb8&#45;9f39&#45;40de&#45;81fe&#45;0f2d9bf394f1&#45;&gt;bb7bcf49&#45;bae8&#45;4d7c&#45;ad59&#45;e440a65830bc</title>
<path fill="none" stroke="black" d="M645.89,-756.99C617.23,-745.69 579.78,-730.92 551.29,-719.68"/>
<polygon fill="black" stroke="black" points="552.21,-716.28 541.62,-715.87 549.64,-722.79 552.21,-716.28"/>
</g>
<!-- 37ff51cf&#45;106b&#45;4007&#45;b982&#45;d3d316e36796 -->
<g id="node14" class="node">
<title>37ff51cf&#45;106b&#45;4007&#45;b982&#45;d3d316e36796</title>
<ellipse fill="none" stroke="black" cx="689" cy="-702" rx="57.4" ry="18"/>
<text text-anchor="middle" x="689" y="-698.3" font-family="Times,serif" font-size="14.00">Detect Abydos</text>
</g>
<!-- c1b6bbb8&#45;9f39&#45;40de&#45;81fe&#45;0f2d9bf394f1&#45;&gt;37ff51cf&#45;106b&#45;4007&#45;b982&#45;d3d316e36796 -->
<g id="edge11" class="edge">
<title>c1b6bbb8&#45;9f39&#45;40de&#45;81fe&#45;0f2d9bf394f1&#45;&gt;37ff51cf&#45;106b&#45;4007&#45;b982&#45;d3d316e36796</title>
<path fill="none" stroke="black" d="M689,-756.81C689,-748.79 689,-739.05 689,-730.07"/>
<polygon fill="black" stroke="black" points="692.5,-730.03 689,-720.03 685.5,-730.03 692.5,-730.03"/>
</g>
<!-- 3e5d6bdb&#45;99b1&#45;4b41&#45;a3d2&#45;2a17945a54f7 -->
<g id="node15" class="node">
<title>3e5d6bdb&#45;99b1&#45;4b41&#45;a3d2&#45;2a17945a54f7</title>
<ellipse fill="none" stroke="black" cx="888" cy="-702" rx="69.71" ry="18"/>
<text text-anchor="middle" x="888" y="-698.3" font-family="Times,serif" font-size="14.00">Detect LargeGate</text>
</g>
<!-- c1b6bbb8&#45;9f39&#45;40de&#45;81fe&#45;0f2d9bf394f1&#45;&gt;3e5d6bdb&#45;99b1&#45;4b41&#45;a3d2&#45;2a17945a54f7 -->
<g id="edge12" class="edge">
<title>c1b6bbb8&#45;9f39&#45;40de&#45;81fe&#45;0f2d9bf394f1&#45;&gt;3e5d6bdb&#45;99b1&#45;4b41&#45;a3d2&#45;2a17945a54f7</title>
<path fill="none" stroke="black" d="M736.67,-756.99C767.58,-745.96 807.77,-731.63 838.96,-720.5"/>
<polygon fill="black" stroke="black" points="840.5,-723.66 848.75,-717.01 838.15,-717.07 840.5,-723.66"/>
</g>
<!-- 302d125c&#45;d8ee&#45;4372&#45;9b3a&#45;710e9caec813 -->
<g id="node16" class="node">
<title>302d125c&#45;d8ee&#45;4372&#45;9b3a&#45;710e9caec813</title>
<ellipse fill="none" stroke="black" cx="1075" cy="-702" rx="45.2" ry="18"/>
<text text-anchor="middle" x="1075" y="-698.3" font-family="Times,serif" font-size="14.00">Detect Pole</text>
</g>
<!-- c1b6bbb8&#45;9f39&#45;40de&#45;81fe&#45;0f2d9bf394f1&#45;&gt;302d125c&#45;d8ee&#45;4372&#45;9b3a&#45;710e9caec813 -->
<g id="edge13" class="edge">
<title>c1b6bbb8&#45;9f39&#45;40de&#45;81fe&#45;0f2d9bf394f1&#45;&gt;302d125c&#45;d8ee&#45;4372&#45;9b3a&#45;710e9caec813</title>
<path fill="none" stroke="black" d="M780.23,-758.62C840.91,-748.21 922.33,-733.86 994,-720 1004.48,-717.97 1015.69,-715.69 1026.34,-713.47"/>
<polygon fill="black" stroke="black" points="1027.25,-716.86 1036.32,-711.38 1025.82,-710.01 1027.25,-716.86"/>
</g>
<!-- 5c537d77&#45;c4fb&#45;498b&#45;a1a0&#45;5c00f3eb8167 -->
<g id="node17" class="node">
<title>5c537d77&#45;c4fb&#45;498b&#45;a1a0&#45;5c00f3eb8167</title>
<polygon fill="none" stroke="black" stroke-dasharray="5,2" points="876.5,-647 791.5,-647 791.5,-611 876.5,-611 876.5,-647"/>
<text text-anchor="middle" x="834" y="-625.3" font-family="Times,serif" font-size="14.00" fill="darkgreen">Converge</text>
</g>
<!-- bb7bcf49&#45;bae8&#45;4d7c&#45;ad59&#45;e440a65830bc&#45;&gt;5c537d77&#45;c4fb&#45;498b&#45;a1a0&#45;5c00f3eb8167 -->
<g id="edge14" class="edge">
<title>bb7bcf49&#45;bae8&#45;4d7c&#45;ad59&#45;e440a65830bc&#45;&gt;5c537d77&#45;c4fb&#45;498b&#45;a1a0&#45;5c00f3eb8167</title>
<path fill="none" stroke="black" d="M551.15,-691.79C610.17,-678.9 717.37,-655.48 781.5,-641.47"/>
<polygon fill="black" stroke="black" points="782.38,-644.86 791.4,-639.31 780.89,-638.02 782.38,-644.86"/>
</g>
<!-- 37ff51cf&#45;106b&#45;4007&#45;b982&#45;d3d316e36796&#45;&gt;5c537d77&#45;c4fb&#45;498b&#45;a1a0&#45;5c00f3eb8167 -->
<g id="edge15" class="edge">
<title>37ff51cf&#45;106b&#45;4007&#45;b982&#45;d3d316e36796&#45;&gt;5c537d77&#45;c4fb&#45;498b&#45;a1a0&#45;5c00f3eb8167</title>
<path fill="none" stroke="black" d="M718.69,-686.46C739.23,-676.41 766.9,-662.85 789.99,-651.55"/>
<polygon fill="black" stroke="black" points="791.8,-654.56 799.24,-647.02 788.72,-648.27 791.8,-654.56"/>
</g>
<!-- 3e5d6bdb&#45;99b1&#45;4b41&#45;a3d2&#45;2a17945a54f7&#45;&gt;5c537d77&#45;c4fb&#45;498b&#45;a1a0&#45;5c00f3eb8167 -->
<g id="edge16" class="edge">
<title>3e5d6bdb&#45;99b1&#45;4b41&#45;a3d2&#45;2a17945a54f7&#45;&gt;5c537d77&#45;c4fb&#45;498b&#45;a1a0&#45;5c00f3eb8167</title>
<path fill="none" stroke="black" d="M875.2,-684.17C868.64,-675.55 860.52,-664.86 853.22,-655.27"/>
<polygon fill="black" stroke="black" points="855.92,-653.04 847.08,-647.2 850.35,-657.28 855.92,-653.04"/>
</g>
<!-- 302d125c&#45;d8ee&#45;4372&#45;9b3a&#45;710e9caec813&#45;&gt;5c537d77&#45;c4fb&#45;498b&#45;a1a0&#45;5c00f3eb8167 -->
<g id="edge17" class="edge">
<title>302d125c&#45;d8ee&#45;4372&#45;9b3a&#45;710e9caec813&#45;&gt;5c537d77&#45;c4fb&#45;498b&#45;a1a0&#45;5c00f3eb8167</title>
<path fill="none" stroke="black" d="M1039.7,-690.6C999.38,-678.72 933.01,-659.17 886.6,-645.5"/>
<polygon fill="black" stroke="black" points="887.3,-642.05 876.72,-642.59 885.32,-648.77 887.3,-642.05"/>
</g>
<!-- 56f50c42&#45;2368&#45;47b1&#45;9553&#45;b9d3d03cc437 -->
<g id="node24" class="node">
<title>56f50c42&#45;2368&#45;47b1&#45;9553&#45;b9d3d03cc437</title>
<polygon fill="none" stroke="black" stroke-dasharray="5,2" points="883,-560 785,-560 785,-524 883,-524 883,-560"/>
<text text-anchor="middle" x="834" y="-538.3" font-family="Times,serif" font-size="14.00" fill="blue">Concurrent</text>
</g>
<!-- 5c537d77&#45;c4fb&#45;498b&#45;a1a0&#45;5c00f3eb8167&#45;&gt;56f50c42&#45;2368&#45;47b1&#45;9553&#45;b9d3d03cc437 -->
<g id="edge40" class="edge">
<title>5c537d77&#45;c4fb&#45;498b&#45;a1a0&#45;5c00f3eb8167&#45;&gt;56f50c42&#45;2368&#45;47b1&#45;9553&#45;b9d3d03cc437</title>
<path fill="none" stroke="purple" d="M834,-610.8C834,-599.16 834,-583.55 834,-570.24"/>
<polygon fill="purple" stroke="purple" points="837.5,-570.18 834,-560.18 830.5,-570.18 837.5,-570.18"/>
<text text-anchor="middle" x="869.5" y="-581.8" font-family="Times,serif" font-size="14.00" fill="purple">Pass Data</text>
</g>
<!-- 71262242&#45;dfbb&#45;4d03&#45;830e&#45;9c34da313fd2 -->
<g id="node18" class="node">
<title>71262242&#45;dfbb&#45;4d03&#45;830e&#45;9c34da313fd2</title>
<ellipse fill="none" stroke="black" cx="894" cy="-121" rx="67.81" ry="18"/>
<text text-anchor="middle" x="894" y="-117.3" font-family="Times,serif" font-size="14.00">LinearYawFromX</text>
</g>
<!-- 235e6dd3&#45;795e&#45;4f25&#45;8030&#45;0179f8997707 -->
<g id="node19" class="node">
<title>235e6dd3&#45;795e&#45;4f25&#45;8030&#45;0179f8997707</title>
<ellipse fill="none" stroke="black" cx="894" cy="-34" rx="80.11" ry="18"/>
<text text-anchor="middle" x="894" y="-30.3" font-family="Times,serif" font-size="14.00">Stability2Movement</text>
</g>
<!-- 71262242&#45;dfbb&#45;4d03&#45;830e&#45;9c34da313fd2&#45;&gt;235e6dd3&#45;795e&#45;4f25&#45;8030&#45;0179f8997707 -->
<g id="edge18" class="edge">
<title>71262242&#45;dfbb&#45;4d03&#45;830e&#45;9c34da313fd2&#45;&gt;235e6dd3&#45;795e&#45;4f25&#45;8030&#45;0179f8997707</title>
<path fill="none" stroke="purple" d="M894,-102.8C894,-91.16 894,-75.55 894,-62.24"/>
<polygon fill="purple" stroke="purple" points="897.5,-62.18 894,-52.18 890.5,-62.18 897.5,-62.18"/>
<text text-anchor="middle" x="929.5" y="-73.8" font-family="Times,serif" font-size="14.00" fill="purple">Pass Data</text>
</g>
<!-- 5ed37974&#45;bf8e&#45;4f57&#45;9173&#45;ca2b868276c5 -->
<g id="node20" class="node">
<title>5ed37974&#45;bf8e&#45;4f57&#45;9173&#45;ca2b868276c5</title>
<ellipse fill="none" stroke="black" cx="895" cy="-208" rx="51.3" ry="18"/>
<text text-anchor="middle" x="895" y="-204.3" font-family="Times,serif" font-size="14.00">OffsetToPose</text>
</g>
<!-- 5ed37974&#45;bf8e&#45;4f57&#45;9173&#45;ca2b868276c5&#45;&gt;71262242&#45;dfbb&#45;4d03&#45;830e&#45;9c34da313fd2 -->
<g id="edge19" class="edge">
<title>5ed37974&#45;bf8e&#45;4f57&#45;9173&#45;ca2b868276c5&#45;&gt;71262242&#45;dfbb&#45;4d03&#45;830e&#45;9c34da313fd2</title>
<path fill="none" stroke="purple" d="M894.8,-189.8C894.66,-178.16 894.48,-162.55 894.32,-149.24"/>
<polygon fill="purple" stroke="purple" points="897.82,-149.13 894.2,-139.18 890.82,-149.22 897.82,-149.13"/>
<text text-anchor="middle" x="929.5" y="-160.8" font-family="Times,serif" font-size="14.00" fill="purple">Pass Data</text>
</g>
<!-- 5f6e8e41&#45;7be6&#45;417d&#45;a05f&#45;31edfb796bc8 -->
<g id="node21" class="node">
<title>5f6e8e41&#45;7be6&#45;417d&#45;a05f&#45;31edfb796bc8</title>
<ellipse fill="none" stroke="black" cx="896" cy="-295" rx="32.4" ry="18"/>
<text text-anchor="middle" x="896" y="-291.3" font-family="Times,serif" font-size="14.00">Average</text>
</g>
<!-- 5f6e8e41&#45;7be6&#45;417d&#45;a05f&#45;31edfb796bc8&#45;&gt;5ed37974&#45;bf8e&#45;4f57&#45;9173&#45;ca2b868276c5 -->
<g id="edge20" class="edge">
<title>5f6e8e41&#45;7be6&#45;417d&#45;a05f&#45;31edfb796bc8&#45;&gt;5ed37974&#45;bf8e&#45;4f57&#45;9173&#45;ca2b868276c5</title>
<path fill="none" stroke="purple" d="M895.8,-276.8C895.66,-265.16 895.48,-249.55 895.32,-236.24"/>
<polygon fill="purple" stroke="purple" points="898.82,-236.13 895.2,-226.18 891.82,-236.22 898.82,-236.13"/>
<text text-anchor="middle" x="930.5" y="-247.8" font-family="Times,serif" font-size="14.00" fill="purple">Pass Data</text>
</g>
<!-- 9f41e020&#45;521a&#45;440e&#45;9e69&#45;d7ae19a5aba4 -->
<g id="node22" class="node">
<title>9f41e020&#45;521a&#45;440e&#45;9e69&#45;d7ae19a5aba4</title>
<ellipse fill="none" stroke="black" cx="898" cy="-382" rx="61.1" ry="18"/>
<text text-anchor="middle" x="898" y="-378.3" font-family="Times,serif" font-size="14.00">ExtractPosition</text>
</g>
<!-- 9f41e020&#45;521a&#45;440e&#45;9e69&#45;d7ae19a5aba4&#45;&gt;5f6e8e41&#45;7be6&#45;417d&#45;a05f&#45;31edfb796bc8 -->
<g id="edge21" class="edge">
<title>9f41e020&#45;521a&#45;440e&#45;9e69&#45;d7ae19a5aba4&#45;&gt;5f6e8e41&#45;7be6&#45;417d&#45;a05f&#45;31edfb796bc8</title>
<path fill="none" stroke="purple" d="M897.6,-363.8C897.32,-352.16 896.95,-336.55 896.64,-323.24"/>
<polygon fill="purple" stroke="purple" points="900.14,-323.09 896.4,-313.18 893.14,-323.26 900.14,-323.09"/>
<text text-anchor="middle" x="932.5" y="-334.8" font-family="Times,serif" font-size="14.00" fill="purple">Pass Data</text>
</g>
<!-- a0faa203&#45;9a19&#45;489d&#45;9ae8&#45;cc41a5b3cca0 -->
<g id="node23" class="node">
<title>a0faa203&#45;9a19&#45;489d&#45;9ae8&#45;cc41a5b3cca0</title>
<ellipse fill="none" stroke="black" cx="947" cy="-469" rx="27" ry="18"/>
<text text-anchor="middle" x="947" y="-465.3" font-family="Times,serif" font-size="14.00">ToVec</text>
</g>
<!-- a0faa203&#45;9a19&#45;489d&#45;9ae8&#45;cc41a5b3cca0&#45;&gt;9f41e020&#45;521a&#45;440e&#45;9e69&#45;d7ae19a5aba4 -->
<g id="edge22" class="edge">
<title>a0faa203&#45;9a19&#45;489d&#45;9ae8&#45;cc41a5b3cca0&#45;&gt;9f41e020&#45;521a&#45;440e&#45;9e69&#45;d7ae19a5aba4</title>
<path fill="none" stroke="purple" d="M937.78,-452.01C930.73,-439.78 920.87,-422.68 912.73,-408.56"/>
<polygon fill="purple" stroke="purple" points="915.7,-406.7 907.68,-399.79 909.64,-410.2 915.7,-406.7"/>
<text text-anchor="middle" x="960.5" y="-421.8" font-family="Times,serif" font-size="14.00" fill="purple">Pass Data</text>
</g>
<!-- 56f50c42&#45;2368&#45;47b1&#45;9553&#45;b9d3d03cc437&#45;&gt;d0040cbe&#45;ca99&#45;4584&#45;80ac&#45;fe38e9a29c46 -->
<g id="edge24" class="edge">
<title>56f50c42&#45;2368&#45;47b1&#45;9553&#45;b9d3d03cc437&#45;&gt;d0040cbe&#45;ca99&#45;4584&#45;80ac&#45;fe38e9a29c46</title>
<path fill="none" stroke="black" d="M808.37,-523.99C792.83,-513.68 772.92,-500.47 756.69,-489.7"/>
<polygon fill="black" stroke="black" points="758.37,-486.62 748.11,-484.01 754.5,-492.45 758.37,-486.62"/>
</g>
<!-- 56f50c42&#45;2368&#45;47b1&#45;9553&#45;b9d3d03cc437&#45;&gt;a0faa203&#45;9a19&#45;489d&#45;9ae8&#45;cc41a5b3cca0 -->
<g id="edge23" class="edge">
<title>56f50c42&#45;2368&#45;47b1&#45;9553&#45;b9d3d03cc437&#45;&gt;a0faa203&#45;9a19&#45;489d&#45;9ae8&#45;cc41a5b3cca0</title>
<path fill="none" stroke="black" d="M861.07,-523.99C878.64,-512.95 901.47,-498.6 919.19,-487.47"/>
<polygon fill="black" stroke="black" points="921.33,-490.26 927.93,-481.98 917.6,-484.34 921.33,-490.26"/>
</g>
<!-- f6546e2f&#45;4717&#45;4314&#45;9683&#45;2e329648b1a3 -->
<g id="node25" class="node">
<title>f6546e2f&#45;4717&#45;4314&#45;9683&#45;2e329648b1a3</title>
<polygon fill="none" stroke="black" stroke-dasharray="5,2" points="1660,-793 1478,-793 1478,-757 1660,-757 1660,-793"/>
<text text-anchor="middle" x="1569" y="-771.3" font-family="Times,serif" font-size="14.00" fill="darkgreen">FirstValid (Concurrent)</text>
</g>
<!-- 0567af8b&#45;c8af&#45;4909&#45;9b70&#45;64c79b99bca3 -->
<g id="node26" class="node">
<title>0567af8b&#45;c8af&#45;4909&#45;9b70&#45;64c79b99bca3</title>
<ellipse fill="none" stroke="black" cx="1389" cy="-702" rx="51.3" ry="18"/>
<text text-anchor="middle" x="1389" y="-698.3" font-family="Times,serif" font-size="14.00">Detect Earth</text>
</g>
<!-- f6546e2f&#45;4717&#45;4314&#45;9683&#45;2e329648b1a3&#45;&gt;0567af8b&#45;c8af&#45;4909&#45;9b70&#45;64c79b99bca3 -->
<g id="edge25" class="edge">
<title>f6546e2f&#45;4717&#45;4314&#45;9683&#45;2e329648b1a3&#45;&gt;0567af8b&#45;c8af&#45;4909&#45;9b70&#45;64c79b99bca3</title>
<path fill="none" stroke="black" d="M1525.89,-756.99C1497.23,-745.69 1459.78,-730.92 1431.29,-719.68"/>
<polygon fill="black" stroke="black" points="1432.21,-716.28 1421.62,-715.87 1429.64,-722.79 1432.21,-716.28"/>
</g>
<!-- 40ad52b0&#45;6351&#45;4456&#45;b544&#45;d0e24d80e3e2 -->
<g id="node27" class="node">
<title>40ad52b0&#45;6351&#45;4456&#45;b544&#45;d0e24d80e3e2</title>
<ellipse fill="none" stroke="black" cx="1569" cy="-702" rx="57.4" ry="18"/>
<text text-anchor="middle" x="1569" y="-698.3" font-family="Times,serif" font-size="14.00">Detect Abydos</text>
</g>
<!-- f6546e2f&#45;4717&#45;4314&#45;9683&#45;2e329648b1a3&#45;&gt;40ad52b0&#45;6351&#45;4456&#45;b544&#45;d0e24d80e3e2 -->
<g id="edge26" class="edge">
<title>f6546e2f&#45;4717&#45;4314&#45;9683&#45;2e329648b1a3&#45;&gt;40ad52b0&#45;6351&#45;4456&#45;b544&#45;d0e24d80e3e2</title>
<path fill="none" stroke="black" d="M1569,-756.81C1569,-748.79 1569,-739.05 1569,-730.07"/>
<polygon fill="black" stroke="black" points="1572.5,-730.03 1569,-720.03 1565.5,-730.03 1572.5,-730.03"/>
</g>
<!-- f05f9bf7&#45;88a4&#45;4a69&#45;92f5&#45;aa167b73d69a -->
<g id="node28" class="node">
<title>f05f9bf7&#45;88a4&#45;4a69&#45;92f5&#45;aa167b73d69a</title>
<ellipse fill="none" stroke="black" cx="1768" cy="-702" rx="69.71" ry="18"/>
<text text-anchor="middle" x="1768" y="-698.3" font-family="Times,serif" font-size="14.00">Detect LargeGate</text>
</g>
<!-- f6546e2f&#45;4717&#45;4314&#45;9683&#45;2e329648b1a3&#45;&gt;f05f9bf7&#45;88a4&#45;4a69&#45;92f5&#45;aa167b73d69a -->
<g id="edge27" class="edge">
<title>f6546e2f&#45;4717&#45;4314&#45;9683&#45;2e329648b1a3&#45;&gt;f05f9bf7&#45;88a4&#45;4a69&#45;92f5&#45;aa167b73d69a</title>
<path fill="none" stroke="black" d="M1616.67,-756.99C1647.58,-745.96 1687.77,-731.63 1718.96,-720.5"/>
<polygon fill="black" stroke="black" points="1720.5,-723.66 1728.75,-717.01 1718.15,-717.07 1720.5,-723.66"/>
</g>
<!-- 947a8758&#45;ada9&#45;4d0b&#45;90f1&#45;fbe17473c30b -->
<g id="node29" class="node">
<title>947a8758&#45;ada9&#45;4d0b&#45;90f1&#45;fbe17473c30b</title>
<ellipse fill="none" stroke="black" cx="1955" cy="-702" rx="45.2" ry="18"/>
<text text-anchor="middle" x="1955" y="-698.3" font-family="Times,serif" font-size="14.00">Detect Pole</text>
</g>
<!-- f6546e2f&#45;4717&#45;4314&#45;9683&#45;2e329648b1a3&#45;&gt;947a8758&#45;ada9&#45;4d0b&#45;90f1&#45;fbe17473c30b -->
<g id="edge28" class="edge">
<title>f6546e2f&#45;4717&#45;4314&#45;9683&#45;2e329648b1a3&#45;&gt;947a8758&#45;ada9&#45;4d0b&#45;90f1&#45;fbe17473c30b</title>
<path fill="none" stroke="black" d="M1660.23,-758.62C1720.91,-748.21 1802.33,-733.86 1874,-720 1884.48,-717.97 1895.69,-715.69 1906.34,-713.47"/>
<polygon fill="black" stroke="black" points="1907.25,-716.86 1916.32,-711.38 1905.82,-710.01 1907.25,-716.86"/>
</g>
<!-- 9a6c4990&#45;6620&#45;4d89&#45;a3b5&#45;3e4392b4896e -->
<g id="node30" class="node">
<title>9a6c4990&#45;6620&#45;4d89&#45;a3b5&#45;3e4392b4896e</title>
<polygon fill="none" stroke="black" stroke-dasharray="5,2" points="1683.5,-647 1598.5,-647 1598.5,-611 1683.5,-611 1683.5,-647"/>
<text text-anchor="middle" x="1641" y="-625.3" font-family="Times,serif" font-size="14.00" fill="darkgreen">Converge</text>
</g>
<!-- 0567af8b&#45;c8af&#45;4909&#45;9b70&#45;64c79b99bca3&#45;&gt;9a6c4990&#45;6620&#45;4d89&#45;a3b5&#45;3e4392b4896e -->
<g id="edge29" class="edge">
<title>0567af8b&#45;c8af&#45;4909&#45;9b70&#45;64c79b99bca3&#45;&gt;9a6c4990&#45;6620&#45;4d89&#45;a3b5&#45;3e4392b4896e</title>
<path fill="none" stroke="black" d="M1427.55,-690.14C1470.54,-678.03 1540.34,-658.36 1588.34,-644.84"/>
<polygon fill="black" stroke="black" points="1589.56,-648.13 1598.24,-642.05 1587.66,-641.39 1589.56,-648.13"/>
</g>
<!-- 40ad52b0&#45;6351&#45;4456&#45;b544&#45;d0e24d80e3e2&#45;&gt;9a6c4990&#45;6620&#45;4d89&#45;a3b5&#45;3e4392b4896e -->
<g id="edge30" class="edge">
<title>40ad52b0&#45;6351&#45;4456&#45;b544&#45;d0e24d80e3e2&#45;&gt;9a6c4990&#45;6620&#45;4d89&#45;a3b5&#45;3e4392b4896e</title>
<path fill="none" stroke="black" d="M1585.7,-684.53C1594.7,-675.65 1605.99,-664.52 1616.02,-654.63"/>
<polygon fill="black" stroke="black" points="1618.72,-656.88 1623.39,-647.37 1613.81,-651.9 1618.72,-656.88"/>
</g>
<!-- f05f9bf7&#45;88a4&#45;4a69&#45;92f5&#45;aa167b73d69a&#45;&gt;9a6c4990&#45;6620&#45;4d89&#45;a3b5&#45;3e4392b4896e -->
<g id="edge31" class="edge">
<title>f05f9bf7&#45;88a4&#45;4a69&#45;92f5&#45;aa167b73d69a&#45;&gt;9a6c4990&#45;6620&#45;4d89&#45;a3b5&#45;3e4392b4896e</title>
<path fill="none" stroke="black" d="M1740.13,-685.42C1722.61,-675.62 1699.73,-662.83 1680.37,-652.01"/>
<polygon fill="black" stroke="black" points="1681.91,-648.86 1671.47,-647.04 1678.49,-654.97 1681.91,-648.86"/>
</g>
<!-- 947a8758&#45;ada9&#45;4d0b&#45;90f1&#45;fbe17473c30b&#45;&gt;9a6c4990&#45;6620&#45;4d89&#45;a3b5&#45;3e4392b4896e -->
<g id="edge32" class="edge">
<title>947a8758&#45;ada9&#45;4d0b&#45;90f1&#45;fbe17473c30b&#45;&gt;9a6c4990&#45;6620&#45;4d89&#45;a3b5&#45;3e4392b4896e</title>
<path fill="none" stroke="black" d="M1916.81,-692.36C1860.88,-679.72 1756.51,-656.12 1693.43,-641.86"/>
<polygon fill="black" stroke="black" points="1694.2,-638.44 1683.68,-639.65 1692.66,-645.27 1694.2,-638.44"/>
</g>
<!-- 71f32482&#45;6c22&#45;4288&#45;a274&#45;be5d3ec41553 -->
<g id="node37" class="node">
<title>71f32482&#45;6c22&#45;4288&#45;a274&#45;be5d3ec41553</title>
<polygon fill="none" stroke="black" stroke-dasharray="5,2" points="1690,-560 1592,-560 1592,-524 1690,-524 1690,-560"/>
<text text-anchor="middle" x="1641" y="-538.3" font-family="Times,serif" font-size="14.00" fill="blue">Concurrent</text>
</g>
<!-- 9a6c4990&#45;6620&#45;4d89&#45;a3b5&#45;3e4392b4896e&#45;&gt;71f32482&#45;6c22&#45;4288&#45;a274&#45;be5d3ec41553 -->
<g id="edge43" class="edge">
<title>9a6c4990&#45;6620&#45;4d89&#45;a3b5&#45;3e4392b4896e&#45;&gt;71f32482&#45;6c22&#45;4288&#45;a274&#45;be5d3ec41553</title>
<path fill="none" stroke="purple" d="M1641,-610.8C1641,-599.16 1641,-583.55 1641,-570.24"/>
<polygon fill="purple" stroke="purple" points="1644.5,-570.18 1641,-560.18 1637.5,-570.18 1644.5,-570.18"/>
<text text-anchor="middle" x="1676.5" y="-581.8" font-family="Times,serif" font-size="14.00" fill="purple">Pass Data</text>
</g>
<!-- 1b241c51&#45;39e4&#45;47e4&#45;8009&#45;53b9e6eddf95 -->
<g id="node31" class="node">
<title>1b241c51&#45;39e4&#45;47e4&#45;8009&#45;53b9e6eddf95</title>
<ellipse fill="none" stroke="black" cx="1609" cy="-121" rx="67.81" ry="18"/>
<text text-anchor="middle" x="1609" y="-117.3" font-family="Times,serif" font-size="14.00">LinearYawFromX</text>
</g>
<!-- 75a69796&#45;61f0&#45;4b64&#45;9f23&#45;daac9f26a24e -->
<g id="node32" class="node">
<title>75a69796&#45;61f0&#45;4b64&#45;9f23&#45;daac9f26a24e</title>
<ellipse fill="none" stroke="black" cx="1609" cy="-34" rx="80.11" ry="18"/>
<text text-anchor="middle" x="1609" y="-30.3" font-family="Times,serif" font-size="14.00">Stability2Movement</text>
</g>
<!-- 1b241c51&#45;39e4&#45;47e4&#45;8009&#45;53b9e6eddf95&#45;&gt;75a69796&#45;61f0&#45;4b64&#45;9f23&#45;daac9f26a24e -->
<g id="edge33" class="edge">
<title>1b241c51&#45;39e4&#45;47e4&#45;8009&#45;53b9e6eddf95&#45;&gt;75a69796&#45;61f0&#45;4b64&#45;9f23&#45;daac9f26a24e</title>
<path fill="none" stroke="purple" d="M1609,-102.8C1609,-91.16 1609,-75.55 1609,-62.24"/>
<polygon fill="purple" stroke="purple" points="1612.5,-62.18 1609,-52.18 1605.5,-62.18 1612.5,-62.18"/>
<text text-anchor="middle" x="1644.5" y="-73.8" font-family="Times,serif" font-size="14.00" fill="purple">Pass Data</text>
</g>
<!-- a943d7d0&#45;f7cc&#45;475e&#45;aefe&#45;25ca8d59214c -->
<g id="node33" class="node">
<title>a943d7d0&#45;f7cc&#45;475e&#45;aefe&#45;25ca8d59214c</title>
<ellipse fill="none" stroke="black" cx="1609" cy="-208" rx="51.3" ry="18"/>
<text text-anchor="middle" x="1609" y="-204.3" font-family="Times,serif" font-size="14.00">OffsetToPose</text>
</g>
<!-- a943d7d0&#45;f7cc&#45;475e&#45;aefe&#45;25ca8d59214c&#45;&gt;1b241c51&#45;39e4&#45;47e4&#45;8009&#45;53b9e6eddf95 -->
<g id="edge34" class="edge">
<title>a943d7d0&#45;f7cc&#45;475e&#45;aefe&#45;25ca8d59214c&#45;&gt;1b241c51&#45;39e4&#45;47e4&#45;8009&#45;53b9e6eddf95</title>
<path fill="none" stroke="purple" d="M1609,-189.8C1609,-178.16 1609,-162.55 1609,-149.24"/>
<polygon fill="purple" stroke="purple" points="1612.5,-149.18 1609,-139.18 1605.5,-149.18 1612.5,-149.18"/>
<text text-anchor="middle" x="1644.5" y="-160.8" font-family="Times,serif" font-size="14.00" fill="purple">Pass Data</text>
</g>
<!-- 34e4d499&#45;e26e&#45;4c91&#45;91e6&#45;28ef346a7b1b -->
<g id="node34" class="node">
<title>34e4d499&#45;e26e&#45;4c91&#45;91e6&#45;28ef346a7b1b</title>
<ellipse fill="none" stroke="black" cx="1609" cy="-295" rx="32.4" ry="18"/>
<text text-anchor="middle" x="1609" y="-291.3" font-family="Times,serif" font-size="14.00">Average</text>
</g>
<!-- 34e4d499&#45;e26e&#45;4c91&#45;91e6&#45;28ef346a7b1b&#45;&gt;a943d7d0&#45;f7cc&#45;475e&#45;aefe&#45;25ca8d59214c -->
<g id="edge35" class="edge">
<title>34e4d499&#45;e26e&#45;4c91&#45;91e6&#45;28ef346a7b1b&#45;&gt;a943d7d0&#45;f7cc&#45;475e&#45;aefe&#45;25ca8d59214c</title>
<path fill="none" stroke="purple" d="M1609,-276.8C1609,-265.16 1609,-249.55 1609,-236.24"/>
<polygon fill="purple" stroke="purple" points="1612.5,-236.18 1609,-226.18 1605.5,-236.18 1612.5,-236.18"/>
<text text-anchor="middle" x="1644.5" y="-247.8" font-family="Times,serif" font-size="14.00" fill="purple">Pass Data</text>
</g>
<!-- 878ef524&#45;66fa&#45;4140&#45;afe8&#45;b9f7e00b2073 -->
<g id="node35" class="node">
<title>878ef524&#45;66fa&#45;4140&#45;afe8&#45;b9f7e00b2073</title>
<ellipse fill="none" stroke="black" cx="1609" cy="-382" rx="61.1" ry="18"/>
<text text-anchor="middle" x="1609" y="-378.3" font-family="Times,serif" font-size="14.00">ExtractPosition</text>
</g>
<!-- 878ef524&#45;66fa&#45;4140&#45;afe8&#45;b9f7e00b2073&#45;&gt;34e4d499&#45;e26e&#45;4c91&#45;91e6&#45;28ef346a7b1b -->
<g id="edge36" class="edge">
<title>878ef524&#45;66fa&#45;4140&#45;afe8&#45;b9f7e00b2073&#45;&gt;34e4d499&#45;e26e&#45;4c91&#45;91e6&#45;28ef346a7b1b</title>
<path fill="none" stroke="purple" d="M1609,-363.8C1609,-352.16 1609,-336.55 1609,-323.24"/>
<polygon fill="purple" stroke="purple" points="1612.5,-323.18 1609,-313.18 1605.5,-323.18 1612.5,-323.18"/>
<text text-anchor="middle" x="1644.5" y="-334.8" font-family="Times,serif" font-size="14.00" fill="purple">Pass Data</text>
</g>
<!-- f6474675&#45;8b2a&#45;4710&#45;8ade&#45;f4168ebac599 -->
<g id="node36" class="node">
<title>f6474675&#45;8b2a&#45;4710&#45;8ade&#45;f4168ebac599</title>
<ellipse fill="none" stroke="black" cx="1699" cy="-469" rx="27" ry="18"/>
<text text-anchor="middle" x="1699" y="-465.3" font-family="Times,serif" font-size="14.00">ToVec</text>
</g>
<!-- f6474675&#45;8b2a&#45;4710&#45;8ade&#45;f4168ebac599&#45;&gt;878ef524&#45;66fa&#45;4140&#45;afe8&#45;b9f7e00b2073 -->
<g id="edge37" class="edge">
<title>f6474675&#45;8b2a&#45;4710&#45;8ade&#45;f4168ebac599&#45;&gt;878ef524&#45;66fa&#45;4140&#45;afe8&#45;b9f7e00b2073</title>
<path fill="none" stroke="purple" d="M1677.25,-457.94C1665.61,-451.84 1651.53,-443.26 1641,-433 1633.84,-426.03 1627.52,-417.17 1622.42,-408.85"/>
<polygon fill="purple" stroke="purple" points="1625.43,-407.05 1617.39,-400.15 1619.37,-410.56 1625.43,-407.05"/>
<text text-anchor="middle" x="1676.5" y="-421.8" font-family="Times,serif" font-size="14.00" fill="purple">Pass Data</text>
</g>
<!-- 71f32482&#45;6c22&#45;4288&#45;a274&#45;be5d3ec41553&#45;&gt;81d15aae&#45;3b51&#45;4b63&#45;80e8&#45;0b20183933a0 -->
<g id="edge39" class="edge">
<title>71f32482&#45;6c22&#45;4288&#45;a274&#45;be5d3ec41553&#45;&gt;81d15aae&#45;3b51&#45;4b63&#45;80e8&#45;0b20183933a0</title>
<path fill="none" stroke="black" d="M1599.8,-523.99C1572.54,-512.74 1536.94,-498.05 1509.77,-486.83"/>
<polygon fill="black" stroke="black" points="1510.75,-483.45 1500.17,-482.87 1508.08,-489.92 1510.75,-483.45"/>
</g>
<!-- 71f32482&#45;6c22&#45;4288&#45;a274&#45;be5d3ec41553&#45;&gt;f6474675&#45;8b2a&#45;4710&#45;8ade&#45;f4168ebac599 -->
<g id="edge38" class="edge">
<title>71f32482&#45;6c22&#45;4288&#45;a274&#45;be5d3ec41553&#45;&gt;f6474675&#45;8b2a&#45;4710&#45;8ade&#45;f4168ebac599</title>
<path fill="none" stroke="black" d="M1655.04,-523.81C1662.58,-514.58 1671.99,-503.07 1680.16,-493.07"/>
<polygon fill="black" stroke="black" points="1683.05,-495.06 1686.66,-485.1 1677.63,-490.63 1683.05,-495.06"/>
</g>
<!-- d499b3cd&#45;7048&#45;4a95&#45;9410&#45;3581c6f597d5&#45;&gt;c1b6bbb8&#45;9f39&#45;40de&#45;81fe&#45;0f2d9bf394f1 -->
<g id="edge41" class="edge">
<title>d499b3cd&#45;7048&#45;4a95&#45;9410&#45;3581c6f597d5&#45;&gt;c1b6bbb8&#45;9f39&#45;40de&#45;81fe&#45;0f2d9bf394f1</title>
<path fill="none" stroke="purple" d="M349,-400.26C349,-417.43 349,-444.54 349,-468 349,-703 349,-703 349,-703 349,-752.26 487.5,-767.56 587.7,-772.19"/>
<polygon fill="purple" stroke="purple" points="587.74,-775.69 597.89,-772.63 588.05,-768.7 587.74,-775.69"/>
<text text-anchor="middle" x="384.5" y="-581.8" font-family="Times,serif" font-size="14.00" fill="purple">Pass Data</text>
</g>
<!-- a570766e&#45;e284&#45;4afc&#45;8ba9&#45;5d4ca317dc12&#45;&gt;f6546e2f&#45;4717&#45;4314&#45;9683&#45;2e329648b1a3 -->
<g id="edge44" class="edge">
<title>a570766e&#45;e284&#45;4afc&#45;8ba9&#45;5d4ca317dc12&#45;&gt;f6546e2f&#45;4717&#45;4314&#45;9683&#45;2e329648b1a3</title>
<path fill="none" stroke="purple" d="M1229,-400.26C1229,-417.43 1229,-444.54 1229,-468 1229,-703 1229,-703 1229,-703 1229,-752.26 1367.5,-767.56 1467.7,-772.19"/>
<polygon fill="purple" stroke="purple" points="1467.74,-775.69 1477.89,-772.63 1468.05,-768.7 1467.74,-775.69"/>
<text text-anchor="middle" x="1264.5" y="-581.8" font-family="Times,serif" font-size="14.00" fill="purple">Pass Data</text>
</g>
</g>
</svg>
