<?xml version="1.0" encoding="UTF-8" standalone="no"?>
<!DOCTYPE svg PUBLIC "-//W3C//DTD SVG 1.1//EN"
 "http://www.w3.org/Graphics/SVG/1.1/DTD/svg11.dtd">
<!-- Generated by graphviz version 2.43.0 (0)
 -->
<!-- Title: G Pages: 1 -->
<svg width="2024pt" height="1158pt"
 viewBox="0.00 0.00 2024.00 1158.00" xmlns="http://www.w3.org/2000/svg" xmlns:xlink="http://www.w3.org/1999/xlink">
<g id="graph0" class="graph" transform="scale(1 1) rotate(0) translate(4 1154)">
<title>G</title>
<polygon fill="transparent" stroke="transparent" points="-4,4 -4,-1154 2020,-1154 2020,4 -4,4"/>
<g id="clust1" class="cluster">
<title>cluster_7614a78e&#45;c873&#45;4c93&#45;9dce&#45;b59481c5f9e1</title>
<polygon fill="transparent" stroke="blue" stroke-dasharray="5,2" points="8,-530 8,-1142 248,-1142 248,-530 8,-530"/>
</g>
<g id="clust2" class="cluster">
<title>cluster_9c0a9fdd&#45;3ef9&#45;404e&#45;9042&#45;9ce6cd773a44</title>
<polygon fill="transparent" stroke="darkgreen" stroke-dasharray="5,2" points="450,-690 450,-888 1128,-888 1128,-690 450,-690"/>
</g>
<g id="clust3" class="cluster">
<title>cluster_c2324c3e&#45;52c4&#45;458b&#45;be7f&#45;5e3ab6e6bb1e</title>
<polygon fill="transparent" stroke="blue" stroke-dasharray="5,2" points="562,-8 562,-655 946,-655 946,-8 562,-8"/>
</g>
<g id="clust4" class="cluster">
<title>cluster_c1f63409&#45;74f5&#45;4b3e&#45;b9a0&#45;fcbf3276f560</title>
<polygon fill="transparent" stroke="darkgreen" stroke-dasharray="5,2" points="1330,-690 1330,-888 2008,-888 2008,-690 1330,-690"/>
</g>
<g id="clust5" class="cluster">
<title>cluster_62c99ddc&#45;cae3&#45;4f81&#45;898b&#45;253b95e1658a</title>
<polygon fill="transparent" stroke="blue" stroke-dasharray="5,2" points="1330,-8 1330,-655 1734,-655 1734,-8 1330,-8"/>
</g>
<!-- 92fc769c&#45;3ed6&#45;4fb2&#45;a07d&#45;91e4795e489c -->
<g id="node1" class="node">
<title>92fc769c&#45;3ed6&#45;4fb2&#45;a07d&#45;91e4795e489c</title>
<polygon fill="none" stroke="black" points="691,-574 570.37,-556 691,-538 811.63,-556 691,-574"/>
<text text-anchor="middle" x="691" y="-552.3" font-family="Times,serif" font-size="14.00">Consecutive True &lt; 3</text>
</g>
<!-- d825342e&#45;652b&#45;4def&#45;b4b7&#45;a8f82564f3db -->
<g id="node40" class="node">
<title>d825342e&#45;652b&#45;4def&#45;b4b7&#45;a8f82564f3db</title>
<ellipse fill="none" stroke="black" cx="349" cy="-469" rx="46.5" ry="18"/>
<text text-anchor="middle" x="349" y="-465.3" font-family="Times,serif" font-size="14.00">VisionNorm</text>
</g>
<!-- 92fc769c&#45;3ed6&#45;4fb2&#45;a07d&#45;91e4795e489c&#45;&gt;d825342e&#45;652b&#45;4def&#45;b4b7&#45;a8f82564f3db -->
<g id="edge44" class="edge">
<title>92fc769c&#45;3ed6&#45;4fb2&#45;a07d&#45;91e4795e489c&#45;&gt;d825342e&#45;652b&#45;4def&#45;b4b7&#45;a8f82564f3db</title>
<path fill="none" stroke="black" d="M648.03,-544.32C583.96,-528.4 463.76,-498.52 396.92,-481.91"/>
<polygon fill="black" stroke="black" points="397.61,-478.48 387.07,-479.46 395.93,-485.27 397.61,-478.48"/>
<text text-anchor="middle" x="558" y="-508.8" font-family="Times,serif" font-size="14.00">True</text>
</g>
<!-- 13d2fb5e&#45;892e&#45;4dbd&#45;81b0&#45;381a198cd71f -->
<g id="node41" class="node">
<title>13d2fb5e&#45;892e&#45;4dbd&#45;81b0&#45;381a198cd71f</title>
<ellipse fill="none" stroke="black" cx="1229" cy="-469" rx="46.5" ry="18"/>
<text text-anchor="middle" x="1229" y="-465.3" font-family="Times,serif" font-size="14.00">VisionNorm</text>
</g>
<!-- 92fc769c&#45;3ed6&#45;4fb2&#45;a07d&#45;91e4795e489c&#45;&gt;13d2fb5e&#45;892e&#45;4dbd&#45;81b0&#45;381a198cd71f -->
<g id="edge49" class="edge">
<title>92fc769c&#45;3ed6&#45;4fb2&#45;a07d&#45;91e4795e489c&#45;&gt;13d2fb5e&#45;892e&#45;4dbd&#45;81b0&#45;381a198cd71f</title>
<path fill="none" stroke="black" d="M742.83,-545.66C773.36,-540.43 812.78,-534.15 848,-530 905.55,-523.22 920.59,-527.9 978,-520 1048.83,-510.26 1129.79,-493.01 1180.16,-481.54"/>
<polygon fill="black" stroke="black" points="1181.15,-484.9 1190.12,-479.25 1179.59,-478.08 1181.15,-484.9"/>
<text text-anchor="middle" x="1080" y="-508.8" font-family="Times,serif" font-size="14.00">False</text>
</g>
<!-- f041a380&#45;5aa7&#45;4d79&#45;b0b8&#45;2fd8f62bfe8c -->
<g id="node2" class="node">
<title>f041a380&#45;5aa7&#45;4d79&#45;b0b8&#45;2fd8f62bfe8c</title>
<polygon fill="none" stroke="black" points="1469,-574 1337.59,-556 1469,-538 1600.41,-556 1469,-574"/>
<text text-anchor="middle" x="1469" y="-552.3" font-family="Times,serif" font-size="14.00">Consecutive False &lt; 10</text>
</g>
<!-- f041a380&#45;5aa7&#45;4d79&#45;b0b8&#45;2fd8f62bfe8c&#45;&gt;13d2fb5e&#45;892e&#45;4dbd&#45;81b0&#45;381a198cd71f -->
<g id="edge47" class="edge">
<title>f041a380&#45;5aa7&#45;4d79&#45;b0b8&#45;2fd8f62bfe8c&#45;&gt;13d2fb5e&#45;892e&#45;4dbd&#45;81b0&#45;381a198cd71f</title>
<path fill="none" stroke="black" d="M1434.36,-542.73C1391.34,-527.49 1317.96,-501.51 1271.56,-485.07"/>
<polygon fill="black" stroke="black" points="1272.68,-481.76 1262.09,-481.72 1270.34,-488.36 1272.68,-481.76"/>
<text text-anchor="middle" x="1380" y="-508.8" font-family="Times,serif" font-size="14.00">True</text>
</g>
<!-- 7e00a81f&#45;3aa3&#45;4b73&#45;9252&#45;2b3fc52f6f1f -->
<g id="node42" class="node">
<title>7e00a81f&#45;3aa3&#45;4b73&#45;9252&#45;2b3fc52f6f1f</title>
<ellipse fill="none" stroke="black" cx="1802" cy="-469" rx="59.9" ry="18"/>
<text text-anchor="middle" x="1802" y="-465.3" font-family="Times,serif" font-size="14.00">ZeroMovement</text>
</g>
<!-- f041a380&#45;5aa7&#45;4d79&#45;b0b8&#45;2fd8f62bfe8c&#45;&gt;7e00a81f&#45;3aa3&#45;4b73&#45;9252&#45;2b3fc52f6f1f -->
<g id="edge48" class="edge">
<title>f041a380&#45;5aa7&#45;4d79&#45;b0b8&#45;2fd8f62bfe8c&#45;&gt;7e00a81f&#45;3aa3&#45;4b73&#45;9252&#45;2b3fc52f6f1f</title>
<path fill="none" stroke="black" d="M1526.5,-545.84C1558.67,-540.86 1599.52,-534.76 1636,-530 1675.91,-524.8 1688.14,-533.66 1726,-520 1743.59,-513.65 1761.17,-502.48 1774.99,-492.3"/>
<polygon fill="black" stroke="black" points="1777.23,-494.99 1783.07,-486.14 1772.99,-489.42 1777.23,-494.99"/>
<text text-anchor="middle" x="1773" y="-508.8" font-family="Times,serif" font-size="14.00">False</text>
</g>
<!-- 6af13b87&#45;a1ca&#45;454a&#45;8767&#45;852ce782284d -->
<g id="node3" class="node">
<title>6af13b87&#45;a1ca&#45;454a&#45;8767&#45;852ce782284d</title>
<ellipse fill="none" stroke="black" cx="88" cy="-935" rx="33.6" ry="18"/>
<text text-anchor="middle" x="88" y="-931.3" font-family="Times,serif" font-size="14.00">Descend</text>
</g>
<!-- 9a6a5400&#45;65cc&#45;4024&#45;bfab&#45;1f1c69084c4f -->
<g id="node4" class="node">
<title>9a6a5400&#45;65cc&#45;4024&#45;bfab&#45;1f1c69084c4f</title>
<ellipse fill="none" stroke="black" cx="88" cy="-862" rx="47.1" ry="18"/>
<text text-anchor="middle" x="88" y="-858.3" font-family="Times,serif" font-size="14.00">DelayAction</text>
</g>
<!-- 6af13b87&#45;a1ca&#45;454a&#45;8767&#45;852ce782284d&#45;&gt;9a6a5400&#45;65cc&#45;4024&#45;bfab&#45;1f1c69084c4f -->
<g id="edge1" class="edge">
<title>6af13b87&#45;a1ca&#45;454a&#45;8767&#45;852ce782284d&#45;&gt;9a6a5400&#45;65cc&#45;4024&#45;bfab&#45;1f1c69084c4f</title>
<path fill="none" stroke="black" d="M88,-916.81C88,-908.79 88,-899.05 88,-890.07"/>
<polygon fill="black" stroke="black" points="91.5,-890.03 88,-880.03 84.5,-890.03 91.5,-890.03"/>
</g>
<!-- 88838608&#45;0cd4&#45;4ce7&#45;81bf&#45;e6aaa9024d2c -->
<g id="node5" class="node">
<title>88838608&#45;0cd4&#45;4ce7&#45;81bf&#45;e6aaa9024d2c</title>
<ellipse fill="none" stroke="black" cx="91" cy="-789" rx="74.61" ry="18"/>
<text text-anchor="middle" x="91" y="-785.3" font-family="Times,serif" font-size="14.00">StraightMovement</text>
</g>
<!-- 9a6a5400&#45;65cc&#45;4024&#45;bfab&#45;1f1c69084c4f&#45;&gt;88838608&#45;0cd4&#45;4ce7&#45;81bf&#45;e6aaa9024d2c -->
<g id="edge4" class="edge">
<title>9a6a5400&#45;65cc&#45;4024&#45;bfab&#45;1f1c69084c4f&#45;&gt;88838608&#45;0cd4&#45;4ce7&#45;81bf&#45;e6aaa9024d2c</title>
<path fill="none" stroke="black" d="M88.73,-843.81C89.07,-835.79 89.48,-826.05 89.86,-817.07"/>
<polygon fill="black" stroke="black" points="93.36,-817.17 90.28,-807.03 86.36,-816.87 93.36,-817.17"/>
</g>
<!-- 70e01f6d&#45;0b03&#45;4612&#45;97f3&#45;8267ee59605e -->
<g id="node6" class="node">
<title>70e01f6d&#45;0b03&#45;4612&#45;97f3&#45;8267ee59605e</title>
<ellipse fill="none" stroke="black" cx="99" cy="-716" rx="47.1" ry="18"/>
<text text-anchor="middle" x="99" y="-712.3" font-family="Times,serif" font-size="14.00">DelayAction</text>
</g>
<!-- 88838608&#45;0cd4&#45;4ce7&#45;81bf&#45;e6aaa9024d2c&#45;&gt;70e01f6d&#45;0b03&#45;4612&#45;97f3&#45;8267ee59605e -->
<g id="edge2" class="edge">
<title>88838608&#45;0cd4&#45;4ce7&#45;81bf&#45;e6aaa9024d2c&#45;&gt;70e01f6d&#45;0b03&#45;4612&#45;97f3&#45;8267ee59605e</title>
<path fill="none" stroke="black" d="M92.94,-770.81C93.84,-762.79 94.94,-753.05 95.95,-744.07"/>
<polygon fill="black" stroke="black" points="99.44,-744.36 97.08,-734.03 92.48,-743.57 99.44,-744.36"/>
</g>
<!-- 7d278eff&#45;8301&#45;406d&#45;9630&#45;601e8558395d -->
<g id="node7" class="node">
<title>7d278eff&#45;8301&#45;406d&#45;9630&#45;601e8558395d</title>
<ellipse fill="none" stroke="black" cx="104" cy="-629" rx="59.9" ry="18"/>
<text text-anchor="middle" x="104" y="-625.3" font-family="Times,serif" font-size="14.00">ZeroMovement</text>
</g>
<!-- 70e01f6d&#45;0b03&#45;4612&#45;97f3&#45;8267ee59605e&#45;&gt;7d278eff&#45;8301&#45;406d&#45;9630&#45;601e8558395d -->
<g id="edge3" class="edge">
<title>70e01f6d&#45;0b03&#45;4612&#45;97f3&#45;8267ee59605e&#45;&gt;7d278eff&#45;8301&#45;406d&#45;9630&#45;601e8558395d</title>
<path fill="none" stroke="black" d="M100.01,-697.8C100.7,-686.16 101.61,-670.55 102.4,-657.24"/>
<polygon fill="black" stroke="black" points="105.9,-657.36 102.99,-647.18 98.91,-656.95 105.9,-657.36"/>
</g>
<!-- 4d7173af&#45;c2b2&#45;4ec0&#45;a5e8&#45;59e0da2c8cb0 -->
<g id="node11" class="node">
<title>4d7173af&#45;c2b2&#45;4ec0&#45;a5e8&#45;59e0da2c8cb0</title>
<polygon fill="none" stroke="black" stroke-dasharray="5,2" points="239.5,-574 154.5,-574 154.5,-538 239.5,-538 239.5,-574"/>
<text text-anchor="middle" x="197" y="-552.3" font-family="Times,serif" font-size="14.00" fill="blue">Converge</text>
</g>
<!-- 7d278eff&#45;8301&#45;406d&#45;9630&#45;601e8558395d&#45;&gt;4d7173af&#45;c2b2&#45;4ec0&#45;a5e8&#45;59e0da2c8cb0 -->
<g id="edge8" class="edge">
<title>7d278eff&#45;8301&#45;406d&#45;9630&#45;601e8558395d&#45;&gt;4d7173af&#45;c2b2&#45;4ec0&#45;a5e8&#45;59e0da2c8cb0</title>
<path fill="none" stroke="black" d="M125.1,-611.89C137.35,-602.54 152.99,-590.6 166.56,-580.24"/>
<polygon fill="black" stroke="black" points="168.86,-582.89 174.68,-574.04 164.61,-577.32 168.86,-582.89"/>
</g>
<!-- d8e1851f&#45;b234&#45;4659&#45;af85&#45;62acf88c7b51 -->
<g id="node8" class="node">
<title>d8e1851f&#45;b234&#45;4659&#45;af85&#45;62acf88c7b51</title>
<ellipse fill="none" stroke="black" cx="82" cy="-1043" rx="34.8" ry="18"/>
<text text-anchor="middle" x="82" y="-1039.3" font-family="Times,serif" font-size="14.00">WaitArm</text>
</g>
<!-- d8e1851f&#45;b234&#45;4659&#45;af85&#45;62acf88c7b51&#45;&gt;6af13b87&#45;a1ca&#45;454a&#45;8767&#45;852ce782284d -->
<g id="edge5" class="edge">
<title>d8e1851f&#45;b234&#45;4659&#45;af85&#45;62acf88c7b51&#45;&gt;6af13b87&#45;a1ca&#45;454a&#45;8767&#45;852ce782284d</title>
<path fill="none" stroke="black" d="M82.96,-1024.97C83.9,-1008.38 85.35,-982.88 86.45,-963.43"/>
<polygon fill="black" stroke="black" points="89.95,-963.52 87.02,-953.34 82.96,-963.13 89.95,-963.52"/>
</g>
<!-- d8ff60f7&#45;d276&#45;4796&#45;aa29&#45;e05226ad8f17 -->
<g id="node9" class="node">
<title>d8ff60f7&#45;d276&#45;4796&#45;aa29&#45;e05226ad8f17</title>
<polygon fill="none" stroke="black" stroke-dasharray="5,2" points="210,-1134 112,-1134 112,-1098 210,-1098 210,-1134"/>
<text text-anchor="middle" x="161" y="-1112.3" font-family="Times,serif" font-size="14.00" fill="blue">Concurrent</text>
</g>
<!-- d8ff60f7&#45;d276&#45;4796&#45;aa29&#45;e05226ad8f17&#45;&gt;d8e1851f&#45;b234&#45;4659&#45;af85&#45;62acf88c7b51 -->
<g id="edge6" class="edge">
<title>d8ff60f7&#45;d276&#45;4796&#45;aa29&#45;e05226ad8f17&#45;&gt;d8e1851f&#45;b234&#45;4659&#45;af85&#45;62acf88c7b51</title>
<path fill="none" stroke="black" d="M141.88,-1097.81C131.12,-1088.14 117.58,-1075.98 106.1,-1065.66"/>
<polygon fill="black" stroke="black" points="108.32,-1062.95 98.54,-1058.87 103.64,-1068.15 108.32,-1062.95"/>
</g>
<!-- 970a2c13&#45;0aef&#45;4939&#45;bb93&#45;0e19533d692e -->
<g id="node10" class="node">
<title>970a2c13&#45;0aef&#45;4939&#45;bb93&#45;0e19533d692e</title>
<ellipse fill="none" stroke="black" cx="189" cy="-989" rx="50.7" ry="18"/>
<text text-anchor="middle" x="189" y="-985.3" font-family="Times,serif" font-size="14.00">StartBno055</text>
</g>
<!-- d8ff60f7&#45;d276&#45;4796&#45;aa29&#45;e05226ad8f17&#45;&gt;970a2c13&#45;0aef&#45;4939&#45;bb93&#45;0e19533d692e -->
<g id="edge7" class="edge">
<title>d8ff60f7&#45;d276&#45;4796&#45;aa29&#45;e05226ad8f17&#45;&gt;970a2c13&#45;0aef&#45;4939&#45;bb93&#45;0e19533d692e</title>
<path fill="none" stroke="black" d="M164.83,-1097.88C169.5,-1077.05 177.43,-1041.64 182.93,-1017.09"/>
<polygon fill="black" stroke="black" points="186.35,-1017.84 185.12,-1007.31 179.52,-1016.31 186.35,-1017.84"/>
</g>
<!-- 970a2c13&#45;0aef&#45;4939&#45;bb93&#45;0e19533d692e&#45;&gt;4d7173af&#45;c2b2&#45;4ec0&#45;a5e8&#45;59e0da2c8cb0 -->
<g id="edge9" class="edge">
<title>970a2c13&#45;0aef&#45;4939&#45;bb93&#45;0e19533d692e&#45;&gt;4d7173af&#45;c2b2&#45;4ec0&#45;a5e8&#45;59e0da2c8cb0</title>
<path fill="none" stroke="black" d="M204.82,-971.8C219.47,-955.03 239,-927.36 239,-899 239,-899 239,-899 239,-628 239,-611.08 230.06,-594.66 220.43,-581.88"/>
<polygon fill="black" stroke="black" points="223.09,-579.61 214.08,-574.04 217.65,-584.01 223.09,-579.61"/>
</g>
<!-- 4d7173af&#45;c2b2&#45;4ec0&#45;a5e8&#45;59e0da2c8cb0&#45;&gt;d825342e&#45;652b&#45;4def&#45;b4b7&#45;a8f82564f3db -->
<g id="edge50" class="edge">
<title>4d7173af&#45;c2b2&#45;4ec0&#45;a5e8&#45;59e0da2c8cb0&#45;&gt;d825342e&#45;652b&#45;4def&#45;b4b7&#45;a8f82564f3db</title>
<path fill="none" stroke="black" d="M227.76,-537.8C252.9,-523.74 288.43,-503.87 314.53,-489.28"/>
<polygon fill="black" stroke="black" points="316.31,-492.29 323.33,-484.35 312.9,-486.18 316.31,-492.29"/>
</g>
<!-- 7fa7c762&#45;0430&#45;4a9e&#45;9fdd&#45;f3efe31b4b0d -->
<g id="node12" class="node">
<title>7fa7c762&#45;0430&#45;4a9e&#45;9fdd&#45;f3efe31b4b0d</title>
<polygon fill="none" stroke="black" stroke-dasharray="5,2" points="780,-880 598,-880 598,-844 780,-844 780,-880"/>
<text text-anchor="middle" x="689" y="-858.3" font-family="Times,serif" font-size="14.00" fill="darkgreen">FirstValid (Concurrent)</text>
</g>
<!-- 42a26bbb&#45;025e&#45;47c2&#45;a248&#45;c16d6701ef6a -->
<g id="node13" class="node">
<title>42a26bbb&#45;025e&#45;47c2&#45;a248&#45;c16d6701ef6a</title>
<ellipse fill="none" stroke="black" cx="509" cy="-789" rx="51.3" ry="18"/>
<text text-anchor="middle" x="509" y="-785.3" font-family="Times,serif" font-size="14.00">Detect Earth</text>
</g>
<!-- 7fa7c762&#45;0430&#45;4a9e&#45;9fdd&#45;f3efe31b4b0d&#45;&gt;42a26bbb&#45;025e&#45;47c2&#45;a248&#45;c16d6701ef6a -->
<g id="edge10" class="edge">
<title>7fa7c762&#45;0430&#45;4a9e&#45;9fdd&#45;f3efe31b4b0d&#45;&gt;42a26bbb&#45;025e&#45;47c2&#45;a248&#45;c16d6701ef6a</title>
<path fill="none" stroke="black" d="M645.89,-843.99C617.23,-832.69 579.78,-817.92 551.29,-806.68"/>
<polygon fill="black" stroke="black" points="552.21,-803.28 541.62,-802.87 549.64,-809.79 552.21,-803.28"/>
</g>
<!-- 0a93e01f&#45;fb2c&#45;4b0a&#45;be67&#45;d4d0e2d54160 -->
<g id="node14" class="node">
<title>0a93e01f&#45;fb2c&#45;4b0a&#45;be67&#45;d4d0e2d54160</title>
<ellipse fill="none" stroke="black" cx="689" cy="-789" rx="57.4" ry="18"/>
<text text-anchor="middle" x="689" y="-785.3" font-family="Times,serif" font-size="14.00">Detect Abydos</text>
</g>
<!-- 7fa7c762&#45;0430&#45;4a9e&#45;9fdd&#45;f3efe31b4b0d&#45;&gt;0a93e01f&#45;fb2c&#45;4b0a&#45;be67&#45;d4d0e2d54160 -->
<g id="edge11" class="edge">
<title>7fa7c762&#45;0430&#45;4a9e&#45;9fdd&#45;f3efe31b4b0d&#45;&gt;0a93e01f&#45;fb2c&#45;4b0a&#45;be67&#45;d4d0e2d54160</title>
<path fill="none" stroke="black" d="M689,-843.81C689,-835.79 689,-826.05 689,-817.07"/>
<polygon fill="black" stroke="black" points="692.5,-817.03 689,-807.03 685.5,-817.03 692.5,-817.03"/>
</g>
<!-- 722b33ae&#45;3cdb&#45;442f&#45;85e2&#45;24c428f32b5d -->
<g id="node15" class="node">
<title>722b33ae&#45;3cdb&#45;442f&#45;85e2&#45;24c428f32b5d</title>
<ellipse fill="none" stroke="black" cx="888" cy="-789" rx="69.71" ry="18"/>
<text text-anchor="middle" x="888" y="-785.3" font-family="Times,serif" font-size="14.00">Detect LargeGate</text>
</g>
<!-- 7fa7c762&#45;0430&#45;4a9e&#45;9fdd&#45;f3efe31b4b0d&#45;&gt;722b33ae&#45;3cdb&#45;442f&#45;85e2&#45;24c428f32b5d -->
<g id="edge12" class="edge">
<title>7fa7c762&#45;0430&#45;4a9e&#45;9fdd&#45;f3efe31b4b0d&#45;&gt;722b33ae&#45;3cdb&#45;442f&#45;85e2&#45;24c428f32b5d</title>
<path fill="none" stroke="black" d="M736.67,-843.99C767.58,-832.96 807.77,-818.63 838.96,-807.5"/>
<polygon fill="black" stroke="black" points="840.5,-810.66 848.75,-804.01 838.15,-804.07 840.5,-810.66"/>
</g>
<!-- 7030e2f1&#45;7bb2&#45;403b&#45;8cc3&#45;a0b141364a67 -->
<g id="node16" class="node">
<title>7030e2f1&#45;7bb2&#45;403b&#45;8cc3&#45;a0b141364a67</title>
<ellipse fill="none" stroke="black" cx="1075" cy="-789" rx="45.2" ry="18"/>
<text text-anchor="middle" x="1075" y="-785.3" font-family="Times,serif" font-size="14.00">Detect Pole</text>
</g>
<!-- 7fa7c762&#45;0430&#45;4a9e&#45;9fdd&#45;f3efe31b4b0d&#45;&gt;7030e2f1&#45;7bb2&#45;403b&#45;8cc3&#45;a0b141364a67 -->
<g id="edge13" class="edge">
<title>7fa7c762&#45;0430&#45;4a9e&#45;9fdd&#45;f3efe31b4b0d&#45;&gt;7030e2f1&#45;7bb2&#45;403b&#45;8cc3&#45;a0b141364a67</title>
<path fill="none" stroke="black" d="M780.23,-845.62C840.91,-835.21 922.33,-820.86 994,-807 1004.48,-804.97 1015.69,-802.69 1026.34,-800.47"/>
<polygon fill="black" stroke="black" points="1027.25,-803.86 1036.32,-798.38 1025.82,-797.01 1027.25,-803.86"/>
</g>
<!-- aa4f2ad8&#45;19b2&#45;4395&#45;ae63&#45;3803bea8dd97 -->
<g id="node17" class="node">
<title>aa4f2ad8&#45;19b2&#45;4395&#45;ae63&#45;3803bea8dd97</title>
<polygon fill="none" stroke="black" stroke-dasharray="5,2" points="827.5,-734 742.5,-734 742.5,-698 827.5,-698 827.5,-734"/>
<text text-anchor="middle" x="785" y="-712.3" font-family="Times,serif" font-size="14.00" fill="darkgreen">Converge</text>
</g>
<!-- 42a26bbb&#45;025e&#45;47c2&#45;a248&#45;c16d6701ef6a&#45;&gt;aa4f2ad8&#45;19b2&#45;4395&#45;ae63&#45;3803bea8dd97 -->
<g id="edge14" class="edge">
<title>42a26bbb&#45;025e&#45;47c2&#45;a248&#45;c16d6701ef6a&#45;&gt;aa4f2ad8&#45;19b2&#45;4395&#45;ae63&#45;3803bea8dd97</title>
<path fill="none" stroke="black" d="M549.13,-777.68C597.45,-765.25 678.74,-744.33 732.13,-730.6"/>
<polygon fill="black" stroke="black" points="733.28,-733.92 742.09,-728.04 731.54,-727.14 733.28,-733.92"/>
</g>
<!-- 0a93e01f&#45;fb2c&#45;4b0a&#45;be67&#45;d4d0e2d54160&#45;&gt;aa4f2ad8&#45;19b2&#45;4395&#45;ae63&#45;3803bea8dd97 -->
<g id="edge15" class="edge">
<title>0a93e01f&#45;fb2c&#45;4b0a&#45;be67&#45;d4d0e2d54160&#45;&gt;aa4f2ad8&#45;19b2&#45;4395&#45;ae63&#45;3803bea8dd97</title>
<path fill="none" stroke="black" d="M710.31,-772.24C723.05,-762.82 739.48,-750.67 753.68,-740.17"/>
<polygon fill="black" stroke="black" points="755.78,-742.96 761.74,-734.2 751.62,-737.34 755.78,-742.96"/>
</g>
<!-- 722b33ae&#45;3cdb&#45;442f&#45;85e2&#45;24c428f32b5d&#45;&gt;aa4f2ad8&#45;19b2&#45;4395&#45;ae63&#45;3803bea8dd97 -->
<g id="edge16" class="edge">
<title>722b33ae&#45;3cdb&#45;442f&#45;85e2&#45;24c428f32b5d&#45;&gt;aa4f2ad8&#45;19b2&#45;4395&#45;ae63&#45;3803bea8dd97</title>
<path fill="none" stroke="black" d="M864.63,-771.89C850.93,-762.45 833.41,-750.37 818.29,-739.95"/>
<polygon fill="black" stroke="black" points="819.94,-736.83 809.72,-734.04 815.96,-742.59 819.94,-736.83"/>
</g>
<!-- 7030e2f1&#45;7bb2&#45;403b&#45;8cc3&#45;a0b141364a67&#45;&gt;aa4f2ad8&#45;19b2&#45;4395&#45;ae63&#45;3803bea8dd97 -->
<g id="edge17" class="edge">
<title>7030e2f1&#45;7bb2&#45;403b&#45;8cc3&#45;a0b141364a67&#45;&gt;aa4f2ad8&#45;19b2&#45;4395&#45;ae63&#45;3803bea8dd97</title>
<path fill="none" stroke="black" d="M1037.68,-778.86C986.88,-766.43 895.69,-744.1 837.87,-729.94"/>
<polygon fill="black" stroke="black" points="838.37,-726.46 827.83,-727.49 836.71,-733.26 838.37,-726.46"/>
</g>
<!-- 16c01383&#45;1ec4&#45;47a2&#45;b7cf&#45;720097e9ae80 -->
<g id="node25" class="node">
<title>16c01383&#45;1ec4&#45;47a2&#45;b7cf&#45;720097e9ae80</title>
<polygon fill="none" stroke="black" stroke-dasharray="5,2" points="834,-647 736,-647 736,-611 834,-611 834,-647"/>
<text text-anchor="middle" x="785" y="-625.3" font-family="Times,serif" font-size="14.00" fill="blue">Concurrent</text>
</g>
<!-- aa4f2ad8&#45;19b2&#45;4395&#45;ae63&#45;3803bea8dd97&#45;&gt;16c01383&#45;1ec4&#45;47a2&#45;b7cf&#45;720097e9ae80 -->
<g id="edge42" class="edge">
<title>aa4f2ad8&#45;19b2&#45;4395&#45;ae63&#45;3803bea8dd97&#45;&gt;16c01383&#45;1ec4&#45;47a2&#45;b7cf&#45;720097e9ae80</title>
<path fill="none" stroke="purple" d="M785,-697.8C785,-686.16 785,-670.55 785,-657.24"/>
<polygon fill="purple" stroke="purple" points="788.5,-657.18 785,-647.18 781.5,-657.18 788.5,-657.18"/>
<text text-anchor="middle" x="820.5" y="-668.8" font-family="Times,serif" font-size="14.00" fill="purple">Pass Data</text>
</g>
<!-- fe9565db&#45;9939&#45;4177&#45;b27e&#45;283d09d2e36c -->
<g id="node18" class="node">
<title>fe9565db&#45;9939&#45;4177&#45;b27e&#45;283d09d2e36c</title>
<ellipse fill="none" stroke="black" cx="858" cy="-121" rx="27" ry="18"/>
<text text-anchor="middle" x="858" y="-117.3" font-family="Times,serif" font-size="14.00">StripY</text>
</g>
<!-- c0af31fc&#45;9dfe&#45;42c2&#45;8048&#45;3a884279bbf3 -->
<g id="node19" class="node">
<title>c0af31fc&#45;9dfe&#45;42c2&#45;8048&#45;3a884279bbf3</title>
<ellipse fill="none" stroke="black" cx="858" cy="-34" rx="80.11" ry="18"/>
<text text-anchor="middle" x="858" y="-30.3" font-family="Times,serif" font-size="14.00">Stability2Movement</text>
</g>
<!-- fe9565db&#45;9939&#45;4177&#45;b27e&#45;283d09d2e36c&#45;&gt;c0af31fc&#45;9dfe&#45;42c2&#45;8048&#45;3a884279bbf3 -->
<g id="edge18" class="edge">
<title>fe9565db&#45;9939&#45;4177&#45;b27e&#45;283d09d2e36c&#45;&gt;c0af31fc&#45;9dfe&#45;42c2&#45;8048&#45;3a884279bbf3</title>
<path fill="none" stroke="purple" d="M858,-102.8C858,-91.16 858,-75.55 858,-62.24"/>
<polygon fill="purple" stroke="purple" points="861.5,-62.18 858,-52.18 854.5,-62.18 861.5,-62.18"/>
<text text-anchor="middle" x="893.5" y="-73.8" font-family="Times,serif" font-size="14.00" fill="purple">Pass Data</text>
</g>
<!-- 1776d093&#45;77c0&#45;40f6&#45;9e4c&#45;15e3aff81c8e -->
<g id="node20" class="node">
<title>1776d093&#45;77c0&#45;40f6&#45;9e4c&#45;15e3aff81c8e</title>
<ellipse fill="none" stroke="black" cx="858" cy="-208" rx="67.81" ry="18"/>
<text text-anchor="middle" x="858" y="-204.3" font-family="Times,serif" font-size="14.00">LinearYawFromX</text>
</g>
<!-- 1776d093&#45;77c0&#45;40f6&#45;9e4c&#45;15e3aff81c8e&#45;&gt;fe9565db&#45;9939&#45;4177&#45;b27e&#45;283d09d2e36c -->
<g id="edge19" class="edge">
<title>1776d093&#45;77c0&#45;40f6&#45;9e4c&#45;15e3aff81c8e&#45;&gt;fe9565db&#45;9939&#45;4177&#45;b27e&#45;283d09d2e36c</title>
<path fill="none" stroke="purple" d="M858,-189.8C858,-178.16 858,-162.55 858,-149.24"/>
<polygon fill="purple" stroke="purple" points="861.5,-149.18 858,-139.18 854.5,-149.18 861.5,-149.18"/>
<text text-anchor="middle" x="893.5" y="-160.8" font-family="Times,serif" font-size="14.00" fill="purple">Pass Data</text>
</g>
<!-- ed9a12f8&#45;5581&#45;456a&#45;9317&#45;5ce43cef5447 -->
<g id="node21" class="node">
<title>ed9a12f8&#45;5581&#45;456a&#45;9317&#45;5ce43cef5447</title>
<ellipse fill="none" stroke="black" cx="859" cy="-295" rx="51.3" ry="18"/>
<text text-anchor="middle" x="859" y="-291.3" font-family="Times,serif" font-size="14.00">OffsetToPose</text>
</g>
<!-- ed9a12f8&#45;5581&#45;456a&#45;9317&#45;5ce43cef5447&#45;&gt;1776d093&#45;77c0&#45;40f6&#45;9e4c&#45;15e3aff81c8e -->
<g id="edge20" class="edge">
<title>ed9a12f8&#45;5581&#45;456a&#45;9317&#45;5ce43cef5447&#45;&gt;1776d093&#45;77c0&#45;40f6&#45;9e4c&#45;15e3aff81c8e</title>
<path fill="none" stroke="purple" d="M858.8,-276.8C858.66,-265.16 858.48,-249.55 858.32,-236.24"/>
<polygon fill="purple" stroke="purple" points="861.82,-236.13 858.2,-226.18 854.82,-236.22 861.82,-236.13"/>
<text text-anchor="middle" x="893.5" y="-247.8" font-family="Times,serif" font-size="14.00" fill="purple">Pass Data</text>
</g>
<!-- 34be68d9&#45;ac69&#45;445e&#45;a89a&#45;baa5d859318c -->
<g id="node22" class="node">
<title>34be68d9&#45;ac69&#45;445e&#45;a89a&#45;baa5d859318c</title>
<ellipse fill="none" stroke="black" cx="860" cy="-382" rx="32.4" ry="18"/>
<text text-anchor="middle" x="860" y="-378.3" font-family="Times,serif" font-size="14.00">Average</text>
</g>
<!-- 34be68d9&#45;ac69&#45;445e&#45;a89a&#45;baa5d859318c&#45;&gt;ed9a12f8&#45;5581&#45;456a&#45;9317&#45;5ce43cef5447 -->
<g id="edge21" class="edge">
<title>34be68d9&#45;ac69&#45;445e&#45;a89a&#45;baa5d859318c&#45;&gt;ed9a12f8&#45;5581&#45;456a&#45;9317&#45;5ce43cef5447</title>
<path fill="none" stroke="purple" d="M859.8,-363.8C859.66,-352.16 859.48,-336.55 859.32,-323.24"/>
<polygon fill="purple" stroke="purple" points="862.82,-323.13 859.2,-313.18 855.82,-323.22 862.82,-323.13"/>
<text text-anchor="middle" x="894.5" y="-334.8" font-family="Times,serif" font-size="14.00" fill="purple">Pass Data</text>
</g>
<!-- c4e22856&#45;22e9&#45;4698&#45;b75e&#45;5a3bc55f7cbe -->
<g id="node23" class="node">
<title>c4e22856&#45;22e9&#45;4698&#45;b75e&#45;5a3bc55f7cbe</title>
<ellipse fill="none" stroke="black" cx="862" cy="-469" rx="61.1" ry="18"/>
<text text-anchor="middle" x="862" y="-465.3" font-family="Times,serif" font-size="14.00">ExtractPosition</text>
</g>
<!-- c4e22856&#45;22e9&#45;4698&#45;b75e&#45;5a3bc55f7cbe&#45;&gt;34be68d9&#45;ac69&#45;445e&#45;a89a&#45;baa5d859318c -->
<g id="edge22" class="edge">
<title>c4e22856&#45;22e9&#45;4698&#45;b75e&#45;5a3bc55f7cbe&#45;&gt;34be68d9&#45;ac69&#45;445e&#45;a89a&#45;baa5d859318c</title>
<path fill="none" stroke="purple" d="M861.6,-450.8C861.32,-439.16 860.95,-423.55 860.64,-410.24"/>
<polygon fill="purple" stroke="purple" points="864.14,-410.09 860.4,-400.18 857.14,-410.26 864.14,-410.09"/>
<text text-anchor="middle" x="896.5" y="-421.8" font-family="Times,serif" font-size="14.00" fill="purple">Pass Data</text>
</g>
<!-- 17a02b94&#45;6c2b&#45;405c&#45;af16&#45;160af13a52dc -->
<g id="node24" class="node">
<title>17a02b94&#45;6c2b&#45;405c&#45;af16&#45;160af13a52dc</title>
<ellipse fill="none" stroke="black" cx="911" cy="-556" rx="27" ry="18"/>
<text text-anchor="middle" x="911" y="-552.3" font-family="Times,serif" font-size="14.00">ToVec</text>
</g>
<!-- 17a02b94&#45;6c2b&#45;405c&#45;af16&#45;160af13a52dc&#45;&gt;c4e22856&#45;22e9&#45;4698&#45;b75e&#45;5a3bc55f7cbe -->
<g id="edge23" class="edge">
<title>17a02b94&#45;6c2b&#45;405c&#45;af16&#45;160af13a52dc&#45;&gt;c4e22856&#45;22e9&#45;4698&#45;b75e&#45;5a3bc55f7cbe</title>
<path fill="none" stroke="purple" d="M901.78,-539.01C894.73,-526.78 884.87,-509.68 876.73,-495.56"/>
<polygon fill="purple" stroke="purple" points="879.7,-493.7 871.68,-486.79 873.64,-497.2 879.7,-493.7"/>
<text text-anchor="middle" x="924.5" y="-508.8" font-family="Times,serif" font-size="14.00" fill="purple">Pass Data</text>
</g>
<!-- 16c01383&#45;1ec4&#45;47a2&#45;b7cf&#45;720097e9ae80&#45;&gt;92fc769c&#45;3ed6&#45;4fb2&#45;a07d&#45;91e4795e489c -->
<g id="edge25" class="edge">
<title>16c01383&#45;1ec4&#45;47a2&#45;b7cf&#45;720097e9ae80&#45;&gt;92fc769c&#45;3ed6&#45;4fb2&#45;a07d&#45;91e4795e489c</title>
<path fill="none" stroke="black" d="M762.25,-610.81C749.02,-600.82 732.26,-588.16 718.32,-577.63"/>
<polygon fill="black" stroke="black" points="720.15,-574.63 710.06,-571.4 715.93,-580.22 720.15,-574.63"/>
</g>
<!-- 16c01383&#45;1ec4&#45;47a2&#45;b7cf&#45;720097e9ae80&#45;&gt;17a02b94&#45;6c2b&#45;405c&#45;af16&#45;160af13a52dc -->
<g id="edge24" class="edge">
<title>16c01383&#45;1ec4&#45;47a2&#45;b7cf&#45;720097e9ae80&#45;&gt;17a02b94&#45;6c2b&#45;405c&#45;af16&#45;160af13a52dc</title>
<path fill="none" stroke="black" d="M815.18,-610.99C835.42,-599.59 861.93,-584.65 881.93,-573.38"/>
<polygon fill="black" stroke="black" points="883.9,-576.29 890.89,-568.33 880.46,-570.19 883.9,-576.29"/>
</g>
<!-- 1cd99c42&#45;e1f4&#45;465b&#45;85ba&#45;1aa27f419390 -->
<g id="node26" class="node">
<title>1cd99c42&#45;e1f4&#45;465b&#45;85ba&#45;1aa27f419390</title>
<polygon fill="none" stroke="black" stroke-dasharray="5,2" points="1660,-880 1478,-880 1478,-844 1660,-844 1660,-880"/>
<text text-anchor="middle" x="1569" y="-858.3" font-family="Times,serif" font-size="14.00" fill="darkgreen">FirstValid (Concurrent)</text>
</g>
<!-- 7c094dc1&#45;c45c&#45;4824&#45;a527&#45;40d03342f8c2 -->
<g id="node27" class="node">
<title>7c094dc1&#45;c45c&#45;4824&#45;a527&#45;40d03342f8c2</title>
<ellipse fill="none" stroke="black" cx="1389" cy="-789" rx="51.3" ry="18"/>
<text text-anchor="middle" x="1389" y="-785.3" font-family="Times,serif" font-size="14.00">Detect Earth</text>
</g>
<!-- 1cd99c42&#45;e1f4&#45;465b&#45;85ba&#45;1aa27f419390&#45;&gt;7c094dc1&#45;c45c&#45;4824&#45;a527&#45;40d03342f8c2 -->
<g id="edge26" class="edge">
<title>1cd99c42&#45;e1f4&#45;465b&#45;85ba&#45;1aa27f419390&#45;&gt;7c094dc1&#45;c45c&#45;4824&#45;a527&#45;40d03342f8c2</title>
<path fill="none" stroke="black" d="M1525.89,-843.99C1497.23,-832.69 1459.78,-817.92 1431.29,-806.68"/>
<polygon fill="black" stroke="black" points="1432.21,-803.28 1421.62,-802.87 1429.64,-809.79 1432.21,-803.28"/>
</g>
<!-- a8a05e09&#45;77eb&#45;4e28&#45;93b7&#45;00df46c7e09d -->
<g id="node28" class="node">
<title>a8a05e09&#45;77eb&#45;4e28&#45;93b7&#45;00df46c7e09d</title>
<ellipse fill="none" stroke="black" cx="1569" cy="-789" rx="57.4" ry="18"/>
<text text-anchor="middle" x="1569" y="-785.3" font-family="Times,serif" font-size="14.00">Detect Abydos</text>
</g>
<!-- 1cd99c42&#45;e1f4&#45;465b&#45;85ba&#45;1aa27f419390&#45;&gt;a8a05e09&#45;77eb&#45;4e28&#45;93b7&#45;00df46c7e09d -->
<g id="edge27" class="edge">
<title>1cd99c42&#45;e1f4&#45;465b&#45;85ba&#45;1aa27f419390&#45;&gt;a8a05e09&#45;77eb&#45;4e28&#45;93b7&#45;00df46c7e09d</title>
<path fill="none" stroke="black" d="M1569,-843.81C1569,-835.79 1569,-826.05 1569,-817.07"/>
<polygon fill="black" stroke="black" points="1572.5,-817.03 1569,-807.03 1565.5,-817.03 1572.5,-817.03"/>
</g>
<!-- 8a0ccea1&#45;12b0&#45;4cdc&#45;bee5&#45;e6c5cfde878f -->
<g id="node29" class="node">
<title>8a0ccea1&#45;12b0&#45;4cdc&#45;bee5&#45;e6c5cfde878f</title>
<ellipse fill="none" stroke="black" cx="1768" cy="-789" rx="69.71" ry="18"/>
<text text-anchor="middle" x="1768" y="-785.3" font-family="Times,serif" font-size="14.00">Detect LargeGate</text>
</g>
<!-- 1cd99c42&#45;e1f4&#45;465b&#45;85ba&#45;1aa27f419390&#45;&gt;8a0ccea1&#45;12b0&#45;4cdc&#45;bee5&#45;e6c5cfde878f -->
<g id="edge28" class="edge">
<title>1cd99c42&#45;e1f4&#45;465b&#45;85ba&#45;1aa27f419390&#45;&gt;8a0ccea1&#45;12b0&#45;4cdc&#45;bee5&#45;e6c5cfde878f</title>
<path fill="none" stroke="black" d="M1616.67,-843.99C1647.58,-832.96 1687.77,-818.63 1718.96,-807.5"/>
<polygon fill="black" stroke="black" points="1720.5,-810.66 1728.75,-804.01 1718.15,-804.07 1720.5,-810.66"/>
</g>
<!-- 6674338c&#45;5354&#45;4dcf&#45;bf24&#45;948677f429aa -->
<g id="node30" class="node">
<title>6674338c&#45;5354&#45;4dcf&#45;bf24&#45;948677f429aa</title>
<ellipse fill="none" stroke="black" cx="1955" cy="-789" rx="45.2" ry="18"/>
<text text-anchor="middle" x="1955" y="-785.3" font-family="Times,serif" font-size="14.00">Detect Pole</text>
</g>
<!-- 1cd99c42&#45;e1f4&#45;465b&#45;85ba&#45;1aa27f419390&#45;&gt;6674338c&#45;5354&#45;4dcf&#45;bf24&#45;948677f429aa -->
<g id="edge29" class="edge">
<title>1cd99c42&#45;e1f4&#45;465b&#45;85ba&#45;1aa27f419390&#45;&gt;6674338c&#45;5354&#45;4dcf&#45;bf24&#45;948677f429aa</title>
<path fill="none" stroke="black" d="M1660.23,-845.62C1720.91,-835.21 1802.33,-820.86 1874,-807 1884.48,-804.97 1895.69,-802.69 1906.34,-800.47"/>
<polygon fill="black" stroke="black" points="1907.25,-803.86 1916.32,-798.38 1905.82,-797.01 1907.25,-803.86"/>
</g>
<!-- e290c145&#45;aea6&#45;448f&#45;8433&#45;8ed156b6066e -->
<g id="node31" class="node">
<title>e290c145&#45;aea6&#45;448f&#45;8433&#45;8ed156b6066e</title>
<polygon fill="none" stroke="black" stroke-dasharray="5,2" points="1683.5,-734 1598.5,-734 1598.5,-698 1683.5,-698 1683.5,-734"/>
<text text-anchor="middle" x="1641" y="-712.3" font-family="Times,serif" font-size="14.00" fill="darkgreen">Converge</text>
</g>
<!-- 7c094dc1&#45;c45c&#45;4824&#45;a527&#45;40d03342f8c2&#45;&gt;e290c145&#45;aea6&#45;448f&#45;8433&#45;8ed156b6066e -->
<g id="edge30" class="edge">
<title>7c094dc1&#45;c45c&#45;4824&#45;a527&#45;40d03342f8c2&#45;&gt;e290c145&#45;aea6&#45;448f&#45;8433&#45;8ed156b6066e</title>
<path fill="none" stroke="black" d="M1427.55,-777.14C1470.54,-765.03 1540.34,-745.36 1588.34,-731.84"/>
<polygon fill="black" stroke="black" points="1589.56,-735.13 1598.24,-729.05 1587.66,-728.39 1589.56,-735.13"/>
</g>
<!-- a8a05e09&#45;77eb&#45;4e28&#45;93b7&#45;00df46c7e09d&#45;&gt;e290c145&#45;aea6&#45;448f&#45;8433&#45;8ed156b6066e -->
<g id="edge31" class="edge">
<title>a8a05e09&#45;77eb&#45;4e28&#45;93b7&#45;00df46c7e09d&#45;&gt;e290c145&#45;aea6&#45;448f&#45;8433&#45;8ed156b6066e</title>
<path fill="none" stroke="black" d="M1585.7,-771.53C1594.7,-762.65 1605.99,-751.52 1616.02,-741.63"/>
<polygon fill="black" stroke="black" points="1618.72,-743.88 1623.39,-734.37 1613.81,-738.9 1618.72,-743.88"/>
</g>
<!-- 8a0ccea1&#45;12b0&#45;4cdc&#45;bee5&#45;e6c5cfde878f&#45;&gt;e290c145&#45;aea6&#45;448f&#45;8433&#45;8ed156b6066e -->
<g id="edge32" class="edge">
<title>8a0ccea1&#45;12b0&#45;4cdc&#45;bee5&#45;e6c5cfde878f&#45;&gt;e290c145&#45;aea6&#45;448f&#45;8433&#45;8ed156b6066e</title>
<path fill="none" stroke="black" d="M1740.13,-772.42C1722.61,-762.62 1699.73,-749.83 1680.37,-739.01"/>
<polygon fill="black" stroke="black" points="1681.91,-735.86 1671.47,-734.04 1678.49,-741.97 1681.91,-735.86"/>
</g>
<!-- 6674338c&#45;5354&#45;4dcf&#45;bf24&#45;948677f429aa&#45;&gt;e290c145&#45;aea6&#45;448f&#45;8433&#45;8ed156b6066e -->
<g id="edge33" class="edge">
<title>6674338c&#45;5354&#45;4dcf&#45;bf24&#45;948677f429aa&#45;&gt;e290c145&#45;aea6&#45;448f&#45;8433&#45;8ed156b6066e</title>
<path fill="none" stroke="black" d="M1916.81,-779.36C1860.88,-766.72 1756.51,-743.12 1693.43,-728.86"/>
<polygon fill="black" stroke="black" points="1694.2,-725.44 1683.68,-726.65 1692.66,-732.27 1694.2,-725.44"/>
</g>
<!-- 52257da4&#45;4e82&#45;4497&#45;8473&#45;7cbc233fabc3 -->
<g id="node39" class="node">
<title>52257da4&#45;4e82&#45;4497&#45;8473&#45;7cbc233fabc3</title>
<polygon fill="none" stroke="black" stroke-dasharray="5,2" points="1690,-647 1592,-647 1592,-611 1690,-611 1690,-647"/>
<text text-anchor="middle" x="1641" y="-625.3" font-family="Times,serif" font-size="14.00" fill="blue">Concurrent</text>
</g>
<!-- e290c145&#45;aea6&#45;448f&#45;8433&#45;8ed156b6066e&#45;&gt;52257da4&#45;4e82&#45;4497&#45;8473&#45;7cbc233fabc3 -->
<g id="edge45" class="edge">
<title>e290c145&#45;aea6&#45;448f&#45;8433&#45;8ed156b6066e&#45;&gt;52257da4&#45;4e82&#45;4497&#45;8473&#45;7cbc233fabc3</title>
<path fill="none" stroke="purple" d="M1641,-697.8C1641,-686.16 1641,-670.55 1641,-657.24"/>
<polygon fill="purple" stroke="purple" points="1644.5,-657.18 1641,-647.18 1637.5,-657.18 1644.5,-657.18"/>
<text text-anchor="middle" x="1676.5" y="-668.8" font-family="Times,serif" font-size="14.00" fill="purple">Pass Data</text>
</g>
<!-- b6959d51&#45;c754&#45;44ec&#45;888e&#45;badb07fa96d1 -->
<g id="node32" class="node">
<title>b6959d51&#45;c754&#45;44ec&#45;888e&#45;badb07fa96d1</title>
<ellipse fill="none" stroke="black" cx="1609" cy="-121" rx="27" ry="18"/>
<text text-anchor="middle" x="1609" y="-117.3" font-family="Times,serif" font-size="14.00">StripY</text>
</g>
<!-- 42d2a2ff&#45;7555&#45;4b9e&#45;b846&#45;abba1d27ff14 -->
<g id="node33" class="node">
<title>42d2a2ff&#45;7555&#45;4b9e&#45;b846&#45;abba1d27ff14</title>
<ellipse fill="none" stroke="black" cx="1609" cy="-34" rx="80.11" ry="18"/>
<text text-anchor="middle" x="1609" y="-30.3" font-family="Times,serif" font-size="14.00">Stability2Movement</text>
</g>
<!-- b6959d51&#45;c754&#45;44ec&#45;888e&#45;badb07fa96d1&#45;&gt;42d2a2ff&#45;7555&#45;4b9e&#45;b846&#45;abba1d27ff14 -->
<g id="edge34" class="edge">
<title>b6959d51&#45;c754&#45;44ec&#45;888e&#45;badb07fa96d1&#45;&gt;42d2a2ff&#45;7555&#45;4b9e&#45;b846&#45;abba1d27ff14</title>
<path fill="none" stroke="purple" d="M1609,-102.8C1609,-91.16 1609,-75.55 1609,-62.24"/>
<polygon fill="purple" stroke="purple" points="1612.5,-62.18 1609,-52.18 1605.5,-62.18 1612.5,-62.18"/>
<text text-anchor="middle" x="1644.5" y="-73.8" font-family="Times,serif" font-size="14.00" fill="purple">Pass Data</text>
</g>
<!-- 19f95d05&#45;ec74&#45;42ff&#45;8069&#45;92c6d116d13e -->
<g id="node34" class="node">
<title>19f95d05&#45;ec74&#45;42ff&#45;8069&#45;92c6d116d13e</title>
<ellipse fill="none" stroke="black" cx="1609" cy="-208" rx="67.81" ry="18"/>
<text text-anchor="middle" x="1609" y="-204.3" font-family="Times,serif" font-size="14.00">LinearYawFromX</text>
</g>
<!-- 19f95d05&#45;ec74&#45;42ff&#45;8069&#45;92c6d116d13e&#45;&gt;b6959d51&#45;c754&#45;44ec&#45;888e&#45;badb07fa96d1 -->
<g id="edge35" class="edge">
<title>19f95d05&#45;ec74&#45;42ff&#45;8069&#45;92c6d116d13e&#45;&gt;b6959d51&#45;c754&#45;44ec&#45;888e&#45;badb07fa96d1</title>
<path fill="none" stroke="purple" d="M1609,-189.8C1609,-178.16 1609,-162.55 1609,-149.24"/>
<polygon fill="purple" stroke="purple" points="1612.5,-149.18 1609,-139.18 1605.5,-149.18 1612.5,-149.18"/>
<text text-anchor="middle" x="1644.5" y="-160.8" font-family="Times,serif" font-size="14.00" fill="purple">Pass Data</text>
</g>
<!-- 882c8e43&#45;4b2f&#45;49bd&#45;8e1f&#45;8459abeb1d36 -->
<g id="node35" class="node">
<title>882c8e43&#45;4b2f&#45;49bd&#45;8e1f&#45;8459abeb1d36</title>
<ellipse fill="none" stroke="black" cx="1609" cy="-295" rx="51.3" ry="18"/>
<text text-anchor="middle" x="1609" y="-291.3" font-family="Times,serif" font-size="14.00">OffsetToPose</text>
</g>
<!-- 882c8e43&#45;4b2f&#45;49bd&#45;8e1f&#45;8459abeb1d36&#45;&gt;19f95d05&#45;ec74&#45;42ff&#45;8069&#45;92c6d116d13e -->
<g id="edge36" class="edge">
<title>882c8e43&#45;4b2f&#45;49bd&#45;8e1f&#45;8459abeb1d36&#45;&gt;19f95d05&#45;ec74&#45;42ff&#45;8069&#45;92c6d116d13e</title>
<path fill="none" stroke="purple" d="M1609,-276.8C1609,-265.16 1609,-249.55 1609,-236.24"/>
<polygon fill="purple" stroke="purple" points="1612.5,-236.18 1609,-226.18 1605.5,-236.18 1612.5,-236.18"/>
<text text-anchor="middle" x="1644.5" y="-247.8" font-family="Times,serif" font-size="14.00" fill="purple">Pass Data</text>
</g>
<!-- 9ccc23ee&#45;bc2e&#45;45dd&#45;acd5&#45;e033d4114cef -->
<g id="node36" class="node">
<title>9ccc23ee&#45;bc2e&#45;45dd&#45;acd5&#45;e033d4114cef</title>
<ellipse fill="none" stroke="black" cx="1609" cy="-382" rx="32.4" ry="18"/>
<text text-anchor="middle" x="1609" y="-378.3" font-family="Times,serif" font-size="14.00">Average</text>
</g>
<!-- 9ccc23ee&#45;bc2e&#45;45dd&#45;acd5&#45;e033d4114cef&#45;&gt;882c8e43&#45;4b2f&#45;49bd&#45;8e1f&#45;8459abeb1d36 -->
<g id="edge37" class="edge">
<title>9ccc23ee&#45;bc2e&#45;45dd&#45;acd5&#45;e033d4114cef&#45;&gt;882c8e43&#45;4b2f&#45;49bd&#45;8e1f&#45;8459abeb1d36</title>
<path fill="none" stroke="purple" d="M1609,-363.8C1609,-352.16 1609,-336.55 1609,-323.24"/>
<polygon fill="purple" stroke="purple" points="1612.5,-323.18 1609,-313.18 1605.5,-323.18 1612.5,-323.18"/>
<text text-anchor="middle" x="1644.5" y="-334.8" font-family="Times,serif" font-size="14.00" fill="purple">Pass Data</text>
</g>
<!-- 64c7d8d6&#45;1922&#45;4587&#45;a40f&#45;87ae58446a64 -->
<g id="node37" class="node">
<title>64c7d8d6&#45;1922&#45;4587&#45;a40f&#45;87ae58446a64</title>
<ellipse fill="none" stroke="black" cx="1609" cy="-469" rx="61.1" ry="18"/>
<text text-anchor="middle" x="1609" y="-465.3" font-family="Times,serif" font-size="14.00">ExtractPosition</text>
</g>
<!-- 64c7d8d6&#45;1922&#45;4587&#45;a40f&#45;87ae58446a64&#45;&gt;9ccc23ee&#45;bc2e&#45;45dd&#45;acd5&#45;e033d4114cef -->
<g id="edge38" class="edge">
<title>64c7d8d6&#45;1922&#45;4587&#45;a40f&#45;87ae58446a64&#45;&gt;9ccc23ee&#45;bc2e&#45;45dd&#45;acd5&#45;e033d4114cef</title>
<path fill="none" stroke="purple" d="M1609,-450.8C1609,-439.16 1609,-423.55 1609,-410.24"/>
<polygon fill="purple" stroke="purple" points="1612.5,-410.18 1609,-400.18 1605.5,-410.18 1612.5,-410.18"/>
<text text-anchor="middle" x="1644.5" y="-421.8" font-family="Times,serif" font-size="14.00" fill="purple">Pass Data</text>
</g>
<!-- baa936f7&#45;1e60&#45;4dea&#45;8d3e&#45;c4ad29bddc56 -->
<g id="node38" class="node">
<title>baa936f7&#45;1e60&#45;4dea&#45;8d3e&#45;c4ad29bddc56</title>
<ellipse fill="none" stroke="black" cx="1699" cy="-556" rx="27" ry="18"/>
<text text-anchor="middle" x="1699" y="-552.3" font-family="Times,serif" font-size="14.00">ToVec</text>
</g>
<!-- baa936f7&#45;1e60&#45;4dea&#45;8d3e&#45;c4ad29bddc56&#45;&gt;64c7d8d6&#45;1922&#45;4587&#45;a40f&#45;87ae58446a64 -->
<g id="edge39" class="edge">
<title>baa936f7&#45;1e60&#45;4dea&#45;8d3e&#45;c4ad29bddc56&#45;&gt;64c7d8d6&#45;1922&#45;4587&#45;a40f&#45;87ae58446a64</title>
<path fill="none" stroke="purple" d="M1677.25,-544.94C1665.61,-538.84 1651.53,-530.26 1641,-520 1633.84,-513.03 1627.52,-504.17 1622.42,-495.85"/>
<polygon fill="purple" stroke="purple" points="1625.43,-494.05 1617.39,-487.15 1619.37,-497.56 1625.43,-494.05"/>
<text text-anchor="middle" x="1676.5" y="-508.8" font-family="Times,serif" font-size="14.00" fill="purple">Pass Data</text>
</g>
<!-- 52257da4&#45;4e82&#45;4497&#45;8473&#45;7cbc233fabc3&#45;&gt;f041a380&#45;5aa7&#45;4d79&#45;b0b8&#45;2fd8f62bfe8c -->
<g id="edge41" class="edge">
<title>52257da4&#45;4e82&#45;4497&#45;8473&#45;7cbc233fabc3&#45;&gt;f041a380&#45;5aa7&#45;4d79&#45;b0b8&#45;2fd8f62bfe8c</title>
<path fill="none" stroke="black" d="M1599.8,-610.99C1572.54,-599.74 1536.94,-585.05 1509.77,-573.83"/>
<polygon fill="black" stroke="black" points="1510.75,-570.45 1500.17,-569.87 1508.08,-576.92 1510.75,-570.45"/>
</g>
<!-- 52257da4&#45;4e82&#45;4497&#45;8473&#45;7cbc233fabc3&#45;&gt;baa936f7&#45;1e60&#45;4dea&#45;8d3e&#45;c4ad29bddc56 -->
<g id="edge40" class="edge">
<title>52257da4&#45;4e82&#45;4497&#45;8473&#45;7cbc233fabc3&#45;&gt;baa936f7&#45;1e60&#45;4dea&#45;8d3e&#45;c4ad29bddc56</title>
<path fill="none" stroke="black" d="M1655.04,-610.81C1662.58,-601.58 1671.99,-590.07 1680.16,-580.07"/>
<polygon fill="black" stroke="black" points="1683.05,-582.06 1686.66,-572.1 1677.63,-577.63 1683.05,-582.06"/>
</g>
<!-- d825342e&#45;652b&#45;4def&#45;b4b7&#45;a8f82564f3db&#45;&gt;7fa7c762&#45;0430&#45;4a9e&#45;9fdd&#45;f3efe31b4b0d -->
<g id="edge43" class="edge">
<title>d825342e&#45;652b&#45;4def&#45;b4b7&#45;a8f82564f3db&#45;&gt;7fa7c762&#45;0430&#45;4a9e&#45;9fdd&#45;f3efe31b4b0d</title>
<path fill="none" stroke="purple" d="M349,-487.26C349,-504.43 349,-531.54 349,-555 349,-790 349,-790 349,-790 349,-839.26 487.5,-854.56 587.7,-859.19"/>
<polygon fill="purple" stroke="purple" points="587.74,-862.69 597.89,-859.63 588.05,-855.7 587.74,-862.69"/>
<text text-anchor="middle" x="384.5" y="-668.8" font-family="Times,serif" font-size="14.00" fill="purple">Pass Data</text>
</g>
<!-- 13d2fb5e&#45;892e&#45;4dbd&#45;81b0&#45;381a198cd71f&#45;&gt;1cd99c42&#45;e1f4&#45;465b&#45;85ba&#45;1aa27f419390 -->
<g id="edge46" class="edge">
<title>13d2fb5e&#45;892e&#45;4dbd&#45;81b0&#45;381a198cd71f&#45;&gt;1cd99c42&#45;e1f4&#45;465b&#45;85ba&#45;1aa27f419390</title>
<path fill="none" stroke="purple" d="M1229,-487.26C1229,-504.43 1229,-531.54 1229,-555 1229,-790 1229,-790 1229,-790 1229,-839.26 1367.5,-854.56 1467.7,-859.19"/>
<polygon fill="purple" stroke="purple" points="1467.74,-862.69 1477.89,-859.63 1468.05,-855.7 1467.74,-862.69"/>
<text text-anchor="middle" x="1264.5" y="-668.8" font-family="Times,serif" font-size="14.00" fill="purple">Pass Data</text>
</g>
</g>
</svg>
