<?xml version="1.0" encoding="UTF-8" standalone="no"?>
<!DOCTYPE svg PUBLIC "-//W3C//DTD SVG 1.1//EN"
 "http://www.w3.org/Graphics/SVG/1.1/DTD/svg11.dtd">
<!-- Generated by graphviz version 2.43.0 (0)
 -->
<!-- Title: G Pages: 1 -->
<svg width="1817pt" height="693pt"
 viewBox="0.00 0.00 1817.00 693.00" xmlns="http://www.w3.org/2000/svg" xmlns:xlink="http://www.w3.org/1999/xlink">
<g id="graph0" class="graph" transform="scale(1 1) rotate(0) translate(4 689)">
<title>G</title>
<polygon fill="transparent" stroke="transparent" points="-4,4 -4,-689 1813,-689 1813,4 -4,4"/>
<g id="clust1" class="cluster">
<title>cluster_eb6e5a2d&#45;362d&#45;4643&#45;8d35&#45;074891b381ae</title>
<polygon fill="transparent" stroke="blue" stroke-dasharray="5,2" points="8,-79 8,-677 248,-677 248,-79 8,-79"/>
</g>
<g id="clust2" class="cluster">
<title>cluster_7269be4c&#45;8713&#45;44cb&#45;80cf&#45;c16c44df5a98</title>
<polygon fill="transparent" stroke="blue" stroke-dasharray="5,2" points="491,-79 491,-204 1000,-204 1000,-79 491,-79"/>
</g>
<g id="clust3" class="cluster">
<title>cluster_a4502df4&#45;3c3c&#45;4a1f&#45;98ad&#45;03b9d2fcca6c</title>
<polygon fill="transparent" stroke="blue" stroke-dasharray="5,2" points="1271,-79 1271,-204 1801,-204 1801,-79 1271,-79"/>
</g>
<!-- 0038866a&#45;a035&#45;4cd4&#45;a7a8&#45;9be756c9215c -->
<g id="node1" class="node">
<title>0038866a&#45;a035&#45;4cd4&#45;a7a8&#45;9be756c9215c</title>
<polygon fill="none" stroke="black" points="620,-123 499.37,-105 620,-87 740.63,-105 620,-123"/>
<text text-anchor="middle" x="620" y="-101.3" font-family="Times,serif" font-size="14.00">Consecutive True &lt; 3</text>
</g>
<!-- ae560cea&#45;fa6d&#45;43b1&#45;81f7&#45;415e354bd2f3 -->
<g id="node16" class="node">
<title>ae560cea&#45;fa6d&#45;43b1&#45;81f7&#45;415e354bd2f3</title>
<ellipse fill="none" stroke="black" cx="356" cy="-18" rx="69.71" ry="18"/>
<text text-anchor="middle" x="356" y="-14.3" font-family="Times,serif" font-size="14.00">VisionNormOffset</text>
</g>
<!-- 0038866a&#45;a035&#45;4cd4&#45;a7a8&#45;9be756c9215c&#45;&gt;ae560cea&#45;fa6d&#45;43b1&#45;81f7&#45;415e354bd2f3 -->
<g id="edge15" class="edge">
<title>0038866a&#45;a035&#45;4cd4&#45;a7a8&#45;9be756c9215c&#45;&gt;ae560cea&#45;fa6d&#45;43b1&#45;81f7&#45;415e354bd2f3</title>
<path fill="none" stroke="black" d="M583.85,-92.36C538.21,-77.67 459.41,-52.29 407.49,-35.58"/>
<polygon fill="black" stroke="black" points="408.4,-32.19 397.8,-32.46 406.25,-38.86 408.4,-32.19"/>
<text text-anchor="middle" x="520" y="-57.8" font-family="Times,serif" font-size="14.00">True</text>
</g>
<!-- e8ccfb5f&#45;cd02&#45;48c4&#45;819f&#45;2d2cafee9ad9 -->
<g id="node17" class="node">
<title>e8ccfb5f&#45;cd02&#45;48c4&#45;819f&#45;2d2cafee9ad9</title>
<ellipse fill="none" stroke="black" cx="1136" cy="-18" rx="69.71" ry="18"/>
<text text-anchor="middle" x="1136" y="-14.3" font-family="Times,serif" font-size="14.00">VisionNormOffset</text>
</g>
<!-- 0038866a&#45;a035&#45;4cd4&#45;a7a8&#45;9be756c9215c&#45;&gt;e8ccfb5f&#45;cd02&#45;48c4&#45;819f&#45;2d2cafee9ad9 -->
<g id="edge18" class="edge">
<title>0038866a&#45;a035&#45;4cd4&#45;a7a8&#45;9be756c9215c&#45;&gt;e8ccfb5f&#45;cd02&#45;48c4&#45;819f&#45;2d2cafee9ad9</title>
<path fill="none" stroke="black" d="M674.25,-95.06C769.28,-79.41 965.57,-47.07 1068.95,-30.05"/>
<polygon fill="black" stroke="black" points="1069.66,-33.47 1078.96,-28.4 1068.53,-26.57 1069.66,-33.47"/>
<text text-anchor="middle" x="927" y="-57.8" font-family="Times,serif" font-size="14.00">False</text>
</g>
<!-- f7cdf623&#45;6b5e&#45;497f&#45;8cb4&#45;84c7e4aebbc8 -->
<g id="node2" class="node">
<title>f7cdf623&#45;6b5e&#45;497f&#45;8cb4&#45;84c7e4aebbc8</title>
<polygon fill="none" stroke="black" points="1410,-123 1278.59,-105 1410,-87 1541.41,-105 1410,-123"/>
<text text-anchor="middle" x="1410" y="-101.3" font-family="Times,serif" font-size="14.00">Consecutive False &lt; 10</text>
</g>
<!-- f7cdf623&#45;6b5e&#45;497f&#45;8cb4&#45;84c7e4aebbc8&#45;&gt;e8ccfb5f&#45;cd02&#45;48c4&#45;819f&#45;2d2cafee9ad9 -->
<g id="edge17" class="edge">
<title>f7cdf623&#45;6b5e&#45;497f&#45;8cb4&#45;84c7e4aebbc8&#45;&gt;e8ccfb5f&#45;cd02&#45;48c4&#45;819f&#45;2d2cafee9ad9</title>
<path fill="none" stroke="black" d="M1371.9,-92.18C1324.14,-77.37 1242.05,-51.9 1188.4,-35.26"/>
<polygon fill="black" stroke="black" points="1189.32,-31.88 1178.73,-32.25 1187.24,-38.56 1189.32,-31.88"/>
<text text-anchor="middle" x="1306" y="-57.8" font-family="Times,serif" font-size="14.00">True</text>
</g>
<!-- 2d84fdc8&#45;0b34&#45;4833&#45;8259&#45;1378e8b92d44 -->
<g id="node3" class="node">
<title>2d84fdc8&#45;0b34&#45;4833&#45;8259&#45;1378e8b92d44</title>
<ellipse fill="none" stroke="black" cx="88" cy="-470" rx="33.6" ry="18"/>
<text text-anchor="middle" x="88" y="-466.3" font-family="Times,serif" font-size="14.00">Descend</text>
</g>
<!-- 33c710e2&#45;a649&#45;4c54&#45;b973&#45;f60a347a08ba -->
<g id="node4" class="node">
<title>33c710e2&#45;a649&#45;4c54&#45;b973&#45;f60a347a08ba</title>
<ellipse fill="none" stroke="black" cx="88" cy="-397" rx="47.1" ry="18"/>
<text text-anchor="middle" x="88" y="-393.3" font-family="Times,serif" font-size="14.00">DelayAction</text>
</g>
<!-- 2d84fdc8&#45;0b34&#45;4833&#45;8259&#45;1378e8b92d44&#45;&gt;33c710e2&#45;a649&#45;4c54&#45;b973&#45;f60a347a08ba -->
<g id="edge1" class="edge">
<title>2d84fdc8&#45;0b34&#45;4833&#45;8259&#45;1378e8b92d44&#45;&gt;33c710e2&#45;a649&#45;4c54&#45;b973&#45;f60a347a08ba</title>
<path fill="none" stroke="black" d="M88,-451.81C88,-443.79 88,-434.05 88,-425.07"/>
<polygon fill="black" stroke="black" points="91.5,-425.03 88,-415.03 84.5,-425.03 91.5,-425.03"/>
</g>
<!-- 9cce28e5&#45;beb6&#45;41de&#45;a742&#45;675daf90a3c1 -->
<g id="node5" class="node">
<title>9cce28e5&#45;beb6&#45;41de&#45;a742&#45;675daf90a3c1</title>
<ellipse fill="none" stroke="black" cx="91" cy="-324" rx="74.61" ry="18"/>
<text text-anchor="middle" x="91" y="-320.3" font-family="Times,serif" font-size="14.00">StraightMovement</text>
</g>
<!-- 33c710e2&#45;a649&#45;4c54&#45;b973&#45;f60a347a08ba&#45;&gt;9cce28e5&#45;beb6&#45;41de&#45;a742&#45;675daf90a3c1 -->
<g id="edge4" class="edge">
<title>33c710e2&#45;a649&#45;4c54&#45;b973&#45;f60a347a08ba&#45;&gt;9cce28e5&#45;beb6&#45;41de&#45;a742&#45;675daf90a3c1</title>
<path fill="none" stroke="black" d="M88.73,-378.81C89.07,-370.79 89.48,-361.05 89.86,-352.07"/>
<polygon fill="black" stroke="black" points="93.36,-352.17 90.28,-342.03 86.36,-351.87 93.36,-352.17"/>
</g>
<!-- b140e6ca&#45;7014&#45;4122&#45;b3c7&#45;5ae09f3de642 -->
<g id="node6" class="node">
<title>b140e6ca&#45;7014&#45;4122&#45;b3c7&#45;5ae09f3de642</title>
<ellipse fill="none" stroke="black" cx="93" cy="-251" rx="47.1" ry="18"/>
<text text-anchor="middle" x="93" y="-247.3" font-family="Times,serif" font-size="14.00">DelayAction</text>
</g>
<!-- 9cce28e5&#45;beb6&#45;41de&#45;a742&#45;675daf90a3c1&#45;&gt;b140e6ca&#45;7014&#45;4122&#45;b3c7&#45;5ae09f3de642 -->
<g id="edge2" class="edge">
<title>9cce28e5&#45;beb6&#45;41de&#45;a742&#45;675daf90a3c1&#45;&gt;b140e6ca&#45;7014&#45;4122&#45;b3c7&#45;5ae09f3de642</title>
<path fill="none" stroke="black" d="M91.48,-305.81C91.71,-297.79 91.98,-288.05 92.24,-279.07"/>
<polygon fill="black" stroke="black" points="95.74,-279.12 92.52,-269.03 88.74,-278.93 95.74,-279.12"/>
</g>
<!-- bba01e21&#45;1006&#45;48da&#45;bcee&#45;5595b0d3b8b2 -->
<g id="node7" class="node">
<title>bba01e21&#45;1006&#45;48da&#45;bcee&#45;5595b0d3b8b2</title>
<ellipse fill="none" stroke="black" cx="102" cy="-178" rx="59.9" ry="18"/>
<text text-anchor="middle" x="102" y="-174.3" font-family="Times,serif" font-size="14.00">ZeroMovement</text>
</g>
<!-- b140e6ca&#45;7014&#45;4122&#45;b3c7&#45;5ae09f3de642&#45;&gt;bba01e21&#45;1006&#45;48da&#45;bcee&#45;5595b0d3b8b2 -->
<g id="edge3" class="edge">
<title>b140e6ca&#45;7014&#45;4122&#45;b3c7&#45;5ae09f3de642&#45;&gt;bba01e21&#45;1006&#45;48da&#45;bcee&#45;5595b0d3b8b2</title>
<path fill="none" stroke="black" d="M95.18,-232.81C96.2,-224.79 97.43,-215.05 98.57,-206.07"/>
<polygon fill="black" stroke="black" points="102.06,-206.39 99.84,-196.03 95.11,-205.51 102.06,-206.39"/>
</g>
<!-- d15c07b8&#45;c1b2&#45;4dac&#45;95df&#45;67ebc96ddf47 -->
<g id="node11" class="node">
<title>d15c07b8&#45;c1b2&#45;4dac&#45;95df&#45;67ebc96ddf47</title>
<polygon fill="none" stroke="black" stroke-dasharray="5,2" points="211.5,-123 126.5,-123 126.5,-87 211.5,-87 211.5,-123"/>
<text text-anchor="middle" x="169" y="-101.3" font-family="Times,serif" font-size="14.00" fill="blue">Converge</text>
</g>
<!-- bba01e21&#45;1006&#45;48da&#45;bcee&#45;5595b0d3b8b2&#45;&gt;d15c07b8&#45;c1b2&#45;4dac&#45;95df&#45;67ebc96ddf47 -->
<g id="edge8" class="edge">
<title>bba01e21&#45;1006&#45;48da&#45;bcee&#45;5595b0d3b8b2&#45;&gt;d15c07b8&#45;c1b2&#45;4dac&#45;95df&#45;67ebc96ddf47</title>
<path fill="none" stroke="black" d="M117.54,-160.53C125.84,-151.74 136.22,-140.74 145.48,-130.92"/>
<polygon fill="black" stroke="black" points="148.29,-133.04 152.61,-123.37 143.2,-128.24 148.29,-133.04"/>
</g>
<!-- 1140d8ad&#45;4362&#45;46f6&#45;a0b4&#45;683c9d51068b -->
<g id="node8" class="node">
<title>1140d8ad&#45;4362&#45;46f6&#45;a0b4&#45;683c9d51068b</title>
<ellipse fill="none" stroke="black" cx="82" cy="-578" rx="34.8" ry="18"/>
<text text-anchor="middle" x="82" y="-574.3" font-family="Times,serif" font-size="14.00">WaitArm</text>
</g>
<!-- 1140d8ad&#45;4362&#45;46f6&#45;a0b4&#45;683c9d51068b&#45;&gt;2d84fdc8&#45;0b34&#45;4833&#45;8259&#45;1378e8b92d44 -->
<g id="edge5" class="edge">
<title>1140d8ad&#45;4362&#45;46f6&#45;a0b4&#45;683c9d51068b&#45;&gt;2d84fdc8&#45;0b34&#45;4833&#45;8259&#45;1378e8b92d44</title>
<path fill="none" stroke="black" d="M82.96,-559.97C83.9,-543.38 85.35,-517.88 86.45,-498.43"/>
<polygon fill="black" stroke="black" points="89.95,-498.52 87.02,-488.34 82.96,-498.13 89.95,-498.52"/>
</g>
<!-- 5cbeeac4&#45;5707&#45;4425&#45;854b&#45;7fb94c359f34 -->
<g id="node9" class="node">
<title>5cbeeac4&#45;5707&#45;4425&#45;854b&#45;7fb94c359f34</title>
<polygon fill="none" stroke="black" stroke-dasharray="5,2" points="210,-669 112,-669 112,-633 210,-633 210,-669"/>
<text text-anchor="middle" x="161" y="-647.3" font-family="Times,serif" font-size="14.00" fill="blue">Concurrent</text>
</g>
<!-- 5cbeeac4&#45;5707&#45;4425&#45;854b&#45;7fb94c359f34&#45;&gt;1140d8ad&#45;4362&#45;46f6&#45;a0b4&#45;683c9d51068b -->
<g id="edge6" class="edge">
<title>5cbeeac4&#45;5707&#45;4425&#45;854b&#45;7fb94c359f34&#45;&gt;1140d8ad&#45;4362&#45;46f6&#45;a0b4&#45;683c9d51068b</title>
<path fill="none" stroke="black" d="M141.88,-632.81C131.12,-623.14 117.58,-610.98 106.1,-600.66"/>
<polygon fill="black" stroke="black" points="108.32,-597.95 98.54,-593.87 103.64,-603.15 108.32,-597.95"/>
</g>
<!-- 6524d98e&#45;49e0&#45;479a&#45;a53a&#45;e8c168d8ae81 -->
<g id="node10" class="node">
<title>6524d98e&#45;49e0&#45;479a&#45;a53a&#45;e8c168d8ae81</title>
<ellipse fill="none" stroke="black" cx="189" cy="-524" rx="50.7" ry="18"/>
<text text-anchor="middle" x="189" y="-520.3" font-family="Times,serif" font-size="14.00">StartBno055</text>
</g>
<!-- 5cbeeac4&#45;5707&#45;4425&#45;854b&#45;7fb94c359f34&#45;&gt;6524d98e&#45;49e0&#45;479a&#45;a53a&#45;e8c168d8ae81 -->
<g id="edge7" class="edge">
<title>5cbeeac4&#45;5707&#45;4425&#45;854b&#45;7fb94c359f34&#45;&gt;6524d98e&#45;49e0&#45;479a&#45;a53a&#45;e8c168d8ae81</title>
<path fill="none" stroke="black" d="M164.83,-632.88C169.5,-612.05 177.43,-576.64 182.93,-552.09"/>
<polygon fill="black" stroke="black" points="186.35,-552.84 185.12,-542.31 179.52,-551.31 186.35,-552.84"/>
</g>
<!-- 6524d98e&#45;49e0&#45;479a&#45;a53a&#45;e8c168d8ae81&#45;&gt;d15c07b8&#45;c1b2&#45;4dac&#45;95df&#45;67ebc96ddf47 -->
<g id="edge9" class="edge">
<title>6524d98e&#45;49e0&#45;479a&#45;a53a&#45;e8c168d8ae81&#45;&gt;d15c07b8&#45;c1b2&#45;4dac&#45;95df&#45;67ebc96ddf47</title>
<path fill="none" stroke="black" d="M204.82,-506.8C219.47,-490.03 239,-462.36 239,-434 239,-434 239,-434 239,-177 239,-157.25 225.09,-141 209.67,-129.05"/>
<polygon fill="black" stroke="black" points="211.7,-126.2 201.54,-123.2 207.62,-131.88 211.7,-126.2"/>
</g>
<!-- d15c07b8&#45;c1b2&#45;4dac&#45;95df&#45;67ebc96ddf47&#45;&gt;ae560cea&#45;fa6d&#45;43b1&#45;81f7&#45;415e354bd2f3 -->
<g id="edge19" class="edge">
<title>d15c07b8&#45;c1b2&#45;4dac&#45;95df&#45;67ebc96ddf47&#45;&gt;ae560cea&#45;fa6d&#45;43b1&#45;81f7&#45;415e354bd2f3</title>
<path fill="none" stroke="black" d="M206.84,-86.8C237.93,-72.67 281.91,-52.68 314.06,-38.06"/>
<polygon fill="black" stroke="black" points="315.56,-41.23 323.21,-33.9 312.66,-34.85 315.56,-41.23"/>
</g>
<!-- 070514a0&#45;bfef&#45;4735&#45;a3f7&#45;fc22f4c262f9 -->
<g id="node12" class="node">
<title>070514a0&#45;bfef&#45;4735&#45;a3f7&#45;fc22f4c262f9</title>
<polygon fill="none" stroke="black" stroke-dasharray="5,2" points="669,-196 571,-196 571,-160 669,-160 669,-196"/>
<text text-anchor="middle" x="620" y="-174.3" font-family="Times,serif" font-size="14.00" fill="blue">Concurrent</text>
</g>
<!-- 070514a0&#45;bfef&#45;4735&#45;a3f7&#45;fc22f4c262f9&#45;&gt;0038866a&#45;a035&#45;4cd4&#45;a7a8&#45;9be756c9215c -->
<g id="edge11" class="edge">
<title>070514a0&#45;bfef&#45;4735&#45;a3f7&#45;fc22f4c262f9&#45;&gt;0038866a&#45;a035&#45;4cd4&#45;a7a8&#45;9be756c9215c</title>
<path fill="none" stroke="black" d="M620,-159.81C620,-151.79 620,-142.05 620,-133.07"/>
<polygon fill="black" stroke="black" points="623.5,-133.03 620,-123.03 616.5,-133.03 623.5,-133.03"/>
</g>
<!-- 98449fca&#45;cdf7&#45;4e36&#45;b0a0&#45;02d3f53d8b49 -->
<g id="node13" class="node">
<title>98449fca&#45;cdf7&#45;4e36&#45;b0a0&#45;02d3f53d8b49</title>
<ellipse fill="none" stroke="black" cx="902" cy="-105" rx="89.81" ry="18"/>
<text text-anchor="middle" x="902" y="-101.3" font-family="Times,serif" font-size="14.00">AdjustMovementAngle</text>
</g>
<!-- 070514a0&#45;bfef&#45;4735&#45;a3f7&#45;fc22f4c262f9&#45;&gt;98449fca&#45;cdf7&#45;4e36&#45;b0a0&#45;02d3f53d8b49 -->
<g id="edge10" class="edge">
<title>070514a0&#45;bfef&#45;4735&#45;a3f7&#45;fc22f4c262f9&#45;&gt;98449fca&#45;cdf7&#45;4e36&#45;b0a0&#45;02d3f53d8b49</title>
<path fill="none" stroke="black" d="M669.12,-164.63C716.02,-152.83 786.93,-134.97 838.18,-122.07"/>
<polygon fill="black" stroke="black" points="839.32,-125.39 848.16,-119.56 837.61,-118.6 839.32,-125.39"/>
</g>
<!-- 24ac322d&#45;3a5b&#45;4245&#45;8315&#45;660730533918 -->
<g id="node14" class="node">
<title>24ac322d&#45;3a5b&#45;4245&#45;8315&#45;660730533918</title>
<polygon fill="none" stroke="black" stroke-dasharray="5,2" points="1459,-196 1361,-196 1361,-160 1459,-160 1459,-196"/>
<text text-anchor="middle" x="1410" y="-174.3" font-family="Times,serif" font-size="14.00" fill="blue">Concurrent</text>
</g>
<!-- 24ac322d&#45;3a5b&#45;4245&#45;8315&#45;660730533918&#45;&gt;f7cdf623&#45;6b5e&#45;497f&#45;8cb4&#45;84c7e4aebbc8 -->
<g id="edge13" class="edge">
<title>24ac322d&#45;3a5b&#45;4245&#45;8315&#45;660730533918&#45;&gt;f7cdf623&#45;6b5e&#45;497f&#45;8cb4&#45;84c7e4aebbc8</title>
<path fill="none" stroke="black" d="M1410,-159.81C1410,-151.79 1410,-142.05 1410,-133.07"/>
<polygon fill="black" stroke="black" points="1413.5,-133.03 1410,-123.03 1406.5,-133.03 1413.5,-133.03"/>
</g>
<!-- 5dc4471c&#45;0d9f&#45;4413&#45;938d&#45;e2474209e45d -->
<g id="node15" class="node">
<title>5dc4471c&#45;0d9f&#45;4413&#45;938d&#45;e2474209e45d</title>
<ellipse fill="none" stroke="black" cx="1703" cy="-105" rx="89.81" ry="18"/>
<text text-anchor="middle" x="1703" y="-101.3" font-family="Times,serif" font-size="14.00">AdjustMovementAngle</text>
</g>
<!-- 24ac322d&#45;3a5b&#45;4245&#45;8315&#45;660730533918&#45;&gt;5dc4471c&#45;0d9f&#45;4413&#45;938d&#45;e2474209e45d -->
<g id="edge12" class="edge">
<title>24ac322d&#45;3a5b&#45;4245&#45;8315&#45;660730533918&#45;&gt;5dc4471c&#45;0d9f&#45;4413&#45;938d&#45;e2474209e45d</title>
<path fill="none" stroke="black" d="M1459.04,-165.12C1508.19,-153.21 1584.14,-134.8 1638.22,-121.7"/>
<polygon fill="black" stroke="black" points="1639.16,-125.07 1648.06,-119.31 1637.51,-118.27 1639.16,-125.07"/>
</g>
<!-- ae560cea&#45;fa6d&#45;43b1&#45;81f7&#45;415e354bd2f3&#45;&gt;070514a0&#45;bfef&#45;4735&#45;a3f7&#45;fc22f4c262f9 -->
<g id="edge14" class="edge">
<title>ae560cea&#45;fa6d&#45;43b1&#45;81f7&#45;415e354bd2f3&#45;&gt;070514a0&#45;bfef&#45;4735&#45;a3f7&#45;fc22f4c262f9</title>
<path fill="none" stroke="purple" d="M357,-36.12C359.31,-59.29 366.91,-100.32 392,-123 416.53,-145.18 501.87,-160.97 560.89,-169.54"/>
<polygon fill="purple" stroke="purple" points="560.46,-173.01 570.85,-170.95 561.44,-166.08 560.46,-173.01"/>
<text text-anchor="middle" x="427.5" y="-101.3" font-family="Times,serif" font-size="14.00" fill="purple">Pass Data</text>
</g>
<!-- e8ccfb5f&#45;cd02&#45;48c4&#45;819f&#45;2d2cafee9ad9&#45;&gt;24ac322d&#45;3a5b&#45;4245&#45;8315&#45;660730533918 -->
<g id="edge16" class="edge">
<title>e8ccfb5f&#45;cd02&#45;48c4&#45;819f&#45;2d2cafee9ad9&#45;&gt;24ac322d&#45;3a5b&#45;4245&#45;8315&#45;660730533918</title>
<path fill="none" stroke="purple" d="M1136.97,-36.15C1139.24,-59.36 1146.81,-100.44 1172,-123 1198.01,-146.29 1289.19,-161.98 1350.83,-170.19"/>
<polygon fill="purple" stroke="purple" points="1350.47,-173.68 1360.84,-171.5 1351.37,-166.74 1350.47,-173.68"/>
<text text-anchor="middle" x="1207.5" y="-101.3" font-family="Times,serif" font-size="14.00" fill="purple">Pass Data</text>
</g>
</g>
</svg>
