<?xml version="1.0" encoding="UTF-8" standalone="no"?>
<!DOCTYPE svg PUBLIC "-//W3C//DTD SVG 1.1//EN"
 "http://www.w3.org/Graphics/SVG/1.1/DTD/svg11.dtd">
<!-- Generated by graphviz version 2.43.0 (0)
 -->
<!-- Title: G Pages: 1 -->
<svg width="262pt" height="277pt"
 viewBox="0.00 0.00 262.30 277.00" xmlns="http://www.w3.org/2000/svg" xmlns:xlink="http://www.w3.org/1999/xlink">
<g id="graph0" class="graph" transform="scale(1 1) rotate(0) translate(4 273)">
<title>G</title>
<polygon fill="transparent" stroke="transparent" points="-4,4 -4,-273 258.3,-273 258.3,4 -4,4"/>
<!-- ce87a6ab&#45;387c&#45;410d&#45;88c5&#45;10d4effc78a1 -->
<g id="node1" class="node">
<title>ce87a6ab&#45;387c&#45;410d&#45;88c5&#45;10d4effc78a1</title>
<polygon fill="none" stroke="black" points="115.65,-123 50.47,-105 115.65,-87 180.83,-105 115.65,-123"/>
<text text-anchor="middle" x="115.65" y="-101.3" font-family="Times,serif" font-size="14.00">AlwaysTrue</text>
</g>
<!-- b996393b&#45;9c35&#45;478d&#45;86e4&#45;e668f5bdc109 -->
<g id="node4" class="node">
<title>b996393b&#45;9c35&#45;478d&#45;86e4&#45;e668f5bdc109</title>
<ellipse fill="none" stroke="black" cx="34.65" cy="-18" rx="34.8" ry="18"/>
<text text-anchor="middle" x="34.65" y="-14.3" font-family="Times,serif" font-size="14.00">WaitArm</text>
</g>
<!-- ce87a6ab&#45;387c&#45;410d&#45;88c5&#45;10d4effc78a1&#45;&gt;b996393b&#45;9c35&#45;478d&#45;86e4&#45;e668f5bdc109 -->
<g id="edge2" class="edge">
<title>ce87a6ab&#45;387c&#45;410d&#45;88c5&#45;10d4effc78a1&#45;&gt;b996393b&#45;9c35&#45;478d&#45;86e4&#45;e668f5bdc109</title>
<path fill="none" stroke="black" d="M98.99,-91.47C90.97,-85.11 81.44,-77.05 73.65,-69 66.07,-61.17 58.52,-51.92 52.11,-43.52"/>
<polygon fill="black" stroke="black" points="54.9,-41.41 46.12,-35.48 49.29,-45.59 54.9,-41.41"/>
<text text-anchor="middle" x="90.65" y="-57.8" font-family="Times,serif" font-size="14.00">True</text>
</g>
<!-- 1ffe371d&#45;bb84&#45;4b62&#45;9490&#45;06ce6c69fe64 -->
<g id="node5" class="node">
<title>1ffe371d&#45;bb84&#45;4b62&#45;9490&#45;06ce6c69fe64</title>
<ellipse fill="none" stroke="black" cx="197.65" cy="-18" rx="56.8" ry="18"/>
<text text-anchor="middle" x="197.65" y="-14.3" font-family="Times,serif" font-size="14.00">UnwrapAction</text>
</g>
<!-- ce87a6ab&#45;387c&#45;410d&#45;88c5&#45;10d4effc78a1&#45;&gt;1ffe371d&#45;bb84&#45;4b62&#45;9490&#45;06ce6c69fe64 -->
<g id="edge3" class="edge">
<title>ce87a6ab&#45;387c&#45;410d&#45;88c5&#45;10d4effc78a1&#45;&gt;1ffe371d&#45;bb84&#45;4b62&#45;9490&#45;06ce6c69fe64</title>
<path fill="none" stroke="black" d="M128.83,-90.34C141.09,-77.64 159.63,-58.41 174.38,-43.12"/>
<polygon fill="black" stroke="black" points="177.27,-45.17 181.7,-35.54 172.23,-40.31 177.27,-45.17"/>
<text text-anchor="middle" x="179.65" y="-57.8" font-family="Times,serif" font-size="14.00">False</text>
</g>
<!-- 0f432481&#45;8a07&#45;4a87&#45;81f6&#45;2c805076b75a -->
<g id="node2" class="node">
<title>0f432481&#45;8a07&#45;4a87&#45;81f6&#45;2c805076b75a</title>
<ellipse fill="none" stroke="black" cx="115.65" cy="-251" rx="34.8" ry="18"/>
<text text-anchor="middle" x="115.65" y="-247.3" font-family="Times,serif" font-size="14.00">WaitArm</text>
</g>
<!-- e3a87199&#45;00b6&#45;4d4d&#45;aa57&#45;03b7f5b4bab2 -->
<g id="node3" class="node">
<title>e3a87199&#45;00b6&#45;4d4d&#45;aa57&#45;03b7f5b4bab2</title>
<ellipse fill="none" stroke="black" cx="115.65" cy="-178" rx="33.6" ry="18"/>
<text text-anchor="middle" x="115.65" y="-174.3" font-family="Times,serif" font-size="14.00">Descend</text>
</g>
<!-- 0f432481&#45;8a07&#45;4a87&#45;81f6&#45;2c805076b75a&#45;&gt;e3a87199&#45;00b6&#45;4d4d&#45;aa57&#45;03b7f5b4bab2 -->
<g id="edge1" class="edge">
<title>0f432481&#45;8a07&#45;4a87&#45;81f6&#45;2c805076b75a&#45;&gt;e3a87199&#45;00b6&#45;4d4d&#45;aa57&#45;03b7f5b4bab2</title>
<path fill="none" stroke="black" d="M115.65,-232.81C115.65,-224.79 115.65,-215.05 115.65,-206.07"/>
<polygon fill="black" stroke="black" points="119.15,-206.03 115.65,-196.03 112.15,-206.03 119.15,-206.03"/>
</g>
<!-- e3a87199&#45;00b6&#45;4d4d&#45;aa57&#45;03b7f5b4bab2&#45;&gt;ce87a6ab&#45;387c&#45;410d&#45;88c5&#45;10d4effc78a1 -->
<g id="edge4" class="edge">
<title>e3a87199&#45;00b6&#45;4d4d&#45;aa57&#45;03b7f5b4bab2&#45;&gt;ce87a6ab&#45;387c&#45;410d&#45;88c5&#45;10d4effc78a1</title>
<path fill="none" stroke="black" d="M115.65,-159.81C115.65,-151.79 115.65,-142.05 115.65,-133.07"/>
<polygon fill="black" stroke="black" points="119.15,-133.03 115.65,-123.03 112.15,-133.03 119.15,-133.03"/>
</g>
</g>
</svg>
