<?xml version="1.0" encoding="UTF-8" standalone="no"?>
<!DOCTYPE svg PUBLIC "-//W3C//DTD SVG 1.1//EN"
 "http://www.w3.org/Graphics/SVG/1.1/DTD/svg11.dtd">
<!-- Generated by graphviz version 2.43.0 (0)
 -->
<!-- Title: G Pages: 1 -->
<svg width="262pt" height="277pt"
 viewBox="0.00 0.00 262.30 277.00" xmlns="http://www.w3.org/2000/svg" xmlns:xlink="http://www.w3.org/1999/xlink">
<g id="graph0" class="graph" transform="scale(1 1) rotate(0) translate(4 273)">
<title>G</title>
<polygon fill="transparent" stroke="transparent" points="-4,4 -4,-273 258.3,-273 258.3,4 -4,4"/>
<!-- 7cfce05b&#45;7adc&#45;460f&#45;84ec&#45;5f11b96141ce -->
<g id="node1" class="node">
<title>7cfce05b&#45;7adc&#45;460f&#45;84ec&#45;5f11b96141ce</title>
<polygon fill="none" stroke="black" points="115.65,-123 50.47,-105 115.65,-87 180.83,-105 115.65,-123"/>
<text text-anchor="middle" x="115.65" y="-101.3" font-family="Times,serif" font-size="14.00">AlwaysTrue</text>
</g>
<!-- 0d209ab0&#45;8679&#45;47df&#45;bf74&#45;de5fed4b37d9 -->
<g id="node4" class="node">
<title>0d209ab0&#45;8679&#45;47df&#45;bf74&#45;de5fed4b37d9</title>
<ellipse fill="none" stroke="black" cx="34.65" cy="-18" rx="34.8" ry="18"/>
<text text-anchor="middle" x="34.65" y="-14.3" font-family="Times,serif" font-size="14.00">WaitArm</text>
</g>
<!-- 7cfce05b&#45;7adc&#45;460f&#45;84ec&#45;5f11b96141ce&#45;&gt;0d209ab0&#45;8679&#45;47df&#45;bf74&#45;de5fed4b37d9 -->
<g id="edge2" class="edge">
<title>7cfce05b&#45;7adc&#45;460f&#45;84ec&#45;5f11b96141ce&#45;&gt;0d209ab0&#45;8679&#45;47df&#45;bf74&#45;de5fed4b37d9</title>
<path fill="none" stroke="black" d="M98.99,-91.47C90.97,-85.11 81.44,-77.05 73.65,-69 66.07,-61.17 58.52,-51.92 52.11,-43.52"/>
<polygon fill="black" stroke="black" points="54.9,-41.41 46.12,-35.48 49.29,-45.59 54.9,-41.41"/>
<text text-anchor="middle" x="90.65" y="-57.8" font-family="Times,serif" font-size="14.00">True</text>
</g>
<!-- 0ce54743&#45;8c5a&#45;4dcb&#45;8a08&#45;f0c31f6125d3 -->
<g id="node5" class="node">
<title>0ce54743&#45;8c5a&#45;4dcb&#45;8a08&#45;f0c31f6125d3</title>
<ellipse fill="none" stroke="black" cx="197.65" cy="-18" rx="56.8" ry="18"/>
<text text-anchor="middle" x="197.65" y="-14.3" font-family="Times,serif" font-size="14.00">UnwrapAction</text>
</g>
<!-- 7cfce05b&#45;7adc&#45;460f&#45;84ec&#45;5f11b96141ce&#45;&gt;0ce54743&#45;8c5a&#45;4dcb&#45;8a08&#45;f0c31f6125d3 -->
<g id="edge3" class="edge">
<title>7cfce05b&#45;7adc&#45;460f&#45;84ec&#45;5f11b96141ce&#45;&gt;0ce54743&#45;8c5a&#45;4dcb&#45;8a08&#45;f0c31f6125d3</title>
<path fill="none" stroke="black" d="M128.83,-90.34C141.09,-77.64 159.63,-58.41 174.38,-43.12"/>
<polygon fill="black" stroke="black" points="177.27,-45.17 181.7,-35.54 172.23,-40.31 177.27,-45.17"/>
<text text-anchor="middle" x="179.65" y="-57.8" font-family="Times,serif" font-size="14.00">False</text>
</g>
<!-- e17f86fc&#45;0506&#45;457c&#45;98ef&#45;f00d37829363 -->
<g id="node2" class="node">
<title>e17f86fc&#45;0506&#45;457c&#45;98ef&#45;f00d37829363</title>
<ellipse fill="none" stroke="black" cx="115.65" cy="-251" rx="34.8" ry="18"/>
<text text-anchor="middle" x="115.65" y="-247.3" font-family="Times,serif" font-size="14.00">WaitArm</text>
</g>
<!-- 87a8e046&#45;e909&#45;4fdb&#45;938f&#45;6c4d908736b3 -->
<g id="node3" class="node">
<title>87a8e046&#45;e909&#45;4fdb&#45;938f&#45;6c4d908736b3</title>
<ellipse fill="none" stroke="black" cx="115.65" cy="-178" rx="33.6" ry="18"/>
<text text-anchor="middle" x="115.65" y="-174.3" font-family="Times,serif" font-size="14.00">Descend</text>
</g>
<!-- e17f86fc&#45;0506&#45;457c&#45;98ef&#45;f00d37829363&#45;&gt;87a8e046&#45;e909&#45;4fdb&#45;938f&#45;6c4d908736b3 -->
<g id="edge1" class="edge">
<title>e17f86fc&#45;0506&#45;457c&#45;98ef&#45;f00d37829363&#45;&gt;87a8e046&#45;e909&#45;4fdb&#45;938f&#45;6c4d908736b3</title>
<path fill="none" stroke="black" d="M115.65,-232.81C115.65,-224.79 115.65,-215.05 115.65,-206.07"/>
<polygon fill="black" stroke="black" points="119.15,-206.03 115.65,-196.03 112.15,-206.03 119.15,-206.03"/>
</g>
<!-- 87a8e046&#45;e909&#45;4fdb&#45;938f&#45;6c4d908736b3&#45;&gt;7cfce05b&#45;7adc&#45;460f&#45;84ec&#45;5f11b96141ce -->
<g id="edge4" class="edge">
<title>87a8e046&#45;e909&#45;4fdb&#45;938f&#45;6c4d908736b3&#45;&gt;7cfce05b&#45;7adc&#45;460f&#45;84ec&#45;5f11b96141ce</title>
<path fill="none" stroke="black" d="M115.65,-159.81C115.65,-151.79 115.65,-142.05 115.65,-133.07"/>
<polygon fill="black" stroke="black" points="119.15,-133.03 115.65,-123.03 112.15,-133.03 119.15,-133.03"/>
</g>
</g>
</svg>
