<?xml version="1.0" encoding="UTF-8" standalone="no"?>
<!DOCTYPE svg PUBLIC "-//W3C//DTD SVG 1.1//EN"
 "http://www.w3.org/Graphics/SVG/1.1/DTD/svg11.dtd">
<!-- Generated by graphviz version 2.43.0 (0)
 -->
<!-- Title: G Pages: 1 -->
<svg width="264pt" height="926pt"
 viewBox="0.00 0.00 264.00 926.00" xmlns="http://www.w3.org/2000/svg" xmlns:xlink="http://www.w3.org/1999/xlink">
<g id="graph0" class="graph" transform="scale(1 1) rotate(0) translate(4 922)">
<title>G</title>
<polygon fill="transparent" stroke="transparent" points="-4,4 -4,-922 260,-922 260,4 -4,4"/>
<g id="clust1" class="cluster">
<title>cluster_482b7cf9&#45;90cc&#45;4c4b&#45;af82&#45;10ba07da0318</title>
<polygon fill="transparent" stroke="blue" stroke-dasharray="5,2" points="8,-312 8,-910 248,-910 248,-312 8,-312"/>
</g>
<!-- 6014e48e&#45;0ce6&#45;4754&#45;81e4&#45;636499f044ff -->
<g id="node1" class="node">
<title>6014e48e&#45;0ce6&#45;4754&#45;81e4&#45;636499f044ff</title>
<polygon fill="none" stroke="black" stroke-dasharray="5,2" points="185,-902 87,-902 87,-866 185,-866 185,-902"/>
<text text-anchor="middle" x="136" y="-880.3" font-family="Times,serif" font-size="14.00" fill="blue">Concurrent</text>
</g>
<!-- ea50c91f&#45;66e4&#45;40a3&#45;88f0&#45;249fde25dec2 -->
<g id="node3" class="node">
<title>ea50c91f&#45;66e4&#45;40a3&#45;88f0&#45;249fde25dec2</title>
<ellipse fill="none" stroke="black" cx="82" cy="-811" rx="34.8" ry="18"/>
<text text-anchor="middle" x="82" y="-807.3" font-family="Times,serif" font-size="14.00">WaitArm</text>
</g>
<!-- 6014e48e&#45;0ce6&#45;4754&#45;81e4&#45;636499f044ff&#45;&gt;ea50c91f&#45;66e4&#45;40a3&#45;88f0&#45;249fde25dec2 -->
<g id="edge6" class="edge">
<title>6014e48e&#45;0ce6&#45;4754&#45;81e4&#45;636499f044ff&#45;&gt;ea50c91f&#45;66e4&#45;40a3&#45;88f0&#45;249fde25dec2</title>
<path fill="none" stroke="black" d="M122.93,-865.81C116.17,-856.93 107.8,-845.93 100.4,-836.2"/>
<polygon fill="black" stroke="black" points="103.05,-833.9 94.21,-828.06 97.48,-838.13 103.05,-833.9"/>
</g>
<!-- dd43d25c&#45;4bb8&#45;41ac&#45;be3f&#45;f23eae1a3f0d -->
<g id="node9" class="node">
<title>dd43d25c&#45;4bb8&#45;41ac&#45;be3f&#45;f23eae1a3f0d</title>
<ellipse fill="none" stroke="black" cx="189" cy="-757" rx="50.7" ry="18"/>
<text text-anchor="middle" x="189" y="-753.3" font-family="Times,serif" font-size="14.00">StartBno055</text>
</g>
<!-- 6014e48e&#45;0ce6&#45;4754&#45;81e4&#45;636499f044ff&#45;&gt;dd43d25c&#45;4bb8&#45;41ac&#45;be3f&#45;f23eae1a3f0d -->
<g id="edge7" class="edge">
<title>6014e48e&#45;0ce6&#45;4754&#45;81e4&#45;636499f044ff&#45;&gt;dd43d25c&#45;4bb8&#45;41ac&#45;be3f&#45;f23eae1a3f0d</title>
<path fill="none" stroke="black" d="M143.26,-865.88C152.18,-844.84 167.41,-808.92 177.83,-784.35"/>
<polygon fill="black" stroke="black" points="181.15,-785.48 181.83,-774.91 174.7,-782.75 181.15,-785.48"/>
</g>
<!-- 814152ab&#45;afd7&#45;430f&#45;a595&#45;39f1f6a0ccdb -->
<g id="node2" class="node">
<title>814152ab&#45;afd7&#45;430f&#45;a595&#45;39f1f6a0ccdb</title>
<polygon fill="none" stroke="black" stroke-dasharray="5,2" points="192.5,-356 107.5,-356 107.5,-320 192.5,-320 192.5,-356"/>
<text text-anchor="middle" x="150" y="-334.3" font-family="Times,serif" font-size="14.00" fill="blue">Converge</text>
</g>
<!-- 61315cd6&#45;33bb&#45;4fc9&#45;8205&#45;e365f3ce4141 -->
<g id="node10" class="node">
<title>61315cd6&#45;33bb&#45;4fc9&#45;8205&#45;e365f3ce4141</title>
<ellipse fill="none" stroke="black" cx="150" cy="-265" rx="69.71" ry="18"/>
<text text-anchor="middle" x="150" y="-261.3" font-family="Times,serif" font-size="14.00">VisionNormOffset</text>
</g>
<!-- 814152ab&#45;afd7&#45;430f&#45;a595&#45;39f1f6a0ccdb&#45;&gt;61315cd6&#45;33bb&#45;4fc9&#45;8205&#45;e365f3ce4141 -->
<g id="edge15" class="edge">
<title>814152ab&#45;afd7&#45;430f&#45;a595&#45;39f1f6a0ccdb&#45;&gt;61315cd6&#45;33bb&#45;4fc9&#45;8205&#45;e365f3ce4141</title>
<path fill="none" stroke="black" d="M150,-319.81C150,-311.79 150,-302.05 150,-293.07"/>
<polygon fill="black" stroke="black" points="153.5,-293.03 150,-283.03 146.5,-293.03 153.5,-293.03"/>
</g>
<!-- 7afd22a7&#45;6e5a&#45;4f39&#45;9ff3&#45;644df4d0a8b4 -->
<g id="node4" class="node">
<title>7afd22a7&#45;6e5a&#45;4f39&#45;9ff3&#45;644df4d0a8b4</title>
<ellipse fill="none" stroke="black" cx="88" cy="-703" rx="33.6" ry="18"/>
<text text-anchor="middle" x="88" y="-699.3" font-family="Times,serif" font-size="14.00">Descend</text>
</g>
<!-- ea50c91f&#45;66e4&#45;40a3&#45;88f0&#45;249fde25dec2&#45;&gt;7afd22a7&#45;6e5a&#45;4f39&#45;9ff3&#45;644df4d0a8b4 -->
<g id="edge5" class="edge">
<title>ea50c91f&#45;66e4&#45;40a3&#45;88f0&#45;249fde25dec2&#45;&gt;7afd22a7&#45;6e5a&#45;4f39&#45;9ff3&#45;644df4d0a8b4</title>
<path fill="none" stroke="black" d="M82.96,-792.97C83.9,-776.38 85.35,-750.88 86.45,-731.43"/>
<polygon fill="black" stroke="black" points="89.95,-731.52 87.02,-721.34 82.96,-731.13 89.95,-731.52"/>
</g>
<!-- 24d5e1cd&#45;727a&#45;42ba&#45;9d19&#45;9af5a27fd1c5 -->
<g id="node5" class="node">
<title>24d5e1cd&#45;727a&#45;42ba&#45;9d19&#45;9af5a27fd1c5</title>
<ellipse fill="none" stroke="black" cx="88" cy="-630" rx="47.1" ry="18"/>
<text text-anchor="middle" x="88" y="-626.3" font-family="Times,serif" font-size="14.00">DelayAction</text>
</g>
<!-- 7afd22a7&#45;6e5a&#45;4f39&#45;9ff3&#45;644df4d0a8b4&#45;&gt;24d5e1cd&#45;727a&#45;42ba&#45;9d19&#45;9af5a27fd1c5 -->
<g id="edge1" class="edge">
<title>7afd22a7&#45;6e5a&#45;4f39&#45;9ff3&#45;644df4d0a8b4&#45;&gt;24d5e1cd&#45;727a&#45;42ba&#45;9d19&#45;9af5a27fd1c5</title>
<path fill="none" stroke="black" d="M88,-684.81C88,-676.79 88,-667.05 88,-658.07"/>
<polygon fill="black" stroke="black" points="91.5,-658.03 88,-648.03 84.5,-658.03 91.5,-658.03"/>
</g>
<!-- fdc0490d&#45;8aa8&#45;49b9&#45;8ca1&#45;b1084f4d16c2 -->
<g id="node6" class="node">
<title>fdc0490d&#45;8aa8&#45;49b9&#45;8ca1&#45;b1084f4d16c2</title>
<ellipse fill="none" stroke="black" cx="91" cy="-557" rx="74.61" ry="18"/>
<text text-anchor="middle" x="91" y="-553.3" font-family="Times,serif" font-size="14.00">StraightMovement</text>
</g>
<!-- 24d5e1cd&#45;727a&#45;42ba&#45;9d19&#45;9af5a27fd1c5&#45;&gt;fdc0490d&#45;8aa8&#45;49b9&#45;8ca1&#45;b1084f4d16c2 -->
<g id="edge4" class="edge">
<title>24d5e1cd&#45;727a&#45;42ba&#45;9d19&#45;9af5a27fd1c5&#45;&gt;fdc0490d&#45;8aa8&#45;49b9&#45;8ca1&#45;b1084f4d16c2</title>
<path fill="none" stroke="black" d="M88.73,-611.81C89.07,-603.79 89.48,-594.05 89.86,-585.07"/>
<polygon fill="black" stroke="black" points="93.36,-585.17 90.28,-575.03 86.36,-584.87 93.36,-585.17"/>
</g>
<!-- 37d8e1a3&#45;bf73&#45;4a04&#45;99cc&#45;b05d54a4e5da -->
<g id="node7" class="node">
<title>37d8e1a3&#45;bf73&#45;4a04&#45;99cc&#45;b05d54a4e5da</title>
<ellipse fill="none" stroke="black" cx="93" cy="-484" rx="47.1" ry="18"/>
<text text-anchor="middle" x="93" y="-480.3" font-family="Times,serif" font-size="14.00">DelayAction</text>
</g>
<!-- fdc0490d&#45;8aa8&#45;49b9&#45;8ca1&#45;b1084f4d16c2&#45;&gt;37d8e1a3&#45;bf73&#45;4a04&#45;99cc&#45;b05d54a4e5da -->
<g id="edge2" class="edge">
<title>fdc0490d&#45;8aa8&#45;49b9&#45;8ca1&#45;b1084f4d16c2&#45;&gt;37d8e1a3&#45;bf73&#45;4a04&#45;99cc&#45;b05d54a4e5da</title>
<path fill="none" stroke="black" d="M91.48,-538.81C91.71,-530.79 91.98,-521.05 92.24,-512.07"/>
<polygon fill="black" stroke="black" points="95.74,-512.12 92.52,-502.03 88.74,-511.93 95.74,-512.12"/>
</g>
<!-- 29a087eb&#45;d533&#45;49fa&#45;8458&#45;220509f0b3c1 -->
<g id="node8" class="node">
<title>29a087eb&#45;d533&#45;49fa&#45;8458&#45;220509f0b3c1</title>
<ellipse fill="none" stroke="black" cx="102" cy="-411" rx="59.9" ry="18"/>
<text text-anchor="middle" x="102" y="-407.3" font-family="Times,serif" font-size="14.00">ZeroMovement</text>
</g>
<!-- 37d8e1a3&#45;bf73&#45;4a04&#45;99cc&#45;b05d54a4e5da&#45;&gt;29a087eb&#45;d533&#45;49fa&#45;8458&#45;220509f0b3c1 -->
<g id="edge3" class="edge">
<title>37d8e1a3&#45;bf73&#45;4a04&#45;99cc&#45;b05d54a4e5da&#45;&gt;29a087eb&#45;d533&#45;49fa&#45;8458&#45;220509f0b3c1</title>
<path fill="none" stroke="black" d="M95.18,-465.81C96.2,-457.79 97.43,-448.05 98.57,-439.07"/>
<polygon fill="black" stroke="black" points="102.06,-439.39 99.84,-429.03 95.11,-438.51 102.06,-439.39"/>
</g>
<!-- 29a087eb&#45;d533&#45;49fa&#45;8458&#45;220509f0b3c1&#45;&gt;814152ab&#45;afd7&#45;430f&#45;a595&#45;39f1f6a0ccdb -->
<g id="edge8" class="edge">
<title>29a087eb&#45;d533&#45;49fa&#45;8458&#45;220509f0b3c1&#45;&gt;814152ab&#45;afd7&#45;430f&#45;a595&#45;39f1f6a0ccdb</title>
<path fill="none" stroke="black" d="M113.38,-393.17C119.15,-384.63 126.28,-374.08 132.72,-364.56"/>
<polygon fill="black" stroke="black" points="135.67,-366.44 138.37,-356.2 129.87,-362.52 135.67,-366.44"/>
</g>
<!-- dd43d25c&#45;4bb8&#45;41ac&#45;be3f&#45;f23eae1a3f0d&#45;&gt;814152ab&#45;afd7&#45;430f&#45;a595&#45;39f1f6a0ccdb -->
<g id="edge9" class="edge">
<title>dd43d25c&#45;4bb8&#45;41ac&#45;be3f&#45;f23eae1a3f0d&#45;&gt;814152ab&#45;afd7&#45;430f&#45;a595&#45;39f1f6a0ccdb</title>
<path fill="none" stroke="black" d="M204.82,-739.8C219.47,-723.03 239,-695.36 239,-667 239,-667 239,-667 239,-410 239,-387.36 221.18,-370.76 201.49,-359.34"/>
<polygon fill="black" stroke="black" points="203.14,-356.25 192.68,-354.6 199.83,-362.42 203.14,-356.25"/>
</g>
<!-- ac399c43&#45;c72f&#45;4e2d&#45;8074&#45;be8ea930174a -->
<g id="node11" class="node">
<title>ac399c43&#45;c72f&#45;4e2d&#45;8074&#45;be8ea930174a</title>
<polygon fill="none" stroke="black" points="150,-196 78.38,-178 150,-160 221.62,-178 150,-196"/>
<text text-anchor="middle" x="150" y="-174.3" font-family="Times,serif" font-size="14.00">TupleSecond</text>
</g>
<!-- 61315cd6&#45;33bb&#45;4fc9&#45;8205&#45;e365f3ce4141&#45;&gt;ac399c43&#45;c72f&#45;4e2d&#45;8074&#45;be8ea930174a -->
<g id="edge10" class="edge">
<title>61315cd6&#45;33bb&#45;4fc9&#45;8205&#45;e365f3ce4141&#45;&gt;ac399c43&#45;c72f&#45;4e2d&#45;8074&#45;be8ea930174a</title>
<path fill="none" stroke="purple" d="M95.77,-253.36C82.94,-248.18 70.75,-240.47 63,-229 49.84,-209.52 74.72,-196.69 101.2,-188.9"/>
<polygon fill="purple" stroke="purple" points="102.22,-192.25 110.96,-186.26 100.39,-185.5 102.22,-192.25"/>
<text text-anchor="middle" x="98.5" y="-217.8" font-family="Times,serif" font-size="14.00" fill="purple">Pass Data</text>
</g>
<!-- ac399c43&#45;c72f&#45;4e2d&#45;8074&#45;be8ea930174a&#45;&gt;61315cd6&#45;33bb&#45;4fc9&#45;8205&#45;e365f3ce4141 -->
<g id="edge11" class="edge">
<title>ac399c43&#45;c72f&#45;4e2d&#45;8074&#45;be8ea930174a&#45;&gt;61315cd6&#45;33bb&#45;4fc9&#45;8205&#45;e365f3ce4141</title>
<path fill="none" stroke="black" d="M150,-196.18C150,-207.81 150,-223.42 150,-236.73"/>
<polygon fill="black" stroke="black" points="146.5,-236.8 150,-246.8 153.5,-236.8 146.5,-236.8"/>
<text text-anchor="middle" x="167" y="-217.8" font-family="Times,serif" font-size="14.00">True</text>
</g>
<!-- a27a8906&#45;4ca1&#45;4920&#45;ab65&#45;716529fb79a8 -->
<g id="node12" class="node">
<title>a27a8906&#45;4ca1&#45;4920&#45;ab65&#45;716529fb79a8</title>
<ellipse fill="none" stroke="black" cx="150" cy="-105" rx="69.71" ry="18"/>
<text text-anchor="middle" x="150" y="-101.3" font-family="Times,serif" font-size="14.00">VisionNormOffset</text>
</g>
<!-- ac399c43&#45;c72f&#45;4e2d&#45;8074&#45;be8ea930174a&#45;&gt;a27a8906&#45;4ca1&#45;4920&#45;ab65&#45;716529fb79a8 -->
<g id="edge14" class="edge">
<title>ac399c43&#45;c72f&#45;4e2d&#45;8074&#45;be8ea930174a&#45;&gt;a27a8906&#45;4ca1&#45;4920&#45;ab65&#45;716529fb79a8</title>
<path fill="none" stroke="black" d="M150,-159.81C150,-151.79 150,-142.05 150,-133.07"/>
<polygon fill="black" stroke="black" points="153.5,-133.03 150,-123.03 146.5,-133.03 153.5,-133.03"/>
</g>
<!-- 622c6d03&#45;aa84&#45;4d12&#45;8bcf&#45;f06b26053a1e -->
<g id="node13" class="node">
<title>622c6d03&#45;aa84&#45;4d12&#45;8bcf&#45;f06b26053a1e</title>
<polygon fill="none" stroke="black" points="150,-36 78.38,-18 150,0 221.62,-18 150,-36"/>
<text text-anchor="middle" x="150" y="-14.3" font-family="Times,serif" font-size="14.00">TupleSecond</text>
</g>
<!-- a27a8906&#45;4ca1&#45;4920&#45;ab65&#45;716529fb79a8&#45;&gt;622c6d03&#45;aa84&#45;4d12&#45;8bcf&#45;f06b26053a1e -->
<g id="edge12" class="edge">
<title>a27a8906&#45;4ca1&#45;4920&#45;ab65&#45;716529fb79a8&#45;&gt;622c6d03&#45;aa84&#45;4d12&#45;8bcf&#45;f06b26053a1e</title>
<path fill="none" stroke="purple" d="M95.77,-93.36C82.94,-88.18 70.75,-80.47 63,-69 49.84,-49.52 74.72,-36.69 101.2,-28.9"/>
<polygon fill="purple" stroke="purple" points="102.22,-32.25 110.96,-26.26 100.39,-25.5 102.22,-32.25"/>
<text text-anchor="middle" x="98.5" y="-57.8" font-family="Times,serif" font-size="14.00" fill="purple">Pass Data</text>
</g>
<!-- 622c6d03&#45;aa84&#45;4d12&#45;8bcf&#45;f06b26053a1e&#45;&gt;a27a8906&#45;4ca1&#45;4920&#45;ab65&#45;716529fb79a8 -->
<g id="edge13" class="edge">
<title>622c6d03&#45;aa84&#45;4d12&#45;8bcf&#45;f06b26053a1e&#45;&gt;a27a8906&#45;4ca1&#45;4920&#45;ab65&#45;716529fb79a8</title>
<path fill="none" stroke="black" d="M150,-36.18C150,-47.81 150,-63.42 150,-76.73"/>
<polygon fill="black" stroke="black" points="146.5,-76.8 150,-86.8 153.5,-76.8 146.5,-76.8"/>
<text text-anchor="middle" x="167" y="-57.8" font-family="Times,serif" font-size="14.00">True</text>
</g>
</g>
</svg>
