<?xml version="1.0" encoding="UTF-8" standalone="no"?>
<!DOCTYPE svg PUBLIC "-//W3C//DTD SVG 1.1//EN"
 "http://www.w3.org/Graphics/SVG/1.1/DTD/svg11.dtd">
<!-- Generated by graphviz version 2.43.0 (0)
 -->
<!-- Title: G Pages: 1 -->
<svg width="336pt" height="728pt"
 viewBox="0.00 0.00 336.00 728.00" xmlns="http://www.w3.org/2000/svg" xmlns:xlink="http://www.w3.org/1999/xlink">
<g id="graph0" class="graph" transform="scale(1 1) rotate(0) translate(4 724)">
<title>G</title>
<polygon fill="transparent" stroke="transparent" points="-4,4 -4,-724 332,-724 332,4 -4,4"/>
<g id="clust1" class="cluster">
<title>cluster_c13c53f7&#45;7031&#45;402b&#45;9b21&#45;8dcd7b263df9</title>
<polygon fill="transparent" stroke="blue" stroke-dasharray="5,2" points="8,-8 8,-568 320,-568 320,-8 8,-8"/>
</g>
<!-- b40ced44&#45;dd51&#45;4102&#45;aa3c&#45;d223ce938841 -->
<g id="node1" class="node">
<title>b40ced44&#45;dd51&#45;4102&#45;aa3c&#45;d223ce938841</title>
<ellipse fill="none" stroke="black" cx="95" cy="-121" rx="67.81" ry="18"/>
<text text-anchor="middle" x="95" y="-117.3" font-family="Times,serif" font-size="14.00">LinearYawFromX</text>
</g>
<!-- eb22c55b&#45;17f9&#45;4293&#45;a078&#45;40d637ea0deb -->
<g id="node2" class="node">
<title>eb22c55b&#45;17f9&#45;4293&#45;a078&#45;40d637ea0deb</title>
<ellipse fill="none" stroke="black" cx="96" cy="-34" rx="80.11" ry="18"/>
<text text-anchor="middle" x="96" y="-30.3" font-family="Times,serif" font-size="14.00">Stability2Movement</text>
</g>
<!-- b40ced44&#45;dd51&#45;4102&#45;aa3c&#45;d223ce938841&#45;&gt;eb22c55b&#45;17f9&#45;4293&#45;a078&#45;40d637ea0deb -->
<g id="edge1" class="edge">
<title>b40ced44&#45;dd51&#45;4102&#45;aa3c&#45;d223ce938841&#45;&gt;eb22c55b&#45;17f9&#45;4293&#45;a078&#45;40d637ea0deb</title>
<path fill="none" stroke="purple" d="M95.2,-102.8C95.34,-91.16 95.52,-75.55 95.68,-62.24"/>
<polygon fill="purple" stroke="purple" points="99.18,-62.22 95.8,-52.18 92.18,-62.13 99.18,-62.22"/>
<text text-anchor="middle" x="130.5" y="-73.8" font-family="Times,serif" font-size="14.00" fill="purple">Pass Data</text>
</g>
<!-- 53535387&#45;be95&#45;46e6&#45;a6fc&#45;20c7f209f1d5 -->
<g id="node3" class="node">
<title>53535387&#45;be95&#45;46e6&#45;a6fc&#45;20c7f209f1d5</title>
<ellipse fill="none" stroke="black" cx="95" cy="-208" rx="51.3" ry="18"/>
<text text-anchor="middle" x="95" y="-204.3" font-family="Times,serif" font-size="14.00">OffsetToPose</text>
</g>
<!-- 53535387&#45;be95&#45;46e6&#45;a6fc&#45;20c7f209f1d5&#45;&gt;b40ced44&#45;dd51&#45;4102&#45;aa3c&#45;d223ce938841 -->
<g id="edge2" class="edge">
<title>53535387&#45;be95&#45;46e6&#45;a6fc&#45;20c7f209f1d5&#45;&gt;b40ced44&#45;dd51&#45;4102&#45;aa3c&#45;d223ce938841</title>
<path fill="none" stroke="purple" d="M95,-189.8C95,-178.16 95,-162.55 95,-149.24"/>
<polygon fill="purple" stroke="purple" points="98.5,-149.18 95,-139.18 91.5,-149.18 98.5,-149.18"/>
<text text-anchor="middle" x="130.5" y="-160.8" font-family="Times,serif" font-size="14.00" fill="purple">Pass Data</text>
</g>
<!-- b57069df&#45;f509&#45;4c83&#45;85eb&#45;b7b395a2dc14 -->
<g id="node4" class="node">
<title>b57069df&#45;f509&#45;4c83&#45;85eb&#45;b7b395a2dc14</title>
<ellipse fill="none" stroke="black" cx="94" cy="-295" rx="35.5" ry="18"/>
<text text-anchor="middle" x="94" y="-291.3" font-family="Times,serif" font-size="14.00">MidPoint</text>
</g>
<!-- b57069df&#45;f509&#45;4c83&#45;85eb&#45;b7b395a2dc14&#45;&gt;53535387&#45;be95&#45;46e6&#45;a6fc&#45;20c7f209f1d5 -->
<g id="edge3" class="edge">
<title>b57069df&#45;f509&#45;4c83&#45;85eb&#45;b7b395a2dc14&#45;&gt;53535387&#45;be95&#45;46e6&#45;a6fc&#45;20c7f209f1d5</title>
<path fill="none" stroke="purple" d="M94.2,-276.8C94.34,-265.16 94.52,-249.55 94.68,-236.24"/>
<polygon fill="purple" stroke="purple" points="98.18,-236.22 94.8,-226.18 91.18,-236.13 98.18,-236.22"/>
<text text-anchor="middle" x="129.5" y="-247.8" font-family="Times,serif" font-size="14.00" fill="purple">Pass Data</text>
</g>
<!-- 827e48cc&#45;69c4&#45;424a&#45;afe1&#45;918f02d960b8 -->
<g id="node5" class="node">
<title>827e48cc&#45;69c4&#45;424a&#45;afe1&#45;918f02d960b8</title>
<ellipse fill="none" stroke="black" cx="92" cy="-382" rx="61.1" ry="18"/>
<text text-anchor="middle" x="92" y="-378.3" font-family="Times,serif" font-size="14.00">ExtractPosition</text>
</g>
<!-- 827e48cc&#45;69c4&#45;424a&#45;afe1&#45;918f02d960b8&#45;&gt;b57069df&#45;f509&#45;4c83&#45;85eb&#45;b7b395a2dc14 -->
<g id="edge4" class="edge">
<title>827e48cc&#45;69c4&#45;424a&#45;afe1&#45;918f02d960b8&#45;&gt;b57069df&#45;f509&#45;4c83&#45;85eb&#45;b7b395a2dc14</title>
<path fill="none" stroke="purple" d="M92.4,-363.8C92.68,-352.16 93.05,-336.55 93.36,-323.24"/>
<polygon fill="purple" stroke="purple" points="96.86,-323.26 93.6,-313.18 89.86,-323.09 96.86,-323.26"/>
<text text-anchor="middle" x="128.5" y="-334.8" font-family="Times,serif" font-size="14.00" fill="purple">Pass Data</text>
</g>
<!-- ea84d049&#45;c916&#45;4fa0&#45;b884&#45;cdde2eac1d50 -->
<g id="node6" class="node">
<title>ea84d049&#45;c916&#45;4fa0&#45;b884&#45;cdde2eac1d50</title>
<ellipse fill="none" stroke="black" cx="43" cy="-469" rx="27" ry="18"/>
<text text-anchor="middle" x="43" y="-465.3" font-family="Times,serif" font-size="14.00">ToVec</text>
</g>
<!-- ea84d049&#45;c916&#45;4fa0&#45;b884&#45;cdde2eac1d50&#45;&gt;827e48cc&#45;69c4&#45;424a&#45;afe1&#45;918f02d960b8 -->
<g id="edge5" class="edge">
<title>ea84d049&#45;c916&#45;4fa0&#45;b884&#45;cdde2eac1d50&#45;&gt;827e48cc&#45;69c4&#45;424a&#45;afe1&#45;918f02d960b8</title>
<path fill="none" stroke="purple" d="M52.22,-452.01C59.27,-439.78 69.13,-422.68 77.27,-408.56"/>
<polygon fill="purple" stroke="purple" points="80.36,-410.2 82.32,-399.79 74.3,-406.7 80.36,-410.2"/>
<text text-anchor="middle" x="105.5" y="-421.8" font-family="Times,serif" font-size="14.00" fill="purple">Pass Data</text>
</g>
<!-- 9aac468c&#45;9826&#45;4c27&#45;98c2&#45;c6257d4ab4de -->
<g id="node7" class="node">
<title>9aac468c&#45;9826&#45;4c27&#45;98c2&#45;c6257d4ab4de</title>
<polygon fill="none" stroke="black" stroke-dasharray="5,2" points="195,-560 97,-560 97,-524 195,-524 195,-560"/>
<text text-anchor="middle" x="146" y="-538.3" font-family="Times,serif" font-size="14.00" fill="blue">Concurrent</text>
</g>
<!-- 9aac468c&#45;9826&#45;4c27&#45;98c2&#45;c6257d4ab4de&#45;&gt;ea84d049&#45;c916&#45;4fa0&#45;b884&#45;cdde2eac1d50 -->
<g id="edge6" class="edge">
<title>9aac468c&#45;9826&#45;4c27&#45;98c2&#45;c6257d4ab4de&#45;&gt;ea84d049&#45;c916&#45;4fa0&#45;b884&#45;cdde2eac1d50</title>
<path fill="none" stroke="black" d="M121.33,-523.99C105.66,-513.19 85.4,-499.23 69.41,-488.2"/>
<polygon fill="black" stroke="black" points="71.24,-485.21 61.02,-482.42 67.27,-490.98 71.24,-485.21"/>
</g>
<!-- 60052313&#45;b6fb&#45;4a7c&#45;b308&#45;914b8004c696 -->
<g id="node8" class="node">
<title>60052313&#45;b6fb&#45;4a7c&#45;b308&#45;914b8004c696</title>
<ellipse fill="none" stroke="black" cx="227" cy="-469" rx="85.01" ry="18"/>
<text text-anchor="middle" x="227" y="-465.3" font-family="Times,serif" font-size="14.00">Consecutive True &lt; 3</text>
</g>
<!-- 9aac468c&#45;9826&#45;4c27&#45;98c2&#45;c6257d4ab4de&#45;&gt;60052313&#45;b6fb&#45;4a7c&#45;b308&#45;914b8004c696 -->
<g id="edge7" class="edge">
<title>9aac468c&#45;9826&#45;4c27&#45;98c2&#45;c6257d4ab4de&#45;&gt;60052313&#45;b6fb&#45;4a7c&#45;b308&#45;914b8004c696</title>
<path fill="none" stroke="black" d="M165.61,-523.81C176.03,-514.68 189,-503.31 200.32,-493.38"/>
<polygon fill="black" stroke="black" points="202.64,-496.01 207.85,-486.78 198.03,-490.74 202.64,-496.01"/>
</g>
<!-- 57e444cd&#45;7eff&#45;44ba&#45;bfbf&#45;d3416c096e15 -->
<g id="node9" class="node">
<title>57e444cd&#45;7eff&#45;44ba&#45;bfbf&#45;d3416c096e15</title>
<ellipse fill="none" stroke="black" cx="146" cy="-629" rx="75.21" ry="18"/>
<text text-anchor="middle" x="146" y="-625.3" font-family="Times,serif" font-size="14.00">VisionNormBottom</text>
</g>
<!-- 57e444cd&#45;7eff&#45;44ba&#45;bfbf&#45;d3416c096e15&#45;&gt;9aac468c&#45;9826&#45;4c27&#45;98c2&#45;c6257d4ab4de -->
<g id="edge8" class="edge">
<title>57e444cd&#45;7eff&#45;44ba&#45;bfbf&#45;d3416c096e15&#45;&gt;9aac468c&#45;9826&#45;4c27&#45;98c2&#45;c6257d4ab4de</title>
<path fill="none" stroke="purple" d="M146,-610.8C146,-599.16 146,-583.55 146,-570.24"/>
<polygon fill="purple" stroke="purple" points="149.5,-570.18 146,-560.18 142.5,-570.18 149.5,-570.18"/>
<text text-anchor="middle" x="181.5" y="-581.8" font-family="Times,serif" font-size="14.00" fill="purple">Pass Data</text>
</g>
<!-- 41f716a0&#45;d7d8&#45;4592&#45;ae46&#45;c7a90a2dd380 -->
<g id="node10" class="node">
<title>41f716a0&#45;d7d8&#45;4592&#45;ae46&#45;c7a90a2dd380</title>
<ellipse fill="none" stroke="black" cx="146" cy="-702" rx="59.9" ry="18"/>
<text text-anchor="middle" x="146" y="-698.3" font-family="Times,serif" font-size="14.00">ZeroMovement</text>
</g>
<!-- 41f716a0&#45;d7d8&#45;4592&#45;ae46&#45;c7a90a2dd380&#45;&gt;57e444cd&#45;7eff&#45;44ba&#45;bfbf&#45;d3416c096e15 -->
<g id="edge9" class="edge">
<title>41f716a0&#45;d7d8&#45;4592&#45;ae46&#45;c7a90a2dd380&#45;&gt;57e444cd&#45;7eff&#45;44ba&#45;bfbf&#45;d3416c096e15</title>
<path fill="none" stroke="black" d="M146,-683.81C146,-675.79 146,-666.05 146,-657.07"/>
<polygon fill="black" stroke="black" points="149.5,-657.03 146,-647.03 142.5,-657.03 149.5,-657.03"/>
</g>
</g>
</svg>
