<?xml version="1.0" encoding="UTF-8" standalone="no"?>
<!DOCTYPE svg PUBLIC "-//W3C//DTD SVG 1.1//EN"
 "http://www.w3.org/Graphics/SVG/1.1/DTD/svg11.dtd">
<!-- Generated by graphviz version 2.43.0 (0)
 -->
<!-- Title: G Pages: 1 -->
<svg width="336pt" height="728pt"
 viewBox="0.00 0.00 336.00 728.00" xmlns="http://www.w3.org/2000/svg" xmlns:xlink="http://www.w3.org/1999/xlink">
<g id="graph0" class="graph" transform="scale(1 1) rotate(0) translate(4 724)">
<title>G</title>
<polygon fill="transparent" stroke="transparent" points="-4,4 -4,-724 332,-724 332,4 -4,4"/>
<g id="clust1" class="cluster">
<title>cluster_83b89191&#45;6eb3&#45;4aec&#45;9b06&#45;c965d9d409cf</title>
<polygon fill="transparent" stroke="blue" stroke-dasharray="5,2" points="8,-8 8,-568 320,-568 320,-8 8,-8"/>
</g>
<!-- 300c7742&#45;f98c&#45;4cf0&#45;ba11&#45;9c944c144aca -->
<g id="node1" class="node">
<title>300c7742&#45;f98c&#45;4cf0&#45;ba11&#45;9c944c144aca</title>
<ellipse fill="none" stroke="black" cx="95" cy="-121" rx="67.81" ry="18"/>
<text text-anchor="middle" x="95" y="-117.3" font-family="Times,serif" font-size="14.00">LinearYawFromX</text>
</g>
<!-- e844e682&#45;39f8&#45;466f&#45;937d&#45;b0b97f6053b7 -->
<g id="node2" class="node">
<title>e844e682&#45;39f8&#45;466f&#45;937d&#45;b0b97f6053b7</title>
<ellipse fill="none" stroke="black" cx="96" cy="-34" rx="80.11" ry="18"/>
<text text-anchor="middle" x="96" y="-30.3" font-family="Times,serif" font-size="14.00">Stability2Movement</text>
</g>
<!-- 300c7742&#45;f98c&#45;4cf0&#45;ba11&#45;9c944c144aca&#45;&gt;e844e682&#45;39f8&#45;466f&#45;937d&#45;b0b97f6053b7 -->
<g id="edge1" class="edge">
<title>300c7742&#45;f98c&#45;4cf0&#45;ba11&#45;9c944c144aca&#45;&gt;e844e682&#45;39f8&#45;466f&#45;937d&#45;b0b97f6053b7</title>
<path fill="none" stroke="purple" d="M95.2,-102.8C95.34,-91.16 95.52,-75.55 95.68,-62.24"/>
<polygon fill="purple" stroke="purple" points="99.18,-62.22 95.8,-52.18 92.18,-62.13 99.18,-62.22"/>
<text text-anchor="middle" x="130.5" y="-73.8" font-family="Times,serif" font-size="14.00" fill="purple">Pass Data</text>
</g>
<!-- 509baee9&#45;9b86&#45;459f&#45;84a0&#45;f0e499447f32 -->
<g id="node3" class="node">
<title>509baee9&#45;9b86&#45;459f&#45;84a0&#45;f0e499447f32</title>
<ellipse fill="none" stroke="black" cx="95" cy="-208" rx="51.3" ry="18"/>
<text text-anchor="middle" x="95" y="-204.3" font-family="Times,serif" font-size="14.00">OffsetToPose</text>
</g>
<!-- 509baee9&#45;9b86&#45;459f&#45;84a0&#45;f0e499447f32&#45;&gt;300c7742&#45;f98c&#45;4cf0&#45;ba11&#45;9c944c144aca -->
<g id="edge2" class="edge">
<title>509baee9&#45;9b86&#45;459f&#45;84a0&#45;f0e499447f32&#45;&gt;300c7742&#45;f98c&#45;4cf0&#45;ba11&#45;9c944c144aca</title>
<path fill="none" stroke="purple" d="M95,-189.8C95,-178.16 95,-162.55 95,-149.24"/>
<polygon fill="purple" stroke="purple" points="98.5,-149.18 95,-139.18 91.5,-149.18 98.5,-149.18"/>
<text text-anchor="middle" x="130.5" y="-160.8" font-family="Times,serif" font-size="14.00" fill="purple">Pass Data</text>
</g>
<!-- f220e119&#45;9c99&#45;4c9d&#45;a5a2&#45;e3a408c99b45 -->
<g id="node4" class="node">
<title>f220e119&#45;9c99&#45;4c9d&#45;a5a2&#45;e3a408c99b45</title>
<ellipse fill="none" stroke="black" cx="94" cy="-295" rx="35.5" ry="18"/>
<text text-anchor="middle" x="94" y="-291.3" font-family="Times,serif" font-size="14.00">MidPoint</text>
</g>
<!-- f220e119&#45;9c99&#45;4c9d&#45;a5a2&#45;e3a408c99b45&#45;&gt;509baee9&#45;9b86&#45;459f&#45;84a0&#45;f0e499447f32 -->
<g id="edge3" class="edge">
<title>f220e119&#45;9c99&#45;4c9d&#45;a5a2&#45;e3a408c99b45&#45;&gt;509baee9&#45;9b86&#45;459f&#45;84a0&#45;f0e499447f32</title>
<path fill="none" stroke="purple" d="M94.2,-276.8C94.34,-265.16 94.52,-249.55 94.68,-236.24"/>
<polygon fill="purple" stroke="purple" points="98.18,-236.22 94.8,-226.18 91.18,-236.13 98.18,-236.22"/>
<text text-anchor="middle" x="129.5" y="-247.8" font-family="Times,serif" font-size="14.00" fill="purple">Pass Data</text>
</g>
<!-- 3e9c69c2&#45;5006&#45;4610&#45;8a0b&#45;eb40ac6e1850 -->
<g id="node5" class="node">
<title>3e9c69c2&#45;5006&#45;4610&#45;8a0b&#45;eb40ac6e1850</title>
<ellipse fill="none" stroke="black" cx="92" cy="-382" rx="61.1" ry="18"/>
<text text-anchor="middle" x="92" y="-378.3" font-family="Times,serif" font-size="14.00">ExtractPosition</text>
</g>
<!-- 3e9c69c2&#45;5006&#45;4610&#45;8a0b&#45;eb40ac6e1850&#45;&gt;f220e119&#45;9c99&#45;4c9d&#45;a5a2&#45;e3a408c99b45 -->
<g id="edge4" class="edge">
<title>3e9c69c2&#45;5006&#45;4610&#45;8a0b&#45;eb40ac6e1850&#45;&gt;f220e119&#45;9c99&#45;4c9d&#45;a5a2&#45;e3a408c99b45</title>
<path fill="none" stroke="purple" d="M92.4,-363.8C92.68,-352.16 93.05,-336.55 93.36,-323.24"/>
<polygon fill="purple" stroke="purple" points="96.86,-323.26 93.6,-313.18 89.86,-323.09 96.86,-323.26"/>
<text text-anchor="middle" x="128.5" y="-334.8" font-family="Times,serif" font-size="14.00" fill="purple">Pass Data</text>
</g>
<!-- b61aff19&#45;f2ed&#45;41d6&#45;b2d0&#45;be862a5b9c09 -->
<g id="node6" class="node">
<title>b61aff19&#45;f2ed&#45;41d6&#45;b2d0&#45;be862a5b9c09</title>
<ellipse fill="none" stroke="black" cx="43" cy="-469" rx="27" ry="18"/>
<text text-anchor="middle" x="43" y="-465.3" font-family="Times,serif" font-size="14.00">ToVec</text>
</g>
<!-- b61aff19&#45;f2ed&#45;41d6&#45;b2d0&#45;be862a5b9c09&#45;&gt;3e9c69c2&#45;5006&#45;4610&#45;8a0b&#45;eb40ac6e1850 -->
<g id="edge5" class="edge">
<title>b61aff19&#45;f2ed&#45;41d6&#45;b2d0&#45;be862a5b9c09&#45;&gt;3e9c69c2&#45;5006&#45;4610&#45;8a0b&#45;eb40ac6e1850</title>
<path fill="none" stroke="purple" d="M52.22,-452.01C59.27,-439.78 69.13,-422.68 77.27,-408.56"/>
<polygon fill="purple" stroke="purple" points="80.36,-410.2 82.32,-399.79 74.3,-406.7 80.36,-410.2"/>
<text text-anchor="middle" x="105.5" y="-421.8" font-family="Times,serif" font-size="14.00" fill="purple">Pass Data</text>
</g>
<!-- 2aba9036&#45;e909&#45;48b7&#45;b6aa&#45;30b702d454e4 -->
<g id="node7" class="node">
<title>2aba9036&#45;e909&#45;48b7&#45;b6aa&#45;30b702d454e4</title>
<polygon fill="none" stroke="black" stroke-dasharray="5,2" points="195,-560 97,-560 97,-524 195,-524 195,-560"/>
<text text-anchor="middle" x="146" y="-538.3" font-family="Times,serif" font-size="14.00" fill="blue">Concurrent</text>
</g>
<!-- 2aba9036&#45;e909&#45;48b7&#45;b6aa&#45;30b702d454e4&#45;&gt;b61aff19&#45;f2ed&#45;41d6&#45;b2d0&#45;be862a5b9c09 -->
<g id="edge6" class="edge">
<title>2aba9036&#45;e909&#45;48b7&#45;b6aa&#45;30b702d454e4&#45;&gt;b61aff19&#45;f2ed&#45;41d6&#45;b2d0&#45;be862a5b9c09</title>
<path fill="none" stroke="black" d="M121.33,-523.99C105.66,-513.19 85.4,-499.23 69.41,-488.2"/>
<polygon fill="black" stroke="black" points="71.24,-485.21 61.02,-482.42 67.27,-490.98 71.24,-485.21"/>
</g>
<!-- a37b6603&#45;d041&#45;42b8&#45;8773&#45;24d72cd75e12 -->
<g id="node8" class="node">
<title>a37b6603&#45;d041&#45;42b8&#45;8773&#45;24d72cd75e12</title>
<ellipse fill="none" stroke="black" cx="227" cy="-469" rx="85.01" ry="18"/>
<text text-anchor="middle" x="227" y="-465.3" font-family="Times,serif" font-size="14.00">Consecutive True &lt; 3</text>
</g>
<!-- 2aba9036&#45;e909&#45;48b7&#45;b6aa&#45;30b702d454e4&#45;&gt;a37b6603&#45;d041&#45;42b8&#45;8773&#45;24d72cd75e12 -->
<g id="edge7" class="edge">
<title>2aba9036&#45;e909&#45;48b7&#45;b6aa&#45;30b702d454e4&#45;&gt;a37b6603&#45;d041&#45;42b8&#45;8773&#45;24d72cd75e12</title>
<path fill="none" stroke="black" d="M165.61,-523.81C176.03,-514.68 189,-503.31 200.32,-493.38"/>
<polygon fill="black" stroke="black" points="202.64,-496.01 207.85,-486.78 198.03,-490.74 202.64,-496.01"/>
</g>
<!-- 9f10fc6e&#45;570b&#45;4b4c&#45;b033&#45;3f43c5c72f20 -->
<g id="node9" class="node">
<title>9f10fc6e&#45;570b&#45;4b4c&#45;b033&#45;3f43c5c72f20</title>
<ellipse fill="none" stroke="black" cx="146" cy="-629" rx="75.21" ry="18"/>
<text text-anchor="middle" x="146" y="-625.3" font-family="Times,serif" font-size="14.00">VisionNormBottom</text>
</g>
<!-- 9f10fc6e&#45;570b&#45;4b4c&#45;b033&#45;3f43c5c72f20&#45;&gt;2aba9036&#45;e909&#45;48b7&#45;b6aa&#45;30b702d454e4 -->
<g id="edge8" class="edge">
<title>9f10fc6e&#45;570b&#45;4b4c&#45;b033&#45;3f43c5c72f20&#45;&gt;2aba9036&#45;e909&#45;48b7&#45;b6aa&#45;30b702d454e4</title>
<path fill="none" stroke="purple" d="M146,-610.8C146,-599.16 146,-583.55 146,-570.24"/>
<polygon fill="purple" stroke="purple" points="149.5,-570.18 146,-560.18 142.5,-570.18 149.5,-570.18"/>
<text text-anchor="middle" x="181.5" y="-581.8" font-family="Times,serif" font-size="14.00" fill="purple">Pass Data</text>
</g>
<!-- c457353f&#45;ebe1&#45;45c6&#45;b0ae&#45;0d92748e6b51 -->
<g id="node10" class="node">
<title>c457353f&#45;ebe1&#45;45c6&#45;b0ae&#45;0d92748e6b51</title>
<ellipse fill="none" stroke="black" cx="146" cy="-702" rx="59.9" ry="18"/>
<text text-anchor="middle" x="146" y="-698.3" font-family="Times,serif" font-size="14.00">ZeroMovement</text>
</g>
<!-- c457353f&#45;ebe1&#45;45c6&#45;b0ae&#45;0d92748e6b51&#45;&gt;9f10fc6e&#45;570b&#45;4b4c&#45;b033&#45;3f43c5c72f20 -->
<g id="edge9" class="edge">
<title>c457353f&#45;ebe1&#45;45c6&#45;b0ae&#45;0d92748e6b51&#45;&gt;9f10fc6e&#45;570b&#45;4b4c&#45;b033&#45;3f43c5c72f20</title>
<path fill="none" stroke="black" d="M146,-683.81C146,-675.79 146,-666.05 146,-657.07"/>
<polygon fill="black" stroke="black" points="149.5,-657.03 146,-647.03 142.5,-657.03 149.5,-657.03"/>
</g>
</g>
</svg>
