<?xml version="1.0" encoding="UTF-8" standalone="no"?>
<!DOCTYPE svg PUBLIC "-//W3C//DTD SVG 1.1//EN"
 "http://www.w3.org/Graphics/SVG/1.1/DTD/svg11.dtd">
<!-- Generated by graphviz version 2.43.0 (0)
 -->
<!-- Title: G Pages: 1 -->
<svg width="262pt" height="277pt"
 viewBox="0.00 0.00 262.30 277.00" xmlns="http://www.w3.org/2000/svg" xmlns:xlink="http://www.w3.org/1999/xlink">
<g id="graph0" class="graph" transform="scale(1 1) rotate(0) translate(4 273)">
<title>G</title>
<polygon fill="transparent" stroke="transparent" points="-4,4 -4,-273 258.3,-273 258.3,4 -4,4"/>
<!-- 832d4bd3&#45;2447&#45;4141&#45;bbe0&#45;23b50894f6b5 -->
<g id="node1" class="node">
<title>832d4bd3&#45;2447&#45;4141&#45;bbe0&#45;23b50894f6b5</title>
<polygon fill="none" stroke="black" points="115.65,-123 50.47,-105 115.65,-87 180.83,-105 115.65,-123"/>
<text text-anchor="middle" x="115.65" y="-101.3" font-family="Times,serif" font-size="14.00">AlwaysTrue</text>
</g>
<!-- f18030d7&#45;d706&#45;4671&#45;9732&#45;beb82d14c86e -->
<g id="node4" class="node">
<title>f18030d7&#45;d706&#45;4671&#45;9732&#45;beb82d14c86e</title>
<ellipse fill="none" stroke="black" cx="34.65" cy="-18" rx="34.8" ry="18"/>
<text text-anchor="middle" x="34.65" y="-14.3" font-family="Times,serif" font-size="14.00">WaitArm</text>
</g>
<!-- 832d4bd3&#45;2447&#45;4141&#45;bbe0&#45;23b50894f6b5&#45;&gt;f18030d7&#45;d706&#45;4671&#45;9732&#45;beb82d14c86e -->
<g id="edge2" class="edge">
<title>832d4bd3&#45;2447&#45;4141&#45;bbe0&#45;23b50894f6b5&#45;&gt;f18030d7&#45;d706&#45;4671&#45;9732&#45;beb82d14c86e</title>
<path fill="none" stroke="black" d="M98.99,-91.47C90.97,-85.11 81.44,-77.05 73.65,-69 66.07,-61.17 58.52,-51.92 52.11,-43.52"/>
<polygon fill="black" stroke="black" points="54.9,-41.41 46.12,-35.48 49.29,-45.59 54.9,-41.41"/>
<text text-anchor="middle" x="90.65" y="-57.8" font-family="Times,serif" font-size="14.00">True</text>
</g>
<!-- 5ceb1dc7&#45;4eba&#45;41d4&#45;a158&#45;d8e1787aacce -->
<g id="node5" class="node">
<title>5ceb1dc7&#45;4eba&#45;41d4&#45;a158&#45;d8e1787aacce</title>
<ellipse fill="none" stroke="black" cx="197.65" cy="-18" rx="56.8" ry="18"/>
<text text-anchor="middle" x="197.65" y="-14.3" font-family="Times,serif" font-size="14.00">UnwrapAction</text>
</g>
<!-- 832d4bd3&#45;2447&#45;4141&#45;bbe0&#45;23b50894f6b5&#45;&gt;5ceb1dc7&#45;4eba&#45;41d4&#45;a158&#45;d8e1787aacce -->
<g id="edge3" class="edge">
<title>832d4bd3&#45;2447&#45;4141&#45;bbe0&#45;23b50894f6b5&#45;&gt;5ceb1dc7&#45;4eba&#45;41d4&#45;a158&#45;d8e1787aacce</title>
<path fill="none" stroke="black" d="M128.83,-90.34C141.09,-77.64 159.63,-58.41 174.38,-43.12"/>
<polygon fill="black" stroke="black" points="177.27,-45.17 181.7,-35.54 172.23,-40.31 177.27,-45.17"/>
<text text-anchor="middle" x="179.65" y="-57.8" font-family="Times,serif" font-size="14.00">False</text>
</g>
<!-- c3611835&#45;a1f5&#45;45dc&#45;9777&#45;22d5164d7f15 -->
<g id="node2" class="node">
<title>c3611835&#45;a1f5&#45;45dc&#45;9777&#45;22d5164d7f15</title>
<ellipse fill="none" stroke="black" cx="115.65" cy="-251" rx="34.8" ry="18"/>
<text text-anchor="middle" x="115.65" y="-247.3" font-family="Times,serif" font-size="14.00">WaitArm</text>
</g>
<!-- 38798102&#45;1ef9&#45;481c&#45;bbfb&#45;d68819cdbd53 -->
<g id="node3" class="node">
<title>38798102&#45;1ef9&#45;481c&#45;bbfb&#45;d68819cdbd53</title>
<ellipse fill="none" stroke="black" cx="115.65" cy="-178" rx="33.6" ry="18"/>
<text text-anchor="middle" x="115.65" y="-174.3" font-family="Times,serif" font-size="14.00">Descend</text>
</g>
<!-- c3611835&#45;a1f5&#45;45dc&#45;9777&#45;22d5164d7f15&#45;&gt;38798102&#45;1ef9&#45;481c&#45;bbfb&#45;d68819cdbd53 -->
<g id="edge1" class="edge">
<title>c3611835&#45;a1f5&#45;45dc&#45;9777&#45;22d5164d7f15&#45;&gt;38798102&#45;1ef9&#45;481c&#45;bbfb&#45;d68819cdbd53</title>
<path fill="none" stroke="black" d="M115.65,-232.81C115.65,-224.79 115.65,-215.05 115.65,-206.07"/>
<polygon fill="black" stroke="black" points="119.15,-206.03 115.65,-196.03 112.15,-206.03 119.15,-206.03"/>
</g>
<!-- 38798102&#45;1ef9&#45;481c&#45;bbfb&#45;d68819cdbd53&#45;&gt;832d4bd3&#45;2447&#45;4141&#45;bbe0&#45;23b50894f6b5 -->
<g id="edge4" class="edge">
<title>38798102&#45;1ef9&#45;481c&#45;bbfb&#45;d68819cdbd53&#45;&gt;832d4bd3&#45;2447&#45;4141&#45;bbe0&#45;23b50894f6b5</title>
<path fill="none" stroke="black" d="M115.65,-159.81C115.65,-151.79 115.65,-142.05 115.65,-133.07"/>
<polygon fill="black" stroke="black" points="119.15,-133.03 115.65,-123.03 112.15,-133.03 119.15,-133.03"/>
</g>
</g>
</svg>
