<?xml version="1.0" encoding="UTF-8" standalone="no"?>
<!DOCTYPE svg PUBLIC "-//W3C//DTD SVG 1.1//EN"
 "http://www.w3.org/Graphics/SVG/1.1/DTD/svg11.dtd">
<!-- Generated by graphviz version 2.43.0 (0)
 -->
<!-- Title: G Pages: 1 -->
<svg width="158pt" height="404pt"
 viewBox="0.00 0.00 157.61 404.00" xmlns="http://www.w3.org/2000/svg" xmlns:xlink="http://www.w3.org/1999/xlink">
<g id="graph0" class="graph" transform="scale(1 1) rotate(0) translate(4 400)">
<title>G</title>
<polygon fill="transparent" stroke="transparent" points="-4,4 -4,-400 153.61,-400 153.61,4 -4,4"/>
<!-- b2bd66fc&#45;1456&#45;49af&#45;941e&#45;618f5e26599b -->
<g id="node1" class="node">
<title>b2bd66fc&#45;1456&#45;49af&#45;941e&#45;618f5e26599b</title>
<ellipse fill="none" stroke="black" cx="74.8" cy="-306" rx="33.6" ry="18"/>
<text text-anchor="middle" x="74.8" y="-302.3" font-family="Times,serif" font-size="14.00">Descend</text>
</g>
<!-- f888ab0e&#45;761f&#45;463f&#45;a786&#45;15eef7a89a8e -->
<g id="node2" class="node">
<title>f888ab0e&#45;761f&#45;463f&#45;a786&#45;15eef7a89a8e</title>
<ellipse fill="none" stroke="black" cx="74.8" cy="-234" rx="47.1" ry="18"/>
<text text-anchor="middle" x="74.8" y="-230.3" font-family="Times,serif" font-size="14.00">DelayAction</text>
</g>
<!-- b2bd66fc&#45;1456&#45;49af&#45;941e&#45;618f5e26599b&#45;&gt;f888ab0e&#45;761f&#45;463f&#45;a786&#45;15eef7a89a8e -->
<g id="edge1" class="edge">
<title>b2bd66fc&#45;1456&#45;49af&#45;941e&#45;618f5e26599b&#45;&gt;f888ab0e&#45;761f&#45;463f&#45;a786&#45;15eef7a89a8e</title>
<path fill="none" stroke="black" d="M74.8,-287.7C74.8,-279.98 74.8,-270.71 74.8,-262.11"/>
<polygon fill="black" stroke="black" points="78.3,-262.1 74.8,-252.1 71.3,-262.1 78.3,-262.1"/>
</g>
<!-- 2a8d2fa5&#45;32c5&#45;4ebb&#45;a130&#45;d10268e04c8e -->
<g id="node3" class="node">
<title>2a8d2fa5&#45;32c5&#45;4ebb&#45;a130&#45;d10268e04c8e</title>
<ellipse fill="none" stroke="black" cx="74.8" cy="-162" rx="74.61" ry="18"/>
<text text-anchor="middle" x="74.8" y="-158.3" font-family="Times,serif" font-size="14.00">StraightMovement</text>
</g>
<!-- f888ab0e&#45;761f&#45;463f&#45;a786&#45;15eef7a89a8e&#45;&gt;2a8d2fa5&#45;32c5&#45;4ebb&#45;a130&#45;d10268e04c8e -->
<g id="edge4" class="edge">
<title>f888ab0e&#45;761f&#45;463f&#45;a786&#45;15eef7a89a8e&#45;&gt;2a8d2fa5&#45;32c5&#45;4ebb&#45;a130&#45;d10268e04c8e</title>
<path fill="none" stroke="black" d="M74.8,-215.7C74.8,-207.98 74.8,-198.71 74.8,-190.11"/>
<polygon fill="black" stroke="black" points="78.3,-190.1 74.8,-180.1 71.3,-190.1 78.3,-190.1"/>
</g>
<!-- bd408a1b&#45;f4fa&#45;4152&#45;a56c&#45;119db1d03259 -->
<g id="node4" class="node">
<title>bd408a1b&#45;f4fa&#45;4152&#45;a56c&#45;119db1d03259</title>
<ellipse fill="none" stroke="black" cx="74.8" cy="-90" rx="47.1" ry="18"/>
<text text-anchor="middle" x="74.8" y="-86.3" font-family="Times,serif" font-size="14.00">DelayAction</text>
</g>
<!-- 2a8d2fa5&#45;32c5&#45;4ebb&#45;a130&#45;d10268e04c8e&#45;&gt;bd408a1b&#45;f4fa&#45;4152&#45;a56c&#45;119db1d03259 -->
<g id="edge2" class="edge">
<title>2a8d2fa5&#45;32c5&#45;4ebb&#45;a130&#45;d10268e04c8e&#45;&gt;bd408a1b&#45;f4fa&#45;4152&#45;a56c&#45;119db1d03259</title>
<path fill="none" stroke="black" d="M74.8,-143.7C74.8,-135.98 74.8,-126.71 74.8,-118.11"/>
<polygon fill="black" stroke="black" points="78.3,-118.1 74.8,-108.1 71.3,-118.1 78.3,-118.1"/>
</g>
<!-- 447827d6&#45;4c98&#45;4708&#45;925b&#45;6cb2eb6f9180 -->
<g id="node5" class="node">
<title>447827d6&#45;4c98&#45;4708&#45;925b&#45;6cb2eb6f9180</title>
<ellipse fill="none" stroke="black" cx="74.8" cy="-18" rx="59.9" ry="18"/>
<text text-anchor="middle" x="74.8" y="-14.3" font-family="Times,serif" font-size="14.00">ZeroMovement</text>
</g>
<!-- bd408a1b&#45;f4fa&#45;4152&#45;a56c&#45;119db1d03259&#45;&gt;447827d6&#45;4c98&#45;4708&#45;925b&#45;6cb2eb6f9180 -->
<g id="edge3" class="edge">
<title>bd408a1b&#45;f4fa&#45;4152&#45;a56c&#45;119db1d03259&#45;&gt;447827d6&#45;4c98&#45;4708&#45;925b&#45;6cb2eb6f9180</title>
<path fill="none" stroke="black" d="M74.8,-71.7C74.8,-63.98 74.8,-54.71 74.8,-46.11"/>
<polygon fill="black" stroke="black" points="78.3,-46.1 74.8,-36.1 71.3,-46.1 78.3,-46.1"/>
</g>
<!-- ecbf3790&#45;be6b&#45;48a5&#45;bd6c&#45;ddc09d392691 -->
<g id="node6" class="node">
<title>ecbf3790&#45;be6b&#45;48a5&#45;bd6c&#45;ddc09d392691</title>
<ellipse fill="none" stroke="black" cx="74.8" cy="-378" rx="34.8" ry="18"/>
<text text-anchor="middle" x="74.8" y="-374.3" font-family="Times,serif" font-size="14.00">WaitArm</text>
</g>
<!-- ecbf3790&#45;be6b&#45;48a5&#45;bd6c&#45;ddc09d392691&#45;&gt;b2bd66fc&#45;1456&#45;49af&#45;941e&#45;618f5e26599b -->
<g id="edge5" class="edge">
<title>ecbf3790&#45;be6b&#45;48a5&#45;bd6c&#45;ddc09d392691&#45;&gt;b2bd66fc&#45;1456&#45;49af&#45;941e&#45;618f5e26599b</title>
<path fill="none" stroke="black" d="M74.8,-359.7C74.8,-351.98 74.8,-342.71 74.8,-334.11"/>
<polygon fill="black" stroke="black" points="78.3,-334.1 74.8,-324.1 71.3,-334.1 78.3,-334.1"/>
</g>
</g>
</svg>
