<?xml version="1.0" encoding="UTF-8" standalone="no"?>
<!DOCTYPE svg PUBLIC "-//W3C//DTD SVG 1.1//EN"
 "http://www.w3.org/Graphics/SVG/1.1/DTD/svg11.dtd">
<!-- Generated by graphviz version 2.43.0 (0)
 -->
<!-- Title: G Pages: 1 -->
<svg width="336pt" height="728pt"
 viewBox="0.00 0.00 336.00 728.00" xmlns="http://www.w3.org/2000/svg" xmlns:xlink="http://www.w3.org/1999/xlink">
<g id="graph0" class="graph" transform="scale(1 1) rotate(0) translate(4 724)">
<title>G</title>
<polygon fill="transparent" stroke="transparent" points="-4,4 -4,-724 332,-724 332,4 -4,4"/>
<g id="clust1" class="cluster">
<title>cluster_4445440a&#45;b4e3&#45;4dff&#45;93e9&#45;7838e1ed2327</title>
<polygon fill="transparent" stroke="blue" stroke-dasharray="5,2" points="8,-8 8,-568 320,-568 320,-8 8,-8"/>
</g>
<!-- 1101237d&#45;3427&#45;4a31&#45;a375&#45;cac19f916395 -->
<g id="node1" class="node">
<title>1101237d&#45;3427&#45;4a31&#45;a375&#45;cac19f916395</title>
<ellipse fill="none" stroke="black" cx="95" cy="-121" rx="67.81" ry="18"/>
<text text-anchor="middle" x="95" y="-117.3" font-family="Times,serif" font-size="14.00">LinearYawFromX</text>
</g>
<!-- 78ee6806&#45;d8dd&#45;4ee1&#45;bdbe&#45;d5e0c8b8f124 -->
<g id="node2" class="node">
<title>78ee6806&#45;d8dd&#45;4ee1&#45;bdbe&#45;d5e0c8b8f124</title>
<ellipse fill="none" stroke="black" cx="96" cy="-34" rx="80.11" ry="18"/>
<text text-anchor="middle" x="96" y="-30.3" font-family="Times,serif" font-size="14.00">Stability2Movement</text>
</g>
<!-- 1101237d&#45;3427&#45;4a31&#45;a375&#45;cac19f916395&#45;&gt;78ee6806&#45;d8dd&#45;4ee1&#45;bdbe&#45;d5e0c8b8f124 -->
<g id="edge1" class="edge">
<title>1101237d&#45;3427&#45;4a31&#45;a375&#45;cac19f916395&#45;&gt;78ee6806&#45;d8dd&#45;4ee1&#45;bdbe&#45;d5e0c8b8f124</title>
<path fill="none" stroke="purple" d="M95.2,-102.8C95.34,-91.16 95.52,-75.55 95.68,-62.24"/>
<polygon fill="purple" stroke="purple" points="99.18,-62.22 95.8,-52.18 92.18,-62.13 99.18,-62.22"/>
<text text-anchor="middle" x="130.5" y="-73.8" font-family="Times,serif" font-size="14.00" fill="purple">Pass Data</text>
</g>
<!-- c4bb73c3&#45;5daa&#45;4956&#45;a8c6&#45;c8f25058f6f6 -->
<g id="node3" class="node">
<title>c4bb73c3&#45;5daa&#45;4956&#45;a8c6&#45;c8f25058f6f6</title>
<ellipse fill="none" stroke="black" cx="95" cy="-208" rx="51.3" ry="18"/>
<text text-anchor="middle" x="95" y="-204.3" font-family="Times,serif" font-size="14.00">OffsetToPose</text>
</g>
<!-- c4bb73c3&#45;5daa&#45;4956&#45;a8c6&#45;c8f25058f6f6&#45;&gt;1101237d&#45;3427&#45;4a31&#45;a375&#45;cac19f916395 -->
<g id="edge2" class="edge">
<title>c4bb73c3&#45;5daa&#45;4956&#45;a8c6&#45;c8f25058f6f6&#45;&gt;1101237d&#45;3427&#45;4a31&#45;a375&#45;cac19f916395</title>
<path fill="none" stroke="purple" d="M95,-189.8C95,-178.16 95,-162.55 95,-149.24"/>
<polygon fill="purple" stroke="purple" points="98.5,-149.18 95,-139.18 91.5,-149.18 98.5,-149.18"/>
<text text-anchor="middle" x="130.5" y="-160.8" font-family="Times,serif" font-size="14.00" fill="purple">Pass Data</text>
</g>
<!-- 1d6ce799&#45;65a6&#45;456e&#45;97b3&#45;24add8586dc8 -->
<g id="node4" class="node">
<title>1d6ce799&#45;65a6&#45;456e&#45;97b3&#45;24add8586dc8</title>
<ellipse fill="none" stroke="black" cx="94" cy="-295" rx="35.5" ry="18"/>
<text text-anchor="middle" x="94" y="-291.3" font-family="Times,serif" font-size="14.00">MidPoint</text>
</g>
<!-- 1d6ce799&#45;65a6&#45;456e&#45;97b3&#45;24add8586dc8&#45;&gt;c4bb73c3&#45;5daa&#45;4956&#45;a8c6&#45;c8f25058f6f6 -->
<g id="edge3" class="edge">
<title>1d6ce799&#45;65a6&#45;456e&#45;97b3&#45;24add8586dc8&#45;&gt;c4bb73c3&#45;5daa&#45;4956&#45;a8c6&#45;c8f25058f6f6</title>
<path fill="none" stroke="purple" d="M94.2,-276.8C94.34,-265.16 94.52,-249.55 94.68,-236.24"/>
<polygon fill="purple" stroke="purple" points="98.18,-236.22 94.8,-226.18 91.18,-236.13 98.18,-236.22"/>
<text text-anchor="middle" x="129.5" y="-247.8" font-family="Times,serif" font-size="14.00" fill="purple">Pass Data</text>
</g>
<!-- 7fd71425&#45;8178&#45;4eb0&#45;bc6f&#45;fe2284499bee -->
<g id="node5" class="node">
<title>7fd71425&#45;8178&#45;4eb0&#45;bc6f&#45;fe2284499bee</title>
<ellipse fill="none" stroke="black" cx="92" cy="-382" rx="61.1" ry="18"/>
<text text-anchor="middle" x="92" y="-378.3" font-family="Times,serif" font-size="14.00">ExtractPosition</text>
</g>
<!-- 7fd71425&#45;8178&#45;4eb0&#45;bc6f&#45;fe2284499bee&#45;&gt;1d6ce799&#45;65a6&#45;456e&#45;97b3&#45;24add8586dc8 -->
<g id="edge4" class="edge">
<title>7fd71425&#45;8178&#45;4eb0&#45;bc6f&#45;fe2284499bee&#45;&gt;1d6ce799&#45;65a6&#45;456e&#45;97b3&#45;24add8586dc8</title>
<path fill="none" stroke="purple" d="M92.4,-363.8C92.68,-352.16 93.05,-336.55 93.36,-323.24"/>
<polygon fill="purple" stroke="purple" points="96.86,-323.26 93.6,-313.18 89.86,-323.09 96.86,-323.26"/>
<text text-anchor="middle" x="128.5" y="-334.8" font-family="Times,serif" font-size="14.00" fill="purple">Pass Data</text>
</g>
<!-- 7059bb62&#45;7993&#45;4167&#45;b648&#45;f52c60d60640 -->
<g id="node6" class="node">
<title>7059bb62&#45;7993&#45;4167&#45;b648&#45;f52c60d60640</title>
<ellipse fill="none" stroke="black" cx="43" cy="-469" rx="27" ry="18"/>
<text text-anchor="middle" x="43" y="-465.3" font-family="Times,serif" font-size="14.00">ToVec</text>
</g>
<!-- 7059bb62&#45;7993&#45;4167&#45;b648&#45;f52c60d60640&#45;&gt;7fd71425&#45;8178&#45;4eb0&#45;bc6f&#45;fe2284499bee -->
<g id="edge5" class="edge">
<title>7059bb62&#45;7993&#45;4167&#45;b648&#45;f52c60d60640&#45;&gt;7fd71425&#45;8178&#45;4eb0&#45;bc6f&#45;fe2284499bee</title>
<path fill="none" stroke="purple" d="M52.22,-452.01C59.27,-439.78 69.13,-422.68 77.27,-408.56"/>
<polygon fill="purple" stroke="purple" points="80.36,-410.2 82.32,-399.79 74.3,-406.7 80.36,-410.2"/>
<text text-anchor="middle" x="105.5" y="-421.8" font-family="Times,serif" font-size="14.00" fill="purple">Pass Data</text>
</g>
<!-- e589d3c1&#45;3bc8&#45;4162&#45;816c&#45;ba01225afad1 -->
<g id="node7" class="node">
<title>e589d3c1&#45;3bc8&#45;4162&#45;816c&#45;ba01225afad1</title>
<polygon fill="none" stroke="black" stroke-dasharray="5,2" points="195,-560 97,-560 97,-524 195,-524 195,-560"/>
<text text-anchor="middle" x="146" y="-538.3" font-family="Times,serif" font-size="14.00" fill="blue">Concurrent</text>
</g>
<!-- e589d3c1&#45;3bc8&#45;4162&#45;816c&#45;ba01225afad1&#45;&gt;7059bb62&#45;7993&#45;4167&#45;b648&#45;f52c60d60640 -->
<g id="edge6" class="edge">
<title>e589d3c1&#45;3bc8&#45;4162&#45;816c&#45;ba01225afad1&#45;&gt;7059bb62&#45;7993&#45;4167&#45;b648&#45;f52c60d60640</title>
<path fill="none" stroke="black" d="M121.33,-523.99C105.66,-513.19 85.4,-499.23 69.41,-488.2"/>
<polygon fill="black" stroke="black" points="71.24,-485.21 61.02,-482.42 67.27,-490.98 71.24,-485.21"/>
</g>
<!-- 37bce546&#45;b86b&#45;4203&#45;8175&#45;ea966d4c79bf -->
<g id="node8" class="node">
<title>37bce546&#45;b86b&#45;4203&#45;8175&#45;ea966d4c79bf</title>
<ellipse fill="none" stroke="black" cx="227" cy="-469" rx="85.01" ry="18"/>
<text text-anchor="middle" x="227" y="-465.3" font-family="Times,serif" font-size="14.00">Consecutive True &lt; 3</text>
</g>
<!-- e589d3c1&#45;3bc8&#45;4162&#45;816c&#45;ba01225afad1&#45;&gt;37bce546&#45;b86b&#45;4203&#45;8175&#45;ea966d4c79bf -->
<g id="edge7" class="edge">
<title>e589d3c1&#45;3bc8&#45;4162&#45;816c&#45;ba01225afad1&#45;&gt;37bce546&#45;b86b&#45;4203&#45;8175&#45;ea966d4c79bf</title>
<path fill="none" stroke="black" d="M165.61,-523.81C176.03,-514.68 189,-503.31 200.32,-493.38"/>
<polygon fill="black" stroke="black" points="202.64,-496.01 207.85,-486.78 198.03,-490.74 202.64,-496.01"/>
</g>
<!-- 926742ba&#45;bb26&#45;4e95&#45;8ad8&#45;40856c1e5b9f -->
<g id="node9" class="node">
<title>926742ba&#45;bb26&#45;4e95&#45;8ad8&#45;40856c1e5b9f</title>
<ellipse fill="none" stroke="black" cx="146" cy="-629" rx="75.21" ry="18"/>
<text text-anchor="middle" x="146" y="-625.3" font-family="Times,serif" font-size="14.00">VisionNormBottom</text>
</g>
<!-- 926742ba&#45;bb26&#45;4e95&#45;8ad8&#45;40856c1e5b9f&#45;&gt;e589d3c1&#45;3bc8&#45;4162&#45;816c&#45;ba01225afad1 -->
<g id="edge8" class="edge">
<title>926742ba&#45;bb26&#45;4e95&#45;8ad8&#45;40856c1e5b9f&#45;&gt;e589d3c1&#45;3bc8&#45;4162&#45;816c&#45;ba01225afad1</title>
<path fill="none" stroke="purple" d="M146,-610.8C146,-599.16 146,-583.55 146,-570.24"/>
<polygon fill="purple" stroke="purple" points="149.5,-570.18 146,-560.18 142.5,-570.18 149.5,-570.18"/>
<text text-anchor="middle" x="181.5" y="-581.8" font-family="Times,serif" font-size="14.00" fill="purple">Pass Data</text>
</g>
<!-- 10937ae1&#45;a262&#45;48cd&#45;bbb3&#45;6bf25194e684 -->
<g id="node10" class="node">
<title>10937ae1&#45;a262&#45;48cd&#45;bbb3&#45;6bf25194e684</title>
<ellipse fill="none" stroke="black" cx="146" cy="-702" rx="59.9" ry="18"/>
<text text-anchor="middle" x="146" y="-698.3" font-family="Times,serif" font-size="14.00">ZeroMovement</text>
</g>
<!-- 10937ae1&#45;a262&#45;48cd&#45;bbb3&#45;6bf25194e684&#45;&gt;926742ba&#45;bb26&#45;4e95&#45;8ad8&#45;40856c1e5b9f -->
<g id="edge9" class="edge">
<title>10937ae1&#45;a262&#45;48cd&#45;bbb3&#45;6bf25194e684&#45;&gt;926742ba&#45;bb26&#45;4e95&#45;8ad8&#45;40856c1e5b9f</title>
<path fill="none" stroke="black" d="M146,-683.81C146,-675.79 146,-666.05 146,-657.07"/>
<polygon fill="black" stroke="black" points="149.5,-657.03 146,-647.03 142.5,-657.03 149.5,-657.03"/>
</g>
</g>
</svg>
