<?xml version="1.0" encoding="UTF-8" standalone="no"?>
<!DOCTYPE svg PUBLIC "-//W3C//DTD SVG 1.1//EN"
 "http://www.w3.org/Graphics/SVG/1.1/DTD/svg11.dtd">
<!-- Generated by graphviz version 2.43.0 (0)
 -->
<!-- Title: G Pages: 1 -->
<svg width="336pt" height="728pt"
 viewBox="0.00 0.00 336.00 728.00" xmlns="http://www.w3.org/2000/svg" xmlns:xlink="http://www.w3.org/1999/xlink">
<g id="graph0" class="graph" transform="scale(1 1) rotate(0) translate(4 724)">
<title>G</title>
<polygon fill="transparent" stroke="transparent" points="-4,4 -4,-724 332,-724 332,4 -4,4"/>
<g id="clust1" class="cluster">
<title>cluster_1cf10c56&#45;6a2f&#45;4d16&#45;9a82&#45;9b771f3405b7</title>
<polygon fill="transparent" stroke="blue" stroke-dasharray="5,2" points="8,-8 8,-568 320,-568 320,-8 8,-8"/>
</g>
<!-- 20021017&#45;3afd&#45;4bed&#45;8c14&#45;8b0391c9038e -->
<g id="node1" class="node">
<title>20021017&#45;3afd&#45;4bed&#45;8c14&#45;8b0391c9038e</title>
<ellipse fill="none" stroke="black" cx="95" cy="-121" rx="67.81" ry="18"/>
<text text-anchor="middle" x="95" y="-117.3" font-family="Times,serif" font-size="14.00">LinearYawFromX</text>
</g>
<!-- 7de9e5d1&#45;103e&#45;451f&#45;8c17&#45;4fd895e20bb6 -->
<g id="node2" class="node">
<title>7de9e5d1&#45;103e&#45;451f&#45;8c17&#45;4fd895e20bb6</title>
<ellipse fill="none" stroke="black" cx="96" cy="-34" rx="80.11" ry="18"/>
<text text-anchor="middle" x="96" y="-30.3" font-family="Times,serif" font-size="14.00">Stability2Movement</text>
</g>
<!-- 20021017&#45;3afd&#45;4bed&#45;8c14&#45;8b0391c9038e&#45;&gt;7de9e5d1&#45;103e&#45;451f&#45;8c17&#45;4fd895e20bb6 -->
<g id="edge1" class="edge">
<title>20021017&#45;3afd&#45;4bed&#45;8c14&#45;8b0391c9038e&#45;&gt;7de9e5d1&#45;103e&#45;451f&#45;8c17&#45;4fd895e20bb6</title>
<path fill="none" stroke="purple" d="M95.2,-102.8C95.34,-91.16 95.52,-75.55 95.68,-62.24"/>
<polygon fill="purple" stroke="purple" points="99.18,-62.22 95.8,-52.18 92.18,-62.13 99.18,-62.22"/>
<text text-anchor="middle" x="130.5" y="-73.8" font-family="Times,serif" font-size="14.00" fill="purple">Pass Data</text>
</g>
<!-- 4ca7f1cc&#45;6a1f&#45;4035&#45;9c38&#45;75400333619b -->
<g id="node3" class="node">
<title>4ca7f1cc&#45;6a1f&#45;4035&#45;9c38&#45;75400333619b</title>
<ellipse fill="none" stroke="black" cx="95" cy="-208" rx="51.3" ry="18"/>
<text text-anchor="middle" x="95" y="-204.3" font-family="Times,serif" font-size="14.00">OffsetToPose</text>
</g>
<!-- 4ca7f1cc&#45;6a1f&#45;4035&#45;9c38&#45;75400333619b&#45;&gt;20021017&#45;3afd&#45;4bed&#45;8c14&#45;8b0391c9038e -->
<g id="edge2" class="edge">
<title>4ca7f1cc&#45;6a1f&#45;4035&#45;9c38&#45;75400333619b&#45;&gt;20021017&#45;3afd&#45;4bed&#45;8c14&#45;8b0391c9038e</title>
<path fill="none" stroke="purple" d="M95,-189.8C95,-178.16 95,-162.55 95,-149.24"/>
<polygon fill="purple" stroke="purple" points="98.5,-149.18 95,-139.18 91.5,-149.18 98.5,-149.18"/>
<text text-anchor="middle" x="130.5" y="-160.8" font-family="Times,serif" font-size="14.00" fill="purple">Pass Data</text>
</g>
<!-- 92cd3371&#45;7ac3&#45;4d6f&#45;8538&#45;9e980d1e927f -->
<g id="node4" class="node">
<title>92cd3371&#45;7ac3&#45;4d6f&#45;8538&#45;9e980d1e927f</title>
<ellipse fill="none" stroke="black" cx="94" cy="-295" rx="35.5" ry="18"/>
<text text-anchor="middle" x="94" y="-291.3" font-family="Times,serif" font-size="14.00">MidPoint</text>
</g>
<!-- 92cd3371&#45;7ac3&#45;4d6f&#45;8538&#45;9e980d1e927f&#45;&gt;4ca7f1cc&#45;6a1f&#45;4035&#45;9c38&#45;75400333619b -->
<g id="edge3" class="edge">
<title>92cd3371&#45;7ac3&#45;4d6f&#45;8538&#45;9e980d1e927f&#45;&gt;4ca7f1cc&#45;6a1f&#45;4035&#45;9c38&#45;75400333619b</title>
<path fill="none" stroke="purple" d="M94.2,-276.8C94.34,-265.16 94.52,-249.55 94.68,-236.24"/>
<polygon fill="purple" stroke="purple" points="98.18,-236.22 94.8,-226.18 91.18,-236.13 98.18,-236.22"/>
<text text-anchor="middle" x="129.5" y="-247.8" font-family="Times,serif" font-size="14.00" fill="purple">Pass Data</text>
</g>
<!-- 8362e992&#45;0630&#45;4382&#45;a53e&#45;dfd14a495295 -->
<g id="node5" class="node">
<title>8362e992&#45;0630&#45;4382&#45;a53e&#45;dfd14a495295</title>
<ellipse fill="none" stroke="black" cx="92" cy="-382" rx="61.1" ry="18"/>
<text text-anchor="middle" x="92" y="-378.3" font-family="Times,serif" font-size="14.00">ExtractPosition</text>
</g>
<!-- 8362e992&#45;0630&#45;4382&#45;a53e&#45;dfd14a495295&#45;&gt;92cd3371&#45;7ac3&#45;4d6f&#45;8538&#45;9e980d1e927f -->
<g id="edge4" class="edge">
<title>8362e992&#45;0630&#45;4382&#45;a53e&#45;dfd14a495295&#45;&gt;92cd3371&#45;7ac3&#45;4d6f&#45;8538&#45;9e980d1e927f</title>
<path fill="none" stroke="purple" d="M92.4,-363.8C92.68,-352.16 93.05,-336.55 93.36,-323.24"/>
<polygon fill="purple" stroke="purple" points="96.86,-323.26 93.6,-313.18 89.86,-323.09 96.86,-323.26"/>
<text text-anchor="middle" x="128.5" y="-334.8" font-family="Times,serif" font-size="14.00" fill="purple">Pass Data</text>
</g>
<!-- c22d3a1a&#45;d3f8&#45;4881&#45;b8ca&#45;0bbd3cc5ed97 -->
<g id="node6" class="node">
<title>c22d3a1a&#45;d3f8&#45;4881&#45;b8ca&#45;0bbd3cc5ed97</title>
<ellipse fill="none" stroke="black" cx="43" cy="-469" rx="27" ry="18"/>
<text text-anchor="middle" x="43" y="-465.3" font-family="Times,serif" font-size="14.00">ToVec</text>
</g>
<!-- c22d3a1a&#45;d3f8&#45;4881&#45;b8ca&#45;0bbd3cc5ed97&#45;&gt;8362e992&#45;0630&#45;4382&#45;a53e&#45;dfd14a495295 -->
<g id="edge5" class="edge">
<title>c22d3a1a&#45;d3f8&#45;4881&#45;b8ca&#45;0bbd3cc5ed97&#45;&gt;8362e992&#45;0630&#45;4382&#45;a53e&#45;dfd14a495295</title>
<path fill="none" stroke="purple" d="M52.22,-452.01C59.27,-439.78 69.13,-422.68 77.27,-408.56"/>
<polygon fill="purple" stroke="purple" points="80.36,-410.2 82.32,-399.79 74.3,-406.7 80.36,-410.2"/>
<text text-anchor="middle" x="105.5" y="-421.8" font-family="Times,serif" font-size="14.00" fill="purple">Pass Data</text>
</g>
<!-- aaea587f&#45;b82e&#45;473c&#45;a51a&#45;9d95680cd829 -->
<g id="node7" class="node">
<title>aaea587f&#45;b82e&#45;473c&#45;a51a&#45;9d95680cd829</title>
<polygon fill="none" stroke="black" stroke-dasharray="5,2" points="195,-560 97,-560 97,-524 195,-524 195,-560"/>
<text text-anchor="middle" x="146" y="-538.3" font-family="Times,serif" font-size="14.00" fill="blue">Concurrent</text>
</g>
<!-- aaea587f&#45;b82e&#45;473c&#45;a51a&#45;9d95680cd829&#45;&gt;c22d3a1a&#45;d3f8&#45;4881&#45;b8ca&#45;0bbd3cc5ed97 -->
<g id="edge6" class="edge">
<title>aaea587f&#45;b82e&#45;473c&#45;a51a&#45;9d95680cd829&#45;&gt;c22d3a1a&#45;d3f8&#45;4881&#45;b8ca&#45;0bbd3cc5ed97</title>
<path fill="none" stroke="black" d="M121.33,-523.99C105.66,-513.19 85.4,-499.23 69.41,-488.2"/>
<polygon fill="black" stroke="black" points="71.24,-485.21 61.02,-482.42 67.27,-490.98 71.24,-485.21"/>
</g>
<!-- abdbbf85&#45;ff8d&#45;4e72&#45;aca4&#45;84fe1e392c26 -->
<g id="node8" class="node">
<title>abdbbf85&#45;ff8d&#45;4e72&#45;aca4&#45;84fe1e392c26</title>
<ellipse fill="none" stroke="black" cx="227" cy="-469" rx="85.01" ry="18"/>
<text text-anchor="middle" x="227" y="-465.3" font-family="Times,serif" font-size="14.00">Consecutive True &lt; 3</text>
</g>
<!-- aaea587f&#45;b82e&#45;473c&#45;a51a&#45;9d95680cd829&#45;&gt;abdbbf85&#45;ff8d&#45;4e72&#45;aca4&#45;84fe1e392c26 -->
<g id="edge7" class="edge">
<title>aaea587f&#45;b82e&#45;473c&#45;a51a&#45;9d95680cd829&#45;&gt;abdbbf85&#45;ff8d&#45;4e72&#45;aca4&#45;84fe1e392c26</title>
<path fill="none" stroke="black" d="M165.61,-523.81C176.03,-514.68 189,-503.31 200.32,-493.38"/>
<polygon fill="black" stroke="black" points="202.64,-496.01 207.85,-486.78 198.03,-490.74 202.64,-496.01"/>
</g>
<!-- c1918072&#45;123a&#45;40bb&#45;a22c&#45;dbe939ffb963 -->
<g id="node9" class="node">
<title>c1918072&#45;123a&#45;40bb&#45;a22c&#45;dbe939ffb963</title>
<ellipse fill="none" stroke="black" cx="146" cy="-629" rx="75.21" ry="18"/>
<text text-anchor="middle" x="146" y="-625.3" font-family="Times,serif" font-size="14.00">VisionNormBottom</text>
</g>
<!-- c1918072&#45;123a&#45;40bb&#45;a22c&#45;dbe939ffb963&#45;&gt;aaea587f&#45;b82e&#45;473c&#45;a51a&#45;9d95680cd829 -->
<g id="edge8" class="edge">
<title>c1918072&#45;123a&#45;40bb&#45;a22c&#45;dbe939ffb963&#45;&gt;aaea587f&#45;b82e&#45;473c&#45;a51a&#45;9d95680cd829</title>
<path fill="none" stroke="purple" d="M146,-610.8C146,-599.16 146,-583.55 146,-570.24"/>
<polygon fill="purple" stroke="purple" points="149.5,-570.18 146,-560.18 142.5,-570.18 149.5,-570.18"/>
<text text-anchor="middle" x="181.5" y="-581.8" font-family="Times,serif" font-size="14.00" fill="purple">Pass Data</text>
</g>
<!-- 8a0d0d20&#45;ed22&#45;4bba&#45;9d6b&#45;500bc606fea2 -->
<g id="node10" class="node">
<title>8a0d0d20&#45;ed22&#45;4bba&#45;9d6b&#45;500bc606fea2</title>
<ellipse fill="none" stroke="black" cx="146" cy="-702" rx="59.9" ry="18"/>
<text text-anchor="middle" x="146" y="-698.3" font-family="Times,serif" font-size="14.00">ZeroMovement</text>
</g>
<!-- 8a0d0d20&#45;ed22&#45;4bba&#45;9d6b&#45;500bc606fea2&#45;&gt;c1918072&#45;123a&#45;40bb&#45;a22c&#45;dbe939ffb963 -->
<g id="edge9" class="edge">
<title>8a0d0d20&#45;ed22&#45;4bba&#45;9d6b&#45;500bc606fea2&#45;&gt;c1918072&#45;123a&#45;40bb&#45;a22c&#45;dbe939ffb963</title>
<path fill="none" stroke="black" d="M146,-683.81C146,-675.79 146,-666.05 146,-657.07"/>
<polygon fill="black" stroke="black" points="149.5,-657.03 146,-647.03 142.5,-657.03 149.5,-657.03"/>
</g>
</g>
</svg>
