<?xml version="1.0" encoding="UTF-8" standalone="no"?>
<!DOCTYPE svg PUBLIC "-//W3C//DTD SVG 1.1//EN"
 "http://www.w3.org/Graphics/SVG/1.1/DTD/svg11.dtd">
<!-- Generated by graphviz version 2.43.0 (0)
 -->
<!-- Title: G Pages: 1 -->
<svg width="1817pt" height="693pt"
 viewBox="0.00 0.00 1817.00 693.00" xmlns="http://www.w3.org/2000/svg" xmlns:xlink="http://www.w3.org/1999/xlink">
<g id="graph0" class="graph" transform="scale(1 1) rotate(0) translate(4 689)">
<title>G</title>
<polygon fill="transparent" stroke="transparent" points="-4,4 -4,-689 1813,-689 1813,4 -4,4"/>
<g id="clust1" class="cluster">
<title>cluster_5e3765a2&#45;dacf&#45;46c0&#45;9e83&#45;b0d6b68bf71b</title>
<polygon fill="transparent" stroke="blue" stroke-dasharray="5,2" points="8,-79 8,-677 248,-677 248,-79 8,-79"/>
</g>
<g id="clust2" class="cluster">
<title>cluster_b2a5fafc&#45;8b47&#45;4d90&#45;b3b4&#45;a71eb9a3734a</title>
<polygon fill="transparent" stroke="blue" stroke-dasharray="5,2" points="491,-79 491,-204 1000,-204 1000,-79 491,-79"/>
</g>
<g id="clust3" class="cluster">
<title>cluster_1d4e7da8&#45;f8b8&#45;49f5&#45;b4b3&#45;2f482eb72eb3</title>
<polygon fill="transparent" stroke="blue" stroke-dasharray="5,2" points="1271,-79 1271,-204 1801,-204 1801,-79 1271,-79"/>
</g>
<!-- 006fbdab&#45;6531&#45;483b&#45;8e4a&#45;7a662984b924 -->
<g id="node1" class="node">
<title>006fbdab&#45;6531&#45;483b&#45;8e4a&#45;7a662984b924</title>
<polygon fill="none" stroke="black" points="620,-123 499.37,-105 620,-87 740.63,-105 620,-123"/>
<text text-anchor="middle" x="620" y="-101.3" font-family="Times,serif" font-size="14.00">Consecutive True &lt; 3</text>
</g>
<!-- 47de1d29&#45;1d5b&#45;4214&#45;a67d&#45;3e697d177201 -->
<g id="node16" class="node">
<title>47de1d29&#45;1d5b&#45;4214&#45;a67d&#45;3e697d177201</title>
<ellipse fill="none" stroke="black" cx="356" cy="-18" rx="69.71" ry="18"/>
<text text-anchor="middle" x="356" y="-14.3" font-family="Times,serif" font-size="14.00">VisionNormOffset</text>
</g>
<!-- 006fbdab&#45;6531&#45;483b&#45;8e4a&#45;7a662984b924&#45;&gt;47de1d29&#45;1d5b&#45;4214&#45;a67d&#45;3e697d177201 -->
<g id="edge15" class="edge">
<title>006fbdab&#45;6531&#45;483b&#45;8e4a&#45;7a662984b924&#45;&gt;47de1d29&#45;1d5b&#45;4214&#45;a67d&#45;3e697d177201</title>
<path fill="none" stroke="black" d="M583.85,-92.36C538.21,-77.67 459.41,-52.29 407.49,-35.58"/>
<polygon fill="black" stroke="black" points="408.4,-32.19 397.8,-32.46 406.25,-38.86 408.4,-32.19"/>
<text text-anchor="middle" x="520" y="-57.8" font-family="Times,serif" font-size="14.00">True</text>
</g>
<!-- d544a964&#45;bc3a&#45;4489&#45;821a&#45;8edbba285435 -->
<g id="node17" class="node">
<title>d544a964&#45;bc3a&#45;4489&#45;821a&#45;8edbba285435</title>
<ellipse fill="none" stroke="black" cx="1136" cy="-18" rx="69.71" ry="18"/>
<text text-anchor="middle" x="1136" y="-14.3" font-family="Times,serif" font-size="14.00">VisionNormOffset</text>
</g>
<!-- 006fbdab&#45;6531&#45;483b&#45;8e4a&#45;7a662984b924&#45;&gt;d544a964&#45;bc3a&#45;4489&#45;821a&#45;8edbba285435 -->
<g id="edge18" class="edge">
<title>006fbdab&#45;6531&#45;483b&#45;8e4a&#45;7a662984b924&#45;&gt;d544a964&#45;bc3a&#45;4489&#45;821a&#45;8edbba285435</title>
<path fill="none" stroke="black" d="M674.25,-95.06C769.28,-79.41 965.57,-47.07 1068.95,-30.05"/>
<polygon fill="black" stroke="black" points="1069.66,-33.47 1078.96,-28.4 1068.53,-26.57 1069.66,-33.47"/>
<text text-anchor="middle" x="927" y="-57.8" font-family="Times,serif" font-size="14.00">False</text>
</g>
<!-- 28b77847&#45;bff2&#45;4ee7&#45;95d3&#45;de939192030b -->
<g id="node2" class="node">
<title>28b77847&#45;bff2&#45;4ee7&#45;95d3&#45;de939192030b</title>
<polygon fill="none" stroke="black" points="1410,-123 1278.59,-105 1410,-87 1541.41,-105 1410,-123"/>
<text text-anchor="middle" x="1410" y="-101.3" font-family="Times,serif" font-size="14.00">Consecutive False &lt; 10</text>
</g>
<!-- 28b77847&#45;bff2&#45;4ee7&#45;95d3&#45;de939192030b&#45;&gt;d544a964&#45;bc3a&#45;4489&#45;821a&#45;8edbba285435 -->
<g id="edge17" class="edge">
<title>28b77847&#45;bff2&#45;4ee7&#45;95d3&#45;de939192030b&#45;&gt;d544a964&#45;bc3a&#45;4489&#45;821a&#45;8edbba285435</title>
<path fill="none" stroke="black" d="M1371.9,-92.18C1324.14,-77.37 1242.05,-51.9 1188.4,-35.26"/>
<polygon fill="black" stroke="black" points="1189.32,-31.88 1178.73,-32.25 1187.24,-38.56 1189.32,-31.88"/>
<text text-anchor="middle" x="1306" y="-57.8" font-family="Times,serif" font-size="14.00">True</text>
</g>
<!-- 518cd20a&#45;ff21&#45;4711&#45;a173&#45;96930655c956 -->
<g id="node3" class="node">
<title>518cd20a&#45;ff21&#45;4711&#45;a173&#45;96930655c956</title>
<ellipse fill="none" stroke="black" cx="88" cy="-470" rx="33.6" ry="18"/>
<text text-anchor="middle" x="88" y="-466.3" font-family="Times,serif" font-size="14.00">Descend</text>
</g>
<!-- 1a745e45&#45;97b8&#45;4a79&#45;868e&#45;674648ed2bc3 -->
<g id="node4" class="node">
<title>1a745e45&#45;97b8&#45;4a79&#45;868e&#45;674648ed2bc3</title>
<ellipse fill="none" stroke="black" cx="88" cy="-397" rx="47.1" ry="18"/>
<text text-anchor="middle" x="88" y="-393.3" font-family="Times,serif" font-size="14.00">DelayAction</text>
</g>
<!-- 518cd20a&#45;ff21&#45;4711&#45;a173&#45;96930655c956&#45;&gt;1a745e45&#45;97b8&#45;4a79&#45;868e&#45;674648ed2bc3 -->
<g id="edge1" class="edge">
<title>518cd20a&#45;ff21&#45;4711&#45;a173&#45;96930655c956&#45;&gt;1a745e45&#45;97b8&#45;4a79&#45;868e&#45;674648ed2bc3</title>
<path fill="none" stroke="black" d="M88,-451.81C88,-443.79 88,-434.05 88,-425.07"/>
<polygon fill="black" stroke="black" points="91.5,-425.03 88,-415.03 84.5,-425.03 91.5,-425.03"/>
</g>
<!-- d6f2e1ef&#45;626d&#45;4743&#45;bf9d&#45;7a28fa987580 -->
<g id="node5" class="node">
<title>d6f2e1ef&#45;626d&#45;4743&#45;bf9d&#45;7a28fa987580</title>
<ellipse fill="none" stroke="black" cx="91" cy="-324" rx="74.61" ry="18"/>
<text text-anchor="middle" x="91" y="-320.3" font-family="Times,serif" font-size="14.00">StraightMovement</text>
</g>
<!-- 1a745e45&#45;97b8&#45;4a79&#45;868e&#45;674648ed2bc3&#45;&gt;d6f2e1ef&#45;626d&#45;4743&#45;bf9d&#45;7a28fa987580 -->
<g id="edge4" class="edge">
<title>1a745e45&#45;97b8&#45;4a79&#45;868e&#45;674648ed2bc3&#45;&gt;d6f2e1ef&#45;626d&#45;4743&#45;bf9d&#45;7a28fa987580</title>
<path fill="none" stroke="black" d="M88.73,-378.81C89.07,-370.79 89.48,-361.05 89.86,-352.07"/>
<polygon fill="black" stroke="black" points="93.36,-352.17 90.28,-342.03 86.36,-351.87 93.36,-352.17"/>
</g>
<!-- 57159ddd&#45;c415&#45;46d3&#45;960c&#45;7a4b76c05ff1 -->
<g id="node6" class="node">
<title>57159ddd&#45;c415&#45;46d3&#45;960c&#45;7a4b76c05ff1</title>
<ellipse fill="none" stroke="black" cx="93" cy="-251" rx="47.1" ry="18"/>
<text text-anchor="middle" x="93" y="-247.3" font-family="Times,serif" font-size="14.00">DelayAction</text>
</g>
<!-- d6f2e1ef&#45;626d&#45;4743&#45;bf9d&#45;7a28fa987580&#45;&gt;57159ddd&#45;c415&#45;46d3&#45;960c&#45;7a4b76c05ff1 -->
<g id="edge2" class="edge">
<title>d6f2e1ef&#45;626d&#45;4743&#45;bf9d&#45;7a28fa987580&#45;&gt;57159ddd&#45;c415&#45;46d3&#45;960c&#45;7a4b76c05ff1</title>
<path fill="none" stroke="black" d="M91.48,-305.81C91.71,-297.79 91.98,-288.05 92.24,-279.07"/>
<polygon fill="black" stroke="black" points="95.74,-279.12 92.52,-269.03 88.74,-278.93 95.74,-279.12"/>
</g>
<!-- e5ab2374&#45;6b20&#45;4118&#45;8442&#45;540701a1ab1c -->
<g id="node7" class="node">
<title>e5ab2374&#45;6b20&#45;4118&#45;8442&#45;540701a1ab1c</title>
<ellipse fill="none" stroke="black" cx="102" cy="-178" rx="59.9" ry="18"/>
<text text-anchor="middle" x="102" y="-174.3" font-family="Times,serif" font-size="14.00">ZeroMovement</text>
</g>
<!-- 57159ddd&#45;c415&#45;46d3&#45;960c&#45;7a4b76c05ff1&#45;&gt;e5ab2374&#45;6b20&#45;4118&#45;8442&#45;540701a1ab1c -->
<g id="edge3" class="edge">
<title>57159ddd&#45;c415&#45;46d3&#45;960c&#45;7a4b76c05ff1&#45;&gt;e5ab2374&#45;6b20&#45;4118&#45;8442&#45;540701a1ab1c</title>
<path fill="none" stroke="black" d="M95.18,-232.81C96.2,-224.79 97.43,-215.05 98.57,-206.07"/>
<polygon fill="black" stroke="black" points="102.06,-206.39 99.84,-196.03 95.11,-205.51 102.06,-206.39"/>
</g>
<!-- 00a4d289&#45;f46a&#45;4452&#45;93f4&#45;8fa51df0e14c -->
<g id="node11" class="node">
<title>00a4d289&#45;f46a&#45;4452&#45;93f4&#45;8fa51df0e14c</title>
<polygon fill="none" stroke="black" stroke-dasharray="5,2" points="211.5,-123 126.5,-123 126.5,-87 211.5,-87 211.5,-123"/>
<text text-anchor="middle" x="169" y="-101.3" font-family="Times,serif" font-size="14.00" fill="blue">Converge</text>
</g>
<!-- e5ab2374&#45;6b20&#45;4118&#45;8442&#45;540701a1ab1c&#45;&gt;00a4d289&#45;f46a&#45;4452&#45;93f4&#45;8fa51df0e14c -->
<g id="edge8" class="edge">
<title>e5ab2374&#45;6b20&#45;4118&#45;8442&#45;540701a1ab1c&#45;&gt;00a4d289&#45;f46a&#45;4452&#45;93f4&#45;8fa51df0e14c</title>
<path fill="none" stroke="black" d="M117.54,-160.53C125.84,-151.74 136.22,-140.74 145.48,-130.92"/>
<polygon fill="black" stroke="black" points="148.29,-133.04 152.61,-123.37 143.2,-128.24 148.29,-133.04"/>
</g>
<!-- 06962f7d&#45;dd0c&#45;4f64&#45;92f3&#45;49260519cba4 -->
<g id="node8" class="node">
<title>06962f7d&#45;dd0c&#45;4f64&#45;92f3&#45;49260519cba4</title>
<ellipse fill="none" stroke="black" cx="82" cy="-578" rx="34.8" ry="18"/>
<text text-anchor="middle" x="82" y="-574.3" font-family="Times,serif" font-size="14.00">WaitArm</text>
</g>
<!-- 06962f7d&#45;dd0c&#45;4f64&#45;92f3&#45;49260519cba4&#45;&gt;518cd20a&#45;ff21&#45;4711&#45;a173&#45;96930655c956 -->
<g id="edge5" class="edge">
<title>06962f7d&#45;dd0c&#45;4f64&#45;92f3&#45;49260519cba4&#45;&gt;518cd20a&#45;ff21&#45;4711&#45;a173&#45;96930655c956</title>
<path fill="none" stroke="black" d="M82.96,-559.97C83.9,-543.38 85.35,-517.88 86.45,-498.43"/>
<polygon fill="black" stroke="black" points="89.95,-498.52 87.02,-488.34 82.96,-498.13 89.95,-498.52"/>
</g>
<!-- c624d929&#45;6add&#45;4ae4&#45;b624&#45;dd4ea711dedc -->
<g id="node9" class="node">
<title>c624d929&#45;6add&#45;4ae4&#45;b624&#45;dd4ea711dedc</title>
<polygon fill="none" stroke="black" stroke-dasharray="5,2" points="210,-669 112,-669 112,-633 210,-633 210,-669"/>
<text text-anchor="middle" x="161" y="-647.3" font-family="Times,serif" font-size="14.00" fill="blue">Concurrent</text>
</g>
<!-- c624d929&#45;6add&#45;4ae4&#45;b624&#45;dd4ea711dedc&#45;&gt;06962f7d&#45;dd0c&#45;4f64&#45;92f3&#45;49260519cba4 -->
<g id="edge6" class="edge">
<title>c624d929&#45;6add&#45;4ae4&#45;b624&#45;dd4ea711dedc&#45;&gt;06962f7d&#45;dd0c&#45;4f64&#45;92f3&#45;49260519cba4</title>
<path fill="none" stroke="black" d="M141.88,-632.81C131.12,-623.14 117.58,-610.98 106.1,-600.66"/>
<polygon fill="black" stroke="black" points="108.32,-597.95 98.54,-593.87 103.64,-603.15 108.32,-597.95"/>
</g>
<!-- 03519b94&#45;b020&#45;4f46&#45;b831&#45;6c016e6099d4 -->
<g id="node10" class="node">
<title>03519b94&#45;b020&#45;4f46&#45;b831&#45;6c016e6099d4</title>
<ellipse fill="none" stroke="black" cx="189" cy="-524" rx="50.7" ry="18"/>
<text text-anchor="middle" x="189" y="-520.3" font-family="Times,serif" font-size="14.00">StartBno055</text>
</g>
<!-- c624d929&#45;6add&#45;4ae4&#45;b624&#45;dd4ea711dedc&#45;&gt;03519b94&#45;b020&#45;4f46&#45;b831&#45;6c016e6099d4 -->
<g id="edge7" class="edge">
<title>c624d929&#45;6add&#45;4ae4&#45;b624&#45;dd4ea711dedc&#45;&gt;03519b94&#45;b020&#45;4f46&#45;b831&#45;6c016e6099d4</title>
<path fill="none" stroke="black" d="M164.83,-632.88C169.5,-612.05 177.43,-576.64 182.93,-552.09"/>
<polygon fill="black" stroke="black" points="186.35,-552.84 185.12,-542.31 179.52,-551.31 186.35,-552.84"/>
</g>
<!-- 03519b94&#45;b020&#45;4f46&#45;b831&#45;6c016e6099d4&#45;&gt;00a4d289&#45;f46a&#45;4452&#45;93f4&#45;8fa51df0e14c -->
<g id="edge9" class="edge">
<title>03519b94&#45;b020&#45;4f46&#45;b831&#45;6c016e6099d4&#45;&gt;00a4d289&#45;f46a&#45;4452&#45;93f4&#45;8fa51df0e14c</title>
<path fill="none" stroke="black" d="M204.82,-506.8C219.47,-490.03 239,-462.36 239,-434 239,-434 239,-434 239,-177 239,-157.25 225.09,-141 209.67,-129.05"/>
<polygon fill="black" stroke="black" points="211.7,-126.2 201.54,-123.2 207.62,-131.88 211.7,-126.2"/>
</g>
<!-- 00a4d289&#45;f46a&#45;4452&#45;93f4&#45;8fa51df0e14c&#45;&gt;47de1d29&#45;1d5b&#45;4214&#45;a67d&#45;3e697d177201 -->
<g id="edge19" class="edge">
<title>00a4d289&#45;f46a&#45;4452&#45;93f4&#45;8fa51df0e14c&#45;&gt;47de1d29&#45;1d5b&#45;4214&#45;a67d&#45;3e697d177201</title>
<path fill="none" stroke="black" d="M206.84,-86.8C237.93,-72.67 281.91,-52.68 314.06,-38.06"/>
<polygon fill="black" stroke="black" points="315.56,-41.23 323.21,-33.9 312.66,-34.85 315.56,-41.23"/>
</g>
<!-- 9715a198&#45;669d&#45;401e&#45;8d0c&#45;22a9e2634f4e -->
<g id="node12" class="node">
<title>9715a198&#45;669d&#45;401e&#45;8d0c&#45;22a9e2634f4e</title>
<polygon fill="none" stroke="black" stroke-dasharray="5,2" points="669,-196 571,-196 571,-160 669,-160 669,-196"/>
<text text-anchor="middle" x="620" y="-174.3" font-family="Times,serif" font-size="14.00" fill="blue">Concurrent</text>
</g>
<!-- 9715a198&#45;669d&#45;401e&#45;8d0c&#45;22a9e2634f4e&#45;&gt;006fbdab&#45;6531&#45;483b&#45;8e4a&#45;7a662984b924 -->
<g id="edge11" class="edge">
<title>9715a198&#45;669d&#45;401e&#45;8d0c&#45;22a9e2634f4e&#45;&gt;006fbdab&#45;6531&#45;483b&#45;8e4a&#45;7a662984b924</title>
<path fill="none" stroke="black" d="M620,-159.81C620,-151.79 620,-142.05 620,-133.07"/>
<polygon fill="black" stroke="black" points="623.5,-133.03 620,-123.03 616.5,-133.03 623.5,-133.03"/>
</g>
<!-- e6ae9ebd&#45;8be5&#45;4173&#45;b743&#45;b319d4b1e5eb -->
<g id="node13" class="node">
<title>e6ae9ebd&#45;8be5&#45;4173&#45;b743&#45;b319d4b1e5eb</title>
<ellipse fill="none" stroke="black" cx="902" cy="-105" rx="89.81" ry="18"/>
<text text-anchor="middle" x="902" y="-101.3" font-family="Times,serif" font-size="14.00">AdjustMovementAngle</text>
</g>
<!-- 9715a198&#45;669d&#45;401e&#45;8d0c&#45;22a9e2634f4e&#45;&gt;e6ae9ebd&#45;8be5&#45;4173&#45;b743&#45;b319d4b1e5eb -->
<g id="edge10" class="edge">
<title>9715a198&#45;669d&#45;401e&#45;8d0c&#45;22a9e2634f4e&#45;&gt;e6ae9ebd&#45;8be5&#45;4173&#45;b743&#45;b319d4b1e5eb</title>
<path fill="none" stroke="black" d="M669.12,-164.63C716.02,-152.83 786.93,-134.97 838.18,-122.07"/>
<polygon fill="black" stroke="black" points="839.32,-125.39 848.16,-119.56 837.61,-118.6 839.32,-125.39"/>
</g>
<!-- f160f1d2&#45;062e&#45;4d93&#45;8fa0&#45;5d60c8b4bd01 -->
<g id="node14" class="node">
<title>f160f1d2&#45;062e&#45;4d93&#45;8fa0&#45;5d60c8b4bd01</title>
<polygon fill="none" stroke="black" stroke-dasharray="5,2" points="1459,-196 1361,-196 1361,-160 1459,-160 1459,-196"/>
<text text-anchor="middle" x="1410" y="-174.3" font-family="Times,serif" font-size="14.00" fill="blue">Concurrent</text>
</g>
<!-- f160f1d2&#45;062e&#45;4d93&#45;8fa0&#45;5d60c8b4bd01&#45;&gt;28b77847&#45;bff2&#45;4ee7&#45;95d3&#45;de939192030b -->
<g id="edge13" class="edge">
<title>f160f1d2&#45;062e&#45;4d93&#45;8fa0&#45;5d60c8b4bd01&#45;&gt;28b77847&#45;bff2&#45;4ee7&#45;95d3&#45;de939192030b</title>
<path fill="none" stroke="black" d="M1410,-159.81C1410,-151.79 1410,-142.05 1410,-133.07"/>
<polygon fill="black" stroke="black" points="1413.5,-133.03 1410,-123.03 1406.5,-133.03 1413.5,-133.03"/>
</g>
<!-- ece29dba&#45;bcea&#45;4cc8&#45;8fcd&#45;2629d6ff2439 -->
<g id="node15" class="node">
<title>ece29dba&#45;bcea&#45;4cc8&#45;8fcd&#45;2629d6ff2439</title>
<ellipse fill="none" stroke="black" cx="1703" cy="-105" rx="89.81" ry="18"/>
<text text-anchor="middle" x="1703" y="-101.3" font-family="Times,serif" font-size="14.00">AdjustMovementAngle</text>
</g>
<!-- f160f1d2&#45;062e&#45;4d93&#45;8fa0&#45;5d60c8b4bd01&#45;&gt;ece29dba&#45;bcea&#45;4cc8&#45;8fcd&#45;2629d6ff2439 -->
<g id="edge12" class="edge">
<title>f160f1d2&#45;062e&#45;4d93&#45;8fa0&#45;5d60c8b4bd01&#45;&gt;ece29dba&#45;bcea&#45;4cc8&#45;8fcd&#45;2629d6ff2439</title>
<path fill="none" stroke="black" d="M1459.04,-165.12C1508.19,-153.21 1584.14,-134.8 1638.22,-121.7"/>
<polygon fill="black" stroke="black" points="1639.16,-125.07 1648.06,-119.31 1637.51,-118.27 1639.16,-125.07"/>
</g>
<!-- 47de1d29&#45;1d5b&#45;4214&#45;a67d&#45;3e697d177201&#45;&gt;9715a198&#45;669d&#45;401e&#45;8d0c&#45;22a9e2634f4e -->
<g id="edge14" class="edge">
<title>47de1d29&#45;1d5b&#45;4214&#45;a67d&#45;3e697d177201&#45;&gt;9715a198&#45;669d&#45;401e&#45;8d0c&#45;22a9e2634f4e</title>
<path fill="none" stroke="purple" d="M357,-36.12C359.31,-59.29 366.91,-100.32 392,-123 416.53,-145.18 501.87,-160.97 560.89,-169.54"/>
<polygon fill="purple" stroke="purple" points="560.46,-173.01 570.85,-170.95 561.44,-166.08 560.46,-173.01"/>
<text text-anchor="middle" x="427.5" y="-101.3" font-family="Times,serif" font-size="14.00" fill="purple">Pass Data</text>
</g>
<!-- d544a964&#45;bc3a&#45;4489&#45;821a&#45;8edbba285435&#45;&gt;f160f1d2&#45;062e&#45;4d93&#45;8fa0&#45;5d60c8b4bd01 -->
<g id="edge16" class="edge">
<title>d544a964&#45;bc3a&#45;4489&#45;821a&#45;8edbba285435&#45;&gt;f160f1d2&#45;062e&#45;4d93&#45;8fa0&#45;5d60c8b4bd01</title>
<path fill="none" stroke="purple" d="M1136.97,-36.15C1139.24,-59.36 1146.81,-100.44 1172,-123 1198.01,-146.29 1289.19,-161.98 1350.83,-170.19"/>
<polygon fill="purple" stroke="purple" points="1350.47,-173.68 1360.84,-171.5 1351.37,-166.74 1350.47,-173.68"/>
<text text-anchor="middle" x="1207.5" y="-101.3" font-family="Times,serif" font-size="14.00" fill="purple">Pass Data</text>
</g>
</g>
</svg>
