<?xml version="1.0" encoding="UTF-8" standalone="no"?>
<!DOCTYPE svg PUBLIC "-//W3C//DTD SVG 1.1//EN"
 "http://www.w3.org/Graphics/SVG/1.1/DTD/svg11.dtd">
<!-- Generated by graphviz version 2.43.0 (0)
 -->
<!-- Title: G Pages: 1 -->
<svg width="158pt" height="404pt"
 viewBox="0.00 0.00 157.61 404.00" xmlns="http://www.w3.org/2000/svg" xmlns:xlink="http://www.w3.org/1999/xlink">
<g id="graph0" class="graph" transform="scale(1 1) rotate(0) translate(4 400)">
<title>G</title>
<polygon fill="transparent" stroke="transparent" points="-4,4 -4,-400 153.61,-400 153.61,4 -4,4"/>
<!-- 5fd4b5fc&#45;7012&#45;40d5&#45;a72f&#45;3be6bae5c05c -->
<g id="node1" class="node">
<title>5fd4b5fc&#45;7012&#45;40d5&#45;a72f&#45;3be6bae5c05c</title>
<ellipse fill="none" stroke="black" cx="74.8" cy="-306" rx="33.6" ry="18"/>
<text text-anchor="middle" x="74.8" y="-302.3" font-family="Times,serif" font-size="14.00">Descend</text>
</g>
<!-- 9f3ec627&#45;979c&#45;4500&#45;b299&#45;311d506dc88c -->
<g id="node2" class="node">
<title>9f3ec627&#45;979c&#45;4500&#45;b299&#45;311d506dc88c</title>
<ellipse fill="none" stroke="black" cx="74.8" cy="-234" rx="47.1" ry="18"/>
<text text-anchor="middle" x="74.8" y="-230.3" font-family="Times,serif" font-size="14.00">DelayAction</text>
</g>
<!-- 5fd4b5fc&#45;7012&#45;40d5&#45;a72f&#45;3be6bae5c05c&#45;&gt;9f3ec627&#45;979c&#45;4500&#45;b299&#45;311d506dc88c -->
<g id="edge1" class="edge">
<title>5fd4b5fc&#45;7012&#45;40d5&#45;a72f&#45;3be6bae5c05c&#45;&gt;9f3ec627&#45;979c&#45;4500&#45;b299&#45;311d506dc88c</title>
<path fill="none" stroke="black" d="M74.8,-287.7C74.8,-279.98 74.8,-270.71 74.8,-262.11"/>
<polygon fill="black" stroke="black" points="78.3,-262.1 74.8,-252.1 71.3,-262.1 78.3,-262.1"/>
</g>
<!-- 709801bb&#45;67ef&#45;4b34&#45;bc34&#45;a7fdd9ff098c -->
<g id="node3" class="node">
<title>709801bb&#45;67ef&#45;4b34&#45;bc34&#45;a7fdd9ff098c</title>
<ellipse fill="none" stroke="black" cx="74.8" cy="-162" rx="74.61" ry="18"/>
<text text-anchor="middle" x="74.8" y="-158.3" font-family="Times,serif" font-size="14.00">StraightMovement</text>
</g>
<!-- 9f3ec627&#45;979c&#45;4500&#45;b299&#45;311d506dc88c&#45;&gt;709801bb&#45;67ef&#45;4b34&#45;bc34&#45;a7fdd9ff098c -->
<g id="edge4" class="edge">
<title>9f3ec627&#45;979c&#45;4500&#45;b299&#45;311d506dc88c&#45;&gt;709801bb&#45;67ef&#45;4b34&#45;bc34&#45;a7fdd9ff098c</title>
<path fill="none" stroke="black" d="M74.8,-215.7C74.8,-207.98 74.8,-198.71 74.8,-190.11"/>
<polygon fill="black" stroke="black" points="78.3,-190.1 74.8,-180.1 71.3,-190.1 78.3,-190.1"/>
</g>
<!-- e6b1f020&#45;328f&#45;4c9f&#45;a688&#45;0d40dc4e112c -->
<g id="node4" class="node">
<title>e6b1f020&#45;328f&#45;4c9f&#45;a688&#45;0d40dc4e112c</title>
<ellipse fill="none" stroke="black" cx="74.8" cy="-90" rx="47.1" ry="18"/>
<text text-anchor="middle" x="74.8" y="-86.3" font-family="Times,serif" font-size="14.00">DelayAction</text>
</g>
<!-- 709801bb&#45;67ef&#45;4b34&#45;bc34&#45;a7fdd9ff098c&#45;&gt;e6b1f020&#45;328f&#45;4c9f&#45;a688&#45;0d40dc4e112c -->
<g id="edge2" class="edge">
<title>709801bb&#45;67ef&#45;4b34&#45;bc34&#45;a7fdd9ff098c&#45;&gt;e6b1f020&#45;328f&#45;4c9f&#45;a688&#45;0d40dc4e112c</title>
<path fill="none" stroke="black" d="M74.8,-143.7C74.8,-135.98 74.8,-126.71 74.8,-118.11"/>
<polygon fill="black" stroke="black" points="78.3,-118.1 74.8,-108.1 71.3,-118.1 78.3,-118.1"/>
</g>
<!-- 44b459d5&#45;acdf&#45;4c48&#45;93e2&#45;0771f505aff3 -->
<g id="node5" class="node">
<title>44b459d5&#45;acdf&#45;4c48&#45;93e2&#45;0771f505aff3</title>
<ellipse fill="none" stroke="black" cx="74.8" cy="-18" rx="59.9" ry="18"/>
<text text-anchor="middle" x="74.8" y="-14.3" font-family="Times,serif" font-size="14.00">ZeroMovement</text>
</g>
<!-- e6b1f020&#45;328f&#45;4c9f&#45;a688&#45;0d40dc4e112c&#45;&gt;44b459d5&#45;acdf&#45;4c48&#45;93e2&#45;0771f505aff3 -->
<g id="edge3" class="edge">
<title>e6b1f020&#45;328f&#45;4c9f&#45;a688&#45;0d40dc4e112c&#45;&gt;44b459d5&#45;acdf&#45;4c48&#45;93e2&#45;0771f505aff3</title>
<path fill="none" stroke="black" d="M74.8,-71.7C74.8,-63.98 74.8,-54.71 74.8,-46.11"/>
<polygon fill="black" stroke="black" points="78.3,-46.1 74.8,-36.1 71.3,-46.1 78.3,-46.1"/>
</g>
<!-- f6007a16&#45;ec20&#45;4e6e&#45;bcea&#45;f82d8272aed5 -->
<g id="node6" class="node">
<title>f6007a16&#45;ec20&#45;4e6e&#45;bcea&#45;f82d8272aed5</title>
<ellipse fill="none" stroke="black" cx="74.8" cy="-378" rx="34.8" ry="18"/>
<text text-anchor="middle" x="74.8" y="-374.3" font-family="Times,serif" font-size="14.00">WaitArm</text>
</g>
<!-- f6007a16&#45;ec20&#45;4e6e&#45;bcea&#45;f82d8272aed5&#45;&gt;5fd4b5fc&#45;7012&#45;40d5&#45;a72f&#45;3be6bae5c05c -->
<g id="edge5" class="edge">
<title>f6007a16&#45;ec20&#45;4e6e&#45;bcea&#45;f82d8272aed5&#45;&gt;5fd4b5fc&#45;7012&#45;40d5&#45;a72f&#45;3be6bae5c05c</title>
<path fill="none" stroke="black" d="M74.8,-359.7C74.8,-351.98 74.8,-342.71 74.8,-334.11"/>
<polygon fill="black" stroke="black" points="78.3,-334.1 74.8,-324.1 71.3,-334.1 78.3,-334.1"/>
</g>
</g>
</svg>
