<?xml version="1.0" encoding="UTF-8" standalone="no"?>
<!DOCTYPE svg PUBLIC "-//W3C//DTD SVG 1.1//EN"
 "http://www.w3.org/Graphics/SVG/1.1/DTD/svg11.dtd">
<!-- Generated by graphviz version 2.43.0 (0)
 -->
<!-- Title: G Pages: 1 -->
<svg width="249pt" height="276pt"
 viewBox="0.00 0.00 249.00 276.00" xmlns="http://www.w3.org/2000/svg" xmlns:xlink="http://www.w3.org/1999/xlink">
<g id="graph0" class="graph" transform="scale(1 1) rotate(0) translate(4 272)">
<title>G</title>
<polygon fill="transparent" stroke="transparent" points="-4,4 -4,-272 245,-272 245,4 -4,4"/>
<g id="clust1" class="cluster">
<title>cluster_86355d9f&#45;b9c4&#45;4857&#45;8b46&#45;919c5c77d87d</title>
<polygon fill="transparent" stroke="blue" stroke-dasharray="5,2" points="8,-64 8,-260 233,-260 233,-64 8,-64"/>
</g>
<!-- 1724d51d&#45;2d8e&#45;478f&#45;91b8&#45;3ec9f0aaad60 -->
<g id="node1" class="node">
<title>1724d51d&#45;2d8e&#45;478f&#45;91b8&#45;3ec9f0aaad60</title>
<polygon fill="none" stroke="black" stroke-dasharray="5,2" points="169,-252 71,-252 71,-216 169,-216 169,-252"/>
<text text-anchor="middle" x="120" y="-230.3" font-family="Times,serif" font-size="14.00" fill="blue">Concurrent</text>
</g>
<!-- d63bfe5b&#45;b539&#45;46ec&#45;8dcd&#45;d03d855054ca -->
<g id="node2" class="node">
<title>d63bfe5b&#45;b539&#45;46ec&#45;8dcd&#45;d03d855054ca</title>
<ellipse fill="none" stroke="black" cx="51" cy="-162" rx="34.8" ry="18"/>
<text text-anchor="middle" x="51" y="-158.3" font-family="Times,serif" font-size="14.00">WaitArm</text>
</g>
<!-- 1724d51d&#45;2d8e&#45;478f&#45;91b8&#45;3ec9f0aaad60&#45;&gt;d63bfe5b&#45;b539&#45;46ec&#45;8dcd&#45;d03d855054ca -->
<g id="edge1" class="edge">
<title>1724d51d&#45;2d8e&#45;478f&#45;91b8&#45;3ec9f0aaad60&#45;&gt;d63bfe5b&#45;b539&#45;46ec&#45;8dcd&#45;d03d855054ca</title>
<path fill="none" stroke="black" d="M102.94,-215.7C94.13,-206.75 83.25,-195.71 73.73,-186.06"/>
<polygon fill="black" stroke="black" points="75.96,-183.34 66.45,-178.67 70.97,-188.25 75.96,-183.34"/>
</g>
<!-- e37e19fe&#45;9157&#45;484b&#45;b6eb&#45;f224ab2c7d00 -->
<g id="node3" class="node">
<title>e37e19fe&#45;9157&#45;484b&#45;b6eb&#45;f224ab2c7d00</title>
<ellipse fill="none" stroke="black" cx="191" cy="-162" rx="33.6" ry="18"/>
<text text-anchor="middle" x="191" y="-158.3" font-family="Times,serif" font-size="14.00">Descend</text>
</g>
<!-- 1724d51d&#45;2d8e&#45;478f&#45;91b8&#45;3ec9f0aaad60&#45;&gt;e37e19fe&#45;9157&#45;484b&#45;b6eb&#45;f224ab2c7d00 -->
<g id="edge2" class="edge">
<title>1724d51d&#45;2d8e&#45;478f&#45;91b8&#45;3ec9f0aaad60&#45;&gt;e37e19fe&#45;9157&#45;484b&#45;b6eb&#45;f224ab2c7d00</title>
<path fill="none" stroke="black" d="M137.55,-215.7C146.84,-206.53 158.36,-195.18 168.33,-185.35"/>
<polygon fill="black" stroke="black" points="170.92,-187.72 175.58,-178.2 166,-182.73 170.92,-187.72"/>
</g>
<!-- fe3fb503&#45;1c04&#45;4880&#45;9ad1&#45;f3ac251c19dd -->
<g id="node4" class="node">
<title>fe3fb503&#45;1c04&#45;4880&#45;9ad1&#45;f3ac251c19dd</title>
<polygon fill="none" stroke="black" stroke-dasharray="5,2" points="162.5,-108 77.5,-108 77.5,-72 162.5,-72 162.5,-108"/>
<text text-anchor="middle" x="120" y="-86.3" font-family="Times,serif" font-size="14.00" fill="blue">Converge</text>
</g>
<!-- d63bfe5b&#45;b539&#45;46ec&#45;8dcd&#45;d03d855054ca&#45;&gt;fe3fb503&#45;1c04&#45;4880&#45;9ad1&#45;f3ac251c19dd -->
<g id="edge3" class="edge">
<title>d63bfe5b&#45;b539&#45;46ec&#45;8dcd&#45;d03d855054ca&#45;&gt;fe3fb503&#45;1c04&#45;4880&#45;9ad1&#45;f3ac251c19dd</title>
<path fill="none" stroke="black" d="M66.31,-145.46C74.92,-136.73 85.86,-125.63 95.62,-115.74"/>
<polygon fill="black" stroke="black" points="98.26,-118.04 102.79,-108.46 93.28,-113.13 98.26,-118.04"/>
</g>
<!-- e37e19fe&#45;9157&#45;484b&#45;b6eb&#45;f224ab2c7d00&#45;&gt;fe3fb503&#45;1c04&#45;4880&#45;9ad1&#45;f3ac251c19dd -->
<g id="edge4" class="edge">
<title>e37e19fe&#45;9157&#45;484b&#45;b6eb&#45;f224ab2c7d00&#45;&gt;fe3fb503&#45;1c04&#45;4880&#45;9ad1&#45;f3ac251c19dd</title>
<path fill="none" stroke="black" d="M175.59,-145.81C166.54,-136.88 154.88,-125.38 144.57,-115.23"/>
<polygon fill="black" stroke="black" points="146.95,-112.66 137.37,-108.13 142.04,-117.64 146.95,-112.66"/>
</g>
<!-- bf779cba&#45;2b4c&#45;4535&#45;acd5&#45;f6e77013f7bb -->
<g id="node5" class="node">
<title>bf779cba&#45;2b4c&#45;4535&#45;acd5&#45;f6e77013f7bb</title>
<ellipse fill="none" stroke="black" cx="120" cy="-18" rx="34.8" ry="18"/>
<text text-anchor="middle" x="120" y="-14.3" font-family="Times,serif" font-size="14.00">WaitArm</text>
</g>
<!-- fe3fb503&#45;1c04&#45;4880&#45;9ad1&#45;f3ac251c19dd&#45;&gt;bf779cba&#45;2b4c&#45;4535&#45;acd5&#45;f6e77013f7bb -->
<g id="edge5" class="edge">
<title>fe3fb503&#45;1c04&#45;4880&#45;9ad1&#45;f3ac251c19dd&#45;&gt;bf779cba&#45;2b4c&#45;4535&#45;acd5&#45;f6e77013f7bb</title>
<path fill="none" stroke="black" d="M120,-71.7C120,-63.98 120,-54.71 120,-46.11"/>
<polygon fill="black" stroke="black" points="123.5,-46.1 120,-36.1 116.5,-46.1 123.5,-46.1"/>
</g>
</g>
</svg>
