<?xml version="1.0" encoding="UTF-8" standalone="no"?>
<!DOCTYPE svg PUBLIC "-//W3C//DTD SVG 1.1//EN"
 "http://www.w3.org/Graphics/SVG/1.1/DTD/svg11.dtd">
<!-- Generated by graphviz version 2.43.0 (0)
 -->
<!-- Title: G Pages: 1 -->
<svg width="2232pt" height="1158pt"
 viewBox="0.00 0.00 2232.00 1158.00" xmlns="http://www.w3.org/2000/svg" xmlns:xlink="http://www.w3.org/1999/xlink">
<g id="graph0" class="graph" transform="scale(1 1) rotate(0) translate(4 1154)">
<title>G</title>
<polygon fill="transparent" stroke="transparent" points="-4,4 -4,-1154 2228,-1154 2228,4 -4,4"/>
<g id="clust1" class="cluster">
<title>cluster_0ab9dfe0&#45;1a4b&#45;4450&#45;804d&#45;c86a6ccba1fa</title>
<polygon fill="transparent" stroke="blue" stroke-dasharray="5,2" points="8,-530 8,-1142 248,-1142 248,-530 8,-530"/>
</g>
<g id="clust2" class="cluster">
<title>cluster_f51a32cc&#45;ecb4&#45;4048&#45;adf0&#45;bf0cea2f9330</title>
<polygon fill="transparent" stroke="darkgreen" stroke-dasharray="5,2" points="450,-690 450,-888 1232,-888 1232,-690 450,-690"/>
</g>
<g id="clust3" class="cluster">
<title>cluster_996aee7f&#45;651e&#45;40e0&#45;b706&#45;776121353065</title>
<polygon fill="transparent" stroke="blue" stroke-dasharray="5,2" points="595,-8 595,-655 979,-655 979,-8 595,-8"/>
</g>
<g id="clust4" class="cluster">
<title>cluster_d982478e&#45;7796&#45;43b4&#45;810b&#45;9e136f921ce1</title>
<polygon fill="transparent" stroke="darkgreen" stroke-dasharray="5,2" points="1434,-690 1434,-888 2216,-888 2216,-690 1434,-690"/>
</g>
<g id="clust5" class="cluster">
<title>cluster_a8d74fb7&#45;f4ef&#45;4d09&#45;a124&#45;c601e2cc748f</title>
<polygon fill="transparent" stroke="blue" stroke-dasharray="5,2" points="1452,-8 1452,-655 1856,-655 1856,-8 1452,-8"/>
</g>
<!-- cb03d306&#45;1cdc&#45;49b5&#45;a61a&#45;e1b2db4b19f5 -->
<g id="node1" class="node">
<title>cb03d306&#45;1cdc&#45;49b5&#45;a61a&#45;e1b2db4b19f5</title>
<polygon fill="none" stroke="black" points="724,-574 603.37,-556 724,-538 844.63,-556 724,-574"/>
<text text-anchor="middle" x="724" y="-552.3" font-family="Times,serif" font-size="14.00">Consecutive True &lt; 3</text>
</g>
<!-- 9d963632&#45;24cd&#45;4918&#45;b75d&#45;e7af7d22601a -->
<g id="node42" class="node">
<title>9d963632&#45;24cd&#45;4918&#45;b75d&#45;e7af7d22601a</title>
<ellipse fill="none" stroke="black" cx="349" cy="-469" rx="46.5" ry="18"/>
<text text-anchor="middle" x="349" y="-465.3" font-family="Times,serif" font-size="14.00">VisionNorm</text>
</g>
<!-- cb03d306&#45;1cdc&#45;49b5&#45;a61a&#45;e1b2db4b19f5&#45;&gt;9d963632&#45;24cd&#45;4918&#45;b75d&#45;e7af7d22601a -->
<g id="edge48" class="edge">
<title>cb03d306&#45;1cdc&#45;49b5&#45;a61a&#45;e1b2db4b19f5&#45;&gt;9d963632&#45;24cd&#45;4918&#45;b75d&#45;e7af7d22601a</title>
<path fill="none" stroke="black" d="M678.77,-544.75C607.88,-528.68 471.18,-497.7 398.03,-481.11"/>
<polygon fill="black" stroke="black" points="398.67,-477.67 388.14,-478.87 397.12,-484.5 398.67,-477.67"/>
<text text-anchor="middle" x="576" y="-508.8" font-family="Times,serif" font-size="14.00">True</text>
</g>
<!-- ac32b800&#45;937c&#45;4a4d&#45;82f4&#45;b3d16432513b -->
<g id="node43" class="node">
<title>ac32b800&#45;937c&#45;4a4d&#45;82f4&#45;b3d16432513b</title>
<ellipse fill="none" stroke="black" cx="1333" cy="-469" rx="46.5" ry="18"/>
<text text-anchor="middle" x="1333" y="-465.3" font-family="Times,serif" font-size="14.00">VisionNorm</text>
</g>
<!-- cb03d306&#45;1cdc&#45;49b5&#45;a61a&#45;e1b2db4b19f5&#45;&gt;ac32b800&#45;937c&#45;4a4d&#45;82f4&#45;b3d16432513b -->
<g id="edge53" class="edge">
<title>cb03d306&#45;1cdc&#45;49b5&#45;a61a&#45;e1b2db4b19f5&#45;&gt;ac32b800&#45;937c&#45;4a4d&#45;82f4&#45;b3d16432513b</title>
<path fill="none" stroke="black" d="M775.83,-545.66C806.36,-540.43 845.78,-534.15 881,-530 938.55,-523.22 953.44,-526.67 1011,-520 1106.95,-508.88 1218.15,-490.35 1281.57,-479.24"/>
<polygon fill="black" stroke="black" points="1282.47,-482.64 1291.71,-477.46 1281.26,-475.74 1282.47,-482.64"/>
<text text-anchor="middle" x="1136" y="-508.8" font-family="Times,serif" font-size="14.00">False</text>
</g>
<!-- bbfb1464&#45;9a76&#45;4c11&#45;bd39&#45;a68164623d3b -->
<g id="node2" class="node">
<title>bbfb1464&#45;9a76&#45;4c11&#45;bd39&#45;a68164623d3b</title>
<polygon fill="none" stroke="black" points="1591,-574 1459.59,-556 1591,-538 1722.41,-556 1591,-574"/>
<text text-anchor="middle" x="1591" y="-552.3" font-family="Times,serif" font-size="14.00">Consecutive False &lt; 10</text>
</g>
<!-- bbfb1464&#45;9a76&#45;4c11&#45;bd39&#45;a68164623d3b&#45;&gt;ac32b800&#45;937c&#45;4a4d&#45;82f4&#45;b3d16432513b -->
<g id="edge51" class="edge">
<title>bbfb1464&#45;9a76&#45;4c11&#45;bd39&#45;a68164623d3b&#45;&gt;ac32b800&#45;937c&#45;4a4d&#45;82f4&#45;b3d16432513b</title>
<path fill="none" stroke="black" d="M1554.31,-542.91C1507.62,-527.53 1427.04,-500.98 1377.07,-484.52"/>
<polygon fill="black" stroke="black" points="1378.1,-481.17 1367.5,-481.37 1375.91,-487.82 1378.1,-481.17"/>
<text text-anchor="middle" x="1494" y="-508.8" font-family="Times,serif" font-size="14.00">True</text>
</g>
<!-- c6fe92ae&#45;2baa&#45;462f&#45;abbb&#45;d9476f4ecc2f -->
<g id="node44" class="node">
<title>c6fe92ae&#45;2baa&#45;462f&#45;abbb&#45;d9476f4ecc2f</title>
<ellipse fill="none" stroke="black" cx="1942" cy="-469" rx="59.9" ry="18"/>
<text text-anchor="middle" x="1942" y="-465.3" font-family="Times,serif" font-size="14.00">ZeroMovement</text>
</g>
<!-- bbfb1464&#45;9a76&#45;4c11&#45;bd39&#45;a68164623d3b&#45;&gt;c6fe92ae&#45;2baa&#45;462f&#45;abbb&#45;d9476f4ecc2f -->
<g id="edge52" class="edge">
<title>bbfb1464&#45;9a76&#45;4c11&#45;bd39&#45;a68164623d3b&#45;&gt;c6fe92ae&#45;2baa&#45;462f&#45;abbb&#45;d9476f4ecc2f</title>
<path fill="none" stroke="black" d="M1647.7,-545.7C1679.98,-540.61 1721.18,-534.46 1758,-530 1805.86,-524.21 1820.51,-535.94 1866,-520 1883.65,-513.81 1901.23,-502.65 1915.04,-492.44"/>
<polygon fill="black" stroke="black" points="1917.3,-495.12 1923.11,-486.26 1913.04,-489.56 1917.3,-495.12"/>
<text text-anchor="middle" x="1914" y="-508.8" font-family="Times,serif" font-size="14.00">False</text>
</g>
<!-- 43f40a3d&#45;09d6&#45;444d&#45;a66a&#45;1647da241f61 -->
<g id="node3" class="node">
<title>43f40a3d&#45;09d6&#45;444d&#45;a66a&#45;1647da241f61</title>
<ellipse fill="none" stroke="black" cx="88" cy="-935" rx="33.6" ry="18"/>
<text text-anchor="middle" x="88" y="-931.3" font-family="Times,serif" font-size="14.00">Descend</text>
</g>
<!-- 0b51c520&#45;c436&#45;4f35&#45;b4c2&#45;53936ef5a7f5 -->
<g id="node4" class="node">
<title>0b51c520&#45;c436&#45;4f35&#45;b4c2&#45;53936ef5a7f5</title>
<ellipse fill="none" stroke="black" cx="88" cy="-862" rx="47.1" ry="18"/>
<text text-anchor="middle" x="88" y="-858.3" font-family="Times,serif" font-size="14.00">DelayAction</text>
</g>
<!-- 43f40a3d&#45;09d6&#45;444d&#45;a66a&#45;1647da241f61&#45;&gt;0b51c520&#45;c436&#45;4f35&#45;b4c2&#45;53936ef5a7f5 -->
<g id="edge1" class="edge">
<title>43f40a3d&#45;09d6&#45;444d&#45;a66a&#45;1647da241f61&#45;&gt;0b51c520&#45;c436&#45;4f35&#45;b4c2&#45;53936ef5a7f5</title>
<path fill="none" stroke="black" d="M88,-916.81C88,-908.79 88,-899.05 88,-890.07"/>
<polygon fill="black" stroke="black" points="91.5,-890.03 88,-880.03 84.5,-890.03 91.5,-890.03"/>
</g>
<!-- f49cdcc0&#45;b9a6&#45;4bd6&#45;a4e6&#45;e353646ab0c9 -->
<g id="node5" class="node">
<title>f49cdcc0&#45;b9a6&#45;4bd6&#45;a4e6&#45;e353646ab0c9</title>
<ellipse fill="none" stroke="black" cx="91" cy="-789" rx="74.61" ry="18"/>
<text text-anchor="middle" x="91" y="-785.3" font-family="Times,serif" font-size="14.00">StraightMovement</text>
</g>
<!-- 0b51c520&#45;c436&#45;4f35&#45;b4c2&#45;53936ef5a7f5&#45;&gt;f49cdcc0&#45;b9a6&#45;4bd6&#45;a4e6&#45;e353646ab0c9 -->
<g id="edge4" class="edge">
<title>0b51c520&#45;c436&#45;4f35&#45;b4c2&#45;53936ef5a7f5&#45;&gt;f49cdcc0&#45;b9a6&#45;4bd6&#45;a4e6&#45;e353646ab0c9</title>
<path fill="none" stroke="black" d="M88.73,-843.81C89.07,-835.79 89.48,-826.05 89.86,-817.07"/>
<polygon fill="black" stroke="black" points="93.36,-817.17 90.28,-807.03 86.36,-816.87 93.36,-817.17"/>
</g>
<!-- a66d4675&#45;3415&#45;45d9&#45;ab72&#45;142fd6bd5ad2 -->
<g id="node6" class="node">
<title>a66d4675&#45;3415&#45;45d9&#45;ab72&#45;142fd6bd5ad2</title>
<ellipse fill="none" stroke="black" cx="99" cy="-716" rx="47.1" ry="18"/>
<text text-anchor="middle" x="99" y="-712.3" font-family="Times,serif" font-size="14.00">DelayAction</text>
</g>
<!-- f49cdcc0&#45;b9a6&#45;4bd6&#45;a4e6&#45;e353646ab0c9&#45;&gt;a66d4675&#45;3415&#45;45d9&#45;ab72&#45;142fd6bd5ad2 -->
<g id="edge2" class="edge">
<title>f49cdcc0&#45;b9a6&#45;4bd6&#45;a4e6&#45;e353646ab0c9&#45;&gt;a66d4675&#45;3415&#45;45d9&#45;ab72&#45;142fd6bd5ad2</title>
<path fill="none" stroke="black" d="M92.94,-770.81C93.84,-762.79 94.94,-753.05 95.95,-744.07"/>
<polygon fill="black" stroke="black" points="99.44,-744.36 97.08,-734.03 92.48,-743.57 99.44,-744.36"/>
</g>
<!-- 35ac3624&#45;97eb&#45;4bb6&#45;a489&#45;dbb4678c5148 -->
<g id="node7" class="node">
<title>35ac3624&#45;97eb&#45;4bb6&#45;a489&#45;dbb4678c5148</title>
<ellipse fill="none" stroke="black" cx="104" cy="-629" rx="59.9" ry="18"/>
<text text-anchor="middle" x="104" y="-625.3" font-family="Times,serif" font-size="14.00">ZeroMovement</text>
</g>
<!-- a66d4675&#45;3415&#45;45d9&#45;ab72&#45;142fd6bd5ad2&#45;&gt;35ac3624&#45;97eb&#45;4bb6&#45;a489&#45;dbb4678c5148 -->
<g id="edge3" class="edge">
<title>a66d4675&#45;3415&#45;45d9&#45;ab72&#45;142fd6bd5ad2&#45;&gt;35ac3624&#45;97eb&#45;4bb6&#45;a489&#45;dbb4678c5148</title>
<path fill="none" stroke="black" d="M100.01,-697.8C100.7,-686.16 101.61,-670.55 102.4,-657.24"/>
<polygon fill="black" stroke="black" points="105.9,-657.36 102.99,-647.18 98.91,-656.95 105.9,-657.36"/>
</g>
<!-- 66a21b34&#45;041b&#45;434d&#45;bfd0&#45;4a1a8caf379c -->
<g id="node11" class="node">
<title>66a21b34&#45;041b&#45;434d&#45;bfd0&#45;4a1a8caf379c</title>
<polygon fill="none" stroke="black" stroke-dasharray="5,2" points="239.5,-574 154.5,-574 154.5,-538 239.5,-538 239.5,-574"/>
<text text-anchor="middle" x="197" y="-552.3" font-family="Times,serif" font-size="14.00" fill="blue">Converge</text>
</g>
<!-- 35ac3624&#45;97eb&#45;4bb6&#45;a489&#45;dbb4678c5148&#45;&gt;66a21b34&#45;041b&#45;434d&#45;bfd0&#45;4a1a8caf379c -->
<g id="edge8" class="edge">
<title>35ac3624&#45;97eb&#45;4bb6&#45;a489&#45;dbb4678c5148&#45;&gt;66a21b34&#45;041b&#45;434d&#45;bfd0&#45;4a1a8caf379c</title>
<path fill="none" stroke="black" d="M125.1,-611.89C137.35,-602.54 152.99,-590.6 166.56,-580.24"/>
<polygon fill="black" stroke="black" points="168.86,-582.89 174.68,-574.04 164.61,-577.32 168.86,-582.89"/>
</g>
<!-- d31b99e4&#45;7dae&#45;4454&#45;b78a&#45;dfb84806a645 -->
<g id="node8" class="node">
<title>d31b99e4&#45;7dae&#45;4454&#45;b78a&#45;dfb84806a645</title>
<ellipse fill="none" stroke="black" cx="82" cy="-1043" rx="34.8" ry="18"/>
<text text-anchor="middle" x="82" y="-1039.3" font-family="Times,serif" font-size="14.00">WaitArm</text>
</g>
<!-- d31b99e4&#45;7dae&#45;4454&#45;b78a&#45;dfb84806a645&#45;&gt;43f40a3d&#45;09d6&#45;444d&#45;a66a&#45;1647da241f61 -->
<g id="edge5" class="edge">
<title>d31b99e4&#45;7dae&#45;4454&#45;b78a&#45;dfb84806a645&#45;&gt;43f40a3d&#45;09d6&#45;444d&#45;a66a&#45;1647da241f61</title>
<path fill="none" stroke="black" d="M82.96,-1024.97C83.9,-1008.38 85.35,-982.88 86.45,-963.43"/>
<polygon fill="black" stroke="black" points="89.95,-963.52 87.02,-953.34 82.96,-963.13 89.95,-963.52"/>
</g>
<!-- 52e11731&#45;7497&#45;453f&#45;a376&#45;7a1ae856e874 -->
<g id="node9" class="node">
<title>52e11731&#45;7497&#45;453f&#45;a376&#45;7a1ae856e874</title>
<polygon fill="none" stroke="black" stroke-dasharray="5,2" points="210,-1134 112,-1134 112,-1098 210,-1098 210,-1134"/>
<text text-anchor="middle" x="161" y="-1112.3" font-family="Times,serif" font-size="14.00" fill="blue">Concurrent</text>
</g>
<!-- 52e11731&#45;7497&#45;453f&#45;a376&#45;7a1ae856e874&#45;&gt;d31b99e4&#45;7dae&#45;4454&#45;b78a&#45;dfb84806a645 -->
<g id="edge6" class="edge">
<title>52e11731&#45;7497&#45;453f&#45;a376&#45;7a1ae856e874&#45;&gt;d31b99e4&#45;7dae&#45;4454&#45;b78a&#45;dfb84806a645</title>
<path fill="none" stroke="black" d="M141.88,-1097.81C131.12,-1088.14 117.58,-1075.98 106.1,-1065.66"/>
<polygon fill="black" stroke="black" points="108.32,-1062.95 98.54,-1058.87 103.64,-1068.15 108.32,-1062.95"/>
</g>
<!-- f8a1373c&#45;f68b&#45;4e46&#45;b737&#45;49765e7ade54 -->
<g id="node10" class="node">
<title>f8a1373c&#45;f68b&#45;4e46&#45;b737&#45;49765e7ade54</title>
<ellipse fill="none" stroke="black" cx="189" cy="-989" rx="50.7" ry="18"/>
<text text-anchor="middle" x="189" y="-985.3" font-family="Times,serif" font-size="14.00">StartBno055</text>
</g>
<!-- 52e11731&#45;7497&#45;453f&#45;a376&#45;7a1ae856e874&#45;&gt;f8a1373c&#45;f68b&#45;4e46&#45;b737&#45;49765e7ade54 -->
<g id="edge7" class="edge">
<title>52e11731&#45;7497&#45;453f&#45;a376&#45;7a1ae856e874&#45;&gt;f8a1373c&#45;f68b&#45;4e46&#45;b737&#45;49765e7ade54</title>
<path fill="none" stroke="black" d="M164.83,-1097.88C169.5,-1077.05 177.43,-1041.64 182.93,-1017.09"/>
<polygon fill="black" stroke="black" points="186.35,-1017.84 185.12,-1007.31 179.52,-1016.31 186.35,-1017.84"/>
</g>
<!-- f8a1373c&#45;f68b&#45;4e46&#45;b737&#45;49765e7ade54&#45;&gt;66a21b34&#45;041b&#45;434d&#45;bfd0&#45;4a1a8caf379c -->
<g id="edge9" class="edge">
<title>f8a1373c&#45;f68b&#45;4e46&#45;b737&#45;49765e7ade54&#45;&gt;66a21b34&#45;041b&#45;434d&#45;bfd0&#45;4a1a8caf379c</title>
<path fill="none" stroke="black" d="M204.82,-971.8C219.47,-955.03 239,-927.36 239,-899 239,-899 239,-899 239,-628 239,-611.08 230.06,-594.66 220.43,-581.88"/>
<polygon fill="black" stroke="black" points="223.09,-579.61 214.08,-574.04 217.65,-584.01 223.09,-579.61"/>
</g>
<!-- 66a21b34&#45;041b&#45;434d&#45;bfd0&#45;4a1a8caf379c&#45;&gt;9d963632&#45;24cd&#45;4918&#45;b75d&#45;e7af7d22601a -->
<g id="edge54" class="edge">
<title>66a21b34&#45;041b&#45;434d&#45;bfd0&#45;4a1a8caf379c&#45;&gt;9d963632&#45;24cd&#45;4918&#45;b75d&#45;e7af7d22601a</title>
<path fill="none" stroke="black" d="M227.76,-537.8C252.9,-523.74 288.43,-503.87 314.53,-489.28"/>
<polygon fill="black" stroke="black" points="316.31,-492.29 323.33,-484.35 312.9,-486.18 316.31,-492.29"/>
</g>
<!-- 4a53c591&#45;383d&#45;47e5&#45;93c8&#45;4500d4585818 -->
<g id="node12" class="node">
<title>4a53c591&#45;383d&#45;47e5&#45;93c8&#45;4500d4585818</title>
<polygon fill="none" stroke="black" stroke-dasharray="5,2" points="841,-880 659,-880 659,-844 841,-844 841,-880"/>
<text text-anchor="middle" x="750" y="-858.3" font-family="Times,serif" font-size="14.00" fill="darkgreen">FirstValid (Concurrent)</text>
</g>
<!-- 3c5cfedd&#45;79b5&#45;43e7&#45;832d&#45;e80e7b80b291 -->
<g id="node13" class="node">
<title>3c5cfedd&#45;79b5&#45;43e7&#45;832d&#45;e80e7b80b291</title>
<ellipse fill="none" stroke="black" cx="1180" cy="-789" rx="44" ry="18"/>
<text text-anchor="middle" x="1180" y="-785.3" font-family="Times,serif" font-size="14.00">Detect Red</text>
</g>
<!-- 4a53c591&#45;383d&#45;47e5&#45;93c8&#45;4500d4585818&#45;&gt;3c5cfedd&#45;79b5&#45;43e7&#45;832d&#45;e80e7b80b291 -->
<g id="edge10" class="edge">
<title>4a53c591&#45;383d&#45;47e5&#45;93c8&#45;4500d4585818&#45;&gt;3c5cfedd&#45;79b5&#45;43e7&#45;832d&#45;e80e7b80b291</title>
<path fill="none" stroke="black" d="M841.25,-848.36C912.02,-838.21 1012.46,-823.04 1100,-807 1110.48,-805.08 1121.69,-802.83 1132.29,-800.6"/>
<polygon fill="black" stroke="black" points="1133.19,-803.99 1142.24,-798.48 1131.73,-797.14 1133.19,-803.99"/>
</g>
<!-- f05c6d1a&#45;a1a2&#45;466e&#45;ab44&#45;9c7b5ee1b681 -->
<g id="node14" class="node">
<title>f05c6d1a&#45;a1a2&#45;466e&#45;ab44&#45;9c7b5ee1b681</title>
<ellipse fill="none" stroke="black" cx="503" cy="-789" rx="45.2" ry="18"/>
<text text-anchor="middle" x="503" y="-785.3" font-family="Times,serif" font-size="14.00">Detect Pole</text>
</g>
<!-- 4a53c591&#45;383d&#45;47e5&#45;93c8&#45;4500d4585818&#45;&gt;f05c6d1a&#45;a1a2&#45;466e&#45;ab44&#45;9c7b5ee1b681 -->
<g id="edge11" class="edge">
<title>4a53c591&#45;383d&#45;47e5&#45;93c8&#45;4500d4585818&#45;&gt;f05c6d1a&#45;a1a2&#45;466e&#45;ab44&#45;9c7b5ee1b681</title>
<path fill="none" stroke="black" d="M690.84,-843.99C647.02,-831.4 588.22,-814.5 548.16,-802.98"/>
<polygon fill="black" stroke="black" points="548.97,-799.57 538.4,-800.17 547.04,-806.3 548.97,-799.57"/>
</g>
<!-- 47b997f1&#45;b093&#45;4f9f&#45;af6b&#45;6ab21f44d3a0 -->
<g id="node15" class="node">
<title>47b997f1&#45;b093&#45;4f9f&#45;af6b&#45;6ab21f44d3a0</title>
<ellipse fill="none" stroke="black" cx="667" cy="-789" rx="46.5" ry="18"/>
<text text-anchor="middle" x="667" y="-785.3" font-family="Times,serif" font-size="14.00">Detect Blue</text>
</g>
<!-- 4a53c591&#45;383d&#45;47e5&#45;93c8&#45;4500d4585818&#45;&gt;47b997f1&#45;b093&#45;4f9f&#45;af6b&#45;6ab21f44d3a0 -->
<g id="edge12" class="edge">
<title>4a53c591&#45;383d&#45;47e5&#45;93c8&#45;4500d4585818&#45;&gt;47b997f1&#45;b093&#45;4f9f&#45;af6b&#45;6ab21f44d3a0</title>
<path fill="none" stroke="black" d="M729.91,-843.81C718.92,-834.41 705.16,-822.65 693.32,-812.52"/>
<polygon fill="black" stroke="black" points="695.36,-809.66 685.49,-805.82 690.81,-814.98 695.36,-809.66"/>
</g>
<!-- 1820b05c&#45;6ad2&#45;4935&#45;8e3f&#45;50ff126eaf39 -->
<g id="node16" class="node">
<title>1820b05c&#45;6ad2&#45;4935&#45;8e3f&#45;50ff126eaf39</title>
<ellipse fill="none" stroke="black" cx="833" cy="-789" rx="47.1" ry="18"/>
<text text-anchor="middle" x="833" y="-785.3" font-family="Times,serif" font-size="14.00">Detect Gate</text>
</g>
<!-- 4a53c591&#45;383d&#45;47e5&#45;93c8&#45;4500d4585818&#45;&gt;1820b05c&#45;6ad2&#45;4935&#45;8e3f&#45;50ff126eaf39 -->
<g id="edge13" class="edge">
<title>4a53c591&#45;383d&#45;47e5&#45;93c8&#45;4500d4585818&#45;&gt;1820b05c&#45;6ad2&#45;4935&#45;8e3f&#45;50ff126eaf39</title>
<path fill="none" stroke="black" d="M770.09,-843.81C781.08,-834.41 794.84,-822.65 806.68,-812.52"/>
<polygon fill="black" stroke="black" points="809.19,-814.98 814.51,-805.82 804.64,-809.66 809.19,-814.98"/>
</g>
<!-- 89af108f&#45;d1a0&#45;41ff&#45;8465&#45;5eae3ca30283 -->
<g id="node17" class="node">
<title>89af108f&#45;d1a0&#45;41ff&#45;8465&#45;5eae3ca30283</title>
<ellipse fill="none" stroke="black" cx="1008" cy="-789" rx="56.2" ry="18"/>
<text text-anchor="middle" x="1008" y="-785.3" font-family="Times,serif" font-size="14.00">Detect Middle</text>
</g>
<!-- 4a53c591&#45;383d&#45;47e5&#45;93c8&#45;4500d4585818&#45;&gt;89af108f&#45;d1a0&#45;41ff&#45;8465&#45;5eae3ca30283 -->
<g id="edge14" class="edge">
<title>4a53c591&#45;383d&#45;47e5&#45;93c8&#45;4500d4585818&#45;&gt;89af108f&#45;d1a0&#45;41ff&#45;8465&#45;5eae3ca30283</title>
<path fill="none" stroke="black" d="M811.8,-843.99C856.24,-831.76 915.44,-815.47 957.15,-803.99"/>
<polygon fill="black" stroke="black" points="958.11,-807.36 966.83,-801.33 956.26,-800.61 958.11,-807.36"/>
</g>
<!-- ed669987&#45;c326&#45;48ad&#45;995b&#45;a5568f484ce5 -->
<g id="node18" class="node">
<title>ed669987&#45;c326&#45;48ad&#45;995b&#45;a5568f484ce5</title>
<polygon fill="none" stroke="black" stroke-dasharray="5,2" points="875.5,-734 790.5,-734 790.5,-698 875.5,-698 875.5,-734"/>
<text text-anchor="middle" x="833" y="-712.3" font-family="Times,serif" font-size="14.00" fill="darkgreen">Converge</text>
</g>
<!-- 3c5cfedd&#45;79b5&#45;43e7&#45;832d&#45;e80e7b80b291&#45;&gt;ed669987&#45;c326&#45;48ad&#45;995b&#45;a5568f484ce5 -->
<g id="edge15" class="edge">
<title>3c5cfedd&#45;79b5&#45;43e7&#45;832d&#45;e80e7b80b291&#45;&gt;ed669987&#45;c326&#45;48ad&#45;995b&#45;a5568f484ce5</title>
<path fill="none" stroke="black" d="M1141.77,-779.8C1128.54,-776.98 1113.63,-773.83 1100,-771 1025.61,-755.57 939.44,-738.24 885.57,-727.47"/>
<polygon fill="black" stroke="black" points="886.06,-724 875.57,-725.48 884.69,-730.87 886.06,-724"/>
</g>
<!-- f05c6d1a&#45;a1a2&#45;466e&#45;ab44&#45;9c7b5ee1b681&#45;&gt;ed669987&#45;c326&#45;48ad&#45;995b&#45;a5568f484ce5 -->
<g id="edge16" class="edge">
<title>f05c6d1a&#45;a1a2&#45;466e&#45;ab44&#45;9c7b5ee1b681&#45;&gt;ed669987&#45;c326&#45;48ad&#45;995b&#45;a5568f484ce5</title>
<path fill="none" stroke="black" d="M541.83,-779.65C601.06,-766.9 714.1,-742.58 780.57,-728.28"/>
<polygon fill="black" stroke="black" points="781.38,-731.69 790.42,-726.16 779.91,-724.84 781.38,-731.69"/>
</g>
<!-- 47b997f1&#45;b093&#45;4f9f&#45;af6b&#45;6ab21f44d3a0&#45;&gt;ed669987&#45;c326&#45;48ad&#45;995b&#45;a5568f484ce5 -->
<g id="edge17" class="edge">
<title>47b997f1&#45;b093&#45;4f9f&#45;af6b&#45;6ab21f44d3a0&#45;&gt;ed669987&#45;c326&#45;48ad&#45;995b&#45;a5568f484ce5</title>
<path fill="none" stroke="black" d="M697.06,-775.14C721.24,-764.8 755.7,-750.06 783.87,-738.01"/>
<polygon fill="black" stroke="black" points="785.34,-741.19 793.16,-734.04 782.59,-734.75 785.34,-741.19"/>
</g>
<!-- 1820b05c&#45;6ad2&#45;4935&#45;8e3f&#45;50ff126eaf39&#45;&gt;ed669987&#45;c326&#45;48ad&#45;995b&#45;a5568f484ce5 -->
<g id="edge18" class="edge">
<title>1820b05c&#45;6ad2&#45;4935&#45;8e3f&#45;50ff126eaf39&#45;&gt;ed669987&#45;c326&#45;48ad&#45;995b&#45;a5568f484ce5</title>
<path fill="none" stroke="black" d="M833,-770.81C833,-762.79 833,-753.05 833,-744.07"/>
<polygon fill="black" stroke="black" points="836.5,-744.03 833,-734.03 829.5,-744.03 836.5,-744.03"/>
</g>
<!-- 89af108f&#45;d1a0&#45;41ff&#45;8465&#45;5eae3ca30283&#45;&gt;ed669987&#45;c326&#45;48ad&#45;995b&#45;a5568f484ce5 -->
<g id="edge19" class="edge">
<title>89af108f&#45;d1a0&#45;41ff&#45;8465&#45;5eae3ca30283&#45;&gt;ed669987&#45;c326&#45;48ad&#45;995b&#45;a5568f484ce5</title>
<path fill="none" stroke="black" d="M974.67,-774.48C949.28,-764.18 913.85,-749.8 884.78,-738.01"/>
<polygon fill="black" stroke="black" points="885.77,-734.63 875.18,-734.11 883.13,-741.12 885.77,-734.63"/>
</g>
<!-- e49be566&#45;67e1&#45;409f&#45;9215&#45;d4158105e733 -->
<g id="node26" class="node">
<title>e49be566&#45;67e1&#45;409f&#45;9215&#45;d4158105e733</title>
<polygon fill="none" stroke="black" stroke-dasharray="5,2" points="882,-647 784,-647 784,-611 882,-611 882,-647"/>
<text text-anchor="middle" x="833" y="-625.3" font-family="Times,serif" font-size="14.00" fill="blue">Concurrent</text>
</g>
<!-- ed669987&#45;c326&#45;48ad&#45;995b&#45;a5568f484ce5&#45;&gt;e49be566&#45;67e1&#45;409f&#45;9215&#45;d4158105e733 -->
<g id="edge46" class="edge">
<title>ed669987&#45;c326&#45;48ad&#45;995b&#45;a5568f484ce5&#45;&gt;e49be566&#45;67e1&#45;409f&#45;9215&#45;d4158105e733</title>
<path fill="none" stroke="purple" d="M833,-697.8C833,-686.16 833,-670.55 833,-657.24"/>
<polygon fill="purple" stroke="purple" points="836.5,-657.18 833,-647.18 829.5,-657.18 836.5,-657.18"/>
<text text-anchor="middle" x="868.5" y="-668.8" font-family="Times,serif" font-size="14.00" fill="purple">Pass Data</text>
</g>
<!-- 936ee24a&#45;6052&#45;476b&#45;955a&#45;9e913eeaa551 -->
<g id="node19" class="node">
<title>936ee24a&#45;6052&#45;476b&#45;955a&#45;9e913eeaa551</title>
<ellipse fill="none" stroke="black" cx="891" cy="-121" rx="27" ry="18"/>
<text text-anchor="middle" x="891" y="-117.3" font-family="Times,serif" font-size="14.00">StripY</text>
</g>
<!-- 35530822&#45;12db&#45;4db0&#45;b0d5&#45;9a93b692953c -->
<g id="node20" class="node">
<title>35530822&#45;12db&#45;4db0&#45;b0d5&#45;9a93b692953c</title>
<ellipse fill="none" stroke="black" cx="891" cy="-34" rx="80.11" ry="18"/>
<text text-anchor="middle" x="891" y="-30.3" font-family="Times,serif" font-size="14.00">Stability2Movement</text>
</g>
<!-- 936ee24a&#45;6052&#45;476b&#45;955a&#45;9e913eeaa551&#45;&gt;35530822&#45;12db&#45;4db0&#45;b0d5&#45;9a93b692953c -->
<g id="edge20" class="edge">
<title>936ee24a&#45;6052&#45;476b&#45;955a&#45;9e913eeaa551&#45;&gt;35530822&#45;12db&#45;4db0&#45;b0d5&#45;9a93b692953c</title>
<path fill="none" stroke="purple" d="M891,-102.8C891,-91.16 891,-75.55 891,-62.24"/>
<polygon fill="purple" stroke="purple" points="894.5,-62.18 891,-52.18 887.5,-62.18 894.5,-62.18"/>
<text text-anchor="middle" x="926.5" y="-73.8" font-family="Times,serif" font-size="14.00" fill="purple">Pass Data</text>
</g>
<!-- dc851c34&#45;b903&#45;4fa8&#45;ac95&#45;cd6cf3f8fb18 -->
<g id="node21" class="node">
<title>dc851c34&#45;b903&#45;4fa8&#45;ac95&#45;cd6cf3f8fb18</title>
<ellipse fill="none" stroke="black" cx="891" cy="-208" rx="67.81" ry="18"/>
<text text-anchor="middle" x="891" y="-204.3" font-family="Times,serif" font-size="14.00">LinearYawFromX</text>
</g>
<!-- dc851c34&#45;b903&#45;4fa8&#45;ac95&#45;cd6cf3f8fb18&#45;&gt;936ee24a&#45;6052&#45;476b&#45;955a&#45;9e913eeaa551 -->
<g id="edge21" class="edge">
<title>dc851c34&#45;b903&#45;4fa8&#45;ac95&#45;cd6cf3f8fb18&#45;&gt;936ee24a&#45;6052&#45;476b&#45;955a&#45;9e913eeaa551</title>
<path fill="none" stroke="purple" d="M891,-189.8C891,-178.16 891,-162.55 891,-149.24"/>
<polygon fill="purple" stroke="purple" points="894.5,-149.18 891,-139.18 887.5,-149.18 894.5,-149.18"/>
<text text-anchor="middle" x="926.5" y="-160.8" font-family="Times,serif" font-size="14.00" fill="purple">Pass Data</text>
</g>
<!-- b7c151b1&#45;3526&#45;4b18&#45;beb4&#45;15e8609ff1f0 -->
<g id="node22" class="node">
<title>b7c151b1&#45;3526&#45;4b18&#45;beb4&#45;15e8609ff1f0</title>
<ellipse fill="none" stroke="black" cx="892" cy="-295" rx="51.3" ry="18"/>
<text text-anchor="middle" x="892" y="-291.3" font-family="Times,serif" font-size="14.00">OffsetToPose</text>
</g>
<!-- b7c151b1&#45;3526&#45;4b18&#45;beb4&#45;15e8609ff1f0&#45;&gt;dc851c34&#45;b903&#45;4fa8&#45;ac95&#45;cd6cf3f8fb18 -->
<g id="edge22" class="edge">
<title>b7c151b1&#45;3526&#45;4b18&#45;beb4&#45;15e8609ff1f0&#45;&gt;dc851c34&#45;b903&#45;4fa8&#45;ac95&#45;cd6cf3f8fb18</title>
<path fill="none" stroke="purple" d="M891.8,-276.8C891.66,-265.16 891.48,-249.55 891.32,-236.24"/>
<polygon fill="purple" stroke="purple" points="894.82,-236.13 891.2,-226.18 887.82,-236.22 894.82,-236.13"/>
<text text-anchor="middle" x="926.5" y="-247.8" font-family="Times,serif" font-size="14.00" fill="purple">Pass Data</text>
</g>
<!-- 873b54b5&#45;779b&#45;4b7d&#45;9385&#45;06edfaf82de6 -->
<g id="node23" class="node">
<title>873b54b5&#45;779b&#45;4b7d&#45;9385&#45;06edfaf82de6</title>
<ellipse fill="none" stroke="black" cx="893" cy="-382" rx="32.4" ry="18"/>
<text text-anchor="middle" x="893" y="-378.3" font-family="Times,serif" font-size="14.00">Average</text>
</g>
<!-- 873b54b5&#45;779b&#45;4b7d&#45;9385&#45;06edfaf82de6&#45;&gt;b7c151b1&#45;3526&#45;4b18&#45;beb4&#45;15e8609ff1f0 -->
<g id="edge23" class="edge">
<title>873b54b5&#45;779b&#45;4b7d&#45;9385&#45;06edfaf82de6&#45;&gt;b7c151b1&#45;3526&#45;4b18&#45;beb4&#45;15e8609ff1f0</title>
<path fill="none" stroke="purple" d="M892.8,-363.8C892.66,-352.16 892.48,-336.55 892.32,-323.24"/>
<polygon fill="purple" stroke="purple" points="895.82,-323.13 892.2,-313.18 888.82,-323.22 895.82,-323.13"/>
<text text-anchor="middle" x="927.5" y="-334.8" font-family="Times,serif" font-size="14.00" fill="purple">Pass Data</text>
</g>
<!-- a28bedfe&#45;a625&#45;44ed&#45;8f49&#45;624c83afde3d -->
<g id="node24" class="node">
<title>a28bedfe&#45;a625&#45;44ed&#45;8f49&#45;624c83afde3d</title>
<ellipse fill="none" stroke="black" cx="895" cy="-469" rx="61.1" ry="18"/>
<text text-anchor="middle" x="895" y="-465.3" font-family="Times,serif" font-size="14.00">ExtractPosition</text>
</g>
<!-- a28bedfe&#45;a625&#45;44ed&#45;8f49&#45;624c83afde3d&#45;&gt;873b54b5&#45;779b&#45;4b7d&#45;9385&#45;06edfaf82de6 -->
<g id="edge24" class="edge">
<title>a28bedfe&#45;a625&#45;44ed&#45;8f49&#45;624c83afde3d&#45;&gt;873b54b5&#45;779b&#45;4b7d&#45;9385&#45;06edfaf82de6</title>
<path fill="none" stroke="purple" d="M894.6,-450.8C894.32,-439.16 893.95,-423.55 893.64,-410.24"/>
<polygon fill="purple" stroke="purple" points="897.14,-410.09 893.4,-400.18 890.14,-410.26 897.14,-410.09"/>
<text text-anchor="middle" x="929.5" y="-421.8" font-family="Times,serif" font-size="14.00" fill="purple">Pass Data</text>
</g>
<!-- 385a2c64&#45;3c16&#45;4519&#45;83b5&#45;075296685cbd -->
<g id="node25" class="node">
<title>385a2c64&#45;3c16&#45;4519&#45;83b5&#45;075296685cbd</title>
<ellipse fill="none" stroke="black" cx="944" cy="-556" rx="27" ry="18"/>
<text text-anchor="middle" x="944" y="-552.3" font-family="Times,serif" font-size="14.00">ToVec</text>
</g>
<!-- 385a2c64&#45;3c16&#45;4519&#45;83b5&#45;075296685cbd&#45;&gt;a28bedfe&#45;a625&#45;44ed&#45;8f49&#45;624c83afde3d -->
<g id="edge25" class="edge">
<title>385a2c64&#45;3c16&#45;4519&#45;83b5&#45;075296685cbd&#45;&gt;a28bedfe&#45;a625&#45;44ed&#45;8f49&#45;624c83afde3d</title>
<path fill="none" stroke="purple" d="M934.78,-539.01C927.73,-526.78 917.87,-509.68 909.73,-495.56"/>
<polygon fill="purple" stroke="purple" points="912.7,-493.7 904.68,-486.79 906.64,-497.2 912.7,-493.7"/>
<text text-anchor="middle" x="957.5" y="-508.8" font-family="Times,serif" font-size="14.00" fill="purple">Pass Data</text>
</g>
<!-- e49be566&#45;67e1&#45;409f&#45;9215&#45;d4158105e733&#45;&gt;cb03d306&#45;1cdc&#45;49b5&#45;a61a&#45;e1b2db4b19f5 -->
<g id="edge27" class="edge">
<title>e49be566&#45;67e1&#45;409f&#45;9215&#45;d4158105e733&#45;&gt;cb03d306&#45;1cdc&#45;49b5&#45;a61a&#45;e1b2db4b19f5</title>
<path fill="none" stroke="black" d="M806.89,-610.99C791.06,-600.68 770.78,-587.47 754.25,-576.7"/>
<polygon fill="black" stroke="black" points="755.79,-573.53 745.5,-571.01 751.97,-579.4 755.79,-573.53"/>
</g>
<!-- e49be566&#45;67e1&#45;409f&#45;9215&#45;d4158105e733&#45;&gt;385a2c64&#45;3c16&#45;4519&#45;83b5&#45;075296685cbd -->
<g id="edge26" class="edge">
<title>e49be566&#45;67e1&#45;409f&#45;9215&#45;d4158105e733&#45;&gt;385a2c64&#45;3c16&#45;4519&#45;83b5&#45;075296685cbd</title>
<path fill="none" stroke="black" d="M859.59,-610.99C876.85,-599.95 899.28,-585.6 916.68,-574.47"/>
<polygon fill="black" stroke="black" points="918.73,-577.32 925.27,-568.98 914.96,-571.42 918.73,-577.32"/>
</g>
<!-- 516d0350&#45;8dff&#45;4bed&#45;8d52&#45;1b9eca3764de -->
<g id="node27" class="node">
<title>516d0350&#45;8dff&#45;4bed&#45;8d52&#45;1b9eca3764de</title>
<polygon fill="none" stroke="black" stroke-dasharray="5,2" points="1825,-880 1643,-880 1643,-844 1825,-844 1825,-880"/>
<text text-anchor="middle" x="1734" y="-858.3" font-family="Times,serif" font-size="14.00" fill="darkgreen">FirstValid (Concurrent)</text>
</g>
<!-- 92a55454&#45;0f05&#45;49b7&#45;9f87&#45;66e3427d3f0a -->
<g id="node28" class="node">
<title>92a55454&#45;0f05&#45;49b7&#45;9f87&#45;66e3427d3f0a</title>
<ellipse fill="none" stroke="black" cx="2164" cy="-789" rx="44" ry="18"/>
<text text-anchor="middle" x="2164" y="-785.3" font-family="Times,serif" font-size="14.00">Detect Red</text>
</g>
<!-- 516d0350&#45;8dff&#45;4bed&#45;8d52&#45;1b9eca3764de&#45;&gt;92a55454&#45;0f05&#45;49b7&#45;9f87&#45;66e3427d3f0a -->
<g id="edge28" class="edge">
<title>516d0350&#45;8dff&#45;4bed&#45;8d52&#45;1b9eca3764de&#45;&gt;92a55454&#45;0f05&#45;49b7&#45;9f87&#45;66e3427d3f0a</title>
<path fill="none" stroke="black" d="M1825.25,-848.36C1896.02,-838.21 1996.46,-823.04 2084,-807 2094.48,-805.08 2105.69,-802.83 2116.29,-800.6"/>
<polygon fill="black" stroke="black" points="2117.19,-803.99 2126.24,-798.48 2115.73,-797.14 2117.19,-803.99"/>
</g>
<!-- f6b0f81d&#45;f0c9&#45;43dd&#45;9783&#45;f53d269cc490 -->
<g id="node29" class="node">
<title>f6b0f81d&#45;f0c9&#45;43dd&#45;9783&#45;f53d269cc490</title>
<ellipse fill="none" stroke="black" cx="1487" cy="-789" rx="45.2" ry="18"/>
<text text-anchor="middle" x="1487" y="-785.3" font-family="Times,serif" font-size="14.00">Detect Pole</text>
</g>
<!-- 516d0350&#45;8dff&#45;4bed&#45;8d52&#45;1b9eca3764de&#45;&gt;f6b0f81d&#45;f0c9&#45;43dd&#45;9783&#45;f53d269cc490 -->
<g id="edge29" class="edge">
<title>516d0350&#45;8dff&#45;4bed&#45;8d52&#45;1b9eca3764de&#45;&gt;f6b0f81d&#45;f0c9&#45;43dd&#45;9783&#45;f53d269cc490</title>
<path fill="none" stroke="black" d="M1674.84,-843.99C1631.02,-831.4 1572.22,-814.5 1532.16,-802.98"/>
<polygon fill="black" stroke="black" points="1532.97,-799.57 1522.4,-800.17 1531.04,-806.3 1532.97,-799.57"/>
</g>
<!-- 9d279c31&#45;f533&#45;4c18&#45;a047&#45;7d191a8212c6 -->
<g id="node30" class="node">
<title>9d279c31&#45;f533&#45;4c18&#45;a047&#45;7d191a8212c6</title>
<ellipse fill="none" stroke="black" cx="1651" cy="-789" rx="46.5" ry="18"/>
<text text-anchor="middle" x="1651" y="-785.3" font-family="Times,serif" font-size="14.00">Detect Blue</text>
</g>
<!-- 516d0350&#45;8dff&#45;4bed&#45;8d52&#45;1b9eca3764de&#45;&gt;9d279c31&#45;f533&#45;4c18&#45;a047&#45;7d191a8212c6 -->
<g id="edge30" class="edge">
<title>516d0350&#45;8dff&#45;4bed&#45;8d52&#45;1b9eca3764de&#45;&gt;9d279c31&#45;f533&#45;4c18&#45;a047&#45;7d191a8212c6</title>
<path fill="none" stroke="black" d="M1713.91,-843.81C1702.92,-834.41 1689.16,-822.65 1677.32,-812.52"/>
<polygon fill="black" stroke="black" points="1679.36,-809.66 1669.49,-805.82 1674.81,-814.98 1679.36,-809.66"/>
</g>
<!-- 603368bd&#45;d720&#45;4545&#45;9586&#45;346b2a04c3bd -->
<g id="node31" class="node">
<title>603368bd&#45;d720&#45;4545&#45;9586&#45;346b2a04c3bd</title>
<ellipse fill="none" stroke="black" cx="1817" cy="-789" rx="47.1" ry="18"/>
<text text-anchor="middle" x="1817" y="-785.3" font-family="Times,serif" font-size="14.00">Detect Gate</text>
</g>
<!-- 516d0350&#45;8dff&#45;4bed&#45;8d52&#45;1b9eca3764de&#45;&gt;603368bd&#45;d720&#45;4545&#45;9586&#45;346b2a04c3bd -->
<g id="edge31" class="edge">
<title>516d0350&#45;8dff&#45;4bed&#45;8d52&#45;1b9eca3764de&#45;&gt;603368bd&#45;d720&#45;4545&#45;9586&#45;346b2a04c3bd</title>
<path fill="none" stroke="black" d="M1754.09,-843.81C1765.08,-834.41 1778.84,-822.65 1790.68,-812.52"/>
<polygon fill="black" stroke="black" points="1793.19,-814.98 1798.51,-805.82 1788.64,-809.66 1793.19,-814.98"/>
</g>
<!-- 43ced29f&#45;c354&#45;4629&#45;b5ba&#45;4aaf5b4ed003 -->
<g id="node32" class="node">
<title>43ced29f&#45;c354&#45;4629&#45;b5ba&#45;4aaf5b4ed003</title>
<ellipse fill="none" stroke="black" cx="1992" cy="-789" rx="56.2" ry="18"/>
<text text-anchor="middle" x="1992" y="-785.3" font-family="Times,serif" font-size="14.00">Detect Middle</text>
</g>
<!-- 516d0350&#45;8dff&#45;4bed&#45;8d52&#45;1b9eca3764de&#45;&gt;43ced29f&#45;c354&#45;4629&#45;b5ba&#45;4aaf5b4ed003 -->
<g id="edge32" class="edge">
<title>516d0350&#45;8dff&#45;4bed&#45;8d52&#45;1b9eca3764de&#45;&gt;43ced29f&#45;c354&#45;4629&#45;b5ba&#45;4aaf5b4ed003</title>
<path fill="none" stroke="black" d="M1795.8,-843.99C1840.24,-831.76 1899.44,-815.47 1941.15,-803.99"/>
<polygon fill="black" stroke="black" points="1942.11,-807.36 1950.83,-801.33 1940.26,-800.61 1942.11,-807.36"/>
</g>
<!-- f6c4f07d&#45;f5d6&#45;4ae3&#45;bc45&#45;f674eaf5cc63 -->
<g id="node33" class="node">
<title>f6c4f07d&#45;f5d6&#45;4ae3&#45;bc45&#45;f674eaf5cc63</title>
<polygon fill="none" stroke="black" stroke-dasharray="5,2" points="1852.5,-734 1767.5,-734 1767.5,-698 1852.5,-698 1852.5,-734"/>
<text text-anchor="middle" x="1810" y="-712.3" font-family="Times,serif" font-size="14.00" fill="darkgreen">Converge</text>
</g>
<!-- 92a55454&#45;0f05&#45;49b7&#45;9f87&#45;66e3427d3f0a&#45;&gt;f6c4f07d&#45;f5d6&#45;4ae3&#45;bc45&#45;f674eaf5cc63 -->
<g id="edge33" class="edge">
<title>92a55454&#45;0f05&#45;49b7&#45;9f87&#45;66e3427d3f0a&#45;&gt;f6c4f07d&#45;f5d6&#45;4ae3&#45;bc45&#45;f674eaf5cc63</title>
<path fill="none" stroke="black" d="M2125.77,-779.76C2112.55,-776.94 2097.63,-773.79 2084,-771 2007.09,-755.25 1917.85,-737.82 1862.65,-727.14"/>
<polygon fill="black" stroke="black" points="1863.24,-723.68 1852.75,-725.22 1861.91,-730.56 1863.24,-723.68"/>
</g>
<!-- f6b0f81d&#45;f0c9&#45;43dd&#45;9783&#45;f53d269cc490&#45;&gt;f6c4f07d&#45;f5d6&#45;4ae3&#45;bc45&#45;f674eaf5cc63 -->
<g id="edge34" class="edge">
<title>f6b0f81d&#45;f0c9&#45;43dd&#45;9783&#45;f53d269cc490&#45;&gt;f6c4f07d&#45;f5d6&#45;4ae3&#45;bc45&#45;f674eaf5cc63</title>
<path fill="none" stroke="black" d="M1525.64,-779.51C1583.42,-766.81 1692.46,-742.84 1757.44,-728.55"/>
<polygon fill="black" stroke="black" points="1758.46,-731.91 1767.47,-726.35 1756.96,-725.08 1758.46,-731.91"/>
</g>
<!-- 9d279c31&#45;f533&#45;4c18&#45;a047&#45;7d191a8212c6&#45;&gt;f6c4f07d&#45;f5d6&#45;4ae3&#45;bc45&#45;f674eaf5cc63 -->
<g id="edge35" class="edge">
<title>9d279c31&#45;f533&#45;4c18&#45;a047&#45;7d191a8212c6&#45;&gt;f6c4f07d&#45;f5d6&#45;4ae3&#45;bc45&#45;f674eaf5cc63</title>
<path fill="none" stroke="black" d="M1680.53,-774.81C1703.59,-764.52 1736.08,-750.01 1762.74,-738.1"/>
<polygon fill="black" stroke="black" points="1764.2,-741.29 1771.9,-734.01 1761.34,-734.89 1764.2,-741.29"/>
</g>
<!-- 603368bd&#45;d720&#45;4545&#45;9586&#45;346b2a04c3bd&#45;&gt;f6c4f07d&#45;f5d6&#45;4ae3&#45;bc45&#45;f674eaf5cc63 -->
<g id="edge36" class="edge">
<title>603368bd&#45;d720&#45;4545&#45;9586&#45;346b2a04c3bd&#45;&gt;f6c4f07d&#45;f5d6&#45;4ae3&#45;bc45&#45;f674eaf5cc63</title>
<path fill="none" stroke="black" d="M1815.31,-770.81C1814.51,-762.79 1813.55,-753.05 1812.67,-744.07"/>
<polygon fill="black" stroke="black" points="1816.14,-743.64 1811.68,-734.03 1809.18,-744.32 1816.14,-743.64"/>
</g>
<!-- 43ced29f&#45;c354&#45;4629&#45;b5ba&#45;4aaf5b4ed003&#45;&gt;f6c4f07d&#45;f5d6&#45;4ae3&#45;bc45&#45;f674eaf5cc63 -->
<g id="edge37" class="edge">
<title>43ced29f&#45;c354&#45;4629&#45;b5ba&#45;4aaf5b4ed003&#45;&gt;f6c4f07d&#45;f5d6&#45;4ae3&#45;bc45&#45;f674eaf5cc63</title>
<path fill="none" stroke="black" d="M1957.77,-774.65C1930.91,-764.17 1893.08,-749.41 1862.42,-737.45"/>
<polygon fill="black" stroke="black" points="1863.33,-734.05 1852.74,-733.67 1860.79,-740.57 1863.33,-734.05"/>
</g>
<!-- 5b0dba4f&#45;7485&#45;4816&#45;a316&#45;4b5cba11b61c -->
<g id="node41" class="node">
<title>5b0dba4f&#45;7485&#45;4816&#45;a316&#45;4b5cba11b61c</title>
<polygon fill="none" stroke="black" stroke-dasharray="5,2" points="1848,-647 1750,-647 1750,-611 1848,-611 1848,-647"/>
<text text-anchor="middle" x="1799" y="-625.3" font-family="Times,serif" font-size="14.00" fill="blue">Concurrent</text>
</g>
<!-- f6c4f07d&#45;f5d6&#45;4ae3&#45;bc45&#45;f674eaf5cc63&#45;&gt;5b0dba4f&#45;7485&#45;4816&#45;a316&#45;4b5cba11b61c -->
<g id="edge49" class="edge">
<title>f6c4f07d&#45;f5d6&#45;4ae3&#45;bc45&#45;f674eaf5cc63&#45;&gt;5b0dba4f&#45;7485&#45;4816&#45;a316&#45;4b5cba11b61c</title>
<path fill="none" stroke="purple" d="M1807.77,-697.8C1806.27,-686.16 1804.25,-670.55 1802.52,-657.24"/>
<polygon fill="purple" stroke="purple" points="1805.98,-656.64 1801.22,-647.18 1799.04,-657.54 1805.98,-656.64"/>
<text text-anchor="middle" x="1840.5" y="-668.8" font-family="Times,serif" font-size="14.00" fill="purple">Pass Data</text>
</g>
<!-- 21bc113d&#45;5858&#45;4de1&#45;8206&#45;4661ba93c155 -->
<g id="node34" class="node">
<title>21bc113d&#45;5858&#45;4de1&#45;8206&#45;4661ba93c155</title>
<ellipse fill="none" stroke="black" cx="1749" cy="-121" rx="27" ry="18"/>
<text text-anchor="middle" x="1749" y="-117.3" font-family="Times,serif" font-size="14.00">StripY</text>
</g>
<!-- 5d9a9e29&#45;fa60&#45;4096&#45;979e&#45;8b9a3150fbd4 -->
<g id="node35" class="node">
<title>5d9a9e29&#45;fa60&#45;4096&#45;979e&#45;8b9a3150fbd4</title>
<ellipse fill="none" stroke="black" cx="1749" cy="-34" rx="80.11" ry="18"/>
<text text-anchor="middle" x="1749" y="-30.3" font-family="Times,serif" font-size="14.00">Stability2Movement</text>
</g>
<!-- 21bc113d&#45;5858&#45;4de1&#45;8206&#45;4661ba93c155&#45;&gt;5d9a9e29&#45;fa60&#45;4096&#45;979e&#45;8b9a3150fbd4 -->
<g id="edge38" class="edge">
<title>21bc113d&#45;5858&#45;4de1&#45;8206&#45;4661ba93c155&#45;&gt;5d9a9e29&#45;fa60&#45;4096&#45;979e&#45;8b9a3150fbd4</title>
<path fill="none" stroke="purple" d="M1749,-102.8C1749,-91.16 1749,-75.55 1749,-62.24"/>
<polygon fill="purple" stroke="purple" points="1752.5,-62.18 1749,-52.18 1745.5,-62.18 1752.5,-62.18"/>
<text text-anchor="middle" x="1784.5" y="-73.8" font-family="Times,serif" font-size="14.00" fill="purple">Pass Data</text>
</g>
<!-- 4aaedf81&#45;f9b3&#45;48d9&#45;9143&#45;b36ea675aae6 -->
<g id="node36" class="node">
<title>4aaedf81&#45;f9b3&#45;48d9&#45;9143&#45;b36ea675aae6</title>
<ellipse fill="none" stroke="black" cx="1749" cy="-208" rx="67.81" ry="18"/>
<text text-anchor="middle" x="1749" y="-204.3" font-family="Times,serif" font-size="14.00">LinearYawFromX</text>
</g>
<!-- 4aaedf81&#45;f9b3&#45;48d9&#45;9143&#45;b36ea675aae6&#45;&gt;21bc113d&#45;5858&#45;4de1&#45;8206&#45;4661ba93c155 -->
<g id="edge39" class="edge">
<title>4aaedf81&#45;f9b3&#45;48d9&#45;9143&#45;b36ea675aae6&#45;&gt;21bc113d&#45;5858&#45;4de1&#45;8206&#45;4661ba93c155</title>
<path fill="none" stroke="purple" d="M1749,-189.8C1749,-178.16 1749,-162.55 1749,-149.24"/>
<polygon fill="purple" stroke="purple" points="1752.5,-149.18 1749,-139.18 1745.5,-149.18 1752.5,-149.18"/>
<text text-anchor="middle" x="1784.5" y="-160.8" font-family="Times,serif" font-size="14.00" fill="purple">Pass Data</text>
</g>
<!-- 330af94c&#45;857e&#45;46a0&#45;bd13&#45;9f05b1258d02 -->
<g id="node37" class="node">
<title>330af94c&#45;857e&#45;46a0&#45;bd13&#45;9f05b1258d02</title>
<ellipse fill="none" stroke="black" cx="1749" cy="-295" rx="51.3" ry="18"/>
<text text-anchor="middle" x="1749" y="-291.3" font-family="Times,serif" font-size="14.00">OffsetToPose</text>
</g>
<!-- 330af94c&#45;857e&#45;46a0&#45;bd13&#45;9f05b1258d02&#45;&gt;4aaedf81&#45;f9b3&#45;48d9&#45;9143&#45;b36ea675aae6 -->
<g id="edge40" class="edge">
<title>330af94c&#45;857e&#45;46a0&#45;bd13&#45;9f05b1258d02&#45;&gt;4aaedf81&#45;f9b3&#45;48d9&#45;9143&#45;b36ea675aae6</title>
<path fill="none" stroke="purple" d="M1749,-276.8C1749,-265.16 1749,-249.55 1749,-236.24"/>
<polygon fill="purple" stroke="purple" points="1752.5,-236.18 1749,-226.18 1745.5,-236.18 1752.5,-236.18"/>
<text text-anchor="middle" x="1784.5" y="-247.8" font-family="Times,serif" font-size="14.00" fill="purple">Pass Data</text>
</g>
<!-- 56fb1c9a&#45;ceb9&#45;4979&#45;abc9&#45;22d504a1349d -->
<g id="node38" class="node">
<title>56fb1c9a&#45;ceb9&#45;4979&#45;abc9&#45;22d504a1349d</title>
<ellipse fill="none" stroke="black" cx="1749" cy="-382" rx="32.4" ry="18"/>
<text text-anchor="middle" x="1749" y="-378.3" font-family="Times,serif" font-size="14.00">Average</text>
</g>
<!-- 56fb1c9a&#45;ceb9&#45;4979&#45;abc9&#45;22d504a1349d&#45;&gt;330af94c&#45;857e&#45;46a0&#45;bd13&#45;9f05b1258d02 -->
<g id="edge41" class="edge">
<title>56fb1c9a&#45;ceb9&#45;4979&#45;abc9&#45;22d504a1349d&#45;&gt;330af94c&#45;857e&#45;46a0&#45;bd13&#45;9f05b1258d02</title>
<path fill="none" stroke="purple" d="M1749,-363.8C1749,-352.16 1749,-336.55 1749,-323.24"/>
<polygon fill="purple" stroke="purple" points="1752.5,-323.18 1749,-313.18 1745.5,-323.18 1752.5,-323.18"/>
<text text-anchor="middle" x="1784.5" y="-334.8" font-family="Times,serif" font-size="14.00" fill="purple">Pass Data</text>
</g>
<!-- 923c868a&#45;e9bf&#45;4661&#45;98cd&#45;0d0aca098dd2 -->
<g id="node39" class="node">
<title>923c868a&#45;e9bf&#45;4661&#45;98cd&#45;0d0aca098dd2</title>
<ellipse fill="none" stroke="black" cx="1749" cy="-469" rx="61.1" ry="18"/>
<text text-anchor="middle" x="1749" y="-465.3" font-family="Times,serif" font-size="14.00">ExtractPosition</text>
</g>
<!-- 923c868a&#45;e9bf&#45;4661&#45;98cd&#45;0d0aca098dd2&#45;&gt;56fb1c9a&#45;ceb9&#45;4979&#45;abc9&#45;22d504a1349d -->
<g id="edge42" class="edge">
<title>923c868a&#45;e9bf&#45;4661&#45;98cd&#45;0d0aca098dd2&#45;&gt;56fb1c9a&#45;ceb9&#45;4979&#45;abc9&#45;22d504a1349d</title>
<path fill="none" stroke="purple" d="M1749,-450.8C1749,-439.16 1749,-423.55 1749,-410.24"/>
<polygon fill="purple" stroke="purple" points="1752.5,-410.18 1749,-400.18 1745.5,-410.18 1752.5,-410.18"/>
<text text-anchor="middle" x="1784.5" y="-421.8" font-family="Times,serif" font-size="14.00" fill="purple">Pass Data</text>
</g>
<!-- 53368ff7&#45;1a11&#45;4439&#45;bfa0&#45;262dce55661d -->
<g id="node40" class="node">
<title>53368ff7&#45;1a11&#45;4439&#45;bfa0&#45;262dce55661d</title>
<ellipse fill="none" stroke="black" cx="1821" cy="-556" rx="27" ry="18"/>
<text text-anchor="middle" x="1821" y="-552.3" font-family="Times,serif" font-size="14.00">ToVec</text>
</g>
<!-- 53368ff7&#45;1a11&#45;4439&#45;bfa0&#45;262dce55661d&#45;&gt;923c868a&#45;e9bf&#45;4661&#45;98cd&#45;0d0aca098dd2 -->
<g id="edge43" class="edge">
<title>53368ff7&#45;1a11&#45;4439&#45;bfa0&#45;262dce55661d&#45;&gt;923c868a&#45;e9bf&#45;4661&#45;98cd&#45;0d0aca098dd2</title>
<path fill="none" stroke="purple" d="M1803.67,-541.67C1796.24,-535.51 1787.74,-527.83 1781,-520 1774.65,-512.62 1768.63,-503.88 1763.56,-495.79"/>
<polygon fill="purple" stroke="purple" points="1766.44,-493.79 1758.27,-487.03 1760.45,-497.4 1766.44,-493.79"/>
<text text-anchor="middle" x="1816.5" y="-508.8" font-family="Times,serif" font-size="14.00" fill="purple">Pass Data</text>
</g>
<!-- 5b0dba4f&#45;7485&#45;4816&#45;a316&#45;4b5cba11b61c&#45;&gt;bbfb1464&#45;9a76&#45;4c11&#45;bd39&#45;a68164623d3b -->
<g id="edge45" class="edge">
<title>5b0dba4f&#45;7485&#45;4816&#45;a316&#45;4b5cba11b61c&#45;&gt;bbfb1464&#45;9a76&#45;4c11&#45;bd39&#45;a68164623d3b</title>
<path fill="none" stroke="black" d="M1749.97,-611.26C1715.54,-599.51 1669.82,-583.9 1636.25,-572.45"/>
<polygon fill="black" stroke="black" points="1637.28,-569.1 1626.69,-569.18 1635.02,-575.73 1637.28,-569.1"/>
</g>
<!-- 5b0dba4f&#45;7485&#45;4816&#45;a316&#45;4b5cba11b61c&#45;&gt;53368ff7&#45;1a11&#45;4439&#45;bfa0&#45;262dce55661d -->
<g id="edge44" class="edge">
<title>5b0dba4f&#45;7485&#45;4816&#45;a316&#45;4b5cba11b61c&#45;&gt;53368ff7&#45;1a11&#45;4439&#45;bfa0&#45;262dce55661d</title>
<path fill="none" stroke="black" d="M1804.33,-610.81C1806.84,-602.7 1809.9,-592.84 1812.7,-583.78"/>
<polygon fill="black" stroke="black" points="1816.11,-584.62 1815.72,-574.03 1809.42,-582.54 1816.11,-584.62"/>
</g>
<!-- 9d963632&#45;24cd&#45;4918&#45;b75d&#45;e7af7d22601a&#45;&gt;4a53c591&#45;383d&#45;47e5&#45;93c8&#45;4500d4585818 -->
<g id="edge47" class="edge">
<title>9d963632&#45;24cd&#45;4918&#45;b75d&#45;e7af7d22601a&#45;&gt;4a53c591&#45;383d&#45;47e5&#45;93c8&#45;4500d4585818</title>
<path fill="none" stroke="purple" d="M349,-487.26C349,-504.43 349,-531.54 349,-555 349,-790 349,-790 349,-790 349,-820.38 529.74,-841.97 648.53,-852.88"/>
<polygon fill="purple" stroke="purple" points="648.48,-856.39 658.76,-853.8 649.11,-849.42 648.48,-856.39"/>
<text text-anchor="middle" x="384.5" y="-668.8" font-family="Times,serif" font-size="14.00" fill="purple">Pass Data</text>
</g>
<!-- ac32b800&#45;937c&#45;4a4d&#45;82f4&#45;b3d16432513b&#45;&gt;516d0350&#45;8dff&#45;4bed&#45;8d52&#45;1b9eca3764de -->
<g id="edge50" class="edge">
<title>ac32b800&#45;937c&#45;4a4d&#45;82f4&#45;b3d16432513b&#45;&gt;516d0350&#45;8dff&#45;4bed&#45;8d52&#45;1b9eca3764de</title>
<path fill="none" stroke="purple" d="M1333,-487.26C1333,-504.43 1333,-531.54 1333,-555 1333,-790 1333,-790 1333,-790 1333,-820.38 1513.74,-841.97 1632.53,-852.88"/>
<polygon fill="purple" stroke="purple" points="1632.48,-856.39 1642.76,-853.8 1633.11,-849.42 1632.48,-856.39"/>
<text text-anchor="middle" x="1368.5" y="-668.8" font-family="Times,serif" font-size="14.00" fill="purple">Pass Data</text>
</g>
</g>
</svg>
