<?xml version="1.0" encoding="UTF-8" standalone="no"?>
<!DOCTYPE svg PUBLIC "-//W3C//DTD SVG 1.1//EN"
 "http://www.w3.org/Graphics/SVG/1.1/DTD/svg11.dtd">
<!-- Generated by graphviz version 2.43.0 (0)
 -->
<!-- Title: G Pages: 1 -->
<svg width="2232pt" height="1158pt"
 viewBox="0.00 0.00 2232.00 1158.00" xmlns="http://www.w3.org/2000/svg" xmlns:xlink="http://www.w3.org/1999/xlink">
<g id="graph0" class="graph" transform="scale(1 1) rotate(0) translate(4 1154)">
<title>G</title>
<polygon fill="transparent" stroke="transparent" points="-4,4 -4,-1154 2228,-1154 2228,4 -4,4"/>
<g id="clust1" class="cluster">
<title>cluster_418a866e&#45;217e&#45;4a46&#45;b49d&#45;3e1958d2cb5e</title>
<polygon fill="transparent" stroke="blue" stroke-dasharray="5,2" points="8,-530 8,-1142 248,-1142 248,-530 8,-530"/>
</g>
<g id="clust2" class="cluster">
<title>cluster_d743cfb4&#45;8735&#45;41b4&#45;8e05&#45;a9480ed8c60a</title>
<polygon fill="transparent" stroke="darkgreen" stroke-dasharray="5,2" points="450,-690 450,-888 1232,-888 1232,-690 450,-690"/>
</g>
<g id="clust3" class="cluster">
<title>cluster_d3cff02f&#45;ed48&#45;4c27&#45;b0e0&#45;10c3b04c4490</title>
<polygon fill="transparent" stroke="blue" stroke-dasharray="5,2" points="595,-8 595,-655 979,-655 979,-8 595,-8"/>
</g>
<g id="clust4" class="cluster">
<title>cluster_2e8ab3e4&#45;54b2&#45;4ee0&#45;a17f&#45;d8bf9b89af16</title>
<polygon fill="transparent" stroke="darkgreen" stroke-dasharray="5,2" points="1434,-690 1434,-888 2216,-888 2216,-690 1434,-690"/>
</g>
<g id="clust5" class="cluster">
<title>cluster_ad8dfee0&#45;fe3a&#45;4045&#45;8161&#45;bf94fcebcf06</title>
<polygon fill="transparent" stroke="blue" stroke-dasharray="5,2" points="1452,-8 1452,-655 1856,-655 1856,-8 1452,-8"/>
</g>
<!-- 033eff79&#45;2a08&#45;455c&#45;b3b3&#45;474eadb9f3d1 -->
<g id="node1" class="node">
<title>033eff79&#45;2a08&#45;455c&#45;b3b3&#45;474eadb9f3d1</title>
<polygon fill="none" stroke="black" points="724,-574 603.37,-556 724,-538 844.63,-556 724,-574"/>
<text text-anchor="middle" x="724" y="-552.3" font-family="Times,serif" font-size="14.00">Consecutive True &lt; 3</text>
</g>
<!-- 1751e324&#45;52a1&#45;47c0&#45;acf7&#45;85a9b875013f -->
<g id="node42" class="node">
<title>1751e324&#45;52a1&#45;47c0&#45;acf7&#45;85a9b875013f</title>
<ellipse fill="none" stroke="black" cx="349" cy="-469" rx="46.5" ry="18"/>
<text text-anchor="middle" x="349" y="-465.3" font-family="Times,serif" font-size="14.00">VisionNorm</text>
</g>
<!-- 033eff79&#45;2a08&#45;455c&#45;b3b3&#45;474eadb9f3d1&#45;&gt;1751e324&#45;52a1&#45;47c0&#45;acf7&#45;85a9b875013f -->
<g id="edge48" class="edge">
<title>033eff79&#45;2a08&#45;455c&#45;b3b3&#45;474eadb9f3d1&#45;&gt;1751e324&#45;52a1&#45;47c0&#45;acf7&#45;85a9b875013f</title>
<path fill="none" stroke="black" d="M678.77,-544.75C607.88,-528.68 471.18,-497.7 398.03,-481.11"/>
<polygon fill="black" stroke="black" points="398.67,-477.67 388.14,-478.87 397.12,-484.5 398.67,-477.67"/>
<text text-anchor="middle" x="576" y="-508.8" font-family="Times,serif" font-size="14.00">True</text>
</g>
<!-- 58ac9b72&#45;5197&#45;428a&#45;b721&#45;402850017c88 -->
<g id="node43" class="node">
<title>58ac9b72&#45;5197&#45;428a&#45;b721&#45;402850017c88</title>
<ellipse fill="none" stroke="black" cx="1333" cy="-469" rx="46.5" ry="18"/>
<text text-anchor="middle" x="1333" y="-465.3" font-family="Times,serif" font-size="14.00">VisionNorm</text>
</g>
<!-- 033eff79&#45;2a08&#45;455c&#45;b3b3&#45;474eadb9f3d1&#45;&gt;58ac9b72&#45;5197&#45;428a&#45;b721&#45;402850017c88 -->
<g id="edge53" class="edge">
<title>033eff79&#45;2a08&#45;455c&#45;b3b3&#45;474eadb9f3d1&#45;&gt;58ac9b72&#45;5197&#45;428a&#45;b721&#45;402850017c88</title>
<path fill="none" stroke="black" d="M775.83,-545.66C806.36,-540.43 845.78,-534.15 881,-530 938.55,-523.22 953.44,-526.67 1011,-520 1106.95,-508.88 1218.15,-490.35 1281.57,-479.24"/>
<polygon fill="black" stroke="black" points="1282.47,-482.64 1291.71,-477.46 1281.26,-475.74 1282.47,-482.64"/>
<text text-anchor="middle" x="1136" y="-508.8" font-family="Times,serif" font-size="14.00">False</text>
</g>
<!-- 20b1b795&#45;6085&#45;45d1&#45;8a14&#45;39a4e10c2a87 -->
<g id="node2" class="node">
<title>20b1b795&#45;6085&#45;45d1&#45;8a14&#45;39a4e10c2a87</title>
<polygon fill="none" stroke="black" points="1591,-574 1459.59,-556 1591,-538 1722.41,-556 1591,-574"/>
<text text-anchor="middle" x="1591" y="-552.3" font-family="Times,serif" font-size="14.00">Consecutive False &lt; 10</text>
</g>
<!-- 20b1b795&#45;6085&#45;45d1&#45;8a14&#45;39a4e10c2a87&#45;&gt;58ac9b72&#45;5197&#45;428a&#45;b721&#45;402850017c88 -->
<g id="edge51" class="edge">
<title>20b1b795&#45;6085&#45;45d1&#45;8a14&#45;39a4e10c2a87&#45;&gt;58ac9b72&#45;5197&#45;428a&#45;b721&#45;402850017c88</title>
<path fill="none" stroke="black" d="M1554.31,-542.91C1507.62,-527.53 1427.04,-500.98 1377.07,-484.52"/>
<polygon fill="black" stroke="black" points="1378.1,-481.17 1367.5,-481.37 1375.91,-487.82 1378.1,-481.17"/>
<text text-anchor="middle" x="1494" y="-508.8" font-family="Times,serif" font-size="14.00">True</text>
</g>
<!-- 16214d08&#45;b70f&#45;47a1&#45;8b29&#45;832dfa6765ba -->
<g id="node44" class="node">
<title>16214d08&#45;b70f&#45;47a1&#45;8b29&#45;832dfa6765ba</title>
<ellipse fill="none" stroke="black" cx="1942" cy="-469" rx="59.9" ry="18"/>
<text text-anchor="middle" x="1942" y="-465.3" font-family="Times,serif" font-size="14.00">ZeroMovement</text>
</g>
<!-- 20b1b795&#45;6085&#45;45d1&#45;8a14&#45;39a4e10c2a87&#45;&gt;16214d08&#45;b70f&#45;47a1&#45;8b29&#45;832dfa6765ba -->
<g id="edge52" class="edge">
<title>20b1b795&#45;6085&#45;45d1&#45;8a14&#45;39a4e10c2a87&#45;&gt;16214d08&#45;b70f&#45;47a1&#45;8b29&#45;832dfa6765ba</title>
<path fill="none" stroke="black" d="M1647.7,-545.7C1679.98,-540.61 1721.18,-534.46 1758,-530 1805.86,-524.21 1820.51,-535.94 1866,-520 1883.65,-513.81 1901.23,-502.65 1915.04,-492.44"/>
<polygon fill="black" stroke="black" points="1917.3,-495.12 1923.11,-486.26 1913.04,-489.56 1917.3,-495.12"/>
<text text-anchor="middle" x="1914" y="-508.8" font-family="Times,serif" font-size="14.00">False</text>
</g>
<!-- ea290746&#45;afdd&#45;4fab&#45;b764&#45;8ca13f7e12e5 -->
<g id="node3" class="node">
<title>ea290746&#45;afdd&#45;4fab&#45;b764&#45;8ca13f7e12e5</title>
<ellipse fill="none" stroke="black" cx="88" cy="-935" rx="33.6" ry="18"/>
<text text-anchor="middle" x="88" y="-931.3" font-family="Times,serif" font-size="14.00">Descend</text>
</g>
<!-- b2dc0a8d&#45;5c4c&#45;465b&#45;9206&#45;d59703cb0896 -->
<g id="node4" class="node">
<title>b2dc0a8d&#45;5c4c&#45;465b&#45;9206&#45;d59703cb0896</title>
<ellipse fill="none" stroke="black" cx="88" cy="-862" rx="47.1" ry="18"/>
<text text-anchor="middle" x="88" y="-858.3" font-family="Times,serif" font-size="14.00">DelayAction</text>
</g>
<!-- ea290746&#45;afdd&#45;4fab&#45;b764&#45;8ca13f7e12e5&#45;&gt;b2dc0a8d&#45;5c4c&#45;465b&#45;9206&#45;d59703cb0896 -->
<g id="edge1" class="edge">
<title>ea290746&#45;afdd&#45;4fab&#45;b764&#45;8ca13f7e12e5&#45;&gt;b2dc0a8d&#45;5c4c&#45;465b&#45;9206&#45;d59703cb0896</title>
<path fill="none" stroke="black" d="M88,-916.81C88,-908.79 88,-899.05 88,-890.07"/>
<polygon fill="black" stroke="black" points="91.5,-890.03 88,-880.03 84.5,-890.03 91.5,-890.03"/>
</g>
<!-- 84a1516f&#45;27b1&#45;44c9&#45;8fe7&#45;2262ddd775e0 -->
<g id="node5" class="node">
<title>84a1516f&#45;27b1&#45;44c9&#45;8fe7&#45;2262ddd775e0</title>
<ellipse fill="none" stroke="black" cx="91" cy="-789" rx="74.61" ry="18"/>
<text text-anchor="middle" x="91" y="-785.3" font-family="Times,serif" font-size="14.00">StraightMovement</text>
</g>
<!-- b2dc0a8d&#45;5c4c&#45;465b&#45;9206&#45;d59703cb0896&#45;&gt;84a1516f&#45;27b1&#45;44c9&#45;8fe7&#45;2262ddd775e0 -->
<g id="edge4" class="edge">
<title>b2dc0a8d&#45;5c4c&#45;465b&#45;9206&#45;d59703cb0896&#45;&gt;84a1516f&#45;27b1&#45;44c9&#45;8fe7&#45;2262ddd775e0</title>
<path fill="none" stroke="black" d="M88.73,-843.81C89.07,-835.79 89.48,-826.05 89.86,-817.07"/>
<polygon fill="black" stroke="black" points="93.36,-817.17 90.28,-807.03 86.36,-816.87 93.36,-817.17"/>
</g>
<!-- 640a5d8b&#45;6aa7&#45;4172&#45;9eda&#45;313b52e5ed04 -->
<g id="node6" class="node">
<title>640a5d8b&#45;6aa7&#45;4172&#45;9eda&#45;313b52e5ed04</title>
<ellipse fill="none" stroke="black" cx="99" cy="-716" rx="47.1" ry="18"/>
<text text-anchor="middle" x="99" y="-712.3" font-family="Times,serif" font-size="14.00">DelayAction</text>
</g>
<!-- 84a1516f&#45;27b1&#45;44c9&#45;8fe7&#45;2262ddd775e0&#45;&gt;640a5d8b&#45;6aa7&#45;4172&#45;9eda&#45;313b52e5ed04 -->
<g id="edge2" class="edge">
<title>84a1516f&#45;27b1&#45;44c9&#45;8fe7&#45;2262ddd775e0&#45;&gt;640a5d8b&#45;6aa7&#45;4172&#45;9eda&#45;313b52e5ed04</title>
<path fill="none" stroke="black" d="M92.94,-770.81C93.84,-762.79 94.94,-753.05 95.95,-744.07"/>
<polygon fill="black" stroke="black" points="99.44,-744.36 97.08,-734.03 92.48,-743.57 99.44,-744.36"/>
</g>
<!-- 27b93943&#45;a6a4&#45;49a2&#45;a894&#45;3f3175717bd2 -->
<g id="node7" class="node">
<title>27b93943&#45;a6a4&#45;49a2&#45;a894&#45;3f3175717bd2</title>
<ellipse fill="none" stroke="black" cx="104" cy="-629" rx="59.9" ry="18"/>
<text text-anchor="middle" x="104" y="-625.3" font-family="Times,serif" font-size="14.00">ZeroMovement</text>
</g>
<!-- 640a5d8b&#45;6aa7&#45;4172&#45;9eda&#45;313b52e5ed04&#45;&gt;27b93943&#45;a6a4&#45;49a2&#45;a894&#45;3f3175717bd2 -->
<g id="edge3" class="edge">
<title>640a5d8b&#45;6aa7&#45;4172&#45;9eda&#45;313b52e5ed04&#45;&gt;27b93943&#45;a6a4&#45;49a2&#45;a894&#45;3f3175717bd2</title>
<path fill="none" stroke="black" d="M100.01,-697.8C100.7,-686.16 101.61,-670.55 102.4,-657.24"/>
<polygon fill="black" stroke="black" points="105.9,-657.36 102.99,-647.18 98.91,-656.95 105.9,-657.36"/>
</g>
<!-- 5d3bf634&#45;01da&#45;4e8a&#45;a38d&#45;de72e41221dc -->
<g id="node11" class="node">
<title>5d3bf634&#45;01da&#45;4e8a&#45;a38d&#45;de72e41221dc</title>
<polygon fill="none" stroke="black" stroke-dasharray="5,2" points="239.5,-574 154.5,-574 154.5,-538 239.5,-538 239.5,-574"/>
<text text-anchor="middle" x="197" y="-552.3" font-family="Times,serif" font-size="14.00" fill="blue">Converge</text>
</g>
<!-- 27b93943&#45;a6a4&#45;49a2&#45;a894&#45;3f3175717bd2&#45;&gt;5d3bf634&#45;01da&#45;4e8a&#45;a38d&#45;de72e41221dc -->
<g id="edge8" class="edge">
<title>27b93943&#45;a6a4&#45;49a2&#45;a894&#45;3f3175717bd2&#45;&gt;5d3bf634&#45;01da&#45;4e8a&#45;a38d&#45;de72e41221dc</title>
<path fill="none" stroke="black" d="M125.1,-611.89C137.35,-602.54 152.99,-590.6 166.56,-580.24"/>
<polygon fill="black" stroke="black" points="168.86,-582.89 174.68,-574.04 164.61,-577.32 168.86,-582.89"/>
</g>
<!-- 0f3ae8ba&#45;ae39&#45;4aa6&#45;a07e&#45;f2de76b4b8fc -->
<g id="node8" class="node">
<title>0f3ae8ba&#45;ae39&#45;4aa6&#45;a07e&#45;f2de76b4b8fc</title>
<ellipse fill="none" stroke="black" cx="82" cy="-1043" rx="34.8" ry="18"/>
<text text-anchor="middle" x="82" y="-1039.3" font-family="Times,serif" font-size="14.00">WaitArm</text>
</g>
<!-- 0f3ae8ba&#45;ae39&#45;4aa6&#45;a07e&#45;f2de76b4b8fc&#45;&gt;ea290746&#45;afdd&#45;4fab&#45;b764&#45;8ca13f7e12e5 -->
<g id="edge5" class="edge">
<title>0f3ae8ba&#45;ae39&#45;4aa6&#45;a07e&#45;f2de76b4b8fc&#45;&gt;ea290746&#45;afdd&#45;4fab&#45;b764&#45;8ca13f7e12e5</title>
<path fill="none" stroke="black" d="M82.96,-1024.97C83.9,-1008.38 85.35,-982.88 86.45,-963.43"/>
<polygon fill="black" stroke="black" points="89.95,-963.52 87.02,-953.34 82.96,-963.13 89.95,-963.52"/>
</g>
<!-- 065d994f&#45;7eb9&#45;4c36&#45;9c40&#45;69184645b1c4 -->
<g id="node9" class="node">
<title>065d994f&#45;7eb9&#45;4c36&#45;9c40&#45;69184645b1c4</title>
<polygon fill="none" stroke="black" stroke-dasharray="5,2" points="210,-1134 112,-1134 112,-1098 210,-1098 210,-1134"/>
<text text-anchor="middle" x="161" y="-1112.3" font-family="Times,serif" font-size="14.00" fill="blue">Concurrent</text>
</g>
<!-- 065d994f&#45;7eb9&#45;4c36&#45;9c40&#45;69184645b1c4&#45;&gt;0f3ae8ba&#45;ae39&#45;4aa6&#45;a07e&#45;f2de76b4b8fc -->
<g id="edge6" class="edge">
<title>065d994f&#45;7eb9&#45;4c36&#45;9c40&#45;69184645b1c4&#45;&gt;0f3ae8ba&#45;ae39&#45;4aa6&#45;a07e&#45;f2de76b4b8fc</title>
<path fill="none" stroke="black" d="M141.88,-1097.81C131.12,-1088.14 117.58,-1075.98 106.1,-1065.66"/>
<polygon fill="black" stroke="black" points="108.32,-1062.95 98.54,-1058.87 103.64,-1068.15 108.32,-1062.95"/>
</g>
<!-- 1e7f3826&#45;f318&#45;400c&#45;bae6&#45;7754cfbb6732 -->
<g id="node10" class="node">
<title>1e7f3826&#45;f318&#45;400c&#45;bae6&#45;7754cfbb6732</title>
<ellipse fill="none" stroke="black" cx="189" cy="-989" rx="50.7" ry="18"/>
<text text-anchor="middle" x="189" y="-985.3" font-family="Times,serif" font-size="14.00">StartBno055</text>
</g>
<!-- 065d994f&#45;7eb9&#45;4c36&#45;9c40&#45;69184645b1c4&#45;&gt;1e7f3826&#45;f318&#45;400c&#45;bae6&#45;7754cfbb6732 -->
<g id="edge7" class="edge">
<title>065d994f&#45;7eb9&#45;4c36&#45;9c40&#45;69184645b1c4&#45;&gt;1e7f3826&#45;f318&#45;400c&#45;bae6&#45;7754cfbb6732</title>
<path fill="none" stroke="black" d="M164.83,-1097.88C169.5,-1077.05 177.43,-1041.64 182.93,-1017.09"/>
<polygon fill="black" stroke="black" points="186.35,-1017.84 185.12,-1007.31 179.52,-1016.31 186.35,-1017.84"/>
</g>
<!-- 1e7f3826&#45;f318&#45;400c&#45;bae6&#45;7754cfbb6732&#45;&gt;5d3bf634&#45;01da&#45;4e8a&#45;a38d&#45;de72e41221dc -->
<g id="edge9" class="edge">
<title>1e7f3826&#45;f318&#45;400c&#45;bae6&#45;7754cfbb6732&#45;&gt;5d3bf634&#45;01da&#45;4e8a&#45;a38d&#45;de72e41221dc</title>
<path fill="none" stroke="black" d="M204.82,-971.8C219.47,-955.03 239,-927.36 239,-899 239,-899 239,-899 239,-628 239,-611.08 230.06,-594.66 220.43,-581.88"/>
<polygon fill="black" stroke="black" points="223.09,-579.61 214.08,-574.04 217.65,-584.01 223.09,-579.61"/>
</g>
<!-- 5d3bf634&#45;01da&#45;4e8a&#45;a38d&#45;de72e41221dc&#45;&gt;1751e324&#45;52a1&#45;47c0&#45;acf7&#45;85a9b875013f -->
<g id="edge54" class="edge">
<title>5d3bf634&#45;01da&#45;4e8a&#45;a38d&#45;de72e41221dc&#45;&gt;1751e324&#45;52a1&#45;47c0&#45;acf7&#45;85a9b875013f</title>
<path fill="none" stroke="black" d="M227.76,-537.8C252.9,-523.74 288.43,-503.87 314.53,-489.28"/>
<polygon fill="black" stroke="black" points="316.31,-492.29 323.33,-484.35 312.9,-486.18 316.31,-492.29"/>
</g>
<!-- b2f79922&#45;cdc6&#45;4050&#45;9508&#45;d5f0efa9f4c1 -->
<g id="node12" class="node">
<title>b2f79922&#45;cdc6&#45;4050&#45;9508&#45;d5f0efa9f4c1</title>
<polygon fill="none" stroke="black" stroke-dasharray="5,2" points="841,-880 659,-880 659,-844 841,-844 841,-880"/>
<text text-anchor="middle" x="750" y="-858.3" font-family="Times,serif" font-size="14.00" fill="darkgreen">FirstValid (Concurrent)</text>
</g>
<!-- 3554242d&#45;a6a4&#45;46a3&#45;9724&#45;8ca1663d60f3 -->
<g id="node13" class="node">
<title>3554242d&#45;a6a4&#45;46a3&#45;9724&#45;8ca1663d60f3</title>
<ellipse fill="none" stroke="black" cx="1180" cy="-789" rx="44" ry="18"/>
<text text-anchor="middle" x="1180" y="-785.3" font-family="Times,serif" font-size="14.00">Detect Red</text>
</g>
<!-- b2f79922&#45;cdc6&#45;4050&#45;9508&#45;d5f0efa9f4c1&#45;&gt;3554242d&#45;a6a4&#45;46a3&#45;9724&#45;8ca1663d60f3 -->
<g id="edge10" class="edge">
<title>b2f79922&#45;cdc6&#45;4050&#45;9508&#45;d5f0efa9f4c1&#45;&gt;3554242d&#45;a6a4&#45;46a3&#45;9724&#45;8ca1663d60f3</title>
<path fill="none" stroke="black" d="M841.25,-848.36C912.02,-838.21 1012.46,-823.04 1100,-807 1110.48,-805.08 1121.69,-802.83 1132.29,-800.6"/>
<polygon fill="black" stroke="black" points="1133.19,-803.99 1142.24,-798.48 1131.73,-797.14 1133.19,-803.99"/>
</g>
<!-- aa4757a0&#45;3013&#45;4f38&#45;a1af&#45;a5e2eb96da02 -->
<g id="node14" class="node">
<title>aa4757a0&#45;3013&#45;4f38&#45;a1af&#45;a5e2eb96da02</title>
<ellipse fill="none" stroke="black" cx="503" cy="-789" rx="45.2" ry="18"/>
<text text-anchor="middle" x="503" y="-785.3" font-family="Times,serif" font-size="14.00">Detect Pole</text>
</g>
<!-- b2f79922&#45;cdc6&#45;4050&#45;9508&#45;d5f0efa9f4c1&#45;&gt;aa4757a0&#45;3013&#45;4f38&#45;a1af&#45;a5e2eb96da02 -->
<g id="edge11" class="edge">
<title>b2f79922&#45;cdc6&#45;4050&#45;9508&#45;d5f0efa9f4c1&#45;&gt;aa4757a0&#45;3013&#45;4f38&#45;a1af&#45;a5e2eb96da02</title>
<path fill="none" stroke="black" d="M690.84,-843.99C647.02,-831.4 588.22,-814.5 548.16,-802.98"/>
<polygon fill="black" stroke="black" points="548.97,-799.57 538.4,-800.17 547.04,-806.3 548.97,-799.57"/>
</g>
<!-- 5b003de4&#45;ed51&#45;4f8f&#45;8937&#45;eaddff949dbf -->
<g id="node15" class="node">
<title>5b003de4&#45;ed51&#45;4f8f&#45;8937&#45;eaddff949dbf</title>
<ellipse fill="none" stroke="black" cx="667" cy="-789" rx="46.5" ry="18"/>
<text text-anchor="middle" x="667" y="-785.3" font-family="Times,serif" font-size="14.00">Detect Blue</text>
</g>
<!-- b2f79922&#45;cdc6&#45;4050&#45;9508&#45;d5f0efa9f4c1&#45;&gt;5b003de4&#45;ed51&#45;4f8f&#45;8937&#45;eaddff949dbf -->
<g id="edge12" class="edge">
<title>b2f79922&#45;cdc6&#45;4050&#45;9508&#45;d5f0efa9f4c1&#45;&gt;5b003de4&#45;ed51&#45;4f8f&#45;8937&#45;eaddff949dbf</title>
<path fill="none" stroke="black" d="M729.91,-843.81C718.92,-834.41 705.16,-822.65 693.32,-812.52"/>
<polygon fill="black" stroke="black" points="695.36,-809.66 685.49,-805.82 690.81,-814.98 695.36,-809.66"/>
</g>
<!-- e743b15a&#45;b4f1&#45;4e28&#45;bf0a&#45;8ec8bf18a9a4 -->
<g id="node16" class="node">
<title>e743b15a&#45;b4f1&#45;4e28&#45;bf0a&#45;8ec8bf18a9a4</title>
<ellipse fill="none" stroke="black" cx="833" cy="-789" rx="47.1" ry="18"/>
<text text-anchor="middle" x="833" y="-785.3" font-family="Times,serif" font-size="14.00">Detect Gate</text>
</g>
<!-- b2f79922&#45;cdc6&#45;4050&#45;9508&#45;d5f0efa9f4c1&#45;&gt;e743b15a&#45;b4f1&#45;4e28&#45;bf0a&#45;8ec8bf18a9a4 -->
<g id="edge13" class="edge">
<title>b2f79922&#45;cdc6&#45;4050&#45;9508&#45;d5f0efa9f4c1&#45;&gt;e743b15a&#45;b4f1&#45;4e28&#45;bf0a&#45;8ec8bf18a9a4</title>
<path fill="none" stroke="black" d="M770.09,-843.81C781.08,-834.41 794.84,-822.65 806.68,-812.52"/>
<polygon fill="black" stroke="black" points="809.19,-814.98 814.51,-805.82 804.64,-809.66 809.19,-814.98"/>
</g>
<!-- 421ecf84&#45;0657&#45;4fa5&#45;b7d4&#45;343c98e25d4d -->
<g id="node17" class="node">
<title>421ecf84&#45;0657&#45;4fa5&#45;b7d4&#45;343c98e25d4d</title>
<ellipse fill="none" stroke="black" cx="1008" cy="-789" rx="56.2" ry="18"/>
<text text-anchor="middle" x="1008" y="-785.3" font-family="Times,serif" font-size="14.00">Detect Middle</text>
</g>
<!-- b2f79922&#45;cdc6&#45;4050&#45;9508&#45;d5f0efa9f4c1&#45;&gt;421ecf84&#45;0657&#45;4fa5&#45;b7d4&#45;343c98e25d4d -->
<g id="edge14" class="edge">
<title>b2f79922&#45;cdc6&#45;4050&#45;9508&#45;d5f0efa9f4c1&#45;&gt;421ecf84&#45;0657&#45;4fa5&#45;b7d4&#45;343c98e25d4d</title>
<path fill="none" stroke="black" d="M811.8,-843.99C856.24,-831.76 915.44,-815.47 957.15,-803.99"/>
<polygon fill="black" stroke="black" points="958.11,-807.36 966.83,-801.33 956.26,-800.61 958.11,-807.36"/>
</g>
<!-- a0765d6e&#45;fa77&#45;47fa&#45;8565&#45;93abd04bb833 -->
<g id="node18" class="node">
<title>a0765d6e&#45;fa77&#45;47fa&#45;8565&#45;93abd04bb833</title>
<polygon fill="none" stroke="black" stroke-dasharray="5,2" points="875.5,-734 790.5,-734 790.5,-698 875.5,-698 875.5,-734"/>
<text text-anchor="middle" x="833" y="-712.3" font-family="Times,serif" font-size="14.00" fill="darkgreen">Converge</text>
</g>
<!-- 3554242d&#45;a6a4&#45;46a3&#45;9724&#45;8ca1663d60f3&#45;&gt;a0765d6e&#45;fa77&#45;47fa&#45;8565&#45;93abd04bb833 -->
<g id="edge15" class="edge">
<title>3554242d&#45;a6a4&#45;46a3&#45;9724&#45;8ca1663d60f3&#45;&gt;a0765d6e&#45;fa77&#45;47fa&#45;8565&#45;93abd04bb833</title>
<path fill="none" stroke="black" d="M1141.77,-779.8C1128.54,-776.98 1113.63,-773.83 1100,-771 1025.61,-755.57 939.44,-738.24 885.57,-727.47"/>
<polygon fill="black" stroke="black" points="886.06,-724 875.57,-725.48 884.69,-730.87 886.06,-724"/>
</g>
<!-- aa4757a0&#45;3013&#45;4f38&#45;a1af&#45;a5e2eb96da02&#45;&gt;a0765d6e&#45;fa77&#45;47fa&#45;8565&#45;93abd04bb833 -->
<g id="edge16" class="edge">
<title>aa4757a0&#45;3013&#45;4f38&#45;a1af&#45;a5e2eb96da02&#45;&gt;a0765d6e&#45;fa77&#45;47fa&#45;8565&#45;93abd04bb833</title>
<path fill="none" stroke="black" d="M541.83,-779.65C601.06,-766.9 714.1,-742.58 780.57,-728.28"/>
<polygon fill="black" stroke="black" points="781.38,-731.69 790.42,-726.16 779.91,-724.84 781.38,-731.69"/>
</g>
<!-- 5b003de4&#45;ed51&#45;4f8f&#45;8937&#45;eaddff949dbf&#45;&gt;a0765d6e&#45;fa77&#45;47fa&#45;8565&#45;93abd04bb833 -->
<g id="edge17" class="edge">
<title>5b003de4&#45;ed51&#45;4f8f&#45;8937&#45;eaddff949dbf&#45;&gt;a0765d6e&#45;fa77&#45;47fa&#45;8565&#45;93abd04bb833</title>
<path fill="none" stroke="black" d="M697.06,-775.14C721.24,-764.8 755.7,-750.06 783.87,-738.01"/>
<polygon fill="black" stroke="black" points="785.34,-741.19 793.16,-734.04 782.59,-734.75 785.34,-741.19"/>
</g>
<!-- e743b15a&#45;b4f1&#45;4e28&#45;bf0a&#45;8ec8bf18a9a4&#45;&gt;a0765d6e&#45;fa77&#45;47fa&#45;8565&#45;93abd04bb833 -->
<g id="edge18" class="edge">
<title>e743b15a&#45;b4f1&#45;4e28&#45;bf0a&#45;8ec8bf18a9a4&#45;&gt;a0765d6e&#45;fa77&#45;47fa&#45;8565&#45;93abd04bb833</title>
<path fill="none" stroke="black" d="M833,-770.81C833,-762.79 833,-753.05 833,-744.07"/>
<polygon fill="black" stroke="black" points="836.5,-744.03 833,-734.03 829.5,-744.03 836.5,-744.03"/>
</g>
<!-- 421ecf84&#45;0657&#45;4fa5&#45;b7d4&#45;343c98e25d4d&#45;&gt;a0765d6e&#45;fa77&#45;47fa&#45;8565&#45;93abd04bb833 -->
<g id="edge19" class="edge">
<title>421ecf84&#45;0657&#45;4fa5&#45;b7d4&#45;343c98e25d4d&#45;&gt;a0765d6e&#45;fa77&#45;47fa&#45;8565&#45;93abd04bb833</title>
<path fill="none" stroke="black" d="M974.67,-774.48C949.28,-764.18 913.85,-749.8 884.78,-738.01"/>
<polygon fill="black" stroke="black" points="885.77,-734.63 875.18,-734.11 883.13,-741.12 885.77,-734.63"/>
</g>
<!-- 8b2a64aa&#45;1de5&#45;48a9&#45;804a&#45;21517bb09351 -->
<g id="node26" class="node">
<title>8b2a64aa&#45;1de5&#45;48a9&#45;804a&#45;21517bb09351</title>
<polygon fill="none" stroke="black" stroke-dasharray="5,2" points="882,-647 784,-647 784,-611 882,-611 882,-647"/>
<text text-anchor="middle" x="833" y="-625.3" font-family="Times,serif" font-size="14.00" fill="blue">Concurrent</text>
</g>
<!-- a0765d6e&#45;fa77&#45;47fa&#45;8565&#45;93abd04bb833&#45;&gt;8b2a64aa&#45;1de5&#45;48a9&#45;804a&#45;21517bb09351 -->
<g id="edge46" class="edge">
<title>a0765d6e&#45;fa77&#45;47fa&#45;8565&#45;93abd04bb833&#45;&gt;8b2a64aa&#45;1de5&#45;48a9&#45;804a&#45;21517bb09351</title>
<path fill="none" stroke="purple" d="M833,-697.8C833,-686.16 833,-670.55 833,-657.24"/>
<polygon fill="purple" stroke="purple" points="836.5,-657.18 833,-647.18 829.5,-657.18 836.5,-657.18"/>
<text text-anchor="middle" x="868.5" y="-668.8" font-family="Times,serif" font-size="14.00" fill="purple">Pass Data</text>
</g>
<!-- a0e7124d&#45;329d&#45;4706&#45;bd07&#45;f2fde0234960 -->
<g id="node19" class="node">
<title>a0e7124d&#45;329d&#45;4706&#45;bd07&#45;f2fde0234960</title>
<ellipse fill="none" stroke="black" cx="891" cy="-121" rx="27" ry="18"/>
<text text-anchor="middle" x="891" y="-117.3" font-family="Times,serif" font-size="14.00">StripY</text>
</g>
<!-- 19f4b571&#45;592b&#45;4081&#45;bb24&#45;6eb1d6725888 -->
<g id="node20" class="node">
<title>19f4b571&#45;592b&#45;4081&#45;bb24&#45;6eb1d6725888</title>
<ellipse fill="none" stroke="black" cx="891" cy="-34" rx="80.11" ry="18"/>
<text text-anchor="middle" x="891" y="-30.3" font-family="Times,serif" font-size="14.00">Stability2Movement</text>
</g>
<!-- a0e7124d&#45;329d&#45;4706&#45;bd07&#45;f2fde0234960&#45;&gt;19f4b571&#45;592b&#45;4081&#45;bb24&#45;6eb1d6725888 -->
<g id="edge20" class="edge">
<title>a0e7124d&#45;329d&#45;4706&#45;bd07&#45;f2fde0234960&#45;&gt;19f4b571&#45;592b&#45;4081&#45;bb24&#45;6eb1d6725888</title>
<path fill="none" stroke="purple" d="M891,-102.8C891,-91.16 891,-75.55 891,-62.24"/>
<polygon fill="purple" stroke="purple" points="894.5,-62.18 891,-52.18 887.5,-62.18 894.5,-62.18"/>
<text text-anchor="middle" x="926.5" y="-73.8" font-family="Times,serif" font-size="14.00" fill="purple">Pass Data</text>
</g>
<!-- 71826fb8&#45;374e&#45;45cb&#45;9635&#45;06944248620b -->
<g id="node21" class="node">
<title>71826fb8&#45;374e&#45;45cb&#45;9635&#45;06944248620b</title>
<ellipse fill="none" stroke="black" cx="891" cy="-208" rx="67.81" ry="18"/>
<text text-anchor="middle" x="891" y="-204.3" font-family="Times,serif" font-size="14.00">LinearYawFromX</text>
</g>
<!-- 71826fb8&#45;374e&#45;45cb&#45;9635&#45;06944248620b&#45;&gt;a0e7124d&#45;329d&#45;4706&#45;bd07&#45;f2fde0234960 -->
<g id="edge21" class="edge">
<title>71826fb8&#45;374e&#45;45cb&#45;9635&#45;06944248620b&#45;&gt;a0e7124d&#45;329d&#45;4706&#45;bd07&#45;f2fde0234960</title>
<path fill="none" stroke="purple" d="M891,-189.8C891,-178.16 891,-162.55 891,-149.24"/>
<polygon fill="purple" stroke="purple" points="894.5,-149.18 891,-139.18 887.5,-149.18 894.5,-149.18"/>
<text text-anchor="middle" x="926.5" y="-160.8" font-family="Times,serif" font-size="14.00" fill="purple">Pass Data</text>
</g>
<!-- 6ae3867f&#45;fb33&#45;45e5&#45;a657&#45;cf5b4fca0e46 -->
<g id="node22" class="node">
<title>6ae3867f&#45;fb33&#45;45e5&#45;a657&#45;cf5b4fca0e46</title>
<ellipse fill="none" stroke="black" cx="892" cy="-295" rx="51.3" ry="18"/>
<text text-anchor="middle" x="892" y="-291.3" font-family="Times,serif" font-size="14.00">OffsetToPose</text>
</g>
<!-- 6ae3867f&#45;fb33&#45;45e5&#45;a657&#45;cf5b4fca0e46&#45;&gt;71826fb8&#45;374e&#45;45cb&#45;9635&#45;06944248620b -->
<g id="edge22" class="edge">
<title>6ae3867f&#45;fb33&#45;45e5&#45;a657&#45;cf5b4fca0e46&#45;&gt;71826fb8&#45;374e&#45;45cb&#45;9635&#45;06944248620b</title>
<path fill="none" stroke="purple" d="M891.8,-276.8C891.66,-265.16 891.48,-249.55 891.32,-236.24"/>
<polygon fill="purple" stroke="purple" points="894.82,-236.13 891.2,-226.18 887.82,-236.22 894.82,-236.13"/>
<text text-anchor="middle" x="926.5" y="-247.8" font-family="Times,serif" font-size="14.00" fill="purple">Pass Data</text>
</g>
<!-- 8a0b9247&#45;350a&#45;49a1&#45;b6f5&#45;e5fa2f405d8d -->
<g id="node23" class="node">
<title>8a0b9247&#45;350a&#45;49a1&#45;b6f5&#45;e5fa2f405d8d</title>
<ellipse fill="none" stroke="black" cx="893" cy="-382" rx="32.4" ry="18"/>
<text text-anchor="middle" x="893" y="-378.3" font-family="Times,serif" font-size="14.00">Average</text>
</g>
<!-- 8a0b9247&#45;350a&#45;49a1&#45;b6f5&#45;e5fa2f405d8d&#45;&gt;6ae3867f&#45;fb33&#45;45e5&#45;a657&#45;cf5b4fca0e46 -->
<g id="edge23" class="edge">
<title>8a0b9247&#45;350a&#45;49a1&#45;b6f5&#45;e5fa2f405d8d&#45;&gt;6ae3867f&#45;fb33&#45;45e5&#45;a657&#45;cf5b4fca0e46</title>
<path fill="none" stroke="purple" d="M892.8,-363.8C892.66,-352.16 892.48,-336.55 892.32,-323.24"/>
<polygon fill="purple" stroke="purple" points="895.82,-323.13 892.2,-313.18 888.82,-323.22 895.82,-323.13"/>
<text text-anchor="middle" x="927.5" y="-334.8" font-family="Times,serif" font-size="14.00" fill="purple">Pass Data</text>
</g>
<!-- aa5e571f&#45;d532&#45;4e79&#45;be10&#45;abc044b73be6 -->
<g id="node24" class="node">
<title>aa5e571f&#45;d532&#45;4e79&#45;be10&#45;abc044b73be6</title>
<ellipse fill="none" stroke="black" cx="895" cy="-469" rx="61.1" ry="18"/>
<text text-anchor="middle" x="895" y="-465.3" font-family="Times,serif" font-size="14.00">ExtractPosition</text>
</g>
<!-- aa5e571f&#45;d532&#45;4e79&#45;be10&#45;abc044b73be6&#45;&gt;8a0b9247&#45;350a&#45;49a1&#45;b6f5&#45;e5fa2f405d8d -->
<g id="edge24" class="edge">
<title>aa5e571f&#45;d532&#45;4e79&#45;be10&#45;abc044b73be6&#45;&gt;8a0b9247&#45;350a&#45;49a1&#45;b6f5&#45;e5fa2f405d8d</title>
<path fill="none" stroke="purple" d="M894.6,-450.8C894.32,-439.16 893.95,-423.55 893.64,-410.24"/>
<polygon fill="purple" stroke="purple" points="897.14,-410.09 893.4,-400.18 890.14,-410.26 897.14,-410.09"/>
<text text-anchor="middle" x="929.5" y="-421.8" font-family="Times,serif" font-size="14.00" fill="purple">Pass Data</text>
</g>
<!-- 25a7b3a9&#45;97cd&#45;44e9&#45;ae86&#45;b8852c6969b0 -->
<g id="node25" class="node">
<title>25a7b3a9&#45;97cd&#45;44e9&#45;ae86&#45;b8852c6969b0</title>
<ellipse fill="none" stroke="black" cx="944" cy="-556" rx="27" ry="18"/>
<text text-anchor="middle" x="944" y="-552.3" font-family="Times,serif" font-size="14.00">ToVec</text>
</g>
<!-- 25a7b3a9&#45;97cd&#45;44e9&#45;ae86&#45;b8852c6969b0&#45;&gt;aa5e571f&#45;d532&#45;4e79&#45;be10&#45;abc044b73be6 -->
<g id="edge25" class="edge">
<title>25a7b3a9&#45;97cd&#45;44e9&#45;ae86&#45;b8852c6969b0&#45;&gt;aa5e571f&#45;d532&#45;4e79&#45;be10&#45;abc044b73be6</title>
<path fill="none" stroke="purple" d="M934.78,-539.01C927.73,-526.78 917.87,-509.68 909.73,-495.56"/>
<polygon fill="purple" stroke="purple" points="912.7,-493.7 904.68,-486.79 906.64,-497.2 912.7,-493.7"/>
<text text-anchor="middle" x="957.5" y="-508.8" font-family="Times,serif" font-size="14.00" fill="purple">Pass Data</text>
</g>
<!-- 8b2a64aa&#45;1de5&#45;48a9&#45;804a&#45;21517bb09351&#45;&gt;033eff79&#45;2a08&#45;455c&#45;b3b3&#45;474eadb9f3d1 -->
<g id="edge27" class="edge">
<title>8b2a64aa&#45;1de5&#45;48a9&#45;804a&#45;21517bb09351&#45;&gt;033eff79&#45;2a08&#45;455c&#45;b3b3&#45;474eadb9f3d1</title>
<path fill="none" stroke="black" d="M806.89,-610.99C791.06,-600.68 770.78,-587.47 754.25,-576.7"/>
<polygon fill="black" stroke="black" points="755.79,-573.53 745.5,-571.01 751.97,-579.4 755.79,-573.53"/>
</g>
<!-- 8b2a64aa&#45;1de5&#45;48a9&#45;804a&#45;21517bb09351&#45;&gt;25a7b3a9&#45;97cd&#45;44e9&#45;ae86&#45;b8852c6969b0 -->
<g id="edge26" class="edge">
<title>8b2a64aa&#45;1de5&#45;48a9&#45;804a&#45;21517bb09351&#45;&gt;25a7b3a9&#45;97cd&#45;44e9&#45;ae86&#45;b8852c6969b0</title>
<path fill="none" stroke="black" d="M859.59,-610.99C876.85,-599.95 899.28,-585.6 916.68,-574.47"/>
<polygon fill="black" stroke="black" points="918.73,-577.32 925.27,-568.98 914.96,-571.42 918.73,-577.32"/>
</g>
<!-- 9d89310b&#45;39dc&#45;4f16&#45;9180&#45;822cca2e057e -->
<g id="node27" class="node">
<title>9d89310b&#45;39dc&#45;4f16&#45;9180&#45;822cca2e057e</title>
<polygon fill="none" stroke="black" stroke-dasharray="5,2" points="1825,-880 1643,-880 1643,-844 1825,-844 1825,-880"/>
<text text-anchor="middle" x="1734" y="-858.3" font-family="Times,serif" font-size="14.00" fill="darkgreen">FirstValid (Concurrent)</text>
</g>
<!-- c86db762&#45;47a7&#45;48b1&#45;8649&#45;42066cb2234b -->
<g id="node28" class="node">
<title>c86db762&#45;47a7&#45;48b1&#45;8649&#45;42066cb2234b</title>
<ellipse fill="none" stroke="black" cx="2164" cy="-789" rx="44" ry="18"/>
<text text-anchor="middle" x="2164" y="-785.3" font-family="Times,serif" font-size="14.00">Detect Red</text>
</g>
<!-- 9d89310b&#45;39dc&#45;4f16&#45;9180&#45;822cca2e057e&#45;&gt;c86db762&#45;47a7&#45;48b1&#45;8649&#45;42066cb2234b -->
<g id="edge28" class="edge">
<title>9d89310b&#45;39dc&#45;4f16&#45;9180&#45;822cca2e057e&#45;&gt;c86db762&#45;47a7&#45;48b1&#45;8649&#45;42066cb2234b</title>
<path fill="none" stroke="black" d="M1825.25,-848.36C1896.02,-838.21 1996.46,-823.04 2084,-807 2094.48,-805.08 2105.69,-802.83 2116.29,-800.6"/>
<polygon fill="black" stroke="black" points="2117.19,-803.99 2126.24,-798.48 2115.73,-797.14 2117.19,-803.99"/>
</g>
<!-- e8f55497&#45;d67e&#45;4e9b&#45;8e31&#45;148ade1c054a -->
<g id="node29" class="node">
<title>e8f55497&#45;d67e&#45;4e9b&#45;8e31&#45;148ade1c054a</title>
<ellipse fill="none" stroke="black" cx="1487" cy="-789" rx="45.2" ry="18"/>
<text text-anchor="middle" x="1487" y="-785.3" font-family="Times,serif" font-size="14.00">Detect Pole</text>
</g>
<!-- 9d89310b&#45;39dc&#45;4f16&#45;9180&#45;822cca2e057e&#45;&gt;e8f55497&#45;d67e&#45;4e9b&#45;8e31&#45;148ade1c054a -->
<g id="edge29" class="edge">
<title>9d89310b&#45;39dc&#45;4f16&#45;9180&#45;822cca2e057e&#45;&gt;e8f55497&#45;d67e&#45;4e9b&#45;8e31&#45;148ade1c054a</title>
<path fill="none" stroke="black" d="M1674.84,-843.99C1631.02,-831.4 1572.22,-814.5 1532.16,-802.98"/>
<polygon fill="black" stroke="black" points="1532.97,-799.57 1522.4,-800.17 1531.04,-806.3 1532.97,-799.57"/>
</g>
<!-- b21f9c7e&#45;5008&#45;4210&#45;80c0&#45;e10a94d61851 -->
<g id="node30" class="node">
<title>b21f9c7e&#45;5008&#45;4210&#45;80c0&#45;e10a94d61851</title>
<ellipse fill="none" stroke="black" cx="1651" cy="-789" rx="46.5" ry="18"/>
<text text-anchor="middle" x="1651" y="-785.3" font-family="Times,serif" font-size="14.00">Detect Blue</text>
</g>
<!-- 9d89310b&#45;39dc&#45;4f16&#45;9180&#45;822cca2e057e&#45;&gt;b21f9c7e&#45;5008&#45;4210&#45;80c0&#45;e10a94d61851 -->
<g id="edge30" class="edge">
<title>9d89310b&#45;39dc&#45;4f16&#45;9180&#45;822cca2e057e&#45;&gt;b21f9c7e&#45;5008&#45;4210&#45;80c0&#45;e10a94d61851</title>
<path fill="none" stroke="black" d="M1713.91,-843.81C1702.92,-834.41 1689.16,-822.65 1677.32,-812.52"/>
<polygon fill="black" stroke="black" points="1679.36,-809.66 1669.49,-805.82 1674.81,-814.98 1679.36,-809.66"/>
</g>
<!-- fc1a12fe&#45;2311&#45;4047&#45;adb5&#45;c06ff0cb996d -->
<g id="node31" class="node">
<title>fc1a12fe&#45;2311&#45;4047&#45;adb5&#45;c06ff0cb996d</title>
<ellipse fill="none" stroke="black" cx="1817" cy="-789" rx="47.1" ry="18"/>
<text text-anchor="middle" x="1817" y="-785.3" font-family="Times,serif" font-size="14.00">Detect Gate</text>
</g>
<!-- 9d89310b&#45;39dc&#45;4f16&#45;9180&#45;822cca2e057e&#45;&gt;fc1a12fe&#45;2311&#45;4047&#45;adb5&#45;c06ff0cb996d -->
<g id="edge31" class="edge">
<title>9d89310b&#45;39dc&#45;4f16&#45;9180&#45;822cca2e057e&#45;&gt;fc1a12fe&#45;2311&#45;4047&#45;adb5&#45;c06ff0cb996d</title>
<path fill="none" stroke="black" d="M1754.09,-843.81C1765.08,-834.41 1778.84,-822.65 1790.68,-812.52"/>
<polygon fill="black" stroke="black" points="1793.19,-814.98 1798.51,-805.82 1788.64,-809.66 1793.19,-814.98"/>
</g>
<!-- cef3c5a4&#45;c9ec&#45;47a1&#45;b60f&#45;795b0c568ed4 -->
<g id="node32" class="node">
<title>cef3c5a4&#45;c9ec&#45;47a1&#45;b60f&#45;795b0c568ed4</title>
<ellipse fill="none" stroke="black" cx="1992" cy="-789" rx="56.2" ry="18"/>
<text text-anchor="middle" x="1992" y="-785.3" font-family="Times,serif" font-size="14.00">Detect Middle</text>
</g>
<!-- 9d89310b&#45;39dc&#45;4f16&#45;9180&#45;822cca2e057e&#45;&gt;cef3c5a4&#45;c9ec&#45;47a1&#45;b60f&#45;795b0c568ed4 -->
<g id="edge32" class="edge">
<title>9d89310b&#45;39dc&#45;4f16&#45;9180&#45;822cca2e057e&#45;&gt;cef3c5a4&#45;c9ec&#45;47a1&#45;b60f&#45;795b0c568ed4</title>
<path fill="none" stroke="black" d="M1795.8,-843.99C1840.24,-831.76 1899.44,-815.47 1941.15,-803.99"/>
<polygon fill="black" stroke="black" points="1942.11,-807.36 1950.83,-801.33 1940.26,-800.61 1942.11,-807.36"/>
</g>
<!-- 36421004&#45;da6a&#45;4282&#45;871e&#45;f880a23a82d5 -->
<g id="node33" class="node">
<title>36421004&#45;da6a&#45;4282&#45;871e&#45;f880a23a82d5</title>
<polygon fill="none" stroke="black" stroke-dasharray="5,2" points="1852.5,-734 1767.5,-734 1767.5,-698 1852.5,-698 1852.5,-734"/>
<text text-anchor="middle" x="1810" y="-712.3" font-family="Times,serif" font-size="14.00" fill="darkgreen">Converge</text>
</g>
<!-- c86db762&#45;47a7&#45;48b1&#45;8649&#45;42066cb2234b&#45;&gt;36421004&#45;da6a&#45;4282&#45;871e&#45;f880a23a82d5 -->
<g id="edge33" class="edge">
<title>c86db762&#45;47a7&#45;48b1&#45;8649&#45;42066cb2234b&#45;&gt;36421004&#45;da6a&#45;4282&#45;871e&#45;f880a23a82d5</title>
<path fill="none" stroke="black" d="M2125.77,-779.76C2112.55,-776.94 2097.63,-773.79 2084,-771 2007.09,-755.25 1917.85,-737.82 1862.65,-727.14"/>
<polygon fill="black" stroke="black" points="1863.24,-723.68 1852.75,-725.22 1861.91,-730.56 1863.24,-723.68"/>
</g>
<!-- e8f55497&#45;d67e&#45;4e9b&#45;8e31&#45;148ade1c054a&#45;&gt;36421004&#45;da6a&#45;4282&#45;871e&#45;f880a23a82d5 -->
<g id="edge34" class="edge">
<title>e8f55497&#45;d67e&#45;4e9b&#45;8e31&#45;148ade1c054a&#45;&gt;36421004&#45;da6a&#45;4282&#45;871e&#45;f880a23a82d5</title>
<path fill="none" stroke="black" d="M1525.64,-779.51C1583.42,-766.81 1692.46,-742.84 1757.44,-728.55"/>
<polygon fill="black" stroke="black" points="1758.46,-731.91 1767.47,-726.35 1756.96,-725.08 1758.46,-731.91"/>
</g>
<!-- b21f9c7e&#45;5008&#45;4210&#45;80c0&#45;e10a94d61851&#45;&gt;36421004&#45;da6a&#45;4282&#45;871e&#45;f880a23a82d5 -->
<g id="edge35" class="edge">
<title>b21f9c7e&#45;5008&#45;4210&#45;80c0&#45;e10a94d61851&#45;&gt;36421004&#45;da6a&#45;4282&#45;871e&#45;f880a23a82d5</title>
<path fill="none" stroke="black" d="M1680.53,-774.81C1703.59,-764.52 1736.08,-750.01 1762.74,-738.1"/>
<polygon fill="black" stroke="black" points="1764.2,-741.29 1771.9,-734.01 1761.34,-734.89 1764.2,-741.29"/>
</g>
<!-- fc1a12fe&#45;2311&#45;4047&#45;adb5&#45;c06ff0cb996d&#45;&gt;36421004&#45;da6a&#45;4282&#45;871e&#45;f880a23a82d5 -->
<g id="edge36" class="edge">
<title>fc1a12fe&#45;2311&#45;4047&#45;adb5&#45;c06ff0cb996d&#45;&gt;36421004&#45;da6a&#45;4282&#45;871e&#45;f880a23a82d5</title>
<path fill="none" stroke="black" d="M1815.31,-770.81C1814.51,-762.79 1813.55,-753.05 1812.67,-744.07"/>
<polygon fill="black" stroke="black" points="1816.14,-743.64 1811.68,-734.03 1809.18,-744.32 1816.14,-743.64"/>
</g>
<!-- cef3c5a4&#45;c9ec&#45;47a1&#45;b60f&#45;795b0c568ed4&#45;&gt;36421004&#45;da6a&#45;4282&#45;871e&#45;f880a23a82d5 -->
<g id="edge37" class="edge">
<title>cef3c5a4&#45;c9ec&#45;47a1&#45;b60f&#45;795b0c568ed4&#45;&gt;36421004&#45;da6a&#45;4282&#45;871e&#45;f880a23a82d5</title>
<path fill="none" stroke="black" d="M1957.77,-774.65C1930.91,-764.17 1893.08,-749.41 1862.42,-737.45"/>
<polygon fill="black" stroke="black" points="1863.33,-734.05 1852.74,-733.67 1860.79,-740.57 1863.33,-734.05"/>
</g>
<!-- 2b2b3347&#45;9f6d&#45;4457&#45;be53&#45;48b9286b62c1 -->
<g id="node41" class="node">
<title>2b2b3347&#45;9f6d&#45;4457&#45;be53&#45;48b9286b62c1</title>
<polygon fill="none" stroke="black" stroke-dasharray="5,2" points="1848,-647 1750,-647 1750,-611 1848,-611 1848,-647"/>
<text text-anchor="middle" x="1799" y="-625.3" font-family="Times,serif" font-size="14.00" fill="blue">Concurrent</text>
</g>
<!-- 36421004&#45;da6a&#45;4282&#45;871e&#45;f880a23a82d5&#45;&gt;2b2b3347&#45;9f6d&#45;4457&#45;be53&#45;48b9286b62c1 -->
<g id="edge49" class="edge">
<title>36421004&#45;da6a&#45;4282&#45;871e&#45;f880a23a82d5&#45;&gt;2b2b3347&#45;9f6d&#45;4457&#45;be53&#45;48b9286b62c1</title>
<path fill="none" stroke="purple" d="M1807.77,-697.8C1806.27,-686.16 1804.25,-670.55 1802.52,-657.24"/>
<polygon fill="purple" stroke="purple" points="1805.98,-656.64 1801.22,-647.18 1799.04,-657.54 1805.98,-656.64"/>
<text text-anchor="middle" x="1840.5" y="-668.8" font-family="Times,serif" font-size="14.00" fill="purple">Pass Data</text>
</g>
<!-- 6c3c1f55&#45;5895&#45;483a&#45;939f&#45;0abd984efa60 -->
<g id="node34" class="node">
<title>6c3c1f55&#45;5895&#45;483a&#45;939f&#45;0abd984efa60</title>
<ellipse fill="none" stroke="black" cx="1749" cy="-121" rx="27" ry="18"/>
<text text-anchor="middle" x="1749" y="-117.3" font-family="Times,serif" font-size="14.00">StripY</text>
</g>
<!-- 3dae16ad&#45;aaf8&#45;43a9&#45;abc4&#45;7afac572f70c -->
<g id="node35" class="node">
<title>3dae16ad&#45;aaf8&#45;43a9&#45;abc4&#45;7afac572f70c</title>
<ellipse fill="none" stroke="black" cx="1749" cy="-34" rx="80.11" ry="18"/>
<text text-anchor="middle" x="1749" y="-30.3" font-family="Times,serif" font-size="14.00">Stability2Movement</text>
</g>
<!-- 6c3c1f55&#45;5895&#45;483a&#45;939f&#45;0abd984efa60&#45;&gt;3dae16ad&#45;aaf8&#45;43a9&#45;abc4&#45;7afac572f70c -->
<g id="edge38" class="edge">
<title>6c3c1f55&#45;5895&#45;483a&#45;939f&#45;0abd984efa60&#45;&gt;3dae16ad&#45;aaf8&#45;43a9&#45;abc4&#45;7afac572f70c</title>
<path fill="none" stroke="purple" d="M1749,-102.8C1749,-91.16 1749,-75.55 1749,-62.24"/>
<polygon fill="purple" stroke="purple" points="1752.5,-62.18 1749,-52.18 1745.5,-62.18 1752.5,-62.18"/>
<text text-anchor="middle" x="1784.5" y="-73.8" font-family="Times,serif" font-size="14.00" fill="purple">Pass Data</text>
</g>
<!-- 3f962b20&#45;fd81&#45;435a&#45;b4f0&#45;d58e90e5ee50 -->
<g id="node36" class="node">
<title>3f962b20&#45;fd81&#45;435a&#45;b4f0&#45;d58e90e5ee50</title>
<ellipse fill="none" stroke="black" cx="1749" cy="-208" rx="67.81" ry="18"/>
<text text-anchor="middle" x="1749" y="-204.3" font-family="Times,serif" font-size="14.00">LinearYawFromX</text>
</g>
<!-- 3f962b20&#45;fd81&#45;435a&#45;b4f0&#45;d58e90e5ee50&#45;&gt;6c3c1f55&#45;5895&#45;483a&#45;939f&#45;0abd984efa60 -->
<g id="edge39" class="edge">
<title>3f962b20&#45;fd81&#45;435a&#45;b4f0&#45;d58e90e5ee50&#45;&gt;6c3c1f55&#45;5895&#45;483a&#45;939f&#45;0abd984efa60</title>
<path fill="none" stroke="purple" d="M1749,-189.8C1749,-178.16 1749,-162.55 1749,-149.24"/>
<polygon fill="purple" stroke="purple" points="1752.5,-149.18 1749,-139.18 1745.5,-149.18 1752.5,-149.18"/>
<text text-anchor="middle" x="1784.5" y="-160.8" font-family="Times,serif" font-size="14.00" fill="purple">Pass Data</text>
</g>
<!-- 6916499f&#45;ac33&#45;4f6a&#45;84c1&#45;3eb8501bd740 -->
<g id="node37" class="node">
<title>6916499f&#45;ac33&#45;4f6a&#45;84c1&#45;3eb8501bd740</title>
<ellipse fill="none" stroke="black" cx="1749" cy="-295" rx="51.3" ry="18"/>
<text text-anchor="middle" x="1749" y="-291.3" font-family="Times,serif" font-size="14.00">OffsetToPose</text>
</g>
<!-- 6916499f&#45;ac33&#45;4f6a&#45;84c1&#45;3eb8501bd740&#45;&gt;3f962b20&#45;fd81&#45;435a&#45;b4f0&#45;d58e90e5ee50 -->
<g id="edge40" class="edge">
<title>6916499f&#45;ac33&#45;4f6a&#45;84c1&#45;3eb8501bd740&#45;&gt;3f962b20&#45;fd81&#45;435a&#45;b4f0&#45;d58e90e5ee50</title>
<path fill="none" stroke="purple" d="M1749,-276.8C1749,-265.16 1749,-249.55 1749,-236.24"/>
<polygon fill="purple" stroke="purple" points="1752.5,-236.18 1749,-226.18 1745.5,-236.18 1752.5,-236.18"/>
<text text-anchor="middle" x="1784.5" y="-247.8" font-family="Times,serif" font-size="14.00" fill="purple">Pass Data</text>
</g>
<!-- 995c1323&#45;11b6&#45;40aa&#45;a847&#45;8e223c4774ac -->
<g id="node38" class="node">
<title>995c1323&#45;11b6&#45;40aa&#45;a847&#45;8e223c4774ac</title>
<ellipse fill="none" stroke="black" cx="1749" cy="-382" rx="32.4" ry="18"/>
<text text-anchor="middle" x="1749" y="-378.3" font-family="Times,serif" font-size="14.00">Average</text>
</g>
<!-- 995c1323&#45;11b6&#45;40aa&#45;a847&#45;8e223c4774ac&#45;&gt;6916499f&#45;ac33&#45;4f6a&#45;84c1&#45;3eb8501bd740 -->
<g id="edge41" class="edge">
<title>995c1323&#45;11b6&#45;40aa&#45;a847&#45;8e223c4774ac&#45;&gt;6916499f&#45;ac33&#45;4f6a&#45;84c1&#45;3eb8501bd740</title>
<path fill="none" stroke="purple" d="M1749,-363.8C1749,-352.16 1749,-336.55 1749,-323.24"/>
<polygon fill="purple" stroke="purple" points="1752.5,-323.18 1749,-313.18 1745.5,-323.18 1752.5,-323.18"/>
<text text-anchor="middle" x="1784.5" y="-334.8" font-family="Times,serif" font-size="14.00" fill="purple">Pass Data</text>
</g>
<!-- d672b3da&#45;8694&#45;4898&#45;bc06&#45;5503949d045a -->
<g id="node39" class="node">
<title>d672b3da&#45;8694&#45;4898&#45;bc06&#45;5503949d045a</title>
<ellipse fill="none" stroke="black" cx="1749" cy="-469" rx="61.1" ry="18"/>
<text text-anchor="middle" x="1749" y="-465.3" font-family="Times,serif" font-size="14.00">ExtractPosition</text>
</g>
<!-- d672b3da&#45;8694&#45;4898&#45;bc06&#45;5503949d045a&#45;&gt;995c1323&#45;11b6&#45;40aa&#45;a847&#45;8e223c4774ac -->
<g id="edge42" class="edge">
<title>d672b3da&#45;8694&#45;4898&#45;bc06&#45;5503949d045a&#45;&gt;995c1323&#45;11b6&#45;40aa&#45;a847&#45;8e223c4774ac</title>
<path fill="none" stroke="purple" d="M1749,-450.8C1749,-439.16 1749,-423.55 1749,-410.24"/>
<polygon fill="purple" stroke="purple" points="1752.5,-410.18 1749,-400.18 1745.5,-410.18 1752.5,-410.18"/>
<text text-anchor="middle" x="1784.5" y="-421.8" font-family="Times,serif" font-size="14.00" fill="purple">Pass Data</text>
</g>
<!-- 00e871e9&#45;c6f1&#45;43bc&#45;a107&#45;28ec58a6cca2 -->
<g id="node40" class="node">
<title>00e871e9&#45;c6f1&#45;43bc&#45;a107&#45;28ec58a6cca2</title>
<ellipse fill="none" stroke="black" cx="1821" cy="-556" rx="27" ry="18"/>
<text text-anchor="middle" x="1821" y="-552.3" font-family="Times,serif" font-size="14.00">ToVec</text>
</g>
<!-- 00e871e9&#45;c6f1&#45;43bc&#45;a107&#45;28ec58a6cca2&#45;&gt;d672b3da&#45;8694&#45;4898&#45;bc06&#45;5503949d045a -->
<g id="edge43" class="edge">
<title>00e871e9&#45;c6f1&#45;43bc&#45;a107&#45;28ec58a6cca2&#45;&gt;d672b3da&#45;8694&#45;4898&#45;bc06&#45;5503949d045a</title>
<path fill="none" stroke="purple" d="M1803.67,-541.67C1796.24,-535.51 1787.74,-527.83 1781,-520 1774.65,-512.62 1768.63,-503.88 1763.56,-495.79"/>
<polygon fill="purple" stroke="purple" points="1766.44,-493.79 1758.27,-487.03 1760.45,-497.4 1766.44,-493.79"/>
<text text-anchor="middle" x="1816.5" y="-508.8" font-family="Times,serif" font-size="14.00" fill="purple">Pass Data</text>
</g>
<!-- 2b2b3347&#45;9f6d&#45;4457&#45;be53&#45;48b9286b62c1&#45;&gt;20b1b795&#45;6085&#45;45d1&#45;8a14&#45;39a4e10c2a87 -->
<g id="edge45" class="edge">
<title>2b2b3347&#45;9f6d&#45;4457&#45;be53&#45;48b9286b62c1&#45;&gt;20b1b795&#45;6085&#45;45d1&#45;8a14&#45;39a4e10c2a87</title>
<path fill="none" stroke="black" d="M1749.97,-611.26C1715.54,-599.51 1669.82,-583.9 1636.25,-572.45"/>
<polygon fill="black" stroke="black" points="1637.28,-569.1 1626.69,-569.18 1635.02,-575.73 1637.28,-569.1"/>
</g>
<!-- 2b2b3347&#45;9f6d&#45;4457&#45;be53&#45;48b9286b62c1&#45;&gt;00e871e9&#45;c6f1&#45;43bc&#45;a107&#45;28ec58a6cca2 -->
<g id="edge44" class="edge">
<title>2b2b3347&#45;9f6d&#45;4457&#45;be53&#45;48b9286b62c1&#45;&gt;00e871e9&#45;c6f1&#45;43bc&#45;a107&#45;28ec58a6cca2</title>
<path fill="none" stroke="black" d="M1804.33,-610.81C1806.84,-602.7 1809.9,-592.84 1812.7,-583.78"/>
<polygon fill="black" stroke="black" points="1816.11,-584.62 1815.72,-574.03 1809.42,-582.54 1816.11,-584.62"/>
</g>
<!-- 1751e324&#45;52a1&#45;47c0&#45;acf7&#45;85a9b875013f&#45;&gt;b2f79922&#45;cdc6&#45;4050&#45;9508&#45;d5f0efa9f4c1 -->
<g id="edge47" class="edge">
<title>1751e324&#45;52a1&#45;47c0&#45;acf7&#45;85a9b875013f&#45;&gt;b2f79922&#45;cdc6&#45;4050&#45;9508&#45;d5f0efa9f4c1</title>
<path fill="none" stroke="purple" d="M349,-487.26C349,-504.43 349,-531.54 349,-555 349,-790 349,-790 349,-790 349,-820.38 529.74,-841.97 648.53,-852.88"/>
<polygon fill="purple" stroke="purple" points="648.48,-856.39 658.76,-853.8 649.11,-849.42 648.48,-856.39"/>
<text text-anchor="middle" x="384.5" y="-668.8" font-family="Times,serif" font-size="14.00" fill="purple">Pass Data</text>
</g>
<!-- 58ac9b72&#45;5197&#45;428a&#45;b721&#45;402850017c88&#45;&gt;9d89310b&#45;39dc&#45;4f16&#45;9180&#45;822cca2e057e -->
<g id="edge50" class="edge">
<title>58ac9b72&#45;5197&#45;428a&#45;b721&#45;402850017c88&#45;&gt;9d89310b&#45;39dc&#45;4f16&#45;9180&#45;822cca2e057e</title>
<path fill="none" stroke="purple" d="M1333,-487.26C1333,-504.43 1333,-531.54 1333,-555 1333,-790 1333,-790 1333,-790 1333,-820.38 1513.74,-841.97 1632.53,-852.88"/>
<polygon fill="purple" stroke="purple" points="1632.48,-856.39 1642.76,-853.8 1633.11,-849.42 1632.48,-856.39"/>
<text text-anchor="middle" x="1368.5" y="-668.8" font-family="Times,serif" font-size="14.00" fill="purple">Pass Data</text>
</g>
</g>
</svg>
