<?xml version="1.0" encoding="UTF-8" standalone="no"?>
<!DOCTYPE svg PUBLIC "-//W3C//DTD SVG 1.1//EN"
 "http://www.w3.org/Graphics/SVG/1.1/DTD/svg11.dtd">
<!-- Generated by graphviz version 2.43.0 (0)
 -->
<!-- Title: G Pages: 1 -->
<svg width="2232pt" height="1158pt"
 viewBox="0.00 0.00 2232.00 1158.00" xmlns="http://www.w3.org/2000/svg" xmlns:xlink="http://www.w3.org/1999/xlink">
<g id="graph0" class="graph" transform="scale(1 1) rotate(0) translate(4 1154)">
<title>G</title>
<polygon fill="transparent" stroke="transparent" points="-4,4 -4,-1154 2228,-1154 2228,4 -4,4"/>
<g id="clust1" class="cluster">
<title>cluster_2adb5d15&#45;4e97&#45;4292&#45;b06e&#45;bac26aaf8503</title>
<polygon fill="transparent" stroke="blue" stroke-dasharray="5,2" points="8,-530 8,-1142 248,-1142 248,-530 8,-530"/>
</g>
<g id="clust2" class="cluster">
<title>cluster_5d78649c&#45;4e69&#45;40f3&#45;965a&#45;b59c6086cb33</title>
<polygon fill="transparent" stroke="darkgreen" stroke-dasharray="5,2" points="450,-690 450,-888 1232,-888 1232,-690 450,-690"/>
</g>
<g id="clust3" class="cluster">
<title>cluster_8bfbd978&#45;7974&#45;42c8&#45;b817&#45;7059a5f9707d</title>
<polygon fill="transparent" stroke="blue" stroke-dasharray="5,2" points="595,-8 595,-655 979,-655 979,-8 595,-8"/>
</g>
<g id="clust4" class="cluster">
<title>cluster_92cf821b&#45;0669&#45;435f&#45;b231&#45;04e6b7c95319</title>
<polygon fill="transparent" stroke="darkgreen" stroke-dasharray="5,2" points="1434,-690 1434,-888 2216,-888 2216,-690 1434,-690"/>
</g>
<g id="clust5" class="cluster">
<title>cluster_4edd4085&#45;0209&#45;495e&#45;8cf7&#45;c2d70ad59af6</title>
<polygon fill="transparent" stroke="blue" stroke-dasharray="5,2" points="1452,-8 1452,-655 1856,-655 1856,-8 1452,-8"/>
</g>
<!-- d04d81d9&#45;cad9&#45;48b2&#45;bc1b&#45;fe21292bb23b -->
<g id="node1" class="node">
<title>d04d81d9&#45;cad9&#45;48b2&#45;bc1b&#45;fe21292bb23b</title>
<polygon fill="none" stroke="black" points="724,-574 603.37,-556 724,-538 844.63,-556 724,-574"/>
<text text-anchor="middle" x="724" y="-552.3" font-family="Times,serif" font-size="14.00">Consecutive True &lt; 3</text>
</g>
<!-- 83f70532&#45;bcab&#45;440d&#45;8dcd&#45;e7941ecd434b -->
<g id="node42" class="node">
<title>83f70532&#45;bcab&#45;440d&#45;8dcd&#45;e7941ecd434b</title>
<ellipse fill="none" stroke="black" cx="349" cy="-469" rx="46.5" ry="18"/>
<text text-anchor="middle" x="349" y="-465.3" font-family="Times,serif" font-size="14.00">VisionNorm</text>
</g>
<!-- d04d81d9&#45;cad9&#45;48b2&#45;bc1b&#45;fe21292bb23b&#45;&gt;83f70532&#45;bcab&#45;440d&#45;8dcd&#45;e7941ecd434b -->
<g id="edge48" class="edge">
<title>d04d81d9&#45;cad9&#45;48b2&#45;bc1b&#45;fe21292bb23b&#45;&gt;83f70532&#45;bcab&#45;440d&#45;8dcd&#45;e7941ecd434b</title>
<path fill="none" stroke="black" d="M678.77,-544.75C607.88,-528.68 471.18,-497.7 398.03,-481.11"/>
<polygon fill="black" stroke="black" points="398.67,-477.67 388.14,-478.87 397.12,-484.5 398.67,-477.67"/>
<text text-anchor="middle" x="576" y="-508.8" font-family="Times,serif" font-size="14.00">True</text>
</g>
<!-- bb58cea4&#45;593e&#45;4bca&#45;877f&#45;d06ca0de9d88 -->
<g id="node43" class="node">
<title>bb58cea4&#45;593e&#45;4bca&#45;877f&#45;d06ca0de9d88</title>
<ellipse fill="none" stroke="black" cx="1333" cy="-469" rx="46.5" ry="18"/>
<text text-anchor="middle" x="1333" y="-465.3" font-family="Times,serif" font-size="14.00">VisionNorm</text>
</g>
<!-- d04d81d9&#45;cad9&#45;48b2&#45;bc1b&#45;fe21292bb23b&#45;&gt;bb58cea4&#45;593e&#45;4bca&#45;877f&#45;d06ca0de9d88 -->
<g id="edge53" class="edge">
<title>d04d81d9&#45;cad9&#45;48b2&#45;bc1b&#45;fe21292bb23b&#45;&gt;bb58cea4&#45;593e&#45;4bca&#45;877f&#45;d06ca0de9d88</title>
<path fill="none" stroke="black" d="M775.83,-545.66C806.36,-540.43 845.78,-534.15 881,-530 938.55,-523.22 953.44,-526.67 1011,-520 1106.95,-508.88 1218.15,-490.35 1281.57,-479.24"/>
<polygon fill="black" stroke="black" points="1282.47,-482.64 1291.71,-477.46 1281.26,-475.74 1282.47,-482.64"/>
<text text-anchor="middle" x="1136" y="-508.8" font-family="Times,serif" font-size="14.00">False</text>
</g>
<!-- 1c0633e6&#45;8688&#45;41f6&#45;9246&#45;504fdb71f50b -->
<g id="node2" class="node">
<title>1c0633e6&#45;8688&#45;41f6&#45;9246&#45;504fdb71f50b</title>
<polygon fill="none" stroke="black" points="1591,-574 1459.59,-556 1591,-538 1722.41,-556 1591,-574"/>
<text text-anchor="middle" x="1591" y="-552.3" font-family="Times,serif" font-size="14.00">Consecutive False &lt; 10</text>
</g>
<!-- 1c0633e6&#45;8688&#45;41f6&#45;9246&#45;504fdb71f50b&#45;&gt;bb58cea4&#45;593e&#45;4bca&#45;877f&#45;d06ca0de9d88 -->
<g id="edge51" class="edge">
<title>1c0633e6&#45;8688&#45;41f6&#45;9246&#45;504fdb71f50b&#45;&gt;bb58cea4&#45;593e&#45;4bca&#45;877f&#45;d06ca0de9d88</title>
<path fill="none" stroke="black" d="M1554.31,-542.91C1507.62,-527.53 1427.04,-500.98 1377.07,-484.52"/>
<polygon fill="black" stroke="black" points="1378.1,-481.17 1367.5,-481.37 1375.91,-487.82 1378.1,-481.17"/>
<text text-anchor="middle" x="1494" y="-508.8" font-family="Times,serif" font-size="14.00">True</text>
</g>
<!-- 1f2ea2a8&#45;dd75&#45;4f59&#45;a9a6&#45;6a9ae4c9feb4 -->
<g id="node44" class="node">
<title>1f2ea2a8&#45;dd75&#45;4f59&#45;a9a6&#45;6a9ae4c9feb4</title>
<ellipse fill="none" stroke="black" cx="1942" cy="-469" rx="59.9" ry="18"/>
<text text-anchor="middle" x="1942" y="-465.3" font-family="Times,serif" font-size="14.00">ZeroMovement</text>
</g>
<!-- 1c0633e6&#45;8688&#45;41f6&#45;9246&#45;504fdb71f50b&#45;&gt;1f2ea2a8&#45;dd75&#45;4f59&#45;a9a6&#45;6a9ae4c9feb4 -->
<g id="edge52" class="edge">
<title>1c0633e6&#45;8688&#45;41f6&#45;9246&#45;504fdb71f50b&#45;&gt;1f2ea2a8&#45;dd75&#45;4f59&#45;a9a6&#45;6a9ae4c9feb4</title>
<path fill="none" stroke="black" d="M1647.7,-545.7C1679.98,-540.61 1721.18,-534.46 1758,-530 1805.86,-524.21 1820.51,-535.94 1866,-520 1883.65,-513.81 1901.23,-502.65 1915.04,-492.44"/>
<polygon fill="black" stroke="black" points="1917.3,-495.12 1923.11,-486.26 1913.04,-489.56 1917.3,-495.12"/>
<text text-anchor="middle" x="1914" y="-508.8" font-family="Times,serif" font-size="14.00">False</text>
</g>
<!-- a4a77dfb&#45;b51b&#45;43ca&#45;93a8&#45;886a46c9e52c -->
<g id="node3" class="node">
<title>a4a77dfb&#45;b51b&#45;43ca&#45;93a8&#45;886a46c9e52c</title>
<ellipse fill="none" stroke="black" cx="88" cy="-935" rx="33.6" ry="18"/>
<text text-anchor="middle" x="88" y="-931.3" font-family="Times,serif" font-size="14.00">Descend</text>
</g>
<!-- 6c5aa4d7&#45;6ee1&#45;4a88&#45;bf9e&#45;ee220ab906cc -->
<g id="node4" class="node">
<title>6c5aa4d7&#45;6ee1&#45;4a88&#45;bf9e&#45;ee220ab906cc</title>
<ellipse fill="none" stroke="black" cx="88" cy="-862" rx="47.1" ry="18"/>
<text text-anchor="middle" x="88" y="-858.3" font-family="Times,serif" font-size="14.00">DelayAction</text>
</g>
<!-- a4a77dfb&#45;b51b&#45;43ca&#45;93a8&#45;886a46c9e52c&#45;&gt;6c5aa4d7&#45;6ee1&#45;4a88&#45;bf9e&#45;ee220ab906cc -->
<g id="edge1" class="edge">
<title>a4a77dfb&#45;b51b&#45;43ca&#45;93a8&#45;886a46c9e52c&#45;&gt;6c5aa4d7&#45;6ee1&#45;4a88&#45;bf9e&#45;ee220ab906cc</title>
<path fill="none" stroke="black" d="M88,-916.81C88,-908.79 88,-899.05 88,-890.07"/>
<polygon fill="black" stroke="black" points="91.5,-890.03 88,-880.03 84.5,-890.03 91.5,-890.03"/>
</g>
<!-- d05e6e71&#45;2177&#45;4f98&#45;8d7f&#45;3deed21248c0 -->
<g id="node5" class="node">
<title>d05e6e71&#45;2177&#45;4f98&#45;8d7f&#45;3deed21248c0</title>
<ellipse fill="none" stroke="black" cx="91" cy="-789" rx="74.61" ry="18"/>
<text text-anchor="middle" x="91" y="-785.3" font-family="Times,serif" font-size="14.00">StraightMovement</text>
</g>
<!-- 6c5aa4d7&#45;6ee1&#45;4a88&#45;bf9e&#45;ee220ab906cc&#45;&gt;d05e6e71&#45;2177&#45;4f98&#45;8d7f&#45;3deed21248c0 -->
<g id="edge4" class="edge">
<title>6c5aa4d7&#45;6ee1&#45;4a88&#45;bf9e&#45;ee220ab906cc&#45;&gt;d05e6e71&#45;2177&#45;4f98&#45;8d7f&#45;3deed21248c0</title>
<path fill="none" stroke="black" d="M88.73,-843.81C89.07,-835.79 89.48,-826.05 89.86,-817.07"/>
<polygon fill="black" stroke="black" points="93.36,-817.17 90.28,-807.03 86.36,-816.87 93.36,-817.17"/>
</g>
<!-- 2d5179c6&#45;9053&#45;44ab&#45;ab70&#45;9b63a2db5ba9 -->
<g id="node6" class="node">
<title>2d5179c6&#45;9053&#45;44ab&#45;ab70&#45;9b63a2db5ba9</title>
<ellipse fill="none" stroke="black" cx="99" cy="-716" rx="47.1" ry="18"/>
<text text-anchor="middle" x="99" y="-712.3" font-family="Times,serif" font-size="14.00">DelayAction</text>
</g>
<!-- d05e6e71&#45;2177&#45;4f98&#45;8d7f&#45;3deed21248c0&#45;&gt;2d5179c6&#45;9053&#45;44ab&#45;ab70&#45;9b63a2db5ba9 -->
<g id="edge2" class="edge">
<title>d05e6e71&#45;2177&#45;4f98&#45;8d7f&#45;3deed21248c0&#45;&gt;2d5179c6&#45;9053&#45;44ab&#45;ab70&#45;9b63a2db5ba9</title>
<path fill="none" stroke="black" d="M92.94,-770.81C93.84,-762.79 94.94,-753.05 95.95,-744.07"/>
<polygon fill="black" stroke="black" points="99.44,-744.36 97.08,-734.03 92.48,-743.57 99.44,-744.36"/>
</g>
<!-- 120ee4e7&#45;8c6a&#45;4263&#45;966b&#45;5a23e56281f7 -->
<g id="node7" class="node">
<title>120ee4e7&#45;8c6a&#45;4263&#45;966b&#45;5a23e56281f7</title>
<ellipse fill="none" stroke="black" cx="104" cy="-629" rx="59.9" ry="18"/>
<text text-anchor="middle" x="104" y="-625.3" font-family="Times,serif" font-size="14.00">ZeroMovement</text>
</g>
<!-- 2d5179c6&#45;9053&#45;44ab&#45;ab70&#45;9b63a2db5ba9&#45;&gt;120ee4e7&#45;8c6a&#45;4263&#45;966b&#45;5a23e56281f7 -->
<g id="edge3" class="edge">
<title>2d5179c6&#45;9053&#45;44ab&#45;ab70&#45;9b63a2db5ba9&#45;&gt;120ee4e7&#45;8c6a&#45;4263&#45;966b&#45;5a23e56281f7</title>
<path fill="none" stroke="black" d="M100.01,-697.8C100.7,-686.16 101.61,-670.55 102.4,-657.24"/>
<polygon fill="black" stroke="black" points="105.9,-657.36 102.99,-647.18 98.91,-656.95 105.9,-657.36"/>
</g>
<!-- 1bdda7d5&#45;746c&#45;4fca&#45;9e59&#45;955fb0e01a1c -->
<g id="node11" class="node">
<title>1bdda7d5&#45;746c&#45;4fca&#45;9e59&#45;955fb0e01a1c</title>
<polygon fill="none" stroke="black" stroke-dasharray="5,2" points="239.5,-574 154.5,-574 154.5,-538 239.5,-538 239.5,-574"/>
<text text-anchor="middle" x="197" y="-552.3" font-family="Times,serif" font-size="14.00" fill="blue">Converge</text>
</g>
<!-- 120ee4e7&#45;8c6a&#45;4263&#45;966b&#45;5a23e56281f7&#45;&gt;1bdda7d5&#45;746c&#45;4fca&#45;9e59&#45;955fb0e01a1c -->
<g id="edge8" class="edge">
<title>120ee4e7&#45;8c6a&#45;4263&#45;966b&#45;5a23e56281f7&#45;&gt;1bdda7d5&#45;746c&#45;4fca&#45;9e59&#45;955fb0e01a1c</title>
<path fill="none" stroke="black" d="M125.1,-611.89C137.35,-602.54 152.99,-590.6 166.56,-580.24"/>
<polygon fill="black" stroke="black" points="168.86,-582.89 174.68,-574.04 164.61,-577.32 168.86,-582.89"/>
</g>
<!-- 21870316&#45;881f&#45;4dd2&#45;b6d2&#45;5fe5bc16b32a -->
<g id="node8" class="node">
<title>21870316&#45;881f&#45;4dd2&#45;b6d2&#45;5fe5bc16b32a</title>
<ellipse fill="none" stroke="black" cx="82" cy="-1043" rx="34.8" ry="18"/>
<text text-anchor="middle" x="82" y="-1039.3" font-family="Times,serif" font-size="14.00">WaitArm</text>
</g>
<!-- 21870316&#45;881f&#45;4dd2&#45;b6d2&#45;5fe5bc16b32a&#45;&gt;a4a77dfb&#45;b51b&#45;43ca&#45;93a8&#45;886a46c9e52c -->
<g id="edge5" class="edge">
<title>21870316&#45;881f&#45;4dd2&#45;b6d2&#45;5fe5bc16b32a&#45;&gt;a4a77dfb&#45;b51b&#45;43ca&#45;93a8&#45;886a46c9e52c</title>
<path fill="none" stroke="black" d="M82.96,-1024.97C83.9,-1008.38 85.35,-982.88 86.45,-963.43"/>
<polygon fill="black" stroke="black" points="89.95,-963.52 87.02,-953.34 82.96,-963.13 89.95,-963.52"/>
</g>
<!-- de0809d2&#45;3014&#45;4d66&#45;bf43&#45;23504559f162 -->
<g id="node9" class="node">
<title>de0809d2&#45;3014&#45;4d66&#45;bf43&#45;23504559f162</title>
<polygon fill="none" stroke="black" stroke-dasharray="5,2" points="210,-1134 112,-1134 112,-1098 210,-1098 210,-1134"/>
<text text-anchor="middle" x="161" y="-1112.3" font-family="Times,serif" font-size="14.00" fill="blue">Concurrent</text>
</g>
<!-- de0809d2&#45;3014&#45;4d66&#45;bf43&#45;23504559f162&#45;&gt;21870316&#45;881f&#45;4dd2&#45;b6d2&#45;5fe5bc16b32a -->
<g id="edge6" class="edge">
<title>de0809d2&#45;3014&#45;4d66&#45;bf43&#45;23504559f162&#45;&gt;21870316&#45;881f&#45;4dd2&#45;b6d2&#45;5fe5bc16b32a</title>
<path fill="none" stroke="black" d="M141.88,-1097.81C131.12,-1088.14 117.58,-1075.98 106.1,-1065.66"/>
<polygon fill="black" stroke="black" points="108.32,-1062.95 98.54,-1058.87 103.64,-1068.15 108.32,-1062.95"/>
</g>
<!-- 90cfea98&#45;94f1&#45;46e4&#45;a91e&#45;7928f4e7df9b -->
<g id="node10" class="node">
<title>90cfea98&#45;94f1&#45;46e4&#45;a91e&#45;7928f4e7df9b</title>
<ellipse fill="none" stroke="black" cx="189" cy="-989" rx="50.7" ry="18"/>
<text text-anchor="middle" x="189" y="-985.3" font-family="Times,serif" font-size="14.00">StartBno055</text>
</g>
<!-- de0809d2&#45;3014&#45;4d66&#45;bf43&#45;23504559f162&#45;&gt;90cfea98&#45;94f1&#45;46e4&#45;a91e&#45;7928f4e7df9b -->
<g id="edge7" class="edge">
<title>de0809d2&#45;3014&#45;4d66&#45;bf43&#45;23504559f162&#45;&gt;90cfea98&#45;94f1&#45;46e4&#45;a91e&#45;7928f4e7df9b</title>
<path fill="none" stroke="black" d="M164.83,-1097.88C169.5,-1077.05 177.43,-1041.64 182.93,-1017.09"/>
<polygon fill="black" stroke="black" points="186.35,-1017.84 185.12,-1007.31 179.52,-1016.31 186.35,-1017.84"/>
</g>
<!-- 90cfea98&#45;94f1&#45;46e4&#45;a91e&#45;7928f4e7df9b&#45;&gt;1bdda7d5&#45;746c&#45;4fca&#45;9e59&#45;955fb0e01a1c -->
<g id="edge9" class="edge">
<title>90cfea98&#45;94f1&#45;46e4&#45;a91e&#45;7928f4e7df9b&#45;&gt;1bdda7d5&#45;746c&#45;4fca&#45;9e59&#45;955fb0e01a1c</title>
<path fill="none" stroke="black" d="M204.82,-971.8C219.47,-955.03 239,-927.36 239,-899 239,-899 239,-899 239,-628 239,-611.08 230.06,-594.66 220.43,-581.88"/>
<polygon fill="black" stroke="black" points="223.09,-579.61 214.08,-574.04 217.65,-584.01 223.09,-579.61"/>
</g>
<!-- 1bdda7d5&#45;746c&#45;4fca&#45;9e59&#45;955fb0e01a1c&#45;&gt;83f70532&#45;bcab&#45;440d&#45;8dcd&#45;e7941ecd434b -->
<g id="edge54" class="edge">
<title>1bdda7d5&#45;746c&#45;4fca&#45;9e59&#45;955fb0e01a1c&#45;&gt;83f70532&#45;bcab&#45;440d&#45;8dcd&#45;e7941ecd434b</title>
<path fill="none" stroke="black" d="M227.76,-537.8C252.9,-523.74 288.43,-503.87 314.53,-489.28"/>
<polygon fill="black" stroke="black" points="316.31,-492.29 323.33,-484.35 312.9,-486.18 316.31,-492.29"/>
</g>
<!-- 26865615&#45;504d&#45;4f76&#45;81ed&#45;78dc422e3c0e -->
<g id="node12" class="node">
<title>26865615&#45;504d&#45;4f76&#45;81ed&#45;78dc422e3c0e</title>
<polygon fill="none" stroke="black" stroke-dasharray="5,2" points="841,-880 659,-880 659,-844 841,-844 841,-880"/>
<text text-anchor="middle" x="750" y="-858.3" font-family="Times,serif" font-size="14.00" fill="darkgreen">FirstValid (Concurrent)</text>
</g>
<!-- 4df25876&#45;fc60&#45;41cf&#45;84a8&#45;f288a990ff18 -->
<g id="node13" class="node">
<title>4df25876&#45;fc60&#45;41cf&#45;84a8&#45;f288a990ff18</title>
<ellipse fill="none" stroke="black" cx="1180" cy="-789" rx="44" ry="18"/>
<text text-anchor="middle" x="1180" y="-785.3" font-family="Times,serif" font-size="14.00">Detect Red</text>
</g>
<!-- 26865615&#45;504d&#45;4f76&#45;81ed&#45;78dc422e3c0e&#45;&gt;4df25876&#45;fc60&#45;41cf&#45;84a8&#45;f288a990ff18 -->
<g id="edge10" class="edge">
<title>26865615&#45;504d&#45;4f76&#45;81ed&#45;78dc422e3c0e&#45;&gt;4df25876&#45;fc60&#45;41cf&#45;84a8&#45;f288a990ff18</title>
<path fill="none" stroke="black" d="M841.25,-848.36C912.02,-838.21 1012.46,-823.04 1100,-807 1110.48,-805.08 1121.69,-802.83 1132.29,-800.6"/>
<polygon fill="black" stroke="black" points="1133.19,-803.99 1142.24,-798.48 1131.73,-797.14 1133.19,-803.99"/>
</g>
<!-- 658542d0&#45;cdcf&#45;43a2&#45;b406&#45;e19a51f2124b -->
<g id="node14" class="node">
<title>658542d0&#45;cdcf&#45;43a2&#45;b406&#45;e19a51f2124b</title>
<ellipse fill="none" stroke="black" cx="503" cy="-789" rx="45.2" ry="18"/>
<text text-anchor="middle" x="503" y="-785.3" font-family="Times,serif" font-size="14.00">Detect Pole</text>
</g>
<!-- 26865615&#45;504d&#45;4f76&#45;81ed&#45;78dc422e3c0e&#45;&gt;658542d0&#45;cdcf&#45;43a2&#45;b406&#45;e19a51f2124b -->
<g id="edge11" class="edge">
<title>26865615&#45;504d&#45;4f76&#45;81ed&#45;78dc422e3c0e&#45;&gt;658542d0&#45;cdcf&#45;43a2&#45;b406&#45;e19a51f2124b</title>
<path fill="none" stroke="black" d="M690.84,-843.99C647.02,-831.4 588.22,-814.5 548.16,-802.98"/>
<polygon fill="black" stroke="black" points="548.97,-799.57 538.4,-800.17 547.04,-806.3 548.97,-799.57"/>
</g>
<!-- f4b3365b&#45;d1f2&#45;4791&#45;a193&#45;a59766a42f85 -->
<g id="node15" class="node">
<title>f4b3365b&#45;d1f2&#45;4791&#45;a193&#45;a59766a42f85</title>
<ellipse fill="none" stroke="black" cx="667" cy="-789" rx="46.5" ry="18"/>
<text text-anchor="middle" x="667" y="-785.3" font-family="Times,serif" font-size="14.00">Detect Blue</text>
</g>
<!-- 26865615&#45;504d&#45;4f76&#45;81ed&#45;78dc422e3c0e&#45;&gt;f4b3365b&#45;d1f2&#45;4791&#45;a193&#45;a59766a42f85 -->
<g id="edge12" class="edge">
<title>26865615&#45;504d&#45;4f76&#45;81ed&#45;78dc422e3c0e&#45;&gt;f4b3365b&#45;d1f2&#45;4791&#45;a193&#45;a59766a42f85</title>
<path fill="none" stroke="black" d="M729.91,-843.81C718.92,-834.41 705.16,-822.65 693.32,-812.52"/>
<polygon fill="black" stroke="black" points="695.36,-809.66 685.49,-805.82 690.81,-814.98 695.36,-809.66"/>
</g>
<!-- 8ba0254e&#45;191a&#45;4b9b&#45;b822&#45;ac025239e13b -->
<g id="node16" class="node">
<title>8ba0254e&#45;191a&#45;4b9b&#45;b822&#45;ac025239e13b</title>
<ellipse fill="none" stroke="black" cx="833" cy="-789" rx="47.1" ry="18"/>
<text text-anchor="middle" x="833" y="-785.3" font-family="Times,serif" font-size="14.00">Detect Gate</text>
</g>
<!-- 26865615&#45;504d&#45;4f76&#45;81ed&#45;78dc422e3c0e&#45;&gt;8ba0254e&#45;191a&#45;4b9b&#45;b822&#45;ac025239e13b -->
<g id="edge13" class="edge">
<title>26865615&#45;504d&#45;4f76&#45;81ed&#45;78dc422e3c0e&#45;&gt;8ba0254e&#45;191a&#45;4b9b&#45;b822&#45;ac025239e13b</title>
<path fill="none" stroke="black" d="M770.09,-843.81C781.08,-834.41 794.84,-822.65 806.68,-812.52"/>
<polygon fill="black" stroke="black" points="809.19,-814.98 814.51,-805.82 804.64,-809.66 809.19,-814.98"/>
</g>
<!-- bc0f9dd3&#45;bf2e&#45;45ab&#45;a790&#45;7df083fb9cd8 -->
<g id="node17" class="node">
<title>bc0f9dd3&#45;bf2e&#45;45ab&#45;a790&#45;7df083fb9cd8</title>
<ellipse fill="none" stroke="black" cx="1008" cy="-789" rx="56.2" ry="18"/>
<text text-anchor="middle" x="1008" y="-785.3" font-family="Times,serif" font-size="14.00">Detect Middle</text>
</g>
<!-- 26865615&#45;504d&#45;4f76&#45;81ed&#45;78dc422e3c0e&#45;&gt;bc0f9dd3&#45;bf2e&#45;45ab&#45;a790&#45;7df083fb9cd8 -->
<g id="edge14" class="edge">
<title>26865615&#45;504d&#45;4f76&#45;81ed&#45;78dc422e3c0e&#45;&gt;bc0f9dd3&#45;bf2e&#45;45ab&#45;a790&#45;7df083fb9cd8</title>
<path fill="none" stroke="black" d="M811.8,-843.99C856.24,-831.76 915.44,-815.47 957.15,-803.99"/>
<polygon fill="black" stroke="black" points="958.11,-807.36 966.83,-801.33 956.26,-800.61 958.11,-807.36"/>
</g>
<!-- 828a84a0&#45;6e9b&#45;4634&#45;b1b9&#45;e325fabb49c9 -->
<g id="node18" class="node">
<title>828a84a0&#45;6e9b&#45;4634&#45;b1b9&#45;e325fabb49c9</title>
<polygon fill="none" stroke="black" stroke-dasharray="5,2" points="875.5,-734 790.5,-734 790.5,-698 875.5,-698 875.5,-734"/>
<text text-anchor="middle" x="833" y="-712.3" font-family="Times,serif" font-size="14.00" fill="darkgreen">Converge</text>
</g>
<!-- 4df25876&#45;fc60&#45;41cf&#45;84a8&#45;f288a990ff18&#45;&gt;828a84a0&#45;6e9b&#45;4634&#45;b1b9&#45;e325fabb49c9 -->
<g id="edge15" class="edge">
<title>4df25876&#45;fc60&#45;41cf&#45;84a8&#45;f288a990ff18&#45;&gt;828a84a0&#45;6e9b&#45;4634&#45;b1b9&#45;e325fabb49c9</title>
<path fill="none" stroke="black" d="M1141.77,-779.8C1128.54,-776.98 1113.63,-773.83 1100,-771 1025.61,-755.57 939.44,-738.24 885.57,-727.47"/>
<polygon fill="black" stroke="black" points="886.06,-724 875.57,-725.48 884.69,-730.87 886.06,-724"/>
</g>
<!-- 658542d0&#45;cdcf&#45;43a2&#45;b406&#45;e19a51f2124b&#45;&gt;828a84a0&#45;6e9b&#45;4634&#45;b1b9&#45;e325fabb49c9 -->
<g id="edge16" class="edge">
<title>658542d0&#45;cdcf&#45;43a2&#45;b406&#45;e19a51f2124b&#45;&gt;828a84a0&#45;6e9b&#45;4634&#45;b1b9&#45;e325fabb49c9</title>
<path fill="none" stroke="black" d="M541.83,-779.65C601.06,-766.9 714.1,-742.58 780.57,-728.28"/>
<polygon fill="black" stroke="black" points="781.38,-731.69 790.42,-726.16 779.91,-724.84 781.38,-731.69"/>
</g>
<!-- f4b3365b&#45;d1f2&#45;4791&#45;a193&#45;a59766a42f85&#45;&gt;828a84a0&#45;6e9b&#45;4634&#45;b1b9&#45;e325fabb49c9 -->
<g id="edge17" class="edge">
<title>f4b3365b&#45;d1f2&#45;4791&#45;a193&#45;a59766a42f85&#45;&gt;828a84a0&#45;6e9b&#45;4634&#45;b1b9&#45;e325fabb49c9</title>
<path fill="none" stroke="black" d="M697.06,-775.14C721.24,-764.8 755.7,-750.06 783.87,-738.01"/>
<polygon fill="black" stroke="black" points="785.34,-741.19 793.16,-734.04 782.59,-734.75 785.34,-741.19"/>
</g>
<!-- 8ba0254e&#45;191a&#45;4b9b&#45;b822&#45;ac025239e13b&#45;&gt;828a84a0&#45;6e9b&#45;4634&#45;b1b9&#45;e325fabb49c9 -->
<g id="edge18" class="edge">
<title>8ba0254e&#45;191a&#45;4b9b&#45;b822&#45;ac025239e13b&#45;&gt;828a84a0&#45;6e9b&#45;4634&#45;b1b9&#45;e325fabb49c9</title>
<path fill="none" stroke="black" d="M833,-770.81C833,-762.79 833,-753.05 833,-744.07"/>
<polygon fill="black" stroke="black" points="836.5,-744.03 833,-734.03 829.5,-744.03 836.5,-744.03"/>
</g>
<!-- bc0f9dd3&#45;bf2e&#45;45ab&#45;a790&#45;7df083fb9cd8&#45;&gt;828a84a0&#45;6e9b&#45;4634&#45;b1b9&#45;e325fabb49c9 -->
<g id="edge19" class="edge">
<title>bc0f9dd3&#45;bf2e&#45;45ab&#45;a790&#45;7df083fb9cd8&#45;&gt;828a84a0&#45;6e9b&#45;4634&#45;b1b9&#45;e325fabb49c9</title>
<path fill="none" stroke="black" d="M974.67,-774.48C949.28,-764.18 913.85,-749.8 884.78,-738.01"/>
<polygon fill="black" stroke="black" points="885.77,-734.63 875.18,-734.11 883.13,-741.12 885.77,-734.63"/>
</g>
<!-- 84a60e4e&#45;a1fb&#45;4dd9&#45;a55a&#45;77671f42f7bd -->
<g id="node26" class="node">
<title>84a60e4e&#45;a1fb&#45;4dd9&#45;a55a&#45;77671f42f7bd</title>
<polygon fill="none" stroke="black" stroke-dasharray="5,2" points="882,-647 784,-647 784,-611 882,-611 882,-647"/>
<text text-anchor="middle" x="833" y="-625.3" font-family="Times,serif" font-size="14.00" fill="blue">Concurrent</text>
</g>
<!-- 828a84a0&#45;6e9b&#45;4634&#45;b1b9&#45;e325fabb49c9&#45;&gt;84a60e4e&#45;a1fb&#45;4dd9&#45;a55a&#45;77671f42f7bd -->
<g id="edge46" class="edge">
<title>828a84a0&#45;6e9b&#45;4634&#45;b1b9&#45;e325fabb49c9&#45;&gt;84a60e4e&#45;a1fb&#45;4dd9&#45;a55a&#45;77671f42f7bd</title>
<path fill="none" stroke="purple" d="M833,-697.8C833,-686.16 833,-670.55 833,-657.24"/>
<polygon fill="purple" stroke="purple" points="836.5,-657.18 833,-647.18 829.5,-657.18 836.5,-657.18"/>
<text text-anchor="middle" x="868.5" y="-668.8" font-family="Times,serif" font-size="14.00" fill="purple">Pass Data</text>
</g>
<!-- 0f87297f&#45;e824&#45;4fd5&#45;bbec&#45;0e7b27d3cb6d -->
<g id="node19" class="node">
<title>0f87297f&#45;e824&#45;4fd5&#45;bbec&#45;0e7b27d3cb6d</title>
<ellipse fill="none" stroke="black" cx="891" cy="-121" rx="27" ry="18"/>
<text text-anchor="middle" x="891" y="-117.3" font-family="Times,serif" font-size="14.00">StripY</text>
</g>
<!-- ef8ade0b&#45;49af&#45;4f61&#45;a3a8&#45;61afddf67fe4 -->
<g id="node20" class="node">
<title>ef8ade0b&#45;49af&#45;4f61&#45;a3a8&#45;61afddf67fe4</title>
<ellipse fill="none" stroke="black" cx="891" cy="-34" rx="80.11" ry="18"/>
<text text-anchor="middle" x="891" y="-30.3" font-family="Times,serif" font-size="14.00">Stability2Movement</text>
</g>
<!-- 0f87297f&#45;e824&#45;4fd5&#45;bbec&#45;0e7b27d3cb6d&#45;&gt;ef8ade0b&#45;49af&#45;4f61&#45;a3a8&#45;61afddf67fe4 -->
<g id="edge20" class="edge">
<title>0f87297f&#45;e824&#45;4fd5&#45;bbec&#45;0e7b27d3cb6d&#45;&gt;ef8ade0b&#45;49af&#45;4f61&#45;a3a8&#45;61afddf67fe4</title>
<path fill="none" stroke="purple" d="M891,-102.8C891,-91.16 891,-75.55 891,-62.24"/>
<polygon fill="purple" stroke="purple" points="894.5,-62.18 891,-52.18 887.5,-62.18 894.5,-62.18"/>
<text text-anchor="middle" x="926.5" y="-73.8" font-family="Times,serif" font-size="14.00" fill="purple">Pass Data</text>
</g>
<!-- 60192e3d&#45;434d&#45;44b5&#45;97d6&#45;caf6d14874a9 -->
<g id="node21" class="node">
<title>60192e3d&#45;434d&#45;44b5&#45;97d6&#45;caf6d14874a9</title>
<ellipse fill="none" stroke="black" cx="891" cy="-208" rx="67.81" ry="18"/>
<text text-anchor="middle" x="891" y="-204.3" font-family="Times,serif" font-size="14.00">LinearYawFromX</text>
</g>
<!-- 60192e3d&#45;434d&#45;44b5&#45;97d6&#45;caf6d14874a9&#45;&gt;0f87297f&#45;e824&#45;4fd5&#45;bbec&#45;0e7b27d3cb6d -->
<g id="edge21" class="edge">
<title>60192e3d&#45;434d&#45;44b5&#45;97d6&#45;caf6d14874a9&#45;&gt;0f87297f&#45;e824&#45;4fd5&#45;bbec&#45;0e7b27d3cb6d</title>
<path fill="none" stroke="purple" d="M891,-189.8C891,-178.16 891,-162.55 891,-149.24"/>
<polygon fill="purple" stroke="purple" points="894.5,-149.18 891,-139.18 887.5,-149.18 894.5,-149.18"/>
<text text-anchor="middle" x="926.5" y="-160.8" font-family="Times,serif" font-size="14.00" fill="purple">Pass Data</text>
</g>
<!-- 93c9c1cb&#45;d018&#45;42cb&#45;88e5&#45;fe5f9b22eee5 -->
<g id="node22" class="node">
<title>93c9c1cb&#45;d018&#45;42cb&#45;88e5&#45;fe5f9b22eee5</title>
<ellipse fill="none" stroke="black" cx="892" cy="-295" rx="51.3" ry="18"/>
<text text-anchor="middle" x="892" y="-291.3" font-family="Times,serif" font-size="14.00">OffsetToPose</text>
</g>
<!-- 93c9c1cb&#45;d018&#45;42cb&#45;88e5&#45;fe5f9b22eee5&#45;&gt;60192e3d&#45;434d&#45;44b5&#45;97d6&#45;caf6d14874a9 -->
<g id="edge22" class="edge">
<title>93c9c1cb&#45;d018&#45;42cb&#45;88e5&#45;fe5f9b22eee5&#45;&gt;60192e3d&#45;434d&#45;44b5&#45;97d6&#45;caf6d14874a9</title>
<path fill="none" stroke="purple" d="M891.8,-276.8C891.66,-265.16 891.48,-249.55 891.32,-236.24"/>
<polygon fill="purple" stroke="purple" points="894.82,-236.13 891.2,-226.18 887.82,-236.22 894.82,-236.13"/>
<text text-anchor="middle" x="926.5" y="-247.8" font-family="Times,serif" font-size="14.00" fill="purple">Pass Data</text>
</g>
<!-- ba3109f1&#45;4cb3&#45;4747&#45;b4c7&#45;26f41dedb8e2 -->
<g id="node23" class="node">
<title>ba3109f1&#45;4cb3&#45;4747&#45;b4c7&#45;26f41dedb8e2</title>
<ellipse fill="none" stroke="black" cx="893" cy="-382" rx="32.4" ry="18"/>
<text text-anchor="middle" x="893" y="-378.3" font-family="Times,serif" font-size="14.00">Average</text>
</g>
<!-- ba3109f1&#45;4cb3&#45;4747&#45;b4c7&#45;26f41dedb8e2&#45;&gt;93c9c1cb&#45;d018&#45;42cb&#45;88e5&#45;fe5f9b22eee5 -->
<g id="edge23" class="edge">
<title>ba3109f1&#45;4cb3&#45;4747&#45;b4c7&#45;26f41dedb8e2&#45;&gt;93c9c1cb&#45;d018&#45;42cb&#45;88e5&#45;fe5f9b22eee5</title>
<path fill="none" stroke="purple" d="M892.8,-363.8C892.66,-352.16 892.48,-336.55 892.32,-323.24"/>
<polygon fill="purple" stroke="purple" points="895.82,-323.13 892.2,-313.18 888.82,-323.22 895.82,-323.13"/>
<text text-anchor="middle" x="927.5" y="-334.8" font-family="Times,serif" font-size="14.00" fill="purple">Pass Data</text>
</g>
<!-- 2f9b23ce&#45;3e52&#45;4d05&#45;a3fe&#45;7f5b694b1511 -->
<g id="node24" class="node">
<title>2f9b23ce&#45;3e52&#45;4d05&#45;a3fe&#45;7f5b694b1511</title>
<ellipse fill="none" stroke="black" cx="895" cy="-469" rx="61.1" ry="18"/>
<text text-anchor="middle" x="895" y="-465.3" font-family="Times,serif" font-size="14.00">ExtractPosition</text>
</g>
<!-- 2f9b23ce&#45;3e52&#45;4d05&#45;a3fe&#45;7f5b694b1511&#45;&gt;ba3109f1&#45;4cb3&#45;4747&#45;b4c7&#45;26f41dedb8e2 -->
<g id="edge24" class="edge">
<title>2f9b23ce&#45;3e52&#45;4d05&#45;a3fe&#45;7f5b694b1511&#45;&gt;ba3109f1&#45;4cb3&#45;4747&#45;b4c7&#45;26f41dedb8e2</title>
<path fill="none" stroke="purple" d="M894.6,-450.8C894.32,-439.16 893.95,-423.55 893.64,-410.24"/>
<polygon fill="purple" stroke="purple" points="897.14,-410.09 893.4,-400.18 890.14,-410.26 897.14,-410.09"/>
<text text-anchor="middle" x="929.5" y="-421.8" font-family="Times,serif" font-size="14.00" fill="purple">Pass Data</text>
</g>
<!-- c2c039a4&#45;f2a8&#45;4a12&#45;b856&#45;32d4d13bf26f -->
<g id="node25" class="node">
<title>c2c039a4&#45;f2a8&#45;4a12&#45;b856&#45;32d4d13bf26f</title>
<ellipse fill="none" stroke="black" cx="944" cy="-556" rx="27" ry="18"/>
<text text-anchor="middle" x="944" y="-552.3" font-family="Times,serif" font-size="14.00">ToVec</text>
</g>
<!-- c2c039a4&#45;f2a8&#45;4a12&#45;b856&#45;32d4d13bf26f&#45;&gt;2f9b23ce&#45;3e52&#45;4d05&#45;a3fe&#45;7f5b694b1511 -->
<g id="edge25" class="edge">
<title>c2c039a4&#45;f2a8&#45;4a12&#45;b856&#45;32d4d13bf26f&#45;&gt;2f9b23ce&#45;3e52&#45;4d05&#45;a3fe&#45;7f5b694b1511</title>
<path fill="none" stroke="purple" d="M934.78,-539.01C927.73,-526.78 917.87,-509.68 909.73,-495.56"/>
<polygon fill="purple" stroke="purple" points="912.7,-493.7 904.68,-486.79 906.64,-497.2 912.7,-493.7"/>
<text text-anchor="middle" x="957.5" y="-508.8" font-family="Times,serif" font-size="14.00" fill="purple">Pass Data</text>
</g>
<!-- 84a60e4e&#45;a1fb&#45;4dd9&#45;a55a&#45;77671f42f7bd&#45;&gt;d04d81d9&#45;cad9&#45;48b2&#45;bc1b&#45;fe21292bb23b -->
<g id="edge27" class="edge">
<title>84a60e4e&#45;a1fb&#45;4dd9&#45;a55a&#45;77671f42f7bd&#45;&gt;d04d81d9&#45;cad9&#45;48b2&#45;bc1b&#45;fe21292bb23b</title>
<path fill="none" stroke="black" d="M806.89,-610.99C791.06,-600.68 770.78,-587.47 754.25,-576.7"/>
<polygon fill="black" stroke="black" points="755.79,-573.53 745.5,-571.01 751.97,-579.4 755.79,-573.53"/>
</g>
<!-- 84a60e4e&#45;a1fb&#45;4dd9&#45;a55a&#45;77671f42f7bd&#45;&gt;c2c039a4&#45;f2a8&#45;4a12&#45;b856&#45;32d4d13bf26f -->
<g id="edge26" class="edge">
<title>84a60e4e&#45;a1fb&#45;4dd9&#45;a55a&#45;77671f42f7bd&#45;&gt;c2c039a4&#45;f2a8&#45;4a12&#45;b856&#45;32d4d13bf26f</title>
<path fill="none" stroke="black" d="M859.59,-610.99C876.85,-599.95 899.28,-585.6 916.68,-574.47"/>
<polygon fill="black" stroke="black" points="918.73,-577.32 925.27,-568.98 914.96,-571.42 918.73,-577.32"/>
</g>
<!-- f76e00b7&#45;b447&#45;4b8e&#45;883b&#45;b487e9bcf7bb -->
<g id="node27" class="node">
<title>f76e00b7&#45;b447&#45;4b8e&#45;883b&#45;b487e9bcf7bb</title>
<polygon fill="none" stroke="black" stroke-dasharray="5,2" points="1825,-880 1643,-880 1643,-844 1825,-844 1825,-880"/>
<text text-anchor="middle" x="1734" y="-858.3" font-family="Times,serif" font-size="14.00" fill="darkgreen">FirstValid (Concurrent)</text>
</g>
<!-- 0365a052&#45;92a9&#45;493a&#45;bf9f&#45;d5e9fe236f85 -->
<g id="node28" class="node">
<title>0365a052&#45;92a9&#45;493a&#45;bf9f&#45;d5e9fe236f85</title>
<ellipse fill="none" stroke="black" cx="2164" cy="-789" rx="44" ry="18"/>
<text text-anchor="middle" x="2164" y="-785.3" font-family="Times,serif" font-size="14.00">Detect Red</text>
</g>
<!-- f76e00b7&#45;b447&#45;4b8e&#45;883b&#45;b487e9bcf7bb&#45;&gt;0365a052&#45;92a9&#45;493a&#45;bf9f&#45;d5e9fe236f85 -->
<g id="edge28" class="edge">
<title>f76e00b7&#45;b447&#45;4b8e&#45;883b&#45;b487e9bcf7bb&#45;&gt;0365a052&#45;92a9&#45;493a&#45;bf9f&#45;d5e9fe236f85</title>
<path fill="none" stroke="black" d="M1825.25,-848.36C1896.02,-838.21 1996.46,-823.04 2084,-807 2094.48,-805.08 2105.69,-802.83 2116.29,-800.6"/>
<polygon fill="black" stroke="black" points="2117.19,-803.99 2126.24,-798.48 2115.73,-797.14 2117.19,-803.99"/>
</g>
<!-- b367f507&#45;fb63&#45;4eed&#45;a3c2&#45;81429bde8869 -->
<g id="node29" class="node">
<title>b367f507&#45;fb63&#45;4eed&#45;a3c2&#45;81429bde8869</title>
<ellipse fill="none" stroke="black" cx="1487" cy="-789" rx="45.2" ry="18"/>
<text text-anchor="middle" x="1487" y="-785.3" font-family="Times,serif" font-size="14.00">Detect Pole</text>
</g>
<!-- f76e00b7&#45;b447&#45;4b8e&#45;883b&#45;b487e9bcf7bb&#45;&gt;b367f507&#45;fb63&#45;4eed&#45;a3c2&#45;81429bde8869 -->
<g id="edge29" class="edge">
<title>f76e00b7&#45;b447&#45;4b8e&#45;883b&#45;b487e9bcf7bb&#45;&gt;b367f507&#45;fb63&#45;4eed&#45;a3c2&#45;81429bde8869</title>
<path fill="none" stroke="black" d="M1674.84,-843.99C1631.02,-831.4 1572.22,-814.5 1532.16,-802.98"/>
<polygon fill="black" stroke="black" points="1532.97,-799.57 1522.4,-800.17 1531.04,-806.3 1532.97,-799.57"/>
</g>
<!-- e4c5b4ea&#45;d9b4&#45;4105&#45;ba70&#45;6f5c8e6725b3 -->
<g id="node30" class="node">
<title>e4c5b4ea&#45;d9b4&#45;4105&#45;ba70&#45;6f5c8e6725b3</title>
<ellipse fill="none" stroke="black" cx="1651" cy="-789" rx="46.5" ry="18"/>
<text text-anchor="middle" x="1651" y="-785.3" font-family="Times,serif" font-size="14.00">Detect Blue</text>
</g>
<!-- f76e00b7&#45;b447&#45;4b8e&#45;883b&#45;b487e9bcf7bb&#45;&gt;e4c5b4ea&#45;d9b4&#45;4105&#45;ba70&#45;6f5c8e6725b3 -->
<g id="edge30" class="edge">
<title>f76e00b7&#45;b447&#45;4b8e&#45;883b&#45;b487e9bcf7bb&#45;&gt;e4c5b4ea&#45;d9b4&#45;4105&#45;ba70&#45;6f5c8e6725b3</title>
<path fill="none" stroke="black" d="M1713.91,-843.81C1702.92,-834.41 1689.16,-822.65 1677.32,-812.52"/>
<polygon fill="black" stroke="black" points="1679.36,-809.66 1669.49,-805.82 1674.81,-814.98 1679.36,-809.66"/>
</g>
<!-- 55cfbd9d&#45;5a2d&#45;4cd9&#45;bd4a&#45;27ebb5bc3520 -->
<g id="node31" class="node">
<title>55cfbd9d&#45;5a2d&#45;4cd9&#45;bd4a&#45;27ebb5bc3520</title>
<ellipse fill="none" stroke="black" cx="1817" cy="-789" rx="47.1" ry="18"/>
<text text-anchor="middle" x="1817" y="-785.3" font-family="Times,serif" font-size="14.00">Detect Gate</text>
</g>
<!-- f76e00b7&#45;b447&#45;4b8e&#45;883b&#45;b487e9bcf7bb&#45;&gt;55cfbd9d&#45;5a2d&#45;4cd9&#45;bd4a&#45;27ebb5bc3520 -->
<g id="edge31" class="edge">
<title>f76e00b7&#45;b447&#45;4b8e&#45;883b&#45;b487e9bcf7bb&#45;&gt;55cfbd9d&#45;5a2d&#45;4cd9&#45;bd4a&#45;27ebb5bc3520</title>
<path fill="none" stroke="black" d="M1754.09,-843.81C1765.08,-834.41 1778.84,-822.65 1790.68,-812.52"/>
<polygon fill="black" stroke="black" points="1793.19,-814.98 1798.51,-805.82 1788.64,-809.66 1793.19,-814.98"/>
</g>
<!-- eab8918e&#45;9cbf&#45;4595&#45;b748&#45;6e29e54afca4 -->
<g id="node32" class="node">
<title>eab8918e&#45;9cbf&#45;4595&#45;b748&#45;6e29e54afca4</title>
<ellipse fill="none" stroke="black" cx="1992" cy="-789" rx="56.2" ry="18"/>
<text text-anchor="middle" x="1992" y="-785.3" font-family="Times,serif" font-size="14.00">Detect Middle</text>
</g>
<!-- f76e00b7&#45;b447&#45;4b8e&#45;883b&#45;b487e9bcf7bb&#45;&gt;eab8918e&#45;9cbf&#45;4595&#45;b748&#45;6e29e54afca4 -->
<g id="edge32" class="edge">
<title>f76e00b7&#45;b447&#45;4b8e&#45;883b&#45;b487e9bcf7bb&#45;&gt;eab8918e&#45;9cbf&#45;4595&#45;b748&#45;6e29e54afca4</title>
<path fill="none" stroke="black" d="M1795.8,-843.99C1840.24,-831.76 1899.44,-815.47 1941.15,-803.99"/>
<polygon fill="black" stroke="black" points="1942.11,-807.36 1950.83,-801.33 1940.26,-800.61 1942.11,-807.36"/>
</g>
<!-- d4742c93&#45;51be&#45;4af1&#45;8b0c&#45;a636a5b5db22 -->
<g id="node33" class="node">
<title>d4742c93&#45;51be&#45;4af1&#45;8b0c&#45;a636a5b5db22</title>
<polygon fill="none" stroke="black" stroke-dasharray="5,2" points="1852.5,-734 1767.5,-734 1767.5,-698 1852.5,-698 1852.5,-734"/>
<text text-anchor="middle" x="1810" y="-712.3" font-family="Times,serif" font-size="14.00" fill="darkgreen">Converge</text>
</g>
<!-- 0365a052&#45;92a9&#45;493a&#45;bf9f&#45;d5e9fe236f85&#45;&gt;d4742c93&#45;51be&#45;4af1&#45;8b0c&#45;a636a5b5db22 -->
<g id="edge33" class="edge">
<title>0365a052&#45;92a9&#45;493a&#45;bf9f&#45;d5e9fe236f85&#45;&gt;d4742c93&#45;51be&#45;4af1&#45;8b0c&#45;a636a5b5db22</title>
<path fill="none" stroke="black" d="M2125.77,-779.76C2112.55,-776.94 2097.63,-773.79 2084,-771 2007.09,-755.25 1917.85,-737.82 1862.65,-727.14"/>
<polygon fill="black" stroke="black" points="1863.24,-723.68 1852.75,-725.22 1861.91,-730.56 1863.24,-723.68"/>
</g>
<!-- b367f507&#45;fb63&#45;4eed&#45;a3c2&#45;81429bde8869&#45;&gt;d4742c93&#45;51be&#45;4af1&#45;8b0c&#45;a636a5b5db22 -->
<g id="edge34" class="edge">
<title>b367f507&#45;fb63&#45;4eed&#45;a3c2&#45;81429bde8869&#45;&gt;d4742c93&#45;51be&#45;4af1&#45;8b0c&#45;a636a5b5db22</title>
<path fill="none" stroke="black" d="M1525.64,-779.51C1583.42,-766.81 1692.46,-742.84 1757.44,-728.55"/>
<polygon fill="black" stroke="black" points="1758.46,-731.91 1767.47,-726.35 1756.96,-725.08 1758.46,-731.91"/>
</g>
<!-- e4c5b4ea&#45;d9b4&#45;4105&#45;ba70&#45;6f5c8e6725b3&#45;&gt;d4742c93&#45;51be&#45;4af1&#45;8b0c&#45;a636a5b5db22 -->
<g id="edge35" class="edge">
<title>e4c5b4ea&#45;d9b4&#45;4105&#45;ba70&#45;6f5c8e6725b3&#45;&gt;d4742c93&#45;51be&#45;4af1&#45;8b0c&#45;a636a5b5db22</title>
<path fill="none" stroke="black" d="M1680.53,-774.81C1703.59,-764.52 1736.08,-750.01 1762.74,-738.1"/>
<polygon fill="black" stroke="black" points="1764.2,-741.29 1771.9,-734.01 1761.34,-734.89 1764.2,-741.29"/>
</g>
<!-- 55cfbd9d&#45;5a2d&#45;4cd9&#45;bd4a&#45;27ebb5bc3520&#45;&gt;d4742c93&#45;51be&#45;4af1&#45;8b0c&#45;a636a5b5db22 -->
<g id="edge36" class="edge">
<title>55cfbd9d&#45;5a2d&#45;4cd9&#45;bd4a&#45;27ebb5bc3520&#45;&gt;d4742c93&#45;51be&#45;4af1&#45;8b0c&#45;a636a5b5db22</title>
<path fill="none" stroke="black" d="M1815.31,-770.81C1814.51,-762.79 1813.55,-753.05 1812.67,-744.07"/>
<polygon fill="black" stroke="black" points="1816.14,-743.64 1811.68,-734.03 1809.18,-744.32 1816.14,-743.64"/>
</g>
<!-- eab8918e&#45;9cbf&#45;4595&#45;b748&#45;6e29e54afca4&#45;&gt;d4742c93&#45;51be&#45;4af1&#45;8b0c&#45;a636a5b5db22 -->
<g id="edge37" class="edge">
<title>eab8918e&#45;9cbf&#45;4595&#45;b748&#45;6e29e54afca4&#45;&gt;d4742c93&#45;51be&#45;4af1&#45;8b0c&#45;a636a5b5db22</title>
<path fill="none" stroke="black" d="M1957.77,-774.65C1930.91,-764.17 1893.08,-749.41 1862.42,-737.45"/>
<polygon fill="black" stroke="black" points="1863.33,-734.05 1852.74,-733.67 1860.79,-740.57 1863.33,-734.05"/>
</g>
<!-- a45577ed&#45;e235&#45;436b&#45;a4a6&#45;5a971a23cfdc -->
<g id="node41" class="node">
<title>a45577ed&#45;e235&#45;436b&#45;a4a6&#45;5a971a23cfdc</title>
<polygon fill="none" stroke="black" stroke-dasharray="5,2" points="1848,-647 1750,-647 1750,-611 1848,-611 1848,-647"/>
<text text-anchor="middle" x="1799" y="-625.3" font-family="Times,serif" font-size="14.00" fill="blue">Concurrent</text>
</g>
<!-- d4742c93&#45;51be&#45;4af1&#45;8b0c&#45;a636a5b5db22&#45;&gt;a45577ed&#45;e235&#45;436b&#45;a4a6&#45;5a971a23cfdc -->
<g id="edge49" class="edge">
<title>d4742c93&#45;51be&#45;4af1&#45;8b0c&#45;a636a5b5db22&#45;&gt;a45577ed&#45;e235&#45;436b&#45;a4a6&#45;5a971a23cfdc</title>
<path fill="none" stroke="purple" d="M1807.77,-697.8C1806.27,-686.16 1804.25,-670.55 1802.52,-657.24"/>
<polygon fill="purple" stroke="purple" points="1805.98,-656.64 1801.22,-647.18 1799.04,-657.54 1805.98,-656.64"/>
<text text-anchor="middle" x="1840.5" y="-668.8" font-family="Times,serif" font-size="14.00" fill="purple">Pass Data</text>
</g>
<!-- f6a73ebf&#45;7ffa&#45;4140&#45;9281&#45;77fcac20f9b6 -->
<g id="node34" class="node">
<title>f6a73ebf&#45;7ffa&#45;4140&#45;9281&#45;77fcac20f9b6</title>
<ellipse fill="none" stroke="black" cx="1749" cy="-121" rx="27" ry="18"/>
<text text-anchor="middle" x="1749" y="-117.3" font-family="Times,serif" font-size="14.00">StripY</text>
</g>
<!-- 7e380db3&#45;2fe5&#45;439f&#45;809f&#45;66b8a6ddeddb -->
<g id="node35" class="node">
<title>7e380db3&#45;2fe5&#45;439f&#45;809f&#45;66b8a6ddeddb</title>
<ellipse fill="none" stroke="black" cx="1749" cy="-34" rx="80.11" ry="18"/>
<text text-anchor="middle" x="1749" y="-30.3" font-family="Times,serif" font-size="14.00">Stability2Movement</text>
</g>
<!-- f6a73ebf&#45;7ffa&#45;4140&#45;9281&#45;77fcac20f9b6&#45;&gt;7e380db3&#45;2fe5&#45;439f&#45;809f&#45;66b8a6ddeddb -->
<g id="edge38" class="edge">
<title>f6a73ebf&#45;7ffa&#45;4140&#45;9281&#45;77fcac20f9b6&#45;&gt;7e380db3&#45;2fe5&#45;439f&#45;809f&#45;66b8a6ddeddb</title>
<path fill="none" stroke="purple" d="M1749,-102.8C1749,-91.16 1749,-75.55 1749,-62.24"/>
<polygon fill="purple" stroke="purple" points="1752.5,-62.18 1749,-52.18 1745.5,-62.18 1752.5,-62.18"/>
<text text-anchor="middle" x="1784.5" y="-73.8" font-family="Times,serif" font-size="14.00" fill="purple">Pass Data</text>
</g>
<!-- c5bade4e&#45;fb49&#45;4c90&#45;8ae1&#45;1155788974cc -->
<g id="node36" class="node">
<title>c5bade4e&#45;fb49&#45;4c90&#45;8ae1&#45;1155788974cc</title>
<ellipse fill="none" stroke="black" cx="1749" cy="-208" rx="67.81" ry="18"/>
<text text-anchor="middle" x="1749" y="-204.3" font-family="Times,serif" font-size="14.00">LinearYawFromX</text>
</g>
<!-- c5bade4e&#45;fb49&#45;4c90&#45;8ae1&#45;1155788974cc&#45;&gt;f6a73ebf&#45;7ffa&#45;4140&#45;9281&#45;77fcac20f9b6 -->
<g id="edge39" class="edge">
<title>c5bade4e&#45;fb49&#45;4c90&#45;8ae1&#45;1155788974cc&#45;&gt;f6a73ebf&#45;7ffa&#45;4140&#45;9281&#45;77fcac20f9b6</title>
<path fill="none" stroke="purple" d="M1749,-189.8C1749,-178.16 1749,-162.55 1749,-149.24"/>
<polygon fill="purple" stroke="purple" points="1752.5,-149.18 1749,-139.18 1745.5,-149.18 1752.5,-149.18"/>
<text text-anchor="middle" x="1784.5" y="-160.8" font-family="Times,serif" font-size="14.00" fill="purple">Pass Data</text>
</g>
<!-- 1ccdf0ed&#45;d421&#45;4c0c&#45;b982&#45;3afdd76edae2 -->
<g id="node37" class="node">
<title>1ccdf0ed&#45;d421&#45;4c0c&#45;b982&#45;3afdd76edae2</title>
<ellipse fill="none" stroke="black" cx="1749" cy="-295" rx="51.3" ry="18"/>
<text text-anchor="middle" x="1749" y="-291.3" font-family="Times,serif" font-size="14.00">OffsetToPose</text>
</g>
<!-- 1ccdf0ed&#45;d421&#45;4c0c&#45;b982&#45;3afdd76edae2&#45;&gt;c5bade4e&#45;fb49&#45;4c90&#45;8ae1&#45;1155788974cc -->
<g id="edge40" class="edge">
<title>1ccdf0ed&#45;d421&#45;4c0c&#45;b982&#45;3afdd76edae2&#45;&gt;c5bade4e&#45;fb49&#45;4c90&#45;8ae1&#45;1155788974cc</title>
<path fill="none" stroke="purple" d="M1749,-276.8C1749,-265.16 1749,-249.55 1749,-236.24"/>
<polygon fill="purple" stroke="purple" points="1752.5,-236.18 1749,-226.18 1745.5,-236.18 1752.5,-236.18"/>
<text text-anchor="middle" x="1784.5" y="-247.8" font-family="Times,serif" font-size="14.00" fill="purple">Pass Data</text>
</g>
<!-- 82cf6a77&#45;64e0&#45;492e&#45;ae36&#45;12a74a483735 -->
<g id="node38" class="node">
<title>82cf6a77&#45;64e0&#45;492e&#45;ae36&#45;12a74a483735</title>
<ellipse fill="none" stroke="black" cx="1749" cy="-382" rx="32.4" ry="18"/>
<text text-anchor="middle" x="1749" y="-378.3" font-family="Times,serif" font-size="14.00">Average</text>
</g>
<!-- 82cf6a77&#45;64e0&#45;492e&#45;ae36&#45;12a74a483735&#45;&gt;1ccdf0ed&#45;d421&#45;4c0c&#45;b982&#45;3afdd76edae2 -->
<g id="edge41" class="edge">
<title>82cf6a77&#45;64e0&#45;492e&#45;ae36&#45;12a74a483735&#45;&gt;1ccdf0ed&#45;d421&#45;4c0c&#45;b982&#45;3afdd76edae2</title>
<path fill="none" stroke="purple" d="M1749,-363.8C1749,-352.16 1749,-336.55 1749,-323.24"/>
<polygon fill="purple" stroke="purple" points="1752.5,-323.18 1749,-313.18 1745.5,-323.18 1752.5,-323.18"/>
<text text-anchor="middle" x="1784.5" y="-334.8" font-family="Times,serif" font-size="14.00" fill="purple">Pass Data</text>
</g>
<!-- b37193ad&#45;3276&#45;4b1d&#45;8ab4&#45;f559fc914a79 -->
<g id="node39" class="node">
<title>b37193ad&#45;3276&#45;4b1d&#45;8ab4&#45;f559fc914a79</title>
<ellipse fill="none" stroke="black" cx="1749" cy="-469" rx="61.1" ry="18"/>
<text text-anchor="middle" x="1749" y="-465.3" font-family="Times,serif" font-size="14.00">ExtractPosition</text>
</g>
<!-- b37193ad&#45;3276&#45;4b1d&#45;8ab4&#45;f559fc914a79&#45;&gt;82cf6a77&#45;64e0&#45;492e&#45;ae36&#45;12a74a483735 -->
<g id="edge42" class="edge">
<title>b37193ad&#45;3276&#45;4b1d&#45;8ab4&#45;f559fc914a79&#45;&gt;82cf6a77&#45;64e0&#45;492e&#45;ae36&#45;12a74a483735</title>
<path fill="none" stroke="purple" d="M1749,-450.8C1749,-439.16 1749,-423.55 1749,-410.24"/>
<polygon fill="purple" stroke="purple" points="1752.5,-410.18 1749,-400.18 1745.5,-410.18 1752.5,-410.18"/>
<text text-anchor="middle" x="1784.5" y="-421.8" font-family="Times,serif" font-size="14.00" fill="purple">Pass Data</text>
</g>
<!-- 18ed4280&#45;8b9e&#45;4075&#45;a83a&#45;5c8b22084189 -->
<g id="node40" class="node">
<title>18ed4280&#45;8b9e&#45;4075&#45;a83a&#45;5c8b22084189</title>
<ellipse fill="none" stroke="black" cx="1821" cy="-556" rx="27" ry="18"/>
<text text-anchor="middle" x="1821" y="-552.3" font-family="Times,serif" font-size="14.00">ToVec</text>
</g>
<!-- 18ed4280&#45;8b9e&#45;4075&#45;a83a&#45;5c8b22084189&#45;&gt;b37193ad&#45;3276&#45;4b1d&#45;8ab4&#45;f559fc914a79 -->
<g id="edge43" class="edge">
<title>18ed4280&#45;8b9e&#45;4075&#45;a83a&#45;5c8b22084189&#45;&gt;b37193ad&#45;3276&#45;4b1d&#45;8ab4&#45;f559fc914a79</title>
<path fill="none" stroke="purple" d="M1803.67,-541.67C1796.24,-535.51 1787.74,-527.83 1781,-520 1774.65,-512.62 1768.63,-503.88 1763.56,-495.79"/>
<polygon fill="purple" stroke="purple" points="1766.44,-493.79 1758.27,-487.03 1760.45,-497.4 1766.44,-493.79"/>
<text text-anchor="middle" x="1816.5" y="-508.8" font-family="Times,serif" font-size="14.00" fill="purple">Pass Data</text>
</g>
<!-- a45577ed&#45;e235&#45;436b&#45;a4a6&#45;5a971a23cfdc&#45;&gt;1c0633e6&#45;8688&#45;41f6&#45;9246&#45;504fdb71f50b -->
<g id="edge45" class="edge">
<title>a45577ed&#45;e235&#45;436b&#45;a4a6&#45;5a971a23cfdc&#45;&gt;1c0633e6&#45;8688&#45;41f6&#45;9246&#45;504fdb71f50b</title>
<path fill="none" stroke="black" d="M1749.97,-611.26C1715.54,-599.51 1669.82,-583.9 1636.25,-572.45"/>
<polygon fill="black" stroke="black" points="1637.28,-569.1 1626.69,-569.18 1635.02,-575.73 1637.28,-569.1"/>
</g>
<!-- a45577ed&#45;e235&#45;436b&#45;a4a6&#45;5a971a23cfdc&#45;&gt;18ed4280&#45;8b9e&#45;4075&#45;a83a&#45;5c8b22084189 -->
<g id="edge44" class="edge">
<title>a45577ed&#45;e235&#45;436b&#45;a4a6&#45;5a971a23cfdc&#45;&gt;18ed4280&#45;8b9e&#45;4075&#45;a83a&#45;5c8b22084189</title>
<path fill="none" stroke="black" d="M1804.33,-610.81C1806.84,-602.7 1809.9,-592.84 1812.7,-583.78"/>
<polygon fill="black" stroke="black" points="1816.11,-584.62 1815.72,-574.03 1809.42,-582.54 1816.11,-584.62"/>
</g>
<!-- 83f70532&#45;bcab&#45;440d&#45;8dcd&#45;e7941ecd434b&#45;&gt;26865615&#45;504d&#45;4f76&#45;81ed&#45;78dc422e3c0e -->
<g id="edge47" class="edge">
<title>83f70532&#45;bcab&#45;440d&#45;8dcd&#45;e7941ecd434b&#45;&gt;26865615&#45;504d&#45;4f76&#45;81ed&#45;78dc422e3c0e</title>
<path fill="none" stroke="purple" d="M349,-487.26C349,-504.43 349,-531.54 349,-555 349,-790 349,-790 349,-790 349,-820.38 529.74,-841.97 648.53,-852.88"/>
<polygon fill="purple" stroke="purple" points="648.48,-856.39 658.76,-853.8 649.11,-849.42 648.48,-856.39"/>
<text text-anchor="middle" x="384.5" y="-668.8" font-family="Times,serif" font-size="14.00" fill="purple">Pass Data</text>
</g>
<!-- bb58cea4&#45;593e&#45;4bca&#45;877f&#45;d06ca0de9d88&#45;&gt;f76e00b7&#45;b447&#45;4b8e&#45;883b&#45;b487e9bcf7bb -->
<g id="edge50" class="edge">
<title>bb58cea4&#45;593e&#45;4bca&#45;877f&#45;d06ca0de9d88&#45;&gt;f76e00b7&#45;b447&#45;4b8e&#45;883b&#45;b487e9bcf7bb</title>
<path fill="none" stroke="purple" d="M1333,-487.26C1333,-504.43 1333,-531.54 1333,-555 1333,-790 1333,-790 1333,-790 1333,-820.38 1513.74,-841.97 1632.53,-852.88"/>
<polygon fill="purple" stroke="purple" points="1632.48,-856.39 1642.76,-853.8 1633.11,-849.42 1632.48,-856.39"/>
<text text-anchor="middle" x="1368.5" y="-668.8" font-family="Times,serif" font-size="14.00" fill="purple">Pass Data</text>
</g>
</g>
</svg>
