<?xml version="1.0" encoding="UTF-8" standalone="no"?>
<!DOCTYPE svg PUBLIC "-//W3C//DTD SVG 1.1//EN"
 "http://www.w3.org/Graphics/SVG/1.1/DTD/svg11.dtd">
<!-- Generated by graphviz version 2.43.0 (0)
 -->
<!-- Title: G Pages: 1 -->
<svg width="1817pt" height="693pt"
 viewBox="0.00 0.00 1817.00 693.00" xmlns="http://www.w3.org/2000/svg" xmlns:xlink="http://www.w3.org/1999/xlink">
<g id="graph0" class="graph" transform="scale(1 1) rotate(0) translate(4 689)">
<title>G</title>
<polygon fill="transparent" stroke="transparent" points="-4,4 -4,-689 1813,-689 1813,4 -4,4"/>
<g id="clust1" class="cluster">
<title>cluster_d86e5b33&#45;edd8&#45;4fe1&#45;8896&#45;bf382d4433b9</title>
<polygon fill="transparent" stroke="blue" stroke-dasharray="5,2" points="8,-79 8,-677 248,-677 248,-79 8,-79"/>
</g>
<g id="clust2" class="cluster">
<title>cluster_3586fdc7&#45;9f99&#45;414e&#45;8e65&#45;4fe00c3f62b8</title>
<polygon fill="transparent" stroke="blue" stroke-dasharray="5,2" points="491,-79 491,-204 1000,-204 1000,-79 491,-79"/>
</g>
<g id="clust3" class="cluster">
<title>cluster_4ae3ed6c&#45;9aa1&#45;43dd&#45;8979&#45;d1c3a3b5938e</title>
<polygon fill="transparent" stroke="blue" stroke-dasharray="5,2" points="1271,-79 1271,-204 1801,-204 1801,-79 1271,-79"/>
</g>
<!-- 34a42209&#45;b2a2&#45;41ed&#45;90cd&#45;a75a1b6b81e4 -->
<g id="node1" class="node">
<title>34a42209&#45;b2a2&#45;41ed&#45;90cd&#45;a75a1b6b81e4</title>
<polygon fill="none" stroke="black" points="620,-123 499.37,-105 620,-87 740.63,-105 620,-123"/>
<text text-anchor="middle" x="620" y="-101.3" font-family="Times,serif" font-size="14.00">Consecutive True &lt; 3</text>
</g>
<!-- 52266ea0&#45;9c9b&#45;4fe3&#45;aeb2&#45;66cff64a25ba -->
<g id="node16" class="node">
<title>52266ea0&#45;9c9b&#45;4fe3&#45;aeb2&#45;66cff64a25ba</title>
<ellipse fill="none" stroke="black" cx="356" cy="-18" rx="69.71" ry="18"/>
<text text-anchor="middle" x="356" y="-14.3" font-family="Times,serif" font-size="14.00">VisionNormOffset</text>
</g>
<!-- 34a42209&#45;b2a2&#45;41ed&#45;90cd&#45;a75a1b6b81e4&#45;&gt;52266ea0&#45;9c9b&#45;4fe3&#45;aeb2&#45;66cff64a25ba -->
<g id="edge15" class="edge">
<title>34a42209&#45;b2a2&#45;41ed&#45;90cd&#45;a75a1b6b81e4&#45;&gt;52266ea0&#45;9c9b&#45;4fe3&#45;aeb2&#45;66cff64a25ba</title>
<path fill="none" stroke="black" d="M583.85,-92.36C538.21,-77.67 459.41,-52.29 407.49,-35.58"/>
<polygon fill="black" stroke="black" points="408.4,-32.19 397.8,-32.46 406.25,-38.86 408.4,-32.19"/>
<text text-anchor="middle" x="520" y="-57.8" font-family="Times,serif" font-size="14.00">True</text>
</g>
<!-- ff7b0629&#45;ebcf&#45;4ea1&#45;82d2&#45;d03149182dc7 -->
<g id="node17" class="node">
<title>ff7b0629&#45;ebcf&#45;4ea1&#45;82d2&#45;d03149182dc7</title>
<ellipse fill="none" stroke="black" cx="1136" cy="-18" rx="69.71" ry="18"/>
<text text-anchor="middle" x="1136" y="-14.3" font-family="Times,serif" font-size="14.00">VisionNormOffset</text>
</g>
<!-- 34a42209&#45;b2a2&#45;41ed&#45;90cd&#45;a75a1b6b81e4&#45;&gt;ff7b0629&#45;ebcf&#45;4ea1&#45;82d2&#45;d03149182dc7 -->
<g id="edge18" class="edge">
<title>34a42209&#45;b2a2&#45;41ed&#45;90cd&#45;a75a1b6b81e4&#45;&gt;ff7b0629&#45;ebcf&#45;4ea1&#45;82d2&#45;d03149182dc7</title>
<path fill="none" stroke="black" d="M674.25,-95.06C769.28,-79.41 965.57,-47.07 1068.95,-30.05"/>
<polygon fill="black" stroke="black" points="1069.66,-33.47 1078.96,-28.4 1068.53,-26.57 1069.66,-33.47"/>
<text text-anchor="middle" x="927" y="-57.8" font-family="Times,serif" font-size="14.00">False</text>
</g>
<!-- 8cc33ae5&#45;387f&#45;4ed2&#45;a0a0&#45;003735c75dee -->
<g id="node2" class="node">
<title>8cc33ae5&#45;387f&#45;4ed2&#45;a0a0&#45;003735c75dee</title>
<polygon fill="none" stroke="black" points="1410,-123 1278.59,-105 1410,-87 1541.41,-105 1410,-123"/>
<text text-anchor="middle" x="1410" y="-101.3" font-family="Times,serif" font-size="14.00">Consecutive False &lt; 10</text>
</g>
<!-- 8cc33ae5&#45;387f&#45;4ed2&#45;a0a0&#45;003735c75dee&#45;&gt;ff7b0629&#45;ebcf&#45;4ea1&#45;82d2&#45;d03149182dc7 -->
<g id="edge17" class="edge">
<title>8cc33ae5&#45;387f&#45;4ed2&#45;a0a0&#45;003735c75dee&#45;&gt;ff7b0629&#45;ebcf&#45;4ea1&#45;82d2&#45;d03149182dc7</title>
<path fill="none" stroke="black" d="M1371.9,-92.18C1324.14,-77.37 1242.05,-51.9 1188.4,-35.26"/>
<polygon fill="black" stroke="black" points="1189.32,-31.88 1178.73,-32.25 1187.24,-38.56 1189.32,-31.88"/>
<text text-anchor="middle" x="1306" y="-57.8" font-family="Times,serif" font-size="14.00">True</text>
</g>
<!-- 6fe4424d&#45;1ade&#45;46fb&#45;a460&#45;cfa793848d96 -->
<g id="node3" class="node">
<title>6fe4424d&#45;1ade&#45;46fb&#45;a460&#45;cfa793848d96</title>
<ellipse fill="none" stroke="black" cx="88" cy="-470" rx="33.6" ry="18"/>
<text text-anchor="middle" x="88" y="-466.3" font-family="Times,serif" font-size="14.00">Descend</text>
</g>
<!-- e2b907d4&#45;cdd8&#45;4094&#45;b14e&#45;3765baf63669 -->
<g id="node4" class="node">
<title>e2b907d4&#45;cdd8&#45;4094&#45;b14e&#45;3765baf63669</title>
<ellipse fill="none" stroke="black" cx="88" cy="-397" rx="47.1" ry="18"/>
<text text-anchor="middle" x="88" y="-393.3" font-family="Times,serif" font-size="14.00">DelayAction</text>
</g>
<!-- 6fe4424d&#45;1ade&#45;46fb&#45;a460&#45;cfa793848d96&#45;&gt;e2b907d4&#45;cdd8&#45;4094&#45;b14e&#45;3765baf63669 -->
<g id="edge1" class="edge">
<title>6fe4424d&#45;1ade&#45;46fb&#45;a460&#45;cfa793848d96&#45;&gt;e2b907d4&#45;cdd8&#45;4094&#45;b14e&#45;3765baf63669</title>
<path fill="none" stroke="black" d="M88,-451.81C88,-443.79 88,-434.05 88,-425.07"/>
<polygon fill="black" stroke="black" points="91.5,-425.03 88,-415.03 84.5,-425.03 91.5,-425.03"/>
</g>
<!-- 5654282f&#45;ee8c&#45;4e28&#45;a9e6&#45;48b2dfa21a4d -->
<g id="node5" class="node">
<title>5654282f&#45;ee8c&#45;4e28&#45;a9e6&#45;48b2dfa21a4d</title>
<ellipse fill="none" stroke="black" cx="91" cy="-324" rx="74.61" ry="18"/>
<text text-anchor="middle" x="91" y="-320.3" font-family="Times,serif" font-size="14.00">StraightMovement</text>
</g>
<!-- e2b907d4&#45;cdd8&#45;4094&#45;b14e&#45;3765baf63669&#45;&gt;5654282f&#45;ee8c&#45;4e28&#45;a9e6&#45;48b2dfa21a4d -->
<g id="edge4" class="edge">
<title>e2b907d4&#45;cdd8&#45;4094&#45;b14e&#45;3765baf63669&#45;&gt;5654282f&#45;ee8c&#45;4e28&#45;a9e6&#45;48b2dfa21a4d</title>
<path fill="none" stroke="black" d="M88.73,-378.81C89.07,-370.79 89.48,-361.05 89.86,-352.07"/>
<polygon fill="black" stroke="black" points="93.36,-352.17 90.28,-342.03 86.36,-351.87 93.36,-352.17"/>
</g>
<!-- d0918ed3&#45;ae8e&#45;43f4&#45;875c&#45;6cec8776560b -->
<g id="node6" class="node">
<title>d0918ed3&#45;ae8e&#45;43f4&#45;875c&#45;6cec8776560b</title>
<ellipse fill="none" stroke="black" cx="93" cy="-251" rx="47.1" ry="18"/>
<text text-anchor="middle" x="93" y="-247.3" font-family="Times,serif" font-size="14.00">DelayAction</text>
</g>
<!-- 5654282f&#45;ee8c&#45;4e28&#45;a9e6&#45;48b2dfa21a4d&#45;&gt;d0918ed3&#45;ae8e&#45;43f4&#45;875c&#45;6cec8776560b -->
<g id="edge2" class="edge">
<title>5654282f&#45;ee8c&#45;4e28&#45;a9e6&#45;48b2dfa21a4d&#45;&gt;d0918ed3&#45;ae8e&#45;43f4&#45;875c&#45;6cec8776560b</title>
<path fill="none" stroke="black" d="M91.48,-305.81C91.71,-297.79 91.98,-288.05 92.24,-279.07"/>
<polygon fill="black" stroke="black" points="95.74,-279.12 92.52,-269.03 88.74,-278.93 95.74,-279.12"/>
</g>
<!-- e2bab0f7&#45;9320&#45;42b0&#45;8218&#45;d3abc6667b29 -->
<g id="node7" class="node">
<title>e2bab0f7&#45;9320&#45;42b0&#45;8218&#45;d3abc6667b29</title>
<ellipse fill="none" stroke="black" cx="102" cy="-178" rx="59.9" ry="18"/>
<text text-anchor="middle" x="102" y="-174.3" font-family="Times,serif" font-size="14.00">ZeroMovement</text>
</g>
<!-- d0918ed3&#45;ae8e&#45;43f4&#45;875c&#45;6cec8776560b&#45;&gt;e2bab0f7&#45;9320&#45;42b0&#45;8218&#45;d3abc6667b29 -->
<g id="edge3" class="edge">
<title>d0918ed3&#45;ae8e&#45;43f4&#45;875c&#45;6cec8776560b&#45;&gt;e2bab0f7&#45;9320&#45;42b0&#45;8218&#45;d3abc6667b29</title>
<path fill="none" stroke="black" d="M95.18,-232.81C96.2,-224.79 97.43,-215.05 98.57,-206.07"/>
<polygon fill="black" stroke="black" points="102.06,-206.39 99.84,-196.03 95.11,-205.51 102.06,-206.39"/>
</g>
<!-- f789249e&#45;d605&#45;44e6&#45;a6ae&#45;607ebebd3c3c -->
<g id="node11" class="node">
<title>f789249e&#45;d605&#45;44e6&#45;a6ae&#45;607ebebd3c3c</title>
<polygon fill="none" stroke="black" stroke-dasharray="5,2" points="211.5,-123 126.5,-123 126.5,-87 211.5,-87 211.5,-123"/>
<text text-anchor="middle" x="169" y="-101.3" font-family="Times,serif" font-size="14.00" fill="blue">Converge</text>
</g>
<!-- e2bab0f7&#45;9320&#45;42b0&#45;8218&#45;d3abc6667b29&#45;&gt;f789249e&#45;d605&#45;44e6&#45;a6ae&#45;607ebebd3c3c -->
<g id="edge8" class="edge">
<title>e2bab0f7&#45;9320&#45;42b0&#45;8218&#45;d3abc6667b29&#45;&gt;f789249e&#45;d605&#45;44e6&#45;a6ae&#45;607ebebd3c3c</title>
<path fill="none" stroke="black" d="M117.54,-160.53C125.84,-151.74 136.22,-140.74 145.48,-130.92"/>
<polygon fill="black" stroke="black" points="148.29,-133.04 152.61,-123.37 143.2,-128.24 148.29,-133.04"/>
</g>
<!-- 829ece76&#45;504f&#45;49c0&#45;a070&#45;7cde0b78543e -->
<g id="node8" class="node">
<title>829ece76&#45;504f&#45;49c0&#45;a070&#45;7cde0b78543e</title>
<ellipse fill="none" stroke="black" cx="82" cy="-578" rx="34.8" ry="18"/>
<text text-anchor="middle" x="82" y="-574.3" font-family="Times,serif" font-size="14.00">WaitArm</text>
</g>
<!-- 829ece76&#45;504f&#45;49c0&#45;a070&#45;7cde0b78543e&#45;&gt;6fe4424d&#45;1ade&#45;46fb&#45;a460&#45;cfa793848d96 -->
<g id="edge5" class="edge">
<title>829ece76&#45;504f&#45;49c0&#45;a070&#45;7cde0b78543e&#45;&gt;6fe4424d&#45;1ade&#45;46fb&#45;a460&#45;cfa793848d96</title>
<path fill="none" stroke="black" d="M82.96,-559.97C83.9,-543.38 85.35,-517.88 86.45,-498.43"/>
<polygon fill="black" stroke="black" points="89.95,-498.52 87.02,-488.34 82.96,-498.13 89.95,-498.52"/>
</g>
<!-- 84afb6c9&#45;0715&#45;49ea&#45;9314&#45;4908907a79ec -->
<g id="node9" class="node">
<title>84afb6c9&#45;0715&#45;49ea&#45;9314&#45;4908907a79ec</title>
<polygon fill="none" stroke="black" stroke-dasharray="5,2" points="210,-669 112,-669 112,-633 210,-633 210,-669"/>
<text text-anchor="middle" x="161" y="-647.3" font-family="Times,serif" font-size="14.00" fill="blue">Concurrent</text>
</g>
<!-- 84afb6c9&#45;0715&#45;49ea&#45;9314&#45;4908907a79ec&#45;&gt;829ece76&#45;504f&#45;49c0&#45;a070&#45;7cde0b78543e -->
<g id="edge6" class="edge">
<title>84afb6c9&#45;0715&#45;49ea&#45;9314&#45;4908907a79ec&#45;&gt;829ece76&#45;504f&#45;49c0&#45;a070&#45;7cde0b78543e</title>
<path fill="none" stroke="black" d="M141.88,-632.81C131.12,-623.14 117.58,-610.98 106.1,-600.66"/>
<polygon fill="black" stroke="black" points="108.32,-597.95 98.54,-593.87 103.64,-603.15 108.32,-597.95"/>
</g>
<!-- b0c4490e&#45;ff28&#45;4687&#45;a44e&#45;0eb803594854 -->
<g id="node10" class="node">
<title>b0c4490e&#45;ff28&#45;4687&#45;a44e&#45;0eb803594854</title>
<ellipse fill="none" stroke="black" cx="189" cy="-524" rx="50.7" ry="18"/>
<text text-anchor="middle" x="189" y="-520.3" font-family="Times,serif" font-size="14.00">StartBno055</text>
</g>
<!-- 84afb6c9&#45;0715&#45;49ea&#45;9314&#45;4908907a79ec&#45;&gt;b0c4490e&#45;ff28&#45;4687&#45;a44e&#45;0eb803594854 -->
<g id="edge7" class="edge">
<title>84afb6c9&#45;0715&#45;49ea&#45;9314&#45;4908907a79ec&#45;&gt;b0c4490e&#45;ff28&#45;4687&#45;a44e&#45;0eb803594854</title>
<path fill="none" stroke="black" d="M164.83,-632.88C169.5,-612.05 177.43,-576.64 182.93,-552.09"/>
<polygon fill="black" stroke="black" points="186.35,-552.84 185.12,-542.31 179.52,-551.31 186.35,-552.84"/>
</g>
<!-- b0c4490e&#45;ff28&#45;4687&#45;a44e&#45;0eb803594854&#45;&gt;f789249e&#45;d605&#45;44e6&#45;a6ae&#45;607ebebd3c3c -->
<g id="edge9" class="edge">
<title>b0c4490e&#45;ff28&#45;4687&#45;a44e&#45;0eb803594854&#45;&gt;f789249e&#45;d605&#45;44e6&#45;a6ae&#45;607ebebd3c3c</title>
<path fill="none" stroke="black" d="M204.82,-506.8C219.47,-490.03 239,-462.36 239,-434 239,-434 239,-434 239,-177 239,-157.25 225.09,-141 209.67,-129.05"/>
<polygon fill="black" stroke="black" points="211.7,-126.2 201.54,-123.2 207.62,-131.88 211.7,-126.2"/>
</g>
<!-- f789249e&#45;d605&#45;44e6&#45;a6ae&#45;607ebebd3c3c&#45;&gt;52266ea0&#45;9c9b&#45;4fe3&#45;aeb2&#45;66cff64a25ba -->
<g id="edge19" class="edge">
<title>f789249e&#45;d605&#45;44e6&#45;a6ae&#45;607ebebd3c3c&#45;&gt;52266ea0&#45;9c9b&#45;4fe3&#45;aeb2&#45;66cff64a25ba</title>
<path fill="none" stroke="black" d="M206.84,-86.8C237.93,-72.67 281.91,-52.68 314.06,-38.06"/>
<polygon fill="black" stroke="black" points="315.56,-41.23 323.21,-33.9 312.66,-34.85 315.56,-41.23"/>
</g>
<!-- d0249c34&#45;29ed&#45;4dd6&#45;85f6&#45;37ff2b6f186e -->
<g id="node12" class="node">
<title>d0249c34&#45;29ed&#45;4dd6&#45;85f6&#45;37ff2b6f186e</title>
<polygon fill="none" stroke="black" stroke-dasharray="5,2" points="669,-196 571,-196 571,-160 669,-160 669,-196"/>
<text text-anchor="middle" x="620" y="-174.3" font-family="Times,serif" font-size="14.00" fill="blue">Concurrent</text>
</g>
<!-- d0249c34&#45;29ed&#45;4dd6&#45;85f6&#45;37ff2b6f186e&#45;&gt;34a42209&#45;b2a2&#45;41ed&#45;90cd&#45;a75a1b6b81e4 -->
<g id="edge11" class="edge">
<title>d0249c34&#45;29ed&#45;4dd6&#45;85f6&#45;37ff2b6f186e&#45;&gt;34a42209&#45;b2a2&#45;41ed&#45;90cd&#45;a75a1b6b81e4</title>
<path fill="none" stroke="black" d="M620,-159.81C620,-151.79 620,-142.05 620,-133.07"/>
<polygon fill="black" stroke="black" points="623.5,-133.03 620,-123.03 616.5,-133.03 623.5,-133.03"/>
</g>
<!-- 4db5706f&#45;cd0d&#45;4fb9&#45;ad6d&#45;590de4f8c2fa -->
<g id="node13" class="node">
<title>4db5706f&#45;cd0d&#45;4fb9&#45;ad6d&#45;590de4f8c2fa</title>
<ellipse fill="none" stroke="black" cx="902" cy="-105" rx="89.81" ry="18"/>
<text text-anchor="middle" x="902" y="-101.3" font-family="Times,serif" font-size="14.00">AdjustMovementAngle</text>
</g>
<!-- d0249c34&#45;29ed&#45;4dd6&#45;85f6&#45;37ff2b6f186e&#45;&gt;4db5706f&#45;cd0d&#45;4fb9&#45;ad6d&#45;590de4f8c2fa -->
<g id="edge10" class="edge">
<title>d0249c34&#45;29ed&#45;4dd6&#45;85f6&#45;37ff2b6f186e&#45;&gt;4db5706f&#45;cd0d&#45;4fb9&#45;ad6d&#45;590de4f8c2fa</title>
<path fill="none" stroke="black" d="M669.12,-164.63C716.02,-152.83 786.93,-134.97 838.18,-122.07"/>
<polygon fill="black" stroke="black" points="839.32,-125.39 848.16,-119.56 837.61,-118.6 839.32,-125.39"/>
</g>
<!-- f7242a21&#45;1776&#45;4a2f&#45;9013&#45;17a8740c7637 -->
<g id="node14" class="node">
<title>f7242a21&#45;1776&#45;4a2f&#45;9013&#45;17a8740c7637</title>
<polygon fill="none" stroke="black" stroke-dasharray="5,2" points="1459,-196 1361,-196 1361,-160 1459,-160 1459,-196"/>
<text text-anchor="middle" x="1410" y="-174.3" font-family="Times,serif" font-size="14.00" fill="blue">Concurrent</text>
</g>
<!-- f7242a21&#45;1776&#45;4a2f&#45;9013&#45;17a8740c7637&#45;&gt;8cc33ae5&#45;387f&#45;4ed2&#45;a0a0&#45;003735c75dee -->
<g id="edge13" class="edge">
<title>f7242a21&#45;1776&#45;4a2f&#45;9013&#45;17a8740c7637&#45;&gt;8cc33ae5&#45;387f&#45;4ed2&#45;a0a0&#45;003735c75dee</title>
<path fill="none" stroke="black" d="M1410,-159.81C1410,-151.79 1410,-142.05 1410,-133.07"/>
<polygon fill="black" stroke="black" points="1413.5,-133.03 1410,-123.03 1406.5,-133.03 1413.5,-133.03"/>
</g>
<!-- 5ef5de79&#45;f603&#45;4c0e&#45;93f8&#45;2981a8864b45 -->
<g id="node15" class="node">
<title>5ef5de79&#45;f603&#45;4c0e&#45;93f8&#45;2981a8864b45</title>
<ellipse fill="none" stroke="black" cx="1703" cy="-105" rx="89.81" ry="18"/>
<text text-anchor="middle" x="1703" y="-101.3" font-family="Times,serif" font-size="14.00">AdjustMovementAngle</text>
</g>
<!-- f7242a21&#45;1776&#45;4a2f&#45;9013&#45;17a8740c7637&#45;&gt;5ef5de79&#45;f603&#45;4c0e&#45;93f8&#45;2981a8864b45 -->
<g id="edge12" class="edge">
<title>f7242a21&#45;1776&#45;4a2f&#45;9013&#45;17a8740c7637&#45;&gt;5ef5de79&#45;f603&#45;4c0e&#45;93f8&#45;2981a8864b45</title>
<path fill="none" stroke="black" d="M1459.04,-165.12C1508.19,-153.21 1584.14,-134.8 1638.22,-121.7"/>
<polygon fill="black" stroke="black" points="1639.16,-125.07 1648.06,-119.31 1637.51,-118.27 1639.16,-125.07"/>
</g>
<!-- 52266ea0&#45;9c9b&#45;4fe3&#45;aeb2&#45;66cff64a25ba&#45;&gt;d0249c34&#45;29ed&#45;4dd6&#45;85f6&#45;37ff2b6f186e -->
<g id="edge14" class="edge">
<title>52266ea0&#45;9c9b&#45;4fe3&#45;aeb2&#45;66cff64a25ba&#45;&gt;d0249c34&#45;29ed&#45;4dd6&#45;85f6&#45;37ff2b6f186e</title>
<path fill="none" stroke="purple" d="M357,-36.12C359.31,-59.29 366.91,-100.32 392,-123 416.53,-145.18 501.87,-160.97 560.89,-169.54"/>
<polygon fill="purple" stroke="purple" points="560.46,-173.01 570.85,-170.95 561.44,-166.08 560.46,-173.01"/>
<text text-anchor="middle" x="427.5" y="-101.3" font-family="Times,serif" font-size="14.00" fill="purple">Pass Data</text>
</g>
<!-- ff7b0629&#45;ebcf&#45;4ea1&#45;82d2&#45;d03149182dc7&#45;&gt;f7242a21&#45;1776&#45;4a2f&#45;9013&#45;17a8740c7637 -->
<g id="edge16" class="edge">
<title>ff7b0629&#45;ebcf&#45;4ea1&#45;82d2&#45;d03149182dc7&#45;&gt;f7242a21&#45;1776&#45;4a2f&#45;9013&#45;17a8740c7637</title>
<path fill="none" stroke="purple" d="M1136.97,-36.15C1139.24,-59.36 1146.81,-100.44 1172,-123 1198.01,-146.29 1289.19,-161.98 1350.83,-170.19"/>
<polygon fill="purple" stroke="purple" points="1350.47,-173.68 1360.84,-171.5 1351.37,-166.74 1350.47,-173.68"/>
<text text-anchor="middle" x="1207.5" y="-101.3" font-family="Times,serif" font-size="14.00" fill="purple">Pass Data</text>
</g>
</g>
</svg>
