<?xml version="1.0" encoding="UTF-8" standalone="no"?>
<!DOCTYPE svg PUBLIC "-//W3C//DTD SVG 1.1//EN"
 "http://www.w3.org/Graphics/SVG/1.1/DTD/svg11.dtd">
<!-- Generated by graphviz version 2.43.0 (0)
 -->
<!-- Title: G Pages: 1 -->
<svg width="2232pt" height="1158pt"
 viewBox="0.00 0.00 2232.00 1158.00" xmlns="http://www.w3.org/2000/svg" xmlns:xlink="http://www.w3.org/1999/xlink">
<g id="graph0" class="graph" transform="scale(1 1) rotate(0) translate(4 1154)">
<title>G</title>
<polygon fill="transparent" stroke="transparent" points="-4,4 -4,-1154 2228,-1154 2228,4 -4,4"/>
<g id="clust1" class="cluster">
<title>cluster_143038e7&#45;c429&#45;42c8&#45;bc08&#45;9d2fad4cea87</title>
<polygon fill="transparent" stroke="blue" stroke-dasharray="5,2" points="8,-530 8,-1142 248,-1142 248,-530 8,-530"/>
</g>
<g id="clust2" class="cluster">
<title>cluster_5fc30a1a&#45;71d6&#45;4af6&#45;8981&#45;7243e1cb3449</title>
<polygon fill="transparent" stroke="darkgreen" stroke-dasharray="5,2" points="450,-690 450,-888 1232,-888 1232,-690 450,-690"/>
</g>
<g id="clust3" class="cluster">
<title>cluster_dfdc735b&#45;978d&#45;4719&#45;b24f&#45;9dba27c592a1</title>
<polygon fill="transparent" stroke="blue" stroke-dasharray="5,2" points="595,-8 595,-655 979,-655 979,-8 595,-8"/>
</g>
<g id="clust4" class="cluster">
<title>cluster_8cadcdd4&#45;bcd1&#45;4e20&#45;97f1&#45;7ebdce842825</title>
<polygon fill="transparent" stroke="darkgreen" stroke-dasharray="5,2" points="1434,-690 1434,-888 2216,-888 2216,-690 1434,-690"/>
</g>
<g id="clust5" class="cluster">
<title>cluster_e131a2c4&#45;0eb8&#45;4c28&#45;8cbf&#45;7664bfaae05b</title>
<polygon fill="transparent" stroke="blue" stroke-dasharray="5,2" points="1452,-8 1452,-655 1856,-655 1856,-8 1452,-8"/>
</g>
<!-- 133fe10f&#45;668f&#45;44e7&#45;8f75&#45;ff23cfcd28fd -->
<g id="node1" class="node">
<title>133fe10f&#45;668f&#45;44e7&#45;8f75&#45;ff23cfcd28fd</title>
<polygon fill="none" stroke="black" points="724,-574 603.37,-556 724,-538 844.63,-556 724,-574"/>
<text text-anchor="middle" x="724" y="-552.3" font-family="Times,serif" font-size="14.00">Consecutive True &lt; 3</text>
</g>
<!-- 97165ee6&#45;e34a&#45;4e2d&#45;9a13&#45;d5a4c264e44a -->
<g id="node42" class="node">
<title>97165ee6&#45;e34a&#45;4e2d&#45;9a13&#45;d5a4c264e44a</title>
<ellipse fill="none" stroke="black" cx="349" cy="-469" rx="46.5" ry="18"/>
<text text-anchor="middle" x="349" y="-465.3" font-family="Times,serif" font-size="14.00">VisionNorm</text>
</g>
<!-- 133fe10f&#45;668f&#45;44e7&#45;8f75&#45;ff23cfcd28fd&#45;&gt;97165ee6&#45;e34a&#45;4e2d&#45;9a13&#45;d5a4c264e44a -->
<g id="edge48" class="edge">
<title>133fe10f&#45;668f&#45;44e7&#45;8f75&#45;ff23cfcd28fd&#45;&gt;97165ee6&#45;e34a&#45;4e2d&#45;9a13&#45;d5a4c264e44a</title>
<path fill="none" stroke="black" d="M678.77,-544.75C607.88,-528.68 471.18,-497.7 398.03,-481.11"/>
<polygon fill="black" stroke="black" points="398.67,-477.67 388.14,-478.87 397.12,-484.5 398.67,-477.67"/>
<text text-anchor="middle" x="576" y="-508.8" font-family="Times,serif" font-size="14.00">True</text>
</g>
<!-- 0693eaab&#45;c5d7&#45;430d&#45;bf85&#45;ab4004e4da42 -->
<g id="node43" class="node">
<title>0693eaab&#45;c5d7&#45;430d&#45;bf85&#45;ab4004e4da42</title>
<ellipse fill="none" stroke="black" cx="1333" cy="-469" rx="46.5" ry="18"/>
<text text-anchor="middle" x="1333" y="-465.3" font-family="Times,serif" font-size="14.00">VisionNorm</text>
</g>
<!-- 133fe10f&#45;668f&#45;44e7&#45;8f75&#45;ff23cfcd28fd&#45;&gt;0693eaab&#45;c5d7&#45;430d&#45;bf85&#45;ab4004e4da42 -->
<g id="edge53" class="edge">
<title>133fe10f&#45;668f&#45;44e7&#45;8f75&#45;ff23cfcd28fd&#45;&gt;0693eaab&#45;c5d7&#45;430d&#45;bf85&#45;ab4004e4da42</title>
<path fill="none" stroke="black" d="M775.83,-545.66C806.36,-540.43 845.78,-534.15 881,-530 938.55,-523.22 953.44,-526.67 1011,-520 1106.95,-508.88 1218.15,-490.35 1281.57,-479.24"/>
<polygon fill="black" stroke="black" points="1282.47,-482.64 1291.71,-477.46 1281.26,-475.74 1282.47,-482.64"/>
<text text-anchor="middle" x="1136" y="-508.8" font-family="Times,serif" font-size="14.00">False</text>
</g>
<!-- 6f1b3d08&#45;7978&#45;4866&#45;8f82&#45;1de948c0b806 -->
<g id="node2" class="node">
<title>6f1b3d08&#45;7978&#45;4866&#45;8f82&#45;1de948c0b806</title>
<polygon fill="none" stroke="black" points="1591,-574 1459.59,-556 1591,-538 1722.41,-556 1591,-574"/>
<text text-anchor="middle" x="1591" y="-552.3" font-family="Times,serif" font-size="14.00">Consecutive False &lt; 10</text>
</g>
<!-- 6f1b3d08&#45;7978&#45;4866&#45;8f82&#45;1de948c0b806&#45;&gt;0693eaab&#45;c5d7&#45;430d&#45;bf85&#45;ab4004e4da42 -->
<g id="edge51" class="edge">
<title>6f1b3d08&#45;7978&#45;4866&#45;8f82&#45;1de948c0b806&#45;&gt;0693eaab&#45;c5d7&#45;430d&#45;bf85&#45;ab4004e4da42</title>
<path fill="none" stroke="black" d="M1554.31,-542.91C1507.62,-527.53 1427.04,-500.98 1377.07,-484.52"/>
<polygon fill="black" stroke="black" points="1378.1,-481.17 1367.5,-481.37 1375.91,-487.82 1378.1,-481.17"/>
<text text-anchor="middle" x="1494" y="-508.8" font-family="Times,serif" font-size="14.00">True</text>
</g>
<!-- 210f5e76&#45;f8c7&#45;42e6&#45;a38d&#45;31672c15f15c -->
<g id="node44" class="node">
<title>210f5e76&#45;f8c7&#45;42e6&#45;a38d&#45;31672c15f15c</title>
<ellipse fill="none" stroke="black" cx="1942" cy="-469" rx="59.9" ry="18"/>
<text text-anchor="middle" x="1942" y="-465.3" font-family="Times,serif" font-size="14.00">ZeroMovement</text>
</g>
<!-- 6f1b3d08&#45;7978&#45;4866&#45;8f82&#45;1de948c0b806&#45;&gt;210f5e76&#45;f8c7&#45;42e6&#45;a38d&#45;31672c15f15c -->
<g id="edge52" class="edge">
<title>6f1b3d08&#45;7978&#45;4866&#45;8f82&#45;1de948c0b806&#45;&gt;210f5e76&#45;f8c7&#45;42e6&#45;a38d&#45;31672c15f15c</title>
<path fill="none" stroke="black" d="M1647.7,-545.7C1679.98,-540.61 1721.18,-534.46 1758,-530 1805.86,-524.21 1820.51,-535.94 1866,-520 1883.65,-513.81 1901.23,-502.65 1915.04,-492.44"/>
<polygon fill="black" stroke="black" points="1917.3,-495.12 1923.11,-486.26 1913.04,-489.56 1917.3,-495.12"/>
<text text-anchor="middle" x="1914" y="-508.8" font-family="Times,serif" font-size="14.00">False</text>
</g>
<!-- d6f226a5&#45;4a45&#45;44b2&#45;9c7c&#45;a6497bb364e9 -->
<g id="node3" class="node">
<title>d6f226a5&#45;4a45&#45;44b2&#45;9c7c&#45;a6497bb364e9</title>
<ellipse fill="none" stroke="black" cx="88" cy="-935" rx="33.6" ry="18"/>
<text text-anchor="middle" x="88" y="-931.3" font-family="Times,serif" font-size="14.00">Descend</text>
</g>
<!-- 62f12c77&#45;4f48&#45;4577&#45;8532&#45;ac739740dedf -->
<g id="node4" class="node">
<title>62f12c77&#45;4f48&#45;4577&#45;8532&#45;ac739740dedf</title>
<ellipse fill="none" stroke="black" cx="88" cy="-862" rx="47.1" ry="18"/>
<text text-anchor="middle" x="88" y="-858.3" font-family="Times,serif" font-size="14.00">DelayAction</text>
</g>
<!-- d6f226a5&#45;4a45&#45;44b2&#45;9c7c&#45;a6497bb364e9&#45;&gt;62f12c77&#45;4f48&#45;4577&#45;8532&#45;ac739740dedf -->
<g id="edge1" class="edge">
<title>d6f226a5&#45;4a45&#45;44b2&#45;9c7c&#45;a6497bb364e9&#45;&gt;62f12c77&#45;4f48&#45;4577&#45;8532&#45;ac739740dedf</title>
<path fill="none" stroke="black" d="M88,-916.81C88,-908.79 88,-899.05 88,-890.07"/>
<polygon fill="black" stroke="black" points="91.5,-890.03 88,-880.03 84.5,-890.03 91.5,-890.03"/>
</g>
<!-- 64f135c2&#45;3a41&#45;48a3&#45;84c6&#45;8040613c35c4 -->
<g id="node5" class="node">
<title>64f135c2&#45;3a41&#45;48a3&#45;84c6&#45;8040613c35c4</title>
<ellipse fill="none" stroke="black" cx="91" cy="-789" rx="74.61" ry="18"/>
<text text-anchor="middle" x="91" y="-785.3" font-family="Times,serif" font-size="14.00">StraightMovement</text>
</g>
<!-- 62f12c77&#45;4f48&#45;4577&#45;8532&#45;ac739740dedf&#45;&gt;64f135c2&#45;3a41&#45;48a3&#45;84c6&#45;8040613c35c4 -->
<g id="edge4" class="edge">
<title>62f12c77&#45;4f48&#45;4577&#45;8532&#45;ac739740dedf&#45;&gt;64f135c2&#45;3a41&#45;48a3&#45;84c6&#45;8040613c35c4</title>
<path fill="none" stroke="black" d="M88.73,-843.81C89.07,-835.79 89.48,-826.05 89.86,-817.07"/>
<polygon fill="black" stroke="black" points="93.36,-817.17 90.28,-807.03 86.36,-816.87 93.36,-817.17"/>
</g>
<!-- 19c115f8&#45;2b13&#45;4d99&#45;8d5f&#45;9714b4ff3023 -->
<g id="node6" class="node">
<title>19c115f8&#45;2b13&#45;4d99&#45;8d5f&#45;9714b4ff3023</title>
<ellipse fill="none" stroke="black" cx="99" cy="-716" rx="47.1" ry="18"/>
<text text-anchor="middle" x="99" y="-712.3" font-family="Times,serif" font-size="14.00">DelayAction</text>
</g>
<!-- 64f135c2&#45;3a41&#45;48a3&#45;84c6&#45;8040613c35c4&#45;&gt;19c115f8&#45;2b13&#45;4d99&#45;8d5f&#45;9714b4ff3023 -->
<g id="edge2" class="edge">
<title>64f135c2&#45;3a41&#45;48a3&#45;84c6&#45;8040613c35c4&#45;&gt;19c115f8&#45;2b13&#45;4d99&#45;8d5f&#45;9714b4ff3023</title>
<path fill="none" stroke="black" d="M92.94,-770.81C93.84,-762.79 94.94,-753.05 95.95,-744.07"/>
<polygon fill="black" stroke="black" points="99.44,-744.36 97.08,-734.03 92.48,-743.57 99.44,-744.36"/>
</g>
<!-- aa7da2b0&#45;6dcc&#45;4b42&#45;b6dc&#45;dc31574ed29e -->
<g id="node7" class="node">
<title>aa7da2b0&#45;6dcc&#45;4b42&#45;b6dc&#45;dc31574ed29e</title>
<ellipse fill="none" stroke="black" cx="104" cy="-629" rx="59.9" ry="18"/>
<text text-anchor="middle" x="104" y="-625.3" font-family="Times,serif" font-size="14.00">ZeroMovement</text>
</g>
<!-- 19c115f8&#45;2b13&#45;4d99&#45;8d5f&#45;9714b4ff3023&#45;&gt;aa7da2b0&#45;6dcc&#45;4b42&#45;b6dc&#45;dc31574ed29e -->
<g id="edge3" class="edge">
<title>19c115f8&#45;2b13&#45;4d99&#45;8d5f&#45;9714b4ff3023&#45;&gt;aa7da2b0&#45;6dcc&#45;4b42&#45;b6dc&#45;dc31574ed29e</title>
<path fill="none" stroke="black" d="M100.01,-697.8C100.7,-686.16 101.61,-670.55 102.4,-657.24"/>
<polygon fill="black" stroke="black" points="105.9,-657.36 102.99,-647.18 98.91,-656.95 105.9,-657.36"/>
</g>
<!-- 9e0f840f&#45;b32f&#45;4001&#45;8ae7&#45;5c79cb564738 -->
<g id="node11" class="node">
<title>9e0f840f&#45;b32f&#45;4001&#45;8ae7&#45;5c79cb564738</title>
<polygon fill="none" stroke="black" stroke-dasharray="5,2" points="239.5,-574 154.5,-574 154.5,-538 239.5,-538 239.5,-574"/>
<text text-anchor="middle" x="197" y="-552.3" font-family="Times,serif" font-size="14.00" fill="blue">Converge</text>
</g>
<!-- aa7da2b0&#45;6dcc&#45;4b42&#45;b6dc&#45;dc31574ed29e&#45;&gt;9e0f840f&#45;b32f&#45;4001&#45;8ae7&#45;5c79cb564738 -->
<g id="edge8" class="edge">
<title>aa7da2b0&#45;6dcc&#45;4b42&#45;b6dc&#45;dc31574ed29e&#45;&gt;9e0f840f&#45;b32f&#45;4001&#45;8ae7&#45;5c79cb564738</title>
<path fill="none" stroke="black" d="M125.1,-611.89C137.35,-602.54 152.99,-590.6 166.56,-580.24"/>
<polygon fill="black" stroke="black" points="168.86,-582.89 174.68,-574.04 164.61,-577.32 168.86,-582.89"/>
</g>
<!-- 2c35f62b&#45;7077&#45;4ba0&#45;9832&#45;98bf72fa42d6 -->
<g id="node8" class="node">
<title>2c35f62b&#45;7077&#45;4ba0&#45;9832&#45;98bf72fa42d6</title>
<ellipse fill="none" stroke="black" cx="82" cy="-1043" rx="34.8" ry="18"/>
<text text-anchor="middle" x="82" y="-1039.3" font-family="Times,serif" font-size="14.00">WaitArm</text>
</g>
<!-- 2c35f62b&#45;7077&#45;4ba0&#45;9832&#45;98bf72fa42d6&#45;&gt;d6f226a5&#45;4a45&#45;44b2&#45;9c7c&#45;a6497bb364e9 -->
<g id="edge5" class="edge">
<title>2c35f62b&#45;7077&#45;4ba0&#45;9832&#45;98bf72fa42d6&#45;&gt;d6f226a5&#45;4a45&#45;44b2&#45;9c7c&#45;a6497bb364e9</title>
<path fill="none" stroke="black" d="M82.96,-1024.97C83.9,-1008.38 85.35,-982.88 86.45,-963.43"/>
<polygon fill="black" stroke="black" points="89.95,-963.52 87.02,-953.34 82.96,-963.13 89.95,-963.52"/>
</g>
<!-- 943ef7ca&#45;2f6a&#45;4510&#45;901e&#45;b6f085eb4d39 -->
<g id="node9" class="node">
<title>943ef7ca&#45;2f6a&#45;4510&#45;901e&#45;b6f085eb4d39</title>
<polygon fill="none" stroke="black" stroke-dasharray="5,2" points="210,-1134 112,-1134 112,-1098 210,-1098 210,-1134"/>
<text text-anchor="middle" x="161" y="-1112.3" font-family="Times,serif" font-size="14.00" fill="blue">Concurrent</text>
</g>
<!-- 943ef7ca&#45;2f6a&#45;4510&#45;901e&#45;b6f085eb4d39&#45;&gt;2c35f62b&#45;7077&#45;4ba0&#45;9832&#45;98bf72fa42d6 -->
<g id="edge6" class="edge">
<title>943ef7ca&#45;2f6a&#45;4510&#45;901e&#45;b6f085eb4d39&#45;&gt;2c35f62b&#45;7077&#45;4ba0&#45;9832&#45;98bf72fa42d6</title>
<path fill="none" stroke="black" d="M141.88,-1097.81C131.12,-1088.14 117.58,-1075.98 106.1,-1065.66"/>
<polygon fill="black" stroke="black" points="108.32,-1062.95 98.54,-1058.87 103.64,-1068.15 108.32,-1062.95"/>
</g>
<!-- 0cdc1722&#45;a01a&#45;4574&#45;9b56&#45;8b7db8d6d9a4 -->
<g id="node10" class="node">
<title>0cdc1722&#45;a01a&#45;4574&#45;9b56&#45;8b7db8d6d9a4</title>
<ellipse fill="none" stroke="black" cx="189" cy="-989" rx="50.7" ry="18"/>
<text text-anchor="middle" x="189" y="-985.3" font-family="Times,serif" font-size="14.00">StartBno055</text>
</g>
<!-- 943ef7ca&#45;2f6a&#45;4510&#45;901e&#45;b6f085eb4d39&#45;&gt;0cdc1722&#45;a01a&#45;4574&#45;9b56&#45;8b7db8d6d9a4 -->
<g id="edge7" class="edge">
<title>943ef7ca&#45;2f6a&#45;4510&#45;901e&#45;b6f085eb4d39&#45;&gt;0cdc1722&#45;a01a&#45;4574&#45;9b56&#45;8b7db8d6d9a4</title>
<path fill="none" stroke="black" d="M164.83,-1097.88C169.5,-1077.05 177.43,-1041.64 182.93,-1017.09"/>
<polygon fill="black" stroke="black" points="186.35,-1017.84 185.12,-1007.31 179.52,-1016.31 186.35,-1017.84"/>
</g>
<!-- 0cdc1722&#45;a01a&#45;4574&#45;9b56&#45;8b7db8d6d9a4&#45;&gt;9e0f840f&#45;b32f&#45;4001&#45;8ae7&#45;5c79cb564738 -->
<g id="edge9" class="edge">
<title>0cdc1722&#45;a01a&#45;4574&#45;9b56&#45;8b7db8d6d9a4&#45;&gt;9e0f840f&#45;b32f&#45;4001&#45;8ae7&#45;5c79cb564738</title>
<path fill="none" stroke="black" d="M204.82,-971.8C219.47,-955.03 239,-927.36 239,-899 239,-899 239,-899 239,-628 239,-611.08 230.06,-594.66 220.43,-581.88"/>
<polygon fill="black" stroke="black" points="223.09,-579.61 214.08,-574.04 217.65,-584.01 223.09,-579.61"/>
</g>
<!-- 9e0f840f&#45;b32f&#45;4001&#45;8ae7&#45;5c79cb564738&#45;&gt;97165ee6&#45;e34a&#45;4e2d&#45;9a13&#45;d5a4c264e44a -->
<g id="edge54" class="edge">
<title>9e0f840f&#45;b32f&#45;4001&#45;8ae7&#45;5c79cb564738&#45;&gt;97165ee6&#45;e34a&#45;4e2d&#45;9a13&#45;d5a4c264e44a</title>
<path fill="none" stroke="black" d="M227.76,-537.8C252.9,-523.74 288.43,-503.87 314.53,-489.28"/>
<polygon fill="black" stroke="black" points="316.31,-492.29 323.33,-484.35 312.9,-486.18 316.31,-492.29"/>
</g>
<!-- d74650e3&#45;f21d&#45;4f9c&#45;a498&#45;ec5de4f49ee5 -->
<g id="node12" class="node">
<title>d74650e3&#45;f21d&#45;4f9c&#45;a498&#45;ec5de4f49ee5</title>
<polygon fill="none" stroke="black" stroke-dasharray="5,2" points="841,-880 659,-880 659,-844 841,-844 841,-880"/>
<text text-anchor="middle" x="750" y="-858.3" font-family="Times,serif" font-size="14.00" fill="darkgreen">FirstValid (Concurrent)</text>
</g>
<!-- 113d3bd5&#45;0f31&#45;4ca4&#45;90b8&#45;9d6321f5b72c -->
<g id="node13" class="node">
<title>113d3bd5&#45;0f31&#45;4ca4&#45;90b8&#45;9d6321f5b72c</title>
<ellipse fill="none" stroke="black" cx="1180" cy="-789" rx="44" ry="18"/>
<text text-anchor="middle" x="1180" y="-785.3" font-family="Times,serif" font-size="14.00">Detect Red</text>
</g>
<!-- d74650e3&#45;f21d&#45;4f9c&#45;a498&#45;ec5de4f49ee5&#45;&gt;113d3bd5&#45;0f31&#45;4ca4&#45;90b8&#45;9d6321f5b72c -->
<g id="edge10" class="edge">
<title>d74650e3&#45;f21d&#45;4f9c&#45;a498&#45;ec5de4f49ee5&#45;&gt;113d3bd5&#45;0f31&#45;4ca4&#45;90b8&#45;9d6321f5b72c</title>
<path fill="none" stroke="black" d="M841.25,-848.36C912.02,-838.21 1012.46,-823.04 1100,-807 1110.48,-805.08 1121.69,-802.83 1132.29,-800.6"/>
<polygon fill="black" stroke="black" points="1133.19,-803.99 1142.24,-798.48 1131.73,-797.14 1133.19,-803.99"/>
</g>
<!-- fa0acaf5&#45;cdd4&#45;4949&#45;bc90&#45;d73717f4c182 -->
<g id="node14" class="node">
<title>fa0acaf5&#45;cdd4&#45;4949&#45;bc90&#45;d73717f4c182</title>
<ellipse fill="none" stroke="black" cx="503" cy="-789" rx="45.2" ry="18"/>
<text text-anchor="middle" x="503" y="-785.3" font-family="Times,serif" font-size="14.00">Detect Pole</text>
</g>
<!-- d74650e3&#45;f21d&#45;4f9c&#45;a498&#45;ec5de4f49ee5&#45;&gt;fa0acaf5&#45;cdd4&#45;4949&#45;bc90&#45;d73717f4c182 -->
<g id="edge11" class="edge">
<title>d74650e3&#45;f21d&#45;4f9c&#45;a498&#45;ec5de4f49ee5&#45;&gt;fa0acaf5&#45;cdd4&#45;4949&#45;bc90&#45;d73717f4c182</title>
<path fill="none" stroke="black" d="M690.84,-843.99C647.02,-831.4 588.22,-814.5 548.16,-802.98"/>
<polygon fill="black" stroke="black" points="548.97,-799.57 538.4,-800.17 547.04,-806.3 548.97,-799.57"/>
</g>
<!-- fcde872d&#45;db7a&#45;40bd&#45;a00c&#45;985f2703265d -->
<g id="node15" class="node">
<title>fcde872d&#45;db7a&#45;40bd&#45;a00c&#45;985f2703265d</title>
<ellipse fill="none" stroke="black" cx="667" cy="-789" rx="46.5" ry="18"/>
<text text-anchor="middle" x="667" y="-785.3" font-family="Times,serif" font-size="14.00">Detect Blue</text>
</g>
<!-- d74650e3&#45;f21d&#45;4f9c&#45;a498&#45;ec5de4f49ee5&#45;&gt;fcde872d&#45;db7a&#45;40bd&#45;a00c&#45;985f2703265d -->
<g id="edge12" class="edge">
<title>d74650e3&#45;f21d&#45;4f9c&#45;a498&#45;ec5de4f49ee5&#45;&gt;fcde872d&#45;db7a&#45;40bd&#45;a00c&#45;985f2703265d</title>
<path fill="none" stroke="black" d="M729.91,-843.81C718.92,-834.41 705.16,-822.65 693.32,-812.52"/>
<polygon fill="black" stroke="black" points="695.36,-809.66 685.49,-805.82 690.81,-814.98 695.36,-809.66"/>
</g>
<!-- 33c2a861&#45;3e41&#45;4602&#45;9a4c&#45;04677fb26bd7 -->
<g id="node16" class="node">
<title>33c2a861&#45;3e41&#45;4602&#45;9a4c&#45;04677fb26bd7</title>
<ellipse fill="none" stroke="black" cx="833" cy="-789" rx="47.1" ry="18"/>
<text text-anchor="middle" x="833" y="-785.3" font-family="Times,serif" font-size="14.00">Detect Gate</text>
</g>
<!-- d74650e3&#45;f21d&#45;4f9c&#45;a498&#45;ec5de4f49ee5&#45;&gt;33c2a861&#45;3e41&#45;4602&#45;9a4c&#45;04677fb26bd7 -->
<g id="edge13" class="edge">
<title>d74650e3&#45;f21d&#45;4f9c&#45;a498&#45;ec5de4f49ee5&#45;&gt;33c2a861&#45;3e41&#45;4602&#45;9a4c&#45;04677fb26bd7</title>
<path fill="none" stroke="black" d="M770.09,-843.81C781.08,-834.41 794.84,-822.65 806.68,-812.52"/>
<polygon fill="black" stroke="black" points="809.19,-814.98 814.51,-805.82 804.64,-809.66 809.19,-814.98"/>
</g>
<!-- 760d351d&#45;9a98&#45;4d1d&#45;afda&#45;6d8564b66980 -->
<g id="node17" class="node">
<title>760d351d&#45;9a98&#45;4d1d&#45;afda&#45;6d8564b66980</title>
<ellipse fill="none" stroke="black" cx="1008" cy="-789" rx="56.2" ry="18"/>
<text text-anchor="middle" x="1008" y="-785.3" font-family="Times,serif" font-size="14.00">Detect Middle</text>
</g>
<!-- d74650e3&#45;f21d&#45;4f9c&#45;a498&#45;ec5de4f49ee5&#45;&gt;760d351d&#45;9a98&#45;4d1d&#45;afda&#45;6d8564b66980 -->
<g id="edge14" class="edge">
<title>d74650e3&#45;f21d&#45;4f9c&#45;a498&#45;ec5de4f49ee5&#45;&gt;760d351d&#45;9a98&#45;4d1d&#45;afda&#45;6d8564b66980</title>
<path fill="none" stroke="black" d="M811.8,-843.99C856.24,-831.76 915.44,-815.47 957.15,-803.99"/>
<polygon fill="black" stroke="black" points="958.11,-807.36 966.83,-801.33 956.26,-800.61 958.11,-807.36"/>
</g>
<!-- 120bb397&#45;f3b2&#45;4f6a&#45;9450&#45;1854e75b6ae9 -->
<g id="node18" class="node">
<title>120bb397&#45;f3b2&#45;4f6a&#45;9450&#45;1854e75b6ae9</title>
<polygon fill="none" stroke="black" stroke-dasharray="5,2" points="875.5,-734 790.5,-734 790.5,-698 875.5,-698 875.5,-734"/>
<text text-anchor="middle" x="833" y="-712.3" font-family="Times,serif" font-size="14.00" fill="darkgreen">Converge</text>
</g>
<!-- 113d3bd5&#45;0f31&#45;4ca4&#45;90b8&#45;9d6321f5b72c&#45;&gt;120bb397&#45;f3b2&#45;4f6a&#45;9450&#45;1854e75b6ae9 -->
<g id="edge15" class="edge">
<title>113d3bd5&#45;0f31&#45;4ca4&#45;90b8&#45;9d6321f5b72c&#45;&gt;120bb397&#45;f3b2&#45;4f6a&#45;9450&#45;1854e75b6ae9</title>
<path fill="none" stroke="black" d="M1141.77,-779.8C1128.54,-776.98 1113.63,-773.83 1100,-771 1025.61,-755.57 939.44,-738.24 885.57,-727.47"/>
<polygon fill="black" stroke="black" points="886.06,-724 875.57,-725.48 884.69,-730.87 886.06,-724"/>
</g>
<!-- fa0acaf5&#45;cdd4&#45;4949&#45;bc90&#45;d73717f4c182&#45;&gt;120bb397&#45;f3b2&#45;4f6a&#45;9450&#45;1854e75b6ae9 -->
<g id="edge16" class="edge">
<title>fa0acaf5&#45;cdd4&#45;4949&#45;bc90&#45;d73717f4c182&#45;&gt;120bb397&#45;f3b2&#45;4f6a&#45;9450&#45;1854e75b6ae9</title>
<path fill="none" stroke="black" d="M541.83,-779.65C601.06,-766.9 714.1,-742.58 780.57,-728.28"/>
<polygon fill="black" stroke="black" points="781.38,-731.69 790.42,-726.16 779.91,-724.84 781.38,-731.69"/>
</g>
<!-- fcde872d&#45;db7a&#45;40bd&#45;a00c&#45;985f2703265d&#45;&gt;120bb397&#45;f3b2&#45;4f6a&#45;9450&#45;1854e75b6ae9 -->
<g id="edge17" class="edge">
<title>fcde872d&#45;db7a&#45;40bd&#45;a00c&#45;985f2703265d&#45;&gt;120bb397&#45;f3b2&#45;4f6a&#45;9450&#45;1854e75b6ae9</title>
<path fill="none" stroke="black" d="M697.06,-775.14C721.24,-764.8 755.7,-750.06 783.87,-738.01"/>
<polygon fill="black" stroke="black" points="785.34,-741.19 793.16,-734.04 782.59,-734.75 785.34,-741.19"/>
</g>
<!-- 33c2a861&#45;3e41&#45;4602&#45;9a4c&#45;04677fb26bd7&#45;&gt;120bb397&#45;f3b2&#45;4f6a&#45;9450&#45;1854e75b6ae9 -->
<g id="edge18" class="edge">
<title>33c2a861&#45;3e41&#45;4602&#45;9a4c&#45;04677fb26bd7&#45;&gt;120bb397&#45;f3b2&#45;4f6a&#45;9450&#45;1854e75b6ae9</title>
<path fill="none" stroke="black" d="M833,-770.81C833,-762.79 833,-753.05 833,-744.07"/>
<polygon fill="black" stroke="black" points="836.5,-744.03 833,-734.03 829.5,-744.03 836.5,-744.03"/>
</g>
<!-- 760d351d&#45;9a98&#45;4d1d&#45;afda&#45;6d8564b66980&#45;&gt;120bb397&#45;f3b2&#45;4f6a&#45;9450&#45;1854e75b6ae9 -->
<g id="edge19" class="edge">
<title>760d351d&#45;9a98&#45;4d1d&#45;afda&#45;6d8564b66980&#45;&gt;120bb397&#45;f3b2&#45;4f6a&#45;9450&#45;1854e75b6ae9</title>
<path fill="none" stroke="black" d="M974.67,-774.48C949.28,-764.18 913.85,-749.8 884.78,-738.01"/>
<polygon fill="black" stroke="black" points="885.77,-734.63 875.18,-734.11 883.13,-741.12 885.77,-734.63"/>
</g>
<!-- 23ea38c6&#45;4260&#45;48f4&#45;a304&#45;163c7ff8248b -->
<g id="node26" class="node">
<title>23ea38c6&#45;4260&#45;48f4&#45;a304&#45;163c7ff8248b</title>
<polygon fill="none" stroke="black" stroke-dasharray="5,2" points="882,-647 784,-647 784,-611 882,-611 882,-647"/>
<text text-anchor="middle" x="833" y="-625.3" font-family="Times,serif" font-size="14.00" fill="blue">Concurrent</text>
</g>
<!-- 120bb397&#45;f3b2&#45;4f6a&#45;9450&#45;1854e75b6ae9&#45;&gt;23ea38c6&#45;4260&#45;48f4&#45;a304&#45;163c7ff8248b -->
<g id="edge46" class="edge">
<title>120bb397&#45;f3b2&#45;4f6a&#45;9450&#45;1854e75b6ae9&#45;&gt;23ea38c6&#45;4260&#45;48f4&#45;a304&#45;163c7ff8248b</title>
<path fill="none" stroke="purple" d="M833,-697.8C833,-686.16 833,-670.55 833,-657.24"/>
<polygon fill="purple" stroke="purple" points="836.5,-657.18 833,-647.18 829.5,-657.18 836.5,-657.18"/>
<text text-anchor="middle" x="868.5" y="-668.8" font-family="Times,serif" font-size="14.00" fill="purple">Pass Data</text>
</g>
<!-- a2930af8&#45;47d9&#45;495c&#45;9604&#45;4f6894c25dd5 -->
<g id="node19" class="node">
<title>a2930af8&#45;47d9&#45;495c&#45;9604&#45;4f6894c25dd5</title>
<ellipse fill="none" stroke="black" cx="891" cy="-121" rx="27" ry="18"/>
<text text-anchor="middle" x="891" y="-117.3" font-family="Times,serif" font-size="14.00">StripY</text>
</g>
<!-- d62fac05&#45;5914&#45;4e62&#45;bffb&#45;6735919e8e0e -->
<g id="node20" class="node">
<title>d62fac05&#45;5914&#45;4e62&#45;bffb&#45;6735919e8e0e</title>
<ellipse fill="none" stroke="black" cx="891" cy="-34" rx="80.11" ry="18"/>
<text text-anchor="middle" x="891" y="-30.3" font-family="Times,serif" font-size="14.00">Stability2Movement</text>
</g>
<!-- a2930af8&#45;47d9&#45;495c&#45;9604&#45;4f6894c25dd5&#45;&gt;d62fac05&#45;5914&#45;4e62&#45;bffb&#45;6735919e8e0e -->
<g id="edge20" class="edge">
<title>a2930af8&#45;47d9&#45;495c&#45;9604&#45;4f6894c25dd5&#45;&gt;d62fac05&#45;5914&#45;4e62&#45;bffb&#45;6735919e8e0e</title>
<path fill="none" stroke="purple" d="M891,-102.8C891,-91.16 891,-75.55 891,-62.24"/>
<polygon fill="purple" stroke="purple" points="894.5,-62.18 891,-52.18 887.5,-62.18 894.5,-62.18"/>
<text text-anchor="middle" x="926.5" y="-73.8" font-family="Times,serif" font-size="14.00" fill="purple">Pass Data</text>
</g>
<!-- 13103e9e&#45;3261&#45;49c8&#45;b883&#45;8efeb10cec1e -->
<g id="node21" class="node">
<title>13103e9e&#45;3261&#45;49c8&#45;b883&#45;8efeb10cec1e</title>
<ellipse fill="none" stroke="black" cx="891" cy="-208" rx="67.81" ry="18"/>
<text text-anchor="middle" x="891" y="-204.3" font-family="Times,serif" font-size="14.00">LinearYawFromX</text>
</g>
<!-- 13103e9e&#45;3261&#45;49c8&#45;b883&#45;8efeb10cec1e&#45;&gt;a2930af8&#45;47d9&#45;495c&#45;9604&#45;4f6894c25dd5 -->
<g id="edge21" class="edge">
<title>13103e9e&#45;3261&#45;49c8&#45;b883&#45;8efeb10cec1e&#45;&gt;a2930af8&#45;47d9&#45;495c&#45;9604&#45;4f6894c25dd5</title>
<path fill="none" stroke="purple" d="M891,-189.8C891,-178.16 891,-162.55 891,-149.24"/>
<polygon fill="purple" stroke="purple" points="894.5,-149.18 891,-139.18 887.5,-149.18 894.5,-149.18"/>
<text text-anchor="middle" x="926.5" y="-160.8" font-family="Times,serif" font-size="14.00" fill="purple">Pass Data</text>
</g>
<!-- 48723141&#45;283c&#45;43fd&#45;9262&#45;ecdf2a7fae99 -->
<g id="node22" class="node">
<title>48723141&#45;283c&#45;43fd&#45;9262&#45;ecdf2a7fae99</title>
<ellipse fill="none" stroke="black" cx="892" cy="-295" rx="51.3" ry="18"/>
<text text-anchor="middle" x="892" y="-291.3" font-family="Times,serif" font-size="14.00">OffsetToPose</text>
</g>
<!-- 48723141&#45;283c&#45;43fd&#45;9262&#45;ecdf2a7fae99&#45;&gt;13103e9e&#45;3261&#45;49c8&#45;b883&#45;8efeb10cec1e -->
<g id="edge22" class="edge">
<title>48723141&#45;283c&#45;43fd&#45;9262&#45;ecdf2a7fae99&#45;&gt;13103e9e&#45;3261&#45;49c8&#45;b883&#45;8efeb10cec1e</title>
<path fill="none" stroke="purple" d="M891.8,-276.8C891.66,-265.16 891.48,-249.55 891.32,-236.24"/>
<polygon fill="purple" stroke="purple" points="894.82,-236.13 891.2,-226.18 887.82,-236.22 894.82,-236.13"/>
<text text-anchor="middle" x="926.5" y="-247.8" font-family="Times,serif" font-size="14.00" fill="purple">Pass Data</text>
</g>
<!-- 4b5403a4&#45;2471&#45;4d96&#45;a317&#45;35660c4fa3ed -->
<g id="node23" class="node">
<title>4b5403a4&#45;2471&#45;4d96&#45;a317&#45;35660c4fa3ed</title>
<ellipse fill="none" stroke="black" cx="893" cy="-382" rx="32.4" ry="18"/>
<text text-anchor="middle" x="893" y="-378.3" font-family="Times,serif" font-size="14.00">Average</text>
</g>
<!-- 4b5403a4&#45;2471&#45;4d96&#45;a317&#45;35660c4fa3ed&#45;&gt;48723141&#45;283c&#45;43fd&#45;9262&#45;ecdf2a7fae99 -->
<g id="edge23" class="edge">
<title>4b5403a4&#45;2471&#45;4d96&#45;a317&#45;35660c4fa3ed&#45;&gt;48723141&#45;283c&#45;43fd&#45;9262&#45;ecdf2a7fae99</title>
<path fill="none" stroke="purple" d="M892.8,-363.8C892.66,-352.16 892.48,-336.55 892.32,-323.24"/>
<polygon fill="purple" stroke="purple" points="895.82,-323.13 892.2,-313.18 888.82,-323.22 895.82,-323.13"/>
<text text-anchor="middle" x="927.5" y="-334.8" font-family="Times,serif" font-size="14.00" fill="purple">Pass Data</text>
</g>
<!-- 80c54ee0&#45;24f4&#45;4633&#45;a7f7&#45;787353f46fb6 -->
<g id="node24" class="node">
<title>80c54ee0&#45;24f4&#45;4633&#45;a7f7&#45;787353f46fb6</title>
<ellipse fill="none" stroke="black" cx="895" cy="-469" rx="61.1" ry="18"/>
<text text-anchor="middle" x="895" y="-465.3" font-family="Times,serif" font-size="14.00">ExtractPosition</text>
</g>
<!-- 80c54ee0&#45;24f4&#45;4633&#45;a7f7&#45;787353f46fb6&#45;&gt;4b5403a4&#45;2471&#45;4d96&#45;a317&#45;35660c4fa3ed -->
<g id="edge24" class="edge">
<title>80c54ee0&#45;24f4&#45;4633&#45;a7f7&#45;787353f46fb6&#45;&gt;4b5403a4&#45;2471&#45;4d96&#45;a317&#45;35660c4fa3ed</title>
<path fill="none" stroke="purple" d="M894.6,-450.8C894.32,-439.16 893.95,-423.55 893.64,-410.24"/>
<polygon fill="purple" stroke="purple" points="897.14,-410.09 893.4,-400.18 890.14,-410.26 897.14,-410.09"/>
<text text-anchor="middle" x="929.5" y="-421.8" font-family="Times,serif" font-size="14.00" fill="purple">Pass Data</text>
</g>
<!-- c6817f14&#45;d3ce&#45;4bca&#45;9b8e&#45;fda8ec898b3a -->
<g id="node25" class="node">
<title>c6817f14&#45;d3ce&#45;4bca&#45;9b8e&#45;fda8ec898b3a</title>
<ellipse fill="none" stroke="black" cx="944" cy="-556" rx="27" ry="18"/>
<text text-anchor="middle" x="944" y="-552.3" font-family="Times,serif" font-size="14.00">ToVec</text>
</g>
<!-- c6817f14&#45;d3ce&#45;4bca&#45;9b8e&#45;fda8ec898b3a&#45;&gt;80c54ee0&#45;24f4&#45;4633&#45;a7f7&#45;787353f46fb6 -->
<g id="edge25" class="edge">
<title>c6817f14&#45;d3ce&#45;4bca&#45;9b8e&#45;fda8ec898b3a&#45;&gt;80c54ee0&#45;24f4&#45;4633&#45;a7f7&#45;787353f46fb6</title>
<path fill="none" stroke="purple" d="M934.78,-539.01C927.73,-526.78 917.87,-509.68 909.73,-495.56"/>
<polygon fill="purple" stroke="purple" points="912.7,-493.7 904.68,-486.79 906.64,-497.2 912.7,-493.7"/>
<text text-anchor="middle" x="957.5" y="-508.8" font-family="Times,serif" font-size="14.00" fill="purple">Pass Data</text>
</g>
<!-- 23ea38c6&#45;4260&#45;48f4&#45;a304&#45;163c7ff8248b&#45;&gt;133fe10f&#45;668f&#45;44e7&#45;8f75&#45;ff23cfcd28fd -->
<g id="edge27" class="edge">
<title>23ea38c6&#45;4260&#45;48f4&#45;a304&#45;163c7ff8248b&#45;&gt;133fe10f&#45;668f&#45;44e7&#45;8f75&#45;ff23cfcd28fd</title>
<path fill="none" stroke="black" d="M806.89,-610.99C791.06,-600.68 770.78,-587.47 754.25,-576.7"/>
<polygon fill="black" stroke="black" points="755.79,-573.53 745.5,-571.01 751.97,-579.4 755.79,-573.53"/>
</g>
<!-- 23ea38c6&#45;4260&#45;48f4&#45;a304&#45;163c7ff8248b&#45;&gt;c6817f14&#45;d3ce&#45;4bca&#45;9b8e&#45;fda8ec898b3a -->
<g id="edge26" class="edge">
<title>23ea38c6&#45;4260&#45;48f4&#45;a304&#45;163c7ff8248b&#45;&gt;c6817f14&#45;d3ce&#45;4bca&#45;9b8e&#45;fda8ec898b3a</title>
<path fill="none" stroke="black" d="M859.59,-610.99C876.85,-599.95 899.28,-585.6 916.68,-574.47"/>
<polygon fill="black" stroke="black" points="918.73,-577.32 925.27,-568.98 914.96,-571.42 918.73,-577.32"/>
</g>
<!-- d1258231&#45;eb86&#45;4ffc&#45;a1b5&#45;4cf0c94718a8 -->
<g id="node27" class="node">
<title>d1258231&#45;eb86&#45;4ffc&#45;a1b5&#45;4cf0c94718a8</title>
<polygon fill="none" stroke="black" stroke-dasharray="5,2" points="1825,-880 1643,-880 1643,-844 1825,-844 1825,-880"/>
<text text-anchor="middle" x="1734" y="-858.3" font-family="Times,serif" font-size="14.00" fill="darkgreen">FirstValid (Concurrent)</text>
</g>
<!-- 0fc52252&#45;2432&#45;408d&#45;91fd&#45;b8327fc45b9c -->
<g id="node28" class="node">
<title>0fc52252&#45;2432&#45;408d&#45;91fd&#45;b8327fc45b9c</title>
<ellipse fill="none" stroke="black" cx="2164" cy="-789" rx="44" ry="18"/>
<text text-anchor="middle" x="2164" y="-785.3" font-family="Times,serif" font-size="14.00">Detect Red</text>
</g>
<!-- d1258231&#45;eb86&#45;4ffc&#45;a1b5&#45;4cf0c94718a8&#45;&gt;0fc52252&#45;2432&#45;408d&#45;91fd&#45;b8327fc45b9c -->
<g id="edge28" class="edge">
<title>d1258231&#45;eb86&#45;4ffc&#45;a1b5&#45;4cf0c94718a8&#45;&gt;0fc52252&#45;2432&#45;408d&#45;91fd&#45;b8327fc45b9c</title>
<path fill="none" stroke="black" d="M1825.25,-848.36C1896.02,-838.21 1996.46,-823.04 2084,-807 2094.48,-805.08 2105.69,-802.83 2116.29,-800.6"/>
<polygon fill="black" stroke="black" points="2117.19,-803.99 2126.24,-798.48 2115.73,-797.14 2117.19,-803.99"/>
</g>
<!-- 8e1deda9&#45;00a6&#45;42ff&#45;a9b6&#45;d463a5d17bfd -->
<g id="node29" class="node">
<title>8e1deda9&#45;00a6&#45;42ff&#45;a9b6&#45;d463a5d17bfd</title>
<ellipse fill="none" stroke="black" cx="1487" cy="-789" rx="45.2" ry="18"/>
<text text-anchor="middle" x="1487" y="-785.3" font-family="Times,serif" font-size="14.00">Detect Pole</text>
</g>
<!-- d1258231&#45;eb86&#45;4ffc&#45;a1b5&#45;4cf0c94718a8&#45;&gt;8e1deda9&#45;00a6&#45;42ff&#45;a9b6&#45;d463a5d17bfd -->
<g id="edge29" class="edge">
<title>d1258231&#45;eb86&#45;4ffc&#45;a1b5&#45;4cf0c94718a8&#45;&gt;8e1deda9&#45;00a6&#45;42ff&#45;a9b6&#45;d463a5d17bfd</title>
<path fill="none" stroke="black" d="M1674.84,-843.99C1631.02,-831.4 1572.22,-814.5 1532.16,-802.98"/>
<polygon fill="black" stroke="black" points="1532.97,-799.57 1522.4,-800.17 1531.04,-806.3 1532.97,-799.57"/>
</g>
<!-- 95f26c8d&#45;2e7f&#45;431b&#45;94f0&#45;e568ffd63ee2 -->
<g id="node30" class="node">
<title>95f26c8d&#45;2e7f&#45;431b&#45;94f0&#45;e568ffd63ee2</title>
<ellipse fill="none" stroke="black" cx="1651" cy="-789" rx="46.5" ry="18"/>
<text text-anchor="middle" x="1651" y="-785.3" font-family="Times,serif" font-size="14.00">Detect Blue</text>
</g>
<!-- d1258231&#45;eb86&#45;4ffc&#45;a1b5&#45;4cf0c94718a8&#45;&gt;95f26c8d&#45;2e7f&#45;431b&#45;94f0&#45;e568ffd63ee2 -->
<g id="edge30" class="edge">
<title>d1258231&#45;eb86&#45;4ffc&#45;a1b5&#45;4cf0c94718a8&#45;&gt;95f26c8d&#45;2e7f&#45;431b&#45;94f0&#45;e568ffd63ee2</title>
<path fill="none" stroke="black" d="M1713.91,-843.81C1702.92,-834.41 1689.16,-822.65 1677.32,-812.52"/>
<polygon fill="black" stroke="black" points="1679.36,-809.66 1669.49,-805.82 1674.81,-814.98 1679.36,-809.66"/>
</g>
<!-- 59703cb3&#45;741b&#45;4d97&#45;a2ff&#45;d9be66311e33 -->
<g id="node31" class="node">
<title>59703cb3&#45;741b&#45;4d97&#45;a2ff&#45;d9be66311e33</title>
<ellipse fill="none" stroke="black" cx="1817" cy="-789" rx="47.1" ry="18"/>
<text text-anchor="middle" x="1817" y="-785.3" font-family="Times,serif" font-size="14.00">Detect Gate</text>
</g>
<!-- d1258231&#45;eb86&#45;4ffc&#45;a1b5&#45;4cf0c94718a8&#45;&gt;59703cb3&#45;741b&#45;4d97&#45;a2ff&#45;d9be66311e33 -->
<g id="edge31" class="edge">
<title>d1258231&#45;eb86&#45;4ffc&#45;a1b5&#45;4cf0c94718a8&#45;&gt;59703cb3&#45;741b&#45;4d97&#45;a2ff&#45;d9be66311e33</title>
<path fill="none" stroke="black" d="M1754.09,-843.81C1765.08,-834.41 1778.84,-822.65 1790.68,-812.52"/>
<polygon fill="black" stroke="black" points="1793.19,-814.98 1798.51,-805.82 1788.64,-809.66 1793.19,-814.98"/>
</g>
<!-- b2590eec&#45;a4b1&#45;4148&#45;b1c3&#45;36d7946166c0 -->
<g id="node32" class="node">
<title>b2590eec&#45;a4b1&#45;4148&#45;b1c3&#45;36d7946166c0</title>
<ellipse fill="none" stroke="black" cx="1992" cy="-789" rx="56.2" ry="18"/>
<text text-anchor="middle" x="1992" y="-785.3" font-family="Times,serif" font-size="14.00">Detect Middle</text>
</g>
<!-- d1258231&#45;eb86&#45;4ffc&#45;a1b5&#45;4cf0c94718a8&#45;&gt;b2590eec&#45;a4b1&#45;4148&#45;b1c3&#45;36d7946166c0 -->
<g id="edge32" class="edge">
<title>d1258231&#45;eb86&#45;4ffc&#45;a1b5&#45;4cf0c94718a8&#45;&gt;b2590eec&#45;a4b1&#45;4148&#45;b1c3&#45;36d7946166c0</title>
<path fill="none" stroke="black" d="M1795.8,-843.99C1840.24,-831.76 1899.44,-815.47 1941.15,-803.99"/>
<polygon fill="black" stroke="black" points="1942.11,-807.36 1950.83,-801.33 1940.26,-800.61 1942.11,-807.36"/>
</g>
<!-- 89868ec4&#45;dbae&#45;4030&#45;b8f9&#45;6c56a1930b5c -->
<g id="node33" class="node">
<title>89868ec4&#45;dbae&#45;4030&#45;b8f9&#45;6c56a1930b5c</title>
<polygon fill="none" stroke="black" stroke-dasharray="5,2" points="1852.5,-734 1767.5,-734 1767.5,-698 1852.5,-698 1852.5,-734"/>
<text text-anchor="middle" x="1810" y="-712.3" font-family="Times,serif" font-size="14.00" fill="darkgreen">Converge</text>
</g>
<!-- 0fc52252&#45;2432&#45;408d&#45;91fd&#45;b8327fc45b9c&#45;&gt;89868ec4&#45;dbae&#45;4030&#45;b8f9&#45;6c56a1930b5c -->
<g id="edge33" class="edge">
<title>0fc52252&#45;2432&#45;408d&#45;91fd&#45;b8327fc45b9c&#45;&gt;89868ec4&#45;dbae&#45;4030&#45;b8f9&#45;6c56a1930b5c</title>
<path fill="none" stroke="black" d="M2125.77,-779.76C2112.55,-776.94 2097.63,-773.79 2084,-771 2007.09,-755.25 1917.85,-737.82 1862.65,-727.14"/>
<polygon fill="black" stroke="black" points="1863.24,-723.68 1852.75,-725.22 1861.91,-730.56 1863.24,-723.68"/>
</g>
<!-- 8e1deda9&#45;00a6&#45;42ff&#45;a9b6&#45;d463a5d17bfd&#45;&gt;89868ec4&#45;dbae&#45;4030&#45;b8f9&#45;6c56a1930b5c -->
<g id="edge34" class="edge">
<title>8e1deda9&#45;00a6&#45;42ff&#45;a9b6&#45;d463a5d17bfd&#45;&gt;89868ec4&#45;dbae&#45;4030&#45;b8f9&#45;6c56a1930b5c</title>
<path fill="none" stroke="black" d="M1525.64,-779.51C1583.42,-766.81 1692.46,-742.84 1757.44,-728.55"/>
<polygon fill="black" stroke="black" points="1758.46,-731.91 1767.47,-726.35 1756.96,-725.08 1758.46,-731.91"/>
</g>
<!-- 95f26c8d&#45;2e7f&#45;431b&#45;94f0&#45;e568ffd63ee2&#45;&gt;89868ec4&#45;dbae&#45;4030&#45;b8f9&#45;6c56a1930b5c -->
<g id="edge35" class="edge">
<title>95f26c8d&#45;2e7f&#45;431b&#45;94f0&#45;e568ffd63ee2&#45;&gt;89868ec4&#45;dbae&#45;4030&#45;b8f9&#45;6c56a1930b5c</title>
<path fill="none" stroke="black" d="M1680.53,-774.81C1703.59,-764.52 1736.08,-750.01 1762.74,-738.1"/>
<polygon fill="black" stroke="black" points="1764.2,-741.29 1771.9,-734.01 1761.34,-734.89 1764.2,-741.29"/>
</g>
<!-- 59703cb3&#45;741b&#45;4d97&#45;a2ff&#45;d9be66311e33&#45;&gt;89868ec4&#45;dbae&#45;4030&#45;b8f9&#45;6c56a1930b5c -->
<g id="edge36" class="edge">
<title>59703cb3&#45;741b&#45;4d97&#45;a2ff&#45;d9be66311e33&#45;&gt;89868ec4&#45;dbae&#45;4030&#45;b8f9&#45;6c56a1930b5c</title>
<path fill="none" stroke="black" d="M1815.31,-770.81C1814.51,-762.79 1813.55,-753.05 1812.67,-744.07"/>
<polygon fill="black" stroke="black" points="1816.14,-743.64 1811.68,-734.03 1809.18,-744.32 1816.14,-743.64"/>
</g>
<!-- b2590eec&#45;a4b1&#45;4148&#45;b1c3&#45;36d7946166c0&#45;&gt;89868ec4&#45;dbae&#45;4030&#45;b8f9&#45;6c56a1930b5c -->
<g id="edge37" class="edge">
<title>b2590eec&#45;a4b1&#45;4148&#45;b1c3&#45;36d7946166c0&#45;&gt;89868ec4&#45;dbae&#45;4030&#45;b8f9&#45;6c56a1930b5c</title>
<path fill="none" stroke="black" d="M1957.77,-774.65C1930.91,-764.17 1893.08,-749.41 1862.42,-737.45"/>
<polygon fill="black" stroke="black" points="1863.33,-734.05 1852.74,-733.67 1860.79,-740.57 1863.33,-734.05"/>
</g>
<!-- e722acc8&#45;c64c&#45;490f&#45;959a&#45;6214fe5a196a -->
<g id="node41" class="node">
<title>e722acc8&#45;c64c&#45;490f&#45;959a&#45;6214fe5a196a</title>
<polygon fill="none" stroke="black" stroke-dasharray="5,2" points="1848,-647 1750,-647 1750,-611 1848,-611 1848,-647"/>
<text text-anchor="middle" x="1799" y="-625.3" font-family="Times,serif" font-size="14.00" fill="blue">Concurrent</text>
</g>
<!-- 89868ec4&#45;dbae&#45;4030&#45;b8f9&#45;6c56a1930b5c&#45;&gt;e722acc8&#45;c64c&#45;490f&#45;959a&#45;6214fe5a196a -->
<g id="edge49" class="edge">
<title>89868ec4&#45;dbae&#45;4030&#45;b8f9&#45;6c56a1930b5c&#45;&gt;e722acc8&#45;c64c&#45;490f&#45;959a&#45;6214fe5a196a</title>
<path fill="none" stroke="purple" d="M1807.77,-697.8C1806.27,-686.16 1804.25,-670.55 1802.52,-657.24"/>
<polygon fill="purple" stroke="purple" points="1805.98,-656.64 1801.22,-647.18 1799.04,-657.54 1805.98,-656.64"/>
<text text-anchor="middle" x="1840.5" y="-668.8" font-family="Times,serif" font-size="14.00" fill="purple">Pass Data</text>
</g>
<!-- c3d4908c&#45;d1b3&#45;401b&#45;b0ae&#45;108cb14b487f -->
<g id="node34" class="node">
<title>c3d4908c&#45;d1b3&#45;401b&#45;b0ae&#45;108cb14b487f</title>
<ellipse fill="none" stroke="black" cx="1749" cy="-121" rx="27" ry="18"/>
<text text-anchor="middle" x="1749" y="-117.3" font-family="Times,serif" font-size="14.00">StripY</text>
</g>
<!-- b0a75128&#45;c8ed&#45;43e8&#45;9971&#45;248fcf70bd26 -->
<g id="node35" class="node">
<title>b0a75128&#45;c8ed&#45;43e8&#45;9971&#45;248fcf70bd26</title>
<ellipse fill="none" stroke="black" cx="1749" cy="-34" rx="80.11" ry="18"/>
<text text-anchor="middle" x="1749" y="-30.3" font-family="Times,serif" font-size="14.00">Stability2Movement</text>
</g>
<!-- c3d4908c&#45;d1b3&#45;401b&#45;b0ae&#45;108cb14b487f&#45;&gt;b0a75128&#45;c8ed&#45;43e8&#45;9971&#45;248fcf70bd26 -->
<g id="edge38" class="edge">
<title>c3d4908c&#45;d1b3&#45;401b&#45;b0ae&#45;108cb14b487f&#45;&gt;b0a75128&#45;c8ed&#45;43e8&#45;9971&#45;248fcf70bd26</title>
<path fill="none" stroke="purple" d="M1749,-102.8C1749,-91.16 1749,-75.55 1749,-62.24"/>
<polygon fill="purple" stroke="purple" points="1752.5,-62.18 1749,-52.18 1745.5,-62.18 1752.5,-62.18"/>
<text text-anchor="middle" x="1784.5" y="-73.8" font-family="Times,serif" font-size="14.00" fill="purple">Pass Data</text>
</g>
<!-- fea14d99&#45;884e&#45;4bfa&#45;a4c9&#45;63085821914b -->
<g id="node36" class="node">
<title>fea14d99&#45;884e&#45;4bfa&#45;a4c9&#45;63085821914b</title>
<ellipse fill="none" stroke="black" cx="1749" cy="-208" rx="67.81" ry="18"/>
<text text-anchor="middle" x="1749" y="-204.3" font-family="Times,serif" font-size="14.00">LinearYawFromX</text>
</g>
<!-- fea14d99&#45;884e&#45;4bfa&#45;a4c9&#45;63085821914b&#45;&gt;c3d4908c&#45;d1b3&#45;401b&#45;b0ae&#45;108cb14b487f -->
<g id="edge39" class="edge">
<title>fea14d99&#45;884e&#45;4bfa&#45;a4c9&#45;63085821914b&#45;&gt;c3d4908c&#45;d1b3&#45;401b&#45;b0ae&#45;108cb14b487f</title>
<path fill="none" stroke="purple" d="M1749,-189.8C1749,-178.16 1749,-162.55 1749,-149.24"/>
<polygon fill="purple" stroke="purple" points="1752.5,-149.18 1749,-139.18 1745.5,-149.18 1752.5,-149.18"/>
<text text-anchor="middle" x="1784.5" y="-160.8" font-family="Times,serif" font-size="14.00" fill="purple">Pass Data</text>
</g>
<!-- e5aa5b90&#45;f5f9&#45;4cf3&#45;9f58&#45;a3d46a86568e -->
<g id="node37" class="node">
<title>e5aa5b90&#45;f5f9&#45;4cf3&#45;9f58&#45;a3d46a86568e</title>
<ellipse fill="none" stroke="black" cx="1749" cy="-295" rx="51.3" ry="18"/>
<text text-anchor="middle" x="1749" y="-291.3" font-family="Times,serif" font-size="14.00">OffsetToPose</text>
</g>
<!-- e5aa5b90&#45;f5f9&#45;4cf3&#45;9f58&#45;a3d46a86568e&#45;&gt;fea14d99&#45;884e&#45;4bfa&#45;a4c9&#45;63085821914b -->
<g id="edge40" class="edge">
<title>e5aa5b90&#45;f5f9&#45;4cf3&#45;9f58&#45;a3d46a86568e&#45;&gt;fea14d99&#45;884e&#45;4bfa&#45;a4c9&#45;63085821914b</title>
<path fill="none" stroke="purple" d="M1749,-276.8C1749,-265.16 1749,-249.55 1749,-236.24"/>
<polygon fill="purple" stroke="purple" points="1752.5,-236.18 1749,-226.18 1745.5,-236.18 1752.5,-236.18"/>
<text text-anchor="middle" x="1784.5" y="-247.8" font-family="Times,serif" font-size="14.00" fill="purple">Pass Data</text>
</g>
<!-- ea8b625b&#45;2d25&#45;481f&#45;bf5a&#45;21e8b289c2a4 -->
<g id="node38" class="node">
<title>ea8b625b&#45;2d25&#45;481f&#45;bf5a&#45;21e8b289c2a4</title>
<ellipse fill="none" stroke="black" cx="1749" cy="-382" rx="32.4" ry="18"/>
<text text-anchor="middle" x="1749" y="-378.3" font-family="Times,serif" font-size="14.00">Average</text>
</g>
<!-- ea8b625b&#45;2d25&#45;481f&#45;bf5a&#45;21e8b289c2a4&#45;&gt;e5aa5b90&#45;f5f9&#45;4cf3&#45;9f58&#45;a3d46a86568e -->
<g id="edge41" class="edge">
<title>ea8b625b&#45;2d25&#45;481f&#45;bf5a&#45;21e8b289c2a4&#45;&gt;e5aa5b90&#45;f5f9&#45;4cf3&#45;9f58&#45;a3d46a86568e</title>
<path fill="none" stroke="purple" d="M1749,-363.8C1749,-352.16 1749,-336.55 1749,-323.24"/>
<polygon fill="purple" stroke="purple" points="1752.5,-323.18 1749,-313.18 1745.5,-323.18 1752.5,-323.18"/>
<text text-anchor="middle" x="1784.5" y="-334.8" font-family="Times,serif" font-size="14.00" fill="purple">Pass Data</text>
</g>
<!-- 1350b75d&#45;872c&#45;4446&#45;8ddb&#45;a355f739c4e1 -->
<g id="node39" class="node">
<title>1350b75d&#45;872c&#45;4446&#45;8ddb&#45;a355f739c4e1</title>
<ellipse fill="none" stroke="black" cx="1749" cy="-469" rx="61.1" ry="18"/>
<text text-anchor="middle" x="1749" y="-465.3" font-family="Times,serif" font-size="14.00">ExtractPosition</text>
</g>
<!-- 1350b75d&#45;872c&#45;4446&#45;8ddb&#45;a355f739c4e1&#45;&gt;ea8b625b&#45;2d25&#45;481f&#45;bf5a&#45;21e8b289c2a4 -->
<g id="edge42" class="edge">
<title>1350b75d&#45;872c&#45;4446&#45;8ddb&#45;a355f739c4e1&#45;&gt;ea8b625b&#45;2d25&#45;481f&#45;bf5a&#45;21e8b289c2a4</title>
<path fill="none" stroke="purple" d="M1749,-450.8C1749,-439.16 1749,-423.55 1749,-410.24"/>
<polygon fill="purple" stroke="purple" points="1752.5,-410.18 1749,-400.18 1745.5,-410.18 1752.5,-410.18"/>
<text text-anchor="middle" x="1784.5" y="-421.8" font-family="Times,serif" font-size="14.00" fill="purple">Pass Data</text>
</g>
<!-- 3bd5224d&#45;a521&#45;453a&#45;8e61&#45;0a5f257c4386 -->
<g id="node40" class="node">
<title>3bd5224d&#45;a521&#45;453a&#45;8e61&#45;0a5f257c4386</title>
<ellipse fill="none" stroke="black" cx="1821" cy="-556" rx="27" ry="18"/>
<text text-anchor="middle" x="1821" y="-552.3" font-family="Times,serif" font-size="14.00">ToVec</text>
</g>
<!-- 3bd5224d&#45;a521&#45;453a&#45;8e61&#45;0a5f257c4386&#45;&gt;1350b75d&#45;872c&#45;4446&#45;8ddb&#45;a355f739c4e1 -->
<g id="edge43" class="edge">
<title>3bd5224d&#45;a521&#45;453a&#45;8e61&#45;0a5f257c4386&#45;&gt;1350b75d&#45;872c&#45;4446&#45;8ddb&#45;a355f739c4e1</title>
<path fill="none" stroke="purple" d="M1803.67,-541.67C1796.24,-535.51 1787.74,-527.83 1781,-520 1774.65,-512.62 1768.63,-503.88 1763.56,-495.79"/>
<polygon fill="purple" stroke="purple" points="1766.44,-493.79 1758.27,-487.03 1760.45,-497.4 1766.44,-493.79"/>
<text text-anchor="middle" x="1816.5" y="-508.8" font-family="Times,serif" font-size="14.00" fill="purple">Pass Data</text>
</g>
<!-- e722acc8&#45;c64c&#45;490f&#45;959a&#45;6214fe5a196a&#45;&gt;6f1b3d08&#45;7978&#45;4866&#45;8f82&#45;1de948c0b806 -->
<g id="edge45" class="edge">
<title>e722acc8&#45;c64c&#45;490f&#45;959a&#45;6214fe5a196a&#45;&gt;6f1b3d08&#45;7978&#45;4866&#45;8f82&#45;1de948c0b806</title>
<path fill="none" stroke="black" d="M1749.97,-611.26C1715.54,-599.51 1669.82,-583.9 1636.25,-572.45"/>
<polygon fill="black" stroke="black" points="1637.28,-569.1 1626.69,-569.18 1635.02,-575.73 1637.28,-569.1"/>
</g>
<!-- e722acc8&#45;c64c&#45;490f&#45;959a&#45;6214fe5a196a&#45;&gt;3bd5224d&#45;a521&#45;453a&#45;8e61&#45;0a5f257c4386 -->
<g id="edge44" class="edge">
<title>e722acc8&#45;c64c&#45;490f&#45;959a&#45;6214fe5a196a&#45;&gt;3bd5224d&#45;a521&#45;453a&#45;8e61&#45;0a5f257c4386</title>
<path fill="none" stroke="black" d="M1804.33,-610.81C1806.84,-602.7 1809.9,-592.84 1812.7,-583.78"/>
<polygon fill="black" stroke="black" points="1816.11,-584.62 1815.72,-574.03 1809.42,-582.54 1816.11,-584.62"/>
</g>
<!-- 97165ee6&#45;e34a&#45;4e2d&#45;9a13&#45;d5a4c264e44a&#45;&gt;d74650e3&#45;f21d&#45;4f9c&#45;a498&#45;ec5de4f49ee5 -->
<g id="edge47" class="edge">
<title>97165ee6&#45;e34a&#45;4e2d&#45;9a13&#45;d5a4c264e44a&#45;&gt;d74650e3&#45;f21d&#45;4f9c&#45;a498&#45;ec5de4f49ee5</title>
<path fill="none" stroke="purple" d="M349,-487.26C349,-504.43 349,-531.54 349,-555 349,-790 349,-790 349,-790 349,-820.38 529.74,-841.97 648.53,-852.88"/>
<polygon fill="purple" stroke="purple" points="648.48,-856.39 658.76,-853.8 649.11,-849.42 648.48,-856.39"/>
<text text-anchor="middle" x="384.5" y="-668.8" font-family="Times,serif" font-size="14.00" fill="purple">Pass Data</text>
</g>
<!-- 0693eaab&#45;c5d7&#45;430d&#45;bf85&#45;ab4004e4da42&#45;&gt;d1258231&#45;eb86&#45;4ffc&#45;a1b5&#45;4cf0c94718a8 -->
<g id="edge50" class="edge">
<title>0693eaab&#45;c5d7&#45;430d&#45;bf85&#45;ab4004e4da42&#45;&gt;d1258231&#45;eb86&#45;4ffc&#45;a1b5&#45;4cf0c94718a8</title>
<path fill="none" stroke="purple" d="M1333,-487.26C1333,-504.43 1333,-531.54 1333,-555 1333,-790 1333,-790 1333,-790 1333,-820.38 1513.74,-841.97 1632.53,-852.88"/>
<polygon fill="purple" stroke="purple" points="1632.48,-856.39 1642.76,-853.8 1633.11,-849.42 1632.48,-856.39"/>
<text text-anchor="middle" x="1368.5" y="-668.8" font-family="Times,serif" font-size="14.00" fill="purple">Pass Data</text>
</g>
</g>
</svg>
