<?xml version="1.0" encoding="UTF-8" standalone="no"?>
<!DOCTYPE svg PUBLIC "-//W3C//DTD SVG 1.1//EN"
 "http://www.w3.org/Graphics/SVG/1.1/DTD/svg11.dtd">
<!-- Generated by graphviz version 2.43.0 (0)
 -->
<!-- Title: G Pages: 1 -->
<svg width="158pt" height="404pt"
 viewBox="0.00 0.00 157.61 404.00" xmlns="http://www.w3.org/2000/svg" xmlns:xlink="http://www.w3.org/1999/xlink">
<g id="graph0" class="graph" transform="scale(1 1) rotate(0) translate(4 400)">
<title>G</title>
<polygon fill="transparent" stroke="transparent" points="-4,4 -4,-400 153.61,-400 153.61,4 -4,4"/>
<!-- 2a9ca589&#45;0457&#45;4f89&#45;b5ed&#45;44f4740b522e -->
<g id="node1" class="node">
<title>2a9ca589&#45;0457&#45;4f89&#45;b5ed&#45;44f4740b522e</title>
<ellipse fill="none" stroke="black" cx="74.8" cy="-306" rx="33.6" ry="18"/>
<text text-anchor="middle" x="74.8" y="-302.3" font-family="Times,serif" font-size="14.00">Descend</text>
</g>
<!-- 8360800c&#45;bf5e&#45;4e90&#45;bf8f&#45;7539442fa8cb -->
<g id="node2" class="node">
<title>8360800c&#45;bf5e&#45;4e90&#45;bf8f&#45;7539442fa8cb</title>
<ellipse fill="none" stroke="black" cx="74.8" cy="-234" rx="47.1" ry="18"/>
<text text-anchor="middle" x="74.8" y="-230.3" font-family="Times,serif" font-size="14.00">DelayAction</text>
</g>
<!-- 2a9ca589&#45;0457&#45;4f89&#45;b5ed&#45;44f4740b522e&#45;&gt;8360800c&#45;bf5e&#45;4e90&#45;bf8f&#45;7539442fa8cb -->
<g id="edge1" class="edge">
<title>2a9ca589&#45;0457&#45;4f89&#45;b5ed&#45;44f4740b522e&#45;&gt;8360800c&#45;bf5e&#45;4e90&#45;bf8f&#45;7539442fa8cb</title>
<path fill="none" stroke="black" d="M74.8,-287.7C74.8,-279.98 74.8,-270.71 74.8,-262.11"/>
<polygon fill="black" stroke="black" points="78.3,-262.1 74.8,-252.1 71.3,-262.1 78.3,-262.1"/>
</g>
<!-- a6664f65&#45;8343&#45;486c&#45;b416&#45;79fcf320f85b -->
<g id="node3" class="node">
<title>a6664f65&#45;8343&#45;486c&#45;b416&#45;79fcf320f85b</title>
<ellipse fill="none" stroke="black" cx="74.8" cy="-162" rx="74.61" ry="18"/>
<text text-anchor="middle" x="74.8" y="-158.3" font-family="Times,serif" font-size="14.00">StraightMovement</text>
</g>
<!-- 8360800c&#45;bf5e&#45;4e90&#45;bf8f&#45;7539442fa8cb&#45;&gt;a6664f65&#45;8343&#45;486c&#45;b416&#45;79fcf320f85b -->
<g id="edge4" class="edge">
<title>8360800c&#45;bf5e&#45;4e90&#45;bf8f&#45;7539442fa8cb&#45;&gt;a6664f65&#45;8343&#45;486c&#45;b416&#45;79fcf320f85b</title>
<path fill="none" stroke="black" d="M74.8,-215.7C74.8,-207.98 74.8,-198.71 74.8,-190.11"/>
<polygon fill="black" stroke="black" points="78.3,-190.1 74.8,-180.1 71.3,-190.1 78.3,-190.1"/>
</g>
<!-- 7f44cb7a&#45;0692&#45;4852&#45;97fe&#45;b442d7a5f038 -->
<g id="node4" class="node">
<title>7f44cb7a&#45;0692&#45;4852&#45;97fe&#45;b442d7a5f038</title>
<ellipse fill="none" stroke="black" cx="74.8" cy="-90" rx="47.1" ry="18"/>
<text text-anchor="middle" x="74.8" y="-86.3" font-family="Times,serif" font-size="14.00">DelayAction</text>
</g>
<!-- a6664f65&#45;8343&#45;486c&#45;b416&#45;79fcf320f85b&#45;&gt;7f44cb7a&#45;0692&#45;4852&#45;97fe&#45;b442d7a5f038 -->
<g id="edge2" class="edge">
<title>a6664f65&#45;8343&#45;486c&#45;b416&#45;79fcf320f85b&#45;&gt;7f44cb7a&#45;0692&#45;4852&#45;97fe&#45;b442d7a5f038</title>
<path fill="none" stroke="black" d="M74.8,-143.7C74.8,-135.98 74.8,-126.71 74.8,-118.11"/>
<polygon fill="black" stroke="black" points="78.3,-118.1 74.8,-108.1 71.3,-118.1 78.3,-118.1"/>
</g>
<!-- 543a04d6&#45;8738&#45;459a&#45;89ce&#45;75756288f66f -->
<g id="node5" class="node">
<title>543a04d6&#45;8738&#45;459a&#45;89ce&#45;75756288f66f</title>
<ellipse fill="none" stroke="black" cx="74.8" cy="-18" rx="59.9" ry="18"/>
<text text-anchor="middle" x="74.8" y="-14.3" font-family="Times,serif" font-size="14.00">ZeroMovement</text>
</g>
<!-- 7f44cb7a&#45;0692&#45;4852&#45;97fe&#45;b442d7a5f038&#45;&gt;543a04d6&#45;8738&#45;459a&#45;89ce&#45;75756288f66f -->
<g id="edge3" class="edge">
<title>7f44cb7a&#45;0692&#45;4852&#45;97fe&#45;b442d7a5f038&#45;&gt;543a04d6&#45;8738&#45;459a&#45;89ce&#45;75756288f66f</title>
<path fill="none" stroke="black" d="M74.8,-71.7C74.8,-63.98 74.8,-54.71 74.8,-46.11"/>
<polygon fill="black" stroke="black" points="78.3,-46.1 74.8,-36.1 71.3,-46.1 78.3,-46.1"/>
</g>
<!-- a3da4892&#45;6819&#45;4bf7&#45;ac4f&#45;a1c95da56b5d -->
<g id="node6" class="node">
<title>a3da4892&#45;6819&#45;4bf7&#45;ac4f&#45;a1c95da56b5d</title>
<ellipse fill="none" stroke="black" cx="74.8" cy="-378" rx="34.8" ry="18"/>
<text text-anchor="middle" x="74.8" y="-374.3" font-family="Times,serif" font-size="14.00">WaitArm</text>
</g>
<!-- a3da4892&#45;6819&#45;4bf7&#45;ac4f&#45;a1c95da56b5d&#45;&gt;2a9ca589&#45;0457&#45;4f89&#45;b5ed&#45;44f4740b522e -->
<g id="edge5" class="edge">
<title>a3da4892&#45;6819&#45;4bf7&#45;ac4f&#45;a1c95da56b5d&#45;&gt;2a9ca589&#45;0457&#45;4f89&#45;b5ed&#45;44f4740b522e</title>
<path fill="none" stroke="black" d="M74.8,-359.7C74.8,-351.98 74.8,-342.71 74.8,-334.11"/>
<polygon fill="black" stroke="black" points="78.3,-334.1 74.8,-324.1 71.3,-334.1 78.3,-334.1"/>
</g>
</g>
</svg>
