<?xml version="1.0" encoding="UTF-8" standalone="no"?>
<!DOCTYPE svg PUBLIC "-//W3C//DTD SVG 1.1//EN"
 "http://www.w3.org/Graphics/SVG/1.1/DTD/svg11.dtd">
<!-- Generated by graphviz version 2.43.0 (0)
 -->
<!-- Title: G Pages: 1 -->
<svg width="158pt" height="404pt"
 viewBox="0.00 0.00 157.61 404.00" xmlns="http://www.w3.org/2000/svg" xmlns:xlink="http://www.w3.org/1999/xlink">
<g id="graph0" class="graph" transform="scale(1 1) rotate(0) translate(4 400)">
<title>G</title>
<polygon fill="transparent" stroke="transparent" points="-4,4 -4,-400 153.61,-400 153.61,4 -4,4"/>
<!-- dc2f1f02&#45;282c&#45;437e&#45;9b1e&#45;3f81331c8dae -->
<g id="node1" class="node">
<title>dc2f1f02&#45;282c&#45;437e&#45;9b1e&#45;3f81331c8dae</title>
<ellipse fill="none" stroke="black" cx="74.8" cy="-306" rx="33.6" ry="18"/>
<text text-anchor="middle" x="74.8" y="-302.3" font-family="Times,serif" font-size="14.00">Descend</text>
</g>
<!-- 0fe916c1&#45;3e20&#45;45c3&#45;8c3a&#45;17ef2e33ee9d -->
<g id="node2" class="node">
<title>0fe916c1&#45;3e20&#45;45c3&#45;8c3a&#45;17ef2e33ee9d</title>
<ellipse fill="none" stroke="black" cx="74.8" cy="-234" rx="47.1" ry="18"/>
<text text-anchor="middle" x="74.8" y="-230.3" font-family="Times,serif" font-size="14.00">DelayAction</text>
</g>
<!-- dc2f1f02&#45;282c&#45;437e&#45;9b1e&#45;3f81331c8dae&#45;&gt;0fe916c1&#45;3e20&#45;45c3&#45;8c3a&#45;17ef2e33ee9d -->
<g id="edge1" class="edge">
<title>dc2f1f02&#45;282c&#45;437e&#45;9b1e&#45;3f81331c8dae&#45;&gt;0fe916c1&#45;3e20&#45;45c3&#45;8c3a&#45;17ef2e33ee9d</title>
<path fill="none" stroke="black" d="M74.8,-287.7C74.8,-279.98 74.8,-270.71 74.8,-262.11"/>
<polygon fill="black" stroke="black" points="78.3,-262.1 74.8,-252.1 71.3,-262.1 78.3,-262.1"/>
</g>
<!-- a5ee2eb8&#45;bebe&#45;4e46&#45;83e0&#45;4eb1e8d0897c -->
<g id="node3" class="node">
<title>a5ee2eb8&#45;bebe&#45;4e46&#45;83e0&#45;4eb1e8d0897c</title>
<ellipse fill="none" stroke="black" cx="74.8" cy="-162" rx="74.61" ry="18"/>
<text text-anchor="middle" x="74.8" y="-158.3" font-family="Times,serif" font-size="14.00">StraightMovement</text>
</g>
<!-- 0fe916c1&#45;3e20&#45;45c3&#45;8c3a&#45;17ef2e33ee9d&#45;&gt;a5ee2eb8&#45;bebe&#45;4e46&#45;83e0&#45;4eb1e8d0897c -->
<g id="edge4" class="edge">
<title>0fe916c1&#45;3e20&#45;45c3&#45;8c3a&#45;17ef2e33ee9d&#45;&gt;a5ee2eb8&#45;bebe&#45;4e46&#45;83e0&#45;4eb1e8d0897c</title>
<path fill="none" stroke="black" d="M74.8,-215.7C74.8,-207.98 74.8,-198.71 74.8,-190.11"/>
<polygon fill="black" stroke="black" points="78.3,-190.1 74.8,-180.1 71.3,-190.1 78.3,-190.1"/>
</g>
<!-- 925ae653&#45;a451&#45;4b5d&#45;a0c0&#45;7bcc25c13860 -->
<g id="node4" class="node">
<title>925ae653&#45;a451&#45;4b5d&#45;a0c0&#45;7bcc25c13860</title>
<ellipse fill="none" stroke="black" cx="74.8" cy="-90" rx="47.1" ry="18"/>
<text text-anchor="middle" x="74.8" y="-86.3" font-family="Times,serif" font-size="14.00">DelayAction</text>
</g>
<!-- a5ee2eb8&#45;bebe&#45;4e46&#45;83e0&#45;4eb1e8d0897c&#45;&gt;925ae653&#45;a451&#45;4b5d&#45;a0c0&#45;7bcc25c13860 -->
<g id="edge2" class="edge">
<title>a5ee2eb8&#45;bebe&#45;4e46&#45;83e0&#45;4eb1e8d0897c&#45;&gt;925ae653&#45;a451&#45;4b5d&#45;a0c0&#45;7bcc25c13860</title>
<path fill="none" stroke="black" d="M74.8,-143.7C74.8,-135.98 74.8,-126.71 74.8,-118.11"/>
<polygon fill="black" stroke="black" points="78.3,-118.1 74.8,-108.1 71.3,-118.1 78.3,-118.1"/>
</g>
<!-- 60981377&#45;c81a&#45;46c0&#45;abb1&#45;332721695c93 -->
<g id="node5" class="node">
<title>60981377&#45;c81a&#45;46c0&#45;abb1&#45;332721695c93</title>
<ellipse fill="none" stroke="black" cx="74.8" cy="-18" rx="59.9" ry="18"/>
<text text-anchor="middle" x="74.8" y="-14.3" font-family="Times,serif" font-size="14.00">ZeroMovement</text>
</g>
<!-- 925ae653&#45;a451&#45;4b5d&#45;a0c0&#45;7bcc25c13860&#45;&gt;60981377&#45;c81a&#45;46c0&#45;abb1&#45;332721695c93 -->
<g id="edge3" class="edge">
<title>925ae653&#45;a451&#45;4b5d&#45;a0c0&#45;7bcc25c13860&#45;&gt;60981377&#45;c81a&#45;46c0&#45;abb1&#45;332721695c93</title>
<path fill="none" stroke="black" d="M74.8,-71.7C74.8,-63.98 74.8,-54.71 74.8,-46.11"/>
<polygon fill="black" stroke="black" points="78.3,-46.1 74.8,-36.1 71.3,-46.1 78.3,-46.1"/>
</g>
<!-- c05dc342&#45;b82a&#45;4375&#45;951f&#45;5b18011645bf -->
<g id="node6" class="node">
<title>c05dc342&#45;b82a&#45;4375&#45;951f&#45;5b18011645bf</title>
<ellipse fill="none" stroke="black" cx="74.8" cy="-378" rx="34.8" ry="18"/>
<text text-anchor="middle" x="74.8" y="-374.3" font-family="Times,serif" font-size="14.00">WaitArm</text>
</g>
<!-- c05dc342&#45;b82a&#45;4375&#45;951f&#45;5b18011645bf&#45;&gt;dc2f1f02&#45;282c&#45;437e&#45;9b1e&#45;3f81331c8dae -->
<g id="edge5" class="edge">
<title>c05dc342&#45;b82a&#45;4375&#45;951f&#45;5b18011645bf&#45;&gt;dc2f1f02&#45;282c&#45;437e&#45;9b1e&#45;3f81331c8dae</title>
<path fill="none" stroke="black" d="M74.8,-359.7C74.8,-351.98 74.8,-342.71 74.8,-334.11"/>
<polygon fill="black" stroke="black" points="78.3,-334.1 74.8,-324.1 71.3,-334.1 78.3,-334.1"/>
</g>
</g>
</svg>
