<?xml version="1.0" encoding="UTF-8" standalone="no"?>
<!DOCTYPE svg PUBLIC "-//W3C//DTD SVG 1.1//EN"
 "http://www.w3.org/Graphics/SVG/1.1/DTD/svg11.dtd">
<!-- Generated by graphviz version 2.43.0 (0)
 -->
<!-- Title: G Pages: 1 -->
<svg width="158pt" height="404pt"
 viewBox="0.00 0.00 157.61 404.00" xmlns="http://www.w3.org/2000/svg" xmlns:xlink="http://www.w3.org/1999/xlink">
<g id="graph0" class="graph" transform="scale(1 1) rotate(0) translate(4 400)">
<title>G</title>
<polygon fill="transparent" stroke="transparent" points="-4,4 -4,-400 153.61,-400 153.61,4 -4,4"/>
<!-- 46cabc73&#45;e2c6&#45;4fc6&#45;9574&#45;2546893871ab -->
<g id="node1" class="node">
<title>46cabc73&#45;e2c6&#45;4fc6&#45;9574&#45;2546893871ab</title>
<ellipse fill="none" stroke="black" cx="74.8" cy="-306" rx="33.6" ry="18"/>
<text text-anchor="middle" x="74.8" y="-302.3" font-family="Times,serif" font-size="14.00">Descend</text>
</g>
<!-- b9d67041&#45;8027&#45;45c5&#45;af3b&#45;d706bc31a9ba -->
<g id="node2" class="node">
<title>b9d67041&#45;8027&#45;45c5&#45;af3b&#45;d706bc31a9ba</title>
<ellipse fill="none" stroke="black" cx="74.8" cy="-234" rx="47.1" ry="18"/>
<text text-anchor="middle" x="74.8" y="-230.3" font-family="Times,serif" font-size="14.00">DelayAction</text>
</g>
<!-- 46cabc73&#45;e2c6&#45;4fc6&#45;9574&#45;2546893871ab&#45;&gt;b9d67041&#45;8027&#45;45c5&#45;af3b&#45;d706bc31a9ba -->
<g id="edge1" class="edge">
<title>46cabc73&#45;e2c6&#45;4fc6&#45;9574&#45;2546893871ab&#45;&gt;b9d67041&#45;8027&#45;45c5&#45;af3b&#45;d706bc31a9ba</title>
<path fill="none" stroke="black" d="M74.8,-287.7C74.8,-279.98 74.8,-270.71 74.8,-262.11"/>
<polygon fill="black" stroke="black" points="78.3,-262.1 74.8,-252.1 71.3,-262.1 78.3,-262.1"/>
</g>
<!-- 25374a21&#45;992c&#45;4510&#45;8fca&#45;2d12c4388924 -->
<g id="node3" class="node">
<title>25374a21&#45;992c&#45;4510&#45;8fca&#45;2d12c4388924</title>
<ellipse fill="none" stroke="black" cx="74.8" cy="-162" rx="74.61" ry="18"/>
<text text-anchor="middle" x="74.8" y="-158.3" font-family="Times,serif" font-size="14.00">StraightMovement</text>
</g>
<!-- b9d67041&#45;8027&#45;45c5&#45;af3b&#45;d706bc31a9ba&#45;&gt;25374a21&#45;992c&#45;4510&#45;8fca&#45;2d12c4388924 -->
<g id="edge4" class="edge">
<title>b9d67041&#45;8027&#45;45c5&#45;af3b&#45;d706bc31a9ba&#45;&gt;25374a21&#45;992c&#45;4510&#45;8fca&#45;2d12c4388924</title>
<path fill="none" stroke="black" d="M74.8,-215.7C74.8,-207.98 74.8,-198.71 74.8,-190.11"/>
<polygon fill="black" stroke="black" points="78.3,-190.1 74.8,-180.1 71.3,-190.1 78.3,-190.1"/>
</g>
<!-- 0e595014&#45;64ba&#45;41f5&#45;a301&#45;3f5d9a66b9e9 -->
<g id="node4" class="node">
<title>0e595014&#45;64ba&#45;41f5&#45;a301&#45;3f5d9a66b9e9</title>
<ellipse fill="none" stroke="black" cx="74.8" cy="-90" rx="47.1" ry="18"/>
<text text-anchor="middle" x="74.8" y="-86.3" font-family="Times,serif" font-size="14.00">DelayAction</text>
</g>
<!-- 25374a21&#45;992c&#45;4510&#45;8fca&#45;2d12c4388924&#45;&gt;0e595014&#45;64ba&#45;41f5&#45;a301&#45;3f5d9a66b9e9 -->
<g id="edge2" class="edge">
<title>25374a21&#45;992c&#45;4510&#45;8fca&#45;2d12c4388924&#45;&gt;0e595014&#45;64ba&#45;41f5&#45;a301&#45;3f5d9a66b9e9</title>
<path fill="none" stroke="black" d="M74.8,-143.7C74.8,-135.98 74.8,-126.71 74.8,-118.11"/>
<polygon fill="black" stroke="black" points="78.3,-118.1 74.8,-108.1 71.3,-118.1 78.3,-118.1"/>
</g>
<!-- c98b2bfd&#45;015c&#45;4d8e&#45;969c&#45;d95f081897cc -->
<g id="node5" class="node">
<title>c98b2bfd&#45;015c&#45;4d8e&#45;969c&#45;d95f081897cc</title>
<ellipse fill="none" stroke="black" cx="74.8" cy="-18" rx="59.9" ry="18"/>
<text text-anchor="middle" x="74.8" y="-14.3" font-family="Times,serif" font-size="14.00">ZeroMovement</text>
</g>
<!-- 0e595014&#45;64ba&#45;41f5&#45;a301&#45;3f5d9a66b9e9&#45;&gt;c98b2bfd&#45;015c&#45;4d8e&#45;969c&#45;d95f081897cc -->
<g id="edge3" class="edge">
<title>0e595014&#45;64ba&#45;41f5&#45;a301&#45;3f5d9a66b9e9&#45;&gt;c98b2bfd&#45;015c&#45;4d8e&#45;969c&#45;d95f081897cc</title>
<path fill="none" stroke="black" d="M74.8,-71.7C74.8,-63.98 74.8,-54.71 74.8,-46.11"/>
<polygon fill="black" stroke="black" points="78.3,-46.1 74.8,-36.1 71.3,-46.1 78.3,-46.1"/>
</g>
<!-- a9af1f48&#45;fce1&#45;4904&#45;a206&#45;2f98e3ed187d -->
<g id="node6" class="node">
<title>a9af1f48&#45;fce1&#45;4904&#45;a206&#45;2f98e3ed187d</title>
<ellipse fill="none" stroke="black" cx="74.8" cy="-378" rx="34.8" ry="18"/>
<text text-anchor="middle" x="74.8" y="-374.3" font-family="Times,serif" font-size="14.00">WaitArm</text>
</g>
<!-- a9af1f48&#45;fce1&#45;4904&#45;a206&#45;2f98e3ed187d&#45;&gt;46cabc73&#45;e2c6&#45;4fc6&#45;9574&#45;2546893871ab -->
<g id="edge5" class="edge">
<title>a9af1f48&#45;fce1&#45;4904&#45;a206&#45;2f98e3ed187d&#45;&gt;46cabc73&#45;e2c6&#45;4fc6&#45;9574&#45;2546893871ab</title>
<path fill="none" stroke="black" d="M74.8,-359.7C74.8,-351.98 74.8,-342.71 74.8,-334.11"/>
<polygon fill="black" stroke="black" points="78.3,-334.1 74.8,-324.1 71.3,-334.1 78.3,-334.1"/>
</g>
</g>
</svg>
