<?xml version="1.0" encoding="UTF-8" standalone="no"?>
<!DOCTYPE svg PUBLIC "-//W3C//DTD SVG 1.1//EN"
 "http://www.w3.org/Graphics/SVG/1.1/DTD/svg11.dtd">
<!-- Generated by graphviz version 2.43.0 (0)
 -->
<!-- Title: G Pages: 1 -->
<svg width="2024pt" height="1071pt"
 viewBox="0.00 0.00 2024.00 1071.00" xmlns="http://www.w3.org/2000/svg" xmlns:xlink="http://www.w3.org/1999/xlink">
<g id="graph0" class="graph" transform="scale(1 1) rotate(0) translate(4 1067)">
<title>G</title>
<polygon fill="transparent" stroke="transparent" points="-4,4 -4,-1067 2020,-1067 2020,4 -4,4"/>
<g id="clust1" class="cluster">
<title>cluster_64ef9498&#45;6189&#45;4681&#45;b68b&#45;13a50c72fc57</title>
<polygon fill="transparent" stroke="blue" stroke-dasharray="5,2" points="8,-443 8,-1055 248,-1055 248,-443 8,-443"/>
</g>
<g id="clust2" class="cluster">
<title>cluster_bebb6a5a&#45;1199&#45;4749&#45;a3f1&#45;fe7a68a3399b</title>
<polygon fill="transparent" stroke="darkgreen" stroke-dasharray="5,2" points="450,-603 450,-801 1128,-801 1128,-603 450,-603"/>
</g>
<g id="clust3" class="cluster">
<title>cluster_2f145067&#45;9c03&#45;43a0&#45;a199&#45;cd0baf4a8903</title>
<polygon fill="transparent" stroke="blue" stroke-dasharray="5,2" points="598,-8 598,-568 982,-568 982,-8 598,-8"/>
</g>
<g id="clust4" class="cluster">
<title>cluster_33fecc22&#45;5bec&#45;46f4&#45;ad4f&#45;b3c7fd789c94</title>
<polygon fill="transparent" stroke="darkgreen" stroke-dasharray="5,2" points="1330,-603 1330,-801 2008,-801 2008,-603 1330,-603"/>
</g>
<g id="clust5" class="cluster">
<title>cluster_a0010728&#45;893e&#45;47b2&#45;92fa&#45;5d6a4da73ef0</title>
<polygon fill="transparent" stroke="blue" stroke-dasharray="5,2" points="1330,-8 1330,-568 1734,-568 1734,-8 1330,-8"/>
</g>
<!-- e180b194&#45;1198&#45;402f&#45;8543&#45;6740c91428e0 -->
<g id="node1" class="node">
<title>e180b194&#45;1198&#45;402f&#45;8543&#45;6740c91428e0</title>
<polygon fill="none" stroke="black" points="727,-487 606.37,-469 727,-451 847.63,-469 727,-487"/>
<text text-anchor="middle" x="727" y="-465.3" font-family="Times,serif" font-size="14.00">Consecutive True &lt; 3</text>
</g>
<!-- 5b3340ad&#45;71c9&#45;4802&#45;9f89&#45;071a9fad0db4 -->
<g id="node38" class="node">
<title>5b3340ad&#45;71c9&#45;4802&#45;9f89&#45;071a9fad0db4</title>
<ellipse fill="none" stroke="black" cx="349" cy="-382" rx="46.5" ry="18"/>
<text text-anchor="middle" x="349" y="-378.3" font-family="Times,serif" font-size="14.00">VisionNorm</text>
</g>
<!-- e180b194&#45;1198&#45;402f&#45;8543&#45;6740c91428e0&#45;&gt;5b3340ad&#45;71c9&#45;4802&#45;9f89&#45;071a9fad0db4 -->
<g id="edge42" class="edge">
<title>e180b194&#45;1198&#45;402f&#45;8543&#45;6740c91428e0&#45;&gt;5b3340ad&#45;71c9&#45;4802&#45;9f89&#45;071a9fad0db4</title>
<path fill="none" stroke="black" d="M681.4,-457.75C609.95,-441.68 472.16,-410.7 398.42,-394.11"/>
<polygon fill="black" stroke="black" points="398.98,-390.65 388.45,-391.87 397.44,-397.48 398.98,-390.65"/>
<text text-anchor="middle" x="578" y="-421.8" font-family="Times,serif" font-size="14.00">True</text>
</g>
<!-- 4258655f&#45;67b5&#45;4e1b&#45;9f64&#45;e2f778ff5377 -->
<g id="node39" class="node">
<title>4258655f&#45;67b5&#45;4e1b&#45;9f64&#45;e2f778ff5377</title>
<ellipse fill="none" stroke="black" cx="1229" cy="-382" rx="46.5" ry="18"/>
<text text-anchor="middle" x="1229" y="-378.3" font-family="Times,serif" font-size="14.00">VisionNorm</text>
</g>
<!-- e180b194&#45;1198&#45;402f&#45;8543&#45;6740c91428e0&#45;&gt;4258655f&#45;67b5&#45;4e1b&#45;9f64&#45;e2f778ff5377 -->
<g id="edge47" class="edge">
<title>e180b194&#45;1198&#45;402f&#45;8543&#45;6740c91428e0&#45;&gt;4258655f&#45;67b5&#45;4e1b&#45;9f64&#45;e2f778ff5377</title>
<path fill="none" stroke="black" d="M778.83,-458.66C809.36,-453.43 848.78,-447.15 884,-443 941.55,-436.22 956.73,-441.81 1014,-433 1072.86,-423.95 1139.48,-407.46 1182.76,-395.9"/>
<polygon fill="black" stroke="black" points="1183.68,-399.28 1192.43,-393.3 1181.86,-392.52 1183.68,-399.28"/>
<text text-anchor="middle" x="1110" y="-421.8" font-family="Times,serif" font-size="14.00">False</text>
</g>
<!-- ee824415&#45;a640&#45;44bf&#45;8f6a&#45;8273b2177d33 -->
<g id="node2" class="node">
<title>ee824415&#45;a640&#45;44bf&#45;8f6a&#45;8273b2177d33</title>
<polygon fill="none" stroke="black" points="1469,-487 1337.59,-469 1469,-451 1600.41,-469 1469,-487"/>
<text text-anchor="middle" x="1469" y="-465.3" font-family="Times,serif" font-size="14.00">Consecutive False &lt; 10</text>
</g>
<!-- ee824415&#45;a640&#45;44bf&#45;8f6a&#45;8273b2177d33&#45;&gt;4258655f&#45;67b5&#45;4e1b&#45;9f64&#45;e2f778ff5377 -->
<g id="edge45" class="edge">
<title>ee824415&#45;a640&#45;44bf&#45;8f6a&#45;8273b2177d33&#45;&gt;4258655f&#45;67b5&#45;4e1b&#45;9f64&#45;e2f778ff5377</title>
<path fill="none" stroke="black" d="M1434.36,-455.73C1391.34,-440.49 1317.96,-414.51 1271.56,-398.07"/>
<polygon fill="black" stroke="black" points="1272.68,-394.76 1262.09,-394.72 1270.34,-401.36 1272.68,-394.76"/>
<text text-anchor="middle" x="1380" y="-421.8" font-family="Times,serif" font-size="14.00">True</text>
</g>
<!-- f9954666&#45;1a3f&#45;4c7e&#45;b6ec&#45;bf7c2b986791 -->
<g id="node40" class="node">
<title>f9954666&#45;1a3f&#45;4c7e&#45;b6ec&#45;bf7c2b986791</title>
<ellipse fill="none" stroke="black" cx="1802" cy="-382" rx="59.9" ry="18"/>
<text text-anchor="middle" x="1802" y="-378.3" font-family="Times,serif" font-size="14.00">ZeroMovement</text>
</g>
<!-- ee824415&#45;a640&#45;44bf&#45;8f6a&#45;8273b2177d33&#45;&gt;f9954666&#45;1a3f&#45;4c7e&#45;b6ec&#45;bf7c2b986791 -->
<g id="edge46" class="edge">
<title>ee824415&#45;a640&#45;44bf&#45;8f6a&#45;8273b2177d33&#45;&gt;f9954666&#45;1a3f&#45;4c7e&#45;b6ec&#45;bf7c2b986791</title>
<path fill="none" stroke="black" d="M1526.5,-458.84C1558.67,-453.86 1599.52,-447.76 1636,-443 1675.91,-437.8 1688.14,-446.66 1726,-433 1743.59,-426.65 1761.17,-415.48 1774.99,-405.3"/>
<polygon fill="black" stroke="black" points="1777.23,-407.99 1783.07,-399.14 1772.99,-402.42 1777.23,-407.99"/>
<text text-anchor="middle" x="1773" y="-421.8" font-family="Times,serif" font-size="14.00">False</text>
</g>
<!-- ea25874f&#45;1650&#45;4269&#45;9ebd&#45;9794ee13c6ef -->
<g id="node3" class="node">
<title>ea25874f&#45;1650&#45;4269&#45;9ebd&#45;9794ee13c6ef</title>
<ellipse fill="none" stroke="black" cx="88" cy="-848" rx="33.6" ry="18"/>
<text text-anchor="middle" x="88" y="-844.3" font-family="Times,serif" font-size="14.00">Descend</text>
</g>
<!-- bc824714&#45;aa80&#45;45e3&#45;a3b2&#45;64103170ee2e -->
<g id="node4" class="node">
<title>bc824714&#45;aa80&#45;45e3&#45;a3b2&#45;64103170ee2e</title>
<ellipse fill="none" stroke="black" cx="88" cy="-775" rx="47.1" ry="18"/>
<text text-anchor="middle" x="88" y="-771.3" font-family="Times,serif" font-size="14.00">DelayAction</text>
</g>
<!-- ea25874f&#45;1650&#45;4269&#45;9ebd&#45;9794ee13c6ef&#45;&gt;bc824714&#45;aa80&#45;45e3&#45;a3b2&#45;64103170ee2e -->
<g id="edge1" class="edge">
<title>ea25874f&#45;1650&#45;4269&#45;9ebd&#45;9794ee13c6ef&#45;&gt;bc824714&#45;aa80&#45;45e3&#45;a3b2&#45;64103170ee2e</title>
<path fill="none" stroke="black" d="M88,-829.81C88,-821.79 88,-812.05 88,-803.07"/>
<polygon fill="black" stroke="black" points="91.5,-803.03 88,-793.03 84.5,-803.03 91.5,-803.03"/>
</g>
<!-- 1a979445&#45;9c40&#45;4f1a&#45;9c4e&#45;6ffe5140c4d6 -->
<g id="node5" class="node">
<title>1a979445&#45;9c40&#45;4f1a&#45;9c4e&#45;6ffe5140c4d6</title>
<ellipse fill="none" stroke="black" cx="91" cy="-702" rx="74.61" ry="18"/>
<text text-anchor="middle" x="91" y="-698.3" font-family="Times,serif" font-size="14.00">StraightMovement</text>
</g>
<!-- bc824714&#45;aa80&#45;45e3&#45;a3b2&#45;64103170ee2e&#45;&gt;1a979445&#45;9c40&#45;4f1a&#45;9c4e&#45;6ffe5140c4d6 -->
<g id="edge4" class="edge">
<title>bc824714&#45;aa80&#45;45e3&#45;a3b2&#45;64103170ee2e&#45;&gt;1a979445&#45;9c40&#45;4f1a&#45;9c4e&#45;6ffe5140c4d6</title>
<path fill="none" stroke="black" d="M88.73,-756.81C89.07,-748.79 89.48,-739.05 89.86,-730.07"/>
<polygon fill="black" stroke="black" points="93.36,-730.17 90.28,-720.03 86.36,-729.87 93.36,-730.17"/>
</g>
<!-- 5f46bf24&#45;476d&#45;43c2&#45;bfe4&#45;d0acc8824b53 -->
<g id="node6" class="node">
<title>5f46bf24&#45;476d&#45;43c2&#45;bfe4&#45;d0acc8824b53</title>
<ellipse fill="none" stroke="black" cx="99" cy="-629" rx="47.1" ry="18"/>
<text text-anchor="middle" x="99" y="-625.3" font-family="Times,serif" font-size="14.00">DelayAction</text>
</g>
<!-- 1a979445&#45;9c40&#45;4f1a&#45;9c4e&#45;6ffe5140c4d6&#45;&gt;5f46bf24&#45;476d&#45;43c2&#45;bfe4&#45;d0acc8824b53 -->
<g id="edge2" class="edge">
<title>1a979445&#45;9c40&#45;4f1a&#45;9c4e&#45;6ffe5140c4d6&#45;&gt;5f46bf24&#45;476d&#45;43c2&#45;bfe4&#45;d0acc8824b53</title>
<path fill="none" stroke="black" d="M92.94,-683.81C93.84,-675.79 94.94,-666.05 95.95,-657.07"/>
<polygon fill="black" stroke="black" points="99.44,-657.36 97.08,-647.03 92.48,-656.57 99.44,-657.36"/>
</g>
<!-- abbab3a7&#45;9705&#45;4b07&#45;a17e&#45;1ed59cd3747b -->
<g id="node7" class="node">
<title>abbab3a7&#45;9705&#45;4b07&#45;a17e&#45;1ed59cd3747b</title>
<ellipse fill="none" stroke="black" cx="104" cy="-542" rx="59.9" ry="18"/>
<text text-anchor="middle" x="104" y="-538.3" font-family="Times,serif" font-size="14.00">ZeroMovement</text>
</g>
<!-- 5f46bf24&#45;476d&#45;43c2&#45;bfe4&#45;d0acc8824b53&#45;&gt;abbab3a7&#45;9705&#45;4b07&#45;a17e&#45;1ed59cd3747b -->
<g id="edge3" class="edge">
<title>5f46bf24&#45;476d&#45;43c2&#45;bfe4&#45;d0acc8824b53&#45;&gt;abbab3a7&#45;9705&#45;4b07&#45;a17e&#45;1ed59cd3747b</title>
<path fill="none" stroke="black" d="M100.01,-610.8C100.7,-599.16 101.61,-583.55 102.4,-570.24"/>
<polygon fill="black" stroke="black" points="105.9,-570.36 102.99,-560.18 98.91,-569.95 105.9,-570.36"/>
</g>
<!-- 948fa899&#45;e080&#45;47e6&#45;a3c2&#45;33c7cfd44c43 -->
<g id="node11" class="node">
<title>948fa899&#45;e080&#45;47e6&#45;a3c2&#45;33c7cfd44c43</title>
<polygon fill="none" stroke="black" stroke-dasharray="5,2" points="239.5,-487 154.5,-487 154.5,-451 239.5,-451 239.5,-487"/>
<text text-anchor="middle" x="197" y="-465.3" font-family="Times,serif" font-size="14.00" fill="blue">Converge</text>
</g>
<!-- abbab3a7&#45;9705&#45;4b07&#45;a17e&#45;1ed59cd3747b&#45;&gt;948fa899&#45;e080&#45;47e6&#45;a3c2&#45;33c7cfd44c43 -->
<g id="edge8" class="edge">
<title>abbab3a7&#45;9705&#45;4b07&#45;a17e&#45;1ed59cd3747b&#45;&gt;948fa899&#45;e080&#45;47e6&#45;a3c2&#45;33c7cfd44c43</title>
<path fill="none" stroke="black" d="M125.1,-524.89C137.35,-515.54 152.99,-503.6 166.56,-493.24"/>
<polygon fill="black" stroke="black" points="168.86,-495.89 174.68,-487.04 164.61,-490.32 168.86,-495.89"/>
</g>
<!-- bc461ece&#45;7f7a&#45;4657&#45;8ca5&#45;67e13019ebd1 -->
<g id="node8" class="node">
<title>bc461ece&#45;7f7a&#45;4657&#45;8ca5&#45;67e13019ebd1</title>
<ellipse fill="none" stroke="black" cx="82" cy="-956" rx="34.8" ry="18"/>
<text text-anchor="middle" x="82" y="-952.3" font-family="Times,serif" font-size="14.00">WaitArm</text>
</g>
<!-- bc461ece&#45;7f7a&#45;4657&#45;8ca5&#45;67e13019ebd1&#45;&gt;ea25874f&#45;1650&#45;4269&#45;9ebd&#45;9794ee13c6ef -->
<g id="edge5" class="edge">
<title>bc461ece&#45;7f7a&#45;4657&#45;8ca5&#45;67e13019ebd1&#45;&gt;ea25874f&#45;1650&#45;4269&#45;9ebd&#45;9794ee13c6ef</title>
<path fill="none" stroke="black" d="M82.96,-937.97C83.9,-921.38 85.35,-895.88 86.45,-876.43"/>
<polygon fill="black" stroke="black" points="89.95,-876.52 87.02,-866.34 82.96,-876.13 89.95,-876.52"/>
</g>
<!-- 179831b6&#45;2e33&#45;4c0c&#45;a491&#45;5d680c7f3e88 -->
<g id="node9" class="node">
<title>179831b6&#45;2e33&#45;4c0c&#45;a491&#45;5d680c7f3e88</title>
<polygon fill="none" stroke="black" stroke-dasharray="5,2" points="212,-1047 114,-1047 114,-1011 212,-1011 212,-1047"/>
<text text-anchor="middle" x="163" y="-1025.3" font-family="Times,serif" font-size="14.00" fill="blue">Concurrent</text>
</g>
<!-- 179831b6&#45;2e33&#45;4c0c&#45;a491&#45;5d680c7f3e88&#45;&gt;bc461ece&#45;7f7a&#45;4657&#45;8ca5&#45;67e13019ebd1 -->
<g id="edge6" class="edge">
<title>179831b6&#45;2e33&#45;4c0c&#45;a491&#45;5d680c7f3e88&#45;&gt;bc461ece&#45;7f7a&#45;4657&#45;8ca5&#45;67e13019ebd1</title>
<path fill="none" stroke="black" d="M143.39,-1010.81C132.36,-1001.14 118.48,-988.98 106.71,-978.66"/>
<polygon fill="black" stroke="black" points="108.79,-975.82 98.96,-971.87 104.17,-981.09 108.79,-975.82"/>
</g>
<!-- 98115da8&#45;9722&#45;45c2&#45;aa8b&#45;4eda48a298df -->
<g id="node10" class="node">
<title>98115da8&#45;9722&#45;45c2&#45;aa8b&#45;4eda48a298df</title>
<ellipse fill="none" stroke="black" cx="189" cy="-902" rx="50.7" ry="18"/>
<text text-anchor="middle" x="189" y="-898.3" font-family="Times,serif" font-size="14.00">StartBno055</text>
</g>
<!-- 179831b6&#45;2e33&#45;4c0c&#45;a491&#45;5d680c7f3e88&#45;&gt;98115da8&#45;9722&#45;45c2&#45;aa8b&#45;4eda48a298df -->
<g id="edge7" class="edge">
<title>179831b6&#45;2e33&#45;4c0c&#45;a491&#45;5d680c7f3e88&#45;&gt;98115da8&#45;9722&#45;45c2&#45;aa8b&#45;4eda48a298df</title>
<path fill="none" stroke="black" d="M166.56,-1010.88C170.87,-990.15 178.19,-954.95 183.3,-930.42"/>
<polygon fill="black" stroke="black" points="186.79,-930.82 185.4,-920.31 179.94,-929.39 186.79,-930.82"/>
</g>
<!-- 98115da8&#45;9722&#45;45c2&#45;aa8b&#45;4eda48a298df&#45;&gt;948fa899&#45;e080&#45;47e6&#45;a3c2&#45;33c7cfd44c43 -->
<g id="edge9" class="edge">
<title>98115da8&#45;9722&#45;45c2&#45;aa8b&#45;4eda48a298df&#45;&gt;948fa899&#45;e080&#45;47e6&#45;a3c2&#45;33c7cfd44c43</title>
<path fill="none" stroke="black" d="M204.82,-884.8C219.47,-868.03 239,-840.36 239,-812 239,-812 239,-812 239,-541 239,-524.08 230.06,-507.66 220.43,-494.88"/>
<polygon fill="black" stroke="black" points="223.09,-492.61 214.08,-487.04 217.65,-497.01 223.09,-492.61"/>
</g>
<!-- 948fa899&#45;e080&#45;47e6&#45;a3c2&#45;33c7cfd44c43&#45;&gt;5b3340ad&#45;71c9&#45;4802&#45;9f89&#45;071a9fad0db4 -->
<g id="edge48" class="edge">
<title>948fa899&#45;e080&#45;47e6&#45;a3c2&#45;33c7cfd44c43&#45;&gt;5b3340ad&#45;71c9&#45;4802&#45;9f89&#45;071a9fad0db4</title>
<path fill="none" stroke="black" d="M227.76,-450.8C252.9,-436.74 288.43,-416.87 314.53,-402.28"/>
<polygon fill="black" stroke="black" points="316.31,-405.29 323.33,-397.35 312.9,-399.18 316.31,-405.29"/>
</g>
<!-- 55576e0e&#45;d0cb&#45;43cc&#45;849f&#45;8b97488acda4 -->
<g id="node12" class="node">
<title>55576e0e&#45;d0cb&#45;43cc&#45;849f&#45;8b97488acda4</title>
<polygon fill="none" stroke="black" stroke-dasharray="5,2" points="780,-793 598,-793 598,-757 780,-757 780,-793"/>
<text text-anchor="middle" x="689" y="-771.3" font-family="Times,serif" font-size="14.00" fill="darkgreen">FirstValid (Concurrent)</text>
</g>
<!-- cbacb606&#45;b228&#45;4300&#45;8708&#45;1551f6049d9d -->
<g id="node13" class="node">
<title>cbacb606&#45;b228&#45;4300&#45;8708&#45;1551f6049d9d</title>
<ellipse fill="none" stroke="black" cx="509" cy="-702" rx="51.3" ry="18"/>
<text text-anchor="middle" x="509" y="-698.3" font-family="Times,serif" font-size="14.00">Detect Earth</text>
</g>
<!-- 55576e0e&#45;d0cb&#45;43cc&#45;849f&#45;8b97488acda4&#45;&gt;cbacb606&#45;b228&#45;4300&#45;8708&#45;1551f6049d9d -->
<g id="edge10" class="edge">
<title>55576e0e&#45;d0cb&#45;43cc&#45;849f&#45;8b97488acda4&#45;&gt;cbacb606&#45;b228&#45;4300&#45;8708&#45;1551f6049d9d</title>
<path fill="none" stroke="black" d="M645.89,-756.99C617.23,-745.69 579.78,-730.92 551.29,-719.68"/>
<polygon fill="black" stroke="black" points="552.21,-716.28 541.62,-715.87 549.64,-722.79 552.21,-716.28"/>
</g>
<!-- 9d0d2348&#45;3caa&#45;478c&#45;a037&#45;844123373336 -->
<g id="node14" class="node">
<title>9d0d2348&#45;3caa&#45;478c&#45;a037&#45;844123373336</title>
<ellipse fill="none" stroke="black" cx="689" cy="-702" rx="57.4" ry="18"/>
<text text-anchor="middle" x="689" y="-698.3" font-family="Times,serif" font-size="14.00">Detect Abydos</text>
</g>
<!-- 55576e0e&#45;d0cb&#45;43cc&#45;849f&#45;8b97488acda4&#45;&gt;9d0d2348&#45;3caa&#45;478c&#45;a037&#45;844123373336 -->
<g id="edge11" class="edge">
<title>55576e0e&#45;d0cb&#45;43cc&#45;849f&#45;8b97488acda4&#45;&gt;9d0d2348&#45;3caa&#45;478c&#45;a037&#45;844123373336</title>
<path fill="none" stroke="black" d="M689,-756.81C689,-748.79 689,-739.05 689,-730.07"/>
<polygon fill="black" stroke="black" points="692.5,-730.03 689,-720.03 685.5,-730.03 692.5,-730.03"/>
</g>
<!-- 2e9100e1&#45;a926&#45;48e4&#45;93fb&#45;a3bf3c8a4493 -->
<g id="node15" class="node">
<title>2e9100e1&#45;a926&#45;48e4&#45;93fb&#45;a3bf3c8a4493</title>
<ellipse fill="none" stroke="black" cx="888" cy="-702" rx="69.71" ry="18"/>
<text text-anchor="middle" x="888" y="-698.3" font-family="Times,serif" font-size="14.00">Detect LargeGate</text>
</g>
<!-- 55576e0e&#45;d0cb&#45;43cc&#45;849f&#45;8b97488acda4&#45;&gt;2e9100e1&#45;a926&#45;48e4&#45;93fb&#45;a3bf3c8a4493 -->
<g id="edge12" class="edge">
<title>55576e0e&#45;d0cb&#45;43cc&#45;849f&#45;8b97488acda4&#45;&gt;2e9100e1&#45;a926&#45;48e4&#45;93fb&#45;a3bf3c8a4493</title>
<path fill="none" stroke="black" d="M736.67,-756.99C767.58,-745.96 807.77,-731.63 838.96,-720.5"/>
<polygon fill="black" stroke="black" points="840.5,-723.66 848.75,-717.01 838.15,-717.07 840.5,-723.66"/>
</g>
<!-- 64690dcd&#45;a1d9&#45;427e&#45;be31&#45;b5111496e7b2 -->
<g id="node16" class="node">
<title>64690dcd&#45;a1d9&#45;427e&#45;be31&#45;b5111496e7b2</title>
<ellipse fill="none" stroke="black" cx="1075" cy="-702" rx="45.2" ry="18"/>
<text text-anchor="middle" x="1075" y="-698.3" font-family="Times,serif" font-size="14.00">Detect Pole</text>
</g>
<!-- 55576e0e&#45;d0cb&#45;43cc&#45;849f&#45;8b97488acda4&#45;&gt;64690dcd&#45;a1d9&#45;427e&#45;be31&#45;b5111496e7b2 -->
<g id="edge13" class="edge">
<title>55576e0e&#45;d0cb&#45;43cc&#45;849f&#45;8b97488acda4&#45;&gt;64690dcd&#45;a1d9&#45;427e&#45;be31&#45;b5111496e7b2</title>
<path fill="none" stroke="black" d="M780.23,-758.62C840.91,-748.21 922.33,-733.86 994,-720 1004.48,-717.97 1015.69,-715.69 1026.34,-713.47"/>
<polygon fill="black" stroke="black" points="1027.25,-716.86 1036.32,-711.38 1025.82,-710.01 1027.25,-716.86"/>
</g>
<!-- 2a9fe34d&#45;ebd6&#45;4684&#45;8389&#45;8987bf948cc7 -->
<g id="node17" class="node">
<title>2a9fe34d&#45;ebd6&#45;4684&#45;8389&#45;8987bf948cc7</title>
<polygon fill="none" stroke="black" stroke-dasharray="5,2" points="876.5,-647 791.5,-647 791.5,-611 876.5,-611 876.5,-647"/>
<text text-anchor="middle" x="834" y="-625.3" font-family="Times,serif" font-size="14.00" fill="darkgreen">Converge</text>
</g>
<!-- cbacb606&#45;b228&#45;4300&#45;8708&#45;1551f6049d9d&#45;&gt;2a9fe34d&#45;ebd6&#45;4684&#45;8389&#45;8987bf948cc7 -->
<g id="edge14" class="edge">
<title>cbacb606&#45;b228&#45;4300&#45;8708&#45;1551f6049d9d&#45;&gt;2a9fe34d&#45;ebd6&#45;4684&#45;8389&#45;8987bf948cc7</title>
<path fill="none" stroke="black" d="M551.15,-691.79C610.17,-678.9 717.37,-655.48 781.5,-641.47"/>
<polygon fill="black" stroke="black" points="782.38,-644.86 791.4,-639.31 780.89,-638.02 782.38,-644.86"/>
</g>
<!-- 9d0d2348&#45;3caa&#45;478c&#45;a037&#45;844123373336&#45;&gt;2a9fe34d&#45;ebd6&#45;4684&#45;8389&#45;8987bf948cc7 -->
<g id="edge15" class="edge">
<title>9d0d2348&#45;3caa&#45;478c&#45;a037&#45;844123373336&#45;&gt;2a9fe34d&#45;ebd6&#45;4684&#45;8389&#45;8987bf948cc7</title>
<path fill="none" stroke="black" d="M718.69,-686.46C739.23,-676.41 766.9,-662.85 789.99,-651.55"/>
<polygon fill="black" stroke="black" points="791.8,-654.56 799.24,-647.02 788.72,-648.27 791.8,-654.56"/>
</g>
<!-- 2e9100e1&#45;a926&#45;48e4&#45;93fb&#45;a3bf3c8a4493&#45;&gt;2a9fe34d&#45;ebd6&#45;4684&#45;8389&#45;8987bf948cc7 -->
<g id="edge16" class="edge">
<title>2e9100e1&#45;a926&#45;48e4&#45;93fb&#45;a3bf3c8a4493&#45;&gt;2a9fe34d&#45;ebd6&#45;4684&#45;8389&#45;8987bf948cc7</title>
<path fill="none" stroke="black" d="M875.2,-684.17C868.64,-675.55 860.52,-664.86 853.22,-655.27"/>
<polygon fill="black" stroke="black" points="855.92,-653.04 847.08,-647.2 850.35,-657.28 855.92,-653.04"/>
</g>
<!-- 64690dcd&#45;a1d9&#45;427e&#45;be31&#45;b5111496e7b2&#45;&gt;2a9fe34d&#45;ebd6&#45;4684&#45;8389&#45;8987bf948cc7 -->
<g id="edge17" class="edge">
<title>64690dcd&#45;a1d9&#45;427e&#45;be31&#45;b5111496e7b2&#45;&gt;2a9fe34d&#45;ebd6&#45;4684&#45;8389&#45;8987bf948cc7</title>
<path fill="none" stroke="black" d="M1039.7,-690.6C999.38,-678.72 933.01,-659.17 886.6,-645.5"/>
<polygon fill="black" stroke="black" points="887.3,-642.05 876.72,-642.59 885.32,-648.77 887.3,-642.05"/>
</g>
<!-- 1844317f&#45;3973&#45;402e&#45;b249&#45;bc2e63a2b52c -->
<g id="node24" class="node">
<title>1844317f&#45;3973&#45;402e&#45;b249&#45;bc2e63a2b52c</title>
<polygon fill="none" stroke="black" stroke-dasharray="5,2" points="883,-560 785,-560 785,-524 883,-524 883,-560"/>
<text text-anchor="middle" x="834" y="-538.3" font-family="Times,serif" font-size="14.00" fill="blue">Concurrent</text>
</g>
<!-- 2a9fe34d&#45;ebd6&#45;4684&#45;8389&#45;8987bf948cc7&#45;&gt;1844317f&#45;3973&#45;402e&#45;b249&#45;bc2e63a2b52c -->
<g id="edge40" class="edge">
<title>2a9fe34d&#45;ebd6&#45;4684&#45;8389&#45;8987bf948cc7&#45;&gt;1844317f&#45;3973&#45;402e&#45;b249&#45;bc2e63a2b52c</title>
<path fill="none" stroke="purple" d="M834,-610.8C834,-599.16 834,-583.55 834,-570.24"/>
<polygon fill="purple" stroke="purple" points="837.5,-570.18 834,-560.18 830.5,-570.18 837.5,-570.18"/>
<text text-anchor="middle" x="869.5" y="-581.8" font-family="Times,serif" font-size="14.00" fill="purple">Pass Data</text>
</g>
<!-- fc14618a&#45;56d7&#45;460e&#45;a989&#45;1f8acda95843 -->
<g id="node18" class="node">
<title>fc14618a&#45;56d7&#45;460e&#45;a989&#45;1f8acda95843</title>
<ellipse fill="none" stroke="black" cx="894" cy="-121" rx="67.81" ry="18"/>
<text text-anchor="middle" x="894" y="-117.3" font-family="Times,serif" font-size="14.00">LinearYawFromX</text>
</g>
<!-- f3064819&#45;2db2&#45;4612&#45;baef&#45;0d320f20c123 -->
<g id="node19" class="node">
<title>f3064819&#45;2db2&#45;4612&#45;baef&#45;0d320f20c123</title>
<ellipse fill="none" stroke="black" cx="894" cy="-34" rx="80.11" ry="18"/>
<text text-anchor="middle" x="894" y="-30.3" font-family="Times,serif" font-size="14.00">Stability2Movement</text>
</g>
<!-- fc14618a&#45;56d7&#45;460e&#45;a989&#45;1f8acda95843&#45;&gt;f3064819&#45;2db2&#45;4612&#45;baef&#45;0d320f20c123 -->
<g id="edge18" class="edge">
<title>fc14618a&#45;56d7&#45;460e&#45;a989&#45;1f8acda95843&#45;&gt;f3064819&#45;2db2&#45;4612&#45;baef&#45;0d320f20c123</title>
<path fill="none" stroke="purple" d="M894,-102.8C894,-91.16 894,-75.55 894,-62.24"/>
<polygon fill="purple" stroke="purple" points="897.5,-62.18 894,-52.18 890.5,-62.18 897.5,-62.18"/>
<text text-anchor="middle" x="929.5" y="-73.8" font-family="Times,serif" font-size="14.00" fill="purple">Pass Data</text>
</g>
<!-- e0920fc6&#45;7c09&#45;4786&#45;b069&#45;d1c656f6ce9a -->
<g id="node20" class="node">
<title>e0920fc6&#45;7c09&#45;4786&#45;b069&#45;d1c656f6ce9a</title>
<ellipse fill="none" stroke="black" cx="895" cy="-208" rx="51.3" ry="18"/>
<text text-anchor="middle" x="895" y="-204.3" font-family="Times,serif" font-size="14.00">OffsetToPose</text>
</g>
<!-- e0920fc6&#45;7c09&#45;4786&#45;b069&#45;d1c656f6ce9a&#45;&gt;fc14618a&#45;56d7&#45;460e&#45;a989&#45;1f8acda95843 -->
<g id="edge19" class="edge">
<title>e0920fc6&#45;7c09&#45;4786&#45;b069&#45;d1c656f6ce9a&#45;&gt;fc14618a&#45;56d7&#45;460e&#45;a989&#45;1f8acda95843</title>
<path fill="none" stroke="purple" d="M894.8,-189.8C894.66,-178.16 894.48,-162.55 894.32,-149.24"/>
<polygon fill="purple" stroke="purple" points="897.82,-149.13 894.2,-139.18 890.82,-149.22 897.82,-149.13"/>
<text text-anchor="middle" x="929.5" y="-160.8" font-family="Times,serif" font-size="14.00" fill="purple">Pass Data</text>
</g>
<!-- d7dd4a0c&#45;cc23&#45;4daa&#45;9dc0&#45;d823875e6a44 -->
<g id="node21" class="node">
<title>d7dd4a0c&#45;cc23&#45;4daa&#45;9dc0&#45;d823875e6a44</title>
<ellipse fill="none" stroke="black" cx="896" cy="-295" rx="32.4" ry="18"/>
<text text-anchor="middle" x="896" y="-291.3" font-family="Times,serif" font-size="14.00">Average</text>
</g>
<!-- d7dd4a0c&#45;cc23&#45;4daa&#45;9dc0&#45;d823875e6a44&#45;&gt;e0920fc6&#45;7c09&#45;4786&#45;b069&#45;d1c656f6ce9a -->
<g id="edge20" class="edge">
<title>d7dd4a0c&#45;cc23&#45;4daa&#45;9dc0&#45;d823875e6a44&#45;&gt;e0920fc6&#45;7c09&#45;4786&#45;b069&#45;d1c656f6ce9a</title>
<path fill="none" stroke="purple" d="M895.8,-276.8C895.66,-265.16 895.48,-249.55 895.32,-236.24"/>
<polygon fill="purple" stroke="purple" points="898.82,-236.13 895.2,-226.18 891.82,-236.22 898.82,-236.13"/>
<text text-anchor="middle" x="930.5" y="-247.8" font-family="Times,serif" font-size="14.00" fill="purple">Pass Data</text>
</g>
<!-- 148ae591&#45;427c&#45;4901&#45;84de&#45;00c340fcb4bb -->
<g id="node22" class="node">
<title>148ae591&#45;427c&#45;4901&#45;84de&#45;00c340fcb4bb</title>
<ellipse fill="none" stroke="black" cx="898" cy="-382" rx="61.1" ry="18"/>
<text text-anchor="middle" x="898" y="-378.3" font-family="Times,serif" font-size="14.00">ExtractPosition</text>
</g>
<!-- 148ae591&#45;427c&#45;4901&#45;84de&#45;00c340fcb4bb&#45;&gt;d7dd4a0c&#45;cc23&#45;4daa&#45;9dc0&#45;d823875e6a44 -->
<g id="edge21" class="edge">
<title>148ae591&#45;427c&#45;4901&#45;84de&#45;00c340fcb4bb&#45;&gt;d7dd4a0c&#45;cc23&#45;4daa&#45;9dc0&#45;d823875e6a44</title>
<path fill="none" stroke="purple" d="M897.6,-363.8C897.32,-352.16 896.95,-336.55 896.64,-323.24"/>
<polygon fill="purple" stroke="purple" points="900.14,-323.09 896.4,-313.18 893.14,-323.26 900.14,-323.09"/>
<text text-anchor="middle" x="932.5" y="-334.8" font-family="Times,serif" font-size="14.00" fill="purple">Pass Data</text>
</g>
<!-- 771d44eb&#45;8f51&#45;4468&#45;bd1d&#45;beafc86acb32 -->
<g id="node23" class="node">
<title>771d44eb&#45;8f51&#45;4468&#45;bd1d&#45;beafc86acb32</title>
<ellipse fill="none" stroke="black" cx="947" cy="-469" rx="27" ry="18"/>
<text text-anchor="middle" x="947" y="-465.3" font-family="Times,serif" font-size="14.00">ToVec</text>
</g>
<!-- 771d44eb&#45;8f51&#45;4468&#45;bd1d&#45;beafc86acb32&#45;&gt;148ae591&#45;427c&#45;4901&#45;84de&#45;00c340fcb4bb -->
<g id="edge22" class="edge">
<title>771d44eb&#45;8f51&#45;4468&#45;bd1d&#45;beafc86acb32&#45;&gt;148ae591&#45;427c&#45;4901&#45;84de&#45;00c340fcb4bb</title>
<path fill="none" stroke="purple" d="M937.78,-452.01C930.73,-439.78 920.87,-422.68 912.73,-408.56"/>
<polygon fill="purple" stroke="purple" points="915.7,-406.7 907.68,-399.79 909.64,-410.2 915.7,-406.7"/>
<text text-anchor="middle" x="960.5" y="-421.8" font-family="Times,serif" font-size="14.00" fill="purple">Pass Data</text>
</g>
<!-- 1844317f&#45;3973&#45;402e&#45;b249&#45;bc2e63a2b52c&#45;&gt;e180b194&#45;1198&#45;402f&#45;8543&#45;6740c91428e0 -->
<g id="edge24" class="edge">
<title>1844317f&#45;3973&#45;402e&#45;b249&#45;bc2e63a2b52c&#45;&gt;e180b194&#45;1198&#45;402f&#45;8543&#45;6740c91428e0</title>
<path fill="none" stroke="black" d="M808.37,-523.99C792.83,-513.68 772.92,-500.47 756.69,-489.7"/>
<polygon fill="black" stroke="black" points="758.37,-486.62 748.11,-484.01 754.5,-492.45 758.37,-486.62"/>
</g>
<!-- 1844317f&#45;3973&#45;402e&#45;b249&#45;bc2e63a2b52c&#45;&gt;771d44eb&#45;8f51&#45;4468&#45;bd1d&#45;beafc86acb32 -->
<g id="edge23" class="edge">
<title>1844317f&#45;3973&#45;402e&#45;b249&#45;bc2e63a2b52c&#45;&gt;771d44eb&#45;8f51&#45;4468&#45;bd1d&#45;beafc86acb32</title>
<path fill="none" stroke="black" d="M861.07,-523.99C878.64,-512.95 901.47,-498.6 919.19,-487.47"/>
<polygon fill="black" stroke="black" points="921.33,-490.26 927.93,-481.98 917.6,-484.34 921.33,-490.26"/>
</g>
<!-- d93a55a0&#45;7ab1&#45;4e49&#45;842a&#45;9ce7021f5a2e -->
<g id="node25" class="node">
<title>d93a55a0&#45;7ab1&#45;4e49&#45;842a&#45;9ce7021f5a2e</title>
<polygon fill="none" stroke="black" stroke-dasharray="5,2" points="1660,-793 1478,-793 1478,-757 1660,-757 1660,-793"/>
<text text-anchor="middle" x="1569" y="-771.3" font-family="Times,serif" font-size="14.00" fill="darkgreen">FirstValid (Concurrent)</text>
</g>
<!-- 16bc2a3c&#45;5c60&#45;4da2&#45;adbf&#45;424ce005b43c -->
<g id="node26" class="node">
<title>16bc2a3c&#45;5c60&#45;4da2&#45;adbf&#45;424ce005b43c</title>
<ellipse fill="none" stroke="black" cx="1389" cy="-702" rx="51.3" ry="18"/>
<text text-anchor="middle" x="1389" y="-698.3" font-family="Times,serif" font-size="14.00">Detect Earth</text>
</g>
<!-- d93a55a0&#45;7ab1&#45;4e49&#45;842a&#45;9ce7021f5a2e&#45;&gt;16bc2a3c&#45;5c60&#45;4da2&#45;adbf&#45;424ce005b43c -->
<g id="edge25" class="edge">
<title>d93a55a0&#45;7ab1&#45;4e49&#45;842a&#45;9ce7021f5a2e&#45;&gt;16bc2a3c&#45;5c60&#45;4da2&#45;adbf&#45;424ce005b43c</title>
<path fill="none" stroke="black" d="M1525.89,-756.99C1497.23,-745.69 1459.78,-730.92 1431.29,-719.68"/>
<polygon fill="black" stroke="black" points="1432.21,-716.28 1421.62,-715.87 1429.64,-722.79 1432.21,-716.28"/>
</g>
<!-- 58593ff1&#45;6f53&#45;44ef&#45;8ff3&#45;00775837e9a8 -->
<g id="node27" class="node">
<title>58593ff1&#45;6f53&#45;44ef&#45;8ff3&#45;00775837e9a8</title>
<ellipse fill="none" stroke="black" cx="1569" cy="-702" rx="57.4" ry="18"/>
<text text-anchor="middle" x="1569" y="-698.3" font-family="Times,serif" font-size="14.00">Detect Abydos</text>
</g>
<!-- d93a55a0&#45;7ab1&#45;4e49&#45;842a&#45;9ce7021f5a2e&#45;&gt;58593ff1&#45;6f53&#45;44ef&#45;8ff3&#45;00775837e9a8 -->
<g id="edge26" class="edge">
<title>d93a55a0&#45;7ab1&#45;4e49&#45;842a&#45;9ce7021f5a2e&#45;&gt;58593ff1&#45;6f53&#45;44ef&#45;8ff3&#45;00775837e9a8</title>
<path fill="none" stroke="black" d="M1569,-756.81C1569,-748.79 1569,-739.05 1569,-730.07"/>
<polygon fill="black" stroke="black" points="1572.5,-730.03 1569,-720.03 1565.5,-730.03 1572.5,-730.03"/>
</g>
<!-- bc953f07&#45;923d&#45;4034&#45;a0d2&#45;2739ff45641c -->
<g id="node28" class="node">
<title>bc953f07&#45;923d&#45;4034&#45;a0d2&#45;2739ff45641c</title>
<ellipse fill="none" stroke="black" cx="1768" cy="-702" rx="69.71" ry="18"/>
<text text-anchor="middle" x="1768" y="-698.3" font-family="Times,serif" font-size="14.00">Detect LargeGate</text>
</g>
<!-- d93a55a0&#45;7ab1&#45;4e49&#45;842a&#45;9ce7021f5a2e&#45;&gt;bc953f07&#45;923d&#45;4034&#45;a0d2&#45;2739ff45641c -->
<g id="edge27" class="edge">
<title>d93a55a0&#45;7ab1&#45;4e49&#45;842a&#45;9ce7021f5a2e&#45;&gt;bc953f07&#45;923d&#45;4034&#45;a0d2&#45;2739ff45641c</title>
<path fill="none" stroke="black" d="M1616.67,-756.99C1647.58,-745.96 1687.77,-731.63 1718.96,-720.5"/>
<polygon fill="black" stroke="black" points="1720.5,-723.66 1728.75,-717.01 1718.15,-717.07 1720.5,-723.66"/>
</g>
<!-- 9cbfb7ed&#45;c445&#45;411c&#45;9a64&#45;d9085847ce67 -->
<g id="node29" class="node">
<title>9cbfb7ed&#45;c445&#45;411c&#45;9a64&#45;d9085847ce67</title>
<ellipse fill="none" stroke="black" cx="1955" cy="-702" rx="45.2" ry="18"/>
<text text-anchor="middle" x="1955" y="-698.3" font-family="Times,serif" font-size="14.00">Detect Pole</text>
</g>
<!-- d93a55a0&#45;7ab1&#45;4e49&#45;842a&#45;9ce7021f5a2e&#45;&gt;9cbfb7ed&#45;c445&#45;411c&#45;9a64&#45;d9085847ce67 -->
<g id="edge28" class="edge">
<title>d93a55a0&#45;7ab1&#45;4e49&#45;842a&#45;9ce7021f5a2e&#45;&gt;9cbfb7ed&#45;c445&#45;411c&#45;9a64&#45;d9085847ce67</title>
<path fill="none" stroke="black" d="M1660.23,-758.62C1720.91,-748.21 1802.33,-733.86 1874,-720 1884.48,-717.97 1895.69,-715.69 1906.34,-713.47"/>
<polygon fill="black" stroke="black" points="1907.25,-716.86 1916.32,-711.38 1905.82,-710.01 1907.25,-716.86"/>
</g>
<!-- 17447fcc&#45;d31a&#45;4c40&#45;a9f5&#45;7650a9e4325d -->
<g id="node30" class="node">
<title>17447fcc&#45;d31a&#45;4c40&#45;a9f5&#45;7650a9e4325d</title>
<polygon fill="none" stroke="black" stroke-dasharray="5,2" points="1683.5,-647 1598.5,-647 1598.5,-611 1683.5,-611 1683.5,-647"/>
<text text-anchor="middle" x="1641" y="-625.3" font-family="Times,serif" font-size="14.00" fill="darkgreen">Converge</text>
</g>
<!-- 16bc2a3c&#45;5c60&#45;4da2&#45;adbf&#45;424ce005b43c&#45;&gt;17447fcc&#45;d31a&#45;4c40&#45;a9f5&#45;7650a9e4325d -->
<g id="edge29" class="edge">
<title>16bc2a3c&#45;5c60&#45;4da2&#45;adbf&#45;424ce005b43c&#45;&gt;17447fcc&#45;d31a&#45;4c40&#45;a9f5&#45;7650a9e4325d</title>
<path fill="none" stroke="black" d="M1427.55,-690.14C1470.54,-678.03 1540.34,-658.36 1588.34,-644.84"/>
<polygon fill="black" stroke="black" points="1589.56,-648.13 1598.24,-642.05 1587.66,-641.39 1589.56,-648.13"/>
</g>
<!-- 58593ff1&#45;6f53&#45;44ef&#45;8ff3&#45;00775837e9a8&#45;&gt;17447fcc&#45;d31a&#45;4c40&#45;a9f5&#45;7650a9e4325d -->
<g id="edge30" class="edge">
<title>58593ff1&#45;6f53&#45;44ef&#45;8ff3&#45;00775837e9a8&#45;&gt;17447fcc&#45;d31a&#45;4c40&#45;a9f5&#45;7650a9e4325d</title>
<path fill="none" stroke="black" d="M1585.7,-684.53C1594.7,-675.65 1605.99,-664.52 1616.02,-654.63"/>
<polygon fill="black" stroke="black" points="1618.72,-656.88 1623.39,-647.37 1613.81,-651.9 1618.72,-656.88"/>
</g>
<!-- bc953f07&#45;923d&#45;4034&#45;a0d2&#45;2739ff45641c&#45;&gt;17447fcc&#45;d31a&#45;4c40&#45;a9f5&#45;7650a9e4325d -->
<g id="edge31" class="edge">
<title>bc953f07&#45;923d&#45;4034&#45;a0d2&#45;2739ff45641c&#45;&gt;17447fcc&#45;d31a&#45;4c40&#45;a9f5&#45;7650a9e4325d</title>
<path fill="none" stroke="black" d="M1740.13,-685.42C1722.61,-675.62 1699.73,-662.83 1680.37,-652.01"/>
<polygon fill="black" stroke="black" points="1681.91,-648.86 1671.47,-647.04 1678.49,-654.97 1681.91,-648.86"/>
</g>
<!-- 9cbfb7ed&#45;c445&#45;411c&#45;9a64&#45;d9085847ce67&#45;&gt;17447fcc&#45;d31a&#45;4c40&#45;a9f5&#45;7650a9e4325d -->
<g id="edge32" class="edge">
<title>9cbfb7ed&#45;c445&#45;411c&#45;9a64&#45;d9085847ce67&#45;&gt;17447fcc&#45;d31a&#45;4c40&#45;a9f5&#45;7650a9e4325d</title>
<path fill="none" stroke="black" d="M1916.81,-692.36C1860.88,-679.72 1756.51,-656.12 1693.43,-641.86"/>
<polygon fill="black" stroke="black" points="1694.2,-638.44 1683.68,-639.65 1692.66,-645.27 1694.2,-638.44"/>
</g>
<!-- 2c051ac4&#45;b962&#45;46d1&#45;b652&#45;52bd7bb83f80 -->
<g id="node37" class="node">
<title>2c051ac4&#45;b962&#45;46d1&#45;b652&#45;52bd7bb83f80</title>
<polygon fill="none" stroke="black" stroke-dasharray="5,2" points="1690,-560 1592,-560 1592,-524 1690,-524 1690,-560"/>
<text text-anchor="middle" x="1641" y="-538.3" font-family="Times,serif" font-size="14.00" fill="blue">Concurrent</text>
</g>
<!-- 17447fcc&#45;d31a&#45;4c40&#45;a9f5&#45;7650a9e4325d&#45;&gt;2c051ac4&#45;b962&#45;46d1&#45;b652&#45;52bd7bb83f80 -->
<g id="edge43" class="edge">
<title>17447fcc&#45;d31a&#45;4c40&#45;a9f5&#45;7650a9e4325d&#45;&gt;2c051ac4&#45;b962&#45;46d1&#45;b652&#45;52bd7bb83f80</title>
<path fill="none" stroke="purple" d="M1641,-610.8C1641,-599.16 1641,-583.55 1641,-570.24"/>
<polygon fill="purple" stroke="purple" points="1644.5,-570.18 1641,-560.18 1637.5,-570.18 1644.5,-570.18"/>
<text text-anchor="middle" x="1676.5" y="-581.8" font-family="Times,serif" font-size="14.00" fill="purple">Pass Data</text>
</g>
<!-- 2cfa4326&#45;584d&#45;413d&#45;9e3b&#45;42e13b00f0df -->
<g id="node31" class="node">
<title>2cfa4326&#45;584d&#45;413d&#45;9e3b&#45;42e13b00f0df</title>
<ellipse fill="none" stroke="black" cx="1609" cy="-121" rx="67.81" ry="18"/>
<text text-anchor="middle" x="1609" y="-117.3" font-family="Times,serif" font-size="14.00">LinearYawFromX</text>
</g>
<!-- eb8f8307&#45;d469&#45;421c&#45;a095&#45;e9b4e4250ddb -->
<g id="node32" class="node">
<title>eb8f8307&#45;d469&#45;421c&#45;a095&#45;e9b4e4250ddb</title>
<ellipse fill="none" stroke="black" cx="1609" cy="-34" rx="80.11" ry="18"/>
<text text-anchor="middle" x="1609" y="-30.3" font-family="Times,serif" font-size="14.00">Stability2Movement</text>
</g>
<!-- 2cfa4326&#45;584d&#45;413d&#45;9e3b&#45;42e13b00f0df&#45;&gt;eb8f8307&#45;d469&#45;421c&#45;a095&#45;e9b4e4250ddb -->
<g id="edge33" class="edge">
<title>2cfa4326&#45;584d&#45;413d&#45;9e3b&#45;42e13b00f0df&#45;&gt;eb8f8307&#45;d469&#45;421c&#45;a095&#45;e9b4e4250ddb</title>
<path fill="none" stroke="purple" d="M1609,-102.8C1609,-91.16 1609,-75.55 1609,-62.24"/>
<polygon fill="purple" stroke="purple" points="1612.5,-62.18 1609,-52.18 1605.5,-62.18 1612.5,-62.18"/>
<text text-anchor="middle" x="1644.5" y="-73.8" font-family="Times,serif" font-size="14.00" fill="purple">Pass Data</text>
</g>
<!-- 132301c9&#45;0104&#45;4ab8&#45;804b&#45;7b1546a23843 -->
<g id="node33" class="node">
<title>132301c9&#45;0104&#45;4ab8&#45;804b&#45;7b1546a23843</title>
<ellipse fill="none" stroke="black" cx="1609" cy="-208" rx="51.3" ry="18"/>
<text text-anchor="middle" x="1609" y="-204.3" font-family="Times,serif" font-size="14.00">OffsetToPose</text>
</g>
<!-- 132301c9&#45;0104&#45;4ab8&#45;804b&#45;7b1546a23843&#45;&gt;2cfa4326&#45;584d&#45;413d&#45;9e3b&#45;42e13b00f0df -->
<g id="edge34" class="edge">
<title>132301c9&#45;0104&#45;4ab8&#45;804b&#45;7b1546a23843&#45;&gt;2cfa4326&#45;584d&#45;413d&#45;9e3b&#45;42e13b00f0df</title>
<path fill="none" stroke="purple" d="M1609,-189.8C1609,-178.16 1609,-162.55 1609,-149.24"/>
<polygon fill="purple" stroke="purple" points="1612.5,-149.18 1609,-139.18 1605.5,-149.18 1612.5,-149.18"/>
<text text-anchor="middle" x="1644.5" y="-160.8" font-family="Times,serif" font-size="14.00" fill="purple">Pass Data</text>
</g>
<!-- 92ed2b93&#45;2ccd&#45;45e3&#45;97fd&#45;bb1c690763bc -->
<g id="node34" class="node">
<title>92ed2b93&#45;2ccd&#45;45e3&#45;97fd&#45;bb1c690763bc</title>
<ellipse fill="none" stroke="black" cx="1609" cy="-295" rx="32.4" ry="18"/>
<text text-anchor="middle" x="1609" y="-291.3" font-family="Times,serif" font-size="14.00">Average</text>
</g>
<!-- 92ed2b93&#45;2ccd&#45;45e3&#45;97fd&#45;bb1c690763bc&#45;&gt;132301c9&#45;0104&#45;4ab8&#45;804b&#45;7b1546a23843 -->
<g id="edge35" class="edge">
<title>92ed2b93&#45;2ccd&#45;45e3&#45;97fd&#45;bb1c690763bc&#45;&gt;132301c9&#45;0104&#45;4ab8&#45;804b&#45;7b1546a23843</title>
<path fill="none" stroke="purple" d="M1609,-276.8C1609,-265.16 1609,-249.55 1609,-236.24"/>
<polygon fill="purple" stroke="purple" points="1612.5,-236.18 1609,-226.18 1605.5,-236.18 1612.5,-236.18"/>
<text text-anchor="middle" x="1644.5" y="-247.8" font-family="Times,serif" font-size="14.00" fill="purple">Pass Data</text>
</g>
<!-- f0da0d1f&#45;fc3b&#45;49ee&#45;8d46&#45;f9aabaf233b2 -->
<g id="node35" class="node">
<title>f0da0d1f&#45;fc3b&#45;49ee&#45;8d46&#45;f9aabaf233b2</title>
<ellipse fill="none" stroke="black" cx="1609" cy="-382" rx="61.1" ry="18"/>
<text text-anchor="middle" x="1609" y="-378.3" font-family="Times,serif" font-size="14.00">ExtractPosition</text>
</g>
<!-- f0da0d1f&#45;fc3b&#45;49ee&#45;8d46&#45;f9aabaf233b2&#45;&gt;92ed2b93&#45;2ccd&#45;45e3&#45;97fd&#45;bb1c690763bc -->
<g id="edge36" class="edge">
<title>f0da0d1f&#45;fc3b&#45;49ee&#45;8d46&#45;f9aabaf233b2&#45;&gt;92ed2b93&#45;2ccd&#45;45e3&#45;97fd&#45;bb1c690763bc</title>
<path fill="none" stroke="purple" d="M1609,-363.8C1609,-352.16 1609,-336.55 1609,-323.24"/>
<polygon fill="purple" stroke="purple" points="1612.5,-323.18 1609,-313.18 1605.5,-323.18 1612.5,-323.18"/>
<text text-anchor="middle" x="1644.5" y="-334.8" font-family="Times,serif" font-size="14.00" fill="purple">Pass Data</text>
</g>
<!-- 0db655f1&#45;2ae7&#45;486a&#45;9aef&#45;42a05bbfa0b1 -->
<g id="node36" class="node">
<title>0db655f1&#45;2ae7&#45;486a&#45;9aef&#45;42a05bbfa0b1</title>
<ellipse fill="none" stroke="black" cx="1699" cy="-469" rx="27" ry="18"/>
<text text-anchor="middle" x="1699" y="-465.3" font-family="Times,serif" font-size="14.00">ToVec</text>
</g>
<!-- 0db655f1&#45;2ae7&#45;486a&#45;9aef&#45;42a05bbfa0b1&#45;&gt;f0da0d1f&#45;fc3b&#45;49ee&#45;8d46&#45;f9aabaf233b2 -->
<g id="edge37" class="edge">
<title>0db655f1&#45;2ae7&#45;486a&#45;9aef&#45;42a05bbfa0b1&#45;&gt;f0da0d1f&#45;fc3b&#45;49ee&#45;8d46&#45;f9aabaf233b2</title>
<path fill="none" stroke="purple" d="M1677.25,-457.94C1665.61,-451.84 1651.53,-443.26 1641,-433 1633.84,-426.03 1627.52,-417.17 1622.42,-408.85"/>
<polygon fill="purple" stroke="purple" points="1625.43,-407.05 1617.39,-400.15 1619.37,-410.56 1625.43,-407.05"/>
<text text-anchor="middle" x="1676.5" y="-421.8" font-family="Times,serif" font-size="14.00" fill="purple">Pass Data</text>
</g>
<!-- 2c051ac4&#45;b962&#45;46d1&#45;b652&#45;52bd7bb83f80&#45;&gt;ee824415&#45;a640&#45;44bf&#45;8f6a&#45;8273b2177d33 -->
<g id="edge39" class="edge">
<title>2c051ac4&#45;b962&#45;46d1&#45;b652&#45;52bd7bb83f80&#45;&gt;ee824415&#45;a640&#45;44bf&#45;8f6a&#45;8273b2177d33</title>
<path fill="none" stroke="black" d="M1599.8,-523.99C1572.54,-512.74 1536.94,-498.05 1509.77,-486.83"/>
<polygon fill="black" stroke="black" points="1510.75,-483.45 1500.17,-482.87 1508.08,-489.92 1510.75,-483.45"/>
</g>
<!-- 2c051ac4&#45;b962&#45;46d1&#45;b652&#45;52bd7bb83f80&#45;&gt;0db655f1&#45;2ae7&#45;486a&#45;9aef&#45;42a05bbfa0b1 -->
<g id="edge38" class="edge">
<title>2c051ac4&#45;b962&#45;46d1&#45;b652&#45;52bd7bb83f80&#45;&gt;0db655f1&#45;2ae7&#45;486a&#45;9aef&#45;42a05bbfa0b1</title>
<path fill="none" stroke="black" d="M1655.04,-523.81C1662.58,-514.58 1671.99,-503.07 1680.16,-493.07"/>
<polygon fill="black" stroke="black" points="1683.05,-495.06 1686.66,-485.1 1677.63,-490.63 1683.05,-495.06"/>
</g>
<!-- 5b3340ad&#45;71c9&#45;4802&#45;9f89&#45;071a9fad0db4&#45;&gt;55576e0e&#45;d0cb&#45;43cc&#45;849f&#45;8b97488acda4 -->
<g id="edge41" class="edge">
<title>5b3340ad&#45;71c9&#45;4802&#45;9f89&#45;071a9fad0db4&#45;&gt;55576e0e&#45;d0cb&#45;43cc&#45;849f&#45;8b97488acda4</title>
<path fill="none" stroke="purple" d="M349,-400.26C349,-417.43 349,-444.54 349,-468 349,-703 349,-703 349,-703 349,-752.26 487.5,-767.56 587.7,-772.19"/>
<polygon fill="purple" stroke="purple" points="587.74,-775.69 597.89,-772.63 588.05,-768.7 587.74,-775.69"/>
<text text-anchor="middle" x="384.5" y="-581.8" font-family="Times,serif" font-size="14.00" fill="purple">Pass Data</text>
</g>
<!-- 4258655f&#45;67b5&#45;4e1b&#45;9f64&#45;e2f778ff5377&#45;&gt;d93a55a0&#45;7ab1&#45;4e49&#45;842a&#45;9ce7021f5a2e -->
<g id="edge44" class="edge">
<title>4258655f&#45;67b5&#45;4e1b&#45;9f64&#45;e2f778ff5377&#45;&gt;d93a55a0&#45;7ab1&#45;4e49&#45;842a&#45;9ce7021f5a2e</title>
<path fill="none" stroke="purple" d="M1229,-400.26C1229,-417.43 1229,-444.54 1229,-468 1229,-703 1229,-703 1229,-703 1229,-752.26 1367.5,-767.56 1467.7,-772.19"/>
<polygon fill="purple" stroke="purple" points="1467.74,-775.69 1477.89,-772.63 1468.05,-768.7 1467.74,-775.69"/>
<text text-anchor="middle" x="1264.5" y="-581.8" font-family="Times,serif" font-size="14.00" fill="purple">Pass Data</text>
</g>
</g>
</svg>
