<?xml version="1.0" encoding="UTF-8" standalone="no"?>
<!DOCTYPE svg PUBLIC "-//W3C//DTD SVG 1.1//EN"
 "http://www.w3.org/Graphics/SVG/1.1/DTD/svg11.dtd">
<!-- Generated by graphviz version 2.43.0 (0)
 -->
<!-- Title: G Pages: 1 -->
<svg width="140pt" height="684pt"
 viewBox="0.00 0.00 140.05 684.00" xmlns="http://www.w3.org/2000/svg" xmlns:xlink="http://www.w3.org/1999/xlink">
<g id="graph0" class="graph" transform="scale(1 1) rotate(0) translate(4 680)">
<title>G</title>
<polygon fill="transparent" stroke="transparent" points="-4,4 -4,-680 136.05,-680 136.05,4 -4,4"/>
<!-- c508ba31&#45;62f2&#45;4365&#45;b555&#45;767dcde089a5 -->
<g id="node1" class="node">
<title>c508ba31&#45;62f2&#45;4365&#45;b555&#45;767dcde089a5</title>
<ellipse fill="none" stroke="black" cx="61.05" cy="-512" rx="47.1" ry="18"/>
<text text-anchor="middle" x="61.05" y="-508.3" font-family="Times,serif" font-size="14.00">DelayAction</text>
</g>
<!-- 46dd513b&#45;8d88&#45;40be&#45;9cdf&#45;b313b26236ea -->
<g id="node2" class="node">
<title>46dd513b&#45;8d88&#45;40be&#45;9cdf&#45;b313b26236ea</title>
<ellipse fill="none" stroke="black" cx="61.05" cy="-439" rx="59.9" ry="18"/>
<text text-anchor="middle" x="61.05" y="-435.3" font-family="Times,serif" font-size="14.00">ZeroMovement</text>
</g>
<!-- c508ba31&#45;62f2&#45;4365&#45;b555&#45;767dcde089a5&#45;&gt;46dd513b&#45;8d88&#45;40be&#45;9cdf&#45;b313b26236ea -->
<g id="edge1" class="edge">
<title>c508ba31&#45;62f2&#45;4365&#45;b555&#45;767dcde089a5&#45;&gt;46dd513b&#45;8d88&#45;40be&#45;9cdf&#45;b313b26236ea</title>
<path fill="none" stroke="black" d="M61.05,-493.81C61.05,-485.79 61.05,-476.05 61.05,-467.07"/>
<polygon fill="black" stroke="black" points="64.55,-467.03 61.05,-457.03 57.55,-467.03 64.55,-467.03"/>
</g>
<!-- 62f46818&#45;4185&#45;44bf&#45;ba2d&#45;2ece1525ef60 -->
<g id="node7" class="node">
<title>62f46818&#45;4185&#45;44bf&#45;ba2d&#45;2ece1525ef60</title>
<ellipse fill="none" stroke="black" cx="61.05" cy="-366" rx="46.5" ry="18"/>
<text text-anchor="middle" x="61.05" y="-362.3" font-family="Times,serif" font-size="14.00">VisionNorm</text>
</g>
<!-- 46dd513b&#45;8d88&#45;40be&#45;9cdf&#45;b313b26236ea&#45;&gt;62f46818&#45;4185&#45;44bf&#45;ba2d&#45;2ece1525ef60 -->
<g id="edge6" class="edge">
<title>46dd513b&#45;8d88&#45;40be&#45;9cdf&#45;b313b26236ea&#45;&gt;62f46818&#45;4185&#45;44bf&#45;ba2d&#45;2ece1525ef60</title>
<path fill="none" stroke="black" d="M61.05,-420.81C61.05,-412.79 61.05,-403.05 61.05,-394.07"/>
<polygon fill="black" stroke="black" points="64.55,-394.03 61.05,-384.03 57.55,-394.03 64.55,-394.03"/>
</g>
<!-- e24736bd&#45;f485&#45;4cba&#45;b3de&#45;7bf48fda738c -->
<g id="node3" class="node">
<title>e24736bd&#45;f485&#45;4cba&#45;b3de&#45;7bf48fda738c</title>
<ellipse fill="none" stroke="black" cx="61.05" cy="-105" rx="32.4" ry="18"/>
<text text-anchor="middle" x="61.05" y="-101.3" font-family="Times,serif" font-size="14.00">Average</text>
</g>
<!-- f4162998&#45;e6c5&#45;45bc&#45;bc44&#45;c3b98bc02fdc -->
<g id="node4" class="node">
<title>f4162998&#45;e6c5&#45;45bc&#45;bc44&#45;c3b98bc02fdc</title>
<ellipse fill="none" stroke="black" cx="61.05" cy="-18" rx="43.4" ry="18"/>
<text text-anchor="middle" x="61.05" y="-14.3" font-family="Times,serif" font-size="14.00">CircleBuoy</text>
</g>
<!-- e24736bd&#45;f485&#45;4cba&#45;b3de&#45;7bf48fda738c&#45;&gt;f4162998&#45;e6c5&#45;45bc&#45;bc44&#45;c3b98bc02fdc -->
<g id="edge2" class="edge">
<title>e24736bd&#45;f485&#45;4cba&#45;b3de&#45;7bf48fda738c&#45;&gt;f4162998&#45;e6c5&#45;45bc&#45;bc44&#45;c3b98bc02fdc</title>
<path fill="none" stroke="purple" d="M61.05,-86.8C61.05,-75.16 61.05,-59.55 61.05,-46.24"/>
<polygon fill="purple" stroke="purple" points="64.55,-46.18 61.05,-36.18 57.55,-46.18 64.55,-46.18"/>
<text text-anchor="middle" x="96.55" y="-57.8" font-family="Times,serif" font-size="14.00" fill="purple">Pass Data</text>
</g>
<!-- dc9c26b5&#45;cb9d&#45;4877&#45;b46d&#45;6fcb80201268 -->
<g id="node5" class="node">
<title>dc9c26b5&#45;cb9d&#45;4877&#45;b46d&#45;6fcb80201268</title>
<ellipse fill="none" stroke="black" cx="61.05" cy="-192" rx="61.1" ry="18"/>
<text text-anchor="middle" x="61.05" y="-188.3" font-family="Times,serif" font-size="14.00">ExtractPosition</text>
</g>
<!-- dc9c26b5&#45;cb9d&#45;4877&#45;b46d&#45;6fcb80201268&#45;&gt;e24736bd&#45;f485&#45;4cba&#45;b3de&#45;7bf48fda738c -->
<g id="edge3" class="edge">
<title>dc9c26b5&#45;cb9d&#45;4877&#45;b46d&#45;6fcb80201268&#45;&gt;e24736bd&#45;f485&#45;4cba&#45;b3de&#45;7bf48fda738c</title>
<path fill="none" stroke="purple" d="M61.05,-173.8C61.05,-162.16 61.05,-146.55 61.05,-133.24"/>
<polygon fill="purple" stroke="purple" points="64.55,-133.18 61.05,-123.18 57.55,-133.18 64.55,-133.18"/>
<text text-anchor="middle" x="96.55" y="-144.8" font-family="Times,serif" font-size="14.00" fill="purple">Pass Data</text>
</g>
<!-- f601b696&#45;f1e6&#45;46f3&#45;b1df&#45;032fcc00dd29 -->
<g id="node6" class="node">
<title>f601b696&#45;f1e6&#45;46f3&#45;b1df&#45;032fcc00dd29</title>
<ellipse fill="none" stroke="black" cx="61.05" cy="-279" rx="27" ry="18"/>
<text text-anchor="middle" x="61.05" y="-275.3" font-family="Times,serif" font-size="14.00">ToVec</text>
</g>
<!-- f601b696&#45;f1e6&#45;46f3&#45;b1df&#45;032fcc00dd29&#45;&gt;dc9c26b5&#45;cb9d&#45;4877&#45;b46d&#45;6fcb80201268 -->
<g id="edge4" class="edge">
<title>f601b696&#45;f1e6&#45;46f3&#45;b1df&#45;032fcc00dd29&#45;&gt;dc9c26b5&#45;cb9d&#45;4877&#45;b46d&#45;6fcb80201268</title>
<path fill="none" stroke="purple" d="M61.05,-260.8C61.05,-249.16 61.05,-233.55 61.05,-220.24"/>
<polygon fill="purple" stroke="purple" points="64.55,-220.18 61.05,-210.18 57.55,-220.18 64.55,-220.18"/>
<text text-anchor="middle" x="96.55" y="-231.8" font-family="Times,serif" font-size="14.00" fill="purple">Pass Data</text>
</g>
<!-- 62f46818&#45;4185&#45;44bf&#45;ba2d&#45;2ece1525ef60&#45;&gt;f601b696&#45;f1e6&#45;46f3&#45;b1df&#45;032fcc00dd29 -->
<g id="edge5" class="edge">
<title>62f46818&#45;4185&#45;44bf&#45;ba2d&#45;2ece1525ef60&#45;&gt;f601b696&#45;f1e6&#45;46f3&#45;b1df&#45;032fcc00dd29</title>
<path fill="none" stroke="purple" d="M61.05,-347.8C61.05,-336.16 61.05,-320.55 61.05,-307.24"/>
<polygon fill="purple" stroke="purple" points="64.55,-307.18 61.05,-297.18 57.55,-307.18 64.55,-307.18"/>
<text text-anchor="middle" x="96.55" y="-318.8" font-family="Times,serif" font-size="14.00" fill="purple">Pass Data</text>
</g>
<!-- 7f1f47aa&#45;94b1&#45;4f32&#45;ad8c&#45;748901292c03 -->
<g id="node8" class="node">
<title>7f1f47aa&#45;94b1&#45;4f32&#45;ad8c&#45;748901292c03</title>
<ellipse fill="none" stroke="black" cx="61.05" cy="-585" rx="59.9" ry="18"/>
<text text-anchor="middle" x="61.05" y="-581.3" font-family="Times,serif" font-size="14.00">ZeroMovement</text>
</g>
<!-- 7f1f47aa&#45;94b1&#45;4f32&#45;ad8c&#45;748901292c03&#45;&gt;c508ba31&#45;62f2&#45;4365&#45;b555&#45;767dcde089a5 -->
<g id="edge7" class="edge">
<title>7f1f47aa&#45;94b1&#45;4f32&#45;ad8c&#45;748901292c03&#45;&gt;c508ba31&#45;62f2&#45;4365&#45;b555&#45;767dcde089a5</title>
<path fill="none" stroke="black" d="M61.05,-566.81C61.05,-558.79 61.05,-549.05 61.05,-540.07"/>
<polygon fill="black" stroke="black" points="64.55,-540.03 61.05,-530.03 57.55,-540.03 64.55,-540.03"/>
</g>
<!-- 78f7c2fc&#45;d8c6&#45;4a49&#45;bd72&#45;006efad48909 -->
<g id="node9" class="node">
<title>78f7c2fc&#45;d8c6&#45;4a49&#45;bd72&#45;006efad48909</title>
<ellipse fill="none" stroke="black" cx="61.05" cy="-658" rx="47.1" ry="18"/>
<text text-anchor="middle" x="61.05" y="-654.3" font-family="Times,serif" font-size="14.00">DelayAction</text>
</g>
<!-- 78f7c2fc&#45;d8c6&#45;4a49&#45;bd72&#45;006efad48909&#45;&gt;7f1f47aa&#45;94b1&#45;4f32&#45;ad8c&#45;748901292c03 -->
<g id="edge8" class="edge">
<title>78f7c2fc&#45;d8c6&#45;4a49&#45;bd72&#45;006efad48909&#45;&gt;7f1f47aa&#45;94b1&#45;4f32&#45;ad8c&#45;748901292c03</title>
<path fill="none" stroke="black" d="M61.05,-639.81C61.05,-631.79 61.05,-622.05 61.05,-613.07"/>
<polygon fill="black" stroke="black" points="64.55,-613.03 61.05,-603.03 57.55,-613.03 64.55,-613.03"/>
</g>
</g>
</svg>
