<?xml version="1.0" encoding="UTF-8" standalone="no"?>
<!DOCTYPE svg PUBLIC "-//W3C//DTD SVG 1.1//EN"
 "http://www.w3.org/Graphics/SVG/1.1/DTD/svg11.dtd">
<!-- Generated by graphviz version 2.43.0 (0)
 -->
<!-- Title: G Pages: 1 -->
<svg width="249pt" height="276pt"
 viewBox="0.00 0.00 249.00 276.00" xmlns="http://www.w3.org/2000/svg" xmlns:xlink="http://www.w3.org/1999/xlink">
<g id="graph0" class="graph" transform="scale(1 1) rotate(0) translate(4 272)">
<title>G</title>
<polygon fill="transparent" stroke="transparent" points="-4,4 -4,-272 245,-272 245,4 -4,4"/>
<g id="clust1" class="cluster">
<title>cluster_941ea40e&#45;98f7&#45;4c03&#45;af78&#45;1d811e0da811</title>
<polygon fill="transparent" stroke="blue" stroke-dasharray="5,2" points="8,-64 8,-260 233,-260 233,-64 8,-64"/>
</g>
<!-- 65c7ceef&#45;d574&#45;46de&#45;bc12&#45;5975d23d4bc5 -->
<g id="node1" class="node">
<title>65c7ceef&#45;d574&#45;46de&#45;bc12&#45;5975d23d4bc5</title>
<polygon fill="none" stroke="black" stroke-dasharray="5,2" points="169,-252 71,-252 71,-216 169,-216 169,-252"/>
<text text-anchor="middle" x="120" y="-230.3" font-family="Times,serif" font-size="14.00" fill="blue">Concurrent</text>
</g>
<!-- 1b8eee4e&#45;8471&#45;491e&#45;a641&#45;8cc9eef86c12 -->
<g id="node2" class="node">
<title>1b8eee4e&#45;8471&#45;491e&#45;a641&#45;8cc9eef86c12</title>
<ellipse fill="none" stroke="black" cx="51" cy="-162" rx="34.8" ry="18"/>
<text text-anchor="middle" x="51" y="-158.3" font-family="Times,serif" font-size="14.00">WaitArm</text>
</g>
<!-- 65c7ceef&#45;d574&#45;46de&#45;bc12&#45;5975d23d4bc5&#45;&gt;1b8eee4e&#45;8471&#45;491e&#45;a641&#45;8cc9eef86c12 -->
<g id="edge1" class="edge">
<title>65c7ceef&#45;d574&#45;46de&#45;bc12&#45;5975d23d4bc5&#45;&gt;1b8eee4e&#45;8471&#45;491e&#45;a641&#45;8cc9eef86c12</title>
<path fill="none" stroke="black" d="M102.94,-215.7C94.13,-206.75 83.25,-195.71 73.73,-186.06"/>
<polygon fill="black" stroke="black" points="75.96,-183.34 66.45,-178.67 70.97,-188.25 75.96,-183.34"/>
</g>
<!-- 6c4b906e&#45;a804&#45;4bcb&#45;96f9&#45;a66dcc91ae13 -->
<g id="node3" class="node">
<title>6c4b906e&#45;a804&#45;4bcb&#45;96f9&#45;a66dcc91ae13</title>
<ellipse fill="none" stroke="black" cx="191" cy="-162" rx="33.6" ry="18"/>
<text text-anchor="middle" x="191" y="-158.3" font-family="Times,serif" font-size="14.00">Descend</text>
</g>
<!-- 65c7ceef&#45;d574&#45;46de&#45;bc12&#45;5975d23d4bc5&#45;&gt;6c4b906e&#45;a804&#45;4bcb&#45;96f9&#45;a66dcc91ae13 -->
<g id="edge2" class="edge">
<title>65c7ceef&#45;d574&#45;46de&#45;bc12&#45;5975d23d4bc5&#45;&gt;6c4b906e&#45;a804&#45;4bcb&#45;96f9&#45;a66dcc91ae13</title>
<path fill="none" stroke="black" d="M137.55,-215.7C146.84,-206.53 158.36,-195.18 168.33,-185.35"/>
<polygon fill="black" stroke="black" points="170.92,-187.72 175.58,-178.2 166,-182.73 170.92,-187.72"/>
</g>
<!-- 56c73390&#45;0d1d&#45;4c1f&#45;97b8&#45;6e60e5a71d7a -->
<g id="node4" class="node">
<title>56c73390&#45;0d1d&#45;4c1f&#45;97b8&#45;6e60e5a71d7a</title>
<polygon fill="none" stroke="black" stroke-dasharray="5,2" points="162.5,-108 77.5,-108 77.5,-72 162.5,-72 162.5,-108"/>
<text text-anchor="middle" x="120" y="-86.3" font-family="Times,serif" font-size="14.00" fill="blue">Converge</text>
</g>
<!-- 1b8eee4e&#45;8471&#45;491e&#45;a641&#45;8cc9eef86c12&#45;&gt;56c73390&#45;0d1d&#45;4c1f&#45;97b8&#45;6e60e5a71d7a -->
<g id="edge3" class="edge">
<title>1b8eee4e&#45;8471&#45;491e&#45;a641&#45;8cc9eef86c12&#45;&gt;56c73390&#45;0d1d&#45;4c1f&#45;97b8&#45;6e60e5a71d7a</title>
<path fill="none" stroke="black" d="M66.31,-145.46C74.92,-136.73 85.86,-125.63 95.62,-115.74"/>
<polygon fill="black" stroke="black" points="98.26,-118.04 102.79,-108.46 93.28,-113.13 98.26,-118.04"/>
</g>
<!-- 6c4b906e&#45;a804&#45;4bcb&#45;96f9&#45;a66dcc91ae13&#45;&gt;56c73390&#45;0d1d&#45;4c1f&#45;97b8&#45;6e60e5a71d7a -->
<g id="edge4" class="edge">
<title>6c4b906e&#45;a804&#45;4bcb&#45;96f9&#45;a66dcc91ae13&#45;&gt;56c73390&#45;0d1d&#45;4c1f&#45;97b8&#45;6e60e5a71d7a</title>
<path fill="none" stroke="black" d="M175.59,-145.81C166.54,-136.88 154.88,-125.38 144.57,-115.23"/>
<polygon fill="black" stroke="black" points="146.95,-112.66 137.37,-108.13 142.04,-117.64 146.95,-112.66"/>
</g>
<!-- b31e1f92&#45;6f18&#45;43ac&#45;915b&#45;31854e695fe4 -->
<g id="node5" class="node">
<title>b31e1f92&#45;6f18&#45;43ac&#45;915b&#45;31854e695fe4</title>
<ellipse fill="none" stroke="black" cx="120" cy="-18" rx="34.8" ry="18"/>
<text text-anchor="middle" x="120" y="-14.3" font-family="Times,serif" font-size="14.00">WaitArm</text>
</g>
<!-- 56c73390&#45;0d1d&#45;4c1f&#45;97b8&#45;6e60e5a71d7a&#45;&gt;b31e1f92&#45;6f18&#45;43ac&#45;915b&#45;31854e695fe4 -->
<g id="edge5" class="edge">
<title>56c73390&#45;0d1d&#45;4c1f&#45;97b8&#45;6e60e5a71d7a&#45;&gt;b31e1f92&#45;6f18&#45;43ac&#45;915b&#45;31854e695fe4</title>
<path fill="none" stroke="black" d="M120,-71.7C120,-63.98 120,-54.71 120,-46.11"/>
<polygon fill="black" stroke="black" points="123.5,-46.1 120,-36.1 116.5,-46.1 123.5,-46.1"/>
</g>
</g>
</svg>
