<?xml version="1.0" encoding="UTF-8" standalone="no"?>
<!DOCTYPE svg PUBLIC "-//W3C//DTD SVG 1.1//EN"
 "http://www.w3.org/Graphics/SVG/1.1/DTD/svg11.dtd">
<!-- Generated by graphviz version 2.43.0 (0)
 -->
<!-- Title: G Pages: 1 -->
<svg width="249pt" height="276pt"
 viewBox="0.00 0.00 249.00 276.00" xmlns="http://www.w3.org/2000/svg" xmlns:xlink="http://www.w3.org/1999/xlink">
<g id="graph0" class="graph" transform="scale(1 1) rotate(0) translate(4 272)">
<title>G</title>
<polygon fill="transparent" stroke="transparent" points="-4,4 -4,-272 245,-272 245,4 -4,4"/>
<g id="clust1" class="cluster">
<title>cluster_7a4ecb1a&#45;750d&#45;419d&#45;a23d&#45;d0f11ae0216c</title>
<polygon fill="transparent" stroke="blue" stroke-dasharray="5,2" points="8,-64 8,-260 233,-260 233,-64 8,-64"/>
</g>
<!-- 2e39c627&#45;b116&#45;4de2&#45;96b0&#45;a4ad4b742cd4 -->
<g id="node1" class="node">
<title>2e39c627&#45;b116&#45;4de2&#45;96b0&#45;a4ad4b742cd4</title>
<polygon fill="none" stroke="black" stroke-dasharray="5,2" points="169,-252 71,-252 71,-216 169,-216 169,-252"/>
<text text-anchor="middle" x="120" y="-230.3" font-family="Times,serif" font-size="14.00" fill="blue">Concurrent</text>
</g>
<!-- 595810a7&#45;0de3&#45;465e&#45;9ecb&#45;58e88bedf88c -->
<g id="node2" class="node">
<title>595810a7&#45;0de3&#45;465e&#45;9ecb&#45;58e88bedf88c</title>
<ellipse fill="none" stroke="black" cx="51" cy="-162" rx="34.8" ry="18"/>
<text text-anchor="middle" x="51" y="-158.3" font-family="Times,serif" font-size="14.00">WaitArm</text>
</g>
<!-- 2e39c627&#45;b116&#45;4de2&#45;96b0&#45;a4ad4b742cd4&#45;&gt;595810a7&#45;0de3&#45;465e&#45;9ecb&#45;58e88bedf88c -->
<g id="edge1" class="edge">
<title>2e39c627&#45;b116&#45;4de2&#45;96b0&#45;a4ad4b742cd4&#45;&gt;595810a7&#45;0de3&#45;465e&#45;9ecb&#45;58e88bedf88c</title>
<path fill="none" stroke="black" d="M102.94,-215.7C94.13,-206.75 83.25,-195.71 73.73,-186.06"/>
<polygon fill="black" stroke="black" points="75.96,-183.34 66.45,-178.67 70.97,-188.25 75.96,-183.34"/>
</g>
<!-- b734b15e&#45;12d5&#45;4050&#45;a03a&#45;14da4efcd10f -->
<g id="node3" class="node">
<title>b734b15e&#45;12d5&#45;4050&#45;a03a&#45;14da4efcd10f</title>
<ellipse fill="none" stroke="black" cx="191" cy="-162" rx="33.6" ry="18"/>
<text text-anchor="middle" x="191" y="-158.3" font-family="Times,serif" font-size="14.00">Descend</text>
</g>
<!-- 2e39c627&#45;b116&#45;4de2&#45;96b0&#45;a4ad4b742cd4&#45;&gt;b734b15e&#45;12d5&#45;4050&#45;a03a&#45;14da4efcd10f -->
<g id="edge2" class="edge">
<title>2e39c627&#45;b116&#45;4de2&#45;96b0&#45;a4ad4b742cd4&#45;&gt;b734b15e&#45;12d5&#45;4050&#45;a03a&#45;14da4efcd10f</title>
<path fill="none" stroke="black" d="M137.55,-215.7C146.84,-206.53 158.36,-195.18 168.33,-185.35"/>
<polygon fill="black" stroke="black" points="170.92,-187.72 175.58,-178.2 166,-182.73 170.92,-187.72"/>
</g>
<!-- d4dabd29&#45;4ca0&#45;4c0d&#45;97b5&#45;a1ed57ba0f3c -->
<g id="node4" class="node">
<title>d4dabd29&#45;4ca0&#45;4c0d&#45;97b5&#45;a1ed57ba0f3c</title>
<polygon fill="none" stroke="black" stroke-dasharray="5,2" points="162.5,-108 77.5,-108 77.5,-72 162.5,-72 162.5,-108"/>
<text text-anchor="middle" x="120" y="-86.3" font-family="Times,serif" font-size="14.00" fill="blue">Converge</text>
</g>
<!-- 595810a7&#45;0de3&#45;465e&#45;9ecb&#45;58e88bedf88c&#45;&gt;d4dabd29&#45;4ca0&#45;4c0d&#45;97b5&#45;a1ed57ba0f3c -->
<g id="edge3" class="edge">
<title>595810a7&#45;0de3&#45;465e&#45;9ecb&#45;58e88bedf88c&#45;&gt;d4dabd29&#45;4ca0&#45;4c0d&#45;97b5&#45;a1ed57ba0f3c</title>
<path fill="none" stroke="black" d="M66.31,-145.46C74.92,-136.73 85.86,-125.63 95.62,-115.74"/>
<polygon fill="black" stroke="black" points="98.26,-118.04 102.79,-108.46 93.28,-113.13 98.26,-118.04"/>
</g>
<!-- b734b15e&#45;12d5&#45;4050&#45;a03a&#45;14da4efcd10f&#45;&gt;d4dabd29&#45;4ca0&#45;4c0d&#45;97b5&#45;a1ed57ba0f3c -->
<g id="edge4" class="edge">
<title>b734b15e&#45;12d5&#45;4050&#45;a03a&#45;14da4efcd10f&#45;&gt;d4dabd29&#45;4ca0&#45;4c0d&#45;97b5&#45;a1ed57ba0f3c</title>
<path fill="none" stroke="black" d="M175.59,-145.81C166.54,-136.88 154.88,-125.38 144.57,-115.23"/>
<polygon fill="black" stroke="black" points="146.95,-112.66 137.37,-108.13 142.04,-117.64 146.95,-112.66"/>
</g>
<!-- 81b21751&#45;395e&#45;4e9b&#45;b5ba&#45;06091d367b39 -->
<g id="node5" class="node">
<title>81b21751&#45;395e&#45;4e9b&#45;b5ba&#45;06091d367b39</title>
<ellipse fill="none" stroke="black" cx="120" cy="-18" rx="34.8" ry="18"/>
<text text-anchor="middle" x="120" y="-14.3" font-family="Times,serif" font-size="14.00">WaitArm</text>
</g>
<!-- d4dabd29&#45;4ca0&#45;4c0d&#45;97b5&#45;a1ed57ba0f3c&#45;&gt;81b21751&#45;395e&#45;4e9b&#45;b5ba&#45;06091d367b39 -->
<g id="edge5" class="edge">
<title>d4dabd29&#45;4ca0&#45;4c0d&#45;97b5&#45;a1ed57ba0f3c&#45;&gt;81b21751&#45;395e&#45;4e9b&#45;b5ba&#45;06091d367b39</title>
<path fill="none" stroke="black" d="M120,-71.7C120,-63.98 120,-54.71 120,-46.11"/>
<polygon fill="black" stroke="black" points="123.5,-46.1 120,-36.1 116.5,-46.1 123.5,-46.1"/>
</g>
</g>
</svg>
