<?xml version="1.0" encoding="UTF-8" standalone="no"?>
<!DOCTYPE svg PUBLIC "-//W3C//DTD SVG 1.1//EN"
 "http://www.w3.org/Graphics/SVG/1.1/DTD/svg11.dtd">
<!-- Generated by graphviz version 2.43.0 (0)
 -->
<!-- Title: G Pages: 1 -->
<svg width="408pt" height="293pt"
 viewBox="0.00 0.00 407.65 293.00" xmlns="http://www.w3.org/2000/svg" xmlns:xlink="http://www.w3.org/1999/xlink">
<g id="graph0" class="graph" transform="scale(1 1) rotate(0) translate(4 289)">
<title>G</title>
<polygon fill="transparent" stroke="transparent" points="-4,4 -4,-289 403.65,-289 403.65,4 -4,4"/>
<g id="clust1" class="cluster">
<title>cluster_bc10868e&#45;4f0c&#45;493d&#45;a2ff&#45;0f9f7443979c</title>
<polygon fill="transparent" stroke="red" stroke-dasharray="5,2" points="8,-8 8,-206 304,-206 304,-8 8,-8"/>
</g>
<!-- ac4b8fb3&#45;0871&#45;48b1&#45;8dfb&#45;e595c6c276b5 -->
<g id="node1" class="node">
<title>ac4b8fb3&#45;0871&#45;48b1&#45;8dfb&#45;e595c6c276b5</title>
<polygon fill="none" stroke="black" points="298,-285 232.82,-267 298,-249 363.18,-267 298,-285"/>
<text text-anchor="middle" x="298" y="-263.3" font-family="Times,serif" font-size="14.00">AlwaysTrue</text>
</g>
<!-- 672148ed&#45;a0e7&#45;4738&#45;a358&#45;40fcc3e618d2 -->
<g id="node2" class="node">
<title>672148ed&#45;a0e7&#45;4738&#45;a358&#45;40fcc3e618d2</title>
<polygon fill="none" stroke="black" stroke-dasharray="5,2" points="258,-198 204,-198 204,-162 258,-162 258,-198"/>
<text text-anchor="middle" x="231" y="-176.3" font-family="Times,serif" font-size="14.00" fill="red">Race</text>
</g>
<!-- ac4b8fb3&#45;0871&#45;48b1&#45;8dfb&#45;e595c6c276b5&#45;&gt;672148ed&#45;a0e7&#45;4738&#45;a358&#45;40fcc3e618d2 -->
<g id="edge6" class="edge">
<title>ac4b8fb3&#45;0871&#45;48b1&#45;8dfb&#45;e595c6c276b5&#45;&gt;672148ed&#45;a0e7&#45;4738&#45;a358&#45;40fcc3e618d2</title>
<path fill="none" stroke="black" d="M286.94,-251.96C277.15,-239.55 262.64,-221.14 250.85,-206.19"/>
<polygon fill="black" stroke="black" points="253.57,-203.98 244.63,-198.29 248.07,-208.31 253.57,-203.98"/>
<text text-anchor="middle" x="287" y="-219.8" font-family="Times,serif" font-size="14.00">False</text>
</g>
<!-- caf0726e&#45;fca2&#45;40d4&#45;b0fd&#45;9cc1c1901c67 -->
<g id="node6" class="node">
<title>caf0726e&#45;fca2&#45;40d4&#45;b0fd&#45;9cc1c1901c67</title>
<ellipse fill="none" stroke="black" cx="365" cy="-180" rx="34.8" ry="18"/>
<text text-anchor="middle" x="365" y="-176.3" font-family="Times,serif" font-size="14.00">WaitArm</text>
</g>
<!-- ac4b8fb3&#45;0871&#45;48b1&#45;8dfb&#45;e595c6c276b5&#45;&gt;caf0726e&#45;fca2&#45;40d4&#45;b0fd&#45;9cc1c1901c67 -->
<g id="edge5" class="edge">
<title>ac4b8fb3&#45;0871&#45;48b1&#45;8dfb&#45;e595c6c276b5&#45;&gt;caf0726e&#45;fca2&#45;40d4&#45;b0fd&#45;9cc1c1901c67</title>
<path fill="none" stroke="black" d="M309.06,-251.96C319.1,-239.23 334.11,-220.19 346.05,-205.04"/>
<polygon fill="black" stroke="black" points="348.88,-207.11 352.32,-197.09 343.38,-202.77 348.88,-207.11"/>
<text text-anchor="middle" x="352" y="-219.8" font-family="Times,serif" font-size="14.00">True</text>
</g>
<!-- 59c1a243&#45;dfd4&#45;4348&#45;92d1&#45;c30292b65bce -->
<g id="node3" class="node">
<title>59c1a243&#45;dfd4&#45;4348&#45;92d1&#45;c30292b65bce</title>
<ellipse fill="none" stroke="black" cx="73" cy="-107" rx="56.8" ry="18"/>
<text text-anchor="middle" x="73" y="-103.3" font-family="Times,serif" font-size="14.00">UnwrapAction</text>
</g>
<!-- 672148ed&#45;a0e7&#45;4738&#45;a358&#45;40fcc3e618d2&#45;&gt;59c1a243&#45;dfd4&#45;4348&#45;92d1&#45;c30292b65bce -->
<g id="edge1" class="edge">
<title>672148ed&#45;a0e7&#45;4738&#45;a358&#45;40fcc3e618d2&#45;&gt;59c1a243&#45;dfd4&#45;4348&#45;92d1&#45;c30292b65bce</title>
<path fill="none" stroke="black" d="M203.84,-166.79C179.03,-155.65 142,-139.01 113.66,-126.27"/>
<polygon fill="black" stroke="black" points="114.97,-123.02 104.42,-122.12 112.1,-129.41 114.97,-123.02"/>
</g>
<!-- 9f348a59&#45;381c&#45;49a3&#45;b5cc&#45;bddc69f5bf89 -->
<g id="node4" class="node">
<title>9f348a59&#45;381c&#45;49a3&#45;b5cc&#45;bddc69f5bf89</title>
<ellipse fill="none" stroke="black" cx="249" cy="-107" rx="47.1" ry="18"/>
<text text-anchor="middle" x="249" y="-103.3" font-family="Times,serif" font-size="14.00">DelayAction</text>
</g>
<!-- 672148ed&#45;a0e7&#45;4738&#45;a358&#45;40fcc3e618d2&#45;&gt;9f348a59&#45;381c&#45;49a3&#45;b5cc&#45;bddc69f5bf89 -->
<g id="edge2" class="edge">
<title>672148ed&#45;a0e7&#45;4738&#45;a358&#45;40fcc3e618d2&#45;&gt;9f348a59&#45;381c&#45;49a3&#45;b5cc&#45;bddc69f5bf89</title>
<path fill="none" stroke="black" d="M235.36,-161.81C237.41,-153.7 239.91,-143.84 242.21,-134.78"/>
<polygon fill="black" stroke="black" points="245.62,-135.58 244.68,-125.03 238.83,-133.86 245.62,-135.58"/>
</g>
<!-- 70f96c98&#45;b476&#45;4eff&#45;8eb5&#45;3db8385fac7f -->
<g id="node5" class="node">
<title>70f96c98&#45;b476&#45;4eff&#45;8eb5&#45;3db8385fac7f</title>
<polygon fill="none" stroke="black" stroke-dasharray="5,2" points="197,-52 125,-52 125,-16 197,-16 197,-52"/>
<text text-anchor="middle" x="161" y="-30.3" font-family="Times,serif" font-size="14.00" fill="red">Resolve</text>
</g>
<!-- 59c1a243&#45;dfd4&#45;4348&#45;92d1&#45;c30292b65bce&#45;&gt;70f96c98&#45;b476&#45;4eff&#45;8eb5&#45;3db8385fac7f -->
<g id="edge3" class="edge">
<title>59c1a243&#45;dfd4&#45;4348&#45;92d1&#45;c30292b65bce&#45;&gt;70f96c98&#45;b476&#45;4eff&#45;8eb5&#45;3db8385fac7f</title>
<path fill="none" stroke="black" d="M92.97,-89.89C104.45,-80.63 119.08,-68.82 131.83,-58.54"/>
<polygon fill="black" stroke="black" points="134.3,-61.04 139.88,-52.04 129.9,-55.59 134.3,-61.04"/>
</g>
<!-- 9f348a59&#45;381c&#45;49a3&#45;b5cc&#45;bddc69f5bf89&#45;&gt;70f96c98&#45;b476&#45;4eff&#45;8eb5&#45;3db8385fac7f -->
<g id="edge4" class="edge">
<title>9f348a59&#45;381c&#45;49a3&#45;b5cc&#45;bddc69f5bf89&#45;&gt;70f96c98&#45;b476&#45;4eff&#45;8eb5&#45;3db8385fac7f</title>
<path fill="none" stroke="black" d="M229.47,-90.24C218.01,-80.99 203.29,-69.12 190.44,-58.76"/>
<polygon fill="black" stroke="black" points="192.3,-55.76 182.32,-52.2 187.91,-61.21 192.3,-55.76"/>
</g>
</g>
</svg>
