<?xml version="1.0" encoding="UTF-8" standalone="no"?>
<!DOCTYPE svg PUBLIC "-//W3C//DTD SVG 1.1//EN"
 "http://www.w3.org/Graphics/SVG/1.1/DTD/svg11.dtd">
<!-- Generated by graphviz version 2.43.0 (0)
 -->
<!-- Title: G Pages: 1 -->
<svg width="788pt" height="276pt"
 viewBox="0.00 0.00 788.00 276.00" xmlns="http://www.w3.org/2000/svg" xmlns:xlink="http://www.w3.org/1999/xlink">
<g id="graph0" class="graph" transform="scale(1 1) rotate(0) translate(4 272)">
<title>G</title>
<polygon fill="transparent" stroke="transparent" points="-4,4 -4,-272 784,-272 784,4 -4,4"/>
<g id="clust1" class="cluster">
<title>cluster_08543456&#45;1ec1&#45;4c2a&#45;abd2&#45;809488a5bcce</title>
<polygon fill="transparent" stroke="red" stroke-dasharray="5,2" points="8,-64 8,-260 772,-260 772,-64 8,-64"/>
</g>
<!-- de1ee5a2&#45;fa3c&#45;43b8&#45;ab29&#45;52ec2b4d3800 -->
<g id="node1" class="node">
<title>de1ee5a2&#45;fa3c&#45;43b8&#45;ab29&#45;52ec2b4d3800</title>
<polygon fill="none" stroke="black" stroke-dasharray="5,2" points="417,-252 363,-252 363,-216 417,-216 417,-252"/>
<text text-anchor="middle" x="390" y="-230.3" font-family="Times,serif" font-size="14.00" fill="red">Race</text>
</g>
<!-- 829c82ac&#45;852d&#45;48c5&#45;9b5b&#45;a414d4818522 -->
<g id="node2" class="node">
<title>829c82ac&#45;852d&#45;48c5&#45;9b5b&#45;a414d4818522</title>
<ellipse fill="none" stroke="black" cx="62" cy="-162" rx="46.4" ry="18"/>
<text text-anchor="middle" x="62" y="-158.3" font-family="Times,serif" font-size="14.00">AlwaysTrue</text>
</g>
<!-- de1ee5a2&#45;fa3c&#45;43b8&#45;ab29&#45;52ec2b4d3800&#45;&gt;829c82ac&#45;852d&#45;48c5&#45;9b5b&#45;a414d4818522 -->
<g id="edge1" class="edge">
<title>de1ee5a2&#45;fa3c&#45;43b8&#45;ab29&#45;52ec2b4d3800&#45;&gt;829c82ac&#45;852d&#45;48c5&#45;9b5b&#45;a414d4818522</title>
<path fill="none" stroke="black" d="M362.88,-227.21C307.73,-215.44 181.79,-188.57 111.59,-173.58"/>
<polygon fill="black" stroke="black" points="112.16,-170.13 101.65,-171.46 110.7,-176.97 112.16,-170.13"/>
</g>
<!-- 509ecef8&#45;890e&#45;4a88&#45;98d5&#45;908b2478d362 -->
<g id="node3" class="node">
<title>509ecef8&#45;890e&#45;4a88&#45;98d5&#45;908b2478d362</title>
<ellipse fill="none" stroke="black" cx="226" cy="-162" rx="46.4" ry="18"/>
<text text-anchor="middle" x="226" y="-158.3" font-family="Times,serif" font-size="14.00">AlwaysTrue</text>
</g>
<!-- de1ee5a2&#45;fa3c&#45;43b8&#45;ab29&#45;52ec2b4d3800&#45;&gt;509ecef8&#45;890e&#45;4a88&#45;98d5&#45;908b2478d362 -->
<g id="edge2" class="edge">
<title>de1ee5a2&#45;fa3c&#45;43b8&#45;ab29&#45;52ec2b4d3800&#45;&gt;509ecef8&#45;890e&#45;4a88&#45;98d5&#45;908b2478d362</title>
<path fill="none" stroke="black" d="M362.92,-221.44C336.32,-210.09 295.45,-192.65 265.29,-179.77"/>
<polygon fill="black" stroke="black" points="266.47,-176.47 255.9,-175.76 263.72,-182.91 266.47,-176.47"/>
</g>
<!-- 2967bef9&#45;224a&#45;4a54&#45;808b&#45;ea030f8d2666 -->
<g id="node4" class="node">
<title>2967bef9&#45;224a&#45;4a54&#45;808b&#45;ea030f8d2666</title>
<ellipse fill="none" stroke="black" cx="390" cy="-162" rx="46.4" ry="18"/>
<text text-anchor="middle" x="390" y="-158.3" font-family="Times,serif" font-size="14.00">AlwaysTrue</text>
</g>
<!-- de1ee5a2&#45;fa3c&#45;43b8&#45;ab29&#45;52ec2b4d3800&#45;&gt;2967bef9&#45;224a&#45;4a54&#45;808b&#45;ea030f8d2666 -->
<g id="edge3" class="edge">
<title>de1ee5a2&#45;fa3c&#45;43b8&#45;ab29&#45;52ec2b4d3800&#45;&gt;2967bef9&#45;224a&#45;4a54&#45;808b&#45;ea030f8d2666</title>
<path fill="none" stroke="black" d="M390,-215.7C390,-207.98 390,-198.71 390,-190.11"/>
<polygon fill="black" stroke="black" points="393.5,-190.1 390,-180.1 386.5,-190.1 393.5,-190.1"/>
</g>
<!-- a075a3b9&#45;c334&#45;4fbc&#45;992f&#45;6d7d4ce388ba -->
<g id="node5" class="node">
<title>a075a3b9&#45;c334&#45;4fbc&#45;992f&#45;6d7d4ce388ba</title>
<ellipse fill="none" stroke="black" cx="554" cy="-162" rx="46.4" ry="18"/>
<text text-anchor="middle" x="554" y="-158.3" font-family="Times,serif" font-size="14.00">AlwaysTrue</text>
</g>
<!-- de1ee5a2&#45;fa3c&#45;43b8&#45;ab29&#45;52ec2b4d3800&#45;&gt;a075a3b9&#45;c334&#45;4fbc&#45;992f&#45;6d7d4ce388ba -->
<g id="edge4" class="edge">
<title>de1ee5a2&#45;fa3c&#45;43b8&#45;ab29&#45;52ec2b4d3800&#45;&gt;a075a3b9&#45;c334&#45;4fbc&#45;992f&#45;6d7d4ce388ba</title>
<path fill="none" stroke="black" d="M417.08,-221.44C443.68,-210.09 484.55,-192.65 514.71,-179.77"/>
<polygon fill="black" stroke="black" points="516.28,-182.91 524.1,-175.76 513.53,-176.47 516.28,-182.91"/>
</g>
<!-- ad78ef5f&#45;8227&#45;4392&#45;98a6&#45;617586696722 -->
<g id="node6" class="node">
<title>ad78ef5f&#45;8227&#45;4392&#45;98a6&#45;617586696722</title>
<ellipse fill="none" stroke="black" cx="718" cy="-162" rx="46.4" ry="18"/>
<text text-anchor="middle" x="718" y="-158.3" font-family="Times,serif" font-size="14.00">AlwaysTrue</text>
</g>
<!-- de1ee5a2&#45;fa3c&#45;43b8&#45;ab29&#45;52ec2b4d3800&#45;&gt;ad78ef5f&#45;8227&#45;4392&#45;98a6&#45;617586696722 -->
<g id="edge5" class="edge">
<title>de1ee5a2&#45;fa3c&#45;43b8&#45;ab29&#45;52ec2b4d3800&#45;&gt;ad78ef5f&#45;8227&#45;4392&#45;98a6&#45;617586696722</title>
<path fill="none" stroke="black" d="M417.12,-227.21C472.27,-215.44 598.21,-188.57 668.41,-173.58"/>
<polygon fill="black" stroke="black" points="669.3,-176.97 678.35,-171.46 667.84,-170.13 669.3,-176.97"/>
</g>
<!-- 3eb6633e&#45;5e02&#45;4d00&#45;b2fe&#45;b60000095f21 -->
<g id="node7" class="node">
<title>3eb6633e&#45;5e02&#45;4d00&#45;b2fe&#45;b60000095f21</title>
<polygon fill="none" stroke="black" stroke-dasharray="5,2" points="426,-108 354,-108 354,-72 426,-72 426,-108"/>
<text text-anchor="middle" x="390" y="-86.3" font-family="Times,serif" font-size="14.00" fill="red">Resolve</text>
</g>
<!-- 829c82ac&#45;852d&#45;48c5&#45;9b5b&#45;a414d4818522&#45;&gt;3eb6633e&#45;5e02&#45;4d00&#45;b2fe&#45;b60000095f21 -->
<g id="edge6" class="edge">
<title>829c82ac&#45;852d&#45;48c5&#45;9b5b&#45;a414d4818522&#45;&gt;3eb6633e&#45;5e02&#45;4d00&#45;b2fe&#45;b60000095f21</title>
<path fill="none" stroke="black" d="M101.56,-152.56C162.54,-139.54 279.18,-114.65 343.89,-100.84"/>
<polygon fill="black" stroke="black" points="344.76,-104.23 353.81,-98.72 343.3,-97.39 344.76,-104.23"/>
</g>
<!-- 509ecef8&#45;890e&#45;4a88&#45;98d5&#45;908b2478d362&#45;&gt;3eb6633e&#45;5e02&#45;4d00&#45;b2fe&#45;b60000095f21 -->
<g id="edge7" class="edge">
<title>509ecef8&#45;890e&#45;4a88&#45;98d5&#45;908b2478d362&#45;&gt;3eb6633e&#45;5e02&#45;4d00&#45;b2fe&#45;b60000095f21</title>
<path fill="none" stroke="black" d="M256.08,-148.16C280.84,-137.59 316.32,-122.45 344.55,-110.4"/>
<polygon fill="black" stroke="black" points="345.99,-113.59 353.81,-106.45 343.24,-107.15 345.99,-113.59"/>
</g>
<!-- 2967bef9&#45;224a&#45;4a54&#45;808b&#45;ea030f8d2666&#45;&gt;3eb6633e&#45;5e02&#45;4d00&#45;b2fe&#45;b60000095f21 -->
<g id="edge8" class="edge">
<title>2967bef9&#45;224a&#45;4a54&#45;808b&#45;ea030f8d2666&#45;&gt;3eb6633e&#45;5e02&#45;4d00&#45;b2fe&#45;b60000095f21</title>
<path fill="none" stroke="black" d="M390,-143.7C390,-135.98 390,-126.71 390,-118.11"/>
<polygon fill="black" stroke="black" points="393.5,-118.1 390,-108.1 386.5,-118.1 393.5,-118.1"/>
</g>
<!-- a075a3b9&#45;c334&#45;4fbc&#45;992f&#45;6d7d4ce388ba&#45;&gt;3eb6633e&#45;5e02&#45;4d00&#45;b2fe&#45;b60000095f21 -->
<g id="edge9" class="edge">
<title>a075a3b9&#45;c334&#45;4fbc&#45;992f&#45;6d7d4ce388ba&#45;&gt;3eb6633e&#45;5e02&#45;4d00&#45;b2fe&#45;b60000095f21</title>
<path fill="none" stroke="black" d="M523.92,-148.16C499.16,-137.59 463.68,-122.45 435.45,-110.4"/>
<polygon fill="black" stroke="black" points="436.76,-107.15 426.19,-106.45 434.01,-113.59 436.76,-107.15"/>
</g>
<!-- ad78ef5f&#45;8227&#45;4392&#45;98a6&#45;617586696722&#45;&gt;3eb6633e&#45;5e02&#45;4d00&#45;b2fe&#45;b60000095f21 -->
<g id="edge10" class="edge">
<title>ad78ef5f&#45;8227&#45;4392&#45;98a6&#45;617586696722&#45;&gt;3eb6633e&#45;5e02&#45;4d00&#45;b2fe&#45;b60000095f21</title>
<path fill="none" stroke="black" d="M678.44,-152.56C617.46,-139.54 500.82,-114.65 436.11,-100.84"/>
<polygon fill="black" stroke="black" points="436.7,-97.39 426.19,-98.72 435.24,-104.23 436.7,-97.39"/>
</g>
<!-- 66d5f7c4&#45;ea13&#45;4cb5&#45;b563&#45;536e211109c0 -->
<g id="node8" class="node">
<title>66d5f7c4&#45;ea13&#45;4cb5&#45;b563&#45;536e211109c0</title>
<ellipse fill="none" stroke="black" cx="390" cy="-18" rx="46.4" ry="18"/>
<text text-anchor="middle" x="390" y="-14.3" font-family="Times,serif" font-size="14.00">AlwaysTrue</text>
</g>
<!-- 3eb6633e&#45;5e02&#45;4d00&#45;b2fe&#45;b60000095f21&#45;&gt;66d5f7c4&#45;ea13&#45;4cb5&#45;b563&#45;536e211109c0 -->
<g id="edge11" class="edge">
<title>3eb6633e&#45;5e02&#45;4d00&#45;b2fe&#45;b60000095f21&#45;&gt;66d5f7c4&#45;ea13&#45;4cb5&#45;b563&#45;536e211109c0</title>
<path fill="none" stroke="black" d="M390,-71.7C390,-63.98 390,-54.71 390,-46.11"/>
<polygon fill="black" stroke="black" points="393.5,-46.1 390,-36.1 386.5,-46.1 393.5,-46.1"/>
</g>
</g>
</svg>
