<?xml version="1.0" encoding="UTF-8" standalone="no"?>
<!DOCTYPE svg PUBLIC "-//W3C//DTD SVG 1.1//EN"
 "http://www.w3.org/Graphics/SVG/1.1/DTD/svg11.dtd">
<!-- Generated by graphviz version 2.43.0 (0)
 -->
<!-- Title: G Pages: 1 -->
<svg width="408pt" height="293pt"
 viewBox="0.00 0.00 407.65 293.00" xmlns="http://www.w3.org/2000/svg" xmlns:xlink="http://www.w3.org/1999/xlink">
<g id="graph0" class="graph" transform="scale(1 1) rotate(0) translate(4 289)">
<title>G</title>
<polygon fill="transparent" stroke="transparent" points="-4,4 -4,-289 403.65,-289 403.65,4 -4,4"/>
<g id="clust1" class="cluster">
<title>cluster_1fa59f80&#45;f9d0&#45;4564&#45;a115&#45;480a9983fd95</title>
<polygon fill="transparent" stroke="red" stroke-dasharray="5,2" points="8,-8 8,-206 304,-206 304,-8 8,-8"/>
</g>
<!-- 7c17afa3&#45;f59a&#45;4cef&#45;adfa&#45;b120d31da109 -->
<g id="node1" class="node">
<title>7c17afa3&#45;f59a&#45;4cef&#45;adfa&#45;b120d31da109</title>
<polygon fill="none" stroke="black" points="298,-285 232.82,-267 298,-249 363.18,-267 298,-285"/>
<text text-anchor="middle" x="298" y="-263.3" font-family="Times,serif" font-size="14.00">AlwaysTrue</text>
</g>
<!-- 2a9fde22&#45;8045&#45;40f0&#45;93de&#45;73544513b2fa -->
<g id="node2" class="node">
<title>2a9fde22&#45;8045&#45;40f0&#45;93de&#45;73544513b2fa</title>
<polygon fill="none" stroke="black" stroke-dasharray="5,2" points="258,-198 204,-198 204,-162 258,-162 258,-198"/>
<text text-anchor="middle" x="231" y="-176.3" font-family="Times,serif" font-size="14.00" fill="red">Race</text>
</g>
<!-- 7c17afa3&#45;f59a&#45;4cef&#45;adfa&#45;b120d31da109&#45;&gt;2a9fde22&#45;8045&#45;40f0&#45;93de&#45;73544513b2fa -->
<g id="edge6" class="edge">
<title>7c17afa3&#45;f59a&#45;4cef&#45;adfa&#45;b120d31da109&#45;&gt;2a9fde22&#45;8045&#45;40f0&#45;93de&#45;73544513b2fa</title>
<path fill="none" stroke="black" d="M286.94,-251.96C277.15,-239.55 262.64,-221.14 250.85,-206.19"/>
<polygon fill="black" stroke="black" points="253.57,-203.98 244.63,-198.29 248.07,-208.31 253.57,-203.98"/>
<text text-anchor="middle" x="287" y="-219.8" font-family="Times,serif" font-size="14.00">False</text>
</g>
<!-- c1a9595c&#45;8f98&#45;498b&#45;8285&#45;e0fd2ca96a76 -->
<g id="node6" class="node">
<title>c1a9595c&#45;8f98&#45;498b&#45;8285&#45;e0fd2ca96a76</title>
<ellipse fill="none" stroke="black" cx="365" cy="-180" rx="34.8" ry="18"/>
<text text-anchor="middle" x="365" y="-176.3" font-family="Times,serif" font-size="14.00">WaitArm</text>
</g>
<!-- 7c17afa3&#45;f59a&#45;4cef&#45;adfa&#45;b120d31da109&#45;&gt;c1a9595c&#45;8f98&#45;498b&#45;8285&#45;e0fd2ca96a76 -->
<g id="edge5" class="edge">
<title>7c17afa3&#45;f59a&#45;4cef&#45;adfa&#45;b120d31da109&#45;&gt;c1a9595c&#45;8f98&#45;498b&#45;8285&#45;e0fd2ca96a76</title>
<path fill="none" stroke="black" d="M309.06,-251.96C319.1,-239.23 334.11,-220.19 346.05,-205.04"/>
<polygon fill="black" stroke="black" points="348.88,-207.11 352.32,-197.09 343.38,-202.77 348.88,-207.11"/>
<text text-anchor="middle" x="352" y="-219.8" font-family="Times,serif" font-size="14.00">True</text>
</g>
<!-- 11be545e&#45;0ac0&#45;4e68&#45;ac11&#45;d85f0695d21a -->
<g id="node3" class="node">
<title>11be545e&#45;0ac0&#45;4e68&#45;ac11&#45;d85f0695d21a</title>
<ellipse fill="none" stroke="black" cx="73" cy="-107" rx="56.8" ry="18"/>
<text text-anchor="middle" x="73" y="-103.3" font-family="Times,serif" font-size="14.00">UnwrapAction</text>
</g>
<!-- 2a9fde22&#45;8045&#45;40f0&#45;93de&#45;73544513b2fa&#45;&gt;11be545e&#45;0ac0&#45;4e68&#45;ac11&#45;d85f0695d21a -->
<g id="edge1" class="edge">
<title>2a9fde22&#45;8045&#45;40f0&#45;93de&#45;73544513b2fa&#45;&gt;11be545e&#45;0ac0&#45;4e68&#45;ac11&#45;d85f0695d21a</title>
<path fill="none" stroke="black" d="M203.84,-166.79C179.03,-155.65 142,-139.01 113.66,-126.27"/>
<polygon fill="black" stroke="black" points="114.97,-123.02 104.42,-122.12 112.1,-129.41 114.97,-123.02"/>
</g>
<!-- 826285c9&#45;96f8&#45;4b25&#45;8d62&#45;159effa4b239 -->
<g id="node4" class="node">
<title>826285c9&#45;96f8&#45;4b25&#45;8d62&#45;159effa4b239</title>
<ellipse fill="none" stroke="black" cx="249" cy="-107" rx="47.1" ry="18"/>
<text text-anchor="middle" x="249" y="-103.3" font-family="Times,serif" font-size="14.00">DelayAction</text>
</g>
<!-- 2a9fde22&#45;8045&#45;40f0&#45;93de&#45;73544513b2fa&#45;&gt;826285c9&#45;96f8&#45;4b25&#45;8d62&#45;159effa4b239 -->
<g id="edge2" class="edge">
<title>2a9fde22&#45;8045&#45;40f0&#45;93de&#45;73544513b2fa&#45;&gt;826285c9&#45;96f8&#45;4b25&#45;8d62&#45;159effa4b239</title>
<path fill="none" stroke="black" d="M235.36,-161.81C237.41,-153.7 239.91,-143.84 242.21,-134.78"/>
<polygon fill="black" stroke="black" points="245.62,-135.58 244.68,-125.03 238.83,-133.86 245.62,-135.58"/>
</g>
<!-- 121124c1&#45;9351&#45;482c&#45;b56e&#45;60294ac6c048 -->
<g id="node5" class="node">
<title>121124c1&#45;9351&#45;482c&#45;b56e&#45;60294ac6c048</title>
<polygon fill="none" stroke="black" stroke-dasharray="5,2" points="197,-52 125,-52 125,-16 197,-16 197,-52"/>
<text text-anchor="middle" x="161" y="-30.3" font-family="Times,serif" font-size="14.00" fill="red">Resolve</text>
</g>
<!-- 11be545e&#45;0ac0&#45;4e68&#45;ac11&#45;d85f0695d21a&#45;&gt;121124c1&#45;9351&#45;482c&#45;b56e&#45;60294ac6c048 -->
<g id="edge3" class="edge">
<title>11be545e&#45;0ac0&#45;4e68&#45;ac11&#45;d85f0695d21a&#45;&gt;121124c1&#45;9351&#45;482c&#45;b56e&#45;60294ac6c048</title>
<path fill="none" stroke="black" d="M92.97,-89.89C104.45,-80.63 119.08,-68.82 131.83,-58.54"/>
<polygon fill="black" stroke="black" points="134.3,-61.04 139.88,-52.04 129.9,-55.59 134.3,-61.04"/>
</g>
<!-- 826285c9&#45;96f8&#45;4b25&#45;8d62&#45;159effa4b239&#45;&gt;121124c1&#45;9351&#45;482c&#45;b56e&#45;60294ac6c048 -->
<g id="edge4" class="edge">
<title>826285c9&#45;96f8&#45;4b25&#45;8d62&#45;159effa4b239&#45;&gt;121124c1&#45;9351&#45;482c&#45;b56e&#45;60294ac6c048</title>
<path fill="none" stroke="black" d="M229.47,-90.24C218.01,-80.99 203.29,-69.12 190.44,-58.76"/>
<polygon fill="black" stroke="black" points="192.3,-55.76 182.32,-52.2 187.91,-61.21 192.3,-55.76"/>
</g>
</g>
</svg>
