<?xml version="1.0" encoding="UTF-8" standalone="no"?>
<!DOCTYPE svg PUBLIC "-//W3C//DTD SVG 1.1//EN"
 "http://www.w3.org/Graphics/SVG/1.1/DTD/svg11.dtd">
<!-- Generated by graphviz version 2.43.0 (0)
 -->
<!-- Title: G Pages: 1 -->
<svg width="788pt" height="276pt"
 viewBox="0.00 0.00 788.00 276.00" xmlns="http://www.w3.org/2000/svg" xmlns:xlink="http://www.w3.org/1999/xlink">
<g id="graph0" class="graph" transform="scale(1 1) rotate(0) translate(4 272)">
<title>G</title>
<polygon fill="transparent" stroke="transparent" points="-4,4 -4,-272 784,-272 784,4 -4,4"/>
<g id="clust1" class="cluster">
<title>cluster_ecb84d56&#45;f9df&#45;4450&#45;abd9&#45;d2ee8c027577</title>
<polygon fill="transparent" stroke="red" stroke-dasharray="5,2" points="8,-64 8,-260 772,-260 772,-64 8,-64"/>
</g>
<!-- b3300a49&#45;cf59&#45;45b0&#45;a4f6&#45;c293d4b5c00a -->
<g id="node1" class="node">
<title>b3300a49&#45;cf59&#45;45b0&#45;a4f6&#45;c293d4b5c00a</title>
<polygon fill="none" stroke="black" stroke-dasharray="5,2" points="417,-252 363,-252 363,-216 417,-216 417,-252"/>
<text text-anchor="middle" x="390" y="-230.3" font-family="Times,serif" font-size="14.00" fill="red">Race</text>
</g>
<!-- 9442cfd1&#45;d4f2&#45;4736&#45;82f6&#45;54d5e69166d9 -->
<g id="node2" class="node">
<title>9442cfd1&#45;d4f2&#45;4736&#45;82f6&#45;54d5e69166d9</title>
<ellipse fill="none" stroke="black" cx="62" cy="-162" rx="46.4" ry="18"/>
<text text-anchor="middle" x="62" y="-158.3" font-family="Times,serif" font-size="14.00">AlwaysTrue</text>
</g>
<!-- b3300a49&#45;cf59&#45;45b0&#45;a4f6&#45;c293d4b5c00a&#45;&gt;9442cfd1&#45;d4f2&#45;4736&#45;82f6&#45;54d5e69166d9 -->
<g id="edge1" class="edge">
<title>b3300a49&#45;cf59&#45;45b0&#45;a4f6&#45;c293d4b5c00a&#45;&gt;9442cfd1&#45;d4f2&#45;4736&#45;82f6&#45;54d5e69166d9</title>
<path fill="none" stroke="black" d="M362.88,-227.21C307.73,-215.44 181.79,-188.57 111.59,-173.58"/>
<polygon fill="black" stroke="black" points="112.16,-170.13 101.65,-171.46 110.7,-176.97 112.16,-170.13"/>
</g>
<!-- 9b6fcc35&#45;00e4&#45;452b&#45;a712&#45;db38eab167b4 -->
<g id="node3" class="node">
<title>9b6fcc35&#45;00e4&#45;452b&#45;a712&#45;db38eab167b4</title>
<ellipse fill="none" stroke="black" cx="226" cy="-162" rx="46.4" ry="18"/>
<text text-anchor="middle" x="226" y="-158.3" font-family="Times,serif" font-size="14.00">AlwaysTrue</text>
</g>
<!-- b3300a49&#45;cf59&#45;45b0&#45;a4f6&#45;c293d4b5c00a&#45;&gt;9b6fcc35&#45;00e4&#45;452b&#45;a712&#45;db38eab167b4 -->
<g id="edge2" class="edge">
<title>b3300a49&#45;cf59&#45;45b0&#45;a4f6&#45;c293d4b5c00a&#45;&gt;9b6fcc35&#45;00e4&#45;452b&#45;a712&#45;db38eab167b4</title>
<path fill="none" stroke="black" d="M362.92,-221.44C336.32,-210.09 295.45,-192.65 265.29,-179.77"/>
<polygon fill="black" stroke="black" points="266.47,-176.47 255.9,-175.76 263.72,-182.91 266.47,-176.47"/>
</g>
<!-- 083e5c47&#45;2e68&#45;41b4&#45;879c&#45;84797e9aaa82 -->
<g id="node4" class="node">
<title>083e5c47&#45;2e68&#45;41b4&#45;879c&#45;84797e9aaa82</title>
<ellipse fill="none" stroke="black" cx="390" cy="-162" rx="46.4" ry="18"/>
<text text-anchor="middle" x="390" y="-158.3" font-family="Times,serif" font-size="14.00">AlwaysTrue</text>
</g>
<!-- b3300a49&#45;cf59&#45;45b0&#45;a4f6&#45;c293d4b5c00a&#45;&gt;083e5c47&#45;2e68&#45;41b4&#45;879c&#45;84797e9aaa82 -->
<g id="edge3" class="edge">
<title>b3300a49&#45;cf59&#45;45b0&#45;a4f6&#45;c293d4b5c00a&#45;&gt;083e5c47&#45;2e68&#45;41b4&#45;879c&#45;84797e9aaa82</title>
<path fill="none" stroke="black" d="M390,-215.7C390,-207.98 390,-198.71 390,-190.11"/>
<polygon fill="black" stroke="black" points="393.5,-190.1 390,-180.1 386.5,-190.1 393.5,-190.1"/>
</g>
<!-- 0dd651e5&#45;b9ee&#45;4e9a&#45;84c9&#45;b50bfd8dd44c -->
<g id="node5" class="node">
<title>0dd651e5&#45;b9ee&#45;4e9a&#45;84c9&#45;b50bfd8dd44c</title>
<ellipse fill="none" stroke="black" cx="554" cy="-162" rx="46.4" ry="18"/>
<text text-anchor="middle" x="554" y="-158.3" font-family="Times,serif" font-size="14.00">AlwaysTrue</text>
</g>
<!-- b3300a49&#45;cf59&#45;45b0&#45;a4f6&#45;c293d4b5c00a&#45;&gt;0dd651e5&#45;b9ee&#45;4e9a&#45;84c9&#45;b50bfd8dd44c -->
<g id="edge4" class="edge">
<title>b3300a49&#45;cf59&#45;45b0&#45;a4f6&#45;c293d4b5c00a&#45;&gt;0dd651e5&#45;b9ee&#45;4e9a&#45;84c9&#45;b50bfd8dd44c</title>
<path fill="none" stroke="black" d="M417.08,-221.44C443.68,-210.09 484.55,-192.65 514.71,-179.77"/>
<polygon fill="black" stroke="black" points="516.28,-182.91 524.1,-175.76 513.53,-176.47 516.28,-182.91"/>
</g>
<!-- 5a701193&#45;ac49&#45;4b72&#45;baac&#45;2b7615e7db38 -->
<g id="node6" class="node">
<title>5a701193&#45;ac49&#45;4b72&#45;baac&#45;2b7615e7db38</title>
<ellipse fill="none" stroke="black" cx="718" cy="-162" rx="46.4" ry="18"/>
<text text-anchor="middle" x="718" y="-158.3" font-family="Times,serif" font-size="14.00">AlwaysTrue</text>
</g>
<!-- b3300a49&#45;cf59&#45;45b0&#45;a4f6&#45;c293d4b5c00a&#45;&gt;5a701193&#45;ac49&#45;4b72&#45;baac&#45;2b7615e7db38 -->
<g id="edge5" class="edge">
<title>b3300a49&#45;cf59&#45;45b0&#45;a4f6&#45;c293d4b5c00a&#45;&gt;5a701193&#45;ac49&#45;4b72&#45;baac&#45;2b7615e7db38</title>
<path fill="none" stroke="black" d="M417.12,-227.21C472.27,-215.44 598.21,-188.57 668.41,-173.58"/>
<polygon fill="black" stroke="black" points="669.3,-176.97 678.35,-171.46 667.84,-170.13 669.3,-176.97"/>
</g>
<!-- dc960461&#45;3416&#45;4a12&#45;bedb&#45;cd7921a70112 -->
<g id="node7" class="node">
<title>dc960461&#45;3416&#45;4a12&#45;bedb&#45;cd7921a70112</title>
<polygon fill="none" stroke="black" stroke-dasharray="5,2" points="426,-108 354,-108 354,-72 426,-72 426,-108"/>
<text text-anchor="middle" x="390" y="-86.3" font-family="Times,serif" font-size="14.00" fill="red">Resolve</text>
</g>
<!-- 9442cfd1&#45;d4f2&#45;4736&#45;82f6&#45;54d5e69166d9&#45;&gt;dc960461&#45;3416&#45;4a12&#45;bedb&#45;cd7921a70112 -->
<g id="edge6" class="edge">
<title>9442cfd1&#45;d4f2&#45;4736&#45;82f6&#45;54d5e69166d9&#45;&gt;dc960461&#45;3416&#45;4a12&#45;bedb&#45;cd7921a70112</title>
<path fill="none" stroke="black" d="M101.56,-152.56C162.54,-139.54 279.18,-114.65 343.89,-100.84"/>
<polygon fill="black" stroke="black" points="344.76,-104.23 353.81,-98.72 343.3,-97.39 344.76,-104.23"/>
</g>
<!-- 9b6fcc35&#45;00e4&#45;452b&#45;a712&#45;db38eab167b4&#45;&gt;dc960461&#45;3416&#45;4a12&#45;bedb&#45;cd7921a70112 -->
<g id="edge7" class="edge">
<title>9b6fcc35&#45;00e4&#45;452b&#45;a712&#45;db38eab167b4&#45;&gt;dc960461&#45;3416&#45;4a12&#45;bedb&#45;cd7921a70112</title>
<path fill="none" stroke="black" d="M256.08,-148.16C280.84,-137.59 316.32,-122.45 344.55,-110.4"/>
<polygon fill="black" stroke="black" points="345.99,-113.59 353.81,-106.45 343.24,-107.15 345.99,-113.59"/>
</g>
<!-- 083e5c47&#45;2e68&#45;41b4&#45;879c&#45;84797e9aaa82&#45;&gt;dc960461&#45;3416&#45;4a12&#45;bedb&#45;cd7921a70112 -->
<g id="edge8" class="edge">
<title>083e5c47&#45;2e68&#45;41b4&#45;879c&#45;84797e9aaa82&#45;&gt;dc960461&#45;3416&#45;4a12&#45;bedb&#45;cd7921a70112</title>
<path fill="none" stroke="black" d="M390,-143.7C390,-135.98 390,-126.71 390,-118.11"/>
<polygon fill="black" stroke="black" points="393.5,-118.1 390,-108.1 386.5,-118.1 393.5,-118.1"/>
</g>
<!-- 0dd651e5&#45;b9ee&#45;4e9a&#45;84c9&#45;b50bfd8dd44c&#45;&gt;dc960461&#45;3416&#45;4a12&#45;bedb&#45;cd7921a70112 -->
<g id="edge9" class="edge">
<title>0dd651e5&#45;b9ee&#45;4e9a&#45;84c9&#45;b50bfd8dd44c&#45;&gt;dc960461&#45;3416&#45;4a12&#45;bedb&#45;cd7921a70112</title>
<path fill="none" stroke="black" d="M523.92,-148.16C499.16,-137.59 463.68,-122.45 435.45,-110.4"/>
<polygon fill="black" stroke="black" points="436.76,-107.15 426.19,-106.45 434.01,-113.59 436.76,-107.15"/>
</g>
<!-- 5a701193&#45;ac49&#45;4b72&#45;baac&#45;2b7615e7db38&#45;&gt;dc960461&#45;3416&#45;4a12&#45;bedb&#45;cd7921a70112 -->
<g id="edge10" class="edge">
<title>5a701193&#45;ac49&#45;4b72&#45;baac&#45;2b7615e7db38&#45;&gt;dc960461&#45;3416&#45;4a12&#45;bedb&#45;cd7921a70112</title>
<path fill="none" stroke="black" d="M678.44,-152.56C617.46,-139.54 500.82,-114.65 436.11,-100.84"/>
<polygon fill="black" stroke="black" points="436.7,-97.39 426.19,-98.72 435.24,-104.23 436.7,-97.39"/>
</g>
<!-- 929687c7&#45;eec3&#45;4210&#45;bc2d&#45;2ccba7ae0df3 -->
<g id="node8" class="node">
<title>929687c7&#45;eec3&#45;4210&#45;bc2d&#45;2ccba7ae0df3</title>
<ellipse fill="none" stroke="black" cx="390" cy="-18" rx="46.4" ry="18"/>
<text text-anchor="middle" x="390" y="-14.3" font-family="Times,serif" font-size="14.00">AlwaysTrue</text>
</g>
<!-- dc960461&#45;3416&#45;4a12&#45;bedb&#45;cd7921a70112&#45;&gt;929687c7&#45;eec3&#45;4210&#45;bc2d&#45;2ccba7ae0df3 -->
<g id="edge11" class="edge">
<title>dc960461&#45;3416&#45;4a12&#45;bedb&#45;cd7921a70112&#45;&gt;929687c7&#45;eec3&#45;4210&#45;bc2d&#45;2ccba7ae0df3</title>
<path fill="none" stroke="black" d="M390,-71.7C390,-63.98 390,-54.71 390,-46.11"/>
<polygon fill="black" stroke="black" points="393.5,-46.1 390,-36.1 386.5,-46.1 393.5,-46.1"/>
</g>
</g>
</svg>
