<?xml version="1.0" encoding="UTF-8" standalone="no"?>
<!DOCTYPE svg PUBLIC "-//W3C//DTD SVG 1.1//EN"
 "http://www.w3.org/Graphics/SVG/1.1/DTD/svg11.dtd">
<!-- Generated by graphviz version 2.43.0 (0)
 -->
<!-- Title: G Pages: 1 -->
<svg width="262pt" height="277pt"
 viewBox="0.00 0.00 262.30 277.00" xmlns="http://www.w3.org/2000/svg" xmlns:xlink="http://www.w3.org/1999/xlink">
<g id="graph0" class="graph" transform="scale(1 1) rotate(0) translate(4 273)">
<title>G</title>
<polygon fill="transparent" stroke="transparent" points="-4,4 -4,-273 258.3,-273 258.3,4 -4,4"/>
<!-- ba6afc85&#45;3a05&#45;4e07&#45;a27e&#45;1e5105d9a698 -->
<g id="node1" class="node">
<title>ba6afc85&#45;3a05&#45;4e07&#45;a27e&#45;1e5105d9a698</title>
<polygon fill="none" stroke="black" points="115.65,-123 50.47,-105 115.65,-87 180.83,-105 115.65,-123"/>
<text text-anchor="middle" x="115.65" y="-101.3" font-family="Times,serif" font-size="14.00">AlwaysTrue</text>
</g>
<!-- a385d8cf&#45;fd27&#45;4ec3&#45;b644&#45;f676c35ad44d -->
<g id="node4" class="node">
<title>a385d8cf&#45;fd27&#45;4ec3&#45;b644&#45;f676c35ad44d</title>
<ellipse fill="none" stroke="black" cx="34.65" cy="-18" rx="34.8" ry="18"/>
<text text-anchor="middle" x="34.65" y="-14.3" font-family="Times,serif" font-size="14.00">WaitArm</text>
</g>
<!-- ba6afc85&#45;3a05&#45;4e07&#45;a27e&#45;1e5105d9a698&#45;&gt;a385d8cf&#45;fd27&#45;4ec3&#45;b644&#45;f676c35ad44d -->
<g id="edge2" class="edge">
<title>ba6afc85&#45;3a05&#45;4e07&#45;a27e&#45;1e5105d9a698&#45;&gt;a385d8cf&#45;fd27&#45;4ec3&#45;b644&#45;f676c35ad44d</title>
<path fill="none" stroke="black" d="M98.99,-91.47C90.97,-85.11 81.44,-77.05 73.65,-69 66.07,-61.17 58.52,-51.92 52.11,-43.52"/>
<polygon fill="black" stroke="black" points="54.9,-41.41 46.12,-35.48 49.29,-45.59 54.9,-41.41"/>
<text text-anchor="middle" x="90.65" y="-57.8" font-family="Times,serif" font-size="14.00">True</text>
</g>
<!-- 365f79c1&#45;2d2e&#45;4f71&#45;bfd0&#45;cca5ac3fcce1 -->
<g id="node5" class="node">
<title>365f79c1&#45;2d2e&#45;4f71&#45;bfd0&#45;cca5ac3fcce1</title>
<ellipse fill="none" stroke="black" cx="197.65" cy="-18" rx="56.8" ry="18"/>
<text text-anchor="middle" x="197.65" y="-14.3" font-family="Times,serif" font-size="14.00">UnwrapAction</text>
</g>
<!-- ba6afc85&#45;3a05&#45;4e07&#45;a27e&#45;1e5105d9a698&#45;&gt;365f79c1&#45;2d2e&#45;4f71&#45;bfd0&#45;cca5ac3fcce1 -->
<g id="edge3" class="edge">
<title>ba6afc85&#45;3a05&#45;4e07&#45;a27e&#45;1e5105d9a698&#45;&gt;365f79c1&#45;2d2e&#45;4f71&#45;bfd0&#45;cca5ac3fcce1</title>
<path fill="none" stroke="black" d="M128.83,-90.34C141.09,-77.64 159.63,-58.41 174.38,-43.12"/>
<polygon fill="black" stroke="black" points="177.27,-45.17 181.7,-35.54 172.23,-40.31 177.27,-45.17"/>
<text text-anchor="middle" x="179.65" y="-57.8" font-family="Times,serif" font-size="14.00">False</text>
</g>
<!-- 64df9b9c&#45;4688&#45;4592&#45;85bc&#45;e41f15811a2f -->
<g id="node2" class="node">
<title>64df9b9c&#45;4688&#45;4592&#45;85bc&#45;e41f15811a2f</title>
<ellipse fill="none" stroke="black" cx="115.65" cy="-251" rx="34.8" ry="18"/>
<text text-anchor="middle" x="115.65" y="-247.3" font-family="Times,serif" font-size="14.00">WaitArm</text>
</g>
<!-- dc4610f3&#45;1f8c&#45;49d4&#45;aad2&#45;fde437ce7ae3 -->
<g id="node3" class="node">
<title>dc4610f3&#45;1f8c&#45;49d4&#45;aad2&#45;fde437ce7ae3</title>
<ellipse fill="none" stroke="black" cx="115.65" cy="-178" rx="33.6" ry="18"/>
<text text-anchor="middle" x="115.65" y="-174.3" font-family="Times,serif" font-size="14.00">Descend</text>
</g>
<!-- 64df9b9c&#45;4688&#45;4592&#45;85bc&#45;e41f15811a2f&#45;&gt;dc4610f3&#45;1f8c&#45;49d4&#45;aad2&#45;fde437ce7ae3 -->
<g id="edge1" class="edge">
<title>64df9b9c&#45;4688&#45;4592&#45;85bc&#45;e41f15811a2f&#45;&gt;dc4610f3&#45;1f8c&#45;49d4&#45;aad2&#45;fde437ce7ae3</title>
<path fill="none" stroke="black" d="M115.65,-232.81C115.65,-224.79 115.65,-215.05 115.65,-206.07"/>
<polygon fill="black" stroke="black" points="119.15,-206.03 115.65,-196.03 112.15,-206.03 119.15,-206.03"/>
</g>
<!-- dc4610f3&#45;1f8c&#45;49d4&#45;aad2&#45;fde437ce7ae3&#45;&gt;ba6afc85&#45;3a05&#45;4e07&#45;a27e&#45;1e5105d9a698 -->
<g id="edge4" class="edge">
<title>dc4610f3&#45;1f8c&#45;49d4&#45;aad2&#45;fde437ce7ae3&#45;&gt;ba6afc85&#45;3a05&#45;4e07&#45;a27e&#45;1e5105d9a698</title>
<path fill="none" stroke="black" d="M115.65,-159.81C115.65,-151.79 115.65,-142.05 115.65,-133.07"/>
<polygon fill="black" stroke="black" points="119.15,-133.03 115.65,-123.03 112.15,-133.03 119.15,-133.03"/>
</g>
</g>
</svg>
