<?xml version="1.0" encoding="UTF-8" standalone="no"?>
<!DOCTYPE svg PUBLIC "-//W3C//DTD SVG 1.1//EN"
 "http://www.w3.org/Graphics/SVG/1.1/DTD/svg11.dtd">
<!-- Generated by graphviz version 2.43.0 (0)
 -->
<!-- Title: G Pages: 1 -->
<svg width="326pt" height="263pt"
 viewBox="0.00 0.00 325.57 263.00" xmlns="http://www.w3.org/2000/svg" xmlns:xlink="http://www.w3.org/1999/xlink">
<g id="graph0" class="graph" transform="scale(1 1) rotate(0) translate(4 259)">
<title>G</title>
<polygon fill="transparent" stroke="transparent" points="-4,4 -4,-259 321.57,-259 321.57,4 -4,4"/>
<!-- 9f0995eb&#45;048a&#45;42d6&#45;8e46&#45;220a6f70da18 -->
<g id="node1" class="node">
<title>9f0995eb&#45;048a&#45;42d6&#45;8e46&#45;220a6f70da18</title>
<polygon fill="none" stroke="black" points="105.79,-255 0.21,-237 105.79,-219 211.36,-237 105.79,-255"/>
<text text-anchor="middle" x="105.79" y="-233.3" font-family="Times,serif" font-size="14.00">DriveToBuoyVision</text>
</g>
<!-- 9f0995eb&#45;048a&#45;42d6&#45;8e46&#45;220a6f70da18&#45;&gt;9f0995eb&#45;048a&#45;42d6&#45;8e46&#45;220a6f70da18 -->
<g id="edge1" class="edge">
<title>9f0995eb&#45;048a&#45;42d6&#45;8e46&#45;220a6f70da18&#45;&gt;9f0995eb&#45;048a&#45;42d6&#45;8e46&#45;220a6f70da18</title>
<path fill="none" stroke="black" d="M176.98,-242.95C230.07,-245.03 283.57,-243.05 283.57,-237 283.57,-231.34 236.74,-229.24 187.24,-230.7"/>
<polygon fill="black" stroke="black" points="186.86,-227.21 176.98,-231.05 187.1,-234.2 186.86,-227.21"/>
<text text-anchor="middle" x="300.57" y="-233.3" font-family="Times,serif" font-size="14.00">True</text>
</g>
<!-- 591d8ee4&#45;b567&#45;4617&#45;84ba&#45;084304709ace -->
<g id="node2" class="node">
<title>591d8ee4&#45;b567&#45;4617&#45;84ba&#45;084304709ace</title>
<ellipse fill="none" stroke="black" cx="105.79" cy="-164" rx="74.61" ry="18"/>
<text text-anchor="middle" x="105.79" y="-160.3" font-family="Times,serif" font-size="14.00">StraightMovement</text>
</g>
<!-- 9f0995eb&#45;048a&#45;42d6&#45;8e46&#45;220a6f70da18&#45;&gt;591d8ee4&#45;b567&#45;4617&#45;84ba&#45;084304709ace -->
<g id="edge4" class="edge">
<title>9f0995eb&#45;048a&#45;42d6&#45;8e46&#45;220a6f70da18&#45;&gt;591d8ee4&#45;b567&#45;4617&#45;84ba&#45;084304709ace</title>
<path fill="none" stroke="black" d="M105.79,-218.81C105.79,-210.79 105.79,-201.05 105.79,-192.07"/>
<polygon fill="black" stroke="black" points="109.29,-192.03 105.79,-182.03 102.29,-192.03 109.29,-192.03"/>
</g>
<!-- 184b7180&#45;b168&#45;462c&#45;8415&#45;77acd5ee91ab -->
<g id="node3" class="node">
<title>184b7180&#45;b168&#45;462c&#45;8415&#45;77acd5ee91ab</title>
<ellipse fill="none" stroke="black" cx="105.79" cy="-91" rx="47.1" ry="18"/>
<text text-anchor="middle" x="105.79" y="-87.3" font-family="Times,serif" font-size="14.00">DelayAction</text>
</g>
<!-- 591d8ee4&#45;b567&#45;4617&#45;84ba&#45;084304709ace&#45;&gt;184b7180&#45;b168&#45;462c&#45;8415&#45;77acd5ee91ab -->
<g id="edge3" class="edge">
<title>591d8ee4&#45;b567&#45;4617&#45;84ba&#45;084304709ace&#45;&gt;184b7180&#45;b168&#45;462c&#45;8415&#45;77acd5ee91ab</title>
<path fill="none" stroke="black" d="M105.79,-145.81C105.79,-137.79 105.79,-128.05 105.79,-119.07"/>
<polygon fill="black" stroke="black" points="109.29,-119.03 105.79,-109.03 102.29,-119.03 109.29,-119.03"/>
</g>
<!-- f3991134&#45;5789&#45;4cef&#45;8aee&#45;6127b2f42206 -->
<g id="node4" class="node">
<title>f3991134&#45;5789&#45;4cef&#45;8aee&#45;6127b2f42206</title>
<ellipse fill="none" stroke="black" cx="105.79" cy="-18" rx="59.9" ry="18"/>
<text text-anchor="middle" x="105.79" y="-14.3" font-family="Times,serif" font-size="14.00">ZeroMovement</text>
</g>
<!-- 184b7180&#45;b168&#45;462c&#45;8415&#45;77acd5ee91ab&#45;&gt;f3991134&#45;5789&#45;4cef&#45;8aee&#45;6127b2f42206 -->
<g id="edge2" class="edge">
<title>184b7180&#45;b168&#45;462c&#45;8415&#45;77acd5ee91ab&#45;&gt;f3991134&#45;5789&#45;4cef&#45;8aee&#45;6127b2f42206</title>
<path fill="none" stroke="black" d="M105.79,-72.81C105.79,-64.79 105.79,-55.05 105.79,-46.07"/>
<polygon fill="black" stroke="black" points="109.29,-46.03 105.79,-36.03 102.29,-46.03 109.29,-46.03"/>
</g>
</g>
</svg>
