<?xml version="1.0" encoding="UTF-8" standalone="no"?>
<!DOCTYPE svg PUBLIC "-//W3C//DTD SVG 1.1//EN"
 "http://www.w3.org/Graphics/SVG/1.1/DTD/svg11.dtd">
<!-- Generated by graphviz version 2.43.0 (0)
 -->
<!-- Title: G Pages: 1 -->
<svg width="158pt" height="404pt"
 viewBox="0.00 0.00 157.61 404.00" xmlns="http://www.w3.org/2000/svg" xmlns:xlink="http://www.w3.org/1999/xlink">
<g id="graph0" class="graph" transform="scale(1 1) rotate(0) translate(4 400)">
<title>G</title>
<polygon fill="transparent" stroke="transparent" points="-4,4 -4,-400 153.61,-400 153.61,4 -4,4"/>
<!-- 4cbb689c&#45;b6e0&#45;4da6&#45;a29b&#45;eff4a69f9937 -->
<g id="node1" class="node">
<title>4cbb689c&#45;b6e0&#45;4da6&#45;a29b&#45;eff4a69f9937</title>
<ellipse fill="none" stroke="black" cx="74.8" cy="-306" rx="33.6" ry="18"/>
<text text-anchor="middle" x="74.8" y="-302.3" font-family="Times,serif" font-size="14.00">Descend</text>
</g>
<!-- 17de48ef&#45;5e43&#45;4e03&#45;8948&#45;7fcc15c67640 -->
<g id="node2" class="node">
<title>17de48ef&#45;5e43&#45;4e03&#45;8948&#45;7fcc15c67640</title>
<ellipse fill="none" stroke="black" cx="74.8" cy="-234" rx="47.1" ry="18"/>
<text text-anchor="middle" x="74.8" y="-230.3" font-family="Times,serif" font-size="14.00">DelayAction</text>
</g>
<!-- 4cbb689c&#45;b6e0&#45;4da6&#45;a29b&#45;eff4a69f9937&#45;&gt;17de48ef&#45;5e43&#45;4e03&#45;8948&#45;7fcc15c67640 -->
<g id="edge1" class="edge">
<title>4cbb689c&#45;b6e0&#45;4da6&#45;a29b&#45;eff4a69f9937&#45;&gt;17de48ef&#45;5e43&#45;4e03&#45;8948&#45;7fcc15c67640</title>
<path fill="none" stroke="black" d="M74.8,-287.7C74.8,-279.98 74.8,-270.71 74.8,-262.11"/>
<polygon fill="black" stroke="black" points="78.3,-262.1 74.8,-252.1 71.3,-262.1 78.3,-262.1"/>
</g>
<!-- d35110bd&#45;b864&#45;4564&#45;9d08&#45;8b7b93ddea4e -->
<g id="node3" class="node">
<title>d35110bd&#45;b864&#45;4564&#45;9d08&#45;8b7b93ddea4e</title>
<ellipse fill="none" stroke="black" cx="74.8" cy="-162" rx="74.61" ry="18"/>
<text text-anchor="middle" x="74.8" y="-158.3" font-family="Times,serif" font-size="14.00">StraightMovement</text>
</g>
<!-- 17de48ef&#45;5e43&#45;4e03&#45;8948&#45;7fcc15c67640&#45;&gt;d35110bd&#45;b864&#45;4564&#45;9d08&#45;8b7b93ddea4e -->
<g id="edge4" class="edge">
<title>17de48ef&#45;5e43&#45;4e03&#45;8948&#45;7fcc15c67640&#45;&gt;d35110bd&#45;b864&#45;4564&#45;9d08&#45;8b7b93ddea4e</title>
<path fill="none" stroke="black" d="M74.8,-215.7C74.8,-207.98 74.8,-198.71 74.8,-190.11"/>
<polygon fill="black" stroke="black" points="78.3,-190.1 74.8,-180.1 71.3,-190.1 78.3,-190.1"/>
</g>
<!-- da71ea80&#45;33f8&#45;4170&#45;a1ea&#45;84996fd67812 -->
<g id="node4" class="node">
<title>da71ea80&#45;33f8&#45;4170&#45;a1ea&#45;84996fd67812</title>
<ellipse fill="none" stroke="black" cx="74.8" cy="-90" rx="47.1" ry="18"/>
<text text-anchor="middle" x="74.8" y="-86.3" font-family="Times,serif" font-size="14.00">DelayAction</text>
</g>
<!-- d35110bd&#45;b864&#45;4564&#45;9d08&#45;8b7b93ddea4e&#45;&gt;da71ea80&#45;33f8&#45;4170&#45;a1ea&#45;84996fd67812 -->
<g id="edge2" class="edge">
<title>d35110bd&#45;b864&#45;4564&#45;9d08&#45;8b7b93ddea4e&#45;&gt;da71ea80&#45;33f8&#45;4170&#45;a1ea&#45;84996fd67812</title>
<path fill="none" stroke="black" d="M74.8,-143.7C74.8,-135.98 74.8,-126.71 74.8,-118.11"/>
<polygon fill="black" stroke="black" points="78.3,-118.1 74.8,-108.1 71.3,-118.1 78.3,-118.1"/>
</g>
<!-- c31def63&#45;4e48&#45;44d3&#45;bca5&#45;ebe7fe9c0c7d -->
<g id="node5" class="node">
<title>c31def63&#45;4e48&#45;44d3&#45;bca5&#45;ebe7fe9c0c7d</title>
<ellipse fill="none" stroke="black" cx="74.8" cy="-18" rx="59.9" ry="18"/>
<text text-anchor="middle" x="74.8" y="-14.3" font-family="Times,serif" font-size="14.00">ZeroMovement</text>
</g>
<!-- da71ea80&#45;33f8&#45;4170&#45;a1ea&#45;84996fd67812&#45;&gt;c31def63&#45;4e48&#45;44d3&#45;bca5&#45;ebe7fe9c0c7d -->
<g id="edge3" class="edge">
<title>da71ea80&#45;33f8&#45;4170&#45;a1ea&#45;84996fd67812&#45;&gt;c31def63&#45;4e48&#45;44d3&#45;bca5&#45;ebe7fe9c0c7d</title>
<path fill="none" stroke="black" d="M74.8,-71.7C74.8,-63.98 74.8,-54.71 74.8,-46.11"/>
<polygon fill="black" stroke="black" points="78.3,-46.1 74.8,-36.1 71.3,-46.1 78.3,-46.1"/>
</g>
<!-- fd5a833c&#45;def8&#45;48de&#45;abe2&#45;b878d552608a -->
<g id="node6" class="node">
<title>fd5a833c&#45;def8&#45;48de&#45;abe2&#45;b878d552608a</title>
<ellipse fill="none" stroke="black" cx="74.8" cy="-378" rx="34.8" ry="18"/>
<text text-anchor="middle" x="74.8" y="-374.3" font-family="Times,serif" font-size="14.00">WaitArm</text>
</g>
<!-- fd5a833c&#45;def8&#45;48de&#45;abe2&#45;b878d552608a&#45;&gt;4cbb689c&#45;b6e0&#45;4da6&#45;a29b&#45;eff4a69f9937 -->
<g id="edge5" class="edge">
<title>fd5a833c&#45;def8&#45;48de&#45;abe2&#45;b878d552608a&#45;&gt;4cbb689c&#45;b6e0&#45;4da6&#45;a29b&#45;eff4a69f9937</title>
<path fill="none" stroke="black" d="M74.8,-359.7C74.8,-351.98 74.8,-342.71 74.8,-334.11"/>
<polygon fill="black" stroke="black" points="78.3,-334.1 74.8,-324.1 71.3,-334.1 78.3,-334.1"/>
</g>
</g>
</svg>
