<?xml version="1.0" encoding="UTF-8" standalone="no"?>
<!DOCTYPE svg PUBLIC "-//W3C//DTD SVG 1.1//EN"
 "http://www.w3.org/Graphics/SVG/1.1/DTD/svg11.dtd">
<!-- Generated by graphviz version 2.43.0 (0)
 -->
<!-- Title: G Pages: 1 -->
<svg width="158pt" height="404pt"
 viewBox="0.00 0.00 157.61 404.00" xmlns="http://www.w3.org/2000/svg" xmlns:xlink="http://www.w3.org/1999/xlink">
<g id="graph0" class="graph" transform="scale(1 1) rotate(0) translate(4 400)">
<title>G</title>
<polygon fill="transparent" stroke="transparent" points="-4,4 -4,-400 153.61,-400 153.61,4 -4,4"/>
<!-- 9f33720d&#45;67bd&#45;442a&#45;bfd0&#45;eb2a3f97ed9b -->
<g id="node1" class="node">
<title>9f33720d&#45;67bd&#45;442a&#45;bfd0&#45;eb2a3f97ed9b</title>
<ellipse fill="none" stroke="black" cx="74.8" cy="-306" rx="33.6" ry="18"/>
<text text-anchor="middle" x="74.8" y="-302.3" font-family="Times,serif" font-size="14.00">Descend</text>
</g>
<!-- d4842e8b&#45;8e56&#45;45fa&#45;ae9f&#45;ff7a420fa3fc -->
<g id="node2" class="node">
<title>d4842e8b&#45;8e56&#45;45fa&#45;ae9f&#45;ff7a420fa3fc</title>
<ellipse fill="none" stroke="black" cx="74.8" cy="-234" rx="47.1" ry="18"/>
<text text-anchor="middle" x="74.8" y="-230.3" font-family="Times,serif" font-size="14.00">DelayAction</text>
</g>
<!-- 9f33720d&#45;67bd&#45;442a&#45;bfd0&#45;eb2a3f97ed9b&#45;&gt;d4842e8b&#45;8e56&#45;45fa&#45;ae9f&#45;ff7a420fa3fc -->
<g id="edge1" class="edge">
<title>9f33720d&#45;67bd&#45;442a&#45;bfd0&#45;eb2a3f97ed9b&#45;&gt;d4842e8b&#45;8e56&#45;45fa&#45;ae9f&#45;ff7a420fa3fc</title>
<path fill="none" stroke="black" d="M74.8,-287.7C74.8,-279.98 74.8,-270.71 74.8,-262.11"/>
<polygon fill="black" stroke="black" points="78.3,-262.1 74.8,-252.1 71.3,-262.1 78.3,-262.1"/>
</g>
<!-- 3cd2a750&#45;e21a&#45;40cb&#45;9fe7&#45;c5e58f2b61bd -->
<g id="node3" class="node">
<title>3cd2a750&#45;e21a&#45;40cb&#45;9fe7&#45;c5e58f2b61bd</title>
<ellipse fill="none" stroke="black" cx="74.8" cy="-162" rx="74.61" ry="18"/>
<text text-anchor="middle" x="74.8" y="-158.3" font-family="Times,serif" font-size="14.00">StraightMovement</text>
</g>
<!-- d4842e8b&#45;8e56&#45;45fa&#45;ae9f&#45;ff7a420fa3fc&#45;&gt;3cd2a750&#45;e21a&#45;40cb&#45;9fe7&#45;c5e58f2b61bd -->
<g id="edge4" class="edge">
<title>d4842e8b&#45;8e56&#45;45fa&#45;ae9f&#45;ff7a420fa3fc&#45;&gt;3cd2a750&#45;e21a&#45;40cb&#45;9fe7&#45;c5e58f2b61bd</title>
<path fill="none" stroke="black" d="M74.8,-215.7C74.8,-207.98 74.8,-198.71 74.8,-190.11"/>
<polygon fill="black" stroke="black" points="78.3,-190.1 74.8,-180.1 71.3,-190.1 78.3,-190.1"/>
</g>
<!-- cdd3138d&#45;75c4&#45;4115&#45;8eee&#45;599f0cedba4f -->
<g id="node4" class="node">
<title>cdd3138d&#45;75c4&#45;4115&#45;8eee&#45;599f0cedba4f</title>
<ellipse fill="none" stroke="black" cx="74.8" cy="-90" rx="47.1" ry="18"/>
<text text-anchor="middle" x="74.8" y="-86.3" font-family="Times,serif" font-size="14.00">DelayAction</text>
</g>
<!-- 3cd2a750&#45;e21a&#45;40cb&#45;9fe7&#45;c5e58f2b61bd&#45;&gt;cdd3138d&#45;75c4&#45;4115&#45;8eee&#45;599f0cedba4f -->
<g id="edge2" class="edge">
<title>3cd2a750&#45;e21a&#45;40cb&#45;9fe7&#45;c5e58f2b61bd&#45;&gt;cdd3138d&#45;75c4&#45;4115&#45;8eee&#45;599f0cedba4f</title>
<path fill="none" stroke="black" d="M74.8,-143.7C74.8,-135.98 74.8,-126.71 74.8,-118.11"/>
<polygon fill="black" stroke="black" points="78.3,-118.1 74.8,-108.1 71.3,-118.1 78.3,-118.1"/>
</g>
<!-- 6a23e71e&#45;d36d&#45;488a&#45;b181&#45;703d31c24486 -->
<g id="node5" class="node">
<title>6a23e71e&#45;d36d&#45;488a&#45;b181&#45;703d31c24486</title>
<ellipse fill="none" stroke="black" cx="74.8" cy="-18" rx="59.9" ry="18"/>
<text text-anchor="middle" x="74.8" y="-14.3" font-family="Times,serif" font-size="14.00">ZeroMovement</text>
</g>
<!-- cdd3138d&#45;75c4&#45;4115&#45;8eee&#45;599f0cedba4f&#45;&gt;6a23e71e&#45;d36d&#45;488a&#45;b181&#45;703d31c24486 -->
<g id="edge3" class="edge">
<title>cdd3138d&#45;75c4&#45;4115&#45;8eee&#45;599f0cedba4f&#45;&gt;6a23e71e&#45;d36d&#45;488a&#45;b181&#45;703d31c24486</title>
<path fill="none" stroke="black" d="M74.8,-71.7C74.8,-63.98 74.8,-54.71 74.8,-46.11"/>
<polygon fill="black" stroke="black" points="78.3,-46.1 74.8,-36.1 71.3,-46.1 78.3,-46.1"/>
</g>
<!-- 41dc91c0&#45;549a&#45;4b7c&#45;9358&#45;f146bc10b3e1 -->
<g id="node6" class="node">
<title>41dc91c0&#45;549a&#45;4b7c&#45;9358&#45;f146bc10b3e1</title>
<ellipse fill="none" stroke="black" cx="74.8" cy="-378" rx="34.8" ry="18"/>
<text text-anchor="middle" x="74.8" y="-374.3" font-family="Times,serif" font-size="14.00">WaitArm</text>
</g>
<!-- 41dc91c0&#45;549a&#45;4b7c&#45;9358&#45;f146bc10b3e1&#45;&gt;9f33720d&#45;67bd&#45;442a&#45;bfd0&#45;eb2a3f97ed9b -->
<g id="edge5" class="edge">
<title>41dc91c0&#45;549a&#45;4b7c&#45;9358&#45;f146bc10b3e1&#45;&gt;9f33720d&#45;67bd&#45;442a&#45;bfd0&#45;eb2a3f97ed9b</title>
<path fill="none" stroke="black" d="M74.8,-359.7C74.8,-351.98 74.8,-342.71 74.8,-334.11"/>
<polygon fill="black" stroke="black" points="78.3,-334.1 74.8,-324.1 71.3,-334.1 78.3,-334.1"/>
</g>
</g>
</svg>
