<?xml version="1.0" encoding="UTF-8" standalone="no"?>
<!DOCTYPE svg PUBLIC "-//W3C//DTD SVG 1.1//EN"
 "http://www.w3.org/Graphics/SVG/1.1/DTD/svg11.dtd">
<!-- Generated by graphviz version 2.43.0 (0)
 -->
<!-- Title: G Pages: 1 -->
<svg width="158pt" height="404pt"
 viewBox="0.00 0.00 157.61 404.00" xmlns="http://www.w3.org/2000/svg" xmlns:xlink="http://www.w3.org/1999/xlink">
<g id="graph0" class="graph" transform="scale(1 1) rotate(0) translate(4 400)">
<title>G</title>
<polygon fill="transparent" stroke="transparent" points="-4,4 -4,-400 153.61,-400 153.61,4 -4,4"/>
<!-- 08713c7c&#45;96bb&#45;44a0&#45;98e4&#45;45eae818cb8e -->
<g id="node1" class="node">
<title>08713c7c&#45;96bb&#45;44a0&#45;98e4&#45;45eae818cb8e</title>
<ellipse fill="none" stroke="black" cx="74.8" cy="-306" rx="33.6" ry="18"/>
<text text-anchor="middle" x="74.8" y="-302.3" font-family="Times,serif" font-size="14.00">Descend</text>
</g>
<!-- abe6d2a1&#45;bf3f&#45;4de6&#45;b0b1&#45;31a41312ae25 -->
<g id="node2" class="node">
<title>abe6d2a1&#45;bf3f&#45;4de6&#45;b0b1&#45;31a41312ae25</title>
<ellipse fill="none" stroke="black" cx="74.8" cy="-234" rx="47.1" ry="18"/>
<text text-anchor="middle" x="74.8" y="-230.3" font-family="Times,serif" font-size="14.00">DelayAction</text>
</g>
<!-- 08713c7c&#45;96bb&#45;44a0&#45;98e4&#45;45eae818cb8e&#45;&gt;abe6d2a1&#45;bf3f&#45;4de6&#45;b0b1&#45;31a41312ae25 -->
<g id="edge1" class="edge">
<title>08713c7c&#45;96bb&#45;44a0&#45;98e4&#45;45eae818cb8e&#45;&gt;abe6d2a1&#45;bf3f&#45;4de6&#45;b0b1&#45;31a41312ae25</title>
<path fill="none" stroke="black" d="M74.8,-287.7C74.8,-279.98 74.8,-270.71 74.8,-262.11"/>
<polygon fill="black" stroke="black" points="78.3,-262.1 74.8,-252.1 71.3,-262.1 78.3,-262.1"/>
</g>
<!-- 83a37a48&#45;6107&#45;46d3&#45;8761&#45;e90b6f2b8991 -->
<g id="node3" class="node">
<title>83a37a48&#45;6107&#45;46d3&#45;8761&#45;e90b6f2b8991</title>
<ellipse fill="none" stroke="black" cx="74.8" cy="-162" rx="74.61" ry="18"/>
<text text-anchor="middle" x="74.8" y="-158.3" font-family="Times,serif" font-size="14.00">StraightMovement</text>
</g>
<!-- abe6d2a1&#45;bf3f&#45;4de6&#45;b0b1&#45;31a41312ae25&#45;&gt;83a37a48&#45;6107&#45;46d3&#45;8761&#45;e90b6f2b8991 -->
<g id="edge4" class="edge">
<title>abe6d2a1&#45;bf3f&#45;4de6&#45;b0b1&#45;31a41312ae25&#45;&gt;83a37a48&#45;6107&#45;46d3&#45;8761&#45;e90b6f2b8991</title>
<path fill="none" stroke="black" d="M74.8,-215.7C74.8,-207.98 74.8,-198.71 74.8,-190.11"/>
<polygon fill="black" stroke="black" points="78.3,-190.1 74.8,-180.1 71.3,-190.1 78.3,-190.1"/>
</g>
<!-- 51766f4b&#45;c989&#45;40d9&#45;8786&#45;14df877ae0d8 -->
<g id="node4" class="node">
<title>51766f4b&#45;c989&#45;40d9&#45;8786&#45;14df877ae0d8</title>
<ellipse fill="none" stroke="black" cx="74.8" cy="-90" rx="47.1" ry="18"/>
<text text-anchor="middle" x="74.8" y="-86.3" font-family="Times,serif" font-size="14.00">DelayAction</text>
</g>
<!-- 83a37a48&#45;6107&#45;46d3&#45;8761&#45;e90b6f2b8991&#45;&gt;51766f4b&#45;c989&#45;40d9&#45;8786&#45;14df877ae0d8 -->
<g id="edge2" class="edge">
<title>83a37a48&#45;6107&#45;46d3&#45;8761&#45;e90b6f2b8991&#45;&gt;51766f4b&#45;c989&#45;40d9&#45;8786&#45;14df877ae0d8</title>
<path fill="none" stroke="black" d="M74.8,-143.7C74.8,-135.98 74.8,-126.71 74.8,-118.11"/>
<polygon fill="black" stroke="black" points="78.3,-118.1 74.8,-108.1 71.3,-118.1 78.3,-118.1"/>
</g>
<!-- 6e55d83f&#45;b122&#45;4cf3&#45;8f54&#45;5c1a79a71aa5 -->
<g id="node5" class="node">
<title>6e55d83f&#45;b122&#45;4cf3&#45;8f54&#45;5c1a79a71aa5</title>
<ellipse fill="none" stroke="black" cx="74.8" cy="-18" rx="59.9" ry="18"/>
<text text-anchor="middle" x="74.8" y="-14.3" font-family="Times,serif" font-size="14.00">ZeroMovement</text>
</g>
<!-- 51766f4b&#45;c989&#45;40d9&#45;8786&#45;14df877ae0d8&#45;&gt;6e55d83f&#45;b122&#45;4cf3&#45;8f54&#45;5c1a79a71aa5 -->
<g id="edge3" class="edge">
<title>51766f4b&#45;c989&#45;40d9&#45;8786&#45;14df877ae0d8&#45;&gt;6e55d83f&#45;b122&#45;4cf3&#45;8f54&#45;5c1a79a71aa5</title>
<path fill="none" stroke="black" d="M74.8,-71.7C74.8,-63.98 74.8,-54.71 74.8,-46.11"/>
<polygon fill="black" stroke="black" points="78.3,-46.1 74.8,-36.1 71.3,-46.1 78.3,-46.1"/>
</g>
<!-- 48702d43&#45;69d9&#45;478c&#45;91f1&#45;caffa6e52c98 -->
<g id="node6" class="node">
<title>48702d43&#45;69d9&#45;478c&#45;91f1&#45;caffa6e52c98</title>
<ellipse fill="none" stroke="black" cx="74.8" cy="-378" rx="34.8" ry="18"/>
<text text-anchor="middle" x="74.8" y="-374.3" font-family="Times,serif" font-size="14.00">WaitArm</text>
</g>
<!-- 48702d43&#45;69d9&#45;478c&#45;91f1&#45;caffa6e52c98&#45;&gt;08713c7c&#45;96bb&#45;44a0&#45;98e4&#45;45eae818cb8e -->
<g id="edge5" class="edge">
<title>48702d43&#45;69d9&#45;478c&#45;91f1&#45;caffa6e52c98&#45;&gt;08713c7c&#45;96bb&#45;44a0&#45;98e4&#45;45eae818cb8e</title>
<path fill="none" stroke="black" d="M74.8,-359.7C74.8,-351.98 74.8,-342.71 74.8,-334.11"/>
<polygon fill="black" stroke="black" points="78.3,-334.1 74.8,-324.1 71.3,-334.1 78.3,-334.1"/>
</g>
</g>
</svg>
