<?xml version="1.0" encoding="UTF-8" standalone="no"?>
<!DOCTYPE svg PUBLIC "-//W3C//DTD SVG 1.1//EN"
 "http://www.w3.org/Graphics/SVG/1.1/DTD/svg11.dtd">
<!-- Generated by graphviz version 2.43.0 (0)
 -->
<!-- Title: G Pages: 1 -->
<svg width="140pt" height="684pt"
 viewBox="0.00 0.00 140.05 684.00" xmlns="http://www.w3.org/2000/svg" xmlns:xlink="http://www.w3.org/1999/xlink">
<g id="graph0" class="graph" transform="scale(1 1) rotate(0) translate(4 680)">
<title>G</title>
<polygon fill="transparent" stroke="transparent" points="-4,4 -4,-680 136.05,-680 136.05,4 -4,4"/>
<!-- 8a53e43e&#45;07ff&#45;4a28&#45;98e7&#45;428a798d4a34 -->
<g id="node1" class="node">
<title>8a53e43e&#45;07ff&#45;4a28&#45;98e7&#45;428a798d4a34</title>
<ellipse fill="none" stroke="black" cx="61.05" cy="-512" rx="47.1" ry="18"/>
<text text-anchor="middle" x="61.05" y="-508.3" font-family="Times,serif" font-size="14.00">DelayAction</text>
</g>
<!-- cf4af7e9&#45;3a57&#45;4694&#45;9f60&#45;ddc9b93a30ab -->
<g id="node2" class="node">
<title>cf4af7e9&#45;3a57&#45;4694&#45;9f60&#45;ddc9b93a30ab</title>
<ellipse fill="none" stroke="black" cx="61.05" cy="-439" rx="59.9" ry="18"/>
<text text-anchor="middle" x="61.05" y="-435.3" font-family="Times,serif" font-size="14.00">ZeroMovement</text>
</g>
<!-- 8a53e43e&#45;07ff&#45;4a28&#45;98e7&#45;428a798d4a34&#45;&gt;cf4af7e9&#45;3a57&#45;4694&#45;9f60&#45;ddc9b93a30ab -->
<g id="edge1" class="edge">
<title>8a53e43e&#45;07ff&#45;4a28&#45;98e7&#45;428a798d4a34&#45;&gt;cf4af7e9&#45;3a57&#45;4694&#45;9f60&#45;ddc9b93a30ab</title>
<path fill="none" stroke="black" d="M61.05,-493.81C61.05,-485.79 61.05,-476.05 61.05,-467.07"/>
<polygon fill="black" stroke="black" points="64.55,-467.03 61.05,-457.03 57.55,-467.03 64.55,-467.03"/>
</g>
<!-- dd197939&#45;8713&#45;4613&#45;bf38&#45;2c7cac556f63 -->
<g id="node7" class="node">
<title>dd197939&#45;8713&#45;4613&#45;bf38&#45;2c7cac556f63</title>
<ellipse fill="none" stroke="black" cx="61.05" cy="-366" rx="46.5" ry="18"/>
<text text-anchor="middle" x="61.05" y="-362.3" font-family="Times,serif" font-size="14.00">VisionNorm</text>
</g>
<!-- cf4af7e9&#45;3a57&#45;4694&#45;9f60&#45;ddc9b93a30ab&#45;&gt;dd197939&#45;8713&#45;4613&#45;bf38&#45;2c7cac556f63 -->
<g id="edge6" class="edge">
<title>cf4af7e9&#45;3a57&#45;4694&#45;9f60&#45;ddc9b93a30ab&#45;&gt;dd197939&#45;8713&#45;4613&#45;bf38&#45;2c7cac556f63</title>
<path fill="none" stroke="black" d="M61.05,-420.81C61.05,-412.79 61.05,-403.05 61.05,-394.07"/>
<polygon fill="black" stroke="black" points="64.55,-394.03 61.05,-384.03 57.55,-394.03 64.55,-394.03"/>
</g>
<!-- 0ea77946&#45;42f2&#45;41d1&#45;b05b&#45;97acc5e1d688 -->
<g id="node3" class="node">
<title>0ea77946&#45;42f2&#45;41d1&#45;b05b&#45;97acc5e1d688</title>
<ellipse fill="none" stroke="black" cx="61.05" cy="-105" rx="32.4" ry="18"/>
<text text-anchor="middle" x="61.05" y="-101.3" font-family="Times,serif" font-size="14.00">Average</text>
</g>
<!-- ebc50111&#45;a4fb&#45;436a&#45;adfd&#45;7facc3e75891 -->
<g id="node4" class="node">
<title>ebc50111&#45;a4fb&#45;436a&#45;adfd&#45;7facc3e75891</title>
<ellipse fill="none" stroke="black" cx="61.05" cy="-18" rx="43.4" ry="18"/>
<text text-anchor="middle" x="61.05" y="-14.3" font-family="Times,serif" font-size="14.00">CircleBuoy</text>
</g>
<!-- 0ea77946&#45;42f2&#45;41d1&#45;b05b&#45;97acc5e1d688&#45;&gt;ebc50111&#45;a4fb&#45;436a&#45;adfd&#45;7facc3e75891 -->
<g id="edge2" class="edge">
<title>0ea77946&#45;42f2&#45;41d1&#45;b05b&#45;97acc5e1d688&#45;&gt;ebc50111&#45;a4fb&#45;436a&#45;adfd&#45;7facc3e75891</title>
<path fill="none" stroke="purple" d="M61.05,-86.8C61.05,-75.16 61.05,-59.55 61.05,-46.24"/>
<polygon fill="purple" stroke="purple" points="64.55,-46.18 61.05,-36.18 57.55,-46.18 64.55,-46.18"/>
<text text-anchor="middle" x="96.55" y="-57.8" font-family="Times,serif" font-size="14.00" fill="purple">Pass Data</text>
</g>
<!-- 27d2bd12&#45;95d8&#45;47ee&#45;af00&#45;d821f88bd7c4 -->
<g id="node5" class="node">
<title>27d2bd12&#45;95d8&#45;47ee&#45;af00&#45;d821f88bd7c4</title>
<ellipse fill="none" stroke="black" cx="61.05" cy="-192" rx="61.1" ry="18"/>
<text text-anchor="middle" x="61.05" y="-188.3" font-family="Times,serif" font-size="14.00">ExtractPosition</text>
</g>
<!-- 27d2bd12&#45;95d8&#45;47ee&#45;af00&#45;d821f88bd7c4&#45;&gt;0ea77946&#45;42f2&#45;41d1&#45;b05b&#45;97acc5e1d688 -->
<g id="edge3" class="edge">
<title>27d2bd12&#45;95d8&#45;47ee&#45;af00&#45;d821f88bd7c4&#45;&gt;0ea77946&#45;42f2&#45;41d1&#45;b05b&#45;97acc5e1d688</title>
<path fill="none" stroke="purple" d="M61.05,-173.8C61.05,-162.16 61.05,-146.55 61.05,-133.24"/>
<polygon fill="purple" stroke="purple" points="64.55,-133.18 61.05,-123.18 57.55,-133.18 64.55,-133.18"/>
<text text-anchor="middle" x="96.55" y="-144.8" font-family="Times,serif" font-size="14.00" fill="purple">Pass Data</text>
</g>
<!-- daba2f54&#45;7cc7&#45;454f&#45;93a5&#45;18df129409bf -->
<g id="node6" class="node">
<title>daba2f54&#45;7cc7&#45;454f&#45;93a5&#45;18df129409bf</title>
<ellipse fill="none" stroke="black" cx="61.05" cy="-279" rx="27" ry="18"/>
<text text-anchor="middle" x="61.05" y="-275.3" font-family="Times,serif" font-size="14.00">ToVec</text>
</g>
<!-- daba2f54&#45;7cc7&#45;454f&#45;93a5&#45;18df129409bf&#45;&gt;27d2bd12&#45;95d8&#45;47ee&#45;af00&#45;d821f88bd7c4 -->
<g id="edge4" class="edge">
<title>daba2f54&#45;7cc7&#45;454f&#45;93a5&#45;18df129409bf&#45;&gt;27d2bd12&#45;95d8&#45;47ee&#45;af00&#45;d821f88bd7c4</title>
<path fill="none" stroke="purple" d="M61.05,-260.8C61.05,-249.16 61.05,-233.55 61.05,-220.24"/>
<polygon fill="purple" stroke="purple" points="64.55,-220.18 61.05,-210.18 57.55,-220.18 64.55,-220.18"/>
<text text-anchor="middle" x="96.55" y="-231.8" font-family="Times,serif" font-size="14.00" fill="purple">Pass Data</text>
</g>
<!-- dd197939&#45;8713&#45;4613&#45;bf38&#45;2c7cac556f63&#45;&gt;daba2f54&#45;7cc7&#45;454f&#45;93a5&#45;18df129409bf -->
<g id="edge5" class="edge">
<title>dd197939&#45;8713&#45;4613&#45;bf38&#45;2c7cac556f63&#45;&gt;daba2f54&#45;7cc7&#45;454f&#45;93a5&#45;18df129409bf</title>
<path fill="none" stroke="purple" d="M61.05,-347.8C61.05,-336.16 61.05,-320.55 61.05,-307.24"/>
<polygon fill="purple" stroke="purple" points="64.55,-307.18 61.05,-297.18 57.55,-307.18 64.55,-307.18"/>
<text text-anchor="middle" x="96.55" y="-318.8" font-family="Times,serif" font-size="14.00" fill="purple">Pass Data</text>
</g>
<!-- 35589793&#45;0ae3&#45;48d9&#45;9189&#45;2cf625b0755d -->
<g id="node8" class="node">
<title>35589793&#45;0ae3&#45;48d9&#45;9189&#45;2cf625b0755d</title>
<ellipse fill="none" stroke="black" cx="61.05" cy="-585" rx="59.9" ry="18"/>
<text text-anchor="middle" x="61.05" y="-581.3" font-family="Times,serif" font-size="14.00">ZeroMovement</text>
</g>
<!-- 35589793&#45;0ae3&#45;48d9&#45;9189&#45;2cf625b0755d&#45;&gt;8a53e43e&#45;07ff&#45;4a28&#45;98e7&#45;428a798d4a34 -->
<g id="edge7" class="edge">
<title>35589793&#45;0ae3&#45;48d9&#45;9189&#45;2cf625b0755d&#45;&gt;8a53e43e&#45;07ff&#45;4a28&#45;98e7&#45;428a798d4a34</title>
<path fill="none" stroke="black" d="M61.05,-566.81C61.05,-558.79 61.05,-549.05 61.05,-540.07"/>
<polygon fill="black" stroke="black" points="64.55,-540.03 61.05,-530.03 57.55,-540.03 64.55,-540.03"/>
</g>
<!-- 78789f12&#45;2089&#45;4fa6&#45;965e&#45;0b0a89de924f -->
<g id="node9" class="node">
<title>78789f12&#45;2089&#45;4fa6&#45;965e&#45;0b0a89de924f</title>
<ellipse fill="none" stroke="black" cx="61.05" cy="-658" rx="47.1" ry="18"/>
<text text-anchor="middle" x="61.05" y="-654.3" font-family="Times,serif" font-size="14.00">DelayAction</text>
</g>
<!-- 78789f12&#45;2089&#45;4fa6&#45;965e&#45;0b0a89de924f&#45;&gt;35589793&#45;0ae3&#45;48d9&#45;9189&#45;2cf625b0755d -->
<g id="edge8" class="edge">
<title>78789f12&#45;2089&#45;4fa6&#45;965e&#45;0b0a89de924f&#45;&gt;35589793&#45;0ae3&#45;48d9&#45;9189&#45;2cf625b0755d</title>
<path fill="none" stroke="black" d="M61.05,-639.81C61.05,-631.79 61.05,-622.05 61.05,-613.07"/>
<polygon fill="black" stroke="black" points="64.55,-613.03 61.05,-603.03 57.55,-613.03 64.55,-613.03"/>
</g>
</g>
</svg>
