<?xml version="1.0" encoding="UTF-8" standalone="no"?>
<!DOCTYPE svg PUBLIC "-//W3C//DTD SVG 1.1//EN"
 "http://www.w3.org/Graphics/SVG/1.1/DTD/svg11.dtd">
<!-- Generated by graphviz version 2.43.0 (0)
 -->
<!-- Title: G Pages: 1 -->
<svg width="158pt" height="404pt"
 viewBox="0.00 0.00 157.61 404.00" xmlns="http://www.w3.org/2000/svg" xmlns:xlink="http://www.w3.org/1999/xlink">
<g id="graph0" class="graph" transform="scale(1 1) rotate(0) translate(4 400)">
<title>G</title>
<polygon fill="transparent" stroke="transparent" points="-4,4 -4,-400 153.61,-400 153.61,4 -4,4"/>
<!-- e3bdac40&#45;ffbb&#45;4f21&#45;8a3a&#45;7e3e4f3d1a6e -->
<g id="node1" class="node">
<title>e3bdac40&#45;ffbb&#45;4f21&#45;8a3a&#45;7e3e4f3d1a6e</title>
<ellipse fill="none" stroke="black" cx="74.8" cy="-378" rx="34.8" ry="18"/>
<text text-anchor="middle" x="74.8" y="-374.3" font-family="Times,serif" font-size="14.00">WaitArm</text>
</g>
<!-- ab6826da&#45;a2bf&#45;4475&#45;b38a&#45;55ec36554526 -->
<g id="node2" class="node">
<title>ab6826da&#45;a2bf&#45;4475&#45;b38a&#45;55ec36554526</title>
<ellipse fill="none" stroke="black" cx="74.8" cy="-306" rx="33.6" ry="18"/>
<text text-anchor="middle" x="74.8" y="-302.3" font-family="Times,serif" font-size="14.00">Descend</text>
</g>
<!-- e3bdac40&#45;ffbb&#45;4f21&#45;8a3a&#45;7e3e4f3d1a6e&#45;&gt;ab6826da&#45;a2bf&#45;4475&#45;b38a&#45;55ec36554526 -->
<g id="edge5" class="edge">
<title>e3bdac40&#45;ffbb&#45;4f21&#45;8a3a&#45;7e3e4f3d1a6e&#45;&gt;ab6826da&#45;a2bf&#45;4475&#45;b38a&#45;55ec36554526</title>
<path fill="none" stroke="black" d="M74.8,-359.7C74.8,-351.98 74.8,-342.71 74.8,-334.11"/>
<polygon fill="black" stroke="black" points="78.3,-334.1 74.8,-324.1 71.3,-334.1 78.3,-334.1"/>
</g>
<!-- b900fd29&#45;998f&#45;473e&#45;ad04&#45;8754bd534043 -->
<g id="node3" class="node">
<title>b900fd29&#45;998f&#45;473e&#45;ad04&#45;8754bd534043</title>
<ellipse fill="none" stroke="black" cx="74.8" cy="-234" rx="47.1" ry="18"/>
<text text-anchor="middle" x="74.8" y="-230.3" font-family="Times,serif" font-size="14.00">DelayAction</text>
</g>
<!-- ab6826da&#45;a2bf&#45;4475&#45;b38a&#45;55ec36554526&#45;&gt;b900fd29&#45;998f&#45;473e&#45;ad04&#45;8754bd534043 -->
<g id="edge1" class="edge">
<title>ab6826da&#45;a2bf&#45;4475&#45;b38a&#45;55ec36554526&#45;&gt;b900fd29&#45;998f&#45;473e&#45;ad04&#45;8754bd534043</title>
<path fill="none" stroke="black" d="M74.8,-287.7C74.8,-279.98 74.8,-270.71 74.8,-262.11"/>
<polygon fill="black" stroke="black" points="78.3,-262.1 74.8,-252.1 71.3,-262.1 78.3,-262.1"/>
</g>
<!-- e0afc152&#45;acec&#45;445c&#45;ace2&#45;88a7d9c5e78d -->
<g id="node4" class="node">
<title>e0afc152&#45;acec&#45;445c&#45;ace2&#45;88a7d9c5e78d</title>
<ellipse fill="none" stroke="black" cx="74.8" cy="-162" rx="74.61" ry="18"/>
<text text-anchor="middle" x="74.8" y="-158.3" font-family="Times,serif" font-size="14.00">StraightMovement</text>
</g>
<!-- b900fd29&#45;998f&#45;473e&#45;ad04&#45;8754bd534043&#45;&gt;e0afc152&#45;acec&#45;445c&#45;ace2&#45;88a7d9c5e78d -->
<g id="edge4" class="edge">
<title>b900fd29&#45;998f&#45;473e&#45;ad04&#45;8754bd534043&#45;&gt;e0afc152&#45;acec&#45;445c&#45;ace2&#45;88a7d9c5e78d</title>
<path fill="none" stroke="black" d="M74.8,-215.7C74.8,-207.98 74.8,-198.71 74.8,-190.11"/>
<polygon fill="black" stroke="black" points="78.3,-190.1 74.8,-180.1 71.3,-190.1 78.3,-190.1"/>
</g>
<!-- d5c530b1&#45;4303&#45;4889&#45;8449&#45;fb27c11b6217 -->
<g id="node5" class="node">
<title>d5c530b1&#45;4303&#45;4889&#45;8449&#45;fb27c11b6217</title>
<ellipse fill="none" stroke="black" cx="74.8" cy="-90" rx="47.1" ry="18"/>
<text text-anchor="middle" x="74.8" y="-86.3" font-family="Times,serif" font-size="14.00">DelayAction</text>
</g>
<!-- e0afc152&#45;acec&#45;445c&#45;ace2&#45;88a7d9c5e78d&#45;&gt;d5c530b1&#45;4303&#45;4889&#45;8449&#45;fb27c11b6217 -->
<g id="edge2" class="edge">
<title>e0afc152&#45;acec&#45;445c&#45;ace2&#45;88a7d9c5e78d&#45;&gt;d5c530b1&#45;4303&#45;4889&#45;8449&#45;fb27c11b6217</title>
<path fill="none" stroke="black" d="M74.8,-143.7C74.8,-135.98 74.8,-126.71 74.8,-118.11"/>
<polygon fill="black" stroke="black" points="78.3,-118.1 74.8,-108.1 71.3,-118.1 78.3,-118.1"/>
</g>
<!-- 82ff50bb&#45;92cd&#45;4d9e&#45;a841&#45;a089835c1965 -->
<g id="node6" class="node">
<title>82ff50bb&#45;92cd&#45;4d9e&#45;a841&#45;a089835c1965</title>
<ellipse fill="none" stroke="black" cx="74.8" cy="-18" rx="59.9" ry="18"/>
<text text-anchor="middle" x="74.8" y="-14.3" font-family="Times,serif" font-size="14.00">ZeroMovement</text>
</g>
<!-- d5c530b1&#45;4303&#45;4889&#45;8449&#45;fb27c11b6217&#45;&gt;82ff50bb&#45;92cd&#45;4d9e&#45;a841&#45;a089835c1965 -->
<g id="edge3" class="edge">
<title>d5c530b1&#45;4303&#45;4889&#45;8449&#45;fb27c11b6217&#45;&gt;82ff50bb&#45;92cd&#45;4d9e&#45;a841&#45;a089835c1965</title>
<path fill="none" stroke="black" d="M74.8,-71.7C74.8,-63.98 74.8,-54.71 74.8,-46.11"/>
<polygon fill="black" stroke="black" points="78.3,-46.1 74.8,-36.1 71.3,-46.1 78.3,-46.1"/>
</g>
</g>
</svg>
