<?xml version="1.0" encoding="UTF-8" standalone="no"?>
<!DOCTYPE svg PUBLIC "-//W3C//DTD SVG 1.1//EN"
 "http://www.w3.org/Graphics/SVG/1.1/DTD/svg11.dtd">
<!-- Generated by graphviz version 2.43.0 (0)
 -->
<!-- Title: G Pages: 1 -->
<svg width="286pt" height="839pt"
 viewBox="0.00 0.00 286.10 839.00" xmlns="http://www.w3.org/2000/svg" xmlns:xlink="http://www.w3.org/1999/xlink">
<g id="graph0" class="graph" transform="scale(1 1) rotate(0) translate(4 835)">
<title>G</title>
<polygon fill="transparent" stroke="transparent" points="-4,4 -4,-835 282.1,-835 282.1,4 -4,4"/>
<g id="clust1" class="cluster">
<title>cluster_608ec56a&#45;f59b&#45;477f&#45;a4b1&#45;dd5e05ec31e5</title>
<polygon fill="transparent" stroke="blue" stroke-dasharray="5,2" points="30.1,-225 30.1,-823 270.1,-823 270.1,-225 30.1,-225"/>
</g>
<!-- 9ced703b&#45;93e8&#45;4dfe&#45;8015&#45;d19791c4bb5e -->
<g id="node1" class="node">
<title>9ced703b&#45;93e8&#45;4dfe&#45;8015&#45;d19791c4bb5e</title>
<polygon fill="none" stroke="black" stroke-dasharray="5,2" points="232.1,-815 134.1,-815 134.1,-779 232.1,-779 232.1,-815"/>
<text text-anchor="middle" x="183.1" y="-793.3" font-family="Times,serif" font-size="14.00" fill="blue">Concurrent</text>
</g>
<!-- bfd549a4&#45;97de&#45;41df&#45;a382&#45;311320404b69 -->
<g id="node3" class="node">
<title>bfd549a4&#45;97de&#45;41df&#45;a382&#45;311320404b69</title>
<ellipse fill="none" stroke="black" cx="104.1" cy="-724" rx="34.8" ry="18"/>
<text text-anchor="middle" x="104.1" y="-720.3" font-family="Times,serif" font-size="14.00">WaitArm</text>
</g>
<!-- 9ced703b&#45;93e8&#45;4dfe&#45;8015&#45;d19791c4bb5e&#45;&gt;bfd549a4&#45;97de&#45;41df&#45;a382&#45;311320404b69 -->
<g id="edge6" class="edge">
<title>9ced703b&#45;93e8&#45;4dfe&#45;8015&#45;d19791c4bb5e&#45;&gt;bfd549a4&#45;97de&#45;41df&#45;a382&#45;311320404b69</title>
<path fill="none" stroke="black" d="M163.98,-778.81C153.22,-769.14 139.68,-756.98 128.2,-746.66"/>
<polygon fill="black" stroke="black" points="130.42,-743.95 120.64,-739.87 125.74,-749.15 130.42,-743.95"/>
</g>
<!-- e8f0f8ea&#45;bf6c&#45;4421&#45;b94a&#45;7cac8a457cb6 -->
<g id="node9" class="node">
<title>e8f0f8ea&#45;bf6c&#45;4421&#45;b94a&#45;7cac8a457cb6</title>
<ellipse fill="none" stroke="black" cx="211.1" cy="-670" rx="50.7" ry="18"/>
<text text-anchor="middle" x="211.1" y="-666.3" font-family="Times,serif" font-size="14.00">StartBno055</text>
</g>
<!-- 9ced703b&#45;93e8&#45;4dfe&#45;8015&#45;d19791c4bb5e&#45;&gt;e8f0f8ea&#45;bf6c&#45;4421&#45;b94a&#45;7cac8a457cb6 -->
<g id="edge7" class="edge">
<title>9ced703b&#45;93e8&#45;4dfe&#45;8015&#45;d19791c4bb5e&#45;&gt;e8f0f8ea&#45;bf6c&#45;4421&#45;b94a&#45;7cac8a457cb6</title>
<path fill="none" stroke="black" d="M186.94,-778.88C191.6,-758.05 199.54,-722.64 205.03,-698.09"/>
<polygon fill="black" stroke="black" points="208.45,-698.84 207.22,-688.31 201.62,-697.31 208.45,-698.84"/>
</g>
<!-- 32fcd75f&#45;30d3&#45;40ea&#45;868a&#45;3099576e6aa7 -->
<g id="node2" class="node">
<title>32fcd75f&#45;30d3&#45;40ea&#45;868a&#45;3099576e6aa7</title>
<polygon fill="none" stroke="black" stroke-dasharray="5,2" points="214.6,-269 129.6,-269 129.6,-233 214.6,-233 214.6,-269"/>
<text text-anchor="middle" x="172.1" y="-247.3" font-family="Times,serif" font-size="14.00" fill="blue">Converge</text>
</g>
<!-- 5974ece7&#45;394d&#45;478b&#45;9653&#45;5f9a4155e08d -->
<g id="node10" class="node">
<title>5974ece7&#45;394d&#45;478b&#45;9653&#45;5f9a4155e08d</title>
<ellipse fill="none" stroke="black" cx="172.1" cy="-178" rx="69.71" ry="18"/>
<text text-anchor="middle" x="172.1" y="-174.3" font-family="Times,serif" font-size="14.00">VisionNormOffset</text>
</g>
<!-- 32fcd75f&#45;30d3&#45;40ea&#45;868a&#45;3099576e6aa7&#45;&gt;5974ece7&#45;394d&#45;478b&#45;9653&#45;5f9a4155e08d -->
<g id="edge13" class="edge">
<title>32fcd75f&#45;30d3&#45;40ea&#45;868a&#45;3099576e6aa7&#45;&gt;5974ece7&#45;394d&#45;478b&#45;9653&#45;5f9a4155e08d</title>
<path fill="none" stroke="black" d="M172.1,-232.81C172.1,-224.79 172.1,-215.05 172.1,-206.07"/>
<polygon fill="black" stroke="black" points="175.6,-206.03 172.1,-196.03 168.6,-206.03 175.6,-206.03"/>
</g>
<!-- 3b8b1f39&#45;e205&#45;4900&#45;a8e7&#45;9e12e47954a7 -->
<g id="node4" class="node">
<title>3b8b1f39&#45;e205&#45;4900&#45;a8e7&#45;9e12e47954a7</title>
<ellipse fill="none" stroke="black" cx="110.1" cy="-616" rx="33.6" ry="18"/>
<text text-anchor="middle" x="110.1" y="-612.3" font-family="Times,serif" font-size="14.00">Descend</text>
</g>
<!-- bfd549a4&#45;97de&#45;41df&#45;a382&#45;311320404b69&#45;&gt;3b8b1f39&#45;e205&#45;4900&#45;a8e7&#45;9e12e47954a7 -->
<g id="edge5" class="edge">
<title>bfd549a4&#45;97de&#45;41df&#45;a382&#45;311320404b69&#45;&gt;3b8b1f39&#45;e205&#45;4900&#45;a8e7&#45;9e12e47954a7</title>
<path fill="none" stroke="black" d="M105.07,-705.97C106.01,-689.38 107.45,-663.88 108.55,-644.43"/>
<polygon fill="black" stroke="black" points="112.05,-644.52 109.12,-634.34 105.06,-644.13 112.05,-644.52"/>
</g>
<!-- 8dc9af74&#45;2227&#45;4724&#45;9668&#45;5767263d4051 -->
<g id="node5" class="node">
<title>8dc9af74&#45;2227&#45;4724&#45;9668&#45;5767263d4051</title>
<ellipse fill="none" stroke="black" cx="110.1" cy="-543" rx="47.1" ry="18"/>
<text text-anchor="middle" x="110.1" y="-539.3" font-family="Times,serif" font-size="14.00">DelayAction</text>
</g>
<!-- 3b8b1f39&#45;e205&#45;4900&#45;a8e7&#45;9e12e47954a7&#45;&gt;8dc9af74&#45;2227&#45;4724&#45;9668&#45;5767263d4051 -->
<g id="edge1" class="edge">
<title>3b8b1f39&#45;e205&#45;4900&#45;a8e7&#45;9e12e47954a7&#45;&gt;8dc9af74&#45;2227&#45;4724&#45;9668&#45;5767263d4051</title>
<path fill="none" stroke="black" d="M110.1,-597.81C110.1,-589.79 110.1,-580.05 110.1,-571.07"/>
<polygon fill="black" stroke="black" points="113.6,-571.03 110.1,-561.03 106.6,-571.03 113.6,-571.03"/>
</g>
<!-- 5af2aadd&#45;2fd3&#45;4dca&#45;a767&#45;07f1801b21bf -->
<g id="node6" class="node">
<title>5af2aadd&#45;2fd3&#45;4dca&#45;a767&#45;07f1801b21bf</title>
<ellipse fill="none" stroke="black" cx="113.1" cy="-470" rx="74.61" ry="18"/>
<text text-anchor="middle" x="113.1" y="-466.3" font-family="Times,serif" font-size="14.00">StraightMovement</text>
</g>
<!-- 8dc9af74&#45;2227&#45;4724&#45;9668&#45;5767263d4051&#45;&gt;5af2aadd&#45;2fd3&#45;4dca&#45;a767&#45;07f1801b21bf -->
<g id="edge4" class="edge">
<title>8dc9af74&#45;2227&#45;4724&#45;9668&#45;5767263d4051&#45;&gt;5af2aadd&#45;2fd3&#45;4dca&#45;a767&#45;07f1801b21bf</title>
<path fill="none" stroke="black" d="M110.83,-524.81C111.17,-516.79 111.58,-507.05 111.96,-498.07"/>
<polygon fill="black" stroke="black" points="115.46,-498.17 112.38,-488.03 108.46,-497.87 115.46,-498.17"/>
</g>
<!-- 83bbfd49&#45;1445&#45;4d33&#45;8def&#45;951af67d01d0 -->
<g id="node7" class="node">
<title>83bbfd49&#45;1445&#45;4d33&#45;8def&#45;951af67d01d0</title>
<ellipse fill="none" stroke="black" cx="115.1" cy="-397" rx="47.1" ry="18"/>
<text text-anchor="middle" x="115.1" y="-393.3" font-family="Times,serif" font-size="14.00">DelayAction</text>
</g>
<!-- 5af2aadd&#45;2fd3&#45;4dca&#45;a767&#45;07f1801b21bf&#45;&gt;83bbfd49&#45;1445&#45;4d33&#45;8def&#45;951af67d01d0 -->
<g id="edge2" class="edge">
<title>5af2aadd&#45;2fd3&#45;4dca&#45;a767&#45;07f1801b21bf&#45;&gt;83bbfd49&#45;1445&#45;4d33&#45;8def&#45;951af67d01d0</title>
<path fill="none" stroke="black" d="M113.59,-451.81C113.81,-443.79 114.09,-434.05 114.34,-425.07"/>
<polygon fill="black" stroke="black" points="117.84,-425.12 114.62,-415.03 110.84,-424.93 117.84,-425.12"/>
</g>
<!-- 852753c8&#45;5007&#45;4ba5&#45;a8c0&#45;03b7d68406cf -->
<g id="node8" class="node">
<title>852753c8&#45;5007&#45;4ba5&#45;a8c0&#45;03b7d68406cf</title>
<ellipse fill="none" stroke="black" cx="124.1" cy="-324" rx="59.9" ry="18"/>
<text text-anchor="middle" x="124.1" y="-320.3" font-family="Times,serif" font-size="14.00">ZeroMovement</text>
</g>
<!-- 83bbfd49&#45;1445&#45;4d33&#45;8def&#45;951af67d01d0&#45;&gt;852753c8&#45;5007&#45;4ba5&#45;a8c0&#45;03b7d68406cf -->
<g id="edge3" class="edge">
<title>83bbfd49&#45;1445&#45;4d33&#45;8def&#45;951af67d01d0&#45;&gt;852753c8&#45;5007&#45;4ba5&#45;a8c0&#45;03b7d68406cf</title>
<path fill="none" stroke="black" d="M117.28,-378.81C118.3,-370.79 119.53,-361.05 120.67,-352.07"/>
<polygon fill="black" stroke="black" points="124.16,-352.39 121.94,-342.03 117.21,-351.51 124.16,-352.39"/>
</g>
<!-- 852753c8&#45;5007&#45;4ba5&#45;a8c0&#45;03b7d68406cf&#45;&gt;32fcd75f&#45;30d3&#45;40ea&#45;868a&#45;3099576e6aa7 -->
<g id="edge8" class="edge">
<title>852753c8&#45;5007&#45;4ba5&#45;a8c0&#45;03b7d68406cf&#45;&gt;32fcd75f&#45;30d3&#45;40ea&#45;868a&#45;3099576e6aa7</title>
<path fill="none" stroke="black" d="M135.48,-306.17C141.25,-297.63 148.39,-287.08 154.82,-277.56"/>
<polygon fill="black" stroke="black" points="157.77,-279.44 160.48,-269.2 151.97,-275.52 157.77,-279.44"/>
</g>
<!-- e8f0f8ea&#45;bf6c&#45;4421&#45;b94a&#45;7cac8a457cb6&#45;&gt;32fcd75f&#45;30d3&#45;40ea&#45;868a&#45;3099576e6aa7 -->
<g id="edge9" class="edge">
<title>e8f0f8ea&#45;bf6c&#45;4421&#45;b94a&#45;7cac8a457cb6&#45;&gt;32fcd75f&#45;30d3&#45;40ea&#45;868a&#45;3099576e6aa7</title>
<path fill="none" stroke="black" d="M226.92,-652.8C241.57,-636.03 261.1,-608.36 261.1,-580 261.1,-580 261.1,-580 261.1,-323 261.1,-300.36 243.28,-283.76 223.59,-272.34"/>
<polygon fill="black" stroke="black" points="225.24,-269.25 214.78,-267.6 221.93,-275.42 225.24,-269.25"/>
</g>
<!-- 73f3f49a&#45;d5e5&#45;4bed&#45;a679&#45;13355c084d2f -->
<g id="node11" class="node">
<title>73f3f49a&#45;d5e5&#45;4bed&#45;a679&#45;13355c084d2f</title>
<ellipse fill="none" stroke="black" cx="67.1" cy="-91" rx="67.2" ry="18"/>
<text text-anchor="middle" x="67.1" y="-87.3" font-family="Times,serif" font-size="14.00">AdjustMovement</text>
</g>
<!-- 5974ece7&#45;394d&#45;478b&#45;9653&#45;5f9a4155e08d&#45;&gt;73f3f49a&#45;d5e5&#45;4bed&#45;a679&#45;13355c084d2f -->
<g id="edge10" class="edge">
<title>5974ece7&#45;394d&#45;478b&#45;9653&#45;5f9a4155e08d&#45;&gt;73f3f49a&#45;d5e5&#45;4bed&#45;a679&#45;13355c084d2f</title>
<path fill="none" stroke="purple" d="M151.86,-160.61C135.73,-147.56 112.98,-129.14 95.11,-114.67"/>
<polygon fill="purple" stroke="purple" points="97.26,-111.91 87.29,-108.34 92.86,-117.35 97.26,-111.91"/>
<text text-anchor="middle" x="161.6" y="-130.8" font-family="Times,serif" font-size="14.00" fill="purple">Pass Data</text>
</g>
<!-- 7d29f7ef&#45;d9ce&#45;4bf5&#45;9520&#45;63eef0135931 -->
<g id="node12" class="node">
<title>7d29f7ef&#45;d9ce&#45;4bf5&#45;9520&#45;63eef0135931</title>
<polygon fill="none" stroke="black" points="172.1,-36 106.92,-18 172.1,0 237.28,-18 172.1,-36"/>
<text text-anchor="middle" x="172.1" y="-14.3" font-family="Times,serif" font-size="14.00">AlwaysTrue</text>
</g>
<!-- 73f3f49a&#45;d5e5&#45;4bed&#45;a679&#45;13355c084d2f&#45;&gt;7d29f7ef&#45;d9ce&#45;4bf5&#45;9520&#45;63eef0135931 -->
<g id="edge11" class="edge">
<title>73f3f49a&#45;d5e5&#45;4bed&#45;a679&#45;13355c084d2f&#45;&gt;7d29f7ef&#45;d9ce&#45;4bf5&#45;9520&#45;63eef0135931</title>
<path fill="none" stroke="black" d="M90.67,-74.07C107.04,-62.99 128.87,-48.23 145.81,-36.78"/>
<polygon fill="black" stroke="black" points="147.85,-39.63 154.17,-31.13 143.92,-33.83 147.85,-39.63"/>
</g>
<!-- 7d29f7ef&#45;d9ce&#45;4bf5&#45;9520&#45;63eef0135931&#45;&gt;5974ece7&#45;394d&#45;478b&#45;9653&#45;5f9a4155e08d -->
<g id="edge12" class="edge">
<title>7d29f7ef&#45;d9ce&#45;4bf5&#45;9520&#45;63eef0135931&#45;&gt;5974ece7&#45;394d&#45;478b&#45;9653&#45;5f9a4155e08d</title>
<path fill="none" stroke="black" d="M184.04,-33.04C202.28,-56.29 233.17,-104 215.1,-142 212.99,-146.44 210.01,-150.5 206.6,-154.16"/>
<polygon fill="black" stroke="black" points="204.07,-151.73 199.1,-161.09 208.82,-156.87 204.07,-151.73"/>
<text text-anchor="middle" x="236.1" y="-87.3" font-family="Times,serif" font-size="14.00">True</text>
</g>
</g>
</svg>
