<?xml version="1.0" encoding="UTF-8" standalone="no"?>
<!DOCTYPE svg PUBLIC "-//W3C//DTD SVG 1.1//EN"
 "http://www.w3.org/Graphics/SVG/1.1/DTD/svg11.dtd">
<!-- Generated by graphviz version 2.43.0 (0)
 -->
<!-- Title: G Pages: 1 -->
<svg width="2024pt" height="1158pt"
 viewBox="0.00 0.00 2024.00 1158.00" xmlns="http://www.w3.org/2000/svg" xmlns:xlink="http://www.w3.org/1999/xlink">
<g id="graph0" class="graph" transform="scale(1 1) rotate(0) translate(4 1154)">
<title>G</title>
<polygon fill="transparent" stroke="transparent" points="-4,4 -4,-1154 2020,-1154 2020,4 -4,4"/>
<g id="clust1" class="cluster">
<title>cluster_b9e9d67d&#45;ca66&#45;41f2&#45;ba78&#45;e52c58571ff4</title>
<polygon fill="transparent" stroke="blue" stroke-dasharray="5,2" points="8,-530 8,-1142 248,-1142 248,-530 8,-530"/>
</g>
<g id="clust2" class="cluster">
<title>cluster_3c614b9f&#45;e7a5&#45;4ab9&#45;bc39&#45;ee572751eced</title>
<polygon fill="transparent" stroke="darkgreen" stroke-dasharray="5,2" points="450,-690 450,-888 1128,-888 1128,-690 450,-690"/>
</g>
<g id="clust3" class="cluster">
<title>cluster_8dfacccc&#45;c0c9&#45;4088&#45;a572&#45;615fe66d3b85</title>
<polygon fill="transparent" stroke="blue" stroke-dasharray="5,2" points="562,-8 562,-655 946,-655 946,-8 562,-8"/>
</g>
<g id="clust4" class="cluster">
<title>cluster_598f5a97&#45;166b&#45;4bfd&#45;8e9f&#45;43485fb24c6d</title>
<polygon fill="transparent" stroke="darkgreen" stroke-dasharray="5,2" points="1330,-690 1330,-888 2008,-888 2008,-690 1330,-690"/>
</g>
<g id="clust5" class="cluster">
<title>cluster_227641ff&#45;86ca&#45;4ac3&#45;9e64&#45;c52611a84de3</title>
<polygon fill="transparent" stroke="blue" stroke-dasharray="5,2" points="1330,-8 1330,-655 1734,-655 1734,-8 1330,-8"/>
</g>
<!-- 247efe92&#45;f676&#45;4d85&#45;a5ae&#45;09387d40abbd -->
<g id="node1" class="node">
<title>247efe92&#45;f676&#45;4d85&#45;a5ae&#45;09387d40abbd</title>
<polygon fill="none" stroke="black" points="691,-574 570.37,-556 691,-538 811.63,-556 691,-574"/>
<text text-anchor="middle" x="691" y="-552.3" font-family="Times,serif" font-size="14.00">Consecutive True &lt; 3</text>
</g>
<!-- 9e40ff57&#45;7878&#45;428e&#45;abb0&#45;61ad21c2d6a3 -->
<g id="node40" class="node">
<title>9e40ff57&#45;7878&#45;428e&#45;abb0&#45;61ad21c2d6a3</title>
<ellipse fill="none" stroke="black" cx="349" cy="-469" rx="46.5" ry="18"/>
<text text-anchor="middle" x="349" y="-465.3" font-family="Times,serif" font-size="14.00">VisionNorm</text>
</g>
<!-- 247efe92&#45;f676&#45;4d85&#45;a5ae&#45;09387d40abbd&#45;&gt;9e40ff57&#45;7878&#45;428e&#45;abb0&#45;61ad21c2d6a3 -->
<g id="edge44" class="edge">
<title>247efe92&#45;f676&#45;4d85&#45;a5ae&#45;09387d40abbd&#45;&gt;9e40ff57&#45;7878&#45;428e&#45;abb0&#45;61ad21c2d6a3</title>
<path fill="none" stroke="black" d="M648.03,-544.32C583.96,-528.4 463.76,-498.52 396.92,-481.91"/>
<polygon fill="black" stroke="black" points="397.61,-478.48 387.07,-479.46 395.93,-485.27 397.61,-478.48"/>
<text text-anchor="middle" x="558" y="-508.8" font-family="Times,serif" font-size="14.00">True</text>
</g>
<!-- 1c535597&#45;cb08&#45;4e03&#45;b5d5&#45;17aa2e15f49f -->
<g id="node41" class="node">
<title>1c535597&#45;cb08&#45;4e03&#45;b5d5&#45;17aa2e15f49f</title>
<ellipse fill="none" stroke="black" cx="1229" cy="-469" rx="46.5" ry="18"/>
<text text-anchor="middle" x="1229" y="-465.3" font-family="Times,serif" font-size="14.00">VisionNorm</text>
</g>
<!-- 247efe92&#45;f676&#45;4d85&#45;a5ae&#45;09387d40abbd&#45;&gt;1c535597&#45;cb08&#45;4e03&#45;b5d5&#45;17aa2e15f49f -->
<g id="edge49" class="edge">
<title>247efe92&#45;f676&#45;4d85&#45;a5ae&#45;09387d40abbd&#45;&gt;1c535597&#45;cb08&#45;4e03&#45;b5d5&#45;17aa2e15f49f</title>
<path fill="none" stroke="black" d="M742.83,-545.66C773.36,-540.43 812.78,-534.15 848,-530 905.55,-523.22 920.59,-527.9 978,-520 1048.83,-510.26 1129.79,-493.01 1180.16,-481.54"/>
<polygon fill="black" stroke="black" points="1181.15,-484.9 1190.12,-479.25 1179.59,-478.08 1181.15,-484.9"/>
<text text-anchor="middle" x="1080" y="-508.8" font-family="Times,serif" font-size="14.00">False</text>
</g>
<!-- 89547e2b&#45;bb29&#45;4cf9&#45;ada0&#45;a2e2b9200288 -->
<g id="node2" class="node">
<title>89547e2b&#45;bb29&#45;4cf9&#45;ada0&#45;a2e2b9200288</title>
<polygon fill="none" stroke="black" points="1469,-574 1337.59,-556 1469,-538 1600.41,-556 1469,-574"/>
<text text-anchor="middle" x="1469" y="-552.3" font-family="Times,serif" font-size="14.00">Consecutive False &lt; 10</text>
</g>
<!-- 89547e2b&#45;bb29&#45;4cf9&#45;ada0&#45;a2e2b9200288&#45;&gt;1c535597&#45;cb08&#45;4e03&#45;b5d5&#45;17aa2e15f49f -->
<g id="edge47" class="edge">
<title>89547e2b&#45;bb29&#45;4cf9&#45;ada0&#45;a2e2b9200288&#45;&gt;1c535597&#45;cb08&#45;4e03&#45;b5d5&#45;17aa2e15f49f</title>
<path fill="none" stroke="black" d="M1434.36,-542.73C1391.34,-527.49 1317.96,-501.51 1271.56,-485.07"/>
<polygon fill="black" stroke="black" points="1272.68,-481.76 1262.09,-481.72 1270.34,-488.36 1272.68,-481.76"/>
<text text-anchor="middle" x="1380" y="-508.8" font-family="Times,serif" font-size="14.00">True</text>
</g>
<!-- 658db1d7&#45;9dae&#45;48e4&#45;b8b1&#45;c56b34ff8e8c -->
<g id="node42" class="node">
<title>658db1d7&#45;9dae&#45;48e4&#45;b8b1&#45;c56b34ff8e8c</title>
<ellipse fill="none" stroke="black" cx="1802" cy="-469" rx="59.9" ry="18"/>
<text text-anchor="middle" x="1802" y="-465.3" font-family="Times,serif" font-size="14.00">ZeroMovement</text>
</g>
<!-- 89547e2b&#45;bb29&#45;4cf9&#45;ada0&#45;a2e2b9200288&#45;&gt;658db1d7&#45;9dae&#45;48e4&#45;b8b1&#45;c56b34ff8e8c -->
<g id="edge48" class="edge">
<title>89547e2b&#45;bb29&#45;4cf9&#45;ada0&#45;a2e2b9200288&#45;&gt;658db1d7&#45;9dae&#45;48e4&#45;b8b1&#45;c56b34ff8e8c</title>
<path fill="none" stroke="black" d="M1526.5,-545.84C1558.67,-540.86 1599.52,-534.76 1636,-530 1675.91,-524.8 1688.14,-533.66 1726,-520 1743.59,-513.65 1761.17,-502.48 1774.99,-492.3"/>
<polygon fill="black" stroke="black" points="1777.23,-494.99 1783.07,-486.14 1772.99,-489.42 1777.23,-494.99"/>
<text text-anchor="middle" x="1773" y="-508.8" font-family="Times,serif" font-size="14.00">False</text>
</g>
<!-- be12fa1b&#45;349b&#45;4fb6&#45;8d3d&#45;d2829a496c46 -->
<g id="node3" class="node">
<title>be12fa1b&#45;349b&#45;4fb6&#45;8d3d&#45;d2829a496c46</title>
<ellipse fill="none" stroke="black" cx="88" cy="-935" rx="33.6" ry="18"/>
<text text-anchor="middle" x="88" y="-931.3" font-family="Times,serif" font-size="14.00">Descend</text>
</g>
<!-- aba98a7d&#45;0113&#45;4f7b&#45;b834&#45;79b97e890bb2 -->
<g id="node4" class="node">
<title>aba98a7d&#45;0113&#45;4f7b&#45;b834&#45;79b97e890bb2</title>
<ellipse fill="none" stroke="black" cx="88" cy="-862" rx="47.1" ry="18"/>
<text text-anchor="middle" x="88" y="-858.3" font-family="Times,serif" font-size="14.00">DelayAction</text>
</g>
<!-- be12fa1b&#45;349b&#45;4fb6&#45;8d3d&#45;d2829a496c46&#45;&gt;aba98a7d&#45;0113&#45;4f7b&#45;b834&#45;79b97e890bb2 -->
<g id="edge1" class="edge">
<title>be12fa1b&#45;349b&#45;4fb6&#45;8d3d&#45;d2829a496c46&#45;&gt;aba98a7d&#45;0113&#45;4f7b&#45;b834&#45;79b97e890bb2</title>
<path fill="none" stroke="black" d="M88,-916.81C88,-908.79 88,-899.05 88,-890.07"/>
<polygon fill="black" stroke="black" points="91.5,-890.03 88,-880.03 84.5,-890.03 91.5,-890.03"/>
</g>
<!-- 4f2d6d87&#45;7a33&#45;4052&#45;bbfa&#45;e46347644d95 -->
<g id="node5" class="node">
<title>4f2d6d87&#45;7a33&#45;4052&#45;bbfa&#45;e46347644d95</title>
<ellipse fill="none" stroke="black" cx="91" cy="-789" rx="74.61" ry="18"/>
<text text-anchor="middle" x="91" y="-785.3" font-family="Times,serif" font-size="14.00">StraightMovement</text>
</g>
<!-- aba98a7d&#45;0113&#45;4f7b&#45;b834&#45;79b97e890bb2&#45;&gt;4f2d6d87&#45;7a33&#45;4052&#45;bbfa&#45;e46347644d95 -->
<g id="edge4" class="edge">
<title>aba98a7d&#45;0113&#45;4f7b&#45;b834&#45;79b97e890bb2&#45;&gt;4f2d6d87&#45;7a33&#45;4052&#45;bbfa&#45;e46347644d95</title>
<path fill="none" stroke="black" d="M88.73,-843.81C89.07,-835.79 89.48,-826.05 89.86,-817.07"/>
<polygon fill="black" stroke="black" points="93.36,-817.17 90.28,-807.03 86.36,-816.87 93.36,-817.17"/>
</g>
<!-- 27706ee5&#45;eee6&#45;4ab2&#45;a815&#45;4fc84d22b67a -->
<g id="node6" class="node">
<title>27706ee5&#45;eee6&#45;4ab2&#45;a815&#45;4fc84d22b67a</title>
<ellipse fill="none" stroke="black" cx="99" cy="-716" rx="47.1" ry="18"/>
<text text-anchor="middle" x="99" y="-712.3" font-family="Times,serif" font-size="14.00">DelayAction</text>
</g>
<!-- 4f2d6d87&#45;7a33&#45;4052&#45;bbfa&#45;e46347644d95&#45;&gt;27706ee5&#45;eee6&#45;4ab2&#45;a815&#45;4fc84d22b67a -->
<g id="edge2" class="edge">
<title>4f2d6d87&#45;7a33&#45;4052&#45;bbfa&#45;e46347644d95&#45;&gt;27706ee5&#45;eee6&#45;4ab2&#45;a815&#45;4fc84d22b67a</title>
<path fill="none" stroke="black" d="M92.94,-770.81C93.84,-762.79 94.94,-753.05 95.95,-744.07"/>
<polygon fill="black" stroke="black" points="99.44,-744.36 97.08,-734.03 92.48,-743.57 99.44,-744.36"/>
</g>
<!-- 9d952fd4&#45;93d2&#45;4547&#45;87c6&#45;7e76ad33deb9 -->
<g id="node7" class="node">
<title>9d952fd4&#45;93d2&#45;4547&#45;87c6&#45;7e76ad33deb9</title>
<ellipse fill="none" stroke="black" cx="104" cy="-629" rx="59.9" ry="18"/>
<text text-anchor="middle" x="104" y="-625.3" font-family="Times,serif" font-size="14.00">ZeroMovement</text>
</g>
<!-- 27706ee5&#45;eee6&#45;4ab2&#45;a815&#45;4fc84d22b67a&#45;&gt;9d952fd4&#45;93d2&#45;4547&#45;87c6&#45;7e76ad33deb9 -->
<g id="edge3" class="edge">
<title>27706ee5&#45;eee6&#45;4ab2&#45;a815&#45;4fc84d22b67a&#45;&gt;9d952fd4&#45;93d2&#45;4547&#45;87c6&#45;7e76ad33deb9</title>
<path fill="none" stroke="black" d="M100.01,-697.8C100.7,-686.16 101.61,-670.55 102.4,-657.24"/>
<polygon fill="black" stroke="black" points="105.9,-657.36 102.99,-647.18 98.91,-656.95 105.9,-657.36"/>
</g>
<!-- c0ad3bae&#45;a518&#45;4c32&#45;8363&#45;6f5889dc4317 -->
<g id="node11" class="node">
<title>c0ad3bae&#45;a518&#45;4c32&#45;8363&#45;6f5889dc4317</title>
<polygon fill="none" stroke="black" stroke-dasharray="5,2" points="239.5,-574 154.5,-574 154.5,-538 239.5,-538 239.5,-574"/>
<text text-anchor="middle" x="197" y="-552.3" font-family="Times,serif" font-size="14.00" fill="blue">Converge</text>
</g>
<!-- 9d952fd4&#45;93d2&#45;4547&#45;87c6&#45;7e76ad33deb9&#45;&gt;c0ad3bae&#45;a518&#45;4c32&#45;8363&#45;6f5889dc4317 -->
<g id="edge8" class="edge">
<title>9d952fd4&#45;93d2&#45;4547&#45;87c6&#45;7e76ad33deb9&#45;&gt;c0ad3bae&#45;a518&#45;4c32&#45;8363&#45;6f5889dc4317</title>
<path fill="none" stroke="black" d="M125.1,-611.89C137.35,-602.54 152.99,-590.6 166.56,-580.24"/>
<polygon fill="black" stroke="black" points="168.86,-582.89 174.68,-574.04 164.61,-577.32 168.86,-582.89"/>
</g>
<!-- 3185a9dd&#45;e32d&#45;4872&#45;8bc6&#45;89ee42237602 -->
<g id="node8" class="node">
<title>3185a9dd&#45;e32d&#45;4872&#45;8bc6&#45;89ee42237602</title>
<ellipse fill="none" stroke="black" cx="82" cy="-1043" rx="34.8" ry="18"/>
<text text-anchor="middle" x="82" y="-1039.3" font-family="Times,serif" font-size="14.00">WaitArm</text>
</g>
<!-- 3185a9dd&#45;e32d&#45;4872&#45;8bc6&#45;89ee42237602&#45;&gt;be12fa1b&#45;349b&#45;4fb6&#45;8d3d&#45;d2829a496c46 -->
<g id="edge5" class="edge">
<title>3185a9dd&#45;e32d&#45;4872&#45;8bc6&#45;89ee42237602&#45;&gt;be12fa1b&#45;349b&#45;4fb6&#45;8d3d&#45;d2829a496c46</title>
<path fill="none" stroke="black" d="M82.96,-1024.97C83.9,-1008.38 85.35,-982.88 86.45,-963.43"/>
<polygon fill="black" stroke="black" points="89.95,-963.52 87.02,-953.34 82.96,-963.13 89.95,-963.52"/>
</g>
<!-- 4dd518b8&#45;4ad6&#45;4c19&#45;aef6&#45;47fc6ddca546 -->
<g id="node9" class="node">
<title>4dd518b8&#45;4ad6&#45;4c19&#45;aef6&#45;47fc6ddca546</title>
<polygon fill="none" stroke="black" stroke-dasharray="5,2" points="210,-1134 112,-1134 112,-1098 210,-1098 210,-1134"/>
<text text-anchor="middle" x="161" y="-1112.3" font-family="Times,serif" font-size="14.00" fill="blue">Concurrent</text>
</g>
<!-- 4dd518b8&#45;4ad6&#45;4c19&#45;aef6&#45;47fc6ddca546&#45;&gt;3185a9dd&#45;e32d&#45;4872&#45;8bc6&#45;89ee42237602 -->
<g id="edge6" class="edge">
<title>4dd518b8&#45;4ad6&#45;4c19&#45;aef6&#45;47fc6ddca546&#45;&gt;3185a9dd&#45;e32d&#45;4872&#45;8bc6&#45;89ee42237602</title>
<path fill="none" stroke="black" d="M141.88,-1097.81C131.12,-1088.14 117.58,-1075.98 106.1,-1065.66"/>
<polygon fill="black" stroke="black" points="108.32,-1062.95 98.54,-1058.87 103.64,-1068.15 108.32,-1062.95"/>
</g>
<!-- 34692eaa&#45;0ca8&#45;439c&#45;bc31&#45;786109616943 -->
<g id="node10" class="node">
<title>34692eaa&#45;0ca8&#45;439c&#45;bc31&#45;786109616943</title>
<ellipse fill="none" stroke="black" cx="189" cy="-989" rx="50.7" ry="18"/>
<text text-anchor="middle" x="189" y="-985.3" font-family="Times,serif" font-size="14.00">StartBno055</text>
</g>
<!-- 4dd518b8&#45;4ad6&#45;4c19&#45;aef6&#45;47fc6ddca546&#45;&gt;34692eaa&#45;0ca8&#45;439c&#45;bc31&#45;786109616943 -->
<g id="edge7" class="edge">
<title>4dd518b8&#45;4ad6&#45;4c19&#45;aef6&#45;47fc6ddca546&#45;&gt;34692eaa&#45;0ca8&#45;439c&#45;bc31&#45;786109616943</title>
<path fill="none" stroke="black" d="M164.83,-1097.88C169.5,-1077.05 177.43,-1041.64 182.93,-1017.09"/>
<polygon fill="black" stroke="black" points="186.35,-1017.84 185.12,-1007.31 179.52,-1016.31 186.35,-1017.84"/>
</g>
<!-- 34692eaa&#45;0ca8&#45;439c&#45;bc31&#45;786109616943&#45;&gt;c0ad3bae&#45;a518&#45;4c32&#45;8363&#45;6f5889dc4317 -->
<g id="edge9" class="edge">
<title>34692eaa&#45;0ca8&#45;439c&#45;bc31&#45;786109616943&#45;&gt;c0ad3bae&#45;a518&#45;4c32&#45;8363&#45;6f5889dc4317</title>
<path fill="none" stroke="black" d="M204.82,-971.8C219.47,-955.03 239,-927.36 239,-899 239,-899 239,-899 239,-628 239,-611.08 230.06,-594.66 220.43,-581.88"/>
<polygon fill="black" stroke="black" points="223.09,-579.61 214.08,-574.04 217.65,-584.01 223.09,-579.61"/>
</g>
<!-- c0ad3bae&#45;a518&#45;4c32&#45;8363&#45;6f5889dc4317&#45;&gt;9e40ff57&#45;7878&#45;428e&#45;abb0&#45;61ad21c2d6a3 -->
<g id="edge50" class="edge">
<title>c0ad3bae&#45;a518&#45;4c32&#45;8363&#45;6f5889dc4317&#45;&gt;9e40ff57&#45;7878&#45;428e&#45;abb0&#45;61ad21c2d6a3</title>
<path fill="none" stroke="black" d="M227.76,-537.8C252.9,-523.74 288.43,-503.87 314.53,-489.28"/>
<polygon fill="black" stroke="black" points="316.31,-492.29 323.33,-484.35 312.9,-486.18 316.31,-492.29"/>
</g>
<!-- 98eb05b3&#45;2cfe&#45;4a38&#45;aa0a&#45;9b0992277c3b -->
<g id="node12" class="node">
<title>98eb05b3&#45;2cfe&#45;4a38&#45;aa0a&#45;9b0992277c3b</title>
<polygon fill="none" stroke="black" stroke-dasharray="5,2" points="780,-880 598,-880 598,-844 780,-844 780,-880"/>
<text text-anchor="middle" x="689" y="-858.3" font-family="Times,serif" font-size="14.00" fill="darkgreen">FirstValid (Concurrent)</text>
</g>
<!-- e48b017c&#45;4429&#45;4603&#45;9c77&#45;55f8a4cf5234 -->
<g id="node13" class="node">
<title>e48b017c&#45;4429&#45;4603&#45;9c77&#45;55f8a4cf5234</title>
<ellipse fill="none" stroke="black" cx="509" cy="-789" rx="51.3" ry="18"/>
<text text-anchor="middle" x="509" y="-785.3" font-family="Times,serif" font-size="14.00">Detect Earth</text>
</g>
<!-- 98eb05b3&#45;2cfe&#45;4a38&#45;aa0a&#45;9b0992277c3b&#45;&gt;e48b017c&#45;4429&#45;4603&#45;9c77&#45;55f8a4cf5234 -->
<g id="edge10" class="edge">
<title>98eb05b3&#45;2cfe&#45;4a38&#45;aa0a&#45;9b0992277c3b&#45;&gt;e48b017c&#45;4429&#45;4603&#45;9c77&#45;55f8a4cf5234</title>
<path fill="none" stroke="black" d="M645.89,-843.99C617.23,-832.69 579.78,-817.92 551.29,-806.68"/>
<polygon fill="black" stroke="black" points="552.21,-803.28 541.62,-802.87 549.64,-809.79 552.21,-803.28"/>
</g>
<!-- 88965881&#45;a85e&#45;4770&#45;ac51&#45;4d8f0f4a8c33 -->
<g id="node14" class="node">
<title>88965881&#45;a85e&#45;4770&#45;ac51&#45;4d8f0f4a8c33</title>
<ellipse fill="none" stroke="black" cx="689" cy="-789" rx="57.4" ry="18"/>
<text text-anchor="middle" x="689" y="-785.3" font-family="Times,serif" font-size="14.00">Detect Abydos</text>
</g>
<!-- 98eb05b3&#45;2cfe&#45;4a38&#45;aa0a&#45;9b0992277c3b&#45;&gt;88965881&#45;a85e&#45;4770&#45;ac51&#45;4d8f0f4a8c33 -->
<g id="edge11" class="edge">
<title>98eb05b3&#45;2cfe&#45;4a38&#45;aa0a&#45;9b0992277c3b&#45;&gt;88965881&#45;a85e&#45;4770&#45;ac51&#45;4d8f0f4a8c33</title>
<path fill="none" stroke="black" d="M689,-843.81C689,-835.79 689,-826.05 689,-817.07"/>
<polygon fill="black" stroke="black" points="692.5,-817.03 689,-807.03 685.5,-817.03 692.5,-817.03"/>
</g>
<!-- fa7c704e&#45;ca4f&#45;4ca2&#45;bb88&#45;6dc2f764ce21 -->
<g id="node15" class="node">
<title>fa7c704e&#45;ca4f&#45;4ca2&#45;bb88&#45;6dc2f764ce21</title>
<ellipse fill="none" stroke="black" cx="888" cy="-789" rx="69.71" ry="18"/>
<text text-anchor="middle" x="888" y="-785.3" font-family="Times,serif" font-size="14.00">Detect LargeGate</text>
</g>
<!-- 98eb05b3&#45;2cfe&#45;4a38&#45;aa0a&#45;9b0992277c3b&#45;&gt;fa7c704e&#45;ca4f&#45;4ca2&#45;bb88&#45;6dc2f764ce21 -->
<g id="edge12" class="edge">
<title>98eb05b3&#45;2cfe&#45;4a38&#45;aa0a&#45;9b0992277c3b&#45;&gt;fa7c704e&#45;ca4f&#45;4ca2&#45;bb88&#45;6dc2f764ce21</title>
<path fill="none" stroke="black" d="M736.67,-843.99C767.58,-832.96 807.77,-818.63 838.96,-807.5"/>
<polygon fill="black" stroke="black" points="840.5,-810.66 848.75,-804.01 838.15,-804.07 840.5,-810.66"/>
</g>
<!-- 763bba7a&#45;900c&#45;43af&#45;b899&#45;04a88ce6ea17 -->
<g id="node16" class="node">
<title>763bba7a&#45;900c&#45;43af&#45;b899&#45;04a88ce6ea17</title>
<ellipse fill="none" stroke="black" cx="1075" cy="-789" rx="45.2" ry="18"/>
<text text-anchor="middle" x="1075" y="-785.3" font-family="Times,serif" font-size="14.00">Detect Pole</text>
</g>
<!-- 98eb05b3&#45;2cfe&#45;4a38&#45;aa0a&#45;9b0992277c3b&#45;&gt;763bba7a&#45;900c&#45;43af&#45;b899&#45;04a88ce6ea17 -->
<g id="edge13" class="edge">
<title>98eb05b3&#45;2cfe&#45;4a38&#45;aa0a&#45;9b0992277c3b&#45;&gt;763bba7a&#45;900c&#45;43af&#45;b899&#45;04a88ce6ea17</title>
<path fill="none" stroke="black" d="M780.23,-845.62C840.91,-835.21 922.33,-820.86 994,-807 1004.48,-804.97 1015.69,-802.69 1026.34,-800.47"/>
<polygon fill="black" stroke="black" points="1027.25,-803.86 1036.32,-798.38 1025.82,-797.01 1027.25,-803.86"/>
</g>
<!-- e13eccb3&#45;c502&#45;472d&#45;901d&#45;d8953cc0e639 -->
<g id="node17" class="node">
<title>e13eccb3&#45;c502&#45;472d&#45;901d&#45;d8953cc0e639</title>
<polygon fill="none" stroke="black" stroke-dasharray="5,2" points="827.5,-734 742.5,-734 742.5,-698 827.5,-698 827.5,-734"/>
<text text-anchor="middle" x="785" y="-712.3" font-family="Times,serif" font-size="14.00" fill="darkgreen">Converge</text>
</g>
<!-- e48b017c&#45;4429&#45;4603&#45;9c77&#45;55f8a4cf5234&#45;&gt;e13eccb3&#45;c502&#45;472d&#45;901d&#45;d8953cc0e639 -->
<g id="edge14" class="edge">
<title>e48b017c&#45;4429&#45;4603&#45;9c77&#45;55f8a4cf5234&#45;&gt;e13eccb3&#45;c502&#45;472d&#45;901d&#45;d8953cc0e639</title>
<path fill="none" stroke="black" d="M549.13,-777.68C597.45,-765.25 678.74,-744.33 732.13,-730.6"/>
<polygon fill="black" stroke="black" points="733.28,-733.92 742.09,-728.04 731.54,-727.14 733.28,-733.92"/>
</g>
<!-- 88965881&#45;a85e&#45;4770&#45;ac51&#45;4d8f0f4a8c33&#45;&gt;e13eccb3&#45;c502&#45;472d&#45;901d&#45;d8953cc0e639 -->
<g id="edge15" class="edge">
<title>88965881&#45;a85e&#45;4770&#45;ac51&#45;4d8f0f4a8c33&#45;&gt;e13eccb3&#45;c502&#45;472d&#45;901d&#45;d8953cc0e639</title>
<path fill="none" stroke="black" d="M710.31,-772.24C723.05,-762.82 739.48,-750.67 753.68,-740.17"/>
<polygon fill="black" stroke="black" points="755.78,-742.96 761.74,-734.2 751.62,-737.34 755.78,-742.96"/>
</g>
<!-- fa7c704e&#45;ca4f&#45;4ca2&#45;bb88&#45;6dc2f764ce21&#45;&gt;e13eccb3&#45;c502&#45;472d&#45;901d&#45;d8953cc0e639 -->
<g id="edge16" class="edge">
<title>fa7c704e&#45;ca4f&#45;4ca2&#45;bb88&#45;6dc2f764ce21&#45;&gt;e13eccb3&#45;c502&#45;472d&#45;901d&#45;d8953cc0e639</title>
<path fill="none" stroke="black" d="M864.63,-771.89C850.93,-762.45 833.41,-750.37 818.29,-739.95"/>
<polygon fill="black" stroke="black" points="819.94,-736.83 809.72,-734.04 815.96,-742.59 819.94,-736.83"/>
</g>
<!-- 763bba7a&#45;900c&#45;43af&#45;b899&#45;04a88ce6ea17&#45;&gt;e13eccb3&#45;c502&#45;472d&#45;901d&#45;d8953cc0e639 -->
<g id="edge17" class="edge">
<title>763bba7a&#45;900c&#45;43af&#45;b899&#45;04a88ce6ea17&#45;&gt;e13eccb3&#45;c502&#45;472d&#45;901d&#45;d8953cc0e639</title>
<path fill="none" stroke="black" d="M1037.68,-778.86C986.88,-766.43 895.69,-744.1 837.87,-729.94"/>
<polygon fill="black" stroke="black" points="838.37,-726.46 827.83,-727.49 836.71,-733.26 838.37,-726.46"/>
</g>
<!-- fd5b4beb&#45;98c8&#45;49f1&#45;8f0b&#45;a8442c035dad -->
<g id="node25" class="node">
<title>fd5b4beb&#45;98c8&#45;49f1&#45;8f0b&#45;a8442c035dad</title>
<polygon fill="none" stroke="black" stroke-dasharray="5,2" points="834,-647 736,-647 736,-611 834,-611 834,-647"/>
<text text-anchor="middle" x="785" y="-625.3" font-family="Times,serif" font-size="14.00" fill="blue">Concurrent</text>
</g>
<!-- e13eccb3&#45;c502&#45;472d&#45;901d&#45;d8953cc0e639&#45;&gt;fd5b4beb&#45;98c8&#45;49f1&#45;8f0b&#45;a8442c035dad -->
<g id="edge42" class="edge">
<title>e13eccb3&#45;c502&#45;472d&#45;901d&#45;d8953cc0e639&#45;&gt;fd5b4beb&#45;98c8&#45;49f1&#45;8f0b&#45;a8442c035dad</title>
<path fill="none" stroke="purple" d="M785,-697.8C785,-686.16 785,-670.55 785,-657.24"/>
<polygon fill="purple" stroke="purple" points="788.5,-657.18 785,-647.18 781.5,-657.18 788.5,-657.18"/>
<text text-anchor="middle" x="820.5" y="-668.8" font-family="Times,serif" font-size="14.00" fill="purple">Pass Data</text>
</g>
<!-- 1435a153&#45;a7fd&#45;4830&#45;8522&#45;fa15679f8b2a -->
<g id="node18" class="node">
<title>1435a153&#45;a7fd&#45;4830&#45;8522&#45;fa15679f8b2a</title>
<ellipse fill="none" stroke="black" cx="858" cy="-121" rx="27" ry="18"/>
<text text-anchor="middle" x="858" y="-117.3" font-family="Times,serif" font-size="14.00">StripY</text>
</g>
<!-- f57a9e81&#45;10ef&#45;438a&#45;92e4&#45;c8dd941a39ad -->
<g id="node19" class="node">
<title>f57a9e81&#45;10ef&#45;438a&#45;92e4&#45;c8dd941a39ad</title>
<ellipse fill="none" stroke="black" cx="858" cy="-34" rx="80.11" ry="18"/>
<text text-anchor="middle" x="858" y="-30.3" font-family="Times,serif" font-size="14.00">Stability2Movement</text>
</g>
<!-- 1435a153&#45;a7fd&#45;4830&#45;8522&#45;fa15679f8b2a&#45;&gt;f57a9e81&#45;10ef&#45;438a&#45;92e4&#45;c8dd941a39ad -->
<g id="edge18" class="edge">
<title>1435a153&#45;a7fd&#45;4830&#45;8522&#45;fa15679f8b2a&#45;&gt;f57a9e81&#45;10ef&#45;438a&#45;92e4&#45;c8dd941a39ad</title>
<path fill="none" stroke="purple" d="M858,-102.8C858,-91.16 858,-75.55 858,-62.24"/>
<polygon fill="purple" stroke="purple" points="861.5,-62.18 858,-52.18 854.5,-62.18 861.5,-62.18"/>
<text text-anchor="middle" x="893.5" y="-73.8" font-family="Times,serif" font-size="14.00" fill="purple">Pass Data</text>
</g>
<!-- 3e063b10&#45;f76c&#45;4b55&#45;897d&#45;d881ac30e790 -->
<g id="node20" class="node">
<title>3e063b10&#45;f76c&#45;4b55&#45;897d&#45;d881ac30e790</title>
<ellipse fill="none" stroke="black" cx="858" cy="-208" rx="67.81" ry="18"/>
<text text-anchor="middle" x="858" y="-204.3" font-family="Times,serif" font-size="14.00">LinearYawFromX</text>
</g>
<!-- 3e063b10&#45;f76c&#45;4b55&#45;897d&#45;d881ac30e790&#45;&gt;1435a153&#45;a7fd&#45;4830&#45;8522&#45;fa15679f8b2a -->
<g id="edge19" class="edge">
<title>3e063b10&#45;f76c&#45;4b55&#45;897d&#45;d881ac30e790&#45;&gt;1435a153&#45;a7fd&#45;4830&#45;8522&#45;fa15679f8b2a</title>
<path fill="none" stroke="purple" d="M858,-189.8C858,-178.16 858,-162.55 858,-149.24"/>
<polygon fill="purple" stroke="purple" points="861.5,-149.18 858,-139.18 854.5,-149.18 861.5,-149.18"/>
<text text-anchor="middle" x="893.5" y="-160.8" font-family="Times,serif" font-size="14.00" fill="purple">Pass Data</text>
</g>
<!-- d0e42fdb&#45;3593&#45;4d91&#45;9fde&#45;271a05dbd644 -->
<g id="node21" class="node">
<title>d0e42fdb&#45;3593&#45;4d91&#45;9fde&#45;271a05dbd644</title>
<ellipse fill="none" stroke="black" cx="859" cy="-295" rx="51.3" ry="18"/>
<text text-anchor="middle" x="859" y="-291.3" font-family="Times,serif" font-size="14.00">OffsetToPose</text>
</g>
<!-- d0e42fdb&#45;3593&#45;4d91&#45;9fde&#45;271a05dbd644&#45;&gt;3e063b10&#45;f76c&#45;4b55&#45;897d&#45;d881ac30e790 -->
<g id="edge20" class="edge">
<title>d0e42fdb&#45;3593&#45;4d91&#45;9fde&#45;271a05dbd644&#45;&gt;3e063b10&#45;f76c&#45;4b55&#45;897d&#45;d881ac30e790</title>
<path fill="none" stroke="purple" d="M858.8,-276.8C858.66,-265.16 858.48,-249.55 858.32,-236.24"/>
<polygon fill="purple" stroke="purple" points="861.82,-236.13 858.2,-226.18 854.82,-236.22 861.82,-236.13"/>
<text text-anchor="middle" x="893.5" y="-247.8" font-family="Times,serif" font-size="14.00" fill="purple">Pass Data</text>
</g>
<!-- e4da93ec&#45;2e28&#45;4a34&#45;aefa&#45;bb6e260cec24 -->
<g id="node22" class="node">
<title>e4da93ec&#45;2e28&#45;4a34&#45;aefa&#45;bb6e260cec24</title>
<ellipse fill="none" stroke="black" cx="860" cy="-382" rx="32.4" ry="18"/>
<text text-anchor="middle" x="860" y="-378.3" font-family="Times,serif" font-size="14.00">Average</text>
</g>
<!-- e4da93ec&#45;2e28&#45;4a34&#45;aefa&#45;bb6e260cec24&#45;&gt;d0e42fdb&#45;3593&#45;4d91&#45;9fde&#45;271a05dbd644 -->
<g id="edge21" class="edge">
<title>e4da93ec&#45;2e28&#45;4a34&#45;aefa&#45;bb6e260cec24&#45;&gt;d0e42fdb&#45;3593&#45;4d91&#45;9fde&#45;271a05dbd644</title>
<path fill="none" stroke="purple" d="M859.8,-363.8C859.66,-352.16 859.48,-336.55 859.32,-323.24"/>
<polygon fill="purple" stroke="purple" points="862.82,-323.13 859.2,-313.18 855.82,-323.22 862.82,-323.13"/>
<text text-anchor="middle" x="894.5" y="-334.8" font-family="Times,serif" font-size="14.00" fill="purple">Pass Data</text>
</g>
<!-- 6dc6123d&#45;f8a7&#45;4904&#45;acee&#45;67a0d7b96aa7 -->
<g id="node23" class="node">
<title>6dc6123d&#45;f8a7&#45;4904&#45;acee&#45;67a0d7b96aa7</title>
<ellipse fill="none" stroke="black" cx="862" cy="-469" rx="61.1" ry="18"/>
<text text-anchor="middle" x="862" y="-465.3" font-family="Times,serif" font-size="14.00">ExtractPosition</text>
</g>
<!-- 6dc6123d&#45;f8a7&#45;4904&#45;acee&#45;67a0d7b96aa7&#45;&gt;e4da93ec&#45;2e28&#45;4a34&#45;aefa&#45;bb6e260cec24 -->
<g id="edge22" class="edge">
<title>6dc6123d&#45;f8a7&#45;4904&#45;acee&#45;67a0d7b96aa7&#45;&gt;e4da93ec&#45;2e28&#45;4a34&#45;aefa&#45;bb6e260cec24</title>
<path fill="none" stroke="purple" d="M861.6,-450.8C861.32,-439.16 860.95,-423.55 860.64,-410.24"/>
<polygon fill="purple" stroke="purple" points="864.14,-410.09 860.4,-400.18 857.14,-410.26 864.14,-410.09"/>
<text text-anchor="middle" x="896.5" y="-421.8" font-family="Times,serif" font-size="14.00" fill="purple">Pass Data</text>
</g>
<!-- d1bbdc24&#45;01d8&#45;48b3&#45;beb3&#45;bd7f3e5598ca -->
<g id="node24" class="node">
<title>d1bbdc24&#45;01d8&#45;48b3&#45;beb3&#45;bd7f3e5598ca</title>
<ellipse fill="none" stroke="black" cx="911" cy="-556" rx="27" ry="18"/>
<text text-anchor="middle" x="911" y="-552.3" font-family="Times,serif" font-size="14.00">ToVec</text>
</g>
<!-- d1bbdc24&#45;01d8&#45;48b3&#45;beb3&#45;bd7f3e5598ca&#45;&gt;6dc6123d&#45;f8a7&#45;4904&#45;acee&#45;67a0d7b96aa7 -->
<g id="edge23" class="edge">
<title>d1bbdc24&#45;01d8&#45;48b3&#45;beb3&#45;bd7f3e5598ca&#45;&gt;6dc6123d&#45;f8a7&#45;4904&#45;acee&#45;67a0d7b96aa7</title>
<path fill="none" stroke="purple" d="M901.78,-539.01C894.73,-526.78 884.87,-509.68 876.73,-495.56"/>
<polygon fill="purple" stroke="purple" points="879.7,-493.7 871.68,-486.79 873.64,-497.2 879.7,-493.7"/>
<text text-anchor="middle" x="924.5" y="-508.8" font-family="Times,serif" font-size="14.00" fill="purple">Pass Data</text>
</g>
<!-- fd5b4beb&#45;98c8&#45;49f1&#45;8f0b&#45;a8442c035dad&#45;&gt;247efe92&#45;f676&#45;4d85&#45;a5ae&#45;09387d40abbd -->
<g id="edge25" class="edge">
<title>fd5b4beb&#45;98c8&#45;49f1&#45;8f0b&#45;a8442c035dad&#45;&gt;247efe92&#45;f676&#45;4d85&#45;a5ae&#45;09387d40abbd</title>
<path fill="none" stroke="black" d="M762.25,-610.81C749.02,-600.82 732.26,-588.16 718.32,-577.63"/>
<polygon fill="black" stroke="black" points="720.15,-574.63 710.06,-571.4 715.93,-580.22 720.15,-574.63"/>
</g>
<!-- fd5b4beb&#45;98c8&#45;49f1&#45;8f0b&#45;a8442c035dad&#45;&gt;d1bbdc24&#45;01d8&#45;48b3&#45;beb3&#45;bd7f3e5598ca -->
<g id="edge24" class="edge">
<title>fd5b4beb&#45;98c8&#45;49f1&#45;8f0b&#45;a8442c035dad&#45;&gt;d1bbdc24&#45;01d8&#45;48b3&#45;beb3&#45;bd7f3e5598ca</title>
<path fill="none" stroke="black" d="M815.18,-610.99C835.42,-599.59 861.93,-584.65 881.93,-573.38"/>
<polygon fill="black" stroke="black" points="883.9,-576.29 890.89,-568.33 880.46,-570.19 883.9,-576.29"/>
</g>
<!-- 4dc854ad&#45;e80b&#45;4395&#45;af07&#45;2eea55a51062 -->
<g id="node26" class="node">
<title>4dc854ad&#45;e80b&#45;4395&#45;af07&#45;2eea55a51062</title>
<polygon fill="none" stroke="black" stroke-dasharray="5,2" points="1660,-880 1478,-880 1478,-844 1660,-844 1660,-880"/>
<text text-anchor="middle" x="1569" y="-858.3" font-family="Times,serif" font-size="14.00" fill="darkgreen">FirstValid (Concurrent)</text>
</g>
<!-- b7b65f83&#45;91e6&#45;49d3&#45;9c98&#45;8e92696bb08c -->
<g id="node27" class="node">
<title>b7b65f83&#45;91e6&#45;49d3&#45;9c98&#45;8e92696bb08c</title>
<ellipse fill="none" stroke="black" cx="1389" cy="-789" rx="51.3" ry="18"/>
<text text-anchor="middle" x="1389" y="-785.3" font-family="Times,serif" font-size="14.00">Detect Earth</text>
</g>
<!-- 4dc854ad&#45;e80b&#45;4395&#45;af07&#45;2eea55a51062&#45;&gt;b7b65f83&#45;91e6&#45;49d3&#45;9c98&#45;8e92696bb08c -->
<g id="edge26" class="edge">
<title>4dc854ad&#45;e80b&#45;4395&#45;af07&#45;2eea55a51062&#45;&gt;b7b65f83&#45;91e6&#45;49d3&#45;9c98&#45;8e92696bb08c</title>
<path fill="none" stroke="black" d="M1525.89,-843.99C1497.23,-832.69 1459.78,-817.92 1431.29,-806.68"/>
<polygon fill="black" stroke="black" points="1432.21,-803.28 1421.62,-802.87 1429.64,-809.79 1432.21,-803.28"/>
</g>
<!-- 48a16bd7&#45;5c4b&#45;4636&#45;add1&#45;e08a6e5dfefd -->
<g id="node28" class="node">
<title>48a16bd7&#45;5c4b&#45;4636&#45;add1&#45;e08a6e5dfefd</title>
<ellipse fill="none" stroke="black" cx="1569" cy="-789" rx="57.4" ry="18"/>
<text text-anchor="middle" x="1569" y="-785.3" font-family="Times,serif" font-size="14.00">Detect Abydos</text>
</g>
<!-- 4dc854ad&#45;e80b&#45;4395&#45;af07&#45;2eea55a51062&#45;&gt;48a16bd7&#45;5c4b&#45;4636&#45;add1&#45;e08a6e5dfefd -->
<g id="edge27" class="edge">
<title>4dc854ad&#45;e80b&#45;4395&#45;af07&#45;2eea55a51062&#45;&gt;48a16bd7&#45;5c4b&#45;4636&#45;add1&#45;e08a6e5dfefd</title>
<path fill="none" stroke="black" d="M1569,-843.81C1569,-835.79 1569,-826.05 1569,-817.07"/>
<polygon fill="black" stroke="black" points="1572.5,-817.03 1569,-807.03 1565.5,-817.03 1572.5,-817.03"/>
</g>
<!-- a1c85eff&#45;2c36&#45;40f2&#45;86a6&#45;25decfd22ffd -->
<g id="node29" class="node">
<title>a1c85eff&#45;2c36&#45;40f2&#45;86a6&#45;25decfd22ffd</title>
<ellipse fill="none" stroke="black" cx="1768" cy="-789" rx="69.71" ry="18"/>
<text text-anchor="middle" x="1768" y="-785.3" font-family="Times,serif" font-size="14.00">Detect LargeGate</text>
</g>
<!-- 4dc854ad&#45;e80b&#45;4395&#45;af07&#45;2eea55a51062&#45;&gt;a1c85eff&#45;2c36&#45;40f2&#45;86a6&#45;25decfd22ffd -->
<g id="edge28" class="edge">
<title>4dc854ad&#45;e80b&#45;4395&#45;af07&#45;2eea55a51062&#45;&gt;a1c85eff&#45;2c36&#45;40f2&#45;86a6&#45;25decfd22ffd</title>
<path fill="none" stroke="black" d="M1616.67,-843.99C1647.58,-832.96 1687.77,-818.63 1718.96,-807.5"/>
<polygon fill="black" stroke="black" points="1720.5,-810.66 1728.75,-804.01 1718.15,-804.07 1720.5,-810.66"/>
</g>
<!-- 8e0a7453&#45;80a9&#45;439f&#45;90b9&#45;e69eaedfaeca -->
<g id="node30" class="node">
<title>8e0a7453&#45;80a9&#45;439f&#45;90b9&#45;e69eaedfaeca</title>
<ellipse fill="none" stroke="black" cx="1955" cy="-789" rx="45.2" ry="18"/>
<text text-anchor="middle" x="1955" y="-785.3" font-family="Times,serif" font-size="14.00">Detect Pole</text>
</g>
<!-- 4dc854ad&#45;e80b&#45;4395&#45;af07&#45;2eea55a51062&#45;&gt;8e0a7453&#45;80a9&#45;439f&#45;90b9&#45;e69eaedfaeca -->
<g id="edge29" class="edge">
<title>4dc854ad&#45;e80b&#45;4395&#45;af07&#45;2eea55a51062&#45;&gt;8e0a7453&#45;80a9&#45;439f&#45;90b9&#45;e69eaedfaeca</title>
<path fill="none" stroke="black" d="M1660.23,-845.62C1720.91,-835.21 1802.33,-820.86 1874,-807 1884.48,-804.97 1895.69,-802.69 1906.34,-800.47"/>
<polygon fill="black" stroke="black" points="1907.25,-803.86 1916.32,-798.38 1905.82,-797.01 1907.25,-803.86"/>
</g>
<!-- 311cd386&#45;d559&#45;4639&#45;96ec&#45;e1a567d21f17 -->
<g id="node31" class="node">
<title>311cd386&#45;d559&#45;4639&#45;96ec&#45;e1a567d21f17</title>
<polygon fill="none" stroke="black" stroke-dasharray="5,2" points="1683.5,-734 1598.5,-734 1598.5,-698 1683.5,-698 1683.5,-734"/>
<text text-anchor="middle" x="1641" y="-712.3" font-family="Times,serif" font-size="14.00" fill="darkgreen">Converge</text>
</g>
<!-- b7b65f83&#45;91e6&#45;49d3&#45;9c98&#45;8e92696bb08c&#45;&gt;311cd386&#45;d559&#45;4639&#45;96ec&#45;e1a567d21f17 -->
<g id="edge30" class="edge">
<title>b7b65f83&#45;91e6&#45;49d3&#45;9c98&#45;8e92696bb08c&#45;&gt;311cd386&#45;d559&#45;4639&#45;96ec&#45;e1a567d21f17</title>
<path fill="none" stroke="black" d="M1427.55,-777.14C1470.54,-765.03 1540.34,-745.36 1588.34,-731.84"/>
<polygon fill="black" stroke="black" points="1589.56,-735.13 1598.24,-729.05 1587.66,-728.39 1589.56,-735.13"/>
</g>
<!-- 48a16bd7&#45;5c4b&#45;4636&#45;add1&#45;e08a6e5dfefd&#45;&gt;311cd386&#45;d559&#45;4639&#45;96ec&#45;e1a567d21f17 -->
<g id="edge31" class="edge">
<title>48a16bd7&#45;5c4b&#45;4636&#45;add1&#45;e08a6e5dfefd&#45;&gt;311cd386&#45;d559&#45;4639&#45;96ec&#45;e1a567d21f17</title>
<path fill="none" stroke="black" d="M1585.7,-771.53C1594.7,-762.65 1605.99,-751.52 1616.02,-741.63"/>
<polygon fill="black" stroke="black" points="1618.72,-743.88 1623.39,-734.37 1613.81,-738.9 1618.72,-743.88"/>
</g>
<!-- a1c85eff&#45;2c36&#45;40f2&#45;86a6&#45;25decfd22ffd&#45;&gt;311cd386&#45;d559&#45;4639&#45;96ec&#45;e1a567d21f17 -->
<g id="edge32" class="edge">
<title>a1c85eff&#45;2c36&#45;40f2&#45;86a6&#45;25decfd22ffd&#45;&gt;311cd386&#45;d559&#45;4639&#45;96ec&#45;e1a567d21f17</title>
<path fill="none" stroke="black" d="M1740.13,-772.42C1722.61,-762.62 1699.73,-749.83 1680.37,-739.01"/>
<polygon fill="black" stroke="black" points="1681.91,-735.86 1671.47,-734.04 1678.49,-741.97 1681.91,-735.86"/>
</g>
<!-- 8e0a7453&#45;80a9&#45;439f&#45;90b9&#45;e69eaedfaeca&#45;&gt;311cd386&#45;d559&#45;4639&#45;96ec&#45;e1a567d21f17 -->
<g id="edge33" class="edge">
<title>8e0a7453&#45;80a9&#45;439f&#45;90b9&#45;e69eaedfaeca&#45;&gt;311cd386&#45;d559&#45;4639&#45;96ec&#45;e1a567d21f17</title>
<path fill="none" stroke="black" d="M1916.81,-779.36C1860.88,-766.72 1756.51,-743.12 1693.43,-728.86"/>
<polygon fill="black" stroke="black" points="1694.2,-725.44 1683.68,-726.65 1692.66,-732.27 1694.2,-725.44"/>
</g>
<!-- 46aecaef&#45;be0f&#45;410e&#45;bfd8&#45;57f5da03d3d9 -->
<g id="node39" class="node">
<title>46aecaef&#45;be0f&#45;410e&#45;bfd8&#45;57f5da03d3d9</title>
<polygon fill="none" stroke="black" stroke-dasharray="5,2" points="1690,-647 1592,-647 1592,-611 1690,-611 1690,-647"/>
<text text-anchor="middle" x="1641" y="-625.3" font-family="Times,serif" font-size="14.00" fill="blue">Concurrent</text>
</g>
<!-- 311cd386&#45;d559&#45;4639&#45;96ec&#45;e1a567d21f17&#45;&gt;46aecaef&#45;be0f&#45;410e&#45;bfd8&#45;57f5da03d3d9 -->
<g id="edge45" class="edge">
<title>311cd386&#45;d559&#45;4639&#45;96ec&#45;e1a567d21f17&#45;&gt;46aecaef&#45;be0f&#45;410e&#45;bfd8&#45;57f5da03d3d9</title>
<path fill="none" stroke="purple" d="M1641,-697.8C1641,-686.16 1641,-670.55 1641,-657.24"/>
<polygon fill="purple" stroke="purple" points="1644.5,-657.18 1641,-647.18 1637.5,-657.18 1644.5,-657.18"/>
<text text-anchor="middle" x="1676.5" y="-668.8" font-family="Times,serif" font-size="14.00" fill="purple">Pass Data</text>
</g>
<!-- 21af5f10&#45;2f65&#45;4a6f&#45;9500&#45;288a62112548 -->
<g id="node32" class="node">
<title>21af5f10&#45;2f65&#45;4a6f&#45;9500&#45;288a62112548</title>
<ellipse fill="none" stroke="black" cx="1609" cy="-121" rx="27" ry="18"/>
<text text-anchor="middle" x="1609" y="-117.3" font-family="Times,serif" font-size="14.00">StripY</text>
</g>
<!-- 474ce0d1&#45;c24e&#45;4d54&#45;9567&#45;9b3485aed583 -->
<g id="node33" class="node">
<title>474ce0d1&#45;c24e&#45;4d54&#45;9567&#45;9b3485aed583</title>
<ellipse fill="none" stroke="black" cx="1609" cy="-34" rx="80.11" ry="18"/>
<text text-anchor="middle" x="1609" y="-30.3" font-family="Times,serif" font-size="14.00">Stability2Movement</text>
</g>
<!-- 21af5f10&#45;2f65&#45;4a6f&#45;9500&#45;288a62112548&#45;&gt;474ce0d1&#45;c24e&#45;4d54&#45;9567&#45;9b3485aed583 -->
<g id="edge34" class="edge">
<title>21af5f10&#45;2f65&#45;4a6f&#45;9500&#45;288a62112548&#45;&gt;474ce0d1&#45;c24e&#45;4d54&#45;9567&#45;9b3485aed583</title>
<path fill="none" stroke="purple" d="M1609,-102.8C1609,-91.16 1609,-75.55 1609,-62.24"/>
<polygon fill="purple" stroke="purple" points="1612.5,-62.18 1609,-52.18 1605.5,-62.18 1612.5,-62.18"/>
<text text-anchor="middle" x="1644.5" y="-73.8" font-family="Times,serif" font-size="14.00" fill="purple">Pass Data</text>
</g>
<!-- a98f61eb&#45;f1e2&#45;4c2a&#45;a2b4&#45;8da36fdad454 -->
<g id="node34" class="node">
<title>a98f61eb&#45;f1e2&#45;4c2a&#45;a2b4&#45;8da36fdad454</title>
<ellipse fill="none" stroke="black" cx="1609" cy="-208" rx="67.81" ry="18"/>
<text text-anchor="middle" x="1609" y="-204.3" font-family="Times,serif" font-size="14.00">LinearYawFromX</text>
</g>
<!-- a98f61eb&#45;f1e2&#45;4c2a&#45;a2b4&#45;8da36fdad454&#45;&gt;21af5f10&#45;2f65&#45;4a6f&#45;9500&#45;288a62112548 -->
<g id="edge35" class="edge">
<title>a98f61eb&#45;f1e2&#45;4c2a&#45;a2b4&#45;8da36fdad454&#45;&gt;21af5f10&#45;2f65&#45;4a6f&#45;9500&#45;288a62112548</title>
<path fill="none" stroke="purple" d="M1609,-189.8C1609,-178.16 1609,-162.55 1609,-149.24"/>
<polygon fill="purple" stroke="purple" points="1612.5,-149.18 1609,-139.18 1605.5,-149.18 1612.5,-149.18"/>
<text text-anchor="middle" x="1644.5" y="-160.8" font-family="Times,serif" font-size="14.00" fill="purple">Pass Data</text>
</g>
<!-- 2bc8d53e&#45;2e1a&#45;48ae&#45;98b2&#45;40c5d72a340a -->
<g id="node35" class="node">
<title>2bc8d53e&#45;2e1a&#45;48ae&#45;98b2&#45;40c5d72a340a</title>
<ellipse fill="none" stroke="black" cx="1609" cy="-295" rx="51.3" ry="18"/>
<text text-anchor="middle" x="1609" y="-291.3" font-family="Times,serif" font-size="14.00">OffsetToPose</text>
</g>
<!-- 2bc8d53e&#45;2e1a&#45;48ae&#45;98b2&#45;40c5d72a340a&#45;&gt;a98f61eb&#45;f1e2&#45;4c2a&#45;a2b4&#45;8da36fdad454 -->
<g id="edge36" class="edge">
<title>2bc8d53e&#45;2e1a&#45;48ae&#45;98b2&#45;40c5d72a340a&#45;&gt;a98f61eb&#45;f1e2&#45;4c2a&#45;a2b4&#45;8da36fdad454</title>
<path fill="none" stroke="purple" d="M1609,-276.8C1609,-265.16 1609,-249.55 1609,-236.24"/>
<polygon fill="purple" stroke="purple" points="1612.5,-236.18 1609,-226.18 1605.5,-236.18 1612.5,-236.18"/>
<text text-anchor="middle" x="1644.5" y="-247.8" font-family="Times,serif" font-size="14.00" fill="purple">Pass Data</text>
</g>
<!-- c63ebf4d&#45;737e&#45;44fa&#45;b521&#45;37dd3a826a4a -->
<g id="node36" class="node">
<title>c63ebf4d&#45;737e&#45;44fa&#45;b521&#45;37dd3a826a4a</title>
<ellipse fill="none" stroke="black" cx="1609" cy="-382" rx="32.4" ry="18"/>
<text text-anchor="middle" x="1609" y="-378.3" font-family="Times,serif" font-size="14.00">Average</text>
</g>
<!-- c63ebf4d&#45;737e&#45;44fa&#45;b521&#45;37dd3a826a4a&#45;&gt;2bc8d53e&#45;2e1a&#45;48ae&#45;98b2&#45;40c5d72a340a -->
<g id="edge37" class="edge">
<title>c63ebf4d&#45;737e&#45;44fa&#45;b521&#45;37dd3a826a4a&#45;&gt;2bc8d53e&#45;2e1a&#45;48ae&#45;98b2&#45;40c5d72a340a</title>
<path fill="none" stroke="purple" d="M1609,-363.8C1609,-352.16 1609,-336.55 1609,-323.24"/>
<polygon fill="purple" stroke="purple" points="1612.5,-323.18 1609,-313.18 1605.5,-323.18 1612.5,-323.18"/>
<text text-anchor="middle" x="1644.5" y="-334.8" font-family="Times,serif" font-size="14.00" fill="purple">Pass Data</text>
</g>
<!-- f3be2769&#45;8e74&#45;49bc&#45;a5bc&#45;480a2f76f592 -->
<g id="node37" class="node">
<title>f3be2769&#45;8e74&#45;49bc&#45;a5bc&#45;480a2f76f592</title>
<ellipse fill="none" stroke="black" cx="1609" cy="-469" rx="61.1" ry="18"/>
<text text-anchor="middle" x="1609" y="-465.3" font-family="Times,serif" font-size="14.00">ExtractPosition</text>
</g>
<!-- f3be2769&#45;8e74&#45;49bc&#45;a5bc&#45;480a2f76f592&#45;&gt;c63ebf4d&#45;737e&#45;44fa&#45;b521&#45;37dd3a826a4a -->
<g id="edge38" class="edge">
<title>f3be2769&#45;8e74&#45;49bc&#45;a5bc&#45;480a2f76f592&#45;&gt;c63ebf4d&#45;737e&#45;44fa&#45;b521&#45;37dd3a826a4a</title>
<path fill="none" stroke="purple" d="M1609,-450.8C1609,-439.16 1609,-423.55 1609,-410.24"/>
<polygon fill="purple" stroke="purple" points="1612.5,-410.18 1609,-400.18 1605.5,-410.18 1612.5,-410.18"/>
<text text-anchor="middle" x="1644.5" y="-421.8" font-family="Times,serif" font-size="14.00" fill="purple">Pass Data</text>
</g>
<!-- f5654ce3&#45;48c8&#45;4066&#45;ab5a&#45;48a05d33c467 -->
<g id="node38" class="node">
<title>f5654ce3&#45;48c8&#45;4066&#45;ab5a&#45;48a05d33c467</title>
<ellipse fill="none" stroke="black" cx="1699" cy="-556" rx="27" ry="18"/>
<text text-anchor="middle" x="1699" y="-552.3" font-family="Times,serif" font-size="14.00">ToVec</text>
</g>
<!-- f5654ce3&#45;48c8&#45;4066&#45;ab5a&#45;48a05d33c467&#45;&gt;f3be2769&#45;8e74&#45;49bc&#45;a5bc&#45;480a2f76f592 -->
<g id="edge39" class="edge">
<title>f5654ce3&#45;48c8&#45;4066&#45;ab5a&#45;48a05d33c467&#45;&gt;f3be2769&#45;8e74&#45;49bc&#45;a5bc&#45;480a2f76f592</title>
<path fill="none" stroke="purple" d="M1677.25,-544.94C1665.61,-538.84 1651.53,-530.26 1641,-520 1633.84,-513.03 1627.52,-504.17 1622.42,-495.85"/>
<polygon fill="purple" stroke="purple" points="1625.43,-494.05 1617.39,-487.15 1619.37,-497.56 1625.43,-494.05"/>
<text text-anchor="middle" x="1676.5" y="-508.8" font-family="Times,serif" font-size="14.00" fill="purple">Pass Data</text>
</g>
<!-- 46aecaef&#45;be0f&#45;410e&#45;bfd8&#45;57f5da03d3d9&#45;&gt;89547e2b&#45;bb29&#45;4cf9&#45;ada0&#45;a2e2b9200288 -->
<g id="edge41" class="edge">
<title>46aecaef&#45;be0f&#45;410e&#45;bfd8&#45;57f5da03d3d9&#45;&gt;89547e2b&#45;bb29&#45;4cf9&#45;ada0&#45;a2e2b9200288</title>
<path fill="none" stroke="black" d="M1599.8,-610.99C1572.54,-599.74 1536.94,-585.05 1509.77,-573.83"/>
<polygon fill="black" stroke="black" points="1510.75,-570.45 1500.17,-569.87 1508.08,-576.92 1510.75,-570.45"/>
</g>
<!-- 46aecaef&#45;be0f&#45;410e&#45;bfd8&#45;57f5da03d3d9&#45;&gt;f5654ce3&#45;48c8&#45;4066&#45;ab5a&#45;48a05d33c467 -->
<g id="edge40" class="edge">
<title>46aecaef&#45;be0f&#45;410e&#45;bfd8&#45;57f5da03d3d9&#45;&gt;f5654ce3&#45;48c8&#45;4066&#45;ab5a&#45;48a05d33c467</title>
<path fill="none" stroke="black" d="M1655.04,-610.81C1662.58,-601.58 1671.99,-590.07 1680.16,-580.07"/>
<polygon fill="black" stroke="black" points="1683.05,-582.06 1686.66,-572.1 1677.63,-577.63 1683.05,-582.06"/>
</g>
<!-- 9e40ff57&#45;7878&#45;428e&#45;abb0&#45;61ad21c2d6a3&#45;&gt;98eb05b3&#45;2cfe&#45;4a38&#45;aa0a&#45;9b0992277c3b -->
<g id="edge43" class="edge">
<title>9e40ff57&#45;7878&#45;428e&#45;abb0&#45;61ad21c2d6a3&#45;&gt;98eb05b3&#45;2cfe&#45;4a38&#45;aa0a&#45;9b0992277c3b</title>
<path fill="none" stroke="purple" d="M349,-487.26C349,-504.43 349,-531.54 349,-555 349,-790 349,-790 349,-790 349,-839.26 487.5,-854.56 587.7,-859.19"/>
<polygon fill="purple" stroke="purple" points="587.74,-862.69 597.89,-859.63 588.05,-855.7 587.74,-862.69"/>
<text text-anchor="middle" x="384.5" y="-668.8" font-family="Times,serif" font-size="14.00" fill="purple">Pass Data</text>
</g>
<!-- 1c535597&#45;cb08&#45;4e03&#45;b5d5&#45;17aa2e15f49f&#45;&gt;4dc854ad&#45;e80b&#45;4395&#45;af07&#45;2eea55a51062 -->
<g id="edge46" class="edge">
<title>1c535597&#45;cb08&#45;4e03&#45;b5d5&#45;17aa2e15f49f&#45;&gt;4dc854ad&#45;e80b&#45;4395&#45;af07&#45;2eea55a51062</title>
<path fill="none" stroke="purple" d="M1229,-487.26C1229,-504.43 1229,-531.54 1229,-555 1229,-790 1229,-790 1229,-790 1229,-839.26 1367.5,-854.56 1467.7,-859.19"/>
<polygon fill="purple" stroke="purple" points="1467.74,-862.69 1477.89,-859.63 1468.05,-855.7 1467.74,-862.69"/>
<text text-anchor="middle" x="1264.5" y="-668.8" font-family="Times,serif" font-size="14.00" fill="purple">Pass Data</text>
</g>
</g>
</svg>
