<?xml version="1.0" encoding="UTF-8" standalone="no"?>
<!DOCTYPE svg PUBLIC "-//W3C//DTD SVG 1.1//EN"
 "http://www.w3.org/Graphics/SVG/1.1/DTD/svg11.dtd">
<!-- Generated by graphviz version 2.43.0 (0)
 -->
<!-- Title: G Pages: 1 -->
<svg width="318pt" height="987pt"
 viewBox="0.00 0.00 318.29 987.00" xmlns="http://www.w3.org/2000/svg" xmlns:xlink="http://www.w3.org/1999/xlink">
<g id="graph0" class="graph" transform="scale(1 1) rotate(0) translate(4 983)">
<title>G</title>
<polygon fill="transparent" stroke="transparent" points="-4,4 -4,-983 314.29,-983 314.29,4 -4,4"/>
<!-- 3578741a&#45;aaa3&#45;445a&#45;a5eb&#45;b8a029b4af61 -->
<g id="node1" class="node">
<title>3578741a&#45;aaa3&#45;445a&#45;a5eb&#45;b8a029b4af61</title>
<polygon fill="none" stroke="black" points="65.34,-906 0.16,-888 65.34,-870 130.52,-888 65.34,-906"/>
<text text-anchor="middle" x="65.34" y="-884.3" font-family="Times,serif" font-size="14.00">AlwaysTrue</text>
</g>
<!-- f64e03a2&#45;a56d&#45;4df1&#45;bdf8&#45;efee9d42c733 -->
<g id="node11" class="node">
<title>f64e03a2&#45;a56d&#45;4df1&#45;bdf8&#45;efee9d42c733</title>
<ellipse fill="none" stroke="black" cx="103.34" cy="-801" rx="46.5" ry="18"/>
<text text-anchor="middle" x="103.34" y="-797.3" font-family="Times,serif" font-size="14.00">VisionNorm</text>
</g>
<!-- 3578741a&#45;aaa3&#45;445a&#45;a5eb&#45;b8a029b4af61&#45;&gt;f64e03a2&#45;a56d&#45;4df1&#45;bdf8&#45;efee9d42c733 -->
<g id="edge10" class="edge">
<title>3578741a&#45;aaa3&#45;445a&#45;a5eb&#45;b8a029b4af61&#45;&gt;f64e03a2&#45;a56d&#45;4df1&#45;bdf8&#45;efee9d42c733</title>
<path fill="none" stroke="black" d="M72.13,-871.8C77.54,-859.7 85.25,-842.47 91.65,-828.16"/>
<polygon fill="black" stroke="black" points="94.94,-829.37 95.82,-818.81 88.55,-826.51 94.94,-829.37"/>
<text text-anchor="middle" x="104.34" y="-840.8" font-family="Times,serif" font-size="14.00">True</text>
</g>
<!-- bb900909&#45;5c58&#45;403b&#45;9553&#45;3f231e2ac499 -->
<g id="node2" class="node">
<title>bb900909&#45;5c58&#45;403b&#45;9553&#45;3f231e2ac499</title>
<ellipse fill="none" stroke="black" cx="103.34" cy="-105" rx="27" ry="18"/>
<text text-anchor="middle" x="103.34" y="-101.3" font-family="Times,serif" font-size="14.00">FlatX</text>
</g>
<!-- 110c9a3f&#45;3f7a&#45;4277&#45;afcb&#45;3a1cca52133a -->
<g id="node3" class="node">
<title>110c9a3f&#45;3f7a&#45;4277&#45;afcb&#45;3a1cca52133a</title>
<ellipse fill="none" stroke="black" cx="103.34" cy="-18" rx="80.11" ry="18"/>
<text text-anchor="middle" x="103.34" y="-14.3" font-family="Times,serif" font-size="14.00">Stability2Movement</text>
</g>
<!-- bb900909&#45;5c58&#45;403b&#45;9553&#45;3f231e2ac499&#45;&gt;110c9a3f&#45;3f7a&#45;4277&#45;afcb&#45;3a1cca52133a -->
<g id="edge1" class="edge">
<title>bb900909&#45;5c58&#45;403b&#45;9553&#45;3f231e2ac499&#45;&gt;110c9a3f&#45;3f7a&#45;4277&#45;afcb&#45;3a1cca52133a</title>
<path fill="none" stroke="purple" d="M103.34,-86.8C103.34,-75.16 103.34,-59.55 103.34,-46.24"/>
<polygon fill="purple" stroke="purple" points="106.84,-46.18 103.34,-36.18 99.84,-46.18 106.84,-46.18"/>
<text text-anchor="middle" x="138.84" y="-57.8" font-family="Times,serif" font-size="14.00" fill="purple">Pass Data</text>
</g>
<!-- d7e25af6&#45;9813&#45;4f87&#45;b791&#45;2eaebd6d54af -->
<g id="node4" class="node">
<title>d7e25af6&#45;9813&#45;4f87&#45;b791&#45;2eaebd6d54af</title>
<ellipse fill="none" stroke="black" cx="103.34" cy="-192" rx="27" ry="18"/>
<text text-anchor="middle" x="103.34" y="-188.3" font-family="Times,serif" font-size="14.00">StripY</text>
</g>
<!-- d7e25af6&#45;9813&#45;4f87&#45;b791&#45;2eaebd6d54af&#45;&gt;bb900909&#45;5c58&#45;403b&#45;9553&#45;3f231e2ac499 -->
<g id="edge2" class="edge">
<title>d7e25af6&#45;9813&#45;4f87&#45;b791&#45;2eaebd6d54af&#45;&gt;bb900909&#45;5c58&#45;403b&#45;9553&#45;3f231e2ac499</title>
<path fill="none" stroke="purple" d="M103.34,-173.8C103.34,-162.16 103.34,-146.55 103.34,-133.24"/>
<polygon fill="purple" stroke="purple" points="106.84,-133.18 103.34,-123.18 99.84,-133.18 106.84,-133.18"/>
<text text-anchor="middle" x="138.84" y="-144.8" font-family="Times,serif" font-size="14.00" fill="purple">Pass Data</text>
</g>
<!-- 706ad344&#45;42d2&#45;4c30&#45;8d39&#45;3c9a42876c1b -->
<g id="node5" class="node">
<title>706ad344&#45;42d2&#45;4c30&#45;8d39&#45;3c9a42876c1b</title>
<ellipse fill="none" stroke="black" cx="103.34" cy="-279" rx="52.6" ry="18"/>
<text text-anchor="middle" x="103.34" y="-275.3" font-family="Times,serif" font-size="14.00">Anon Closure</text>
</g>
<!-- 706ad344&#45;42d2&#45;4c30&#45;8d39&#45;3c9a42876c1b&#45;&gt;d7e25af6&#45;9813&#45;4f87&#45;b791&#45;2eaebd6d54af -->
<g id="edge3" class="edge">
<title>706ad344&#45;42d2&#45;4c30&#45;8d39&#45;3c9a42876c1b&#45;&gt;d7e25af6&#45;9813&#45;4f87&#45;b791&#45;2eaebd6d54af</title>
<path fill="none" stroke="purple" d="M103.34,-260.8C103.34,-249.16 103.34,-233.55 103.34,-220.24"/>
<polygon fill="purple" stroke="purple" points="106.84,-220.18 103.34,-210.18 99.84,-220.18 106.84,-220.18"/>
<text text-anchor="middle" x="138.84" y="-231.8" font-family="Times,serif" font-size="14.00" fill="purple">Pass Data</text>
</g>
<!-- c114e757&#45;6f84&#45;4657&#45;89a7&#45;52dfced92fee -->
<g id="node6" class="node">
<title>c114e757&#45;6f84&#45;4657&#45;89a7&#45;52dfced92fee</title>
<ellipse fill="none" stroke="black" cx="103.34" cy="-366" rx="51.3" ry="18"/>
<text text-anchor="middle" x="103.34" y="-362.3" font-family="Times,serif" font-size="14.00">OffsetToPose</text>
</g>
<!-- c114e757&#45;6f84&#45;4657&#45;89a7&#45;52dfced92fee&#45;&gt;706ad344&#45;42d2&#45;4c30&#45;8d39&#45;3c9a42876c1b -->
<g id="edge4" class="edge">
<title>c114e757&#45;6f84&#45;4657&#45;89a7&#45;52dfced92fee&#45;&gt;706ad344&#45;42d2&#45;4c30&#45;8d39&#45;3c9a42876c1b</title>
<path fill="none" stroke="purple" d="M103.34,-347.8C103.34,-336.16 103.34,-320.55 103.34,-307.24"/>
<polygon fill="purple" stroke="purple" points="106.84,-307.18 103.34,-297.18 99.84,-307.18 106.84,-307.18"/>
<text text-anchor="middle" x="138.84" y="-318.8" font-family="Times,serif" font-size="14.00" fill="purple">Pass Data</text>
</g>
<!-- d2005228&#45;312c&#45;4a0d&#45;915a&#45;cb2d3bf3cd99 -->
<g id="node7" class="node">
<title>d2005228&#45;312c&#45;4a0d&#45;915a&#45;cb2d3bf3cd99</title>
<ellipse fill="none" stroke="black" cx="103.34" cy="-453" rx="32.4" ry="18"/>
<text text-anchor="middle" x="103.34" y="-449.3" font-family="Times,serif" font-size="14.00">Average</text>
</g>
<!-- d2005228&#45;312c&#45;4a0d&#45;915a&#45;cb2d3bf3cd99&#45;&gt;c114e757&#45;6f84&#45;4657&#45;89a7&#45;52dfced92fee -->
<g id="edge5" class="edge">
<title>d2005228&#45;312c&#45;4a0d&#45;915a&#45;cb2d3bf3cd99&#45;&gt;c114e757&#45;6f84&#45;4657&#45;89a7&#45;52dfced92fee</title>
<path fill="none" stroke="purple" d="M103.34,-434.8C103.34,-423.16 103.34,-407.55 103.34,-394.24"/>
<polygon fill="purple" stroke="purple" points="106.84,-394.18 103.34,-384.18 99.84,-394.18 106.84,-394.18"/>
<text text-anchor="middle" x="138.84" y="-405.8" font-family="Times,serif" font-size="14.00" fill="purple">Pass Data</text>
</g>
<!-- bbbca153&#45;0dad&#45;40ad&#45;8293&#45;dc78e38ba454 -->
<g id="node8" class="node">
<title>bbbca153&#45;0dad&#45;40ad&#45;8293&#45;dc78e38ba454</title>
<ellipse fill="none" stroke="black" cx="103.34" cy="-540" rx="61.1" ry="18"/>
<text text-anchor="middle" x="103.34" y="-536.3" font-family="Times,serif" font-size="14.00">ExtractPosition</text>
</g>
<!-- bbbca153&#45;0dad&#45;40ad&#45;8293&#45;dc78e38ba454&#45;&gt;d2005228&#45;312c&#45;4a0d&#45;915a&#45;cb2d3bf3cd99 -->
<g id="edge6" class="edge">
<title>bbbca153&#45;0dad&#45;40ad&#45;8293&#45;dc78e38ba454&#45;&gt;d2005228&#45;312c&#45;4a0d&#45;915a&#45;cb2d3bf3cd99</title>
<path fill="none" stroke="purple" d="M103.34,-521.8C103.34,-510.16 103.34,-494.55 103.34,-481.24"/>
<polygon fill="purple" stroke="purple" points="106.84,-481.18 103.34,-471.18 99.84,-481.18 106.84,-481.18"/>
<text text-anchor="middle" x="138.84" y="-492.8" font-family="Times,serif" font-size="14.00" fill="purple">Pass Data</text>
</g>
<!-- 299bf8f9&#45;68d6&#45;418a&#45;9c48&#45;91878b4de195 -->
<g id="node9" class="node">
<title>299bf8f9&#45;68d6&#45;418a&#45;9c48&#45;91878b4de195</title>
<ellipse fill="none" stroke="black" cx="103.34" cy="-627" rx="27" ry="18"/>
<text text-anchor="middle" x="103.34" y="-623.3" font-family="Times,serif" font-size="14.00">ToVec</text>
</g>
<!-- 299bf8f9&#45;68d6&#45;418a&#45;9c48&#45;91878b4de195&#45;&gt;bbbca153&#45;0dad&#45;40ad&#45;8293&#45;dc78e38ba454 -->
<g id="edge7" class="edge">
<title>299bf8f9&#45;68d6&#45;418a&#45;9c48&#45;91878b4de195&#45;&gt;bbbca153&#45;0dad&#45;40ad&#45;8293&#45;dc78e38ba454</title>
<path fill="none" stroke="purple" d="M103.34,-608.8C103.34,-597.16 103.34,-581.55 103.34,-568.24"/>
<polygon fill="purple" stroke="purple" points="106.84,-568.18 103.34,-558.18 99.84,-568.18 106.84,-568.18"/>
<text text-anchor="middle" x="138.84" y="-579.8" font-family="Times,serif" font-size="14.00" fill="purple">Pass Data</text>
</g>
<!-- da75fb97&#45;a70f&#45;4d94&#45;96c5&#45;b5d8a642a755 -->
<g id="node10" class="node">
<title>da75fb97&#45;a70f&#45;4d94&#45;96c5&#45;b5d8a642a755</title>
<ellipse fill="none" stroke="black" cx="103.34" cy="-714" rx="45.2" ry="18"/>
<text text-anchor="middle" x="103.34" y="-710.3" font-family="Times,serif" font-size="14.00">Detect true</text>
</g>
<!-- da75fb97&#45;a70f&#45;4d94&#45;96c5&#45;b5d8a642a755&#45;&gt;299bf8f9&#45;68d6&#45;418a&#45;9c48&#45;91878b4de195 -->
<g id="edge8" class="edge">
<title>da75fb97&#45;a70f&#45;4d94&#45;96c5&#45;b5d8a642a755&#45;&gt;299bf8f9&#45;68d6&#45;418a&#45;9c48&#45;91878b4de195</title>
<path fill="none" stroke="purple" d="M103.34,-695.8C103.34,-684.16 103.34,-668.55 103.34,-655.24"/>
<polygon fill="purple" stroke="purple" points="106.84,-655.18 103.34,-645.18 99.84,-655.18 106.84,-655.18"/>
<text text-anchor="middle" x="138.84" y="-666.8" font-family="Times,serif" font-size="14.00" fill="purple">Pass Data</text>
</g>
<!-- f64e03a2&#45;a56d&#45;4df1&#45;bdf8&#45;efee9d42c733&#45;&gt;da75fb97&#45;a70f&#45;4d94&#45;96c5&#45;b5d8a642a755 -->
<g id="edge9" class="edge">
<title>f64e03a2&#45;a56d&#45;4df1&#45;bdf8&#45;efee9d42c733&#45;&gt;da75fb97&#45;a70f&#45;4d94&#45;96c5&#45;b5d8a642a755</title>
<path fill="none" stroke="purple" d="M103.34,-782.8C103.34,-771.16 103.34,-755.55 103.34,-742.24"/>
<polygon fill="purple" stroke="purple" points="106.84,-742.18 103.34,-732.18 99.84,-742.18 106.84,-742.18"/>
<text text-anchor="middle" x="138.84" y="-753.8" font-family="Times,serif" font-size="14.00" fill="purple">Pass Data</text>
</g>
<!-- 8e8f2bda&#45;5f12&#45;4d07&#45;b8bd&#45;b6a498fa5480 -->
<g id="node12" class="node">
<title>8e8f2bda&#45;5f12&#45;4d07&#45;b8bd&#45;b6a498fa5480</title>
<ellipse fill="none" stroke="black" cx="250.34" cy="-888" rx="47.1" ry="18"/>
<text text-anchor="middle" x="250.34" y="-884.3" font-family="Times,serif" font-size="14.00">DelayAction</text>
</g>
<!-- 8e8f2bda&#45;5f12&#45;4d07&#45;b8bd&#45;b6a498fa5480&#45;&gt;f64e03a2&#45;a56d&#45;4df1&#45;bdf8&#45;efee9d42c733 -->
<g id="edge11" class="edge">
<title>8e8f2bda&#45;5f12&#45;4d07&#45;b8bd&#45;b6a498fa5480&#45;&gt;f64e03a2&#45;a56d&#45;4df1&#45;bdf8&#45;efee9d42c733</title>
<path fill="none" stroke="black" d="M225.4,-872.58C201.12,-858.54 164.03,-837.09 137.1,-821.52"/>
<polygon fill="black" stroke="black" points="138.81,-818.47 128.4,-816.49 135.3,-824.53 138.81,-818.47"/>
</g>
<!-- 297d0530&#45;4962&#45;4012&#45;b837&#45;6542e5118be7 -->
<g id="node13" class="node">
<title>297d0530&#45;4962&#45;4012&#45;b837&#45;6542e5118be7</title>
<ellipse fill="none" stroke="black" cx="250.34" cy="-961" rx="59.9" ry="18"/>
<text text-anchor="middle" x="250.34" y="-957.3" font-family="Times,serif" font-size="14.00">ZeroMovement</text>
</g>
<!-- 297d0530&#45;4962&#45;4012&#45;b837&#45;6542e5118be7&#45;&gt;8e8f2bda&#45;5f12&#45;4d07&#45;b8bd&#45;b6a498fa5480 -->
<g id="edge12" class="edge">
<title>297d0530&#45;4962&#45;4012&#45;b837&#45;6542e5118be7&#45;&gt;8e8f2bda&#45;5f12&#45;4d07&#45;b8bd&#45;b6a498fa5480</title>
<path fill="none" stroke="black" d="M250.34,-942.81C250.34,-934.79 250.34,-925.05 250.34,-916.07"/>
<polygon fill="black" stroke="black" points="253.84,-916.03 250.34,-906.03 246.84,-916.03 253.84,-916.03"/>
</g>
</g>
</svg>
