<?xml version="1.0" encoding="UTF-8" standalone="no"?>
<!DOCTYPE svg PUBLIC "-//W3C//DTD SVG 1.1//EN"
 "http://www.w3.org/Graphics/SVG/1.1/DTD/svg11.dtd">
<!-- Generated by graphviz version 2.43.0 (0)
 -->
<!-- Title: G Pages: 1 -->
<svg width="318pt" height="987pt"
 viewBox="0.00 0.00 318.29 987.00" xmlns="http://www.w3.org/2000/svg" xmlns:xlink="http://www.w3.org/1999/xlink">
<g id="graph0" class="graph" transform="scale(1 1) rotate(0) translate(4 983)">
<title>G</title>
<polygon fill="transparent" stroke="transparent" points="-4,4 -4,-983 314.29,-983 314.29,4 -4,4"/>
<!-- 8bdf4f22&#45;b3ba&#45;4f8c&#45;abba&#45;14f09e1be3b7 -->
<g id="node1" class="node">
<title>8bdf4f22&#45;b3ba&#45;4f8c&#45;abba&#45;14f09e1be3b7</title>
<polygon fill="none" stroke="black" points="65.34,-906 0.16,-888 65.34,-870 130.52,-888 65.34,-906"/>
<text text-anchor="middle" x="65.34" y="-884.3" font-family="Times,serif" font-size="14.00">AlwaysTrue</text>
</g>
<!-- 7007d0c6&#45;db5f&#45;417e&#45;8a95&#45;c4becf236db9 -->
<g id="node11" class="node">
<title>7007d0c6&#45;db5f&#45;417e&#45;8a95&#45;c4becf236db9</title>
<ellipse fill="none" stroke="black" cx="103.34" cy="-801" rx="46.5" ry="18"/>
<text text-anchor="middle" x="103.34" y="-797.3" font-family="Times,serif" font-size="14.00">VisionNorm</text>
</g>
<!-- 8bdf4f22&#45;b3ba&#45;4f8c&#45;abba&#45;14f09e1be3b7&#45;&gt;7007d0c6&#45;db5f&#45;417e&#45;8a95&#45;c4becf236db9 -->
<g id="edge10" class="edge">
<title>8bdf4f22&#45;b3ba&#45;4f8c&#45;abba&#45;14f09e1be3b7&#45;&gt;7007d0c6&#45;db5f&#45;417e&#45;8a95&#45;c4becf236db9</title>
<path fill="none" stroke="black" d="M72.13,-871.8C77.54,-859.7 85.25,-842.47 91.65,-828.16"/>
<polygon fill="black" stroke="black" points="94.94,-829.37 95.82,-818.81 88.55,-826.51 94.94,-829.37"/>
<text text-anchor="middle" x="104.34" y="-840.8" font-family="Times,serif" font-size="14.00">True</text>
</g>
<!-- df0fdc0b&#45;c090&#45;4eb3&#45;9200&#45;c1f66fa97798 -->
<g id="node2" class="node">
<title>df0fdc0b&#45;c090&#45;4eb3&#45;9200&#45;c1f66fa97798</title>
<ellipse fill="none" stroke="black" cx="103.34" cy="-105" rx="27" ry="18"/>
<text text-anchor="middle" x="103.34" y="-101.3" font-family="Times,serif" font-size="14.00">FlatX</text>
</g>
<!-- 4687463f&#45;ebb5&#45;4605&#45;8e42&#45;504ad85530b0 -->
<g id="node3" class="node">
<title>4687463f&#45;ebb5&#45;4605&#45;8e42&#45;504ad85530b0</title>
<ellipse fill="none" stroke="black" cx="103.34" cy="-18" rx="80.11" ry="18"/>
<text text-anchor="middle" x="103.34" y="-14.3" font-family="Times,serif" font-size="14.00">Stability2Movement</text>
</g>
<!-- df0fdc0b&#45;c090&#45;4eb3&#45;9200&#45;c1f66fa97798&#45;&gt;4687463f&#45;ebb5&#45;4605&#45;8e42&#45;504ad85530b0 -->
<g id="edge1" class="edge">
<title>df0fdc0b&#45;c090&#45;4eb3&#45;9200&#45;c1f66fa97798&#45;&gt;4687463f&#45;ebb5&#45;4605&#45;8e42&#45;504ad85530b0</title>
<path fill="none" stroke="purple" d="M103.34,-86.8C103.34,-75.16 103.34,-59.55 103.34,-46.24"/>
<polygon fill="purple" stroke="purple" points="106.84,-46.18 103.34,-36.18 99.84,-46.18 106.84,-46.18"/>
<text text-anchor="middle" x="138.84" y="-57.8" font-family="Times,serif" font-size="14.00" fill="purple">Pass Data</text>
</g>
<!-- 400b3175&#45;542f&#45;422c&#45;8d1e&#45;f1119314850d -->
<g id="node4" class="node">
<title>400b3175&#45;542f&#45;422c&#45;8d1e&#45;f1119314850d</title>
<ellipse fill="none" stroke="black" cx="103.34" cy="-192" rx="27" ry="18"/>
<text text-anchor="middle" x="103.34" y="-188.3" font-family="Times,serif" font-size="14.00">StripY</text>
</g>
<!-- 400b3175&#45;542f&#45;422c&#45;8d1e&#45;f1119314850d&#45;&gt;df0fdc0b&#45;c090&#45;4eb3&#45;9200&#45;c1f66fa97798 -->
<g id="edge2" class="edge">
<title>400b3175&#45;542f&#45;422c&#45;8d1e&#45;f1119314850d&#45;&gt;df0fdc0b&#45;c090&#45;4eb3&#45;9200&#45;c1f66fa97798</title>
<path fill="none" stroke="purple" d="M103.34,-173.8C103.34,-162.16 103.34,-146.55 103.34,-133.24"/>
<polygon fill="purple" stroke="purple" points="106.84,-133.18 103.34,-123.18 99.84,-133.18 106.84,-133.18"/>
<text text-anchor="middle" x="138.84" y="-144.8" font-family="Times,serif" font-size="14.00" fill="purple">Pass Data</text>
</g>
<!-- e1220b2d&#45;697b&#45;4c66&#45;aa11&#45;374b5002cb02 -->
<g id="node5" class="node">
<title>e1220b2d&#45;697b&#45;4c66&#45;aa11&#45;374b5002cb02</title>
<ellipse fill="none" stroke="black" cx="103.34" cy="-279" rx="52.6" ry="18"/>
<text text-anchor="middle" x="103.34" y="-275.3" font-family="Times,serif" font-size="14.00">Anon Closure</text>
</g>
<!-- e1220b2d&#45;697b&#45;4c66&#45;aa11&#45;374b5002cb02&#45;&gt;400b3175&#45;542f&#45;422c&#45;8d1e&#45;f1119314850d -->
<g id="edge3" class="edge">
<title>e1220b2d&#45;697b&#45;4c66&#45;aa11&#45;374b5002cb02&#45;&gt;400b3175&#45;542f&#45;422c&#45;8d1e&#45;f1119314850d</title>
<path fill="none" stroke="purple" d="M103.34,-260.8C103.34,-249.16 103.34,-233.55 103.34,-220.24"/>
<polygon fill="purple" stroke="purple" points="106.84,-220.18 103.34,-210.18 99.84,-220.18 106.84,-220.18"/>
<text text-anchor="middle" x="138.84" y="-231.8" font-family="Times,serif" font-size="14.00" fill="purple">Pass Data</text>
</g>
<!-- c677ee51&#45;08f4&#45;492e&#45;9740&#45;a3c2ee01a5be -->
<g id="node6" class="node">
<title>c677ee51&#45;08f4&#45;492e&#45;9740&#45;a3c2ee01a5be</title>
<ellipse fill="none" stroke="black" cx="103.34" cy="-366" rx="51.3" ry="18"/>
<text text-anchor="middle" x="103.34" y="-362.3" font-family="Times,serif" font-size="14.00">OffsetToPose</text>
</g>
<!-- c677ee51&#45;08f4&#45;492e&#45;9740&#45;a3c2ee01a5be&#45;&gt;e1220b2d&#45;697b&#45;4c66&#45;aa11&#45;374b5002cb02 -->
<g id="edge4" class="edge">
<title>c677ee51&#45;08f4&#45;492e&#45;9740&#45;a3c2ee01a5be&#45;&gt;e1220b2d&#45;697b&#45;4c66&#45;aa11&#45;374b5002cb02</title>
<path fill="none" stroke="purple" d="M103.34,-347.8C103.34,-336.16 103.34,-320.55 103.34,-307.24"/>
<polygon fill="purple" stroke="purple" points="106.84,-307.18 103.34,-297.18 99.84,-307.18 106.84,-307.18"/>
<text text-anchor="middle" x="138.84" y="-318.8" font-family="Times,serif" font-size="14.00" fill="purple">Pass Data</text>
</g>
<!-- f9e3c8f1&#45;3325&#45;418a&#45;a98c&#45;a51fd18a858b -->
<g id="node7" class="node">
<title>f9e3c8f1&#45;3325&#45;418a&#45;a98c&#45;a51fd18a858b</title>
<ellipse fill="none" stroke="black" cx="103.34" cy="-453" rx="32.4" ry="18"/>
<text text-anchor="middle" x="103.34" y="-449.3" font-family="Times,serif" font-size="14.00">Average</text>
</g>
<!-- f9e3c8f1&#45;3325&#45;418a&#45;a98c&#45;a51fd18a858b&#45;&gt;c677ee51&#45;08f4&#45;492e&#45;9740&#45;a3c2ee01a5be -->
<g id="edge5" class="edge">
<title>f9e3c8f1&#45;3325&#45;418a&#45;a98c&#45;a51fd18a858b&#45;&gt;c677ee51&#45;08f4&#45;492e&#45;9740&#45;a3c2ee01a5be</title>
<path fill="none" stroke="purple" d="M103.34,-434.8C103.34,-423.16 103.34,-407.55 103.34,-394.24"/>
<polygon fill="purple" stroke="purple" points="106.84,-394.18 103.34,-384.18 99.84,-394.18 106.84,-394.18"/>
<text text-anchor="middle" x="138.84" y="-405.8" font-family="Times,serif" font-size="14.00" fill="purple">Pass Data</text>
</g>
<!-- 184db46b&#45;e700&#45;49fb&#45;94ac&#45;98f153922d36 -->
<g id="node8" class="node">
<title>184db46b&#45;e700&#45;49fb&#45;94ac&#45;98f153922d36</title>
<ellipse fill="none" stroke="black" cx="103.34" cy="-540" rx="61.1" ry="18"/>
<text text-anchor="middle" x="103.34" y="-536.3" font-family="Times,serif" font-size="14.00">ExtractPosition</text>
</g>
<!-- 184db46b&#45;e700&#45;49fb&#45;94ac&#45;98f153922d36&#45;&gt;f9e3c8f1&#45;3325&#45;418a&#45;a98c&#45;a51fd18a858b -->
<g id="edge6" class="edge">
<title>184db46b&#45;e700&#45;49fb&#45;94ac&#45;98f153922d36&#45;&gt;f9e3c8f1&#45;3325&#45;418a&#45;a98c&#45;a51fd18a858b</title>
<path fill="none" stroke="purple" d="M103.34,-521.8C103.34,-510.16 103.34,-494.55 103.34,-481.24"/>
<polygon fill="purple" stroke="purple" points="106.84,-481.18 103.34,-471.18 99.84,-481.18 106.84,-481.18"/>
<text text-anchor="middle" x="138.84" y="-492.8" font-family="Times,serif" font-size="14.00" fill="purple">Pass Data</text>
</g>
<!-- 79d6bb5a&#45;c8be&#45;405a&#45;b535&#45;30844c4f35ab -->
<g id="node9" class="node">
<title>79d6bb5a&#45;c8be&#45;405a&#45;b535&#45;30844c4f35ab</title>
<ellipse fill="none" stroke="black" cx="103.34" cy="-627" rx="27" ry="18"/>
<text text-anchor="middle" x="103.34" y="-623.3" font-family="Times,serif" font-size="14.00">ToVec</text>
</g>
<!-- 79d6bb5a&#45;c8be&#45;405a&#45;b535&#45;30844c4f35ab&#45;&gt;184db46b&#45;e700&#45;49fb&#45;94ac&#45;98f153922d36 -->
<g id="edge7" class="edge">
<title>79d6bb5a&#45;c8be&#45;405a&#45;b535&#45;30844c4f35ab&#45;&gt;184db46b&#45;e700&#45;49fb&#45;94ac&#45;98f153922d36</title>
<path fill="none" stroke="purple" d="M103.34,-608.8C103.34,-597.16 103.34,-581.55 103.34,-568.24"/>
<polygon fill="purple" stroke="purple" points="106.84,-568.18 103.34,-558.18 99.84,-568.18 106.84,-568.18"/>
<text text-anchor="middle" x="138.84" y="-579.8" font-family="Times,serif" font-size="14.00" fill="purple">Pass Data</text>
</g>
<!-- 2d2b75c1&#45;c5d0&#45;4281&#45;a243&#45;5b54aa758d69 -->
<g id="node10" class="node">
<title>2d2b75c1&#45;c5d0&#45;4281&#45;a243&#45;5b54aa758d69</title>
<ellipse fill="none" stroke="black" cx="103.34" cy="-714" rx="45.2" ry="18"/>
<text text-anchor="middle" x="103.34" y="-710.3" font-family="Times,serif" font-size="14.00">Detect true</text>
</g>
<!-- 2d2b75c1&#45;c5d0&#45;4281&#45;a243&#45;5b54aa758d69&#45;&gt;79d6bb5a&#45;c8be&#45;405a&#45;b535&#45;30844c4f35ab -->
<g id="edge8" class="edge">
<title>2d2b75c1&#45;c5d0&#45;4281&#45;a243&#45;5b54aa758d69&#45;&gt;79d6bb5a&#45;c8be&#45;405a&#45;b535&#45;30844c4f35ab</title>
<path fill="none" stroke="purple" d="M103.34,-695.8C103.34,-684.16 103.34,-668.55 103.34,-655.24"/>
<polygon fill="purple" stroke="purple" points="106.84,-655.18 103.34,-645.18 99.84,-655.18 106.84,-655.18"/>
<text text-anchor="middle" x="138.84" y="-666.8" font-family="Times,serif" font-size="14.00" fill="purple">Pass Data</text>
</g>
<!-- 7007d0c6&#45;db5f&#45;417e&#45;8a95&#45;c4becf236db9&#45;&gt;2d2b75c1&#45;c5d0&#45;4281&#45;a243&#45;5b54aa758d69 -->
<g id="edge9" class="edge">
<title>7007d0c6&#45;db5f&#45;417e&#45;8a95&#45;c4becf236db9&#45;&gt;2d2b75c1&#45;c5d0&#45;4281&#45;a243&#45;5b54aa758d69</title>
<path fill="none" stroke="purple" d="M103.34,-782.8C103.34,-771.16 103.34,-755.55 103.34,-742.24"/>
<polygon fill="purple" stroke="purple" points="106.84,-742.18 103.34,-732.18 99.84,-742.18 106.84,-742.18"/>
<text text-anchor="middle" x="138.84" y="-753.8" font-family="Times,serif" font-size="14.00" fill="purple">Pass Data</text>
</g>
<!-- f9383d39&#45;d71c&#45;466d&#45;b02b&#45;81cd71c0afc6 -->
<g id="node12" class="node">
<title>f9383d39&#45;d71c&#45;466d&#45;b02b&#45;81cd71c0afc6</title>
<ellipse fill="none" stroke="black" cx="250.34" cy="-888" rx="47.1" ry="18"/>
<text text-anchor="middle" x="250.34" y="-884.3" font-family="Times,serif" font-size="14.00">DelayAction</text>
</g>
<!-- f9383d39&#45;d71c&#45;466d&#45;b02b&#45;81cd71c0afc6&#45;&gt;7007d0c6&#45;db5f&#45;417e&#45;8a95&#45;c4becf236db9 -->
<g id="edge11" class="edge">
<title>f9383d39&#45;d71c&#45;466d&#45;b02b&#45;81cd71c0afc6&#45;&gt;7007d0c6&#45;db5f&#45;417e&#45;8a95&#45;c4becf236db9</title>
<path fill="none" stroke="black" d="M225.4,-872.58C201.12,-858.54 164.03,-837.09 137.1,-821.52"/>
<polygon fill="black" stroke="black" points="138.81,-818.47 128.4,-816.49 135.3,-824.53 138.81,-818.47"/>
</g>
<!-- 06b5b4e8&#45;d9a9&#45;43d9&#45;ab29&#45;8a7a72adbf81 -->
<g id="node13" class="node">
<title>06b5b4e8&#45;d9a9&#45;43d9&#45;ab29&#45;8a7a72adbf81</title>
<ellipse fill="none" stroke="black" cx="250.34" cy="-961" rx="59.9" ry="18"/>
<text text-anchor="middle" x="250.34" y="-957.3" font-family="Times,serif" font-size="14.00">ZeroMovement</text>
</g>
<!-- 06b5b4e8&#45;d9a9&#45;43d9&#45;ab29&#45;8a7a72adbf81&#45;&gt;f9383d39&#45;d71c&#45;466d&#45;b02b&#45;81cd71c0afc6 -->
<g id="edge12" class="edge">
<title>06b5b4e8&#45;d9a9&#45;43d9&#45;ab29&#45;8a7a72adbf81&#45;&gt;f9383d39&#45;d71c&#45;466d&#45;b02b&#45;81cd71c0afc6</title>
<path fill="none" stroke="black" d="M250.34,-942.81C250.34,-934.79 250.34,-925.05 250.34,-916.07"/>
<polygon fill="black" stroke="black" points="253.84,-916.03 250.34,-906.03 246.84,-916.03 253.84,-916.03"/>
</g>
</g>
</svg>
