<?xml version="1.0" encoding="UTF-8" standalone="no"?>
<!DOCTYPE svg PUBLIC "-//W3C//DTD SVG 1.1//EN"
 "http://www.w3.org/Graphics/SVG/1.1/DTD/svg11.dtd">
<!-- Generated by graphviz version 2.43.0 (0)
 -->
<!-- Title: G Pages: 1 -->
<svg width="158pt" height="404pt"
 viewBox="0.00 0.00 157.61 404.00" xmlns="http://www.w3.org/2000/svg" xmlns:xlink="http://www.w3.org/1999/xlink">
<g id="graph0" class="graph" transform="scale(1 1) rotate(0) translate(4 400)">
<title>G</title>
<polygon fill="transparent" stroke="transparent" points="-4,4 -4,-400 153.61,-400 153.61,4 -4,4"/>
<!-- 081a638a&#45;bdff&#45;4d30&#45;a727&#45;b97e36a257bd -->
<g id="node1" class="node">
<title>081a638a&#45;bdff&#45;4d30&#45;a727&#45;b97e36a257bd</title>
<ellipse fill="none" stroke="black" cx="74.8" cy="-378" rx="34.8" ry="18"/>
<text text-anchor="middle" x="74.8" y="-374.3" font-family="Times,serif" font-size="14.00">WaitArm</text>
</g>
<!-- e4fa69dc&#45;c4e2&#45;4a33&#45;9cc7&#45;16eb7d6dc5a9 -->
<g id="node2" class="node">
<title>e4fa69dc&#45;c4e2&#45;4a33&#45;9cc7&#45;16eb7d6dc5a9</title>
<ellipse fill="none" stroke="black" cx="74.8" cy="-306" rx="33.6" ry="18"/>
<text text-anchor="middle" x="74.8" y="-302.3" font-family="Times,serif" font-size="14.00">Descend</text>
</g>
<!-- 081a638a&#45;bdff&#45;4d30&#45;a727&#45;b97e36a257bd&#45;&gt;e4fa69dc&#45;c4e2&#45;4a33&#45;9cc7&#45;16eb7d6dc5a9 -->
<g id="edge5" class="edge">
<title>081a638a&#45;bdff&#45;4d30&#45;a727&#45;b97e36a257bd&#45;&gt;e4fa69dc&#45;c4e2&#45;4a33&#45;9cc7&#45;16eb7d6dc5a9</title>
<path fill="none" stroke="black" d="M74.8,-359.7C74.8,-351.98 74.8,-342.71 74.8,-334.11"/>
<polygon fill="black" stroke="black" points="78.3,-334.1 74.8,-324.1 71.3,-334.1 78.3,-334.1"/>
</g>
<!-- 8de0b315&#45;5558&#45;44c9&#45;8398&#45;a6716d96c767 -->
<g id="node3" class="node">
<title>8de0b315&#45;5558&#45;44c9&#45;8398&#45;a6716d96c767</title>
<ellipse fill="none" stroke="black" cx="74.8" cy="-234" rx="47.1" ry="18"/>
<text text-anchor="middle" x="74.8" y="-230.3" font-family="Times,serif" font-size="14.00">DelayAction</text>
</g>
<!-- e4fa69dc&#45;c4e2&#45;4a33&#45;9cc7&#45;16eb7d6dc5a9&#45;&gt;8de0b315&#45;5558&#45;44c9&#45;8398&#45;a6716d96c767 -->
<g id="edge1" class="edge">
<title>e4fa69dc&#45;c4e2&#45;4a33&#45;9cc7&#45;16eb7d6dc5a9&#45;&gt;8de0b315&#45;5558&#45;44c9&#45;8398&#45;a6716d96c767</title>
<path fill="none" stroke="black" d="M74.8,-287.7C74.8,-279.98 74.8,-270.71 74.8,-262.11"/>
<polygon fill="black" stroke="black" points="78.3,-262.1 74.8,-252.1 71.3,-262.1 78.3,-262.1"/>
</g>
<!-- 4e432129&#45;c604&#45;4ccb&#45;b4bd&#45;c5c525b0e0a7 -->
<g id="node4" class="node">
<title>4e432129&#45;c604&#45;4ccb&#45;b4bd&#45;c5c525b0e0a7</title>
<ellipse fill="none" stroke="black" cx="74.8" cy="-162" rx="74.61" ry="18"/>
<text text-anchor="middle" x="74.8" y="-158.3" font-family="Times,serif" font-size="14.00">StraightMovement</text>
</g>
<!-- 8de0b315&#45;5558&#45;44c9&#45;8398&#45;a6716d96c767&#45;&gt;4e432129&#45;c604&#45;4ccb&#45;b4bd&#45;c5c525b0e0a7 -->
<g id="edge4" class="edge">
<title>8de0b315&#45;5558&#45;44c9&#45;8398&#45;a6716d96c767&#45;&gt;4e432129&#45;c604&#45;4ccb&#45;b4bd&#45;c5c525b0e0a7</title>
<path fill="none" stroke="black" d="M74.8,-215.7C74.8,-207.98 74.8,-198.71 74.8,-190.11"/>
<polygon fill="black" stroke="black" points="78.3,-190.1 74.8,-180.1 71.3,-190.1 78.3,-190.1"/>
</g>
<!-- 85bbde3e&#45;9ef2&#45;4808&#45;845e&#45;c917b0d84946 -->
<g id="node5" class="node">
<title>85bbde3e&#45;9ef2&#45;4808&#45;845e&#45;c917b0d84946</title>
<ellipse fill="none" stroke="black" cx="74.8" cy="-90" rx="47.1" ry="18"/>
<text text-anchor="middle" x="74.8" y="-86.3" font-family="Times,serif" font-size="14.00">DelayAction</text>
</g>
<!-- 4e432129&#45;c604&#45;4ccb&#45;b4bd&#45;c5c525b0e0a7&#45;&gt;85bbde3e&#45;9ef2&#45;4808&#45;845e&#45;c917b0d84946 -->
<g id="edge2" class="edge">
<title>4e432129&#45;c604&#45;4ccb&#45;b4bd&#45;c5c525b0e0a7&#45;&gt;85bbde3e&#45;9ef2&#45;4808&#45;845e&#45;c917b0d84946</title>
<path fill="none" stroke="black" d="M74.8,-143.7C74.8,-135.98 74.8,-126.71 74.8,-118.11"/>
<polygon fill="black" stroke="black" points="78.3,-118.1 74.8,-108.1 71.3,-118.1 78.3,-118.1"/>
</g>
<!-- d8f61453&#45;26ad&#45;46ae&#45;9a96&#45;854dbadbddd8 -->
<g id="node6" class="node">
<title>d8f61453&#45;26ad&#45;46ae&#45;9a96&#45;854dbadbddd8</title>
<ellipse fill="none" stroke="black" cx="74.8" cy="-18" rx="59.9" ry="18"/>
<text text-anchor="middle" x="74.8" y="-14.3" font-family="Times,serif" font-size="14.00">ZeroMovement</text>
</g>
<!-- 85bbde3e&#45;9ef2&#45;4808&#45;845e&#45;c917b0d84946&#45;&gt;d8f61453&#45;26ad&#45;46ae&#45;9a96&#45;854dbadbddd8 -->
<g id="edge3" class="edge">
<title>85bbde3e&#45;9ef2&#45;4808&#45;845e&#45;c917b0d84946&#45;&gt;d8f61453&#45;26ad&#45;46ae&#45;9a96&#45;854dbadbddd8</title>
<path fill="none" stroke="black" d="M74.8,-71.7C74.8,-63.98 74.8,-54.71 74.8,-46.11"/>
<polygon fill="black" stroke="black" points="78.3,-46.1 74.8,-36.1 71.3,-46.1 78.3,-46.1"/>
</g>
</g>
</svg>
