<?xml version="1.0" encoding="UTF-8" standalone="no"?>
<!DOCTYPE svg PUBLIC "-//W3C//DTD SVG 1.1//EN"
 "http://www.w3.org/Graphics/SVG/1.1/DTD/svg11.dtd">
<!-- Generated by graphviz version 2.43.0 (0)
 -->
<!-- Title: G Pages: 1 -->
<svg width="249pt" height="276pt"
 viewBox="0.00 0.00 249.00 276.00" xmlns="http://www.w3.org/2000/svg" xmlns:xlink="http://www.w3.org/1999/xlink">
<g id="graph0" class="graph" transform="scale(1 1) rotate(0) translate(4 272)">
<title>G</title>
<polygon fill="transparent" stroke="transparent" points="-4,4 -4,-272 245,-272 245,4 -4,4"/>
<g id="clust1" class="cluster">
<title>cluster_35c6d95a&#45;396c&#45;4f94&#45;86ce&#45;6de5cb631cc5</title>
<polygon fill="transparent" stroke="blue" stroke-dasharray="5,2" points="8,-64 8,-260 233,-260 233,-64 8,-64"/>
</g>
<!-- db439b6a&#45;acb9&#45;4ccf&#45;a3b0&#45;9a7480bfc5aa -->
<g id="node1" class="node">
<title>db439b6a&#45;acb9&#45;4ccf&#45;a3b0&#45;9a7480bfc5aa</title>
<polygon fill="none" stroke="black" stroke-dasharray="5,2" points="169,-252 71,-252 71,-216 169,-216 169,-252"/>
<text text-anchor="middle" x="120" y="-230.3" font-family="Times,serif" font-size="14.00" fill="blue">Concurrent</text>
</g>
<!-- ffac23f7&#45;f27c&#45;48a6&#45;91d1&#45;9cf6b72d3a62 -->
<g id="node3" class="node">
<title>ffac23f7&#45;f27c&#45;48a6&#45;91d1&#45;9cf6b72d3a62</title>
<ellipse fill="none" stroke="black" cx="51" cy="-162" rx="34.8" ry="18"/>
<text text-anchor="middle" x="51" y="-158.3" font-family="Times,serif" font-size="14.00">WaitArm</text>
</g>
<!-- db439b6a&#45;acb9&#45;4ccf&#45;a3b0&#45;9a7480bfc5aa&#45;&gt;ffac23f7&#45;f27c&#45;48a6&#45;91d1&#45;9cf6b72d3a62 -->
<g id="edge1" class="edge">
<title>db439b6a&#45;acb9&#45;4ccf&#45;a3b0&#45;9a7480bfc5aa&#45;&gt;ffac23f7&#45;f27c&#45;48a6&#45;91d1&#45;9cf6b72d3a62</title>
<path fill="none" stroke="black" d="M102.94,-215.7C94.13,-206.75 83.25,-195.71 73.73,-186.06"/>
<polygon fill="black" stroke="black" points="75.96,-183.34 66.45,-178.67 70.97,-188.25 75.96,-183.34"/>
</g>
<!-- 69ea2fab&#45;4fa8&#45;4b8a&#45;a37a&#45;bb45e0371ffc -->
<g id="node4" class="node">
<title>69ea2fab&#45;4fa8&#45;4b8a&#45;a37a&#45;bb45e0371ffc</title>
<ellipse fill="none" stroke="black" cx="191" cy="-162" rx="33.6" ry="18"/>
<text text-anchor="middle" x="191" y="-158.3" font-family="Times,serif" font-size="14.00">Descend</text>
</g>
<!-- db439b6a&#45;acb9&#45;4ccf&#45;a3b0&#45;9a7480bfc5aa&#45;&gt;69ea2fab&#45;4fa8&#45;4b8a&#45;a37a&#45;bb45e0371ffc -->
<g id="edge2" class="edge">
<title>db439b6a&#45;acb9&#45;4ccf&#45;a3b0&#45;9a7480bfc5aa&#45;&gt;69ea2fab&#45;4fa8&#45;4b8a&#45;a37a&#45;bb45e0371ffc</title>
<path fill="none" stroke="black" d="M137.55,-215.7C146.84,-206.53 158.36,-195.18 168.33,-185.35"/>
<polygon fill="black" stroke="black" points="170.92,-187.72 175.58,-178.2 166,-182.73 170.92,-187.72"/>
</g>
<!-- ec813004&#45;c7d3&#45;4122&#45;b5c3&#45;56d6bef2e6fa -->
<g id="node2" class="node">
<title>ec813004&#45;c7d3&#45;4122&#45;b5c3&#45;56d6bef2e6fa</title>
<polygon fill="none" stroke="black" stroke-dasharray="5,2" points="162.5,-108 77.5,-108 77.5,-72 162.5,-72 162.5,-108"/>
<text text-anchor="middle" x="120" y="-86.3" font-family="Times,serif" font-size="14.00" fill="blue">Converge</text>
</g>
<!-- 89e8031c&#45;a237&#45;434a&#45;9a32&#45;6ac3f9d3b364 -->
<g id="node5" class="node">
<title>89e8031c&#45;a237&#45;434a&#45;9a32&#45;6ac3f9d3b364</title>
<ellipse fill="none" stroke="black" cx="120" cy="-18" rx="34.8" ry="18"/>
<text text-anchor="middle" x="120" y="-14.3" font-family="Times,serif" font-size="14.00">WaitArm</text>
</g>
<!-- ec813004&#45;c7d3&#45;4122&#45;b5c3&#45;56d6bef2e6fa&#45;&gt;89e8031c&#45;a237&#45;434a&#45;9a32&#45;6ac3f9d3b364 -->
<g id="edge5" class="edge">
<title>ec813004&#45;c7d3&#45;4122&#45;b5c3&#45;56d6bef2e6fa&#45;&gt;89e8031c&#45;a237&#45;434a&#45;9a32&#45;6ac3f9d3b364</title>
<path fill="none" stroke="black" d="M120,-71.7C120,-63.98 120,-54.71 120,-46.11"/>
<polygon fill="black" stroke="black" points="123.5,-46.1 120,-36.1 116.5,-46.1 123.5,-46.1"/>
</g>
<!-- ffac23f7&#45;f27c&#45;48a6&#45;91d1&#45;9cf6b72d3a62&#45;&gt;ec813004&#45;c7d3&#45;4122&#45;b5c3&#45;56d6bef2e6fa -->
<g id="edge3" class="edge">
<title>ffac23f7&#45;f27c&#45;48a6&#45;91d1&#45;9cf6b72d3a62&#45;&gt;ec813004&#45;c7d3&#45;4122&#45;b5c3&#45;56d6bef2e6fa</title>
<path fill="none" stroke="black" d="M66.31,-145.46C74.92,-136.73 85.86,-125.63 95.62,-115.74"/>
<polygon fill="black" stroke="black" points="98.26,-118.04 102.79,-108.46 93.28,-113.13 98.26,-118.04"/>
</g>
<!-- 69ea2fab&#45;4fa8&#45;4b8a&#45;a37a&#45;bb45e0371ffc&#45;&gt;ec813004&#45;c7d3&#45;4122&#45;b5c3&#45;56d6bef2e6fa -->
<g id="edge4" class="edge">
<title>69ea2fab&#45;4fa8&#45;4b8a&#45;a37a&#45;bb45e0371ffc&#45;&gt;ec813004&#45;c7d3&#45;4122&#45;b5c3&#45;56d6bef2e6fa</title>
<path fill="none" stroke="black" d="M175.59,-145.81C166.54,-136.88 154.88,-125.38 144.57,-115.23"/>
<polygon fill="black" stroke="black" points="146.95,-112.66 137.37,-108.13 142.04,-117.64 146.95,-112.66"/>
</g>
</g>
</svg>
