<?xml version="1.0" encoding="UTF-8" standalone="no"?>
<!DOCTYPE svg PUBLIC "-//W3C//DTD SVG 1.1//EN"
 "http://www.w3.org/Graphics/SVG/1.1/DTD/svg11.dtd">
<!-- Generated by graphviz version 2.43.0 (0)
 -->
<!-- Title: G Pages: 1 -->
<svg width="788pt" height="276pt"
 viewBox="0.00 0.00 788.00 276.00" xmlns="http://www.w3.org/2000/svg" xmlns:xlink="http://www.w3.org/1999/xlink">
<g id="graph0" class="graph" transform="scale(1 1) rotate(0) translate(4 272)">
<title>G</title>
<polygon fill="transparent" stroke="transparent" points="-4,4 -4,-272 784,-272 784,4 -4,4"/>
<g id="clust1" class="cluster">
<title>cluster_3cfa085a&#45;d2e2&#45;431c&#45;b79d&#45;8788bf47e51e</title>
<polygon fill="transparent" stroke="red" stroke-dasharray="5,2" points="8,-64 8,-260 772,-260 772,-64 8,-64"/>
</g>
<!-- eb49bdcc&#45;38e2&#45;479a&#45;873d&#45;b4693bf0b50a -->
<g id="node1" class="node">
<title>eb49bdcc&#45;38e2&#45;479a&#45;873d&#45;b4693bf0b50a</title>
<polygon fill="none" stroke="black" stroke-dasharray="5,2" points="417,-252 363,-252 363,-216 417,-216 417,-252"/>
<text text-anchor="middle" x="390" y="-230.3" font-family="Times,serif" font-size="14.00" fill="red">Race</text>
</g>
<!-- 04c61d18&#45;9b4f&#45;461c&#45;9cf1&#45;e99742309ecc -->
<g id="node3" class="node">
<title>04c61d18&#45;9b4f&#45;461c&#45;9cf1&#45;e99742309ecc</title>
<ellipse fill="none" stroke="black" cx="62" cy="-162" rx="46.4" ry="18"/>
<text text-anchor="middle" x="62" y="-158.3" font-family="Times,serif" font-size="14.00">AlwaysTrue</text>
</g>
<!-- eb49bdcc&#45;38e2&#45;479a&#45;873d&#45;b4693bf0b50a&#45;&gt;04c61d18&#45;9b4f&#45;461c&#45;9cf1&#45;e99742309ecc -->
<g id="edge1" class="edge">
<title>eb49bdcc&#45;38e2&#45;479a&#45;873d&#45;b4693bf0b50a&#45;&gt;04c61d18&#45;9b4f&#45;461c&#45;9cf1&#45;e99742309ecc</title>
<path fill="none" stroke="black" d="M362.88,-227.21C307.73,-215.44 181.79,-188.57 111.59,-173.58"/>
<polygon fill="black" stroke="black" points="112.16,-170.13 101.65,-171.46 110.7,-176.97 112.16,-170.13"/>
</g>
<!-- 2d2aa641&#45;126c&#45;41b5&#45;8930&#45;0dbe1d52c82a -->
<g id="node4" class="node">
<title>2d2aa641&#45;126c&#45;41b5&#45;8930&#45;0dbe1d52c82a</title>
<ellipse fill="none" stroke="black" cx="226" cy="-162" rx="46.4" ry="18"/>
<text text-anchor="middle" x="226" y="-158.3" font-family="Times,serif" font-size="14.00">AlwaysTrue</text>
</g>
<!-- eb49bdcc&#45;38e2&#45;479a&#45;873d&#45;b4693bf0b50a&#45;&gt;2d2aa641&#45;126c&#45;41b5&#45;8930&#45;0dbe1d52c82a -->
<g id="edge2" class="edge">
<title>eb49bdcc&#45;38e2&#45;479a&#45;873d&#45;b4693bf0b50a&#45;&gt;2d2aa641&#45;126c&#45;41b5&#45;8930&#45;0dbe1d52c82a</title>
<path fill="none" stroke="black" d="M362.92,-221.44C336.32,-210.09 295.45,-192.65 265.29,-179.77"/>
<polygon fill="black" stroke="black" points="266.47,-176.47 255.9,-175.76 263.72,-182.91 266.47,-176.47"/>
</g>
<!-- 528697f8&#45;df71&#45;4aad&#45;aa65&#45;e86804ce31c3 -->
<g id="node5" class="node">
<title>528697f8&#45;df71&#45;4aad&#45;aa65&#45;e86804ce31c3</title>
<ellipse fill="none" stroke="black" cx="390" cy="-162" rx="46.4" ry="18"/>
<text text-anchor="middle" x="390" y="-158.3" font-family="Times,serif" font-size="14.00">AlwaysTrue</text>
</g>
<!-- eb49bdcc&#45;38e2&#45;479a&#45;873d&#45;b4693bf0b50a&#45;&gt;528697f8&#45;df71&#45;4aad&#45;aa65&#45;e86804ce31c3 -->
<g id="edge3" class="edge">
<title>eb49bdcc&#45;38e2&#45;479a&#45;873d&#45;b4693bf0b50a&#45;&gt;528697f8&#45;df71&#45;4aad&#45;aa65&#45;e86804ce31c3</title>
<path fill="none" stroke="black" d="M390,-215.7C390,-207.98 390,-198.71 390,-190.11"/>
<polygon fill="black" stroke="black" points="393.5,-190.1 390,-180.1 386.5,-190.1 393.5,-190.1"/>
</g>
<!-- c25fecf5&#45;a931&#45;4d54&#45;b3ad&#45;8aa55f58ebac -->
<g id="node6" class="node">
<title>c25fecf5&#45;a931&#45;4d54&#45;b3ad&#45;8aa55f58ebac</title>
<ellipse fill="none" stroke="black" cx="554" cy="-162" rx="46.4" ry="18"/>
<text text-anchor="middle" x="554" y="-158.3" font-family="Times,serif" font-size="14.00">AlwaysTrue</text>
</g>
<!-- eb49bdcc&#45;38e2&#45;479a&#45;873d&#45;b4693bf0b50a&#45;&gt;c25fecf5&#45;a931&#45;4d54&#45;b3ad&#45;8aa55f58ebac -->
<g id="edge4" class="edge">
<title>eb49bdcc&#45;38e2&#45;479a&#45;873d&#45;b4693bf0b50a&#45;&gt;c25fecf5&#45;a931&#45;4d54&#45;b3ad&#45;8aa55f58ebac</title>
<path fill="none" stroke="black" d="M417.08,-221.44C443.68,-210.09 484.55,-192.65 514.71,-179.77"/>
<polygon fill="black" stroke="black" points="516.28,-182.91 524.1,-175.76 513.53,-176.47 516.28,-182.91"/>
</g>
<!-- f2f18aaf&#45;2ce0&#45;483f&#45;ac83&#45;6e0facf5dfad -->
<g id="node7" class="node">
<title>f2f18aaf&#45;2ce0&#45;483f&#45;ac83&#45;6e0facf5dfad</title>
<ellipse fill="none" stroke="black" cx="718" cy="-162" rx="46.4" ry="18"/>
<text text-anchor="middle" x="718" y="-158.3" font-family="Times,serif" font-size="14.00">AlwaysTrue</text>
</g>
<!-- eb49bdcc&#45;38e2&#45;479a&#45;873d&#45;b4693bf0b50a&#45;&gt;f2f18aaf&#45;2ce0&#45;483f&#45;ac83&#45;6e0facf5dfad -->
<g id="edge5" class="edge">
<title>eb49bdcc&#45;38e2&#45;479a&#45;873d&#45;b4693bf0b50a&#45;&gt;f2f18aaf&#45;2ce0&#45;483f&#45;ac83&#45;6e0facf5dfad</title>
<path fill="none" stroke="black" d="M417.12,-227.21C472.27,-215.44 598.21,-188.57 668.41,-173.58"/>
<polygon fill="black" stroke="black" points="669.3,-176.97 678.35,-171.46 667.84,-170.13 669.3,-176.97"/>
</g>
<!-- 55af839a&#45;a00e&#45;40a9&#45;87e9&#45;3ff949974235 -->
<g id="node2" class="node">
<title>55af839a&#45;a00e&#45;40a9&#45;87e9&#45;3ff949974235</title>
<polygon fill="none" stroke="black" stroke-dasharray="5,2" points="426,-108 354,-108 354,-72 426,-72 426,-108"/>
<text text-anchor="middle" x="390" y="-86.3" font-family="Times,serif" font-size="14.00" fill="red">Resolve</text>
</g>
<!-- c04c4b25&#45;7599&#45;4e71&#45;a1e8&#45;9c8831a7613b -->
<g id="node8" class="node">
<title>c04c4b25&#45;7599&#45;4e71&#45;a1e8&#45;9c8831a7613b</title>
<ellipse fill="none" stroke="black" cx="390" cy="-18" rx="46.4" ry="18"/>
<text text-anchor="middle" x="390" y="-14.3" font-family="Times,serif" font-size="14.00">AlwaysTrue</text>
</g>
<!-- 55af839a&#45;a00e&#45;40a9&#45;87e9&#45;3ff949974235&#45;&gt;c04c4b25&#45;7599&#45;4e71&#45;a1e8&#45;9c8831a7613b -->
<g id="edge11" class="edge">
<title>55af839a&#45;a00e&#45;40a9&#45;87e9&#45;3ff949974235&#45;&gt;c04c4b25&#45;7599&#45;4e71&#45;a1e8&#45;9c8831a7613b</title>
<path fill="none" stroke="black" d="M390,-71.7C390,-63.98 390,-54.71 390,-46.11"/>
<polygon fill="black" stroke="black" points="393.5,-46.1 390,-36.1 386.5,-46.1 393.5,-46.1"/>
</g>
<!-- 04c61d18&#45;9b4f&#45;461c&#45;9cf1&#45;e99742309ecc&#45;&gt;55af839a&#45;a00e&#45;40a9&#45;87e9&#45;3ff949974235 -->
<g id="edge6" class="edge">
<title>04c61d18&#45;9b4f&#45;461c&#45;9cf1&#45;e99742309ecc&#45;&gt;55af839a&#45;a00e&#45;40a9&#45;87e9&#45;3ff949974235</title>
<path fill="none" stroke="black" d="M101.56,-152.56C162.54,-139.54 279.18,-114.65 343.89,-100.84"/>
<polygon fill="black" stroke="black" points="344.76,-104.23 353.81,-98.72 343.3,-97.39 344.76,-104.23"/>
</g>
<!-- 2d2aa641&#45;126c&#45;41b5&#45;8930&#45;0dbe1d52c82a&#45;&gt;55af839a&#45;a00e&#45;40a9&#45;87e9&#45;3ff949974235 -->
<g id="edge7" class="edge">
<title>2d2aa641&#45;126c&#45;41b5&#45;8930&#45;0dbe1d52c82a&#45;&gt;55af839a&#45;a00e&#45;40a9&#45;87e9&#45;3ff949974235</title>
<path fill="none" stroke="black" d="M256.08,-148.16C280.84,-137.59 316.32,-122.45 344.55,-110.4"/>
<polygon fill="black" stroke="black" points="345.99,-113.59 353.81,-106.45 343.24,-107.15 345.99,-113.59"/>
</g>
<!-- 528697f8&#45;df71&#45;4aad&#45;aa65&#45;e86804ce31c3&#45;&gt;55af839a&#45;a00e&#45;40a9&#45;87e9&#45;3ff949974235 -->
<g id="edge8" class="edge">
<title>528697f8&#45;df71&#45;4aad&#45;aa65&#45;e86804ce31c3&#45;&gt;55af839a&#45;a00e&#45;40a9&#45;87e9&#45;3ff949974235</title>
<path fill="none" stroke="black" d="M390,-143.7C390,-135.98 390,-126.71 390,-118.11"/>
<polygon fill="black" stroke="black" points="393.5,-118.1 390,-108.1 386.5,-118.1 393.5,-118.1"/>
</g>
<!-- c25fecf5&#45;a931&#45;4d54&#45;b3ad&#45;8aa55f58ebac&#45;&gt;55af839a&#45;a00e&#45;40a9&#45;87e9&#45;3ff949974235 -->
<g id="edge9" class="edge">
<title>c25fecf5&#45;a931&#45;4d54&#45;b3ad&#45;8aa55f58ebac&#45;&gt;55af839a&#45;a00e&#45;40a9&#45;87e9&#45;3ff949974235</title>
<path fill="none" stroke="black" d="M523.92,-148.16C499.16,-137.59 463.68,-122.45 435.45,-110.4"/>
<polygon fill="black" stroke="black" points="436.76,-107.15 426.19,-106.45 434.01,-113.59 436.76,-107.15"/>
</g>
<!-- f2f18aaf&#45;2ce0&#45;483f&#45;ac83&#45;6e0facf5dfad&#45;&gt;55af839a&#45;a00e&#45;40a9&#45;87e9&#45;3ff949974235 -->
<g id="edge10" class="edge">
<title>f2f18aaf&#45;2ce0&#45;483f&#45;ac83&#45;6e0facf5dfad&#45;&gt;55af839a&#45;a00e&#45;40a9&#45;87e9&#45;3ff949974235</title>
<path fill="none" stroke="black" d="M678.44,-152.56C617.46,-139.54 500.82,-114.65 436.11,-100.84"/>
<polygon fill="black" stroke="black" points="436.7,-97.39 426.19,-98.72 435.24,-104.23 436.7,-97.39"/>
</g>
</g>
</svg>
