<?xml version="1.0" encoding="UTF-8" standalone="no"?>
<!DOCTYPE svg PUBLIC "-//W3C//DTD SVG 1.1//EN"
 "http://www.w3.org/Graphics/SVG/1.1/DTD/svg11.dtd">
<!-- Generated by graphviz version 2.43.0 (0)
 -->
<!-- Title: G Pages: 1 -->
<svg width="336pt" height="728pt"
 viewBox="0.00 0.00 336.00 728.00" xmlns="http://www.w3.org/2000/svg" xmlns:xlink="http://www.w3.org/1999/xlink">
<g id="graph0" class="graph" transform="scale(1 1) rotate(0) translate(4 724)">
<title>G</title>
<polygon fill="transparent" stroke="transparent" points="-4,4 -4,-724 332,-724 332,4 -4,4"/>
<g id="clust1" class="cluster">
<title>cluster_4a63f11e&#45;3352&#45;46e5&#45;a9b7&#45;c060f1da413f</title>
<polygon fill="transparent" stroke="blue" stroke-dasharray="5,2" points="8,-8 8,-568 320,-568 320,-8 8,-8"/>
</g>
<!-- 2aead66c&#45;f01e&#45;4c3e&#45;a6cc&#45;f9648eaa4a29 -->
<g id="node1" class="node">
<title>2aead66c&#45;f01e&#45;4c3e&#45;a6cc&#45;f9648eaa4a29</title>
<ellipse fill="none" stroke="black" cx="95" cy="-121" rx="67.81" ry="18"/>
<text text-anchor="middle" x="95" y="-117.3" font-family="Times,serif" font-size="14.00">LinearYawFromX</text>
</g>
<!-- 56ce8cc2&#45;fce4&#45;44d6&#45;bd99&#45;a5a8ad464ba3 -->
<g id="node2" class="node">
<title>56ce8cc2&#45;fce4&#45;44d6&#45;bd99&#45;a5a8ad464ba3</title>
<ellipse fill="none" stroke="black" cx="96" cy="-34" rx="80.11" ry="18"/>
<text text-anchor="middle" x="96" y="-30.3" font-family="Times,serif" font-size="14.00">Stability2Movement</text>
</g>
<!-- 2aead66c&#45;f01e&#45;4c3e&#45;a6cc&#45;f9648eaa4a29&#45;&gt;56ce8cc2&#45;fce4&#45;44d6&#45;bd99&#45;a5a8ad464ba3 -->
<g id="edge1" class="edge">
<title>2aead66c&#45;f01e&#45;4c3e&#45;a6cc&#45;f9648eaa4a29&#45;&gt;56ce8cc2&#45;fce4&#45;44d6&#45;bd99&#45;a5a8ad464ba3</title>
<path fill="none" stroke="purple" d="M95.2,-102.8C95.34,-91.16 95.52,-75.55 95.68,-62.24"/>
<polygon fill="purple" stroke="purple" points="99.18,-62.22 95.8,-52.18 92.18,-62.13 99.18,-62.22"/>
<text text-anchor="middle" x="130.5" y="-73.8" font-family="Times,serif" font-size="14.00" fill="purple">Pass Data</text>
</g>
<!-- 9152359d&#45;2dca&#45;46db&#45;b766&#45;97767f2fe490 -->
<g id="node3" class="node">
<title>9152359d&#45;2dca&#45;46db&#45;b766&#45;97767f2fe490</title>
<ellipse fill="none" stroke="black" cx="95" cy="-208" rx="51.3" ry="18"/>
<text text-anchor="middle" x="95" y="-204.3" font-family="Times,serif" font-size="14.00">OffsetToPose</text>
</g>
<!-- 9152359d&#45;2dca&#45;46db&#45;b766&#45;97767f2fe490&#45;&gt;2aead66c&#45;f01e&#45;4c3e&#45;a6cc&#45;f9648eaa4a29 -->
<g id="edge2" class="edge">
<title>9152359d&#45;2dca&#45;46db&#45;b766&#45;97767f2fe490&#45;&gt;2aead66c&#45;f01e&#45;4c3e&#45;a6cc&#45;f9648eaa4a29</title>
<path fill="none" stroke="purple" d="M95,-189.8C95,-178.16 95,-162.55 95,-149.24"/>
<polygon fill="purple" stroke="purple" points="98.5,-149.18 95,-139.18 91.5,-149.18 98.5,-149.18"/>
<text text-anchor="middle" x="130.5" y="-160.8" font-family="Times,serif" font-size="14.00" fill="purple">Pass Data</text>
</g>
<!-- 0d3e4c02&#45;1c18&#45;4f4f&#45;bcda&#45;62feb55d7c34 -->
<g id="node4" class="node">
<title>0d3e4c02&#45;1c18&#45;4f4f&#45;bcda&#45;62feb55d7c34</title>
<ellipse fill="none" stroke="black" cx="94" cy="-295" rx="35.5" ry="18"/>
<text text-anchor="middle" x="94" y="-291.3" font-family="Times,serif" font-size="14.00">MidPoint</text>
</g>
<!-- 0d3e4c02&#45;1c18&#45;4f4f&#45;bcda&#45;62feb55d7c34&#45;&gt;9152359d&#45;2dca&#45;46db&#45;b766&#45;97767f2fe490 -->
<g id="edge3" class="edge">
<title>0d3e4c02&#45;1c18&#45;4f4f&#45;bcda&#45;62feb55d7c34&#45;&gt;9152359d&#45;2dca&#45;46db&#45;b766&#45;97767f2fe490</title>
<path fill="none" stroke="purple" d="M94.2,-276.8C94.34,-265.16 94.52,-249.55 94.68,-236.24"/>
<polygon fill="purple" stroke="purple" points="98.18,-236.22 94.8,-226.18 91.18,-236.13 98.18,-236.22"/>
<text text-anchor="middle" x="129.5" y="-247.8" font-family="Times,serif" font-size="14.00" fill="purple">Pass Data</text>
</g>
<!-- 7b914a18&#45;9502&#45;4fec&#45;bae5&#45;15802859a1e1 -->
<g id="node5" class="node">
<title>7b914a18&#45;9502&#45;4fec&#45;bae5&#45;15802859a1e1</title>
<ellipse fill="none" stroke="black" cx="92" cy="-382" rx="61.1" ry="18"/>
<text text-anchor="middle" x="92" y="-378.3" font-family="Times,serif" font-size="14.00">ExtractPosition</text>
</g>
<!-- 7b914a18&#45;9502&#45;4fec&#45;bae5&#45;15802859a1e1&#45;&gt;0d3e4c02&#45;1c18&#45;4f4f&#45;bcda&#45;62feb55d7c34 -->
<g id="edge4" class="edge">
<title>7b914a18&#45;9502&#45;4fec&#45;bae5&#45;15802859a1e1&#45;&gt;0d3e4c02&#45;1c18&#45;4f4f&#45;bcda&#45;62feb55d7c34</title>
<path fill="none" stroke="purple" d="M92.4,-363.8C92.68,-352.16 93.05,-336.55 93.36,-323.24"/>
<polygon fill="purple" stroke="purple" points="96.86,-323.26 93.6,-313.18 89.86,-323.09 96.86,-323.26"/>
<text text-anchor="middle" x="128.5" y="-334.8" font-family="Times,serif" font-size="14.00" fill="purple">Pass Data</text>
</g>
<!-- a2898f49&#45;8975&#45;47c4&#45;a1d5&#45;959f3cf54b9c -->
<g id="node6" class="node">
<title>a2898f49&#45;8975&#45;47c4&#45;a1d5&#45;959f3cf54b9c</title>
<ellipse fill="none" stroke="black" cx="43" cy="-469" rx="27" ry="18"/>
<text text-anchor="middle" x="43" y="-465.3" font-family="Times,serif" font-size="14.00">ToVec</text>
</g>
<!-- a2898f49&#45;8975&#45;47c4&#45;a1d5&#45;959f3cf54b9c&#45;&gt;7b914a18&#45;9502&#45;4fec&#45;bae5&#45;15802859a1e1 -->
<g id="edge5" class="edge">
<title>a2898f49&#45;8975&#45;47c4&#45;a1d5&#45;959f3cf54b9c&#45;&gt;7b914a18&#45;9502&#45;4fec&#45;bae5&#45;15802859a1e1</title>
<path fill="none" stroke="purple" d="M52.22,-452.01C59.27,-439.78 69.13,-422.68 77.27,-408.56"/>
<polygon fill="purple" stroke="purple" points="80.36,-410.2 82.32,-399.79 74.3,-406.7 80.36,-410.2"/>
<text text-anchor="middle" x="105.5" y="-421.8" font-family="Times,serif" font-size="14.00" fill="purple">Pass Data</text>
</g>
<!-- e0940ad0&#45;4982&#45;4650&#45;92ae&#45;e430dc2a5d4b -->
<g id="node7" class="node">
<title>e0940ad0&#45;4982&#45;4650&#45;92ae&#45;e430dc2a5d4b</title>
<polygon fill="none" stroke="black" stroke-dasharray="5,2" points="195,-560 97,-560 97,-524 195,-524 195,-560"/>
<text text-anchor="middle" x="146" y="-538.3" font-family="Times,serif" font-size="14.00" fill="blue">Concurrent</text>
</g>
<!-- e0940ad0&#45;4982&#45;4650&#45;92ae&#45;e430dc2a5d4b&#45;&gt;a2898f49&#45;8975&#45;47c4&#45;a1d5&#45;959f3cf54b9c -->
<g id="edge6" class="edge">
<title>e0940ad0&#45;4982&#45;4650&#45;92ae&#45;e430dc2a5d4b&#45;&gt;a2898f49&#45;8975&#45;47c4&#45;a1d5&#45;959f3cf54b9c</title>
<path fill="none" stroke="black" d="M121.33,-523.99C105.66,-513.19 85.4,-499.23 69.41,-488.2"/>
<polygon fill="black" stroke="black" points="71.24,-485.21 61.02,-482.42 67.27,-490.98 71.24,-485.21"/>
</g>
<!-- d8265d99&#45;a2e5&#45;44bb&#45;a3e7&#45;9b7a6018e2db -->
<g id="node8" class="node">
<title>d8265d99&#45;a2e5&#45;44bb&#45;a3e7&#45;9b7a6018e2db</title>
<ellipse fill="none" stroke="black" cx="227" cy="-469" rx="85.01" ry="18"/>
<text text-anchor="middle" x="227" y="-465.3" font-family="Times,serif" font-size="14.00">Consecutive True &lt; 3</text>
</g>
<!-- e0940ad0&#45;4982&#45;4650&#45;92ae&#45;e430dc2a5d4b&#45;&gt;d8265d99&#45;a2e5&#45;44bb&#45;a3e7&#45;9b7a6018e2db -->
<g id="edge7" class="edge">
<title>e0940ad0&#45;4982&#45;4650&#45;92ae&#45;e430dc2a5d4b&#45;&gt;d8265d99&#45;a2e5&#45;44bb&#45;a3e7&#45;9b7a6018e2db</title>
<path fill="none" stroke="black" d="M165.61,-523.81C176.03,-514.68 189,-503.31 200.32,-493.38"/>
<polygon fill="black" stroke="black" points="202.64,-496.01 207.85,-486.78 198.03,-490.74 202.64,-496.01"/>
</g>
<!-- 246f67dd&#45;d579&#45;4294&#45;b0b4&#45;e0eeaac731c7 -->
<g id="node9" class="node">
<title>246f67dd&#45;d579&#45;4294&#45;b0b4&#45;e0eeaac731c7</title>
<ellipse fill="none" stroke="black" cx="146" cy="-629" rx="75.21" ry="18"/>
<text text-anchor="middle" x="146" y="-625.3" font-family="Times,serif" font-size="14.00">VisionNormBottom</text>
</g>
<!-- 246f67dd&#45;d579&#45;4294&#45;b0b4&#45;e0eeaac731c7&#45;&gt;e0940ad0&#45;4982&#45;4650&#45;92ae&#45;e430dc2a5d4b -->
<g id="edge8" class="edge">
<title>246f67dd&#45;d579&#45;4294&#45;b0b4&#45;e0eeaac731c7&#45;&gt;e0940ad0&#45;4982&#45;4650&#45;92ae&#45;e430dc2a5d4b</title>
<path fill="none" stroke="purple" d="M146,-610.8C146,-599.16 146,-583.55 146,-570.24"/>
<polygon fill="purple" stroke="purple" points="149.5,-570.18 146,-560.18 142.5,-570.18 149.5,-570.18"/>
<text text-anchor="middle" x="181.5" y="-581.8" font-family="Times,serif" font-size="14.00" fill="purple">Pass Data</text>
</g>
<!-- fd91843c&#45;6b35&#45;42d1&#45;a65b&#45;df205209e3bc -->
<g id="node10" class="node">
<title>fd91843c&#45;6b35&#45;42d1&#45;a65b&#45;df205209e3bc</title>
<ellipse fill="none" stroke="black" cx="146" cy="-702" rx="59.9" ry="18"/>
<text text-anchor="middle" x="146" y="-698.3" font-family="Times,serif" font-size="14.00">ZeroMovement</text>
</g>
<!-- fd91843c&#45;6b35&#45;42d1&#45;a65b&#45;df205209e3bc&#45;&gt;246f67dd&#45;d579&#45;4294&#45;b0b4&#45;e0eeaac731c7 -->
<g id="edge9" class="edge">
<title>fd91843c&#45;6b35&#45;42d1&#45;a65b&#45;df205209e3bc&#45;&gt;246f67dd&#45;d579&#45;4294&#45;b0b4&#45;e0eeaac731c7</title>
<path fill="none" stroke="black" d="M146,-683.81C146,-675.79 146,-666.05 146,-657.07"/>
<polygon fill="black" stroke="black" points="149.5,-657.03 146,-647.03 142.5,-657.03 149.5,-657.03"/>
</g>
</g>
</svg>
