<?xml version="1.0" encoding="UTF-8" standalone="no"?>
<!DOCTYPE svg PUBLIC "-//W3C//DTD SVG 1.1//EN"
 "http://www.w3.org/Graphics/SVG/1.1/DTD/svg11.dtd">
<!-- Generated by graphviz version 2.43.0 (0)
 -->
<!-- Title: G Pages: 1 -->
<svg width="743pt" height="1121pt"
 viewBox="0.00 0.00 742.80 1121.00" xmlns="http://www.w3.org/2000/svg" xmlns:xlink="http://www.w3.org/1999/xlink">
<g id="graph0" class="graph" transform="scale(1 1) rotate(0) translate(4 1117)">
<title>G</title>
<polygon fill="transparent" stroke="transparent" points="-4,4 -4,-1117 738.8,-1117 738.8,4 -4,4"/>
<g id="clust1" class="cluster">
<title>cluster_1b56d762&#45;07f9&#45;477f&#45;aa5b&#45;b137840f3d88</title>
<polygon fill="transparent" stroke="blue" stroke-dasharray="5,2" points="8,-8 8,-829 280,-829 280,-8 8,-8"/>
</g>
<!-- cafcc7b2&#45;1c57&#45;49cf&#45;93fc&#45;1508b1bb4db1 -->
<g id="node1" class="node">
<title>cafcc7b2&#45;1c57&#45;49cf&#45;93fc&#45;1508b1bb4db1</title>
<polygon fill="none" stroke="black" points="207,-748 141.82,-730 207,-712 272.18,-730 207,-748"/>
<text text-anchor="middle" x="207" y="-726.3" font-family="Times,serif" font-size="14.00">AlwaysTrue</text>
</g>
<!-- de5ae212&#45;ecea&#45;4c8a&#45;8cce&#45;caa742527807 -->
<g id="node19" class="node">
<title>de5ae212&#45;ecea&#45;4c8a&#45;8cce&#45;caa742527807</title>
<ellipse fill="none" stroke="black" cx="335" cy="-643" rx="46.5" ry="18"/>
<text text-anchor="middle" x="335" y="-639.3" font-family="Times,serif" font-size="14.00">VisionNorm</text>
</g>
<!-- cafcc7b2&#45;1c57&#45;49cf&#45;93fc&#45;1508b1bb4db1&#45;&gt;de5ae212&#45;ecea&#45;4c8a&#45;8cce&#45;caa742527807 -->
<g id="edge18" class="edge">
<title>cafcc7b2&#45;1c57&#45;49cf&#45;93fc&#45;1508b1bb4db1&#45;&gt;de5ae212&#45;ecea&#45;4c8a&#45;8cce&#45;caa742527807</title>
<path fill="none" stroke="black" d="M225.34,-716.82C245.78,-703.25 279.18,-681.06 303.76,-664.74"/>
<polygon fill="black" stroke="black" points="305.98,-667.47 312.38,-659.02 302.11,-661.64 305.98,-667.47"/>
<text text-anchor="middle" x="296" y="-682.8" font-family="Times,serif" font-size="14.00">True</text>
</g>
<!-- 44e8c16e&#45;441f&#45;40a3&#45;a878&#45;59484d17550b -->
<g id="node2" class="node">
<title>44e8c16e&#45;441f&#45;40a3&#45;a878&#45;59484d17550b</title>
<ellipse fill="none" stroke="black" cx="95" cy="-121" rx="27" ry="18"/>
<text text-anchor="middle" x="95" y="-117.3" font-family="Times,serif" font-size="14.00">StripX</text>
</g>
<!-- 75f74cb3&#45;d21d&#45;4487&#45;8198&#45;babde8d9f135 -->
<g id="node3" class="node">
<title>75f74cb3&#45;d21d&#45;4487&#45;8198&#45;babde8d9f135</title>
<ellipse fill="none" stroke="black" cx="96" cy="-34" rx="80.11" ry="18"/>
<text text-anchor="middle" x="96" y="-30.3" font-family="Times,serif" font-size="14.00">Stability2Movement</text>
</g>
<!-- 44e8c16e&#45;441f&#45;40a3&#45;a878&#45;59484d17550b&#45;&gt;75f74cb3&#45;d21d&#45;4487&#45;8198&#45;babde8d9f135 -->
<g id="edge1" class="edge">
<title>44e8c16e&#45;441f&#45;40a3&#45;a878&#45;59484d17550b&#45;&gt;75f74cb3&#45;d21d&#45;4487&#45;8198&#45;babde8d9f135</title>
<path fill="none" stroke="purple" d="M95.2,-102.8C95.34,-91.16 95.52,-75.55 95.68,-62.24"/>
<polygon fill="purple" stroke="purple" points="99.18,-62.22 95.8,-52.18 92.18,-62.13 99.18,-62.22"/>
<text text-anchor="middle" x="131.5" y="-73.8" font-family="Times,serif" font-size="14.00" fill="purple">Pass Data</text>
</g>
<!-- a45cb6be&#45;0645&#45;457f&#45;babf&#45;90ea9bcd4a89 -->
<g id="node4" class="node">
<title>a45cb6be&#45;0645&#45;457f&#45;babf&#45;90ea9bcd4a89</title>
<ellipse fill="none" stroke="black" cx="95" cy="-208" rx="27" ry="18"/>
<text text-anchor="middle" x="95" y="-204.3" font-family="Times,serif" font-size="14.00">StripY</text>
</g>
<!-- a45cb6be&#45;0645&#45;457f&#45;babf&#45;90ea9bcd4a89&#45;&gt;44e8c16e&#45;441f&#45;40a3&#45;a878&#45;59484d17550b -->
<g id="edge2" class="edge">
<title>a45cb6be&#45;0645&#45;457f&#45;babf&#45;90ea9bcd4a89&#45;&gt;44e8c16e&#45;441f&#45;40a3&#45;a878&#45;59484d17550b</title>
<path fill="none" stroke="purple" d="M95,-189.8C95,-178.16 95,-162.55 95,-149.24"/>
<polygon fill="purple" stroke="purple" points="98.5,-149.18 95,-139.18 91.5,-149.18 98.5,-149.18"/>
<text text-anchor="middle" x="130.5" y="-160.8" font-family="Times,serif" font-size="14.00" fill="purple">Pass Data</text>
</g>
<!-- c638f3d4&#45;b4bc&#45;4ec4&#45;923b&#45;07b7fb3a538f -->
<g id="node5" class="node">
<title>c638f3d4&#45;b4bc&#45;4ec4&#45;923b&#45;07b7fb3a538f</title>
<ellipse fill="none" stroke="black" cx="95" cy="-295" rx="31.2" ry="18"/>
<text text-anchor="middle" x="95" y="-291.3" font-family="Times,serif" font-size="14.00">FlipYaw</text>
</g>
<!-- c638f3d4&#45;b4bc&#45;4ec4&#45;923b&#45;07b7fb3a538f&#45;&gt;a45cb6be&#45;0645&#45;457f&#45;babf&#45;90ea9bcd4a89 -->
<g id="edge3" class="edge">
<title>c638f3d4&#45;b4bc&#45;4ec4&#45;923b&#45;07b7fb3a538f&#45;&gt;a45cb6be&#45;0645&#45;457f&#45;babf&#45;90ea9bcd4a89</title>
<path fill="none" stroke="purple" d="M95,-276.8C95,-265.16 95,-249.55 95,-236.24"/>
<polygon fill="purple" stroke="purple" points="98.5,-236.18 95,-226.18 91.5,-236.18 98.5,-236.18"/>
<text text-anchor="middle" x="130.5" y="-247.8" font-family="Times,serif" font-size="14.00" fill="purple">Pass Data</text>
</g>
<!-- 074a9e2e&#45;c4b1&#45;4b51&#45;ac6b&#45;9eec67ae1715 -->
<g id="node6" class="node">
<title>074a9e2e&#45;c4b1&#45;4b51&#45;ac6b&#45;9eec67ae1715</title>
<ellipse fill="none" stroke="black" cx="95" cy="-382" rx="67.81" ry="18"/>
<text text-anchor="middle" x="95" y="-378.3" font-family="Times,serif" font-size="14.00">LinearYawFromX</text>
</g>
<!-- 074a9e2e&#45;c4b1&#45;4b51&#45;ac6b&#45;9eec67ae1715&#45;&gt;c638f3d4&#45;b4bc&#45;4ec4&#45;923b&#45;07b7fb3a538f -->
<g id="edge4" class="edge">
<title>074a9e2e&#45;c4b1&#45;4b51&#45;ac6b&#45;9eec67ae1715&#45;&gt;c638f3d4&#45;b4bc&#45;4ec4&#45;923b&#45;07b7fb3a538f</title>
<path fill="none" stroke="purple" d="M95,-363.8C95,-352.16 95,-336.55 95,-323.24"/>
<polygon fill="purple" stroke="purple" points="98.5,-323.18 95,-313.18 91.5,-323.18 98.5,-323.18"/>
<text text-anchor="middle" x="130.5" y="-334.8" font-family="Times,serif" font-size="14.00" fill="purple">Pass Data</text>
</g>
<!-- df6afdfc&#45;26bb&#45;4249&#45;b375&#45;384a387e8537 -->
<g id="node7" class="node">
<title>df6afdfc&#45;26bb&#45;4249&#45;b375&#45;384a387e8537</title>
<ellipse fill="none" stroke="black" cx="95" cy="-469" rx="51.3" ry="18"/>
<text text-anchor="middle" x="95" y="-465.3" font-family="Times,serif" font-size="14.00">OffsetToPose</text>
</g>
<!-- df6afdfc&#45;26bb&#45;4249&#45;b375&#45;384a387e8537&#45;&gt;074a9e2e&#45;c4b1&#45;4b51&#45;ac6b&#45;9eec67ae1715 -->
<g id="edge5" class="edge">
<title>df6afdfc&#45;26bb&#45;4249&#45;b375&#45;384a387e8537&#45;&gt;074a9e2e&#45;c4b1&#45;4b51&#45;ac6b&#45;9eec67ae1715</title>
<path fill="none" stroke="purple" d="M95,-450.8C95,-439.16 95,-423.55 95,-410.24"/>
<polygon fill="purple" stroke="purple" points="98.5,-410.18 95,-400.18 91.5,-410.18 98.5,-410.18"/>
<text text-anchor="middle" x="130.5" y="-421.8" font-family="Times,serif" font-size="14.00" fill="purple">Pass Data</text>
</g>
<!-- b3880956&#45;3987&#45;4bff&#45;822a&#45;21088003ec21 -->
<g id="node8" class="node">
<title>b3880956&#45;3987&#45;4bff&#45;822a&#45;21088003ec21</title>
<ellipse fill="none" stroke="black" cx="94" cy="-556" rx="32.4" ry="18"/>
<text text-anchor="middle" x="94" y="-552.3" font-family="Times,serif" font-size="14.00">Average</text>
</g>
<!-- b3880956&#45;3987&#45;4bff&#45;822a&#45;21088003ec21&#45;&gt;df6afdfc&#45;26bb&#45;4249&#45;b375&#45;384a387e8537 -->
<g id="edge6" class="edge">
<title>b3880956&#45;3987&#45;4bff&#45;822a&#45;21088003ec21&#45;&gt;df6afdfc&#45;26bb&#45;4249&#45;b375&#45;384a387e8537</title>
<path fill="none" stroke="purple" d="M94.2,-537.8C94.34,-526.16 94.52,-510.55 94.68,-497.24"/>
<polygon fill="purple" stroke="purple" points="98.18,-497.22 94.8,-487.18 91.18,-497.13 98.18,-497.22"/>
<text text-anchor="middle" x="130.5" y="-508.8" font-family="Times,serif" font-size="14.00" fill="purple">Pass Data</text>
</g>
<!-- 942d762c&#45;cc7a&#45;4594&#45;bf3b&#45;259f024b1a28 -->
<g id="node9" class="node">
<title>942d762c&#45;cc7a&#45;4594&#45;bf3b&#45;259f024b1a28</title>
<ellipse fill="none" stroke="black" cx="92" cy="-643" rx="61.1" ry="18"/>
<text text-anchor="middle" x="92" y="-639.3" font-family="Times,serif" font-size="14.00">ExtractPosition</text>
</g>
<!-- 942d762c&#45;cc7a&#45;4594&#45;bf3b&#45;259f024b1a28&#45;&gt;b3880956&#45;3987&#45;4bff&#45;822a&#45;21088003ec21 -->
<g id="edge7" class="edge">
<title>942d762c&#45;cc7a&#45;4594&#45;bf3b&#45;259f024b1a28&#45;&gt;b3880956&#45;3987&#45;4bff&#45;822a&#45;21088003ec21</title>
<path fill="none" stroke="purple" d="M92.4,-624.8C92.68,-613.16 93.05,-597.55 93.36,-584.24"/>
<polygon fill="purple" stroke="purple" points="96.86,-584.26 93.6,-574.18 89.86,-584.09 96.86,-584.26"/>
<text text-anchor="middle" x="129.5" y="-595.8" font-family="Times,serif" font-size="14.00" fill="purple">Pass Data</text>
</g>
<!-- 0c277ba3&#45;ae19&#45;4665&#45;88ce&#45;3a4bb9dd9835 -->
<g id="node10" class="node">
<title>0c277ba3&#45;ae19&#45;4665&#45;88ce&#45;3a4bb9dd9835</title>
<ellipse fill="none" stroke="black" cx="43" cy="-730" rx="27" ry="18"/>
<text text-anchor="middle" x="43" y="-726.3" font-family="Times,serif" font-size="14.00">ToVec</text>
</g>
<!-- 0c277ba3&#45;ae19&#45;4665&#45;88ce&#45;3a4bb9dd9835&#45;&gt;942d762c&#45;cc7a&#45;4594&#45;bf3b&#45;259f024b1a28 -->
<g id="edge8" class="edge">
<title>0c277ba3&#45;ae19&#45;4665&#45;88ce&#45;3a4bb9dd9835&#45;&gt;942d762c&#45;cc7a&#45;4594&#45;bf3b&#45;259f024b1a28</title>
<path fill="none" stroke="purple" d="M52.22,-713.01C59.27,-700.78 69.13,-683.68 77.27,-669.56"/>
<polygon fill="purple" stroke="purple" points="80.36,-671.2 82.32,-660.79 74.3,-667.7 80.36,-671.2"/>
<text text-anchor="middle" x="106.5" y="-682.8" font-family="Times,serif" font-size="14.00" fill="purple">Pass Data</text>
</g>
<!-- 07750b88&#45;1dfb&#45;4ebf&#45;a62c&#45;86f5a1e27a48 -->
<g id="node11" class="node">
<title>07750b88&#45;1dfb&#45;4ebf&#45;a62c&#45;86f5a1e27a48</title>
<polygon fill="none" stroke="black" stroke-dasharray="5,2" points="256,-821 158,-821 158,-785 256,-785 256,-821"/>
<text text-anchor="middle" x="207" y="-799.3" font-family="Times,serif" font-size="14.00" fill="blue">Concurrent</text>
</g>
<!-- 07750b88&#45;1dfb&#45;4ebf&#45;a62c&#45;86f5a1e27a48&#45;&gt;cafcc7b2&#45;1c57&#45;49cf&#45;93fc&#45;1508b1bb4db1 -->
<g id="edge10" class="edge">
<title>07750b88&#45;1dfb&#45;4ebf&#45;a62c&#45;86f5a1e27a48&#45;&gt;cafcc7b2&#45;1c57&#45;49cf&#45;93fc&#45;1508b1bb4db1</title>
<path fill="none" stroke="black" d="M207,-784.81C207,-776.79 207,-767.05 207,-758.07"/>
<polygon fill="black" stroke="black" points="210.5,-758.03 207,-748.03 203.5,-758.03 210.5,-758.03"/>
</g>
<!-- 07750b88&#45;1dfb&#45;4ebf&#45;a62c&#45;86f5a1e27a48&#45;&gt;0c277ba3&#45;ae19&#45;4665&#45;88ce&#45;3a4bb9dd9835 -->
<g id="edge9" class="edge">
<title>07750b88&#45;1dfb&#45;4ebf&#45;a62c&#45;86f5a1e27a48&#45;&gt;0c277ba3&#45;ae19&#45;4665&#45;88ce&#45;3a4bb9dd9835</title>
<path fill="none" stroke="black" d="M167.72,-784.99C139.19,-772.64 101.1,-756.15 74.55,-744.66"/>
<polygon fill="black" stroke="black" points="75.89,-741.43 65.32,-740.66 73.11,-747.85 75.89,-741.43"/>
</g>
<!-- 3856cad2&#45;bebf&#45;4cb9&#45;837d&#45;e04f5e9eb944 -->
<g id="node12" class="node">
<title>3856cad2&#45;bebf&#45;4cb9&#45;837d&#45;e04f5e9eb944</title>
<ellipse fill="none" stroke="black" cx="660" cy="-1022" rx="33.6" ry="18"/>
<text text-anchor="middle" x="660" y="-1018.3" font-family="Times,serif" font-size="14.00">Descend</text>
</g>
<!-- 802bea14&#45;1b01&#45;46eb&#45;8a9b&#45;3a818794061d -->
<g id="node13" class="node">
<title>802bea14&#45;1b01&#45;46eb&#45;8a9b&#45;3a818794061d</title>
<ellipse fill="none" stroke="black" cx="660" cy="-949" rx="47.1" ry="18"/>
<text text-anchor="middle" x="660" y="-945.3" font-family="Times,serif" font-size="14.00">DelayAction</text>
</g>
<!-- 3856cad2&#45;bebf&#45;4cb9&#45;837d&#45;e04f5e9eb944&#45;&gt;802bea14&#45;1b01&#45;46eb&#45;8a9b&#45;3a818794061d -->
<g id="edge11" class="edge">
<title>3856cad2&#45;bebf&#45;4cb9&#45;837d&#45;e04f5e9eb944&#45;&gt;802bea14&#45;1b01&#45;46eb&#45;8a9b&#45;3a818794061d</title>
<path fill="none" stroke="black" d="M660,-1003.81C660,-995.79 660,-986.05 660,-977.07"/>
<polygon fill="black" stroke="black" points="663.5,-977.03 660,-967.03 656.5,-977.03 663.5,-977.03"/>
</g>
<!-- ee22b05e&#45;5d39&#45;4435&#45;b1fb&#45;34443a3793ee -->
<g id="node14" class="node">
<title>ee22b05e&#45;5d39&#45;4435&#45;b1fb&#45;34443a3793ee</title>
<ellipse fill="none" stroke="black" cx="660" cy="-876" rx="74.61" ry="18"/>
<text text-anchor="middle" x="660" y="-872.3" font-family="Times,serif" font-size="14.00">StraightMovement</text>
</g>
<!-- 802bea14&#45;1b01&#45;46eb&#45;8a9b&#45;3a818794061d&#45;&gt;ee22b05e&#45;5d39&#45;4435&#45;b1fb&#45;34443a3793ee -->
<g id="edge14" class="edge">
<title>802bea14&#45;1b01&#45;46eb&#45;8a9b&#45;3a818794061d&#45;&gt;ee22b05e&#45;5d39&#45;4435&#45;b1fb&#45;34443a3793ee</title>
<path fill="none" stroke="black" d="M660,-930.81C660,-922.79 660,-913.05 660,-904.07"/>
<polygon fill="black" stroke="black" points="663.5,-904.03 660,-894.03 656.5,-904.03 663.5,-904.03"/>
</g>
<!-- 22b54ca5&#45;1ed6&#45;4f5e&#45;ba02&#45;f6b94cb74d23 -->
<g id="node15" class="node">
<title>22b54ca5&#45;1ed6&#45;4f5e&#45;ba02&#45;f6b94cb74d23</title>
<ellipse fill="none" stroke="black" cx="660" cy="-803" rx="47.1" ry="18"/>
<text text-anchor="middle" x="660" y="-799.3" font-family="Times,serif" font-size="14.00">DelayAction</text>
</g>
<!-- ee22b05e&#45;5d39&#45;4435&#45;b1fb&#45;34443a3793ee&#45;&gt;22b54ca5&#45;1ed6&#45;4f5e&#45;ba02&#45;f6b94cb74d23 -->
<g id="edge12" class="edge">
<title>ee22b05e&#45;5d39&#45;4435&#45;b1fb&#45;34443a3793ee&#45;&gt;22b54ca5&#45;1ed6&#45;4f5e&#45;ba02&#45;f6b94cb74d23</title>
<path fill="none" stroke="black" d="M660,-857.81C660,-849.79 660,-840.05 660,-831.07"/>
<polygon fill="black" stroke="black" points="663.5,-831.03 660,-821.03 656.5,-831.03 663.5,-831.03"/>
</g>
<!-- e00cee11&#45;2fbc&#45;409b&#45;813b&#45;19b3af636a83 -->
<g id="node16" class="node">
<title>e00cee11&#45;2fbc&#45;409b&#45;813b&#45;19b3af636a83</title>
<ellipse fill="none" stroke="black" cx="660" cy="-730" rx="59.9" ry="18"/>
<text text-anchor="middle" x="660" y="-726.3" font-family="Times,serif" font-size="14.00">ZeroMovement</text>
</g>
<!-- 22b54ca5&#45;1ed6&#45;4f5e&#45;ba02&#45;f6b94cb74d23&#45;&gt;e00cee11&#45;2fbc&#45;409b&#45;813b&#45;19b3af636a83 -->
<g id="edge13" class="edge">
<title>22b54ca5&#45;1ed6&#45;4f5e&#45;ba02&#45;f6b94cb74d23&#45;&gt;e00cee11&#45;2fbc&#45;409b&#45;813b&#45;19b3af636a83</title>
<path fill="none" stroke="black" d="M660,-784.81C660,-776.79 660,-767.05 660,-758.07"/>
<polygon fill="black" stroke="black" points="663.5,-758.03 660,-748.03 656.5,-758.03 663.5,-758.03"/>
</g>
<!-- e00cee11&#45;2fbc&#45;409b&#45;813b&#45;19b3af636a83&#45;&gt;de5ae212&#45;ecea&#45;4c8a&#45;8cce&#45;caa742527807 -->
<g id="edge19" class="edge">
<title>e00cee11&#45;2fbc&#45;409b&#45;813b&#45;19b3af636a83&#45;&gt;de5ae212&#45;ecea&#45;4c8a&#45;8cce&#45;caa742527807</title>
<path fill="none" stroke="black" d="M639.53,-712.83C624.07,-701.49 601.85,-686.98 580,-679 518.08,-656.38 442.38,-648.3 391.65,-645.46"/>
<polygon fill="black" stroke="black" points="391.7,-641.96 381.54,-644.94 391.35,-648.95 391.7,-641.96"/>
</g>
<!-- 9492b1ee&#45;495e&#45;4548&#45;bdbb&#45;1cd02376a8f7 -->
<g id="node17" class="node">
<title>9492b1ee&#45;495e&#45;4548&#45;bdbb&#45;1cd02376a8f7</title>
<ellipse fill="none" stroke="black" cx="660" cy="-1095" rx="34.8" ry="18"/>
<text text-anchor="middle" x="660" y="-1091.3" font-family="Times,serif" font-size="14.00">WaitArm</text>
</g>
<!-- 9492b1ee&#45;495e&#45;4548&#45;bdbb&#45;1cd02376a8f7&#45;&gt;3856cad2&#45;bebf&#45;4cb9&#45;837d&#45;e04f5e9eb944 -->
<g id="edge15" class="edge">
<title>9492b1ee&#45;495e&#45;4548&#45;bdbb&#45;1cd02376a8f7&#45;&gt;3856cad2&#45;bebf&#45;4cb9&#45;837d&#45;e04f5e9eb944</title>
<path fill="none" stroke="black" d="M660,-1076.81C660,-1068.79 660,-1059.05 660,-1050.07"/>
<polygon fill="black" stroke="black" points="663.5,-1050.03 660,-1040.03 656.5,-1050.03 663.5,-1050.03"/>
</g>
<!-- f527c080&#45;fd2f&#45;43e7&#45;bb21&#45;32506e5b3d4b -->
<g id="node18" class="node">
<title>f527c080&#45;fd2f&#45;43e7&#45;bb21&#45;32506e5b3d4b</title>
<ellipse fill="none" stroke="black" cx="430" cy="-556" rx="48.3" ry="18"/>
<text text-anchor="middle" x="430" y="-552.3" font-family="Times,serif" font-size="14.00">Detect Buoy</text>
</g>
<!-- f527c080&#45;fd2f&#45;43e7&#45;bb21&#45;32506e5b3d4b&#45;&gt;07750b88&#45;1dfb&#45;4ebf&#45;a62c&#45;86f5a1e27a48 -->
<g id="edge16" class="edge">
<title>f527c080&#45;fd2f&#45;43e7&#45;bb21&#45;32506e5b3d4b&#45;&gt;07750b88&#45;1dfb&#45;4ebf&#45;a62c&#45;86f5a1e27a48</title>
<path fill="none" stroke="purple" d="M442.64,-573.8C448.32,-583.35 453.11,-595.64 450,-607 442.63,-633.91 436.36,-640 418,-661 371.25,-714.49 299.68,-756.54 253.1,-780.34"/>
<polygon fill="purple" stroke="purple" points="251.49,-777.23 244.14,-784.85 254.64,-783.48 251.49,-777.23"/>
<text text-anchor="middle" x="434.5" y="-682.8" font-family="Times,serif" font-size="14.00" fill="purple">Pass Data</text>
</g>
<!-- de5ae212&#45;ecea&#45;4c8a&#45;8cce&#45;caa742527807&#45;&gt;f527c080&#45;fd2f&#45;43e7&#45;bb21&#45;32506e5b3d4b -->
<g id="edge17" class="edge">
<title>de5ae212&#45;ecea&#45;4c8a&#45;8cce&#45;caa742527807&#45;&gt;f527c080&#45;fd2f&#45;43e7&#45;bb21&#45;32506e5b3d4b</title>
<path fill="none" stroke="purple" d="M342.26,-625.14C347.43,-614.63 355.19,-601.37 365,-592 372.09,-585.23 380.74,-579.39 389.39,-574.52"/>
<polygon fill="purple" stroke="purple" points="391.12,-577.56 398.33,-569.79 387.85,-571.37 391.12,-577.56"/>
<text text-anchor="middle" x="400.5" y="-595.8" font-family="Times,serif" font-size="14.00" fill="purple">Pass Data</text>
</g>
</g>
</svg>
