<?xml version="1.0" encoding="UTF-8" standalone="no"?>
<!DOCTYPE svg PUBLIC "-//W3C//DTD SVG 1.1//EN"
 "http://www.w3.org/Graphics/SVG/1.1/DTD/svg11.dtd">
<!-- Generated by graphviz version 2.43.0 (0)
 -->
<!-- Title: G Pages: 1 -->
<svg width="318pt" height="987pt"
 viewBox="0.00 0.00 318.29 987.00" xmlns="http://www.w3.org/2000/svg" xmlns:xlink="http://www.w3.org/1999/xlink">
<g id="graph0" class="graph" transform="scale(1 1) rotate(0) translate(4 983)">
<title>G</title>
<polygon fill="transparent" stroke="transparent" points="-4,4 -4,-983 314.29,-983 314.29,4 -4,4"/>
<!-- e7bde683&#45;c959&#45;4bfa&#45;8de1&#45;ab1be10c3b5f -->
<g id="node1" class="node">
<title>e7bde683&#45;c959&#45;4bfa&#45;8de1&#45;ab1be10c3b5f</title>
<polygon fill="none" stroke="black" points="65.34,-906 0.16,-888 65.34,-870 130.52,-888 65.34,-906"/>
<text text-anchor="middle" x="65.34" y="-884.3" font-family="Times,serif" font-size="14.00">AlwaysTrue</text>
</g>
<!-- 173eac92&#45;58e0&#45;4e8b&#45;957a&#45;54e38f100493 -->
<g id="node11" class="node">
<title>173eac92&#45;58e0&#45;4e8b&#45;957a&#45;54e38f100493</title>
<ellipse fill="none" stroke="black" cx="103.34" cy="-801" rx="46.5" ry="18"/>
<text text-anchor="middle" x="103.34" y="-797.3" font-family="Times,serif" font-size="14.00">VisionNorm</text>
</g>
<!-- e7bde683&#45;c959&#45;4bfa&#45;8de1&#45;ab1be10c3b5f&#45;&gt;173eac92&#45;58e0&#45;4e8b&#45;957a&#45;54e38f100493 -->
<g id="edge10" class="edge">
<title>e7bde683&#45;c959&#45;4bfa&#45;8de1&#45;ab1be10c3b5f&#45;&gt;173eac92&#45;58e0&#45;4e8b&#45;957a&#45;54e38f100493</title>
<path fill="none" stroke="black" d="M72.13,-871.8C77.54,-859.7 85.25,-842.47 91.65,-828.16"/>
<polygon fill="black" stroke="black" points="94.94,-829.37 95.82,-818.81 88.55,-826.51 94.94,-829.37"/>
<text text-anchor="middle" x="104.34" y="-840.8" font-family="Times,serif" font-size="14.00">True</text>
</g>
<!-- e6468731&#45;a5ba&#45;49d2&#45;a916&#45;5b878c4e4d97 -->
<g id="node2" class="node">
<title>e6468731&#45;a5ba&#45;49d2&#45;a916&#45;5b878c4e4d97</title>
<ellipse fill="none" stroke="black" cx="103.34" cy="-105" rx="27" ry="18"/>
<text text-anchor="middle" x="103.34" y="-101.3" font-family="Times,serif" font-size="14.00">FlatX</text>
</g>
<!-- afa5eca8&#45;57b9&#45;4d2b&#45;97b3&#45;e1e79511cd0a -->
<g id="node3" class="node">
<title>afa5eca8&#45;57b9&#45;4d2b&#45;97b3&#45;e1e79511cd0a</title>
<ellipse fill="none" stroke="black" cx="103.34" cy="-18" rx="80.11" ry="18"/>
<text text-anchor="middle" x="103.34" y="-14.3" font-family="Times,serif" font-size="14.00">Stability2Movement</text>
</g>
<!-- e6468731&#45;a5ba&#45;49d2&#45;a916&#45;5b878c4e4d97&#45;&gt;afa5eca8&#45;57b9&#45;4d2b&#45;97b3&#45;e1e79511cd0a -->
<g id="edge1" class="edge">
<title>e6468731&#45;a5ba&#45;49d2&#45;a916&#45;5b878c4e4d97&#45;&gt;afa5eca8&#45;57b9&#45;4d2b&#45;97b3&#45;e1e79511cd0a</title>
<path fill="none" stroke="purple" d="M103.34,-86.8C103.34,-75.16 103.34,-59.55 103.34,-46.24"/>
<polygon fill="purple" stroke="purple" points="106.84,-46.18 103.34,-36.18 99.84,-46.18 106.84,-46.18"/>
<text text-anchor="middle" x="138.84" y="-57.8" font-family="Times,serif" font-size="14.00" fill="purple">Pass Data</text>
</g>
<!-- 5660f4ef&#45;8041&#45;462b&#45;a672&#45;f5a0e1999a9a -->
<g id="node4" class="node">
<title>5660f4ef&#45;8041&#45;462b&#45;a672&#45;f5a0e1999a9a</title>
<ellipse fill="none" stroke="black" cx="103.34" cy="-192" rx="27" ry="18"/>
<text text-anchor="middle" x="103.34" y="-188.3" font-family="Times,serif" font-size="14.00">StripY</text>
</g>
<!-- 5660f4ef&#45;8041&#45;462b&#45;a672&#45;f5a0e1999a9a&#45;&gt;e6468731&#45;a5ba&#45;49d2&#45;a916&#45;5b878c4e4d97 -->
<g id="edge2" class="edge">
<title>5660f4ef&#45;8041&#45;462b&#45;a672&#45;f5a0e1999a9a&#45;&gt;e6468731&#45;a5ba&#45;49d2&#45;a916&#45;5b878c4e4d97</title>
<path fill="none" stroke="purple" d="M103.34,-173.8C103.34,-162.16 103.34,-146.55 103.34,-133.24"/>
<polygon fill="purple" stroke="purple" points="106.84,-133.18 103.34,-123.18 99.84,-133.18 106.84,-133.18"/>
<text text-anchor="middle" x="138.84" y="-144.8" font-family="Times,serif" font-size="14.00" fill="purple">Pass Data</text>
</g>
<!-- c11ffc59&#45;16a1&#45;4824&#45;ac31&#45;e96b8fb991ec -->
<g id="node5" class="node">
<title>c11ffc59&#45;16a1&#45;4824&#45;ac31&#45;e96b8fb991ec</title>
<ellipse fill="none" stroke="black" cx="103.34" cy="-279" rx="52.6" ry="18"/>
<text text-anchor="middle" x="103.34" y="-275.3" font-family="Times,serif" font-size="14.00">Anon Closure</text>
</g>
<!-- c11ffc59&#45;16a1&#45;4824&#45;ac31&#45;e96b8fb991ec&#45;&gt;5660f4ef&#45;8041&#45;462b&#45;a672&#45;f5a0e1999a9a -->
<g id="edge3" class="edge">
<title>c11ffc59&#45;16a1&#45;4824&#45;ac31&#45;e96b8fb991ec&#45;&gt;5660f4ef&#45;8041&#45;462b&#45;a672&#45;f5a0e1999a9a</title>
<path fill="none" stroke="purple" d="M103.34,-260.8C103.34,-249.16 103.34,-233.55 103.34,-220.24"/>
<polygon fill="purple" stroke="purple" points="106.84,-220.18 103.34,-210.18 99.84,-220.18 106.84,-220.18"/>
<text text-anchor="middle" x="138.84" y="-231.8" font-family="Times,serif" font-size="14.00" fill="purple">Pass Data</text>
</g>
<!-- 0f887bbc&#45;ea18&#45;446e&#45;bcfd&#45;d36aaa15ff30 -->
<g id="node6" class="node">
<title>0f887bbc&#45;ea18&#45;446e&#45;bcfd&#45;d36aaa15ff30</title>
<ellipse fill="none" stroke="black" cx="103.34" cy="-366" rx="51.3" ry="18"/>
<text text-anchor="middle" x="103.34" y="-362.3" font-family="Times,serif" font-size="14.00">OffsetToPose</text>
</g>
<!-- 0f887bbc&#45;ea18&#45;446e&#45;bcfd&#45;d36aaa15ff30&#45;&gt;c11ffc59&#45;16a1&#45;4824&#45;ac31&#45;e96b8fb991ec -->
<g id="edge4" class="edge">
<title>0f887bbc&#45;ea18&#45;446e&#45;bcfd&#45;d36aaa15ff30&#45;&gt;c11ffc59&#45;16a1&#45;4824&#45;ac31&#45;e96b8fb991ec</title>
<path fill="none" stroke="purple" d="M103.34,-347.8C103.34,-336.16 103.34,-320.55 103.34,-307.24"/>
<polygon fill="purple" stroke="purple" points="106.84,-307.18 103.34,-297.18 99.84,-307.18 106.84,-307.18"/>
<text text-anchor="middle" x="138.84" y="-318.8" font-family="Times,serif" font-size="14.00" fill="purple">Pass Data</text>
</g>
<!-- abcfda46&#45;f3b0&#45;4598&#45;9baa&#45;7e344246f482 -->
<g id="node7" class="node">
<title>abcfda46&#45;f3b0&#45;4598&#45;9baa&#45;7e344246f482</title>
<ellipse fill="none" stroke="black" cx="103.34" cy="-453" rx="32.4" ry="18"/>
<text text-anchor="middle" x="103.34" y="-449.3" font-family="Times,serif" font-size="14.00">Average</text>
</g>
<!-- abcfda46&#45;f3b0&#45;4598&#45;9baa&#45;7e344246f482&#45;&gt;0f887bbc&#45;ea18&#45;446e&#45;bcfd&#45;d36aaa15ff30 -->
<g id="edge5" class="edge">
<title>abcfda46&#45;f3b0&#45;4598&#45;9baa&#45;7e344246f482&#45;&gt;0f887bbc&#45;ea18&#45;446e&#45;bcfd&#45;d36aaa15ff30</title>
<path fill="none" stroke="purple" d="M103.34,-434.8C103.34,-423.16 103.34,-407.55 103.34,-394.24"/>
<polygon fill="purple" stroke="purple" points="106.84,-394.18 103.34,-384.18 99.84,-394.18 106.84,-394.18"/>
<text text-anchor="middle" x="138.84" y="-405.8" font-family="Times,serif" font-size="14.00" fill="purple">Pass Data</text>
</g>
<!-- 97ad451c&#45;8513&#45;4f75&#45;818e&#45;8de3c81f2282 -->
<g id="node8" class="node">
<title>97ad451c&#45;8513&#45;4f75&#45;818e&#45;8de3c81f2282</title>
<ellipse fill="none" stroke="black" cx="103.34" cy="-540" rx="61.1" ry="18"/>
<text text-anchor="middle" x="103.34" y="-536.3" font-family="Times,serif" font-size="14.00">ExtractPosition</text>
</g>
<!-- 97ad451c&#45;8513&#45;4f75&#45;818e&#45;8de3c81f2282&#45;&gt;abcfda46&#45;f3b0&#45;4598&#45;9baa&#45;7e344246f482 -->
<g id="edge6" class="edge">
<title>97ad451c&#45;8513&#45;4f75&#45;818e&#45;8de3c81f2282&#45;&gt;abcfda46&#45;f3b0&#45;4598&#45;9baa&#45;7e344246f482</title>
<path fill="none" stroke="purple" d="M103.34,-521.8C103.34,-510.16 103.34,-494.55 103.34,-481.24"/>
<polygon fill="purple" stroke="purple" points="106.84,-481.18 103.34,-471.18 99.84,-481.18 106.84,-481.18"/>
<text text-anchor="middle" x="138.84" y="-492.8" font-family="Times,serif" font-size="14.00" fill="purple">Pass Data</text>
</g>
<!-- 07c488e0&#45;b1fc&#45;435a&#45;b63e&#45;c2bb1e331991 -->
<g id="node9" class="node">
<title>07c488e0&#45;b1fc&#45;435a&#45;b63e&#45;c2bb1e331991</title>
<ellipse fill="none" stroke="black" cx="103.34" cy="-627" rx="27" ry="18"/>
<text text-anchor="middle" x="103.34" y="-623.3" font-family="Times,serif" font-size="14.00">ToVec</text>
</g>
<!-- 07c488e0&#45;b1fc&#45;435a&#45;b63e&#45;c2bb1e331991&#45;&gt;97ad451c&#45;8513&#45;4f75&#45;818e&#45;8de3c81f2282 -->
<g id="edge7" class="edge">
<title>07c488e0&#45;b1fc&#45;435a&#45;b63e&#45;c2bb1e331991&#45;&gt;97ad451c&#45;8513&#45;4f75&#45;818e&#45;8de3c81f2282</title>
<path fill="none" stroke="purple" d="M103.34,-608.8C103.34,-597.16 103.34,-581.55 103.34,-568.24"/>
<polygon fill="purple" stroke="purple" points="106.84,-568.18 103.34,-558.18 99.84,-568.18 106.84,-568.18"/>
<text text-anchor="middle" x="138.84" y="-579.8" font-family="Times,serif" font-size="14.00" fill="purple">Pass Data</text>
</g>
<!-- e7b4e7b1&#45;80bb&#45;4d01&#45;91b8&#45;43130d336986 -->
<g id="node10" class="node">
<title>e7b4e7b1&#45;80bb&#45;4d01&#45;91b8&#45;43130d336986</title>
<ellipse fill="none" stroke="black" cx="103.34" cy="-714" rx="45.2" ry="18"/>
<text text-anchor="middle" x="103.34" y="-710.3" font-family="Times,serif" font-size="14.00">Detect true</text>
</g>
<!-- e7b4e7b1&#45;80bb&#45;4d01&#45;91b8&#45;43130d336986&#45;&gt;07c488e0&#45;b1fc&#45;435a&#45;b63e&#45;c2bb1e331991 -->
<g id="edge8" class="edge">
<title>e7b4e7b1&#45;80bb&#45;4d01&#45;91b8&#45;43130d336986&#45;&gt;07c488e0&#45;b1fc&#45;435a&#45;b63e&#45;c2bb1e331991</title>
<path fill="none" stroke="purple" d="M103.34,-695.8C103.34,-684.16 103.34,-668.55 103.34,-655.24"/>
<polygon fill="purple" stroke="purple" points="106.84,-655.18 103.34,-645.18 99.84,-655.18 106.84,-655.18"/>
<text text-anchor="middle" x="138.84" y="-666.8" font-family="Times,serif" font-size="14.00" fill="purple">Pass Data</text>
</g>
<!-- 173eac92&#45;58e0&#45;4e8b&#45;957a&#45;54e38f100493&#45;&gt;e7b4e7b1&#45;80bb&#45;4d01&#45;91b8&#45;43130d336986 -->
<g id="edge9" class="edge">
<title>173eac92&#45;58e0&#45;4e8b&#45;957a&#45;54e38f100493&#45;&gt;e7b4e7b1&#45;80bb&#45;4d01&#45;91b8&#45;43130d336986</title>
<path fill="none" stroke="purple" d="M103.34,-782.8C103.34,-771.16 103.34,-755.55 103.34,-742.24"/>
<polygon fill="purple" stroke="purple" points="106.84,-742.18 103.34,-732.18 99.84,-742.18 106.84,-742.18"/>
<text text-anchor="middle" x="138.84" y="-753.8" font-family="Times,serif" font-size="14.00" fill="purple">Pass Data</text>
</g>
<!-- b710b676&#45;168c&#45;4467&#45;9029&#45;ed08dceb6f5a -->
<g id="node12" class="node">
<title>b710b676&#45;168c&#45;4467&#45;9029&#45;ed08dceb6f5a</title>
<ellipse fill="none" stroke="black" cx="250.34" cy="-888" rx="47.1" ry="18"/>
<text text-anchor="middle" x="250.34" y="-884.3" font-family="Times,serif" font-size="14.00">DelayAction</text>
</g>
<!-- b710b676&#45;168c&#45;4467&#45;9029&#45;ed08dceb6f5a&#45;&gt;173eac92&#45;58e0&#45;4e8b&#45;957a&#45;54e38f100493 -->
<g id="edge11" class="edge">
<title>b710b676&#45;168c&#45;4467&#45;9029&#45;ed08dceb6f5a&#45;&gt;173eac92&#45;58e0&#45;4e8b&#45;957a&#45;54e38f100493</title>
<path fill="none" stroke="black" d="M225.4,-872.58C201.12,-858.54 164.03,-837.09 137.1,-821.52"/>
<polygon fill="black" stroke="black" points="138.81,-818.47 128.4,-816.49 135.3,-824.53 138.81,-818.47"/>
</g>
<!-- 95d778be&#45;81d8&#45;487c&#45;a486&#45;120f6f839cdf -->
<g id="node13" class="node">
<title>95d778be&#45;81d8&#45;487c&#45;a486&#45;120f6f839cdf</title>
<ellipse fill="none" stroke="black" cx="250.34" cy="-961" rx="59.9" ry="18"/>
<text text-anchor="middle" x="250.34" y="-957.3" font-family="Times,serif" font-size="14.00">ZeroMovement</text>
</g>
<!-- 95d778be&#45;81d8&#45;487c&#45;a486&#45;120f6f839cdf&#45;&gt;b710b676&#45;168c&#45;4467&#45;9029&#45;ed08dceb6f5a -->
<g id="edge12" class="edge">
<title>95d778be&#45;81d8&#45;487c&#45;a486&#45;120f6f839cdf&#45;&gt;b710b676&#45;168c&#45;4467&#45;9029&#45;ed08dceb6f5a</title>
<path fill="none" stroke="black" d="M250.34,-942.81C250.34,-934.79 250.34,-925.05 250.34,-916.07"/>
<polygon fill="black" stroke="black" points="253.84,-916.03 250.34,-906.03 246.84,-916.03 253.84,-916.03"/>
</g>
</g>
</svg>
