<?xml version="1.0" encoding="UTF-8" standalone="no"?>
<!DOCTYPE svg PUBLIC "-//W3C//DTD SVG 1.1//EN"
 "http://www.w3.org/Graphics/SVG/1.1/DTD/svg11.dtd">
<!-- Generated by graphviz version 2.43.0 (0)
 -->
<!-- Title: G Pages: 1 -->
<svg width="249pt" height="276pt"
 viewBox="0.00 0.00 249.00 276.00" xmlns="http://www.w3.org/2000/svg" xmlns:xlink="http://www.w3.org/1999/xlink">
<g id="graph0" class="graph" transform="scale(1 1) rotate(0) translate(4 272)">
<title>G</title>
<polygon fill="transparent" stroke="transparent" points="-4,4 -4,-272 245,-272 245,4 -4,4"/>
<g id="clust1" class="cluster">
<title>cluster_7c264bcb&#45;402d&#45;4969&#45;a867&#45;da203603ab33</title>
<polygon fill="transparent" stroke="blue" stroke-dasharray="5,2" points="8,-64 8,-260 233,-260 233,-64 8,-64"/>
</g>
<!-- 0cc3d480&#45;7702&#45;4f03&#45;8cd6&#45;c29eada52cd4 -->
<g id="node1" class="node">
<title>0cc3d480&#45;7702&#45;4f03&#45;8cd6&#45;c29eada52cd4</title>
<polygon fill="none" stroke="black" stroke-dasharray="5,2" points="169,-252 71,-252 71,-216 169,-216 169,-252"/>
<text text-anchor="middle" x="120" y="-230.3" font-family="Times,serif" font-size="14.00" fill="blue">Concurrent</text>
</g>
<!-- e4af56bd&#45;bdc4&#45;4fd3&#45;8b76&#45;c50a2f9381f0 -->
<g id="node2" class="node">
<title>e4af56bd&#45;bdc4&#45;4fd3&#45;8b76&#45;c50a2f9381f0</title>
<ellipse fill="none" stroke="black" cx="51" cy="-162" rx="34.8" ry="18"/>
<text text-anchor="middle" x="51" y="-158.3" font-family="Times,serif" font-size="14.00">WaitArm</text>
</g>
<!-- 0cc3d480&#45;7702&#45;4f03&#45;8cd6&#45;c29eada52cd4&#45;&gt;e4af56bd&#45;bdc4&#45;4fd3&#45;8b76&#45;c50a2f9381f0 -->
<g id="edge1" class="edge">
<title>0cc3d480&#45;7702&#45;4f03&#45;8cd6&#45;c29eada52cd4&#45;&gt;e4af56bd&#45;bdc4&#45;4fd3&#45;8b76&#45;c50a2f9381f0</title>
<path fill="none" stroke="black" d="M102.94,-215.7C94.13,-206.75 83.25,-195.71 73.73,-186.06"/>
<polygon fill="black" stroke="black" points="75.96,-183.34 66.45,-178.67 70.97,-188.25 75.96,-183.34"/>
</g>
<!-- 78f2d3b7&#45;720f&#45;4b4e&#45;b6e0&#45;7f252d2bc84f -->
<g id="node3" class="node">
<title>78f2d3b7&#45;720f&#45;4b4e&#45;b6e0&#45;7f252d2bc84f</title>
<ellipse fill="none" stroke="black" cx="191" cy="-162" rx="33.6" ry="18"/>
<text text-anchor="middle" x="191" y="-158.3" font-family="Times,serif" font-size="14.00">Descend</text>
</g>
<!-- 0cc3d480&#45;7702&#45;4f03&#45;8cd6&#45;c29eada52cd4&#45;&gt;78f2d3b7&#45;720f&#45;4b4e&#45;b6e0&#45;7f252d2bc84f -->
<g id="edge2" class="edge">
<title>0cc3d480&#45;7702&#45;4f03&#45;8cd6&#45;c29eada52cd4&#45;&gt;78f2d3b7&#45;720f&#45;4b4e&#45;b6e0&#45;7f252d2bc84f</title>
<path fill="none" stroke="black" d="M137.55,-215.7C146.84,-206.53 158.36,-195.18 168.33,-185.35"/>
<polygon fill="black" stroke="black" points="170.92,-187.72 175.58,-178.2 166,-182.73 170.92,-187.72"/>
</g>
<!-- 52cde754&#45;8d4b&#45;43e3&#45;a002&#45;ce99300cda4c -->
<g id="node4" class="node">
<title>52cde754&#45;8d4b&#45;43e3&#45;a002&#45;ce99300cda4c</title>
<polygon fill="none" stroke="black" stroke-dasharray="5,2" points="162.5,-108 77.5,-108 77.5,-72 162.5,-72 162.5,-108"/>
<text text-anchor="middle" x="120" y="-86.3" font-family="Times,serif" font-size="14.00" fill="blue">Converge</text>
</g>
<!-- e4af56bd&#45;bdc4&#45;4fd3&#45;8b76&#45;c50a2f9381f0&#45;&gt;52cde754&#45;8d4b&#45;43e3&#45;a002&#45;ce99300cda4c -->
<g id="edge3" class="edge">
<title>e4af56bd&#45;bdc4&#45;4fd3&#45;8b76&#45;c50a2f9381f0&#45;&gt;52cde754&#45;8d4b&#45;43e3&#45;a002&#45;ce99300cda4c</title>
<path fill="none" stroke="black" d="M66.31,-145.46C74.92,-136.73 85.86,-125.63 95.62,-115.74"/>
<polygon fill="black" stroke="black" points="98.26,-118.04 102.79,-108.46 93.28,-113.13 98.26,-118.04"/>
</g>
<!-- 78f2d3b7&#45;720f&#45;4b4e&#45;b6e0&#45;7f252d2bc84f&#45;&gt;52cde754&#45;8d4b&#45;43e3&#45;a002&#45;ce99300cda4c -->
<g id="edge4" class="edge">
<title>78f2d3b7&#45;720f&#45;4b4e&#45;b6e0&#45;7f252d2bc84f&#45;&gt;52cde754&#45;8d4b&#45;43e3&#45;a002&#45;ce99300cda4c</title>
<path fill="none" stroke="black" d="M175.59,-145.81C166.54,-136.88 154.88,-125.38 144.57,-115.23"/>
<polygon fill="black" stroke="black" points="146.95,-112.66 137.37,-108.13 142.04,-117.64 146.95,-112.66"/>
</g>
<!-- 94a07baf&#45;e861&#45;4045&#45;ad1c&#45;6c25a1b8a11a -->
<g id="node5" class="node">
<title>94a07baf&#45;e861&#45;4045&#45;ad1c&#45;6c25a1b8a11a</title>
<ellipse fill="none" stroke="black" cx="120" cy="-18" rx="34.8" ry="18"/>
<text text-anchor="middle" x="120" y="-14.3" font-family="Times,serif" font-size="14.00">WaitArm</text>
</g>
<!-- 52cde754&#45;8d4b&#45;43e3&#45;a002&#45;ce99300cda4c&#45;&gt;94a07baf&#45;e861&#45;4045&#45;ad1c&#45;6c25a1b8a11a -->
<g id="edge5" class="edge">
<title>52cde754&#45;8d4b&#45;43e3&#45;a002&#45;ce99300cda4c&#45;&gt;94a07baf&#45;e861&#45;4045&#45;ad1c&#45;6c25a1b8a11a</title>
<path fill="none" stroke="black" d="M120,-71.7C120,-63.98 120,-54.71 120,-46.11"/>
<polygon fill="black" stroke="black" points="123.5,-46.1 120,-36.1 116.5,-46.1 123.5,-46.1"/>
</g>
</g>
</svg>
