<?xml version="1.0" encoding="UTF-8" standalone="no"?>
<!DOCTYPE svg PUBLIC "-//W3C//DTD SVG 1.1//EN"
 "http://www.w3.org/Graphics/SVG/1.1/DTD/svg11.dtd">
<!-- Generated by graphviz version 2.43.0 (0)
 -->
<!-- Title: G Pages: 1 -->
<svg width="249pt" height="276pt"
 viewBox="0.00 0.00 249.00 276.00" xmlns="http://www.w3.org/2000/svg" xmlns:xlink="http://www.w3.org/1999/xlink">
<g id="graph0" class="graph" transform="scale(1 1) rotate(0) translate(4 272)">
<title>G</title>
<polygon fill="transparent" stroke="transparent" points="-4,4 -4,-272 245,-272 245,4 -4,4"/>
<g id="clust1" class="cluster">
<title>cluster_026d316e&#45;d3a9&#45;42d0&#45;b643&#45;e2955a6d7b85</title>
<polygon fill="transparent" stroke="blue" stroke-dasharray="5,2" points="8,-64 8,-260 233,-260 233,-64 8,-64"/>
</g>
<!-- 9f2fc101&#45;4a03&#45;42a3&#45;8fc0&#45;e3d3da051be0 -->
<g id="node1" class="node">
<title>9f2fc101&#45;4a03&#45;42a3&#45;8fc0&#45;e3d3da051be0</title>
<polygon fill="none" stroke="black" stroke-dasharray="5,2" points="169,-252 71,-252 71,-216 169,-216 169,-252"/>
<text text-anchor="middle" x="120" y="-230.3" font-family="Times,serif" font-size="14.00" fill="blue">Concurrent</text>
</g>
<!-- 253a4001&#45;1ea1&#45;43be&#45;9252&#45;86eee41e98e0 -->
<g id="node2" class="node">
<title>253a4001&#45;1ea1&#45;43be&#45;9252&#45;86eee41e98e0</title>
<ellipse fill="none" stroke="black" cx="51" cy="-162" rx="34.8" ry="18"/>
<text text-anchor="middle" x="51" y="-158.3" font-family="Times,serif" font-size="14.00">WaitArm</text>
</g>
<!-- 9f2fc101&#45;4a03&#45;42a3&#45;8fc0&#45;e3d3da051be0&#45;&gt;253a4001&#45;1ea1&#45;43be&#45;9252&#45;86eee41e98e0 -->
<g id="edge1" class="edge">
<title>9f2fc101&#45;4a03&#45;42a3&#45;8fc0&#45;e3d3da051be0&#45;&gt;253a4001&#45;1ea1&#45;43be&#45;9252&#45;86eee41e98e0</title>
<path fill="none" stroke="black" d="M102.94,-215.7C94.13,-206.75 83.25,-195.71 73.73,-186.06"/>
<polygon fill="black" stroke="black" points="75.96,-183.34 66.45,-178.67 70.97,-188.25 75.96,-183.34"/>
</g>
<!-- 887d0111&#45;d3ec&#45;4d21&#45;ae38&#45;f4823866f6bf -->
<g id="node3" class="node">
<title>887d0111&#45;d3ec&#45;4d21&#45;ae38&#45;f4823866f6bf</title>
<ellipse fill="none" stroke="black" cx="191" cy="-162" rx="33.6" ry="18"/>
<text text-anchor="middle" x="191" y="-158.3" font-family="Times,serif" font-size="14.00">Descend</text>
</g>
<!-- 9f2fc101&#45;4a03&#45;42a3&#45;8fc0&#45;e3d3da051be0&#45;&gt;887d0111&#45;d3ec&#45;4d21&#45;ae38&#45;f4823866f6bf -->
<g id="edge2" class="edge">
<title>9f2fc101&#45;4a03&#45;42a3&#45;8fc0&#45;e3d3da051be0&#45;&gt;887d0111&#45;d3ec&#45;4d21&#45;ae38&#45;f4823866f6bf</title>
<path fill="none" stroke="black" d="M137.55,-215.7C146.84,-206.53 158.36,-195.18 168.33,-185.35"/>
<polygon fill="black" stroke="black" points="170.92,-187.72 175.58,-178.2 166,-182.73 170.92,-187.72"/>
</g>
<!-- 45a27d1d&#45;dbbf&#45;4ae4&#45;bae2&#45;652c722a5c61 -->
<g id="node4" class="node">
<title>45a27d1d&#45;dbbf&#45;4ae4&#45;bae2&#45;652c722a5c61</title>
<polygon fill="none" stroke="black" stroke-dasharray="5,2" points="162.5,-108 77.5,-108 77.5,-72 162.5,-72 162.5,-108"/>
<text text-anchor="middle" x="120" y="-86.3" font-family="Times,serif" font-size="14.00" fill="blue">Converge</text>
</g>
<!-- 253a4001&#45;1ea1&#45;43be&#45;9252&#45;86eee41e98e0&#45;&gt;45a27d1d&#45;dbbf&#45;4ae4&#45;bae2&#45;652c722a5c61 -->
<g id="edge3" class="edge">
<title>253a4001&#45;1ea1&#45;43be&#45;9252&#45;86eee41e98e0&#45;&gt;45a27d1d&#45;dbbf&#45;4ae4&#45;bae2&#45;652c722a5c61</title>
<path fill="none" stroke="black" d="M66.31,-145.46C74.92,-136.73 85.86,-125.63 95.62,-115.74"/>
<polygon fill="black" stroke="black" points="98.26,-118.04 102.79,-108.46 93.28,-113.13 98.26,-118.04"/>
</g>
<!-- 887d0111&#45;d3ec&#45;4d21&#45;ae38&#45;f4823866f6bf&#45;&gt;45a27d1d&#45;dbbf&#45;4ae4&#45;bae2&#45;652c722a5c61 -->
<g id="edge4" class="edge">
<title>887d0111&#45;d3ec&#45;4d21&#45;ae38&#45;f4823866f6bf&#45;&gt;45a27d1d&#45;dbbf&#45;4ae4&#45;bae2&#45;652c722a5c61</title>
<path fill="none" stroke="black" d="M175.59,-145.81C166.54,-136.88 154.88,-125.38 144.57,-115.23"/>
<polygon fill="black" stroke="black" points="146.95,-112.66 137.37,-108.13 142.04,-117.64 146.95,-112.66"/>
</g>
<!-- 3738bd2b&#45;cb45&#45;4373&#45;b44c&#45;e94adaa72462 -->
<g id="node5" class="node">
<title>3738bd2b&#45;cb45&#45;4373&#45;b44c&#45;e94adaa72462</title>
<ellipse fill="none" stroke="black" cx="120" cy="-18" rx="34.8" ry="18"/>
<text text-anchor="middle" x="120" y="-14.3" font-family="Times,serif" font-size="14.00">WaitArm</text>
</g>
<!-- 45a27d1d&#45;dbbf&#45;4ae4&#45;bae2&#45;652c722a5c61&#45;&gt;3738bd2b&#45;cb45&#45;4373&#45;b44c&#45;e94adaa72462 -->
<g id="edge5" class="edge">
<title>45a27d1d&#45;dbbf&#45;4ae4&#45;bae2&#45;652c722a5c61&#45;&gt;3738bd2b&#45;cb45&#45;4373&#45;b44c&#45;e94adaa72462</title>
<path fill="none" stroke="black" d="M120,-71.7C120,-63.98 120,-54.71 120,-46.11"/>
<polygon fill="black" stroke="black" points="123.5,-46.1 120,-36.1 116.5,-46.1 123.5,-46.1"/>
</g>
</g>
</svg>
