<?xml version="1.0" encoding="UTF-8" standalone="no"?>
<!DOCTYPE svg PUBLIC "-//W3C//DTD SVG 1.1//EN"
 "http://www.w3.org/Graphics/SVG/1.1/DTD/svg11.dtd">
<!-- Generated by graphviz version 2.43.0 (0)
 -->
<!-- Title: G Pages: 1 -->
<svg width="788pt" height="276pt"
 viewBox="0.00 0.00 788.00 276.00" xmlns="http://www.w3.org/2000/svg" xmlns:xlink="http://www.w3.org/1999/xlink">
<g id="graph0" class="graph" transform="scale(1 1) rotate(0) translate(4 272)">
<title>G</title>
<polygon fill="transparent" stroke="transparent" points="-4,4 -4,-272 784,-272 784,4 -4,4"/>
<g id="clust1" class="cluster">
<title>cluster_4054bc91&#45;7e00&#45;4a39&#45;8f0a&#45;1f50740aa471</title>
<polygon fill="transparent" stroke="red" stroke-dasharray="5,2" points="8,-64 8,-260 772,-260 772,-64 8,-64"/>
</g>
<!-- c626d095&#45;abfe&#45;4861&#45;a0c1&#45;436e1e2178ef -->
<g id="node1" class="node">
<title>c626d095&#45;abfe&#45;4861&#45;a0c1&#45;436e1e2178ef</title>
<polygon fill="none" stroke="black" stroke-dasharray="5,2" points="417,-252 363,-252 363,-216 417,-216 417,-252"/>
<text text-anchor="middle" x="390" y="-230.3" font-family="Times,serif" font-size="14.00" fill="red">Race</text>
</g>
<!-- b3f1b282&#45;a294&#45;4a9c&#45;a7aa&#45;cf2dfd9d4825 -->
<g id="node2" class="node">
<title>b3f1b282&#45;a294&#45;4a9c&#45;a7aa&#45;cf2dfd9d4825</title>
<ellipse fill="none" stroke="black" cx="62" cy="-162" rx="46.4" ry="18"/>
<text text-anchor="middle" x="62" y="-158.3" font-family="Times,serif" font-size="14.00">AlwaysTrue</text>
</g>
<!-- c626d095&#45;abfe&#45;4861&#45;a0c1&#45;436e1e2178ef&#45;&gt;b3f1b282&#45;a294&#45;4a9c&#45;a7aa&#45;cf2dfd9d4825 -->
<g id="edge1" class="edge">
<title>c626d095&#45;abfe&#45;4861&#45;a0c1&#45;436e1e2178ef&#45;&gt;b3f1b282&#45;a294&#45;4a9c&#45;a7aa&#45;cf2dfd9d4825</title>
<path fill="none" stroke="black" d="M362.88,-227.21C307.73,-215.44 181.79,-188.57 111.59,-173.58"/>
<polygon fill="black" stroke="black" points="112.16,-170.13 101.65,-171.46 110.7,-176.97 112.16,-170.13"/>
</g>
<!-- 62bb57f4&#45;0340&#45;4007&#45;bbb6&#45;1e3b8d084b26 -->
<g id="node3" class="node">
<title>62bb57f4&#45;0340&#45;4007&#45;bbb6&#45;1e3b8d084b26</title>
<ellipse fill="none" stroke="black" cx="226" cy="-162" rx="46.4" ry="18"/>
<text text-anchor="middle" x="226" y="-158.3" font-family="Times,serif" font-size="14.00">AlwaysTrue</text>
</g>
<!-- c626d095&#45;abfe&#45;4861&#45;a0c1&#45;436e1e2178ef&#45;&gt;62bb57f4&#45;0340&#45;4007&#45;bbb6&#45;1e3b8d084b26 -->
<g id="edge2" class="edge">
<title>c626d095&#45;abfe&#45;4861&#45;a0c1&#45;436e1e2178ef&#45;&gt;62bb57f4&#45;0340&#45;4007&#45;bbb6&#45;1e3b8d084b26</title>
<path fill="none" stroke="black" d="M362.92,-221.44C336.32,-210.09 295.45,-192.65 265.29,-179.77"/>
<polygon fill="black" stroke="black" points="266.47,-176.47 255.9,-175.76 263.72,-182.91 266.47,-176.47"/>
</g>
<!-- ba2b1910&#45;6fd0&#45;41c6&#45;a38f&#45;581c0f184e48 -->
<g id="node4" class="node">
<title>ba2b1910&#45;6fd0&#45;41c6&#45;a38f&#45;581c0f184e48</title>
<ellipse fill="none" stroke="black" cx="390" cy="-162" rx="46.4" ry="18"/>
<text text-anchor="middle" x="390" y="-158.3" font-family="Times,serif" font-size="14.00">AlwaysTrue</text>
</g>
<!-- c626d095&#45;abfe&#45;4861&#45;a0c1&#45;436e1e2178ef&#45;&gt;ba2b1910&#45;6fd0&#45;41c6&#45;a38f&#45;581c0f184e48 -->
<g id="edge3" class="edge">
<title>c626d095&#45;abfe&#45;4861&#45;a0c1&#45;436e1e2178ef&#45;&gt;ba2b1910&#45;6fd0&#45;41c6&#45;a38f&#45;581c0f184e48</title>
<path fill="none" stroke="black" d="M390,-215.7C390,-207.98 390,-198.71 390,-190.11"/>
<polygon fill="black" stroke="black" points="393.5,-190.1 390,-180.1 386.5,-190.1 393.5,-190.1"/>
</g>
<!-- e7da4ba0&#45;750b&#45;4442&#45;a0ce&#45;63a55e2a31a9 -->
<g id="node5" class="node">
<title>e7da4ba0&#45;750b&#45;4442&#45;a0ce&#45;63a55e2a31a9</title>
<ellipse fill="none" stroke="black" cx="554" cy="-162" rx="46.4" ry="18"/>
<text text-anchor="middle" x="554" y="-158.3" font-family="Times,serif" font-size="14.00">AlwaysTrue</text>
</g>
<!-- c626d095&#45;abfe&#45;4861&#45;a0c1&#45;436e1e2178ef&#45;&gt;e7da4ba0&#45;750b&#45;4442&#45;a0ce&#45;63a55e2a31a9 -->
<g id="edge4" class="edge">
<title>c626d095&#45;abfe&#45;4861&#45;a0c1&#45;436e1e2178ef&#45;&gt;e7da4ba0&#45;750b&#45;4442&#45;a0ce&#45;63a55e2a31a9</title>
<path fill="none" stroke="black" d="M417.08,-221.44C443.68,-210.09 484.55,-192.65 514.71,-179.77"/>
<polygon fill="black" stroke="black" points="516.28,-182.91 524.1,-175.76 513.53,-176.47 516.28,-182.91"/>
</g>
<!-- 62600bfe&#45;cdac&#45;4084&#45;9956&#45;7b776beb97a7 -->
<g id="node6" class="node">
<title>62600bfe&#45;cdac&#45;4084&#45;9956&#45;7b776beb97a7</title>
<ellipse fill="none" stroke="black" cx="718" cy="-162" rx="46.4" ry="18"/>
<text text-anchor="middle" x="718" y="-158.3" font-family="Times,serif" font-size="14.00">AlwaysTrue</text>
</g>
<!-- c626d095&#45;abfe&#45;4861&#45;a0c1&#45;436e1e2178ef&#45;&gt;62600bfe&#45;cdac&#45;4084&#45;9956&#45;7b776beb97a7 -->
<g id="edge5" class="edge">
<title>c626d095&#45;abfe&#45;4861&#45;a0c1&#45;436e1e2178ef&#45;&gt;62600bfe&#45;cdac&#45;4084&#45;9956&#45;7b776beb97a7</title>
<path fill="none" stroke="black" d="M417.12,-227.21C472.27,-215.44 598.21,-188.57 668.41,-173.58"/>
<polygon fill="black" stroke="black" points="669.3,-176.97 678.35,-171.46 667.84,-170.13 669.3,-176.97"/>
</g>
<!-- bda6f8be&#45;9846&#45;4c33&#45;ae3f&#45;560b96475d26 -->
<g id="node7" class="node">
<title>bda6f8be&#45;9846&#45;4c33&#45;ae3f&#45;560b96475d26</title>
<polygon fill="none" stroke="black" stroke-dasharray="5,2" points="426,-108 354,-108 354,-72 426,-72 426,-108"/>
<text text-anchor="middle" x="390" y="-86.3" font-family="Times,serif" font-size="14.00" fill="red">Resolve</text>
</g>
<!-- b3f1b282&#45;a294&#45;4a9c&#45;a7aa&#45;cf2dfd9d4825&#45;&gt;bda6f8be&#45;9846&#45;4c33&#45;ae3f&#45;560b96475d26 -->
<g id="edge6" class="edge">
<title>b3f1b282&#45;a294&#45;4a9c&#45;a7aa&#45;cf2dfd9d4825&#45;&gt;bda6f8be&#45;9846&#45;4c33&#45;ae3f&#45;560b96475d26</title>
<path fill="none" stroke="black" d="M101.56,-152.56C162.54,-139.54 279.18,-114.65 343.89,-100.84"/>
<polygon fill="black" stroke="black" points="344.76,-104.23 353.81,-98.72 343.3,-97.39 344.76,-104.23"/>
</g>
<!-- 62bb57f4&#45;0340&#45;4007&#45;bbb6&#45;1e3b8d084b26&#45;&gt;bda6f8be&#45;9846&#45;4c33&#45;ae3f&#45;560b96475d26 -->
<g id="edge7" class="edge">
<title>62bb57f4&#45;0340&#45;4007&#45;bbb6&#45;1e3b8d084b26&#45;&gt;bda6f8be&#45;9846&#45;4c33&#45;ae3f&#45;560b96475d26</title>
<path fill="none" stroke="black" d="M256.08,-148.16C280.84,-137.59 316.32,-122.45 344.55,-110.4"/>
<polygon fill="black" stroke="black" points="345.99,-113.59 353.81,-106.45 343.24,-107.15 345.99,-113.59"/>
</g>
<!-- ba2b1910&#45;6fd0&#45;41c6&#45;a38f&#45;581c0f184e48&#45;&gt;bda6f8be&#45;9846&#45;4c33&#45;ae3f&#45;560b96475d26 -->
<g id="edge8" class="edge">
<title>ba2b1910&#45;6fd0&#45;41c6&#45;a38f&#45;581c0f184e48&#45;&gt;bda6f8be&#45;9846&#45;4c33&#45;ae3f&#45;560b96475d26</title>
<path fill="none" stroke="black" d="M390,-143.7C390,-135.98 390,-126.71 390,-118.11"/>
<polygon fill="black" stroke="black" points="393.5,-118.1 390,-108.1 386.5,-118.1 393.5,-118.1"/>
</g>
<!-- e7da4ba0&#45;750b&#45;4442&#45;a0ce&#45;63a55e2a31a9&#45;&gt;bda6f8be&#45;9846&#45;4c33&#45;ae3f&#45;560b96475d26 -->
<g id="edge9" class="edge">
<title>e7da4ba0&#45;750b&#45;4442&#45;a0ce&#45;63a55e2a31a9&#45;&gt;bda6f8be&#45;9846&#45;4c33&#45;ae3f&#45;560b96475d26</title>
<path fill="none" stroke="black" d="M523.92,-148.16C499.16,-137.59 463.68,-122.45 435.45,-110.4"/>
<polygon fill="black" stroke="black" points="436.76,-107.15 426.19,-106.45 434.01,-113.59 436.76,-107.15"/>
</g>
<!-- 62600bfe&#45;cdac&#45;4084&#45;9956&#45;7b776beb97a7&#45;&gt;bda6f8be&#45;9846&#45;4c33&#45;ae3f&#45;560b96475d26 -->
<g id="edge10" class="edge">
<title>62600bfe&#45;cdac&#45;4084&#45;9956&#45;7b776beb97a7&#45;&gt;bda6f8be&#45;9846&#45;4c33&#45;ae3f&#45;560b96475d26</title>
<path fill="none" stroke="black" d="M678.44,-152.56C617.46,-139.54 500.82,-114.65 436.11,-100.84"/>
<polygon fill="black" stroke="black" points="436.7,-97.39 426.19,-98.72 435.24,-104.23 436.7,-97.39"/>
</g>
<!-- 40ee5c56&#45;a73d&#45;4c52&#45;83c4&#45;d37e3542a11a -->
<g id="node8" class="node">
<title>40ee5c56&#45;a73d&#45;4c52&#45;83c4&#45;d37e3542a11a</title>
<ellipse fill="none" stroke="black" cx="390" cy="-18" rx="46.4" ry="18"/>
<text text-anchor="middle" x="390" y="-14.3" font-family="Times,serif" font-size="14.00">AlwaysTrue</text>
</g>
<!-- bda6f8be&#45;9846&#45;4c33&#45;ae3f&#45;560b96475d26&#45;&gt;40ee5c56&#45;a73d&#45;4c52&#45;83c4&#45;d37e3542a11a -->
<g id="edge11" class="edge">
<title>bda6f8be&#45;9846&#45;4c33&#45;ae3f&#45;560b96475d26&#45;&gt;40ee5c56&#45;a73d&#45;4c52&#45;83c4&#45;d37e3542a11a</title>
<path fill="none" stroke="black" d="M390,-71.7C390,-63.98 390,-54.71 390,-46.11"/>
<polygon fill="black" stroke="black" points="393.5,-46.1 390,-36.1 386.5,-46.1 393.5,-46.1"/>
</g>
</g>
</svg>
