<?xml version="1.0" encoding="UTF-8" standalone="no"?>
<!DOCTYPE svg PUBLIC "-//W3C//DTD SVG 1.1//EN"
 "http://www.w3.org/Graphics/SVG/1.1/DTD/svg11.dtd">
<!-- Generated by graphviz version 2.43.0 (0)
 -->
<!-- Title: G Pages: 1 -->
<svg width="318pt" height="987pt"
 viewBox="0.00 0.00 318.29 987.00" xmlns="http://www.w3.org/2000/svg" xmlns:xlink="http://www.w3.org/1999/xlink">
<g id="graph0" class="graph" transform="scale(1 1) rotate(0) translate(4 983)">
<title>G</title>
<polygon fill="transparent" stroke="transparent" points="-4,4 -4,-983 314.29,-983 314.29,4 -4,4"/>
<!-- d3c07d33&#45;0543&#45;40cf&#45;aa74&#45;c53897d82cd0 -->
<g id="node1" class="node">
<title>d3c07d33&#45;0543&#45;40cf&#45;aa74&#45;c53897d82cd0</title>
<polygon fill="none" stroke="black" points="65.34,-906 0.16,-888 65.34,-870 130.52,-888 65.34,-906"/>
<text text-anchor="middle" x="65.34" y="-884.3" font-family="Times,serif" font-size="14.00">AlwaysTrue</text>
</g>
<!-- a8843860&#45;bf19&#45;4425&#45;b0b3&#45;209cd6afa3d5 -->
<g id="node11" class="node">
<title>a8843860&#45;bf19&#45;4425&#45;b0b3&#45;209cd6afa3d5</title>
<ellipse fill="none" stroke="black" cx="103.34" cy="-801" rx="46.5" ry="18"/>
<text text-anchor="middle" x="103.34" y="-797.3" font-family="Times,serif" font-size="14.00">VisionNorm</text>
</g>
<!-- d3c07d33&#45;0543&#45;40cf&#45;aa74&#45;c53897d82cd0&#45;&gt;a8843860&#45;bf19&#45;4425&#45;b0b3&#45;209cd6afa3d5 -->
<g id="edge10" class="edge">
<title>d3c07d33&#45;0543&#45;40cf&#45;aa74&#45;c53897d82cd0&#45;&gt;a8843860&#45;bf19&#45;4425&#45;b0b3&#45;209cd6afa3d5</title>
<path fill="none" stroke="black" d="M72.13,-871.8C77.54,-859.7 85.25,-842.47 91.65,-828.16"/>
<polygon fill="black" stroke="black" points="94.94,-829.37 95.82,-818.81 88.55,-826.51 94.94,-829.37"/>
<text text-anchor="middle" x="104.34" y="-840.8" font-family="Times,serif" font-size="14.00">True</text>
</g>
<!-- d925a248&#45;ab53&#45;4007&#45;92c2&#45;39bb20104b6a -->
<g id="node2" class="node">
<title>d925a248&#45;ab53&#45;4007&#45;92c2&#45;39bb20104b6a</title>
<ellipse fill="none" stroke="black" cx="103.34" cy="-105" rx="27" ry="18"/>
<text text-anchor="middle" x="103.34" y="-101.3" font-family="Times,serif" font-size="14.00">FlatX</text>
</g>
<!-- faea05e2&#45;599d&#45;4c59&#45;ab1d&#45;a65938baec1e -->
<g id="node3" class="node">
<title>faea05e2&#45;599d&#45;4c59&#45;ab1d&#45;a65938baec1e</title>
<ellipse fill="none" stroke="black" cx="103.34" cy="-18" rx="80.11" ry="18"/>
<text text-anchor="middle" x="103.34" y="-14.3" font-family="Times,serif" font-size="14.00">Stability2Movement</text>
</g>
<!-- d925a248&#45;ab53&#45;4007&#45;92c2&#45;39bb20104b6a&#45;&gt;faea05e2&#45;599d&#45;4c59&#45;ab1d&#45;a65938baec1e -->
<g id="edge1" class="edge">
<title>d925a248&#45;ab53&#45;4007&#45;92c2&#45;39bb20104b6a&#45;&gt;faea05e2&#45;599d&#45;4c59&#45;ab1d&#45;a65938baec1e</title>
<path fill="none" stroke="purple" d="M103.34,-86.8C103.34,-75.16 103.34,-59.55 103.34,-46.24"/>
<polygon fill="purple" stroke="purple" points="106.84,-46.18 103.34,-36.18 99.84,-46.18 106.84,-46.18"/>
<text text-anchor="middle" x="138.84" y="-57.8" font-family="Times,serif" font-size="14.00" fill="purple">Pass Data</text>
</g>
<!-- bc795749&#45;08af&#45;4338&#45;a236&#45;31c26ba293b1 -->
<g id="node4" class="node">
<title>bc795749&#45;08af&#45;4338&#45;a236&#45;31c26ba293b1</title>
<ellipse fill="none" stroke="black" cx="103.34" cy="-192" rx="27" ry="18"/>
<text text-anchor="middle" x="103.34" y="-188.3" font-family="Times,serif" font-size="14.00">StripY</text>
</g>
<!-- bc795749&#45;08af&#45;4338&#45;a236&#45;31c26ba293b1&#45;&gt;d925a248&#45;ab53&#45;4007&#45;92c2&#45;39bb20104b6a -->
<g id="edge2" class="edge">
<title>bc795749&#45;08af&#45;4338&#45;a236&#45;31c26ba293b1&#45;&gt;d925a248&#45;ab53&#45;4007&#45;92c2&#45;39bb20104b6a</title>
<path fill="none" stroke="purple" d="M103.34,-173.8C103.34,-162.16 103.34,-146.55 103.34,-133.24"/>
<polygon fill="purple" stroke="purple" points="106.84,-133.18 103.34,-123.18 99.84,-133.18 106.84,-133.18"/>
<text text-anchor="middle" x="138.84" y="-144.8" font-family="Times,serif" font-size="14.00" fill="purple">Pass Data</text>
</g>
<!-- 84276bc3&#45;d76b&#45;4c7c&#45;afa5&#45;233376541880 -->
<g id="node5" class="node">
<title>84276bc3&#45;d76b&#45;4c7c&#45;afa5&#45;233376541880</title>
<ellipse fill="none" stroke="black" cx="103.34" cy="-279" rx="52.6" ry="18"/>
<text text-anchor="middle" x="103.34" y="-275.3" font-family="Times,serif" font-size="14.00">Anon Closure</text>
</g>
<!-- 84276bc3&#45;d76b&#45;4c7c&#45;afa5&#45;233376541880&#45;&gt;bc795749&#45;08af&#45;4338&#45;a236&#45;31c26ba293b1 -->
<g id="edge3" class="edge">
<title>84276bc3&#45;d76b&#45;4c7c&#45;afa5&#45;233376541880&#45;&gt;bc795749&#45;08af&#45;4338&#45;a236&#45;31c26ba293b1</title>
<path fill="none" stroke="purple" d="M103.34,-260.8C103.34,-249.16 103.34,-233.55 103.34,-220.24"/>
<polygon fill="purple" stroke="purple" points="106.84,-220.18 103.34,-210.18 99.84,-220.18 106.84,-220.18"/>
<text text-anchor="middle" x="138.84" y="-231.8" font-family="Times,serif" font-size="14.00" fill="purple">Pass Data</text>
</g>
<!-- 1451c384&#45;182e&#45;4c0c&#45;98fb&#45;4534566bd16a -->
<g id="node6" class="node">
<title>1451c384&#45;182e&#45;4c0c&#45;98fb&#45;4534566bd16a</title>
<ellipse fill="none" stroke="black" cx="103.34" cy="-366" rx="51.3" ry="18"/>
<text text-anchor="middle" x="103.34" y="-362.3" font-family="Times,serif" font-size="14.00">OffsetToPose</text>
</g>
<!-- 1451c384&#45;182e&#45;4c0c&#45;98fb&#45;4534566bd16a&#45;&gt;84276bc3&#45;d76b&#45;4c7c&#45;afa5&#45;233376541880 -->
<g id="edge4" class="edge">
<title>1451c384&#45;182e&#45;4c0c&#45;98fb&#45;4534566bd16a&#45;&gt;84276bc3&#45;d76b&#45;4c7c&#45;afa5&#45;233376541880</title>
<path fill="none" stroke="purple" d="M103.34,-347.8C103.34,-336.16 103.34,-320.55 103.34,-307.24"/>
<polygon fill="purple" stroke="purple" points="106.84,-307.18 103.34,-297.18 99.84,-307.18 106.84,-307.18"/>
<text text-anchor="middle" x="138.84" y="-318.8" font-family="Times,serif" font-size="14.00" fill="purple">Pass Data</text>
</g>
<!-- 8bed5b32&#45;ae2a&#45;4977&#45;802d&#45;2bd8b4ef80c3 -->
<g id="node7" class="node">
<title>8bed5b32&#45;ae2a&#45;4977&#45;802d&#45;2bd8b4ef80c3</title>
<ellipse fill="none" stroke="black" cx="103.34" cy="-453" rx="32.4" ry="18"/>
<text text-anchor="middle" x="103.34" y="-449.3" font-family="Times,serif" font-size="14.00">Average</text>
</g>
<!-- 8bed5b32&#45;ae2a&#45;4977&#45;802d&#45;2bd8b4ef80c3&#45;&gt;1451c384&#45;182e&#45;4c0c&#45;98fb&#45;4534566bd16a -->
<g id="edge5" class="edge">
<title>8bed5b32&#45;ae2a&#45;4977&#45;802d&#45;2bd8b4ef80c3&#45;&gt;1451c384&#45;182e&#45;4c0c&#45;98fb&#45;4534566bd16a</title>
<path fill="none" stroke="purple" d="M103.34,-434.8C103.34,-423.16 103.34,-407.55 103.34,-394.24"/>
<polygon fill="purple" stroke="purple" points="106.84,-394.18 103.34,-384.18 99.84,-394.18 106.84,-394.18"/>
<text text-anchor="middle" x="138.84" y="-405.8" font-family="Times,serif" font-size="14.00" fill="purple">Pass Data</text>
</g>
<!-- 03e1e584&#45;a8e6&#45;4ca8&#45;81bd&#45;2968496c4c86 -->
<g id="node8" class="node">
<title>03e1e584&#45;a8e6&#45;4ca8&#45;81bd&#45;2968496c4c86</title>
<ellipse fill="none" stroke="black" cx="103.34" cy="-540" rx="61.1" ry="18"/>
<text text-anchor="middle" x="103.34" y="-536.3" font-family="Times,serif" font-size="14.00">ExtractPosition</text>
</g>
<!-- 03e1e584&#45;a8e6&#45;4ca8&#45;81bd&#45;2968496c4c86&#45;&gt;8bed5b32&#45;ae2a&#45;4977&#45;802d&#45;2bd8b4ef80c3 -->
<g id="edge6" class="edge">
<title>03e1e584&#45;a8e6&#45;4ca8&#45;81bd&#45;2968496c4c86&#45;&gt;8bed5b32&#45;ae2a&#45;4977&#45;802d&#45;2bd8b4ef80c3</title>
<path fill="none" stroke="purple" d="M103.34,-521.8C103.34,-510.16 103.34,-494.55 103.34,-481.24"/>
<polygon fill="purple" stroke="purple" points="106.84,-481.18 103.34,-471.18 99.84,-481.18 106.84,-481.18"/>
<text text-anchor="middle" x="138.84" y="-492.8" font-family="Times,serif" font-size="14.00" fill="purple">Pass Data</text>
</g>
<!-- 715268cb&#45;3a06&#45;489a&#45;a03c&#45;7ec57acc48e2 -->
<g id="node9" class="node">
<title>715268cb&#45;3a06&#45;489a&#45;a03c&#45;7ec57acc48e2</title>
<ellipse fill="none" stroke="black" cx="103.34" cy="-627" rx="27" ry="18"/>
<text text-anchor="middle" x="103.34" y="-623.3" font-family="Times,serif" font-size="14.00">ToVec</text>
</g>
<!-- 715268cb&#45;3a06&#45;489a&#45;a03c&#45;7ec57acc48e2&#45;&gt;03e1e584&#45;a8e6&#45;4ca8&#45;81bd&#45;2968496c4c86 -->
<g id="edge7" class="edge">
<title>715268cb&#45;3a06&#45;489a&#45;a03c&#45;7ec57acc48e2&#45;&gt;03e1e584&#45;a8e6&#45;4ca8&#45;81bd&#45;2968496c4c86</title>
<path fill="none" stroke="purple" d="M103.34,-608.8C103.34,-597.16 103.34,-581.55 103.34,-568.24"/>
<polygon fill="purple" stroke="purple" points="106.84,-568.18 103.34,-558.18 99.84,-568.18 106.84,-568.18"/>
<text text-anchor="middle" x="138.84" y="-579.8" font-family="Times,serif" font-size="14.00" fill="purple">Pass Data</text>
</g>
<!-- a620f4d6&#45;46dc&#45;4324&#45;bbbd&#45;eb2a7fd185ca -->
<g id="node10" class="node">
<title>a620f4d6&#45;46dc&#45;4324&#45;bbbd&#45;eb2a7fd185ca</title>
<ellipse fill="none" stroke="black" cx="103.34" cy="-714" rx="45.2" ry="18"/>
<text text-anchor="middle" x="103.34" y="-710.3" font-family="Times,serif" font-size="14.00">Detect true</text>
</g>
<!-- a620f4d6&#45;46dc&#45;4324&#45;bbbd&#45;eb2a7fd185ca&#45;&gt;715268cb&#45;3a06&#45;489a&#45;a03c&#45;7ec57acc48e2 -->
<g id="edge8" class="edge">
<title>a620f4d6&#45;46dc&#45;4324&#45;bbbd&#45;eb2a7fd185ca&#45;&gt;715268cb&#45;3a06&#45;489a&#45;a03c&#45;7ec57acc48e2</title>
<path fill="none" stroke="purple" d="M103.34,-695.8C103.34,-684.16 103.34,-668.55 103.34,-655.24"/>
<polygon fill="purple" stroke="purple" points="106.84,-655.18 103.34,-645.18 99.84,-655.18 106.84,-655.18"/>
<text text-anchor="middle" x="138.84" y="-666.8" font-family="Times,serif" font-size="14.00" fill="purple">Pass Data</text>
</g>
<!-- a8843860&#45;bf19&#45;4425&#45;b0b3&#45;209cd6afa3d5&#45;&gt;a620f4d6&#45;46dc&#45;4324&#45;bbbd&#45;eb2a7fd185ca -->
<g id="edge9" class="edge">
<title>a8843860&#45;bf19&#45;4425&#45;b0b3&#45;209cd6afa3d5&#45;&gt;a620f4d6&#45;46dc&#45;4324&#45;bbbd&#45;eb2a7fd185ca</title>
<path fill="none" stroke="purple" d="M103.34,-782.8C103.34,-771.16 103.34,-755.55 103.34,-742.24"/>
<polygon fill="purple" stroke="purple" points="106.84,-742.18 103.34,-732.18 99.84,-742.18 106.84,-742.18"/>
<text text-anchor="middle" x="138.84" y="-753.8" font-family="Times,serif" font-size="14.00" fill="purple">Pass Data</text>
</g>
<!-- 793d7479&#45;b766&#45;4c5b&#45;a6d4&#45;14920939c3c8 -->
<g id="node12" class="node">
<title>793d7479&#45;b766&#45;4c5b&#45;a6d4&#45;14920939c3c8</title>
<ellipse fill="none" stroke="black" cx="250.34" cy="-888" rx="47.1" ry="18"/>
<text text-anchor="middle" x="250.34" y="-884.3" font-family="Times,serif" font-size="14.00">DelayAction</text>
</g>
<!-- 793d7479&#45;b766&#45;4c5b&#45;a6d4&#45;14920939c3c8&#45;&gt;a8843860&#45;bf19&#45;4425&#45;b0b3&#45;209cd6afa3d5 -->
<g id="edge11" class="edge">
<title>793d7479&#45;b766&#45;4c5b&#45;a6d4&#45;14920939c3c8&#45;&gt;a8843860&#45;bf19&#45;4425&#45;b0b3&#45;209cd6afa3d5</title>
<path fill="none" stroke="black" d="M225.4,-872.58C201.12,-858.54 164.03,-837.09 137.1,-821.52"/>
<polygon fill="black" stroke="black" points="138.81,-818.47 128.4,-816.49 135.3,-824.53 138.81,-818.47"/>
</g>
<!-- 02032274&#45;7f1a&#45;4b14&#45;8048&#45;7b2adff69550 -->
<g id="node13" class="node">
<title>02032274&#45;7f1a&#45;4b14&#45;8048&#45;7b2adff69550</title>
<ellipse fill="none" stroke="black" cx="250.34" cy="-961" rx="59.9" ry="18"/>
<text text-anchor="middle" x="250.34" y="-957.3" font-family="Times,serif" font-size="14.00">ZeroMovement</text>
</g>
<!-- 02032274&#45;7f1a&#45;4b14&#45;8048&#45;7b2adff69550&#45;&gt;793d7479&#45;b766&#45;4c5b&#45;a6d4&#45;14920939c3c8 -->
<g id="edge12" class="edge">
<title>02032274&#45;7f1a&#45;4b14&#45;8048&#45;7b2adff69550&#45;&gt;793d7479&#45;b766&#45;4c5b&#45;a6d4&#45;14920939c3c8</title>
<path fill="none" stroke="black" d="M250.34,-942.81C250.34,-934.79 250.34,-925.05 250.34,-916.07"/>
<polygon fill="black" stroke="black" points="253.84,-916.03 250.34,-906.03 246.84,-916.03 253.84,-916.03"/>
</g>
</g>
</svg>
