<?xml version="1.0" encoding="UTF-8" standalone="no"?>
<!DOCTYPE svg PUBLIC "-//W3C//DTD SVG 1.1//EN"
 "http://www.w3.org/Graphics/SVG/1.1/DTD/svg11.dtd">
<!-- Generated by graphviz version 2.43.0 (0)
 -->
<!-- Title: G Pages: 1 -->
<svg width="318pt" height="987pt"
 viewBox="0.00 0.00 318.29 987.00" xmlns="http://www.w3.org/2000/svg" xmlns:xlink="http://www.w3.org/1999/xlink">
<g id="graph0" class="graph" transform="scale(1 1) rotate(0) translate(4 983)">
<title>G</title>
<polygon fill="transparent" stroke="transparent" points="-4,4 -4,-983 314.29,-983 314.29,4 -4,4"/>
<!-- f5daa557&#45;b8b1&#45;4e3b&#45;a780&#45;2c4fd2ef31d8 -->
<g id="node1" class="node">
<title>f5daa557&#45;b8b1&#45;4e3b&#45;a780&#45;2c4fd2ef31d8</title>
<polygon fill="none" stroke="black" points="65.34,-906 0.16,-888 65.34,-870 130.52,-888 65.34,-906"/>
<text text-anchor="middle" x="65.34" y="-884.3" font-family="Times,serif" font-size="14.00">AlwaysTrue</text>
</g>
<!-- 884c67df&#45;d980&#45;4338&#45;b295&#45;7f0b41cc9066 -->
<g id="node11" class="node">
<title>884c67df&#45;d980&#45;4338&#45;b295&#45;7f0b41cc9066</title>
<ellipse fill="none" stroke="black" cx="103.34" cy="-801" rx="46.5" ry="18"/>
<text text-anchor="middle" x="103.34" y="-797.3" font-family="Times,serif" font-size="14.00">VisionNorm</text>
</g>
<!-- f5daa557&#45;b8b1&#45;4e3b&#45;a780&#45;2c4fd2ef31d8&#45;&gt;884c67df&#45;d980&#45;4338&#45;b295&#45;7f0b41cc9066 -->
<g id="edge10" class="edge">
<title>f5daa557&#45;b8b1&#45;4e3b&#45;a780&#45;2c4fd2ef31d8&#45;&gt;884c67df&#45;d980&#45;4338&#45;b295&#45;7f0b41cc9066</title>
<path fill="none" stroke="black" d="M72.13,-871.8C77.54,-859.7 85.25,-842.47 91.65,-828.16"/>
<polygon fill="black" stroke="black" points="94.94,-829.37 95.82,-818.81 88.55,-826.51 94.94,-829.37"/>
<text text-anchor="middle" x="104.34" y="-840.8" font-family="Times,serif" font-size="14.00">True</text>
</g>
<!-- 4bd16573&#45;5a9f&#45;4ef7&#45;a946&#45;a1f5ad77bdd3 -->
<g id="node2" class="node">
<title>4bd16573&#45;5a9f&#45;4ef7&#45;a946&#45;a1f5ad77bdd3</title>
<ellipse fill="none" stroke="black" cx="103.34" cy="-105" rx="27" ry="18"/>
<text text-anchor="middle" x="103.34" y="-101.3" font-family="Times,serif" font-size="14.00">FlatX</text>
</g>
<!-- 4f808beb&#45;81e8&#45;4dde&#45;b53a&#45;802fc517abe1 -->
<g id="node3" class="node">
<title>4f808beb&#45;81e8&#45;4dde&#45;b53a&#45;802fc517abe1</title>
<ellipse fill="none" stroke="black" cx="103.34" cy="-18" rx="80.11" ry="18"/>
<text text-anchor="middle" x="103.34" y="-14.3" font-family="Times,serif" font-size="14.00">Stability2Movement</text>
</g>
<!-- 4bd16573&#45;5a9f&#45;4ef7&#45;a946&#45;a1f5ad77bdd3&#45;&gt;4f808beb&#45;81e8&#45;4dde&#45;b53a&#45;802fc517abe1 -->
<g id="edge1" class="edge">
<title>4bd16573&#45;5a9f&#45;4ef7&#45;a946&#45;a1f5ad77bdd3&#45;&gt;4f808beb&#45;81e8&#45;4dde&#45;b53a&#45;802fc517abe1</title>
<path fill="none" stroke="purple" d="M103.34,-86.8C103.34,-75.16 103.34,-59.55 103.34,-46.24"/>
<polygon fill="purple" stroke="purple" points="106.84,-46.18 103.34,-36.18 99.84,-46.18 106.84,-46.18"/>
<text text-anchor="middle" x="138.84" y="-57.8" font-family="Times,serif" font-size="14.00" fill="purple">Pass Data</text>
</g>
<!-- 2ea711d2&#45;92bc&#45;4506&#45;a820&#45;7014546a0e31 -->
<g id="node4" class="node">
<title>2ea711d2&#45;92bc&#45;4506&#45;a820&#45;7014546a0e31</title>
<ellipse fill="none" stroke="black" cx="103.34" cy="-192" rx="27" ry="18"/>
<text text-anchor="middle" x="103.34" y="-188.3" font-family="Times,serif" font-size="14.00">StripY</text>
</g>
<!-- 2ea711d2&#45;92bc&#45;4506&#45;a820&#45;7014546a0e31&#45;&gt;4bd16573&#45;5a9f&#45;4ef7&#45;a946&#45;a1f5ad77bdd3 -->
<g id="edge2" class="edge">
<title>2ea711d2&#45;92bc&#45;4506&#45;a820&#45;7014546a0e31&#45;&gt;4bd16573&#45;5a9f&#45;4ef7&#45;a946&#45;a1f5ad77bdd3</title>
<path fill="none" stroke="purple" d="M103.34,-173.8C103.34,-162.16 103.34,-146.55 103.34,-133.24"/>
<polygon fill="purple" stroke="purple" points="106.84,-133.18 103.34,-123.18 99.84,-133.18 106.84,-133.18"/>
<text text-anchor="middle" x="138.84" y="-144.8" font-family="Times,serif" font-size="14.00" fill="purple">Pass Data</text>
</g>
<!-- 9a389319&#45;3edf&#45;43ad&#45;bbd9&#45;fbd8f892371a -->
<g id="node5" class="node">
<title>9a389319&#45;3edf&#45;43ad&#45;bbd9&#45;fbd8f892371a</title>
<ellipse fill="none" stroke="black" cx="103.34" cy="-279" rx="52.6" ry="18"/>
<text text-anchor="middle" x="103.34" y="-275.3" font-family="Times,serif" font-size="14.00">Anon Closure</text>
</g>
<!-- 9a389319&#45;3edf&#45;43ad&#45;bbd9&#45;fbd8f892371a&#45;&gt;2ea711d2&#45;92bc&#45;4506&#45;a820&#45;7014546a0e31 -->
<g id="edge3" class="edge">
<title>9a389319&#45;3edf&#45;43ad&#45;bbd9&#45;fbd8f892371a&#45;&gt;2ea711d2&#45;92bc&#45;4506&#45;a820&#45;7014546a0e31</title>
<path fill="none" stroke="purple" d="M103.34,-260.8C103.34,-249.16 103.34,-233.55 103.34,-220.24"/>
<polygon fill="purple" stroke="purple" points="106.84,-220.18 103.34,-210.18 99.84,-220.18 106.84,-220.18"/>
<text text-anchor="middle" x="138.84" y="-231.8" font-family="Times,serif" font-size="14.00" fill="purple">Pass Data</text>
</g>
<!-- f7e71251&#45;2169&#45;40ed&#45;bff2&#45;10d7a0a80810 -->
<g id="node6" class="node">
<title>f7e71251&#45;2169&#45;40ed&#45;bff2&#45;10d7a0a80810</title>
<ellipse fill="none" stroke="black" cx="103.34" cy="-366" rx="51.3" ry="18"/>
<text text-anchor="middle" x="103.34" y="-362.3" font-family="Times,serif" font-size="14.00">OffsetToPose</text>
</g>
<!-- f7e71251&#45;2169&#45;40ed&#45;bff2&#45;10d7a0a80810&#45;&gt;9a389319&#45;3edf&#45;43ad&#45;bbd9&#45;fbd8f892371a -->
<g id="edge4" class="edge">
<title>f7e71251&#45;2169&#45;40ed&#45;bff2&#45;10d7a0a80810&#45;&gt;9a389319&#45;3edf&#45;43ad&#45;bbd9&#45;fbd8f892371a</title>
<path fill="none" stroke="purple" d="M103.34,-347.8C103.34,-336.16 103.34,-320.55 103.34,-307.24"/>
<polygon fill="purple" stroke="purple" points="106.84,-307.18 103.34,-297.18 99.84,-307.18 106.84,-307.18"/>
<text text-anchor="middle" x="138.84" y="-318.8" font-family="Times,serif" font-size="14.00" fill="purple">Pass Data</text>
</g>
<!-- f3d943c6&#45;02ea&#45;4928&#45;b596&#45;3d4f6d98e897 -->
<g id="node7" class="node">
<title>f3d943c6&#45;02ea&#45;4928&#45;b596&#45;3d4f6d98e897</title>
<ellipse fill="none" stroke="black" cx="103.34" cy="-453" rx="32.4" ry="18"/>
<text text-anchor="middle" x="103.34" y="-449.3" font-family="Times,serif" font-size="14.00">Average</text>
</g>
<!-- f3d943c6&#45;02ea&#45;4928&#45;b596&#45;3d4f6d98e897&#45;&gt;f7e71251&#45;2169&#45;40ed&#45;bff2&#45;10d7a0a80810 -->
<g id="edge5" class="edge">
<title>f3d943c6&#45;02ea&#45;4928&#45;b596&#45;3d4f6d98e897&#45;&gt;f7e71251&#45;2169&#45;40ed&#45;bff2&#45;10d7a0a80810</title>
<path fill="none" stroke="purple" d="M103.34,-434.8C103.34,-423.16 103.34,-407.55 103.34,-394.24"/>
<polygon fill="purple" stroke="purple" points="106.84,-394.18 103.34,-384.18 99.84,-394.18 106.84,-394.18"/>
<text text-anchor="middle" x="138.84" y="-405.8" font-family="Times,serif" font-size="14.00" fill="purple">Pass Data</text>
</g>
<!-- 6547be47&#45;00a9&#45;455c&#45;bfd3&#45;5803a55b4d8e -->
<g id="node8" class="node">
<title>6547be47&#45;00a9&#45;455c&#45;bfd3&#45;5803a55b4d8e</title>
<ellipse fill="none" stroke="black" cx="103.34" cy="-540" rx="61.1" ry="18"/>
<text text-anchor="middle" x="103.34" y="-536.3" font-family="Times,serif" font-size="14.00">ExtractPosition</text>
</g>
<!-- 6547be47&#45;00a9&#45;455c&#45;bfd3&#45;5803a55b4d8e&#45;&gt;f3d943c6&#45;02ea&#45;4928&#45;b596&#45;3d4f6d98e897 -->
<g id="edge6" class="edge">
<title>6547be47&#45;00a9&#45;455c&#45;bfd3&#45;5803a55b4d8e&#45;&gt;f3d943c6&#45;02ea&#45;4928&#45;b596&#45;3d4f6d98e897</title>
<path fill="none" stroke="purple" d="M103.34,-521.8C103.34,-510.16 103.34,-494.55 103.34,-481.24"/>
<polygon fill="purple" stroke="purple" points="106.84,-481.18 103.34,-471.18 99.84,-481.18 106.84,-481.18"/>
<text text-anchor="middle" x="138.84" y="-492.8" font-family="Times,serif" font-size="14.00" fill="purple">Pass Data</text>
</g>
<!-- 9e4e5188&#45;7f59&#45;49bf&#45;be65&#45;b26be3172607 -->
<g id="node9" class="node">
<title>9e4e5188&#45;7f59&#45;49bf&#45;be65&#45;b26be3172607</title>
<ellipse fill="none" stroke="black" cx="103.34" cy="-627" rx="27" ry="18"/>
<text text-anchor="middle" x="103.34" y="-623.3" font-family="Times,serif" font-size="14.00">ToVec</text>
</g>
<!-- 9e4e5188&#45;7f59&#45;49bf&#45;be65&#45;b26be3172607&#45;&gt;6547be47&#45;00a9&#45;455c&#45;bfd3&#45;5803a55b4d8e -->
<g id="edge7" class="edge">
<title>9e4e5188&#45;7f59&#45;49bf&#45;be65&#45;b26be3172607&#45;&gt;6547be47&#45;00a9&#45;455c&#45;bfd3&#45;5803a55b4d8e</title>
<path fill="none" stroke="purple" d="M103.34,-608.8C103.34,-597.16 103.34,-581.55 103.34,-568.24"/>
<polygon fill="purple" stroke="purple" points="106.84,-568.18 103.34,-558.18 99.84,-568.18 106.84,-568.18"/>
<text text-anchor="middle" x="138.84" y="-579.8" font-family="Times,serif" font-size="14.00" fill="purple">Pass Data</text>
</g>
<!-- c9dcdf8c&#45;021a&#45;4995&#45;9cc9&#45;418f4e53f3c5 -->
<g id="node10" class="node">
<title>c9dcdf8c&#45;021a&#45;4995&#45;9cc9&#45;418f4e53f3c5</title>
<ellipse fill="none" stroke="black" cx="103.34" cy="-714" rx="45.2" ry="18"/>
<text text-anchor="middle" x="103.34" y="-710.3" font-family="Times,serif" font-size="14.00">Detect true</text>
</g>
<!-- c9dcdf8c&#45;021a&#45;4995&#45;9cc9&#45;418f4e53f3c5&#45;&gt;9e4e5188&#45;7f59&#45;49bf&#45;be65&#45;b26be3172607 -->
<g id="edge8" class="edge">
<title>c9dcdf8c&#45;021a&#45;4995&#45;9cc9&#45;418f4e53f3c5&#45;&gt;9e4e5188&#45;7f59&#45;49bf&#45;be65&#45;b26be3172607</title>
<path fill="none" stroke="purple" d="M103.34,-695.8C103.34,-684.16 103.34,-668.55 103.34,-655.24"/>
<polygon fill="purple" stroke="purple" points="106.84,-655.18 103.34,-645.18 99.84,-655.18 106.84,-655.18"/>
<text text-anchor="middle" x="138.84" y="-666.8" font-family="Times,serif" font-size="14.00" fill="purple">Pass Data</text>
</g>
<!-- 884c67df&#45;d980&#45;4338&#45;b295&#45;7f0b41cc9066&#45;&gt;c9dcdf8c&#45;021a&#45;4995&#45;9cc9&#45;418f4e53f3c5 -->
<g id="edge9" class="edge">
<title>884c67df&#45;d980&#45;4338&#45;b295&#45;7f0b41cc9066&#45;&gt;c9dcdf8c&#45;021a&#45;4995&#45;9cc9&#45;418f4e53f3c5</title>
<path fill="none" stroke="purple" d="M103.34,-782.8C103.34,-771.16 103.34,-755.55 103.34,-742.24"/>
<polygon fill="purple" stroke="purple" points="106.84,-742.18 103.34,-732.18 99.84,-742.18 106.84,-742.18"/>
<text text-anchor="middle" x="138.84" y="-753.8" font-family="Times,serif" font-size="14.00" fill="purple">Pass Data</text>
</g>
<!-- c35e9043&#45;8a12&#45;4760&#45;bcff&#45;104c36adf6e7 -->
<g id="node12" class="node">
<title>c35e9043&#45;8a12&#45;4760&#45;bcff&#45;104c36adf6e7</title>
<ellipse fill="none" stroke="black" cx="250.34" cy="-888" rx="47.1" ry="18"/>
<text text-anchor="middle" x="250.34" y="-884.3" font-family="Times,serif" font-size="14.00">DelayAction</text>
</g>
<!-- c35e9043&#45;8a12&#45;4760&#45;bcff&#45;104c36adf6e7&#45;&gt;884c67df&#45;d980&#45;4338&#45;b295&#45;7f0b41cc9066 -->
<g id="edge11" class="edge">
<title>c35e9043&#45;8a12&#45;4760&#45;bcff&#45;104c36adf6e7&#45;&gt;884c67df&#45;d980&#45;4338&#45;b295&#45;7f0b41cc9066</title>
<path fill="none" stroke="black" d="M225.4,-872.58C201.12,-858.54 164.03,-837.09 137.1,-821.52"/>
<polygon fill="black" stroke="black" points="138.81,-818.47 128.4,-816.49 135.3,-824.53 138.81,-818.47"/>
</g>
<!-- f8b11c18&#45;c2f9&#45;4725&#45;a688&#45;944042cd5e6f -->
<g id="node13" class="node">
<title>f8b11c18&#45;c2f9&#45;4725&#45;a688&#45;944042cd5e6f</title>
<ellipse fill="none" stroke="black" cx="250.34" cy="-961" rx="59.9" ry="18"/>
<text text-anchor="middle" x="250.34" y="-957.3" font-family="Times,serif" font-size="14.00">ZeroMovement</text>
</g>
<!-- f8b11c18&#45;c2f9&#45;4725&#45;a688&#45;944042cd5e6f&#45;&gt;c35e9043&#45;8a12&#45;4760&#45;bcff&#45;104c36adf6e7 -->
<g id="edge12" class="edge">
<title>f8b11c18&#45;c2f9&#45;4725&#45;a688&#45;944042cd5e6f&#45;&gt;c35e9043&#45;8a12&#45;4760&#45;bcff&#45;104c36adf6e7</title>
<path fill="none" stroke="black" d="M250.34,-942.81C250.34,-934.79 250.34,-925.05 250.34,-916.07"/>
<polygon fill="black" stroke="black" points="253.84,-916.03 250.34,-906.03 246.84,-916.03 253.84,-916.03"/>
</g>
</g>
</svg>
