<?xml version="1.0" encoding="UTF-8" standalone="no"?>
<!DOCTYPE svg PUBLIC "-//W3C//DTD SVG 1.1//EN"
 "http://www.w3.org/Graphics/SVG/1.1/DTD/svg11.dtd">
<!-- Generated by graphviz version 2.43.0 (0)
 -->
<!-- Title: G Pages: 1 -->
<svg width="743pt" height="1121pt"
 viewBox="0.00 0.00 742.80 1121.00" xmlns="http://www.w3.org/2000/svg" xmlns:xlink="http://www.w3.org/1999/xlink">
<g id="graph0" class="graph" transform="scale(1 1) rotate(0) translate(4 1117)">
<title>G</title>
<polygon fill="transparent" stroke="transparent" points="-4,4 -4,-1117 738.8,-1117 738.8,4 -4,4"/>
<g id="clust1" class="cluster">
<title>cluster_a482c4c0&#45;a99d&#45;4e28&#45;8ce2&#45;d6f0cc2b7313</title>
<polygon fill="transparent" stroke="blue" stroke-dasharray="5,2" points="8,-8 8,-829 280,-829 280,-8 8,-8"/>
</g>
<!-- cc0dd038&#45;1085&#45;41c4&#45;9a20&#45;b4e14384a2f3 -->
<g id="node1" class="node">
<title>cc0dd038&#45;1085&#45;41c4&#45;9a20&#45;b4e14384a2f3</title>
<polygon fill="none" stroke="black" points="207,-748 141.82,-730 207,-712 272.18,-730 207,-748"/>
<text text-anchor="middle" x="207" y="-726.3" font-family="Times,serif" font-size="14.00">AlwaysTrue</text>
</g>
<!-- f14dab06&#45;325d&#45;421c&#45;8637&#45;dcd38ef3346c -->
<g id="node19" class="node">
<title>f14dab06&#45;325d&#45;421c&#45;8637&#45;dcd38ef3346c</title>
<ellipse fill="none" stroke="black" cx="335" cy="-643" rx="46.5" ry="18"/>
<text text-anchor="middle" x="335" y="-639.3" font-family="Times,serif" font-size="14.00">VisionNorm</text>
</g>
<!-- cc0dd038&#45;1085&#45;41c4&#45;9a20&#45;b4e14384a2f3&#45;&gt;f14dab06&#45;325d&#45;421c&#45;8637&#45;dcd38ef3346c -->
<g id="edge18" class="edge">
<title>cc0dd038&#45;1085&#45;41c4&#45;9a20&#45;b4e14384a2f3&#45;&gt;f14dab06&#45;325d&#45;421c&#45;8637&#45;dcd38ef3346c</title>
<path fill="none" stroke="black" d="M225.34,-716.82C245.78,-703.25 279.18,-681.06 303.76,-664.74"/>
<polygon fill="black" stroke="black" points="305.98,-667.47 312.38,-659.02 302.11,-661.64 305.98,-667.47"/>
<text text-anchor="middle" x="296" y="-682.8" font-family="Times,serif" font-size="14.00">True</text>
</g>
<!-- f5c86f65&#45;9f60&#45;4421&#45;86fb&#45;6fa12002cab1 -->
<g id="node2" class="node">
<title>f5c86f65&#45;9f60&#45;4421&#45;86fb&#45;6fa12002cab1</title>
<ellipse fill="none" stroke="black" cx="95" cy="-121" rx="27" ry="18"/>
<text text-anchor="middle" x="95" y="-117.3" font-family="Times,serif" font-size="14.00">StripX</text>
</g>
<!-- 584b4c18&#45;3622&#45;447b&#45;b7b3&#45;83d0ea9fb364 -->
<g id="node3" class="node">
<title>584b4c18&#45;3622&#45;447b&#45;b7b3&#45;83d0ea9fb364</title>
<ellipse fill="none" stroke="black" cx="96" cy="-34" rx="80.11" ry="18"/>
<text text-anchor="middle" x="96" y="-30.3" font-family="Times,serif" font-size="14.00">Stability2Movement</text>
</g>
<!-- f5c86f65&#45;9f60&#45;4421&#45;86fb&#45;6fa12002cab1&#45;&gt;584b4c18&#45;3622&#45;447b&#45;b7b3&#45;83d0ea9fb364 -->
<g id="edge1" class="edge">
<title>f5c86f65&#45;9f60&#45;4421&#45;86fb&#45;6fa12002cab1&#45;&gt;584b4c18&#45;3622&#45;447b&#45;b7b3&#45;83d0ea9fb364</title>
<path fill="none" stroke="purple" d="M95.2,-102.8C95.34,-91.16 95.52,-75.55 95.68,-62.24"/>
<polygon fill="purple" stroke="purple" points="99.18,-62.22 95.8,-52.18 92.18,-62.13 99.18,-62.22"/>
<text text-anchor="middle" x="131.5" y="-73.8" font-family="Times,serif" font-size="14.00" fill="purple">Pass Data</text>
</g>
<!-- 9b995372&#45;1174&#45;46ee&#45;9e05&#45;2cded7b6f416 -->
<g id="node4" class="node">
<title>9b995372&#45;1174&#45;46ee&#45;9e05&#45;2cded7b6f416</title>
<ellipse fill="none" stroke="black" cx="95" cy="-208" rx="27" ry="18"/>
<text text-anchor="middle" x="95" y="-204.3" font-family="Times,serif" font-size="14.00">StripY</text>
</g>
<!-- 9b995372&#45;1174&#45;46ee&#45;9e05&#45;2cded7b6f416&#45;&gt;f5c86f65&#45;9f60&#45;4421&#45;86fb&#45;6fa12002cab1 -->
<g id="edge2" class="edge">
<title>9b995372&#45;1174&#45;46ee&#45;9e05&#45;2cded7b6f416&#45;&gt;f5c86f65&#45;9f60&#45;4421&#45;86fb&#45;6fa12002cab1</title>
<path fill="none" stroke="purple" d="M95,-189.8C95,-178.16 95,-162.55 95,-149.24"/>
<polygon fill="purple" stroke="purple" points="98.5,-149.18 95,-139.18 91.5,-149.18 98.5,-149.18"/>
<text text-anchor="middle" x="130.5" y="-160.8" font-family="Times,serif" font-size="14.00" fill="purple">Pass Data</text>
</g>
<!-- 69bfd2bb&#45;add4&#45;4965&#45;81f1&#45;a659c919af40 -->
<g id="node5" class="node">
<title>69bfd2bb&#45;add4&#45;4965&#45;81f1&#45;a659c919af40</title>
<ellipse fill="none" stroke="black" cx="95" cy="-295" rx="31.2" ry="18"/>
<text text-anchor="middle" x="95" y="-291.3" font-family="Times,serif" font-size="14.00">FlipYaw</text>
</g>
<!-- 69bfd2bb&#45;add4&#45;4965&#45;81f1&#45;a659c919af40&#45;&gt;9b995372&#45;1174&#45;46ee&#45;9e05&#45;2cded7b6f416 -->
<g id="edge3" class="edge">
<title>69bfd2bb&#45;add4&#45;4965&#45;81f1&#45;a659c919af40&#45;&gt;9b995372&#45;1174&#45;46ee&#45;9e05&#45;2cded7b6f416</title>
<path fill="none" stroke="purple" d="M95,-276.8C95,-265.16 95,-249.55 95,-236.24"/>
<polygon fill="purple" stroke="purple" points="98.5,-236.18 95,-226.18 91.5,-236.18 98.5,-236.18"/>
<text text-anchor="middle" x="130.5" y="-247.8" font-family="Times,serif" font-size="14.00" fill="purple">Pass Data</text>
</g>
<!-- f9a031d2&#45;7ca5&#45;4f9e&#45;a1a6&#45;e6e169226fd1 -->
<g id="node6" class="node">
<title>f9a031d2&#45;7ca5&#45;4f9e&#45;a1a6&#45;e6e169226fd1</title>
<ellipse fill="none" stroke="black" cx="95" cy="-382" rx="67.81" ry="18"/>
<text text-anchor="middle" x="95" y="-378.3" font-family="Times,serif" font-size="14.00">LinearYawFromX</text>
</g>
<!-- f9a031d2&#45;7ca5&#45;4f9e&#45;a1a6&#45;e6e169226fd1&#45;&gt;69bfd2bb&#45;add4&#45;4965&#45;81f1&#45;a659c919af40 -->
<g id="edge4" class="edge">
<title>f9a031d2&#45;7ca5&#45;4f9e&#45;a1a6&#45;e6e169226fd1&#45;&gt;69bfd2bb&#45;add4&#45;4965&#45;81f1&#45;a659c919af40</title>
<path fill="none" stroke="purple" d="M95,-363.8C95,-352.16 95,-336.55 95,-323.24"/>
<polygon fill="purple" stroke="purple" points="98.5,-323.18 95,-313.18 91.5,-323.18 98.5,-323.18"/>
<text text-anchor="middle" x="130.5" y="-334.8" font-family="Times,serif" font-size="14.00" fill="purple">Pass Data</text>
</g>
<!-- 2e4ba79b&#45;5b02&#45;47f6&#45;a17d&#45;0ebd9b65d6c5 -->
<g id="node7" class="node">
<title>2e4ba79b&#45;5b02&#45;47f6&#45;a17d&#45;0ebd9b65d6c5</title>
<ellipse fill="none" stroke="black" cx="95" cy="-469" rx="51.3" ry="18"/>
<text text-anchor="middle" x="95" y="-465.3" font-family="Times,serif" font-size="14.00">OffsetToPose</text>
</g>
<!-- 2e4ba79b&#45;5b02&#45;47f6&#45;a17d&#45;0ebd9b65d6c5&#45;&gt;f9a031d2&#45;7ca5&#45;4f9e&#45;a1a6&#45;e6e169226fd1 -->
<g id="edge5" class="edge">
<title>2e4ba79b&#45;5b02&#45;47f6&#45;a17d&#45;0ebd9b65d6c5&#45;&gt;f9a031d2&#45;7ca5&#45;4f9e&#45;a1a6&#45;e6e169226fd1</title>
<path fill="none" stroke="purple" d="M95,-450.8C95,-439.16 95,-423.55 95,-410.24"/>
<polygon fill="purple" stroke="purple" points="98.5,-410.18 95,-400.18 91.5,-410.18 98.5,-410.18"/>
<text text-anchor="middle" x="130.5" y="-421.8" font-family="Times,serif" font-size="14.00" fill="purple">Pass Data</text>
</g>
<!-- 173de3d4&#45;3727&#45;4270&#45;a59d&#45;b5c943b647da -->
<g id="node8" class="node">
<title>173de3d4&#45;3727&#45;4270&#45;a59d&#45;b5c943b647da</title>
<ellipse fill="none" stroke="black" cx="94" cy="-556" rx="32.4" ry="18"/>
<text text-anchor="middle" x="94" y="-552.3" font-family="Times,serif" font-size="14.00">Average</text>
</g>
<!-- 173de3d4&#45;3727&#45;4270&#45;a59d&#45;b5c943b647da&#45;&gt;2e4ba79b&#45;5b02&#45;47f6&#45;a17d&#45;0ebd9b65d6c5 -->
<g id="edge6" class="edge">
<title>173de3d4&#45;3727&#45;4270&#45;a59d&#45;b5c943b647da&#45;&gt;2e4ba79b&#45;5b02&#45;47f6&#45;a17d&#45;0ebd9b65d6c5</title>
<path fill="none" stroke="purple" d="M94.2,-537.8C94.34,-526.16 94.52,-510.55 94.68,-497.24"/>
<polygon fill="purple" stroke="purple" points="98.18,-497.22 94.8,-487.18 91.18,-497.13 98.18,-497.22"/>
<text text-anchor="middle" x="130.5" y="-508.8" font-family="Times,serif" font-size="14.00" fill="purple">Pass Data</text>
</g>
<!-- a8294a51&#45;99f9&#45;48b1&#45;a97a&#45;8ab5b7e7bff7 -->
<g id="node9" class="node">
<title>a8294a51&#45;99f9&#45;48b1&#45;a97a&#45;8ab5b7e7bff7</title>
<ellipse fill="none" stroke="black" cx="92" cy="-643" rx="61.1" ry="18"/>
<text text-anchor="middle" x="92" y="-639.3" font-family="Times,serif" font-size="14.00">ExtractPosition</text>
</g>
<!-- a8294a51&#45;99f9&#45;48b1&#45;a97a&#45;8ab5b7e7bff7&#45;&gt;173de3d4&#45;3727&#45;4270&#45;a59d&#45;b5c943b647da -->
<g id="edge7" class="edge">
<title>a8294a51&#45;99f9&#45;48b1&#45;a97a&#45;8ab5b7e7bff7&#45;&gt;173de3d4&#45;3727&#45;4270&#45;a59d&#45;b5c943b647da</title>
<path fill="none" stroke="purple" d="M92.4,-624.8C92.68,-613.16 93.05,-597.55 93.36,-584.24"/>
<polygon fill="purple" stroke="purple" points="96.86,-584.26 93.6,-574.18 89.86,-584.09 96.86,-584.26"/>
<text text-anchor="middle" x="129.5" y="-595.8" font-family="Times,serif" font-size="14.00" fill="purple">Pass Data</text>
</g>
<!-- d1a45849&#45;12ae&#45;4635&#45;8218&#45;a265eb0a4504 -->
<g id="node10" class="node">
<title>d1a45849&#45;12ae&#45;4635&#45;8218&#45;a265eb0a4504</title>
<ellipse fill="none" stroke="black" cx="43" cy="-730" rx="27" ry="18"/>
<text text-anchor="middle" x="43" y="-726.3" font-family="Times,serif" font-size="14.00">ToVec</text>
</g>
<!-- d1a45849&#45;12ae&#45;4635&#45;8218&#45;a265eb0a4504&#45;&gt;a8294a51&#45;99f9&#45;48b1&#45;a97a&#45;8ab5b7e7bff7 -->
<g id="edge8" class="edge">
<title>d1a45849&#45;12ae&#45;4635&#45;8218&#45;a265eb0a4504&#45;&gt;a8294a51&#45;99f9&#45;48b1&#45;a97a&#45;8ab5b7e7bff7</title>
<path fill="none" stroke="purple" d="M52.22,-713.01C59.27,-700.78 69.13,-683.68 77.27,-669.56"/>
<polygon fill="purple" stroke="purple" points="80.36,-671.2 82.32,-660.79 74.3,-667.7 80.36,-671.2"/>
<text text-anchor="middle" x="106.5" y="-682.8" font-family="Times,serif" font-size="14.00" fill="purple">Pass Data</text>
</g>
<!-- 42b5d3a9&#45;7c4d&#45;4193&#45;8cc8&#45;4ce9a33efd6f -->
<g id="node11" class="node">
<title>42b5d3a9&#45;7c4d&#45;4193&#45;8cc8&#45;4ce9a33efd6f</title>
<polygon fill="none" stroke="black" stroke-dasharray="5,2" points="256,-821 158,-821 158,-785 256,-785 256,-821"/>
<text text-anchor="middle" x="207" y="-799.3" font-family="Times,serif" font-size="14.00" fill="blue">Concurrent</text>
</g>
<!-- 42b5d3a9&#45;7c4d&#45;4193&#45;8cc8&#45;4ce9a33efd6f&#45;&gt;cc0dd038&#45;1085&#45;41c4&#45;9a20&#45;b4e14384a2f3 -->
<g id="edge10" class="edge">
<title>42b5d3a9&#45;7c4d&#45;4193&#45;8cc8&#45;4ce9a33efd6f&#45;&gt;cc0dd038&#45;1085&#45;41c4&#45;9a20&#45;b4e14384a2f3</title>
<path fill="none" stroke="black" d="M207,-784.81C207,-776.79 207,-767.05 207,-758.07"/>
<polygon fill="black" stroke="black" points="210.5,-758.03 207,-748.03 203.5,-758.03 210.5,-758.03"/>
</g>
<!-- 42b5d3a9&#45;7c4d&#45;4193&#45;8cc8&#45;4ce9a33efd6f&#45;&gt;d1a45849&#45;12ae&#45;4635&#45;8218&#45;a265eb0a4504 -->
<g id="edge9" class="edge">
<title>42b5d3a9&#45;7c4d&#45;4193&#45;8cc8&#45;4ce9a33efd6f&#45;&gt;d1a45849&#45;12ae&#45;4635&#45;8218&#45;a265eb0a4504</title>
<path fill="none" stroke="black" d="M167.72,-784.99C139.19,-772.64 101.1,-756.15 74.55,-744.66"/>
<polygon fill="black" stroke="black" points="75.89,-741.43 65.32,-740.66 73.11,-747.85 75.89,-741.43"/>
</g>
<!-- 8ff4dbd2&#45;c44d&#45;4da6&#45;94bb&#45;3699f7e558bf -->
<g id="node12" class="node">
<title>8ff4dbd2&#45;c44d&#45;4da6&#45;94bb&#45;3699f7e558bf</title>
<ellipse fill="none" stroke="black" cx="660" cy="-1022" rx="33.6" ry="18"/>
<text text-anchor="middle" x="660" y="-1018.3" font-family="Times,serif" font-size="14.00">Descend</text>
</g>
<!-- 06a68bd8&#45;1954&#45;4c2c&#45;b1ec&#45;31a62a92aace -->
<g id="node13" class="node">
<title>06a68bd8&#45;1954&#45;4c2c&#45;b1ec&#45;31a62a92aace</title>
<ellipse fill="none" stroke="black" cx="660" cy="-949" rx="47.1" ry="18"/>
<text text-anchor="middle" x="660" y="-945.3" font-family="Times,serif" font-size="14.00">DelayAction</text>
</g>
<!-- 8ff4dbd2&#45;c44d&#45;4da6&#45;94bb&#45;3699f7e558bf&#45;&gt;06a68bd8&#45;1954&#45;4c2c&#45;b1ec&#45;31a62a92aace -->
<g id="edge11" class="edge">
<title>8ff4dbd2&#45;c44d&#45;4da6&#45;94bb&#45;3699f7e558bf&#45;&gt;06a68bd8&#45;1954&#45;4c2c&#45;b1ec&#45;31a62a92aace</title>
<path fill="none" stroke="black" d="M660,-1003.81C660,-995.79 660,-986.05 660,-977.07"/>
<polygon fill="black" stroke="black" points="663.5,-977.03 660,-967.03 656.5,-977.03 663.5,-977.03"/>
</g>
<!-- b14d2276&#45;4490&#45;41cd&#45;9897&#45;7be69fe6264c -->
<g id="node14" class="node">
<title>b14d2276&#45;4490&#45;41cd&#45;9897&#45;7be69fe6264c</title>
<ellipse fill="none" stroke="black" cx="660" cy="-876" rx="74.61" ry="18"/>
<text text-anchor="middle" x="660" y="-872.3" font-family="Times,serif" font-size="14.00">StraightMovement</text>
</g>
<!-- 06a68bd8&#45;1954&#45;4c2c&#45;b1ec&#45;31a62a92aace&#45;&gt;b14d2276&#45;4490&#45;41cd&#45;9897&#45;7be69fe6264c -->
<g id="edge14" class="edge">
<title>06a68bd8&#45;1954&#45;4c2c&#45;b1ec&#45;31a62a92aace&#45;&gt;b14d2276&#45;4490&#45;41cd&#45;9897&#45;7be69fe6264c</title>
<path fill="none" stroke="black" d="M660,-930.81C660,-922.79 660,-913.05 660,-904.07"/>
<polygon fill="black" stroke="black" points="663.5,-904.03 660,-894.03 656.5,-904.03 663.5,-904.03"/>
</g>
<!-- 18b961cc&#45;964e&#45;47bf&#45;b609&#45;00e01893428c -->
<g id="node15" class="node">
<title>18b961cc&#45;964e&#45;47bf&#45;b609&#45;00e01893428c</title>
<ellipse fill="none" stroke="black" cx="660" cy="-803" rx="47.1" ry="18"/>
<text text-anchor="middle" x="660" y="-799.3" font-family="Times,serif" font-size="14.00">DelayAction</text>
</g>
<!-- b14d2276&#45;4490&#45;41cd&#45;9897&#45;7be69fe6264c&#45;&gt;18b961cc&#45;964e&#45;47bf&#45;b609&#45;00e01893428c -->
<g id="edge12" class="edge">
<title>b14d2276&#45;4490&#45;41cd&#45;9897&#45;7be69fe6264c&#45;&gt;18b961cc&#45;964e&#45;47bf&#45;b609&#45;00e01893428c</title>
<path fill="none" stroke="black" d="M660,-857.81C660,-849.79 660,-840.05 660,-831.07"/>
<polygon fill="black" stroke="black" points="663.5,-831.03 660,-821.03 656.5,-831.03 663.5,-831.03"/>
</g>
<!-- 633a4d21&#45;afd6&#45;4087&#45;9f2c&#45;991d1c181d34 -->
<g id="node16" class="node">
<title>633a4d21&#45;afd6&#45;4087&#45;9f2c&#45;991d1c181d34</title>
<ellipse fill="none" stroke="black" cx="660" cy="-730" rx="59.9" ry="18"/>
<text text-anchor="middle" x="660" y="-726.3" font-family="Times,serif" font-size="14.00">ZeroMovement</text>
</g>
<!-- 18b961cc&#45;964e&#45;47bf&#45;b609&#45;00e01893428c&#45;&gt;633a4d21&#45;afd6&#45;4087&#45;9f2c&#45;991d1c181d34 -->
<g id="edge13" class="edge">
<title>18b961cc&#45;964e&#45;47bf&#45;b609&#45;00e01893428c&#45;&gt;633a4d21&#45;afd6&#45;4087&#45;9f2c&#45;991d1c181d34</title>
<path fill="none" stroke="black" d="M660,-784.81C660,-776.79 660,-767.05 660,-758.07"/>
<polygon fill="black" stroke="black" points="663.5,-758.03 660,-748.03 656.5,-758.03 663.5,-758.03"/>
</g>
<!-- 633a4d21&#45;afd6&#45;4087&#45;9f2c&#45;991d1c181d34&#45;&gt;f14dab06&#45;325d&#45;421c&#45;8637&#45;dcd38ef3346c -->
<g id="edge19" class="edge">
<title>633a4d21&#45;afd6&#45;4087&#45;9f2c&#45;991d1c181d34&#45;&gt;f14dab06&#45;325d&#45;421c&#45;8637&#45;dcd38ef3346c</title>
<path fill="none" stroke="black" d="M639.53,-712.83C624.07,-701.49 601.85,-686.98 580,-679 518.08,-656.38 442.38,-648.3 391.65,-645.46"/>
<polygon fill="black" stroke="black" points="391.7,-641.96 381.54,-644.94 391.35,-648.95 391.7,-641.96"/>
</g>
<!-- 27b7701d&#45;dc74&#45;4040&#45;a945&#45;393c3cda72e9 -->
<g id="node17" class="node">
<title>27b7701d&#45;dc74&#45;4040&#45;a945&#45;393c3cda72e9</title>
<ellipse fill="none" stroke="black" cx="660" cy="-1095" rx="34.8" ry="18"/>
<text text-anchor="middle" x="660" y="-1091.3" font-family="Times,serif" font-size="14.00">WaitArm</text>
</g>
<!-- 27b7701d&#45;dc74&#45;4040&#45;a945&#45;393c3cda72e9&#45;&gt;8ff4dbd2&#45;c44d&#45;4da6&#45;94bb&#45;3699f7e558bf -->
<g id="edge15" class="edge">
<title>27b7701d&#45;dc74&#45;4040&#45;a945&#45;393c3cda72e9&#45;&gt;8ff4dbd2&#45;c44d&#45;4da6&#45;94bb&#45;3699f7e558bf</title>
<path fill="none" stroke="black" d="M660,-1076.81C660,-1068.79 660,-1059.05 660,-1050.07"/>
<polygon fill="black" stroke="black" points="663.5,-1050.03 660,-1040.03 656.5,-1050.03 663.5,-1050.03"/>
</g>
<!-- 71c0d99d&#45;bc7c&#45;49c3&#45;9269&#45;e98da30a371d -->
<g id="node18" class="node">
<title>71c0d99d&#45;bc7c&#45;49c3&#45;9269&#45;e98da30a371d</title>
<ellipse fill="none" stroke="black" cx="430" cy="-556" rx="48.3" ry="18"/>
<text text-anchor="middle" x="430" y="-552.3" font-family="Times,serif" font-size="14.00">Detect Buoy</text>
</g>
<!-- 71c0d99d&#45;bc7c&#45;49c3&#45;9269&#45;e98da30a371d&#45;&gt;42b5d3a9&#45;7c4d&#45;4193&#45;8cc8&#45;4ce9a33efd6f -->
<g id="edge16" class="edge">
<title>71c0d99d&#45;bc7c&#45;49c3&#45;9269&#45;e98da30a371d&#45;&gt;42b5d3a9&#45;7c4d&#45;4193&#45;8cc8&#45;4ce9a33efd6f</title>
<path fill="none" stroke="purple" d="M442.64,-573.8C448.32,-583.35 453.11,-595.64 450,-607 442.63,-633.91 436.36,-640 418,-661 371.25,-714.49 299.68,-756.54 253.1,-780.34"/>
<polygon fill="purple" stroke="purple" points="251.49,-777.23 244.14,-784.85 254.64,-783.48 251.49,-777.23"/>
<text text-anchor="middle" x="434.5" y="-682.8" font-family="Times,serif" font-size="14.00" fill="purple">Pass Data</text>
</g>
<!-- f14dab06&#45;325d&#45;421c&#45;8637&#45;dcd38ef3346c&#45;&gt;71c0d99d&#45;bc7c&#45;49c3&#45;9269&#45;e98da30a371d -->
<g id="edge17" class="edge">
<title>f14dab06&#45;325d&#45;421c&#45;8637&#45;dcd38ef3346c&#45;&gt;71c0d99d&#45;bc7c&#45;49c3&#45;9269&#45;e98da30a371d</title>
<path fill="none" stroke="purple" d="M342.26,-625.14C347.43,-614.63 355.19,-601.37 365,-592 372.09,-585.23 380.74,-579.39 389.39,-574.52"/>
<polygon fill="purple" stroke="purple" points="391.12,-577.56 398.33,-569.79 387.85,-571.37 391.12,-577.56"/>
<text text-anchor="middle" x="400.5" y="-595.8" font-family="Times,serif" font-size="14.00" fill="purple">Pass Data</text>
</g>
</g>
</svg>
