<?xml version="1.0" encoding="UTF-8" standalone="no"?>
<!DOCTYPE svg PUBLIC "-//W3C//DTD SVG 1.1//EN"
 "http://www.w3.org/Graphics/SVG/1.1/DTD/svg11.dtd">
<!-- Generated by graphviz version 2.43.0 (0)
 -->
<!-- Title: G Pages: 1 -->
<svg width="318pt" height="987pt"
 viewBox="0.00 0.00 318.29 987.00" xmlns="http://www.w3.org/2000/svg" xmlns:xlink="http://www.w3.org/1999/xlink">
<g id="graph0" class="graph" transform="scale(1 1) rotate(0) translate(4 983)">
<title>G</title>
<polygon fill="transparent" stroke="transparent" points="-4,4 -4,-983 314.29,-983 314.29,4 -4,4"/>
<!-- aca0a538&#45;5f92&#45;4073&#45;a605&#45;1a6e56bfde64 -->
<g id="node1" class="node">
<title>aca0a538&#45;5f92&#45;4073&#45;a605&#45;1a6e56bfde64</title>
<polygon fill="none" stroke="black" points="65.34,-906 0.16,-888 65.34,-870 130.52,-888 65.34,-906"/>
<text text-anchor="middle" x="65.34" y="-884.3" font-family="Times,serif" font-size="14.00">AlwaysTrue</text>
</g>
<!-- 46367a7d&#45;8319&#45;4989&#45;9650&#45;448bf2a14b33 -->
<g id="node11" class="node">
<title>46367a7d&#45;8319&#45;4989&#45;9650&#45;448bf2a14b33</title>
<ellipse fill="none" stroke="black" cx="103.34" cy="-801" rx="46.5" ry="18"/>
<text text-anchor="middle" x="103.34" y="-797.3" font-family="Times,serif" font-size="14.00">VisionNorm</text>
</g>
<!-- aca0a538&#45;5f92&#45;4073&#45;a605&#45;1a6e56bfde64&#45;&gt;46367a7d&#45;8319&#45;4989&#45;9650&#45;448bf2a14b33 -->
<g id="edge10" class="edge">
<title>aca0a538&#45;5f92&#45;4073&#45;a605&#45;1a6e56bfde64&#45;&gt;46367a7d&#45;8319&#45;4989&#45;9650&#45;448bf2a14b33</title>
<path fill="none" stroke="black" d="M72.13,-871.8C77.54,-859.7 85.25,-842.47 91.65,-828.16"/>
<polygon fill="black" stroke="black" points="94.94,-829.37 95.82,-818.81 88.55,-826.51 94.94,-829.37"/>
<text text-anchor="middle" x="104.34" y="-840.8" font-family="Times,serif" font-size="14.00">True</text>
</g>
<!-- ccb22468&#45;02b0&#45;476c&#45;9787&#45;ace2a5c6bd12 -->
<g id="node2" class="node">
<title>ccb22468&#45;02b0&#45;476c&#45;9787&#45;ace2a5c6bd12</title>
<ellipse fill="none" stroke="black" cx="103.34" cy="-105" rx="27" ry="18"/>
<text text-anchor="middle" x="103.34" y="-101.3" font-family="Times,serif" font-size="14.00">FlatX</text>
</g>
<!-- 65996d52&#45;6a32&#45;41f4&#45;a7e0&#45;6162193496f8 -->
<g id="node3" class="node">
<title>65996d52&#45;6a32&#45;41f4&#45;a7e0&#45;6162193496f8</title>
<ellipse fill="none" stroke="black" cx="103.34" cy="-18" rx="80.11" ry="18"/>
<text text-anchor="middle" x="103.34" y="-14.3" font-family="Times,serif" font-size="14.00">Stability2Movement</text>
</g>
<!-- ccb22468&#45;02b0&#45;476c&#45;9787&#45;ace2a5c6bd12&#45;&gt;65996d52&#45;6a32&#45;41f4&#45;a7e0&#45;6162193496f8 -->
<g id="edge1" class="edge">
<title>ccb22468&#45;02b0&#45;476c&#45;9787&#45;ace2a5c6bd12&#45;&gt;65996d52&#45;6a32&#45;41f4&#45;a7e0&#45;6162193496f8</title>
<path fill="none" stroke="purple" d="M103.34,-86.8C103.34,-75.16 103.34,-59.55 103.34,-46.24"/>
<polygon fill="purple" stroke="purple" points="106.84,-46.18 103.34,-36.18 99.84,-46.18 106.84,-46.18"/>
<text text-anchor="middle" x="138.84" y="-57.8" font-family="Times,serif" font-size="14.00" fill="purple">Pass Data</text>
</g>
<!-- 4baed026&#45;58c9&#45;47b1&#45;8ef1&#45;bf935065d970 -->
<g id="node4" class="node">
<title>4baed026&#45;58c9&#45;47b1&#45;8ef1&#45;bf935065d970</title>
<ellipse fill="none" stroke="black" cx="103.34" cy="-192" rx="27" ry="18"/>
<text text-anchor="middle" x="103.34" y="-188.3" font-family="Times,serif" font-size="14.00">StripY</text>
</g>
<!-- 4baed026&#45;58c9&#45;47b1&#45;8ef1&#45;bf935065d970&#45;&gt;ccb22468&#45;02b0&#45;476c&#45;9787&#45;ace2a5c6bd12 -->
<g id="edge2" class="edge">
<title>4baed026&#45;58c9&#45;47b1&#45;8ef1&#45;bf935065d970&#45;&gt;ccb22468&#45;02b0&#45;476c&#45;9787&#45;ace2a5c6bd12</title>
<path fill="none" stroke="purple" d="M103.34,-173.8C103.34,-162.16 103.34,-146.55 103.34,-133.24"/>
<polygon fill="purple" stroke="purple" points="106.84,-133.18 103.34,-123.18 99.84,-133.18 106.84,-133.18"/>
<text text-anchor="middle" x="138.84" y="-144.8" font-family="Times,serif" font-size="14.00" fill="purple">Pass Data</text>
</g>
<!-- f216e817&#45;9121&#45;4a8f&#45;b41e&#45;9cc29c04dd88 -->
<g id="node5" class="node">
<title>f216e817&#45;9121&#45;4a8f&#45;b41e&#45;9cc29c04dd88</title>
<ellipse fill="none" stroke="black" cx="103.34" cy="-279" rx="52.6" ry="18"/>
<text text-anchor="middle" x="103.34" y="-275.3" font-family="Times,serif" font-size="14.00">Anon Closure</text>
</g>
<!-- f216e817&#45;9121&#45;4a8f&#45;b41e&#45;9cc29c04dd88&#45;&gt;4baed026&#45;58c9&#45;47b1&#45;8ef1&#45;bf935065d970 -->
<g id="edge3" class="edge">
<title>f216e817&#45;9121&#45;4a8f&#45;b41e&#45;9cc29c04dd88&#45;&gt;4baed026&#45;58c9&#45;47b1&#45;8ef1&#45;bf935065d970</title>
<path fill="none" stroke="purple" d="M103.34,-260.8C103.34,-249.16 103.34,-233.55 103.34,-220.24"/>
<polygon fill="purple" stroke="purple" points="106.84,-220.18 103.34,-210.18 99.84,-220.18 106.84,-220.18"/>
<text text-anchor="middle" x="138.84" y="-231.8" font-family="Times,serif" font-size="14.00" fill="purple">Pass Data</text>
</g>
<!-- 3bc7ef85&#45;96ab&#45;46b2&#45;8aa9&#45;9bf7ba5a2b1e -->
<g id="node6" class="node">
<title>3bc7ef85&#45;96ab&#45;46b2&#45;8aa9&#45;9bf7ba5a2b1e</title>
<ellipse fill="none" stroke="black" cx="103.34" cy="-366" rx="51.3" ry="18"/>
<text text-anchor="middle" x="103.34" y="-362.3" font-family="Times,serif" font-size="14.00">OffsetToPose</text>
</g>
<!-- 3bc7ef85&#45;96ab&#45;46b2&#45;8aa9&#45;9bf7ba5a2b1e&#45;&gt;f216e817&#45;9121&#45;4a8f&#45;b41e&#45;9cc29c04dd88 -->
<g id="edge4" class="edge">
<title>3bc7ef85&#45;96ab&#45;46b2&#45;8aa9&#45;9bf7ba5a2b1e&#45;&gt;f216e817&#45;9121&#45;4a8f&#45;b41e&#45;9cc29c04dd88</title>
<path fill="none" stroke="purple" d="M103.34,-347.8C103.34,-336.16 103.34,-320.55 103.34,-307.24"/>
<polygon fill="purple" stroke="purple" points="106.84,-307.18 103.34,-297.18 99.84,-307.18 106.84,-307.18"/>
<text text-anchor="middle" x="138.84" y="-318.8" font-family="Times,serif" font-size="14.00" fill="purple">Pass Data</text>
</g>
<!-- 6ee5bb91&#45;5121&#45;47f3&#45;aff6&#45;3f2054434e79 -->
<g id="node7" class="node">
<title>6ee5bb91&#45;5121&#45;47f3&#45;aff6&#45;3f2054434e79</title>
<ellipse fill="none" stroke="black" cx="103.34" cy="-453" rx="32.4" ry="18"/>
<text text-anchor="middle" x="103.34" y="-449.3" font-family="Times,serif" font-size="14.00">Average</text>
</g>
<!-- 6ee5bb91&#45;5121&#45;47f3&#45;aff6&#45;3f2054434e79&#45;&gt;3bc7ef85&#45;96ab&#45;46b2&#45;8aa9&#45;9bf7ba5a2b1e -->
<g id="edge5" class="edge">
<title>6ee5bb91&#45;5121&#45;47f3&#45;aff6&#45;3f2054434e79&#45;&gt;3bc7ef85&#45;96ab&#45;46b2&#45;8aa9&#45;9bf7ba5a2b1e</title>
<path fill="none" stroke="purple" d="M103.34,-434.8C103.34,-423.16 103.34,-407.55 103.34,-394.24"/>
<polygon fill="purple" stroke="purple" points="106.84,-394.18 103.34,-384.18 99.84,-394.18 106.84,-394.18"/>
<text text-anchor="middle" x="138.84" y="-405.8" font-family="Times,serif" font-size="14.00" fill="purple">Pass Data</text>
</g>
<!-- 78af7a22&#45;3572&#45;4e3b&#45;b428&#45;0f56cacf15f6 -->
<g id="node8" class="node">
<title>78af7a22&#45;3572&#45;4e3b&#45;b428&#45;0f56cacf15f6</title>
<ellipse fill="none" stroke="black" cx="103.34" cy="-540" rx="61.1" ry="18"/>
<text text-anchor="middle" x="103.34" y="-536.3" font-family="Times,serif" font-size="14.00">ExtractPosition</text>
</g>
<!-- 78af7a22&#45;3572&#45;4e3b&#45;b428&#45;0f56cacf15f6&#45;&gt;6ee5bb91&#45;5121&#45;47f3&#45;aff6&#45;3f2054434e79 -->
<g id="edge6" class="edge">
<title>78af7a22&#45;3572&#45;4e3b&#45;b428&#45;0f56cacf15f6&#45;&gt;6ee5bb91&#45;5121&#45;47f3&#45;aff6&#45;3f2054434e79</title>
<path fill="none" stroke="purple" d="M103.34,-521.8C103.34,-510.16 103.34,-494.55 103.34,-481.24"/>
<polygon fill="purple" stroke="purple" points="106.84,-481.18 103.34,-471.18 99.84,-481.18 106.84,-481.18"/>
<text text-anchor="middle" x="138.84" y="-492.8" font-family="Times,serif" font-size="14.00" fill="purple">Pass Data</text>
</g>
<!-- 54983811&#45;d3f0&#45;4b79&#45;9a06&#45;ebba51e59479 -->
<g id="node9" class="node">
<title>54983811&#45;d3f0&#45;4b79&#45;9a06&#45;ebba51e59479</title>
<ellipse fill="none" stroke="black" cx="103.34" cy="-627" rx="27" ry="18"/>
<text text-anchor="middle" x="103.34" y="-623.3" font-family="Times,serif" font-size="14.00">ToVec</text>
</g>
<!-- 54983811&#45;d3f0&#45;4b79&#45;9a06&#45;ebba51e59479&#45;&gt;78af7a22&#45;3572&#45;4e3b&#45;b428&#45;0f56cacf15f6 -->
<g id="edge7" class="edge">
<title>54983811&#45;d3f0&#45;4b79&#45;9a06&#45;ebba51e59479&#45;&gt;78af7a22&#45;3572&#45;4e3b&#45;b428&#45;0f56cacf15f6</title>
<path fill="none" stroke="purple" d="M103.34,-608.8C103.34,-597.16 103.34,-581.55 103.34,-568.24"/>
<polygon fill="purple" stroke="purple" points="106.84,-568.18 103.34,-558.18 99.84,-568.18 106.84,-568.18"/>
<text text-anchor="middle" x="138.84" y="-579.8" font-family="Times,serif" font-size="14.00" fill="purple">Pass Data</text>
</g>
<!-- 9455f389&#45;b600&#45;47f8&#45;a01a&#45;d3b131f84b76 -->
<g id="node10" class="node">
<title>9455f389&#45;b600&#45;47f8&#45;a01a&#45;d3b131f84b76</title>
<ellipse fill="none" stroke="black" cx="103.34" cy="-714" rx="45.2" ry="18"/>
<text text-anchor="middle" x="103.34" y="-710.3" font-family="Times,serif" font-size="14.00">Detect true</text>
</g>
<!-- 9455f389&#45;b600&#45;47f8&#45;a01a&#45;d3b131f84b76&#45;&gt;54983811&#45;d3f0&#45;4b79&#45;9a06&#45;ebba51e59479 -->
<g id="edge8" class="edge">
<title>9455f389&#45;b600&#45;47f8&#45;a01a&#45;d3b131f84b76&#45;&gt;54983811&#45;d3f0&#45;4b79&#45;9a06&#45;ebba51e59479</title>
<path fill="none" stroke="purple" d="M103.34,-695.8C103.34,-684.16 103.34,-668.55 103.34,-655.24"/>
<polygon fill="purple" stroke="purple" points="106.84,-655.18 103.34,-645.18 99.84,-655.18 106.84,-655.18"/>
<text text-anchor="middle" x="138.84" y="-666.8" font-family="Times,serif" font-size="14.00" fill="purple">Pass Data</text>
</g>
<!-- 46367a7d&#45;8319&#45;4989&#45;9650&#45;448bf2a14b33&#45;&gt;9455f389&#45;b600&#45;47f8&#45;a01a&#45;d3b131f84b76 -->
<g id="edge9" class="edge">
<title>46367a7d&#45;8319&#45;4989&#45;9650&#45;448bf2a14b33&#45;&gt;9455f389&#45;b600&#45;47f8&#45;a01a&#45;d3b131f84b76</title>
<path fill="none" stroke="purple" d="M103.34,-782.8C103.34,-771.16 103.34,-755.55 103.34,-742.24"/>
<polygon fill="purple" stroke="purple" points="106.84,-742.18 103.34,-732.18 99.84,-742.18 106.84,-742.18"/>
<text text-anchor="middle" x="138.84" y="-753.8" font-family="Times,serif" font-size="14.00" fill="purple">Pass Data</text>
</g>
<!-- 7d2e846a&#45;eea6&#45;4914&#45;b85e&#45;d309670bea3f -->
<g id="node12" class="node">
<title>7d2e846a&#45;eea6&#45;4914&#45;b85e&#45;d309670bea3f</title>
<ellipse fill="none" stroke="black" cx="250.34" cy="-888" rx="47.1" ry="18"/>
<text text-anchor="middle" x="250.34" y="-884.3" font-family="Times,serif" font-size="14.00">DelayAction</text>
</g>
<!-- 7d2e846a&#45;eea6&#45;4914&#45;b85e&#45;d309670bea3f&#45;&gt;46367a7d&#45;8319&#45;4989&#45;9650&#45;448bf2a14b33 -->
<g id="edge11" class="edge">
<title>7d2e846a&#45;eea6&#45;4914&#45;b85e&#45;d309670bea3f&#45;&gt;46367a7d&#45;8319&#45;4989&#45;9650&#45;448bf2a14b33</title>
<path fill="none" stroke="black" d="M225.4,-872.58C201.12,-858.54 164.03,-837.09 137.1,-821.52"/>
<polygon fill="black" stroke="black" points="138.81,-818.47 128.4,-816.49 135.3,-824.53 138.81,-818.47"/>
</g>
<!-- 20e81e6b&#45;6856&#45;41e6&#45;9220&#45;32e93d3f3eb1 -->
<g id="node13" class="node">
<title>20e81e6b&#45;6856&#45;41e6&#45;9220&#45;32e93d3f3eb1</title>
<ellipse fill="none" stroke="black" cx="250.34" cy="-961" rx="59.9" ry="18"/>
<text text-anchor="middle" x="250.34" y="-957.3" font-family="Times,serif" font-size="14.00">ZeroMovement</text>
</g>
<!-- 20e81e6b&#45;6856&#45;41e6&#45;9220&#45;32e93d3f3eb1&#45;&gt;7d2e846a&#45;eea6&#45;4914&#45;b85e&#45;d309670bea3f -->
<g id="edge12" class="edge">
<title>20e81e6b&#45;6856&#45;41e6&#45;9220&#45;32e93d3f3eb1&#45;&gt;7d2e846a&#45;eea6&#45;4914&#45;b85e&#45;d309670bea3f</title>
<path fill="none" stroke="black" d="M250.34,-942.81C250.34,-934.79 250.34,-925.05 250.34,-916.07"/>
<polygon fill="black" stroke="black" points="253.84,-916.03 250.34,-906.03 246.84,-916.03 253.84,-916.03"/>
</g>
</g>
</svg>
