<?xml version="1.0" encoding="UTF-8" standalone="no"?>
<!DOCTYPE svg PUBLIC "-//W3C//DTD SVG 1.1//EN"
 "http://www.w3.org/Graphics/SVG/1.1/DTD/svg11.dtd">
<!-- Generated by graphviz version 2.43.0 (0)
 -->
<!-- Title: G Pages: 1 -->
<svg width="318pt" height="987pt"
 viewBox="0.00 0.00 318.29 987.00" xmlns="http://www.w3.org/2000/svg" xmlns:xlink="http://www.w3.org/1999/xlink">
<g id="graph0" class="graph" transform="scale(1 1) rotate(0) translate(4 983)">
<title>G</title>
<polygon fill="transparent" stroke="transparent" points="-4,4 -4,-983 314.29,-983 314.29,4 -4,4"/>
<!-- 17224da7&#45;da90&#45;412c&#45;8871&#45;fb5656c1e40b -->
<g id="node1" class="node">
<title>17224da7&#45;da90&#45;412c&#45;8871&#45;fb5656c1e40b</title>
<polygon fill="none" stroke="black" points="65.34,-906 0.16,-888 65.34,-870 130.52,-888 65.34,-906"/>
<text text-anchor="middle" x="65.34" y="-884.3" font-family="Times,serif" font-size="14.00">AlwaysTrue</text>
</g>
<!-- 68e2806c&#45;9b41&#45;4496&#45;a6ae&#45;2425bbc92d0b -->
<g id="node11" class="node">
<title>68e2806c&#45;9b41&#45;4496&#45;a6ae&#45;2425bbc92d0b</title>
<ellipse fill="none" stroke="black" cx="103.34" cy="-801" rx="46.5" ry="18"/>
<text text-anchor="middle" x="103.34" y="-797.3" font-family="Times,serif" font-size="14.00">VisionNorm</text>
</g>
<!-- 17224da7&#45;da90&#45;412c&#45;8871&#45;fb5656c1e40b&#45;&gt;68e2806c&#45;9b41&#45;4496&#45;a6ae&#45;2425bbc92d0b -->
<g id="edge10" class="edge">
<title>17224da7&#45;da90&#45;412c&#45;8871&#45;fb5656c1e40b&#45;&gt;68e2806c&#45;9b41&#45;4496&#45;a6ae&#45;2425bbc92d0b</title>
<path fill="none" stroke="black" d="M72.13,-871.8C77.54,-859.7 85.25,-842.47 91.65,-828.16"/>
<polygon fill="black" stroke="black" points="94.94,-829.37 95.82,-818.81 88.55,-826.51 94.94,-829.37"/>
<text text-anchor="middle" x="104.34" y="-840.8" font-family="Times,serif" font-size="14.00">True</text>
</g>
<!-- 00da7cbe&#45;df4f&#45;4595&#45;af8f&#45;3b06dfdc47d4 -->
<g id="node2" class="node">
<title>00da7cbe&#45;df4f&#45;4595&#45;af8f&#45;3b06dfdc47d4</title>
<ellipse fill="none" stroke="black" cx="103.34" cy="-105" rx="27" ry="18"/>
<text text-anchor="middle" x="103.34" y="-101.3" font-family="Times,serif" font-size="14.00">FlatX</text>
</g>
<!-- 020fb482&#45;6a21&#45;4e12&#45;bdee&#45;fe306be0f867 -->
<g id="node3" class="node">
<title>020fb482&#45;6a21&#45;4e12&#45;bdee&#45;fe306be0f867</title>
<ellipse fill="none" stroke="black" cx="103.34" cy="-18" rx="80.11" ry="18"/>
<text text-anchor="middle" x="103.34" y="-14.3" font-family="Times,serif" font-size="14.00">Stability2Movement</text>
</g>
<!-- 00da7cbe&#45;df4f&#45;4595&#45;af8f&#45;3b06dfdc47d4&#45;&gt;020fb482&#45;6a21&#45;4e12&#45;bdee&#45;fe306be0f867 -->
<g id="edge1" class="edge">
<title>00da7cbe&#45;df4f&#45;4595&#45;af8f&#45;3b06dfdc47d4&#45;&gt;020fb482&#45;6a21&#45;4e12&#45;bdee&#45;fe306be0f867</title>
<path fill="none" stroke="purple" d="M103.34,-86.8C103.34,-75.16 103.34,-59.55 103.34,-46.24"/>
<polygon fill="purple" stroke="purple" points="106.84,-46.18 103.34,-36.18 99.84,-46.18 106.84,-46.18"/>
<text text-anchor="middle" x="138.84" y="-57.8" font-family="Times,serif" font-size="14.00" fill="purple">Pass Data</text>
</g>
<!-- 4e599b65&#45;8c25&#45;4d38&#45;9f18&#45;890e130dac54 -->
<g id="node4" class="node">
<title>4e599b65&#45;8c25&#45;4d38&#45;9f18&#45;890e130dac54</title>
<ellipse fill="none" stroke="black" cx="103.34" cy="-192" rx="27" ry="18"/>
<text text-anchor="middle" x="103.34" y="-188.3" font-family="Times,serif" font-size="14.00">StripY</text>
</g>
<!-- 4e599b65&#45;8c25&#45;4d38&#45;9f18&#45;890e130dac54&#45;&gt;00da7cbe&#45;df4f&#45;4595&#45;af8f&#45;3b06dfdc47d4 -->
<g id="edge2" class="edge">
<title>4e599b65&#45;8c25&#45;4d38&#45;9f18&#45;890e130dac54&#45;&gt;00da7cbe&#45;df4f&#45;4595&#45;af8f&#45;3b06dfdc47d4</title>
<path fill="none" stroke="purple" d="M103.34,-173.8C103.34,-162.16 103.34,-146.55 103.34,-133.24"/>
<polygon fill="purple" stroke="purple" points="106.84,-133.18 103.34,-123.18 99.84,-133.18 106.84,-133.18"/>
<text text-anchor="middle" x="138.84" y="-144.8" font-family="Times,serif" font-size="14.00" fill="purple">Pass Data</text>
</g>
<!-- 4956f20a&#45;9a09&#45;47ad&#45;853f&#45;cc3347b074dc -->
<g id="node5" class="node">
<title>4956f20a&#45;9a09&#45;47ad&#45;853f&#45;cc3347b074dc</title>
<ellipse fill="none" stroke="black" cx="103.34" cy="-279" rx="52.6" ry="18"/>
<text text-anchor="middle" x="103.34" y="-275.3" font-family="Times,serif" font-size="14.00">Anon Closure</text>
</g>
<!-- 4956f20a&#45;9a09&#45;47ad&#45;853f&#45;cc3347b074dc&#45;&gt;4e599b65&#45;8c25&#45;4d38&#45;9f18&#45;890e130dac54 -->
<g id="edge3" class="edge">
<title>4956f20a&#45;9a09&#45;47ad&#45;853f&#45;cc3347b074dc&#45;&gt;4e599b65&#45;8c25&#45;4d38&#45;9f18&#45;890e130dac54</title>
<path fill="none" stroke="purple" d="M103.34,-260.8C103.34,-249.16 103.34,-233.55 103.34,-220.24"/>
<polygon fill="purple" stroke="purple" points="106.84,-220.18 103.34,-210.18 99.84,-220.18 106.84,-220.18"/>
<text text-anchor="middle" x="138.84" y="-231.8" font-family="Times,serif" font-size="14.00" fill="purple">Pass Data</text>
</g>
<!-- f7441ef8&#45;bf67&#45;4f2d&#45;8c67&#45;78136dc893d8 -->
<g id="node6" class="node">
<title>f7441ef8&#45;bf67&#45;4f2d&#45;8c67&#45;78136dc893d8</title>
<ellipse fill="none" stroke="black" cx="103.34" cy="-366" rx="51.3" ry="18"/>
<text text-anchor="middle" x="103.34" y="-362.3" font-family="Times,serif" font-size="14.00">OffsetToPose</text>
</g>
<!-- f7441ef8&#45;bf67&#45;4f2d&#45;8c67&#45;78136dc893d8&#45;&gt;4956f20a&#45;9a09&#45;47ad&#45;853f&#45;cc3347b074dc -->
<g id="edge4" class="edge">
<title>f7441ef8&#45;bf67&#45;4f2d&#45;8c67&#45;78136dc893d8&#45;&gt;4956f20a&#45;9a09&#45;47ad&#45;853f&#45;cc3347b074dc</title>
<path fill="none" stroke="purple" d="M103.34,-347.8C103.34,-336.16 103.34,-320.55 103.34,-307.24"/>
<polygon fill="purple" stroke="purple" points="106.84,-307.18 103.34,-297.18 99.84,-307.18 106.84,-307.18"/>
<text text-anchor="middle" x="138.84" y="-318.8" font-family="Times,serif" font-size="14.00" fill="purple">Pass Data</text>
</g>
<!-- 84b0f335&#45;b40f&#45;41e8&#45;95a0&#45;db8b5ea8d88c -->
<g id="node7" class="node">
<title>84b0f335&#45;b40f&#45;41e8&#45;95a0&#45;db8b5ea8d88c</title>
<ellipse fill="none" stroke="black" cx="103.34" cy="-453" rx="32.4" ry="18"/>
<text text-anchor="middle" x="103.34" y="-449.3" font-family="Times,serif" font-size="14.00">Average</text>
</g>
<!-- 84b0f335&#45;b40f&#45;41e8&#45;95a0&#45;db8b5ea8d88c&#45;&gt;f7441ef8&#45;bf67&#45;4f2d&#45;8c67&#45;78136dc893d8 -->
<g id="edge5" class="edge">
<title>84b0f335&#45;b40f&#45;41e8&#45;95a0&#45;db8b5ea8d88c&#45;&gt;f7441ef8&#45;bf67&#45;4f2d&#45;8c67&#45;78136dc893d8</title>
<path fill="none" stroke="purple" d="M103.34,-434.8C103.34,-423.16 103.34,-407.55 103.34,-394.24"/>
<polygon fill="purple" stroke="purple" points="106.84,-394.18 103.34,-384.18 99.84,-394.18 106.84,-394.18"/>
<text text-anchor="middle" x="138.84" y="-405.8" font-family="Times,serif" font-size="14.00" fill="purple">Pass Data</text>
</g>
<!-- 5de82662&#45;183a&#45;4d7a&#45;90ec&#45;101085ce284c -->
<g id="node8" class="node">
<title>5de82662&#45;183a&#45;4d7a&#45;90ec&#45;101085ce284c</title>
<ellipse fill="none" stroke="black" cx="103.34" cy="-540" rx="61.1" ry="18"/>
<text text-anchor="middle" x="103.34" y="-536.3" font-family="Times,serif" font-size="14.00">ExtractPosition</text>
</g>
<!-- 5de82662&#45;183a&#45;4d7a&#45;90ec&#45;101085ce284c&#45;&gt;84b0f335&#45;b40f&#45;41e8&#45;95a0&#45;db8b5ea8d88c -->
<g id="edge6" class="edge">
<title>5de82662&#45;183a&#45;4d7a&#45;90ec&#45;101085ce284c&#45;&gt;84b0f335&#45;b40f&#45;41e8&#45;95a0&#45;db8b5ea8d88c</title>
<path fill="none" stroke="purple" d="M103.34,-521.8C103.34,-510.16 103.34,-494.55 103.34,-481.24"/>
<polygon fill="purple" stroke="purple" points="106.84,-481.18 103.34,-471.18 99.84,-481.18 106.84,-481.18"/>
<text text-anchor="middle" x="138.84" y="-492.8" font-family="Times,serif" font-size="14.00" fill="purple">Pass Data</text>
</g>
<!-- 189a881a&#45;03e7&#45;4a07&#45;96e4&#45;d2e2f7415521 -->
<g id="node9" class="node">
<title>189a881a&#45;03e7&#45;4a07&#45;96e4&#45;d2e2f7415521</title>
<ellipse fill="none" stroke="black" cx="103.34" cy="-627" rx="27" ry="18"/>
<text text-anchor="middle" x="103.34" y="-623.3" font-family="Times,serif" font-size="14.00">ToVec</text>
</g>
<!-- 189a881a&#45;03e7&#45;4a07&#45;96e4&#45;d2e2f7415521&#45;&gt;5de82662&#45;183a&#45;4d7a&#45;90ec&#45;101085ce284c -->
<g id="edge7" class="edge">
<title>189a881a&#45;03e7&#45;4a07&#45;96e4&#45;d2e2f7415521&#45;&gt;5de82662&#45;183a&#45;4d7a&#45;90ec&#45;101085ce284c</title>
<path fill="none" stroke="purple" d="M103.34,-608.8C103.34,-597.16 103.34,-581.55 103.34,-568.24"/>
<polygon fill="purple" stroke="purple" points="106.84,-568.18 103.34,-558.18 99.84,-568.18 106.84,-568.18"/>
<text text-anchor="middle" x="138.84" y="-579.8" font-family="Times,serif" font-size="14.00" fill="purple">Pass Data</text>
</g>
<!-- 8b1ebf20&#45;b5c6&#45;4ed1&#45;aaf2&#45;9291a6e068a6 -->
<g id="node10" class="node">
<title>8b1ebf20&#45;b5c6&#45;4ed1&#45;aaf2&#45;9291a6e068a6</title>
<ellipse fill="none" stroke="black" cx="103.34" cy="-714" rx="45.2" ry="18"/>
<text text-anchor="middle" x="103.34" y="-710.3" font-family="Times,serif" font-size="14.00">Detect true</text>
</g>
<!-- 8b1ebf20&#45;b5c6&#45;4ed1&#45;aaf2&#45;9291a6e068a6&#45;&gt;189a881a&#45;03e7&#45;4a07&#45;96e4&#45;d2e2f7415521 -->
<g id="edge8" class="edge">
<title>8b1ebf20&#45;b5c6&#45;4ed1&#45;aaf2&#45;9291a6e068a6&#45;&gt;189a881a&#45;03e7&#45;4a07&#45;96e4&#45;d2e2f7415521</title>
<path fill="none" stroke="purple" d="M103.34,-695.8C103.34,-684.16 103.34,-668.55 103.34,-655.24"/>
<polygon fill="purple" stroke="purple" points="106.84,-655.18 103.34,-645.18 99.84,-655.18 106.84,-655.18"/>
<text text-anchor="middle" x="138.84" y="-666.8" font-family="Times,serif" font-size="14.00" fill="purple">Pass Data</text>
</g>
<!-- 68e2806c&#45;9b41&#45;4496&#45;a6ae&#45;2425bbc92d0b&#45;&gt;8b1ebf20&#45;b5c6&#45;4ed1&#45;aaf2&#45;9291a6e068a6 -->
<g id="edge9" class="edge">
<title>68e2806c&#45;9b41&#45;4496&#45;a6ae&#45;2425bbc92d0b&#45;&gt;8b1ebf20&#45;b5c6&#45;4ed1&#45;aaf2&#45;9291a6e068a6</title>
<path fill="none" stroke="purple" d="M103.34,-782.8C103.34,-771.16 103.34,-755.55 103.34,-742.24"/>
<polygon fill="purple" stroke="purple" points="106.84,-742.18 103.34,-732.18 99.84,-742.18 106.84,-742.18"/>
<text text-anchor="middle" x="138.84" y="-753.8" font-family="Times,serif" font-size="14.00" fill="purple">Pass Data</text>
</g>
<!-- ecd2b45e&#45;51c3&#45;4377&#45;8e60&#45;c57dbe52d41c -->
<g id="node12" class="node">
<title>ecd2b45e&#45;51c3&#45;4377&#45;8e60&#45;c57dbe52d41c</title>
<ellipse fill="none" stroke="black" cx="250.34" cy="-888" rx="47.1" ry="18"/>
<text text-anchor="middle" x="250.34" y="-884.3" font-family="Times,serif" font-size="14.00">DelayAction</text>
</g>
<!-- ecd2b45e&#45;51c3&#45;4377&#45;8e60&#45;c57dbe52d41c&#45;&gt;68e2806c&#45;9b41&#45;4496&#45;a6ae&#45;2425bbc92d0b -->
<g id="edge11" class="edge">
<title>ecd2b45e&#45;51c3&#45;4377&#45;8e60&#45;c57dbe52d41c&#45;&gt;68e2806c&#45;9b41&#45;4496&#45;a6ae&#45;2425bbc92d0b</title>
<path fill="none" stroke="black" d="M225.4,-872.58C201.12,-858.54 164.03,-837.09 137.1,-821.52"/>
<polygon fill="black" stroke="black" points="138.81,-818.47 128.4,-816.49 135.3,-824.53 138.81,-818.47"/>
</g>
<!-- 0253f5e5&#45;dbd0&#45;4b66&#45;acf9&#45;c4ed69e57824 -->
<g id="node13" class="node">
<title>0253f5e5&#45;dbd0&#45;4b66&#45;acf9&#45;c4ed69e57824</title>
<ellipse fill="none" stroke="black" cx="250.34" cy="-961" rx="59.9" ry="18"/>
<text text-anchor="middle" x="250.34" y="-957.3" font-family="Times,serif" font-size="14.00">ZeroMovement</text>
</g>
<!-- 0253f5e5&#45;dbd0&#45;4b66&#45;acf9&#45;c4ed69e57824&#45;&gt;ecd2b45e&#45;51c3&#45;4377&#45;8e60&#45;c57dbe52d41c -->
<g id="edge12" class="edge">
<title>0253f5e5&#45;dbd0&#45;4b66&#45;acf9&#45;c4ed69e57824&#45;&gt;ecd2b45e&#45;51c3&#45;4377&#45;8e60&#45;c57dbe52d41c</title>
<path fill="none" stroke="black" d="M250.34,-942.81C250.34,-934.79 250.34,-925.05 250.34,-916.07"/>
<polygon fill="black" stroke="black" points="253.84,-916.03 250.34,-906.03 246.84,-916.03 253.84,-916.03"/>
</g>
</g>
</svg>
