<?xml version="1.0" encoding="UTF-8" standalone="no"?>
<!DOCTYPE svg PUBLIC "-//W3C//DTD SVG 1.1//EN"
 "http://www.w3.org/Graphics/SVG/1.1/DTD/svg11.dtd">
<!-- Generated by graphviz version 2.43.0 (0)
 -->
<!-- Title: G Pages: 1 -->
<svg width="318pt" height="987pt"
 viewBox="0.00 0.00 318.29 987.00" xmlns="http://www.w3.org/2000/svg" xmlns:xlink="http://www.w3.org/1999/xlink">
<g id="graph0" class="graph" transform="scale(1 1) rotate(0) translate(4 983)">
<title>G</title>
<polygon fill="transparent" stroke="transparent" points="-4,4 -4,-983 314.29,-983 314.29,4 -4,4"/>
<!-- f747993c&#45;80ef&#45;48c1&#45;8823&#45;91f972ea7750 -->
<g id="node1" class="node">
<title>f747993c&#45;80ef&#45;48c1&#45;8823&#45;91f972ea7750</title>
<polygon fill="none" stroke="black" points="65.34,-906 0.16,-888 65.34,-870 130.52,-888 65.34,-906"/>
<text text-anchor="middle" x="65.34" y="-884.3" font-family="Times,serif" font-size="14.00">AlwaysTrue</text>
</g>
<!-- 4e9454ec&#45;0fb7&#45;4da3&#45;a981&#45;af50e5991b1b -->
<g id="node11" class="node">
<title>4e9454ec&#45;0fb7&#45;4da3&#45;a981&#45;af50e5991b1b</title>
<ellipse fill="none" stroke="black" cx="103.34" cy="-801" rx="46.5" ry="18"/>
<text text-anchor="middle" x="103.34" y="-797.3" font-family="Times,serif" font-size="14.00">VisionNorm</text>
</g>
<!-- f747993c&#45;80ef&#45;48c1&#45;8823&#45;91f972ea7750&#45;&gt;4e9454ec&#45;0fb7&#45;4da3&#45;a981&#45;af50e5991b1b -->
<g id="edge10" class="edge">
<title>f747993c&#45;80ef&#45;48c1&#45;8823&#45;91f972ea7750&#45;&gt;4e9454ec&#45;0fb7&#45;4da3&#45;a981&#45;af50e5991b1b</title>
<path fill="none" stroke="black" d="M72.13,-871.8C77.54,-859.7 85.25,-842.47 91.65,-828.16"/>
<polygon fill="black" stroke="black" points="94.94,-829.37 95.82,-818.81 88.55,-826.51 94.94,-829.37"/>
<text text-anchor="middle" x="104.34" y="-840.8" font-family="Times,serif" font-size="14.00">True</text>
</g>
<!-- 306e240d&#45;0a54&#45;49d0&#45;979e&#45;30576803c2a7 -->
<g id="node2" class="node">
<title>306e240d&#45;0a54&#45;49d0&#45;979e&#45;30576803c2a7</title>
<ellipse fill="none" stroke="black" cx="103.34" cy="-105" rx="27" ry="18"/>
<text text-anchor="middle" x="103.34" y="-101.3" font-family="Times,serif" font-size="14.00">FlatX</text>
</g>
<!-- ea417dc2&#45;ddba&#45;47e8&#45;824e&#45;9e9fa585ed51 -->
<g id="node3" class="node">
<title>ea417dc2&#45;ddba&#45;47e8&#45;824e&#45;9e9fa585ed51</title>
<ellipse fill="none" stroke="black" cx="103.34" cy="-18" rx="80.11" ry="18"/>
<text text-anchor="middle" x="103.34" y="-14.3" font-family="Times,serif" font-size="14.00">Stability2Movement</text>
</g>
<!-- 306e240d&#45;0a54&#45;49d0&#45;979e&#45;30576803c2a7&#45;&gt;ea417dc2&#45;ddba&#45;47e8&#45;824e&#45;9e9fa585ed51 -->
<g id="edge1" class="edge">
<title>306e240d&#45;0a54&#45;49d0&#45;979e&#45;30576803c2a7&#45;&gt;ea417dc2&#45;ddba&#45;47e8&#45;824e&#45;9e9fa585ed51</title>
<path fill="none" stroke="purple" d="M103.34,-86.8C103.34,-75.16 103.34,-59.55 103.34,-46.24"/>
<polygon fill="purple" stroke="purple" points="106.84,-46.18 103.34,-36.18 99.84,-46.18 106.84,-46.18"/>
<text text-anchor="middle" x="138.84" y="-57.8" font-family="Times,serif" font-size="14.00" fill="purple">Pass Data</text>
</g>
<!-- b9463a5d&#45;36b6&#45;487c&#45;b739&#45;036539a25f73 -->
<g id="node4" class="node">
<title>b9463a5d&#45;36b6&#45;487c&#45;b739&#45;036539a25f73</title>
<ellipse fill="none" stroke="black" cx="103.34" cy="-192" rx="27" ry="18"/>
<text text-anchor="middle" x="103.34" y="-188.3" font-family="Times,serif" font-size="14.00">StripY</text>
</g>
<!-- b9463a5d&#45;36b6&#45;487c&#45;b739&#45;036539a25f73&#45;&gt;306e240d&#45;0a54&#45;49d0&#45;979e&#45;30576803c2a7 -->
<g id="edge2" class="edge">
<title>b9463a5d&#45;36b6&#45;487c&#45;b739&#45;036539a25f73&#45;&gt;306e240d&#45;0a54&#45;49d0&#45;979e&#45;30576803c2a7</title>
<path fill="none" stroke="purple" d="M103.34,-173.8C103.34,-162.16 103.34,-146.55 103.34,-133.24"/>
<polygon fill="purple" stroke="purple" points="106.84,-133.18 103.34,-123.18 99.84,-133.18 106.84,-133.18"/>
<text text-anchor="middle" x="138.84" y="-144.8" font-family="Times,serif" font-size="14.00" fill="purple">Pass Data</text>
</g>
<!-- 11a9dd63&#45;7d07&#45;49bd&#45;948c&#45;62960b3621d2 -->
<g id="node5" class="node">
<title>11a9dd63&#45;7d07&#45;49bd&#45;948c&#45;62960b3621d2</title>
<ellipse fill="none" stroke="black" cx="103.34" cy="-279" rx="52.6" ry="18"/>
<text text-anchor="middle" x="103.34" y="-275.3" font-family="Times,serif" font-size="14.00">Anon Closure</text>
</g>
<!-- 11a9dd63&#45;7d07&#45;49bd&#45;948c&#45;62960b3621d2&#45;&gt;b9463a5d&#45;36b6&#45;487c&#45;b739&#45;036539a25f73 -->
<g id="edge3" class="edge">
<title>11a9dd63&#45;7d07&#45;49bd&#45;948c&#45;62960b3621d2&#45;&gt;b9463a5d&#45;36b6&#45;487c&#45;b739&#45;036539a25f73</title>
<path fill="none" stroke="purple" d="M103.34,-260.8C103.34,-249.16 103.34,-233.55 103.34,-220.24"/>
<polygon fill="purple" stroke="purple" points="106.84,-220.18 103.34,-210.18 99.84,-220.18 106.84,-220.18"/>
<text text-anchor="middle" x="138.84" y="-231.8" font-family="Times,serif" font-size="14.00" fill="purple">Pass Data</text>
</g>
<!-- 35971773&#45;c6d9&#45;429d&#45;bb34&#45;1970f981c85e -->
<g id="node6" class="node">
<title>35971773&#45;c6d9&#45;429d&#45;bb34&#45;1970f981c85e</title>
<ellipse fill="none" stroke="black" cx="103.34" cy="-366" rx="51.3" ry="18"/>
<text text-anchor="middle" x="103.34" y="-362.3" font-family="Times,serif" font-size="14.00">OffsetToPose</text>
</g>
<!-- 35971773&#45;c6d9&#45;429d&#45;bb34&#45;1970f981c85e&#45;&gt;11a9dd63&#45;7d07&#45;49bd&#45;948c&#45;62960b3621d2 -->
<g id="edge4" class="edge">
<title>35971773&#45;c6d9&#45;429d&#45;bb34&#45;1970f981c85e&#45;&gt;11a9dd63&#45;7d07&#45;49bd&#45;948c&#45;62960b3621d2</title>
<path fill="none" stroke="purple" d="M103.34,-347.8C103.34,-336.16 103.34,-320.55 103.34,-307.24"/>
<polygon fill="purple" stroke="purple" points="106.84,-307.18 103.34,-297.18 99.84,-307.18 106.84,-307.18"/>
<text text-anchor="middle" x="138.84" y="-318.8" font-family="Times,serif" font-size="14.00" fill="purple">Pass Data</text>
</g>
<!-- 13887f37&#45;e152&#45;49b2&#45;9936&#45;d97d0c25c1a1 -->
<g id="node7" class="node">
<title>13887f37&#45;e152&#45;49b2&#45;9936&#45;d97d0c25c1a1</title>
<ellipse fill="none" stroke="black" cx="103.34" cy="-453" rx="32.4" ry="18"/>
<text text-anchor="middle" x="103.34" y="-449.3" font-family="Times,serif" font-size="14.00">Average</text>
</g>
<!-- 13887f37&#45;e152&#45;49b2&#45;9936&#45;d97d0c25c1a1&#45;&gt;35971773&#45;c6d9&#45;429d&#45;bb34&#45;1970f981c85e -->
<g id="edge5" class="edge">
<title>13887f37&#45;e152&#45;49b2&#45;9936&#45;d97d0c25c1a1&#45;&gt;35971773&#45;c6d9&#45;429d&#45;bb34&#45;1970f981c85e</title>
<path fill="none" stroke="purple" d="M103.34,-434.8C103.34,-423.16 103.34,-407.55 103.34,-394.24"/>
<polygon fill="purple" stroke="purple" points="106.84,-394.18 103.34,-384.18 99.84,-394.18 106.84,-394.18"/>
<text text-anchor="middle" x="138.84" y="-405.8" font-family="Times,serif" font-size="14.00" fill="purple">Pass Data</text>
</g>
<!-- a7472399&#45;ac8d&#45;45e1&#45;a823&#45;db7d6ddc9781 -->
<g id="node8" class="node">
<title>a7472399&#45;ac8d&#45;45e1&#45;a823&#45;db7d6ddc9781</title>
<ellipse fill="none" stroke="black" cx="103.34" cy="-540" rx="61.1" ry="18"/>
<text text-anchor="middle" x="103.34" y="-536.3" font-family="Times,serif" font-size="14.00">ExtractPosition</text>
</g>
<!-- a7472399&#45;ac8d&#45;45e1&#45;a823&#45;db7d6ddc9781&#45;&gt;13887f37&#45;e152&#45;49b2&#45;9936&#45;d97d0c25c1a1 -->
<g id="edge6" class="edge">
<title>a7472399&#45;ac8d&#45;45e1&#45;a823&#45;db7d6ddc9781&#45;&gt;13887f37&#45;e152&#45;49b2&#45;9936&#45;d97d0c25c1a1</title>
<path fill="none" stroke="purple" d="M103.34,-521.8C103.34,-510.16 103.34,-494.55 103.34,-481.24"/>
<polygon fill="purple" stroke="purple" points="106.84,-481.18 103.34,-471.18 99.84,-481.18 106.84,-481.18"/>
<text text-anchor="middle" x="138.84" y="-492.8" font-family="Times,serif" font-size="14.00" fill="purple">Pass Data</text>
</g>
<!-- bfe23d33&#45;f719&#45;4f06&#45;8b99&#45;d218effbf8df -->
<g id="node9" class="node">
<title>bfe23d33&#45;f719&#45;4f06&#45;8b99&#45;d218effbf8df</title>
<ellipse fill="none" stroke="black" cx="103.34" cy="-627" rx="27" ry="18"/>
<text text-anchor="middle" x="103.34" y="-623.3" font-family="Times,serif" font-size="14.00">ToVec</text>
</g>
<!-- bfe23d33&#45;f719&#45;4f06&#45;8b99&#45;d218effbf8df&#45;&gt;a7472399&#45;ac8d&#45;45e1&#45;a823&#45;db7d6ddc9781 -->
<g id="edge7" class="edge">
<title>bfe23d33&#45;f719&#45;4f06&#45;8b99&#45;d218effbf8df&#45;&gt;a7472399&#45;ac8d&#45;45e1&#45;a823&#45;db7d6ddc9781</title>
<path fill="none" stroke="purple" d="M103.34,-608.8C103.34,-597.16 103.34,-581.55 103.34,-568.24"/>
<polygon fill="purple" stroke="purple" points="106.84,-568.18 103.34,-558.18 99.84,-568.18 106.84,-568.18"/>
<text text-anchor="middle" x="138.84" y="-579.8" font-family="Times,serif" font-size="14.00" fill="purple">Pass Data</text>
</g>
<!-- f9eb3763&#45;1488&#45;4d4f&#45;b24a&#45;590bbf1875e1 -->
<g id="node10" class="node">
<title>f9eb3763&#45;1488&#45;4d4f&#45;b24a&#45;590bbf1875e1</title>
<ellipse fill="none" stroke="black" cx="103.34" cy="-714" rx="45.2" ry="18"/>
<text text-anchor="middle" x="103.34" y="-710.3" font-family="Times,serif" font-size="14.00">Detect true</text>
</g>
<!-- f9eb3763&#45;1488&#45;4d4f&#45;b24a&#45;590bbf1875e1&#45;&gt;bfe23d33&#45;f719&#45;4f06&#45;8b99&#45;d218effbf8df -->
<g id="edge8" class="edge">
<title>f9eb3763&#45;1488&#45;4d4f&#45;b24a&#45;590bbf1875e1&#45;&gt;bfe23d33&#45;f719&#45;4f06&#45;8b99&#45;d218effbf8df</title>
<path fill="none" stroke="purple" d="M103.34,-695.8C103.34,-684.16 103.34,-668.55 103.34,-655.24"/>
<polygon fill="purple" stroke="purple" points="106.84,-655.18 103.34,-645.18 99.84,-655.18 106.84,-655.18"/>
<text text-anchor="middle" x="138.84" y="-666.8" font-family="Times,serif" font-size="14.00" fill="purple">Pass Data</text>
</g>
<!-- 4e9454ec&#45;0fb7&#45;4da3&#45;a981&#45;af50e5991b1b&#45;&gt;f9eb3763&#45;1488&#45;4d4f&#45;b24a&#45;590bbf1875e1 -->
<g id="edge9" class="edge">
<title>4e9454ec&#45;0fb7&#45;4da3&#45;a981&#45;af50e5991b1b&#45;&gt;f9eb3763&#45;1488&#45;4d4f&#45;b24a&#45;590bbf1875e1</title>
<path fill="none" stroke="purple" d="M103.34,-782.8C103.34,-771.16 103.34,-755.55 103.34,-742.24"/>
<polygon fill="purple" stroke="purple" points="106.84,-742.18 103.34,-732.18 99.84,-742.18 106.84,-742.18"/>
<text text-anchor="middle" x="138.84" y="-753.8" font-family="Times,serif" font-size="14.00" fill="purple">Pass Data</text>
</g>
<!-- cfc07043&#45;fd86&#45;4442&#45;a8c9&#45;a84de2a43fef -->
<g id="node12" class="node">
<title>cfc07043&#45;fd86&#45;4442&#45;a8c9&#45;a84de2a43fef</title>
<ellipse fill="none" stroke="black" cx="250.34" cy="-888" rx="47.1" ry="18"/>
<text text-anchor="middle" x="250.34" y="-884.3" font-family="Times,serif" font-size="14.00">DelayAction</text>
</g>
<!-- cfc07043&#45;fd86&#45;4442&#45;a8c9&#45;a84de2a43fef&#45;&gt;4e9454ec&#45;0fb7&#45;4da3&#45;a981&#45;af50e5991b1b -->
<g id="edge11" class="edge">
<title>cfc07043&#45;fd86&#45;4442&#45;a8c9&#45;a84de2a43fef&#45;&gt;4e9454ec&#45;0fb7&#45;4da3&#45;a981&#45;af50e5991b1b</title>
<path fill="none" stroke="black" d="M225.4,-872.58C201.12,-858.54 164.03,-837.09 137.1,-821.52"/>
<polygon fill="black" stroke="black" points="138.81,-818.47 128.4,-816.49 135.3,-824.53 138.81,-818.47"/>
</g>
<!-- 061603e2&#45;a992&#45;452c&#45;9c72&#45;083ca7337185 -->
<g id="node13" class="node">
<title>061603e2&#45;a992&#45;452c&#45;9c72&#45;083ca7337185</title>
<ellipse fill="none" stroke="black" cx="250.34" cy="-961" rx="59.9" ry="18"/>
<text text-anchor="middle" x="250.34" y="-957.3" font-family="Times,serif" font-size="14.00">ZeroMovement</text>
</g>
<!-- 061603e2&#45;a992&#45;452c&#45;9c72&#45;083ca7337185&#45;&gt;cfc07043&#45;fd86&#45;4442&#45;a8c9&#45;a84de2a43fef -->
<g id="edge12" class="edge">
<title>061603e2&#45;a992&#45;452c&#45;9c72&#45;083ca7337185&#45;&gt;cfc07043&#45;fd86&#45;4442&#45;a8c9&#45;a84de2a43fef</title>
<path fill="none" stroke="black" d="M250.34,-942.81C250.34,-934.79 250.34,-925.05 250.34,-916.07"/>
<polygon fill="black" stroke="black" points="253.84,-916.03 250.34,-906.03 246.84,-916.03 253.84,-916.03"/>
</g>
</g>
</svg>
