<?xml version="1.0" encoding="UTF-8" standalone="no"?>
<!DOCTYPE svg PUBLIC "-//W3C//DTD SVG 1.1//EN"
 "http://www.w3.org/Graphics/SVG/1.1/DTD/svg11.dtd">
<!-- Generated by graphviz version 2.43.0 (0)
 -->
<!-- Title: G Pages: 1 -->
<svg width="336pt" height="728pt"
 viewBox="0.00 0.00 336.00 728.00" xmlns="http://www.w3.org/2000/svg" xmlns:xlink="http://www.w3.org/1999/xlink">
<g id="graph0" class="graph" transform="scale(1 1) rotate(0) translate(4 724)">
<title>G</title>
<polygon fill="transparent" stroke="transparent" points="-4,4 -4,-724 332,-724 332,4 -4,4"/>
<g id="clust1" class="cluster">
<title>cluster_430c5b8a&#45;2b3d&#45;4b85&#45;923c&#45;aadd337ecb98</title>
<polygon fill="transparent" stroke="blue" stroke-dasharray="5,2" points="8,-8 8,-568 320,-568 320,-8 8,-8"/>
</g>
<!-- 67767de9&#45;6f51&#45;4b29&#45;ac61&#45;6acb6d424c78 -->
<g id="node1" class="node">
<title>67767de9&#45;6f51&#45;4b29&#45;ac61&#45;6acb6d424c78</title>
<ellipse fill="none" stroke="black" cx="95" cy="-121" rx="67.81" ry="18"/>
<text text-anchor="middle" x="95" y="-117.3" font-family="Times,serif" font-size="14.00">LinearYawFromX</text>
</g>
<!-- 0dce6763&#45;af88&#45;42d6&#45;9ba6&#45;f7d02c1b400f -->
<g id="node2" class="node">
<title>0dce6763&#45;af88&#45;42d6&#45;9ba6&#45;f7d02c1b400f</title>
<ellipse fill="none" stroke="black" cx="96" cy="-34" rx="80.11" ry="18"/>
<text text-anchor="middle" x="96" y="-30.3" font-family="Times,serif" font-size="14.00">Stability2Movement</text>
</g>
<!-- 67767de9&#45;6f51&#45;4b29&#45;ac61&#45;6acb6d424c78&#45;&gt;0dce6763&#45;af88&#45;42d6&#45;9ba6&#45;f7d02c1b400f -->
<g id="edge1" class="edge">
<title>67767de9&#45;6f51&#45;4b29&#45;ac61&#45;6acb6d424c78&#45;&gt;0dce6763&#45;af88&#45;42d6&#45;9ba6&#45;f7d02c1b400f</title>
<path fill="none" stroke="purple" d="M95.2,-102.8C95.34,-91.16 95.52,-75.55 95.68,-62.24"/>
<polygon fill="purple" stroke="purple" points="99.18,-62.22 95.8,-52.18 92.18,-62.13 99.18,-62.22"/>
<text text-anchor="middle" x="130.5" y="-73.8" font-family="Times,serif" font-size="14.00" fill="purple">Pass Data</text>
</g>
<!-- 41bcb5ea&#45;178d&#45;4c9b&#45;82c0&#45;126cea213bdd -->
<g id="node3" class="node">
<title>41bcb5ea&#45;178d&#45;4c9b&#45;82c0&#45;126cea213bdd</title>
<ellipse fill="none" stroke="black" cx="95" cy="-208" rx="51.3" ry="18"/>
<text text-anchor="middle" x="95" y="-204.3" font-family="Times,serif" font-size="14.00">OffsetToPose</text>
</g>
<!-- 41bcb5ea&#45;178d&#45;4c9b&#45;82c0&#45;126cea213bdd&#45;&gt;67767de9&#45;6f51&#45;4b29&#45;ac61&#45;6acb6d424c78 -->
<g id="edge2" class="edge">
<title>41bcb5ea&#45;178d&#45;4c9b&#45;82c0&#45;126cea213bdd&#45;&gt;67767de9&#45;6f51&#45;4b29&#45;ac61&#45;6acb6d424c78</title>
<path fill="none" stroke="purple" d="M95,-189.8C95,-178.16 95,-162.55 95,-149.24"/>
<polygon fill="purple" stroke="purple" points="98.5,-149.18 95,-139.18 91.5,-149.18 98.5,-149.18"/>
<text text-anchor="middle" x="130.5" y="-160.8" font-family="Times,serif" font-size="14.00" fill="purple">Pass Data</text>
</g>
<!-- aec4a510&#45;9634&#45;4dac&#45;8b68&#45;a7a62a508fe3 -->
<g id="node4" class="node">
<title>aec4a510&#45;9634&#45;4dac&#45;8b68&#45;a7a62a508fe3</title>
<ellipse fill="none" stroke="black" cx="94" cy="-295" rx="35.5" ry="18"/>
<text text-anchor="middle" x="94" y="-291.3" font-family="Times,serif" font-size="14.00">MidPoint</text>
</g>
<!-- aec4a510&#45;9634&#45;4dac&#45;8b68&#45;a7a62a508fe3&#45;&gt;41bcb5ea&#45;178d&#45;4c9b&#45;82c0&#45;126cea213bdd -->
<g id="edge3" class="edge">
<title>aec4a510&#45;9634&#45;4dac&#45;8b68&#45;a7a62a508fe3&#45;&gt;41bcb5ea&#45;178d&#45;4c9b&#45;82c0&#45;126cea213bdd</title>
<path fill="none" stroke="purple" d="M94.2,-276.8C94.34,-265.16 94.52,-249.55 94.68,-236.24"/>
<polygon fill="purple" stroke="purple" points="98.18,-236.22 94.8,-226.18 91.18,-236.13 98.18,-236.22"/>
<text text-anchor="middle" x="129.5" y="-247.8" font-family="Times,serif" font-size="14.00" fill="purple">Pass Data</text>
</g>
<!-- 24f1198c&#45;e24e&#45;4ac9&#45;bba5&#45;b0bb8b432cfd -->
<g id="node5" class="node">
<title>24f1198c&#45;e24e&#45;4ac9&#45;bba5&#45;b0bb8b432cfd</title>
<ellipse fill="none" stroke="black" cx="92" cy="-382" rx="61.1" ry="18"/>
<text text-anchor="middle" x="92" y="-378.3" font-family="Times,serif" font-size="14.00">ExtractPosition</text>
</g>
<!-- 24f1198c&#45;e24e&#45;4ac9&#45;bba5&#45;b0bb8b432cfd&#45;&gt;aec4a510&#45;9634&#45;4dac&#45;8b68&#45;a7a62a508fe3 -->
<g id="edge4" class="edge">
<title>24f1198c&#45;e24e&#45;4ac9&#45;bba5&#45;b0bb8b432cfd&#45;&gt;aec4a510&#45;9634&#45;4dac&#45;8b68&#45;a7a62a508fe3</title>
<path fill="none" stroke="purple" d="M92.4,-363.8C92.68,-352.16 93.05,-336.55 93.36,-323.24"/>
<polygon fill="purple" stroke="purple" points="96.86,-323.26 93.6,-313.18 89.86,-323.09 96.86,-323.26"/>
<text text-anchor="middle" x="128.5" y="-334.8" font-family="Times,serif" font-size="14.00" fill="purple">Pass Data</text>
</g>
<!-- d03501dd&#45;d401&#45;4324&#45;92a6&#45;a9bc95aa2113 -->
<g id="node6" class="node">
<title>d03501dd&#45;d401&#45;4324&#45;92a6&#45;a9bc95aa2113</title>
<ellipse fill="none" stroke="black" cx="43" cy="-469" rx="27" ry="18"/>
<text text-anchor="middle" x="43" y="-465.3" font-family="Times,serif" font-size="14.00">ToVec</text>
</g>
<!-- d03501dd&#45;d401&#45;4324&#45;92a6&#45;a9bc95aa2113&#45;&gt;24f1198c&#45;e24e&#45;4ac9&#45;bba5&#45;b0bb8b432cfd -->
<g id="edge5" class="edge">
<title>d03501dd&#45;d401&#45;4324&#45;92a6&#45;a9bc95aa2113&#45;&gt;24f1198c&#45;e24e&#45;4ac9&#45;bba5&#45;b0bb8b432cfd</title>
<path fill="none" stroke="purple" d="M52.22,-452.01C59.27,-439.78 69.13,-422.68 77.27,-408.56"/>
<polygon fill="purple" stroke="purple" points="80.36,-410.2 82.32,-399.79 74.3,-406.7 80.36,-410.2"/>
<text text-anchor="middle" x="105.5" y="-421.8" font-family="Times,serif" font-size="14.00" fill="purple">Pass Data</text>
</g>
<!-- d12bad8d&#45;73f5&#45;4914&#45;999d&#45;82c2ec3c5aba -->
<g id="node7" class="node">
<title>d12bad8d&#45;73f5&#45;4914&#45;999d&#45;82c2ec3c5aba</title>
<polygon fill="none" stroke="black" stroke-dasharray="5,2" points="195,-560 97,-560 97,-524 195,-524 195,-560"/>
<text text-anchor="middle" x="146" y="-538.3" font-family="Times,serif" font-size="14.00" fill="blue">Concurrent</text>
</g>
<!-- d12bad8d&#45;73f5&#45;4914&#45;999d&#45;82c2ec3c5aba&#45;&gt;d03501dd&#45;d401&#45;4324&#45;92a6&#45;a9bc95aa2113 -->
<g id="edge6" class="edge">
<title>d12bad8d&#45;73f5&#45;4914&#45;999d&#45;82c2ec3c5aba&#45;&gt;d03501dd&#45;d401&#45;4324&#45;92a6&#45;a9bc95aa2113</title>
<path fill="none" stroke="black" d="M121.33,-523.99C105.66,-513.19 85.4,-499.23 69.41,-488.2"/>
<polygon fill="black" stroke="black" points="71.24,-485.21 61.02,-482.42 67.27,-490.98 71.24,-485.21"/>
</g>
<!-- 1992e16c&#45;0573&#45;4398&#45;a161&#45;98e1e4f3379d -->
<g id="node8" class="node">
<title>1992e16c&#45;0573&#45;4398&#45;a161&#45;98e1e4f3379d</title>
<ellipse fill="none" stroke="black" cx="227" cy="-469" rx="85.01" ry="18"/>
<text text-anchor="middle" x="227" y="-465.3" font-family="Times,serif" font-size="14.00">Consecutive True &lt; 3</text>
</g>
<!-- d12bad8d&#45;73f5&#45;4914&#45;999d&#45;82c2ec3c5aba&#45;&gt;1992e16c&#45;0573&#45;4398&#45;a161&#45;98e1e4f3379d -->
<g id="edge7" class="edge">
<title>d12bad8d&#45;73f5&#45;4914&#45;999d&#45;82c2ec3c5aba&#45;&gt;1992e16c&#45;0573&#45;4398&#45;a161&#45;98e1e4f3379d</title>
<path fill="none" stroke="black" d="M165.61,-523.81C176.03,-514.68 189,-503.31 200.32,-493.38"/>
<polygon fill="black" stroke="black" points="202.64,-496.01 207.85,-486.78 198.03,-490.74 202.64,-496.01"/>
</g>
<!-- 08b8cc75&#45;31bb&#45;4fc7&#45;be39&#45;1af807505fdd -->
<g id="node9" class="node">
<title>08b8cc75&#45;31bb&#45;4fc7&#45;be39&#45;1af807505fdd</title>
<ellipse fill="none" stroke="black" cx="146" cy="-629" rx="75.21" ry="18"/>
<text text-anchor="middle" x="146" y="-625.3" font-family="Times,serif" font-size="14.00">VisionNormBottom</text>
</g>
<!-- 08b8cc75&#45;31bb&#45;4fc7&#45;be39&#45;1af807505fdd&#45;&gt;d12bad8d&#45;73f5&#45;4914&#45;999d&#45;82c2ec3c5aba -->
<g id="edge8" class="edge">
<title>08b8cc75&#45;31bb&#45;4fc7&#45;be39&#45;1af807505fdd&#45;&gt;d12bad8d&#45;73f5&#45;4914&#45;999d&#45;82c2ec3c5aba</title>
<path fill="none" stroke="purple" d="M146,-610.8C146,-599.16 146,-583.55 146,-570.24"/>
<polygon fill="purple" stroke="purple" points="149.5,-570.18 146,-560.18 142.5,-570.18 149.5,-570.18"/>
<text text-anchor="middle" x="181.5" y="-581.8" font-family="Times,serif" font-size="14.00" fill="purple">Pass Data</text>
</g>
<!-- 830f4426&#45;aa89&#45;40cb&#45;939f&#45;a44aae4eb384 -->
<g id="node10" class="node">
<title>830f4426&#45;aa89&#45;40cb&#45;939f&#45;a44aae4eb384</title>
<ellipse fill="none" stroke="black" cx="146" cy="-702" rx="59.9" ry="18"/>
<text text-anchor="middle" x="146" y="-698.3" font-family="Times,serif" font-size="14.00">ZeroMovement</text>
</g>
<!-- 830f4426&#45;aa89&#45;40cb&#45;939f&#45;a44aae4eb384&#45;&gt;08b8cc75&#45;31bb&#45;4fc7&#45;be39&#45;1af807505fdd -->
<g id="edge9" class="edge">
<title>830f4426&#45;aa89&#45;40cb&#45;939f&#45;a44aae4eb384&#45;&gt;08b8cc75&#45;31bb&#45;4fc7&#45;be39&#45;1af807505fdd</title>
<path fill="none" stroke="black" d="M146,-683.81C146,-675.79 146,-666.05 146,-657.07"/>
<polygon fill="black" stroke="black" points="149.5,-657.03 146,-647.03 142.5,-657.03 149.5,-657.03"/>
</g>
</g>
</svg>
