<?xml version="1.0" encoding="UTF-8" standalone="no"?>
<!DOCTYPE svg PUBLIC "-//W3C//DTD SVG 1.1//EN"
 "http://www.w3.org/Graphics/SVG/1.1/DTD/svg11.dtd">
<!-- Generated by graphviz version 2.43.0 (0)
 -->
<!-- Title: G Pages: 1 -->
<svg width="1817pt" height="693pt"
 viewBox="0.00 0.00 1817.00 693.00" xmlns="http://www.w3.org/2000/svg" xmlns:xlink="http://www.w3.org/1999/xlink">
<g id="graph0" class="graph" transform="scale(1 1) rotate(0) translate(4 689)">
<title>G</title>
<polygon fill="transparent" stroke="transparent" points="-4,4 -4,-689 1813,-689 1813,4 -4,4"/>
<g id="clust1" class="cluster">
<title>cluster_f0fa57cd&#45;c888&#45;477d&#45;9f75&#45;718a35ade033</title>
<polygon fill="transparent" stroke="blue" stroke-dasharray="5,2" points="8,-79 8,-677 248,-677 248,-79 8,-79"/>
</g>
<g id="clust2" class="cluster">
<title>cluster_721f3d69&#45;23f6&#45;45a5&#45;b4d9&#45;69470c11fc46</title>
<polygon fill="transparent" stroke="blue" stroke-dasharray="5,2" points="491,-79 491,-204 1000,-204 1000,-79 491,-79"/>
</g>
<g id="clust3" class="cluster">
<title>cluster_92a5bb01&#45;6fa0&#45;46dd&#45;98d2&#45;b9e7eee81ace</title>
<polygon fill="transparent" stroke="blue" stroke-dasharray="5,2" points="1271,-79 1271,-204 1801,-204 1801,-79 1271,-79"/>
</g>
<!-- 4efbd2ac&#45;a472&#45;4ef8&#45;a6a2&#45;3ced70ef6091 -->
<g id="node1" class="node">
<title>4efbd2ac&#45;a472&#45;4ef8&#45;a6a2&#45;3ced70ef6091</title>
<polygon fill="none" stroke="black" points="620,-123 499.37,-105 620,-87 740.63,-105 620,-123"/>
<text text-anchor="middle" x="620" y="-101.3" font-family="Times,serif" font-size="14.00">Consecutive True &lt; 3</text>
</g>
<!-- 0db31ec3&#45;4800&#45;40fc&#45;a9d1&#45;5b2fed132e1d -->
<g id="node16" class="node">
<title>0db31ec3&#45;4800&#45;40fc&#45;a9d1&#45;5b2fed132e1d</title>
<ellipse fill="none" stroke="black" cx="356" cy="-18" rx="69.71" ry="18"/>
<text text-anchor="middle" x="356" y="-14.3" font-family="Times,serif" font-size="14.00">VisionNormOffset</text>
</g>
<!-- 4efbd2ac&#45;a472&#45;4ef8&#45;a6a2&#45;3ced70ef6091&#45;&gt;0db31ec3&#45;4800&#45;40fc&#45;a9d1&#45;5b2fed132e1d -->
<g id="edge15" class="edge">
<title>4efbd2ac&#45;a472&#45;4ef8&#45;a6a2&#45;3ced70ef6091&#45;&gt;0db31ec3&#45;4800&#45;40fc&#45;a9d1&#45;5b2fed132e1d</title>
<path fill="none" stroke="black" d="M583.85,-92.36C538.21,-77.67 459.41,-52.29 407.49,-35.58"/>
<polygon fill="black" stroke="black" points="408.4,-32.19 397.8,-32.46 406.25,-38.86 408.4,-32.19"/>
<text text-anchor="middle" x="520" y="-57.8" font-family="Times,serif" font-size="14.00">True</text>
</g>
<!-- 67368ecd&#45;0194&#45;49fa&#45;817c&#45;1255b60241a6 -->
<g id="node17" class="node">
<title>67368ecd&#45;0194&#45;49fa&#45;817c&#45;1255b60241a6</title>
<ellipse fill="none" stroke="black" cx="1136" cy="-18" rx="69.71" ry="18"/>
<text text-anchor="middle" x="1136" y="-14.3" font-family="Times,serif" font-size="14.00">VisionNormOffset</text>
</g>
<!-- 4efbd2ac&#45;a472&#45;4ef8&#45;a6a2&#45;3ced70ef6091&#45;&gt;67368ecd&#45;0194&#45;49fa&#45;817c&#45;1255b60241a6 -->
<g id="edge18" class="edge">
<title>4efbd2ac&#45;a472&#45;4ef8&#45;a6a2&#45;3ced70ef6091&#45;&gt;67368ecd&#45;0194&#45;49fa&#45;817c&#45;1255b60241a6</title>
<path fill="none" stroke="black" d="M674.25,-95.06C769.28,-79.41 965.57,-47.07 1068.95,-30.05"/>
<polygon fill="black" stroke="black" points="1069.66,-33.47 1078.96,-28.4 1068.53,-26.57 1069.66,-33.47"/>
<text text-anchor="middle" x="927" y="-57.8" font-family="Times,serif" font-size="14.00">False</text>
</g>
<!-- d8061e56&#45;409b&#45;4c26&#45;bf03&#45;b4af002cf1a8 -->
<g id="node2" class="node">
<title>d8061e56&#45;409b&#45;4c26&#45;bf03&#45;b4af002cf1a8</title>
<polygon fill="none" stroke="black" points="1410,-123 1278.59,-105 1410,-87 1541.41,-105 1410,-123"/>
<text text-anchor="middle" x="1410" y="-101.3" font-family="Times,serif" font-size="14.00">Consecutive False &lt; 10</text>
</g>
<!-- d8061e56&#45;409b&#45;4c26&#45;bf03&#45;b4af002cf1a8&#45;&gt;67368ecd&#45;0194&#45;49fa&#45;817c&#45;1255b60241a6 -->
<g id="edge17" class="edge">
<title>d8061e56&#45;409b&#45;4c26&#45;bf03&#45;b4af002cf1a8&#45;&gt;67368ecd&#45;0194&#45;49fa&#45;817c&#45;1255b60241a6</title>
<path fill="none" stroke="black" d="M1371.9,-92.18C1324.14,-77.37 1242.05,-51.9 1188.4,-35.26"/>
<polygon fill="black" stroke="black" points="1189.32,-31.88 1178.73,-32.25 1187.24,-38.56 1189.32,-31.88"/>
<text text-anchor="middle" x="1306" y="-57.8" font-family="Times,serif" font-size="14.00">True</text>
</g>
<!-- 5754563f&#45;d556&#45;4fcc&#45;a7b6&#45;3866a1ff8ca3 -->
<g id="node3" class="node">
<title>5754563f&#45;d556&#45;4fcc&#45;a7b6&#45;3866a1ff8ca3</title>
<ellipse fill="none" stroke="black" cx="88" cy="-470" rx="33.6" ry="18"/>
<text text-anchor="middle" x="88" y="-466.3" font-family="Times,serif" font-size="14.00">Descend</text>
</g>
<!-- e6f14615&#45;2f57&#45;43b7&#45;8453&#45;ec82e5237a6b -->
<g id="node4" class="node">
<title>e6f14615&#45;2f57&#45;43b7&#45;8453&#45;ec82e5237a6b</title>
<ellipse fill="none" stroke="black" cx="88" cy="-397" rx="47.1" ry="18"/>
<text text-anchor="middle" x="88" y="-393.3" font-family="Times,serif" font-size="14.00">DelayAction</text>
</g>
<!-- 5754563f&#45;d556&#45;4fcc&#45;a7b6&#45;3866a1ff8ca3&#45;&gt;e6f14615&#45;2f57&#45;43b7&#45;8453&#45;ec82e5237a6b -->
<g id="edge1" class="edge">
<title>5754563f&#45;d556&#45;4fcc&#45;a7b6&#45;3866a1ff8ca3&#45;&gt;e6f14615&#45;2f57&#45;43b7&#45;8453&#45;ec82e5237a6b</title>
<path fill="none" stroke="black" d="M88,-451.81C88,-443.79 88,-434.05 88,-425.07"/>
<polygon fill="black" stroke="black" points="91.5,-425.03 88,-415.03 84.5,-425.03 91.5,-425.03"/>
</g>
<!-- f34da97d&#45;8692&#45;4658&#45;9f15&#45;703ed173b284 -->
<g id="node5" class="node">
<title>f34da97d&#45;8692&#45;4658&#45;9f15&#45;703ed173b284</title>
<ellipse fill="none" stroke="black" cx="91" cy="-324" rx="74.61" ry="18"/>
<text text-anchor="middle" x="91" y="-320.3" font-family="Times,serif" font-size="14.00">StraightMovement</text>
</g>
<!-- e6f14615&#45;2f57&#45;43b7&#45;8453&#45;ec82e5237a6b&#45;&gt;f34da97d&#45;8692&#45;4658&#45;9f15&#45;703ed173b284 -->
<g id="edge4" class="edge">
<title>e6f14615&#45;2f57&#45;43b7&#45;8453&#45;ec82e5237a6b&#45;&gt;f34da97d&#45;8692&#45;4658&#45;9f15&#45;703ed173b284</title>
<path fill="none" stroke="black" d="M88.73,-378.81C89.07,-370.79 89.48,-361.05 89.86,-352.07"/>
<polygon fill="black" stroke="black" points="93.36,-352.17 90.28,-342.03 86.36,-351.87 93.36,-352.17"/>
</g>
<!-- 3d9346f5&#45;4f0c&#45;4922&#45;833f&#45;ee19e15318ff -->
<g id="node6" class="node">
<title>3d9346f5&#45;4f0c&#45;4922&#45;833f&#45;ee19e15318ff</title>
<ellipse fill="none" stroke="black" cx="93" cy="-251" rx="47.1" ry="18"/>
<text text-anchor="middle" x="93" y="-247.3" font-family="Times,serif" font-size="14.00">DelayAction</text>
</g>
<!-- f34da97d&#45;8692&#45;4658&#45;9f15&#45;703ed173b284&#45;&gt;3d9346f5&#45;4f0c&#45;4922&#45;833f&#45;ee19e15318ff -->
<g id="edge2" class="edge">
<title>f34da97d&#45;8692&#45;4658&#45;9f15&#45;703ed173b284&#45;&gt;3d9346f5&#45;4f0c&#45;4922&#45;833f&#45;ee19e15318ff</title>
<path fill="none" stroke="black" d="M91.48,-305.81C91.71,-297.79 91.98,-288.05 92.24,-279.07"/>
<polygon fill="black" stroke="black" points="95.74,-279.12 92.52,-269.03 88.74,-278.93 95.74,-279.12"/>
</g>
<!-- 23080db3&#45;6f0e&#45;47ab&#45;a5d8&#45;044909d824ef -->
<g id="node7" class="node">
<title>23080db3&#45;6f0e&#45;47ab&#45;a5d8&#45;044909d824ef</title>
<ellipse fill="none" stroke="black" cx="102" cy="-178" rx="59.9" ry="18"/>
<text text-anchor="middle" x="102" y="-174.3" font-family="Times,serif" font-size="14.00">ZeroMovement</text>
</g>
<!-- 3d9346f5&#45;4f0c&#45;4922&#45;833f&#45;ee19e15318ff&#45;&gt;23080db3&#45;6f0e&#45;47ab&#45;a5d8&#45;044909d824ef -->
<g id="edge3" class="edge">
<title>3d9346f5&#45;4f0c&#45;4922&#45;833f&#45;ee19e15318ff&#45;&gt;23080db3&#45;6f0e&#45;47ab&#45;a5d8&#45;044909d824ef</title>
<path fill="none" stroke="black" d="M95.18,-232.81C96.2,-224.79 97.43,-215.05 98.57,-206.07"/>
<polygon fill="black" stroke="black" points="102.06,-206.39 99.84,-196.03 95.11,-205.51 102.06,-206.39"/>
</g>
<!-- f8f85380&#45;464b&#45;429d&#45;a087&#45;5718dbf26f87 -->
<g id="node11" class="node">
<title>f8f85380&#45;464b&#45;429d&#45;a087&#45;5718dbf26f87</title>
<polygon fill="none" stroke="black" stroke-dasharray="5,2" points="211.5,-123 126.5,-123 126.5,-87 211.5,-87 211.5,-123"/>
<text text-anchor="middle" x="169" y="-101.3" font-family="Times,serif" font-size="14.00" fill="blue">Converge</text>
</g>
<!-- 23080db3&#45;6f0e&#45;47ab&#45;a5d8&#45;044909d824ef&#45;&gt;f8f85380&#45;464b&#45;429d&#45;a087&#45;5718dbf26f87 -->
<g id="edge8" class="edge">
<title>23080db3&#45;6f0e&#45;47ab&#45;a5d8&#45;044909d824ef&#45;&gt;f8f85380&#45;464b&#45;429d&#45;a087&#45;5718dbf26f87</title>
<path fill="none" stroke="black" d="M117.54,-160.53C125.84,-151.74 136.22,-140.74 145.48,-130.92"/>
<polygon fill="black" stroke="black" points="148.29,-133.04 152.61,-123.37 143.2,-128.24 148.29,-133.04"/>
</g>
<!-- f1326617&#45;0526&#45;4dce&#45;a1cc&#45;f59e8c72543f -->
<g id="node8" class="node">
<title>f1326617&#45;0526&#45;4dce&#45;a1cc&#45;f59e8c72543f</title>
<ellipse fill="none" stroke="black" cx="82" cy="-578" rx="34.8" ry="18"/>
<text text-anchor="middle" x="82" y="-574.3" font-family="Times,serif" font-size="14.00">WaitArm</text>
</g>
<!-- f1326617&#45;0526&#45;4dce&#45;a1cc&#45;f59e8c72543f&#45;&gt;5754563f&#45;d556&#45;4fcc&#45;a7b6&#45;3866a1ff8ca3 -->
<g id="edge5" class="edge">
<title>f1326617&#45;0526&#45;4dce&#45;a1cc&#45;f59e8c72543f&#45;&gt;5754563f&#45;d556&#45;4fcc&#45;a7b6&#45;3866a1ff8ca3</title>
<path fill="none" stroke="black" d="M82.96,-559.97C83.9,-543.38 85.35,-517.88 86.45,-498.43"/>
<polygon fill="black" stroke="black" points="89.95,-498.52 87.02,-488.34 82.96,-498.13 89.95,-498.52"/>
</g>
<!-- dee76a8f&#45;4041&#45;441f&#45;945c&#45;baecb2572324 -->
<g id="node9" class="node">
<title>dee76a8f&#45;4041&#45;441f&#45;945c&#45;baecb2572324</title>
<polygon fill="none" stroke="black" stroke-dasharray="5,2" points="210,-669 112,-669 112,-633 210,-633 210,-669"/>
<text text-anchor="middle" x="161" y="-647.3" font-family="Times,serif" font-size="14.00" fill="blue">Concurrent</text>
</g>
<!-- dee76a8f&#45;4041&#45;441f&#45;945c&#45;baecb2572324&#45;&gt;f1326617&#45;0526&#45;4dce&#45;a1cc&#45;f59e8c72543f -->
<g id="edge6" class="edge">
<title>dee76a8f&#45;4041&#45;441f&#45;945c&#45;baecb2572324&#45;&gt;f1326617&#45;0526&#45;4dce&#45;a1cc&#45;f59e8c72543f</title>
<path fill="none" stroke="black" d="M141.88,-632.81C131.12,-623.14 117.58,-610.98 106.1,-600.66"/>
<polygon fill="black" stroke="black" points="108.32,-597.95 98.54,-593.87 103.64,-603.15 108.32,-597.95"/>
</g>
<!-- 936a3473&#45;ca2c&#45;4826&#45;8704&#45;aea8ddcd31d8 -->
<g id="node10" class="node">
<title>936a3473&#45;ca2c&#45;4826&#45;8704&#45;aea8ddcd31d8</title>
<ellipse fill="none" stroke="black" cx="189" cy="-524" rx="50.7" ry="18"/>
<text text-anchor="middle" x="189" y="-520.3" font-family="Times,serif" font-size="14.00">StartBno055</text>
</g>
<!-- dee76a8f&#45;4041&#45;441f&#45;945c&#45;baecb2572324&#45;&gt;936a3473&#45;ca2c&#45;4826&#45;8704&#45;aea8ddcd31d8 -->
<g id="edge7" class="edge">
<title>dee76a8f&#45;4041&#45;441f&#45;945c&#45;baecb2572324&#45;&gt;936a3473&#45;ca2c&#45;4826&#45;8704&#45;aea8ddcd31d8</title>
<path fill="none" stroke="black" d="M164.83,-632.88C169.5,-612.05 177.43,-576.64 182.93,-552.09"/>
<polygon fill="black" stroke="black" points="186.35,-552.84 185.12,-542.31 179.52,-551.31 186.35,-552.84"/>
</g>
<!-- 936a3473&#45;ca2c&#45;4826&#45;8704&#45;aea8ddcd31d8&#45;&gt;f8f85380&#45;464b&#45;429d&#45;a087&#45;5718dbf26f87 -->
<g id="edge9" class="edge">
<title>936a3473&#45;ca2c&#45;4826&#45;8704&#45;aea8ddcd31d8&#45;&gt;f8f85380&#45;464b&#45;429d&#45;a087&#45;5718dbf26f87</title>
<path fill="none" stroke="black" d="M204.82,-506.8C219.47,-490.03 239,-462.36 239,-434 239,-434 239,-434 239,-177 239,-157.25 225.09,-141 209.67,-129.05"/>
<polygon fill="black" stroke="black" points="211.7,-126.2 201.54,-123.2 207.62,-131.88 211.7,-126.2"/>
</g>
<!-- f8f85380&#45;464b&#45;429d&#45;a087&#45;5718dbf26f87&#45;&gt;0db31ec3&#45;4800&#45;40fc&#45;a9d1&#45;5b2fed132e1d -->
<g id="edge19" class="edge">
<title>f8f85380&#45;464b&#45;429d&#45;a087&#45;5718dbf26f87&#45;&gt;0db31ec3&#45;4800&#45;40fc&#45;a9d1&#45;5b2fed132e1d</title>
<path fill="none" stroke="black" d="M206.84,-86.8C237.93,-72.67 281.91,-52.68 314.06,-38.06"/>
<polygon fill="black" stroke="black" points="315.56,-41.23 323.21,-33.9 312.66,-34.85 315.56,-41.23"/>
</g>
<!-- 1dfced8c&#45;17d9&#45;467b&#45;a01a&#45;888f95cc8742 -->
<g id="node12" class="node">
<title>1dfced8c&#45;17d9&#45;467b&#45;a01a&#45;888f95cc8742</title>
<polygon fill="none" stroke="black" stroke-dasharray="5,2" points="669,-196 571,-196 571,-160 669,-160 669,-196"/>
<text text-anchor="middle" x="620" y="-174.3" font-family="Times,serif" font-size="14.00" fill="blue">Concurrent</text>
</g>
<!-- 1dfced8c&#45;17d9&#45;467b&#45;a01a&#45;888f95cc8742&#45;&gt;4efbd2ac&#45;a472&#45;4ef8&#45;a6a2&#45;3ced70ef6091 -->
<g id="edge11" class="edge">
<title>1dfced8c&#45;17d9&#45;467b&#45;a01a&#45;888f95cc8742&#45;&gt;4efbd2ac&#45;a472&#45;4ef8&#45;a6a2&#45;3ced70ef6091</title>
<path fill="none" stroke="black" d="M620,-159.81C620,-151.79 620,-142.05 620,-133.07"/>
<polygon fill="black" stroke="black" points="623.5,-133.03 620,-123.03 616.5,-133.03 623.5,-133.03"/>
</g>
<!-- 57650719&#45;c3ca&#45;4ddc&#45;a9b1&#45;561e0c775d56 -->
<g id="node13" class="node">
<title>57650719&#45;c3ca&#45;4ddc&#45;a9b1&#45;561e0c775d56</title>
<ellipse fill="none" stroke="black" cx="902" cy="-105" rx="89.81" ry="18"/>
<text text-anchor="middle" x="902" y="-101.3" font-family="Times,serif" font-size="14.00">AdjustMovementAngle</text>
</g>
<!-- 1dfced8c&#45;17d9&#45;467b&#45;a01a&#45;888f95cc8742&#45;&gt;57650719&#45;c3ca&#45;4ddc&#45;a9b1&#45;561e0c775d56 -->
<g id="edge10" class="edge">
<title>1dfced8c&#45;17d9&#45;467b&#45;a01a&#45;888f95cc8742&#45;&gt;57650719&#45;c3ca&#45;4ddc&#45;a9b1&#45;561e0c775d56</title>
<path fill="none" stroke="black" d="M669.12,-164.63C716.02,-152.83 786.93,-134.97 838.18,-122.07"/>
<polygon fill="black" stroke="black" points="839.32,-125.39 848.16,-119.56 837.61,-118.6 839.32,-125.39"/>
</g>
<!-- 3195612e&#45;324c&#45;4d48&#45;8b9f&#45;949b6220b684 -->
<g id="node14" class="node">
<title>3195612e&#45;324c&#45;4d48&#45;8b9f&#45;949b6220b684</title>
<polygon fill="none" stroke="black" stroke-dasharray="5,2" points="1459,-196 1361,-196 1361,-160 1459,-160 1459,-196"/>
<text text-anchor="middle" x="1410" y="-174.3" font-family="Times,serif" font-size="14.00" fill="blue">Concurrent</text>
</g>
<!-- 3195612e&#45;324c&#45;4d48&#45;8b9f&#45;949b6220b684&#45;&gt;d8061e56&#45;409b&#45;4c26&#45;bf03&#45;b4af002cf1a8 -->
<g id="edge13" class="edge">
<title>3195612e&#45;324c&#45;4d48&#45;8b9f&#45;949b6220b684&#45;&gt;d8061e56&#45;409b&#45;4c26&#45;bf03&#45;b4af002cf1a8</title>
<path fill="none" stroke="black" d="M1410,-159.81C1410,-151.79 1410,-142.05 1410,-133.07"/>
<polygon fill="black" stroke="black" points="1413.5,-133.03 1410,-123.03 1406.5,-133.03 1413.5,-133.03"/>
</g>
<!-- 35bccb8b&#45;78fc&#45;430a&#45;b77d&#45;2ed83ef112f6 -->
<g id="node15" class="node">
<title>35bccb8b&#45;78fc&#45;430a&#45;b77d&#45;2ed83ef112f6</title>
<ellipse fill="none" stroke="black" cx="1703" cy="-105" rx="89.81" ry="18"/>
<text text-anchor="middle" x="1703" y="-101.3" font-family="Times,serif" font-size="14.00">AdjustMovementAngle</text>
</g>
<!-- 3195612e&#45;324c&#45;4d48&#45;8b9f&#45;949b6220b684&#45;&gt;35bccb8b&#45;78fc&#45;430a&#45;b77d&#45;2ed83ef112f6 -->
<g id="edge12" class="edge">
<title>3195612e&#45;324c&#45;4d48&#45;8b9f&#45;949b6220b684&#45;&gt;35bccb8b&#45;78fc&#45;430a&#45;b77d&#45;2ed83ef112f6</title>
<path fill="none" stroke="black" d="M1459.04,-165.12C1508.19,-153.21 1584.14,-134.8 1638.22,-121.7"/>
<polygon fill="black" stroke="black" points="1639.16,-125.07 1648.06,-119.31 1637.51,-118.27 1639.16,-125.07"/>
</g>
<!-- 0db31ec3&#45;4800&#45;40fc&#45;a9d1&#45;5b2fed132e1d&#45;&gt;1dfced8c&#45;17d9&#45;467b&#45;a01a&#45;888f95cc8742 -->
<g id="edge14" class="edge">
<title>0db31ec3&#45;4800&#45;40fc&#45;a9d1&#45;5b2fed132e1d&#45;&gt;1dfced8c&#45;17d9&#45;467b&#45;a01a&#45;888f95cc8742</title>
<path fill="none" stroke="purple" d="M357,-36.12C359.31,-59.29 366.91,-100.32 392,-123 416.53,-145.18 501.87,-160.97 560.89,-169.54"/>
<polygon fill="purple" stroke="purple" points="560.46,-173.01 570.85,-170.95 561.44,-166.08 560.46,-173.01"/>
<text text-anchor="middle" x="427.5" y="-101.3" font-family="Times,serif" font-size="14.00" fill="purple">Pass Data</text>
</g>
<!-- 67368ecd&#45;0194&#45;49fa&#45;817c&#45;1255b60241a6&#45;&gt;3195612e&#45;324c&#45;4d48&#45;8b9f&#45;949b6220b684 -->
<g id="edge16" class="edge">
<title>67368ecd&#45;0194&#45;49fa&#45;817c&#45;1255b60241a6&#45;&gt;3195612e&#45;324c&#45;4d48&#45;8b9f&#45;949b6220b684</title>
<path fill="none" stroke="purple" d="M1136.97,-36.15C1139.24,-59.36 1146.81,-100.44 1172,-123 1198.01,-146.29 1289.19,-161.98 1350.83,-170.19"/>
<polygon fill="purple" stroke="purple" points="1350.47,-173.68 1360.84,-171.5 1351.37,-166.74 1350.47,-173.68"/>
<text text-anchor="middle" x="1207.5" y="-101.3" font-family="Times,serif" font-size="14.00" fill="purple">Pass Data</text>
</g>
</g>
</svg>
