<?xml version="1.0" encoding="UTF-8" standalone="no"?>
<!DOCTYPE svg PUBLIC "-//W3C//DTD SVG 1.1//EN"
 "http://www.w3.org/Graphics/SVG/1.1/DTD/svg11.dtd">
<!-- Generated by graphviz version 2.43.0 (0)
 -->
<!-- Title: G Pages: 1 -->
<svg width="788pt" height="276pt"
 viewBox="0.00 0.00 788.00 276.00" xmlns="http://www.w3.org/2000/svg" xmlns:xlink="http://www.w3.org/1999/xlink">
<g id="graph0" class="graph" transform="scale(1 1) rotate(0) translate(4 272)">
<title>G</title>
<polygon fill="transparent" stroke="transparent" points="-4,4 -4,-272 784,-272 784,4 -4,4"/>
<g id="clust1" class="cluster">
<title>cluster_a9d820b4&#45;2cca&#45;499b&#45;b978&#45;9b9da6a1824a</title>
<polygon fill="transparent" stroke="red" stroke-dasharray="5,2" points="8,-64 8,-260 772,-260 772,-64 8,-64"/>
</g>
<!-- 7501d46e&#45;a567&#45;41ec&#45;941f&#45;a5d082126d05 -->
<g id="node1" class="node">
<title>7501d46e&#45;a567&#45;41ec&#45;941f&#45;a5d082126d05</title>
<polygon fill="none" stroke="black" stroke-dasharray="5,2" points="417,-252 363,-252 363,-216 417,-216 417,-252"/>
<text text-anchor="middle" x="390" y="-230.3" font-family="Times,serif" font-size="14.00" fill="red">Race</text>
</g>
<!-- a8ded308&#45;2954&#45;489f&#45;abc4&#45;072ad4362e72 -->
<g id="node2" class="node">
<title>a8ded308&#45;2954&#45;489f&#45;abc4&#45;072ad4362e72</title>
<ellipse fill="none" stroke="black" cx="62" cy="-162" rx="46.4" ry="18"/>
<text text-anchor="middle" x="62" y="-158.3" font-family="Times,serif" font-size="14.00">AlwaysTrue</text>
</g>
<!-- 7501d46e&#45;a567&#45;41ec&#45;941f&#45;a5d082126d05&#45;&gt;a8ded308&#45;2954&#45;489f&#45;abc4&#45;072ad4362e72 -->
<g id="edge1" class="edge">
<title>7501d46e&#45;a567&#45;41ec&#45;941f&#45;a5d082126d05&#45;&gt;a8ded308&#45;2954&#45;489f&#45;abc4&#45;072ad4362e72</title>
<path fill="none" stroke="black" d="M362.88,-227.21C307.73,-215.44 181.79,-188.57 111.59,-173.58"/>
<polygon fill="black" stroke="black" points="112.16,-170.13 101.65,-171.46 110.7,-176.97 112.16,-170.13"/>
</g>
<!-- 93fa95ff&#45;413d&#45;4ef9&#45;8f55&#45;3897297c06ef -->
<g id="node3" class="node">
<title>93fa95ff&#45;413d&#45;4ef9&#45;8f55&#45;3897297c06ef</title>
<ellipse fill="none" stroke="black" cx="226" cy="-162" rx="46.4" ry="18"/>
<text text-anchor="middle" x="226" y="-158.3" font-family="Times,serif" font-size="14.00">AlwaysTrue</text>
</g>
<!-- 7501d46e&#45;a567&#45;41ec&#45;941f&#45;a5d082126d05&#45;&gt;93fa95ff&#45;413d&#45;4ef9&#45;8f55&#45;3897297c06ef -->
<g id="edge2" class="edge">
<title>7501d46e&#45;a567&#45;41ec&#45;941f&#45;a5d082126d05&#45;&gt;93fa95ff&#45;413d&#45;4ef9&#45;8f55&#45;3897297c06ef</title>
<path fill="none" stroke="black" d="M362.92,-221.44C336.32,-210.09 295.45,-192.65 265.29,-179.77"/>
<polygon fill="black" stroke="black" points="266.47,-176.47 255.9,-175.76 263.72,-182.91 266.47,-176.47"/>
</g>
<!-- ce3e0ab8&#45;066c&#45;4f7e&#45;90d7&#45;2c22ba51a159 -->
<g id="node4" class="node">
<title>ce3e0ab8&#45;066c&#45;4f7e&#45;90d7&#45;2c22ba51a159</title>
<ellipse fill="none" stroke="black" cx="390" cy="-162" rx="46.4" ry="18"/>
<text text-anchor="middle" x="390" y="-158.3" font-family="Times,serif" font-size="14.00">AlwaysTrue</text>
</g>
<!-- 7501d46e&#45;a567&#45;41ec&#45;941f&#45;a5d082126d05&#45;&gt;ce3e0ab8&#45;066c&#45;4f7e&#45;90d7&#45;2c22ba51a159 -->
<g id="edge3" class="edge">
<title>7501d46e&#45;a567&#45;41ec&#45;941f&#45;a5d082126d05&#45;&gt;ce3e0ab8&#45;066c&#45;4f7e&#45;90d7&#45;2c22ba51a159</title>
<path fill="none" stroke="black" d="M390,-215.7C390,-207.98 390,-198.71 390,-190.11"/>
<polygon fill="black" stroke="black" points="393.5,-190.1 390,-180.1 386.5,-190.1 393.5,-190.1"/>
</g>
<!-- 741a7d9e&#45;6444&#45;4328&#45;afc6&#45;b3b3627b1fd6 -->
<g id="node5" class="node">
<title>741a7d9e&#45;6444&#45;4328&#45;afc6&#45;b3b3627b1fd6</title>
<ellipse fill="none" stroke="black" cx="554" cy="-162" rx="46.4" ry="18"/>
<text text-anchor="middle" x="554" y="-158.3" font-family="Times,serif" font-size="14.00">AlwaysTrue</text>
</g>
<!-- 7501d46e&#45;a567&#45;41ec&#45;941f&#45;a5d082126d05&#45;&gt;741a7d9e&#45;6444&#45;4328&#45;afc6&#45;b3b3627b1fd6 -->
<g id="edge4" class="edge">
<title>7501d46e&#45;a567&#45;41ec&#45;941f&#45;a5d082126d05&#45;&gt;741a7d9e&#45;6444&#45;4328&#45;afc6&#45;b3b3627b1fd6</title>
<path fill="none" stroke="black" d="M417.08,-221.44C443.68,-210.09 484.55,-192.65 514.71,-179.77"/>
<polygon fill="black" stroke="black" points="516.28,-182.91 524.1,-175.76 513.53,-176.47 516.28,-182.91"/>
</g>
<!-- a5e68597&#45;6e12&#45;4062&#45;955a&#45;428aeaf33ae3 -->
<g id="node6" class="node">
<title>a5e68597&#45;6e12&#45;4062&#45;955a&#45;428aeaf33ae3</title>
<ellipse fill="none" stroke="black" cx="718" cy="-162" rx="46.4" ry="18"/>
<text text-anchor="middle" x="718" y="-158.3" font-family="Times,serif" font-size="14.00">AlwaysTrue</text>
</g>
<!-- 7501d46e&#45;a567&#45;41ec&#45;941f&#45;a5d082126d05&#45;&gt;a5e68597&#45;6e12&#45;4062&#45;955a&#45;428aeaf33ae3 -->
<g id="edge5" class="edge">
<title>7501d46e&#45;a567&#45;41ec&#45;941f&#45;a5d082126d05&#45;&gt;a5e68597&#45;6e12&#45;4062&#45;955a&#45;428aeaf33ae3</title>
<path fill="none" stroke="black" d="M417.12,-227.21C472.27,-215.44 598.21,-188.57 668.41,-173.58"/>
<polygon fill="black" stroke="black" points="669.3,-176.97 678.35,-171.46 667.84,-170.13 669.3,-176.97"/>
</g>
<!-- 53eb1d81&#45;f2dd&#45;4364&#45;a5f1&#45;b9bcf0403be7 -->
<g id="node7" class="node">
<title>53eb1d81&#45;f2dd&#45;4364&#45;a5f1&#45;b9bcf0403be7</title>
<polygon fill="none" stroke="black" stroke-dasharray="5,2" points="426,-108 354,-108 354,-72 426,-72 426,-108"/>
<text text-anchor="middle" x="390" y="-86.3" font-family="Times,serif" font-size="14.00" fill="red">Resolve</text>
</g>
<!-- a8ded308&#45;2954&#45;489f&#45;abc4&#45;072ad4362e72&#45;&gt;53eb1d81&#45;f2dd&#45;4364&#45;a5f1&#45;b9bcf0403be7 -->
<g id="edge6" class="edge">
<title>a8ded308&#45;2954&#45;489f&#45;abc4&#45;072ad4362e72&#45;&gt;53eb1d81&#45;f2dd&#45;4364&#45;a5f1&#45;b9bcf0403be7</title>
<path fill="none" stroke="black" d="M101.56,-152.56C162.54,-139.54 279.18,-114.65 343.89,-100.84"/>
<polygon fill="black" stroke="black" points="344.76,-104.23 353.81,-98.72 343.3,-97.39 344.76,-104.23"/>
</g>
<!-- 93fa95ff&#45;413d&#45;4ef9&#45;8f55&#45;3897297c06ef&#45;&gt;53eb1d81&#45;f2dd&#45;4364&#45;a5f1&#45;b9bcf0403be7 -->
<g id="edge7" class="edge">
<title>93fa95ff&#45;413d&#45;4ef9&#45;8f55&#45;3897297c06ef&#45;&gt;53eb1d81&#45;f2dd&#45;4364&#45;a5f1&#45;b9bcf0403be7</title>
<path fill="none" stroke="black" d="M256.08,-148.16C280.84,-137.59 316.32,-122.45 344.55,-110.4"/>
<polygon fill="black" stroke="black" points="345.99,-113.59 353.81,-106.45 343.24,-107.15 345.99,-113.59"/>
</g>
<!-- ce3e0ab8&#45;066c&#45;4f7e&#45;90d7&#45;2c22ba51a159&#45;&gt;53eb1d81&#45;f2dd&#45;4364&#45;a5f1&#45;b9bcf0403be7 -->
<g id="edge8" class="edge">
<title>ce3e0ab8&#45;066c&#45;4f7e&#45;90d7&#45;2c22ba51a159&#45;&gt;53eb1d81&#45;f2dd&#45;4364&#45;a5f1&#45;b9bcf0403be7</title>
<path fill="none" stroke="black" d="M390,-143.7C390,-135.98 390,-126.71 390,-118.11"/>
<polygon fill="black" stroke="black" points="393.5,-118.1 390,-108.1 386.5,-118.1 393.5,-118.1"/>
</g>
<!-- 741a7d9e&#45;6444&#45;4328&#45;afc6&#45;b3b3627b1fd6&#45;&gt;53eb1d81&#45;f2dd&#45;4364&#45;a5f1&#45;b9bcf0403be7 -->
<g id="edge9" class="edge">
<title>741a7d9e&#45;6444&#45;4328&#45;afc6&#45;b3b3627b1fd6&#45;&gt;53eb1d81&#45;f2dd&#45;4364&#45;a5f1&#45;b9bcf0403be7</title>
<path fill="none" stroke="black" d="M523.92,-148.16C499.16,-137.59 463.68,-122.45 435.45,-110.4"/>
<polygon fill="black" stroke="black" points="436.76,-107.15 426.19,-106.45 434.01,-113.59 436.76,-107.15"/>
</g>
<!-- a5e68597&#45;6e12&#45;4062&#45;955a&#45;428aeaf33ae3&#45;&gt;53eb1d81&#45;f2dd&#45;4364&#45;a5f1&#45;b9bcf0403be7 -->
<g id="edge10" class="edge">
<title>a5e68597&#45;6e12&#45;4062&#45;955a&#45;428aeaf33ae3&#45;&gt;53eb1d81&#45;f2dd&#45;4364&#45;a5f1&#45;b9bcf0403be7</title>
<path fill="none" stroke="black" d="M678.44,-152.56C617.46,-139.54 500.82,-114.65 436.11,-100.84"/>
<polygon fill="black" stroke="black" points="436.7,-97.39 426.19,-98.72 435.24,-104.23 436.7,-97.39"/>
</g>
<!-- c840adff&#45;e18f&#45;4159&#45;841c&#45;e98466b17283 -->
<g id="node8" class="node">
<title>c840adff&#45;e18f&#45;4159&#45;841c&#45;e98466b17283</title>
<ellipse fill="none" stroke="black" cx="390" cy="-18" rx="46.4" ry="18"/>
<text text-anchor="middle" x="390" y="-14.3" font-family="Times,serif" font-size="14.00">AlwaysTrue</text>
</g>
<!-- 53eb1d81&#45;f2dd&#45;4364&#45;a5f1&#45;b9bcf0403be7&#45;&gt;c840adff&#45;e18f&#45;4159&#45;841c&#45;e98466b17283 -->
<g id="edge11" class="edge">
<title>53eb1d81&#45;f2dd&#45;4364&#45;a5f1&#45;b9bcf0403be7&#45;&gt;c840adff&#45;e18f&#45;4159&#45;841c&#45;e98466b17283</title>
<path fill="none" stroke="black" d="M390,-71.7C390,-63.98 390,-54.71 390,-46.11"/>
<polygon fill="black" stroke="black" points="393.5,-46.1 390,-36.1 386.5,-46.1 393.5,-46.1"/>
</g>
</g>
</svg>
