<?xml version="1.0" encoding="UTF-8" standalone="no"?>
<!DOCTYPE svg PUBLIC "-//W3C//DTD SVG 1.1//EN"
 "http://www.w3.org/Graphics/SVG/1.1/DTD/svg11.dtd">
<!-- Generated by graphviz version 2.43.0 (0)
 -->
<!-- Title: G Pages: 1 -->
<svg width="743pt" height="1121pt"
 viewBox="0.00 0.00 742.80 1121.00" xmlns="http://www.w3.org/2000/svg" xmlns:xlink="http://www.w3.org/1999/xlink">
<g id="graph0" class="graph" transform="scale(1 1) rotate(0) translate(4 1117)">
<title>G</title>
<polygon fill="transparent" stroke="transparent" points="-4,4 -4,-1117 738.8,-1117 738.8,4 -4,4"/>
<g id="clust1" class="cluster">
<title>cluster_97a06906&#45;09d0&#45;4f4f&#45;8271&#45;398b25899e36</title>
<polygon fill="transparent" stroke="blue" stroke-dasharray="5,2" points="8,-8 8,-829 280,-829 280,-8 8,-8"/>
</g>
<!-- 84ec172a&#45;e92e&#45;4ef8&#45;a270&#45;90d0e0ecc46c -->
<g id="node1" class="node">
<title>84ec172a&#45;e92e&#45;4ef8&#45;a270&#45;90d0e0ecc46c</title>
<polygon fill="none" stroke="black" points="207,-748 141.82,-730 207,-712 272.18,-730 207,-748"/>
<text text-anchor="middle" x="207" y="-726.3" font-family="Times,serif" font-size="14.00">AlwaysTrue</text>
</g>
<!-- 66aa2f81&#45;52ee&#45;4e05&#45;8bf5&#45;aaf257e54b25 -->
<g id="node19" class="node">
<title>66aa2f81&#45;52ee&#45;4e05&#45;8bf5&#45;aaf257e54b25</title>
<ellipse fill="none" stroke="black" cx="335" cy="-643" rx="46.5" ry="18"/>
<text text-anchor="middle" x="335" y="-639.3" font-family="Times,serif" font-size="14.00">VisionNorm</text>
</g>
<!-- 84ec172a&#45;e92e&#45;4ef8&#45;a270&#45;90d0e0ecc46c&#45;&gt;66aa2f81&#45;52ee&#45;4e05&#45;8bf5&#45;aaf257e54b25 -->
<g id="edge18" class="edge">
<title>84ec172a&#45;e92e&#45;4ef8&#45;a270&#45;90d0e0ecc46c&#45;&gt;66aa2f81&#45;52ee&#45;4e05&#45;8bf5&#45;aaf257e54b25</title>
<path fill="none" stroke="black" d="M225.34,-716.82C245.78,-703.25 279.18,-681.06 303.76,-664.74"/>
<polygon fill="black" stroke="black" points="305.98,-667.47 312.38,-659.02 302.11,-661.64 305.98,-667.47"/>
<text text-anchor="middle" x="296" y="-682.8" font-family="Times,serif" font-size="14.00">True</text>
</g>
<!-- 5835ca02&#45;8777&#45;43b2&#45;a206&#45;fe693678f82a -->
<g id="node2" class="node">
<title>5835ca02&#45;8777&#45;43b2&#45;a206&#45;fe693678f82a</title>
<ellipse fill="none" stroke="black" cx="95" cy="-121" rx="27" ry="18"/>
<text text-anchor="middle" x="95" y="-117.3" font-family="Times,serif" font-size="14.00">StripX</text>
</g>
<!-- 4e26fcbb&#45;f7b7&#45;4589&#45;ada0&#45;8a37ba3f285a -->
<g id="node3" class="node">
<title>4e26fcbb&#45;f7b7&#45;4589&#45;ada0&#45;8a37ba3f285a</title>
<ellipse fill="none" stroke="black" cx="96" cy="-34" rx="80.11" ry="18"/>
<text text-anchor="middle" x="96" y="-30.3" font-family="Times,serif" font-size="14.00">Stability2Movement</text>
</g>
<!-- 5835ca02&#45;8777&#45;43b2&#45;a206&#45;fe693678f82a&#45;&gt;4e26fcbb&#45;f7b7&#45;4589&#45;ada0&#45;8a37ba3f285a -->
<g id="edge1" class="edge">
<title>5835ca02&#45;8777&#45;43b2&#45;a206&#45;fe693678f82a&#45;&gt;4e26fcbb&#45;f7b7&#45;4589&#45;ada0&#45;8a37ba3f285a</title>
<path fill="none" stroke="purple" d="M95.2,-102.8C95.34,-91.16 95.52,-75.55 95.68,-62.24"/>
<polygon fill="purple" stroke="purple" points="99.18,-62.22 95.8,-52.18 92.18,-62.13 99.18,-62.22"/>
<text text-anchor="middle" x="131.5" y="-73.8" font-family="Times,serif" font-size="14.00" fill="purple">Pass Data</text>
</g>
<!-- a190f15c&#45;af66&#45;408a&#45;9294&#45;968413535194 -->
<g id="node4" class="node">
<title>a190f15c&#45;af66&#45;408a&#45;9294&#45;968413535194</title>
<ellipse fill="none" stroke="black" cx="95" cy="-208" rx="27" ry="18"/>
<text text-anchor="middle" x="95" y="-204.3" font-family="Times,serif" font-size="14.00">StripY</text>
</g>
<!-- a190f15c&#45;af66&#45;408a&#45;9294&#45;968413535194&#45;&gt;5835ca02&#45;8777&#45;43b2&#45;a206&#45;fe693678f82a -->
<g id="edge2" class="edge">
<title>a190f15c&#45;af66&#45;408a&#45;9294&#45;968413535194&#45;&gt;5835ca02&#45;8777&#45;43b2&#45;a206&#45;fe693678f82a</title>
<path fill="none" stroke="purple" d="M95,-189.8C95,-178.16 95,-162.55 95,-149.24"/>
<polygon fill="purple" stroke="purple" points="98.5,-149.18 95,-139.18 91.5,-149.18 98.5,-149.18"/>
<text text-anchor="middle" x="130.5" y="-160.8" font-family="Times,serif" font-size="14.00" fill="purple">Pass Data</text>
</g>
<!-- 05a69020&#45;ede3&#45;4778&#45;8b94&#45;1a681fb13eea -->
<g id="node5" class="node">
<title>05a69020&#45;ede3&#45;4778&#45;8b94&#45;1a681fb13eea</title>
<ellipse fill="none" stroke="black" cx="95" cy="-295" rx="31.2" ry="18"/>
<text text-anchor="middle" x="95" y="-291.3" font-family="Times,serif" font-size="14.00">FlipYaw</text>
</g>
<!-- 05a69020&#45;ede3&#45;4778&#45;8b94&#45;1a681fb13eea&#45;&gt;a190f15c&#45;af66&#45;408a&#45;9294&#45;968413535194 -->
<g id="edge3" class="edge">
<title>05a69020&#45;ede3&#45;4778&#45;8b94&#45;1a681fb13eea&#45;&gt;a190f15c&#45;af66&#45;408a&#45;9294&#45;968413535194</title>
<path fill="none" stroke="purple" d="M95,-276.8C95,-265.16 95,-249.55 95,-236.24"/>
<polygon fill="purple" stroke="purple" points="98.5,-236.18 95,-226.18 91.5,-236.18 98.5,-236.18"/>
<text text-anchor="middle" x="130.5" y="-247.8" font-family="Times,serif" font-size="14.00" fill="purple">Pass Data</text>
</g>
<!-- e5a732b5&#45;1dfb&#45;4f06&#45;9025&#45;6c3313629d70 -->
<g id="node6" class="node">
<title>e5a732b5&#45;1dfb&#45;4f06&#45;9025&#45;6c3313629d70</title>
<ellipse fill="none" stroke="black" cx="95" cy="-382" rx="67.81" ry="18"/>
<text text-anchor="middle" x="95" y="-378.3" font-family="Times,serif" font-size="14.00">LinearYawFromX</text>
</g>
<!-- e5a732b5&#45;1dfb&#45;4f06&#45;9025&#45;6c3313629d70&#45;&gt;05a69020&#45;ede3&#45;4778&#45;8b94&#45;1a681fb13eea -->
<g id="edge4" class="edge">
<title>e5a732b5&#45;1dfb&#45;4f06&#45;9025&#45;6c3313629d70&#45;&gt;05a69020&#45;ede3&#45;4778&#45;8b94&#45;1a681fb13eea</title>
<path fill="none" stroke="purple" d="M95,-363.8C95,-352.16 95,-336.55 95,-323.24"/>
<polygon fill="purple" stroke="purple" points="98.5,-323.18 95,-313.18 91.5,-323.18 98.5,-323.18"/>
<text text-anchor="middle" x="130.5" y="-334.8" font-family="Times,serif" font-size="14.00" fill="purple">Pass Data</text>
</g>
<!-- 18302b33&#45;4cc3&#45;4461&#45;bd57&#45;e2fbd70de92a -->
<g id="node7" class="node">
<title>18302b33&#45;4cc3&#45;4461&#45;bd57&#45;e2fbd70de92a</title>
<ellipse fill="none" stroke="black" cx="95" cy="-469" rx="51.3" ry="18"/>
<text text-anchor="middle" x="95" y="-465.3" font-family="Times,serif" font-size="14.00">OffsetToPose</text>
</g>
<!-- 18302b33&#45;4cc3&#45;4461&#45;bd57&#45;e2fbd70de92a&#45;&gt;e5a732b5&#45;1dfb&#45;4f06&#45;9025&#45;6c3313629d70 -->
<g id="edge5" class="edge">
<title>18302b33&#45;4cc3&#45;4461&#45;bd57&#45;e2fbd70de92a&#45;&gt;e5a732b5&#45;1dfb&#45;4f06&#45;9025&#45;6c3313629d70</title>
<path fill="none" stroke="purple" d="M95,-450.8C95,-439.16 95,-423.55 95,-410.24"/>
<polygon fill="purple" stroke="purple" points="98.5,-410.18 95,-400.18 91.5,-410.18 98.5,-410.18"/>
<text text-anchor="middle" x="130.5" y="-421.8" font-family="Times,serif" font-size="14.00" fill="purple">Pass Data</text>
</g>
<!-- 11467def&#45;ec4b&#45;4fb6&#45;9d49&#45;84d2efe9e02a -->
<g id="node8" class="node">
<title>11467def&#45;ec4b&#45;4fb6&#45;9d49&#45;84d2efe9e02a</title>
<ellipse fill="none" stroke="black" cx="94" cy="-556" rx="32.4" ry="18"/>
<text text-anchor="middle" x="94" y="-552.3" font-family="Times,serif" font-size="14.00">Average</text>
</g>
<!-- 11467def&#45;ec4b&#45;4fb6&#45;9d49&#45;84d2efe9e02a&#45;&gt;18302b33&#45;4cc3&#45;4461&#45;bd57&#45;e2fbd70de92a -->
<g id="edge6" class="edge">
<title>11467def&#45;ec4b&#45;4fb6&#45;9d49&#45;84d2efe9e02a&#45;&gt;18302b33&#45;4cc3&#45;4461&#45;bd57&#45;e2fbd70de92a</title>
<path fill="none" stroke="purple" d="M94.2,-537.8C94.34,-526.16 94.52,-510.55 94.68,-497.24"/>
<polygon fill="purple" stroke="purple" points="98.18,-497.22 94.8,-487.18 91.18,-497.13 98.18,-497.22"/>
<text text-anchor="middle" x="130.5" y="-508.8" font-family="Times,serif" font-size="14.00" fill="purple">Pass Data</text>
</g>
<!-- d21ea8e1&#45;9057&#45;496d&#45;b312&#45;902bbc220a88 -->
<g id="node9" class="node">
<title>d21ea8e1&#45;9057&#45;496d&#45;b312&#45;902bbc220a88</title>
<ellipse fill="none" stroke="black" cx="92" cy="-643" rx="61.1" ry="18"/>
<text text-anchor="middle" x="92" y="-639.3" font-family="Times,serif" font-size="14.00">ExtractPosition</text>
</g>
<!-- d21ea8e1&#45;9057&#45;496d&#45;b312&#45;902bbc220a88&#45;&gt;11467def&#45;ec4b&#45;4fb6&#45;9d49&#45;84d2efe9e02a -->
<g id="edge7" class="edge">
<title>d21ea8e1&#45;9057&#45;496d&#45;b312&#45;902bbc220a88&#45;&gt;11467def&#45;ec4b&#45;4fb6&#45;9d49&#45;84d2efe9e02a</title>
<path fill="none" stroke="purple" d="M92.4,-624.8C92.68,-613.16 93.05,-597.55 93.36,-584.24"/>
<polygon fill="purple" stroke="purple" points="96.86,-584.26 93.6,-574.18 89.86,-584.09 96.86,-584.26"/>
<text text-anchor="middle" x="129.5" y="-595.8" font-family="Times,serif" font-size="14.00" fill="purple">Pass Data</text>
</g>
<!-- 014fc98b&#45;036c&#45;4dee&#45;90ea&#45;9f51d9927d51 -->
<g id="node10" class="node">
<title>014fc98b&#45;036c&#45;4dee&#45;90ea&#45;9f51d9927d51</title>
<ellipse fill="none" stroke="black" cx="43" cy="-730" rx="27" ry="18"/>
<text text-anchor="middle" x="43" y="-726.3" font-family="Times,serif" font-size="14.00">ToVec</text>
</g>
<!-- 014fc98b&#45;036c&#45;4dee&#45;90ea&#45;9f51d9927d51&#45;&gt;d21ea8e1&#45;9057&#45;496d&#45;b312&#45;902bbc220a88 -->
<g id="edge8" class="edge">
<title>014fc98b&#45;036c&#45;4dee&#45;90ea&#45;9f51d9927d51&#45;&gt;d21ea8e1&#45;9057&#45;496d&#45;b312&#45;902bbc220a88</title>
<path fill="none" stroke="purple" d="M52.22,-713.01C59.27,-700.78 69.13,-683.68 77.27,-669.56"/>
<polygon fill="purple" stroke="purple" points="80.36,-671.2 82.32,-660.79 74.3,-667.7 80.36,-671.2"/>
<text text-anchor="middle" x="106.5" y="-682.8" font-family="Times,serif" font-size="14.00" fill="purple">Pass Data</text>
</g>
<!-- d2caca2a&#45;f434&#45;4bf0&#45;a192&#45;95788d2850db -->
<g id="node11" class="node">
<title>d2caca2a&#45;f434&#45;4bf0&#45;a192&#45;95788d2850db</title>
<polygon fill="none" stroke="black" stroke-dasharray="5,2" points="256,-821 158,-821 158,-785 256,-785 256,-821"/>
<text text-anchor="middle" x="207" y="-799.3" font-family="Times,serif" font-size="14.00" fill="blue">Concurrent</text>
</g>
<!-- d2caca2a&#45;f434&#45;4bf0&#45;a192&#45;95788d2850db&#45;&gt;84ec172a&#45;e92e&#45;4ef8&#45;a270&#45;90d0e0ecc46c -->
<g id="edge10" class="edge">
<title>d2caca2a&#45;f434&#45;4bf0&#45;a192&#45;95788d2850db&#45;&gt;84ec172a&#45;e92e&#45;4ef8&#45;a270&#45;90d0e0ecc46c</title>
<path fill="none" stroke="black" d="M207,-784.81C207,-776.79 207,-767.05 207,-758.07"/>
<polygon fill="black" stroke="black" points="210.5,-758.03 207,-748.03 203.5,-758.03 210.5,-758.03"/>
</g>
<!-- d2caca2a&#45;f434&#45;4bf0&#45;a192&#45;95788d2850db&#45;&gt;014fc98b&#45;036c&#45;4dee&#45;90ea&#45;9f51d9927d51 -->
<g id="edge9" class="edge">
<title>d2caca2a&#45;f434&#45;4bf0&#45;a192&#45;95788d2850db&#45;&gt;014fc98b&#45;036c&#45;4dee&#45;90ea&#45;9f51d9927d51</title>
<path fill="none" stroke="black" d="M167.72,-784.99C139.19,-772.64 101.1,-756.15 74.55,-744.66"/>
<polygon fill="black" stroke="black" points="75.89,-741.43 65.32,-740.66 73.11,-747.85 75.89,-741.43"/>
</g>
<!-- 08586dc6&#45;80b5&#45;4679&#45;a904&#45;4f8ad8e4d7b5 -->
<g id="node12" class="node">
<title>08586dc6&#45;80b5&#45;4679&#45;a904&#45;4f8ad8e4d7b5</title>
<ellipse fill="none" stroke="black" cx="660" cy="-1022" rx="33.6" ry="18"/>
<text text-anchor="middle" x="660" y="-1018.3" font-family="Times,serif" font-size="14.00">Descend</text>
</g>
<!-- d6d9b629&#45;74db&#45;4094&#45;82f2&#45;708b195124c2 -->
<g id="node13" class="node">
<title>d6d9b629&#45;74db&#45;4094&#45;82f2&#45;708b195124c2</title>
<ellipse fill="none" stroke="black" cx="660" cy="-949" rx="47.1" ry="18"/>
<text text-anchor="middle" x="660" y="-945.3" font-family="Times,serif" font-size="14.00">DelayAction</text>
</g>
<!-- 08586dc6&#45;80b5&#45;4679&#45;a904&#45;4f8ad8e4d7b5&#45;&gt;d6d9b629&#45;74db&#45;4094&#45;82f2&#45;708b195124c2 -->
<g id="edge11" class="edge">
<title>08586dc6&#45;80b5&#45;4679&#45;a904&#45;4f8ad8e4d7b5&#45;&gt;d6d9b629&#45;74db&#45;4094&#45;82f2&#45;708b195124c2</title>
<path fill="none" stroke="black" d="M660,-1003.81C660,-995.79 660,-986.05 660,-977.07"/>
<polygon fill="black" stroke="black" points="663.5,-977.03 660,-967.03 656.5,-977.03 663.5,-977.03"/>
</g>
<!-- 17a7f0de&#45;29e5&#45;4f36&#45;afdb&#45;65f305d0e01e -->
<g id="node14" class="node">
<title>17a7f0de&#45;29e5&#45;4f36&#45;afdb&#45;65f305d0e01e</title>
<ellipse fill="none" stroke="black" cx="660" cy="-876" rx="74.61" ry="18"/>
<text text-anchor="middle" x="660" y="-872.3" font-family="Times,serif" font-size="14.00">StraightMovement</text>
</g>
<!-- d6d9b629&#45;74db&#45;4094&#45;82f2&#45;708b195124c2&#45;&gt;17a7f0de&#45;29e5&#45;4f36&#45;afdb&#45;65f305d0e01e -->
<g id="edge14" class="edge">
<title>d6d9b629&#45;74db&#45;4094&#45;82f2&#45;708b195124c2&#45;&gt;17a7f0de&#45;29e5&#45;4f36&#45;afdb&#45;65f305d0e01e</title>
<path fill="none" stroke="black" d="M660,-930.81C660,-922.79 660,-913.05 660,-904.07"/>
<polygon fill="black" stroke="black" points="663.5,-904.03 660,-894.03 656.5,-904.03 663.5,-904.03"/>
</g>
<!-- d7387abf&#45;4154&#45;4d25&#45;ae6f&#45;0c1f668e0c43 -->
<g id="node15" class="node">
<title>d7387abf&#45;4154&#45;4d25&#45;ae6f&#45;0c1f668e0c43</title>
<ellipse fill="none" stroke="black" cx="660" cy="-803" rx="47.1" ry="18"/>
<text text-anchor="middle" x="660" y="-799.3" font-family="Times,serif" font-size="14.00">DelayAction</text>
</g>
<!-- 17a7f0de&#45;29e5&#45;4f36&#45;afdb&#45;65f305d0e01e&#45;&gt;d7387abf&#45;4154&#45;4d25&#45;ae6f&#45;0c1f668e0c43 -->
<g id="edge12" class="edge">
<title>17a7f0de&#45;29e5&#45;4f36&#45;afdb&#45;65f305d0e01e&#45;&gt;d7387abf&#45;4154&#45;4d25&#45;ae6f&#45;0c1f668e0c43</title>
<path fill="none" stroke="black" d="M660,-857.81C660,-849.79 660,-840.05 660,-831.07"/>
<polygon fill="black" stroke="black" points="663.5,-831.03 660,-821.03 656.5,-831.03 663.5,-831.03"/>
</g>
<!-- 1f28260e&#45;89ce&#45;4ff3&#45;886a&#45;70419b3e90d8 -->
<g id="node16" class="node">
<title>1f28260e&#45;89ce&#45;4ff3&#45;886a&#45;70419b3e90d8</title>
<ellipse fill="none" stroke="black" cx="660" cy="-730" rx="59.9" ry="18"/>
<text text-anchor="middle" x="660" y="-726.3" font-family="Times,serif" font-size="14.00">ZeroMovement</text>
</g>
<!-- d7387abf&#45;4154&#45;4d25&#45;ae6f&#45;0c1f668e0c43&#45;&gt;1f28260e&#45;89ce&#45;4ff3&#45;886a&#45;70419b3e90d8 -->
<g id="edge13" class="edge">
<title>d7387abf&#45;4154&#45;4d25&#45;ae6f&#45;0c1f668e0c43&#45;&gt;1f28260e&#45;89ce&#45;4ff3&#45;886a&#45;70419b3e90d8</title>
<path fill="none" stroke="black" d="M660,-784.81C660,-776.79 660,-767.05 660,-758.07"/>
<polygon fill="black" stroke="black" points="663.5,-758.03 660,-748.03 656.5,-758.03 663.5,-758.03"/>
</g>
<!-- 1f28260e&#45;89ce&#45;4ff3&#45;886a&#45;70419b3e90d8&#45;&gt;66aa2f81&#45;52ee&#45;4e05&#45;8bf5&#45;aaf257e54b25 -->
<g id="edge19" class="edge">
<title>1f28260e&#45;89ce&#45;4ff3&#45;886a&#45;70419b3e90d8&#45;&gt;66aa2f81&#45;52ee&#45;4e05&#45;8bf5&#45;aaf257e54b25</title>
<path fill="none" stroke="black" d="M639.53,-712.83C624.07,-701.49 601.85,-686.98 580,-679 518.08,-656.38 442.38,-648.3 391.65,-645.46"/>
<polygon fill="black" stroke="black" points="391.7,-641.96 381.54,-644.94 391.35,-648.95 391.7,-641.96"/>
</g>
<!-- 4f5156de&#45;c31d&#45;47ee&#45;87ce&#45;60db860e0a4e -->
<g id="node17" class="node">
<title>4f5156de&#45;c31d&#45;47ee&#45;87ce&#45;60db860e0a4e</title>
<ellipse fill="none" stroke="black" cx="660" cy="-1095" rx="34.8" ry="18"/>
<text text-anchor="middle" x="660" y="-1091.3" font-family="Times,serif" font-size="14.00">WaitArm</text>
</g>
<!-- 4f5156de&#45;c31d&#45;47ee&#45;87ce&#45;60db860e0a4e&#45;&gt;08586dc6&#45;80b5&#45;4679&#45;a904&#45;4f8ad8e4d7b5 -->
<g id="edge15" class="edge">
<title>4f5156de&#45;c31d&#45;47ee&#45;87ce&#45;60db860e0a4e&#45;&gt;08586dc6&#45;80b5&#45;4679&#45;a904&#45;4f8ad8e4d7b5</title>
<path fill="none" stroke="black" d="M660,-1076.81C660,-1068.79 660,-1059.05 660,-1050.07"/>
<polygon fill="black" stroke="black" points="663.5,-1050.03 660,-1040.03 656.5,-1050.03 663.5,-1050.03"/>
</g>
<!-- 7d79973e&#45;e923&#45;47ca&#45;89c5&#45;b65a9be63c11 -->
<g id="node18" class="node">
<title>7d79973e&#45;e923&#45;47ca&#45;89c5&#45;b65a9be63c11</title>
<ellipse fill="none" stroke="black" cx="430" cy="-556" rx="48.3" ry="18"/>
<text text-anchor="middle" x="430" y="-552.3" font-family="Times,serif" font-size="14.00">Detect Buoy</text>
</g>
<!-- 7d79973e&#45;e923&#45;47ca&#45;89c5&#45;b65a9be63c11&#45;&gt;d2caca2a&#45;f434&#45;4bf0&#45;a192&#45;95788d2850db -->
<g id="edge16" class="edge">
<title>7d79973e&#45;e923&#45;47ca&#45;89c5&#45;b65a9be63c11&#45;&gt;d2caca2a&#45;f434&#45;4bf0&#45;a192&#45;95788d2850db</title>
<path fill="none" stroke="purple" d="M442.64,-573.8C448.32,-583.35 453.11,-595.64 450,-607 442.63,-633.91 436.36,-640 418,-661 371.25,-714.49 299.68,-756.54 253.1,-780.34"/>
<polygon fill="purple" stroke="purple" points="251.49,-777.23 244.14,-784.85 254.64,-783.48 251.49,-777.23"/>
<text text-anchor="middle" x="434.5" y="-682.8" font-family="Times,serif" font-size="14.00" fill="purple">Pass Data</text>
</g>
<!-- 66aa2f81&#45;52ee&#45;4e05&#45;8bf5&#45;aaf257e54b25&#45;&gt;7d79973e&#45;e923&#45;47ca&#45;89c5&#45;b65a9be63c11 -->
<g id="edge17" class="edge">
<title>66aa2f81&#45;52ee&#45;4e05&#45;8bf5&#45;aaf257e54b25&#45;&gt;7d79973e&#45;e923&#45;47ca&#45;89c5&#45;b65a9be63c11</title>
<path fill="none" stroke="purple" d="M342.26,-625.14C347.43,-614.63 355.19,-601.37 365,-592 372.09,-585.23 380.74,-579.39 389.39,-574.52"/>
<polygon fill="purple" stroke="purple" points="391.12,-577.56 398.33,-569.79 387.85,-571.37 391.12,-577.56"/>
<text text-anchor="middle" x="400.5" y="-595.8" font-family="Times,serif" font-size="14.00" fill="purple">Pass Data</text>
</g>
</g>
</svg>
