<?xml version="1.0" encoding="UTF-8" standalone="no"?>
<!DOCTYPE svg PUBLIC "-//W3C//DTD SVG 1.1//EN"
 "http://www.w3.org/Graphics/SVG/1.1/DTD/svg11.dtd">
<!-- Generated by graphviz version 2.43.0 (0)
 -->
<!-- Title: G Pages: 1 -->
<svg width="743pt" height="1121pt"
 viewBox="0.00 0.00 742.80 1121.00" xmlns="http://www.w3.org/2000/svg" xmlns:xlink="http://www.w3.org/1999/xlink">
<g id="graph0" class="graph" transform="scale(1 1) rotate(0) translate(4 1117)">
<title>G</title>
<polygon fill="transparent" stroke="transparent" points="-4,4 -4,-1117 738.8,-1117 738.8,4 -4,4"/>
<g id="clust1" class="cluster">
<title>cluster_155daf82&#45;ffbe&#45;47d8&#45;ade2&#45;5c5a9ff01a67</title>
<polygon fill="transparent" stroke="blue" stroke-dasharray="5,2" points="8,-8 8,-829 280,-829 280,-8 8,-8"/>
</g>
<!-- c7b33c3d&#45;e78a&#45;4797&#45;9837&#45;bc25308a2245 -->
<g id="node1" class="node">
<title>c7b33c3d&#45;e78a&#45;4797&#45;9837&#45;bc25308a2245</title>
<polygon fill="none" stroke="black" points="207,-748 141.82,-730 207,-712 272.18,-730 207,-748"/>
<text text-anchor="middle" x="207" y="-726.3" font-family="Times,serif" font-size="14.00">AlwaysTrue</text>
</g>
<!-- 1bdbefe2&#45;ce5d&#45;4f00&#45;90b8&#45;3ce089b6d134 -->
<g id="node19" class="node">
<title>1bdbefe2&#45;ce5d&#45;4f00&#45;90b8&#45;3ce089b6d134</title>
<ellipse fill="none" stroke="black" cx="335" cy="-643" rx="46.5" ry="18"/>
<text text-anchor="middle" x="335" y="-639.3" font-family="Times,serif" font-size="14.00">VisionNorm</text>
</g>
<!-- c7b33c3d&#45;e78a&#45;4797&#45;9837&#45;bc25308a2245&#45;&gt;1bdbefe2&#45;ce5d&#45;4f00&#45;90b8&#45;3ce089b6d134 -->
<g id="edge18" class="edge">
<title>c7b33c3d&#45;e78a&#45;4797&#45;9837&#45;bc25308a2245&#45;&gt;1bdbefe2&#45;ce5d&#45;4f00&#45;90b8&#45;3ce089b6d134</title>
<path fill="none" stroke="black" d="M225.34,-716.82C245.78,-703.25 279.18,-681.06 303.76,-664.74"/>
<polygon fill="black" stroke="black" points="305.98,-667.47 312.38,-659.02 302.11,-661.64 305.98,-667.47"/>
<text text-anchor="middle" x="296" y="-682.8" font-family="Times,serif" font-size="14.00">True</text>
</g>
<!-- c1ad80d8&#45;e35c&#45;41e1&#45;af21&#45;db0128cc5881 -->
<g id="node2" class="node">
<title>c1ad80d8&#45;e35c&#45;41e1&#45;af21&#45;db0128cc5881</title>
<ellipse fill="none" stroke="black" cx="95" cy="-121" rx="31.2" ry="18"/>
<text text-anchor="middle" x="95" y="-117.3" font-family="Times,serif" font-size="14.00">MinYaw</text>
</g>
<!-- ec3ef32e&#45;8191&#45;4aa1&#45;9ef9&#45;6c3343127fc0 -->
<g id="node3" class="node">
<title>ec3ef32e&#45;8191&#45;4aa1&#45;9ef9&#45;6c3343127fc0</title>
<ellipse fill="none" stroke="black" cx="96" cy="-34" rx="80.11" ry="18"/>
<text text-anchor="middle" x="96" y="-30.3" font-family="Times,serif" font-size="14.00">Stability1Movement</text>
</g>
<!-- c1ad80d8&#45;e35c&#45;41e1&#45;af21&#45;db0128cc5881&#45;&gt;ec3ef32e&#45;8191&#45;4aa1&#45;9ef9&#45;6c3343127fc0 -->
<g id="edge1" class="edge">
<title>c1ad80d8&#45;e35c&#45;41e1&#45;af21&#45;db0128cc5881&#45;&gt;ec3ef32e&#45;8191&#45;4aa1&#45;9ef9&#45;6c3343127fc0</title>
<path fill="none" stroke="purple" d="M95.2,-102.8C95.34,-91.16 95.52,-75.55 95.68,-62.24"/>
<polygon fill="purple" stroke="purple" points="99.18,-62.22 95.8,-52.18 92.18,-62.13 99.18,-62.22"/>
<text text-anchor="middle" x="131.5" y="-73.8" font-family="Times,serif" font-size="14.00" fill="purple">Pass Data</text>
</g>
<!-- 6d1b37c9&#45;10ad&#45;4111&#45;9cde&#45;45cde2fcc10e -->
<g id="node4" class="node">
<title>6d1b37c9&#45;10ad&#45;4111&#45;9cde&#45;45cde2fcc10e</title>
<ellipse fill="none" stroke="black" cx="94" cy="-208" rx="27" ry="18"/>
<text text-anchor="middle" x="94" y="-204.3" font-family="Times,serif" font-size="14.00">StripY</text>
</g>
<!-- 6d1b37c9&#45;10ad&#45;4111&#45;9cde&#45;45cde2fcc10e&#45;&gt;c1ad80d8&#45;e35c&#45;41e1&#45;af21&#45;db0128cc5881 -->
<g id="edge2" class="edge">
<title>6d1b37c9&#45;10ad&#45;4111&#45;9cde&#45;45cde2fcc10e&#45;&gt;c1ad80d8&#45;e35c&#45;41e1&#45;af21&#45;db0128cc5881</title>
<path fill="none" stroke="purple" d="M94.2,-189.8C94.34,-178.16 94.52,-162.55 94.68,-149.24"/>
<polygon fill="purple" stroke="purple" points="98.18,-149.22 94.8,-139.18 91.18,-149.13 98.18,-149.22"/>
<text text-anchor="middle" x="130.5" y="-160.8" font-family="Times,serif" font-size="14.00" fill="purple">Pass Data</text>
</g>
<!-- 8d01b9d2&#45;6108&#45;47d7&#45;9e6f&#45;8e7ac6acfab0 -->
<g id="node5" class="node">
<title>8d01b9d2&#45;6108&#45;47d7&#45;9e6f&#45;8e7ac6acfab0</title>
<ellipse fill="none" stroke="black" cx="94" cy="-295" rx="75.81" ry="18"/>
<text text-anchor="middle" x="94" y="-291.3" font-family="Times,serif" font-size="14.00">CautiousConstantX</text>
</g>
<!-- 8d01b9d2&#45;6108&#45;47d7&#45;9e6f&#45;8e7ac6acfab0&#45;&gt;6d1b37c9&#45;10ad&#45;4111&#45;9cde&#45;45cde2fcc10e -->
<g id="edge3" class="edge">
<title>8d01b9d2&#45;6108&#45;47d7&#45;9e6f&#45;8e7ac6acfab0&#45;&gt;6d1b37c9&#45;10ad&#45;4111&#45;9cde&#45;45cde2fcc10e</title>
<path fill="none" stroke="purple" d="M94,-276.8C94,-265.16 94,-249.55 94,-236.24"/>
<polygon fill="purple" stroke="purple" points="97.5,-236.18 94,-226.18 90.5,-236.18 97.5,-236.18"/>
<text text-anchor="middle" x="129.5" y="-247.8" font-family="Times,serif" font-size="14.00" fill="purple">Pass Data</text>
</g>
<!-- f726281c&#45;342c&#45;4ee8&#45;ab82&#45;78b548960b76 -->
<g id="node6" class="node">
<title>f726281c&#45;342c&#45;4ee8&#45;ab82&#45;78b548960b76</title>
<ellipse fill="none" stroke="black" cx="93" cy="-382" rx="67.81" ry="18"/>
<text text-anchor="middle" x="93" y="-378.3" font-family="Times,serif" font-size="14.00">LinearYawFromX</text>
</g>
<!-- f726281c&#45;342c&#45;4ee8&#45;ab82&#45;78b548960b76&#45;&gt;8d01b9d2&#45;6108&#45;47d7&#45;9e6f&#45;8e7ac6acfab0 -->
<g id="edge4" class="edge">
<title>f726281c&#45;342c&#45;4ee8&#45;ab82&#45;78b548960b76&#45;&gt;8d01b9d2&#45;6108&#45;47d7&#45;9e6f&#45;8e7ac6acfab0</title>
<path fill="none" stroke="purple" d="M93.2,-363.8C93.34,-352.16 93.52,-336.55 93.68,-323.24"/>
<polygon fill="purple" stroke="purple" points="97.18,-323.22 93.8,-313.18 90.18,-323.13 97.18,-323.22"/>
<text text-anchor="middle" x="129.5" y="-334.8" font-family="Times,serif" font-size="14.00" fill="purple">Pass Data</text>
</g>
<!-- 877e2f01&#45;a119&#45;4cf2&#45;ad90&#45;da2857c3795a -->
<g id="node7" class="node">
<title>877e2f01&#45;a119&#45;4cf2&#45;ad90&#45;da2857c3795a</title>
<ellipse fill="none" stroke="black" cx="92" cy="-469" rx="51.3" ry="18"/>
<text text-anchor="middle" x="92" y="-465.3" font-family="Times,serif" font-size="14.00">OffsetToPose</text>
</g>
<!-- 877e2f01&#45;a119&#45;4cf2&#45;ad90&#45;da2857c3795a&#45;&gt;f726281c&#45;342c&#45;4ee8&#45;ab82&#45;78b548960b76 -->
<g id="edge5" class="edge">
<title>877e2f01&#45;a119&#45;4cf2&#45;ad90&#45;da2857c3795a&#45;&gt;f726281c&#45;342c&#45;4ee8&#45;ab82&#45;78b548960b76</title>
<path fill="none" stroke="purple" d="M92.2,-450.8C92.34,-439.16 92.52,-423.55 92.68,-410.24"/>
<polygon fill="purple" stroke="purple" points="96.18,-410.22 92.8,-400.18 89.18,-410.13 96.18,-410.22"/>
<text text-anchor="middle" x="128.5" y="-421.8" font-family="Times,serif" font-size="14.00" fill="purple">Pass Data</text>
</g>
<!-- 41eb07bc&#45;009e&#45;4cac&#45;b01d&#45;afd356c1cb03 -->
<g id="node8" class="node">
<title>41eb07bc&#45;009e&#45;4cac&#45;b01d&#45;afd356c1cb03</title>
<ellipse fill="none" stroke="black" cx="91" cy="-556" rx="32.4" ry="18"/>
<text text-anchor="middle" x="91" y="-552.3" font-family="Times,serif" font-size="14.00">Average</text>
</g>
<!-- 41eb07bc&#45;009e&#45;4cac&#45;b01d&#45;afd356c1cb03&#45;&gt;877e2f01&#45;a119&#45;4cf2&#45;ad90&#45;da2857c3795a -->
<g id="edge6" class="edge">
<title>41eb07bc&#45;009e&#45;4cac&#45;b01d&#45;afd356c1cb03&#45;&gt;877e2f01&#45;a119&#45;4cf2&#45;ad90&#45;da2857c3795a</title>
<path fill="none" stroke="purple" d="M91.2,-537.8C91.34,-526.16 91.52,-510.55 91.68,-497.24"/>
<polygon fill="purple" stroke="purple" points="95.18,-497.22 91.8,-487.18 88.18,-497.13 95.18,-497.22"/>
<text text-anchor="middle" x="127.5" y="-508.8" font-family="Times,serif" font-size="14.00" fill="purple">Pass Data</text>
</g>
<!-- 4f69d5d4&#45;e099&#45;4156&#45;884c&#45;3581c24313d2 -->
<g id="node9" class="node">
<title>4f69d5d4&#45;e099&#45;4156&#45;884c&#45;3581c24313d2</title>
<ellipse fill="none" stroke="black" cx="90" cy="-643" rx="61.1" ry="18"/>
<text text-anchor="middle" x="90" y="-639.3" font-family="Times,serif" font-size="14.00">ExtractPosition</text>
</g>
<!-- 4f69d5d4&#45;e099&#45;4156&#45;884c&#45;3581c24313d2&#45;&gt;41eb07bc&#45;009e&#45;4cac&#45;b01d&#45;afd356c1cb03 -->
<g id="edge7" class="edge">
<title>4f69d5d4&#45;e099&#45;4156&#45;884c&#45;3581c24313d2&#45;&gt;41eb07bc&#45;009e&#45;4cac&#45;b01d&#45;afd356c1cb03</title>
<path fill="none" stroke="purple" d="M90.2,-624.8C90.34,-613.16 90.52,-597.55 90.68,-584.24"/>
<polygon fill="purple" stroke="purple" points="94.18,-584.22 90.8,-574.18 87.18,-584.13 94.18,-584.22"/>
<text text-anchor="middle" x="126.5" y="-595.8" font-family="Times,serif" font-size="14.00" fill="purple">Pass Data</text>
</g>
<!-- 0f8c8257&#45;f220&#45;484b&#45;877a&#45;38ea256cceac -->
<g id="node10" class="node">
<title>0f8c8257&#45;f220&#45;484b&#45;877a&#45;38ea256cceac</title>
<ellipse fill="none" stroke="black" cx="43" cy="-730" rx="27" ry="18"/>
<text text-anchor="middle" x="43" y="-726.3" font-family="Times,serif" font-size="14.00">ToVec</text>
</g>
<!-- 0f8c8257&#45;f220&#45;484b&#45;877a&#45;38ea256cceac&#45;&gt;4f69d5d4&#45;e099&#45;4156&#45;884c&#45;3581c24313d2 -->
<g id="edge8" class="edge">
<title>0f8c8257&#45;f220&#45;484b&#45;877a&#45;38ea256cceac&#45;&gt;4f69d5d4&#45;e099&#45;4156&#45;884c&#45;3581c24313d2</title>
<path fill="none" stroke="purple" d="M52.06,-712.61C58.74,-700.54 67.95,-683.88 75.63,-670"/>
<polygon fill="purple" stroke="purple" points="78.87,-671.37 80.64,-660.92 72.74,-667.98 78.87,-671.37"/>
<text text-anchor="middle" x="105.5" y="-682.8" font-family="Times,serif" font-size="14.00" fill="purple">Pass Data</text>
</g>
<!-- e17d59d6&#45;fb79&#45;4058&#45;bfac&#45;1daa02445e05 -->
<g id="node11" class="node">
<title>e17d59d6&#45;fb79&#45;4058&#45;bfac&#45;1daa02445e05</title>
<polygon fill="none" stroke="black" stroke-dasharray="5,2" points="256,-821 158,-821 158,-785 256,-785 256,-821"/>
<text text-anchor="middle" x="207" y="-799.3" font-family="Times,serif" font-size="14.00" fill="blue">Concurrent</text>
</g>
<!-- e17d59d6&#45;fb79&#45;4058&#45;bfac&#45;1daa02445e05&#45;&gt;c7b33c3d&#45;e78a&#45;4797&#45;9837&#45;bc25308a2245 -->
<g id="edge10" class="edge">
<title>e17d59d6&#45;fb79&#45;4058&#45;bfac&#45;1daa02445e05&#45;&gt;c7b33c3d&#45;e78a&#45;4797&#45;9837&#45;bc25308a2245</title>
<path fill="none" stroke="black" d="M207,-784.81C207,-776.79 207,-767.05 207,-758.07"/>
<polygon fill="black" stroke="black" points="210.5,-758.03 207,-748.03 203.5,-758.03 210.5,-758.03"/>
</g>
<!-- e17d59d6&#45;fb79&#45;4058&#45;bfac&#45;1daa02445e05&#45;&gt;0f8c8257&#45;f220&#45;484b&#45;877a&#45;38ea256cceac -->
<g id="edge9" class="edge">
<title>e17d59d6&#45;fb79&#45;4058&#45;bfac&#45;1daa02445e05&#45;&gt;0f8c8257&#45;f220&#45;484b&#45;877a&#45;38ea256cceac</title>
<path fill="none" stroke="black" d="M167.72,-784.99C139.19,-772.64 101.1,-756.15 74.55,-744.66"/>
<polygon fill="black" stroke="black" points="75.89,-741.43 65.32,-740.66 73.11,-747.85 75.89,-741.43"/>
</g>
<!-- d46a2639&#45;7d44&#45;46ee&#45;ad74&#45;0ceac8efd5e8 -->
<g id="node12" class="node">
<title>d46a2639&#45;7d44&#45;46ee&#45;ad74&#45;0ceac8efd5e8</title>
<ellipse fill="none" stroke="black" cx="660" cy="-1022" rx="33.6" ry="18"/>
<text text-anchor="middle" x="660" y="-1018.3" font-family="Times,serif" font-size="14.00">Descend</text>
</g>
<!-- 5c84cecf&#45;332a&#45;4e68&#45;aa02&#45;6d3a12d188fd -->
<g id="node13" class="node">
<title>5c84cecf&#45;332a&#45;4e68&#45;aa02&#45;6d3a12d188fd</title>
<ellipse fill="none" stroke="black" cx="660" cy="-949" rx="47.1" ry="18"/>
<text text-anchor="middle" x="660" y="-945.3" font-family="Times,serif" font-size="14.00">DelayAction</text>
</g>
<!-- d46a2639&#45;7d44&#45;46ee&#45;ad74&#45;0ceac8efd5e8&#45;&gt;5c84cecf&#45;332a&#45;4e68&#45;aa02&#45;6d3a12d188fd -->
<g id="edge11" class="edge">
<title>d46a2639&#45;7d44&#45;46ee&#45;ad74&#45;0ceac8efd5e8&#45;&gt;5c84cecf&#45;332a&#45;4e68&#45;aa02&#45;6d3a12d188fd</title>
<path fill="none" stroke="black" d="M660,-1003.81C660,-995.79 660,-986.05 660,-977.07"/>
<polygon fill="black" stroke="black" points="663.5,-977.03 660,-967.03 656.5,-977.03 663.5,-977.03"/>
</g>
<!-- c8ecbe64&#45;80e6&#45;4d9f&#45;813b&#45;722fa43efc17 -->
<g id="node14" class="node">
<title>c8ecbe64&#45;80e6&#45;4d9f&#45;813b&#45;722fa43efc17</title>
<ellipse fill="none" stroke="black" cx="660" cy="-876" rx="74.61" ry="18"/>
<text text-anchor="middle" x="660" y="-872.3" font-family="Times,serif" font-size="14.00">StraightMovement</text>
</g>
<!-- 5c84cecf&#45;332a&#45;4e68&#45;aa02&#45;6d3a12d188fd&#45;&gt;c8ecbe64&#45;80e6&#45;4d9f&#45;813b&#45;722fa43efc17 -->
<g id="edge14" class="edge">
<title>5c84cecf&#45;332a&#45;4e68&#45;aa02&#45;6d3a12d188fd&#45;&gt;c8ecbe64&#45;80e6&#45;4d9f&#45;813b&#45;722fa43efc17</title>
<path fill="none" stroke="black" d="M660,-930.81C660,-922.79 660,-913.05 660,-904.07"/>
<polygon fill="black" stroke="black" points="663.5,-904.03 660,-894.03 656.5,-904.03 663.5,-904.03"/>
</g>
<!-- 6c0b2df3&#45;4855&#45;4fde&#45;b044&#45;828b84ed83de -->
<g id="node15" class="node">
<title>6c0b2df3&#45;4855&#45;4fde&#45;b044&#45;828b84ed83de</title>
<ellipse fill="none" stroke="black" cx="660" cy="-803" rx="47.1" ry="18"/>
<text text-anchor="middle" x="660" y="-799.3" font-family="Times,serif" font-size="14.00">DelayAction</text>
</g>
<!-- c8ecbe64&#45;80e6&#45;4d9f&#45;813b&#45;722fa43efc17&#45;&gt;6c0b2df3&#45;4855&#45;4fde&#45;b044&#45;828b84ed83de -->
<g id="edge12" class="edge">
<title>c8ecbe64&#45;80e6&#45;4d9f&#45;813b&#45;722fa43efc17&#45;&gt;6c0b2df3&#45;4855&#45;4fde&#45;b044&#45;828b84ed83de</title>
<path fill="none" stroke="black" d="M660,-857.81C660,-849.79 660,-840.05 660,-831.07"/>
<polygon fill="black" stroke="black" points="663.5,-831.03 660,-821.03 656.5,-831.03 663.5,-831.03"/>
</g>
<!-- ed22fdac&#45;02ba&#45;4963&#45;a192&#45;9ac4b8d0cb7c -->
<g id="node16" class="node">
<title>ed22fdac&#45;02ba&#45;4963&#45;a192&#45;9ac4b8d0cb7c</title>
<ellipse fill="none" stroke="black" cx="660" cy="-730" rx="59.9" ry="18"/>
<text text-anchor="middle" x="660" y="-726.3" font-family="Times,serif" font-size="14.00">ZeroMovement</text>
</g>
<!-- 6c0b2df3&#45;4855&#45;4fde&#45;b044&#45;828b84ed83de&#45;&gt;ed22fdac&#45;02ba&#45;4963&#45;a192&#45;9ac4b8d0cb7c -->
<g id="edge13" class="edge">
<title>6c0b2df3&#45;4855&#45;4fde&#45;b044&#45;828b84ed83de&#45;&gt;ed22fdac&#45;02ba&#45;4963&#45;a192&#45;9ac4b8d0cb7c</title>
<path fill="none" stroke="black" d="M660,-784.81C660,-776.79 660,-767.05 660,-758.07"/>
<polygon fill="black" stroke="black" points="663.5,-758.03 660,-748.03 656.5,-758.03 663.5,-758.03"/>
</g>
<!-- ed22fdac&#45;02ba&#45;4963&#45;a192&#45;9ac4b8d0cb7c&#45;&gt;1bdbefe2&#45;ce5d&#45;4f00&#45;90b8&#45;3ce089b6d134 -->
<g id="edge19" class="edge">
<title>ed22fdac&#45;02ba&#45;4963&#45;a192&#45;9ac4b8d0cb7c&#45;&gt;1bdbefe2&#45;ce5d&#45;4f00&#45;90b8&#45;3ce089b6d134</title>
<path fill="none" stroke="black" d="M639.53,-712.83C624.07,-701.49 601.85,-686.98 580,-679 518.08,-656.38 442.38,-648.3 391.65,-645.46"/>
<polygon fill="black" stroke="black" points="391.7,-641.96 381.54,-644.94 391.35,-648.95 391.7,-641.96"/>
</g>
<!-- 097d6e74&#45;b0d2&#45;47b1&#45;b1d1&#45;20f495a10786 -->
<g id="node17" class="node">
<title>097d6e74&#45;b0d2&#45;47b1&#45;b1d1&#45;20f495a10786</title>
<ellipse fill="none" stroke="black" cx="660" cy="-1095" rx="34.8" ry="18"/>
<text text-anchor="middle" x="660" y="-1091.3" font-family="Times,serif" font-size="14.00">WaitArm</text>
</g>
<!-- 097d6e74&#45;b0d2&#45;47b1&#45;b1d1&#45;20f495a10786&#45;&gt;d46a2639&#45;7d44&#45;46ee&#45;ad74&#45;0ceac8efd5e8 -->
<g id="edge15" class="edge">
<title>097d6e74&#45;b0d2&#45;47b1&#45;b1d1&#45;20f495a10786&#45;&gt;d46a2639&#45;7d44&#45;46ee&#45;ad74&#45;0ceac8efd5e8</title>
<path fill="none" stroke="black" d="M660,-1076.81C660,-1068.79 660,-1059.05 660,-1050.07"/>
<polygon fill="black" stroke="black" points="663.5,-1050.03 660,-1040.03 656.5,-1050.03 663.5,-1050.03"/>
</g>
<!-- dadd8cdd&#45;a2a8&#45;4d10&#45;b20a&#45;3d137e4feffa -->
<g id="node18" class="node">
<title>dadd8cdd&#45;a2a8&#45;4d10&#45;b20a&#45;3d137e4feffa</title>
<ellipse fill="none" stroke="black" cx="430" cy="-556" rx="48.3" ry="18"/>
<text text-anchor="middle" x="430" y="-552.3" font-family="Times,serif" font-size="14.00">Detect Buoy</text>
</g>
<!-- dadd8cdd&#45;a2a8&#45;4d10&#45;b20a&#45;3d137e4feffa&#45;&gt;e17d59d6&#45;fb79&#45;4058&#45;bfac&#45;1daa02445e05 -->
<g id="edge16" class="edge">
<title>dadd8cdd&#45;a2a8&#45;4d10&#45;b20a&#45;3d137e4feffa&#45;&gt;e17d59d6&#45;fb79&#45;4058&#45;bfac&#45;1daa02445e05</title>
<path fill="none" stroke="purple" d="M442.64,-573.8C448.32,-583.35 453.11,-595.64 450,-607 442.63,-633.91 436.36,-640 418,-661 371.25,-714.49 299.68,-756.54 253.1,-780.34"/>
<polygon fill="purple" stroke="purple" points="251.49,-777.23 244.14,-784.85 254.64,-783.48 251.49,-777.23"/>
<text text-anchor="middle" x="434.5" y="-682.8" font-family="Times,serif" font-size="14.00" fill="purple">Pass Data</text>
</g>
<!-- 1bdbefe2&#45;ce5d&#45;4f00&#45;90b8&#45;3ce089b6d134&#45;&gt;dadd8cdd&#45;a2a8&#45;4d10&#45;b20a&#45;3d137e4feffa -->
<g id="edge17" class="edge">
<title>1bdbefe2&#45;ce5d&#45;4f00&#45;90b8&#45;3ce089b6d134&#45;&gt;dadd8cdd&#45;a2a8&#45;4d10&#45;b20a&#45;3d137e4feffa</title>
<path fill="none" stroke="purple" d="M342.26,-625.14C347.43,-614.63 355.19,-601.37 365,-592 372.09,-585.23 380.74,-579.39 389.39,-574.52"/>
<polygon fill="purple" stroke="purple" points="391.12,-577.56 398.33,-569.79 387.85,-571.37 391.12,-577.56"/>
<text text-anchor="middle" x="400.5" y="-595.8" font-family="Times,serif" font-size="14.00" fill="purple">Pass Data</text>
</g>
</g>
</svg>
