<?xml version="1.0" encoding="UTF-8" standalone="no"?>
<!DOCTYPE svg PUBLIC "-//W3C//DTD SVG 1.1//EN"
 "http://www.w3.org/Graphics/SVG/1.1/DTD/svg11.dtd">
<!-- Generated by graphviz version 2.43.0 (0)
 -->
<!-- Title: G Pages: 1 -->
<svg width="318pt" height="987pt"
 viewBox="0.00 0.00 318.29 987.00" xmlns="http://www.w3.org/2000/svg" xmlns:xlink="http://www.w3.org/1999/xlink">
<g id="graph0" class="graph" transform="scale(1 1) rotate(0) translate(4 983)">
<title>G</title>
<polygon fill="transparent" stroke="transparent" points="-4,4 -4,-983 314.29,-983 314.29,4 -4,4"/>
<!-- da433eb6&#45;fe62&#45;42eb&#45;9fea&#45;ed6cb26a2730 -->
<g id="node1" class="node">
<title>da433eb6&#45;fe62&#45;42eb&#45;9fea&#45;ed6cb26a2730</title>
<polygon fill="none" stroke="black" points="65.34,-906 0.16,-888 65.34,-870 130.52,-888 65.34,-906"/>
<text text-anchor="middle" x="65.34" y="-884.3" font-family="Times,serif" font-size="14.00">AlwaysTrue</text>
</g>
<!-- 0be8d6a5&#45;a109&#45;45f3&#45;b75e&#45;a98f609756a0 -->
<g id="node11" class="node">
<title>0be8d6a5&#45;a109&#45;45f3&#45;b75e&#45;a98f609756a0</title>
<ellipse fill="none" stroke="black" cx="103.34" cy="-801" rx="46.5" ry="18"/>
<text text-anchor="middle" x="103.34" y="-797.3" font-family="Times,serif" font-size="14.00">VisionNorm</text>
</g>
<!-- da433eb6&#45;fe62&#45;42eb&#45;9fea&#45;ed6cb26a2730&#45;&gt;0be8d6a5&#45;a109&#45;45f3&#45;b75e&#45;a98f609756a0 -->
<g id="edge10" class="edge">
<title>da433eb6&#45;fe62&#45;42eb&#45;9fea&#45;ed6cb26a2730&#45;&gt;0be8d6a5&#45;a109&#45;45f3&#45;b75e&#45;a98f609756a0</title>
<path fill="none" stroke="black" d="M72.13,-871.8C77.54,-859.7 85.25,-842.47 91.65,-828.16"/>
<polygon fill="black" stroke="black" points="94.94,-829.37 95.82,-818.81 88.55,-826.51 94.94,-829.37"/>
<text text-anchor="middle" x="104.34" y="-840.8" font-family="Times,serif" font-size="14.00">True</text>
</g>
<!-- 7d5410f3&#45;0766&#45;4246&#45;8bc7&#45;e20aedba3898 -->
<g id="node2" class="node">
<title>7d5410f3&#45;0766&#45;4246&#45;8bc7&#45;e20aedba3898</title>
<ellipse fill="none" stroke="black" cx="103.34" cy="-105" rx="27" ry="18"/>
<text text-anchor="middle" x="103.34" y="-101.3" font-family="Times,serif" font-size="14.00">FlatX</text>
</g>
<!-- fc22894f&#45;f465&#45;44dd&#45;b14d&#45;52091b7264c9 -->
<g id="node3" class="node">
<title>fc22894f&#45;f465&#45;44dd&#45;b14d&#45;52091b7264c9</title>
<ellipse fill="none" stroke="black" cx="103.34" cy="-18" rx="80.11" ry="18"/>
<text text-anchor="middle" x="103.34" y="-14.3" font-family="Times,serif" font-size="14.00">Stability2Movement</text>
</g>
<!-- 7d5410f3&#45;0766&#45;4246&#45;8bc7&#45;e20aedba3898&#45;&gt;fc22894f&#45;f465&#45;44dd&#45;b14d&#45;52091b7264c9 -->
<g id="edge1" class="edge">
<title>7d5410f3&#45;0766&#45;4246&#45;8bc7&#45;e20aedba3898&#45;&gt;fc22894f&#45;f465&#45;44dd&#45;b14d&#45;52091b7264c9</title>
<path fill="none" stroke="purple" d="M103.34,-86.8C103.34,-75.16 103.34,-59.55 103.34,-46.24"/>
<polygon fill="purple" stroke="purple" points="106.84,-46.18 103.34,-36.18 99.84,-46.18 106.84,-46.18"/>
<text text-anchor="middle" x="138.84" y="-57.8" font-family="Times,serif" font-size="14.00" fill="purple">Pass Data</text>
</g>
<!-- eda259ec&#45;6a5a&#45;4b97&#45;95ff&#45;47a5d2713f86 -->
<g id="node4" class="node">
<title>eda259ec&#45;6a5a&#45;4b97&#45;95ff&#45;47a5d2713f86</title>
<ellipse fill="none" stroke="black" cx="103.34" cy="-192" rx="27" ry="18"/>
<text text-anchor="middle" x="103.34" y="-188.3" font-family="Times,serif" font-size="14.00">StripY</text>
</g>
<!-- eda259ec&#45;6a5a&#45;4b97&#45;95ff&#45;47a5d2713f86&#45;&gt;7d5410f3&#45;0766&#45;4246&#45;8bc7&#45;e20aedba3898 -->
<g id="edge2" class="edge">
<title>eda259ec&#45;6a5a&#45;4b97&#45;95ff&#45;47a5d2713f86&#45;&gt;7d5410f3&#45;0766&#45;4246&#45;8bc7&#45;e20aedba3898</title>
<path fill="none" stroke="purple" d="M103.34,-173.8C103.34,-162.16 103.34,-146.55 103.34,-133.24"/>
<polygon fill="purple" stroke="purple" points="106.84,-133.18 103.34,-123.18 99.84,-133.18 106.84,-133.18"/>
<text text-anchor="middle" x="138.84" y="-144.8" font-family="Times,serif" font-size="14.00" fill="purple">Pass Data</text>
</g>
<!-- 5fb0b069&#45;e63d&#45;4753&#45;8b51&#45;fe3fe05caedf -->
<g id="node5" class="node">
<title>5fb0b069&#45;e63d&#45;4753&#45;8b51&#45;fe3fe05caedf</title>
<ellipse fill="none" stroke="black" cx="103.34" cy="-279" rx="52.6" ry="18"/>
<text text-anchor="middle" x="103.34" y="-275.3" font-family="Times,serif" font-size="14.00">Anon Closure</text>
</g>
<!-- 5fb0b069&#45;e63d&#45;4753&#45;8b51&#45;fe3fe05caedf&#45;&gt;eda259ec&#45;6a5a&#45;4b97&#45;95ff&#45;47a5d2713f86 -->
<g id="edge3" class="edge">
<title>5fb0b069&#45;e63d&#45;4753&#45;8b51&#45;fe3fe05caedf&#45;&gt;eda259ec&#45;6a5a&#45;4b97&#45;95ff&#45;47a5d2713f86</title>
<path fill="none" stroke="purple" d="M103.34,-260.8C103.34,-249.16 103.34,-233.55 103.34,-220.24"/>
<polygon fill="purple" stroke="purple" points="106.84,-220.18 103.34,-210.18 99.84,-220.18 106.84,-220.18"/>
<text text-anchor="middle" x="138.84" y="-231.8" font-family="Times,serif" font-size="14.00" fill="purple">Pass Data</text>
</g>
<!-- 1fe39826&#45;4d51&#45;4aad&#45;84a9&#45;6619f2668a2f -->
<g id="node6" class="node">
<title>1fe39826&#45;4d51&#45;4aad&#45;84a9&#45;6619f2668a2f</title>
<ellipse fill="none" stroke="black" cx="103.34" cy="-366" rx="51.3" ry="18"/>
<text text-anchor="middle" x="103.34" y="-362.3" font-family="Times,serif" font-size="14.00">OffsetToPose</text>
</g>
<!-- 1fe39826&#45;4d51&#45;4aad&#45;84a9&#45;6619f2668a2f&#45;&gt;5fb0b069&#45;e63d&#45;4753&#45;8b51&#45;fe3fe05caedf -->
<g id="edge4" class="edge">
<title>1fe39826&#45;4d51&#45;4aad&#45;84a9&#45;6619f2668a2f&#45;&gt;5fb0b069&#45;e63d&#45;4753&#45;8b51&#45;fe3fe05caedf</title>
<path fill="none" stroke="purple" d="M103.34,-347.8C103.34,-336.16 103.34,-320.55 103.34,-307.24"/>
<polygon fill="purple" stroke="purple" points="106.84,-307.18 103.34,-297.18 99.84,-307.18 106.84,-307.18"/>
<text text-anchor="middle" x="138.84" y="-318.8" font-family="Times,serif" font-size="14.00" fill="purple">Pass Data</text>
</g>
<!-- 5e2406d1&#45;3270&#45;4651&#45;b6c6&#45;1189d9498c81 -->
<g id="node7" class="node">
<title>5e2406d1&#45;3270&#45;4651&#45;b6c6&#45;1189d9498c81</title>
<ellipse fill="none" stroke="black" cx="103.34" cy="-453" rx="32.4" ry="18"/>
<text text-anchor="middle" x="103.34" y="-449.3" font-family="Times,serif" font-size="14.00">Average</text>
</g>
<!-- 5e2406d1&#45;3270&#45;4651&#45;b6c6&#45;1189d9498c81&#45;&gt;1fe39826&#45;4d51&#45;4aad&#45;84a9&#45;6619f2668a2f -->
<g id="edge5" class="edge">
<title>5e2406d1&#45;3270&#45;4651&#45;b6c6&#45;1189d9498c81&#45;&gt;1fe39826&#45;4d51&#45;4aad&#45;84a9&#45;6619f2668a2f</title>
<path fill="none" stroke="purple" d="M103.34,-434.8C103.34,-423.16 103.34,-407.55 103.34,-394.24"/>
<polygon fill="purple" stroke="purple" points="106.84,-394.18 103.34,-384.18 99.84,-394.18 106.84,-394.18"/>
<text text-anchor="middle" x="138.84" y="-405.8" font-family="Times,serif" font-size="14.00" fill="purple">Pass Data</text>
</g>
<!-- 51878d47&#45;c276&#45;49b1&#45;a2cf&#45;6ea263578106 -->
<g id="node8" class="node">
<title>51878d47&#45;c276&#45;49b1&#45;a2cf&#45;6ea263578106</title>
<ellipse fill="none" stroke="black" cx="103.34" cy="-540" rx="61.1" ry="18"/>
<text text-anchor="middle" x="103.34" y="-536.3" font-family="Times,serif" font-size="14.00">ExtractPosition</text>
</g>
<!-- 51878d47&#45;c276&#45;49b1&#45;a2cf&#45;6ea263578106&#45;&gt;5e2406d1&#45;3270&#45;4651&#45;b6c6&#45;1189d9498c81 -->
<g id="edge6" class="edge">
<title>51878d47&#45;c276&#45;49b1&#45;a2cf&#45;6ea263578106&#45;&gt;5e2406d1&#45;3270&#45;4651&#45;b6c6&#45;1189d9498c81</title>
<path fill="none" stroke="purple" d="M103.34,-521.8C103.34,-510.16 103.34,-494.55 103.34,-481.24"/>
<polygon fill="purple" stroke="purple" points="106.84,-481.18 103.34,-471.18 99.84,-481.18 106.84,-481.18"/>
<text text-anchor="middle" x="138.84" y="-492.8" font-family="Times,serif" font-size="14.00" fill="purple">Pass Data</text>
</g>
<!-- f2da8117&#45;8cb2&#45;4064&#45;89c2&#45;b54b4c8d28c3 -->
<g id="node9" class="node">
<title>f2da8117&#45;8cb2&#45;4064&#45;89c2&#45;b54b4c8d28c3</title>
<ellipse fill="none" stroke="black" cx="103.34" cy="-627" rx="27" ry="18"/>
<text text-anchor="middle" x="103.34" y="-623.3" font-family="Times,serif" font-size="14.00">ToVec</text>
</g>
<!-- f2da8117&#45;8cb2&#45;4064&#45;89c2&#45;b54b4c8d28c3&#45;&gt;51878d47&#45;c276&#45;49b1&#45;a2cf&#45;6ea263578106 -->
<g id="edge7" class="edge">
<title>f2da8117&#45;8cb2&#45;4064&#45;89c2&#45;b54b4c8d28c3&#45;&gt;51878d47&#45;c276&#45;49b1&#45;a2cf&#45;6ea263578106</title>
<path fill="none" stroke="purple" d="M103.34,-608.8C103.34,-597.16 103.34,-581.55 103.34,-568.24"/>
<polygon fill="purple" stroke="purple" points="106.84,-568.18 103.34,-558.18 99.84,-568.18 106.84,-568.18"/>
<text text-anchor="middle" x="138.84" y="-579.8" font-family="Times,serif" font-size="14.00" fill="purple">Pass Data</text>
</g>
<!-- 8e7c6ea8&#45;49ae&#45;4e4e&#45;b10f&#45;b1ea723fedf0 -->
<g id="node10" class="node">
<title>8e7c6ea8&#45;49ae&#45;4e4e&#45;b10f&#45;b1ea723fedf0</title>
<ellipse fill="none" stroke="black" cx="103.34" cy="-714" rx="45.2" ry="18"/>
<text text-anchor="middle" x="103.34" y="-710.3" font-family="Times,serif" font-size="14.00">Detect true</text>
</g>
<!-- 8e7c6ea8&#45;49ae&#45;4e4e&#45;b10f&#45;b1ea723fedf0&#45;&gt;f2da8117&#45;8cb2&#45;4064&#45;89c2&#45;b54b4c8d28c3 -->
<g id="edge8" class="edge">
<title>8e7c6ea8&#45;49ae&#45;4e4e&#45;b10f&#45;b1ea723fedf0&#45;&gt;f2da8117&#45;8cb2&#45;4064&#45;89c2&#45;b54b4c8d28c3</title>
<path fill="none" stroke="purple" d="M103.34,-695.8C103.34,-684.16 103.34,-668.55 103.34,-655.24"/>
<polygon fill="purple" stroke="purple" points="106.84,-655.18 103.34,-645.18 99.84,-655.18 106.84,-655.18"/>
<text text-anchor="middle" x="138.84" y="-666.8" font-family="Times,serif" font-size="14.00" fill="purple">Pass Data</text>
</g>
<!-- 0be8d6a5&#45;a109&#45;45f3&#45;b75e&#45;a98f609756a0&#45;&gt;8e7c6ea8&#45;49ae&#45;4e4e&#45;b10f&#45;b1ea723fedf0 -->
<g id="edge9" class="edge">
<title>0be8d6a5&#45;a109&#45;45f3&#45;b75e&#45;a98f609756a0&#45;&gt;8e7c6ea8&#45;49ae&#45;4e4e&#45;b10f&#45;b1ea723fedf0</title>
<path fill="none" stroke="purple" d="M103.34,-782.8C103.34,-771.16 103.34,-755.55 103.34,-742.24"/>
<polygon fill="purple" stroke="purple" points="106.84,-742.18 103.34,-732.18 99.84,-742.18 106.84,-742.18"/>
<text text-anchor="middle" x="138.84" y="-753.8" font-family="Times,serif" font-size="14.00" fill="purple">Pass Data</text>
</g>
<!-- f8e60fee&#45;a00f&#45;42f7&#45;9004&#45;d86bc18a6be4 -->
<g id="node12" class="node">
<title>f8e60fee&#45;a00f&#45;42f7&#45;9004&#45;d86bc18a6be4</title>
<ellipse fill="none" stroke="black" cx="250.34" cy="-888" rx="47.1" ry="18"/>
<text text-anchor="middle" x="250.34" y="-884.3" font-family="Times,serif" font-size="14.00">DelayAction</text>
</g>
<!-- f8e60fee&#45;a00f&#45;42f7&#45;9004&#45;d86bc18a6be4&#45;&gt;0be8d6a5&#45;a109&#45;45f3&#45;b75e&#45;a98f609756a0 -->
<g id="edge11" class="edge">
<title>f8e60fee&#45;a00f&#45;42f7&#45;9004&#45;d86bc18a6be4&#45;&gt;0be8d6a5&#45;a109&#45;45f3&#45;b75e&#45;a98f609756a0</title>
<path fill="none" stroke="black" d="M225.4,-872.58C201.12,-858.54 164.03,-837.09 137.1,-821.52"/>
<polygon fill="black" stroke="black" points="138.81,-818.47 128.4,-816.49 135.3,-824.53 138.81,-818.47"/>
</g>
<!-- 64f8075e&#45;2e7e&#45;4d72&#45;bd91&#45;da24904ab499 -->
<g id="node13" class="node">
<title>64f8075e&#45;2e7e&#45;4d72&#45;bd91&#45;da24904ab499</title>
<ellipse fill="none" stroke="black" cx="250.34" cy="-961" rx="59.9" ry="18"/>
<text text-anchor="middle" x="250.34" y="-957.3" font-family="Times,serif" font-size="14.00">ZeroMovement</text>
</g>
<!-- 64f8075e&#45;2e7e&#45;4d72&#45;bd91&#45;da24904ab499&#45;&gt;f8e60fee&#45;a00f&#45;42f7&#45;9004&#45;d86bc18a6be4 -->
<g id="edge12" class="edge">
<title>64f8075e&#45;2e7e&#45;4d72&#45;bd91&#45;da24904ab499&#45;&gt;f8e60fee&#45;a00f&#45;42f7&#45;9004&#45;d86bc18a6be4</title>
<path fill="none" stroke="black" d="M250.34,-942.81C250.34,-934.79 250.34,-925.05 250.34,-916.07"/>
<polygon fill="black" stroke="black" points="253.84,-916.03 250.34,-906.03 246.84,-916.03 253.84,-916.03"/>
</g>
</g>
</svg>
