<?xml version="1.0" encoding="UTF-8" standalone="no"?>
<!DOCTYPE svg PUBLIC "-//W3C//DTD SVG 1.1//EN"
 "http://www.w3.org/Graphics/SVG/1.1/DTD/svg11.dtd">
<!-- Generated by graphviz version 2.43.0 (0)
 -->
<!-- Title: G Pages: 1 -->
<svg width="430pt" height="378pt"
 viewBox="0.00 0.00 429.87 378.00" xmlns="http://www.w3.org/2000/svg" xmlns:xlink="http://www.w3.org/1999/xlink">
<g id="graph0" class="graph" transform="scale(1 1) rotate(0) translate(4 374)">
<title>G</title>
<polygon fill="transparent" stroke="transparent" points="-4,4 -4,-374 425.87,-374 425.87,4 -4,4"/>
<!-- c7ca00fc&#45;058a&#45;4295&#45;b2f6&#45;9737ecd8dd2c -->
<g id="node1" class="node">
<title>c7ca00fc&#45;058a&#45;4295&#45;b2f6&#45;9737ecd8dd2c</title>
<polygon fill="none" stroke="black" points="294.3,-210 166.67,-192 294.3,-174 421.93,-192 294.3,-210"/>
<text text-anchor="middle" x="294.3" y="-188.3" font-family="Times,serif" font-size="14.00">Consecutive True &lt; 28</text>
</g>
<!-- 1d5c66d0&#45;cdd7&#45;4f57&#45;8f2d&#45;45715eda1eb9 -->
<g id="node2" class="node">
<title>1d5c66d0&#45;cdd7&#45;4f57&#45;8f2d&#45;45715eda1eb9</title>
<ellipse fill="none" stroke="black" cx="97.3" cy="-105" rx="38.5" ry="18"/>
<text text-anchor="middle" x="97.3" y="-101.3" font-family="Times,serif" font-size="14.00">ConstYaw</text>
</g>
<!-- c7ca00fc&#45;058a&#45;4295&#45;b2f6&#45;9737ecd8dd2c&#45;&gt;1d5c66d0&#45;cdd7&#45;4f57&#45;8f2d&#45;45715eda1eb9 -->
<g id="edge4" class="edge">
<title>c7ca00fc&#45;058a&#45;4295&#45;b2f6&#45;9737ecd8dd2c&#45;&gt;1d5c66d0&#45;cdd7&#45;4f57&#45;8f2d&#45;45715eda1eb9</title>
<path fill="none" stroke="black" d="M264.38,-178.09C229.5,-163.04 171.85,-138.16 134.22,-121.93"/>
<polygon fill="black" stroke="black" points="135.21,-118.54 124.64,-117.8 132.44,-124.97 135.21,-118.54"/>
<text text-anchor="middle" x="225.3" y="-144.8" font-family="Times,serif" font-size="14.00">True</text>
</g>
<!-- 83a87cb7&#45;8ba3&#45;4eb2&#45;9e43&#45;f0ef22262aff -->
<g id="node6" class="node">
<title>83a87cb7&#45;8ba3&#45;4eb2&#45;9e43&#45;f0ef22262aff</title>
<ellipse fill="none" stroke="black" cx="294.3" cy="-105" rx="59.9" ry="18"/>
<text text-anchor="middle" x="294.3" y="-101.3" font-family="Times,serif" font-size="14.00">ZeroMovement</text>
</g>
<!-- c7ca00fc&#45;058a&#45;4295&#45;b2f6&#45;9737ecd8dd2c&#45;&gt;83a87cb7&#45;8ba3&#45;4eb2&#45;9e43&#45;f0ef22262aff -->
<g id="edge5" class="edge">
<title>c7ca00fc&#45;058a&#45;4295&#45;b2f6&#45;9737ecd8dd2c&#45;&gt;83a87cb7&#45;8ba3&#45;4eb2&#45;9e43&#45;f0ef22262aff</title>
<path fill="none" stroke="black" d="M294.3,-173.8C294.3,-162.16 294.3,-146.55 294.3,-133.24"/>
<polygon fill="black" stroke="black" points="297.8,-133.18 294.3,-123.18 290.8,-133.18 297.8,-133.18"/>
<text text-anchor="middle" x="313.3" y="-144.8" font-family="Times,serif" font-size="14.00">False</text>
</g>
<!-- 2ae47cd7&#45;3bcf&#45;42ff&#45;9812&#45;b25b2ed4cc97 -->
<g id="node3" class="node">
<title>2ae47cd7&#45;3bcf&#45;42ff&#45;9812&#45;b25b2ed4cc97</title>
<ellipse fill="none" stroke="black" cx="97.3" cy="-18" rx="80.11" ry="18"/>
<text text-anchor="middle" x="97.3" y="-14.3" font-family="Times,serif" font-size="14.00">Stability2Movement</text>
</g>
<!-- 1d5c66d0&#45;cdd7&#45;4f57&#45;8f2d&#45;45715eda1eb9&#45;&gt;2ae47cd7&#45;3bcf&#45;42ff&#45;9812&#45;b25b2ed4cc97 -->
<g id="edge1" class="edge">
<title>1d5c66d0&#45;cdd7&#45;4f57&#45;8f2d&#45;45715eda1eb9&#45;&gt;2ae47cd7&#45;3bcf&#45;42ff&#45;9812&#45;b25b2ed4cc97</title>
<path fill="none" stroke="purple" d="M97.3,-86.8C97.3,-75.16 97.3,-59.55 97.3,-46.24"/>
<polygon fill="purple" stroke="purple" points="100.8,-46.18 97.3,-36.18 93.8,-46.18 100.8,-46.18"/>
<text text-anchor="middle" x="132.8" y="-57.8" font-family="Times,serif" font-size="14.00" fill="purple">Pass Data</text>
</g>
<!-- cf4e2d23&#45;a5f3&#45;4e1b&#45;b136&#45;6b7586fc5c2f -->
<g id="node4" class="node">
<title>cf4e2d23&#45;a5f3&#45;4e1b&#45;b136&#45;6b7586fc5c2f</title>
<ellipse fill="none" stroke="black" cx="294.3" cy="-279" rx="46.4" ry="18"/>
<text text-anchor="middle" x="294.3" y="-275.3" font-family="Times,serif" font-size="14.00">AlwaysTrue</text>
</g>
<!-- cf4e2d23&#45;a5f3&#45;4e1b&#45;b136&#45;6b7586fc5c2f&#45;&gt;c7ca00fc&#45;058a&#45;4295&#45;b2f6&#45;9737ecd8dd2c -->
<g id="edge2" class="edge">
<title>cf4e2d23&#45;a5f3&#45;4e1b&#45;b136&#45;6b7586fc5c2f&#45;&gt;c7ca00fc&#45;058a&#45;4295&#45;b2f6&#45;9737ecd8dd2c</title>
<path fill="none" stroke="purple" d="M294.3,-260.8C294.3,-249.16 294.3,-233.55 294.3,-220.24"/>
<polygon fill="purple" stroke="purple" points="297.8,-220.18 294.3,-210.18 290.8,-220.18 297.8,-220.18"/>
<text text-anchor="middle" x="329.8" y="-231.8" font-family="Times,serif" font-size="14.00" fill="purple">Pass Data</text>
</g>
<!-- 35b5397d&#45;1337&#45;421b&#45;a5dd&#45;0505109ebcfa -->
<g id="node5" class="node">
<title>35b5397d&#45;1337&#45;421b&#45;a5dd&#45;0505109ebcfa</title>
<ellipse fill="none" stroke="black" cx="294.3" cy="-352" rx="47.1" ry="18"/>
<text text-anchor="middle" x="294.3" y="-348.3" font-family="Times,serif" font-size="14.00">DelayAction</text>
</g>
<!-- 35b5397d&#45;1337&#45;421b&#45;a5dd&#45;0505109ebcfa&#45;&gt;cf4e2d23&#45;a5f3&#45;4e1b&#45;b136&#45;6b7586fc5c2f -->
<g id="edge3" class="edge">
<title>35b5397d&#45;1337&#45;421b&#45;a5dd&#45;0505109ebcfa&#45;&gt;cf4e2d23&#45;a5f3&#45;4e1b&#45;b136&#45;6b7586fc5c2f</title>
<path fill="none" stroke="black" d="M294.3,-333.81C294.3,-325.79 294.3,-316.05 294.3,-307.07"/>
<polygon fill="black" stroke="black" points="297.8,-307.03 294.3,-297.03 290.8,-307.03 297.8,-307.03"/>
</g>
<!-- 83d4f717&#45;5165&#45;41c1&#45;8dea&#45;c69c202d4ff4 -->
<g id="node7" class="node">
<title>83d4f717&#45;5165&#45;41c1&#45;8dea&#45;c69c202d4ff4</title>
<ellipse fill="none" stroke="black" cx="47.3" cy="-192" rx="47.1" ry="18"/>
<text text-anchor="middle" x="47.3" y="-188.3" font-family="Times,serif" font-size="14.00">DelayAction</text>
</g>
<!-- 83d4f717&#45;5165&#45;41c1&#45;8dea&#45;c69c202d4ff4&#45;&gt;1d5c66d0&#45;cdd7&#45;4f57&#45;8f2d&#45;45715eda1eb9 -->
<g id="edge6" class="edge">
<title>83d4f717&#45;5165&#45;41c1&#45;8dea&#45;c69c202d4ff4&#45;&gt;1d5c66d0&#45;cdd7&#45;4f57&#45;8f2d&#45;45715eda1eb9</title>
<path fill="none" stroke="black" d="M57.18,-174.21C64.42,-161.9 74.36,-145 82.54,-131.09"/>
<polygon fill="black" stroke="black" points="85.56,-132.86 87.61,-122.47 79.53,-129.31 85.56,-132.86"/>
</g>
<!-- 108cfbbf&#45;cfab&#45;4ee5&#45;b8dd&#45;d67e72ca1a03 -->
<g id="node8" class="node">
<title>108cfbbf&#45;cfab&#45;4ee5&#45;b8dd&#45;d67e72ca1a03</title>
<ellipse fill="none" stroke="black" cx="47.3" cy="-279" rx="33.6" ry="18"/>
<text text-anchor="middle" x="47.3" y="-275.3" font-family="Times,serif" font-size="14.00">Descend</text>
</g>
<!-- 108cfbbf&#45;cfab&#45;4ee5&#45;b8dd&#45;d67e72ca1a03&#45;&gt;83d4f717&#45;5165&#45;41c1&#45;8dea&#45;c69c202d4ff4 -->
<g id="edge7" class="edge">
<title>108cfbbf&#45;cfab&#45;4ee5&#45;b8dd&#45;d67e72ca1a03&#45;&gt;83d4f717&#45;5165&#45;41c1&#45;8dea&#45;c69c202d4ff4</title>
<path fill="none" stroke="black" d="M47.3,-260.8C47.3,-249.16 47.3,-233.55 47.3,-220.24"/>
<polygon fill="black" stroke="black" points="50.8,-220.18 47.3,-210.18 43.8,-220.18 50.8,-220.18"/>
</g>
</g>
</svg>
