<?xml version="1.0" encoding="UTF-8" standalone="no"?>
<!DOCTYPE svg PUBLIC "-//W3C//DTD SVG 1.1//EN"
 "http://www.w3.org/Graphics/SVG/1.1/DTD/svg11.dtd">
<!-- Generated by graphviz version 2.43.0 (0)
 -->
<!-- Title: G Pages: 1 -->
<svg width="318pt" height="987pt"
 viewBox="0.00 0.00 318.29 987.00" xmlns="http://www.w3.org/2000/svg" xmlns:xlink="http://www.w3.org/1999/xlink">
<g id="graph0" class="graph" transform="scale(1 1) rotate(0) translate(4 983)">
<title>G</title>
<polygon fill="transparent" stroke="transparent" points="-4,4 -4,-983 314.29,-983 314.29,4 -4,4"/>
<!-- d27310fc&#45;870e&#45;40a5&#45;a6ed&#45;b632fcb1e95d -->
<g id="node1" class="node">
<title>d27310fc&#45;870e&#45;40a5&#45;a6ed&#45;b632fcb1e95d</title>
<polygon fill="none" stroke="black" points="65.34,-906 0.16,-888 65.34,-870 130.52,-888 65.34,-906"/>
<text text-anchor="middle" x="65.34" y="-884.3" font-family="Times,serif" font-size="14.00">AlwaysTrue</text>
</g>
<!-- d07415cd&#45;c963&#45;462f&#45;8982&#45;001a14f7f3ec -->
<g id="node11" class="node">
<title>d07415cd&#45;c963&#45;462f&#45;8982&#45;001a14f7f3ec</title>
<ellipse fill="none" stroke="black" cx="103.34" cy="-801" rx="46.5" ry="18"/>
<text text-anchor="middle" x="103.34" y="-797.3" font-family="Times,serif" font-size="14.00">VisionNorm</text>
</g>
<!-- d27310fc&#45;870e&#45;40a5&#45;a6ed&#45;b632fcb1e95d&#45;&gt;d07415cd&#45;c963&#45;462f&#45;8982&#45;001a14f7f3ec -->
<g id="edge10" class="edge">
<title>d27310fc&#45;870e&#45;40a5&#45;a6ed&#45;b632fcb1e95d&#45;&gt;d07415cd&#45;c963&#45;462f&#45;8982&#45;001a14f7f3ec</title>
<path fill="none" stroke="black" d="M72.13,-871.8C77.54,-859.7 85.25,-842.47 91.65,-828.16"/>
<polygon fill="black" stroke="black" points="94.94,-829.37 95.82,-818.81 88.55,-826.51 94.94,-829.37"/>
<text text-anchor="middle" x="104.34" y="-840.8" font-family="Times,serif" font-size="14.00">True</text>
</g>
<!-- c70bd9a0&#45;785d&#45;4ad3&#45;b829&#45;0c8cc095f25d -->
<g id="node2" class="node">
<title>c70bd9a0&#45;785d&#45;4ad3&#45;b829&#45;0c8cc095f25d</title>
<ellipse fill="none" stroke="black" cx="103.34" cy="-105" rx="27" ry="18"/>
<text text-anchor="middle" x="103.34" y="-101.3" font-family="Times,serif" font-size="14.00">FlatX</text>
</g>
<!-- d350d21d&#45;49ec&#45;457c&#45;9daa&#45;c5de20a08f87 -->
<g id="node3" class="node">
<title>d350d21d&#45;49ec&#45;457c&#45;9daa&#45;c5de20a08f87</title>
<ellipse fill="none" stroke="black" cx="103.34" cy="-18" rx="80.11" ry="18"/>
<text text-anchor="middle" x="103.34" y="-14.3" font-family="Times,serif" font-size="14.00">Stability2Movement</text>
</g>
<!-- c70bd9a0&#45;785d&#45;4ad3&#45;b829&#45;0c8cc095f25d&#45;&gt;d350d21d&#45;49ec&#45;457c&#45;9daa&#45;c5de20a08f87 -->
<g id="edge1" class="edge">
<title>c70bd9a0&#45;785d&#45;4ad3&#45;b829&#45;0c8cc095f25d&#45;&gt;d350d21d&#45;49ec&#45;457c&#45;9daa&#45;c5de20a08f87</title>
<path fill="none" stroke="purple" d="M103.34,-86.8C103.34,-75.16 103.34,-59.55 103.34,-46.24"/>
<polygon fill="purple" stroke="purple" points="106.84,-46.18 103.34,-36.18 99.84,-46.18 106.84,-46.18"/>
<text text-anchor="middle" x="138.84" y="-57.8" font-family="Times,serif" font-size="14.00" fill="purple">Pass Data</text>
</g>
<!-- 4da68848&#45;22e5&#45;4aa0&#45;819c&#45;bad30fc52671 -->
<g id="node4" class="node">
<title>4da68848&#45;22e5&#45;4aa0&#45;819c&#45;bad30fc52671</title>
<ellipse fill="none" stroke="black" cx="103.34" cy="-192" rx="27" ry="18"/>
<text text-anchor="middle" x="103.34" y="-188.3" font-family="Times,serif" font-size="14.00">StripY</text>
</g>
<!-- 4da68848&#45;22e5&#45;4aa0&#45;819c&#45;bad30fc52671&#45;&gt;c70bd9a0&#45;785d&#45;4ad3&#45;b829&#45;0c8cc095f25d -->
<g id="edge2" class="edge">
<title>4da68848&#45;22e5&#45;4aa0&#45;819c&#45;bad30fc52671&#45;&gt;c70bd9a0&#45;785d&#45;4ad3&#45;b829&#45;0c8cc095f25d</title>
<path fill="none" stroke="purple" d="M103.34,-173.8C103.34,-162.16 103.34,-146.55 103.34,-133.24"/>
<polygon fill="purple" stroke="purple" points="106.84,-133.18 103.34,-123.18 99.84,-133.18 106.84,-133.18"/>
<text text-anchor="middle" x="138.84" y="-144.8" font-family="Times,serif" font-size="14.00" fill="purple">Pass Data</text>
</g>
<!-- 3defb595&#45;1e43&#45;4930&#45;b0ac&#45;be807102b6cd -->
<g id="node5" class="node">
<title>3defb595&#45;1e43&#45;4930&#45;b0ac&#45;be807102b6cd</title>
<ellipse fill="none" stroke="black" cx="103.34" cy="-279" rx="52.6" ry="18"/>
<text text-anchor="middle" x="103.34" y="-275.3" font-family="Times,serif" font-size="14.00">Anon Closure</text>
</g>
<!-- 3defb595&#45;1e43&#45;4930&#45;b0ac&#45;be807102b6cd&#45;&gt;4da68848&#45;22e5&#45;4aa0&#45;819c&#45;bad30fc52671 -->
<g id="edge3" class="edge">
<title>3defb595&#45;1e43&#45;4930&#45;b0ac&#45;be807102b6cd&#45;&gt;4da68848&#45;22e5&#45;4aa0&#45;819c&#45;bad30fc52671</title>
<path fill="none" stroke="purple" d="M103.34,-260.8C103.34,-249.16 103.34,-233.55 103.34,-220.24"/>
<polygon fill="purple" stroke="purple" points="106.84,-220.18 103.34,-210.18 99.84,-220.18 106.84,-220.18"/>
<text text-anchor="middle" x="138.84" y="-231.8" font-family="Times,serif" font-size="14.00" fill="purple">Pass Data</text>
</g>
<!-- 3324f3a8&#45;5ec1&#45;4c96&#45;8ba8&#45;b3952d1131c7 -->
<g id="node6" class="node">
<title>3324f3a8&#45;5ec1&#45;4c96&#45;8ba8&#45;b3952d1131c7</title>
<ellipse fill="none" stroke="black" cx="103.34" cy="-366" rx="51.3" ry="18"/>
<text text-anchor="middle" x="103.34" y="-362.3" font-family="Times,serif" font-size="14.00">OffsetToPose</text>
</g>
<!-- 3324f3a8&#45;5ec1&#45;4c96&#45;8ba8&#45;b3952d1131c7&#45;&gt;3defb595&#45;1e43&#45;4930&#45;b0ac&#45;be807102b6cd -->
<g id="edge4" class="edge">
<title>3324f3a8&#45;5ec1&#45;4c96&#45;8ba8&#45;b3952d1131c7&#45;&gt;3defb595&#45;1e43&#45;4930&#45;b0ac&#45;be807102b6cd</title>
<path fill="none" stroke="purple" d="M103.34,-347.8C103.34,-336.16 103.34,-320.55 103.34,-307.24"/>
<polygon fill="purple" stroke="purple" points="106.84,-307.18 103.34,-297.18 99.84,-307.18 106.84,-307.18"/>
<text text-anchor="middle" x="138.84" y="-318.8" font-family="Times,serif" font-size="14.00" fill="purple">Pass Data</text>
</g>
<!-- f4a8ebce&#45;4577&#45;4ab9&#45;b330&#45;6bf1047b65c0 -->
<g id="node7" class="node">
<title>f4a8ebce&#45;4577&#45;4ab9&#45;b330&#45;6bf1047b65c0</title>
<ellipse fill="none" stroke="black" cx="103.34" cy="-453" rx="32.4" ry="18"/>
<text text-anchor="middle" x="103.34" y="-449.3" font-family="Times,serif" font-size="14.00">Average</text>
</g>
<!-- f4a8ebce&#45;4577&#45;4ab9&#45;b330&#45;6bf1047b65c0&#45;&gt;3324f3a8&#45;5ec1&#45;4c96&#45;8ba8&#45;b3952d1131c7 -->
<g id="edge5" class="edge">
<title>f4a8ebce&#45;4577&#45;4ab9&#45;b330&#45;6bf1047b65c0&#45;&gt;3324f3a8&#45;5ec1&#45;4c96&#45;8ba8&#45;b3952d1131c7</title>
<path fill="none" stroke="purple" d="M103.34,-434.8C103.34,-423.16 103.34,-407.55 103.34,-394.24"/>
<polygon fill="purple" stroke="purple" points="106.84,-394.18 103.34,-384.18 99.84,-394.18 106.84,-394.18"/>
<text text-anchor="middle" x="138.84" y="-405.8" font-family="Times,serif" font-size="14.00" fill="purple">Pass Data</text>
</g>
<!-- 848e25ad&#45;0a5e&#45;4af8&#45;90cf&#45;1d2feed88c46 -->
<g id="node8" class="node">
<title>848e25ad&#45;0a5e&#45;4af8&#45;90cf&#45;1d2feed88c46</title>
<ellipse fill="none" stroke="black" cx="103.34" cy="-540" rx="61.1" ry="18"/>
<text text-anchor="middle" x="103.34" y="-536.3" font-family="Times,serif" font-size="14.00">ExtractPosition</text>
</g>
<!-- 848e25ad&#45;0a5e&#45;4af8&#45;90cf&#45;1d2feed88c46&#45;&gt;f4a8ebce&#45;4577&#45;4ab9&#45;b330&#45;6bf1047b65c0 -->
<g id="edge6" class="edge">
<title>848e25ad&#45;0a5e&#45;4af8&#45;90cf&#45;1d2feed88c46&#45;&gt;f4a8ebce&#45;4577&#45;4ab9&#45;b330&#45;6bf1047b65c0</title>
<path fill="none" stroke="purple" d="M103.34,-521.8C103.34,-510.16 103.34,-494.55 103.34,-481.24"/>
<polygon fill="purple" stroke="purple" points="106.84,-481.18 103.34,-471.18 99.84,-481.18 106.84,-481.18"/>
<text text-anchor="middle" x="138.84" y="-492.8" font-family="Times,serif" font-size="14.00" fill="purple">Pass Data</text>
</g>
<!-- c71ef0e2&#45;f2ba&#45;483f&#45;bced&#45;0ed5a1711541 -->
<g id="node9" class="node">
<title>c71ef0e2&#45;f2ba&#45;483f&#45;bced&#45;0ed5a1711541</title>
<ellipse fill="none" stroke="black" cx="103.34" cy="-627" rx="27" ry="18"/>
<text text-anchor="middle" x="103.34" y="-623.3" font-family="Times,serif" font-size="14.00">ToVec</text>
</g>
<!-- c71ef0e2&#45;f2ba&#45;483f&#45;bced&#45;0ed5a1711541&#45;&gt;848e25ad&#45;0a5e&#45;4af8&#45;90cf&#45;1d2feed88c46 -->
<g id="edge7" class="edge">
<title>c71ef0e2&#45;f2ba&#45;483f&#45;bced&#45;0ed5a1711541&#45;&gt;848e25ad&#45;0a5e&#45;4af8&#45;90cf&#45;1d2feed88c46</title>
<path fill="none" stroke="purple" d="M103.34,-608.8C103.34,-597.16 103.34,-581.55 103.34,-568.24"/>
<polygon fill="purple" stroke="purple" points="106.84,-568.18 103.34,-558.18 99.84,-568.18 106.84,-568.18"/>
<text text-anchor="middle" x="138.84" y="-579.8" font-family="Times,serif" font-size="14.00" fill="purple">Pass Data</text>
</g>
<!-- 15b5837e&#45;d252&#45;41ed&#45;91f5&#45;c8ccec05a6ff -->
<g id="node10" class="node">
<title>15b5837e&#45;d252&#45;41ed&#45;91f5&#45;c8ccec05a6ff</title>
<ellipse fill="none" stroke="black" cx="103.34" cy="-714" rx="45.2" ry="18"/>
<text text-anchor="middle" x="103.34" y="-710.3" font-family="Times,serif" font-size="14.00">Detect true</text>
</g>
<!-- 15b5837e&#45;d252&#45;41ed&#45;91f5&#45;c8ccec05a6ff&#45;&gt;c71ef0e2&#45;f2ba&#45;483f&#45;bced&#45;0ed5a1711541 -->
<g id="edge8" class="edge">
<title>15b5837e&#45;d252&#45;41ed&#45;91f5&#45;c8ccec05a6ff&#45;&gt;c71ef0e2&#45;f2ba&#45;483f&#45;bced&#45;0ed5a1711541</title>
<path fill="none" stroke="purple" d="M103.34,-695.8C103.34,-684.16 103.34,-668.55 103.34,-655.24"/>
<polygon fill="purple" stroke="purple" points="106.84,-655.18 103.34,-645.18 99.84,-655.18 106.84,-655.18"/>
<text text-anchor="middle" x="138.84" y="-666.8" font-family="Times,serif" font-size="14.00" fill="purple">Pass Data</text>
</g>
<!-- d07415cd&#45;c963&#45;462f&#45;8982&#45;001a14f7f3ec&#45;&gt;15b5837e&#45;d252&#45;41ed&#45;91f5&#45;c8ccec05a6ff -->
<g id="edge9" class="edge">
<title>d07415cd&#45;c963&#45;462f&#45;8982&#45;001a14f7f3ec&#45;&gt;15b5837e&#45;d252&#45;41ed&#45;91f5&#45;c8ccec05a6ff</title>
<path fill="none" stroke="purple" d="M103.34,-782.8C103.34,-771.16 103.34,-755.55 103.34,-742.24"/>
<polygon fill="purple" stroke="purple" points="106.84,-742.18 103.34,-732.18 99.84,-742.18 106.84,-742.18"/>
<text text-anchor="middle" x="138.84" y="-753.8" font-family="Times,serif" font-size="14.00" fill="purple">Pass Data</text>
</g>
<!-- 9699fd4d&#45;0e9f&#45;4f54&#45;8968&#45;8124d470280f -->
<g id="node12" class="node">
<title>9699fd4d&#45;0e9f&#45;4f54&#45;8968&#45;8124d470280f</title>
<ellipse fill="none" stroke="black" cx="250.34" cy="-888" rx="47.1" ry="18"/>
<text text-anchor="middle" x="250.34" y="-884.3" font-family="Times,serif" font-size="14.00">DelayAction</text>
</g>
<!-- 9699fd4d&#45;0e9f&#45;4f54&#45;8968&#45;8124d470280f&#45;&gt;d07415cd&#45;c963&#45;462f&#45;8982&#45;001a14f7f3ec -->
<g id="edge11" class="edge">
<title>9699fd4d&#45;0e9f&#45;4f54&#45;8968&#45;8124d470280f&#45;&gt;d07415cd&#45;c963&#45;462f&#45;8982&#45;001a14f7f3ec</title>
<path fill="none" stroke="black" d="M225.4,-872.58C201.12,-858.54 164.03,-837.09 137.1,-821.52"/>
<polygon fill="black" stroke="black" points="138.81,-818.47 128.4,-816.49 135.3,-824.53 138.81,-818.47"/>
</g>
<!-- 596c7795&#45;8e60&#45;4c06&#45;9be3&#45;f180735657e0 -->
<g id="node13" class="node">
<title>596c7795&#45;8e60&#45;4c06&#45;9be3&#45;f180735657e0</title>
<ellipse fill="none" stroke="black" cx="250.34" cy="-961" rx="59.9" ry="18"/>
<text text-anchor="middle" x="250.34" y="-957.3" font-family="Times,serif" font-size="14.00">ZeroMovement</text>
</g>
<!-- 596c7795&#45;8e60&#45;4c06&#45;9be3&#45;f180735657e0&#45;&gt;9699fd4d&#45;0e9f&#45;4f54&#45;8968&#45;8124d470280f -->
<g id="edge12" class="edge">
<title>596c7795&#45;8e60&#45;4c06&#45;9be3&#45;f180735657e0&#45;&gt;9699fd4d&#45;0e9f&#45;4f54&#45;8968&#45;8124d470280f</title>
<path fill="none" stroke="black" d="M250.34,-942.81C250.34,-934.79 250.34,-925.05 250.34,-916.07"/>
<polygon fill="black" stroke="black" points="253.84,-916.03 250.34,-906.03 246.84,-916.03 253.84,-916.03"/>
</g>
</g>
</svg>
