<?xml version="1.0" encoding="UTF-8" standalone="no"?>
<!DOCTYPE svg PUBLIC "-//W3C//DTD SVG 1.1//EN"
 "http://www.w3.org/Graphics/SVG/1.1/DTD/svg11.dtd">
<!-- Generated by graphviz version 2.43.0 (0)
 -->
<!-- Title: G Pages: 1 -->
<svg width="318pt" height="987pt"
 viewBox="0.00 0.00 318.29 987.00" xmlns="http://www.w3.org/2000/svg" xmlns:xlink="http://www.w3.org/1999/xlink">
<g id="graph0" class="graph" transform="scale(1 1) rotate(0) translate(4 983)">
<title>G</title>
<polygon fill="transparent" stroke="transparent" points="-4,4 -4,-983 314.29,-983 314.29,4 -4,4"/>
<!-- 43adfcb8&#45;bd78&#45;4ed2&#45;8382&#45;97c345fa77ac -->
<g id="node1" class="node">
<title>43adfcb8&#45;bd78&#45;4ed2&#45;8382&#45;97c345fa77ac</title>
<polygon fill="none" stroke="black" points="65.34,-906 0.16,-888 65.34,-870 130.52,-888 65.34,-906"/>
<text text-anchor="middle" x="65.34" y="-884.3" font-family="Times,serif" font-size="14.00">AlwaysTrue</text>
</g>
<!-- 3c8d31db&#45;cd88&#45;4a3d&#45;8ae8&#45;ac36c7f9dd25 -->
<g id="node11" class="node">
<title>3c8d31db&#45;cd88&#45;4a3d&#45;8ae8&#45;ac36c7f9dd25</title>
<ellipse fill="none" stroke="black" cx="103.34" cy="-801" rx="46.5" ry="18"/>
<text text-anchor="middle" x="103.34" y="-797.3" font-family="Times,serif" font-size="14.00">VisionNorm</text>
</g>
<!-- 43adfcb8&#45;bd78&#45;4ed2&#45;8382&#45;97c345fa77ac&#45;&gt;3c8d31db&#45;cd88&#45;4a3d&#45;8ae8&#45;ac36c7f9dd25 -->
<g id="edge10" class="edge">
<title>43adfcb8&#45;bd78&#45;4ed2&#45;8382&#45;97c345fa77ac&#45;&gt;3c8d31db&#45;cd88&#45;4a3d&#45;8ae8&#45;ac36c7f9dd25</title>
<path fill="none" stroke="black" d="M72.13,-871.8C77.54,-859.7 85.25,-842.47 91.65,-828.16"/>
<polygon fill="black" stroke="black" points="94.94,-829.37 95.82,-818.81 88.55,-826.51 94.94,-829.37"/>
<text text-anchor="middle" x="104.34" y="-840.8" font-family="Times,serif" font-size="14.00">True</text>
</g>
<!-- 89c22550&#45;a997&#45;46b5&#45;a2c2&#45;c10eb6256b24 -->
<g id="node2" class="node">
<title>89c22550&#45;a997&#45;46b5&#45;a2c2&#45;c10eb6256b24</title>
<ellipse fill="none" stroke="black" cx="103.34" cy="-105" rx="27" ry="18"/>
<text text-anchor="middle" x="103.34" y="-101.3" font-family="Times,serif" font-size="14.00">FlatX</text>
</g>
<!-- 7f7d6dc3&#45;a6fd&#45;4a88&#45;abb0&#45;be963adc1bb7 -->
<g id="node3" class="node">
<title>7f7d6dc3&#45;a6fd&#45;4a88&#45;abb0&#45;be963adc1bb7</title>
<ellipse fill="none" stroke="black" cx="103.34" cy="-18" rx="80.11" ry="18"/>
<text text-anchor="middle" x="103.34" y="-14.3" font-family="Times,serif" font-size="14.00">Stability2Movement</text>
</g>
<!-- 89c22550&#45;a997&#45;46b5&#45;a2c2&#45;c10eb6256b24&#45;&gt;7f7d6dc3&#45;a6fd&#45;4a88&#45;abb0&#45;be963adc1bb7 -->
<g id="edge1" class="edge">
<title>89c22550&#45;a997&#45;46b5&#45;a2c2&#45;c10eb6256b24&#45;&gt;7f7d6dc3&#45;a6fd&#45;4a88&#45;abb0&#45;be963adc1bb7</title>
<path fill="none" stroke="purple" d="M103.34,-86.8C103.34,-75.16 103.34,-59.55 103.34,-46.24"/>
<polygon fill="purple" stroke="purple" points="106.84,-46.18 103.34,-36.18 99.84,-46.18 106.84,-46.18"/>
<text text-anchor="middle" x="138.84" y="-57.8" font-family="Times,serif" font-size="14.00" fill="purple">Pass Data</text>
</g>
<!-- cccdc4be&#45;eefc&#45;4ccd&#45;9706&#45;110b155dfd86 -->
<g id="node4" class="node">
<title>cccdc4be&#45;eefc&#45;4ccd&#45;9706&#45;110b155dfd86</title>
<ellipse fill="none" stroke="black" cx="103.34" cy="-192" rx="27" ry="18"/>
<text text-anchor="middle" x="103.34" y="-188.3" font-family="Times,serif" font-size="14.00">StripY</text>
</g>
<!-- cccdc4be&#45;eefc&#45;4ccd&#45;9706&#45;110b155dfd86&#45;&gt;89c22550&#45;a997&#45;46b5&#45;a2c2&#45;c10eb6256b24 -->
<g id="edge2" class="edge">
<title>cccdc4be&#45;eefc&#45;4ccd&#45;9706&#45;110b155dfd86&#45;&gt;89c22550&#45;a997&#45;46b5&#45;a2c2&#45;c10eb6256b24</title>
<path fill="none" stroke="purple" d="M103.34,-173.8C103.34,-162.16 103.34,-146.55 103.34,-133.24"/>
<polygon fill="purple" stroke="purple" points="106.84,-133.18 103.34,-123.18 99.84,-133.18 106.84,-133.18"/>
<text text-anchor="middle" x="138.84" y="-144.8" font-family="Times,serif" font-size="14.00" fill="purple">Pass Data</text>
</g>
<!-- d69421ae&#45;3121&#45;4c3f&#45;a2dc&#45;8d2c0b3b9457 -->
<g id="node5" class="node">
<title>d69421ae&#45;3121&#45;4c3f&#45;a2dc&#45;8d2c0b3b9457</title>
<ellipse fill="none" stroke="black" cx="103.34" cy="-279" rx="52.6" ry="18"/>
<text text-anchor="middle" x="103.34" y="-275.3" font-family="Times,serif" font-size="14.00">Anon Closure</text>
</g>
<!-- d69421ae&#45;3121&#45;4c3f&#45;a2dc&#45;8d2c0b3b9457&#45;&gt;cccdc4be&#45;eefc&#45;4ccd&#45;9706&#45;110b155dfd86 -->
<g id="edge3" class="edge">
<title>d69421ae&#45;3121&#45;4c3f&#45;a2dc&#45;8d2c0b3b9457&#45;&gt;cccdc4be&#45;eefc&#45;4ccd&#45;9706&#45;110b155dfd86</title>
<path fill="none" stroke="purple" d="M103.34,-260.8C103.34,-249.16 103.34,-233.55 103.34,-220.24"/>
<polygon fill="purple" stroke="purple" points="106.84,-220.18 103.34,-210.18 99.84,-220.18 106.84,-220.18"/>
<text text-anchor="middle" x="138.84" y="-231.8" font-family="Times,serif" font-size="14.00" fill="purple">Pass Data</text>
</g>
<!-- 64692d1d&#45;78a6&#45;42f6&#45;b507&#45;e727f79fa044 -->
<g id="node6" class="node">
<title>64692d1d&#45;78a6&#45;42f6&#45;b507&#45;e727f79fa044</title>
<ellipse fill="none" stroke="black" cx="103.34" cy="-366" rx="51.3" ry="18"/>
<text text-anchor="middle" x="103.34" y="-362.3" font-family="Times,serif" font-size="14.00">OffsetToPose</text>
</g>
<!-- 64692d1d&#45;78a6&#45;42f6&#45;b507&#45;e727f79fa044&#45;&gt;d69421ae&#45;3121&#45;4c3f&#45;a2dc&#45;8d2c0b3b9457 -->
<g id="edge4" class="edge">
<title>64692d1d&#45;78a6&#45;42f6&#45;b507&#45;e727f79fa044&#45;&gt;d69421ae&#45;3121&#45;4c3f&#45;a2dc&#45;8d2c0b3b9457</title>
<path fill="none" stroke="purple" d="M103.34,-347.8C103.34,-336.16 103.34,-320.55 103.34,-307.24"/>
<polygon fill="purple" stroke="purple" points="106.84,-307.18 103.34,-297.18 99.84,-307.18 106.84,-307.18"/>
<text text-anchor="middle" x="138.84" y="-318.8" font-family="Times,serif" font-size="14.00" fill="purple">Pass Data</text>
</g>
<!-- 7be85e9e&#45;ce1e&#45;41ab&#45;a398&#45;c71cc480f405 -->
<g id="node7" class="node">
<title>7be85e9e&#45;ce1e&#45;41ab&#45;a398&#45;c71cc480f405</title>
<ellipse fill="none" stroke="black" cx="103.34" cy="-453" rx="32.4" ry="18"/>
<text text-anchor="middle" x="103.34" y="-449.3" font-family="Times,serif" font-size="14.00">Average</text>
</g>
<!-- 7be85e9e&#45;ce1e&#45;41ab&#45;a398&#45;c71cc480f405&#45;&gt;64692d1d&#45;78a6&#45;42f6&#45;b507&#45;e727f79fa044 -->
<g id="edge5" class="edge">
<title>7be85e9e&#45;ce1e&#45;41ab&#45;a398&#45;c71cc480f405&#45;&gt;64692d1d&#45;78a6&#45;42f6&#45;b507&#45;e727f79fa044</title>
<path fill="none" stroke="purple" d="M103.34,-434.8C103.34,-423.16 103.34,-407.55 103.34,-394.24"/>
<polygon fill="purple" stroke="purple" points="106.84,-394.18 103.34,-384.18 99.84,-394.18 106.84,-394.18"/>
<text text-anchor="middle" x="138.84" y="-405.8" font-family="Times,serif" font-size="14.00" fill="purple">Pass Data</text>
</g>
<!-- ce725616&#45;50a5&#45;41e3&#45;afee&#45;e11f6db08efb -->
<g id="node8" class="node">
<title>ce725616&#45;50a5&#45;41e3&#45;afee&#45;e11f6db08efb</title>
<ellipse fill="none" stroke="black" cx="103.34" cy="-540" rx="61.1" ry="18"/>
<text text-anchor="middle" x="103.34" y="-536.3" font-family="Times,serif" font-size="14.00">ExtractPosition</text>
</g>
<!-- ce725616&#45;50a5&#45;41e3&#45;afee&#45;e11f6db08efb&#45;&gt;7be85e9e&#45;ce1e&#45;41ab&#45;a398&#45;c71cc480f405 -->
<g id="edge6" class="edge">
<title>ce725616&#45;50a5&#45;41e3&#45;afee&#45;e11f6db08efb&#45;&gt;7be85e9e&#45;ce1e&#45;41ab&#45;a398&#45;c71cc480f405</title>
<path fill="none" stroke="purple" d="M103.34,-521.8C103.34,-510.16 103.34,-494.55 103.34,-481.24"/>
<polygon fill="purple" stroke="purple" points="106.84,-481.18 103.34,-471.18 99.84,-481.18 106.84,-481.18"/>
<text text-anchor="middle" x="138.84" y="-492.8" font-family="Times,serif" font-size="14.00" fill="purple">Pass Data</text>
</g>
<!-- db312a5a&#45;9fcc&#45;4b92&#45;bac5&#45;0c87ec7713f7 -->
<g id="node9" class="node">
<title>db312a5a&#45;9fcc&#45;4b92&#45;bac5&#45;0c87ec7713f7</title>
<ellipse fill="none" stroke="black" cx="103.34" cy="-627" rx="27" ry="18"/>
<text text-anchor="middle" x="103.34" y="-623.3" font-family="Times,serif" font-size="14.00">ToVec</text>
</g>
<!-- db312a5a&#45;9fcc&#45;4b92&#45;bac5&#45;0c87ec7713f7&#45;&gt;ce725616&#45;50a5&#45;41e3&#45;afee&#45;e11f6db08efb -->
<g id="edge7" class="edge">
<title>db312a5a&#45;9fcc&#45;4b92&#45;bac5&#45;0c87ec7713f7&#45;&gt;ce725616&#45;50a5&#45;41e3&#45;afee&#45;e11f6db08efb</title>
<path fill="none" stroke="purple" d="M103.34,-608.8C103.34,-597.16 103.34,-581.55 103.34,-568.24"/>
<polygon fill="purple" stroke="purple" points="106.84,-568.18 103.34,-558.18 99.84,-568.18 106.84,-568.18"/>
<text text-anchor="middle" x="138.84" y="-579.8" font-family="Times,serif" font-size="14.00" fill="purple">Pass Data</text>
</g>
<!-- f3322297&#45;1423&#45;49fe&#45;abf7&#45;be71956b5632 -->
<g id="node10" class="node">
<title>f3322297&#45;1423&#45;49fe&#45;abf7&#45;be71956b5632</title>
<ellipse fill="none" stroke="black" cx="103.34" cy="-714" rx="45.2" ry="18"/>
<text text-anchor="middle" x="103.34" y="-710.3" font-family="Times,serif" font-size="14.00">Detect true</text>
</g>
<!-- f3322297&#45;1423&#45;49fe&#45;abf7&#45;be71956b5632&#45;&gt;db312a5a&#45;9fcc&#45;4b92&#45;bac5&#45;0c87ec7713f7 -->
<g id="edge8" class="edge">
<title>f3322297&#45;1423&#45;49fe&#45;abf7&#45;be71956b5632&#45;&gt;db312a5a&#45;9fcc&#45;4b92&#45;bac5&#45;0c87ec7713f7</title>
<path fill="none" stroke="purple" d="M103.34,-695.8C103.34,-684.16 103.34,-668.55 103.34,-655.24"/>
<polygon fill="purple" stroke="purple" points="106.84,-655.18 103.34,-645.18 99.84,-655.18 106.84,-655.18"/>
<text text-anchor="middle" x="138.84" y="-666.8" font-family="Times,serif" font-size="14.00" fill="purple">Pass Data</text>
</g>
<!-- 3c8d31db&#45;cd88&#45;4a3d&#45;8ae8&#45;ac36c7f9dd25&#45;&gt;f3322297&#45;1423&#45;49fe&#45;abf7&#45;be71956b5632 -->
<g id="edge9" class="edge">
<title>3c8d31db&#45;cd88&#45;4a3d&#45;8ae8&#45;ac36c7f9dd25&#45;&gt;f3322297&#45;1423&#45;49fe&#45;abf7&#45;be71956b5632</title>
<path fill="none" stroke="purple" d="M103.34,-782.8C103.34,-771.16 103.34,-755.55 103.34,-742.24"/>
<polygon fill="purple" stroke="purple" points="106.84,-742.18 103.34,-732.18 99.84,-742.18 106.84,-742.18"/>
<text text-anchor="middle" x="138.84" y="-753.8" font-family="Times,serif" font-size="14.00" fill="purple">Pass Data</text>
</g>
<!-- d7bb93f4&#45;5eec&#45;42d3&#45;9f16&#45;c0071183ca81 -->
<g id="node12" class="node">
<title>d7bb93f4&#45;5eec&#45;42d3&#45;9f16&#45;c0071183ca81</title>
<ellipse fill="none" stroke="black" cx="250.34" cy="-888" rx="47.1" ry="18"/>
<text text-anchor="middle" x="250.34" y="-884.3" font-family="Times,serif" font-size="14.00">DelayAction</text>
</g>
<!-- d7bb93f4&#45;5eec&#45;42d3&#45;9f16&#45;c0071183ca81&#45;&gt;3c8d31db&#45;cd88&#45;4a3d&#45;8ae8&#45;ac36c7f9dd25 -->
<g id="edge11" class="edge">
<title>d7bb93f4&#45;5eec&#45;42d3&#45;9f16&#45;c0071183ca81&#45;&gt;3c8d31db&#45;cd88&#45;4a3d&#45;8ae8&#45;ac36c7f9dd25</title>
<path fill="none" stroke="black" d="M225.4,-872.58C201.12,-858.54 164.03,-837.09 137.1,-821.52"/>
<polygon fill="black" stroke="black" points="138.81,-818.47 128.4,-816.49 135.3,-824.53 138.81,-818.47"/>
</g>
<!-- 8c898d66&#45;def0&#45;40f1&#45;a3fe&#45;c0feab9a1ed2 -->
<g id="node13" class="node">
<title>8c898d66&#45;def0&#45;40f1&#45;a3fe&#45;c0feab9a1ed2</title>
<ellipse fill="none" stroke="black" cx="250.34" cy="-961" rx="59.9" ry="18"/>
<text text-anchor="middle" x="250.34" y="-957.3" font-family="Times,serif" font-size="14.00">ZeroMovement</text>
</g>
<!-- 8c898d66&#45;def0&#45;40f1&#45;a3fe&#45;c0feab9a1ed2&#45;&gt;d7bb93f4&#45;5eec&#45;42d3&#45;9f16&#45;c0071183ca81 -->
<g id="edge12" class="edge">
<title>8c898d66&#45;def0&#45;40f1&#45;a3fe&#45;c0feab9a1ed2&#45;&gt;d7bb93f4&#45;5eec&#45;42d3&#45;9f16&#45;c0071183ca81</title>
<path fill="none" stroke="black" d="M250.34,-942.81C250.34,-934.79 250.34,-925.05 250.34,-916.07"/>
<polygon fill="black" stroke="black" points="253.84,-916.03 250.34,-906.03 246.84,-916.03 253.84,-916.03"/>
</g>
</g>
</svg>
