<?xml version="1.0" encoding="UTF-8" standalone="no"?>
<!DOCTYPE svg PUBLIC "-//W3C//DTD SVG 1.1//EN"
 "http://www.w3.org/Graphics/SVG/1.1/DTD/svg11.dtd">
<!-- Generated by graphviz version 2.43.0 (0)
 -->
<!-- Title: G Pages: 1 -->
<svg width="158pt" height="404pt"
 viewBox="0.00 0.00 157.61 404.00" xmlns="http://www.w3.org/2000/svg" xmlns:xlink="http://www.w3.org/1999/xlink">
<g id="graph0" class="graph" transform="scale(1 1) rotate(0) translate(4 400)">
<title>G</title>
<polygon fill="transparent" stroke="transparent" points="-4,4 -4,-400 153.61,-400 153.61,4 -4,4"/>
<!-- e354a60c&#45;4b49&#45;446b&#45;a529&#45;58dd92765987 -->
<g id="node1" class="node">
<title>e354a60c&#45;4b49&#45;446b&#45;a529&#45;58dd92765987</title>
<ellipse fill="none" stroke="black" cx="74.8" cy="-378" rx="34.8" ry="18"/>
<text text-anchor="middle" x="74.8" y="-374.3" font-family="Times,serif" font-size="14.00">WaitArm</text>
</g>
<!-- df6e5002&#45;acc9&#45;4f33&#45;9b93&#45;25afc929b582 -->
<g id="node2" class="node">
<title>df6e5002&#45;acc9&#45;4f33&#45;9b93&#45;25afc929b582</title>
<ellipse fill="none" stroke="black" cx="74.8" cy="-306" rx="33.6" ry="18"/>
<text text-anchor="middle" x="74.8" y="-302.3" font-family="Times,serif" font-size="14.00">Descend</text>
</g>
<!-- e354a60c&#45;4b49&#45;446b&#45;a529&#45;58dd92765987&#45;&gt;df6e5002&#45;acc9&#45;4f33&#45;9b93&#45;25afc929b582 -->
<g id="edge5" class="edge">
<title>e354a60c&#45;4b49&#45;446b&#45;a529&#45;58dd92765987&#45;&gt;df6e5002&#45;acc9&#45;4f33&#45;9b93&#45;25afc929b582</title>
<path fill="none" stroke="black" d="M74.8,-359.7C74.8,-351.98 74.8,-342.71 74.8,-334.11"/>
<polygon fill="black" stroke="black" points="78.3,-334.1 74.8,-324.1 71.3,-334.1 78.3,-334.1"/>
</g>
<!-- b1bc1961&#45;198c&#45;4f1f&#45;88b8&#45;b3239a3be559 -->
<g id="node3" class="node">
<title>b1bc1961&#45;198c&#45;4f1f&#45;88b8&#45;b3239a3be559</title>
<ellipse fill="none" stroke="black" cx="74.8" cy="-234" rx="47.1" ry="18"/>
<text text-anchor="middle" x="74.8" y="-230.3" font-family="Times,serif" font-size="14.00">DelayAction</text>
</g>
<!-- df6e5002&#45;acc9&#45;4f33&#45;9b93&#45;25afc929b582&#45;&gt;b1bc1961&#45;198c&#45;4f1f&#45;88b8&#45;b3239a3be559 -->
<g id="edge1" class="edge">
<title>df6e5002&#45;acc9&#45;4f33&#45;9b93&#45;25afc929b582&#45;&gt;b1bc1961&#45;198c&#45;4f1f&#45;88b8&#45;b3239a3be559</title>
<path fill="none" stroke="black" d="M74.8,-287.7C74.8,-279.98 74.8,-270.71 74.8,-262.11"/>
<polygon fill="black" stroke="black" points="78.3,-262.1 74.8,-252.1 71.3,-262.1 78.3,-262.1"/>
</g>
<!-- 43a34c7f&#45;133c&#45;42df&#45;b743&#45;62925ca5283c -->
<g id="node4" class="node">
<title>43a34c7f&#45;133c&#45;42df&#45;b743&#45;62925ca5283c</title>
<ellipse fill="none" stroke="black" cx="74.8" cy="-162" rx="74.61" ry="18"/>
<text text-anchor="middle" x="74.8" y="-158.3" font-family="Times,serif" font-size="14.00">StraightMovement</text>
</g>
<!-- b1bc1961&#45;198c&#45;4f1f&#45;88b8&#45;b3239a3be559&#45;&gt;43a34c7f&#45;133c&#45;42df&#45;b743&#45;62925ca5283c -->
<g id="edge4" class="edge">
<title>b1bc1961&#45;198c&#45;4f1f&#45;88b8&#45;b3239a3be559&#45;&gt;43a34c7f&#45;133c&#45;42df&#45;b743&#45;62925ca5283c</title>
<path fill="none" stroke="black" d="M74.8,-215.7C74.8,-207.98 74.8,-198.71 74.8,-190.11"/>
<polygon fill="black" stroke="black" points="78.3,-190.1 74.8,-180.1 71.3,-190.1 78.3,-190.1"/>
</g>
<!-- 1d06da2b&#45;9c79&#45;48e7&#45;8730&#45;24875560cb07 -->
<g id="node5" class="node">
<title>1d06da2b&#45;9c79&#45;48e7&#45;8730&#45;24875560cb07</title>
<ellipse fill="none" stroke="black" cx="74.8" cy="-90" rx="47.1" ry="18"/>
<text text-anchor="middle" x="74.8" y="-86.3" font-family="Times,serif" font-size="14.00">DelayAction</text>
</g>
<!-- 43a34c7f&#45;133c&#45;42df&#45;b743&#45;62925ca5283c&#45;&gt;1d06da2b&#45;9c79&#45;48e7&#45;8730&#45;24875560cb07 -->
<g id="edge2" class="edge">
<title>43a34c7f&#45;133c&#45;42df&#45;b743&#45;62925ca5283c&#45;&gt;1d06da2b&#45;9c79&#45;48e7&#45;8730&#45;24875560cb07</title>
<path fill="none" stroke="black" d="M74.8,-143.7C74.8,-135.98 74.8,-126.71 74.8,-118.11"/>
<polygon fill="black" stroke="black" points="78.3,-118.1 74.8,-108.1 71.3,-118.1 78.3,-118.1"/>
</g>
<!-- bb3e9b70&#45;8146&#45;4edd&#45;bf9f&#45;3ee67c5849d1 -->
<g id="node6" class="node">
<title>bb3e9b70&#45;8146&#45;4edd&#45;bf9f&#45;3ee67c5849d1</title>
<ellipse fill="none" stroke="black" cx="74.8" cy="-18" rx="59.9" ry="18"/>
<text text-anchor="middle" x="74.8" y="-14.3" font-family="Times,serif" font-size="14.00">ZeroMovement</text>
</g>
<!-- 1d06da2b&#45;9c79&#45;48e7&#45;8730&#45;24875560cb07&#45;&gt;bb3e9b70&#45;8146&#45;4edd&#45;bf9f&#45;3ee67c5849d1 -->
<g id="edge3" class="edge">
<title>1d06da2b&#45;9c79&#45;48e7&#45;8730&#45;24875560cb07&#45;&gt;bb3e9b70&#45;8146&#45;4edd&#45;bf9f&#45;3ee67c5849d1</title>
<path fill="none" stroke="black" d="M74.8,-71.7C74.8,-63.98 74.8,-54.71 74.8,-46.11"/>
<polygon fill="black" stroke="black" points="78.3,-46.1 74.8,-36.1 71.3,-46.1 78.3,-46.1"/>
</g>
</g>
</svg>
