<?xml version="1.0" encoding="UTF-8" standalone="no"?>
<!DOCTYPE svg PUBLIC "-//W3C//DTD SVG 1.1//EN"
 "http://www.w3.org/Graphics/SVG/1.1/DTD/svg11.dtd">
<!-- Generated by graphviz version 2.43.0 (0)
 -->
<!-- Title: G Pages: 1 -->
<svg width="158pt" height="404pt"
 viewBox="0.00 0.00 157.61 404.00" xmlns="http://www.w3.org/2000/svg" xmlns:xlink="http://www.w3.org/1999/xlink">
<g id="graph0" class="graph" transform="scale(1 1) rotate(0) translate(4 400)">
<title>G</title>
<polygon fill="transparent" stroke="transparent" points="-4,4 -4,-400 153.61,-400 153.61,4 -4,4"/>
<!-- 5f13051f&#45;5ba3&#45;4fc1&#45;b932&#45;c0f953888964 -->
<g id="node1" class="node">
<title>5f13051f&#45;5ba3&#45;4fc1&#45;b932&#45;c0f953888964</title>
<ellipse fill="none" stroke="black" cx="74.8" cy="-378" rx="34.8" ry="18"/>
<text text-anchor="middle" x="74.8" y="-374.3" font-family="Times,serif" font-size="14.00">WaitArm</text>
</g>
<!-- ba47ff8b&#45;42ff&#45;48b0&#45;bbc1&#45;145617a06e78 -->
<g id="node2" class="node">
<title>ba47ff8b&#45;42ff&#45;48b0&#45;bbc1&#45;145617a06e78</title>
<ellipse fill="none" stroke="black" cx="74.8" cy="-306" rx="33.6" ry="18"/>
<text text-anchor="middle" x="74.8" y="-302.3" font-family="Times,serif" font-size="14.00">Descend</text>
</g>
<!-- 5f13051f&#45;5ba3&#45;4fc1&#45;b932&#45;c0f953888964&#45;&gt;ba47ff8b&#45;42ff&#45;48b0&#45;bbc1&#45;145617a06e78 -->
<g id="edge5" class="edge">
<title>5f13051f&#45;5ba3&#45;4fc1&#45;b932&#45;c0f953888964&#45;&gt;ba47ff8b&#45;42ff&#45;48b0&#45;bbc1&#45;145617a06e78</title>
<path fill="none" stroke="black" d="M74.8,-359.7C74.8,-351.98 74.8,-342.71 74.8,-334.11"/>
<polygon fill="black" stroke="black" points="78.3,-334.1 74.8,-324.1 71.3,-334.1 78.3,-334.1"/>
</g>
<!-- 73bf3ebd&#45;226d&#45;4249&#45;9fff&#45;397ec4659900 -->
<g id="node3" class="node">
<title>73bf3ebd&#45;226d&#45;4249&#45;9fff&#45;397ec4659900</title>
<ellipse fill="none" stroke="black" cx="74.8" cy="-234" rx="47.1" ry="18"/>
<text text-anchor="middle" x="74.8" y="-230.3" font-family="Times,serif" font-size="14.00">DelayAction</text>
</g>
<!-- ba47ff8b&#45;42ff&#45;48b0&#45;bbc1&#45;145617a06e78&#45;&gt;73bf3ebd&#45;226d&#45;4249&#45;9fff&#45;397ec4659900 -->
<g id="edge1" class="edge">
<title>ba47ff8b&#45;42ff&#45;48b0&#45;bbc1&#45;145617a06e78&#45;&gt;73bf3ebd&#45;226d&#45;4249&#45;9fff&#45;397ec4659900</title>
<path fill="none" stroke="black" d="M74.8,-287.7C74.8,-279.98 74.8,-270.71 74.8,-262.11"/>
<polygon fill="black" stroke="black" points="78.3,-262.1 74.8,-252.1 71.3,-262.1 78.3,-262.1"/>
</g>
<!-- 75ebe694&#45;8fb1&#45;47b8&#45;ae87&#45;ba7349be6c8d -->
<g id="node4" class="node">
<title>75ebe694&#45;8fb1&#45;47b8&#45;ae87&#45;ba7349be6c8d</title>
<ellipse fill="none" stroke="black" cx="74.8" cy="-162" rx="74.61" ry="18"/>
<text text-anchor="middle" x="74.8" y="-158.3" font-family="Times,serif" font-size="14.00">StraightMovement</text>
</g>
<!-- 73bf3ebd&#45;226d&#45;4249&#45;9fff&#45;397ec4659900&#45;&gt;75ebe694&#45;8fb1&#45;47b8&#45;ae87&#45;ba7349be6c8d -->
<g id="edge4" class="edge">
<title>73bf3ebd&#45;226d&#45;4249&#45;9fff&#45;397ec4659900&#45;&gt;75ebe694&#45;8fb1&#45;47b8&#45;ae87&#45;ba7349be6c8d</title>
<path fill="none" stroke="black" d="M74.8,-215.7C74.8,-207.98 74.8,-198.71 74.8,-190.11"/>
<polygon fill="black" stroke="black" points="78.3,-190.1 74.8,-180.1 71.3,-190.1 78.3,-190.1"/>
</g>
<!-- 6483b5e1&#45;1091&#45;4740&#45;88bf&#45;9c69b5fd89ee -->
<g id="node5" class="node">
<title>6483b5e1&#45;1091&#45;4740&#45;88bf&#45;9c69b5fd89ee</title>
<ellipse fill="none" stroke="black" cx="74.8" cy="-90" rx="47.1" ry="18"/>
<text text-anchor="middle" x="74.8" y="-86.3" font-family="Times,serif" font-size="14.00">DelayAction</text>
</g>
<!-- 75ebe694&#45;8fb1&#45;47b8&#45;ae87&#45;ba7349be6c8d&#45;&gt;6483b5e1&#45;1091&#45;4740&#45;88bf&#45;9c69b5fd89ee -->
<g id="edge2" class="edge">
<title>75ebe694&#45;8fb1&#45;47b8&#45;ae87&#45;ba7349be6c8d&#45;&gt;6483b5e1&#45;1091&#45;4740&#45;88bf&#45;9c69b5fd89ee</title>
<path fill="none" stroke="black" d="M74.8,-143.7C74.8,-135.98 74.8,-126.71 74.8,-118.11"/>
<polygon fill="black" stroke="black" points="78.3,-118.1 74.8,-108.1 71.3,-118.1 78.3,-118.1"/>
</g>
<!-- 7886ba00&#45;fd82&#45;4e47&#45;9f87&#45;226af2e0c489 -->
<g id="node6" class="node">
<title>7886ba00&#45;fd82&#45;4e47&#45;9f87&#45;226af2e0c489</title>
<ellipse fill="none" stroke="black" cx="74.8" cy="-18" rx="59.9" ry="18"/>
<text text-anchor="middle" x="74.8" y="-14.3" font-family="Times,serif" font-size="14.00">ZeroMovement</text>
</g>
<!-- 6483b5e1&#45;1091&#45;4740&#45;88bf&#45;9c69b5fd89ee&#45;&gt;7886ba00&#45;fd82&#45;4e47&#45;9f87&#45;226af2e0c489 -->
<g id="edge3" class="edge">
<title>6483b5e1&#45;1091&#45;4740&#45;88bf&#45;9c69b5fd89ee&#45;&gt;7886ba00&#45;fd82&#45;4e47&#45;9f87&#45;226af2e0c489</title>
<path fill="none" stroke="black" d="M74.8,-71.7C74.8,-63.98 74.8,-54.71 74.8,-46.11"/>
<polygon fill="black" stroke="black" points="78.3,-46.1 74.8,-36.1 71.3,-46.1 78.3,-46.1"/>
</g>
</g>
</svg>
