<?xml version="1.0" encoding="UTF-8" standalone="no"?>
<!DOCTYPE svg PUBLIC "-//W3C//DTD SVG 1.1//EN"
 "http://www.w3.org/Graphics/SVG/1.1/DTD/svg11.dtd">
<!-- Generated by graphviz version 2.43.0 (0)
 -->
<!-- Title: G Pages: 1 -->
<svg width="158pt" height="404pt"
 viewBox="0.00 0.00 157.61 404.00" xmlns="http://www.w3.org/2000/svg" xmlns:xlink="http://www.w3.org/1999/xlink">
<g id="graph0" class="graph" transform="scale(1 1) rotate(0) translate(4 400)">
<title>G</title>
<polygon fill="transparent" stroke="transparent" points="-4,4 -4,-400 153.61,-400 153.61,4 -4,4"/>
<!-- 68d07614&#45;9030&#45;4b5b&#45;b4f3&#45;28a47b6d56e7 -->
<g id="node1" class="node">
<title>68d07614&#45;9030&#45;4b5b&#45;b4f3&#45;28a47b6d56e7</title>
<ellipse fill="none" stroke="black" cx="74.8" cy="-306" rx="33.6" ry="18"/>
<text text-anchor="middle" x="74.8" y="-302.3" font-family="Times,serif" font-size="14.00">Descend</text>
</g>
<!-- ed89f2a4&#45;164f&#45;4668&#45;873b&#45;8cbcf172a0e5 -->
<g id="node2" class="node">
<title>ed89f2a4&#45;164f&#45;4668&#45;873b&#45;8cbcf172a0e5</title>
<ellipse fill="none" stroke="black" cx="74.8" cy="-234" rx="47.1" ry="18"/>
<text text-anchor="middle" x="74.8" y="-230.3" font-family="Times,serif" font-size="14.00">DelayAction</text>
</g>
<!-- 68d07614&#45;9030&#45;4b5b&#45;b4f3&#45;28a47b6d56e7&#45;&gt;ed89f2a4&#45;164f&#45;4668&#45;873b&#45;8cbcf172a0e5 -->
<g id="edge1" class="edge">
<title>68d07614&#45;9030&#45;4b5b&#45;b4f3&#45;28a47b6d56e7&#45;&gt;ed89f2a4&#45;164f&#45;4668&#45;873b&#45;8cbcf172a0e5</title>
<path fill="none" stroke="black" d="M74.8,-287.7C74.8,-279.98 74.8,-270.71 74.8,-262.11"/>
<polygon fill="black" stroke="black" points="78.3,-262.1 74.8,-252.1 71.3,-262.1 78.3,-262.1"/>
</g>
<!-- 1032c437&#45;73f6&#45;45b5&#45;a5d8&#45;6346d15696a5 -->
<g id="node3" class="node">
<title>1032c437&#45;73f6&#45;45b5&#45;a5d8&#45;6346d15696a5</title>
<ellipse fill="none" stroke="black" cx="74.8" cy="-162" rx="74.61" ry="18"/>
<text text-anchor="middle" x="74.8" y="-158.3" font-family="Times,serif" font-size="14.00">StraightMovement</text>
</g>
<!-- ed89f2a4&#45;164f&#45;4668&#45;873b&#45;8cbcf172a0e5&#45;&gt;1032c437&#45;73f6&#45;45b5&#45;a5d8&#45;6346d15696a5 -->
<g id="edge4" class="edge">
<title>ed89f2a4&#45;164f&#45;4668&#45;873b&#45;8cbcf172a0e5&#45;&gt;1032c437&#45;73f6&#45;45b5&#45;a5d8&#45;6346d15696a5</title>
<path fill="none" stroke="black" d="M74.8,-215.7C74.8,-207.98 74.8,-198.71 74.8,-190.11"/>
<polygon fill="black" stroke="black" points="78.3,-190.1 74.8,-180.1 71.3,-190.1 78.3,-190.1"/>
</g>
<!-- b57d5e2b&#45;4e7c&#45;4a15&#45;9769&#45;28a288e0d957 -->
<g id="node4" class="node">
<title>b57d5e2b&#45;4e7c&#45;4a15&#45;9769&#45;28a288e0d957</title>
<ellipse fill="none" stroke="black" cx="74.8" cy="-90" rx="47.1" ry="18"/>
<text text-anchor="middle" x="74.8" y="-86.3" font-family="Times,serif" font-size="14.00">DelayAction</text>
</g>
<!-- 1032c437&#45;73f6&#45;45b5&#45;a5d8&#45;6346d15696a5&#45;&gt;b57d5e2b&#45;4e7c&#45;4a15&#45;9769&#45;28a288e0d957 -->
<g id="edge2" class="edge">
<title>1032c437&#45;73f6&#45;45b5&#45;a5d8&#45;6346d15696a5&#45;&gt;b57d5e2b&#45;4e7c&#45;4a15&#45;9769&#45;28a288e0d957</title>
<path fill="none" stroke="black" d="M74.8,-143.7C74.8,-135.98 74.8,-126.71 74.8,-118.11"/>
<polygon fill="black" stroke="black" points="78.3,-118.1 74.8,-108.1 71.3,-118.1 78.3,-118.1"/>
</g>
<!-- 590f300e&#45;8854&#45;49ab&#45;a9cb&#45;3d10e3847062 -->
<g id="node5" class="node">
<title>590f300e&#45;8854&#45;49ab&#45;a9cb&#45;3d10e3847062</title>
<ellipse fill="none" stroke="black" cx="74.8" cy="-18" rx="59.9" ry="18"/>
<text text-anchor="middle" x="74.8" y="-14.3" font-family="Times,serif" font-size="14.00">ZeroMovement</text>
</g>
<!-- b57d5e2b&#45;4e7c&#45;4a15&#45;9769&#45;28a288e0d957&#45;&gt;590f300e&#45;8854&#45;49ab&#45;a9cb&#45;3d10e3847062 -->
<g id="edge3" class="edge">
<title>b57d5e2b&#45;4e7c&#45;4a15&#45;9769&#45;28a288e0d957&#45;&gt;590f300e&#45;8854&#45;49ab&#45;a9cb&#45;3d10e3847062</title>
<path fill="none" stroke="black" d="M74.8,-71.7C74.8,-63.98 74.8,-54.71 74.8,-46.11"/>
<polygon fill="black" stroke="black" points="78.3,-46.1 74.8,-36.1 71.3,-46.1 78.3,-46.1"/>
</g>
<!-- 84cb4278&#45;3e6d&#45;41dc&#45;bf0e&#45;9c95bc7aa676 -->
<g id="node6" class="node">
<title>84cb4278&#45;3e6d&#45;41dc&#45;bf0e&#45;9c95bc7aa676</title>
<ellipse fill="none" stroke="black" cx="74.8" cy="-378" rx="34.8" ry="18"/>
<text text-anchor="middle" x="74.8" y="-374.3" font-family="Times,serif" font-size="14.00">WaitArm</text>
</g>
<!-- 84cb4278&#45;3e6d&#45;41dc&#45;bf0e&#45;9c95bc7aa676&#45;&gt;68d07614&#45;9030&#45;4b5b&#45;b4f3&#45;28a47b6d56e7 -->
<g id="edge5" class="edge">
<title>84cb4278&#45;3e6d&#45;41dc&#45;bf0e&#45;9c95bc7aa676&#45;&gt;68d07614&#45;9030&#45;4b5b&#45;b4f3&#45;28a47b6d56e7</title>
<path fill="none" stroke="black" d="M74.8,-359.7C74.8,-351.98 74.8,-342.71 74.8,-334.11"/>
<polygon fill="black" stroke="black" points="78.3,-334.1 74.8,-324.1 71.3,-334.1 78.3,-334.1"/>
</g>
</g>
</svg>
