<?xml version="1.0" encoding="UTF-8" standalone="no"?>
<!DOCTYPE svg PUBLIC "-//W3C//DTD SVG 1.1//EN"
 "http://www.w3.org/Graphics/SVG/1.1/DTD/svg11.dtd">
<!-- Generated by graphviz version 2.43.0 (0)
 -->
<!-- Title: G Pages: 1 -->
<svg width="158pt" height="404pt"
 viewBox="0.00 0.00 157.61 404.00" xmlns="http://www.w3.org/2000/svg" xmlns:xlink="http://www.w3.org/1999/xlink">
<g id="graph0" class="graph" transform="scale(1 1) rotate(0) translate(4 400)">
<title>G</title>
<polygon fill="transparent" stroke="transparent" points="-4,4 -4,-400 153.61,-400 153.61,4 -4,4"/>
<!-- 88145c2e&#45;3a33&#45;47e4&#45;8bcf&#45;244e35b9ef01 -->
<g id="node1" class="node">
<title>88145c2e&#45;3a33&#45;47e4&#45;8bcf&#45;244e35b9ef01</title>
<ellipse fill="none" stroke="black" cx="74.8" cy="-306" rx="33.6" ry="18"/>
<text text-anchor="middle" x="74.8" y="-302.3" font-family="Times,serif" font-size="14.00">Descend</text>
</g>
<!-- d5949666&#45;647a&#45;4e12&#45;b644&#45;dea76d9c4aba -->
<g id="node2" class="node">
<title>d5949666&#45;647a&#45;4e12&#45;b644&#45;dea76d9c4aba</title>
<ellipse fill="none" stroke="black" cx="74.8" cy="-234" rx="47.1" ry="18"/>
<text text-anchor="middle" x="74.8" y="-230.3" font-family="Times,serif" font-size="14.00">DelayAction</text>
</g>
<!-- 88145c2e&#45;3a33&#45;47e4&#45;8bcf&#45;244e35b9ef01&#45;&gt;d5949666&#45;647a&#45;4e12&#45;b644&#45;dea76d9c4aba -->
<g id="edge1" class="edge">
<title>88145c2e&#45;3a33&#45;47e4&#45;8bcf&#45;244e35b9ef01&#45;&gt;d5949666&#45;647a&#45;4e12&#45;b644&#45;dea76d9c4aba</title>
<path fill="none" stroke="black" d="M74.8,-287.7C74.8,-279.98 74.8,-270.71 74.8,-262.11"/>
<polygon fill="black" stroke="black" points="78.3,-262.1 74.8,-252.1 71.3,-262.1 78.3,-262.1"/>
</g>
<!-- c3f1f2c6&#45;2f07&#45;46ed&#45;9bb1&#45;d91c7cbe4188 -->
<g id="node3" class="node">
<title>c3f1f2c6&#45;2f07&#45;46ed&#45;9bb1&#45;d91c7cbe4188</title>
<ellipse fill="none" stroke="black" cx="74.8" cy="-162" rx="74.61" ry="18"/>
<text text-anchor="middle" x="74.8" y="-158.3" font-family="Times,serif" font-size="14.00">StraightMovement</text>
</g>
<!-- d5949666&#45;647a&#45;4e12&#45;b644&#45;dea76d9c4aba&#45;&gt;c3f1f2c6&#45;2f07&#45;46ed&#45;9bb1&#45;d91c7cbe4188 -->
<g id="edge4" class="edge">
<title>d5949666&#45;647a&#45;4e12&#45;b644&#45;dea76d9c4aba&#45;&gt;c3f1f2c6&#45;2f07&#45;46ed&#45;9bb1&#45;d91c7cbe4188</title>
<path fill="none" stroke="black" d="M74.8,-215.7C74.8,-207.98 74.8,-198.71 74.8,-190.11"/>
<polygon fill="black" stroke="black" points="78.3,-190.1 74.8,-180.1 71.3,-190.1 78.3,-190.1"/>
</g>
<!-- 0a8705d8&#45;22f3&#45;46fc&#45;a6ec&#45;7db7d9ab8809 -->
<g id="node4" class="node">
<title>0a8705d8&#45;22f3&#45;46fc&#45;a6ec&#45;7db7d9ab8809</title>
<ellipse fill="none" stroke="black" cx="74.8" cy="-90" rx="47.1" ry="18"/>
<text text-anchor="middle" x="74.8" y="-86.3" font-family="Times,serif" font-size="14.00">DelayAction</text>
</g>
<!-- c3f1f2c6&#45;2f07&#45;46ed&#45;9bb1&#45;d91c7cbe4188&#45;&gt;0a8705d8&#45;22f3&#45;46fc&#45;a6ec&#45;7db7d9ab8809 -->
<g id="edge2" class="edge">
<title>c3f1f2c6&#45;2f07&#45;46ed&#45;9bb1&#45;d91c7cbe4188&#45;&gt;0a8705d8&#45;22f3&#45;46fc&#45;a6ec&#45;7db7d9ab8809</title>
<path fill="none" stroke="black" d="M74.8,-143.7C74.8,-135.98 74.8,-126.71 74.8,-118.11"/>
<polygon fill="black" stroke="black" points="78.3,-118.1 74.8,-108.1 71.3,-118.1 78.3,-118.1"/>
</g>
<!-- 50a88f8f&#45;65c5&#45;47aa&#45;87ec&#45;136fad104bf6 -->
<g id="node5" class="node">
<title>50a88f8f&#45;65c5&#45;47aa&#45;87ec&#45;136fad104bf6</title>
<ellipse fill="none" stroke="black" cx="74.8" cy="-18" rx="59.9" ry="18"/>
<text text-anchor="middle" x="74.8" y="-14.3" font-family="Times,serif" font-size="14.00">ZeroMovement</text>
</g>
<!-- 0a8705d8&#45;22f3&#45;46fc&#45;a6ec&#45;7db7d9ab8809&#45;&gt;50a88f8f&#45;65c5&#45;47aa&#45;87ec&#45;136fad104bf6 -->
<g id="edge3" class="edge">
<title>0a8705d8&#45;22f3&#45;46fc&#45;a6ec&#45;7db7d9ab8809&#45;&gt;50a88f8f&#45;65c5&#45;47aa&#45;87ec&#45;136fad104bf6</title>
<path fill="none" stroke="black" d="M74.8,-71.7C74.8,-63.98 74.8,-54.71 74.8,-46.11"/>
<polygon fill="black" stroke="black" points="78.3,-46.1 74.8,-36.1 71.3,-46.1 78.3,-46.1"/>
</g>
<!-- c1c24418&#45;057c&#45;4394&#45;9526&#45;fd941637f91c -->
<g id="node6" class="node">
<title>c1c24418&#45;057c&#45;4394&#45;9526&#45;fd941637f91c</title>
<ellipse fill="none" stroke="black" cx="74.8" cy="-378" rx="34.8" ry="18"/>
<text text-anchor="middle" x="74.8" y="-374.3" font-family="Times,serif" font-size="14.00">WaitArm</text>
</g>
<!-- c1c24418&#45;057c&#45;4394&#45;9526&#45;fd941637f91c&#45;&gt;88145c2e&#45;3a33&#45;47e4&#45;8bcf&#45;244e35b9ef01 -->
<g id="edge5" class="edge">
<title>c1c24418&#45;057c&#45;4394&#45;9526&#45;fd941637f91c&#45;&gt;88145c2e&#45;3a33&#45;47e4&#45;8bcf&#45;244e35b9ef01</title>
<path fill="none" stroke="black" d="M74.8,-359.7C74.8,-351.98 74.8,-342.71 74.8,-334.11"/>
<polygon fill="black" stroke="black" points="78.3,-334.1 74.8,-324.1 71.3,-334.1 78.3,-334.1"/>
</g>
</g>
</svg>
