<?xml version="1.0" encoding="UTF-8" standalone="no"?>
<!DOCTYPE svg PUBLIC "-//W3C//DTD SVG 1.1//EN"
 "http://www.w3.org/Graphics/SVG/1.1/DTD/svg11.dtd">
<!-- Generated by graphviz version 2.43.0 (0)
 -->
<!-- Title: G Pages: 1 -->
<svg width="158pt" height="404pt"
 viewBox="0.00 0.00 157.61 404.00" xmlns="http://www.w3.org/2000/svg" xmlns:xlink="http://www.w3.org/1999/xlink">
<g id="graph0" class="graph" transform="scale(1 1) rotate(0) translate(4 400)">
<title>G</title>
<polygon fill="transparent" stroke="transparent" points="-4,4 -4,-400 153.61,-400 153.61,4 -4,4"/>
<!-- 9720fb7b&#45;e369&#45;420c&#45;9ae8&#45;266648c9e42b -->
<g id="node1" class="node">
<title>9720fb7b&#45;e369&#45;420c&#45;9ae8&#45;266648c9e42b</title>
<ellipse fill="none" stroke="black" cx="74.8" cy="-306" rx="33.6" ry="18"/>
<text text-anchor="middle" x="74.8" y="-302.3" font-family="Times,serif" font-size="14.00">Descend</text>
</g>
<!-- 75e4555d&#45;d5cc&#45;477e&#45;996b&#45;f1551f0b4d84 -->
<g id="node2" class="node">
<title>75e4555d&#45;d5cc&#45;477e&#45;996b&#45;f1551f0b4d84</title>
<ellipse fill="none" stroke="black" cx="74.8" cy="-234" rx="47.1" ry="18"/>
<text text-anchor="middle" x="74.8" y="-230.3" font-family="Times,serif" font-size="14.00">DelayAction</text>
</g>
<!-- 9720fb7b&#45;e369&#45;420c&#45;9ae8&#45;266648c9e42b&#45;&gt;75e4555d&#45;d5cc&#45;477e&#45;996b&#45;f1551f0b4d84 -->
<g id="edge1" class="edge">
<title>9720fb7b&#45;e369&#45;420c&#45;9ae8&#45;266648c9e42b&#45;&gt;75e4555d&#45;d5cc&#45;477e&#45;996b&#45;f1551f0b4d84</title>
<path fill="none" stroke="black" d="M74.8,-287.7C74.8,-279.98 74.8,-270.71 74.8,-262.11"/>
<polygon fill="black" stroke="black" points="78.3,-262.1 74.8,-252.1 71.3,-262.1 78.3,-262.1"/>
</g>
<!-- 9af84713&#45;eae1&#45;4ea4&#45;8215&#45;d7e3b7d61938 -->
<g id="node3" class="node">
<title>9af84713&#45;eae1&#45;4ea4&#45;8215&#45;d7e3b7d61938</title>
<ellipse fill="none" stroke="black" cx="74.8" cy="-162" rx="74.61" ry="18"/>
<text text-anchor="middle" x="74.8" y="-158.3" font-family="Times,serif" font-size="14.00">StraightMovement</text>
</g>
<!-- 75e4555d&#45;d5cc&#45;477e&#45;996b&#45;f1551f0b4d84&#45;&gt;9af84713&#45;eae1&#45;4ea4&#45;8215&#45;d7e3b7d61938 -->
<g id="edge4" class="edge">
<title>75e4555d&#45;d5cc&#45;477e&#45;996b&#45;f1551f0b4d84&#45;&gt;9af84713&#45;eae1&#45;4ea4&#45;8215&#45;d7e3b7d61938</title>
<path fill="none" stroke="black" d="M74.8,-215.7C74.8,-207.98 74.8,-198.71 74.8,-190.11"/>
<polygon fill="black" stroke="black" points="78.3,-190.1 74.8,-180.1 71.3,-190.1 78.3,-190.1"/>
</g>
<!-- d85ad9d3&#45;e2e4&#45;40f9&#45;85da&#45;c78fd893ae96 -->
<g id="node4" class="node">
<title>d85ad9d3&#45;e2e4&#45;40f9&#45;85da&#45;c78fd893ae96</title>
<ellipse fill="none" stroke="black" cx="74.8" cy="-90" rx="47.1" ry="18"/>
<text text-anchor="middle" x="74.8" y="-86.3" font-family="Times,serif" font-size="14.00">DelayAction</text>
</g>
<!-- 9af84713&#45;eae1&#45;4ea4&#45;8215&#45;d7e3b7d61938&#45;&gt;d85ad9d3&#45;e2e4&#45;40f9&#45;85da&#45;c78fd893ae96 -->
<g id="edge2" class="edge">
<title>9af84713&#45;eae1&#45;4ea4&#45;8215&#45;d7e3b7d61938&#45;&gt;d85ad9d3&#45;e2e4&#45;40f9&#45;85da&#45;c78fd893ae96</title>
<path fill="none" stroke="black" d="M74.8,-143.7C74.8,-135.98 74.8,-126.71 74.8,-118.11"/>
<polygon fill="black" stroke="black" points="78.3,-118.1 74.8,-108.1 71.3,-118.1 78.3,-118.1"/>
</g>
<!-- eb38cf99&#45;0e3a&#45;484d&#45;b2ce&#45;3747f6eae8fc -->
<g id="node5" class="node">
<title>eb38cf99&#45;0e3a&#45;484d&#45;b2ce&#45;3747f6eae8fc</title>
<ellipse fill="none" stroke="black" cx="74.8" cy="-18" rx="59.9" ry="18"/>
<text text-anchor="middle" x="74.8" y="-14.3" font-family="Times,serif" font-size="14.00">ZeroMovement</text>
</g>
<!-- d85ad9d3&#45;e2e4&#45;40f9&#45;85da&#45;c78fd893ae96&#45;&gt;eb38cf99&#45;0e3a&#45;484d&#45;b2ce&#45;3747f6eae8fc -->
<g id="edge3" class="edge">
<title>d85ad9d3&#45;e2e4&#45;40f9&#45;85da&#45;c78fd893ae96&#45;&gt;eb38cf99&#45;0e3a&#45;484d&#45;b2ce&#45;3747f6eae8fc</title>
<path fill="none" stroke="black" d="M74.8,-71.7C74.8,-63.98 74.8,-54.71 74.8,-46.11"/>
<polygon fill="black" stroke="black" points="78.3,-46.1 74.8,-36.1 71.3,-46.1 78.3,-46.1"/>
</g>
<!-- b4b2a902&#45;32ea&#45;4184&#45;bac3&#45;5942b074bb01 -->
<g id="node6" class="node">
<title>b4b2a902&#45;32ea&#45;4184&#45;bac3&#45;5942b074bb01</title>
<ellipse fill="none" stroke="black" cx="74.8" cy="-378" rx="34.8" ry="18"/>
<text text-anchor="middle" x="74.8" y="-374.3" font-family="Times,serif" font-size="14.00">WaitArm</text>
</g>
<!-- b4b2a902&#45;32ea&#45;4184&#45;bac3&#45;5942b074bb01&#45;&gt;9720fb7b&#45;e369&#45;420c&#45;9ae8&#45;266648c9e42b -->
<g id="edge5" class="edge">
<title>b4b2a902&#45;32ea&#45;4184&#45;bac3&#45;5942b074bb01&#45;&gt;9720fb7b&#45;e369&#45;420c&#45;9ae8&#45;266648c9e42b</title>
<path fill="none" stroke="black" d="M74.8,-359.7C74.8,-351.98 74.8,-342.71 74.8,-334.11"/>
<polygon fill="black" stroke="black" points="78.3,-334.1 74.8,-324.1 71.3,-334.1 78.3,-334.1"/>
</g>
</g>
</svg>
