<?xml version="1.0" encoding="UTF-8" standalone="no"?>
<!DOCTYPE svg PUBLIC "-//W3C//DTD SVG 1.1//EN"
 "http://www.w3.org/Graphics/SVG/1.1/DTD/svg11.dtd">
<!-- Generated by graphviz version 2.43.0 (0)
 -->
<!-- Title: G Pages: 1 -->
<svg width="158pt" height="404pt"
 viewBox="0.00 0.00 157.61 404.00" xmlns="http://www.w3.org/2000/svg" xmlns:xlink="http://www.w3.org/1999/xlink">
<g id="graph0" class="graph" transform="scale(1 1) rotate(0) translate(4 400)">
<title>G</title>
<polygon fill="transparent" stroke="transparent" points="-4,4 -4,-400 153.61,-400 153.61,4 -4,4"/>
<!-- 1926957b&#45;c43e&#45;4cbd&#45;aacc&#45;3ce737f07477 -->
<g id="node1" class="node">
<title>1926957b&#45;c43e&#45;4cbd&#45;aacc&#45;3ce737f07477</title>
<ellipse fill="none" stroke="black" cx="74.8" cy="-306" rx="33.6" ry="18"/>
<text text-anchor="middle" x="74.8" y="-302.3" font-family="Times,serif" font-size="14.00">Descend</text>
</g>
<!-- 5a7de262&#45;e499&#45;42c1&#45;be35&#45;284e1837ba9b -->
<g id="node2" class="node">
<title>5a7de262&#45;e499&#45;42c1&#45;be35&#45;284e1837ba9b</title>
<ellipse fill="none" stroke="black" cx="74.8" cy="-234" rx="47.1" ry="18"/>
<text text-anchor="middle" x="74.8" y="-230.3" font-family="Times,serif" font-size="14.00">DelayAction</text>
</g>
<!-- 1926957b&#45;c43e&#45;4cbd&#45;aacc&#45;3ce737f07477&#45;&gt;5a7de262&#45;e499&#45;42c1&#45;be35&#45;284e1837ba9b -->
<g id="edge1" class="edge">
<title>1926957b&#45;c43e&#45;4cbd&#45;aacc&#45;3ce737f07477&#45;&gt;5a7de262&#45;e499&#45;42c1&#45;be35&#45;284e1837ba9b</title>
<path fill="none" stroke="black" d="M74.8,-287.7C74.8,-279.98 74.8,-270.71 74.8,-262.11"/>
<polygon fill="black" stroke="black" points="78.3,-262.1 74.8,-252.1 71.3,-262.1 78.3,-262.1"/>
</g>
<!-- 002d9140&#45;eb8b&#45;4fc4&#45;87dd&#45;8697db5aedd7 -->
<g id="node3" class="node">
<title>002d9140&#45;eb8b&#45;4fc4&#45;87dd&#45;8697db5aedd7</title>
<ellipse fill="none" stroke="black" cx="74.8" cy="-162" rx="74.61" ry="18"/>
<text text-anchor="middle" x="74.8" y="-158.3" font-family="Times,serif" font-size="14.00">StraightMovement</text>
</g>
<!-- 5a7de262&#45;e499&#45;42c1&#45;be35&#45;284e1837ba9b&#45;&gt;002d9140&#45;eb8b&#45;4fc4&#45;87dd&#45;8697db5aedd7 -->
<g id="edge4" class="edge">
<title>5a7de262&#45;e499&#45;42c1&#45;be35&#45;284e1837ba9b&#45;&gt;002d9140&#45;eb8b&#45;4fc4&#45;87dd&#45;8697db5aedd7</title>
<path fill="none" stroke="black" d="M74.8,-215.7C74.8,-207.98 74.8,-198.71 74.8,-190.11"/>
<polygon fill="black" stroke="black" points="78.3,-190.1 74.8,-180.1 71.3,-190.1 78.3,-190.1"/>
</g>
<!-- 74884c1c&#45;c6da&#45;42a2&#45;88e9&#45;b300d49a8973 -->
<g id="node4" class="node">
<title>74884c1c&#45;c6da&#45;42a2&#45;88e9&#45;b300d49a8973</title>
<ellipse fill="none" stroke="black" cx="74.8" cy="-90" rx="47.1" ry="18"/>
<text text-anchor="middle" x="74.8" y="-86.3" font-family="Times,serif" font-size="14.00">DelayAction</text>
</g>
<!-- 002d9140&#45;eb8b&#45;4fc4&#45;87dd&#45;8697db5aedd7&#45;&gt;74884c1c&#45;c6da&#45;42a2&#45;88e9&#45;b300d49a8973 -->
<g id="edge2" class="edge">
<title>002d9140&#45;eb8b&#45;4fc4&#45;87dd&#45;8697db5aedd7&#45;&gt;74884c1c&#45;c6da&#45;42a2&#45;88e9&#45;b300d49a8973</title>
<path fill="none" stroke="black" d="M74.8,-143.7C74.8,-135.98 74.8,-126.71 74.8,-118.11"/>
<polygon fill="black" stroke="black" points="78.3,-118.1 74.8,-108.1 71.3,-118.1 78.3,-118.1"/>
</g>
<!-- b72459b6&#45;aebf&#45;4acd&#45;a509&#45;2bc8f3f78b9d -->
<g id="node5" class="node">
<title>b72459b6&#45;aebf&#45;4acd&#45;a509&#45;2bc8f3f78b9d</title>
<ellipse fill="none" stroke="black" cx="74.8" cy="-18" rx="59.9" ry="18"/>
<text text-anchor="middle" x="74.8" y="-14.3" font-family="Times,serif" font-size="14.00">ZeroMovement</text>
</g>
<!-- 74884c1c&#45;c6da&#45;42a2&#45;88e9&#45;b300d49a8973&#45;&gt;b72459b6&#45;aebf&#45;4acd&#45;a509&#45;2bc8f3f78b9d -->
<g id="edge3" class="edge">
<title>74884c1c&#45;c6da&#45;42a2&#45;88e9&#45;b300d49a8973&#45;&gt;b72459b6&#45;aebf&#45;4acd&#45;a509&#45;2bc8f3f78b9d</title>
<path fill="none" stroke="black" d="M74.8,-71.7C74.8,-63.98 74.8,-54.71 74.8,-46.11"/>
<polygon fill="black" stroke="black" points="78.3,-46.1 74.8,-36.1 71.3,-46.1 78.3,-46.1"/>
</g>
<!-- 51e90a8b&#45;1fd5&#45;4794&#45;9b7a&#45;d36d4744ce75 -->
<g id="node6" class="node">
<title>51e90a8b&#45;1fd5&#45;4794&#45;9b7a&#45;d36d4744ce75</title>
<ellipse fill="none" stroke="black" cx="74.8" cy="-378" rx="34.8" ry="18"/>
<text text-anchor="middle" x="74.8" y="-374.3" font-family="Times,serif" font-size="14.00">WaitArm</text>
</g>
<!-- 51e90a8b&#45;1fd5&#45;4794&#45;9b7a&#45;d36d4744ce75&#45;&gt;1926957b&#45;c43e&#45;4cbd&#45;aacc&#45;3ce737f07477 -->
<g id="edge5" class="edge">
<title>51e90a8b&#45;1fd5&#45;4794&#45;9b7a&#45;d36d4744ce75&#45;&gt;1926957b&#45;c43e&#45;4cbd&#45;aacc&#45;3ce737f07477</title>
<path fill="none" stroke="black" d="M74.8,-359.7C74.8,-351.98 74.8,-342.71 74.8,-334.11"/>
<polygon fill="black" stroke="black" points="78.3,-334.1 74.8,-324.1 71.3,-334.1 78.3,-334.1"/>
</g>
</g>
</svg>
