<?xml version="1.0" encoding="UTF-8" standalone="no"?>
<!DOCTYPE svg PUBLIC "-//W3C//DTD SVG 1.1//EN"
 "http://www.w3.org/Graphics/SVG/1.1/DTD/svg11.dtd">
<!-- Generated by graphviz version 2.43.0 (0)
 -->
<!-- Title: G Pages: 1 -->
<svg width="158pt" height="404pt"
 viewBox="0.00 0.00 157.61 404.00" xmlns="http://www.w3.org/2000/svg" xmlns:xlink="http://www.w3.org/1999/xlink">
<g id="graph0" class="graph" transform="scale(1 1) rotate(0) translate(4 400)">
<title>G</title>
<polygon fill="transparent" stroke="transparent" points="-4,4 -4,-400 153.61,-400 153.61,4 -4,4"/>
<!-- d70c178f&#45;4084&#45;4363&#45;9aad&#45;a5582ef38047 -->
<g id="node1" class="node">
<title>d70c178f&#45;4084&#45;4363&#45;9aad&#45;a5582ef38047</title>
<ellipse fill="none" stroke="black" cx="74.8" cy="-306" rx="33.6" ry="18"/>
<text text-anchor="middle" x="74.8" y="-302.3" font-family="Times,serif" font-size="14.00">Descend</text>
</g>
<!-- cb89d02b&#45;d102&#45;4930&#45;8b62&#45;30ae5feddb0b -->
<g id="node2" class="node">
<title>cb89d02b&#45;d102&#45;4930&#45;8b62&#45;30ae5feddb0b</title>
<ellipse fill="none" stroke="black" cx="74.8" cy="-234" rx="47.1" ry="18"/>
<text text-anchor="middle" x="74.8" y="-230.3" font-family="Times,serif" font-size="14.00">DelayAction</text>
</g>
<!-- d70c178f&#45;4084&#45;4363&#45;9aad&#45;a5582ef38047&#45;&gt;cb89d02b&#45;d102&#45;4930&#45;8b62&#45;30ae5feddb0b -->
<g id="edge1" class="edge">
<title>d70c178f&#45;4084&#45;4363&#45;9aad&#45;a5582ef38047&#45;&gt;cb89d02b&#45;d102&#45;4930&#45;8b62&#45;30ae5feddb0b</title>
<path fill="none" stroke="black" d="M74.8,-287.7C74.8,-279.98 74.8,-270.71 74.8,-262.11"/>
<polygon fill="black" stroke="black" points="78.3,-262.1 74.8,-252.1 71.3,-262.1 78.3,-262.1"/>
</g>
<!-- 5bc591cc&#45;58d0&#45;4446&#45;970e&#45;98101a3fc50d -->
<g id="node3" class="node">
<title>5bc591cc&#45;58d0&#45;4446&#45;970e&#45;98101a3fc50d</title>
<ellipse fill="none" stroke="black" cx="74.8" cy="-162" rx="74.61" ry="18"/>
<text text-anchor="middle" x="74.8" y="-158.3" font-family="Times,serif" font-size="14.00">StraightMovement</text>
</g>
<!-- cb89d02b&#45;d102&#45;4930&#45;8b62&#45;30ae5feddb0b&#45;&gt;5bc591cc&#45;58d0&#45;4446&#45;970e&#45;98101a3fc50d -->
<g id="edge4" class="edge">
<title>cb89d02b&#45;d102&#45;4930&#45;8b62&#45;30ae5feddb0b&#45;&gt;5bc591cc&#45;58d0&#45;4446&#45;970e&#45;98101a3fc50d</title>
<path fill="none" stroke="black" d="M74.8,-215.7C74.8,-207.98 74.8,-198.71 74.8,-190.11"/>
<polygon fill="black" stroke="black" points="78.3,-190.1 74.8,-180.1 71.3,-190.1 78.3,-190.1"/>
</g>
<!-- c3d4efe5&#45;700c&#45;4dd8&#45;8e4c&#45;3a24aecf7357 -->
<g id="node4" class="node">
<title>c3d4efe5&#45;700c&#45;4dd8&#45;8e4c&#45;3a24aecf7357</title>
<ellipse fill="none" stroke="black" cx="74.8" cy="-90" rx="47.1" ry="18"/>
<text text-anchor="middle" x="74.8" y="-86.3" font-family="Times,serif" font-size="14.00">DelayAction</text>
</g>
<!-- 5bc591cc&#45;58d0&#45;4446&#45;970e&#45;98101a3fc50d&#45;&gt;c3d4efe5&#45;700c&#45;4dd8&#45;8e4c&#45;3a24aecf7357 -->
<g id="edge2" class="edge">
<title>5bc591cc&#45;58d0&#45;4446&#45;970e&#45;98101a3fc50d&#45;&gt;c3d4efe5&#45;700c&#45;4dd8&#45;8e4c&#45;3a24aecf7357</title>
<path fill="none" stroke="black" d="M74.8,-143.7C74.8,-135.98 74.8,-126.71 74.8,-118.11"/>
<polygon fill="black" stroke="black" points="78.3,-118.1 74.8,-108.1 71.3,-118.1 78.3,-118.1"/>
</g>
<!-- 64dfebbc&#45;bd6d&#45;4944&#45;814f&#45;ed80c53418cf -->
<g id="node5" class="node">
<title>64dfebbc&#45;bd6d&#45;4944&#45;814f&#45;ed80c53418cf</title>
<ellipse fill="none" stroke="black" cx="74.8" cy="-18" rx="59.9" ry="18"/>
<text text-anchor="middle" x="74.8" y="-14.3" font-family="Times,serif" font-size="14.00">ZeroMovement</text>
</g>
<!-- c3d4efe5&#45;700c&#45;4dd8&#45;8e4c&#45;3a24aecf7357&#45;&gt;64dfebbc&#45;bd6d&#45;4944&#45;814f&#45;ed80c53418cf -->
<g id="edge3" class="edge">
<title>c3d4efe5&#45;700c&#45;4dd8&#45;8e4c&#45;3a24aecf7357&#45;&gt;64dfebbc&#45;bd6d&#45;4944&#45;814f&#45;ed80c53418cf</title>
<path fill="none" stroke="black" d="M74.8,-71.7C74.8,-63.98 74.8,-54.71 74.8,-46.11"/>
<polygon fill="black" stroke="black" points="78.3,-46.1 74.8,-36.1 71.3,-46.1 78.3,-46.1"/>
</g>
<!-- a15b5e7b&#45;99a0&#45;4014&#45;a3e1&#45;007b47892797 -->
<g id="node6" class="node">
<title>a15b5e7b&#45;99a0&#45;4014&#45;a3e1&#45;007b47892797</title>
<ellipse fill="none" stroke="black" cx="74.8" cy="-378" rx="34.8" ry="18"/>
<text text-anchor="middle" x="74.8" y="-374.3" font-family="Times,serif" font-size="14.00">WaitArm</text>
</g>
<!-- a15b5e7b&#45;99a0&#45;4014&#45;a3e1&#45;007b47892797&#45;&gt;d70c178f&#45;4084&#45;4363&#45;9aad&#45;a5582ef38047 -->
<g id="edge5" class="edge">
<title>a15b5e7b&#45;99a0&#45;4014&#45;a3e1&#45;007b47892797&#45;&gt;d70c178f&#45;4084&#45;4363&#45;9aad&#45;a5582ef38047</title>
<path fill="none" stroke="black" d="M74.8,-359.7C74.8,-351.98 74.8,-342.71 74.8,-334.11"/>
<polygon fill="black" stroke="black" points="78.3,-334.1 74.8,-324.1 71.3,-334.1 78.3,-334.1"/>
</g>
</g>
</svg>
