<?xml version="1.0" encoding="UTF-8" standalone="no"?>
<!DOCTYPE svg PUBLIC "-//W3C//DTD SVG 1.1//EN"
 "http://www.w3.org/Graphics/SVG/1.1/DTD/svg11.dtd">
<!-- Generated by graphviz version 2.43.0 (0)
 -->
<!-- Title: G Pages: 1 -->
<svg width="158pt" height="404pt"
 viewBox="0.00 0.00 157.61 404.00" xmlns="http://www.w3.org/2000/svg" xmlns:xlink="http://www.w3.org/1999/xlink">
<g id="graph0" class="graph" transform="scale(1 1) rotate(0) translate(4 400)">
<title>G</title>
<polygon fill="transparent" stroke="transparent" points="-4,4 -4,-400 153.61,-400 153.61,4 -4,4"/>
<!-- 965c519f&#45;553f&#45;4c11&#45;9470&#45;dc10b5ab2bdf -->
<g id="node1" class="node">
<title>965c519f&#45;553f&#45;4c11&#45;9470&#45;dc10b5ab2bdf</title>
<ellipse fill="none" stroke="black" cx="74.8" cy="-306" rx="33.6" ry="18"/>
<text text-anchor="middle" x="74.8" y="-302.3" font-family="Times,serif" font-size="14.00">Descend</text>
</g>
<!-- b3edd800&#45;7d76&#45;48ce&#45;919c&#45;5b04f595eb51 -->
<g id="node2" class="node">
<title>b3edd800&#45;7d76&#45;48ce&#45;919c&#45;5b04f595eb51</title>
<ellipse fill="none" stroke="black" cx="74.8" cy="-234" rx="47.1" ry="18"/>
<text text-anchor="middle" x="74.8" y="-230.3" font-family="Times,serif" font-size="14.00">DelayAction</text>
</g>
<!-- 965c519f&#45;553f&#45;4c11&#45;9470&#45;dc10b5ab2bdf&#45;&gt;b3edd800&#45;7d76&#45;48ce&#45;919c&#45;5b04f595eb51 -->
<g id="edge1" class="edge">
<title>965c519f&#45;553f&#45;4c11&#45;9470&#45;dc10b5ab2bdf&#45;&gt;b3edd800&#45;7d76&#45;48ce&#45;919c&#45;5b04f595eb51</title>
<path fill="none" stroke="black" d="M74.8,-287.7C74.8,-279.98 74.8,-270.71 74.8,-262.11"/>
<polygon fill="black" stroke="black" points="78.3,-262.1 74.8,-252.1 71.3,-262.1 78.3,-262.1"/>
</g>
<!-- fdb3c3a2&#45;5722&#45;4b2c&#45;af75&#45;524846128935 -->
<g id="node3" class="node">
<title>fdb3c3a2&#45;5722&#45;4b2c&#45;af75&#45;524846128935</title>
<ellipse fill="none" stroke="black" cx="74.8" cy="-162" rx="74.61" ry="18"/>
<text text-anchor="middle" x="74.8" y="-158.3" font-family="Times,serif" font-size="14.00">StraightMovement</text>
</g>
<!-- b3edd800&#45;7d76&#45;48ce&#45;919c&#45;5b04f595eb51&#45;&gt;fdb3c3a2&#45;5722&#45;4b2c&#45;af75&#45;524846128935 -->
<g id="edge4" class="edge">
<title>b3edd800&#45;7d76&#45;48ce&#45;919c&#45;5b04f595eb51&#45;&gt;fdb3c3a2&#45;5722&#45;4b2c&#45;af75&#45;524846128935</title>
<path fill="none" stroke="black" d="M74.8,-215.7C74.8,-207.98 74.8,-198.71 74.8,-190.11"/>
<polygon fill="black" stroke="black" points="78.3,-190.1 74.8,-180.1 71.3,-190.1 78.3,-190.1"/>
</g>
<!-- 642c95e5&#45;eeab&#45;4586&#45;a7b5&#45;6b14ee4dc7c7 -->
<g id="node4" class="node">
<title>642c95e5&#45;eeab&#45;4586&#45;a7b5&#45;6b14ee4dc7c7</title>
<ellipse fill="none" stroke="black" cx="74.8" cy="-90" rx="47.1" ry="18"/>
<text text-anchor="middle" x="74.8" y="-86.3" font-family="Times,serif" font-size="14.00">DelayAction</text>
</g>
<!-- fdb3c3a2&#45;5722&#45;4b2c&#45;af75&#45;524846128935&#45;&gt;642c95e5&#45;eeab&#45;4586&#45;a7b5&#45;6b14ee4dc7c7 -->
<g id="edge2" class="edge">
<title>fdb3c3a2&#45;5722&#45;4b2c&#45;af75&#45;524846128935&#45;&gt;642c95e5&#45;eeab&#45;4586&#45;a7b5&#45;6b14ee4dc7c7</title>
<path fill="none" stroke="black" d="M74.8,-143.7C74.8,-135.98 74.8,-126.71 74.8,-118.11"/>
<polygon fill="black" stroke="black" points="78.3,-118.1 74.8,-108.1 71.3,-118.1 78.3,-118.1"/>
</g>
<!-- e64fe459&#45;3ca5&#45;4c34&#45;a240&#45;52015671a8b5 -->
<g id="node5" class="node">
<title>e64fe459&#45;3ca5&#45;4c34&#45;a240&#45;52015671a8b5</title>
<ellipse fill="none" stroke="black" cx="74.8" cy="-18" rx="59.9" ry="18"/>
<text text-anchor="middle" x="74.8" y="-14.3" font-family="Times,serif" font-size="14.00">ZeroMovement</text>
</g>
<!-- 642c95e5&#45;eeab&#45;4586&#45;a7b5&#45;6b14ee4dc7c7&#45;&gt;e64fe459&#45;3ca5&#45;4c34&#45;a240&#45;52015671a8b5 -->
<g id="edge3" class="edge">
<title>642c95e5&#45;eeab&#45;4586&#45;a7b5&#45;6b14ee4dc7c7&#45;&gt;e64fe459&#45;3ca5&#45;4c34&#45;a240&#45;52015671a8b5</title>
<path fill="none" stroke="black" d="M74.8,-71.7C74.8,-63.98 74.8,-54.71 74.8,-46.11"/>
<polygon fill="black" stroke="black" points="78.3,-46.1 74.8,-36.1 71.3,-46.1 78.3,-46.1"/>
</g>
<!-- 2a535a72&#45;bea8&#45;4943&#45;a1bc&#45;d334a285a231 -->
<g id="node6" class="node">
<title>2a535a72&#45;bea8&#45;4943&#45;a1bc&#45;d334a285a231</title>
<ellipse fill="none" stroke="black" cx="74.8" cy="-378" rx="34.8" ry="18"/>
<text text-anchor="middle" x="74.8" y="-374.3" font-family="Times,serif" font-size="14.00">WaitArm</text>
</g>
<!-- 2a535a72&#45;bea8&#45;4943&#45;a1bc&#45;d334a285a231&#45;&gt;965c519f&#45;553f&#45;4c11&#45;9470&#45;dc10b5ab2bdf -->
<g id="edge5" class="edge">
<title>2a535a72&#45;bea8&#45;4943&#45;a1bc&#45;d334a285a231&#45;&gt;965c519f&#45;553f&#45;4c11&#45;9470&#45;dc10b5ab2bdf</title>
<path fill="none" stroke="black" d="M74.8,-359.7C74.8,-351.98 74.8,-342.71 74.8,-334.11"/>
<polygon fill="black" stroke="black" points="78.3,-334.1 74.8,-324.1 71.3,-334.1 78.3,-334.1"/>
</g>
</g>
</svg>
