<?xml version="1.0" encoding="UTF-8" standalone="no"?>
<!DOCTYPE svg PUBLIC "-//W3C//DTD SVG 1.1//EN"
 "http://www.w3.org/Graphics/SVG/1.1/DTD/svg11.dtd">
<!-- Generated by graphviz version 2.43.0 (0)
 -->
<!-- Title: G Pages: 1 -->
<svg width="158pt" height="404pt"
 viewBox="0.00 0.00 157.61 404.00" xmlns="http://www.w3.org/2000/svg" xmlns:xlink="http://www.w3.org/1999/xlink">
<g id="graph0" class="graph" transform="scale(1 1) rotate(0) translate(4 400)">
<title>G</title>
<polygon fill="transparent" stroke="transparent" points="-4,4 -4,-400 153.61,-400 153.61,4 -4,4"/>
<!-- ed0c8120&#45;931c&#45;4f2b&#45;b791&#45;b052adfc57e5 -->
<g id="node1" class="node">
<title>ed0c8120&#45;931c&#45;4f2b&#45;b791&#45;b052adfc57e5</title>
<ellipse fill="none" stroke="black" cx="74.8" cy="-378" rx="34.8" ry="18"/>
<text text-anchor="middle" x="74.8" y="-374.3" font-family="Times,serif" font-size="14.00">WaitArm</text>
</g>
<!-- 54204a23&#45;0b6b&#45;44a5&#45;9bdd&#45;9af17b4e3987 -->
<g id="node2" class="node">
<title>54204a23&#45;0b6b&#45;44a5&#45;9bdd&#45;9af17b4e3987</title>
<ellipse fill="none" stroke="black" cx="74.8" cy="-306" rx="33.6" ry="18"/>
<text text-anchor="middle" x="74.8" y="-302.3" font-family="Times,serif" font-size="14.00">Descend</text>
</g>
<!-- ed0c8120&#45;931c&#45;4f2b&#45;b791&#45;b052adfc57e5&#45;&gt;54204a23&#45;0b6b&#45;44a5&#45;9bdd&#45;9af17b4e3987 -->
<g id="edge5" class="edge">
<title>ed0c8120&#45;931c&#45;4f2b&#45;b791&#45;b052adfc57e5&#45;&gt;54204a23&#45;0b6b&#45;44a5&#45;9bdd&#45;9af17b4e3987</title>
<path fill="none" stroke="black" d="M74.8,-359.7C74.8,-351.98 74.8,-342.71 74.8,-334.11"/>
<polygon fill="black" stroke="black" points="78.3,-334.1 74.8,-324.1 71.3,-334.1 78.3,-334.1"/>
</g>
<!-- f8e2dc81&#45;8595&#45;48ad&#45;a31a&#45;531e40272cf8 -->
<g id="node3" class="node">
<title>f8e2dc81&#45;8595&#45;48ad&#45;a31a&#45;531e40272cf8</title>
<ellipse fill="none" stroke="black" cx="74.8" cy="-234" rx="47.1" ry="18"/>
<text text-anchor="middle" x="74.8" y="-230.3" font-family="Times,serif" font-size="14.00">DelayAction</text>
</g>
<!-- 54204a23&#45;0b6b&#45;44a5&#45;9bdd&#45;9af17b4e3987&#45;&gt;f8e2dc81&#45;8595&#45;48ad&#45;a31a&#45;531e40272cf8 -->
<g id="edge1" class="edge">
<title>54204a23&#45;0b6b&#45;44a5&#45;9bdd&#45;9af17b4e3987&#45;&gt;f8e2dc81&#45;8595&#45;48ad&#45;a31a&#45;531e40272cf8</title>
<path fill="none" stroke="black" d="M74.8,-287.7C74.8,-279.98 74.8,-270.71 74.8,-262.11"/>
<polygon fill="black" stroke="black" points="78.3,-262.1 74.8,-252.1 71.3,-262.1 78.3,-262.1"/>
</g>
<!-- fb9d2f73&#45;07c8&#45;4888&#45;91f5&#45;46405706dab3 -->
<g id="node4" class="node">
<title>fb9d2f73&#45;07c8&#45;4888&#45;91f5&#45;46405706dab3</title>
<ellipse fill="none" stroke="black" cx="74.8" cy="-162" rx="74.61" ry="18"/>
<text text-anchor="middle" x="74.8" y="-158.3" font-family="Times,serif" font-size="14.00">StraightMovement</text>
</g>
<!-- f8e2dc81&#45;8595&#45;48ad&#45;a31a&#45;531e40272cf8&#45;&gt;fb9d2f73&#45;07c8&#45;4888&#45;91f5&#45;46405706dab3 -->
<g id="edge4" class="edge">
<title>f8e2dc81&#45;8595&#45;48ad&#45;a31a&#45;531e40272cf8&#45;&gt;fb9d2f73&#45;07c8&#45;4888&#45;91f5&#45;46405706dab3</title>
<path fill="none" stroke="black" d="M74.8,-215.7C74.8,-207.98 74.8,-198.71 74.8,-190.11"/>
<polygon fill="black" stroke="black" points="78.3,-190.1 74.8,-180.1 71.3,-190.1 78.3,-190.1"/>
</g>
<!-- e8d26788&#45;8514&#45;4fd4&#45;b608&#45;33d86607217c -->
<g id="node5" class="node">
<title>e8d26788&#45;8514&#45;4fd4&#45;b608&#45;33d86607217c</title>
<ellipse fill="none" stroke="black" cx="74.8" cy="-90" rx="47.1" ry="18"/>
<text text-anchor="middle" x="74.8" y="-86.3" font-family="Times,serif" font-size="14.00">DelayAction</text>
</g>
<!-- fb9d2f73&#45;07c8&#45;4888&#45;91f5&#45;46405706dab3&#45;&gt;e8d26788&#45;8514&#45;4fd4&#45;b608&#45;33d86607217c -->
<g id="edge2" class="edge">
<title>fb9d2f73&#45;07c8&#45;4888&#45;91f5&#45;46405706dab3&#45;&gt;e8d26788&#45;8514&#45;4fd4&#45;b608&#45;33d86607217c</title>
<path fill="none" stroke="black" d="M74.8,-143.7C74.8,-135.98 74.8,-126.71 74.8,-118.11"/>
<polygon fill="black" stroke="black" points="78.3,-118.1 74.8,-108.1 71.3,-118.1 78.3,-118.1"/>
</g>
<!-- 270a21d1&#45;9b19&#45;4bbd&#45;88f3&#45;e1e7f8027166 -->
<g id="node6" class="node">
<title>270a21d1&#45;9b19&#45;4bbd&#45;88f3&#45;e1e7f8027166</title>
<ellipse fill="none" stroke="black" cx="74.8" cy="-18" rx="59.9" ry="18"/>
<text text-anchor="middle" x="74.8" y="-14.3" font-family="Times,serif" font-size="14.00">ZeroMovement</text>
</g>
<!-- e8d26788&#45;8514&#45;4fd4&#45;b608&#45;33d86607217c&#45;&gt;270a21d1&#45;9b19&#45;4bbd&#45;88f3&#45;e1e7f8027166 -->
<g id="edge3" class="edge">
<title>e8d26788&#45;8514&#45;4fd4&#45;b608&#45;33d86607217c&#45;&gt;270a21d1&#45;9b19&#45;4bbd&#45;88f3&#45;e1e7f8027166</title>
<path fill="none" stroke="black" d="M74.8,-71.7C74.8,-63.98 74.8,-54.71 74.8,-46.11"/>
<polygon fill="black" stroke="black" points="78.3,-46.1 74.8,-36.1 71.3,-46.1 78.3,-46.1"/>
</g>
</g>
</svg>
