<?xml version="1.0" encoding="UTF-8" standalone="no"?>
<!DOCTYPE svg PUBLIC "-//W3C//DTD SVG 1.1//EN"
 "http://www.w3.org/Graphics/SVG/1.1/DTD/svg11.dtd">
<!-- Generated by graphviz version 2.43.0 (0)
 -->
<!-- Title: G Pages: 1 -->
<svg width="158pt" height="404pt"
 viewBox="0.00 0.00 157.61 404.00" xmlns="http://www.w3.org/2000/svg" xmlns:xlink="http://www.w3.org/1999/xlink">
<g id="graph0" class="graph" transform="scale(1 1) rotate(0) translate(4 400)">
<title>G</title>
<polygon fill="transparent" stroke="transparent" points="-4,4 -4,-400 153.61,-400 153.61,4 -4,4"/>
<!-- d6181396&#45;bacb&#45;452e&#45;9f07&#45;24c48f752d96 -->
<g id="node1" class="node">
<title>d6181396&#45;bacb&#45;452e&#45;9f07&#45;24c48f752d96</title>
<ellipse fill="none" stroke="black" cx="74.8" cy="-306" rx="33.6" ry="18"/>
<text text-anchor="middle" x="74.8" y="-302.3" font-family="Times,serif" font-size="14.00">Descend</text>
</g>
<!-- 07f8e29a&#45;699a&#45;4307&#45;9177&#45;b639fd14a2c4 -->
<g id="node2" class="node">
<title>07f8e29a&#45;699a&#45;4307&#45;9177&#45;b639fd14a2c4</title>
<ellipse fill="none" stroke="black" cx="74.8" cy="-234" rx="47.1" ry="18"/>
<text text-anchor="middle" x="74.8" y="-230.3" font-family="Times,serif" font-size="14.00">DelayAction</text>
</g>
<!-- d6181396&#45;bacb&#45;452e&#45;9f07&#45;24c48f752d96&#45;&gt;07f8e29a&#45;699a&#45;4307&#45;9177&#45;b639fd14a2c4 -->
<g id="edge1" class="edge">
<title>d6181396&#45;bacb&#45;452e&#45;9f07&#45;24c48f752d96&#45;&gt;07f8e29a&#45;699a&#45;4307&#45;9177&#45;b639fd14a2c4</title>
<path fill="none" stroke="black" d="M74.8,-287.7C74.8,-279.98 74.8,-270.71 74.8,-262.11"/>
<polygon fill="black" stroke="black" points="78.3,-262.1 74.8,-252.1 71.3,-262.1 78.3,-262.1"/>
</g>
<!-- af1ba1d1&#45;e4a4&#45;4845&#45;ac2a&#45;c0ab68c113b1 -->
<g id="node3" class="node">
<title>af1ba1d1&#45;e4a4&#45;4845&#45;ac2a&#45;c0ab68c113b1</title>
<ellipse fill="none" stroke="black" cx="74.8" cy="-162" rx="74.61" ry="18"/>
<text text-anchor="middle" x="74.8" y="-158.3" font-family="Times,serif" font-size="14.00">StraightMovement</text>
</g>
<!-- 07f8e29a&#45;699a&#45;4307&#45;9177&#45;b639fd14a2c4&#45;&gt;af1ba1d1&#45;e4a4&#45;4845&#45;ac2a&#45;c0ab68c113b1 -->
<g id="edge4" class="edge">
<title>07f8e29a&#45;699a&#45;4307&#45;9177&#45;b639fd14a2c4&#45;&gt;af1ba1d1&#45;e4a4&#45;4845&#45;ac2a&#45;c0ab68c113b1</title>
<path fill="none" stroke="black" d="M74.8,-215.7C74.8,-207.98 74.8,-198.71 74.8,-190.11"/>
<polygon fill="black" stroke="black" points="78.3,-190.1 74.8,-180.1 71.3,-190.1 78.3,-190.1"/>
</g>
<!-- d7a73dc3&#45;9d0f&#45;491b&#45;8f28&#45;0ebb15b04aef -->
<g id="node4" class="node">
<title>d7a73dc3&#45;9d0f&#45;491b&#45;8f28&#45;0ebb15b04aef</title>
<ellipse fill="none" stroke="black" cx="74.8" cy="-90" rx="47.1" ry="18"/>
<text text-anchor="middle" x="74.8" y="-86.3" font-family="Times,serif" font-size="14.00">DelayAction</text>
</g>
<!-- af1ba1d1&#45;e4a4&#45;4845&#45;ac2a&#45;c0ab68c113b1&#45;&gt;d7a73dc3&#45;9d0f&#45;491b&#45;8f28&#45;0ebb15b04aef -->
<g id="edge2" class="edge">
<title>af1ba1d1&#45;e4a4&#45;4845&#45;ac2a&#45;c0ab68c113b1&#45;&gt;d7a73dc3&#45;9d0f&#45;491b&#45;8f28&#45;0ebb15b04aef</title>
<path fill="none" stroke="black" d="M74.8,-143.7C74.8,-135.98 74.8,-126.71 74.8,-118.11"/>
<polygon fill="black" stroke="black" points="78.3,-118.1 74.8,-108.1 71.3,-118.1 78.3,-118.1"/>
</g>
<!-- 1f67f7d2&#45;aea0&#45;40f6&#45;bef5&#45;507ccb9ffa86 -->
<g id="node5" class="node">
<title>1f67f7d2&#45;aea0&#45;40f6&#45;bef5&#45;507ccb9ffa86</title>
<ellipse fill="none" stroke="black" cx="74.8" cy="-18" rx="59.9" ry="18"/>
<text text-anchor="middle" x="74.8" y="-14.3" font-family="Times,serif" font-size="14.00">ZeroMovement</text>
</g>
<!-- d7a73dc3&#45;9d0f&#45;491b&#45;8f28&#45;0ebb15b04aef&#45;&gt;1f67f7d2&#45;aea0&#45;40f6&#45;bef5&#45;507ccb9ffa86 -->
<g id="edge3" class="edge">
<title>d7a73dc3&#45;9d0f&#45;491b&#45;8f28&#45;0ebb15b04aef&#45;&gt;1f67f7d2&#45;aea0&#45;40f6&#45;bef5&#45;507ccb9ffa86</title>
<path fill="none" stroke="black" d="M74.8,-71.7C74.8,-63.98 74.8,-54.71 74.8,-46.11"/>
<polygon fill="black" stroke="black" points="78.3,-46.1 74.8,-36.1 71.3,-46.1 78.3,-46.1"/>
</g>
<!-- e8391914&#45;2b6c&#45;4947&#45;b1ee&#45;cd69f67eb497 -->
<g id="node6" class="node">
<title>e8391914&#45;2b6c&#45;4947&#45;b1ee&#45;cd69f67eb497</title>
<ellipse fill="none" stroke="black" cx="74.8" cy="-378" rx="34.8" ry="18"/>
<text text-anchor="middle" x="74.8" y="-374.3" font-family="Times,serif" font-size="14.00">WaitArm</text>
</g>
<!-- e8391914&#45;2b6c&#45;4947&#45;b1ee&#45;cd69f67eb497&#45;&gt;d6181396&#45;bacb&#45;452e&#45;9f07&#45;24c48f752d96 -->
<g id="edge5" class="edge">
<title>e8391914&#45;2b6c&#45;4947&#45;b1ee&#45;cd69f67eb497&#45;&gt;d6181396&#45;bacb&#45;452e&#45;9f07&#45;24c48f752d96</title>
<path fill="none" stroke="black" d="M74.8,-359.7C74.8,-351.98 74.8,-342.71 74.8,-334.11"/>
<polygon fill="black" stroke="black" points="78.3,-334.1 74.8,-324.1 71.3,-334.1 78.3,-334.1"/>
</g>
</g>
</svg>
