<?xml version="1.0" encoding="UTF-8" standalone="no"?>
<!DOCTYPE svg PUBLIC "-//W3C//DTD SVG 1.1//EN"
 "http://www.w3.org/Graphics/SVG/1.1/DTD/svg11.dtd">
<!-- Generated by graphviz version 2.43.0 (0)
 -->
<!-- Title: G Pages: 1 -->
<svg width="158pt" height="404pt"
 viewBox="0.00 0.00 157.61 404.00" xmlns="http://www.w3.org/2000/svg" xmlns:xlink="http://www.w3.org/1999/xlink">
<g id="graph0" class="graph" transform="scale(1 1) rotate(0) translate(4 400)">
<title>G</title>
<polygon fill="transparent" stroke="transparent" points="-4,4 -4,-400 153.61,-400 153.61,4 -4,4"/>
<!-- a375b01f&#45;fecf&#45;40c3&#45;b161&#45;0ae74765f1ef -->
<g id="node1" class="node">
<title>a375b01f&#45;fecf&#45;40c3&#45;b161&#45;0ae74765f1ef</title>
<ellipse fill="none" stroke="black" cx="74.8" cy="-306" rx="33.6" ry="18"/>
<text text-anchor="middle" x="74.8" y="-302.3" font-family="Times,serif" font-size="14.00">Descend</text>
</g>
<!-- 2311fc76&#45;9242&#45;4a18&#45;b701&#45;4f04ce17ac08 -->
<g id="node2" class="node">
<title>2311fc76&#45;9242&#45;4a18&#45;b701&#45;4f04ce17ac08</title>
<ellipse fill="none" stroke="black" cx="74.8" cy="-234" rx="47.1" ry="18"/>
<text text-anchor="middle" x="74.8" y="-230.3" font-family="Times,serif" font-size="14.00">DelayAction</text>
</g>
<!-- a375b01f&#45;fecf&#45;40c3&#45;b161&#45;0ae74765f1ef&#45;&gt;2311fc76&#45;9242&#45;4a18&#45;b701&#45;4f04ce17ac08 -->
<g id="edge1" class="edge">
<title>a375b01f&#45;fecf&#45;40c3&#45;b161&#45;0ae74765f1ef&#45;&gt;2311fc76&#45;9242&#45;4a18&#45;b701&#45;4f04ce17ac08</title>
<path fill="none" stroke="black" d="M74.8,-287.7C74.8,-279.98 74.8,-270.71 74.8,-262.11"/>
<polygon fill="black" stroke="black" points="78.3,-262.1 74.8,-252.1 71.3,-262.1 78.3,-262.1"/>
</g>
<!-- 558c6814&#45;f1aa&#45;4e6e&#45;8736&#45;4dfe2a4870eb -->
<g id="node3" class="node">
<title>558c6814&#45;f1aa&#45;4e6e&#45;8736&#45;4dfe2a4870eb</title>
<ellipse fill="none" stroke="black" cx="74.8" cy="-162" rx="74.61" ry="18"/>
<text text-anchor="middle" x="74.8" y="-158.3" font-family="Times,serif" font-size="14.00">StraightMovement</text>
</g>
<!-- 2311fc76&#45;9242&#45;4a18&#45;b701&#45;4f04ce17ac08&#45;&gt;558c6814&#45;f1aa&#45;4e6e&#45;8736&#45;4dfe2a4870eb -->
<g id="edge4" class="edge">
<title>2311fc76&#45;9242&#45;4a18&#45;b701&#45;4f04ce17ac08&#45;&gt;558c6814&#45;f1aa&#45;4e6e&#45;8736&#45;4dfe2a4870eb</title>
<path fill="none" stroke="black" d="M74.8,-215.7C74.8,-207.98 74.8,-198.71 74.8,-190.11"/>
<polygon fill="black" stroke="black" points="78.3,-190.1 74.8,-180.1 71.3,-190.1 78.3,-190.1"/>
</g>
<!-- 358cac42&#45;3f07&#45;4e1f&#45;a2dc&#45;08fef6d58156 -->
<g id="node4" class="node">
<title>358cac42&#45;3f07&#45;4e1f&#45;a2dc&#45;08fef6d58156</title>
<ellipse fill="none" stroke="black" cx="74.8" cy="-90" rx="47.1" ry="18"/>
<text text-anchor="middle" x="74.8" y="-86.3" font-family="Times,serif" font-size="14.00">DelayAction</text>
</g>
<!-- 558c6814&#45;f1aa&#45;4e6e&#45;8736&#45;4dfe2a4870eb&#45;&gt;358cac42&#45;3f07&#45;4e1f&#45;a2dc&#45;08fef6d58156 -->
<g id="edge2" class="edge">
<title>558c6814&#45;f1aa&#45;4e6e&#45;8736&#45;4dfe2a4870eb&#45;&gt;358cac42&#45;3f07&#45;4e1f&#45;a2dc&#45;08fef6d58156</title>
<path fill="none" stroke="black" d="M74.8,-143.7C74.8,-135.98 74.8,-126.71 74.8,-118.11"/>
<polygon fill="black" stroke="black" points="78.3,-118.1 74.8,-108.1 71.3,-118.1 78.3,-118.1"/>
</g>
<!-- f35e520c&#45;aca3&#45;4c5e&#45;bafd&#45;69a3ae38f326 -->
<g id="node5" class="node">
<title>f35e520c&#45;aca3&#45;4c5e&#45;bafd&#45;69a3ae38f326</title>
<ellipse fill="none" stroke="black" cx="74.8" cy="-18" rx="59.9" ry="18"/>
<text text-anchor="middle" x="74.8" y="-14.3" font-family="Times,serif" font-size="14.00">ZeroMovement</text>
</g>
<!-- 358cac42&#45;3f07&#45;4e1f&#45;a2dc&#45;08fef6d58156&#45;&gt;f35e520c&#45;aca3&#45;4c5e&#45;bafd&#45;69a3ae38f326 -->
<g id="edge3" class="edge">
<title>358cac42&#45;3f07&#45;4e1f&#45;a2dc&#45;08fef6d58156&#45;&gt;f35e520c&#45;aca3&#45;4c5e&#45;bafd&#45;69a3ae38f326</title>
<path fill="none" stroke="black" d="M74.8,-71.7C74.8,-63.98 74.8,-54.71 74.8,-46.11"/>
<polygon fill="black" stroke="black" points="78.3,-46.1 74.8,-36.1 71.3,-46.1 78.3,-46.1"/>
</g>
<!-- 036040cc&#45;e5f0&#45;4c40&#45;bd77&#45;2801b68c276c -->
<g id="node6" class="node">
<title>036040cc&#45;e5f0&#45;4c40&#45;bd77&#45;2801b68c276c</title>
<ellipse fill="none" stroke="black" cx="74.8" cy="-378" rx="34.8" ry="18"/>
<text text-anchor="middle" x="74.8" y="-374.3" font-family="Times,serif" font-size="14.00">WaitArm</text>
</g>
<!-- 036040cc&#45;e5f0&#45;4c40&#45;bd77&#45;2801b68c276c&#45;&gt;a375b01f&#45;fecf&#45;40c3&#45;b161&#45;0ae74765f1ef -->
<g id="edge5" class="edge">
<title>036040cc&#45;e5f0&#45;4c40&#45;bd77&#45;2801b68c276c&#45;&gt;a375b01f&#45;fecf&#45;40c3&#45;b161&#45;0ae74765f1ef</title>
<path fill="none" stroke="black" d="M74.8,-359.7C74.8,-351.98 74.8,-342.71 74.8,-334.11"/>
<polygon fill="black" stroke="black" points="78.3,-334.1 74.8,-324.1 71.3,-334.1 78.3,-334.1"/>
</g>
</g>
</svg>
