<?xml version="1.0" encoding="UTF-8" standalone="no"?>
<!DOCTYPE svg PUBLIC "-//W3C//DTD SVG 1.1//EN"
 "http://www.w3.org/Graphics/SVG/1.1/DTD/svg11.dtd">
<!-- Generated by graphviz version 2.43.0 (0)
 -->
<!-- Title: G Pages: 1 -->
<svg width="158pt" height="404pt"
 viewBox="0.00 0.00 157.61 404.00" xmlns="http://www.w3.org/2000/svg" xmlns:xlink="http://www.w3.org/1999/xlink">
<g id="graph0" class="graph" transform="scale(1 1) rotate(0) translate(4 400)">
<title>G</title>
<polygon fill="transparent" stroke="transparent" points="-4,4 -4,-400 153.61,-400 153.61,4 -4,4"/>
<!-- b9e6d8f6&#45;d765&#45;446d&#45;9c61&#45;1a80be510538 -->
<g id="node1" class="node">
<title>b9e6d8f6&#45;d765&#45;446d&#45;9c61&#45;1a80be510538</title>
<ellipse fill="none" stroke="black" cx="74.8" cy="-306" rx="33.6" ry="18"/>
<text text-anchor="middle" x="74.8" y="-302.3" font-family="Times,serif" font-size="14.00">Descend</text>
</g>
<!-- 847856e6&#45;8a1e&#45;4947&#45;b522&#45;211fa7129e4e -->
<g id="node2" class="node">
<title>847856e6&#45;8a1e&#45;4947&#45;b522&#45;211fa7129e4e</title>
<ellipse fill="none" stroke="black" cx="74.8" cy="-234" rx="47.1" ry="18"/>
<text text-anchor="middle" x="74.8" y="-230.3" font-family="Times,serif" font-size="14.00">DelayAction</text>
</g>
<!-- b9e6d8f6&#45;d765&#45;446d&#45;9c61&#45;1a80be510538&#45;&gt;847856e6&#45;8a1e&#45;4947&#45;b522&#45;211fa7129e4e -->
<g id="edge1" class="edge">
<title>b9e6d8f6&#45;d765&#45;446d&#45;9c61&#45;1a80be510538&#45;&gt;847856e6&#45;8a1e&#45;4947&#45;b522&#45;211fa7129e4e</title>
<path fill="none" stroke="black" d="M74.8,-287.7C74.8,-279.98 74.8,-270.71 74.8,-262.11"/>
<polygon fill="black" stroke="black" points="78.3,-262.1 74.8,-252.1 71.3,-262.1 78.3,-262.1"/>
</g>
<!-- b1afc800&#45;25e1&#45;472c&#45;8308&#45;2a1ef1eb84e1 -->
<g id="node3" class="node">
<title>b1afc800&#45;25e1&#45;472c&#45;8308&#45;2a1ef1eb84e1</title>
<ellipse fill="none" stroke="black" cx="74.8" cy="-162" rx="74.61" ry="18"/>
<text text-anchor="middle" x="74.8" y="-158.3" font-family="Times,serif" font-size="14.00">StraightMovement</text>
</g>
<!-- 847856e6&#45;8a1e&#45;4947&#45;b522&#45;211fa7129e4e&#45;&gt;b1afc800&#45;25e1&#45;472c&#45;8308&#45;2a1ef1eb84e1 -->
<g id="edge4" class="edge">
<title>847856e6&#45;8a1e&#45;4947&#45;b522&#45;211fa7129e4e&#45;&gt;b1afc800&#45;25e1&#45;472c&#45;8308&#45;2a1ef1eb84e1</title>
<path fill="none" stroke="black" d="M74.8,-215.7C74.8,-207.98 74.8,-198.71 74.8,-190.11"/>
<polygon fill="black" stroke="black" points="78.3,-190.1 74.8,-180.1 71.3,-190.1 78.3,-190.1"/>
</g>
<!-- 7290a83e&#45;a80f&#45;4cdb&#45;a1fb&#45;e21e458a0826 -->
<g id="node4" class="node">
<title>7290a83e&#45;a80f&#45;4cdb&#45;a1fb&#45;e21e458a0826</title>
<ellipse fill="none" stroke="black" cx="74.8" cy="-90" rx="47.1" ry="18"/>
<text text-anchor="middle" x="74.8" y="-86.3" font-family="Times,serif" font-size="14.00">DelayAction</text>
</g>
<!-- b1afc800&#45;25e1&#45;472c&#45;8308&#45;2a1ef1eb84e1&#45;&gt;7290a83e&#45;a80f&#45;4cdb&#45;a1fb&#45;e21e458a0826 -->
<g id="edge2" class="edge">
<title>b1afc800&#45;25e1&#45;472c&#45;8308&#45;2a1ef1eb84e1&#45;&gt;7290a83e&#45;a80f&#45;4cdb&#45;a1fb&#45;e21e458a0826</title>
<path fill="none" stroke="black" d="M74.8,-143.7C74.8,-135.98 74.8,-126.71 74.8,-118.11"/>
<polygon fill="black" stroke="black" points="78.3,-118.1 74.8,-108.1 71.3,-118.1 78.3,-118.1"/>
</g>
<!-- d37aa33c&#45;e853&#45;4fd4&#45;81f4&#45;7b9365c73052 -->
<g id="node5" class="node">
<title>d37aa33c&#45;e853&#45;4fd4&#45;81f4&#45;7b9365c73052</title>
<ellipse fill="none" stroke="black" cx="74.8" cy="-18" rx="59.9" ry="18"/>
<text text-anchor="middle" x="74.8" y="-14.3" font-family="Times,serif" font-size="14.00">ZeroMovement</text>
</g>
<!-- 7290a83e&#45;a80f&#45;4cdb&#45;a1fb&#45;e21e458a0826&#45;&gt;d37aa33c&#45;e853&#45;4fd4&#45;81f4&#45;7b9365c73052 -->
<g id="edge3" class="edge">
<title>7290a83e&#45;a80f&#45;4cdb&#45;a1fb&#45;e21e458a0826&#45;&gt;d37aa33c&#45;e853&#45;4fd4&#45;81f4&#45;7b9365c73052</title>
<path fill="none" stroke="black" d="M74.8,-71.7C74.8,-63.98 74.8,-54.71 74.8,-46.11"/>
<polygon fill="black" stroke="black" points="78.3,-46.1 74.8,-36.1 71.3,-46.1 78.3,-46.1"/>
</g>
<!-- 36d8e56e&#45;fd94&#45;460f&#45;b2d3&#45;7ab61df5d449 -->
<g id="node6" class="node">
<title>36d8e56e&#45;fd94&#45;460f&#45;b2d3&#45;7ab61df5d449</title>
<ellipse fill="none" stroke="black" cx="74.8" cy="-378" rx="34.8" ry="18"/>
<text text-anchor="middle" x="74.8" y="-374.3" font-family="Times,serif" font-size="14.00">WaitArm</text>
</g>
<!-- 36d8e56e&#45;fd94&#45;460f&#45;b2d3&#45;7ab61df5d449&#45;&gt;b9e6d8f6&#45;d765&#45;446d&#45;9c61&#45;1a80be510538 -->
<g id="edge5" class="edge">
<title>36d8e56e&#45;fd94&#45;460f&#45;b2d3&#45;7ab61df5d449&#45;&gt;b9e6d8f6&#45;d765&#45;446d&#45;9c61&#45;1a80be510538</title>
<path fill="none" stroke="black" d="M74.8,-359.7C74.8,-351.98 74.8,-342.71 74.8,-334.11"/>
<polygon fill="black" stroke="black" points="78.3,-334.1 74.8,-324.1 71.3,-334.1 78.3,-334.1"/>
</g>
</g>
</svg>
