<?xml version="1.0" encoding="UTF-8" standalone="no"?>
<!DOCTYPE svg PUBLIC "-//W3C//DTD SVG 1.1//EN"
 "http://www.w3.org/Graphics/SVG/1.1/DTD/svg11.dtd">
<!-- Generated by graphviz version 2.43.0 (0)
 -->
<!-- Title: G Pages: 1 -->
<svg width="158pt" height="404pt"
 viewBox="0.00 0.00 157.61 404.00" xmlns="http://www.w3.org/2000/svg" xmlns:xlink="http://www.w3.org/1999/xlink">
<g id="graph0" class="graph" transform="scale(1 1) rotate(0) translate(4 400)">
<title>G</title>
<polygon fill="transparent" stroke="transparent" points="-4,4 -4,-400 153.61,-400 153.61,4 -4,4"/>
<!-- b8299152&#45;eab0&#45;4ed0&#45;b875&#45;e9a1e003a497 -->
<g id="node1" class="node">
<title>b8299152&#45;eab0&#45;4ed0&#45;b875&#45;e9a1e003a497</title>
<ellipse fill="none" stroke="black" cx="74.8" cy="-306" rx="33.6" ry="18"/>
<text text-anchor="middle" x="74.8" y="-302.3" font-family="Times,serif" font-size="14.00">Descend</text>
</g>
<!-- a12d57bd&#45;5482&#45;4d82&#45;bdc1&#45;f29cd9e8513c -->
<g id="node2" class="node">
<title>a12d57bd&#45;5482&#45;4d82&#45;bdc1&#45;f29cd9e8513c</title>
<ellipse fill="none" stroke="black" cx="74.8" cy="-234" rx="47.1" ry="18"/>
<text text-anchor="middle" x="74.8" y="-230.3" font-family="Times,serif" font-size="14.00">DelayAction</text>
</g>
<!-- b8299152&#45;eab0&#45;4ed0&#45;b875&#45;e9a1e003a497&#45;&gt;a12d57bd&#45;5482&#45;4d82&#45;bdc1&#45;f29cd9e8513c -->
<g id="edge1" class="edge">
<title>b8299152&#45;eab0&#45;4ed0&#45;b875&#45;e9a1e003a497&#45;&gt;a12d57bd&#45;5482&#45;4d82&#45;bdc1&#45;f29cd9e8513c</title>
<path fill="none" stroke="black" d="M74.8,-287.7C74.8,-279.98 74.8,-270.71 74.8,-262.11"/>
<polygon fill="black" stroke="black" points="78.3,-262.1 74.8,-252.1 71.3,-262.1 78.3,-262.1"/>
</g>
<!-- 58cb9fcc&#45;39f0&#45;4c00&#45;bd08&#45;db7180e67e41 -->
<g id="node3" class="node">
<title>58cb9fcc&#45;39f0&#45;4c00&#45;bd08&#45;db7180e67e41</title>
<ellipse fill="none" stroke="black" cx="74.8" cy="-162" rx="74.61" ry="18"/>
<text text-anchor="middle" x="74.8" y="-158.3" font-family="Times,serif" font-size="14.00">StraightMovement</text>
</g>
<!-- a12d57bd&#45;5482&#45;4d82&#45;bdc1&#45;f29cd9e8513c&#45;&gt;58cb9fcc&#45;39f0&#45;4c00&#45;bd08&#45;db7180e67e41 -->
<g id="edge4" class="edge">
<title>a12d57bd&#45;5482&#45;4d82&#45;bdc1&#45;f29cd9e8513c&#45;&gt;58cb9fcc&#45;39f0&#45;4c00&#45;bd08&#45;db7180e67e41</title>
<path fill="none" stroke="black" d="M74.8,-215.7C74.8,-207.98 74.8,-198.71 74.8,-190.11"/>
<polygon fill="black" stroke="black" points="78.3,-190.1 74.8,-180.1 71.3,-190.1 78.3,-190.1"/>
</g>
<!-- 7ac4122b&#45;d9ed&#45;49bf&#45;9c94&#45;1fe436259388 -->
<g id="node4" class="node">
<title>7ac4122b&#45;d9ed&#45;49bf&#45;9c94&#45;1fe436259388</title>
<ellipse fill="none" stroke="black" cx="74.8" cy="-90" rx="47.1" ry="18"/>
<text text-anchor="middle" x="74.8" y="-86.3" font-family="Times,serif" font-size="14.00">DelayAction</text>
</g>
<!-- 58cb9fcc&#45;39f0&#45;4c00&#45;bd08&#45;db7180e67e41&#45;&gt;7ac4122b&#45;d9ed&#45;49bf&#45;9c94&#45;1fe436259388 -->
<g id="edge2" class="edge">
<title>58cb9fcc&#45;39f0&#45;4c00&#45;bd08&#45;db7180e67e41&#45;&gt;7ac4122b&#45;d9ed&#45;49bf&#45;9c94&#45;1fe436259388</title>
<path fill="none" stroke="black" d="M74.8,-143.7C74.8,-135.98 74.8,-126.71 74.8,-118.11"/>
<polygon fill="black" stroke="black" points="78.3,-118.1 74.8,-108.1 71.3,-118.1 78.3,-118.1"/>
</g>
<!-- a170b793&#45;be5c&#45;4902&#45;82e4&#45;f816eeb2c0f0 -->
<g id="node5" class="node">
<title>a170b793&#45;be5c&#45;4902&#45;82e4&#45;f816eeb2c0f0</title>
<ellipse fill="none" stroke="black" cx="74.8" cy="-18" rx="59.9" ry="18"/>
<text text-anchor="middle" x="74.8" y="-14.3" font-family="Times,serif" font-size="14.00">ZeroMovement</text>
</g>
<!-- 7ac4122b&#45;d9ed&#45;49bf&#45;9c94&#45;1fe436259388&#45;&gt;a170b793&#45;be5c&#45;4902&#45;82e4&#45;f816eeb2c0f0 -->
<g id="edge3" class="edge">
<title>7ac4122b&#45;d9ed&#45;49bf&#45;9c94&#45;1fe436259388&#45;&gt;a170b793&#45;be5c&#45;4902&#45;82e4&#45;f816eeb2c0f0</title>
<path fill="none" stroke="black" d="M74.8,-71.7C74.8,-63.98 74.8,-54.71 74.8,-46.11"/>
<polygon fill="black" stroke="black" points="78.3,-46.1 74.8,-36.1 71.3,-46.1 78.3,-46.1"/>
</g>
<!-- 19c88d37&#45;80d4&#45;4a22&#45;9bb6&#45;4e3cf02946ad -->
<g id="node6" class="node">
<title>19c88d37&#45;80d4&#45;4a22&#45;9bb6&#45;4e3cf02946ad</title>
<ellipse fill="none" stroke="black" cx="74.8" cy="-378" rx="34.8" ry="18"/>
<text text-anchor="middle" x="74.8" y="-374.3" font-family="Times,serif" font-size="14.00">WaitArm</text>
</g>
<!-- 19c88d37&#45;80d4&#45;4a22&#45;9bb6&#45;4e3cf02946ad&#45;&gt;b8299152&#45;eab0&#45;4ed0&#45;b875&#45;e9a1e003a497 -->
<g id="edge5" class="edge">
<title>19c88d37&#45;80d4&#45;4a22&#45;9bb6&#45;4e3cf02946ad&#45;&gt;b8299152&#45;eab0&#45;4ed0&#45;b875&#45;e9a1e003a497</title>
<path fill="none" stroke="black" d="M74.8,-359.7C74.8,-351.98 74.8,-342.71 74.8,-334.11"/>
<polygon fill="black" stroke="black" points="78.3,-334.1 74.8,-324.1 71.3,-334.1 78.3,-334.1"/>
</g>
</g>
</svg>
