<?xml version="1.0" encoding="UTF-8" standalone="no"?>
<!DOCTYPE svg PUBLIC "-//W3C//DTD SVG 1.1//EN"
 "http://www.w3.org/Graphics/SVG/1.1/DTD/svg11.dtd">
<!-- Generated by graphviz version 2.43.0 (0)
 -->
<!-- Title: G Pages: 1 -->
<svg width="158pt" height="404pt"
 viewBox="0.00 0.00 157.61 404.00" xmlns="http://www.w3.org/2000/svg" xmlns:xlink="http://www.w3.org/1999/xlink">
<g id="graph0" class="graph" transform="scale(1 1) rotate(0) translate(4 400)">
<title>G</title>
<polygon fill="transparent" stroke="transparent" points="-4,4 -4,-400 153.61,-400 153.61,4 -4,4"/>
<!-- d089a930&#45;18f4&#45;4ba9&#45;a88c&#45;77258765e6fc -->
<g id="node1" class="node">
<title>d089a930&#45;18f4&#45;4ba9&#45;a88c&#45;77258765e6fc</title>
<ellipse fill="none" stroke="black" cx="74.8" cy="-378" rx="34.8" ry="18"/>
<text text-anchor="middle" x="74.8" y="-374.3" font-family="Times,serif" font-size="14.00">WaitArm</text>
</g>
<!-- 4d7d63d0&#45;8551&#45;4eee&#45;9213&#45;ad9db83386a2 -->
<g id="node2" class="node">
<title>4d7d63d0&#45;8551&#45;4eee&#45;9213&#45;ad9db83386a2</title>
<ellipse fill="none" stroke="black" cx="74.8" cy="-306" rx="33.6" ry="18"/>
<text text-anchor="middle" x="74.8" y="-302.3" font-family="Times,serif" font-size="14.00">Descend</text>
</g>
<!-- d089a930&#45;18f4&#45;4ba9&#45;a88c&#45;77258765e6fc&#45;&gt;4d7d63d0&#45;8551&#45;4eee&#45;9213&#45;ad9db83386a2 -->
<g id="edge5" class="edge">
<title>d089a930&#45;18f4&#45;4ba9&#45;a88c&#45;77258765e6fc&#45;&gt;4d7d63d0&#45;8551&#45;4eee&#45;9213&#45;ad9db83386a2</title>
<path fill="none" stroke="black" d="M74.8,-359.7C74.8,-351.98 74.8,-342.71 74.8,-334.11"/>
<polygon fill="black" stroke="black" points="78.3,-334.1 74.8,-324.1 71.3,-334.1 78.3,-334.1"/>
</g>
<!-- 44caaa78&#45;f777&#45;4d2a&#45;aa3e&#45;ef69614d49a4 -->
<g id="node3" class="node">
<title>44caaa78&#45;f777&#45;4d2a&#45;aa3e&#45;ef69614d49a4</title>
<ellipse fill="none" stroke="black" cx="74.8" cy="-234" rx="47.1" ry="18"/>
<text text-anchor="middle" x="74.8" y="-230.3" font-family="Times,serif" font-size="14.00">DelayAction</text>
</g>
<!-- 4d7d63d0&#45;8551&#45;4eee&#45;9213&#45;ad9db83386a2&#45;&gt;44caaa78&#45;f777&#45;4d2a&#45;aa3e&#45;ef69614d49a4 -->
<g id="edge1" class="edge">
<title>4d7d63d0&#45;8551&#45;4eee&#45;9213&#45;ad9db83386a2&#45;&gt;44caaa78&#45;f777&#45;4d2a&#45;aa3e&#45;ef69614d49a4</title>
<path fill="none" stroke="black" d="M74.8,-287.7C74.8,-279.98 74.8,-270.71 74.8,-262.11"/>
<polygon fill="black" stroke="black" points="78.3,-262.1 74.8,-252.1 71.3,-262.1 78.3,-262.1"/>
</g>
<!-- c5360b51&#45;932c&#45;4bb9&#45;bab4&#45;041204e17792 -->
<g id="node4" class="node">
<title>c5360b51&#45;932c&#45;4bb9&#45;bab4&#45;041204e17792</title>
<ellipse fill="none" stroke="black" cx="74.8" cy="-162" rx="74.61" ry="18"/>
<text text-anchor="middle" x="74.8" y="-158.3" font-family="Times,serif" font-size="14.00">StraightMovement</text>
</g>
<!-- 44caaa78&#45;f777&#45;4d2a&#45;aa3e&#45;ef69614d49a4&#45;&gt;c5360b51&#45;932c&#45;4bb9&#45;bab4&#45;041204e17792 -->
<g id="edge4" class="edge">
<title>44caaa78&#45;f777&#45;4d2a&#45;aa3e&#45;ef69614d49a4&#45;&gt;c5360b51&#45;932c&#45;4bb9&#45;bab4&#45;041204e17792</title>
<path fill="none" stroke="black" d="M74.8,-215.7C74.8,-207.98 74.8,-198.71 74.8,-190.11"/>
<polygon fill="black" stroke="black" points="78.3,-190.1 74.8,-180.1 71.3,-190.1 78.3,-190.1"/>
</g>
<!-- b258366b&#45;fe0d&#45;4cd3&#45;9f5d&#45;3f95653bec10 -->
<g id="node5" class="node">
<title>b258366b&#45;fe0d&#45;4cd3&#45;9f5d&#45;3f95653bec10</title>
<ellipse fill="none" stroke="black" cx="74.8" cy="-90" rx="47.1" ry="18"/>
<text text-anchor="middle" x="74.8" y="-86.3" font-family="Times,serif" font-size="14.00">DelayAction</text>
</g>
<!-- c5360b51&#45;932c&#45;4bb9&#45;bab4&#45;041204e17792&#45;&gt;b258366b&#45;fe0d&#45;4cd3&#45;9f5d&#45;3f95653bec10 -->
<g id="edge2" class="edge">
<title>c5360b51&#45;932c&#45;4bb9&#45;bab4&#45;041204e17792&#45;&gt;b258366b&#45;fe0d&#45;4cd3&#45;9f5d&#45;3f95653bec10</title>
<path fill="none" stroke="black" d="M74.8,-143.7C74.8,-135.98 74.8,-126.71 74.8,-118.11"/>
<polygon fill="black" stroke="black" points="78.3,-118.1 74.8,-108.1 71.3,-118.1 78.3,-118.1"/>
</g>
<!-- b3602f1d&#45;5f99&#45;4d41&#45;965a&#45;9023f0eb3ca1 -->
<g id="node6" class="node">
<title>b3602f1d&#45;5f99&#45;4d41&#45;965a&#45;9023f0eb3ca1</title>
<ellipse fill="none" stroke="black" cx="74.8" cy="-18" rx="59.9" ry="18"/>
<text text-anchor="middle" x="74.8" y="-14.3" font-family="Times,serif" font-size="14.00">ZeroMovement</text>
</g>
<!-- b258366b&#45;fe0d&#45;4cd3&#45;9f5d&#45;3f95653bec10&#45;&gt;b3602f1d&#45;5f99&#45;4d41&#45;965a&#45;9023f0eb3ca1 -->
<g id="edge3" class="edge">
<title>b258366b&#45;fe0d&#45;4cd3&#45;9f5d&#45;3f95653bec10&#45;&gt;b3602f1d&#45;5f99&#45;4d41&#45;965a&#45;9023f0eb3ca1</title>
<path fill="none" stroke="black" d="M74.8,-71.7C74.8,-63.98 74.8,-54.71 74.8,-46.11"/>
<polygon fill="black" stroke="black" points="78.3,-46.1 74.8,-36.1 71.3,-46.1 78.3,-46.1"/>
</g>
</g>
</svg>
