<?xml version="1.0" encoding="UTF-8" standalone="no"?>
<!DOCTYPE svg PUBLIC "-//W3C//DTD SVG 1.1//EN"
 "http://www.w3.org/Graphics/SVG/1.1/DTD/svg11.dtd">
<!-- Generated by graphviz version 2.43.0 (0)
 -->
<!-- Title: G Pages: 1 -->
<svg width="158pt" height="404pt"
 viewBox="0.00 0.00 157.61 404.00" xmlns="http://www.w3.org/2000/svg" xmlns:xlink="http://www.w3.org/1999/xlink">
<g id="graph0" class="graph" transform="scale(1 1) rotate(0) translate(4 400)">
<title>G</title>
<polygon fill="transparent" stroke="transparent" points="-4,4 -4,-400 153.61,-400 153.61,4 -4,4"/>
<!-- ae53d50a&#45;b3b3&#45;4a89&#45;8af1&#45;27c88726f26c -->
<g id="node1" class="node">
<title>ae53d50a&#45;b3b3&#45;4a89&#45;8af1&#45;27c88726f26c</title>
<ellipse fill="none" stroke="black" cx="74.8" cy="-306" rx="33.6" ry="18"/>
<text text-anchor="middle" x="74.8" y="-302.3" font-family="Times,serif" font-size="14.00">Descend</text>
</g>
<!-- e5839a5e&#45;5b68&#45;4c61&#45;b53d&#45;2f76e936a2ec -->
<g id="node2" class="node">
<title>e5839a5e&#45;5b68&#45;4c61&#45;b53d&#45;2f76e936a2ec</title>
<ellipse fill="none" stroke="black" cx="74.8" cy="-234" rx="47.1" ry="18"/>
<text text-anchor="middle" x="74.8" y="-230.3" font-family="Times,serif" font-size="14.00">DelayAction</text>
</g>
<!-- ae53d50a&#45;b3b3&#45;4a89&#45;8af1&#45;27c88726f26c&#45;&gt;e5839a5e&#45;5b68&#45;4c61&#45;b53d&#45;2f76e936a2ec -->
<g id="edge1" class="edge">
<title>ae53d50a&#45;b3b3&#45;4a89&#45;8af1&#45;27c88726f26c&#45;&gt;e5839a5e&#45;5b68&#45;4c61&#45;b53d&#45;2f76e936a2ec</title>
<path fill="none" stroke="black" d="M74.8,-287.7C74.8,-279.98 74.8,-270.71 74.8,-262.11"/>
<polygon fill="black" stroke="black" points="78.3,-262.1 74.8,-252.1 71.3,-262.1 78.3,-262.1"/>
</g>
<!-- 2399f2c1&#45;2480&#45;42e4&#45;8326&#45;bbb6b6eaaa2a -->
<g id="node3" class="node">
<title>2399f2c1&#45;2480&#45;42e4&#45;8326&#45;bbb6b6eaaa2a</title>
<ellipse fill="none" stroke="black" cx="74.8" cy="-162" rx="74.61" ry="18"/>
<text text-anchor="middle" x="74.8" y="-158.3" font-family="Times,serif" font-size="14.00">StraightMovement</text>
</g>
<!-- e5839a5e&#45;5b68&#45;4c61&#45;b53d&#45;2f76e936a2ec&#45;&gt;2399f2c1&#45;2480&#45;42e4&#45;8326&#45;bbb6b6eaaa2a -->
<g id="edge4" class="edge">
<title>e5839a5e&#45;5b68&#45;4c61&#45;b53d&#45;2f76e936a2ec&#45;&gt;2399f2c1&#45;2480&#45;42e4&#45;8326&#45;bbb6b6eaaa2a</title>
<path fill="none" stroke="black" d="M74.8,-215.7C74.8,-207.98 74.8,-198.71 74.8,-190.11"/>
<polygon fill="black" stroke="black" points="78.3,-190.1 74.8,-180.1 71.3,-190.1 78.3,-190.1"/>
</g>
<!-- ba3bf422&#45;6c23&#45;4057&#45;96ee&#45;e87c7ada0f65 -->
<g id="node4" class="node">
<title>ba3bf422&#45;6c23&#45;4057&#45;96ee&#45;e87c7ada0f65</title>
<ellipse fill="none" stroke="black" cx="74.8" cy="-90" rx="47.1" ry="18"/>
<text text-anchor="middle" x="74.8" y="-86.3" font-family="Times,serif" font-size="14.00">DelayAction</text>
</g>
<!-- 2399f2c1&#45;2480&#45;42e4&#45;8326&#45;bbb6b6eaaa2a&#45;&gt;ba3bf422&#45;6c23&#45;4057&#45;96ee&#45;e87c7ada0f65 -->
<g id="edge2" class="edge">
<title>2399f2c1&#45;2480&#45;42e4&#45;8326&#45;bbb6b6eaaa2a&#45;&gt;ba3bf422&#45;6c23&#45;4057&#45;96ee&#45;e87c7ada0f65</title>
<path fill="none" stroke="black" d="M74.8,-143.7C74.8,-135.98 74.8,-126.71 74.8,-118.11"/>
<polygon fill="black" stroke="black" points="78.3,-118.1 74.8,-108.1 71.3,-118.1 78.3,-118.1"/>
</g>
<!-- 46d1a449&#45;cdc1&#45;4975&#45;81a0&#45;2c0262e32955 -->
<g id="node5" class="node">
<title>46d1a449&#45;cdc1&#45;4975&#45;81a0&#45;2c0262e32955</title>
<ellipse fill="none" stroke="black" cx="74.8" cy="-18" rx="59.9" ry="18"/>
<text text-anchor="middle" x="74.8" y="-14.3" font-family="Times,serif" font-size="14.00">ZeroMovement</text>
</g>
<!-- ba3bf422&#45;6c23&#45;4057&#45;96ee&#45;e87c7ada0f65&#45;&gt;46d1a449&#45;cdc1&#45;4975&#45;81a0&#45;2c0262e32955 -->
<g id="edge3" class="edge">
<title>ba3bf422&#45;6c23&#45;4057&#45;96ee&#45;e87c7ada0f65&#45;&gt;46d1a449&#45;cdc1&#45;4975&#45;81a0&#45;2c0262e32955</title>
<path fill="none" stroke="black" d="M74.8,-71.7C74.8,-63.98 74.8,-54.71 74.8,-46.11"/>
<polygon fill="black" stroke="black" points="78.3,-46.1 74.8,-36.1 71.3,-46.1 78.3,-46.1"/>
</g>
<!-- 70532e64&#45;af70&#45;4267&#45;b3c9&#45;e81d677871de -->
<g id="node6" class="node">
<title>70532e64&#45;af70&#45;4267&#45;b3c9&#45;e81d677871de</title>
<ellipse fill="none" stroke="black" cx="74.8" cy="-378" rx="34.8" ry="18"/>
<text text-anchor="middle" x="74.8" y="-374.3" font-family="Times,serif" font-size="14.00">WaitArm</text>
</g>
<!-- 70532e64&#45;af70&#45;4267&#45;b3c9&#45;e81d677871de&#45;&gt;ae53d50a&#45;b3b3&#45;4a89&#45;8af1&#45;27c88726f26c -->
<g id="edge5" class="edge">
<title>70532e64&#45;af70&#45;4267&#45;b3c9&#45;e81d677871de&#45;&gt;ae53d50a&#45;b3b3&#45;4a89&#45;8af1&#45;27c88726f26c</title>
<path fill="none" stroke="black" d="M74.8,-359.7C74.8,-351.98 74.8,-342.71 74.8,-334.11"/>
<polygon fill="black" stroke="black" points="78.3,-334.1 74.8,-324.1 71.3,-334.1 78.3,-334.1"/>
</g>
</g>
</svg>
