<?xml version="1.0" encoding="UTF-8" standalone="no"?>
<!DOCTYPE svg PUBLIC "-//W3C//DTD SVG 1.1//EN"
 "http://www.w3.org/Graphics/SVG/1.1/DTD/svg11.dtd">
<!-- Generated by graphviz version 2.43.0 (0)
 -->
<!-- Title: G Pages: 1 -->
<svg width="286pt" height="839pt"
 viewBox="0.00 0.00 286.10 839.00" xmlns="http://www.w3.org/2000/svg" xmlns:xlink="http://www.w3.org/1999/xlink">
<g id="graph0" class="graph" transform="scale(1 1) rotate(0) translate(4 835)">
<title>G</title>
<polygon fill="transparent" stroke="transparent" points="-4,4 -4,-835 282.1,-835 282.1,4 -4,4"/>
<g id="clust1" class="cluster">
<title>cluster_faef9593&#45;4e47&#45;4f87&#45;bd69&#45;9e4f125d854c</title>
<polygon fill="transparent" stroke="blue" stroke-dasharray="5,2" points="30.1,-225 30.1,-823 270.1,-823 270.1,-225 30.1,-225"/>
</g>
<!-- 2333be0e&#45;afc6&#45;434a&#45;946a&#45;12dd42939095 -->
<g id="node1" class="node">
<title>2333be0e&#45;afc6&#45;434a&#45;946a&#45;12dd42939095</title>
<polygon fill="none" stroke="black" stroke-dasharray="5,2" points="232.1,-815 134.1,-815 134.1,-779 232.1,-779 232.1,-815"/>
<text text-anchor="middle" x="183.1" y="-793.3" font-family="Times,serif" font-size="14.00" fill="blue">Concurrent</text>
</g>
<!-- 02449ce0&#45;0204&#45;4bc1&#45;a8c9&#45;821cc34ab489 -->
<g id="node3" class="node">
<title>02449ce0&#45;0204&#45;4bc1&#45;a8c9&#45;821cc34ab489</title>
<ellipse fill="none" stroke="black" cx="104.1" cy="-724" rx="34.8" ry="18"/>
<text text-anchor="middle" x="104.1" y="-720.3" font-family="Times,serif" font-size="14.00">WaitArm</text>
</g>
<!-- 2333be0e&#45;afc6&#45;434a&#45;946a&#45;12dd42939095&#45;&gt;02449ce0&#45;0204&#45;4bc1&#45;a8c9&#45;821cc34ab489 -->
<g id="edge6" class="edge">
<title>2333be0e&#45;afc6&#45;434a&#45;946a&#45;12dd42939095&#45;&gt;02449ce0&#45;0204&#45;4bc1&#45;a8c9&#45;821cc34ab489</title>
<path fill="none" stroke="black" d="M163.98,-778.81C153.22,-769.14 139.68,-756.98 128.2,-746.66"/>
<polygon fill="black" stroke="black" points="130.42,-743.95 120.64,-739.87 125.74,-749.15 130.42,-743.95"/>
</g>
<!-- 42bb0ad0&#45;e8d4&#45;4ffb&#45;a2ff&#45;3f273cc5cf92 -->
<g id="node9" class="node">
<title>42bb0ad0&#45;e8d4&#45;4ffb&#45;a2ff&#45;3f273cc5cf92</title>
<ellipse fill="none" stroke="black" cx="211.1" cy="-670" rx="50.7" ry="18"/>
<text text-anchor="middle" x="211.1" y="-666.3" font-family="Times,serif" font-size="14.00">StartBno055</text>
</g>
<!-- 2333be0e&#45;afc6&#45;434a&#45;946a&#45;12dd42939095&#45;&gt;42bb0ad0&#45;e8d4&#45;4ffb&#45;a2ff&#45;3f273cc5cf92 -->
<g id="edge7" class="edge">
<title>2333be0e&#45;afc6&#45;434a&#45;946a&#45;12dd42939095&#45;&gt;42bb0ad0&#45;e8d4&#45;4ffb&#45;a2ff&#45;3f273cc5cf92</title>
<path fill="none" stroke="black" d="M186.94,-778.88C191.6,-758.05 199.54,-722.64 205.03,-698.09"/>
<polygon fill="black" stroke="black" points="208.45,-698.84 207.22,-688.31 201.62,-697.31 208.45,-698.84"/>
</g>
<!-- a00c6e15&#45;aa23&#45;4cbc&#45;97f0&#45;f8e4584d036c -->
<g id="node2" class="node">
<title>a00c6e15&#45;aa23&#45;4cbc&#45;97f0&#45;f8e4584d036c</title>
<polygon fill="none" stroke="black" stroke-dasharray="5,2" points="214.6,-269 129.6,-269 129.6,-233 214.6,-233 214.6,-269"/>
<text text-anchor="middle" x="172.1" y="-247.3" font-family="Times,serif" font-size="14.00" fill="blue">Converge</text>
</g>
<!-- 11afc24c&#45;8d2d&#45;4afa&#45;af1a&#45;62b0fec10282 -->
<g id="node10" class="node">
<title>11afc24c&#45;8d2d&#45;4afa&#45;af1a&#45;62b0fec10282</title>
<ellipse fill="none" stroke="black" cx="172.1" cy="-178" rx="69.71" ry="18"/>
<text text-anchor="middle" x="172.1" y="-174.3" font-family="Times,serif" font-size="14.00">VisionNormOffset</text>
</g>
<!-- a00c6e15&#45;aa23&#45;4cbc&#45;97f0&#45;f8e4584d036c&#45;&gt;11afc24c&#45;8d2d&#45;4afa&#45;af1a&#45;62b0fec10282 -->
<g id="edge13" class="edge">
<title>a00c6e15&#45;aa23&#45;4cbc&#45;97f0&#45;f8e4584d036c&#45;&gt;11afc24c&#45;8d2d&#45;4afa&#45;af1a&#45;62b0fec10282</title>
<path fill="none" stroke="black" d="M172.1,-232.81C172.1,-224.79 172.1,-215.05 172.1,-206.07"/>
<polygon fill="black" stroke="black" points="175.6,-206.03 172.1,-196.03 168.6,-206.03 175.6,-206.03"/>
</g>
<!-- 5d62e0bd&#45;b49b&#45;4e1c&#45;84bf&#45;118f9e0989c5 -->
<g id="node4" class="node">
<title>5d62e0bd&#45;b49b&#45;4e1c&#45;84bf&#45;118f9e0989c5</title>
<ellipse fill="none" stroke="black" cx="110.1" cy="-616" rx="33.6" ry="18"/>
<text text-anchor="middle" x="110.1" y="-612.3" font-family="Times,serif" font-size="14.00">Descend</text>
</g>
<!-- 02449ce0&#45;0204&#45;4bc1&#45;a8c9&#45;821cc34ab489&#45;&gt;5d62e0bd&#45;b49b&#45;4e1c&#45;84bf&#45;118f9e0989c5 -->
<g id="edge5" class="edge">
<title>02449ce0&#45;0204&#45;4bc1&#45;a8c9&#45;821cc34ab489&#45;&gt;5d62e0bd&#45;b49b&#45;4e1c&#45;84bf&#45;118f9e0989c5</title>
<path fill="none" stroke="black" d="M105.07,-705.97C106.01,-689.38 107.45,-663.88 108.55,-644.43"/>
<polygon fill="black" stroke="black" points="112.05,-644.52 109.12,-634.34 105.06,-644.13 112.05,-644.52"/>
</g>
<!-- 3e39c8cf&#45;cd89&#45;4e37&#45;8bf5&#45;c266028dab56 -->
<g id="node5" class="node">
<title>3e39c8cf&#45;cd89&#45;4e37&#45;8bf5&#45;c266028dab56</title>
<ellipse fill="none" stroke="black" cx="110.1" cy="-543" rx="47.1" ry="18"/>
<text text-anchor="middle" x="110.1" y="-539.3" font-family="Times,serif" font-size="14.00">DelayAction</text>
</g>
<!-- 5d62e0bd&#45;b49b&#45;4e1c&#45;84bf&#45;118f9e0989c5&#45;&gt;3e39c8cf&#45;cd89&#45;4e37&#45;8bf5&#45;c266028dab56 -->
<g id="edge1" class="edge">
<title>5d62e0bd&#45;b49b&#45;4e1c&#45;84bf&#45;118f9e0989c5&#45;&gt;3e39c8cf&#45;cd89&#45;4e37&#45;8bf5&#45;c266028dab56</title>
<path fill="none" stroke="black" d="M110.1,-597.81C110.1,-589.79 110.1,-580.05 110.1,-571.07"/>
<polygon fill="black" stroke="black" points="113.6,-571.03 110.1,-561.03 106.6,-571.03 113.6,-571.03"/>
</g>
<!-- 1e644878&#45;3f67&#45;4b64&#45;8ed5&#45;d1aca4e80486 -->
<g id="node6" class="node">
<title>1e644878&#45;3f67&#45;4b64&#45;8ed5&#45;d1aca4e80486</title>
<ellipse fill="none" stroke="black" cx="113.1" cy="-470" rx="74.61" ry="18"/>
<text text-anchor="middle" x="113.1" y="-466.3" font-family="Times,serif" font-size="14.00">StraightMovement</text>
</g>
<!-- 3e39c8cf&#45;cd89&#45;4e37&#45;8bf5&#45;c266028dab56&#45;&gt;1e644878&#45;3f67&#45;4b64&#45;8ed5&#45;d1aca4e80486 -->
<g id="edge4" class="edge">
<title>3e39c8cf&#45;cd89&#45;4e37&#45;8bf5&#45;c266028dab56&#45;&gt;1e644878&#45;3f67&#45;4b64&#45;8ed5&#45;d1aca4e80486</title>
<path fill="none" stroke="black" d="M110.83,-524.81C111.17,-516.79 111.58,-507.05 111.96,-498.07"/>
<polygon fill="black" stroke="black" points="115.46,-498.17 112.38,-488.03 108.46,-497.87 115.46,-498.17"/>
</g>
<!-- 70f93a03&#45;b9cb&#45;459a&#45;9241&#45;dff75ab0ea5f -->
<g id="node7" class="node">
<title>70f93a03&#45;b9cb&#45;459a&#45;9241&#45;dff75ab0ea5f</title>
<ellipse fill="none" stroke="black" cx="115.1" cy="-397" rx="47.1" ry="18"/>
<text text-anchor="middle" x="115.1" y="-393.3" font-family="Times,serif" font-size="14.00">DelayAction</text>
</g>
<!-- 1e644878&#45;3f67&#45;4b64&#45;8ed5&#45;d1aca4e80486&#45;&gt;70f93a03&#45;b9cb&#45;459a&#45;9241&#45;dff75ab0ea5f -->
<g id="edge2" class="edge">
<title>1e644878&#45;3f67&#45;4b64&#45;8ed5&#45;d1aca4e80486&#45;&gt;70f93a03&#45;b9cb&#45;459a&#45;9241&#45;dff75ab0ea5f</title>
<path fill="none" stroke="black" d="M113.59,-451.81C113.81,-443.79 114.09,-434.05 114.34,-425.07"/>
<polygon fill="black" stroke="black" points="117.84,-425.12 114.62,-415.03 110.84,-424.93 117.84,-425.12"/>
</g>
<!-- 7e01a74c&#45;738f&#45;4391&#45;97bb&#45;9b928e89ab70 -->
<g id="node8" class="node">
<title>7e01a74c&#45;738f&#45;4391&#45;97bb&#45;9b928e89ab70</title>
<ellipse fill="none" stroke="black" cx="124.1" cy="-324" rx="59.9" ry="18"/>
<text text-anchor="middle" x="124.1" y="-320.3" font-family="Times,serif" font-size="14.00">ZeroMovement</text>
</g>
<!-- 70f93a03&#45;b9cb&#45;459a&#45;9241&#45;dff75ab0ea5f&#45;&gt;7e01a74c&#45;738f&#45;4391&#45;97bb&#45;9b928e89ab70 -->
<g id="edge3" class="edge">
<title>70f93a03&#45;b9cb&#45;459a&#45;9241&#45;dff75ab0ea5f&#45;&gt;7e01a74c&#45;738f&#45;4391&#45;97bb&#45;9b928e89ab70</title>
<path fill="none" stroke="black" d="M117.28,-378.81C118.3,-370.79 119.53,-361.05 120.67,-352.07"/>
<polygon fill="black" stroke="black" points="124.16,-352.39 121.94,-342.03 117.21,-351.51 124.16,-352.39"/>
</g>
<!-- 7e01a74c&#45;738f&#45;4391&#45;97bb&#45;9b928e89ab70&#45;&gt;a00c6e15&#45;aa23&#45;4cbc&#45;97f0&#45;f8e4584d036c -->
<g id="edge8" class="edge">
<title>7e01a74c&#45;738f&#45;4391&#45;97bb&#45;9b928e89ab70&#45;&gt;a00c6e15&#45;aa23&#45;4cbc&#45;97f0&#45;f8e4584d036c</title>
<path fill="none" stroke="black" d="M135.48,-306.17C141.25,-297.63 148.39,-287.08 154.82,-277.56"/>
<polygon fill="black" stroke="black" points="157.77,-279.44 160.48,-269.2 151.97,-275.52 157.77,-279.44"/>
</g>
<!-- 42bb0ad0&#45;e8d4&#45;4ffb&#45;a2ff&#45;3f273cc5cf92&#45;&gt;a00c6e15&#45;aa23&#45;4cbc&#45;97f0&#45;f8e4584d036c -->
<g id="edge9" class="edge">
<title>42bb0ad0&#45;e8d4&#45;4ffb&#45;a2ff&#45;3f273cc5cf92&#45;&gt;a00c6e15&#45;aa23&#45;4cbc&#45;97f0&#45;f8e4584d036c</title>
<path fill="none" stroke="black" d="M226.92,-652.8C241.57,-636.03 261.1,-608.36 261.1,-580 261.1,-580 261.1,-580 261.1,-323 261.1,-300.36 243.28,-283.76 223.59,-272.34"/>
<polygon fill="black" stroke="black" points="225.24,-269.25 214.78,-267.6 221.93,-275.42 225.24,-269.25"/>
</g>
<!-- 7705dbf6&#45;ea82&#45;47c5&#45;af5c&#45;900fdc55c7a0 -->
<g id="node11" class="node">
<title>7705dbf6&#45;ea82&#45;47c5&#45;af5c&#45;900fdc55c7a0</title>
<ellipse fill="none" stroke="black" cx="67.1" cy="-91" rx="67.2" ry="18"/>
<text text-anchor="middle" x="67.1" y="-87.3" font-family="Times,serif" font-size="14.00">AdjustMovement</text>
</g>
<!-- 11afc24c&#45;8d2d&#45;4afa&#45;af1a&#45;62b0fec10282&#45;&gt;7705dbf6&#45;ea82&#45;47c5&#45;af5c&#45;900fdc55c7a0 -->
<g id="edge10" class="edge">
<title>11afc24c&#45;8d2d&#45;4afa&#45;af1a&#45;62b0fec10282&#45;&gt;7705dbf6&#45;ea82&#45;47c5&#45;af5c&#45;900fdc55c7a0</title>
<path fill="none" stroke="purple" d="M151.86,-160.61C135.73,-147.56 112.98,-129.14 95.11,-114.67"/>
<polygon fill="purple" stroke="purple" points="97.26,-111.91 87.29,-108.34 92.86,-117.35 97.26,-111.91"/>
<text text-anchor="middle" x="161.6" y="-130.8" font-family="Times,serif" font-size="14.00" fill="purple">Pass Data</text>
</g>
<!-- c02e0132&#45;7f38&#45;4e92&#45;b0ff&#45;0415cb6dee26 -->
<g id="node12" class="node">
<title>c02e0132&#45;7f38&#45;4e92&#45;b0ff&#45;0415cb6dee26</title>
<polygon fill="none" stroke="black" points="172.1,-36 106.92,-18 172.1,0 237.28,-18 172.1,-36"/>
<text text-anchor="middle" x="172.1" y="-14.3" font-family="Times,serif" font-size="14.00">AlwaysTrue</text>
</g>
<!-- 7705dbf6&#45;ea82&#45;47c5&#45;af5c&#45;900fdc55c7a0&#45;&gt;c02e0132&#45;7f38&#45;4e92&#45;b0ff&#45;0415cb6dee26 -->
<g id="edge11" class="edge">
<title>7705dbf6&#45;ea82&#45;47c5&#45;af5c&#45;900fdc55c7a0&#45;&gt;c02e0132&#45;7f38&#45;4e92&#45;b0ff&#45;0415cb6dee26</title>
<path fill="none" stroke="black" d="M90.67,-74.07C107.04,-62.99 128.87,-48.23 145.81,-36.78"/>
<polygon fill="black" stroke="black" points="147.85,-39.63 154.17,-31.13 143.92,-33.83 147.85,-39.63"/>
</g>
<!-- c02e0132&#45;7f38&#45;4e92&#45;b0ff&#45;0415cb6dee26&#45;&gt;11afc24c&#45;8d2d&#45;4afa&#45;af1a&#45;62b0fec10282 -->
<g id="edge12" class="edge">
<title>c02e0132&#45;7f38&#45;4e92&#45;b0ff&#45;0415cb6dee26&#45;&gt;11afc24c&#45;8d2d&#45;4afa&#45;af1a&#45;62b0fec10282</title>
<path fill="none" stroke="black" d="M184.04,-33.04C202.28,-56.29 233.17,-104 215.1,-142 212.99,-146.44 210.01,-150.5 206.6,-154.16"/>
<polygon fill="black" stroke="black" points="204.07,-151.73 199.1,-161.09 208.82,-156.87 204.07,-151.73"/>
<text text-anchor="middle" x="236.1" y="-87.3" font-family="Times,serif" font-size="14.00">True</text>
</g>
</g>
</svg>
