<?xml version="1.0" encoding="UTF-8" standalone="no"?>
<!DOCTYPE svg PUBLIC "-//W3C//DTD SVG 1.1//EN"
 "http://www.w3.org/Graphics/SVG/1.1/DTD/svg11.dtd">
<!-- Generated by graphviz version 2.43.0 (0)
 -->
<!-- Title: G Pages: 1 -->
<svg width="318pt" height="987pt"
 viewBox="0.00 0.00 318.29 987.00" xmlns="http://www.w3.org/2000/svg" xmlns:xlink="http://www.w3.org/1999/xlink">
<g id="graph0" class="graph" transform="scale(1 1) rotate(0) translate(4 983)">
<title>G</title>
<polygon fill="transparent" stroke="transparent" points="-4,4 -4,-983 314.29,-983 314.29,4 -4,4"/>
<!-- c05db800&#45;50ff&#45;494e&#45;af0a&#45;52991c6093b7 -->
<g id="node1" class="node">
<title>c05db800&#45;50ff&#45;494e&#45;af0a&#45;52991c6093b7</title>
<polygon fill="none" stroke="black" points="65.34,-906 0.16,-888 65.34,-870 130.52,-888 65.34,-906"/>
<text text-anchor="middle" x="65.34" y="-884.3" font-family="Times,serif" font-size="14.00">AlwaysTrue</text>
</g>
<!-- e11849a7&#45;895a&#45;4cf9&#45;80be&#45;e4cadfead439 -->
<g id="node11" class="node">
<title>e11849a7&#45;895a&#45;4cf9&#45;80be&#45;e4cadfead439</title>
<ellipse fill="none" stroke="black" cx="103.34" cy="-801" rx="46.5" ry="18"/>
<text text-anchor="middle" x="103.34" y="-797.3" font-family="Times,serif" font-size="14.00">VisionNorm</text>
</g>
<!-- c05db800&#45;50ff&#45;494e&#45;af0a&#45;52991c6093b7&#45;&gt;e11849a7&#45;895a&#45;4cf9&#45;80be&#45;e4cadfead439 -->
<g id="edge10" class="edge">
<title>c05db800&#45;50ff&#45;494e&#45;af0a&#45;52991c6093b7&#45;&gt;e11849a7&#45;895a&#45;4cf9&#45;80be&#45;e4cadfead439</title>
<path fill="none" stroke="black" d="M72.13,-871.8C77.54,-859.7 85.25,-842.47 91.65,-828.16"/>
<polygon fill="black" stroke="black" points="94.94,-829.37 95.82,-818.81 88.55,-826.51 94.94,-829.37"/>
<text text-anchor="middle" x="104.34" y="-840.8" font-family="Times,serif" font-size="14.00">True</text>
</g>
<!-- f349b310&#45;e912&#45;4ac8&#45;910d&#45;edc4fd7b1196 -->
<g id="node2" class="node">
<title>f349b310&#45;e912&#45;4ac8&#45;910d&#45;edc4fd7b1196</title>
<ellipse fill="none" stroke="black" cx="103.34" cy="-105" rx="27" ry="18"/>
<text text-anchor="middle" x="103.34" y="-101.3" font-family="Times,serif" font-size="14.00">FlatX</text>
</g>
<!-- c54e6f48&#45;749e&#45;4c1a&#45;a02b&#45;d2418a49cbcd -->
<g id="node3" class="node">
<title>c54e6f48&#45;749e&#45;4c1a&#45;a02b&#45;d2418a49cbcd</title>
<ellipse fill="none" stroke="black" cx="103.34" cy="-18" rx="80.11" ry="18"/>
<text text-anchor="middle" x="103.34" y="-14.3" font-family="Times,serif" font-size="14.00">Stability2Movement</text>
</g>
<!-- f349b310&#45;e912&#45;4ac8&#45;910d&#45;edc4fd7b1196&#45;&gt;c54e6f48&#45;749e&#45;4c1a&#45;a02b&#45;d2418a49cbcd -->
<g id="edge1" class="edge">
<title>f349b310&#45;e912&#45;4ac8&#45;910d&#45;edc4fd7b1196&#45;&gt;c54e6f48&#45;749e&#45;4c1a&#45;a02b&#45;d2418a49cbcd</title>
<path fill="none" stroke="purple" d="M103.34,-86.8C103.34,-75.16 103.34,-59.55 103.34,-46.24"/>
<polygon fill="purple" stroke="purple" points="106.84,-46.18 103.34,-36.18 99.84,-46.18 106.84,-46.18"/>
<text text-anchor="middle" x="138.84" y="-57.8" font-family="Times,serif" font-size="14.00" fill="purple">Pass Data</text>
</g>
<!-- 7609d8b1&#45;c22a&#45;47c6&#45;bf3a&#45;c9e977b83dd5 -->
<g id="node4" class="node">
<title>7609d8b1&#45;c22a&#45;47c6&#45;bf3a&#45;c9e977b83dd5</title>
<ellipse fill="none" stroke="black" cx="103.34" cy="-192" rx="27" ry="18"/>
<text text-anchor="middle" x="103.34" y="-188.3" font-family="Times,serif" font-size="14.00">StripY</text>
</g>
<!-- 7609d8b1&#45;c22a&#45;47c6&#45;bf3a&#45;c9e977b83dd5&#45;&gt;f349b310&#45;e912&#45;4ac8&#45;910d&#45;edc4fd7b1196 -->
<g id="edge2" class="edge">
<title>7609d8b1&#45;c22a&#45;47c6&#45;bf3a&#45;c9e977b83dd5&#45;&gt;f349b310&#45;e912&#45;4ac8&#45;910d&#45;edc4fd7b1196</title>
<path fill="none" stroke="purple" d="M103.34,-173.8C103.34,-162.16 103.34,-146.55 103.34,-133.24"/>
<polygon fill="purple" stroke="purple" points="106.84,-133.18 103.34,-123.18 99.84,-133.18 106.84,-133.18"/>
<text text-anchor="middle" x="138.84" y="-144.8" font-family="Times,serif" font-size="14.00" fill="purple">Pass Data</text>
</g>
<!-- ce20fc52&#45;60a4&#45;4304&#45;a44c&#45;a596f69da9fe -->
<g id="node5" class="node">
<title>ce20fc52&#45;60a4&#45;4304&#45;a44c&#45;a596f69da9fe</title>
<ellipse fill="none" stroke="black" cx="103.34" cy="-279" rx="52.6" ry="18"/>
<text text-anchor="middle" x="103.34" y="-275.3" font-family="Times,serif" font-size="14.00">Anon Closure</text>
</g>
<!-- ce20fc52&#45;60a4&#45;4304&#45;a44c&#45;a596f69da9fe&#45;&gt;7609d8b1&#45;c22a&#45;47c6&#45;bf3a&#45;c9e977b83dd5 -->
<g id="edge3" class="edge">
<title>ce20fc52&#45;60a4&#45;4304&#45;a44c&#45;a596f69da9fe&#45;&gt;7609d8b1&#45;c22a&#45;47c6&#45;bf3a&#45;c9e977b83dd5</title>
<path fill="none" stroke="purple" d="M103.34,-260.8C103.34,-249.16 103.34,-233.55 103.34,-220.24"/>
<polygon fill="purple" stroke="purple" points="106.84,-220.18 103.34,-210.18 99.84,-220.18 106.84,-220.18"/>
<text text-anchor="middle" x="138.84" y="-231.8" font-family="Times,serif" font-size="14.00" fill="purple">Pass Data</text>
</g>
<!-- b52177f4&#45;1646&#45;411f&#45;83ef&#45;67c93b065fbc -->
<g id="node6" class="node">
<title>b52177f4&#45;1646&#45;411f&#45;83ef&#45;67c93b065fbc</title>
<ellipse fill="none" stroke="black" cx="103.34" cy="-366" rx="51.3" ry="18"/>
<text text-anchor="middle" x="103.34" y="-362.3" font-family="Times,serif" font-size="14.00">OffsetToPose</text>
</g>
<!-- b52177f4&#45;1646&#45;411f&#45;83ef&#45;67c93b065fbc&#45;&gt;ce20fc52&#45;60a4&#45;4304&#45;a44c&#45;a596f69da9fe -->
<g id="edge4" class="edge">
<title>b52177f4&#45;1646&#45;411f&#45;83ef&#45;67c93b065fbc&#45;&gt;ce20fc52&#45;60a4&#45;4304&#45;a44c&#45;a596f69da9fe</title>
<path fill="none" stroke="purple" d="M103.34,-347.8C103.34,-336.16 103.34,-320.55 103.34,-307.24"/>
<polygon fill="purple" stroke="purple" points="106.84,-307.18 103.34,-297.18 99.84,-307.18 106.84,-307.18"/>
<text text-anchor="middle" x="138.84" y="-318.8" font-family="Times,serif" font-size="14.00" fill="purple">Pass Data</text>
</g>
<!-- 8020c557&#45;f1e6&#45;4b39&#45;bc12&#45;ba737820fa1b -->
<g id="node7" class="node">
<title>8020c557&#45;f1e6&#45;4b39&#45;bc12&#45;ba737820fa1b</title>
<ellipse fill="none" stroke="black" cx="103.34" cy="-453" rx="32.4" ry="18"/>
<text text-anchor="middle" x="103.34" y="-449.3" font-family="Times,serif" font-size="14.00">Average</text>
</g>
<!-- 8020c557&#45;f1e6&#45;4b39&#45;bc12&#45;ba737820fa1b&#45;&gt;b52177f4&#45;1646&#45;411f&#45;83ef&#45;67c93b065fbc -->
<g id="edge5" class="edge">
<title>8020c557&#45;f1e6&#45;4b39&#45;bc12&#45;ba737820fa1b&#45;&gt;b52177f4&#45;1646&#45;411f&#45;83ef&#45;67c93b065fbc</title>
<path fill="none" stroke="purple" d="M103.34,-434.8C103.34,-423.16 103.34,-407.55 103.34,-394.24"/>
<polygon fill="purple" stroke="purple" points="106.84,-394.18 103.34,-384.18 99.84,-394.18 106.84,-394.18"/>
<text text-anchor="middle" x="138.84" y="-405.8" font-family="Times,serif" font-size="14.00" fill="purple">Pass Data</text>
</g>
<!-- c0462aae&#45;286d&#45;462d&#45;9ee8&#45;f19063a69c5e -->
<g id="node8" class="node">
<title>c0462aae&#45;286d&#45;462d&#45;9ee8&#45;f19063a69c5e</title>
<ellipse fill="none" stroke="black" cx="103.34" cy="-540" rx="61.1" ry="18"/>
<text text-anchor="middle" x="103.34" y="-536.3" font-family="Times,serif" font-size="14.00">ExtractPosition</text>
</g>
<!-- c0462aae&#45;286d&#45;462d&#45;9ee8&#45;f19063a69c5e&#45;&gt;8020c557&#45;f1e6&#45;4b39&#45;bc12&#45;ba737820fa1b -->
<g id="edge6" class="edge">
<title>c0462aae&#45;286d&#45;462d&#45;9ee8&#45;f19063a69c5e&#45;&gt;8020c557&#45;f1e6&#45;4b39&#45;bc12&#45;ba737820fa1b</title>
<path fill="none" stroke="purple" d="M103.34,-521.8C103.34,-510.16 103.34,-494.55 103.34,-481.24"/>
<polygon fill="purple" stroke="purple" points="106.84,-481.18 103.34,-471.18 99.84,-481.18 106.84,-481.18"/>
<text text-anchor="middle" x="138.84" y="-492.8" font-family="Times,serif" font-size="14.00" fill="purple">Pass Data</text>
</g>
<!-- 2cb32438&#45;09dc&#45;447a&#45;a5eb&#45;2c5dae53231c -->
<g id="node9" class="node">
<title>2cb32438&#45;09dc&#45;447a&#45;a5eb&#45;2c5dae53231c</title>
<ellipse fill="none" stroke="black" cx="103.34" cy="-627" rx="27" ry="18"/>
<text text-anchor="middle" x="103.34" y="-623.3" font-family="Times,serif" font-size="14.00">ToVec</text>
</g>
<!-- 2cb32438&#45;09dc&#45;447a&#45;a5eb&#45;2c5dae53231c&#45;&gt;c0462aae&#45;286d&#45;462d&#45;9ee8&#45;f19063a69c5e -->
<g id="edge7" class="edge">
<title>2cb32438&#45;09dc&#45;447a&#45;a5eb&#45;2c5dae53231c&#45;&gt;c0462aae&#45;286d&#45;462d&#45;9ee8&#45;f19063a69c5e</title>
<path fill="none" stroke="purple" d="M103.34,-608.8C103.34,-597.16 103.34,-581.55 103.34,-568.24"/>
<polygon fill="purple" stroke="purple" points="106.84,-568.18 103.34,-558.18 99.84,-568.18 106.84,-568.18"/>
<text text-anchor="middle" x="138.84" y="-579.8" font-family="Times,serif" font-size="14.00" fill="purple">Pass Data</text>
</g>
<!-- 0358be83&#45;77fe&#45;49bd&#45;837b&#45;0aac8db48672 -->
<g id="node10" class="node">
<title>0358be83&#45;77fe&#45;49bd&#45;837b&#45;0aac8db48672</title>
<ellipse fill="none" stroke="black" cx="103.34" cy="-714" rx="45.2" ry="18"/>
<text text-anchor="middle" x="103.34" y="-710.3" font-family="Times,serif" font-size="14.00">Detect true</text>
</g>
<!-- 0358be83&#45;77fe&#45;49bd&#45;837b&#45;0aac8db48672&#45;&gt;2cb32438&#45;09dc&#45;447a&#45;a5eb&#45;2c5dae53231c -->
<g id="edge8" class="edge">
<title>0358be83&#45;77fe&#45;49bd&#45;837b&#45;0aac8db48672&#45;&gt;2cb32438&#45;09dc&#45;447a&#45;a5eb&#45;2c5dae53231c</title>
<path fill="none" stroke="purple" d="M103.34,-695.8C103.34,-684.16 103.34,-668.55 103.34,-655.24"/>
<polygon fill="purple" stroke="purple" points="106.84,-655.18 103.34,-645.18 99.84,-655.18 106.84,-655.18"/>
<text text-anchor="middle" x="138.84" y="-666.8" font-family="Times,serif" font-size="14.00" fill="purple">Pass Data</text>
</g>
<!-- e11849a7&#45;895a&#45;4cf9&#45;80be&#45;e4cadfead439&#45;&gt;0358be83&#45;77fe&#45;49bd&#45;837b&#45;0aac8db48672 -->
<g id="edge9" class="edge">
<title>e11849a7&#45;895a&#45;4cf9&#45;80be&#45;e4cadfead439&#45;&gt;0358be83&#45;77fe&#45;49bd&#45;837b&#45;0aac8db48672</title>
<path fill="none" stroke="purple" d="M103.34,-782.8C103.34,-771.16 103.34,-755.55 103.34,-742.24"/>
<polygon fill="purple" stroke="purple" points="106.84,-742.18 103.34,-732.18 99.84,-742.18 106.84,-742.18"/>
<text text-anchor="middle" x="138.84" y="-753.8" font-family="Times,serif" font-size="14.00" fill="purple">Pass Data</text>
</g>
<!-- adcda46d&#45;e504&#45;4c00&#45;ab84&#45;72ac88e5798b -->
<g id="node12" class="node">
<title>adcda46d&#45;e504&#45;4c00&#45;ab84&#45;72ac88e5798b</title>
<ellipse fill="none" stroke="black" cx="250.34" cy="-888" rx="47.1" ry="18"/>
<text text-anchor="middle" x="250.34" y="-884.3" font-family="Times,serif" font-size="14.00">DelayAction</text>
</g>
<!-- adcda46d&#45;e504&#45;4c00&#45;ab84&#45;72ac88e5798b&#45;&gt;e11849a7&#45;895a&#45;4cf9&#45;80be&#45;e4cadfead439 -->
<g id="edge11" class="edge">
<title>adcda46d&#45;e504&#45;4c00&#45;ab84&#45;72ac88e5798b&#45;&gt;e11849a7&#45;895a&#45;4cf9&#45;80be&#45;e4cadfead439</title>
<path fill="none" stroke="black" d="M225.4,-872.58C201.12,-858.54 164.03,-837.09 137.1,-821.52"/>
<polygon fill="black" stroke="black" points="138.81,-818.47 128.4,-816.49 135.3,-824.53 138.81,-818.47"/>
</g>
<!-- d02e0757&#45;e9ca&#45;475f&#45;bf00&#45;9fabd41778bd -->
<g id="node13" class="node">
<title>d02e0757&#45;e9ca&#45;475f&#45;bf00&#45;9fabd41778bd</title>
<ellipse fill="none" stroke="black" cx="250.34" cy="-961" rx="59.9" ry="18"/>
<text text-anchor="middle" x="250.34" y="-957.3" font-family="Times,serif" font-size="14.00">ZeroMovement</text>
</g>
<!-- d02e0757&#45;e9ca&#45;475f&#45;bf00&#45;9fabd41778bd&#45;&gt;adcda46d&#45;e504&#45;4c00&#45;ab84&#45;72ac88e5798b -->
<g id="edge12" class="edge">
<title>d02e0757&#45;e9ca&#45;475f&#45;bf00&#45;9fabd41778bd&#45;&gt;adcda46d&#45;e504&#45;4c00&#45;ab84&#45;72ac88e5798b</title>
<path fill="none" stroke="black" d="M250.34,-942.81C250.34,-934.79 250.34,-925.05 250.34,-916.07"/>
<polygon fill="black" stroke="black" points="253.84,-916.03 250.34,-906.03 246.84,-916.03 253.84,-916.03"/>
</g>
</g>
</svg>
