<?xml version="1.0" encoding="UTF-8" standalone="no"?>
<!DOCTYPE svg PUBLIC "-//W3C//DTD SVG 1.1//EN"
 "http://www.w3.org/Graphics/SVG/1.1/DTD/svg11.dtd">
<!-- Generated by graphviz version 2.43.0 (0)
 -->
<!-- Title: G Pages: 1 -->
<svg width="158pt" height="404pt"
 viewBox="0.00 0.00 157.61 404.00" xmlns="http://www.w3.org/2000/svg" xmlns:xlink="http://www.w3.org/1999/xlink">
<g id="graph0" class="graph" transform="scale(1 1) rotate(0) translate(4 400)">
<title>G</title>
<polygon fill="transparent" stroke="transparent" points="-4,4 -4,-400 153.61,-400 153.61,4 -4,4"/>
<!-- dd59adbc&#45;3c72&#45;4a2d&#45;8960&#45;7b26595887c9 -->
<g id="node1" class="node">
<title>dd59adbc&#45;3c72&#45;4a2d&#45;8960&#45;7b26595887c9</title>
<ellipse fill="none" stroke="black" cx="74.8" cy="-306" rx="33.6" ry="18"/>
<text text-anchor="middle" x="74.8" y="-302.3" font-family="Times,serif" font-size="14.00">Descend</text>
</g>
<!-- 423b4971&#45;f914&#45;4de1&#45;84a9&#45;940d8d182939 -->
<g id="node2" class="node">
<title>423b4971&#45;f914&#45;4de1&#45;84a9&#45;940d8d182939</title>
<ellipse fill="none" stroke="black" cx="74.8" cy="-234" rx="47.1" ry="18"/>
<text text-anchor="middle" x="74.8" y="-230.3" font-family="Times,serif" font-size="14.00">DelayAction</text>
</g>
<!-- dd59adbc&#45;3c72&#45;4a2d&#45;8960&#45;7b26595887c9&#45;&gt;423b4971&#45;f914&#45;4de1&#45;84a9&#45;940d8d182939 -->
<g id="edge1" class="edge">
<title>dd59adbc&#45;3c72&#45;4a2d&#45;8960&#45;7b26595887c9&#45;&gt;423b4971&#45;f914&#45;4de1&#45;84a9&#45;940d8d182939</title>
<path fill="none" stroke="black" d="M74.8,-287.7C74.8,-279.98 74.8,-270.71 74.8,-262.11"/>
<polygon fill="black" stroke="black" points="78.3,-262.1 74.8,-252.1 71.3,-262.1 78.3,-262.1"/>
</g>
<!-- ac3d5562&#45;6250&#45;4f11&#45;96ff&#45;ea62185263ec -->
<g id="node3" class="node">
<title>ac3d5562&#45;6250&#45;4f11&#45;96ff&#45;ea62185263ec</title>
<ellipse fill="none" stroke="black" cx="74.8" cy="-162" rx="74.61" ry="18"/>
<text text-anchor="middle" x="74.8" y="-158.3" font-family="Times,serif" font-size="14.00">StraightMovement</text>
</g>
<!-- 423b4971&#45;f914&#45;4de1&#45;84a9&#45;940d8d182939&#45;&gt;ac3d5562&#45;6250&#45;4f11&#45;96ff&#45;ea62185263ec -->
<g id="edge4" class="edge">
<title>423b4971&#45;f914&#45;4de1&#45;84a9&#45;940d8d182939&#45;&gt;ac3d5562&#45;6250&#45;4f11&#45;96ff&#45;ea62185263ec</title>
<path fill="none" stroke="black" d="M74.8,-215.7C74.8,-207.98 74.8,-198.71 74.8,-190.11"/>
<polygon fill="black" stroke="black" points="78.3,-190.1 74.8,-180.1 71.3,-190.1 78.3,-190.1"/>
</g>
<!-- dbc958b3&#45;17b1&#45;4ac8&#45;81b4&#45;6690f6897caf -->
<g id="node4" class="node">
<title>dbc958b3&#45;17b1&#45;4ac8&#45;81b4&#45;6690f6897caf</title>
<ellipse fill="none" stroke="black" cx="74.8" cy="-90" rx="47.1" ry="18"/>
<text text-anchor="middle" x="74.8" y="-86.3" font-family="Times,serif" font-size="14.00">DelayAction</text>
</g>
<!-- ac3d5562&#45;6250&#45;4f11&#45;96ff&#45;ea62185263ec&#45;&gt;dbc958b3&#45;17b1&#45;4ac8&#45;81b4&#45;6690f6897caf -->
<g id="edge2" class="edge">
<title>ac3d5562&#45;6250&#45;4f11&#45;96ff&#45;ea62185263ec&#45;&gt;dbc958b3&#45;17b1&#45;4ac8&#45;81b4&#45;6690f6897caf</title>
<path fill="none" stroke="black" d="M74.8,-143.7C74.8,-135.98 74.8,-126.71 74.8,-118.11"/>
<polygon fill="black" stroke="black" points="78.3,-118.1 74.8,-108.1 71.3,-118.1 78.3,-118.1"/>
</g>
<!-- 8ab13908&#45;ef65&#45;4a72&#45;a250&#45;ae9794b4c020 -->
<g id="node5" class="node">
<title>8ab13908&#45;ef65&#45;4a72&#45;a250&#45;ae9794b4c020</title>
<ellipse fill="none" stroke="black" cx="74.8" cy="-18" rx="59.9" ry="18"/>
<text text-anchor="middle" x="74.8" y="-14.3" font-family="Times,serif" font-size="14.00">ZeroMovement</text>
</g>
<!-- dbc958b3&#45;17b1&#45;4ac8&#45;81b4&#45;6690f6897caf&#45;&gt;8ab13908&#45;ef65&#45;4a72&#45;a250&#45;ae9794b4c020 -->
<g id="edge3" class="edge">
<title>dbc958b3&#45;17b1&#45;4ac8&#45;81b4&#45;6690f6897caf&#45;&gt;8ab13908&#45;ef65&#45;4a72&#45;a250&#45;ae9794b4c020</title>
<path fill="none" stroke="black" d="M74.8,-71.7C74.8,-63.98 74.8,-54.71 74.8,-46.11"/>
<polygon fill="black" stroke="black" points="78.3,-46.1 74.8,-36.1 71.3,-46.1 78.3,-46.1"/>
</g>
<!-- c0761b7e&#45;240c&#45;4fbd&#45;bb48&#45;d403bdda9d47 -->
<g id="node6" class="node">
<title>c0761b7e&#45;240c&#45;4fbd&#45;bb48&#45;d403bdda9d47</title>
<ellipse fill="none" stroke="black" cx="74.8" cy="-378" rx="34.8" ry="18"/>
<text text-anchor="middle" x="74.8" y="-374.3" font-family="Times,serif" font-size="14.00">WaitArm</text>
</g>
<!-- c0761b7e&#45;240c&#45;4fbd&#45;bb48&#45;d403bdda9d47&#45;&gt;dd59adbc&#45;3c72&#45;4a2d&#45;8960&#45;7b26595887c9 -->
<g id="edge5" class="edge">
<title>c0761b7e&#45;240c&#45;4fbd&#45;bb48&#45;d403bdda9d47&#45;&gt;dd59adbc&#45;3c72&#45;4a2d&#45;8960&#45;7b26595887c9</title>
<path fill="none" stroke="black" d="M74.8,-359.7C74.8,-351.98 74.8,-342.71 74.8,-334.11"/>
<polygon fill="black" stroke="black" points="78.3,-334.1 74.8,-324.1 71.3,-334.1 78.3,-334.1"/>
</g>
</g>
</svg>
