<?xml version="1.0" encoding="UTF-8" standalone="no"?>
<!DOCTYPE svg PUBLIC "-//W3C//DTD SVG 1.1//EN"
 "http://www.w3.org/Graphics/SVG/1.1/DTD/svg11.dtd">
<!-- Generated by graphviz version 2.43.0 (0)
 -->
<!-- Title: G Pages: 1 -->
<svg width="158pt" height="404pt"
 viewBox="0.00 0.00 157.61 404.00" xmlns="http://www.w3.org/2000/svg" xmlns:xlink="http://www.w3.org/1999/xlink">
<g id="graph0" class="graph" transform="scale(1 1) rotate(0) translate(4 400)">
<title>G</title>
<polygon fill="transparent" stroke="transparent" points="-4,4 -4,-400 153.61,-400 153.61,4 -4,4"/>
<!-- 75e20572&#45;4df9&#45;409c&#45;a54e&#45;0119421c24d1 -->
<g id="node1" class="node">
<title>75e20572&#45;4df9&#45;409c&#45;a54e&#45;0119421c24d1</title>
<ellipse fill="none" stroke="black" cx="74.8" cy="-306" rx="33.6" ry="18"/>
<text text-anchor="middle" x="74.8" y="-302.3" font-family="Times,serif" font-size="14.00">Descend</text>
</g>
<!-- a51f3fb8&#45;2a85&#45;484f&#45;969e&#45;c7945b160562 -->
<g id="node2" class="node">
<title>a51f3fb8&#45;2a85&#45;484f&#45;969e&#45;c7945b160562</title>
<ellipse fill="none" stroke="black" cx="74.8" cy="-234" rx="47.1" ry="18"/>
<text text-anchor="middle" x="74.8" y="-230.3" font-family="Times,serif" font-size="14.00">DelayAction</text>
</g>
<!-- 75e20572&#45;4df9&#45;409c&#45;a54e&#45;0119421c24d1&#45;&gt;a51f3fb8&#45;2a85&#45;484f&#45;969e&#45;c7945b160562 -->
<g id="edge1" class="edge">
<title>75e20572&#45;4df9&#45;409c&#45;a54e&#45;0119421c24d1&#45;&gt;a51f3fb8&#45;2a85&#45;484f&#45;969e&#45;c7945b160562</title>
<path fill="none" stroke="black" d="M74.8,-287.7C74.8,-279.98 74.8,-270.71 74.8,-262.11"/>
<polygon fill="black" stroke="black" points="78.3,-262.1 74.8,-252.1 71.3,-262.1 78.3,-262.1"/>
</g>
<!-- fb82a633&#45;61c9&#45;49ad&#45;9dc8&#45;f5a83c4a0900 -->
<g id="node3" class="node">
<title>fb82a633&#45;61c9&#45;49ad&#45;9dc8&#45;f5a83c4a0900</title>
<ellipse fill="none" stroke="black" cx="74.8" cy="-162" rx="74.61" ry="18"/>
<text text-anchor="middle" x="74.8" y="-158.3" font-family="Times,serif" font-size="14.00">StraightMovement</text>
</g>
<!-- a51f3fb8&#45;2a85&#45;484f&#45;969e&#45;c7945b160562&#45;&gt;fb82a633&#45;61c9&#45;49ad&#45;9dc8&#45;f5a83c4a0900 -->
<g id="edge4" class="edge">
<title>a51f3fb8&#45;2a85&#45;484f&#45;969e&#45;c7945b160562&#45;&gt;fb82a633&#45;61c9&#45;49ad&#45;9dc8&#45;f5a83c4a0900</title>
<path fill="none" stroke="black" d="M74.8,-215.7C74.8,-207.98 74.8,-198.71 74.8,-190.11"/>
<polygon fill="black" stroke="black" points="78.3,-190.1 74.8,-180.1 71.3,-190.1 78.3,-190.1"/>
</g>
<!-- 88853885&#45;f7f1&#45;46a5&#45;bc61&#45;1bf86d8ad5e3 -->
<g id="node4" class="node">
<title>88853885&#45;f7f1&#45;46a5&#45;bc61&#45;1bf86d8ad5e3</title>
<ellipse fill="none" stroke="black" cx="74.8" cy="-90" rx="47.1" ry="18"/>
<text text-anchor="middle" x="74.8" y="-86.3" font-family="Times,serif" font-size="14.00">DelayAction</text>
</g>
<!-- fb82a633&#45;61c9&#45;49ad&#45;9dc8&#45;f5a83c4a0900&#45;&gt;88853885&#45;f7f1&#45;46a5&#45;bc61&#45;1bf86d8ad5e3 -->
<g id="edge2" class="edge">
<title>fb82a633&#45;61c9&#45;49ad&#45;9dc8&#45;f5a83c4a0900&#45;&gt;88853885&#45;f7f1&#45;46a5&#45;bc61&#45;1bf86d8ad5e3</title>
<path fill="none" stroke="black" d="M74.8,-143.7C74.8,-135.98 74.8,-126.71 74.8,-118.11"/>
<polygon fill="black" stroke="black" points="78.3,-118.1 74.8,-108.1 71.3,-118.1 78.3,-118.1"/>
</g>
<!-- 8aaaaae8&#45;f869&#45;4fc8&#45;9289&#45;f90d8a13b9b6 -->
<g id="node5" class="node">
<title>8aaaaae8&#45;f869&#45;4fc8&#45;9289&#45;f90d8a13b9b6</title>
<ellipse fill="none" stroke="black" cx="74.8" cy="-18" rx="59.9" ry="18"/>
<text text-anchor="middle" x="74.8" y="-14.3" font-family="Times,serif" font-size="14.00">ZeroMovement</text>
</g>
<!-- 88853885&#45;f7f1&#45;46a5&#45;bc61&#45;1bf86d8ad5e3&#45;&gt;8aaaaae8&#45;f869&#45;4fc8&#45;9289&#45;f90d8a13b9b6 -->
<g id="edge3" class="edge">
<title>88853885&#45;f7f1&#45;46a5&#45;bc61&#45;1bf86d8ad5e3&#45;&gt;8aaaaae8&#45;f869&#45;4fc8&#45;9289&#45;f90d8a13b9b6</title>
<path fill="none" stroke="black" d="M74.8,-71.7C74.8,-63.98 74.8,-54.71 74.8,-46.11"/>
<polygon fill="black" stroke="black" points="78.3,-46.1 74.8,-36.1 71.3,-46.1 78.3,-46.1"/>
</g>
<!-- b5c270c6&#45;d740&#45;4113&#45;8b52&#45;4a32d32aad39 -->
<g id="node6" class="node">
<title>b5c270c6&#45;d740&#45;4113&#45;8b52&#45;4a32d32aad39</title>
<ellipse fill="none" stroke="black" cx="74.8" cy="-378" rx="34.8" ry="18"/>
<text text-anchor="middle" x="74.8" y="-374.3" font-family="Times,serif" font-size="14.00">WaitArm</text>
</g>
<!-- b5c270c6&#45;d740&#45;4113&#45;8b52&#45;4a32d32aad39&#45;&gt;75e20572&#45;4df9&#45;409c&#45;a54e&#45;0119421c24d1 -->
<g id="edge5" class="edge">
<title>b5c270c6&#45;d740&#45;4113&#45;8b52&#45;4a32d32aad39&#45;&gt;75e20572&#45;4df9&#45;409c&#45;a54e&#45;0119421c24d1</title>
<path fill="none" stroke="black" d="M74.8,-359.7C74.8,-351.98 74.8,-342.71 74.8,-334.11"/>
<polygon fill="black" stroke="black" points="78.3,-334.1 74.8,-324.1 71.3,-334.1 78.3,-334.1"/>
</g>
</g>
</svg>
