<?xml version="1.0" encoding="UTF-8" standalone="no"?>
<!DOCTYPE svg PUBLIC "-//W3C//DTD SVG 1.1//EN"
 "http://www.w3.org/Graphics/SVG/1.1/DTD/svg11.dtd">
<!-- Generated by graphviz version 2.43.0 (0)
 -->
<!-- Title: G Pages: 1 -->
<svg width="583pt" height="552pt"
 viewBox="0.00 0.00 582.60 552.00" xmlns="http://www.w3.org/2000/svg" xmlns:xlink="http://www.w3.org/1999/xlink">
<g id="graph0" class="graph" transform="scale(1 1) rotate(0) translate(4 548)">
<title>G</title>
<polygon fill="transparent" stroke="transparent" points="-4,4 -4,-548 578.6,-548 578.6,4 -4,4"/>
<!-- 16544548&#45;6dda&#45;4222&#45;bbba&#45;cbd554f90cb0 -->
<g id="node1" class="node">
<title>16544548&#45;6dda&#45;4222&#45;bbba&#45;cbd554f90cb0</title>
<polygon fill="none" stroke="black" points="294.3,-384 166.67,-366 294.3,-348 421.93,-366 294.3,-384"/>
<text text-anchor="middle" x="294.3" y="-362.3" font-family="Times,serif" font-size="14.00">Consecutive True &lt; 34</text>
</g>
<!-- c60406d0&#45;9568&#45;4540&#45;9660&#45;48be65ef23ce -->
<g id="node5" class="node">
<title>c60406d0&#45;9568&#45;4540&#45;9660&#45;48be65ef23ce</title>
<ellipse fill="none" stroke="black" cx="86.3" cy="-279" rx="38.5" ry="18"/>
<text text-anchor="middle" x="86.3" y="-275.3" font-family="Times,serif" font-size="14.00">ConstYaw</text>
</g>
<!-- 16544548&#45;6dda&#45;4222&#45;bbba&#45;cbd554f90cb0&#45;&gt;c60406d0&#45;9568&#45;4540&#45;9660&#45;48be65ef23ce -->
<g id="edge6" class="edge">
<title>16544548&#45;6dda&#45;4222&#45;bbba&#45;cbd554f90cb0&#45;&gt;c60406d0&#45;9568&#45;4540&#45;9660&#45;48be65ef23ce</title>
<path fill="none" stroke="black" d="M263.16,-352.27C225.89,-337.04 163.53,-311.56 123.69,-295.28"/>
<polygon fill="black" stroke="black" points="124.9,-291.99 114.32,-291.45 122.25,-298.47 124.9,-291.99"/>
<text text-anchor="middle" x="220.3" y="-318.8" font-family="Times,serif" font-size="14.00">True</text>
</g>
<!-- 9fb75201&#45;297e&#45;4369&#45;9d51&#45;6acc95645e9a -->
<g id="node8" class="node">
<title>9fb75201&#45;297e&#45;4369&#45;9d51&#45;6acc95645e9a</title>
<ellipse fill="none" stroke="black" cx="294.3" cy="-279" rx="59.9" ry="18"/>
<text text-anchor="middle" x="294.3" y="-275.3" font-family="Times,serif" font-size="14.00">ZeroMovement</text>
</g>
<!-- 16544548&#45;6dda&#45;4222&#45;bbba&#45;cbd554f90cb0&#45;&gt;9fb75201&#45;297e&#45;4369&#45;9d51&#45;6acc95645e9a -->
<g id="edge7" class="edge">
<title>16544548&#45;6dda&#45;4222&#45;bbba&#45;cbd554f90cb0&#45;&gt;9fb75201&#45;297e&#45;4369&#45;9d51&#45;6acc95645e9a</title>
<path fill="none" stroke="black" d="M294.3,-347.8C294.3,-336.16 294.3,-320.55 294.3,-307.24"/>
<polygon fill="black" stroke="black" points="297.8,-307.18 294.3,-297.18 290.8,-307.18 297.8,-307.18"/>
<text text-anchor="middle" x="313.3" y="-318.8" font-family="Times,serif" font-size="14.00">False</text>
</g>
<!-- a77006b4&#45;8ec4&#45;46c8&#45;93fd&#45;a98b46464525 -->
<g id="node2" class="node">
<title>a77006b4&#45;8ec4&#45;46c8&#45;93fd&#45;a98b46464525</title>
<ellipse fill="none" stroke="black" cx="86.3" cy="-105" rx="36.1" ry="18"/>
<text text-anchor="middle" x="86.3" y="-101.3" font-family="Times,serif" font-size="14.00">SideMult</text>
</g>
<!-- b45b2546&#45;4ba7&#45;44ca&#45;8445&#45;aa4cf2a845dd -->
<g id="node3" class="node">
<title>b45b2546&#45;4ba7&#45;44ca&#45;8445&#45;aa4cf2a845dd</title>
<ellipse fill="none" stroke="black" cx="86.3" cy="-18" rx="80.11" ry="18"/>
<text text-anchor="middle" x="86.3" y="-14.3" font-family="Times,serif" font-size="14.00">Stability2Movement</text>
</g>
<!-- a77006b4&#45;8ec4&#45;46c8&#45;93fd&#45;a98b46464525&#45;&gt;b45b2546&#45;4ba7&#45;44ca&#45;8445&#45;aa4cf2a845dd -->
<g id="edge1" class="edge">
<title>a77006b4&#45;8ec4&#45;46c8&#45;93fd&#45;a98b46464525&#45;&gt;b45b2546&#45;4ba7&#45;44ca&#45;8445&#45;aa4cf2a845dd</title>
<path fill="none" stroke="purple" d="M86.3,-86.8C86.3,-75.16 86.3,-59.55 86.3,-46.24"/>
<polygon fill="purple" stroke="purple" points="89.8,-46.18 86.3,-36.18 82.8,-46.18 89.8,-46.18"/>
<text text-anchor="middle" x="121.8" y="-57.8" font-family="Times,serif" font-size="14.00" fill="purple">Pass Data</text>
</g>
<!-- 95e9d819&#45;b5a9&#45;445a&#45;a4fb&#45;596f3afdb0a1 -->
<g id="node4" class="node">
<title>95e9d819&#45;b5a9&#45;445a&#45;a4fb&#45;596f3afdb0a1</title>
<ellipse fill="none" stroke="black" cx="86.3" cy="-192" rx="27" ry="18"/>
<text text-anchor="middle" x="86.3" y="-188.3" font-family="Times,serif" font-size="14.00">SetX</text>
</g>
<!-- 95e9d819&#45;b5a9&#45;445a&#45;a4fb&#45;596f3afdb0a1&#45;&gt;a77006b4&#45;8ec4&#45;46c8&#45;93fd&#45;a98b46464525 -->
<g id="edge2" class="edge">
<title>95e9d819&#45;b5a9&#45;445a&#45;a4fb&#45;596f3afdb0a1&#45;&gt;a77006b4&#45;8ec4&#45;46c8&#45;93fd&#45;a98b46464525</title>
<path fill="none" stroke="purple" d="M86.3,-173.8C86.3,-162.16 86.3,-146.55 86.3,-133.24"/>
<polygon fill="purple" stroke="purple" points="89.8,-133.18 86.3,-123.18 82.8,-133.18 89.8,-133.18"/>
<text text-anchor="middle" x="121.8" y="-144.8" font-family="Times,serif" font-size="14.00" fill="purple">Pass Data</text>
</g>
<!-- c60406d0&#45;9568&#45;4540&#45;9660&#45;48be65ef23ce&#45;&gt;95e9d819&#45;b5a9&#45;445a&#45;a4fb&#45;596f3afdb0a1 -->
<g id="edge3" class="edge">
<title>c60406d0&#45;9568&#45;4540&#45;9660&#45;48be65ef23ce&#45;&gt;95e9d819&#45;b5a9&#45;445a&#45;a4fb&#45;596f3afdb0a1</title>
<path fill="none" stroke="purple" d="M86.3,-260.8C86.3,-249.16 86.3,-233.55 86.3,-220.24"/>
<polygon fill="purple" stroke="purple" points="89.8,-220.18 86.3,-210.18 82.8,-220.18 89.8,-220.18"/>
<text text-anchor="middle" x="121.8" y="-231.8" font-family="Times,serif" font-size="14.00" fill="purple">Pass Data</text>
</g>
<!-- 1a33207d&#45;32e4&#45;4b79&#45;9d49&#45;09ea576e0ef1 -->
<g id="node6" class="node">
<title>1a33207d&#45;32e4&#45;4b79&#45;9d49&#45;09ea576e0ef1</title>
<ellipse fill="none" stroke="black" cx="294.3" cy="-453" rx="46.4" ry="18"/>
<text text-anchor="middle" x="294.3" y="-449.3" font-family="Times,serif" font-size="14.00">AlwaysTrue</text>
</g>
<!-- 1a33207d&#45;32e4&#45;4b79&#45;9d49&#45;09ea576e0ef1&#45;&gt;16544548&#45;6dda&#45;4222&#45;bbba&#45;cbd554f90cb0 -->
<g id="edge4" class="edge">
<title>1a33207d&#45;32e4&#45;4b79&#45;9d49&#45;09ea576e0ef1&#45;&gt;16544548&#45;6dda&#45;4222&#45;bbba&#45;cbd554f90cb0</title>
<path fill="none" stroke="purple" d="M294.3,-434.8C294.3,-423.16 294.3,-407.55 294.3,-394.24"/>
<polygon fill="purple" stroke="purple" points="297.8,-394.18 294.3,-384.18 290.8,-394.18 297.8,-394.18"/>
<text text-anchor="middle" x="329.8" y="-405.8" font-family="Times,serif" font-size="14.00" fill="purple">Pass Data</text>
</g>
<!-- 6e7eda5f&#45;82f0&#45;4174&#45;a509&#45;72beca088d19 -->
<g id="node7" class="node">
<title>6e7eda5f&#45;82f0&#45;4174&#45;a509&#45;72beca088d19</title>
<ellipse fill="none" stroke="black" cx="294.3" cy="-526" rx="47.1" ry="18"/>
<text text-anchor="middle" x="294.3" y="-522.3" font-family="Times,serif" font-size="14.00">DelayAction</text>
</g>
<!-- 6e7eda5f&#45;82f0&#45;4174&#45;a509&#45;72beca088d19&#45;&gt;1a33207d&#45;32e4&#45;4b79&#45;9d49&#45;09ea576e0ef1 -->
<g id="edge5" class="edge">
<title>6e7eda5f&#45;82f0&#45;4174&#45;a509&#45;72beca088d19&#45;&gt;1a33207d&#45;32e4&#45;4b79&#45;9d49&#45;09ea576e0ef1</title>
<path fill="none" stroke="black" d="M294.3,-507.81C294.3,-499.79 294.3,-490.05 294.3,-481.07"/>
<polygon fill="black" stroke="black" points="297.8,-481.03 294.3,-471.03 290.8,-481.03 297.8,-481.03"/>
</g>
<!-- 794051ec&#45;4e6e&#45;4977&#45;a1da&#45;b6accb1a983c -->
<g id="node9" class="node">
<title>794051ec&#45;4e6e&#45;4977&#45;a1da&#45;b6accb1a983c</title>
<ellipse fill="none" stroke="black" cx="47.3" cy="-366" rx="47.1" ry="18"/>
<text text-anchor="middle" x="47.3" y="-362.3" font-family="Times,serif" font-size="14.00">DelayAction</text>
</g>
<!-- 794051ec&#45;4e6e&#45;4977&#45;a1da&#45;b6accb1a983c&#45;&gt;c60406d0&#45;9568&#45;4540&#45;9660&#45;48be65ef23ce -->
<g id="edge8" class="edge">
<title>794051ec&#45;4e6e&#45;4977&#45;a1da&#45;b6accb1a983c&#45;&gt;c60406d0&#45;9568&#45;4540&#45;9660&#45;48be65ef23ce</title>
<path fill="none" stroke="black" d="M55.01,-348.21C60.51,-336.22 68.02,-319.85 74.3,-306.16"/>
<polygon fill="black" stroke="black" points="77.62,-307.31 78.61,-296.76 71.26,-304.39 77.62,-307.31"/>
</g>
<!-- d84526fa&#45;bd7e&#45;4718&#45;b9b1&#45;9ae3bc5e7110 -->
<g id="node10" class="node">
<title>d84526fa&#45;bd7e&#45;4718&#45;b9b1&#45;9ae3bc5e7110</title>
<ellipse fill="none" stroke="black" cx="494.3" cy="-526" rx="80.11" ry="18"/>
<text text-anchor="middle" x="494.3" y="-522.3" font-family="Times,serif" font-size="14.00">Stability2Movement</text>
</g>
</g>
</svg>
