<?xml version="1.0" encoding="UTF-8" standalone="no"?>
<!DOCTYPE svg PUBLIC "-//W3C//DTD SVG 1.1//EN"
 "http://www.w3.org/Graphics/SVG/1.1/DTD/svg11.dtd">
<!-- Generated by graphviz version 2.43.0 (0)
 -->
<!-- Title: G Pages: 1 -->
<svg width="743pt" height="1121pt"
 viewBox="0.00 0.00 742.80 1121.00" xmlns="http://www.w3.org/2000/svg" xmlns:xlink="http://www.w3.org/1999/xlink">
<g id="graph0" class="graph" transform="scale(1 1) rotate(0) translate(4 1117)">
<title>G</title>
<polygon fill="transparent" stroke="transparent" points="-4,4 -4,-1117 738.8,-1117 738.8,4 -4,4"/>
<g id="clust1" class="cluster">
<title>cluster_05637936&#45;59c5&#45;4f0c&#45;8fd8&#45;7cf29ff359e8</title>
<polygon fill="transparent" stroke="blue" stroke-dasharray="5,2" points="8,-8 8,-829 280,-829 280,-8 8,-8"/>
</g>
<!-- cb356146&#45;f2d9&#45;474e&#45;ae57&#45;baea5829d1d7 -->
<g id="node1" class="node">
<title>cb356146&#45;f2d9&#45;474e&#45;ae57&#45;baea5829d1d7</title>
<polygon fill="none" stroke="black" points="207,-748 141.82,-730 207,-712 272.18,-730 207,-748"/>
<text text-anchor="middle" x="207" y="-726.3" font-family="Times,serif" font-size="14.00">AlwaysTrue</text>
</g>
<!-- b5da0e5d&#45;6233&#45;4800&#45;a927&#45;be5cd0942c74 -->
<g id="node19" class="node">
<title>b5da0e5d&#45;6233&#45;4800&#45;a927&#45;be5cd0942c74</title>
<ellipse fill="none" stroke="black" cx="335" cy="-643" rx="46.5" ry="18"/>
<text text-anchor="middle" x="335" y="-639.3" font-family="Times,serif" font-size="14.00">VisionNorm</text>
</g>
<!-- cb356146&#45;f2d9&#45;474e&#45;ae57&#45;baea5829d1d7&#45;&gt;b5da0e5d&#45;6233&#45;4800&#45;a927&#45;be5cd0942c74 -->
<g id="edge18" class="edge">
<title>cb356146&#45;f2d9&#45;474e&#45;ae57&#45;baea5829d1d7&#45;&gt;b5da0e5d&#45;6233&#45;4800&#45;a927&#45;be5cd0942c74</title>
<path fill="none" stroke="black" d="M225.34,-716.82C245.78,-703.25 279.18,-681.06 303.76,-664.74"/>
<polygon fill="black" stroke="black" points="305.98,-667.47 312.38,-659.02 302.11,-661.64 305.98,-667.47"/>
<text text-anchor="middle" x="296" y="-682.8" font-family="Times,serif" font-size="14.00">True</text>
</g>
<!-- f5be76da&#45;b152&#45;448a&#45;9290&#45;73e711411e43 -->
<g id="node2" class="node">
<title>f5be76da&#45;b152&#45;448a&#45;9290&#45;73e711411e43</title>
<ellipse fill="none" stroke="black" cx="95" cy="-121" rx="31.2" ry="18"/>
<text text-anchor="middle" x="95" y="-117.3" font-family="Times,serif" font-size="14.00">MinYaw</text>
</g>
<!-- b6faf327&#45;a080&#45;4751&#45;8198&#45;deec2bced060 -->
<g id="node3" class="node">
<title>b6faf327&#45;a080&#45;4751&#45;8198&#45;deec2bced060</title>
<ellipse fill="none" stroke="black" cx="96" cy="-34" rx="80.11" ry="18"/>
<text text-anchor="middle" x="96" y="-30.3" font-family="Times,serif" font-size="14.00">Stability1Movement</text>
</g>
<!-- f5be76da&#45;b152&#45;448a&#45;9290&#45;73e711411e43&#45;&gt;b6faf327&#45;a080&#45;4751&#45;8198&#45;deec2bced060 -->
<g id="edge1" class="edge">
<title>f5be76da&#45;b152&#45;448a&#45;9290&#45;73e711411e43&#45;&gt;b6faf327&#45;a080&#45;4751&#45;8198&#45;deec2bced060</title>
<path fill="none" stroke="purple" d="M95.2,-102.8C95.34,-91.16 95.52,-75.55 95.68,-62.24"/>
<polygon fill="purple" stroke="purple" points="99.18,-62.22 95.8,-52.18 92.18,-62.13 99.18,-62.22"/>
<text text-anchor="middle" x="131.5" y="-73.8" font-family="Times,serif" font-size="14.00" fill="purple">Pass Data</text>
</g>
<!-- 93033951&#45;1174&#45;407d&#45;a8f2&#45;fc838850b59d -->
<g id="node4" class="node">
<title>93033951&#45;1174&#45;407d&#45;a8f2&#45;fc838850b59d</title>
<ellipse fill="none" stroke="black" cx="94" cy="-208" rx="27" ry="18"/>
<text text-anchor="middle" x="94" y="-204.3" font-family="Times,serif" font-size="14.00">StripY</text>
</g>
<!-- 93033951&#45;1174&#45;407d&#45;a8f2&#45;fc838850b59d&#45;&gt;f5be76da&#45;b152&#45;448a&#45;9290&#45;73e711411e43 -->
<g id="edge2" class="edge">
<title>93033951&#45;1174&#45;407d&#45;a8f2&#45;fc838850b59d&#45;&gt;f5be76da&#45;b152&#45;448a&#45;9290&#45;73e711411e43</title>
<path fill="none" stroke="purple" d="M94.2,-189.8C94.34,-178.16 94.52,-162.55 94.68,-149.24"/>
<polygon fill="purple" stroke="purple" points="98.18,-149.22 94.8,-139.18 91.18,-149.13 98.18,-149.22"/>
<text text-anchor="middle" x="130.5" y="-160.8" font-family="Times,serif" font-size="14.00" fill="purple">Pass Data</text>
</g>
<!-- fe4aae77&#45;2201&#45;495e&#45;b85f&#45;4dfd2617c331 -->
<g id="node5" class="node">
<title>fe4aae77&#45;2201&#45;495e&#45;b85f&#45;4dfd2617c331</title>
<ellipse fill="none" stroke="black" cx="94" cy="-295" rx="75.81" ry="18"/>
<text text-anchor="middle" x="94" y="-291.3" font-family="Times,serif" font-size="14.00">CautiousConstantX</text>
</g>
<!-- fe4aae77&#45;2201&#45;495e&#45;b85f&#45;4dfd2617c331&#45;&gt;93033951&#45;1174&#45;407d&#45;a8f2&#45;fc838850b59d -->
<g id="edge3" class="edge">
<title>fe4aae77&#45;2201&#45;495e&#45;b85f&#45;4dfd2617c331&#45;&gt;93033951&#45;1174&#45;407d&#45;a8f2&#45;fc838850b59d</title>
<path fill="none" stroke="purple" d="M94,-276.8C94,-265.16 94,-249.55 94,-236.24"/>
<polygon fill="purple" stroke="purple" points="97.5,-236.18 94,-226.18 90.5,-236.18 97.5,-236.18"/>
<text text-anchor="middle" x="129.5" y="-247.8" font-family="Times,serif" font-size="14.00" fill="purple">Pass Data</text>
</g>
<!-- a4aceb2c&#45;352d&#45;4f3d&#45;86cc&#45;fe6fc10be241 -->
<g id="node6" class="node">
<title>a4aceb2c&#45;352d&#45;4f3d&#45;86cc&#45;fe6fc10be241</title>
<ellipse fill="none" stroke="black" cx="93" cy="-382" rx="67.81" ry="18"/>
<text text-anchor="middle" x="93" y="-378.3" font-family="Times,serif" font-size="14.00">LinearYawFromX</text>
</g>
<!-- a4aceb2c&#45;352d&#45;4f3d&#45;86cc&#45;fe6fc10be241&#45;&gt;fe4aae77&#45;2201&#45;495e&#45;b85f&#45;4dfd2617c331 -->
<g id="edge4" class="edge">
<title>a4aceb2c&#45;352d&#45;4f3d&#45;86cc&#45;fe6fc10be241&#45;&gt;fe4aae77&#45;2201&#45;495e&#45;b85f&#45;4dfd2617c331</title>
<path fill="none" stroke="purple" d="M93.2,-363.8C93.34,-352.16 93.52,-336.55 93.68,-323.24"/>
<polygon fill="purple" stroke="purple" points="97.18,-323.22 93.8,-313.18 90.18,-323.13 97.18,-323.22"/>
<text text-anchor="middle" x="129.5" y="-334.8" font-family="Times,serif" font-size="14.00" fill="purple">Pass Data</text>
</g>
<!-- f3ac097a&#45;0dd3&#45;4f2b&#45;b90e&#45;78ae504ca9a1 -->
<g id="node7" class="node">
<title>f3ac097a&#45;0dd3&#45;4f2b&#45;b90e&#45;78ae504ca9a1</title>
<ellipse fill="none" stroke="black" cx="92" cy="-469" rx="51.3" ry="18"/>
<text text-anchor="middle" x="92" y="-465.3" font-family="Times,serif" font-size="14.00">OffsetToPose</text>
</g>
<!-- f3ac097a&#45;0dd3&#45;4f2b&#45;b90e&#45;78ae504ca9a1&#45;&gt;a4aceb2c&#45;352d&#45;4f3d&#45;86cc&#45;fe6fc10be241 -->
<g id="edge5" class="edge">
<title>f3ac097a&#45;0dd3&#45;4f2b&#45;b90e&#45;78ae504ca9a1&#45;&gt;a4aceb2c&#45;352d&#45;4f3d&#45;86cc&#45;fe6fc10be241</title>
<path fill="none" stroke="purple" d="M92.2,-450.8C92.34,-439.16 92.52,-423.55 92.68,-410.24"/>
<polygon fill="purple" stroke="purple" points="96.18,-410.22 92.8,-400.18 89.18,-410.13 96.18,-410.22"/>
<text text-anchor="middle" x="128.5" y="-421.8" font-family="Times,serif" font-size="14.00" fill="purple">Pass Data</text>
</g>
<!-- 5ee97ca2&#45;8365&#45;4625&#45;a06f&#45;5063a0602d38 -->
<g id="node8" class="node">
<title>5ee97ca2&#45;8365&#45;4625&#45;a06f&#45;5063a0602d38</title>
<ellipse fill="none" stroke="black" cx="91" cy="-556" rx="32.4" ry="18"/>
<text text-anchor="middle" x="91" y="-552.3" font-family="Times,serif" font-size="14.00">Average</text>
</g>
<!-- 5ee97ca2&#45;8365&#45;4625&#45;a06f&#45;5063a0602d38&#45;&gt;f3ac097a&#45;0dd3&#45;4f2b&#45;b90e&#45;78ae504ca9a1 -->
<g id="edge6" class="edge">
<title>5ee97ca2&#45;8365&#45;4625&#45;a06f&#45;5063a0602d38&#45;&gt;f3ac097a&#45;0dd3&#45;4f2b&#45;b90e&#45;78ae504ca9a1</title>
<path fill="none" stroke="purple" d="M91.2,-537.8C91.34,-526.16 91.52,-510.55 91.68,-497.24"/>
<polygon fill="purple" stroke="purple" points="95.18,-497.22 91.8,-487.18 88.18,-497.13 95.18,-497.22"/>
<text text-anchor="middle" x="127.5" y="-508.8" font-family="Times,serif" font-size="14.00" fill="purple">Pass Data</text>
</g>
<!-- 911c791a&#45;2142&#45;41aa&#45;a190&#45;70abf802d231 -->
<g id="node9" class="node">
<title>911c791a&#45;2142&#45;41aa&#45;a190&#45;70abf802d231</title>
<ellipse fill="none" stroke="black" cx="90" cy="-643" rx="61.1" ry="18"/>
<text text-anchor="middle" x="90" y="-639.3" font-family="Times,serif" font-size="14.00">ExtractPosition</text>
</g>
<!-- 911c791a&#45;2142&#45;41aa&#45;a190&#45;70abf802d231&#45;&gt;5ee97ca2&#45;8365&#45;4625&#45;a06f&#45;5063a0602d38 -->
<g id="edge7" class="edge">
<title>911c791a&#45;2142&#45;41aa&#45;a190&#45;70abf802d231&#45;&gt;5ee97ca2&#45;8365&#45;4625&#45;a06f&#45;5063a0602d38</title>
<path fill="none" stroke="purple" d="M90.2,-624.8C90.34,-613.16 90.52,-597.55 90.68,-584.24"/>
<polygon fill="purple" stroke="purple" points="94.18,-584.22 90.8,-574.18 87.18,-584.13 94.18,-584.22"/>
<text text-anchor="middle" x="126.5" y="-595.8" font-family="Times,serif" font-size="14.00" fill="purple">Pass Data</text>
</g>
<!-- f807abbd&#45;2c0f&#45;4478&#45;b452&#45;4807353e49fe -->
<g id="node10" class="node">
<title>f807abbd&#45;2c0f&#45;4478&#45;b452&#45;4807353e49fe</title>
<ellipse fill="none" stroke="black" cx="43" cy="-730" rx="27" ry="18"/>
<text text-anchor="middle" x="43" y="-726.3" font-family="Times,serif" font-size="14.00">ToVec</text>
</g>
<!-- f807abbd&#45;2c0f&#45;4478&#45;b452&#45;4807353e49fe&#45;&gt;911c791a&#45;2142&#45;41aa&#45;a190&#45;70abf802d231 -->
<g id="edge8" class="edge">
<title>f807abbd&#45;2c0f&#45;4478&#45;b452&#45;4807353e49fe&#45;&gt;911c791a&#45;2142&#45;41aa&#45;a190&#45;70abf802d231</title>
<path fill="none" stroke="purple" d="M52.06,-712.61C58.74,-700.54 67.95,-683.88 75.63,-670"/>
<polygon fill="purple" stroke="purple" points="78.87,-671.37 80.64,-660.92 72.74,-667.98 78.87,-671.37"/>
<text text-anchor="middle" x="105.5" y="-682.8" font-family="Times,serif" font-size="14.00" fill="purple">Pass Data</text>
</g>
<!-- 2477a059&#45;006e&#45;4e45&#45;aef7&#45;1cd2f34ccc50 -->
<g id="node11" class="node">
<title>2477a059&#45;006e&#45;4e45&#45;aef7&#45;1cd2f34ccc50</title>
<polygon fill="none" stroke="black" stroke-dasharray="5,2" points="256,-821 158,-821 158,-785 256,-785 256,-821"/>
<text text-anchor="middle" x="207" y="-799.3" font-family="Times,serif" font-size="14.00" fill="blue">Concurrent</text>
</g>
<!-- 2477a059&#45;006e&#45;4e45&#45;aef7&#45;1cd2f34ccc50&#45;&gt;cb356146&#45;f2d9&#45;474e&#45;ae57&#45;baea5829d1d7 -->
<g id="edge10" class="edge">
<title>2477a059&#45;006e&#45;4e45&#45;aef7&#45;1cd2f34ccc50&#45;&gt;cb356146&#45;f2d9&#45;474e&#45;ae57&#45;baea5829d1d7</title>
<path fill="none" stroke="black" d="M207,-784.81C207,-776.79 207,-767.05 207,-758.07"/>
<polygon fill="black" stroke="black" points="210.5,-758.03 207,-748.03 203.5,-758.03 210.5,-758.03"/>
</g>
<!-- 2477a059&#45;006e&#45;4e45&#45;aef7&#45;1cd2f34ccc50&#45;&gt;f807abbd&#45;2c0f&#45;4478&#45;b452&#45;4807353e49fe -->
<g id="edge9" class="edge">
<title>2477a059&#45;006e&#45;4e45&#45;aef7&#45;1cd2f34ccc50&#45;&gt;f807abbd&#45;2c0f&#45;4478&#45;b452&#45;4807353e49fe</title>
<path fill="none" stroke="black" d="M167.72,-784.99C139.19,-772.64 101.1,-756.15 74.55,-744.66"/>
<polygon fill="black" stroke="black" points="75.89,-741.43 65.32,-740.66 73.11,-747.85 75.89,-741.43"/>
</g>
<!-- edf92788&#45;6e14&#45;460a&#45;b46b&#45;7fb55f3f50ce -->
<g id="node12" class="node">
<title>edf92788&#45;6e14&#45;460a&#45;b46b&#45;7fb55f3f50ce</title>
<ellipse fill="none" stroke="black" cx="660" cy="-1022" rx="33.6" ry="18"/>
<text text-anchor="middle" x="660" y="-1018.3" font-family="Times,serif" font-size="14.00">Descend</text>
</g>
<!-- 84ba33bb&#45;32d9&#45;4d25&#45;8ba0&#45;017a2f4d7da2 -->
<g id="node13" class="node">
<title>84ba33bb&#45;32d9&#45;4d25&#45;8ba0&#45;017a2f4d7da2</title>
<ellipse fill="none" stroke="black" cx="660" cy="-949" rx="47.1" ry="18"/>
<text text-anchor="middle" x="660" y="-945.3" font-family="Times,serif" font-size="14.00">DelayAction</text>
</g>
<!-- edf92788&#45;6e14&#45;460a&#45;b46b&#45;7fb55f3f50ce&#45;&gt;84ba33bb&#45;32d9&#45;4d25&#45;8ba0&#45;017a2f4d7da2 -->
<g id="edge11" class="edge">
<title>edf92788&#45;6e14&#45;460a&#45;b46b&#45;7fb55f3f50ce&#45;&gt;84ba33bb&#45;32d9&#45;4d25&#45;8ba0&#45;017a2f4d7da2</title>
<path fill="none" stroke="black" d="M660,-1003.81C660,-995.79 660,-986.05 660,-977.07"/>
<polygon fill="black" stroke="black" points="663.5,-977.03 660,-967.03 656.5,-977.03 663.5,-977.03"/>
</g>
<!-- 5fccc102&#45;3c35&#45;484c&#45;9e98&#45;af78953f4941 -->
<g id="node14" class="node">
<title>5fccc102&#45;3c35&#45;484c&#45;9e98&#45;af78953f4941</title>
<ellipse fill="none" stroke="black" cx="660" cy="-876" rx="74.61" ry="18"/>
<text text-anchor="middle" x="660" y="-872.3" font-family="Times,serif" font-size="14.00">StraightMovement</text>
</g>
<!-- 84ba33bb&#45;32d9&#45;4d25&#45;8ba0&#45;017a2f4d7da2&#45;&gt;5fccc102&#45;3c35&#45;484c&#45;9e98&#45;af78953f4941 -->
<g id="edge14" class="edge">
<title>84ba33bb&#45;32d9&#45;4d25&#45;8ba0&#45;017a2f4d7da2&#45;&gt;5fccc102&#45;3c35&#45;484c&#45;9e98&#45;af78953f4941</title>
<path fill="none" stroke="black" d="M660,-930.81C660,-922.79 660,-913.05 660,-904.07"/>
<polygon fill="black" stroke="black" points="663.5,-904.03 660,-894.03 656.5,-904.03 663.5,-904.03"/>
</g>
<!-- eb843317&#45;e01f&#45;450f&#45;90f5&#45;7f4d4e384da6 -->
<g id="node15" class="node">
<title>eb843317&#45;e01f&#45;450f&#45;90f5&#45;7f4d4e384da6</title>
<ellipse fill="none" stroke="black" cx="660" cy="-803" rx="47.1" ry="18"/>
<text text-anchor="middle" x="660" y="-799.3" font-family="Times,serif" font-size="14.00">DelayAction</text>
</g>
<!-- 5fccc102&#45;3c35&#45;484c&#45;9e98&#45;af78953f4941&#45;&gt;eb843317&#45;e01f&#45;450f&#45;90f5&#45;7f4d4e384da6 -->
<g id="edge12" class="edge">
<title>5fccc102&#45;3c35&#45;484c&#45;9e98&#45;af78953f4941&#45;&gt;eb843317&#45;e01f&#45;450f&#45;90f5&#45;7f4d4e384da6</title>
<path fill="none" stroke="black" d="M660,-857.81C660,-849.79 660,-840.05 660,-831.07"/>
<polygon fill="black" stroke="black" points="663.5,-831.03 660,-821.03 656.5,-831.03 663.5,-831.03"/>
</g>
<!-- 2df73ef1&#45;c411&#45;4f2f&#45;a17b&#45;b136bf3483d7 -->
<g id="node16" class="node">
<title>2df73ef1&#45;c411&#45;4f2f&#45;a17b&#45;b136bf3483d7</title>
<ellipse fill="none" stroke="black" cx="660" cy="-730" rx="59.9" ry="18"/>
<text text-anchor="middle" x="660" y="-726.3" font-family="Times,serif" font-size="14.00">ZeroMovement</text>
</g>
<!-- eb843317&#45;e01f&#45;450f&#45;90f5&#45;7f4d4e384da6&#45;&gt;2df73ef1&#45;c411&#45;4f2f&#45;a17b&#45;b136bf3483d7 -->
<g id="edge13" class="edge">
<title>eb843317&#45;e01f&#45;450f&#45;90f5&#45;7f4d4e384da6&#45;&gt;2df73ef1&#45;c411&#45;4f2f&#45;a17b&#45;b136bf3483d7</title>
<path fill="none" stroke="black" d="M660,-784.81C660,-776.79 660,-767.05 660,-758.07"/>
<polygon fill="black" stroke="black" points="663.5,-758.03 660,-748.03 656.5,-758.03 663.5,-758.03"/>
</g>
<!-- 2df73ef1&#45;c411&#45;4f2f&#45;a17b&#45;b136bf3483d7&#45;&gt;b5da0e5d&#45;6233&#45;4800&#45;a927&#45;be5cd0942c74 -->
<g id="edge19" class="edge">
<title>2df73ef1&#45;c411&#45;4f2f&#45;a17b&#45;b136bf3483d7&#45;&gt;b5da0e5d&#45;6233&#45;4800&#45;a927&#45;be5cd0942c74</title>
<path fill="none" stroke="black" d="M639.53,-712.83C624.07,-701.49 601.85,-686.98 580,-679 518.08,-656.38 442.38,-648.3 391.65,-645.46"/>
<polygon fill="black" stroke="black" points="391.7,-641.96 381.54,-644.94 391.35,-648.95 391.7,-641.96"/>
</g>
<!-- 7aff6f95&#45;c57f&#45;4f74&#45;bc3b&#45;24c6f0e259a7 -->
<g id="node17" class="node">
<title>7aff6f95&#45;c57f&#45;4f74&#45;bc3b&#45;24c6f0e259a7</title>
<ellipse fill="none" stroke="black" cx="660" cy="-1095" rx="34.8" ry="18"/>
<text text-anchor="middle" x="660" y="-1091.3" font-family="Times,serif" font-size="14.00">WaitArm</text>
</g>
<!-- 7aff6f95&#45;c57f&#45;4f74&#45;bc3b&#45;24c6f0e259a7&#45;&gt;edf92788&#45;6e14&#45;460a&#45;b46b&#45;7fb55f3f50ce -->
<g id="edge15" class="edge">
<title>7aff6f95&#45;c57f&#45;4f74&#45;bc3b&#45;24c6f0e259a7&#45;&gt;edf92788&#45;6e14&#45;460a&#45;b46b&#45;7fb55f3f50ce</title>
<path fill="none" stroke="black" d="M660,-1076.81C660,-1068.79 660,-1059.05 660,-1050.07"/>
<polygon fill="black" stroke="black" points="663.5,-1050.03 660,-1040.03 656.5,-1050.03 663.5,-1050.03"/>
</g>
<!-- 01547ab5&#45;a0ff&#45;4343&#45;a19b&#45;1112fc270931 -->
<g id="node18" class="node">
<title>01547ab5&#45;a0ff&#45;4343&#45;a19b&#45;1112fc270931</title>
<ellipse fill="none" stroke="black" cx="430" cy="-556" rx="48.3" ry="18"/>
<text text-anchor="middle" x="430" y="-552.3" font-family="Times,serif" font-size="14.00">Detect Buoy</text>
</g>
<!-- 01547ab5&#45;a0ff&#45;4343&#45;a19b&#45;1112fc270931&#45;&gt;2477a059&#45;006e&#45;4e45&#45;aef7&#45;1cd2f34ccc50 -->
<g id="edge16" class="edge">
<title>01547ab5&#45;a0ff&#45;4343&#45;a19b&#45;1112fc270931&#45;&gt;2477a059&#45;006e&#45;4e45&#45;aef7&#45;1cd2f34ccc50</title>
<path fill="none" stroke="purple" d="M442.64,-573.8C448.32,-583.35 453.11,-595.64 450,-607 442.63,-633.91 436.36,-640 418,-661 371.25,-714.49 299.68,-756.54 253.1,-780.34"/>
<polygon fill="purple" stroke="purple" points="251.49,-777.23 244.14,-784.85 254.64,-783.48 251.49,-777.23"/>
<text text-anchor="middle" x="434.5" y="-682.8" font-family="Times,serif" font-size="14.00" fill="purple">Pass Data</text>
</g>
<!-- b5da0e5d&#45;6233&#45;4800&#45;a927&#45;be5cd0942c74&#45;&gt;01547ab5&#45;a0ff&#45;4343&#45;a19b&#45;1112fc270931 -->
<g id="edge17" class="edge">
<title>b5da0e5d&#45;6233&#45;4800&#45;a927&#45;be5cd0942c74&#45;&gt;01547ab5&#45;a0ff&#45;4343&#45;a19b&#45;1112fc270931</title>
<path fill="none" stroke="purple" d="M342.26,-625.14C347.43,-614.63 355.19,-601.37 365,-592 372.09,-585.23 380.74,-579.39 389.39,-574.52"/>
<polygon fill="purple" stroke="purple" points="391.12,-577.56 398.33,-569.79 387.85,-571.37 391.12,-577.56"/>
<text text-anchor="middle" x="400.5" y="-595.8" font-family="Times,serif" font-size="14.00" fill="purple">Pass Data</text>
</g>
</g>
</svg>
