<?xml version="1.0" encoding="UTF-8" standalone="no"?>
<!DOCTYPE svg PUBLIC "-//W3C//DTD SVG 1.1//EN"
 "http://www.w3.org/Graphics/SVG/1.1/DTD/svg11.dtd">
<!-- Generated by graphviz version 2.43.0 (0)
 -->
<!-- Title: G Pages: 1 -->
<svg width="158pt" height="404pt"
 viewBox="0.00 0.00 157.61 404.00" xmlns="http://www.w3.org/2000/svg" xmlns:xlink="http://www.w3.org/1999/xlink">
<g id="graph0" class="graph" transform="scale(1 1) rotate(0) translate(4 400)">
<title>G</title>
<polygon fill="transparent" stroke="transparent" points="-4,4 -4,-400 153.61,-400 153.61,4 -4,4"/>
<!-- b6446092&#45;dc9e&#45;4671&#45;a31e&#45;95745f43a8ce -->
<g id="node1" class="node">
<title>b6446092&#45;dc9e&#45;4671&#45;a31e&#45;95745f43a8ce</title>
<ellipse fill="none" stroke="black" cx="74.8" cy="-306" rx="33.6" ry="18"/>
<text text-anchor="middle" x="74.8" y="-302.3" font-family="Times,serif" font-size="14.00">Descend</text>
</g>
<!-- 2df2a929&#45;469e&#45;4a6f&#45;95c9&#45;49effbfd6bea -->
<g id="node2" class="node">
<title>2df2a929&#45;469e&#45;4a6f&#45;95c9&#45;49effbfd6bea</title>
<ellipse fill="none" stroke="black" cx="74.8" cy="-234" rx="47.1" ry="18"/>
<text text-anchor="middle" x="74.8" y="-230.3" font-family="Times,serif" font-size="14.00">DelayAction</text>
</g>
<!-- b6446092&#45;dc9e&#45;4671&#45;a31e&#45;95745f43a8ce&#45;&gt;2df2a929&#45;469e&#45;4a6f&#45;95c9&#45;49effbfd6bea -->
<g id="edge1" class="edge">
<title>b6446092&#45;dc9e&#45;4671&#45;a31e&#45;95745f43a8ce&#45;&gt;2df2a929&#45;469e&#45;4a6f&#45;95c9&#45;49effbfd6bea</title>
<path fill="none" stroke="black" d="M74.8,-287.7C74.8,-279.98 74.8,-270.71 74.8,-262.11"/>
<polygon fill="black" stroke="black" points="78.3,-262.1 74.8,-252.1 71.3,-262.1 78.3,-262.1"/>
</g>
<!-- 35c7fc4e&#45;e98e&#45;4963&#45;bea8&#45;255a25f0ecc9 -->
<g id="node3" class="node">
<title>35c7fc4e&#45;e98e&#45;4963&#45;bea8&#45;255a25f0ecc9</title>
<ellipse fill="none" stroke="black" cx="74.8" cy="-162" rx="74.61" ry="18"/>
<text text-anchor="middle" x="74.8" y="-158.3" font-family="Times,serif" font-size="14.00">StraightMovement</text>
</g>
<!-- 2df2a929&#45;469e&#45;4a6f&#45;95c9&#45;49effbfd6bea&#45;&gt;35c7fc4e&#45;e98e&#45;4963&#45;bea8&#45;255a25f0ecc9 -->
<g id="edge4" class="edge">
<title>2df2a929&#45;469e&#45;4a6f&#45;95c9&#45;49effbfd6bea&#45;&gt;35c7fc4e&#45;e98e&#45;4963&#45;bea8&#45;255a25f0ecc9</title>
<path fill="none" stroke="black" d="M74.8,-215.7C74.8,-207.98 74.8,-198.71 74.8,-190.11"/>
<polygon fill="black" stroke="black" points="78.3,-190.1 74.8,-180.1 71.3,-190.1 78.3,-190.1"/>
</g>
<!-- 6dc58549&#45;1aff&#45;41d4&#45;a284&#45;37a46991ed9e -->
<g id="node4" class="node">
<title>6dc58549&#45;1aff&#45;41d4&#45;a284&#45;37a46991ed9e</title>
<ellipse fill="none" stroke="black" cx="74.8" cy="-90" rx="47.1" ry="18"/>
<text text-anchor="middle" x="74.8" y="-86.3" font-family="Times,serif" font-size="14.00">DelayAction</text>
</g>
<!-- 35c7fc4e&#45;e98e&#45;4963&#45;bea8&#45;255a25f0ecc9&#45;&gt;6dc58549&#45;1aff&#45;41d4&#45;a284&#45;37a46991ed9e -->
<g id="edge2" class="edge">
<title>35c7fc4e&#45;e98e&#45;4963&#45;bea8&#45;255a25f0ecc9&#45;&gt;6dc58549&#45;1aff&#45;41d4&#45;a284&#45;37a46991ed9e</title>
<path fill="none" stroke="black" d="M74.8,-143.7C74.8,-135.98 74.8,-126.71 74.8,-118.11"/>
<polygon fill="black" stroke="black" points="78.3,-118.1 74.8,-108.1 71.3,-118.1 78.3,-118.1"/>
</g>
<!-- 126383b2&#45;1b3d&#45;44aa&#45;95a5&#45;1b7a4696e5e3 -->
<g id="node5" class="node">
<title>126383b2&#45;1b3d&#45;44aa&#45;95a5&#45;1b7a4696e5e3</title>
<ellipse fill="none" stroke="black" cx="74.8" cy="-18" rx="59.9" ry="18"/>
<text text-anchor="middle" x="74.8" y="-14.3" font-family="Times,serif" font-size="14.00">ZeroMovement</text>
</g>
<!-- 6dc58549&#45;1aff&#45;41d4&#45;a284&#45;37a46991ed9e&#45;&gt;126383b2&#45;1b3d&#45;44aa&#45;95a5&#45;1b7a4696e5e3 -->
<g id="edge3" class="edge">
<title>6dc58549&#45;1aff&#45;41d4&#45;a284&#45;37a46991ed9e&#45;&gt;126383b2&#45;1b3d&#45;44aa&#45;95a5&#45;1b7a4696e5e3</title>
<path fill="none" stroke="black" d="M74.8,-71.7C74.8,-63.98 74.8,-54.71 74.8,-46.11"/>
<polygon fill="black" stroke="black" points="78.3,-46.1 74.8,-36.1 71.3,-46.1 78.3,-46.1"/>
</g>
<!-- 1e4a48c5&#45;5f2d&#45;46bd&#45;983b&#45;87c8da5bdab5 -->
<g id="node6" class="node">
<title>1e4a48c5&#45;5f2d&#45;46bd&#45;983b&#45;87c8da5bdab5</title>
<ellipse fill="none" stroke="black" cx="74.8" cy="-378" rx="34.8" ry="18"/>
<text text-anchor="middle" x="74.8" y="-374.3" font-family="Times,serif" font-size="14.00">WaitArm</text>
</g>
<!-- 1e4a48c5&#45;5f2d&#45;46bd&#45;983b&#45;87c8da5bdab5&#45;&gt;b6446092&#45;dc9e&#45;4671&#45;a31e&#45;95745f43a8ce -->
<g id="edge5" class="edge">
<title>1e4a48c5&#45;5f2d&#45;46bd&#45;983b&#45;87c8da5bdab5&#45;&gt;b6446092&#45;dc9e&#45;4671&#45;a31e&#45;95745f43a8ce</title>
<path fill="none" stroke="black" d="M74.8,-359.7C74.8,-351.98 74.8,-342.71 74.8,-334.11"/>
<polygon fill="black" stroke="black" points="78.3,-334.1 74.8,-324.1 71.3,-334.1 78.3,-334.1"/>
</g>
</g>
</svg>
