<?xml version="1.0" encoding="UTF-8" standalone="no"?>
<!DOCTYPE svg PUBLIC "-//W3C//DTD SVG 1.1//EN"
 "http://www.w3.org/Graphics/SVG/1.1/DTD/svg11.dtd">
<!-- Generated by graphviz version 2.43.0 (0)
 -->
<!-- Title: G Pages: 1 -->
<svg width="158pt" height="404pt"
 viewBox="0.00 0.00 157.61 404.00" xmlns="http://www.w3.org/2000/svg" xmlns:xlink="http://www.w3.org/1999/xlink">
<g id="graph0" class="graph" transform="scale(1 1) rotate(0) translate(4 400)">
<title>G</title>
<polygon fill="transparent" stroke="transparent" points="-4,4 -4,-400 153.61,-400 153.61,4 -4,4"/>
<!-- 201c29d5&#45;9689&#45;4135&#45;9075&#45;a9e5971a47a6 -->
<g id="node1" class="node">
<title>201c29d5&#45;9689&#45;4135&#45;9075&#45;a9e5971a47a6</title>
<ellipse fill="none" stroke="black" cx="74.8" cy="-306" rx="33.6" ry="18"/>
<text text-anchor="middle" x="74.8" y="-302.3" font-family="Times,serif" font-size="14.00">Descend</text>
</g>
<!-- 3fc16c16&#45;8df7&#45;42dd&#45;ba19&#45;56867e8de047 -->
<g id="node2" class="node">
<title>3fc16c16&#45;8df7&#45;42dd&#45;ba19&#45;56867e8de047</title>
<ellipse fill="none" stroke="black" cx="74.8" cy="-234" rx="47.1" ry="18"/>
<text text-anchor="middle" x="74.8" y="-230.3" font-family="Times,serif" font-size="14.00">DelayAction</text>
</g>
<!-- 201c29d5&#45;9689&#45;4135&#45;9075&#45;a9e5971a47a6&#45;&gt;3fc16c16&#45;8df7&#45;42dd&#45;ba19&#45;56867e8de047 -->
<g id="edge1" class="edge">
<title>201c29d5&#45;9689&#45;4135&#45;9075&#45;a9e5971a47a6&#45;&gt;3fc16c16&#45;8df7&#45;42dd&#45;ba19&#45;56867e8de047</title>
<path fill="none" stroke="black" d="M74.8,-287.7C74.8,-279.98 74.8,-270.71 74.8,-262.11"/>
<polygon fill="black" stroke="black" points="78.3,-262.1 74.8,-252.1 71.3,-262.1 78.3,-262.1"/>
</g>
<!-- ebb237b6&#45;fe0b&#45;4e53&#45;a6a4&#45;7522e9e211a1 -->
<g id="node3" class="node">
<title>ebb237b6&#45;fe0b&#45;4e53&#45;a6a4&#45;7522e9e211a1</title>
<ellipse fill="none" stroke="black" cx="74.8" cy="-162" rx="74.61" ry="18"/>
<text text-anchor="middle" x="74.8" y="-158.3" font-family="Times,serif" font-size="14.00">StraightMovement</text>
</g>
<!-- 3fc16c16&#45;8df7&#45;42dd&#45;ba19&#45;56867e8de047&#45;&gt;ebb237b6&#45;fe0b&#45;4e53&#45;a6a4&#45;7522e9e211a1 -->
<g id="edge4" class="edge">
<title>3fc16c16&#45;8df7&#45;42dd&#45;ba19&#45;56867e8de047&#45;&gt;ebb237b6&#45;fe0b&#45;4e53&#45;a6a4&#45;7522e9e211a1</title>
<path fill="none" stroke="black" d="M74.8,-215.7C74.8,-207.98 74.8,-198.71 74.8,-190.11"/>
<polygon fill="black" stroke="black" points="78.3,-190.1 74.8,-180.1 71.3,-190.1 78.3,-190.1"/>
</g>
<!-- b2c54f4e&#45;95f9&#45;44f9&#45;aa71&#45;69acf678ff3d -->
<g id="node4" class="node">
<title>b2c54f4e&#45;95f9&#45;44f9&#45;aa71&#45;69acf678ff3d</title>
<ellipse fill="none" stroke="black" cx="74.8" cy="-90" rx="47.1" ry="18"/>
<text text-anchor="middle" x="74.8" y="-86.3" font-family="Times,serif" font-size="14.00">DelayAction</text>
</g>
<!-- ebb237b6&#45;fe0b&#45;4e53&#45;a6a4&#45;7522e9e211a1&#45;&gt;b2c54f4e&#45;95f9&#45;44f9&#45;aa71&#45;69acf678ff3d -->
<g id="edge2" class="edge">
<title>ebb237b6&#45;fe0b&#45;4e53&#45;a6a4&#45;7522e9e211a1&#45;&gt;b2c54f4e&#45;95f9&#45;44f9&#45;aa71&#45;69acf678ff3d</title>
<path fill="none" stroke="black" d="M74.8,-143.7C74.8,-135.98 74.8,-126.71 74.8,-118.11"/>
<polygon fill="black" stroke="black" points="78.3,-118.1 74.8,-108.1 71.3,-118.1 78.3,-118.1"/>
</g>
<!-- 39214d12&#45;18a8&#45;423d&#45;b793&#45;616d06b23991 -->
<g id="node5" class="node">
<title>39214d12&#45;18a8&#45;423d&#45;b793&#45;616d06b23991</title>
<ellipse fill="none" stroke="black" cx="74.8" cy="-18" rx="59.9" ry="18"/>
<text text-anchor="middle" x="74.8" y="-14.3" font-family="Times,serif" font-size="14.00">ZeroMovement</text>
</g>
<!-- b2c54f4e&#45;95f9&#45;44f9&#45;aa71&#45;69acf678ff3d&#45;&gt;39214d12&#45;18a8&#45;423d&#45;b793&#45;616d06b23991 -->
<g id="edge3" class="edge">
<title>b2c54f4e&#45;95f9&#45;44f9&#45;aa71&#45;69acf678ff3d&#45;&gt;39214d12&#45;18a8&#45;423d&#45;b793&#45;616d06b23991</title>
<path fill="none" stroke="black" d="M74.8,-71.7C74.8,-63.98 74.8,-54.71 74.8,-46.11"/>
<polygon fill="black" stroke="black" points="78.3,-46.1 74.8,-36.1 71.3,-46.1 78.3,-46.1"/>
</g>
<!-- 29baf67c&#45;ae50&#45;46cc&#45;9cc7&#45;3e8514eec5ff -->
<g id="node6" class="node">
<title>29baf67c&#45;ae50&#45;46cc&#45;9cc7&#45;3e8514eec5ff</title>
<ellipse fill="none" stroke="black" cx="74.8" cy="-378" rx="34.8" ry="18"/>
<text text-anchor="middle" x="74.8" y="-374.3" font-family="Times,serif" font-size="14.00">WaitArm</text>
</g>
<!-- 29baf67c&#45;ae50&#45;46cc&#45;9cc7&#45;3e8514eec5ff&#45;&gt;201c29d5&#45;9689&#45;4135&#45;9075&#45;a9e5971a47a6 -->
<g id="edge5" class="edge">
<title>29baf67c&#45;ae50&#45;46cc&#45;9cc7&#45;3e8514eec5ff&#45;&gt;201c29d5&#45;9689&#45;4135&#45;9075&#45;a9e5971a47a6</title>
<path fill="none" stroke="black" d="M74.8,-359.7C74.8,-351.98 74.8,-342.71 74.8,-334.11"/>
<polygon fill="black" stroke="black" points="78.3,-334.1 74.8,-324.1 71.3,-334.1 78.3,-334.1"/>
</g>
</g>
</svg>
