<?xml version="1.0" encoding="UTF-8" standalone="no"?>
<!DOCTYPE svg PUBLIC "-//W3C//DTD SVG 1.1//EN"
 "http://www.w3.org/Graphics/SVG/1.1/DTD/svg11.dtd">
<!-- Generated by graphviz version 2.43.0 (0)
 -->
<!-- Title: G Pages: 1 -->
<svg width="158pt" height="404pt"
 viewBox="0.00 0.00 157.61 404.00" xmlns="http://www.w3.org/2000/svg" xmlns:xlink="http://www.w3.org/1999/xlink">
<g id="graph0" class="graph" transform="scale(1 1) rotate(0) translate(4 400)">
<title>G</title>
<polygon fill="transparent" stroke="transparent" points="-4,4 -4,-400 153.61,-400 153.61,4 -4,4"/>
<!-- caaa9611&#45;dd5d&#45;4faf&#45;a5c1&#45;7cc45cf0dacc -->
<g id="node1" class="node">
<title>caaa9611&#45;dd5d&#45;4faf&#45;a5c1&#45;7cc45cf0dacc</title>
<ellipse fill="none" stroke="black" cx="74.8" cy="-306" rx="33.6" ry="18"/>
<text text-anchor="middle" x="74.8" y="-302.3" font-family="Times,serif" font-size="14.00">Descend</text>
</g>
<!-- 19c1c152&#45;66af&#45;4617&#45;80ca&#45;0872fdcba749 -->
<g id="node2" class="node">
<title>19c1c152&#45;66af&#45;4617&#45;80ca&#45;0872fdcba749</title>
<ellipse fill="none" stroke="black" cx="74.8" cy="-234" rx="47.1" ry="18"/>
<text text-anchor="middle" x="74.8" y="-230.3" font-family="Times,serif" font-size="14.00">DelayAction</text>
</g>
<!-- caaa9611&#45;dd5d&#45;4faf&#45;a5c1&#45;7cc45cf0dacc&#45;&gt;19c1c152&#45;66af&#45;4617&#45;80ca&#45;0872fdcba749 -->
<g id="edge1" class="edge">
<title>caaa9611&#45;dd5d&#45;4faf&#45;a5c1&#45;7cc45cf0dacc&#45;&gt;19c1c152&#45;66af&#45;4617&#45;80ca&#45;0872fdcba749</title>
<path fill="none" stroke="black" d="M74.8,-287.7C74.8,-279.98 74.8,-270.71 74.8,-262.11"/>
<polygon fill="black" stroke="black" points="78.3,-262.1 74.8,-252.1 71.3,-262.1 78.3,-262.1"/>
</g>
<!-- 6ecd9720&#45;1ac5&#45;46a0&#45;aac9&#45;afe59efc7e09 -->
<g id="node3" class="node">
<title>6ecd9720&#45;1ac5&#45;46a0&#45;aac9&#45;afe59efc7e09</title>
<ellipse fill="none" stroke="black" cx="74.8" cy="-162" rx="74.61" ry="18"/>
<text text-anchor="middle" x="74.8" y="-158.3" font-family="Times,serif" font-size="14.00">StraightMovement</text>
</g>
<!-- 19c1c152&#45;66af&#45;4617&#45;80ca&#45;0872fdcba749&#45;&gt;6ecd9720&#45;1ac5&#45;46a0&#45;aac9&#45;afe59efc7e09 -->
<g id="edge4" class="edge">
<title>19c1c152&#45;66af&#45;4617&#45;80ca&#45;0872fdcba749&#45;&gt;6ecd9720&#45;1ac5&#45;46a0&#45;aac9&#45;afe59efc7e09</title>
<path fill="none" stroke="black" d="M74.8,-215.7C74.8,-207.98 74.8,-198.71 74.8,-190.11"/>
<polygon fill="black" stroke="black" points="78.3,-190.1 74.8,-180.1 71.3,-190.1 78.3,-190.1"/>
</g>
<!-- 55e8a9ee&#45;c39a&#45;40ce&#45;bece&#45;07a834c3d03c -->
<g id="node4" class="node">
<title>55e8a9ee&#45;c39a&#45;40ce&#45;bece&#45;07a834c3d03c</title>
<ellipse fill="none" stroke="black" cx="74.8" cy="-90" rx="47.1" ry="18"/>
<text text-anchor="middle" x="74.8" y="-86.3" font-family="Times,serif" font-size="14.00">DelayAction</text>
</g>
<!-- 6ecd9720&#45;1ac5&#45;46a0&#45;aac9&#45;afe59efc7e09&#45;&gt;55e8a9ee&#45;c39a&#45;40ce&#45;bece&#45;07a834c3d03c -->
<g id="edge2" class="edge">
<title>6ecd9720&#45;1ac5&#45;46a0&#45;aac9&#45;afe59efc7e09&#45;&gt;55e8a9ee&#45;c39a&#45;40ce&#45;bece&#45;07a834c3d03c</title>
<path fill="none" stroke="black" d="M74.8,-143.7C74.8,-135.98 74.8,-126.71 74.8,-118.11"/>
<polygon fill="black" stroke="black" points="78.3,-118.1 74.8,-108.1 71.3,-118.1 78.3,-118.1"/>
</g>
<!-- f8c5e620&#45;63d8&#45;4011&#45;b297&#45;20c1804a993e -->
<g id="node5" class="node">
<title>f8c5e620&#45;63d8&#45;4011&#45;b297&#45;20c1804a993e</title>
<ellipse fill="none" stroke="black" cx="74.8" cy="-18" rx="59.9" ry="18"/>
<text text-anchor="middle" x="74.8" y="-14.3" font-family="Times,serif" font-size="14.00">ZeroMovement</text>
</g>
<!-- 55e8a9ee&#45;c39a&#45;40ce&#45;bece&#45;07a834c3d03c&#45;&gt;f8c5e620&#45;63d8&#45;4011&#45;b297&#45;20c1804a993e -->
<g id="edge3" class="edge">
<title>55e8a9ee&#45;c39a&#45;40ce&#45;bece&#45;07a834c3d03c&#45;&gt;f8c5e620&#45;63d8&#45;4011&#45;b297&#45;20c1804a993e</title>
<path fill="none" stroke="black" d="M74.8,-71.7C74.8,-63.98 74.8,-54.71 74.8,-46.11"/>
<polygon fill="black" stroke="black" points="78.3,-46.1 74.8,-36.1 71.3,-46.1 78.3,-46.1"/>
</g>
<!-- 33e90f0e&#45;449a&#45;40d5&#45;a560&#45;e7bd725d5b3b -->
<g id="node6" class="node">
<title>33e90f0e&#45;449a&#45;40d5&#45;a560&#45;e7bd725d5b3b</title>
<ellipse fill="none" stroke="black" cx="74.8" cy="-378" rx="34.8" ry="18"/>
<text text-anchor="middle" x="74.8" y="-374.3" font-family="Times,serif" font-size="14.00">WaitArm</text>
</g>
<!-- 33e90f0e&#45;449a&#45;40d5&#45;a560&#45;e7bd725d5b3b&#45;&gt;caaa9611&#45;dd5d&#45;4faf&#45;a5c1&#45;7cc45cf0dacc -->
<g id="edge5" class="edge">
<title>33e90f0e&#45;449a&#45;40d5&#45;a560&#45;e7bd725d5b3b&#45;&gt;caaa9611&#45;dd5d&#45;4faf&#45;a5c1&#45;7cc45cf0dacc</title>
<path fill="none" stroke="black" d="M74.8,-359.7C74.8,-351.98 74.8,-342.71 74.8,-334.11"/>
<polygon fill="black" stroke="black" points="78.3,-334.1 74.8,-324.1 71.3,-334.1 78.3,-334.1"/>
</g>
</g>
</svg>
