<?xml version="1.0" encoding="UTF-8" standalone="no"?>
<!DOCTYPE svg PUBLIC "-//W3C//DTD SVG 1.1//EN"
 "http://www.w3.org/Graphics/SVG/1.1/DTD/svg11.dtd">
<!-- Generated by graphviz version 2.43.0 (0)
 -->
<!-- Title: G Pages: 1 -->
<svg width="158pt" height="404pt"
 viewBox="0.00 0.00 157.61 404.00" xmlns="http://www.w3.org/2000/svg" xmlns:xlink="http://www.w3.org/1999/xlink">
<g id="graph0" class="graph" transform="scale(1 1) rotate(0) translate(4 400)">
<title>G</title>
<polygon fill="transparent" stroke="transparent" points="-4,4 -4,-400 153.61,-400 153.61,4 -4,4"/>
<!-- fc8e2b21&#45;9a40&#45;4899&#45;8fb1&#45;cf173366d523 -->
<g id="node1" class="node">
<title>fc8e2b21&#45;9a40&#45;4899&#45;8fb1&#45;cf173366d523</title>
<ellipse fill="none" stroke="black" cx="74.8" cy="-306" rx="33.6" ry="18"/>
<text text-anchor="middle" x="74.8" y="-302.3" font-family="Times,serif" font-size="14.00">Descend</text>
</g>
<!-- 7ac24259&#45;0e02&#45;4e36&#45;9b6d&#45;a018da220c71 -->
<g id="node2" class="node">
<title>7ac24259&#45;0e02&#45;4e36&#45;9b6d&#45;a018da220c71</title>
<ellipse fill="none" stroke="black" cx="74.8" cy="-234" rx="47.1" ry="18"/>
<text text-anchor="middle" x="74.8" y="-230.3" font-family="Times,serif" font-size="14.00">DelayAction</text>
</g>
<!-- fc8e2b21&#45;9a40&#45;4899&#45;8fb1&#45;cf173366d523&#45;&gt;7ac24259&#45;0e02&#45;4e36&#45;9b6d&#45;a018da220c71 -->
<g id="edge1" class="edge">
<title>fc8e2b21&#45;9a40&#45;4899&#45;8fb1&#45;cf173366d523&#45;&gt;7ac24259&#45;0e02&#45;4e36&#45;9b6d&#45;a018da220c71</title>
<path fill="none" stroke="black" d="M74.8,-287.7C74.8,-279.98 74.8,-270.71 74.8,-262.11"/>
<polygon fill="black" stroke="black" points="78.3,-262.1 74.8,-252.1 71.3,-262.1 78.3,-262.1"/>
</g>
<!-- 20e93367&#45;2b1d&#45;42a8&#45;9b6b&#45;534a63be8d2d -->
<g id="node3" class="node">
<title>20e93367&#45;2b1d&#45;42a8&#45;9b6b&#45;534a63be8d2d</title>
<ellipse fill="none" stroke="black" cx="74.8" cy="-162" rx="74.61" ry="18"/>
<text text-anchor="middle" x="74.8" y="-158.3" font-family="Times,serif" font-size="14.00">StraightMovement</text>
</g>
<!-- 7ac24259&#45;0e02&#45;4e36&#45;9b6d&#45;a018da220c71&#45;&gt;20e93367&#45;2b1d&#45;42a8&#45;9b6b&#45;534a63be8d2d -->
<g id="edge4" class="edge">
<title>7ac24259&#45;0e02&#45;4e36&#45;9b6d&#45;a018da220c71&#45;&gt;20e93367&#45;2b1d&#45;42a8&#45;9b6b&#45;534a63be8d2d</title>
<path fill="none" stroke="black" d="M74.8,-215.7C74.8,-207.98 74.8,-198.71 74.8,-190.11"/>
<polygon fill="black" stroke="black" points="78.3,-190.1 74.8,-180.1 71.3,-190.1 78.3,-190.1"/>
</g>
<!-- a0e21ca5&#45;c0ae&#45;4c2a&#45;a1f0&#45;1534705ef1b1 -->
<g id="node4" class="node">
<title>a0e21ca5&#45;c0ae&#45;4c2a&#45;a1f0&#45;1534705ef1b1</title>
<ellipse fill="none" stroke="black" cx="74.8" cy="-90" rx="47.1" ry="18"/>
<text text-anchor="middle" x="74.8" y="-86.3" font-family="Times,serif" font-size="14.00">DelayAction</text>
</g>
<!-- 20e93367&#45;2b1d&#45;42a8&#45;9b6b&#45;534a63be8d2d&#45;&gt;a0e21ca5&#45;c0ae&#45;4c2a&#45;a1f0&#45;1534705ef1b1 -->
<g id="edge2" class="edge">
<title>20e93367&#45;2b1d&#45;42a8&#45;9b6b&#45;534a63be8d2d&#45;&gt;a0e21ca5&#45;c0ae&#45;4c2a&#45;a1f0&#45;1534705ef1b1</title>
<path fill="none" stroke="black" d="M74.8,-143.7C74.8,-135.98 74.8,-126.71 74.8,-118.11"/>
<polygon fill="black" stroke="black" points="78.3,-118.1 74.8,-108.1 71.3,-118.1 78.3,-118.1"/>
</g>
<!-- 2f9e2e2b&#45;6e95&#45;4b55&#45;88e5&#45;8afcf0a742bf -->
<g id="node5" class="node">
<title>2f9e2e2b&#45;6e95&#45;4b55&#45;88e5&#45;8afcf0a742bf</title>
<ellipse fill="none" stroke="black" cx="74.8" cy="-18" rx="59.9" ry="18"/>
<text text-anchor="middle" x="74.8" y="-14.3" font-family="Times,serif" font-size="14.00">ZeroMovement</text>
</g>
<!-- a0e21ca5&#45;c0ae&#45;4c2a&#45;a1f0&#45;1534705ef1b1&#45;&gt;2f9e2e2b&#45;6e95&#45;4b55&#45;88e5&#45;8afcf0a742bf -->
<g id="edge3" class="edge">
<title>a0e21ca5&#45;c0ae&#45;4c2a&#45;a1f0&#45;1534705ef1b1&#45;&gt;2f9e2e2b&#45;6e95&#45;4b55&#45;88e5&#45;8afcf0a742bf</title>
<path fill="none" stroke="black" d="M74.8,-71.7C74.8,-63.98 74.8,-54.71 74.8,-46.11"/>
<polygon fill="black" stroke="black" points="78.3,-46.1 74.8,-36.1 71.3,-46.1 78.3,-46.1"/>
</g>
<!-- 12e85c9a&#45;d4de&#45;4584&#45;8e73&#45;ce5700190330 -->
<g id="node6" class="node">
<title>12e85c9a&#45;d4de&#45;4584&#45;8e73&#45;ce5700190330</title>
<ellipse fill="none" stroke="black" cx="74.8" cy="-378" rx="34.8" ry="18"/>
<text text-anchor="middle" x="74.8" y="-374.3" font-family="Times,serif" font-size="14.00">WaitArm</text>
</g>
<!-- 12e85c9a&#45;d4de&#45;4584&#45;8e73&#45;ce5700190330&#45;&gt;fc8e2b21&#45;9a40&#45;4899&#45;8fb1&#45;cf173366d523 -->
<g id="edge5" class="edge">
<title>12e85c9a&#45;d4de&#45;4584&#45;8e73&#45;ce5700190330&#45;&gt;fc8e2b21&#45;9a40&#45;4899&#45;8fb1&#45;cf173366d523</title>
<path fill="none" stroke="black" d="M74.8,-359.7C74.8,-351.98 74.8,-342.71 74.8,-334.11"/>
<polygon fill="black" stroke="black" points="78.3,-334.1 74.8,-324.1 71.3,-334.1 78.3,-334.1"/>
</g>
</g>
</svg>
