<?xml version="1.0" encoding="UTF-8" standalone="no"?>
<!DOCTYPE svg PUBLIC "-//W3C//DTD SVG 1.1//EN"
 "http://www.w3.org/Graphics/SVG/1.1/DTD/svg11.dtd">
<!-- Generated by graphviz version 2.43.0 (0)
 -->
<!-- Title: G Pages: 1 -->
<svg width="326pt" height="277pt"
 viewBox="0.00 0.00 325.57 277.00" xmlns="http://www.w3.org/2000/svg" xmlns:xlink="http://www.w3.org/1999/xlink">
<g id="graph0" class="graph" transform="scale(1 1) rotate(0) translate(4 273)">
<title>G</title>
<polygon fill="transparent" stroke="transparent" points="-4,4 -4,-273 321.57,-273 321.57,4 -4,4"/>
<!-- 5e1e8123&#45;56df&#45;4385&#45;98f6&#45;2f91b614ccff -->
<g id="node1" class="node">
<title>5e1e8123&#45;56df&#45;4385&#45;98f6&#45;2f91b614ccff</title>
<polygon fill="none" stroke="black" points="105.79,-269 0.21,-251 105.79,-233 211.36,-251 105.79,-269"/>
<text text-anchor="middle" x="105.79" y="-247.3" font-family="Times,serif" font-size="14.00">DriveToBuoyVision</text>
</g>
<!-- 5e1e8123&#45;56df&#45;4385&#45;98f6&#45;2f91b614ccff&#45;&gt;5e1e8123&#45;56df&#45;4385&#45;98f6&#45;2f91b614ccff -->
<g id="edge1" class="edge">
<title>5e1e8123&#45;56df&#45;4385&#45;98f6&#45;2f91b614ccff&#45;&gt;5e1e8123&#45;56df&#45;4385&#45;98f6&#45;2f91b614ccff</title>
<path fill="none" stroke="black" d="M172.36,-257.72C226.91,-260.5 283.57,-258.26 283.57,-251 283.57,-244.19 233.78,-241.8 182.6,-243.82"/>
<polygon fill="black" stroke="black" points="182.19,-240.33 172.36,-244.28 182.5,-247.32 182.19,-240.33"/>
<text text-anchor="middle" x="300.57" y="-247.3" font-family="Times,serif" font-size="14.00">True</text>
</g>
<!-- f4b9213b&#45;63bd&#45;42df&#45;b942&#45;2dfc1359840c -->
<g id="node4" class="node">
<title>f4b9213b&#45;63bd&#45;42df&#45;b942&#45;2dfc1359840c</title>
<ellipse fill="none" stroke="black" cx="105.79" cy="-164" rx="74.61" ry="18"/>
<text text-anchor="middle" x="105.79" y="-160.3" font-family="Times,serif" font-size="14.00">StraightMovement</text>
</g>
<!-- 5e1e8123&#45;56df&#45;4385&#45;98f6&#45;2f91b614ccff&#45;&gt;f4b9213b&#45;63bd&#45;42df&#45;b942&#45;2dfc1359840c -->
<g id="edge4" class="edge">
<title>5e1e8123&#45;56df&#45;4385&#45;98f6&#45;2f91b614ccff&#45;&gt;f4b9213b&#45;63bd&#45;42df&#45;b942&#45;2dfc1359840c</title>
<path fill="none" stroke="black" d="M105.79,-232.8C105.79,-221.16 105.79,-205.55 105.79,-192.24"/>
<polygon fill="black" stroke="black" points="109.29,-192.18 105.79,-182.18 102.29,-192.18 109.29,-192.18"/>
<text text-anchor="middle" x="124.79" y="-203.8" font-family="Times,serif" font-size="14.00">False</text>
</g>
<!-- 89a1ce14&#45;d9cc&#45;4c92&#45;9cf8&#45;d2a83371c28d -->
<g id="node2" class="node">
<title>89a1ce14&#45;d9cc&#45;4c92&#45;9cf8&#45;d2a83371c28d</title>
<ellipse fill="none" stroke="black" cx="105.79" cy="-91" rx="47.1" ry="18"/>
<text text-anchor="middle" x="105.79" y="-87.3" font-family="Times,serif" font-size="14.00">DelayAction</text>
</g>
<!-- 73bc89b0&#45;4947&#45;4c4e&#45;b4e2&#45;085395291761 -->
<g id="node3" class="node">
<title>73bc89b0&#45;4947&#45;4c4e&#45;b4e2&#45;085395291761</title>
<ellipse fill="none" stroke="black" cx="105.79" cy="-18" rx="59.9" ry="18"/>
<text text-anchor="middle" x="105.79" y="-14.3" font-family="Times,serif" font-size="14.00">ZeroMovement</text>
</g>
<!-- 89a1ce14&#45;d9cc&#45;4c92&#45;9cf8&#45;d2a83371c28d&#45;&gt;73bc89b0&#45;4947&#45;4c4e&#45;b4e2&#45;085395291761 -->
<g id="edge2" class="edge">
<title>89a1ce14&#45;d9cc&#45;4c92&#45;9cf8&#45;d2a83371c28d&#45;&gt;73bc89b0&#45;4947&#45;4c4e&#45;b4e2&#45;085395291761</title>
<path fill="none" stroke="black" d="M105.79,-72.81C105.79,-64.79 105.79,-55.05 105.79,-46.07"/>
<polygon fill="black" stroke="black" points="109.29,-46.03 105.79,-36.03 102.29,-46.03 109.29,-46.03"/>
</g>
<!-- f4b9213b&#45;63bd&#45;42df&#45;b942&#45;2dfc1359840c&#45;&gt;89a1ce14&#45;d9cc&#45;4c92&#45;9cf8&#45;d2a83371c28d -->
<g id="edge3" class="edge">
<title>f4b9213b&#45;63bd&#45;42df&#45;b942&#45;2dfc1359840c&#45;&gt;89a1ce14&#45;d9cc&#45;4c92&#45;9cf8&#45;d2a83371c28d</title>
<path fill="none" stroke="black" d="M105.79,-145.81C105.79,-137.79 105.79,-128.05 105.79,-119.07"/>
<polygon fill="black" stroke="black" points="109.29,-119.03 105.79,-109.03 102.29,-119.03 109.29,-119.03"/>
</g>
</g>
</svg>
