<?xml version="1.0" encoding="UTF-8" standalone="no"?>
<!DOCTYPE svg PUBLIC "-//W3C//DTD SVG 1.1//EN"
 "http://www.w3.org/Graphics/SVG/1.1/DTD/svg11.dtd">
<!-- Generated by graphviz version 2.43.0 (0)
 -->
<!-- Title: G Pages: 1 -->
<svg width="318pt" height="987pt"
 viewBox="0.00 0.00 318.29 987.00" xmlns="http://www.w3.org/2000/svg" xmlns:xlink="http://www.w3.org/1999/xlink">
<g id="graph0" class="graph" transform="scale(1 1) rotate(0) translate(4 983)">
<title>G</title>
<polygon fill="transparent" stroke="transparent" points="-4,4 -4,-983 314.29,-983 314.29,4 -4,4"/>
<!-- 47664a42&#45;c973&#45;4b1f&#45;a764&#45;4e4553d4901b -->
<g id="node1" class="node">
<title>47664a42&#45;c973&#45;4b1f&#45;a764&#45;4e4553d4901b</title>
<polygon fill="none" stroke="black" points="65.34,-906 0.16,-888 65.34,-870 130.52,-888 65.34,-906"/>
<text text-anchor="middle" x="65.34" y="-884.3" font-family="Times,serif" font-size="14.00">AlwaysTrue</text>
</g>
<!-- 6a442205&#45;7da2&#45;4f68&#45;a1b2&#45;4761ef3b5fd2 -->
<g id="node11" class="node">
<title>6a442205&#45;7da2&#45;4f68&#45;a1b2&#45;4761ef3b5fd2</title>
<ellipse fill="none" stroke="black" cx="103.34" cy="-801" rx="46.5" ry="18"/>
<text text-anchor="middle" x="103.34" y="-797.3" font-family="Times,serif" font-size="14.00">VisionNorm</text>
</g>
<!-- 47664a42&#45;c973&#45;4b1f&#45;a764&#45;4e4553d4901b&#45;&gt;6a442205&#45;7da2&#45;4f68&#45;a1b2&#45;4761ef3b5fd2 -->
<g id="edge10" class="edge">
<title>47664a42&#45;c973&#45;4b1f&#45;a764&#45;4e4553d4901b&#45;&gt;6a442205&#45;7da2&#45;4f68&#45;a1b2&#45;4761ef3b5fd2</title>
<path fill="none" stroke="black" d="M72.13,-871.8C77.54,-859.7 85.25,-842.47 91.65,-828.16"/>
<polygon fill="black" stroke="black" points="94.94,-829.37 95.82,-818.81 88.55,-826.51 94.94,-829.37"/>
<text text-anchor="middle" x="104.34" y="-840.8" font-family="Times,serif" font-size="14.00">True</text>
</g>
<!-- ee02bbd6&#45;7e1f&#45;4fd7&#45;b53b&#45;bb5d48ac6603 -->
<g id="node2" class="node">
<title>ee02bbd6&#45;7e1f&#45;4fd7&#45;b53b&#45;bb5d48ac6603</title>
<ellipse fill="none" stroke="black" cx="103.34" cy="-105" rx="27" ry="18"/>
<text text-anchor="middle" x="103.34" y="-101.3" font-family="Times,serif" font-size="14.00">FlatX</text>
</g>
<!-- e023ef8b&#45;5f6e&#45;4de4&#45;a27f&#45;ae573e62f5f9 -->
<g id="node3" class="node">
<title>e023ef8b&#45;5f6e&#45;4de4&#45;a27f&#45;ae573e62f5f9</title>
<ellipse fill="none" stroke="black" cx="103.34" cy="-18" rx="80.11" ry="18"/>
<text text-anchor="middle" x="103.34" y="-14.3" font-family="Times,serif" font-size="14.00">Stability2Movement</text>
</g>
<!-- ee02bbd6&#45;7e1f&#45;4fd7&#45;b53b&#45;bb5d48ac6603&#45;&gt;e023ef8b&#45;5f6e&#45;4de4&#45;a27f&#45;ae573e62f5f9 -->
<g id="edge1" class="edge">
<title>ee02bbd6&#45;7e1f&#45;4fd7&#45;b53b&#45;bb5d48ac6603&#45;&gt;e023ef8b&#45;5f6e&#45;4de4&#45;a27f&#45;ae573e62f5f9</title>
<path fill="none" stroke="purple" d="M103.34,-86.8C103.34,-75.16 103.34,-59.55 103.34,-46.24"/>
<polygon fill="purple" stroke="purple" points="106.84,-46.18 103.34,-36.18 99.84,-46.18 106.84,-46.18"/>
<text text-anchor="middle" x="138.84" y="-57.8" font-family="Times,serif" font-size="14.00" fill="purple">Pass Data</text>
</g>
<!-- e9cca7ee&#45;3cbf&#45;49fe&#45;b0d7&#45;42d204c55081 -->
<g id="node4" class="node">
<title>e9cca7ee&#45;3cbf&#45;49fe&#45;b0d7&#45;42d204c55081</title>
<ellipse fill="none" stroke="black" cx="103.34" cy="-192" rx="27" ry="18"/>
<text text-anchor="middle" x="103.34" y="-188.3" font-family="Times,serif" font-size="14.00">StripY</text>
</g>
<!-- e9cca7ee&#45;3cbf&#45;49fe&#45;b0d7&#45;42d204c55081&#45;&gt;ee02bbd6&#45;7e1f&#45;4fd7&#45;b53b&#45;bb5d48ac6603 -->
<g id="edge2" class="edge">
<title>e9cca7ee&#45;3cbf&#45;49fe&#45;b0d7&#45;42d204c55081&#45;&gt;ee02bbd6&#45;7e1f&#45;4fd7&#45;b53b&#45;bb5d48ac6603</title>
<path fill="none" stroke="purple" d="M103.34,-173.8C103.34,-162.16 103.34,-146.55 103.34,-133.24"/>
<polygon fill="purple" stroke="purple" points="106.84,-133.18 103.34,-123.18 99.84,-133.18 106.84,-133.18"/>
<text text-anchor="middle" x="138.84" y="-144.8" font-family="Times,serif" font-size="14.00" fill="purple">Pass Data</text>
</g>
<!-- 2f8e23db&#45;d1c1&#45;4c18&#45;8819&#45;10dc3b7133c4 -->
<g id="node5" class="node">
<title>2f8e23db&#45;d1c1&#45;4c18&#45;8819&#45;10dc3b7133c4</title>
<ellipse fill="none" stroke="black" cx="103.34" cy="-279" rx="52.6" ry="18"/>
<text text-anchor="middle" x="103.34" y="-275.3" font-family="Times,serif" font-size="14.00">Anon Closure</text>
</g>
<!-- 2f8e23db&#45;d1c1&#45;4c18&#45;8819&#45;10dc3b7133c4&#45;&gt;e9cca7ee&#45;3cbf&#45;49fe&#45;b0d7&#45;42d204c55081 -->
<g id="edge3" class="edge">
<title>2f8e23db&#45;d1c1&#45;4c18&#45;8819&#45;10dc3b7133c4&#45;&gt;e9cca7ee&#45;3cbf&#45;49fe&#45;b0d7&#45;42d204c55081</title>
<path fill="none" stroke="purple" d="M103.34,-260.8C103.34,-249.16 103.34,-233.55 103.34,-220.24"/>
<polygon fill="purple" stroke="purple" points="106.84,-220.18 103.34,-210.18 99.84,-220.18 106.84,-220.18"/>
<text text-anchor="middle" x="138.84" y="-231.8" font-family="Times,serif" font-size="14.00" fill="purple">Pass Data</text>
</g>
<!-- e4784dda&#45;6b22&#45;4354&#45;bcd9&#45;1020cdf74dc9 -->
<g id="node6" class="node">
<title>e4784dda&#45;6b22&#45;4354&#45;bcd9&#45;1020cdf74dc9</title>
<ellipse fill="none" stroke="black" cx="103.34" cy="-366" rx="51.3" ry="18"/>
<text text-anchor="middle" x="103.34" y="-362.3" font-family="Times,serif" font-size="14.00">OffsetToPose</text>
</g>
<!-- e4784dda&#45;6b22&#45;4354&#45;bcd9&#45;1020cdf74dc9&#45;&gt;2f8e23db&#45;d1c1&#45;4c18&#45;8819&#45;10dc3b7133c4 -->
<g id="edge4" class="edge">
<title>e4784dda&#45;6b22&#45;4354&#45;bcd9&#45;1020cdf74dc9&#45;&gt;2f8e23db&#45;d1c1&#45;4c18&#45;8819&#45;10dc3b7133c4</title>
<path fill="none" stroke="purple" d="M103.34,-347.8C103.34,-336.16 103.34,-320.55 103.34,-307.24"/>
<polygon fill="purple" stroke="purple" points="106.84,-307.18 103.34,-297.18 99.84,-307.18 106.84,-307.18"/>
<text text-anchor="middle" x="138.84" y="-318.8" font-family="Times,serif" font-size="14.00" fill="purple">Pass Data</text>
</g>
<!-- ad862fa8&#45;5972&#45;4442&#45;9ead&#45;a0478ed8ea65 -->
<g id="node7" class="node">
<title>ad862fa8&#45;5972&#45;4442&#45;9ead&#45;a0478ed8ea65</title>
<ellipse fill="none" stroke="black" cx="103.34" cy="-453" rx="32.4" ry="18"/>
<text text-anchor="middle" x="103.34" y="-449.3" font-family="Times,serif" font-size="14.00">Average</text>
</g>
<!-- ad862fa8&#45;5972&#45;4442&#45;9ead&#45;a0478ed8ea65&#45;&gt;e4784dda&#45;6b22&#45;4354&#45;bcd9&#45;1020cdf74dc9 -->
<g id="edge5" class="edge">
<title>ad862fa8&#45;5972&#45;4442&#45;9ead&#45;a0478ed8ea65&#45;&gt;e4784dda&#45;6b22&#45;4354&#45;bcd9&#45;1020cdf74dc9</title>
<path fill="none" stroke="purple" d="M103.34,-434.8C103.34,-423.16 103.34,-407.55 103.34,-394.24"/>
<polygon fill="purple" stroke="purple" points="106.84,-394.18 103.34,-384.18 99.84,-394.18 106.84,-394.18"/>
<text text-anchor="middle" x="138.84" y="-405.8" font-family="Times,serif" font-size="14.00" fill="purple">Pass Data</text>
</g>
<!-- 11f4f5b4&#45;1a24&#45;4580&#45;9d82&#45;7ee969725efb -->
<g id="node8" class="node">
<title>11f4f5b4&#45;1a24&#45;4580&#45;9d82&#45;7ee969725efb</title>
<ellipse fill="none" stroke="black" cx="103.34" cy="-540" rx="61.1" ry="18"/>
<text text-anchor="middle" x="103.34" y="-536.3" font-family="Times,serif" font-size="14.00">ExtractPosition</text>
</g>
<!-- 11f4f5b4&#45;1a24&#45;4580&#45;9d82&#45;7ee969725efb&#45;&gt;ad862fa8&#45;5972&#45;4442&#45;9ead&#45;a0478ed8ea65 -->
<g id="edge6" class="edge">
<title>11f4f5b4&#45;1a24&#45;4580&#45;9d82&#45;7ee969725efb&#45;&gt;ad862fa8&#45;5972&#45;4442&#45;9ead&#45;a0478ed8ea65</title>
<path fill="none" stroke="purple" d="M103.34,-521.8C103.34,-510.16 103.34,-494.55 103.34,-481.24"/>
<polygon fill="purple" stroke="purple" points="106.84,-481.18 103.34,-471.18 99.84,-481.18 106.84,-481.18"/>
<text text-anchor="middle" x="138.84" y="-492.8" font-family="Times,serif" font-size="14.00" fill="purple">Pass Data</text>
</g>
<!-- 5610089a&#45;964f&#45;4b91&#45;8026&#45;7c75540b448d -->
<g id="node9" class="node">
<title>5610089a&#45;964f&#45;4b91&#45;8026&#45;7c75540b448d</title>
<ellipse fill="none" stroke="black" cx="103.34" cy="-627" rx="27" ry="18"/>
<text text-anchor="middle" x="103.34" y="-623.3" font-family="Times,serif" font-size="14.00">ToVec</text>
</g>
<!-- 5610089a&#45;964f&#45;4b91&#45;8026&#45;7c75540b448d&#45;&gt;11f4f5b4&#45;1a24&#45;4580&#45;9d82&#45;7ee969725efb -->
<g id="edge7" class="edge">
<title>5610089a&#45;964f&#45;4b91&#45;8026&#45;7c75540b448d&#45;&gt;11f4f5b4&#45;1a24&#45;4580&#45;9d82&#45;7ee969725efb</title>
<path fill="none" stroke="purple" d="M103.34,-608.8C103.34,-597.16 103.34,-581.55 103.34,-568.24"/>
<polygon fill="purple" stroke="purple" points="106.84,-568.18 103.34,-558.18 99.84,-568.18 106.84,-568.18"/>
<text text-anchor="middle" x="138.84" y="-579.8" font-family="Times,serif" font-size="14.00" fill="purple">Pass Data</text>
</g>
<!-- 58830d5b&#45;ec3c&#45;49bd&#45;b86b&#45;57165f055bfe -->
<g id="node10" class="node">
<title>58830d5b&#45;ec3c&#45;49bd&#45;b86b&#45;57165f055bfe</title>
<ellipse fill="none" stroke="black" cx="103.34" cy="-714" rx="45.2" ry="18"/>
<text text-anchor="middle" x="103.34" y="-710.3" font-family="Times,serif" font-size="14.00">Detect true</text>
</g>
<!-- 58830d5b&#45;ec3c&#45;49bd&#45;b86b&#45;57165f055bfe&#45;&gt;5610089a&#45;964f&#45;4b91&#45;8026&#45;7c75540b448d -->
<g id="edge8" class="edge">
<title>58830d5b&#45;ec3c&#45;49bd&#45;b86b&#45;57165f055bfe&#45;&gt;5610089a&#45;964f&#45;4b91&#45;8026&#45;7c75540b448d</title>
<path fill="none" stroke="purple" d="M103.34,-695.8C103.34,-684.16 103.34,-668.55 103.34,-655.24"/>
<polygon fill="purple" stroke="purple" points="106.84,-655.18 103.34,-645.18 99.84,-655.18 106.84,-655.18"/>
<text text-anchor="middle" x="138.84" y="-666.8" font-family="Times,serif" font-size="14.00" fill="purple">Pass Data</text>
</g>
<!-- 6a442205&#45;7da2&#45;4f68&#45;a1b2&#45;4761ef3b5fd2&#45;&gt;58830d5b&#45;ec3c&#45;49bd&#45;b86b&#45;57165f055bfe -->
<g id="edge9" class="edge">
<title>6a442205&#45;7da2&#45;4f68&#45;a1b2&#45;4761ef3b5fd2&#45;&gt;58830d5b&#45;ec3c&#45;49bd&#45;b86b&#45;57165f055bfe</title>
<path fill="none" stroke="purple" d="M103.34,-782.8C103.34,-771.16 103.34,-755.55 103.34,-742.24"/>
<polygon fill="purple" stroke="purple" points="106.84,-742.18 103.34,-732.18 99.84,-742.18 106.84,-742.18"/>
<text text-anchor="middle" x="138.84" y="-753.8" font-family="Times,serif" font-size="14.00" fill="purple">Pass Data</text>
</g>
<!-- 3b2424aa&#45;dc70&#45;471c&#45;9524&#45;a0157ec7413f -->
<g id="node12" class="node">
<title>3b2424aa&#45;dc70&#45;471c&#45;9524&#45;a0157ec7413f</title>
<ellipse fill="none" stroke="black" cx="250.34" cy="-888" rx="47.1" ry="18"/>
<text text-anchor="middle" x="250.34" y="-884.3" font-family="Times,serif" font-size="14.00">DelayAction</text>
</g>
<!-- 3b2424aa&#45;dc70&#45;471c&#45;9524&#45;a0157ec7413f&#45;&gt;6a442205&#45;7da2&#45;4f68&#45;a1b2&#45;4761ef3b5fd2 -->
<g id="edge11" class="edge">
<title>3b2424aa&#45;dc70&#45;471c&#45;9524&#45;a0157ec7413f&#45;&gt;6a442205&#45;7da2&#45;4f68&#45;a1b2&#45;4761ef3b5fd2</title>
<path fill="none" stroke="black" d="M225.4,-872.58C201.12,-858.54 164.03,-837.09 137.1,-821.52"/>
<polygon fill="black" stroke="black" points="138.81,-818.47 128.4,-816.49 135.3,-824.53 138.81,-818.47"/>
</g>
<!-- 5ef6a1d1&#45;dfbf&#45;4724&#45;873d&#45;77473a708c1d -->
<g id="node13" class="node">
<title>5ef6a1d1&#45;dfbf&#45;4724&#45;873d&#45;77473a708c1d</title>
<ellipse fill="none" stroke="black" cx="250.34" cy="-961" rx="59.9" ry="18"/>
<text text-anchor="middle" x="250.34" y="-957.3" font-family="Times,serif" font-size="14.00">ZeroMovement</text>
</g>
<!-- 5ef6a1d1&#45;dfbf&#45;4724&#45;873d&#45;77473a708c1d&#45;&gt;3b2424aa&#45;dc70&#45;471c&#45;9524&#45;a0157ec7413f -->
<g id="edge12" class="edge">
<title>5ef6a1d1&#45;dfbf&#45;4724&#45;873d&#45;77473a708c1d&#45;&gt;3b2424aa&#45;dc70&#45;471c&#45;9524&#45;a0157ec7413f</title>
<path fill="none" stroke="black" d="M250.34,-942.81C250.34,-934.79 250.34,-925.05 250.34,-916.07"/>
<polygon fill="black" stroke="black" points="253.84,-916.03 250.34,-906.03 246.84,-916.03 253.84,-916.03"/>
</g>
</g>
</svg>
