<?xml version="1.0" encoding="UTF-8" standalone="no"?>
<!DOCTYPE svg PUBLIC "-//W3C//DTD SVG 1.1//EN"
 "http://www.w3.org/Graphics/SVG/1.1/DTD/svg11.dtd">
<!-- Generated by graphviz version 2.43.0 (0)
 -->
<!-- Title: G Pages: 1 -->
<svg width="336pt" height="728pt"
 viewBox="0.00 0.00 336.00 728.00" xmlns="http://www.w3.org/2000/svg" xmlns:xlink="http://www.w3.org/1999/xlink">
<g id="graph0" class="graph" transform="scale(1 1) rotate(0) translate(4 724)">
<title>G</title>
<polygon fill="transparent" stroke="transparent" points="-4,4 -4,-724 332,-724 332,4 -4,4"/>
<g id="clust1" class="cluster">
<title>cluster_67aeb9b1&#45;d5f1&#45;4ace&#45;80a8&#45;96a0da2249b2</title>
<polygon fill="transparent" stroke="blue" stroke-dasharray="5,2" points="8,-8 8,-568 320,-568 320,-8 8,-8"/>
</g>
<!-- 6ebf26cf&#45;257e&#45;4fd6&#45;92bd&#45;989474860154 -->
<g id="node1" class="node">
<title>6ebf26cf&#45;257e&#45;4fd6&#45;92bd&#45;989474860154</title>
<ellipse fill="none" stroke="black" cx="95" cy="-121" rx="67.81" ry="18"/>
<text text-anchor="middle" x="95" y="-117.3" font-family="Times,serif" font-size="14.00">LinearYawFromX</text>
</g>
<!-- d0069ba1&#45;61b1&#45;4020&#45;8b0e&#45;8a858417d604 -->
<g id="node2" class="node">
<title>d0069ba1&#45;61b1&#45;4020&#45;8b0e&#45;8a858417d604</title>
<ellipse fill="none" stroke="black" cx="96" cy="-34" rx="80.11" ry="18"/>
<text text-anchor="middle" x="96" y="-30.3" font-family="Times,serif" font-size="14.00">Stability2Movement</text>
</g>
<!-- 6ebf26cf&#45;257e&#45;4fd6&#45;92bd&#45;989474860154&#45;&gt;d0069ba1&#45;61b1&#45;4020&#45;8b0e&#45;8a858417d604 -->
<g id="edge1" class="edge">
<title>6ebf26cf&#45;257e&#45;4fd6&#45;92bd&#45;989474860154&#45;&gt;d0069ba1&#45;61b1&#45;4020&#45;8b0e&#45;8a858417d604</title>
<path fill="none" stroke="purple" d="M95.2,-102.8C95.34,-91.16 95.52,-75.55 95.68,-62.24"/>
<polygon fill="purple" stroke="purple" points="99.18,-62.22 95.8,-52.18 92.18,-62.13 99.18,-62.22"/>
<text text-anchor="middle" x="130.5" y="-73.8" font-family="Times,serif" font-size="14.00" fill="purple">Pass Data</text>
</g>
<!-- 6256894e&#45;b817&#45;400b&#45;92cf&#45;6febbe9ddd55 -->
<g id="node3" class="node">
<title>6256894e&#45;b817&#45;400b&#45;92cf&#45;6febbe9ddd55</title>
<ellipse fill="none" stroke="black" cx="95" cy="-208" rx="51.3" ry="18"/>
<text text-anchor="middle" x="95" y="-204.3" font-family="Times,serif" font-size="14.00">OffsetToPose</text>
</g>
<!-- 6256894e&#45;b817&#45;400b&#45;92cf&#45;6febbe9ddd55&#45;&gt;6ebf26cf&#45;257e&#45;4fd6&#45;92bd&#45;989474860154 -->
<g id="edge2" class="edge">
<title>6256894e&#45;b817&#45;400b&#45;92cf&#45;6febbe9ddd55&#45;&gt;6ebf26cf&#45;257e&#45;4fd6&#45;92bd&#45;989474860154</title>
<path fill="none" stroke="purple" d="M95,-189.8C95,-178.16 95,-162.55 95,-149.24"/>
<polygon fill="purple" stroke="purple" points="98.5,-149.18 95,-139.18 91.5,-149.18 98.5,-149.18"/>
<text text-anchor="middle" x="130.5" y="-160.8" font-family="Times,serif" font-size="14.00" fill="purple">Pass Data</text>
</g>
<!-- 90c86cf6&#45;b2a3&#45;4457&#45;9dc5&#45;051e82fd1fb7 -->
<g id="node4" class="node">
<title>90c86cf6&#45;b2a3&#45;4457&#45;9dc5&#45;051e82fd1fb7</title>
<ellipse fill="none" stroke="black" cx="94" cy="-295" rx="35.5" ry="18"/>
<text text-anchor="middle" x="94" y="-291.3" font-family="Times,serif" font-size="14.00">MidPoint</text>
</g>
<!-- 90c86cf6&#45;b2a3&#45;4457&#45;9dc5&#45;051e82fd1fb7&#45;&gt;6256894e&#45;b817&#45;400b&#45;92cf&#45;6febbe9ddd55 -->
<g id="edge3" class="edge">
<title>90c86cf6&#45;b2a3&#45;4457&#45;9dc5&#45;051e82fd1fb7&#45;&gt;6256894e&#45;b817&#45;400b&#45;92cf&#45;6febbe9ddd55</title>
<path fill="none" stroke="purple" d="M94.2,-276.8C94.34,-265.16 94.52,-249.55 94.68,-236.24"/>
<polygon fill="purple" stroke="purple" points="98.18,-236.22 94.8,-226.18 91.18,-236.13 98.18,-236.22"/>
<text text-anchor="middle" x="129.5" y="-247.8" font-family="Times,serif" font-size="14.00" fill="purple">Pass Data</text>
</g>
<!-- 7aa15ead&#45;a980&#45;48fe&#45;82d7&#45;164ed1f00203 -->
<g id="node5" class="node">
<title>7aa15ead&#45;a980&#45;48fe&#45;82d7&#45;164ed1f00203</title>
<ellipse fill="none" stroke="black" cx="92" cy="-382" rx="61.1" ry="18"/>
<text text-anchor="middle" x="92" y="-378.3" font-family="Times,serif" font-size="14.00">ExtractPosition</text>
</g>
<!-- 7aa15ead&#45;a980&#45;48fe&#45;82d7&#45;164ed1f00203&#45;&gt;90c86cf6&#45;b2a3&#45;4457&#45;9dc5&#45;051e82fd1fb7 -->
<g id="edge4" class="edge">
<title>7aa15ead&#45;a980&#45;48fe&#45;82d7&#45;164ed1f00203&#45;&gt;90c86cf6&#45;b2a3&#45;4457&#45;9dc5&#45;051e82fd1fb7</title>
<path fill="none" stroke="purple" d="M92.4,-363.8C92.68,-352.16 93.05,-336.55 93.36,-323.24"/>
<polygon fill="purple" stroke="purple" points="96.86,-323.26 93.6,-313.18 89.86,-323.09 96.86,-323.26"/>
<text text-anchor="middle" x="128.5" y="-334.8" font-family="Times,serif" font-size="14.00" fill="purple">Pass Data</text>
</g>
<!-- 0041b148&#45;5707&#45;406a&#45;af21&#45;769e404bd599 -->
<g id="node6" class="node">
<title>0041b148&#45;5707&#45;406a&#45;af21&#45;769e404bd599</title>
<ellipse fill="none" stroke="black" cx="43" cy="-469" rx="27" ry="18"/>
<text text-anchor="middle" x="43" y="-465.3" font-family="Times,serif" font-size="14.00">ToVec</text>
</g>
<!-- 0041b148&#45;5707&#45;406a&#45;af21&#45;769e404bd599&#45;&gt;7aa15ead&#45;a980&#45;48fe&#45;82d7&#45;164ed1f00203 -->
<g id="edge5" class="edge">
<title>0041b148&#45;5707&#45;406a&#45;af21&#45;769e404bd599&#45;&gt;7aa15ead&#45;a980&#45;48fe&#45;82d7&#45;164ed1f00203</title>
<path fill="none" stroke="purple" d="M52.22,-452.01C59.27,-439.78 69.13,-422.68 77.27,-408.56"/>
<polygon fill="purple" stroke="purple" points="80.36,-410.2 82.32,-399.79 74.3,-406.7 80.36,-410.2"/>
<text text-anchor="middle" x="105.5" y="-421.8" font-family="Times,serif" font-size="14.00" fill="purple">Pass Data</text>
</g>
<!-- 475fc65e&#45;1479&#45;4394&#45;b2bf&#45;2dbfd0c7baa4 -->
<g id="node7" class="node">
<title>475fc65e&#45;1479&#45;4394&#45;b2bf&#45;2dbfd0c7baa4</title>
<polygon fill="none" stroke="black" stroke-dasharray="5,2" points="195,-560 97,-560 97,-524 195,-524 195,-560"/>
<text text-anchor="middle" x="146" y="-538.3" font-family="Times,serif" font-size="14.00" fill="blue">Concurrent</text>
</g>
<!-- 475fc65e&#45;1479&#45;4394&#45;b2bf&#45;2dbfd0c7baa4&#45;&gt;0041b148&#45;5707&#45;406a&#45;af21&#45;769e404bd599 -->
<g id="edge6" class="edge">
<title>475fc65e&#45;1479&#45;4394&#45;b2bf&#45;2dbfd0c7baa4&#45;&gt;0041b148&#45;5707&#45;406a&#45;af21&#45;769e404bd599</title>
<path fill="none" stroke="black" d="M121.33,-523.99C105.66,-513.19 85.4,-499.23 69.41,-488.2"/>
<polygon fill="black" stroke="black" points="71.24,-485.21 61.02,-482.42 67.27,-490.98 71.24,-485.21"/>
</g>
<!-- 07eb46d3&#45;1443&#45;4c4d&#45;8317&#45;fe350bb8f85c -->
<g id="node8" class="node">
<title>07eb46d3&#45;1443&#45;4c4d&#45;8317&#45;fe350bb8f85c</title>
<ellipse fill="none" stroke="black" cx="227" cy="-469" rx="85.01" ry="18"/>
<text text-anchor="middle" x="227" y="-465.3" font-family="Times,serif" font-size="14.00">Consecutive True &lt; 3</text>
</g>
<!-- 475fc65e&#45;1479&#45;4394&#45;b2bf&#45;2dbfd0c7baa4&#45;&gt;07eb46d3&#45;1443&#45;4c4d&#45;8317&#45;fe350bb8f85c -->
<g id="edge7" class="edge">
<title>475fc65e&#45;1479&#45;4394&#45;b2bf&#45;2dbfd0c7baa4&#45;&gt;07eb46d3&#45;1443&#45;4c4d&#45;8317&#45;fe350bb8f85c</title>
<path fill="none" stroke="black" d="M165.61,-523.81C176.03,-514.68 189,-503.31 200.32,-493.38"/>
<polygon fill="black" stroke="black" points="202.64,-496.01 207.85,-486.78 198.03,-490.74 202.64,-496.01"/>
</g>
<!-- d8b6f017&#45;a334&#45;4f31&#45;a676&#45;3052694a845d -->
<g id="node9" class="node">
<title>d8b6f017&#45;a334&#45;4f31&#45;a676&#45;3052694a845d</title>
<ellipse fill="none" stroke="black" cx="146" cy="-629" rx="75.21" ry="18"/>
<text text-anchor="middle" x="146" y="-625.3" font-family="Times,serif" font-size="14.00">VisionNormBottom</text>
</g>
<!-- d8b6f017&#45;a334&#45;4f31&#45;a676&#45;3052694a845d&#45;&gt;475fc65e&#45;1479&#45;4394&#45;b2bf&#45;2dbfd0c7baa4 -->
<g id="edge8" class="edge">
<title>d8b6f017&#45;a334&#45;4f31&#45;a676&#45;3052694a845d&#45;&gt;475fc65e&#45;1479&#45;4394&#45;b2bf&#45;2dbfd0c7baa4</title>
<path fill="none" stroke="purple" d="M146,-610.8C146,-599.16 146,-583.55 146,-570.24"/>
<polygon fill="purple" stroke="purple" points="149.5,-570.18 146,-560.18 142.5,-570.18 149.5,-570.18"/>
<text text-anchor="middle" x="181.5" y="-581.8" font-family="Times,serif" font-size="14.00" fill="purple">Pass Data</text>
</g>
<!-- e7ea75d7&#45;4ec3&#45;4225&#45;a0f6&#45;f728e675559d -->
<g id="node10" class="node">
<title>e7ea75d7&#45;4ec3&#45;4225&#45;a0f6&#45;f728e675559d</title>
<ellipse fill="none" stroke="black" cx="146" cy="-702" rx="59.9" ry="18"/>
<text text-anchor="middle" x="146" y="-698.3" font-family="Times,serif" font-size="14.00">ZeroMovement</text>
</g>
<!-- e7ea75d7&#45;4ec3&#45;4225&#45;a0f6&#45;f728e675559d&#45;&gt;d8b6f017&#45;a334&#45;4f31&#45;a676&#45;3052694a845d -->
<g id="edge9" class="edge">
<title>e7ea75d7&#45;4ec3&#45;4225&#45;a0f6&#45;f728e675559d&#45;&gt;d8b6f017&#45;a334&#45;4f31&#45;a676&#45;3052694a845d</title>
<path fill="none" stroke="black" d="M146,-683.81C146,-675.79 146,-666.05 146,-657.07"/>
<polygon fill="black" stroke="black" points="149.5,-657.03 146,-647.03 142.5,-657.03 149.5,-657.03"/>
</g>
</g>
</svg>
