<?xml version="1.0" encoding="UTF-8" standalone="no"?>
<!DOCTYPE svg PUBLIC "-//W3C//DTD SVG 1.1//EN"
 "http://www.w3.org/Graphics/SVG/1.1/DTD/svg11.dtd">
<!-- Generated by graphviz version 2.43.0 (0)
 -->
<!-- Title: G Pages: 1 -->
<svg width="262pt" height="277pt"
 viewBox="0.00 0.00 262.30 277.00" xmlns="http://www.w3.org/2000/svg" xmlns:xlink="http://www.w3.org/1999/xlink">
<g id="graph0" class="graph" transform="scale(1 1) rotate(0) translate(4 273)">
<title>G</title>
<polygon fill="transparent" stroke="transparent" points="-4,4 -4,-273 258.3,-273 258.3,4 -4,4"/>
<!-- 31e42ab8&#45;6ded&#45;4b75&#45;93f8&#45;d7ceb1a33131 -->
<g id="node1" class="node">
<title>31e42ab8&#45;6ded&#45;4b75&#45;93f8&#45;d7ceb1a33131</title>
<polygon fill="none" stroke="black" points="115.65,-123 50.47,-105 115.65,-87 180.83,-105 115.65,-123"/>
<text text-anchor="middle" x="115.65" y="-101.3" font-family="Times,serif" font-size="14.00">AlwaysTrue</text>
</g>
<!-- 1b4c9c09&#45;1de2&#45;4ba5&#45;ab4d&#45;d60791a4a327 -->
<g id="node4" class="node">
<title>1b4c9c09&#45;1de2&#45;4ba5&#45;ab4d&#45;d60791a4a327</title>
<ellipse fill="none" stroke="black" cx="34.65" cy="-18" rx="34.8" ry="18"/>
<text text-anchor="middle" x="34.65" y="-14.3" font-family="Times,serif" font-size="14.00">WaitArm</text>
</g>
<!-- 31e42ab8&#45;6ded&#45;4b75&#45;93f8&#45;d7ceb1a33131&#45;&gt;1b4c9c09&#45;1de2&#45;4ba5&#45;ab4d&#45;d60791a4a327 -->
<g id="edge2" class="edge">
<title>31e42ab8&#45;6ded&#45;4b75&#45;93f8&#45;d7ceb1a33131&#45;&gt;1b4c9c09&#45;1de2&#45;4ba5&#45;ab4d&#45;d60791a4a327</title>
<path fill="none" stroke="black" d="M98.99,-91.47C90.97,-85.11 81.44,-77.05 73.65,-69 66.07,-61.17 58.52,-51.92 52.11,-43.52"/>
<polygon fill="black" stroke="black" points="54.9,-41.41 46.12,-35.48 49.29,-45.59 54.9,-41.41"/>
<text text-anchor="middle" x="90.65" y="-57.8" font-family="Times,serif" font-size="14.00">True</text>
</g>
<!-- 519b37b7&#45;d147&#45;45b7&#45;a979&#45;b12962a54a8c -->
<g id="node5" class="node">
<title>519b37b7&#45;d147&#45;45b7&#45;a979&#45;b12962a54a8c</title>
<ellipse fill="none" stroke="black" cx="197.65" cy="-18" rx="56.8" ry="18"/>
<text text-anchor="middle" x="197.65" y="-14.3" font-family="Times,serif" font-size="14.00">UnwrapAction</text>
</g>
<!-- 31e42ab8&#45;6ded&#45;4b75&#45;93f8&#45;d7ceb1a33131&#45;&gt;519b37b7&#45;d147&#45;45b7&#45;a979&#45;b12962a54a8c -->
<g id="edge3" class="edge">
<title>31e42ab8&#45;6ded&#45;4b75&#45;93f8&#45;d7ceb1a33131&#45;&gt;519b37b7&#45;d147&#45;45b7&#45;a979&#45;b12962a54a8c</title>
<path fill="none" stroke="black" d="M128.83,-90.34C141.09,-77.64 159.63,-58.41 174.38,-43.12"/>
<polygon fill="black" stroke="black" points="177.27,-45.17 181.7,-35.54 172.23,-40.31 177.27,-45.17"/>
<text text-anchor="middle" x="179.65" y="-57.8" font-family="Times,serif" font-size="14.00">False</text>
</g>
<!-- d196dc4c&#45;aa8b&#45;4ddf&#45;9f0e&#45;11001d00a420 -->
<g id="node2" class="node">
<title>d196dc4c&#45;aa8b&#45;4ddf&#45;9f0e&#45;11001d00a420</title>
<ellipse fill="none" stroke="black" cx="115.65" cy="-251" rx="34.8" ry="18"/>
<text text-anchor="middle" x="115.65" y="-247.3" font-family="Times,serif" font-size="14.00">WaitArm</text>
</g>
<!-- 438aab02&#45;0210&#45;4d42&#45;a588&#45;312a4578b7cf -->
<g id="node3" class="node">
<title>438aab02&#45;0210&#45;4d42&#45;a588&#45;312a4578b7cf</title>
<ellipse fill="none" stroke="black" cx="115.65" cy="-178" rx="33.6" ry="18"/>
<text text-anchor="middle" x="115.65" y="-174.3" font-family="Times,serif" font-size="14.00">Descend</text>
</g>
<!-- d196dc4c&#45;aa8b&#45;4ddf&#45;9f0e&#45;11001d00a420&#45;&gt;438aab02&#45;0210&#45;4d42&#45;a588&#45;312a4578b7cf -->
<g id="edge1" class="edge">
<title>d196dc4c&#45;aa8b&#45;4ddf&#45;9f0e&#45;11001d00a420&#45;&gt;438aab02&#45;0210&#45;4d42&#45;a588&#45;312a4578b7cf</title>
<path fill="none" stroke="black" d="M115.65,-232.81C115.65,-224.79 115.65,-215.05 115.65,-206.07"/>
<polygon fill="black" stroke="black" points="119.15,-206.03 115.65,-196.03 112.15,-206.03 119.15,-206.03"/>
</g>
<!-- 438aab02&#45;0210&#45;4d42&#45;a588&#45;312a4578b7cf&#45;&gt;31e42ab8&#45;6ded&#45;4b75&#45;93f8&#45;d7ceb1a33131 -->
<g id="edge4" class="edge">
<title>438aab02&#45;0210&#45;4d42&#45;a588&#45;312a4578b7cf&#45;&gt;31e42ab8&#45;6ded&#45;4b75&#45;93f8&#45;d7ceb1a33131</title>
<path fill="none" stroke="black" d="M115.65,-159.81C115.65,-151.79 115.65,-142.05 115.65,-133.07"/>
<polygon fill="black" stroke="black" points="119.15,-133.03 115.65,-123.03 112.15,-133.03 119.15,-133.03"/>
</g>
</g>
</svg>
