<?xml version="1.0" encoding="UTF-8" standalone="no"?>
<!DOCTYPE svg PUBLIC "-//W3C//DTD SVG 1.1//EN"
 "http://www.w3.org/Graphics/SVG/1.1/DTD/svg11.dtd">
<!-- Generated by graphviz version 2.43.0 (0)
 -->
<!-- Title: G Pages: 1 -->
<svg width="158pt" height="404pt"
 viewBox="0.00 0.00 157.61 404.00" xmlns="http://www.w3.org/2000/svg" xmlns:xlink="http://www.w3.org/1999/xlink">
<g id="graph0" class="graph" transform="scale(1 1) rotate(0) translate(4 400)">
<title>G</title>
<polygon fill="transparent" stroke="transparent" points="-4,4 -4,-400 153.61,-400 153.61,4 -4,4"/>
<!-- 5ca55ae8&#45;b09d&#45;44db&#45;a88e&#45;a0949ae1e278 -->
<g id="node1" class="node">
<title>5ca55ae8&#45;b09d&#45;44db&#45;a88e&#45;a0949ae1e278</title>
<ellipse fill="none" stroke="black" cx="74.8" cy="-378" rx="34.8" ry="18"/>
<text text-anchor="middle" x="74.8" y="-374.3" font-family="Times,serif" font-size="14.00">WaitArm</text>
</g>
<!-- 97cd135b&#45;c0c7&#45;4384&#45;bba5&#45;e692f047055e -->
<g id="node2" class="node">
<title>97cd135b&#45;c0c7&#45;4384&#45;bba5&#45;e692f047055e</title>
<ellipse fill="none" stroke="black" cx="74.8" cy="-306" rx="33.6" ry="18"/>
<text text-anchor="middle" x="74.8" y="-302.3" font-family="Times,serif" font-size="14.00">Descend</text>
</g>
<!-- 5ca55ae8&#45;b09d&#45;44db&#45;a88e&#45;a0949ae1e278&#45;&gt;97cd135b&#45;c0c7&#45;4384&#45;bba5&#45;e692f047055e -->
<g id="edge5" class="edge">
<title>5ca55ae8&#45;b09d&#45;44db&#45;a88e&#45;a0949ae1e278&#45;&gt;97cd135b&#45;c0c7&#45;4384&#45;bba5&#45;e692f047055e</title>
<path fill="none" stroke="black" d="M74.8,-359.7C74.8,-351.98 74.8,-342.71 74.8,-334.11"/>
<polygon fill="black" stroke="black" points="78.3,-334.1 74.8,-324.1 71.3,-334.1 78.3,-334.1"/>
</g>
<!-- 6d14e641&#45;23da&#45;4db7&#45;8452&#45;e58cdcc68f70 -->
<g id="node3" class="node">
<title>6d14e641&#45;23da&#45;4db7&#45;8452&#45;e58cdcc68f70</title>
<ellipse fill="none" stroke="black" cx="74.8" cy="-234" rx="47.1" ry="18"/>
<text text-anchor="middle" x="74.8" y="-230.3" font-family="Times,serif" font-size="14.00">DelayAction</text>
</g>
<!-- 97cd135b&#45;c0c7&#45;4384&#45;bba5&#45;e692f047055e&#45;&gt;6d14e641&#45;23da&#45;4db7&#45;8452&#45;e58cdcc68f70 -->
<g id="edge1" class="edge">
<title>97cd135b&#45;c0c7&#45;4384&#45;bba5&#45;e692f047055e&#45;&gt;6d14e641&#45;23da&#45;4db7&#45;8452&#45;e58cdcc68f70</title>
<path fill="none" stroke="black" d="M74.8,-287.7C74.8,-279.98 74.8,-270.71 74.8,-262.11"/>
<polygon fill="black" stroke="black" points="78.3,-262.1 74.8,-252.1 71.3,-262.1 78.3,-262.1"/>
</g>
<!-- 89e0d286&#45;d376&#45;41ac&#45;9481&#45;db60487a3b52 -->
<g id="node4" class="node">
<title>89e0d286&#45;d376&#45;41ac&#45;9481&#45;db60487a3b52</title>
<ellipse fill="none" stroke="black" cx="74.8" cy="-162" rx="74.61" ry="18"/>
<text text-anchor="middle" x="74.8" y="-158.3" font-family="Times,serif" font-size="14.00">StraightMovement</text>
</g>
<!-- 6d14e641&#45;23da&#45;4db7&#45;8452&#45;e58cdcc68f70&#45;&gt;89e0d286&#45;d376&#45;41ac&#45;9481&#45;db60487a3b52 -->
<g id="edge4" class="edge">
<title>6d14e641&#45;23da&#45;4db7&#45;8452&#45;e58cdcc68f70&#45;&gt;89e0d286&#45;d376&#45;41ac&#45;9481&#45;db60487a3b52</title>
<path fill="none" stroke="black" d="M74.8,-215.7C74.8,-207.98 74.8,-198.71 74.8,-190.11"/>
<polygon fill="black" stroke="black" points="78.3,-190.1 74.8,-180.1 71.3,-190.1 78.3,-190.1"/>
</g>
<!-- 3c12fd82&#45;6398&#45;4cdf&#45;b44b&#45;d5546632496f -->
<g id="node5" class="node">
<title>3c12fd82&#45;6398&#45;4cdf&#45;b44b&#45;d5546632496f</title>
<ellipse fill="none" stroke="black" cx="74.8" cy="-90" rx="47.1" ry="18"/>
<text text-anchor="middle" x="74.8" y="-86.3" font-family="Times,serif" font-size="14.00">DelayAction</text>
</g>
<!-- 89e0d286&#45;d376&#45;41ac&#45;9481&#45;db60487a3b52&#45;&gt;3c12fd82&#45;6398&#45;4cdf&#45;b44b&#45;d5546632496f -->
<g id="edge2" class="edge">
<title>89e0d286&#45;d376&#45;41ac&#45;9481&#45;db60487a3b52&#45;&gt;3c12fd82&#45;6398&#45;4cdf&#45;b44b&#45;d5546632496f</title>
<path fill="none" stroke="black" d="M74.8,-143.7C74.8,-135.98 74.8,-126.71 74.8,-118.11"/>
<polygon fill="black" stroke="black" points="78.3,-118.1 74.8,-108.1 71.3,-118.1 78.3,-118.1"/>
</g>
<!-- 0edf3655&#45;4dae&#45;49b0&#45;8a64&#45;343048f8457b -->
<g id="node6" class="node">
<title>0edf3655&#45;4dae&#45;49b0&#45;8a64&#45;343048f8457b</title>
<ellipse fill="none" stroke="black" cx="74.8" cy="-18" rx="59.9" ry="18"/>
<text text-anchor="middle" x="74.8" y="-14.3" font-family="Times,serif" font-size="14.00">ZeroMovement</text>
</g>
<!-- 3c12fd82&#45;6398&#45;4cdf&#45;b44b&#45;d5546632496f&#45;&gt;0edf3655&#45;4dae&#45;49b0&#45;8a64&#45;343048f8457b -->
<g id="edge3" class="edge">
<title>3c12fd82&#45;6398&#45;4cdf&#45;b44b&#45;d5546632496f&#45;&gt;0edf3655&#45;4dae&#45;49b0&#45;8a64&#45;343048f8457b</title>
<path fill="none" stroke="black" d="M74.8,-71.7C74.8,-63.98 74.8,-54.71 74.8,-46.11"/>
<polygon fill="black" stroke="black" points="78.3,-46.1 74.8,-36.1 71.3,-46.1 78.3,-46.1"/>
</g>
</g>
</svg>
