<?xml version="1.0" encoding="UTF-8" standalone="no"?>
<!DOCTYPE svg PUBLIC "-//W3C//DTD SVG 1.1//EN"
 "http://www.w3.org/Graphics/SVG/1.1/DTD/svg11.dtd">
<!-- Generated by graphviz version 2.43.0 (0)
 -->
<!-- Title: G Pages: 1 -->
<svg width="158pt" height="404pt"
 viewBox="0.00 0.00 157.61 404.00" xmlns="http://www.w3.org/2000/svg" xmlns:xlink="http://www.w3.org/1999/xlink">
<g id="graph0" class="graph" transform="scale(1 1) rotate(0) translate(4 400)">
<title>G</title>
<polygon fill="transparent" stroke="transparent" points="-4,4 -4,-400 153.61,-400 153.61,4 -4,4"/>
<!-- d093449a&#45;0d04&#45;4126&#45;b48d&#45;e2cdfb66fbae -->
<g id="node1" class="node">
<title>d093449a&#45;0d04&#45;4126&#45;b48d&#45;e2cdfb66fbae</title>
<ellipse fill="none" stroke="black" cx="74.8" cy="-306" rx="33.6" ry="18"/>
<text text-anchor="middle" x="74.8" y="-302.3" font-family="Times,serif" font-size="14.00">Descend</text>
</g>
<!-- f4b801c7&#45;e0ca&#45;4118&#45;9cee&#45;eaa04915e264 -->
<g id="node2" class="node">
<title>f4b801c7&#45;e0ca&#45;4118&#45;9cee&#45;eaa04915e264</title>
<ellipse fill="none" stroke="black" cx="74.8" cy="-234" rx="47.1" ry="18"/>
<text text-anchor="middle" x="74.8" y="-230.3" font-family="Times,serif" font-size="14.00">DelayAction</text>
</g>
<!-- d093449a&#45;0d04&#45;4126&#45;b48d&#45;e2cdfb66fbae&#45;&gt;f4b801c7&#45;e0ca&#45;4118&#45;9cee&#45;eaa04915e264 -->
<g id="edge1" class="edge">
<title>d093449a&#45;0d04&#45;4126&#45;b48d&#45;e2cdfb66fbae&#45;&gt;f4b801c7&#45;e0ca&#45;4118&#45;9cee&#45;eaa04915e264</title>
<path fill="none" stroke="black" d="M74.8,-287.7C74.8,-279.98 74.8,-270.71 74.8,-262.11"/>
<polygon fill="black" stroke="black" points="78.3,-262.1 74.8,-252.1 71.3,-262.1 78.3,-262.1"/>
</g>
<!-- c1aa332e&#45;2570&#45;43d0&#45;876e&#45;edf3cb4d2a86 -->
<g id="node3" class="node">
<title>c1aa332e&#45;2570&#45;43d0&#45;876e&#45;edf3cb4d2a86</title>
<ellipse fill="none" stroke="black" cx="74.8" cy="-162" rx="74.61" ry="18"/>
<text text-anchor="middle" x="74.8" y="-158.3" font-family="Times,serif" font-size="14.00">StraightMovement</text>
</g>
<!-- f4b801c7&#45;e0ca&#45;4118&#45;9cee&#45;eaa04915e264&#45;&gt;c1aa332e&#45;2570&#45;43d0&#45;876e&#45;edf3cb4d2a86 -->
<g id="edge4" class="edge">
<title>f4b801c7&#45;e0ca&#45;4118&#45;9cee&#45;eaa04915e264&#45;&gt;c1aa332e&#45;2570&#45;43d0&#45;876e&#45;edf3cb4d2a86</title>
<path fill="none" stroke="black" d="M74.8,-215.7C74.8,-207.98 74.8,-198.71 74.8,-190.11"/>
<polygon fill="black" stroke="black" points="78.3,-190.1 74.8,-180.1 71.3,-190.1 78.3,-190.1"/>
</g>
<!-- 190c3c57&#45;fd12&#45;45cb&#45;a477&#45;70b9915b6715 -->
<g id="node4" class="node">
<title>190c3c57&#45;fd12&#45;45cb&#45;a477&#45;70b9915b6715</title>
<ellipse fill="none" stroke="black" cx="74.8" cy="-90" rx="47.1" ry="18"/>
<text text-anchor="middle" x="74.8" y="-86.3" font-family="Times,serif" font-size="14.00">DelayAction</text>
</g>
<!-- c1aa332e&#45;2570&#45;43d0&#45;876e&#45;edf3cb4d2a86&#45;&gt;190c3c57&#45;fd12&#45;45cb&#45;a477&#45;70b9915b6715 -->
<g id="edge2" class="edge">
<title>c1aa332e&#45;2570&#45;43d0&#45;876e&#45;edf3cb4d2a86&#45;&gt;190c3c57&#45;fd12&#45;45cb&#45;a477&#45;70b9915b6715</title>
<path fill="none" stroke="black" d="M74.8,-143.7C74.8,-135.98 74.8,-126.71 74.8,-118.11"/>
<polygon fill="black" stroke="black" points="78.3,-118.1 74.8,-108.1 71.3,-118.1 78.3,-118.1"/>
</g>
<!-- c5287b59&#45;9985&#45;4b11&#45;a891&#45;6e6c9211ba8a -->
<g id="node5" class="node">
<title>c5287b59&#45;9985&#45;4b11&#45;a891&#45;6e6c9211ba8a</title>
<ellipse fill="none" stroke="black" cx="74.8" cy="-18" rx="59.9" ry="18"/>
<text text-anchor="middle" x="74.8" y="-14.3" font-family="Times,serif" font-size="14.00">ZeroMovement</text>
</g>
<!-- 190c3c57&#45;fd12&#45;45cb&#45;a477&#45;70b9915b6715&#45;&gt;c5287b59&#45;9985&#45;4b11&#45;a891&#45;6e6c9211ba8a -->
<g id="edge3" class="edge">
<title>190c3c57&#45;fd12&#45;45cb&#45;a477&#45;70b9915b6715&#45;&gt;c5287b59&#45;9985&#45;4b11&#45;a891&#45;6e6c9211ba8a</title>
<path fill="none" stroke="black" d="M74.8,-71.7C74.8,-63.98 74.8,-54.71 74.8,-46.11"/>
<polygon fill="black" stroke="black" points="78.3,-46.1 74.8,-36.1 71.3,-46.1 78.3,-46.1"/>
</g>
<!-- f78d6cc3&#45;85d6&#45;48d0&#45;b057&#45;062f1542d670 -->
<g id="node6" class="node">
<title>f78d6cc3&#45;85d6&#45;48d0&#45;b057&#45;062f1542d670</title>
<ellipse fill="none" stroke="black" cx="74.8" cy="-378" rx="34.8" ry="18"/>
<text text-anchor="middle" x="74.8" y="-374.3" font-family="Times,serif" font-size="14.00">WaitArm</text>
</g>
<!-- f78d6cc3&#45;85d6&#45;48d0&#45;b057&#45;062f1542d670&#45;&gt;d093449a&#45;0d04&#45;4126&#45;b48d&#45;e2cdfb66fbae -->
<g id="edge5" class="edge">
<title>f78d6cc3&#45;85d6&#45;48d0&#45;b057&#45;062f1542d670&#45;&gt;d093449a&#45;0d04&#45;4126&#45;b48d&#45;e2cdfb66fbae</title>
<path fill="none" stroke="black" d="M74.8,-359.7C74.8,-351.98 74.8,-342.71 74.8,-334.11"/>
<polygon fill="black" stroke="black" points="78.3,-334.1 74.8,-324.1 71.3,-334.1 78.3,-334.1"/>
</g>
</g>
</svg>
