<?xml version="1.0" encoding="UTF-8" standalone="no"?>
<!DOCTYPE svg PUBLIC "-//W3C//DTD SVG 1.1//EN"
 "http://www.w3.org/Graphics/SVG/1.1/DTD/svg11.dtd">
<!-- Generated by graphviz version 2.43.0 (0)
 -->
<!-- Title: G Pages: 1 -->
<svg width="158pt" height="404pt"
 viewBox="0.00 0.00 157.61 404.00" xmlns="http://www.w3.org/2000/svg" xmlns:xlink="http://www.w3.org/1999/xlink">
<g id="graph0" class="graph" transform="scale(1 1) rotate(0) translate(4 400)">
<title>G</title>
<polygon fill="transparent" stroke="transparent" points="-4,4 -4,-400 153.61,-400 153.61,4 -4,4"/>
<!-- b736f3e8&#45;cec0&#45;4bf9&#45;b482&#45;2876061aaa25 -->
<g id="node1" class="node">
<title>b736f3e8&#45;cec0&#45;4bf9&#45;b482&#45;2876061aaa25</title>
<ellipse fill="none" stroke="black" cx="74.8" cy="-306" rx="33.6" ry="18"/>
<text text-anchor="middle" x="74.8" y="-302.3" font-family="Times,serif" font-size="14.00">Descend</text>
</g>
<!-- 6d28d54b&#45;10cb&#45;4b12&#45;925c&#45;400c53e66d6d -->
<g id="node2" class="node">
<title>6d28d54b&#45;10cb&#45;4b12&#45;925c&#45;400c53e66d6d</title>
<ellipse fill="none" stroke="black" cx="74.8" cy="-234" rx="47.1" ry="18"/>
<text text-anchor="middle" x="74.8" y="-230.3" font-family="Times,serif" font-size="14.00">DelayAction</text>
</g>
<!-- b736f3e8&#45;cec0&#45;4bf9&#45;b482&#45;2876061aaa25&#45;&gt;6d28d54b&#45;10cb&#45;4b12&#45;925c&#45;400c53e66d6d -->
<g id="edge1" class="edge">
<title>b736f3e8&#45;cec0&#45;4bf9&#45;b482&#45;2876061aaa25&#45;&gt;6d28d54b&#45;10cb&#45;4b12&#45;925c&#45;400c53e66d6d</title>
<path fill="none" stroke="black" d="M74.8,-287.7C74.8,-279.98 74.8,-270.71 74.8,-262.11"/>
<polygon fill="black" stroke="black" points="78.3,-262.1 74.8,-252.1 71.3,-262.1 78.3,-262.1"/>
</g>
<!-- 4584308c&#45;477f&#45;4327&#45;9f1b&#45;ae1f3e8c6305 -->
<g id="node3" class="node">
<title>4584308c&#45;477f&#45;4327&#45;9f1b&#45;ae1f3e8c6305</title>
<ellipse fill="none" stroke="black" cx="74.8" cy="-162" rx="74.61" ry="18"/>
<text text-anchor="middle" x="74.8" y="-158.3" font-family="Times,serif" font-size="14.00">StraightMovement</text>
</g>
<!-- 6d28d54b&#45;10cb&#45;4b12&#45;925c&#45;400c53e66d6d&#45;&gt;4584308c&#45;477f&#45;4327&#45;9f1b&#45;ae1f3e8c6305 -->
<g id="edge4" class="edge">
<title>6d28d54b&#45;10cb&#45;4b12&#45;925c&#45;400c53e66d6d&#45;&gt;4584308c&#45;477f&#45;4327&#45;9f1b&#45;ae1f3e8c6305</title>
<path fill="none" stroke="black" d="M74.8,-215.7C74.8,-207.98 74.8,-198.71 74.8,-190.11"/>
<polygon fill="black" stroke="black" points="78.3,-190.1 74.8,-180.1 71.3,-190.1 78.3,-190.1"/>
</g>
<!-- 9c4ae4a6&#45;8dc9&#45;4749&#45;98c4&#45;1cd71798916e -->
<g id="node4" class="node">
<title>9c4ae4a6&#45;8dc9&#45;4749&#45;98c4&#45;1cd71798916e</title>
<ellipse fill="none" stroke="black" cx="74.8" cy="-90" rx="47.1" ry="18"/>
<text text-anchor="middle" x="74.8" y="-86.3" font-family="Times,serif" font-size="14.00">DelayAction</text>
</g>
<!-- 4584308c&#45;477f&#45;4327&#45;9f1b&#45;ae1f3e8c6305&#45;&gt;9c4ae4a6&#45;8dc9&#45;4749&#45;98c4&#45;1cd71798916e -->
<g id="edge2" class="edge">
<title>4584308c&#45;477f&#45;4327&#45;9f1b&#45;ae1f3e8c6305&#45;&gt;9c4ae4a6&#45;8dc9&#45;4749&#45;98c4&#45;1cd71798916e</title>
<path fill="none" stroke="black" d="M74.8,-143.7C74.8,-135.98 74.8,-126.71 74.8,-118.11"/>
<polygon fill="black" stroke="black" points="78.3,-118.1 74.8,-108.1 71.3,-118.1 78.3,-118.1"/>
</g>
<!-- df103a6d&#45;78b7&#45;4dc5&#45;8cc9&#45;e4a0e9fbd024 -->
<g id="node5" class="node">
<title>df103a6d&#45;78b7&#45;4dc5&#45;8cc9&#45;e4a0e9fbd024</title>
<ellipse fill="none" stroke="black" cx="74.8" cy="-18" rx="59.9" ry="18"/>
<text text-anchor="middle" x="74.8" y="-14.3" font-family="Times,serif" font-size="14.00">ZeroMovement</text>
</g>
<!-- 9c4ae4a6&#45;8dc9&#45;4749&#45;98c4&#45;1cd71798916e&#45;&gt;df103a6d&#45;78b7&#45;4dc5&#45;8cc9&#45;e4a0e9fbd024 -->
<g id="edge3" class="edge">
<title>9c4ae4a6&#45;8dc9&#45;4749&#45;98c4&#45;1cd71798916e&#45;&gt;df103a6d&#45;78b7&#45;4dc5&#45;8cc9&#45;e4a0e9fbd024</title>
<path fill="none" stroke="black" d="M74.8,-71.7C74.8,-63.98 74.8,-54.71 74.8,-46.11"/>
<polygon fill="black" stroke="black" points="78.3,-46.1 74.8,-36.1 71.3,-46.1 78.3,-46.1"/>
</g>
<!-- d0261e2e&#45;fb63&#45;4168&#45;94ae&#45;caa507d882f6 -->
<g id="node6" class="node">
<title>d0261e2e&#45;fb63&#45;4168&#45;94ae&#45;caa507d882f6</title>
<ellipse fill="none" stroke="black" cx="74.8" cy="-378" rx="34.8" ry="18"/>
<text text-anchor="middle" x="74.8" y="-374.3" font-family="Times,serif" font-size="14.00">WaitArm</text>
</g>
<!-- d0261e2e&#45;fb63&#45;4168&#45;94ae&#45;caa507d882f6&#45;&gt;b736f3e8&#45;cec0&#45;4bf9&#45;b482&#45;2876061aaa25 -->
<g id="edge5" class="edge">
<title>d0261e2e&#45;fb63&#45;4168&#45;94ae&#45;caa507d882f6&#45;&gt;b736f3e8&#45;cec0&#45;4bf9&#45;b482&#45;2876061aaa25</title>
<path fill="none" stroke="black" d="M74.8,-359.7C74.8,-351.98 74.8,-342.71 74.8,-334.11"/>
<polygon fill="black" stroke="black" points="78.3,-334.1 74.8,-324.1 71.3,-334.1 78.3,-334.1"/>
</g>
</g>
</svg>
