<?xml version="1.0" encoding="UTF-8" standalone="no"?>
<!DOCTYPE svg PUBLIC "-//W3C//DTD SVG 1.1//EN"
 "http://www.w3.org/Graphics/SVG/1.1/DTD/svg11.dtd">
<!-- Generated by graphviz version 2.43.0 (0)
 -->
<!-- Title: G Pages: 1 -->
<svg width="158pt" height="404pt"
 viewBox="0.00 0.00 157.61 404.00" xmlns="http://www.w3.org/2000/svg" xmlns:xlink="http://www.w3.org/1999/xlink">
<g id="graph0" class="graph" transform="scale(1 1) rotate(0) translate(4 400)">
<title>G</title>
<polygon fill="transparent" stroke="transparent" points="-4,4 -4,-400 153.61,-400 153.61,4 -4,4"/>
<!-- 37fa79c6&#45;fdb7&#45;4186&#45;ba76&#45;d14b30f1a21e -->
<g id="node1" class="node">
<title>37fa79c6&#45;fdb7&#45;4186&#45;ba76&#45;d14b30f1a21e</title>
<ellipse fill="none" stroke="black" cx="74.8" cy="-306" rx="33.6" ry="18"/>
<text text-anchor="middle" x="74.8" y="-302.3" font-family="Times,serif" font-size="14.00">Descend</text>
</g>
<!-- 2ce011c3&#45;6dbf&#45;434b&#45;bbaa&#45;17f196bd3954 -->
<g id="node2" class="node">
<title>2ce011c3&#45;6dbf&#45;434b&#45;bbaa&#45;17f196bd3954</title>
<ellipse fill="none" stroke="black" cx="74.8" cy="-234" rx="47.1" ry="18"/>
<text text-anchor="middle" x="74.8" y="-230.3" font-family="Times,serif" font-size="14.00">DelayAction</text>
</g>
<!-- 37fa79c6&#45;fdb7&#45;4186&#45;ba76&#45;d14b30f1a21e&#45;&gt;2ce011c3&#45;6dbf&#45;434b&#45;bbaa&#45;17f196bd3954 -->
<g id="edge1" class="edge">
<title>37fa79c6&#45;fdb7&#45;4186&#45;ba76&#45;d14b30f1a21e&#45;&gt;2ce011c3&#45;6dbf&#45;434b&#45;bbaa&#45;17f196bd3954</title>
<path fill="none" stroke="black" d="M74.8,-287.7C74.8,-279.98 74.8,-270.71 74.8,-262.11"/>
<polygon fill="black" stroke="black" points="78.3,-262.1 74.8,-252.1 71.3,-262.1 78.3,-262.1"/>
</g>
<!-- 0fec2d13&#45;50d5&#45;487e&#45;9d60&#45;c9f152ddf07c -->
<g id="node3" class="node">
<title>0fec2d13&#45;50d5&#45;487e&#45;9d60&#45;c9f152ddf07c</title>
<ellipse fill="none" stroke="black" cx="74.8" cy="-162" rx="74.61" ry="18"/>
<text text-anchor="middle" x="74.8" y="-158.3" font-family="Times,serif" font-size="14.00">StraightMovement</text>
</g>
<!-- 2ce011c3&#45;6dbf&#45;434b&#45;bbaa&#45;17f196bd3954&#45;&gt;0fec2d13&#45;50d5&#45;487e&#45;9d60&#45;c9f152ddf07c -->
<g id="edge4" class="edge">
<title>2ce011c3&#45;6dbf&#45;434b&#45;bbaa&#45;17f196bd3954&#45;&gt;0fec2d13&#45;50d5&#45;487e&#45;9d60&#45;c9f152ddf07c</title>
<path fill="none" stroke="black" d="M74.8,-215.7C74.8,-207.98 74.8,-198.71 74.8,-190.11"/>
<polygon fill="black" stroke="black" points="78.3,-190.1 74.8,-180.1 71.3,-190.1 78.3,-190.1"/>
</g>
<!-- ff818d9c&#45;0a13&#45;43e6&#45;8eaf&#45;4ba887e8416d -->
<g id="node4" class="node">
<title>ff818d9c&#45;0a13&#45;43e6&#45;8eaf&#45;4ba887e8416d</title>
<ellipse fill="none" stroke="black" cx="74.8" cy="-90" rx="47.1" ry="18"/>
<text text-anchor="middle" x="74.8" y="-86.3" font-family="Times,serif" font-size="14.00">DelayAction</text>
</g>
<!-- 0fec2d13&#45;50d5&#45;487e&#45;9d60&#45;c9f152ddf07c&#45;&gt;ff818d9c&#45;0a13&#45;43e6&#45;8eaf&#45;4ba887e8416d -->
<g id="edge2" class="edge">
<title>0fec2d13&#45;50d5&#45;487e&#45;9d60&#45;c9f152ddf07c&#45;&gt;ff818d9c&#45;0a13&#45;43e6&#45;8eaf&#45;4ba887e8416d</title>
<path fill="none" stroke="black" d="M74.8,-143.7C74.8,-135.98 74.8,-126.71 74.8,-118.11"/>
<polygon fill="black" stroke="black" points="78.3,-118.1 74.8,-108.1 71.3,-118.1 78.3,-118.1"/>
</g>
<!-- 9c56f1c7&#45;8e88&#45;4091&#45;87ed&#45;abf652804199 -->
<g id="node5" class="node">
<title>9c56f1c7&#45;8e88&#45;4091&#45;87ed&#45;abf652804199</title>
<ellipse fill="none" stroke="black" cx="74.8" cy="-18" rx="59.9" ry="18"/>
<text text-anchor="middle" x="74.8" y="-14.3" font-family="Times,serif" font-size="14.00">ZeroMovement</text>
</g>
<!-- ff818d9c&#45;0a13&#45;43e6&#45;8eaf&#45;4ba887e8416d&#45;&gt;9c56f1c7&#45;8e88&#45;4091&#45;87ed&#45;abf652804199 -->
<g id="edge3" class="edge">
<title>ff818d9c&#45;0a13&#45;43e6&#45;8eaf&#45;4ba887e8416d&#45;&gt;9c56f1c7&#45;8e88&#45;4091&#45;87ed&#45;abf652804199</title>
<path fill="none" stroke="black" d="M74.8,-71.7C74.8,-63.98 74.8,-54.71 74.8,-46.11"/>
<polygon fill="black" stroke="black" points="78.3,-46.1 74.8,-36.1 71.3,-46.1 78.3,-46.1"/>
</g>
<!-- af7284d4&#45;1f52&#45;4c0d&#45;8fd5&#45;e293e96b57c4 -->
<g id="node6" class="node">
<title>af7284d4&#45;1f52&#45;4c0d&#45;8fd5&#45;e293e96b57c4</title>
<ellipse fill="none" stroke="black" cx="74.8" cy="-378" rx="34.8" ry="18"/>
<text text-anchor="middle" x="74.8" y="-374.3" font-family="Times,serif" font-size="14.00">WaitArm</text>
</g>
<!-- af7284d4&#45;1f52&#45;4c0d&#45;8fd5&#45;e293e96b57c4&#45;&gt;37fa79c6&#45;fdb7&#45;4186&#45;ba76&#45;d14b30f1a21e -->
<g id="edge5" class="edge">
<title>af7284d4&#45;1f52&#45;4c0d&#45;8fd5&#45;e293e96b57c4&#45;&gt;37fa79c6&#45;fdb7&#45;4186&#45;ba76&#45;d14b30f1a21e</title>
<path fill="none" stroke="black" d="M74.8,-359.7C74.8,-351.98 74.8,-342.71 74.8,-334.11"/>
<polygon fill="black" stroke="black" points="78.3,-334.1 74.8,-324.1 71.3,-334.1 78.3,-334.1"/>
</g>
</g>
</svg>
