<?xml version="1.0" encoding="UTF-8" standalone="no"?>
<!DOCTYPE svg PUBLIC "-//W3C//DTD SVG 1.1//EN"
 "http://www.w3.org/Graphics/SVG/1.1/DTD/svg11.dtd">
<!-- Generated by graphviz version 2.43.0 (0)
 -->
<!-- Title: G Pages: 1 -->
<svg width="249pt" height="276pt"
 viewBox="0.00 0.00 249.00 276.00" xmlns="http://www.w3.org/2000/svg" xmlns:xlink="http://www.w3.org/1999/xlink">
<g id="graph0" class="graph" transform="scale(1 1) rotate(0) translate(4 272)">
<title>G</title>
<polygon fill="transparent" stroke="transparent" points="-4,4 -4,-272 245,-272 245,4 -4,4"/>
<g id="clust1" class="cluster">
<title>cluster_650153a0&#45;eac8&#45;4a75&#45;b9c5&#45;fce5edb6afae</title>
<polygon fill="transparent" stroke="blue" stroke-dasharray="5,2" points="8,-64 8,-260 233,-260 233,-64 8,-64"/>
</g>
<!-- f6440a30&#45;f2ab&#45;4484&#45;b21d&#45;a469f90cd1d0 -->
<g id="node1" class="node">
<title>f6440a30&#45;f2ab&#45;4484&#45;b21d&#45;a469f90cd1d0</title>
<polygon fill="none" stroke="black" stroke-dasharray="5,2" points="169,-252 71,-252 71,-216 169,-216 169,-252"/>
<text text-anchor="middle" x="120" y="-230.3" font-family="Times,serif" font-size="14.00" fill="blue">Concurrent</text>
</g>
<!-- 8dff2f52&#45;5f0f&#45;4b59&#45;85ac&#45;fa267db5c9ba -->
<g id="node2" class="node">
<title>8dff2f52&#45;5f0f&#45;4b59&#45;85ac&#45;fa267db5c9ba</title>
<ellipse fill="none" stroke="black" cx="51" cy="-162" rx="34.8" ry="18"/>
<text text-anchor="middle" x="51" y="-158.3" font-family="Times,serif" font-size="14.00">WaitArm</text>
</g>
<!-- f6440a30&#45;f2ab&#45;4484&#45;b21d&#45;a469f90cd1d0&#45;&gt;8dff2f52&#45;5f0f&#45;4b59&#45;85ac&#45;fa267db5c9ba -->
<g id="edge1" class="edge">
<title>f6440a30&#45;f2ab&#45;4484&#45;b21d&#45;a469f90cd1d0&#45;&gt;8dff2f52&#45;5f0f&#45;4b59&#45;85ac&#45;fa267db5c9ba</title>
<path fill="none" stroke="black" d="M102.94,-215.7C94.13,-206.75 83.25,-195.71 73.73,-186.06"/>
<polygon fill="black" stroke="black" points="75.96,-183.34 66.45,-178.67 70.97,-188.25 75.96,-183.34"/>
</g>
<!-- f2f15428&#45;032e&#45;436c&#45;a1b3&#45;81cfe6bc803c -->
<g id="node3" class="node">
<title>f2f15428&#45;032e&#45;436c&#45;a1b3&#45;81cfe6bc803c</title>
<ellipse fill="none" stroke="black" cx="191" cy="-162" rx="33.6" ry="18"/>
<text text-anchor="middle" x="191" y="-158.3" font-family="Times,serif" font-size="14.00">Descend</text>
</g>
<!-- f6440a30&#45;f2ab&#45;4484&#45;b21d&#45;a469f90cd1d0&#45;&gt;f2f15428&#45;032e&#45;436c&#45;a1b3&#45;81cfe6bc803c -->
<g id="edge2" class="edge">
<title>f6440a30&#45;f2ab&#45;4484&#45;b21d&#45;a469f90cd1d0&#45;&gt;f2f15428&#45;032e&#45;436c&#45;a1b3&#45;81cfe6bc803c</title>
<path fill="none" stroke="black" d="M137.55,-215.7C146.84,-206.53 158.36,-195.18 168.33,-185.35"/>
<polygon fill="black" stroke="black" points="170.92,-187.72 175.58,-178.2 166,-182.73 170.92,-187.72"/>
</g>
<!-- 51759f44&#45;1f2c&#45;483d&#45;a1a2&#45;a9fa68db427c -->
<g id="node4" class="node">
<title>51759f44&#45;1f2c&#45;483d&#45;a1a2&#45;a9fa68db427c</title>
<polygon fill="none" stroke="black" stroke-dasharray="5,2" points="162.5,-108 77.5,-108 77.5,-72 162.5,-72 162.5,-108"/>
<text text-anchor="middle" x="120" y="-86.3" font-family="Times,serif" font-size="14.00" fill="blue">Converge</text>
</g>
<!-- 8dff2f52&#45;5f0f&#45;4b59&#45;85ac&#45;fa267db5c9ba&#45;&gt;51759f44&#45;1f2c&#45;483d&#45;a1a2&#45;a9fa68db427c -->
<g id="edge3" class="edge">
<title>8dff2f52&#45;5f0f&#45;4b59&#45;85ac&#45;fa267db5c9ba&#45;&gt;51759f44&#45;1f2c&#45;483d&#45;a1a2&#45;a9fa68db427c</title>
<path fill="none" stroke="black" d="M66.31,-145.46C74.92,-136.73 85.86,-125.63 95.62,-115.74"/>
<polygon fill="black" stroke="black" points="98.26,-118.04 102.79,-108.46 93.28,-113.13 98.26,-118.04"/>
</g>
<!-- f2f15428&#45;032e&#45;436c&#45;a1b3&#45;81cfe6bc803c&#45;&gt;51759f44&#45;1f2c&#45;483d&#45;a1a2&#45;a9fa68db427c -->
<g id="edge4" class="edge">
<title>f2f15428&#45;032e&#45;436c&#45;a1b3&#45;81cfe6bc803c&#45;&gt;51759f44&#45;1f2c&#45;483d&#45;a1a2&#45;a9fa68db427c</title>
<path fill="none" stroke="black" d="M175.59,-145.81C166.54,-136.88 154.88,-125.38 144.57,-115.23"/>
<polygon fill="black" stroke="black" points="146.95,-112.66 137.37,-108.13 142.04,-117.64 146.95,-112.66"/>
</g>
<!-- 88c2296b&#45;5612&#45;4ae0&#45;9c8a&#45;c3bf3109154a -->
<g id="node5" class="node">
<title>88c2296b&#45;5612&#45;4ae0&#45;9c8a&#45;c3bf3109154a</title>
<ellipse fill="none" stroke="black" cx="120" cy="-18" rx="34.8" ry="18"/>
<text text-anchor="middle" x="120" y="-14.3" font-family="Times,serif" font-size="14.00">WaitArm</text>
</g>
<!-- 51759f44&#45;1f2c&#45;483d&#45;a1a2&#45;a9fa68db427c&#45;&gt;88c2296b&#45;5612&#45;4ae0&#45;9c8a&#45;c3bf3109154a -->
<g id="edge5" class="edge">
<title>51759f44&#45;1f2c&#45;483d&#45;a1a2&#45;a9fa68db427c&#45;&gt;88c2296b&#45;5612&#45;4ae0&#45;9c8a&#45;c3bf3109154a</title>
<path fill="none" stroke="black" d="M120,-71.7C120,-63.98 120,-54.71 120,-46.11"/>
<polygon fill="black" stroke="black" points="123.5,-46.1 120,-36.1 116.5,-46.1 123.5,-46.1"/>
</g>
</g>
</svg>
