<?xml version="1.0" encoding="UTF-8" standalone="no"?>
<!DOCTYPE svg PUBLIC "-//W3C//DTD SVG 1.1//EN"
 "http://www.w3.org/Graphics/SVG/1.1/DTD/svg11.dtd">
<!-- Generated by graphviz version 2.43.0 (0)
 -->
<!-- Title: G Pages: 1 -->
<svg width="788pt" height="276pt"
 viewBox="0.00 0.00 788.00 276.00" xmlns="http://www.w3.org/2000/svg" xmlns:xlink="http://www.w3.org/1999/xlink">
<g id="graph0" class="graph" transform="scale(1 1) rotate(0) translate(4 272)">
<title>G</title>
<polygon fill="transparent" stroke="transparent" points="-4,4 -4,-272 784,-272 784,4 -4,4"/>
<g id="clust1" class="cluster">
<title>cluster_c72d172f&#45;d068&#45;4d9f&#45;a70d&#45;8b12e249e1ec</title>
<polygon fill="transparent" stroke="red" stroke-dasharray="5,2" points="8,-64 8,-260 772,-260 772,-64 8,-64"/>
</g>
<!-- 338f3708&#45;b944&#45;4e53&#45;93e4&#45;66c74926d322 -->
<g id="node1" class="node">
<title>338f3708&#45;b944&#45;4e53&#45;93e4&#45;66c74926d322</title>
<polygon fill="none" stroke="black" stroke-dasharray="5,2" points="417,-252 363,-252 363,-216 417,-216 417,-252"/>
<text text-anchor="middle" x="390" y="-230.3" font-family="Times,serif" font-size="14.00" fill="red">Race</text>
</g>
<!-- f0019e1c&#45;c3d4&#45;45c4&#45;ac09&#45;0f75e74386e8 -->
<g id="node2" class="node">
<title>f0019e1c&#45;c3d4&#45;45c4&#45;ac09&#45;0f75e74386e8</title>
<ellipse fill="none" stroke="black" cx="62" cy="-162" rx="46.4" ry="18"/>
<text text-anchor="middle" x="62" y="-158.3" font-family="Times,serif" font-size="14.00">AlwaysTrue</text>
</g>
<!-- 338f3708&#45;b944&#45;4e53&#45;93e4&#45;66c74926d322&#45;&gt;f0019e1c&#45;c3d4&#45;45c4&#45;ac09&#45;0f75e74386e8 -->
<g id="edge1" class="edge">
<title>338f3708&#45;b944&#45;4e53&#45;93e4&#45;66c74926d322&#45;&gt;f0019e1c&#45;c3d4&#45;45c4&#45;ac09&#45;0f75e74386e8</title>
<path fill="none" stroke="black" d="M362.88,-227.21C307.73,-215.44 181.79,-188.57 111.59,-173.58"/>
<polygon fill="black" stroke="black" points="112.16,-170.13 101.65,-171.46 110.7,-176.97 112.16,-170.13"/>
</g>
<!-- cda7ab1a&#45;2173&#45;444d&#45;bb00&#45;61ee38f8b69b -->
<g id="node3" class="node">
<title>cda7ab1a&#45;2173&#45;444d&#45;bb00&#45;61ee38f8b69b</title>
<ellipse fill="none" stroke="black" cx="226" cy="-162" rx="46.4" ry="18"/>
<text text-anchor="middle" x="226" y="-158.3" font-family="Times,serif" font-size="14.00">AlwaysTrue</text>
</g>
<!-- 338f3708&#45;b944&#45;4e53&#45;93e4&#45;66c74926d322&#45;&gt;cda7ab1a&#45;2173&#45;444d&#45;bb00&#45;61ee38f8b69b -->
<g id="edge2" class="edge">
<title>338f3708&#45;b944&#45;4e53&#45;93e4&#45;66c74926d322&#45;&gt;cda7ab1a&#45;2173&#45;444d&#45;bb00&#45;61ee38f8b69b</title>
<path fill="none" stroke="black" d="M362.92,-221.44C336.32,-210.09 295.45,-192.65 265.29,-179.77"/>
<polygon fill="black" stroke="black" points="266.47,-176.47 255.9,-175.76 263.72,-182.91 266.47,-176.47"/>
</g>
<!-- 7b1b9073&#45;dca8&#45;4988&#45;b2a3&#45;9dd8cb0c0fef -->
<g id="node4" class="node">
<title>7b1b9073&#45;dca8&#45;4988&#45;b2a3&#45;9dd8cb0c0fef</title>
<ellipse fill="none" stroke="black" cx="390" cy="-162" rx="46.4" ry="18"/>
<text text-anchor="middle" x="390" y="-158.3" font-family="Times,serif" font-size="14.00">AlwaysTrue</text>
</g>
<!-- 338f3708&#45;b944&#45;4e53&#45;93e4&#45;66c74926d322&#45;&gt;7b1b9073&#45;dca8&#45;4988&#45;b2a3&#45;9dd8cb0c0fef -->
<g id="edge3" class="edge">
<title>338f3708&#45;b944&#45;4e53&#45;93e4&#45;66c74926d322&#45;&gt;7b1b9073&#45;dca8&#45;4988&#45;b2a3&#45;9dd8cb0c0fef</title>
<path fill="none" stroke="black" d="M390,-215.7C390,-207.98 390,-198.71 390,-190.11"/>
<polygon fill="black" stroke="black" points="393.5,-190.1 390,-180.1 386.5,-190.1 393.5,-190.1"/>
</g>
<!-- 103dccc5&#45;ec92&#45;4512&#45;a3f0&#45;a4e620313afb -->
<g id="node5" class="node">
<title>103dccc5&#45;ec92&#45;4512&#45;a3f0&#45;a4e620313afb</title>
<ellipse fill="none" stroke="black" cx="554" cy="-162" rx="46.4" ry="18"/>
<text text-anchor="middle" x="554" y="-158.3" font-family="Times,serif" font-size="14.00">AlwaysTrue</text>
</g>
<!-- 338f3708&#45;b944&#45;4e53&#45;93e4&#45;66c74926d322&#45;&gt;103dccc5&#45;ec92&#45;4512&#45;a3f0&#45;a4e620313afb -->
<g id="edge4" class="edge">
<title>338f3708&#45;b944&#45;4e53&#45;93e4&#45;66c74926d322&#45;&gt;103dccc5&#45;ec92&#45;4512&#45;a3f0&#45;a4e620313afb</title>
<path fill="none" stroke="black" d="M417.08,-221.44C443.68,-210.09 484.55,-192.65 514.71,-179.77"/>
<polygon fill="black" stroke="black" points="516.28,-182.91 524.1,-175.76 513.53,-176.47 516.28,-182.91"/>
</g>
<!-- 598a3ae6&#45;6d84&#45;467a&#45;b31c&#45;46bdaacb3c0e -->
<g id="node6" class="node">
<title>598a3ae6&#45;6d84&#45;467a&#45;b31c&#45;46bdaacb3c0e</title>
<ellipse fill="none" stroke="black" cx="718" cy="-162" rx="46.4" ry="18"/>
<text text-anchor="middle" x="718" y="-158.3" font-family="Times,serif" font-size="14.00">AlwaysTrue</text>
</g>
<!-- 338f3708&#45;b944&#45;4e53&#45;93e4&#45;66c74926d322&#45;&gt;598a3ae6&#45;6d84&#45;467a&#45;b31c&#45;46bdaacb3c0e -->
<g id="edge5" class="edge">
<title>338f3708&#45;b944&#45;4e53&#45;93e4&#45;66c74926d322&#45;&gt;598a3ae6&#45;6d84&#45;467a&#45;b31c&#45;46bdaacb3c0e</title>
<path fill="none" stroke="black" d="M417.12,-227.21C472.27,-215.44 598.21,-188.57 668.41,-173.58"/>
<polygon fill="black" stroke="black" points="669.3,-176.97 678.35,-171.46 667.84,-170.13 669.3,-176.97"/>
</g>
<!-- a432cb8d&#45;246f&#45;40a3&#45;9513&#45;7cefd5a2b8ca -->
<g id="node7" class="node">
<title>a432cb8d&#45;246f&#45;40a3&#45;9513&#45;7cefd5a2b8ca</title>
<polygon fill="none" stroke="black" stroke-dasharray="5,2" points="426,-108 354,-108 354,-72 426,-72 426,-108"/>
<text text-anchor="middle" x="390" y="-86.3" font-family="Times,serif" font-size="14.00" fill="red">Resolve</text>
</g>
<!-- f0019e1c&#45;c3d4&#45;45c4&#45;ac09&#45;0f75e74386e8&#45;&gt;a432cb8d&#45;246f&#45;40a3&#45;9513&#45;7cefd5a2b8ca -->
<g id="edge6" class="edge">
<title>f0019e1c&#45;c3d4&#45;45c4&#45;ac09&#45;0f75e74386e8&#45;&gt;a432cb8d&#45;246f&#45;40a3&#45;9513&#45;7cefd5a2b8ca</title>
<path fill="none" stroke="black" d="M101.56,-152.56C162.54,-139.54 279.18,-114.65 343.89,-100.84"/>
<polygon fill="black" stroke="black" points="344.76,-104.23 353.81,-98.72 343.3,-97.39 344.76,-104.23"/>
</g>
<!-- cda7ab1a&#45;2173&#45;444d&#45;bb00&#45;61ee38f8b69b&#45;&gt;a432cb8d&#45;246f&#45;40a3&#45;9513&#45;7cefd5a2b8ca -->
<g id="edge7" class="edge">
<title>cda7ab1a&#45;2173&#45;444d&#45;bb00&#45;61ee38f8b69b&#45;&gt;a432cb8d&#45;246f&#45;40a3&#45;9513&#45;7cefd5a2b8ca</title>
<path fill="none" stroke="black" d="M256.08,-148.16C280.84,-137.59 316.32,-122.45 344.55,-110.4"/>
<polygon fill="black" stroke="black" points="345.99,-113.59 353.81,-106.45 343.24,-107.15 345.99,-113.59"/>
</g>
<!-- 7b1b9073&#45;dca8&#45;4988&#45;b2a3&#45;9dd8cb0c0fef&#45;&gt;a432cb8d&#45;246f&#45;40a3&#45;9513&#45;7cefd5a2b8ca -->
<g id="edge8" class="edge">
<title>7b1b9073&#45;dca8&#45;4988&#45;b2a3&#45;9dd8cb0c0fef&#45;&gt;a432cb8d&#45;246f&#45;40a3&#45;9513&#45;7cefd5a2b8ca</title>
<path fill="none" stroke="black" d="M390,-143.7C390,-135.98 390,-126.71 390,-118.11"/>
<polygon fill="black" stroke="black" points="393.5,-118.1 390,-108.1 386.5,-118.1 393.5,-118.1"/>
</g>
<!-- 103dccc5&#45;ec92&#45;4512&#45;a3f0&#45;a4e620313afb&#45;&gt;a432cb8d&#45;246f&#45;40a3&#45;9513&#45;7cefd5a2b8ca -->
<g id="edge9" class="edge">
<title>103dccc5&#45;ec92&#45;4512&#45;a3f0&#45;a4e620313afb&#45;&gt;a432cb8d&#45;246f&#45;40a3&#45;9513&#45;7cefd5a2b8ca</title>
<path fill="none" stroke="black" d="M523.92,-148.16C499.16,-137.59 463.68,-122.45 435.45,-110.4"/>
<polygon fill="black" stroke="black" points="436.76,-107.15 426.19,-106.45 434.01,-113.59 436.76,-107.15"/>
</g>
<!-- 598a3ae6&#45;6d84&#45;467a&#45;b31c&#45;46bdaacb3c0e&#45;&gt;a432cb8d&#45;246f&#45;40a3&#45;9513&#45;7cefd5a2b8ca -->
<g id="edge10" class="edge">
<title>598a3ae6&#45;6d84&#45;467a&#45;b31c&#45;46bdaacb3c0e&#45;&gt;a432cb8d&#45;246f&#45;40a3&#45;9513&#45;7cefd5a2b8ca</title>
<path fill="none" stroke="black" d="M678.44,-152.56C617.46,-139.54 500.82,-114.65 436.11,-100.84"/>
<polygon fill="black" stroke="black" points="436.7,-97.39 426.19,-98.72 435.24,-104.23 436.7,-97.39"/>
</g>
<!-- 7b1b8286&#45;d7ab&#45;464e&#45;97bb&#45;b326380fc558 -->
<g id="node8" class="node">
<title>7b1b8286&#45;d7ab&#45;464e&#45;97bb&#45;b326380fc558</title>
<ellipse fill="none" stroke="black" cx="390" cy="-18" rx="46.4" ry="18"/>
<text text-anchor="middle" x="390" y="-14.3" font-family="Times,serif" font-size="14.00">AlwaysTrue</text>
</g>
<!-- a432cb8d&#45;246f&#45;40a3&#45;9513&#45;7cefd5a2b8ca&#45;&gt;7b1b8286&#45;d7ab&#45;464e&#45;97bb&#45;b326380fc558 -->
<g id="edge11" class="edge">
<title>a432cb8d&#45;246f&#45;40a3&#45;9513&#45;7cefd5a2b8ca&#45;&gt;7b1b8286&#45;d7ab&#45;464e&#45;97bb&#45;b326380fc558</title>
<path fill="none" stroke="black" d="M390,-71.7C390,-63.98 390,-54.71 390,-46.11"/>
<polygon fill="black" stroke="black" points="393.5,-46.1 390,-36.1 386.5,-46.1 393.5,-46.1"/>
</g>
</g>
</svg>
