<?xml version="1.0" encoding="UTF-8" standalone="no"?>
<!DOCTYPE svg PUBLIC "-//W3C//DTD SVG 1.1//EN"
 "http://www.w3.org/Graphics/SVG/1.1/DTD/svg11.dtd">
<!-- Generated by graphviz version 2.43.0 (0)
 -->
<!-- Title: G Pages: 1 -->
<svg width="408pt" height="293pt"
 viewBox="0.00 0.00 407.65 293.00" xmlns="http://www.w3.org/2000/svg" xmlns:xlink="http://www.w3.org/1999/xlink">
<g id="graph0" class="graph" transform="scale(1 1) rotate(0) translate(4 289)">
<title>G</title>
<polygon fill="transparent" stroke="transparent" points="-4,4 -4,-289 403.65,-289 403.65,4 -4,4"/>
<g id="clust1" class="cluster">
<title>cluster_ea2b7632&#45;9f1b&#45;4095&#45;90ec&#45;d6a2ce80b526</title>
<polygon fill="transparent" stroke="red" stroke-dasharray="5,2" points="8,-8 8,-206 304,-206 304,-8 8,-8"/>
</g>
<!-- 8041013f&#45;db61&#45;4ba7&#45;91be&#45;ff8f44b84291 -->
<g id="node1" class="node">
<title>8041013f&#45;db61&#45;4ba7&#45;91be&#45;ff8f44b84291</title>
<polygon fill="none" stroke="black" points="298,-285 232.82,-267 298,-249 363.18,-267 298,-285"/>
<text text-anchor="middle" x="298" y="-263.3" font-family="Times,serif" font-size="14.00">AlwaysTrue</text>
</g>
<!-- ef8e429d&#45;f37d&#45;47fa&#45;ae18&#45;08d6e4d2fc07 -->
<g id="node2" class="node">
<title>ef8e429d&#45;f37d&#45;47fa&#45;ae18&#45;08d6e4d2fc07</title>
<polygon fill="none" stroke="black" stroke-dasharray="5,2" points="258,-198 204,-198 204,-162 258,-162 258,-198"/>
<text text-anchor="middle" x="231" y="-176.3" font-family="Times,serif" font-size="14.00" fill="red">Race</text>
</g>
<!-- 8041013f&#45;db61&#45;4ba7&#45;91be&#45;ff8f44b84291&#45;&gt;ef8e429d&#45;f37d&#45;47fa&#45;ae18&#45;08d6e4d2fc07 -->
<g id="edge6" class="edge">
<title>8041013f&#45;db61&#45;4ba7&#45;91be&#45;ff8f44b84291&#45;&gt;ef8e429d&#45;f37d&#45;47fa&#45;ae18&#45;08d6e4d2fc07</title>
<path fill="none" stroke="black" d="M286.94,-251.96C277.15,-239.55 262.64,-221.14 250.85,-206.19"/>
<polygon fill="black" stroke="black" points="253.57,-203.98 244.63,-198.29 248.07,-208.31 253.57,-203.98"/>
<text text-anchor="middle" x="287" y="-219.8" font-family="Times,serif" font-size="14.00">False</text>
</g>
<!-- e24dffdf&#45;1c9d&#45;4a86&#45;8c94&#45;f1b0b76c9818 -->
<g id="node6" class="node">
<title>e24dffdf&#45;1c9d&#45;4a86&#45;8c94&#45;f1b0b76c9818</title>
<ellipse fill="none" stroke="black" cx="365" cy="-180" rx="34.8" ry="18"/>
<text text-anchor="middle" x="365" y="-176.3" font-family="Times,serif" font-size="14.00">WaitArm</text>
</g>
<!-- 8041013f&#45;db61&#45;4ba7&#45;91be&#45;ff8f44b84291&#45;&gt;e24dffdf&#45;1c9d&#45;4a86&#45;8c94&#45;f1b0b76c9818 -->
<g id="edge5" class="edge">
<title>8041013f&#45;db61&#45;4ba7&#45;91be&#45;ff8f44b84291&#45;&gt;e24dffdf&#45;1c9d&#45;4a86&#45;8c94&#45;f1b0b76c9818</title>
<path fill="none" stroke="black" d="M309.06,-251.96C319.1,-239.23 334.11,-220.19 346.05,-205.04"/>
<polygon fill="black" stroke="black" points="348.88,-207.11 352.32,-197.09 343.38,-202.77 348.88,-207.11"/>
<text text-anchor="middle" x="352" y="-219.8" font-family="Times,serif" font-size="14.00">True</text>
</g>
<!-- ed741a70&#45;1c3e&#45;45a8&#45;bf22&#45;773df987e652 -->
<g id="node3" class="node">
<title>ed741a70&#45;1c3e&#45;45a8&#45;bf22&#45;773df987e652</title>
<ellipse fill="none" stroke="black" cx="73" cy="-107" rx="56.8" ry="18"/>
<text text-anchor="middle" x="73" y="-103.3" font-family="Times,serif" font-size="14.00">UnwrapAction</text>
</g>
<!-- ef8e429d&#45;f37d&#45;47fa&#45;ae18&#45;08d6e4d2fc07&#45;&gt;ed741a70&#45;1c3e&#45;45a8&#45;bf22&#45;773df987e652 -->
<g id="edge1" class="edge">
<title>ef8e429d&#45;f37d&#45;47fa&#45;ae18&#45;08d6e4d2fc07&#45;&gt;ed741a70&#45;1c3e&#45;45a8&#45;bf22&#45;773df987e652</title>
<path fill="none" stroke="black" d="M203.84,-166.79C179.03,-155.65 142,-139.01 113.66,-126.27"/>
<polygon fill="black" stroke="black" points="114.97,-123.02 104.42,-122.12 112.1,-129.41 114.97,-123.02"/>
</g>
<!-- 52019840&#45;ac5a&#45;4943&#45;a1cb&#45;6df3f98ba8e7 -->
<g id="node4" class="node">
<title>52019840&#45;ac5a&#45;4943&#45;a1cb&#45;6df3f98ba8e7</title>
<ellipse fill="none" stroke="black" cx="249" cy="-107" rx="47.1" ry="18"/>
<text text-anchor="middle" x="249" y="-103.3" font-family="Times,serif" font-size="14.00">DelayAction</text>
</g>
<!-- ef8e429d&#45;f37d&#45;47fa&#45;ae18&#45;08d6e4d2fc07&#45;&gt;52019840&#45;ac5a&#45;4943&#45;a1cb&#45;6df3f98ba8e7 -->
<g id="edge2" class="edge">
<title>ef8e429d&#45;f37d&#45;47fa&#45;ae18&#45;08d6e4d2fc07&#45;&gt;52019840&#45;ac5a&#45;4943&#45;a1cb&#45;6df3f98ba8e7</title>
<path fill="none" stroke="black" d="M235.36,-161.81C237.41,-153.7 239.91,-143.84 242.21,-134.78"/>
<polygon fill="black" stroke="black" points="245.62,-135.58 244.68,-125.03 238.83,-133.86 245.62,-135.58"/>
</g>
<!-- c39c1181&#45;03ef&#45;4ee1&#45;832a&#45;59b3c5cae8a4 -->
<g id="node5" class="node">
<title>c39c1181&#45;03ef&#45;4ee1&#45;832a&#45;59b3c5cae8a4</title>
<polygon fill="none" stroke="black" stroke-dasharray="5,2" points="197,-52 125,-52 125,-16 197,-16 197,-52"/>
<text text-anchor="middle" x="161" y="-30.3" font-family="Times,serif" font-size="14.00" fill="red">Resolve</text>
</g>
<!-- ed741a70&#45;1c3e&#45;45a8&#45;bf22&#45;773df987e652&#45;&gt;c39c1181&#45;03ef&#45;4ee1&#45;832a&#45;59b3c5cae8a4 -->
<g id="edge3" class="edge">
<title>ed741a70&#45;1c3e&#45;45a8&#45;bf22&#45;773df987e652&#45;&gt;c39c1181&#45;03ef&#45;4ee1&#45;832a&#45;59b3c5cae8a4</title>
<path fill="none" stroke="black" d="M92.97,-89.89C104.45,-80.63 119.08,-68.82 131.83,-58.54"/>
<polygon fill="black" stroke="black" points="134.3,-61.04 139.88,-52.04 129.9,-55.59 134.3,-61.04"/>
</g>
<!-- 52019840&#45;ac5a&#45;4943&#45;a1cb&#45;6df3f98ba8e7&#45;&gt;c39c1181&#45;03ef&#45;4ee1&#45;832a&#45;59b3c5cae8a4 -->
<g id="edge4" class="edge">
<title>52019840&#45;ac5a&#45;4943&#45;a1cb&#45;6df3f98ba8e7&#45;&gt;c39c1181&#45;03ef&#45;4ee1&#45;832a&#45;59b3c5cae8a4</title>
<path fill="none" stroke="black" d="M229.47,-90.24C218.01,-80.99 203.29,-69.12 190.44,-58.76"/>
<polygon fill="black" stroke="black" points="192.3,-55.76 182.32,-52.2 187.91,-61.21 192.3,-55.76"/>
</g>
</g>
</svg>
