<?xml version="1.0" encoding="UTF-8" standalone="no"?>
<!DOCTYPE svg PUBLIC "-//W3C//DTD SVG 1.1//EN"
 "http://www.w3.org/Graphics/SVG/1.1/DTD/svg11.dtd">
<!-- Generated by graphviz version 2.43.0 (0)
 -->
<!-- Title: G Pages: 1 -->
<svg width="326pt" height="277pt"
 viewBox="0.00 0.00 325.57 277.00" xmlns="http://www.w3.org/2000/svg" xmlns:xlink="http://www.w3.org/1999/xlink">
<g id="graph0" class="graph" transform="scale(1 1) rotate(0) translate(4 273)">
<title>G</title>
<polygon fill="transparent" stroke="transparent" points="-4,4 -4,-273 321.57,-273 321.57,4 -4,4"/>
<!-- cdc503f9&#45;3db4&#45;4d18&#45;8915&#45;49490b2e9539 -->
<g id="node1" class="node">
<title>cdc503f9&#45;3db4&#45;4d18&#45;8915&#45;49490b2e9539</title>
<polygon fill="none" stroke="black" points="105.79,-269 0.21,-251 105.79,-233 211.36,-251 105.79,-269"/>
<text text-anchor="middle" x="105.79" y="-247.3" font-family="Times,serif" font-size="14.00">DriveToBuoyVision</text>
</g>
<!-- cdc503f9&#45;3db4&#45;4d18&#45;8915&#45;49490b2e9539&#45;&gt;cdc503f9&#45;3db4&#45;4d18&#45;8915&#45;49490b2e9539 -->
<g id="edge1" class="edge">
<title>cdc503f9&#45;3db4&#45;4d18&#45;8915&#45;49490b2e9539&#45;&gt;cdc503f9&#45;3db4&#45;4d18&#45;8915&#45;49490b2e9539</title>
<path fill="none" stroke="black" d="M172.36,-257.72C226.91,-260.5 283.57,-258.26 283.57,-251 283.57,-244.19 233.78,-241.8 182.6,-243.82"/>
<polygon fill="black" stroke="black" points="182.19,-240.33 172.36,-244.28 182.5,-247.32 182.19,-240.33"/>
<text text-anchor="middle" x="300.57" y="-247.3" font-family="Times,serif" font-size="14.00">True</text>
</g>
<!-- d0f6fbfa&#45;210e&#45;489d&#45;89da&#45;7634f5aed6bc -->
<g id="node4" class="node">
<title>d0f6fbfa&#45;210e&#45;489d&#45;89da&#45;7634f5aed6bc</title>
<ellipse fill="none" stroke="black" cx="105.79" cy="-164" rx="74.61" ry="18"/>
<text text-anchor="middle" x="105.79" y="-160.3" font-family="Times,serif" font-size="14.00">StraightMovement</text>
</g>
<!-- cdc503f9&#45;3db4&#45;4d18&#45;8915&#45;49490b2e9539&#45;&gt;d0f6fbfa&#45;210e&#45;489d&#45;89da&#45;7634f5aed6bc -->
<g id="edge4" class="edge">
<title>cdc503f9&#45;3db4&#45;4d18&#45;8915&#45;49490b2e9539&#45;&gt;d0f6fbfa&#45;210e&#45;489d&#45;89da&#45;7634f5aed6bc</title>
<path fill="none" stroke="black" d="M105.79,-232.8C105.79,-221.16 105.79,-205.55 105.79,-192.24"/>
<polygon fill="black" stroke="black" points="109.29,-192.18 105.79,-182.18 102.29,-192.18 109.29,-192.18"/>
<text text-anchor="middle" x="124.79" y="-203.8" font-family="Times,serif" font-size="14.00">False</text>
</g>
<!-- 24df0c3e&#45;675e&#45;4e80&#45;9a69&#45;616da2888996 -->
<g id="node2" class="node">
<title>24df0c3e&#45;675e&#45;4e80&#45;9a69&#45;616da2888996</title>
<ellipse fill="none" stroke="black" cx="105.79" cy="-91" rx="47.1" ry="18"/>
<text text-anchor="middle" x="105.79" y="-87.3" font-family="Times,serif" font-size="14.00">DelayAction</text>
</g>
<!-- fff4cef5&#45;e5ec&#45;4670&#45;8549&#45;231f9e5cbda0 -->
<g id="node3" class="node">
<title>fff4cef5&#45;e5ec&#45;4670&#45;8549&#45;231f9e5cbda0</title>
<ellipse fill="none" stroke="black" cx="105.79" cy="-18" rx="59.9" ry="18"/>
<text text-anchor="middle" x="105.79" y="-14.3" font-family="Times,serif" font-size="14.00">ZeroMovement</text>
</g>
<!-- 24df0c3e&#45;675e&#45;4e80&#45;9a69&#45;616da2888996&#45;&gt;fff4cef5&#45;e5ec&#45;4670&#45;8549&#45;231f9e5cbda0 -->
<g id="edge2" class="edge">
<title>24df0c3e&#45;675e&#45;4e80&#45;9a69&#45;616da2888996&#45;&gt;fff4cef5&#45;e5ec&#45;4670&#45;8549&#45;231f9e5cbda0</title>
<path fill="none" stroke="black" d="M105.79,-72.81C105.79,-64.79 105.79,-55.05 105.79,-46.07"/>
<polygon fill="black" stroke="black" points="109.29,-46.03 105.79,-36.03 102.29,-46.03 109.29,-46.03"/>
</g>
<!-- d0f6fbfa&#45;210e&#45;489d&#45;89da&#45;7634f5aed6bc&#45;&gt;24df0c3e&#45;675e&#45;4e80&#45;9a69&#45;616da2888996 -->
<g id="edge3" class="edge">
<title>d0f6fbfa&#45;210e&#45;489d&#45;89da&#45;7634f5aed6bc&#45;&gt;24df0c3e&#45;675e&#45;4e80&#45;9a69&#45;616da2888996</title>
<path fill="none" stroke="black" d="M105.79,-145.81C105.79,-137.79 105.79,-128.05 105.79,-119.07"/>
<polygon fill="black" stroke="black" points="109.29,-119.03 105.79,-109.03 102.29,-119.03 109.29,-119.03"/>
</g>
</g>
</svg>
