<?xml version="1.0" encoding="UTF-8" standalone="no"?>
<!DOCTYPE svg PUBLIC "-//W3C//DTD SVG 1.1//EN"
 "http://www.w3.org/Graphics/SVG/1.1/DTD/svg11.dtd">
<!-- Generated by graphviz version 2.43.0 (0)
 -->
<!-- Title: G Pages: 1 -->
<svg width="326pt" height="263pt"
 viewBox="0.00 0.00 325.57 263.00" xmlns="http://www.w3.org/2000/svg" xmlns:xlink="http://www.w3.org/1999/xlink">
<g id="graph0" class="graph" transform="scale(1 1) rotate(0) translate(4 259)">
<title>G</title>
<polygon fill="transparent" stroke="transparent" points="-4,4 -4,-259 321.57,-259 321.57,4 -4,4"/>
<!-- c609f65f&#45;1e9c&#45;4f20&#45;bca4&#45;aef62642a2a5 -->
<g id="node1" class="node">
<title>c609f65f&#45;1e9c&#45;4f20&#45;bca4&#45;aef62642a2a5</title>
<polygon fill="none" stroke="black" points="105.79,-255 0.21,-237 105.79,-219 211.36,-237 105.79,-255"/>
<text text-anchor="middle" x="105.79" y="-233.3" font-family="Times,serif" font-size="14.00">DriveToBuoyVision</text>
</g>
<!-- c609f65f&#45;1e9c&#45;4f20&#45;bca4&#45;aef62642a2a5&#45;&gt;c609f65f&#45;1e9c&#45;4f20&#45;bca4&#45;aef62642a2a5 -->
<g id="edge1" class="edge">
<title>c609f65f&#45;1e9c&#45;4f20&#45;bca4&#45;aef62642a2a5&#45;&gt;c609f65f&#45;1e9c&#45;4f20&#45;bca4&#45;aef62642a2a5</title>
<path fill="none" stroke="black" d="M176.98,-242.95C230.07,-245.03 283.57,-243.05 283.57,-237 283.57,-231.34 236.74,-229.24 187.24,-230.7"/>
<polygon fill="black" stroke="black" points="186.86,-227.21 176.98,-231.05 187.1,-234.2 186.86,-227.21"/>
<text text-anchor="middle" x="300.57" y="-233.3" font-family="Times,serif" font-size="14.00">True</text>
</g>
<!-- 74e20508&#45;4305&#45;44c3&#45;a279&#45;f591079022eb -->
<g id="node2" class="node">
<title>74e20508&#45;4305&#45;44c3&#45;a279&#45;f591079022eb</title>
<ellipse fill="none" stroke="black" cx="105.79" cy="-164" rx="74.61" ry="18"/>
<text text-anchor="middle" x="105.79" y="-160.3" font-family="Times,serif" font-size="14.00">StraightMovement</text>
</g>
<!-- c609f65f&#45;1e9c&#45;4f20&#45;bca4&#45;aef62642a2a5&#45;&gt;74e20508&#45;4305&#45;44c3&#45;a279&#45;f591079022eb -->
<g id="edge4" class="edge">
<title>c609f65f&#45;1e9c&#45;4f20&#45;bca4&#45;aef62642a2a5&#45;&gt;74e20508&#45;4305&#45;44c3&#45;a279&#45;f591079022eb</title>
<path fill="none" stroke="black" d="M105.79,-218.81C105.79,-210.79 105.79,-201.05 105.79,-192.07"/>
<polygon fill="black" stroke="black" points="109.29,-192.03 105.79,-182.03 102.29,-192.03 109.29,-192.03"/>
</g>
<!-- 29948308&#45;ff2b&#45;4d11&#45;9e0e&#45;3adf178850d9 -->
<g id="node3" class="node">
<title>29948308&#45;ff2b&#45;4d11&#45;9e0e&#45;3adf178850d9</title>
<ellipse fill="none" stroke="black" cx="105.79" cy="-91" rx="47.1" ry="18"/>
<text text-anchor="middle" x="105.79" y="-87.3" font-family="Times,serif" font-size="14.00">DelayAction</text>
</g>
<!-- 74e20508&#45;4305&#45;44c3&#45;a279&#45;f591079022eb&#45;&gt;29948308&#45;ff2b&#45;4d11&#45;9e0e&#45;3adf178850d9 -->
<g id="edge3" class="edge">
<title>74e20508&#45;4305&#45;44c3&#45;a279&#45;f591079022eb&#45;&gt;29948308&#45;ff2b&#45;4d11&#45;9e0e&#45;3adf178850d9</title>
<path fill="none" stroke="black" d="M105.79,-145.81C105.79,-137.79 105.79,-128.05 105.79,-119.07"/>
<polygon fill="black" stroke="black" points="109.29,-119.03 105.79,-109.03 102.29,-119.03 109.29,-119.03"/>
</g>
<!-- 63c6a6b6&#45;3d0c&#45;45e5&#45;93d9&#45;d500d1bd5afd -->
<g id="node4" class="node">
<title>63c6a6b6&#45;3d0c&#45;45e5&#45;93d9&#45;d500d1bd5afd</title>
<ellipse fill="none" stroke="black" cx="105.79" cy="-18" rx="59.9" ry="18"/>
<text text-anchor="middle" x="105.79" y="-14.3" font-family="Times,serif" font-size="14.00">ZeroMovement</text>
</g>
<!-- 29948308&#45;ff2b&#45;4d11&#45;9e0e&#45;3adf178850d9&#45;&gt;63c6a6b6&#45;3d0c&#45;45e5&#45;93d9&#45;d500d1bd5afd -->
<g id="edge2" class="edge">
<title>29948308&#45;ff2b&#45;4d11&#45;9e0e&#45;3adf178850d9&#45;&gt;63c6a6b6&#45;3d0c&#45;45e5&#45;93d9&#45;d500d1bd5afd</title>
<path fill="none" stroke="black" d="M105.79,-72.81C105.79,-64.79 105.79,-55.05 105.79,-46.07"/>
<polygon fill="black" stroke="black" points="109.29,-46.03 105.79,-36.03 102.29,-46.03 109.29,-46.03"/>
</g>
</g>
</svg>
