<?xml version="1.0" encoding="UTF-8" standalone="no"?>
<!DOCTYPE svg PUBLIC "-//W3C//DTD SVG 1.1//EN"
 "http://www.w3.org/Graphics/SVG/1.1/DTD/svg11.dtd">
<!-- Generated by graphviz version 2.43.0 (0)
 -->
<!-- Title: G Pages: 1 -->
<svg width="336pt" height="728pt"
 viewBox="0.00 0.00 336.00 728.00" xmlns="http://www.w3.org/2000/svg" xmlns:xlink="http://www.w3.org/1999/xlink">
<g id="graph0" class="graph" transform="scale(1 1) rotate(0) translate(4 724)">
<title>G</title>
<polygon fill="transparent" stroke="transparent" points="-4,4 -4,-724 332,-724 332,4 -4,4"/>
<g id="clust1" class="cluster">
<title>cluster_12710b04&#45;80ce&#45;49db&#45;8402&#45;1221382a68cc</title>
<polygon fill="transparent" stroke="blue" stroke-dasharray="5,2" points="8,-8 8,-568 320,-568 320,-8 8,-8"/>
</g>
<!-- 991c69e1&#45;36dc&#45;4a88&#45;a6e1&#45;35c97c50a33b -->
<g id="node1" class="node">
<title>991c69e1&#45;36dc&#45;4a88&#45;a6e1&#45;35c97c50a33b</title>
<ellipse fill="none" stroke="black" cx="95" cy="-121" rx="67.81" ry="18"/>
<text text-anchor="middle" x="95" y="-117.3" font-family="Times,serif" font-size="14.00">LinearYawFromX</text>
</g>
<!-- 47d97c55&#45;b14e&#45;4fb4&#45;8ffc&#45;2133e34186a2 -->
<g id="node2" class="node">
<title>47d97c55&#45;b14e&#45;4fb4&#45;8ffc&#45;2133e34186a2</title>
<ellipse fill="none" stroke="black" cx="96" cy="-34" rx="80.11" ry="18"/>
<text text-anchor="middle" x="96" y="-30.3" font-family="Times,serif" font-size="14.00">Stability2Movement</text>
</g>
<!-- 991c69e1&#45;36dc&#45;4a88&#45;a6e1&#45;35c97c50a33b&#45;&gt;47d97c55&#45;b14e&#45;4fb4&#45;8ffc&#45;2133e34186a2 -->
<g id="edge1" class="edge">
<title>991c69e1&#45;36dc&#45;4a88&#45;a6e1&#45;35c97c50a33b&#45;&gt;47d97c55&#45;b14e&#45;4fb4&#45;8ffc&#45;2133e34186a2</title>
<path fill="none" stroke="purple" d="M95.2,-102.8C95.34,-91.16 95.52,-75.55 95.68,-62.24"/>
<polygon fill="purple" stroke="purple" points="99.18,-62.22 95.8,-52.18 92.18,-62.13 99.18,-62.22"/>
<text text-anchor="middle" x="130.5" y="-73.8" font-family="Times,serif" font-size="14.00" fill="purple">Pass Data</text>
</g>
<!-- 564a4fe8&#45;f656&#45;4392&#45;b19b&#45;40ebbc7c7b76 -->
<g id="node3" class="node">
<title>564a4fe8&#45;f656&#45;4392&#45;b19b&#45;40ebbc7c7b76</title>
<ellipse fill="none" stroke="black" cx="95" cy="-208" rx="51.3" ry="18"/>
<text text-anchor="middle" x="95" y="-204.3" font-family="Times,serif" font-size="14.00">OffsetToPose</text>
</g>
<!-- 564a4fe8&#45;f656&#45;4392&#45;b19b&#45;40ebbc7c7b76&#45;&gt;991c69e1&#45;36dc&#45;4a88&#45;a6e1&#45;35c97c50a33b -->
<g id="edge2" class="edge">
<title>564a4fe8&#45;f656&#45;4392&#45;b19b&#45;40ebbc7c7b76&#45;&gt;991c69e1&#45;36dc&#45;4a88&#45;a6e1&#45;35c97c50a33b</title>
<path fill="none" stroke="purple" d="M95,-189.8C95,-178.16 95,-162.55 95,-149.24"/>
<polygon fill="purple" stroke="purple" points="98.5,-149.18 95,-139.18 91.5,-149.18 98.5,-149.18"/>
<text text-anchor="middle" x="130.5" y="-160.8" font-family="Times,serif" font-size="14.00" fill="purple">Pass Data</text>
</g>
<!-- 9984182c&#45;f7d2&#45;4f49&#45;ad7c&#45;8fabae40aee7 -->
<g id="node4" class="node">
<title>9984182c&#45;f7d2&#45;4f49&#45;ad7c&#45;8fabae40aee7</title>
<ellipse fill="none" stroke="black" cx="94" cy="-295" rx="35.5" ry="18"/>
<text text-anchor="middle" x="94" y="-291.3" font-family="Times,serif" font-size="14.00">MidPoint</text>
</g>
<!-- 9984182c&#45;f7d2&#45;4f49&#45;ad7c&#45;8fabae40aee7&#45;&gt;564a4fe8&#45;f656&#45;4392&#45;b19b&#45;40ebbc7c7b76 -->
<g id="edge3" class="edge">
<title>9984182c&#45;f7d2&#45;4f49&#45;ad7c&#45;8fabae40aee7&#45;&gt;564a4fe8&#45;f656&#45;4392&#45;b19b&#45;40ebbc7c7b76</title>
<path fill="none" stroke="purple" d="M94.2,-276.8C94.34,-265.16 94.52,-249.55 94.68,-236.24"/>
<polygon fill="purple" stroke="purple" points="98.18,-236.22 94.8,-226.18 91.18,-236.13 98.18,-236.22"/>
<text text-anchor="middle" x="129.5" y="-247.8" font-family="Times,serif" font-size="14.00" fill="purple">Pass Data</text>
</g>
<!-- 9a816ca5&#45;cab7&#45;4664&#45;9154&#45;136c446a0ec2 -->
<g id="node5" class="node">
<title>9a816ca5&#45;cab7&#45;4664&#45;9154&#45;136c446a0ec2</title>
<ellipse fill="none" stroke="black" cx="92" cy="-382" rx="61.1" ry="18"/>
<text text-anchor="middle" x="92" y="-378.3" font-family="Times,serif" font-size="14.00">ExtractPosition</text>
</g>
<!-- 9a816ca5&#45;cab7&#45;4664&#45;9154&#45;136c446a0ec2&#45;&gt;9984182c&#45;f7d2&#45;4f49&#45;ad7c&#45;8fabae40aee7 -->
<g id="edge4" class="edge">
<title>9a816ca5&#45;cab7&#45;4664&#45;9154&#45;136c446a0ec2&#45;&gt;9984182c&#45;f7d2&#45;4f49&#45;ad7c&#45;8fabae40aee7</title>
<path fill="none" stroke="purple" d="M92.4,-363.8C92.68,-352.16 93.05,-336.55 93.36,-323.24"/>
<polygon fill="purple" stroke="purple" points="96.86,-323.26 93.6,-313.18 89.86,-323.09 96.86,-323.26"/>
<text text-anchor="middle" x="128.5" y="-334.8" font-family="Times,serif" font-size="14.00" fill="purple">Pass Data</text>
</g>
<!-- 04e6b570&#45;1ac8&#45;483b&#45;9394&#45;220a983416aa -->
<g id="node6" class="node">
<title>04e6b570&#45;1ac8&#45;483b&#45;9394&#45;220a983416aa</title>
<ellipse fill="none" stroke="black" cx="43" cy="-469" rx="27" ry="18"/>
<text text-anchor="middle" x="43" y="-465.3" font-family="Times,serif" font-size="14.00">ToVec</text>
</g>
<!-- 04e6b570&#45;1ac8&#45;483b&#45;9394&#45;220a983416aa&#45;&gt;9a816ca5&#45;cab7&#45;4664&#45;9154&#45;136c446a0ec2 -->
<g id="edge5" class="edge">
<title>04e6b570&#45;1ac8&#45;483b&#45;9394&#45;220a983416aa&#45;&gt;9a816ca5&#45;cab7&#45;4664&#45;9154&#45;136c446a0ec2</title>
<path fill="none" stroke="purple" d="M52.22,-452.01C59.27,-439.78 69.13,-422.68 77.27,-408.56"/>
<polygon fill="purple" stroke="purple" points="80.36,-410.2 82.32,-399.79 74.3,-406.7 80.36,-410.2"/>
<text text-anchor="middle" x="105.5" y="-421.8" font-family="Times,serif" font-size="14.00" fill="purple">Pass Data</text>
</g>
<!-- 69fd5cb5&#45;e310&#45;49e6&#45;9deb&#45;bd9c97d33ec1 -->
<g id="node7" class="node">
<title>69fd5cb5&#45;e310&#45;49e6&#45;9deb&#45;bd9c97d33ec1</title>
<polygon fill="none" stroke="black" stroke-dasharray="5,2" points="195,-560 97,-560 97,-524 195,-524 195,-560"/>
<text text-anchor="middle" x="146" y="-538.3" font-family="Times,serif" font-size="14.00" fill="blue">Concurrent</text>
</g>
<!-- 69fd5cb5&#45;e310&#45;49e6&#45;9deb&#45;bd9c97d33ec1&#45;&gt;04e6b570&#45;1ac8&#45;483b&#45;9394&#45;220a983416aa -->
<g id="edge6" class="edge">
<title>69fd5cb5&#45;e310&#45;49e6&#45;9deb&#45;bd9c97d33ec1&#45;&gt;04e6b570&#45;1ac8&#45;483b&#45;9394&#45;220a983416aa</title>
<path fill="none" stroke="black" d="M121.33,-523.99C105.66,-513.19 85.4,-499.23 69.41,-488.2"/>
<polygon fill="black" stroke="black" points="71.24,-485.21 61.02,-482.42 67.27,-490.98 71.24,-485.21"/>
</g>
<!-- 961825dc&#45;fa9c&#45;4c9e&#45;803d&#45;73d1dd16f3ef -->
<g id="node8" class="node">
<title>961825dc&#45;fa9c&#45;4c9e&#45;803d&#45;73d1dd16f3ef</title>
<ellipse fill="none" stroke="black" cx="227" cy="-469" rx="85.01" ry="18"/>
<text text-anchor="middle" x="227" y="-465.3" font-family="Times,serif" font-size="14.00">Consecutive True &lt; 3</text>
</g>
<!-- 69fd5cb5&#45;e310&#45;49e6&#45;9deb&#45;bd9c97d33ec1&#45;&gt;961825dc&#45;fa9c&#45;4c9e&#45;803d&#45;73d1dd16f3ef -->
<g id="edge7" class="edge">
<title>69fd5cb5&#45;e310&#45;49e6&#45;9deb&#45;bd9c97d33ec1&#45;&gt;961825dc&#45;fa9c&#45;4c9e&#45;803d&#45;73d1dd16f3ef</title>
<path fill="none" stroke="black" d="M165.61,-523.81C176.03,-514.68 189,-503.31 200.32,-493.38"/>
<polygon fill="black" stroke="black" points="202.64,-496.01 207.85,-486.78 198.03,-490.74 202.64,-496.01"/>
</g>
<!-- e59373b6&#45;8507&#45;4388&#45;a747&#45;d60baea89282 -->
<g id="node9" class="node">
<title>e59373b6&#45;8507&#45;4388&#45;a747&#45;d60baea89282</title>
<ellipse fill="none" stroke="black" cx="146" cy="-629" rx="75.21" ry="18"/>
<text text-anchor="middle" x="146" y="-625.3" font-family="Times,serif" font-size="14.00">VisionNormBottom</text>
</g>
<!-- e59373b6&#45;8507&#45;4388&#45;a747&#45;d60baea89282&#45;&gt;69fd5cb5&#45;e310&#45;49e6&#45;9deb&#45;bd9c97d33ec1 -->
<g id="edge8" class="edge">
<title>e59373b6&#45;8507&#45;4388&#45;a747&#45;d60baea89282&#45;&gt;69fd5cb5&#45;e310&#45;49e6&#45;9deb&#45;bd9c97d33ec1</title>
<path fill="none" stroke="purple" d="M146,-610.8C146,-599.16 146,-583.55 146,-570.24"/>
<polygon fill="purple" stroke="purple" points="149.5,-570.18 146,-560.18 142.5,-570.18 149.5,-570.18"/>
<text text-anchor="middle" x="181.5" y="-581.8" font-family="Times,serif" font-size="14.00" fill="purple">Pass Data</text>
</g>
<!-- e6c6bcc8&#45;5fcb&#45;4d66&#45;94c7&#45;eb20b873acd9 -->
<g id="node10" class="node">
<title>e6c6bcc8&#45;5fcb&#45;4d66&#45;94c7&#45;eb20b873acd9</title>
<ellipse fill="none" stroke="black" cx="146" cy="-702" rx="59.9" ry="18"/>
<text text-anchor="middle" x="146" y="-698.3" font-family="Times,serif" font-size="14.00">ZeroMovement</text>
</g>
<!-- e6c6bcc8&#45;5fcb&#45;4d66&#45;94c7&#45;eb20b873acd9&#45;&gt;e59373b6&#45;8507&#45;4388&#45;a747&#45;d60baea89282 -->
<g id="edge9" class="edge">
<title>e6c6bcc8&#45;5fcb&#45;4d66&#45;94c7&#45;eb20b873acd9&#45;&gt;e59373b6&#45;8507&#45;4388&#45;a747&#45;d60baea89282</title>
<path fill="none" stroke="black" d="M146,-683.81C146,-675.79 146,-666.05 146,-657.07"/>
<polygon fill="black" stroke="black" points="149.5,-657.03 146,-647.03 142.5,-657.03 149.5,-657.03"/>
</g>
</g>
</svg>
