<?xml version="1.0" encoding="UTF-8" standalone="no"?>
<!DOCTYPE svg PUBLIC "-//W3C//DTD SVG 1.1//EN"
 "http://www.w3.org/Graphics/SVG/1.1/DTD/svg11.dtd">
<!-- Generated by graphviz version 2.43.0 (0)
 -->
<!-- Title: G Pages: 1 -->
<svg width="583pt" height="552pt"
 viewBox="0.00 0.00 582.60 552.00" xmlns="http://www.w3.org/2000/svg" xmlns:xlink="http://www.w3.org/1999/xlink">
<g id="graph0" class="graph" transform="scale(1 1) rotate(0) translate(4 548)">
<title>G</title>
<polygon fill="transparent" stroke="transparent" points="-4,4 -4,-548 578.6,-548 578.6,4 -4,4"/>
<!-- acb86873&#45;6ecc&#45;4d95&#45;a9cc&#45;006cfb3d0baf -->
<g id="node1" class="node">
<title>acb86873&#45;6ecc&#45;4d95&#45;a9cc&#45;006cfb3d0baf</title>
<polygon fill="none" stroke="black" points="294.3,-384 166.67,-366 294.3,-348 421.93,-366 294.3,-384"/>
<text text-anchor="middle" x="294.3" y="-362.3" font-family="Times,serif" font-size="14.00">Consecutive True &lt; 34</text>
</g>
<!-- 74e626f0&#45;ac5c&#45;4af0&#45;a6a8&#45;f38313869fdd -->
<g id="node5" class="node">
<title>74e626f0&#45;ac5c&#45;4af0&#45;a6a8&#45;f38313869fdd</title>
<ellipse fill="none" stroke="black" cx="86.3" cy="-279" rx="38.5" ry="18"/>
<text text-anchor="middle" x="86.3" y="-275.3" font-family="Times,serif" font-size="14.00">ConstYaw</text>
</g>
<!-- acb86873&#45;6ecc&#45;4d95&#45;a9cc&#45;006cfb3d0baf&#45;&gt;74e626f0&#45;ac5c&#45;4af0&#45;a6a8&#45;f38313869fdd -->
<g id="edge6" class="edge">
<title>acb86873&#45;6ecc&#45;4d95&#45;a9cc&#45;006cfb3d0baf&#45;&gt;74e626f0&#45;ac5c&#45;4af0&#45;a6a8&#45;f38313869fdd</title>
<path fill="none" stroke="black" d="M263.16,-352.27C225.89,-337.04 163.53,-311.56 123.69,-295.28"/>
<polygon fill="black" stroke="black" points="124.9,-291.99 114.32,-291.45 122.25,-298.47 124.9,-291.99"/>
<text text-anchor="middle" x="220.3" y="-318.8" font-family="Times,serif" font-size="14.00">True</text>
</g>
<!-- d0c1a4e5&#45;b374&#45;43e8&#45;90a9&#45;ca31c090397a -->
<g id="node8" class="node">
<title>d0c1a4e5&#45;b374&#45;43e8&#45;90a9&#45;ca31c090397a</title>
<ellipse fill="none" stroke="black" cx="294.3" cy="-279" rx="59.9" ry="18"/>
<text text-anchor="middle" x="294.3" y="-275.3" font-family="Times,serif" font-size="14.00">ZeroMovement</text>
</g>
<!-- acb86873&#45;6ecc&#45;4d95&#45;a9cc&#45;006cfb3d0baf&#45;&gt;d0c1a4e5&#45;b374&#45;43e8&#45;90a9&#45;ca31c090397a -->
<g id="edge7" class="edge">
<title>acb86873&#45;6ecc&#45;4d95&#45;a9cc&#45;006cfb3d0baf&#45;&gt;d0c1a4e5&#45;b374&#45;43e8&#45;90a9&#45;ca31c090397a</title>
<path fill="none" stroke="black" d="M294.3,-347.8C294.3,-336.16 294.3,-320.55 294.3,-307.24"/>
<polygon fill="black" stroke="black" points="297.8,-307.18 294.3,-297.18 290.8,-307.18 297.8,-307.18"/>
<text text-anchor="middle" x="313.3" y="-318.8" font-family="Times,serif" font-size="14.00">False</text>
</g>
<!-- 771395e1&#45;94fe&#45;48d1&#45;a9c4&#45;d2a2e25cbae8 -->
<g id="node2" class="node">
<title>771395e1&#45;94fe&#45;48d1&#45;a9c4&#45;d2a2e25cbae8</title>
<ellipse fill="none" stroke="black" cx="86.3" cy="-105" rx="36.1" ry="18"/>
<text text-anchor="middle" x="86.3" y="-101.3" font-family="Times,serif" font-size="14.00">SideMult</text>
</g>
<!-- 4724147c&#45;da3b&#45;4baf&#45;a3cc&#45;54fa0d67ccc5 -->
<g id="node3" class="node">
<title>4724147c&#45;da3b&#45;4baf&#45;a3cc&#45;54fa0d67ccc5</title>
<ellipse fill="none" stroke="black" cx="86.3" cy="-18" rx="80.11" ry="18"/>
<text text-anchor="middle" x="86.3" y="-14.3" font-family="Times,serif" font-size="14.00">Stability2Movement</text>
</g>
<!-- 771395e1&#45;94fe&#45;48d1&#45;a9c4&#45;d2a2e25cbae8&#45;&gt;4724147c&#45;da3b&#45;4baf&#45;a3cc&#45;54fa0d67ccc5 -->
<g id="edge1" class="edge">
<title>771395e1&#45;94fe&#45;48d1&#45;a9c4&#45;d2a2e25cbae8&#45;&gt;4724147c&#45;da3b&#45;4baf&#45;a3cc&#45;54fa0d67ccc5</title>
<path fill="none" stroke="purple" d="M86.3,-86.8C86.3,-75.16 86.3,-59.55 86.3,-46.24"/>
<polygon fill="purple" stroke="purple" points="89.8,-46.18 86.3,-36.18 82.8,-46.18 89.8,-46.18"/>
<text text-anchor="middle" x="121.8" y="-57.8" font-family="Times,serif" font-size="14.00" fill="purple">Pass Data</text>
</g>
<!-- 0fbe43e2&#45;6b17&#45;4b0e&#45;b7d1&#45;0d022e93e79f -->
<g id="node4" class="node">
<title>0fbe43e2&#45;6b17&#45;4b0e&#45;b7d1&#45;0d022e93e79f</title>
<ellipse fill="none" stroke="black" cx="86.3" cy="-192" rx="27" ry="18"/>
<text text-anchor="middle" x="86.3" y="-188.3" font-family="Times,serif" font-size="14.00">SetX</text>
</g>
<!-- 0fbe43e2&#45;6b17&#45;4b0e&#45;b7d1&#45;0d022e93e79f&#45;&gt;771395e1&#45;94fe&#45;48d1&#45;a9c4&#45;d2a2e25cbae8 -->
<g id="edge2" class="edge">
<title>0fbe43e2&#45;6b17&#45;4b0e&#45;b7d1&#45;0d022e93e79f&#45;&gt;771395e1&#45;94fe&#45;48d1&#45;a9c4&#45;d2a2e25cbae8</title>
<path fill="none" stroke="purple" d="M86.3,-173.8C86.3,-162.16 86.3,-146.55 86.3,-133.24"/>
<polygon fill="purple" stroke="purple" points="89.8,-133.18 86.3,-123.18 82.8,-133.18 89.8,-133.18"/>
<text text-anchor="middle" x="121.8" y="-144.8" font-family="Times,serif" font-size="14.00" fill="purple">Pass Data</text>
</g>
<!-- 74e626f0&#45;ac5c&#45;4af0&#45;a6a8&#45;f38313869fdd&#45;&gt;0fbe43e2&#45;6b17&#45;4b0e&#45;b7d1&#45;0d022e93e79f -->
<g id="edge3" class="edge">
<title>74e626f0&#45;ac5c&#45;4af0&#45;a6a8&#45;f38313869fdd&#45;&gt;0fbe43e2&#45;6b17&#45;4b0e&#45;b7d1&#45;0d022e93e79f</title>
<path fill="none" stroke="purple" d="M86.3,-260.8C86.3,-249.16 86.3,-233.55 86.3,-220.24"/>
<polygon fill="purple" stroke="purple" points="89.8,-220.18 86.3,-210.18 82.8,-220.18 89.8,-220.18"/>
<text text-anchor="middle" x="121.8" y="-231.8" font-family="Times,serif" font-size="14.00" fill="purple">Pass Data</text>
</g>
<!-- 2aa3d5ee&#45;46c8&#45;46a3&#45;886b&#45;f3ca3f5b950e -->
<g id="node6" class="node">
<title>2aa3d5ee&#45;46c8&#45;46a3&#45;886b&#45;f3ca3f5b950e</title>
<ellipse fill="none" stroke="black" cx="294.3" cy="-453" rx="46.4" ry="18"/>
<text text-anchor="middle" x="294.3" y="-449.3" font-family="Times,serif" font-size="14.00">AlwaysTrue</text>
</g>
<!-- 2aa3d5ee&#45;46c8&#45;46a3&#45;886b&#45;f3ca3f5b950e&#45;&gt;acb86873&#45;6ecc&#45;4d95&#45;a9cc&#45;006cfb3d0baf -->
<g id="edge4" class="edge">
<title>2aa3d5ee&#45;46c8&#45;46a3&#45;886b&#45;f3ca3f5b950e&#45;&gt;acb86873&#45;6ecc&#45;4d95&#45;a9cc&#45;006cfb3d0baf</title>
<path fill="none" stroke="purple" d="M294.3,-434.8C294.3,-423.16 294.3,-407.55 294.3,-394.24"/>
<polygon fill="purple" stroke="purple" points="297.8,-394.18 294.3,-384.18 290.8,-394.18 297.8,-394.18"/>
<text text-anchor="middle" x="329.8" y="-405.8" font-family="Times,serif" font-size="14.00" fill="purple">Pass Data</text>
</g>
<!-- 342d8ad4&#45;1f26&#45;4790&#45;91fb&#45;76fb71b69b14 -->
<g id="node7" class="node">
<title>342d8ad4&#45;1f26&#45;4790&#45;91fb&#45;76fb71b69b14</title>
<ellipse fill="none" stroke="black" cx="294.3" cy="-526" rx="47.1" ry="18"/>
<text text-anchor="middle" x="294.3" y="-522.3" font-family="Times,serif" font-size="14.00">DelayAction</text>
</g>
<!-- 342d8ad4&#45;1f26&#45;4790&#45;91fb&#45;76fb71b69b14&#45;&gt;2aa3d5ee&#45;46c8&#45;46a3&#45;886b&#45;f3ca3f5b950e -->
<g id="edge5" class="edge">
<title>342d8ad4&#45;1f26&#45;4790&#45;91fb&#45;76fb71b69b14&#45;&gt;2aa3d5ee&#45;46c8&#45;46a3&#45;886b&#45;f3ca3f5b950e</title>
<path fill="none" stroke="black" d="M294.3,-507.81C294.3,-499.79 294.3,-490.05 294.3,-481.07"/>
<polygon fill="black" stroke="black" points="297.8,-481.03 294.3,-471.03 290.8,-481.03 297.8,-481.03"/>
</g>
<!-- bf31b649&#45;6bd3&#45;425f&#45;8ebe&#45;66c6587da549 -->
<g id="node9" class="node">
<title>bf31b649&#45;6bd3&#45;425f&#45;8ebe&#45;66c6587da549</title>
<ellipse fill="none" stroke="black" cx="47.3" cy="-366" rx="47.1" ry="18"/>
<text text-anchor="middle" x="47.3" y="-362.3" font-family="Times,serif" font-size="14.00">DelayAction</text>
</g>
<!-- bf31b649&#45;6bd3&#45;425f&#45;8ebe&#45;66c6587da549&#45;&gt;74e626f0&#45;ac5c&#45;4af0&#45;a6a8&#45;f38313869fdd -->
<g id="edge8" class="edge">
<title>bf31b649&#45;6bd3&#45;425f&#45;8ebe&#45;66c6587da549&#45;&gt;74e626f0&#45;ac5c&#45;4af0&#45;a6a8&#45;f38313869fdd</title>
<path fill="none" stroke="black" d="M55.01,-348.21C60.51,-336.22 68.02,-319.85 74.3,-306.16"/>
<polygon fill="black" stroke="black" points="77.62,-307.31 78.61,-296.76 71.26,-304.39 77.62,-307.31"/>
</g>
<!-- aec1ee58&#45;aee4&#45;4510&#45;a712&#45;95418500765d -->
<g id="node10" class="node">
<title>aec1ee58&#45;aee4&#45;4510&#45;a712&#45;95418500765d</title>
<ellipse fill="none" stroke="black" cx="494.3" cy="-526" rx="80.11" ry="18"/>
<text text-anchor="middle" x="494.3" y="-522.3" font-family="Times,serif" font-size="14.00">Stability2Movement</text>
</g>
</g>
</svg>
