<?xml version="1.0" encoding="UTF-8" standalone="no"?>
<!DOCTYPE svg PUBLIC "-//W3C//DTD SVG 1.1//EN"
 "http://www.w3.org/Graphics/SVG/1.1/DTD/svg11.dtd">
<!-- Generated by graphviz version 2.43.0 (0)
 -->
<!-- Title: G Pages: 1 -->
<svg width="743pt" height="1121pt"
 viewBox="0.00 0.00 742.80 1121.00" xmlns="http://www.w3.org/2000/svg" xmlns:xlink="http://www.w3.org/1999/xlink">
<g id="graph0" class="graph" transform="scale(1 1) rotate(0) translate(4 1117)">
<title>G</title>
<polygon fill="transparent" stroke="transparent" points="-4,4 -4,-1117 738.8,-1117 738.8,4 -4,4"/>
<g id="clust1" class="cluster">
<title>cluster_8f3f173b&#45;3089&#45;4175&#45;a807&#45;bd11fb42ea32</title>
<polygon fill="transparent" stroke="blue" stroke-dasharray="5,2" points="8,-8 8,-829 280,-829 280,-8 8,-8"/>
</g>
<!-- 8e4561f7&#45;6c99&#45;4923&#45;a3a6&#45;282125023d7a -->
<g id="node1" class="node">
<title>8e4561f7&#45;6c99&#45;4923&#45;a3a6&#45;282125023d7a</title>
<polygon fill="none" stroke="black" points="207,-748 141.82,-730 207,-712 272.18,-730 207,-748"/>
<text text-anchor="middle" x="207" y="-726.3" font-family="Times,serif" font-size="14.00">AlwaysTrue</text>
</g>
<!-- d7408e21&#45;6c96&#45;44ea&#45;966c&#45;86a7aa552a28 -->
<g id="node19" class="node">
<title>d7408e21&#45;6c96&#45;44ea&#45;966c&#45;86a7aa552a28</title>
<ellipse fill="none" stroke="black" cx="335" cy="-643" rx="46.5" ry="18"/>
<text text-anchor="middle" x="335" y="-639.3" font-family="Times,serif" font-size="14.00">VisionNorm</text>
</g>
<!-- 8e4561f7&#45;6c99&#45;4923&#45;a3a6&#45;282125023d7a&#45;&gt;d7408e21&#45;6c96&#45;44ea&#45;966c&#45;86a7aa552a28 -->
<g id="edge18" class="edge">
<title>8e4561f7&#45;6c99&#45;4923&#45;a3a6&#45;282125023d7a&#45;&gt;d7408e21&#45;6c96&#45;44ea&#45;966c&#45;86a7aa552a28</title>
<path fill="none" stroke="black" d="M225.34,-716.82C245.78,-703.25 279.18,-681.06 303.76,-664.74"/>
<polygon fill="black" stroke="black" points="305.98,-667.47 312.38,-659.02 302.11,-661.64 305.98,-667.47"/>
<text text-anchor="middle" x="296" y="-682.8" font-family="Times,serif" font-size="14.00">True</text>
</g>
<!-- f515c6b1&#45;4dfc&#45;4550&#45;8bb4&#45;fdc56a24f3fd -->
<g id="node2" class="node">
<title>f515c6b1&#45;4dfc&#45;4550&#45;8bb4&#45;fdc56a24f3fd</title>
<ellipse fill="none" stroke="black" cx="95" cy="-121" rx="31.2" ry="18"/>
<text text-anchor="middle" x="95" y="-117.3" font-family="Times,serif" font-size="14.00">MinYaw</text>
</g>
<!-- d02de8c9&#45;3287&#45;44b5&#45;b441&#45;2f314be4bd07 -->
<g id="node3" class="node">
<title>d02de8c9&#45;3287&#45;44b5&#45;b441&#45;2f314be4bd07</title>
<ellipse fill="none" stroke="black" cx="96" cy="-34" rx="80.11" ry="18"/>
<text text-anchor="middle" x="96" y="-30.3" font-family="Times,serif" font-size="14.00">Stability1Movement</text>
</g>
<!-- f515c6b1&#45;4dfc&#45;4550&#45;8bb4&#45;fdc56a24f3fd&#45;&gt;d02de8c9&#45;3287&#45;44b5&#45;b441&#45;2f314be4bd07 -->
<g id="edge1" class="edge">
<title>f515c6b1&#45;4dfc&#45;4550&#45;8bb4&#45;fdc56a24f3fd&#45;&gt;d02de8c9&#45;3287&#45;44b5&#45;b441&#45;2f314be4bd07</title>
<path fill="none" stroke="purple" d="M95.2,-102.8C95.34,-91.16 95.52,-75.55 95.68,-62.24"/>
<polygon fill="purple" stroke="purple" points="99.18,-62.22 95.8,-52.18 92.18,-62.13 99.18,-62.22"/>
<text text-anchor="middle" x="131.5" y="-73.8" font-family="Times,serif" font-size="14.00" fill="purple">Pass Data</text>
</g>
<!-- 5a6b00fd&#45;bbc2&#45;46c6&#45;861f&#45;9451cc4a5e40 -->
<g id="node4" class="node">
<title>5a6b00fd&#45;bbc2&#45;46c6&#45;861f&#45;9451cc4a5e40</title>
<ellipse fill="none" stroke="black" cx="94" cy="-208" rx="27" ry="18"/>
<text text-anchor="middle" x="94" y="-204.3" font-family="Times,serif" font-size="14.00">StripY</text>
</g>
<!-- 5a6b00fd&#45;bbc2&#45;46c6&#45;861f&#45;9451cc4a5e40&#45;&gt;f515c6b1&#45;4dfc&#45;4550&#45;8bb4&#45;fdc56a24f3fd -->
<g id="edge2" class="edge">
<title>5a6b00fd&#45;bbc2&#45;46c6&#45;861f&#45;9451cc4a5e40&#45;&gt;f515c6b1&#45;4dfc&#45;4550&#45;8bb4&#45;fdc56a24f3fd</title>
<path fill="none" stroke="purple" d="M94.2,-189.8C94.34,-178.16 94.52,-162.55 94.68,-149.24"/>
<polygon fill="purple" stroke="purple" points="98.18,-149.22 94.8,-139.18 91.18,-149.13 98.18,-149.22"/>
<text text-anchor="middle" x="130.5" y="-160.8" font-family="Times,serif" font-size="14.00" fill="purple">Pass Data</text>
</g>
<!-- ca3a11a1&#45;aa82&#45;4edd&#45;b2f4&#45;a82220b3b9ac -->
<g id="node5" class="node">
<title>ca3a11a1&#45;aa82&#45;4edd&#45;b2f4&#45;a82220b3b9ac</title>
<ellipse fill="none" stroke="black" cx="94" cy="-295" rx="75.81" ry="18"/>
<text text-anchor="middle" x="94" y="-291.3" font-family="Times,serif" font-size="14.00">CautiousConstantX</text>
</g>
<!-- ca3a11a1&#45;aa82&#45;4edd&#45;b2f4&#45;a82220b3b9ac&#45;&gt;5a6b00fd&#45;bbc2&#45;46c6&#45;861f&#45;9451cc4a5e40 -->
<g id="edge3" class="edge">
<title>ca3a11a1&#45;aa82&#45;4edd&#45;b2f4&#45;a82220b3b9ac&#45;&gt;5a6b00fd&#45;bbc2&#45;46c6&#45;861f&#45;9451cc4a5e40</title>
<path fill="none" stroke="purple" d="M94,-276.8C94,-265.16 94,-249.55 94,-236.24"/>
<polygon fill="purple" stroke="purple" points="97.5,-236.18 94,-226.18 90.5,-236.18 97.5,-236.18"/>
<text text-anchor="middle" x="129.5" y="-247.8" font-family="Times,serif" font-size="14.00" fill="purple">Pass Data</text>
</g>
<!-- b4440b33&#45;e7b5&#45;4d6c&#45;ad71&#45;3092c8c24f95 -->
<g id="node6" class="node">
<title>b4440b33&#45;e7b5&#45;4d6c&#45;ad71&#45;3092c8c24f95</title>
<ellipse fill="none" stroke="black" cx="93" cy="-382" rx="67.81" ry="18"/>
<text text-anchor="middle" x="93" y="-378.3" font-family="Times,serif" font-size="14.00">LinearYawFromX</text>
</g>
<!-- b4440b33&#45;e7b5&#45;4d6c&#45;ad71&#45;3092c8c24f95&#45;&gt;ca3a11a1&#45;aa82&#45;4edd&#45;b2f4&#45;a82220b3b9ac -->
<g id="edge4" class="edge">
<title>b4440b33&#45;e7b5&#45;4d6c&#45;ad71&#45;3092c8c24f95&#45;&gt;ca3a11a1&#45;aa82&#45;4edd&#45;b2f4&#45;a82220b3b9ac</title>
<path fill="none" stroke="purple" d="M93.2,-363.8C93.34,-352.16 93.52,-336.55 93.68,-323.24"/>
<polygon fill="purple" stroke="purple" points="97.18,-323.22 93.8,-313.18 90.18,-323.13 97.18,-323.22"/>
<text text-anchor="middle" x="129.5" y="-334.8" font-family="Times,serif" font-size="14.00" fill="purple">Pass Data</text>
</g>
<!-- 870cc06b&#45;c32d&#45;4cb0&#45;8112&#45;fc6ed5065fbc -->
<g id="node7" class="node">
<title>870cc06b&#45;c32d&#45;4cb0&#45;8112&#45;fc6ed5065fbc</title>
<ellipse fill="none" stroke="black" cx="92" cy="-469" rx="51.3" ry="18"/>
<text text-anchor="middle" x="92" y="-465.3" font-family="Times,serif" font-size="14.00">OffsetToPose</text>
</g>
<!-- 870cc06b&#45;c32d&#45;4cb0&#45;8112&#45;fc6ed5065fbc&#45;&gt;b4440b33&#45;e7b5&#45;4d6c&#45;ad71&#45;3092c8c24f95 -->
<g id="edge5" class="edge">
<title>870cc06b&#45;c32d&#45;4cb0&#45;8112&#45;fc6ed5065fbc&#45;&gt;b4440b33&#45;e7b5&#45;4d6c&#45;ad71&#45;3092c8c24f95</title>
<path fill="none" stroke="purple" d="M92.2,-450.8C92.34,-439.16 92.52,-423.55 92.68,-410.24"/>
<polygon fill="purple" stroke="purple" points="96.18,-410.22 92.8,-400.18 89.18,-410.13 96.18,-410.22"/>
<text text-anchor="middle" x="128.5" y="-421.8" font-family="Times,serif" font-size="14.00" fill="purple">Pass Data</text>
</g>
<!-- 47e73233&#45;be5c&#45;4431&#45;89b5&#45;0e2df14c65f3 -->
<g id="node8" class="node">
<title>47e73233&#45;be5c&#45;4431&#45;89b5&#45;0e2df14c65f3</title>
<ellipse fill="none" stroke="black" cx="91" cy="-556" rx="32.4" ry="18"/>
<text text-anchor="middle" x="91" y="-552.3" font-family="Times,serif" font-size="14.00">Average</text>
</g>
<!-- 47e73233&#45;be5c&#45;4431&#45;89b5&#45;0e2df14c65f3&#45;&gt;870cc06b&#45;c32d&#45;4cb0&#45;8112&#45;fc6ed5065fbc -->
<g id="edge6" class="edge">
<title>47e73233&#45;be5c&#45;4431&#45;89b5&#45;0e2df14c65f3&#45;&gt;870cc06b&#45;c32d&#45;4cb0&#45;8112&#45;fc6ed5065fbc</title>
<path fill="none" stroke="purple" d="M91.2,-537.8C91.34,-526.16 91.52,-510.55 91.68,-497.24"/>
<polygon fill="purple" stroke="purple" points="95.18,-497.22 91.8,-487.18 88.18,-497.13 95.18,-497.22"/>
<text text-anchor="middle" x="127.5" y="-508.8" font-family="Times,serif" font-size="14.00" fill="purple">Pass Data</text>
</g>
<!-- 5b686b4f&#45;66d4&#45;42c5&#45;b4fb&#45;f887a597d4dc -->
<g id="node9" class="node">
<title>5b686b4f&#45;66d4&#45;42c5&#45;b4fb&#45;f887a597d4dc</title>
<ellipse fill="none" stroke="black" cx="90" cy="-643" rx="61.1" ry="18"/>
<text text-anchor="middle" x="90" y="-639.3" font-family="Times,serif" font-size="14.00">ExtractPosition</text>
</g>
<!-- 5b686b4f&#45;66d4&#45;42c5&#45;b4fb&#45;f887a597d4dc&#45;&gt;47e73233&#45;be5c&#45;4431&#45;89b5&#45;0e2df14c65f3 -->
<g id="edge7" class="edge">
<title>5b686b4f&#45;66d4&#45;42c5&#45;b4fb&#45;f887a597d4dc&#45;&gt;47e73233&#45;be5c&#45;4431&#45;89b5&#45;0e2df14c65f3</title>
<path fill="none" stroke="purple" d="M90.2,-624.8C90.34,-613.16 90.52,-597.55 90.68,-584.24"/>
<polygon fill="purple" stroke="purple" points="94.18,-584.22 90.8,-574.18 87.18,-584.13 94.18,-584.22"/>
<text text-anchor="middle" x="126.5" y="-595.8" font-family="Times,serif" font-size="14.00" fill="purple">Pass Data</text>
</g>
<!-- 0daed509&#45;8062&#45;4b67&#45;8f6d&#45;4d8dfa2d9637 -->
<g id="node10" class="node">
<title>0daed509&#45;8062&#45;4b67&#45;8f6d&#45;4d8dfa2d9637</title>
<ellipse fill="none" stroke="black" cx="43" cy="-730" rx="27" ry="18"/>
<text text-anchor="middle" x="43" y="-726.3" font-family="Times,serif" font-size="14.00">ToVec</text>
</g>
<!-- 0daed509&#45;8062&#45;4b67&#45;8f6d&#45;4d8dfa2d9637&#45;&gt;5b686b4f&#45;66d4&#45;42c5&#45;b4fb&#45;f887a597d4dc -->
<g id="edge8" class="edge">
<title>0daed509&#45;8062&#45;4b67&#45;8f6d&#45;4d8dfa2d9637&#45;&gt;5b686b4f&#45;66d4&#45;42c5&#45;b4fb&#45;f887a597d4dc</title>
<path fill="none" stroke="purple" d="M52.06,-712.61C58.74,-700.54 67.95,-683.88 75.63,-670"/>
<polygon fill="purple" stroke="purple" points="78.87,-671.37 80.64,-660.92 72.74,-667.98 78.87,-671.37"/>
<text text-anchor="middle" x="105.5" y="-682.8" font-family="Times,serif" font-size="14.00" fill="purple">Pass Data</text>
</g>
<!-- 9c6d4a4a&#45;a483&#45;408a&#45;be5e&#45;4e691306ec15 -->
<g id="node11" class="node">
<title>9c6d4a4a&#45;a483&#45;408a&#45;be5e&#45;4e691306ec15</title>
<polygon fill="none" stroke="black" stroke-dasharray="5,2" points="256,-821 158,-821 158,-785 256,-785 256,-821"/>
<text text-anchor="middle" x="207" y="-799.3" font-family="Times,serif" font-size="14.00" fill="blue">Concurrent</text>
</g>
<!-- 9c6d4a4a&#45;a483&#45;408a&#45;be5e&#45;4e691306ec15&#45;&gt;8e4561f7&#45;6c99&#45;4923&#45;a3a6&#45;282125023d7a -->
<g id="edge10" class="edge">
<title>9c6d4a4a&#45;a483&#45;408a&#45;be5e&#45;4e691306ec15&#45;&gt;8e4561f7&#45;6c99&#45;4923&#45;a3a6&#45;282125023d7a</title>
<path fill="none" stroke="black" d="M207,-784.81C207,-776.79 207,-767.05 207,-758.07"/>
<polygon fill="black" stroke="black" points="210.5,-758.03 207,-748.03 203.5,-758.03 210.5,-758.03"/>
</g>
<!-- 9c6d4a4a&#45;a483&#45;408a&#45;be5e&#45;4e691306ec15&#45;&gt;0daed509&#45;8062&#45;4b67&#45;8f6d&#45;4d8dfa2d9637 -->
<g id="edge9" class="edge">
<title>9c6d4a4a&#45;a483&#45;408a&#45;be5e&#45;4e691306ec15&#45;&gt;0daed509&#45;8062&#45;4b67&#45;8f6d&#45;4d8dfa2d9637</title>
<path fill="none" stroke="black" d="M167.72,-784.99C139.19,-772.64 101.1,-756.15 74.55,-744.66"/>
<polygon fill="black" stroke="black" points="75.89,-741.43 65.32,-740.66 73.11,-747.85 75.89,-741.43"/>
</g>
<!-- 8f5a84b7&#45;48ef&#45;4127&#45;b048&#45;45e9e90e61f7 -->
<g id="node12" class="node">
<title>8f5a84b7&#45;48ef&#45;4127&#45;b048&#45;45e9e90e61f7</title>
<ellipse fill="none" stroke="black" cx="660" cy="-1022" rx="33.6" ry="18"/>
<text text-anchor="middle" x="660" y="-1018.3" font-family="Times,serif" font-size="14.00">Descend</text>
</g>
<!-- 13117de0&#45;0bf8&#45;4648&#45;a7cf&#45;464cfcdb43f5 -->
<g id="node13" class="node">
<title>13117de0&#45;0bf8&#45;4648&#45;a7cf&#45;464cfcdb43f5</title>
<ellipse fill="none" stroke="black" cx="660" cy="-949" rx="47.1" ry="18"/>
<text text-anchor="middle" x="660" y="-945.3" font-family="Times,serif" font-size="14.00">DelayAction</text>
</g>
<!-- 8f5a84b7&#45;48ef&#45;4127&#45;b048&#45;45e9e90e61f7&#45;&gt;13117de0&#45;0bf8&#45;4648&#45;a7cf&#45;464cfcdb43f5 -->
<g id="edge11" class="edge">
<title>8f5a84b7&#45;48ef&#45;4127&#45;b048&#45;45e9e90e61f7&#45;&gt;13117de0&#45;0bf8&#45;4648&#45;a7cf&#45;464cfcdb43f5</title>
<path fill="none" stroke="black" d="M660,-1003.81C660,-995.79 660,-986.05 660,-977.07"/>
<polygon fill="black" stroke="black" points="663.5,-977.03 660,-967.03 656.5,-977.03 663.5,-977.03"/>
</g>
<!-- 38def33b&#45;b802&#45;4b7a&#45;b31b&#45;de92aefa3b12 -->
<g id="node14" class="node">
<title>38def33b&#45;b802&#45;4b7a&#45;b31b&#45;de92aefa3b12</title>
<ellipse fill="none" stroke="black" cx="660" cy="-876" rx="74.61" ry="18"/>
<text text-anchor="middle" x="660" y="-872.3" font-family="Times,serif" font-size="14.00">StraightMovement</text>
</g>
<!-- 13117de0&#45;0bf8&#45;4648&#45;a7cf&#45;464cfcdb43f5&#45;&gt;38def33b&#45;b802&#45;4b7a&#45;b31b&#45;de92aefa3b12 -->
<g id="edge14" class="edge">
<title>13117de0&#45;0bf8&#45;4648&#45;a7cf&#45;464cfcdb43f5&#45;&gt;38def33b&#45;b802&#45;4b7a&#45;b31b&#45;de92aefa3b12</title>
<path fill="none" stroke="black" d="M660,-930.81C660,-922.79 660,-913.05 660,-904.07"/>
<polygon fill="black" stroke="black" points="663.5,-904.03 660,-894.03 656.5,-904.03 663.5,-904.03"/>
</g>
<!-- c6a024f6&#45;7dcb&#45;465d&#45;97b7&#45;c6f077fc67b3 -->
<g id="node15" class="node">
<title>c6a024f6&#45;7dcb&#45;465d&#45;97b7&#45;c6f077fc67b3</title>
<ellipse fill="none" stroke="black" cx="660" cy="-803" rx="47.1" ry="18"/>
<text text-anchor="middle" x="660" y="-799.3" font-family="Times,serif" font-size="14.00">DelayAction</text>
</g>
<!-- 38def33b&#45;b802&#45;4b7a&#45;b31b&#45;de92aefa3b12&#45;&gt;c6a024f6&#45;7dcb&#45;465d&#45;97b7&#45;c6f077fc67b3 -->
<g id="edge12" class="edge">
<title>38def33b&#45;b802&#45;4b7a&#45;b31b&#45;de92aefa3b12&#45;&gt;c6a024f6&#45;7dcb&#45;465d&#45;97b7&#45;c6f077fc67b3</title>
<path fill="none" stroke="black" d="M660,-857.81C660,-849.79 660,-840.05 660,-831.07"/>
<polygon fill="black" stroke="black" points="663.5,-831.03 660,-821.03 656.5,-831.03 663.5,-831.03"/>
</g>
<!-- 89a3dfa9&#45;90bd&#45;42af&#45;acac&#45;6d741a9a7b54 -->
<g id="node16" class="node">
<title>89a3dfa9&#45;90bd&#45;42af&#45;acac&#45;6d741a9a7b54</title>
<ellipse fill="none" stroke="black" cx="660" cy="-730" rx="59.9" ry="18"/>
<text text-anchor="middle" x="660" y="-726.3" font-family="Times,serif" font-size="14.00">ZeroMovement</text>
</g>
<!-- c6a024f6&#45;7dcb&#45;465d&#45;97b7&#45;c6f077fc67b3&#45;&gt;89a3dfa9&#45;90bd&#45;42af&#45;acac&#45;6d741a9a7b54 -->
<g id="edge13" class="edge">
<title>c6a024f6&#45;7dcb&#45;465d&#45;97b7&#45;c6f077fc67b3&#45;&gt;89a3dfa9&#45;90bd&#45;42af&#45;acac&#45;6d741a9a7b54</title>
<path fill="none" stroke="black" d="M660,-784.81C660,-776.79 660,-767.05 660,-758.07"/>
<polygon fill="black" stroke="black" points="663.5,-758.03 660,-748.03 656.5,-758.03 663.5,-758.03"/>
</g>
<!-- 89a3dfa9&#45;90bd&#45;42af&#45;acac&#45;6d741a9a7b54&#45;&gt;d7408e21&#45;6c96&#45;44ea&#45;966c&#45;86a7aa552a28 -->
<g id="edge19" class="edge">
<title>89a3dfa9&#45;90bd&#45;42af&#45;acac&#45;6d741a9a7b54&#45;&gt;d7408e21&#45;6c96&#45;44ea&#45;966c&#45;86a7aa552a28</title>
<path fill="none" stroke="black" d="M639.53,-712.83C624.07,-701.49 601.85,-686.98 580,-679 518.08,-656.38 442.38,-648.3 391.65,-645.46"/>
<polygon fill="black" stroke="black" points="391.7,-641.96 381.54,-644.94 391.35,-648.95 391.7,-641.96"/>
</g>
<!-- 90a51c4a&#45;fe45&#45;4426&#45;9f6f&#45;8a92f4a9d234 -->
<g id="node17" class="node">
<title>90a51c4a&#45;fe45&#45;4426&#45;9f6f&#45;8a92f4a9d234</title>
<ellipse fill="none" stroke="black" cx="660" cy="-1095" rx="34.8" ry="18"/>
<text text-anchor="middle" x="660" y="-1091.3" font-family="Times,serif" font-size="14.00">WaitArm</text>
</g>
<!-- 90a51c4a&#45;fe45&#45;4426&#45;9f6f&#45;8a92f4a9d234&#45;&gt;8f5a84b7&#45;48ef&#45;4127&#45;b048&#45;45e9e90e61f7 -->
<g id="edge15" class="edge">
<title>90a51c4a&#45;fe45&#45;4426&#45;9f6f&#45;8a92f4a9d234&#45;&gt;8f5a84b7&#45;48ef&#45;4127&#45;b048&#45;45e9e90e61f7</title>
<path fill="none" stroke="black" d="M660,-1076.81C660,-1068.79 660,-1059.05 660,-1050.07"/>
<polygon fill="black" stroke="black" points="663.5,-1050.03 660,-1040.03 656.5,-1050.03 663.5,-1050.03"/>
</g>
<!-- b1693ac0&#45;582e&#45;433d&#45;bb06&#45;9723de1dda35 -->
<g id="node18" class="node">
<title>b1693ac0&#45;582e&#45;433d&#45;bb06&#45;9723de1dda35</title>
<ellipse fill="none" stroke="black" cx="430" cy="-556" rx="48.3" ry="18"/>
<text text-anchor="middle" x="430" y="-552.3" font-family="Times,serif" font-size="14.00">Detect Buoy</text>
</g>
<!-- b1693ac0&#45;582e&#45;433d&#45;bb06&#45;9723de1dda35&#45;&gt;9c6d4a4a&#45;a483&#45;408a&#45;be5e&#45;4e691306ec15 -->
<g id="edge16" class="edge">
<title>b1693ac0&#45;582e&#45;433d&#45;bb06&#45;9723de1dda35&#45;&gt;9c6d4a4a&#45;a483&#45;408a&#45;be5e&#45;4e691306ec15</title>
<path fill="none" stroke="purple" d="M442.64,-573.8C448.32,-583.35 453.11,-595.64 450,-607 442.63,-633.91 436.36,-640 418,-661 371.25,-714.49 299.68,-756.54 253.1,-780.34"/>
<polygon fill="purple" stroke="purple" points="251.49,-777.23 244.14,-784.85 254.64,-783.48 251.49,-777.23"/>
<text text-anchor="middle" x="434.5" y="-682.8" font-family="Times,serif" font-size="14.00" fill="purple">Pass Data</text>
</g>
<!-- d7408e21&#45;6c96&#45;44ea&#45;966c&#45;86a7aa552a28&#45;&gt;b1693ac0&#45;582e&#45;433d&#45;bb06&#45;9723de1dda35 -->
<g id="edge17" class="edge">
<title>d7408e21&#45;6c96&#45;44ea&#45;966c&#45;86a7aa552a28&#45;&gt;b1693ac0&#45;582e&#45;433d&#45;bb06&#45;9723de1dda35</title>
<path fill="none" stroke="purple" d="M342.26,-625.14C347.43,-614.63 355.19,-601.37 365,-592 372.09,-585.23 380.74,-579.39 389.39,-574.52"/>
<polygon fill="purple" stroke="purple" points="391.12,-577.56 398.33,-569.79 387.85,-571.37 391.12,-577.56"/>
<text text-anchor="middle" x="400.5" y="-595.8" font-family="Times,serif" font-size="14.00" fill="purple">Pass Data</text>
</g>
</g>
</svg>
