<?xml version="1.0" encoding="UTF-8" standalone="no"?>
<!DOCTYPE svg PUBLIC "-//W3C//DTD SVG 1.1//EN"
 "http://www.w3.org/Graphics/SVG/1.1/DTD/svg11.dtd">
<!-- Generated by graphviz version 2.43.0 (0)
 -->
<!-- Title: G Pages: 1 -->
<svg width="318pt" height="987pt"
 viewBox="0.00 0.00 318.29 987.00" xmlns="http://www.w3.org/2000/svg" xmlns:xlink="http://www.w3.org/1999/xlink">
<g id="graph0" class="graph" transform="scale(1 1) rotate(0) translate(4 983)">
<title>G</title>
<polygon fill="transparent" stroke="transparent" points="-4,4 -4,-983 314.29,-983 314.29,4 -4,4"/>
<!-- 71c2341e&#45;b8e4&#45;4c54&#45;b1cb&#45;00f95b71699f -->
<g id="node1" class="node">
<title>71c2341e&#45;b8e4&#45;4c54&#45;b1cb&#45;00f95b71699f</title>
<polygon fill="none" stroke="black" points="65.34,-906 0.16,-888 65.34,-870 130.52,-888 65.34,-906"/>
<text text-anchor="middle" x="65.34" y="-884.3" font-family="Times,serif" font-size="14.00">AlwaysTrue</text>
</g>
<!-- 507ad0c9&#45;2fd3&#45;465a&#45;8585&#45;5b4fb382733a -->
<g id="node11" class="node">
<title>507ad0c9&#45;2fd3&#45;465a&#45;8585&#45;5b4fb382733a</title>
<ellipse fill="none" stroke="black" cx="103.34" cy="-801" rx="46.5" ry="18"/>
<text text-anchor="middle" x="103.34" y="-797.3" font-family="Times,serif" font-size="14.00">VisionNorm</text>
</g>
<!-- 71c2341e&#45;b8e4&#45;4c54&#45;b1cb&#45;00f95b71699f&#45;&gt;507ad0c9&#45;2fd3&#45;465a&#45;8585&#45;5b4fb382733a -->
<g id="edge10" class="edge">
<title>71c2341e&#45;b8e4&#45;4c54&#45;b1cb&#45;00f95b71699f&#45;&gt;507ad0c9&#45;2fd3&#45;465a&#45;8585&#45;5b4fb382733a</title>
<path fill="none" stroke="black" d="M72.13,-871.8C77.54,-859.7 85.25,-842.47 91.65,-828.16"/>
<polygon fill="black" stroke="black" points="94.94,-829.37 95.82,-818.81 88.55,-826.51 94.94,-829.37"/>
<text text-anchor="middle" x="104.34" y="-840.8" font-family="Times,serif" font-size="14.00">True</text>
</g>
<!-- 4ac2cee7&#45;c1a9&#45;476c&#45;8162&#45;8021fb95aa9b -->
<g id="node2" class="node">
<title>4ac2cee7&#45;c1a9&#45;476c&#45;8162&#45;8021fb95aa9b</title>
<ellipse fill="none" stroke="black" cx="103.34" cy="-105" rx="27" ry="18"/>
<text text-anchor="middle" x="103.34" y="-101.3" font-family="Times,serif" font-size="14.00">FlatX</text>
</g>
<!-- eb1f13b9&#45;0326&#45;4630&#45;a98c&#45;054099972b4d -->
<g id="node3" class="node">
<title>eb1f13b9&#45;0326&#45;4630&#45;a98c&#45;054099972b4d</title>
<ellipse fill="none" stroke="black" cx="103.34" cy="-18" rx="80.11" ry="18"/>
<text text-anchor="middle" x="103.34" y="-14.3" font-family="Times,serif" font-size="14.00">Stability2Movement</text>
</g>
<!-- 4ac2cee7&#45;c1a9&#45;476c&#45;8162&#45;8021fb95aa9b&#45;&gt;eb1f13b9&#45;0326&#45;4630&#45;a98c&#45;054099972b4d -->
<g id="edge1" class="edge">
<title>4ac2cee7&#45;c1a9&#45;476c&#45;8162&#45;8021fb95aa9b&#45;&gt;eb1f13b9&#45;0326&#45;4630&#45;a98c&#45;054099972b4d</title>
<path fill="none" stroke="purple" d="M103.34,-86.8C103.34,-75.16 103.34,-59.55 103.34,-46.24"/>
<polygon fill="purple" stroke="purple" points="106.84,-46.18 103.34,-36.18 99.84,-46.18 106.84,-46.18"/>
<text text-anchor="middle" x="138.84" y="-57.8" font-family="Times,serif" font-size="14.00" fill="purple">Pass Data</text>
</g>
<!-- 000f823f&#45;2431&#45;4311&#45;8f73&#45;84ac31c4e5ab -->
<g id="node4" class="node">
<title>000f823f&#45;2431&#45;4311&#45;8f73&#45;84ac31c4e5ab</title>
<ellipse fill="none" stroke="black" cx="103.34" cy="-192" rx="27" ry="18"/>
<text text-anchor="middle" x="103.34" y="-188.3" font-family="Times,serif" font-size="14.00">StripY</text>
</g>
<!-- 000f823f&#45;2431&#45;4311&#45;8f73&#45;84ac31c4e5ab&#45;&gt;4ac2cee7&#45;c1a9&#45;476c&#45;8162&#45;8021fb95aa9b -->
<g id="edge2" class="edge">
<title>000f823f&#45;2431&#45;4311&#45;8f73&#45;84ac31c4e5ab&#45;&gt;4ac2cee7&#45;c1a9&#45;476c&#45;8162&#45;8021fb95aa9b</title>
<path fill="none" stroke="purple" d="M103.34,-173.8C103.34,-162.16 103.34,-146.55 103.34,-133.24"/>
<polygon fill="purple" stroke="purple" points="106.84,-133.18 103.34,-123.18 99.84,-133.18 106.84,-133.18"/>
<text text-anchor="middle" x="138.84" y="-144.8" font-family="Times,serif" font-size="14.00" fill="purple">Pass Data</text>
</g>
<!-- d057fb81&#45;5d5e&#45;4444&#45;a641&#45;d66ab03e554a -->
<g id="node5" class="node">
<title>d057fb81&#45;5d5e&#45;4444&#45;a641&#45;d66ab03e554a</title>
<ellipse fill="none" stroke="black" cx="103.34" cy="-279" rx="52.6" ry="18"/>
<text text-anchor="middle" x="103.34" y="-275.3" font-family="Times,serif" font-size="14.00">Anon Closure</text>
</g>
<!-- d057fb81&#45;5d5e&#45;4444&#45;a641&#45;d66ab03e554a&#45;&gt;000f823f&#45;2431&#45;4311&#45;8f73&#45;84ac31c4e5ab -->
<g id="edge3" class="edge">
<title>d057fb81&#45;5d5e&#45;4444&#45;a641&#45;d66ab03e554a&#45;&gt;000f823f&#45;2431&#45;4311&#45;8f73&#45;84ac31c4e5ab</title>
<path fill="none" stroke="purple" d="M103.34,-260.8C103.34,-249.16 103.34,-233.55 103.34,-220.24"/>
<polygon fill="purple" stroke="purple" points="106.84,-220.18 103.34,-210.18 99.84,-220.18 106.84,-220.18"/>
<text text-anchor="middle" x="138.84" y="-231.8" font-family="Times,serif" font-size="14.00" fill="purple">Pass Data</text>
</g>
<!-- 3d2d5706&#45;0739&#45;4311&#45;887d&#45;53fd41799430 -->
<g id="node6" class="node">
<title>3d2d5706&#45;0739&#45;4311&#45;887d&#45;53fd41799430</title>
<ellipse fill="none" stroke="black" cx="103.34" cy="-366" rx="51.3" ry="18"/>
<text text-anchor="middle" x="103.34" y="-362.3" font-family="Times,serif" font-size="14.00">OffsetToPose</text>
</g>
<!-- 3d2d5706&#45;0739&#45;4311&#45;887d&#45;53fd41799430&#45;&gt;d057fb81&#45;5d5e&#45;4444&#45;a641&#45;d66ab03e554a -->
<g id="edge4" class="edge">
<title>3d2d5706&#45;0739&#45;4311&#45;887d&#45;53fd41799430&#45;&gt;d057fb81&#45;5d5e&#45;4444&#45;a641&#45;d66ab03e554a</title>
<path fill="none" stroke="purple" d="M103.34,-347.8C103.34,-336.16 103.34,-320.55 103.34,-307.24"/>
<polygon fill="purple" stroke="purple" points="106.84,-307.18 103.34,-297.18 99.84,-307.18 106.84,-307.18"/>
<text text-anchor="middle" x="138.84" y="-318.8" font-family="Times,serif" font-size="14.00" fill="purple">Pass Data</text>
</g>
<!-- ec47407c&#45;f44c&#45;4f6d&#45;ac15&#45;eb0d80b9d621 -->
<g id="node7" class="node">
<title>ec47407c&#45;f44c&#45;4f6d&#45;ac15&#45;eb0d80b9d621</title>
<ellipse fill="none" stroke="black" cx="103.34" cy="-453" rx="32.4" ry="18"/>
<text text-anchor="middle" x="103.34" y="-449.3" font-family="Times,serif" font-size="14.00">Average</text>
</g>
<!-- ec47407c&#45;f44c&#45;4f6d&#45;ac15&#45;eb0d80b9d621&#45;&gt;3d2d5706&#45;0739&#45;4311&#45;887d&#45;53fd41799430 -->
<g id="edge5" class="edge">
<title>ec47407c&#45;f44c&#45;4f6d&#45;ac15&#45;eb0d80b9d621&#45;&gt;3d2d5706&#45;0739&#45;4311&#45;887d&#45;53fd41799430</title>
<path fill="none" stroke="purple" d="M103.34,-434.8C103.34,-423.16 103.34,-407.55 103.34,-394.24"/>
<polygon fill="purple" stroke="purple" points="106.84,-394.18 103.34,-384.18 99.84,-394.18 106.84,-394.18"/>
<text text-anchor="middle" x="138.84" y="-405.8" font-family="Times,serif" font-size="14.00" fill="purple">Pass Data</text>
</g>
<!-- fbcac976&#45;07e8&#45;4fde&#45;ae5b&#45;ee72f4b718ee -->
<g id="node8" class="node">
<title>fbcac976&#45;07e8&#45;4fde&#45;ae5b&#45;ee72f4b718ee</title>
<ellipse fill="none" stroke="black" cx="103.34" cy="-540" rx="61.1" ry="18"/>
<text text-anchor="middle" x="103.34" y="-536.3" font-family="Times,serif" font-size="14.00">ExtractPosition</text>
</g>
<!-- fbcac976&#45;07e8&#45;4fde&#45;ae5b&#45;ee72f4b718ee&#45;&gt;ec47407c&#45;f44c&#45;4f6d&#45;ac15&#45;eb0d80b9d621 -->
<g id="edge6" class="edge">
<title>fbcac976&#45;07e8&#45;4fde&#45;ae5b&#45;ee72f4b718ee&#45;&gt;ec47407c&#45;f44c&#45;4f6d&#45;ac15&#45;eb0d80b9d621</title>
<path fill="none" stroke="purple" d="M103.34,-521.8C103.34,-510.16 103.34,-494.55 103.34,-481.24"/>
<polygon fill="purple" stroke="purple" points="106.84,-481.18 103.34,-471.18 99.84,-481.18 106.84,-481.18"/>
<text text-anchor="middle" x="138.84" y="-492.8" font-family="Times,serif" font-size="14.00" fill="purple">Pass Data</text>
</g>
<!-- 634b7ea8&#45;44ed&#45;482d&#45;b22a&#45;a894acb59598 -->
<g id="node9" class="node">
<title>634b7ea8&#45;44ed&#45;482d&#45;b22a&#45;a894acb59598</title>
<ellipse fill="none" stroke="black" cx="103.34" cy="-627" rx="27" ry="18"/>
<text text-anchor="middle" x="103.34" y="-623.3" font-family="Times,serif" font-size="14.00">ToVec</text>
</g>
<!-- 634b7ea8&#45;44ed&#45;482d&#45;b22a&#45;a894acb59598&#45;&gt;fbcac976&#45;07e8&#45;4fde&#45;ae5b&#45;ee72f4b718ee -->
<g id="edge7" class="edge">
<title>634b7ea8&#45;44ed&#45;482d&#45;b22a&#45;a894acb59598&#45;&gt;fbcac976&#45;07e8&#45;4fde&#45;ae5b&#45;ee72f4b718ee</title>
<path fill="none" stroke="purple" d="M103.34,-608.8C103.34,-597.16 103.34,-581.55 103.34,-568.24"/>
<polygon fill="purple" stroke="purple" points="106.84,-568.18 103.34,-558.18 99.84,-568.18 106.84,-568.18"/>
<text text-anchor="middle" x="138.84" y="-579.8" font-family="Times,serif" font-size="14.00" fill="purple">Pass Data</text>
</g>
<!-- 8906f718&#45;c592&#45;471d&#45;98ee&#45;4c5df211abf8 -->
<g id="node10" class="node">
<title>8906f718&#45;c592&#45;471d&#45;98ee&#45;4c5df211abf8</title>
<ellipse fill="none" stroke="black" cx="103.34" cy="-714" rx="45.2" ry="18"/>
<text text-anchor="middle" x="103.34" y="-710.3" font-family="Times,serif" font-size="14.00">Detect true</text>
</g>
<!-- 8906f718&#45;c592&#45;471d&#45;98ee&#45;4c5df211abf8&#45;&gt;634b7ea8&#45;44ed&#45;482d&#45;b22a&#45;a894acb59598 -->
<g id="edge8" class="edge">
<title>8906f718&#45;c592&#45;471d&#45;98ee&#45;4c5df211abf8&#45;&gt;634b7ea8&#45;44ed&#45;482d&#45;b22a&#45;a894acb59598</title>
<path fill="none" stroke="purple" d="M103.34,-695.8C103.34,-684.16 103.34,-668.55 103.34,-655.24"/>
<polygon fill="purple" stroke="purple" points="106.84,-655.18 103.34,-645.18 99.84,-655.18 106.84,-655.18"/>
<text text-anchor="middle" x="138.84" y="-666.8" font-family="Times,serif" font-size="14.00" fill="purple">Pass Data</text>
</g>
<!-- 507ad0c9&#45;2fd3&#45;465a&#45;8585&#45;5b4fb382733a&#45;&gt;8906f718&#45;c592&#45;471d&#45;98ee&#45;4c5df211abf8 -->
<g id="edge9" class="edge">
<title>507ad0c9&#45;2fd3&#45;465a&#45;8585&#45;5b4fb382733a&#45;&gt;8906f718&#45;c592&#45;471d&#45;98ee&#45;4c5df211abf8</title>
<path fill="none" stroke="purple" d="M103.34,-782.8C103.34,-771.16 103.34,-755.55 103.34,-742.24"/>
<polygon fill="purple" stroke="purple" points="106.84,-742.18 103.34,-732.18 99.84,-742.18 106.84,-742.18"/>
<text text-anchor="middle" x="138.84" y="-753.8" font-family="Times,serif" font-size="14.00" fill="purple">Pass Data</text>
</g>
<!-- a13accbf&#45;da90&#45;48a2&#45;90e0&#45;dc51b1a1931a -->
<g id="node12" class="node">
<title>a13accbf&#45;da90&#45;48a2&#45;90e0&#45;dc51b1a1931a</title>
<ellipse fill="none" stroke="black" cx="250.34" cy="-888" rx="47.1" ry="18"/>
<text text-anchor="middle" x="250.34" y="-884.3" font-family="Times,serif" font-size="14.00">DelayAction</text>
</g>
<!-- a13accbf&#45;da90&#45;48a2&#45;90e0&#45;dc51b1a1931a&#45;&gt;507ad0c9&#45;2fd3&#45;465a&#45;8585&#45;5b4fb382733a -->
<g id="edge11" class="edge">
<title>a13accbf&#45;da90&#45;48a2&#45;90e0&#45;dc51b1a1931a&#45;&gt;507ad0c9&#45;2fd3&#45;465a&#45;8585&#45;5b4fb382733a</title>
<path fill="none" stroke="black" d="M225.4,-872.58C201.12,-858.54 164.03,-837.09 137.1,-821.52"/>
<polygon fill="black" stroke="black" points="138.81,-818.47 128.4,-816.49 135.3,-824.53 138.81,-818.47"/>
</g>
<!-- 5f6502e8&#45;7950&#45;46a2&#45;9f15&#45;7d5ebd4223db -->
<g id="node13" class="node">
<title>5f6502e8&#45;7950&#45;46a2&#45;9f15&#45;7d5ebd4223db</title>
<ellipse fill="none" stroke="black" cx="250.34" cy="-961" rx="59.9" ry="18"/>
<text text-anchor="middle" x="250.34" y="-957.3" font-family="Times,serif" font-size="14.00">ZeroMovement</text>
</g>
<!-- 5f6502e8&#45;7950&#45;46a2&#45;9f15&#45;7d5ebd4223db&#45;&gt;a13accbf&#45;da90&#45;48a2&#45;90e0&#45;dc51b1a1931a -->
<g id="edge12" class="edge">
<title>5f6502e8&#45;7950&#45;46a2&#45;9f15&#45;7d5ebd4223db&#45;&gt;a13accbf&#45;da90&#45;48a2&#45;90e0&#45;dc51b1a1931a</title>
<path fill="none" stroke="black" d="M250.34,-942.81C250.34,-934.79 250.34,-925.05 250.34,-916.07"/>
<polygon fill="black" stroke="black" points="253.84,-916.03 250.34,-906.03 246.84,-916.03 253.84,-916.03"/>
</g>
</g>
</svg>
