<?xml version="1.0" encoding="UTF-8" standalone="no"?>
<!DOCTYPE svg PUBLIC "-//W3C//DTD SVG 1.1//EN"
 "http://www.w3.org/Graphics/SVG/1.1/DTD/svg11.dtd">
<!-- Generated by graphviz version 2.43.0 (0)
 -->
<!-- Title: G Pages: 1 -->
<svg width="318pt" height="987pt"
 viewBox="0.00 0.00 318.29 987.00" xmlns="http://www.w3.org/2000/svg" xmlns:xlink="http://www.w3.org/1999/xlink">
<g id="graph0" class="graph" transform="scale(1 1) rotate(0) translate(4 983)">
<title>G</title>
<polygon fill="transparent" stroke="transparent" points="-4,4 -4,-983 314.29,-983 314.29,4 -4,4"/>
<!-- c8f741c2&#45;cdc6&#45;4085&#45;bd89&#45;c054d29f631a -->
<g id="node1" class="node">
<title>c8f741c2&#45;cdc6&#45;4085&#45;bd89&#45;c054d29f631a</title>
<polygon fill="none" stroke="black" points="65.34,-906 0.16,-888 65.34,-870 130.52,-888 65.34,-906"/>
<text text-anchor="middle" x="65.34" y="-884.3" font-family="Times,serif" font-size="14.00">AlwaysTrue</text>
</g>
<!-- 4f67e368&#45;bfbf&#45;42b5&#45;b761&#45;605a9e62198e -->
<g id="node11" class="node">
<title>4f67e368&#45;bfbf&#45;42b5&#45;b761&#45;605a9e62198e</title>
<ellipse fill="none" stroke="black" cx="103.34" cy="-801" rx="46.5" ry="18"/>
<text text-anchor="middle" x="103.34" y="-797.3" font-family="Times,serif" font-size="14.00">VisionNorm</text>
</g>
<!-- c8f741c2&#45;cdc6&#45;4085&#45;bd89&#45;c054d29f631a&#45;&gt;4f67e368&#45;bfbf&#45;42b5&#45;b761&#45;605a9e62198e -->
<g id="edge10" class="edge">
<title>c8f741c2&#45;cdc6&#45;4085&#45;bd89&#45;c054d29f631a&#45;&gt;4f67e368&#45;bfbf&#45;42b5&#45;b761&#45;605a9e62198e</title>
<path fill="none" stroke="black" d="M72.13,-871.8C77.54,-859.7 85.25,-842.47 91.65,-828.16"/>
<polygon fill="black" stroke="black" points="94.94,-829.37 95.82,-818.81 88.55,-826.51 94.94,-829.37"/>
<text text-anchor="middle" x="104.34" y="-840.8" font-family="Times,serif" font-size="14.00">True</text>
</g>
<!-- 482b5310&#45;2844&#45;4b84&#45;b715&#45;7eab228c65e6 -->
<g id="node2" class="node">
<title>482b5310&#45;2844&#45;4b84&#45;b715&#45;7eab228c65e6</title>
<ellipse fill="none" stroke="black" cx="103.34" cy="-105" rx="27" ry="18"/>
<text text-anchor="middle" x="103.34" y="-101.3" font-family="Times,serif" font-size="14.00">FlatX</text>
</g>
<!-- 821d95b3&#45;8964&#45;4766&#45;ac7c&#45;15aaf8e1c8e9 -->
<g id="node3" class="node">
<title>821d95b3&#45;8964&#45;4766&#45;ac7c&#45;15aaf8e1c8e9</title>
<ellipse fill="none" stroke="black" cx="103.34" cy="-18" rx="80.11" ry="18"/>
<text text-anchor="middle" x="103.34" y="-14.3" font-family="Times,serif" font-size="14.00">Stability2Movement</text>
</g>
<!-- 482b5310&#45;2844&#45;4b84&#45;b715&#45;7eab228c65e6&#45;&gt;821d95b3&#45;8964&#45;4766&#45;ac7c&#45;15aaf8e1c8e9 -->
<g id="edge1" class="edge">
<title>482b5310&#45;2844&#45;4b84&#45;b715&#45;7eab228c65e6&#45;&gt;821d95b3&#45;8964&#45;4766&#45;ac7c&#45;15aaf8e1c8e9</title>
<path fill="none" stroke="purple" d="M103.34,-86.8C103.34,-75.16 103.34,-59.55 103.34,-46.24"/>
<polygon fill="purple" stroke="purple" points="106.84,-46.18 103.34,-36.18 99.84,-46.18 106.84,-46.18"/>
<text text-anchor="middle" x="138.84" y="-57.8" font-family="Times,serif" font-size="14.00" fill="purple">Pass Data</text>
</g>
<!-- 59782145&#45;7491&#45;4b8c&#45;869f&#45;deb8657e02e4 -->
<g id="node4" class="node">
<title>59782145&#45;7491&#45;4b8c&#45;869f&#45;deb8657e02e4</title>
<ellipse fill="none" stroke="black" cx="103.34" cy="-192" rx="27" ry="18"/>
<text text-anchor="middle" x="103.34" y="-188.3" font-family="Times,serif" font-size="14.00">StripY</text>
</g>
<!-- 59782145&#45;7491&#45;4b8c&#45;869f&#45;deb8657e02e4&#45;&gt;482b5310&#45;2844&#45;4b84&#45;b715&#45;7eab228c65e6 -->
<g id="edge2" class="edge">
<title>59782145&#45;7491&#45;4b8c&#45;869f&#45;deb8657e02e4&#45;&gt;482b5310&#45;2844&#45;4b84&#45;b715&#45;7eab228c65e6</title>
<path fill="none" stroke="purple" d="M103.34,-173.8C103.34,-162.16 103.34,-146.55 103.34,-133.24"/>
<polygon fill="purple" stroke="purple" points="106.84,-133.18 103.34,-123.18 99.84,-133.18 106.84,-133.18"/>
<text text-anchor="middle" x="138.84" y="-144.8" font-family="Times,serif" font-size="14.00" fill="purple">Pass Data</text>
</g>
<!-- 5e674990&#45;5a79&#45;4be5&#45;b705&#45;362cc5dbc47e -->
<g id="node5" class="node">
<title>5e674990&#45;5a79&#45;4be5&#45;b705&#45;362cc5dbc47e</title>
<ellipse fill="none" stroke="black" cx="103.34" cy="-279" rx="52.6" ry="18"/>
<text text-anchor="middle" x="103.34" y="-275.3" font-family="Times,serif" font-size="14.00">Anon Closure</text>
</g>
<!-- 5e674990&#45;5a79&#45;4be5&#45;b705&#45;362cc5dbc47e&#45;&gt;59782145&#45;7491&#45;4b8c&#45;869f&#45;deb8657e02e4 -->
<g id="edge3" class="edge">
<title>5e674990&#45;5a79&#45;4be5&#45;b705&#45;362cc5dbc47e&#45;&gt;59782145&#45;7491&#45;4b8c&#45;869f&#45;deb8657e02e4</title>
<path fill="none" stroke="purple" d="M103.34,-260.8C103.34,-249.16 103.34,-233.55 103.34,-220.24"/>
<polygon fill="purple" stroke="purple" points="106.84,-220.18 103.34,-210.18 99.84,-220.18 106.84,-220.18"/>
<text text-anchor="middle" x="138.84" y="-231.8" font-family="Times,serif" font-size="14.00" fill="purple">Pass Data</text>
</g>
<!-- 0a588d3a&#45;a7fb&#45;455d&#45;911d&#45;0c7d45a8ca37 -->
<g id="node6" class="node">
<title>0a588d3a&#45;a7fb&#45;455d&#45;911d&#45;0c7d45a8ca37</title>
<ellipse fill="none" stroke="black" cx="103.34" cy="-366" rx="51.3" ry="18"/>
<text text-anchor="middle" x="103.34" y="-362.3" font-family="Times,serif" font-size="14.00">OffsetToPose</text>
</g>
<!-- 0a588d3a&#45;a7fb&#45;455d&#45;911d&#45;0c7d45a8ca37&#45;&gt;5e674990&#45;5a79&#45;4be5&#45;b705&#45;362cc5dbc47e -->
<g id="edge4" class="edge">
<title>0a588d3a&#45;a7fb&#45;455d&#45;911d&#45;0c7d45a8ca37&#45;&gt;5e674990&#45;5a79&#45;4be5&#45;b705&#45;362cc5dbc47e</title>
<path fill="none" stroke="purple" d="M103.34,-347.8C103.34,-336.16 103.34,-320.55 103.34,-307.24"/>
<polygon fill="purple" stroke="purple" points="106.84,-307.18 103.34,-297.18 99.84,-307.18 106.84,-307.18"/>
<text text-anchor="middle" x="138.84" y="-318.8" font-family="Times,serif" font-size="14.00" fill="purple">Pass Data</text>
</g>
<!-- fb77c38f&#45;ae4d&#45;4517&#45;8bb9&#45;0c248209afbd -->
<g id="node7" class="node">
<title>fb77c38f&#45;ae4d&#45;4517&#45;8bb9&#45;0c248209afbd</title>
<ellipse fill="none" stroke="black" cx="103.34" cy="-453" rx="32.4" ry="18"/>
<text text-anchor="middle" x="103.34" y="-449.3" font-family="Times,serif" font-size="14.00">Average</text>
</g>
<!-- fb77c38f&#45;ae4d&#45;4517&#45;8bb9&#45;0c248209afbd&#45;&gt;0a588d3a&#45;a7fb&#45;455d&#45;911d&#45;0c7d45a8ca37 -->
<g id="edge5" class="edge">
<title>fb77c38f&#45;ae4d&#45;4517&#45;8bb9&#45;0c248209afbd&#45;&gt;0a588d3a&#45;a7fb&#45;455d&#45;911d&#45;0c7d45a8ca37</title>
<path fill="none" stroke="purple" d="M103.34,-434.8C103.34,-423.16 103.34,-407.55 103.34,-394.24"/>
<polygon fill="purple" stroke="purple" points="106.84,-394.18 103.34,-384.18 99.84,-394.18 106.84,-394.18"/>
<text text-anchor="middle" x="138.84" y="-405.8" font-family="Times,serif" font-size="14.00" fill="purple">Pass Data</text>
</g>
<!-- d15df2d3&#45;84bb&#45;4147&#45;9e29&#45;e0ac23662c51 -->
<g id="node8" class="node">
<title>d15df2d3&#45;84bb&#45;4147&#45;9e29&#45;e0ac23662c51</title>
<ellipse fill="none" stroke="black" cx="103.34" cy="-540" rx="61.1" ry="18"/>
<text text-anchor="middle" x="103.34" y="-536.3" font-family="Times,serif" font-size="14.00">ExtractPosition</text>
</g>
<!-- d15df2d3&#45;84bb&#45;4147&#45;9e29&#45;e0ac23662c51&#45;&gt;fb77c38f&#45;ae4d&#45;4517&#45;8bb9&#45;0c248209afbd -->
<g id="edge6" class="edge">
<title>d15df2d3&#45;84bb&#45;4147&#45;9e29&#45;e0ac23662c51&#45;&gt;fb77c38f&#45;ae4d&#45;4517&#45;8bb9&#45;0c248209afbd</title>
<path fill="none" stroke="purple" d="M103.34,-521.8C103.34,-510.16 103.34,-494.55 103.34,-481.24"/>
<polygon fill="purple" stroke="purple" points="106.84,-481.18 103.34,-471.18 99.84,-481.18 106.84,-481.18"/>
<text text-anchor="middle" x="138.84" y="-492.8" font-family="Times,serif" font-size="14.00" fill="purple">Pass Data</text>
</g>
<!-- d454cedc&#45;ff6f&#45;4006&#45;aff4&#45;b2d7bbf3e80c -->
<g id="node9" class="node">
<title>d454cedc&#45;ff6f&#45;4006&#45;aff4&#45;b2d7bbf3e80c</title>
<ellipse fill="none" stroke="black" cx="103.34" cy="-627" rx="27" ry="18"/>
<text text-anchor="middle" x="103.34" y="-623.3" font-family="Times,serif" font-size="14.00">ToVec</text>
</g>
<!-- d454cedc&#45;ff6f&#45;4006&#45;aff4&#45;b2d7bbf3e80c&#45;&gt;d15df2d3&#45;84bb&#45;4147&#45;9e29&#45;e0ac23662c51 -->
<g id="edge7" class="edge">
<title>d454cedc&#45;ff6f&#45;4006&#45;aff4&#45;b2d7bbf3e80c&#45;&gt;d15df2d3&#45;84bb&#45;4147&#45;9e29&#45;e0ac23662c51</title>
<path fill="none" stroke="purple" d="M103.34,-608.8C103.34,-597.16 103.34,-581.55 103.34,-568.24"/>
<polygon fill="purple" stroke="purple" points="106.84,-568.18 103.34,-558.18 99.84,-568.18 106.84,-568.18"/>
<text text-anchor="middle" x="138.84" y="-579.8" font-family="Times,serif" font-size="14.00" fill="purple">Pass Data</text>
</g>
<!-- b921c3c2&#45;eb46&#45;4b50&#45;8dd0&#45;ad187b6dc29a -->
<g id="node10" class="node">
<title>b921c3c2&#45;eb46&#45;4b50&#45;8dd0&#45;ad187b6dc29a</title>
<ellipse fill="none" stroke="black" cx="103.34" cy="-714" rx="45.2" ry="18"/>
<text text-anchor="middle" x="103.34" y="-710.3" font-family="Times,serif" font-size="14.00">Detect true</text>
</g>
<!-- b921c3c2&#45;eb46&#45;4b50&#45;8dd0&#45;ad187b6dc29a&#45;&gt;d454cedc&#45;ff6f&#45;4006&#45;aff4&#45;b2d7bbf3e80c -->
<g id="edge8" class="edge">
<title>b921c3c2&#45;eb46&#45;4b50&#45;8dd0&#45;ad187b6dc29a&#45;&gt;d454cedc&#45;ff6f&#45;4006&#45;aff4&#45;b2d7bbf3e80c</title>
<path fill="none" stroke="purple" d="M103.34,-695.8C103.34,-684.16 103.34,-668.55 103.34,-655.24"/>
<polygon fill="purple" stroke="purple" points="106.84,-655.18 103.34,-645.18 99.84,-655.18 106.84,-655.18"/>
<text text-anchor="middle" x="138.84" y="-666.8" font-family="Times,serif" font-size="14.00" fill="purple">Pass Data</text>
</g>
<!-- 4f67e368&#45;bfbf&#45;42b5&#45;b761&#45;605a9e62198e&#45;&gt;b921c3c2&#45;eb46&#45;4b50&#45;8dd0&#45;ad187b6dc29a -->
<g id="edge9" class="edge">
<title>4f67e368&#45;bfbf&#45;42b5&#45;b761&#45;605a9e62198e&#45;&gt;b921c3c2&#45;eb46&#45;4b50&#45;8dd0&#45;ad187b6dc29a</title>
<path fill="none" stroke="purple" d="M103.34,-782.8C103.34,-771.16 103.34,-755.55 103.34,-742.24"/>
<polygon fill="purple" stroke="purple" points="106.84,-742.18 103.34,-732.18 99.84,-742.18 106.84,-742.18"/>
<text text-anchor="middle" x="138.84" y="-753.8" font-family="Times,serif" font-size="14.00" fill="purple">Pass Data</text>
</g>
<!-- 9e8ef77e&#45;6abe&#45;44fb&#45;857e&#45;06c4f3578795 -->
<g id="node12" class="node">
<title>9e8ef77e&#45;6abe&#45;44fb&#45;857e&#45;06c4f3578795</title>
<ellipse fill="none" stroke="black" cx="250.34" cy="-888" rx="47.1" ry="18"/>
<text text-anchor="middle" x="250.34" y="-884.3" font-family="Times,serif" font-size="14.00">DelayAction</text>
</g>
<!-- 9e8ef77e&#45;6abe&#45;44fb&#45;857e&#45;06c4f3578795&#45;&gt;4f67e368&#45;bfbf&#45;42b5&#45;b761&#45;605a9e62198e -->
<g id="edge11" class="edge">
<title>9e8ef77e&#45;6abe&#45;44fb&#45;857e&#45;06c4f3578795&#45;&gt;4f67e368&#45;bfbf&#45;42b5&#45;b761&#45;605a9e62198e</title>
<path fill="none" stroke="black" d="M225.4,-872.58C201.12,-858.54 164.03,-837.09 137.1,-821.52"/>
<polygon fill="black" stroke="black" points="138.81,-818.47 128.4,-816.49 135.3,-824.53 138.81,-818.47"/>
</g>
<!-- 14e60b0e&#45;f95e&#45;499a&#45;a330&#45;acad0a3d212b -->
<g id="node13" class="node">
<title>14e60b0e&#45;f95e&#45;499a&#45;a330&#45;acad0a3d212b</title>
<ellipse fill="none" stroke="black" cx="250.34" cy="-961" rx="59.9" ry="18"/>
<text text-anchor="middle" x="250.34" y="-957.3" font-family="Times,serif" font-size="14.00">ZeroMovement</text>
</g>
<!-- 14e60b0e&#45;f95e&#45;499a&#45;a330&#45;acad0a3d212b&#45;&gt;9e8ef77e&#45;6abe&#45;44fb&#45;857e&#45;06c4f3578795 -->
<g id="edge12" class="edge">
<title>14e60b0e&#45;f95e&#45;499a&#45;a330&#45;acad0a3d212b&#45;&gt;9e8ef77e&#45;6abe&#45;44fb&#45;857e&#45;06c4f3578795</title>
<path fill="none" stroke="black" d="M250.34,-942.81C250.34,-934.79 250.34,-925.05 250.34,-916.07"/>
<polygon fill="black" stroke="black" points="253.84,-916.03 250.34,-906.03 246.84,-916.03 253.84,-916.03"/>
</g>
</g>
</svg>
