<?xml version="1.0" encoding="UTF-8" standalone="no"?>
<!DOCTYPE svg PUBLIC "-//W3C//DTD SVG 1.1//EN"
 "http://www.w3.org/Graphics/SVG/1.1/DTD/svg11.dtd">
<!-- Generated by graphviz version 2.43.0 (0)
 -->
<!-- Title: G Pages: 1 -->
<svg width="743pt" height="1121pt"
 viewBox="0.00 0.00 742.80 1121.00" xmlns="http://www.w3.org/2000/svg" xmlns:xlink="http://www.w3.org/1999/xlink">
<g id="graph0" class="graph" transform="scale(1 1) rotate(0) translate(4 1117)">
<title>G</title>
<polygon fill="transparent" stroke="transparent" points="-4,4 -4,-1117 738.8,-1117 738.8,4 -4,4"/>
<g id="clust1" class="cluster">
<title>cluster_0d45102b&#45;2c9f&#45;456e&#45;8e40&#45;5517a837d0c4</title>
<polygon fill="transparent" stroke="blue" stroke-dasharray="5,2" points="8,-8 8,-829 280,-829 280,-8 8,-8"/>
</g>
<!-- 860b1997&#45;1740&#45;44cd&#45;8f96&#45;0661135f28e8 -->
<g id="node1" class="node">
<title>860b1997&#45;1740&#45;44cd&#45;8f96&#45;0661135f28e8</title>
<polygon fill="none" stroke="black" points="207,-748 141.82,-730 207,-712 272.18,-730 207,-748"/>
<text text-anchor="middle" x="207" y="-726.3" font-family="Times,serif" font-size="14.00">AlwaysTrue</text>
</g>
<!-- bb204b89&#45;0e8b&#45;44b8&#45;b527&#45;677ddc881e7c -->
<g id="node19" class="node">
<title>bb204b89&#45;0e8b&#45;44b8&#45;b527&#45;677ddc881e7c</title>
<ellipse fill="none" stroke="black" cx="335" cy="-643" rx="46.5" ry="18"/>
<text text-anchor="middle" x="335" y="-639.3" font-family="Times,serif" font-size="14.00">VisionNorm</text>
</g>
<!-- 860b1997&#45;1740&#45;44cd&#45;8f96&#45;0661135f28e8&#45;&gt;bb204b89&#45;0e8b&#45;44b8&#45;b527&#45;677ddc881e7c -->
<g id="edge18" class="edge">
<title>860b1997&#45;1740&#45;44cd&#45;8f96&#45;0661135f28e8&#45;&gt;bb204b89&#45;0e8b&#45;44b8&#45;b527&#45;677ddc881e7c</title>
<path fill="none" stroke="black" d="M225.34,-716.82C245.78,-703.25 279.18,-681.06 303.76,-664.74"/>
<polygon fill="black" stroke="black" points="305.98,-667.47 312.38,-659.02 302.11,-661.64 305.98,-667.47"/>
<text text-anchor="middle" x="296" y="-682.8" font-family="Times,serif" font-size="14.00">True</text>
</g>
<!-- 94779558&#45;721a&#45;4e82&#45;a0bf&#45;f973a82e4832 -->
<g id="node2" class="node">
<title>94779558&#45;721a&#45;4e82&#45;a0bf&#45;f973a82e4832</title>
<ellipse fill="none" stroke="black" cx="95" cy="-121" rx="27" ry="18"/>
<text text-anchor="middle" x="95" y="-117.3" font-family="Times,serif" font-size="14.00">StripX</text>
</g>
<!-- 392fd1d1&#45;3433&#45;4a9b&#45;9dc1&#45;79249ba49e49 -->
<g id="node3" class="node">
<title>392fd1d1&#45;3433&#45;4a9b&#45;9dc1&#45;79249ba49e49</title>
<ellipse fill="none" stroke="black" cx="96" cy="-34" rx="80.11" ry="18"/>
<text text-anchor="middle" x="96" y="-30.3" font-family="Times,serif" font-size="14.00">Stability2Movement</text>
</g>
<!-- 94779558&#45;721a&#45;4e82&#45;a0bf&#45;f973a82e4832&#45;&gt;392fd1d1&#45;3433&#45;4a9b&#45;9dc1&#45;79249ba49e49 -->
<g id="edge1" class="edge">
<title>94779558&#45;721a&#45;4e82&#45;a0bf&#45;f973a82e4832&#45;&gt;392fd1d1&#45;3433&#45;4a9b&#45;9dc1&#45;79249ba49e49</title>
<path fill="none" stroke="purple" d="M95.2,-102.8C95.34,-91.16 95.52,-75.55 95.68,-62.24"/>
<polygon fill="purple" stroke="purple" points="99.18,-62.22 95.8,-52.18 92.18,-62.13 99.18,-62.22"/>
<text text-anchor="middle" x="131.5" y="-73.8" font-family="Times,serif" font-size="14.00" fill="purple">Pass Data</text>
</g>
<!-- e0538d09&#45;b947&#45;4417&#45;bd3a&#45;31cb5982420e -->
<g id="node4" class="node">
<title>e0538d09&#45;b947&#45;4417&#45;bd3a&#45;31cb5982420e</title>
<ellipse fill="none" stroke="black" cx="95" cy="-208" rx="27" ry="18"/>
<text text-anchor="middle" x="95" y="-204.3" font-family="Times,serif" font-size="14.00">StripY</text>
</g>
<!-- e0538d09&#45;b947&#45;4417&#45;bd3a&#45;31cb5982420e&#45;&gt;94779558&#45;721a&#45;4e82&#45;a0bf&#45;f973a82e4832 -->
<g id="edge2" class="edge">
<title>e0538d09&#45;b947&#45;4417&#45;bd3a&#45;31cb5982420e&#45;&gt;94779558&#45;721a&#45;4e82&#45;a0bf&#45;f973a82e4832</title>
<path fill="none" stroke="purple" d="M95,-189.8C95,-178.16 95,-162.55 95,-149.24"/>
<polygon fill="purple" stroke="purple" points="98.5,-149.18 95,-139.18 91.5,-149.18 98.5,-149.18"/>
<text text-anchor="middle" x="130.5" y="-160.8" font-family="Times,serif" font-size="14.00" fill="purple">Pass Data</text>
</g>
<!-- 2d988921&#45;2e0d&#45;4656&#45;b0b5&#45;ca3797ac8915 -->
<g id="node5" class="node">
<title>2d988921&#45;2e0d&#45;4656&#45;b0b5&#45;ca3797ac8915</title>
<ellipse fill="none" stroke="black" cx="95" cy="-295" rx="31.2" ry="18"/>
<text text-anchor="middle" x="95" y="-291.3" font-family="Times,serif" font-size="14.00">FlipYaw</text>
</g>
<!-- 2d988921&#45;2e0d&#45;4656&#45;b0b5&#45;ca3797ac8915&#45;&gt;e0538d09&#45;b947&#45;4417&#45;bd3a&#45;31cb5982420e -->
<g id="edge3" class="edge">
<title>2d988921&#45;2e0d&#45;4656&#45;b0b5&#45;ca3797ac8915&#45;&gt;e0538d09&#45;b947&#45;4417&#45;bd3a&#45;31cb5982420e</title>
<path fill="none" stroke="purple" d="M95,-276.8C95,-265.16 95,-249.55 95,-236.24"/>
<polygon fill="purple" stroke="purple" points="98.5,-236.18 95,-226.18 91.5,-236.18 98.5,-236.18"/>
<text text-anchor="middle" x="130.5" y="-247.8" font-family="Times,serif" font-size="14.00" fill="purple">Pass Data</text>
</g>
<!-- 8c4b9715&#45;f36f&#45;4242&#45;8521&#45;ad32c1a3c817 -->
<g id="node6" class="node">
<title>8c4b9715&#45;f36f&#45;4242&#45;8521&#45;ad32c1a3c817</title>
<ellipse fill="none" stroke="black" cx="95" cy="-382" rx="67.81" ry="18"/>
<text text-anchor="middle" x="95" y="-378.3" font-family="Times,serif" font-size="14.00">LinearYawFromX</text>
</g>
<!-- 8c4b9715&#45;f36f&#45;4242&#45;8521&#45;ad32c1a3c817&#45;&gt;2d988921&#45;2e0d&#45;4656&#45;b0b5&#45;ca3797ac8915 -->
<g id="edge4" class="edge">
<title>8c4b9715&#45;f36f&#45;4242&#45;8521&#45;ad32c1a3c817&#45;&gt;2d988921&#45;2e0d&#45;4656&#45;b0b5&#45;ca3797ac8915</title>
<path fill="none" stroke="purple" d="M95,-363.8C95,-352.16 95,-336.55 95,-323.24"/>
<polygon fill="purple" stroke="purple" points="98.5,-323.18 95,-313.18 91.5,-323.18 98.5,-323.18"/>
<text text-anchor="middle" x="130.5" y="-334.8" font-family="Times,serif" font-size="14.00" fill="purple">Pass Data</text>
</g>
<!-- 5b8ccb61&#45;21eb&#45;4848&#45;ade6&#45;c1b2d56abf64 -->
<g id="node7" class="node">
<title>5b8ccb61&#45;21eb&#45;4848&#45;ade6&#45;c1b2d56abf64</title>
<ellipse fill="none" stroke="black" cx="95" cy="-469" rx="51.3" ry="18"/>
<text text-anchor="middle" x="95" y="-465.3" font-family="Times,serif" font-size="14.00">OffsetToPose</text>
</g>
<!-- 5b8ccb61&#45;21eb&#45;4848&#45;ade6&#45;c1b2d56abf64&#45;&gt;8c4b9715&#45;f36f&#45;4242&#45;8521&#45;ad32c1a3c817 -->
<g id="edge5" class="edge">
<title>5b8ccb61&#45;21eb&#45;4848&#45;ade6&#45;c1b2d56abf64&#45;&gt;8c4b9715&#45;f36f&#45;4242&#45;8521&#45;ad32c1a3c817</title>
<path fill="none" stroke="purple" d="M95,-450.8C95,-439.16 95,-423.55 95,-410.24"/>
<polygon fill="purple" stroke="purple" points="98.5,-410.18 95,-400.18 91.5,-410.18 98.5,-410.18"/>
<text text-anchor="middle" x="130.5" y="-421.8" font-family="Times,serif" font-size="14.00" fill="purple">Pass Data</text>
</g>
<!-- be869ae1&#45;babd&#45;4d32&#45;8465&#45;1e76098d9858 -->
<g id="node8" class="node">
<title>be869ae1&#45;babd&#45;4d32&#45;8465&#45;1e76098d9858</title>
<ellipse fill="none" stroke="black" cx="94" cy="-556" rx="32.4" ry="18"/>
<text text-anchor="middle" x="94" y="-552.3" font-family="Times,serif" font-size="14.00">Average</text>
</g>
<!-- be869ae1&#45;babd&#45;4d32&#45;8465&#45;1e76098d9858&#45;&gt;5b8ccb61&#45;21eb&#45;4848&#45;ade6&#45;c1b2d56abf64 -->
<g id="edge6" class="edge">
<title>be869ae1&#45;babd&#45;4d32&#45;8465&#45;1e76098d9858&#45;&gt;5b8ccb61&#45;21eb&#45;4848&#45;ade6&#45;c1b2d56abf64</title>
<path fill="none" stroke="purple" d="M94.2,-537.8C94.34,-526.16 94.52,-510.55 94.68,-497.24"/>
<polygon fill="purple" stroke="purple" points="98.18,-497.22 94.8,-487.18 91.18,-497.13 98.18,-497.22"/>
<text text-anchor="middle" x="130.5" y="-508.8" font-family="Times,serif" font-size="14.00" fill="purple">Pass Data</text>
</g>
<!-- 8d31cf43&#45;93f2&#45;4c12&#45;b70f&#45;569d2c604b32 -->
<g id="node9" class="node">
<title>8d31cf43&#45;93f2&#45;4c12&#45;b70f&#45;569d2c604b32</title>
<ellipse fill="none" stroke="black" cx="92" cy="-643" rx="61.1" ry="18"/>
<text text-anchor="middle" x="92" y="-639.3" font-family="Times,serif" font-size="14.00">ExtractPosition</text>
</g>
<!-- 8d31cf43&#45;93f2&#45;4c12&#45;b70f&#45;569d2c604b32&#45;&gt;be869ae1&#45;babd&#45;4d32&#45;8465&#45;1e76098d9858 -->
<g id="edge7" class="edge">
<title>8d31cf43&#45;93f2&#45;4c12&#45;b70f&#45;569d2c604b32&#45;&gt;be869ae1&#45;babd&#45;4d32&#45;8465&#45;1e76098d9858</title>
<path fill="none" stroke="purple" d="M92.4,-624.8C92.68,-613.16 93.05,-597.55 93.36,-584.24"/>
<polygon fill="purple" stroke="purple" points="96.86,-584.26 93.6,-574.18 89.86,-584.09 96.86,-584.26"/>
<text text-anchor="middle" x="129.5" y="-595.8" font-family="Times,serif" font-size="14.00" fill="purple">Pass Data</text>
</g>
<!-- 38581bee&#45;ca1c&#45;4277&#45;af46&#45;2ab47bc134ea -->
<g id="node10" class="node">
<title>38581bee&#45;ca1c&#45;4277&#45;af46&#45;2ab47bc134ea</title>
<ellipse fill="none" stroke="black" cx="43" cy="-730" rx="27" ry="18"/>
<text text-anchor="middle" x="43" y="-726.3" font-family="Times,serif" font-size="14.00">ToVec</text>
</g>
<!-- 38581bee&#45;ca1c&#45;4277&#45;af46&#45;2ab47bc134ea&#45;&gt;8d31cf43&#45;93f2&#45;4c12&#45;b70f&#45;569d2c604b32 -->
<g id="edge8" class="edge">
<title>38581bee&#45;ca1c&#45;4277&#45;af46&#45;2ab47bc134ea&#45;&gt;8d31cf43&#45;93f2&#45;4c12&#45;b70f&#45;569d2c604b32</title>
<path fill="none" stroke="purple" d="M52.22,-713.01C59.27,-700.78 69.13,-683.68 77.27,-669.56"/>
<polygon fill="purple" stroke="purple" points="80.36,-671.2 82.32,-660.79 74.3,-667.7 80.36,-671.2"/>
<text text-anchor="middle" x="106.5" y="-682.8" font-family="Times,serif" font-size="14.00" fill="purple">Pass Data</text>
</g>
<!-- 9838b2b1&#45;bda7&#45;4585&#45;9480&#45;98ceb6dc9ea7 -->
<g id="node11" class="node">
<title>9838b2b1&#45;bda7&#45;4585&#45;9480&#45;98ceb6dc9ea7</title>
<polygon fill="none" stroke="black" stroke-dasharray="5,2" points="256,-821 158,-821 158,-785 256,-785 256,-821"/>
<text text-anchor="middle" x="207" y="-799.3" font-family="Times,serif" font-size="14.00" fill="blue">Concurrent</text>
</g>
<!-- 9838b2b1&#45;bda7&#45;4585&#45;9480&#45;98ceb6dc9ea7&#45;&gt;860b1997&#45;1740&#45;44cd&#45;8f96&#45;0661135f28e8 -->
<g id="edge10" class="edge">
<title>9838b2b1&#45;bda7&#45;4585&#45;9480&#45;98ceb6dc9ea7&#45;&gt;860b1997&#45;1740&#45;44cd&#45;8f96&#45;0661135f28e8</title>
<path fill="none" stroke="black" d="M207,-784.81C207,-776.79 207,-767.05 207,-758.07"/>
<polygon fill="black" stroke="black" points="210.5,-758.03 207,-748.03 203.5,-758.03 210.5,-758.03"/>
</g>
<!-- 9838b2b1&#45;bda7&#45;4585&#45;9480&#45;98ceb6dc9ea7&#45;&gt;38581bee&#45;ca1c&#45;4277&#45;af46&#45;2ab47bc134ea -->
<g id="edge9" class="edge">
<title>9838b2b1&#45;bda7&#45;4585&#45;9480&#45;98ceb6dc9ea7&#45;&gt;38581bee&#45;ca1c&#45;4277&#45;af46&#45;2ab47bc134ea</title>
<path fill="none" stroke="black" d="M167.72,-784.99C139.19,-772.64 101.1,-756.15 74.55,-744.66"/>
<polygon fill="black" stroke="black" points="75.89,-741.43 65.32,-740.66 73.11,-747.85 75.89,-741.43"/>
</g>
<!-- d1b441f6&#45;75bb&#45;4c54&#45;9ea0&#45;351bd2eb4156 -->
<g id="node12" class="node">
<title>d1b441f6&#45;75bb&#45;4c54&#45;9ea0&#45;351bd2eb4156</title>
<ellipse fill="none" stroke="black" cx="660" cy="-1022" rx="33.6" ry="18"/>
<text text-anchor="middle" x="660" y="-1018.3" font-family="Times,serif" font-size="14.00">Descend</text>
</g>
<!-- 016e1dae&#45;e04c&#45;49bc&#45;b27b&#45;67e6bf08918c -->
<g id="node13" class="node">
<title>016e1dae&#45;e04c&#45;49bc&#45;b27b&#45;67e6bf08918c</title>
<ellipse fill="none" stroke="black" cx="660" cy="-949" rx="47.1" ry="18"/>
<text text-anchor="middle" x="660" y="-945.3" font-family="Times,serif" font-size="14.00">DelayAction</text>
</g>
<!-- d1b441f6&#45;75bb&#45;4c54&#45;9ea0&#45;351bd2eb4156&#45;&gt;016e1dae&#45;e04c&#45;49bc&#45;b27b&#45;67e6bf08918c -->
<g id="edge11" class="edge">
<title>d1b441f6&#45;75bb&#45;4c54&#45;9ea0&#45;351bd2eb4156&#45;&gt;016e1dae&#45;e04c&#45;49bc&#45;b27b&#45;67e6bf08918c</title>
<path fill="none" stroke="black" d="M660,-1003.81C660,-995.79 660,-986.05 660,-977.07"/>
<polygon fill="black" stroke="black" points="663.5,-977.03 660,-967.03 656.5,-977.03 663.5,-977.03"/>
</g>
<!-- 77ce5a96&#45;96da&#45;4dc4&#45;bbbb&#45;6dd69e0d4bea -->
<g id="node14" class="node">
<title>77ce5a96&#45;96da&#45;4dc4&#45;bbbb&#45;6dd69e0d4bea</title>
<ellipse fill="none" stroke="black" cx="660" cy="-876" rx="74.61" ry="18"/>
<text text-anchor="middle" x="660" y="-872.3" font-family="Times,serif" font-size="14.00">StraightMovement</text>
</g>
<!-- 016e1dae&#45;e04c&#45;49bc&#45;b27b&#45;67e6bf08918c&#45;&gt;77ce5a96&#45;96da&#45;4dc4&#45;bbbb&#45;6dd69e0d4bea -->
<g id="edge14" class="edge">
<title>016e1dae&#45;e04c&#45;49bc&#45;b27b&#45;67e6bf08918c&#45;&gt;77ce5a96&#45;96da&#45;4dc4&#45;bbbb&#45;6dd69e0d4bea</title>
<path fill="none" stroke="black" d="M660,-930.81C660,-922.79 660,-913.05 660,-904.07"/>
<polygon fill="black" stroke="black" points="663.5,-904.03 660,-894.03 656.5,-904.03 663.5,-904.03"/>
</g>
<!-- b7f9df1e&#45;5010&#45;4e44&#45;ada7&#45;397c0fbf9847 -->
<g id="node15" class="node">
<title>b7f9df1e&#45;5010&#45;4e44&#45;ada7&#45;397c0fbf9847</title>
<ellipse fill="none" stroke="black" cx="660" cy="-803" rx="47.1" ry="18"/>
<text text-anchor="middle" x="660" y="-799.3" font-family="Times,serif" font-size="14.00">DelayAction</text>
</g>
<!-- 77ce5a96&#45;96da&#45;4dc4&#45;bbbb&#45;6dd69e0d4bea&#45;&gt;b7f9df1e&#45;5010&#45;4e44&#45;ada7&#45;397c0fbf9847 -->
<g id="edge12" class="edge">
<title>77ce5a96&#45;96da&#45;4dc4&#45;bbbb&#45;6dd69e0d4bea&#45;&gt;b7f9df1e&#45;5010&#45;4e44&#45;ada7&#45;397c0fbf9847</title>
<path fill="none" stroke="black" d="M660,-857.81C660,-849.79 660,-840.05 660,-831.07"/>
<polygon fill="black" stroke="black" points="663.5,-831.03 660,-821.03 656.5,-831.03 663.5,-831.03"/>
</g>
<!-- 2a246d64&#45;21cb&#45;4343&#45;8340&#45;48154615c531 -->
<g id="node16" class="node">
<title>2a246d64&#45;21cb&#45;4343&#45;8340&#45;48154615c531</title>
<ellipse fill="none" stroke="black" cx="660" cy="-730" rx="59.9" ry="18"/>
<text text-anchor="middle" x="660" y="-726.3" font-family="Times,serif" font-size="14.00">ZeroMovement</text>
</g>
<!-- b7f9df1e&#45;5010&#45;4e44&#45;ada7&#45;397c0fbf9847&#45;&gt;2a246d64&#45;21cb&#45;4343&#45;8340&#45;48154615c531 -->
<g id="edge13" class="edge">
<title>b7f9df1e&#45;5010&#45;4e44&#45;ada7&#45;397c0fbf9847&#45;&gt;2a246d64&#45;21cb&#45;4343&#45;8340&#45;48154615c531</title>
<path fill="none" stroke="black" d="M660,-784.81C660,-776.79 660,-767.05 660,-758.07"/>
<polygon fill="black" stroke="black" points="663.5,-758.03 660,-748.03 656.5,-758.03 663.5,-758.03"/>
</g>
<!-- 2a246d64&#45;21cb&#45;4343&#45;8340&#45;48154615c531&#45;&gt;bb204b89&#45;0e8b&#45;44b8&#45;b527&#45;677ddc881e7c -->
<g id="edge19" class="edge">
<title>2a246d64&#45;21cb&#45;4343&#45;8340&#45;48154615c531&#45;&gt;bb204b89&#45;0e8b&#45;44b8&#45;b527&#45;677ddc881e7c</title>
<path fill="none" stroke="black" d="M639.53,-712.83C624.07,-701.49 601.85,-686.98 580,-679 518.08,-656.38 442.38,-648.3 391.65,-645.46"/>
<polygon fill="black" stroke="black" points="391.7,-641.96 381.54,-644.94 391.35,-648.95 391.7,-641.96"/>
</g>
<!-- 21991814&#45;8c18&#45;4a0a&#45;bf73&#45;6aa04acda81a -->
<g id="node17" class="node">
<title>21991814&#45;8c18&#45;4a0a&#45;bf73&#45;6aa04acda81a</title>
<ellipse fill="none" stroke="black" cx="660" cy="-1095" rx="34.8" ry="18"/>
<text text-anchor="middle" x="660" y="-1091.3" font-family="Times,serif" font-size="14.00">WaitArm</text>
</g>
<!-- 21991814&#45;8c18&#45;4a0a&#45;bf73&#45;6aa04acda81a&#45;&gt;d1b441f6&#45;75bb&#45;4c54&#45;9ea0&#45;351bd2eb4156 -->
<g id="edge15" class="edge">
<title>21991814&#45;8c18&#45;4a0a&#45;bf73&#45;6aa04acda81a&#45;&gt;d1b441f6&#45;75bb&#45;4c54&#45;9ea0&#45;351bd2eb4156</title>
<path fill="none" stroke="black" d="M660,-1076.81C660,-1068.79 660,-1059.05 660,-1050.07"/>
<polygon fill="black" stroke="black" points="663.5,-1050.03 660,-1040.03 656.5,-1050.03 663.5,-1050.03"/>
</g>
<!-- daf32a47&#45;d190&#45;4cea&#45;bdad&#45;5d04aa6694d8 -->
<g id="node18" class="node">
<title>daf32a47&#45;d190&#45;4cea&#45;bdad&#45;5d04aa6694d8</title>
<ellipse fill="none" stroke="black" cx="430" cy="-556" rx="48.3" ry="18"/>
<text text-anchor="middle" x="430" y="-552.3" font-family="Times,serif" font-size="14.00">Detect Buoy</text>
</g>
<!-- daf32a47&#45;d190&#45;4cea&#45;bdad&#45;5d04aa6694d8&#45;&gt;9838b2b1&#45;bda7&#45;4585&#45;9480&#45;98ceb6dc9ea7 -->
<g id="edge16" class="edge">
<title>daf32a47&#45;d190&#45;4cea&#45;bdad&#45;5d04aa6694d8&#45;&gt;9838b2b1&#45;bda7&#45;4585&#45;9480&#45;98ceb6dc9ea7</title>
<path fill="none" stroke="purple" d="M442.64,-573.8C448.32,-583.35 453.11,-595.64 450,-607 442.63,-633.91 436.36,-640 418,-661 371.25,-714.49 299.68,-756.54 253.1,-780.34"/>
<polygon fill="purple" stroke="purple" points="251.49,-777.23 244.14,-784.85 254.64,-783.48 251.49,-777.23"/>
<text text-anchor="middle" x="434.5" y="-682.8" font-family="Times,serif" font-size="14.00" fill="purple">Pass Data</text>
</g>
<!-- bb204b89&#45;0e8b&#45;44b8&#45;b527&#45;677ddc881e7c&#45;&gt;daf32a47&#45;d190&#45;4cea&#45;bdad&#45;5d04aa6694d8 -->
<g id="edge17" class="edge">
<title>bb204b89&#45;0e8b&#45;44b8&#45;b527&#45;677ddc881e7c&#45;&gt;daf32a47&#45;d190&#45;4cea&#45;bdad&#45;5d04aa6694d8</title>
<path fill="none" stroke="purple" d="M342.26,-625.14C347.43,-614.63 355.19,-601.37 365,-592 372.09,-585.23 380.74,-579.39 389.39,-574.52"/>
<polygon fill="purple" stroke="purple" points="391.12,-577.56 398.33,-569.79 387.85,-571.37 391.12,-577.56"/>
<text text-anchor="middle" x="400.5" y="-595.8" font-family="Times,serif" font-size="14.00" fill="purple">Pass Data</text>
</g>
</g>
</svg>
