<?xml version="1.0" encoding="UTF-8" standalone="no"?>
<!DOCTYPE svg PUBLIC "-//W3C//DTD SVG 1.1//EN"
 "http://www.w3.org/Graphics/SVG/1.1/DTD/svg11.dtd">
<!-- Generated by graphviz version 2.43.0 (0)
 -->
<!-- Title: G Pages: 1 -->
<svg width="318pt" height="987pt"
 viewBox="0.00 0.00 318.29 987.00" xmlns="http://www.w3.org/2000/svg" xmlns:xlink="http://www.w3.org/1999/xlink">
<g id="graph0" class="graph" transform="scale(1 1) rotate(0) translate(4 983)">
<title>G</title>
<polygon fill="transparent" stroke="transparent" points="-4,4 -4,-983 314.29,-983 314.29,4 -4,4"/>
<!-- 80b51948&#45;137a&#45;4f7d&#45;82f4&#45;3c01a8af3199 -->
<g id="node1" class="node">
<title>80b51948&#45;137a&#45;4f7d&#45;82f4&#45;3c01a8af3199</title>
<polygon fill="none" stroke="black" points="65.34,-906 0.16,-888 65.34,-870 130.52,-888 65.34,-906"/>
<text text-anchor="middle" x="65.34" y="-884.3" font-family="Times,serif" font-size="14.00">AlwaysTrue</text>
</g>
<!-- a062a156&#45;2d61&#45;43ba&#45;84ce&#45;1464cee39660 -->
<g id="node11" class="node">
<title>a062a156&#45;2d61&#45;43ba&#45;84ce&#45;1464cee39660</title>
<ellipse fill="none" stroke="black" cx="103.34" cy="-801" rx="46.5" ry="18"/>
<text text-anchor="middle" x="103.34" y="-797.3" font-family="Times,serif" font-size="14.00">VisionNorm</text>
</g>
<!-- 80b51948&#45;137a&#45;4f7d&#45;82f4&#45;3c01a8af3199&#45;&gt;a062a156&#45;2d61&#45;43ba&#45;84ce&#45;1464cee39660 -->
<g id="edge10" class="edge">
<title>80b51948&#45;137a&#45;4f7d&#45;82f4&#45;3c01a8af3199&#45;&gt;a062a156&#45;2d61&#45;43ba&#45;84ce&#45;1464cee39660</title>
<path fill="none" stroke="black" d="M72.13,-871.8C77.54,-859.7 85.25,-842.47 91.65,-828.16"/>
<polygon fill="black" stroke="black" points="94.94,-829.37 95.82,-818.81 88.55,-826.51 94.94,-829.37"/>
<text text-anchor="middle" x="104.34" y="-840.8" font-family="Times,serif" font-size="14.00">True</text>
</g>
<!-- 525324de&#45;099a&#45;42c0&#45;bfc8&#45;bd72e130e9f9 -->
<g id="node2" class="node">
<title>525324de&#45;099a&#45;42c0&#45;bfc8&#45;bd72e130e9f9</title>
<ellipse fill="none" stroke="black" cx="103.34" cy="-105" rx="27" ry="18"/>
<text text-anchor="middle" x="103.34" y="-101.3" font-family="Times,serif" font-size="14.00">FlatX</text>
</g>
<!-- fe190a51&#45;9d44&#45;4c90&#45;8c20&#45;8872e27ba425 -->
<g id="node3" class="node">
<title>fe190a51&#45;9d44&#45;4c90&#45;8c20&#45;8872e27ba425</title>
<ellipse fill="none" stroke="black" cx="103.34" cy="-18" rx="80.11" ry="18"/>
<text text-anchor="middle" x="103.34" y="-14.3" font-family="Times,serif" font-size="14.00">Stability2Movement</text>
</g>
<!-- 525324de&#45;099a&#45;42c0&#45;bfc8&#45;bd72e130e9f9&#45;&gt;fe190a51&#45;9d44&#45;4c90&#45;8c20&#45;8872e27ba425 -->
<g id="edge1" class="edge">
<title>525324de&#45;099a&#45;42c0&#45;bfc8&#45;bd72e130e9f9&#45;&gt;fe190a51&#45;9d44&#45;4c90&#45;8c20&#45;8872e27ba425</title>
<path fill="none" stroke="purple" d="M103.34,-86.8C103.34,-75.16 103.34,-59.55 103.34,-46.24"/>
<polygon fill="purple" stroke="purple" points="106.84,-46.18 103.34,-36.18 99.84,-46.18 106.84,-46.18"/>
<text text-anchor="middle" x="138.84" y="-57.8" font-family="Times,serif" font-size="14.00" fill="purple">Pass Data</text>
</g>
<!-- 67b39084&#45;ff9e&#45;4f9e&#45;91ac&#45;d576460ebe07 -->
<g id="node4" class="node">
<title>67b39084&#45;ff9e&#45;4f9e&#45;91ac&#45;d576460ebe07</title>
<ellipse fill="none" stroke="black" cx="103.34" cy="-192" rx="27" ry="18"/>
<text text-anchor="middle" x="103.34" y="-188.3" font-family="Times,serif" font-size="14.00">StripY</text>
</g>
<!-- 67b39084&#45;ff9e&#45;4f9e&#45;91ac&#45;d576460ebe07&#45;&gt;525324de&#45;099a&#45;42c0&#45;bfc8&#45;bd72e130e9f9 -->
<g id="edge2" class="edge">
<title>67b39084&#45;ff9e&#45;4f9e&#45;91ac&#45;d576460ebe07&#45;&gt;525324de&#45;099a&#45;42c0&#45;bfc8&#45;bd72e130e9f9</title>
<path fill="none" stroke="purple" d="M103.34,-173.8C103.34,-162.16 103.34,-146.55 103.34,-133.24"/>
<polygon fill="purple" stroke="purple" points="106.84,-133.18 103.34,-123.18 99.84,-133.18 106.84,-133.18"/>
<text text-anchor="middle" x="138.84" y="-144.8" font-family="Times,serif" font-size="14.00" fill="purple">Pass Data</text>
</g>
<!-- 965b3be0&#45;3b2c&#45;4e81&#45;a1ed&#45;e221effadd5f -->
<g id="node5" class="node">
<title>965b3be0&#45;3b2c&#45;4e81&#45;a1ed&#45;e221effadd5f</title>
<ellipse fill="none" stroke="black" cx="103.34" cy="-279" rx="52.6" ry="18"/>
<text text-anchor="middle" x="103.34" y="-275.3" font-family="Times,serif" font-size="14.00">Anon Closure</text>
</g>
<!-- 965b3be0&#45;3b2c&#45;4e81&#45;a1ed&#45;e221effadd5f&#45;&gt;67b39084&#45;ff9e&#45;4f9e&#45;91ac&#45;d576460ebe07 -->
<g id="edge3" class="edge">
<title>965b3be0&#45;3b2c&#45;4e81&#45;a1ed&#45;e221effadd5f&#45;&gt;67b39084&#45;ff9e&#45;4f9e&#45;91ac&#45;d576460ebe07</title>
<path fill="none" stroke="purple" d="M103.34,-260.8C103.34,-249.16 103.34,-233.55 103.34,-220.24"/>
<polygon fill="purple" stroke="purple" points="106.84,-220.18 103.34,-210.18 99.84,-220.18 106.84,-220.18"/>
<text text-anchor="middle" x="138.84" y="-231.8" font-family="Times,serif" font-size="14.00" fill="purple">Pass Data</text>
</g>
<!-- 71782bb9&#45;f948&#45;405b&#45;9a07&#45;f3f28cee8a91 -->
<g id="node6" class="node">
<title>71782bb9&#45;f948&#45;405b&#45;9a07&#45;f3f28cee8a91</title>
<ellipse fill="none" stroke="black" cx="103.34" cy="-366" rx="51.3" ry="18"/>
<text text-anchor="middle" x="103.34" y="-362.3" font-family="Times,serif" font-size="14.00">OffsetToPose</text>
</g>
<!-- 71782bb9&#45;f948&#45;405b&#45;9a07&#45;f3f28cee8a91&#45;&gt;965b3be0&#45;3b2c&#45;4e81&#45;a1ed&#45;e221effadd5f -->
<g id="edge4" class="edge">
<title>71782bb9&#45;f948&#45;405b&#45;9a07&#45;f3f28cee8a91&#45;&gt;965b3be0&#45;3b2c&#45;4e81&#45;a1ed&#45;e221effadd5f</title>
<path fill="none" stroke="purple" d="M103.34,-347.8C103.34,-336.16 103.34,-320.55 103.34,-307.24"/>
<polygon fill="purple" stroke="purple" points="106.84,-307.18 103.34,-297.18 99.84,-307.18 106.84,-307.18"/>
<text text-anchor="middle" x="138.84" y="-318.8" font-family="Times,serif" font-size="14.00" fill="purple">Pass Data</text>
</g>
<!-- 61161f3a&#45;298a&#45;4688&#45;9120&#45;7b6b6dc11e41 -->
<g id="node7" class="node">
<title>61161f3a&#45;298a&#45;4688&#45;9120&#45;7b6b6dc11e41</title>
<ellipse fill="none" stroke="black" cx="103.34" cy="-453" rx="32.4" ry="18"/>
<text text-anchor="middle" x="103.34" y="-449.3" font-family="Times,serif" font-size="14.00">Average</text>
</g>
<!-- 61161f3a&#45;298a&#45;4688&#45;9120&#45;7b6b6dc11e41&#45;&gt;71782bb9&#45;f948&#45;405b&#45;9a07&#45;f3f28cee8a91 -->
<g id="edge5" class="edge">
<title>61161f3a&#45;298a&#45;4688&#45;9120&#45;7b6b6dc11e41&#45;&gt;71782bb9&#45;f948&#45;405b&#45;9a07&#45;f3f28cee8a91</title>
<path fill="none" stroke="purple" d="M103.34,-434.8C103.34,-423.16 103.34,-407.55 103.34,-394.24"/>
<polygon fill="purple" stroke="purple" points="106.84,-394.18 103.34,-384.18 99.84,-394.18 106.84,-394.18"/>
<text text-anchor="middle" x="138.84" y="-405.8" font-family="Times,serif" font-size="14.00" fill="purple">Pass Data</text>
</g>
<!-- e43e611f&#45;4f08&#45;47c5&#45;8f5d&#45;aa2bd08f5dcc -->
<g id="node8" class="node">
<title>e43e611f&#45;4f08&#45;47c5&#45;8f5d&#45;aa2bd08f5dcc</title>
<ellipse fill="none" stroke="black" cx="103.34" cy="-540" rx="61.1" ry="18"/>
<text text-anchor="middle" x="103.34" y="-536.3" font-family="Times,serif" font-size="14.00">ExtractPosition</text>
</g>
<!-- e43e611f&#45;4f08&#45;47c5&#45;8f5d&#45;aa2bd08f5dcc&#45;&gt;61161f3a&#45;298a&#45;4688&#45;9120&#45;7b6b6dc11e41 -->
<g id="edge6" class="edge">
<title>e43e611f&#45;4f08&#45;47c5&#45;8f5d&#45;aa2bd08f5dcc&#45;&gt;61161f3a&#45;298a&#45;4688&#45;9120&#45;7b6b6dc11e41</title>
<path fill="none" stroke="purple" d="M103.34,-521.8C103.34,-510.16 103.34,-494.55 103.34,-481.24"/>
<polygon fill="purple" stroke="purple" points="106.84,-481.18 103.34,-471.18 99.84,-481.18 106.84,-481.18"/>
<text text-anchor="middle" x="138.84" y="-492.8" font-family="Times,serif" font-size="14.00" fill="purple">Pass Data</text>
</g>
<!-- ba129ae1&#45;5f33&#45;4e20&#45;9bcd&#45;3fe6cd14b017 -->
<g id="node9" class="node">
<title>ba129ae1&#45;5f33&#45;4e20&#45;9bcd&#45;3fe6cd14b017</title>
<ellipse fill="none" stroke="black" cx="103.34" cy="-627" rx="27" ry="18"/>
<text text-anchor="middle" x="103.34" y="-623.3" font-family="Times,serif" font-size="14.00">ToVec</text>
</g>
<!-- ba129ae1&#45;5f33&#45;4e20&#45;9bcd&#45;3fe6cd14b017&#45;&gt;e43e611f&#45;4f08&#45;47c5&#45;8f5d&#45;aa2bd08f5dcc -->
<g id="edge7" class="edge">
<title>ba129ae1&#45;5f33&#45;4e20&#45;9bcd&#45;3fe6cd14b017&#45;&gt;e43e611f&#45;4f08&#45;47c5&#45;8f5d&#45;aa2bd08f5dcc</title>
<path fill="none" stroke="purple" d="M103.34,-608.8C103.34,-597.16 103.34,-581.55 103.34,-568.24"/>
<polygon fill="purple" stroke="purple" points="106.84,-568.18 103.34,-558.18 99.84,-568.18 106.84,-568.18"/>
<text text-anchor="middle" x="138.84" y="-579.8" font-family="Times,serif" font-size="14.00" fill="purple">Pass Data</text>
</g>
<!-- bad8e696&#45;d15d&#45;4ebb&#45;893e&#45;f313d781e0f6 -->
<g id="node10" class="node">
<title>bad8e696&#45;d15d&#45;4ebb&#45;893e&#45;f313d781e0f6</title>
<ellipse fill="none" stroke="black" cx="103.34" cy="-714" rx="45.2" ry="18"/>
<text text-anchor="middle" x="103.34" y="-710.3" font-family="Times,serif" font-size="14.00">Detect true</text>
</g>
<!-- bad8e696&#45;d15d&#45;4ebb&#45;893e&#45;f313d781e0f6&#45;&gt;ba129ae1&#45;5f33&#45;4e20&#45;9bcd&#45;3fe6cd14b017 -->
<g id="edge8" class="edge">
<title>bad8e696&#45;d15d&#45;4ebb&#45;893e&#45;f313d781e0f6&#45;&gt;ba129ae1&#45;5f33&#45;4e20&#45;9bcd&#45;3fe6cd14b017</title>
<path fill="none" stroke="purple" d="M103.34,-695.8C103.34,-684.16 103.34,-668.55 103.34,-655.24"/>
<polygon fill="purple" stroke="purple" points="106.84,-655.18 103.34,-645.18 99.84,-655.18 106.84,-655.18"/>
<text text-anchor="middle" x="138.84" y="-666.8" font-family="Times,serif" font-size="14.00" fill="purple">Pass Data</text>
</g>
<!-- a062a156&#45;2d61&#45;43ba&#45;84ce&#45;1464cee39660&#45;&gt;bad8e696&#45;d15d&#45;4ebb&#45;893e&#45;f313d781e0f6 -->
<g id="edge9" class="edge">
<title>a062a156&#45;2d61&#45;43ba&#45;84ce&#45;1464cee39660&#45;&gt;bad8e696&#45;d15d&#45;4ebb&#45;893e&#45;f313d781e0f6</title>
<path fill="none" stroke="purple" d="M103.34,-782.8C103.34,-771.16 103.34,-755.55 103.34,-742.24"/>
<polygon fill="purple" stroke="purple" points="106.84,-742.18 103.34,-732.18 99.84,-742.18 106.84,-742.18"/>
<text text-anchor="middle" x="138.84" y="-753.8" font-family="Times,serif" font-size="14.00" fill="purple">Pass Data</text>
</g>
<!-- 09b9d9c7&#45;a681&#45;4785&#45;bf12&#45;b059d595360d -->
<g id="node12" class="node">
<title>09b9d9c7&#45;a681&#45;4785&#45;bf12&#45;b059d595360d</title>
<ellipse fill="none" stroke="black" cx="250.34" cy="-888" rx="47.1" ry="18"/>
<text text-anchor="middle" x="250.34" y="-884.3" font-family="Times,serif" font-size="14.00">DelayAction</text>
</g>
<!-- 09b9d9c7&#45;a681&#45;4785&#45;bf12&#45;b059d595360d&#45;&gt;a062a156&#45;2d61&#45;43ba&#45;84ce&#45;1464cee39660 -->
<g id="edge11" class="edge">
<title>09b9d9c7&#45;a681&#45;4785&#45;bf12&#45;b059d595360d&#45;&gt;a062a156&#45;2d61&#45;43ba&#45;84ce&#45;1464cee39660</title>
<path fill="none" stroke="black" d="M225.4,-872.58C201.12,-858.54 164.03,-837.09 137.1,-821.52"/>
<polygon fill="black" stroke="black" points="138.81,-818.47 128.4,-816.49 135.3,-824.53 138.81,-818.47"/>
</g>
<!-- 2fd7857b&#45;6428&#45;4418&#45;8907&#45;622228005805 -->
<g id="node13" class="node">
<title>2fd7857b&#45;6428&#45;4418&#45;8907&#45;622228005805</title>
<ellipse fill="none" stroke="black" cx="250.34" cy="-961" rx="59.9" ry="18"/>
<text text-anchor="middle" x="250.34" y="-957.3" font-family="Times,serif" font-size="14.00">ZeroMovement</text>
</g>
<!-- 2fd7857b&#45;6428&#45;4418&#45;8907&#45;622228005805&#45;&gt;09b9d9c7&#45;a681&#45;4785&#45;bf12&#45;b059d595360d -->
<g id="edge12" class="edge">
<title>2fd7857b&#45;6428&#45;4418&#45;8907&#45;622228005805&#45;&gt;09b9d9c7&#45;a681&#45;4785&#45;bf12&#45;b059d595360d</title>
<path fill="none" stroke="black" d="M250.34,-942.81C250.34,-934.79 250.34,-925.05 250.34,-916.07"/>
<polygon fill="black" stroke="black" points="253.84,-916.03 250.34,-906.03 246.84,-916.03 253.84,-916.03"/>
</g>
</g>
</svg>
