<?xml version="1.0" encoding="UTF-8" standalone="no"?>
<!DOCTYPE svg PUBLIC "-//W3C//DTD SVG 1.1//EN"
 "http://www.w3.org/Graphics/SVG/1.1/DTD/svg11.dtd">
<!-- Generated by graphviz version 2.43.0 (0)
 -->
<!-- Title: G Pages: 1 -->
<svg width="318pt" height="987pt"
 viewBox="0.00 0.00 318.29 987.00" xmlns="http://www.w3.org/2000/svg" xmlns:xlink="http://www.w3.org/1999/xlink">
<g id="graph0" class="graph" transform="scale(1 1) rotate(0) translate(4 983)">
<title>G</title>
<polygon fill="transparent" stroke="transparent" points="-4,4 -4,-983 314.29,-983 314.29,4 -4,4"/>
<!-- 274cf68e&#45;40cf&#45;459e&#45;9537&#45;088a5d677685 -->
<g id="node1" class="node">
<title>274cf68e&#45;40cf&#45;459e&#45;9537&#45;088a5d677685</title>
<polygon fill="none" stroke="black" points="65.34,-906 0.16,-888 65.34,-870 130.52,-888 65.34,-906"/>
<text text-anchor="middle" x="65.34" y="-884.3" font-family="Times,serif" font-size="14.00">AlwaysTrue</text>
</g>
<!-- 4e38d7a9&#45;0778&#45;4de0&#45;a1f8&#45;39ea34f773de -->
<g id="node11" class="node">
<title>4e38d7a9&#45;0778&#45;4de0&#45;a1f8&#45;39ea34f773de</title>
<ellipse fill="none" stroke="black" cx="103.34" cy="-801" rx="46.5" ry="18"/>
<text text-anchor="middle" x="103.34" y="-797.3" font-family="Times,serif" font-size="14.00">VisionNorm</text>
</g>
<!-- 274cf68e&#45;40cf&#45;459e&#45;9537&#45;088a5d677685&#45;&gt;4e38d7a9&#45;0778&#45;4de0&#45;a1f8&#45;39ea34f773de -->
<g id="edge10" class="edge">
<title>274cf68e&#45;40cf&#45;459e&#45;9537&#45;088a5d677685&#45;&gt;4e38d7a9&#45;0778&#45;4de0&#45;a1f8&#45;39ea34f773de</title>
<path fill="none" stroke="black" d="M72.13,-871.8C77.54,-859.7 85.25,-842.47 91.65,-828.16"/>
<polygon fill="black" stroke="black" points="94.94,-829.37 95.82,-818.81 88.55,-826.51 94.94,-829.37"/>
<text text-anchor="middle" x="104.34" y="-840.8" font-family="Times,serif" font-size="14.00">True</text>
</g>
<!-- 07e5c1ec&#45;4892&#45;4ec7&#45;9f68&#45;014644c41e20 -->
<g id="node2" class="node">
<title>07e5c1ec&#45;4892&#45;4ec7&#45;9f68&#45;014644c41e20</title>
<ellipse fill="none" stroke="black" cx="103.34" cy="-105" rx="27" ry="18"/>
<text text-anchor="middle" x="103.34" y="-101.3" font-family="Times,serif" font-size="14.00">FlatX</text>
</g>
<!-- 2b9945b1&#45;7656&#45;431e&#45;b877&#45;651a87b30d88 -->
<g id="node3" class="node">
<title>2b9945b1&#45;7656&#45;431e&#45;b877&#45;651a87b30d88</title>
<ellipse fill="none" stroke="black" cx="103.34" cy="-18" rx="80.11" ry="18"/>
<text text-anchor="middle" x="103.34" y="-14.3" font-family="Times,serif" font-size="14.00">Stability2Movement</text>
</g>
<!-- 07e5c1ec&#45;4892&#45;4ec7&#45;9f68&#45;014644c41e20&#45;&gt;2b9945b1&#45;7656&#45;431e&#45;b877&#45;651a87b30d88 -->
<g id="edge1" class="edge">
<title>07e5c1ec&#45;4892&#45;4ec7&#45;9f68&#45;014644c41e20&#45;&gt;2b9945b1&#45;7656&#45;431e&#45;b877&#45;651a87b30d88</title>
<path fill="none" stroke="purple" d="M103.34,-86.8C103.34,-75.16 103.34,-59.55 103.34,-46.24"/>
<polygon fill="purple" stroke="purple" points="106.84,-46.18 103.34,-36.18 99.84,-46.18 106.84,-46.18"/>
<text text-anchor="middle" x="138.84" y="-57.8" font-family="Times,serif" font-size="14.00" fill="purple">Pass Data</text>
</g>
<!-- f024a3f9&#45;ef6b&#45;4e3b&#45;9a7a&#45;3f069bd14390 -->
<g id="node4" class="node">
<title>f024a3f9&#45;ef6b&#45;4e3b&#45;9a7a&#45;3f069bd14390</title>
<ellipse fill="none" stroke="black" cx="103.34" cy="-192" rx="27" ry="18"/>
<text text-anchor="middle" x="103.34" y="-188.3" font-family="Times,serif" font-size="14.00">StripY</text>
</g>
<!-- f024a3f9&#45;ef6b&#45;4e3b&#45;9a7a&#45;3f069bd14390&#45;&gt;07e5c1ec&#45;4892&#45;4ec7&#45;9f68&#45;014644c41e20 -->
<g id="edge2" class="edge">
<title>f024a3f9&#45;ef6b&#45;4e3b&#45;9a7a&#45;3f069bd14390&#45;&gt;07e5c1ec&#45;4892&#45;4ec7&#45;9f68&#45;014644c41e20</title>
<path fill="none" stroke="purple" d="M103.34,-173.8C103.34,-162.16 103.34,-146.55 103.34,-133.24"/>
<polygon fill="purple" stroke="purple" points="106.84,-133.18 103.34,-123.18 99.84,-133.18 106.84,-133.18"/>
<text text-anchor="middle" x="138.84" y="-144.8" font-family="Times,serif" font-size="14.00" fill="purple">Pass Data</text>
</g>
<!-- bbed114e&#45;c7ee&#45;445a&#45;b397&#45;80db3721ac4f -->
<g id="node5" class="node">
<title>bbed114e&#45;c7ee&#45;445a&#45;b397&#45;80db3721ac4f</title>
<ellipse fill="none" stroke="black" cx="103.34" cy="-279" rx="52.6" ry="18"/>
<text text-anchor="middle" x="103.34" y="-275.3" font-family="Times,serif" font-size="14.00">Anon Closure</text>
</g>
<!-- bbed114e&#45;c7ee&#45;445a&#45;b397&#45;80db3721ac4f&#45;&gt;f024a3f9&#45;ef6b&#45;4e3b&#45;9a7a&#45;3f069bd14390 -->
<g id="edge3" class="edge">
<title>bbed114e&#45;c7ee&#45;445a&#45;b397&#45;80db3721ac4f&#45;&gt;f024a3f9&#45;ef6b&#45;4e3b&#45;9a7a&#45;3f069bd14390</title>
<path fill="none" stroke="purple" d="M103.34,-260.8C103.34,-249.16 103.34,-233.55 103.34,-220.24"/>
<polygon fill="purple" stroke="purple" points="106.84,-220.18 103.34,-210.18 99.84,-220.18 106.84,-220.18"/>
<text text-anchor="middle" x="138.84" y="-231.8" font-family="Times,serif" font-size="14.00" fill="purple">Pass Data</text>
</g>
<!-- 6cbf8c4a&#45;b82f&#45;4768&#45;b716&#45;522dd3faeeeb -->
<g id="node6" class="node">
<title>6cbf8c4a&#45;b82f&#45;4768&#45;b716&#45;522dd3faeeeb</title>
<ellipse fill="none" stroke="black" cx="103.34" cy="-366" rx="51.3" ry="18"/>
<text text-anchor="middle" x="103.34" y="-362.3" font-family="Times,serif" font-size="14.00">OffsetToPose</text>
</g>
<!-- 6cbf8c4a&#45;b82f&#45;4768&#45;b716&#45;522dd3faeeeb&#45;&gt;bbed114e&#45;c7ee&#45;445a&#45;b397&#45;80db3721ac4f -->
<g id="edge4" class="edge">
<title>6cbf8c4a&#45;b82f&#45;4768&#45;b716&#45;522dd3faeeeb&#45;&gt;bbed114e&#45;c7ee&#45;445a&#45;b397&#45;80db3721ac4f</title>
<path fill="none" stroke="purple" d="M103.34,-347.8C103.34,-336.16 103.34,-320.55 103.34,-307.24"/>
<polygon fill="purple" stroke="purple" points="106.84,-307.18 103.34,-297.18 99.84,-307.18 106.84,-307.18"/>
<text text-anchor="middle" x="138.84" y="-318.8" font-family="Times,serif" font-size="14.00" fill="purple">Pass Data</text>
</g>
<!-- d35a1652&#45;2b9f&#45;4594&#45;968f&#45;30c65c9dbdd3 -->
<g id="node7" class="node">
<title>d35a1652&#45;2b9f&#45;4594&#45;968f&#45;30c65c9dbdd3</title>
<ellipse fill="none" stroke="black" cx="103.34" cy="-453" rx="32.4" ry="18"/>
<text text-anchor="middle" x="103.34" y="-449.3" font-family="Times,serif" font-size="14.00">Average</text>
</g>
<!-- d35a1652&#45;2b9f&#45;4594&#45;968f&#45;30c65c9dbdd3&#45;&gt;6cbf8c4a&#45;b82f&#45;4768&#45;b716&#45;522dd3faeeeb -->
<g id="edge5" class="edge">
<title>d35a1652&#45;2b9f&#45;4594&#45;968f&#45;30c65c9dbdd3&#45;&gt;6cbf8c4a&#45;b82f&#45;4768&#45;b716&#45;522dd3faeeeb</title>
<path fill="none" stroke="purple" d="M103.34,-434.8C103.34,-423.16 103.34,-407.55 103.34,-394.24"/>
<polygon fill="purple" stroke="purple" points="106.84,-394.18 103.34,-384.18 99.84,-394.18 106.84,-394.18"/>
<text text-anchor="middle" x="138.84" y="-405.8" font-family="Times,serif" font-size="14.00" fill="purple">Pass Data</text>
</g>
<!-- c0a409f2&#45;b677&#45;41c9&#45;8a83&#45;a5fd4804d32b -->
<g id="node8" class="node">
<title>c0a409f2&#45;b677&#45;41c9&#45;8a83&#45;a5fd4804d32b</title>
<ellipse fill="none" stroke="black" cx="103.34" cy="-540" rx="61.1" ry="18"/>
<text text-anchor="middle" x="103.34" y="-536.3" font-family="Times,serif" font-size="14.00">ExtractPosition</text>
</g>
<!-- c0a409f2&#45;b677&#45;41c9&#45;8a83&#45;a5fd4804d32b&#45;&gt;d35a1652&#45;2b9f&#45;4594&#45;968f&#45;30c65c9dbdd3 -->
<g id="edge6" class="edge">
<title>c0a409f2&#45;b677&#45;41c9&#45;8a83&#45;a5fd4804d32b&#45;&gt;d35a1652&#45;2b9f&#45;4594&#45;968f&#45;30c65c9dbdd3</title>
<path fill="none" stroke="purple" d="M103.34,-521.8C103.34,-510.16 103.34,-494.55 103.34,-481.24"/>
<polygon fill="purple" stroke="purple" points="106.84,-481.18 103.34,-471.18 99.84,-481.18 106.84,-481.18"/>
<text text-anchor="middle" x="138.84" y="-492.8" font-family="Times,serif" font-size="14.00" fill="purple">Pass Data</text>
</g>
<!-- e08abfde&#45;85d2&#45;4996&#45;8ce7&#45;f10ef14f9c73 -->
<g id="node9" class="node">
<title>e08abfde&#45;85d2&#45;4996&#45;8ce7&#45;f10ef14f9c73</title>
<ellipse fill="none" stroke="black" cx="103.34" cy="-627" rx="27" ry="18"/>
<text text-anchor="middle" x="103.34" y="-623.3" font-family="Times,serif" font-size="14.00">ToVec</text>
</g>
<!-- e08abfde&#45;85d2&#45;4996&#45;8ce7&#45;f10ef14f9c73&#45;&gt;c0a409f2&#45;b677&#45;41c9&#45;8a83&#45;a5fd4804d32b -->
<g id="edge7" class="edge">
<title>e08abfde&#45;85d2&#45;4996&#45;8ce7&#45;f10ef14f9c73&#45;&gt;c0a409f2&#45;b677&#45;41c9&#45;8a83&#45;a5fd4804d32b</title>
<path fill="none" stroke="purple" d="M103.34,-608.8C103.34,-597.16 103.34,-581.55 103.34,-568.24"/>
<polygon fill="purple" stroke="purple" points="106.84,-568.18 103.34,-558.18 99.84,-568.18 106.84,-568.18"/>
<text text-anchor="middle" x="138.84" y="-579.8" font-family="Times,serif" font-size="14.00" fill="purple">Pass Data</text>
</g>
<!-- dfa524da&#45;4e2e&#45;4514&#45;9116&#45;c053e09978e1 -->
<g id="node10" class="node">
<title>dfa524da&#45;4e2e&#45;4514&#45;9116&#45;c053e09978e1</title>
<ellipse fill="none" stroke="black" cx="103.34" cy="-714" rx="45.2" ry="18"/>
<text text-anchor="middle" x="103.34" y="-710.3" font-family="Times,serif" font-size="14.00">Detect true</text>
</g>
<!-- dfa524da&#45;4e2e&#45;4514&#45;9116&#45;c053e09978e1&#45;&gt;e08abfde&#45;85d2&#45;4996&#45;8ce7&#45;f10ef14f9c73 -->
<g id="edge8" class="edge">
<title>dfa524da&#45;4e2e&#45;4514&#45;9116&#45;c053e09978e1&#45;&gt;e08abfde&#45;85d2&#45;4996&#45;8ce7&#45;f10ef14f9c73</title>
<path fill="none" stroke="purple" d="M103.34,-695.8C103.34,-684.16 103.34,-668.55 103.34,-655.24"/>
<polygon fill="purple" stroke="purple" points="106.84,-655.18 103.34,-645.18 99.84,-655.18 106.84,-655.18"/>
<text text-anchor="middle" x="138.84" y="-666.8" font-family="Times,serif" font-size="14.00" fill="purple">Pass Data</text>
</g>
<!-- 4e38d7a9&#45;0778&#45;4de0&#45;a1f8&#45;39ea34f773de&#45;&gt;dfa524da&#45;4e2e&#45;4514&#45;9116&#45;c053e09978e1 -->
<g id="edge9" class="edge">
<title>4e38d7a9&#45;0778&#45;4de0&#45;a1f8&#45;39ea34f773de&#45;&gt;dfa524da&#45;4e2e&#45;4514&#45;9116&#45;c053e09978e1</title>
<path fill="none" stroke="purple" d="M103.34,-782.8C103.34,-771.16 103.34,-755.55 103.34,-742.24"/>
<polygon fill="purple" stroke="purple" points="106.84,-742.18 103.34,-732.18 99.84,-742.18 106.84,-742.18"/>
<text text-anchor="middle" x="138.84" y="-753.8" font-family="Times,serif" font-size="14.00" fill="purple">Pass Data</text>
</g>
<!-- 7f816784&#45;ef94&#45;43c0&#45;b397&#45;909891946226 -->
<g id="node12" class="node">
<title>7f816784&#45;ef94&#45;43c0&#45;b397&#45;909891946226</title>
<ellipse fill="none" stroke="black" cx="250.34" cy="-888" rx="47.1" ry="18"/>
<text text-anchor="middle" x="250.34" y="-884.3" font-family="Times,serif" font-size="14.00">DelayAction</text>
</g>
<!-- 7f816784&#45;ef94&#45;43c0&#45;b397&#45;909891946226&#45;&gt;4e38d7a9&#45;0778&#45;4de0&#45;a1f8&#45;39ea34f773de -->
<g id="edge11" class="edge">
<title>7f816784&#45;ef94&#45;43c0&#45;b397&#45;909891946226&#45;&gt;4e38d7a9&#45;0778&#45;4de0&#45;a1f8&#45;39ea34f773de</title>
<path fill="none" stroke="black" d="M225.4,-872.58C201.12,-858.54 164.03,-837.09 137.1,-821.52"/>
<polygon fill="black" stroke="black" points="138.81,-818.47 128.4,-816.49 135.3,-824.53 138.81,-818.47"/>
</g>
<!-- 4af410ba&#45;fc49&#45;44ae&#45;90a8&#45;54f4b9831730 -->
<g id="node13" class="node">
<title>4af410ba&#45;fc49&#45;44ae&#45;90a8&#45;54f4b9831730</title>
<ellipse fill="none" stroke="black" cx="250.34" cy="-961" rx="59.9" ry="18"/>
<text text-anchor="middle" x="250.34" y="-957.3" font-family="Times,serif" font-size="14.00">ZeroMovement</text>
</g>
<!-- 4af410ba&#45;fc49&#45;44ae&#45;90a8&#45;54f4b9831730&#45;&gt;7f816784&#45;ef94&#45;43c0&#45;b397&#45;909891946226 -->
<g id="edge12" class="edge">
<title>4af410ba&#45;fc49&#45;44ae&#45;90a8&#45;54f4b9831730&#45;&gt;7f816784&#45;ef94&#45;43c0&#45;b397&#45;909891946226</title>
<path fill="none" stroke="black" d="M250.34,-942.81C250.34,-934.79 250.34,-925.05 250.34,-916.07"/>
<polygon fill="black" stroke="black" points="253.84,-916.03 250.34,-906.03 246.84,-916.03 253.84,-916.03"/>
</g>
</g>
</svg>
