<?xml version="1.0" encoding="UTF-8" standalone="no"?>
<!DOCTYPE svg PUBLIC "-//W3C//DTD SVG 1.1//EN"
 "http://www.w3.org/Graphics/SVG/1.1/DTD/svg11.dtd">
<!-- Generated by graphviz version 2.43.0 (0)
 -->
<!-- Title: G Pages: 1 -->
<svg width="430pt" height="552pt"
 viewBox="0.00 0.00 429.87 552.00" xmlns="http://www.w3.org/2000/svg" xmlns:xlink="http://www.w3.org/1999/xlink">
<g id="graph0" class="graph" transform="scale(1 1) rotate(0) translate(4 548)">
<title>G</title>
<polygon fill="transparent" stroke="transparent" points="-4,4 -4,-548 425.87,-548 425.87,4 -4,4"/>
<!-- b2a15d8f&#45;89da&#45;4de1&#45;8a15&#45;b23004a9abb1 -->
<g id="node1" class="node">
<title>b2a15d8f&#45;89da&#45;4de1&#45;8a15&#45;b23004a9abb1</title>
<polygon fill="none" stroke="black" points="294.3,-384 166.67,-366 294.3,-348 421.93,-366 294.3,-384"/>
<text text-anchor="middle" x="294.3" y="-362.3" font-family="Times,serif" font-size="14.00">Consecutive True &lt; 28</text>
</g>
<!-- 26cd1881&#45;bc54&#45;41cd&#45;9dfe&#45;4dc9af7db30e -->
<g id="node5" class="node">
<title>26cd1881&#45;bc54&#45;41cd&#45;9dfe&#45;4dc9af7db30e</title>
<ellipse fill="none" stroke="black" cx="97.3" cy="-279" rx="38.5" ry="18"/>
<text text-anchor="middle" x="97.3" y="-275.3" font-family="Times,serif" font-size="14.00">ConstYaw</text>
</g>
<!-- b2a15d8f&#45;89da&#45;4de1&#45;8a15&#45;b23004a9abb1&#45;&gt;26cd1881&#45;bc54&#45;41cd&#45;9dfe&#45;4dc9af7db30e -->
<g id="edge6" class="edge">
<title>b2a15d8f&#45;89da&#45;4de1&#45;8a15&#45;b23004a9abb1&#45;&gt;26cd1881&#45;bc54&#45;41cd&#45;9dfe&#45;4dc9af7db30e</title>
<path fill="none" stroke="black" d="M264.38,-352.09C229.5,-337.04 171.85,-312.16 134.22,-295.93"/>
<polygon fill="black" stroke="black" points="135.21,-292.54 124.64,-291.8 132.44,-298.97 135.21,-292.54"/>
<text text-anchor="middle" x="225.3" y="-318.8" font-family="Times,serif" font-size="14.00">True</text>
</g>
<!-- a427d850&#45;110c&#45;40fe&#45;836d&#45;2ec929f68ec0 -->
<g id="node8" class="node">
<title>a427d850&#45;110c&#45;40fe&#45;836d&#45;2ec929f68ec0</title>
<ellipse fill="none" stroke="black" cx="294.3" cy="-279" rx="59.9" ry="18"/>
<text text-anchor="middle" x="294.3" y="-275.3" font-family="Times,serif" font-size="14.00">ZeroMovement</text>
</g>
<!-- b2a15d8f&#45;89da&#45;4de1&#45;8a15&#45;b23004a9abb1&#45;&gt;a427d850&#45;110c&#45;40fe&#45;836d&#45;2ec929f68ec0 -->
<g id="edge7" class="edge">
<title>b2a15d8f&#45;89da&#45;4de1&#45;8a15&#45;b23004a9abb1&#45;&gt;a427d850&#45;110c&#45;40fe&#45;836d&#45;2ec929f68ec0</title>
<path fill="none" stroke="black" d="M294.3,-347.8C294.3,-336.16 294.3,-320.55 294.3,-307.24"/>
<polygon fill="black" stroke="black" points="297.8,-307.18 294.3,-297.18 290.8,-307.18 297.8,-307.18"/>
<text text-anchor="middle" x="313.3" y="-318.8" font-family="Times,serif" font-size="14.00">False</text>
</g>
<!-- a28fee1b&#45;fcba&#45;444e&#45;b9d9&#45;3ddc955e2851 -->
<g id="node2" class="node">
<title>a28fee1b&#45;fcba&#45;444e&#45;b9d9&#45;3ddc955e2851</title>
<ellipse fill="none" stroke="black" cx="97.3" cy="-105" rx="36.1" ry="18"/>
<text text-anchor="middle" x="97.3" y="-101.3" font-family="Times,serif" font-size="14.00">SideMult</text>
</g>
<!-- 636c96bd&#45;129b&#45;4868&#45;8dd8&#45;1bf8bb4f2ffe -->
<g id="node3" class="node">
<title>636c96bd&#45;129b&#45;4868&#45;8dd8&#45;1bf8bb4f2ffe</title>
<ellipse fill="none" stroke="black" cx="97.3" cy="-18" rx="80.11" ry="18"/>
<text text-anchor="middle" x="97.3" y="-14.3" font-family="Times,serif" font-size="14.00">Stability2Movement</text>
</g>
<!-- a28fee1b&#45;fcba&#45;444e&#45;b9d9&#45;3ddc955e2851&#45;&gt;636c96bd&#45;129b&#45;4868&#45;8dd8&#45;1bf8bb4f2ffe -->
<g id="edge1" class="edge">
<title>a28fee1b&#45;fcba&#45;444e&#45;b9d9&#45;3ddc955e2851&#45;&gt;636c96bd&#45;129b&#45;4868&#45;8dd8&#45;1bf8bb4f2ffe</title>
<path fill="none" stroke="purple" d="M97.3,-86.8C97.3,-75.16 97.3,-59.55 97.3,-46.24"/>
<polygon fill="purple" stroke="purple" points="100.8,-46.18 97.3,-36.18 93.8,-46.18 100.8,-46.18"/>
<text text-anchor="middle" x="132.8" y="-57.8" font-family="Times,serif" font-size="14.00" fill="purple">Pass Data</text>
</g>
<!-- 9c61732a&#45;584b&#45;4ecb&#45;a1a6&#45;e4a336e27889 -->
<g id="node4" class="node">
<title>9c61732a&#45;584b&#45;4ecb&#45;a1a6&#45;e4a336e27889</title>
<ellipse fill="none" stroke="black" cx="97.3" cy="-192" rx="27" ry="18"/>
<text text-anchor="middle" x="97.3" y="-188.3" font-family="Times,serif" font-size="14.00">SetX</text>
</g>
<!-- 9c61732a&#45;584b&#45;4ecb&#45;a1a6&#45;e4a336e27889&#45;&gt;a28fee1b&#45;fcba&#45;444e&#45;b9d9&#45;3ddc955e2851 -->
<g id="edge2" class="edge">
<title>9c61732a&#45;584b&#45;4ecb&#45;a1a6&#45;e4a336e27889&#45;&gt;a28fee1b&#45;fcba&#45;444e&#45;b9d9&#45;3ddc955e2851</title>
<path fill="none" stroke="purple" d="M97.3,-173.8C97.3,-162.16 97.3,-146.55 97.3,-133.24"/>
<polygon fill="purple" stroke="purple" points="100.8,-133.18 97.3,-123.18 93.8,-133.18 100.8,-133.18"/>
<text text-anchor="middle" x="132.8" y="-144.8" font-family="Times,serif" font-size="14.00" fill="purple">Pass Data</text>
</g>
<!-- 26cd1881&#45;bc54&#45;41cd&#45;9dfe&#45;4dc9af7db30e&#45;&gt;9c61732a&#45;584b&#45;4ecb&#45;a1a6&#45;e4a336e27889 -->
<g id="edge3" class="edge">
<title>26cd1881&#45;bc54&#45;41cd&#45;9dfe&#45;4dc9af7db30e&#45;&gt;9c61732a&#45;584b&#45;4ecb&#45;a1a6&#45;e4a336e27889</title>
<path fill="none" stroke="purple" d="M97.3,-260.8C97.3,-249.16 97.3,-233.55 97.3,-220.24"/>
<polygon fill="purple" stroke="purple" points="100.8,-220.18 97.3,-210.18 93.8,-220.18 100.8,-220.18"/>
<text text-anchor="middle" x="132.8" y="-231.8" font-family="Times,serif" font-size="14.00" fill="purple">Pass Data</text>
</g>
<!-- 6e9cfbab&#45;65d2&#45;4339&#45;9d5a&#45;2810d2e91123 -->
<g id="node6" class="node">
<title>6e9cfbab&#45;65d2&#45;4339&#45;9d5a&#45;2810d2e91123</title>
<ellipse fill="none" stroke="black" cx="294.3" cy="-453" rx="46.4" ry="18"/>
<text text-anchor="middle" x="294.3" y="-449.3" font-family="Times,serif" font-size="14.00">AlwaysTrue</text>
</g>
<!-- 6e9cfbab&#45;65d2&#45;4339&#45;9d5a&#45;2810d2e91123&#45;&gt;b2a15d8f&#45;89da&#45;4de1&#45;8a15&#45;b23004a9abb1 -->
<g id="edge4" class="edge">
<title>6e9cfbab&#45;65d2&#45;4339&#45;9d5a&#45;2810d2e91123&#45;&gt;b2a15d8f&#45;89da&#45;4de1&#45;8a15&#45;b23004a9abb1</title>
<path fill="none" stroke="purple" d="M294.3,-434.8C294.3,-423.16 294.3,-407.55 294.3,-394.24"/>
<polygon fill="purple" stroke="purple" points="297.8,-394.18 294.3,-384.18 290.8,-394.18 297.8,-394.18"/>
<text text-anchor="middle" x="329.8" y="-405.8" font-family="Times,serif" font-size="14.00" fill="purple">Pass Data</text>
</g>
<!-- 3b67df24&#45;265a&#45;4388&#45;93ce&#45;63208b8312b7 -->
<g id="node7" class="node">
<title>3b67df24&#45;265a&#45;4388&#45;93ce&#45;63208b8312b7</title>
<ellipse fill="none" stroke="black" cx="294.3" cy="-526" rx="47.1" ry="18"/>
<text text-anchor="middle" x="294.3" y="-522.3" font-family="Times,serif" font-size="14.00">DelayAction</text>
</g>
<!-- 3b67df24&#45;265a&#45;4388&#45;93ce&#45;63208b8312b7&#45;&gt;6e9cfbab&#45;65d2&#45;4339&#45;9d5a&#45;2810d2e91123 -->
<g id="edge5" class="edge">
<title>3b67df24&#45;265a&#45;4388&#45;93ce&#45;63208b8312b7&#45;&gt;6e9cfbab&#45;65d2&#45;4339&#45;9d5a&#45;2810d2e91123</title>
<path fill="none" stroke="black" d="M294.3,-507.81C294.3,-499.79 294.3,-490.05 294.3,-481.07"/>
<polygon fill="black" stroke="black" points="297.8,-481.03 294.3,-471.03 290.8,-481.03 297.8,-481.03"/>
</g>
<!-- 8ac45242&#45;e652&#45;4eb1&#45;a2fb&#45;ed43247dde30 -->
<g id="node9" class="node">
<title>8ac45242&#45;e652&#45;4eb1&#45;a2fb&#45;ed43247dde30</title>
<ellipse fill="none" stroke="black" cx="47.3" cy="-366" rx="47.1" ry="18"/>
<text text-anchor="middle" x="47.3" y="-362.3" font-family="Times,serif" font-size="14.00">DelayAction</text>
</g>
<!-- 8ac45242&#45;e652&#45;4eb1&#45;a2fb&#45;ed43247dde30&#45;&gt;26cd1881&#45;bc54&#45;41cd&#45;9dfe&#45;4dc9af7db30e -->
<g id="edge8" class="edge">
<title>8ac45242&#45;e652&#45;4eb1&#45;a2fb&#45;ed43247dde30&#45;&gt;26cd1881&#45;bc54&#45;41cd&#45;9dfe&#45;4dc9af7db30e</title>
<path fill="none" stroke="black" d="M57.18,-348.21C64.42,-335.9 74.36,-319 82.54,-305.09"/>
<polygon fill="black" stroke="black" points="85.56,-306.86 87.61,-296.47 79.53,-303.31 85.56,-306.86"/>
</g>
<!-- 6968fa06&#45;8a58&#45;42f1&#45;a349&#45;d86bf5ca8f5b -->
<g id="node10" class="node">
<title>6968fa06&#45;8a58&#45;42f1&#45;a349&#45;d86bf5ca8f5b</title>
<ellipse fill="none" stroke="black" cx="47.3" cy="-453" rx="33.6" ry="18"/>
<text text-anchor="middle" x="47.3" y="-449.3" font-family="Times,serif" font-size="14.00">Descend</text>
</g>
<!-- 6968fa06&#45;8a58&#45;42f1&#45;a349&#45;d86bf5ca8f5b&#45;&gt;8ac45242&#45;e652&#45;4eb1&#45;a2fb&#45;ed43247dde30 -->
<g id="edge9" class="edge">
<title>6968fa06&#45;8a58&#45;42f1&#45;a349&#45;d86bf5ca8f5b&#45;&gt;8ac45242&#45;e652&#45;4eb1&#45;a2fb&#45;ed43247dde30</title>
<path fill="none" stroke="black" d="M47.3,-434.8C47.3,-423.16 47.3,-407.55 47.3,-394.24"/>
<polygon fill="black" stroke="black" points="50.8,-394.18 47.3,-384.18 43.8,-394.18 50.8,-394.18"/>
</g>
</g>
</svg>
