<?xml version="1.0" encoding="UTF-8" standalone="no"?>
<!DOCTYPE svg PUBLIC "-//W3C//DTD SVG 1.1//EN"
 "http://www.w3.org/Graphics/SVG/1.1/DTD/svg11.dtd">
<!-- Generated by graphviz version 2.43.0 (0)
 -->
<!-- Title: G Pages: 1 -->
<svg width="583pt" height="552pt"
 viewBox="0.00 0.00 582.60 552.00" xmlns="http://www.w3.org/2000/svg" xmlns:xlink="http://www.w3.org/1999/xlink">
<g id="graph0" class="graph" transform="scale(1 1) rotate(0) translate(4 548)">
<title>G</title>
<polygon fill="transparent" stroke="transparent" points="-4,4 -4,-548 578.6,-548 578.6,4 -4,4"/>
<!-- 51995def&#45;8c6d&#45;44b2&#45;916d&#45;83de7d15860e -->
<g id="node1" class="node">
<title>51995def&#45;8c6d&#45;44b2&#45;916d&#45;83de7d15860e</title>
<polygon fill="none" stroke="black" points="294.3,-384 166.67,-366 294.3,-348 421.93,-366 294.3,-384"/>
<text text-anchor="middle" x="294.3" y="-362.3" font-family="Times,serif" font-size="14.00">Consecutive True &lt; 34</text>
</g>
<!-- d7cf17eb&#45;8b1f&#45;4e1a&#45;9fcb&#45;401fda85a53d -->
<g id="node5" class="node">
<title>d7cf17eb&#45;8b1f&#45;4e1a&#45;9fcb&#45;401fda85a53d</title>
<ellipse fill="none" stroke="black" cx="86.3" cy="-279" rx="38.5" ry="18"/>
<text text-anchor="middle" x="86.3" y="-275.3" font-family="Times,serif" font-size="14.00">ConstYaw</text>
</g>
<!-- 51995def&#45;8c6d&#45;44b2&#45;916d&#45;83de7d15860e&#45;&gt;d7cf17eb&#45;8b1f&#45;4e1a&#45;9fcb&#45;401fda85a53d -->
<g id="edge6" class="edge">
<title>51995def&#45;8c6d&#45;44b2&#45;916d&#45;83de7d15860e&#45;&gt;d7cf17eb&#45;8b1f&#45;4e1a&#45;9fcb&#45;401fda85a53d</title>
<path fill="none" stroke="black" d="M263.16,-352.27C225.89,-337.04 163.53,-311.56 123.69,-295.28"/>
<polygon fill="black" stroke="black" points="124.9,-291.99 114.32,-291.45 122.25,-298.47 124.9,-291.99"/>
<text text-anchor="middle" x="220.3" y="-318.8" font-family="Times,serif" font-size="14.00">True</text>
</g>
<!-- 895c40ac&#45;4d62&#45;4eaf&#45;855a&#45;6cd63d2f48be -->
<g id="node8" class="node">
<title>895c40ac&#45;4d62&#45;4eaf&#45;855a&#45;6cd63d2f48be</title>
<ellipse fill="none" stroke="black" cx="294.3" cy="-279" rx="59.9" ry="18"/>
<text text-anchor="middle" x="294.3" y="-275.3" font-family="Times,serif" font-size="14.00">ZeroMovement</text>
</g>
<!-- 51995def&#45;8c6d&#45;44b2&#45;916d&#45;83de7d15860e&#45;&gt;895c40ac&#45;4d62&#45;4eaf&#45;855a&#45;6cd63d2f48be -->
<g id="edge7" class="edge">
<title>51995def&#45;8c6d&#45;44b2&#45;916d&#45;83de7d15860e&#45;&gt;895c40ac&#45;4d62&#45;4eaf&#45;855a&#45;6cd63d2f48be</title>
<path fill="none" stroke="black" d="M294.3,-347.8C294.3,-336.16 294.3,-320.55 294.3,-307.24"/>
<polygon fill="black" stroke="black" points="297.8,-307.18 294.3,-297.18 290.8,-307.18 297.8,-307.18"/>
<text text-anchor="middle" x="313.3" y="-318.8" font-family="Times,serif" font-size="14.00">False</text>
</g>
<!-- eb5ec8b9&#45;fe1b&#45;4d47&#45;9a23&#45;6d6817936ea2 -->
<g id="node2" class="node">
<title>eb5ec8b9&#45;fe1b&#45;4d47&#45;9a23&#45;6d6817936ea2</title>
<ellipse fill="none" stroke="black" cx="86.3" cy="-105" rx="36.1" ry="18"/>
<text text-anchor="middle" x="86.3" y="-101.3" font-family="Times,serif" font-size="14.00">SideMult</text>
</g>
<!-- 4f2f8241&#45;6201&#45;430a&#45;a491&#45;4def66dddafb -->
<g id="node3" class="node">
<title>4f2f8241&#45;6201&#45;430a&#45;a491&#45;4def66dddafb</title>
<ellipse fill="none" stroke="black" cx="86.3" cy="-18" rx="80.11" ry="18"/>
<text text-anchor="middle" x="86.3" y="-14.3" font-family="Times,serif" font-size="14.00">Stability2Movement</text>
</g>
<!-- eb5ec8b9&#45;fe1b&#45;4d47&#45;9a23&#45;6d6817936ea2&#45;&gt;4f2f8241&#45;6201&#45;430a&#45;a491&#45;4def66dddafb -->
<g id="edge1" class="edge">
<title>eb5ec8b9&#45;fe1b&#45;4d47&#45;9a23&#45;6d6817936ea2&#45;&gt;4f2f8241&#45;6201&#45;430a&#45;a491&#45;4def66dddafb</title>
<path fill="none" stroke="purple" d="M86.3,-86.8C86.3,-75.16 86.3,-59.55 86.3,-46.24"/>
<polygon fill="purple" stroke="purple" points="89.8,-46.18 86.3,-36.18 82.8,-46.18 89.8,-46.18"/>
<text text-anchor="middle" x="121.8" y="-57.8" font-family="Times,serif" font-size="14.00" fill="purple">Pass Data</text>
</g>
<!-- 482864a6&#45;28d4&#45;496f&#45;8ee4&#45;918f11d571c0 -->
<g id="node4" class="node">
<title>482864a6&#45;28d4&#45;496f&#45;8ee4&#45;918f11d571c0</title>
<ellipse fill="none" stroke="black" cx="86.3" cy="-192" rx="27" ry="18"/>
<text text-anchor="middle" x="86.3" y="-188.3" font-family="Times,serif" font-size="14.00">SetX</text>
</g>
<!-- 482864a6&#45;28d4&#45;496f&#45;8ee4&#45;918f11d571c0&#45;&gt;eb5ec8b9&#45;fe1b&#45;4d47&#45;9a23&#45;6d6817936ea2 -->
<g id="edge2" class="edge">
<title>482864a6&#45;28d4&#45;496f&#45;8ee4&#45;918f11d571c0&#45;&gt;eb5ec8b9&#45;fe1b&#45;4d47&#45;9a23&#45;6d6817936ea2</title>
<path fill="none" stroke="purple" d="M86.3,-173.8C86.3,-162.16 86.3,-146.55 86.3,-133.24"/>
<polygon fill="purple" stroke="purple" points="89.8,-133.18 86.3,-123.18 82.8,-133.18 89.8,-133.18"/>
<text text-anchor="middle" x="121.8" y="-144.8" font-family="Times,serif" font-size="14.00" fill="purple">Pass Data</text>
</g>
<!-- d7cf17eb&#45;8b1f&#45;4e1a&#45;9fcb&#45;401fda85a53d&#45;&gt;482864a6&#45;28d4&#45;496f&#45;8ee4&#45;918f11d571c0 -->
<g id="edge3" class="edge">
<title>d7cf17eb&#45;8b1f&#45;4e1a&#45;9fcb&#45;401fda85a53d&#45;&gt;482864a6&#45;28d4&#45;496f&#45;8ee4&#45;918f11d571c0</title>
<path fill="none" stroke="purple" d="M86.3,-260.8C86.3,-249.16 86.3,-233.55 86.3,-220.24"/>
<polygon fill="purple" stroke="purple" points="89.8,-220.18 86.3,-210.18 82.8,-220.18 89.8,-220.18"/>
<text text-anchor="middle" x="121.8" y="-231.8" font-family="Times,serif" font-size="14.00" fill="purple">Pass Data</text>
</g>
<!-- f0ca72ea&#45;1693&#45;43ab&#45;a7d5&#45;2c20aeb83925 -->
<g id="node6" class="node">
<title>f0ca72ea&#45;1693&#45;43ab&#45;a7d5&#45;2c20aeb83925</title>
<ellipse fill="none" stroke="black" cx="294.3" cy="-453" rx="46.4" ry="18"/>
<text text-anchor="middle" x="294.3" y="-449.3" font-family="Times,serif" font-size="14.00">AlwaysTrue</text>
</g>
<!-- f0ca72ea&#45;1693&#45;43ab&#45;a7d5&#45;2c20aeb83925&#45;&gt;51995def&#45;8c6d&#45;44b2&#45;916d&#45;83de7d15860e -->
<g id="edge4" class="edge">
<title>f0ca72ea&#45;1693&#45;43ab&#45;a7d5&#45;2c20aeb83925&#45;&gt;51995def&#45;8c6d&#45;44b2&#45;916d&#45;83de7d15860e</title>
<path fill="none" stroke="purple" d="M294.3,-434.8C294.3,-423.16 294.3,-407.55 294.3,-394.24"/>
<polygon fill="purple" stroke="purple" points="297.8,-394.18 294.3,-384.18 290.8,-394.18 297.8,-394.18"/>
<text text-anchor="middle" x="329.8" y="-405.8" font-family="Times,serif" font-size="14.00" fill="purple">Pass Data</text>
</g>
<!-- e1fffadc&#45;c656&#45;4760&#45;924d&#45;43582d1eba3b -->
<g id="node7" class="node">
<title>e1fffadc&#45;c656&#45;4760&#45;924d&#45;43582d1eba3b</title>
<ellipse fill="none" stroke="black" cx="294.3" cy="-526" rx="47.1" ry="18"/>
<text text-anchor="middle" x="294.3" y="-522.3" font-family="Times,serif" font-size="14.00">DelayAction</text>
</g>
<!-- e1fffadc&#45;c656&#45;4760&#45;924d&#45;43582d1eba3b&#45;&gt;f0ca72ea&#45;1693&#45;43ab&#45;a7d5&#45;2c20aeb83925 -->
<g id="edge5" class="edge">
<title>e1fffadc&#45;c656&#45;4760&#45;924d&#45;43582d1eba3b&#45;&gt;f0ca72ea&#45;1693&#45;43ab&#45;a7d5&#45;2c20aeb83925</title>
<path fill="none" stroke="black" d="M294.3,-507.81C294.3,-499.79 294.3,-490.05 294.3,-481.07"/>
<polygon fill="black" stroke="black" points="297.8,-481.03 294.3,-471.03 290.8,-481.03 297.8,-481.03"/>
</g>
<!-- c5017e46&#45;aab3&#45;456d&#45;afa3&#45;3e7b395b8579 -->
<g id="node9" class="node">
<title>c5017e46&#45;aab3&#45;456d&#45;afa3&#45;3e7b395b8579</title>
<ellipse fill="none" stroke="black" cx="47.3" cy="-366" rx="47.1" ry="18"/>
<text text-anchor="middle" x="47.3" y="-362.3" font-family="Times,serif" font-size="14.00">DelayAction</text>
</g>
<!-- c5017e46&#45;aab3&#45;456d&#45;afa3&#45;3e7b395b8579&#45;&gt;d7cf17eb&#45;8b1f&#45;4e1a&#45;9fcb&#45;401fda85a53d -->
<g id="edge8" class="edge">
<title>c5017e46&#45;aab3&#45;456d&#45;afa3&#45;3e7b395b8579&#45;&gt;d7cf17eb&#45;8b1f&#45;4e1a&#45;9fcb&#45;401fda85a53d</title>
<path fill="none" stroke="black" d="M55.01,-348.21C60.51,-336.22 68.02,-319.85 74.3,-306.16"/>
<polygon fill="black" stroke="black" points="77.62,-307.31 78.61,-296.76 71.26,-304.39 77.62,-307.31"/>
</g>
<!-- 367b608f&#45;ea69&#45;4ba4&#45;a831&#45;1c4b5cec4c26 -->
<g id="node10" class="node">
<title>367b608f&#45;ea69&#45;4ba4&#45;a831&#45;1c4b5cec4c26</title>
<ellipse fill="none" stroke="black" cx="494.3" cy="-526" rx="80.11" ry="18"/>
<text text-anchor="middle" x="494.3" y="-522.3" font-family="Times,serif" font-size="14.00">Stability2Movement</text>
</g>
</g>
</svg>
