<?xml version="1.0" encoding="UTF-8" standalone="no"?>
<!DOCTYPE svg PUBLIC "-//W3C//DTD SVG 1.1//EN"
 "http://www.w3.org/Graphics/SVG/1.1/DTD/svg11.dtd">
<!-- Generated by graphviz version 2.43.0 (0)
 -->
<!-- Title: G Pages: 1 -->
<svg width="318pt" height="987pt"
 viewBox="0.00 0.00 318.29 987.00" xmlns="http://www.w3.org/2000/svg" xmlns:xlink="http://www.w3.org/1999/xlink">
<g id="graph0" class="graph" transform="scale(1 1) rotate(0) translate(4 983)">
<title>G</title>
<polygon fill="transparent" stroke="transparent" points="-4,4 -4,-983 314.29,-983 314.29,4 -4,4"/>
<!-- 632583dc&#45;9428&#45;4080&#45;b59c&#45;ed7f058a6072 -->
<g id="node1" class="node">
<title>632583dc&#45;9428&#45;4080&#45;b59c&#45;ed7f058a6072</title>
<polygon fill="none" stroke="black" points="65.34,-906 0.16,-888 65.34,-870 130.52,-888 65.34,-906"/>
<text text-anchor="middle" x="65.34" y="-884.3" font-family="Times,serif" font-size="14.00">AlwaysTrue</text>
</g>
<!-- 99d406eb&#45;cd01&#45;469a&#45;bdda&#45;5fc1771a050c -->
<g id="node11" class="node">
<title>99d406eb&#45;cd01&#45;469a&#45;bdda&#45;5fc1771a050c</title>
<ellipse fill="none" stroke="black" cx="103.34" cy="-801" rx="46.5" ry="18"/>
<text text-anchor="middle" x="103.34" y="-797.3" font-family="Times,serif" font-size="14.00">VisionNorm</text>
</g>
<!-- 632583dc&#45;9428&#45;4080&#45;b59c&#45;ed7f058a6072&#45;&gt;99d406eb&#45;cd01&#45;469a&#45;bdda&#45;5fc1771a050c -->
<g id="edge10" class="edge">
<title>632583dc&#45;9428&#45;4080&#45;b59c&#45;ed7f058a6072&#45;&gt;99d406eb&#45;cd01&#45;469a&#45;bdda&#45;5fc1771a050c</title>
<path fill="none" stroke="black" d="M72.13,-871.8C77.54,-859.7 85.25,-842.47 91.65,-828.16"/>
<polygon fill="black" stroke="black" points="94.94,-829.37 95.82,-818.81 88.55,-826.51 94.94,-829.37"/>
<text text-anchor="middle" x="104.34" y="-840.8" font-family="Times,serif" font-size="14.00">True</text>
</g>
<!-- d285142a&#45;33bc&#45;4093&#45;bf47&#45;1e01c52b16f3 -->
<g id="node2" class="node">
<title>d285142a&#45;33bc&#45;4093&#45;bf47&#45;1e01c52b16f3</title>
<ellipse fill="none" stroke="black" cx="103.34" cy="-105" rx="27" ry="18"/>
<text text-anchor="middle" x="103.34" y="-101.3" font-family="Times,serif" font-size="14.00">FlatX</text>
</g>
<!-- 91e8fbcb&#45;4fa1&#45;45bc&#45;a11d&#45;648b4976620c -->
<g id="node3" class="node">
<title>91e8fbcb&#45;4fa1&#45;45bc&#45;a11d&#45;648b4976620c</title>
<ellipse fill="none" stroke="black" cx="103.34" cy="-18" rx="80.11" ry="18"/>
<text text-anchor="middle" x="103.34" y="-14.3" font-family="Times,serif" font-size="14.00">Stability2Movement</text>
</g>
<!-- d285142a&#45;33bc&#45;4093&#45;bf47&#45;1e01c52b16f3&#45;&gt;91e8fbcb&#45;4fa1&#45;45bc&#45;a11d&#45;648b4976620c -->
<g id="edge1" class="edge">
<title>d285142a&#45;33bc&#45;4093&#45;bf47&#45;1e01c52b16f3&#45;&gt;91e8fbcb&#45;4fa1&#45;45bc&#45;a11d&#45;648b4976620c</title>
<path fill="none" stroke="purple" d="M103.34,-86.8C103.34,-75.16 103.34,-59.55 103.34,-46.24"/>
<polygon fill="purple" stroke="purple" points="106.84,-46.18 103.34,-36.18 99.84,-46.18 106.84,-46.18"/>
<text text-anchor="middle" x="138.84" y="-57.8" font-family="Times,serif" font-size="14.00" fill="purple">Pass Data</text>
</g>
<!-- 479ecbc1&#45;87cd&#45;496a&#45;a6fd&#45;77ac4e1ce6a3 -->
<g id="node4" class="node">
<title>479ecbc1&#45;87cd&#45;496a&#45;a6fd&#45;77ac4e1ce6a3</title>
<ellipse fill="none" stroke="black" cx="103.34" cy="-192" rx="27" ry="18"/>
<text text-anchor="middle" x="103.34" y="-188.3" font-family="Times,serif" font-size="14.00">StripY</text>
</g>
<!-- 479ecbc1&#45;87cd&#45;496a&#45;a6fd&#45;77ac4e1ce6a3&#45;&gt;d285142a&#45;33bc&#45;4093&#45;bf47&#45;1e01c52b16f3 -->
<g id="edge2" class="edge">
<title>479ecbc1&#45;87cd&#45;496a&#45;a6fd&#45;77ac4e1ce6a3&#45;&gt;d285142a&#45;33bc&#45;4093&#45;bf47&#45;1e01c52b16f3</title>
<path fill="none" stroke="purple" d="M103.34,-173.8C103.34,-162.16 103.34,-146.55 103.34,-133.24"/>
<polygon fill="purple" stroke="purple" points="106.84,-133.18 103.34,-123.18 99.84,-133.18 106.84,-133.18"/>
<text text-anchor="middle" x="138.84" y="-144.8" font-family="Times,serif" font-size="14.00" fill="purple">Pass Data</text>
</g>
<!-- 2020dd22&#45;04fc&#45;4423&#45;bf5a&#45;02bf4153d5ab -->
<g id="node5" class="node">
<title>2020dd22&#45;04fc&#45;4423&#45;bf5a&#45;02bf4153d5ab</title>
<ellipse fill="none" stroke="black" cx="103.34" cy="-279" rx="52.6" ry="18"/>
<text text-anchor="middle" x="103.34" y="-275.3" font-family="Times,serif" font-size="14.00">Anon Closure</text>
</g>
<!-- 2020dd22&#45;04fc&#45;4423&#45;bf5a&#45;02bf4153d5ab&#45;&gt;479ecbc1&#45;87cd&#45;496a&#45;a6fd&#45;77ac4e1ce6a3 -->
<g id="edge3" class="edge">
<title>2020dd22&#45;04fc&#45;4423&#45;bf5a&#45;02bf4153d5ab&#45;&gt;479ecbc1&#45;87cd&#45;496a&#45;a6fd&#45;77ac4e1ce6a3</title>
<path fill="none" stroke="purple" d="M103.34,-260.8C103.34,-249.16 103.34,-233.55 103.34,-220.24"/>
<polygon fill="purple" stroke="purple" points="106.84,-220.18 103.34,-210.18 99.84,-220.18 106.84,-220.18"/>
<text text-anchor="middle" x="138.84" y="-231.8" font-family="Times,serif" font-size="14.00" fill="purple">Pass Data</text>
</g>
<!-- 9ae250e0&#45;e4b2&#45;4221&#45;8fa8&#45;8b57873531f2 -->
<g id="node6" class="node">
<title>9ae250e0&#45;e4b2&#45;4221&#45;8fa8&#45;8b57873531f2</title>
<ellipse fill="none" stroke="black" cx="103.34" cy="-366" rx="51.3" ry="18"/>
<text text-anchor="middle" x="103.34" y="-362.3" font-family="Times,serif" font-size="14.00">OffsetToPose</text>
</g>
<!-- 9ae250e0&#45;e4b2&#45;4221&#45;8fa8&#45;8b57873531f2&#45;&gt;2020dd22&#45;04fc&#45;4423&#45;bf5a&#45;02bf4153d5ab -->
<g id="edge4" class="edge">
<title>9ae250e0&#45;e4b2&#45;4221&#45;8fa8&#45;8b57873531f2&#45;&gt;2020dd22&#45;04fc&#45;4423&#45;bf5a&#45;02bf4153d5ab</title>
<path fill="none" stroke="purple" d="M103.34,-347.8C103.34,-336.16 103.34,-320.55 103.34,-307.24"/>
<polygon fill="purple" stroke="purple" points="106.84,-307.18 103.34,-297.18 99.84,-307.18 106.84,-307.18"/>
<text text-anchor="middle" x="138.84" y="-318.8" font-family="Times,serif" font-size="14.00" fill="purple">Pass Data</text>
</g>
<!-- 15159fc2&#45;6592&#45;4663&#45;869f&#45;a137b2ed6d3b -->
<g id="node7" class="node">
<title>15159fc2&#45;6592&#45;4663&#45;869f&#45;a137b2ed6d3b</title>
<ellipse fill="none" stroke="black" cx="103.34" cy="-453" rx="32.4" ry="18"/>
<text text-anchor="middle" x="103.34" y="-449.3" font-family="Times,serif" font-size="14.00">Average</text>
</g>
<!-- 15159fc2&#45;6592&#45;4663&#45;869f&#45;a137b2ed6d3b&#45;&gt;9ae250e0&#45;e4b2&#45;4221&#45;8fa8&#45;8b57873531f2 -->
<g id="edge5" class="edge">
<title>15159fc2&#45;6592&#45;4663&#45;869f&#45;a137b2ed6d3b&#45;&gt;9ae250e0&#45;e4b2&#45;4221&#45;8fa8&#45;8b57873531f2</title>
<path fill="none" stroke="purple" d="M103.34,-434.8C103.34,-423.16 103.34,-407.55 103.34,-394.24"/>
<polygon fill="purple" stroke="purple" points="106.84,-394.18 103.34,-384.18 99.84,-394.18 106.84,-394.18"/>
<text text-anchor="middle" x="138.84" y="-405.8" font-family="Times,serif" font-size="14.00" fill="purple">Pass Data</text>
</g>
<!-- 67c7670d&#45;cd6d&#45;4c99&#45;8113&#45;90d23b46380f -->
<g id="node8" class="node">
<title>67c7670d&#45;cd6d&#45;4c99&#45;8113&#45;90d23b46380f</title>
<ellipse fill="none" stroke="black" cx="103.34" cy="-540" rx="61.1" ry="18"/>
<text text-anchor="middle" x="103.34" y="-536.3" font-family="Times,serif" font-size="14.00">ExtractPosition</text>
</g>
<!-- 67c7670d&#45;cd6d&#45;4c99&#45;8113&#45;90d23b46380f&#45;&gt;15159fc2&#45;6592&#45;4663&#45;869f&#45;a137b2ed6d3b -->
<g id="edge6" class="edge">
<title>67c7670d&#45;cd6d&#45;4c99&#45;8113&#45;90d23b46380f&#45;&gt;15159fc2&#45;6592&#45;4663&#45;869f&#45;a137b2ed6d3b</title>
<path fill="none" stroke="purple" d="M103.34,-521.8C103.34,-510.16 103.34,-494.55 103.34,-481.24"/>
<polygon fill="purple" stroke="purple" points="106.84,-481.18 103.34,-471.18 99.84,-481.18 106.84,-481.18"/>
<text text-anchor="middle" x="138.84" y="-492.8" font-family="Times,serif" font-size="14.00" fill="purple">Pass Data</text>
</g>
<!-- 9907cf67&#45;0154&#45;405a&#45;9e97&#45;581e0da4e227 -->
<g id="node9" class="node">
<title>9907cf67&#45;0154&#45;405a&#45;9e97&#45;581e0da4e227</title>
<ellipse fill="none" stroke="black" cx="103.34" cy="-627" rx="27" ry="18"/>
<text text-anchor="middle" x="103.34" y="-623.3" font-family="Times,serif" font-size="14.00">ToVec</text>
</g>
<!-- 9907cf67&#45;0154&#45;405a&#45;9e97&#45;581e0da4e227&#45;&gt;67c7670d&#45;cd6d&#45;4c99&#45;8113&#45;90d23b46380f -->
<g id="edge7" class="edge">
<title>9907cf67&#45;0154&#45;405a&#45;9e97&#45;581e0da4e227&#45;&gt;67c7670d&#45;cd6d&#45;4c99&#45;8113&#45;90d23b46380f</title>
<path fill="none" stroke="purple" d="M103.34,-608.8C103.34,-597.16 103.34,-581.55 103.34,-568.24"/>
<polygon fill="purple" stroke="purple" points="106.84,-568.18 103.34,-558.18 99.84,-568.18 106.84,-568.18"/>
<text text-anchor="middle" x="138.84" y="-579.8" font-family="Times,serif" font-size="14.00" fill="purple">Pass Data</text>
</g>
<!-- 93addf51&#45;0d88&#45;4e39&#45;b6fc&#45;56221f5d1d02 -->
<g id="node10" class="node">
<title>93addf51&#45;0d88&#45;4e39&#45;b6fc&#45;56221f5d1d02</title>
<ellipse fill="none" stroke="black" cx="103.34" cy="-714" rx="45.2" ry="18"/>
<text text-anchor="middle" x="103.34" y="-710.3" font-family="Times,serif" font-size="14.00">Detect true</text>
</g>
<!-- 93addf51&#45;0d88&#45;4e39&#45;b6fc&#45;56221f5d1d02&#45;&gt;9907cf67&#45;0154&#45;405a&#45;9e97&#45;581e0da4e227 -->
<g id="edge8" class="edge">
<title>93addf51&#45;0d88&#45;4e39&#45;b6fc&#45;56221f5d1d02&#45;&gt;9907cf67&#45;0154&#45;405a&#45;9e97&#45;581e0da4e227</title>
<path fill="none" stroke="purple" d="M103.34,-695.8C103.34,-684.16 103.34,-668.55 103.34,-655.24"/>
<polygon fill="purple" stroke="purple" points="106.84,-655.18 103.34,-645.18 99.84,-655.18 106.84,-655.18"/>
<text text-anchor="middle" x="138.84" y="-666.8" font-family="Times,serif" font-size="14.00" fill="purple">Pass Data</text>
</g>
<!-- 99d406eb&#45;cd01&#45;469a&#45;bdda&#45;5fc1771a050c&#45;&gt;93addf51&#45;0d88&#45;4e39&#45;b6fc&#45;56221f5d1d02 -->
<g id="edge9" class="edge">
<title>99d406eb&#45;cd01&#45;469a&#45;bdda&#45;5fc1771a050c&#45;&gt;93addf51&#45;0d88&#45;4e39&#45;b6fc&#45;56221f5d1d02</title>
<path fill="none" stroke="purple" d="M103.34,-782.8C103.34,-771.16 103.34,-755.55 103.34,-742.24"/>
<polygon fill="purple" stroke="purple" points="106.84,-742.18 103.34,-732.18 99.84,-742.18 106.84,-742.18"/>
<text text-anchor="middle" x="138.84" y="-753.8" font-family="Times,serif" font-size="14.00" fill="purple">Pass Data</text>
</g>
<!-- 3f2fb28a&#45;7177&#45;4f6e&#45;a76a&#45;37d3aec69d8e -->
<g id="node12" class="node">
<title>3f2fb28a&#45;7177&#45;4f6e&#45;a76a&#45;37d3aec69d8e</title>
<ellipse fill="none" stroke="black" cx="250.34" cy="-888" rx="47.1" ry="18"/>
<text text-anchor="middle" x="250.34" y="-884.3" font-family="Times,serif" font-size="14.00">DelayAction</text>
</g>
<!-- 3f2fb28a&#45;7177&#45;4f6e&#45;a76a&#45;37d3aec69d8e&#45;&gt;99d406eb&#45;cd01&#45;469a&#45;bdda&#45;5fc1771a050c -->
<g id="edge11" class="edge">
<title>3f2fb28a&#45;7177&#45;4f6e&#45;a76a&#45;37d3aec69d8e&#45;&gt;99d406eb&#45;cd01&#45;469a&#45;bdda&#45;5fc1771a050c</title>
<path fill="none" stroke="black" d="M225.4,-872.58C201.12,-858.54 164.03,-837.09 137.1,-821.52"/>
<polygon fill="black" stroke="black" points="138.81,-818.47 128.4,-816.49 135.3,-824.53 138.81,-818.47"/>
</g>
<!-- 9f90c175&#45;0c61&#45;4bde&#45;a8ef&#45;eb88b2561d7b -->
<g id="node13" class="node">
<title>9f90c175&#45;0c61&#45;4bde&#45;a8ef&#45;eb88b2561d7b</title>
<ellipse fill="none" stroke="black" cx="250.34" cy="-961" rx="59.9" ry="18"/>
<text text-anchor="middle" x="250.34" y="-957.3" font-family="Times,serif" font-size="14.00">ZeroMovement</text>
</g>
<!-- 9f90c175&#45;0c61&#45;4bde&#45;a8ef&#45;eb88b2561d7b&#45;&gt;3f2fb28a&#45;7177&#45;4f6e&#45;a76a&#45;37d3aec69d8e -->
<g id="edge12" class="edge">
<title>9f90c175&#45;0c61&#45;4bde&#45;a8ef&#45;eb88b2561d7b&#45;&gt;3f2fb28a&#45;7177&#45;4f6e&#45;a76a&#45;37d3aec69d8e</title>
<path fill="none" stroke="black" d="M250.34,-942.81C250.34,-934.79 250.34,-925.05 250.34,-916.07"/>
<polygon fill="black" stroke="black" points="253.84,-916.03 250.34,-906.03 246.84,-916.03 253.84,-916.03"/>
</g>
</g>
</svg>
