<?xml version="1.0" encoding="UTF-8" standalone="no"?>
<!DOCTYPE svg PUBLIC "-//W3C//DTD SVG 1.1//EN"
 "http://www.w3.org/Graphics/SVG/1.1/DTD/svg11.dtd">
<!-- Generated by graphviz version 2.43.0 (0)
 -->
<!-- Title: G Pages: 1 -->
<svg width="318pt" height="987pt"
 viewBox="0.00 0.00 318.29 987.00" xmlns="http://www.w3.org/2000/svg" xmlns:xlink="http://www.w3.org/1999/xlink">
<g id="graph0" class="graph" transform="scale(1 1) rotate(0) translate(4 983)">
<title>G</title>
<polygon fill="transparent" stroke="transparent" points="-4,4 -4,-983 314.29,-983 314.29,4 -4,4"/>
<!-- 6339503f&#45;cb10&#45;4c6c&#45;a3d3&#45;3e9d6eedac34 -->
<g id="node1" class="node">
<title>6339503f&#45;cb10&#45;4c6c&#45;a3d3&#45;3e9d6eedac34</title>
<polygon fill="none" stroke="black" points="65.34,-906 0.16,-888 65.34,-870 130.52,-888 65.34,-906"/>
<text text-anchor="middle" x="65.34" y="-884.3" font-family="Times,serif" font-size="14.00">AlwaysTrue</text>
</g>
<!-- 396b0120&#45;0b84&#45;4a98&#45;a91e&#45;76de30b7c2bc -->
<g id="node11" class="node">
<title>396b0120&#45;0b84&#45;4a98&#45;a91e&#45;76de30b7c2bc</title>
<ellipse fill="none" stroke="black" cx="103.34" cy="-801" rx="46.5" ry="18"/>
<text text-anchor="middle" x="103.34" y="-797.3" font-family="Times,serif" font-size="14.00">VisionNorm</text>
</g>
<!-- 6339503f&#45;cb10&#45;4c6c&#45;a3d3&#45;3e9d6eedac34&#45;&gt;396b0120&#45;0b84&#45;4a98&#45;a91e&#45;76de30b7c2bc -->
<g id="edge10" class="edge">
<title>6339503f&#45;cb10&#45;4c6c&#45;a3d3&#45;3e9d6eedac34&#45;&gt;396b0120&#45;0b84&#45;4a98&#45;a91e&#45;76de30b7c2bc</title>
<path fill="none" stroke="black" d="M72.13,-871.8C77.54,-859.7 85.25,-842.47 91.65,-828.16"/>
<polygon fill="black" stroke="black" points="94.94,-829.37 95.82,-818.81 88.55,-826.51 94.94,-829.37"/>
<text text-anchor="middle" x="104.34" y="-840.8" font-family="Times,serif" font-size="14.00">True</text>
</g>
<!-- 837b1f07&#45;b695&#45;4cb4&#45;8a83&#45;2fd465b7efaf -->
<g id="node2" class="node">
<title>837b1f07&#45;b695&#45;4cb4&#45;8a83&#45;2fd465b7efaf</title>
<ellipse fill="none" stroke="black" cx="103.34" cy="-105" rx="27" ry="18"/>
<text text-anchor="middle" x="103.34" y="-101.3" font-family="Times,serif" font-size="14.00">FlatX</text>
</g>
<!-- 52ceaa40&#45;1a37&#45;43f4&#45;a3b7&#45;77ef5b37cd11 -->
<g id="node3" class="node">
<title>52ceaa40&#45;1a37&#45;43f4&#45;a3b7&#45;77ef5b37cd11</title>
<ellipse fill="none" stroke="black" cx="103.34" cy="-18" rx="80.11" ry="18"/>
<text text-anchor="middle" x="103.34" y="-14.3" font-family="Times,serif" font-size="14.00">Stability2Movement</text>
</g>
<!-- 837b1f07&#45;b695&#45;4cb4&#45;8a83&#45;2fd465b7efaf&#45;&gt;52ceaa40&#45;1a37&#45;43f4&#45;a3b7&#45;77ef5b37cd11 -->
<g id="edge1" class="edge">
<title>837b1f07&#45;b695&#45;4cb4&#45;8a83&#45;2fd465b7efaf&#45;&gt;52ceaa40&#45;1a37&#45;43f4&#45;a3b7&#45;77ef5b37cd11</title>
<path fill="none" stroke="purple" d="M103.34,-86.8C103.34,-75.16 103.34,-59.55 103.34,-46.24"/>
<polygon fill="purple" stroke="purple" points="106.84,-46.18 103.34,-36.18 99.84,-46.18 106.84,-46.18"/>
<text text-anchor="middle" x="138.84" y="-57.8" font-family="Times,serif" font-size="14.00" fill="purple">Pass Data</text>
</g>
<!-- b93ef9f4&#45;feb7&#45;4c04&#45;9625&#45;418abcc99f2f -->
<g id="node4" class="node">
<title>b93ef9f4&#45;feb7&#45;4c04&#45;9625&#45;418abcc99f2f</title>
<ellipse fill="none" stroke="black" cx="103.34" cy="-192" rx="27" ry="18"/>
<text text-anchor="middle" x="103.34" y="-188.3" font-family="Times,serif" font-size="14.00">StripY</text>
</g>
<!-- b93ef9f4&#45;feb7&#45;4c04&#45;9625&#45;418abcc99f2f&#45;&gt;837b1f07&#45;b695&#45;4cb4&#45;8a83&#45;2fd465b7efaf -->
<g id="edge2" class="edge">
<title>b93ef9f4&#45;feb7&#45;4c04&#45;9625&#45;418abcc99f2f&#45;&gt;837b1f07&#45;b695&#45;4cb4&#45;8a83&#45;2fd465b7efaf</title>
<path fill="none" stroke="purple" d="M103.34,-173.8C103.34,-162.16 103.34,-146.55 103.34,-133.24"/>
<polygon fill="purple" stroke="purple" points="106.84,-133.18 103.34,-123.18 99.84,-133.18 106.84,-133.18"/>
<text text-anchor="middle" x="138.84" y="-144.8" font-family="Times,serif" font-size="14.00" fill="purple">Pass Data</text>
</g>
<!-- 3fed59c2&#45;1eef&#45;4088&#45;892d&#45;260a9ae5307b -->
<g id="node5" class="node">
<title>3fed59c2&#45;1eef&#45;4088&#45;892d&#45;260a9ae5307b</title>
<ellipse fill="none" stroke="black" cx="103.34" cy="-279" rx="52.6" ry="18"/>
<text text-anchor="middle" x="103.34" y="-275.3" font-family="Times,serif" font-size="14.00">Anon Closure</text>
</g>
<!-- 3fed59c2&#45;1eef&#45;4088&#45;892d&#45;260a9ae5307b&#45;&gt;b93ef9f4&#45;feb7&#45;4c04&#45;9625&#45;418abcc99f2f -->
<g id="edge3" class="edge">
<title>3fed59c2&#45;1eef&#45;4088&#45;892d&#45;260a9ae5307b&#45;&gt;b93ef9f4&#45;feb7&#45;4c04&#45;9625&#45;418abcc99f2f</title>
<path fill="none" stroke="purple" d="M103.34,-260.8C103.34,-249.16 103.34,-233.55 103.34,-220.24"/>
<polygon fill="purple" stroke="purple" points="106.84,-220.18 103.34,-210.18 99.84,-220.18 106.84,-220.18"/>
<text text-anchor="middle" x="138.84" y="-231.8" font-family="Times,serif" font-size="14.00" fill="purple">Pass Data</text>
</g>
<!-- c4fd5c91&#45;c136&#45;4212&#45;9b6d&#45;a4f0df27a398 -->
<g id="node6" class="node">
<title>c4fd5c91&#45;c136&#45;4212&#45;9b6d&#45;a4f0df27a398</title>
<ellipse fill="none" stroke="black" cx="103.34" cy="-366" rx="51.3" ry="18"/>
<text text-anchor="middle" x="103.34" y="-362.3" font-family="Times,serif" font-size="14.00">OffsetToPose</text>
</g>
<!-- c4fd5c91&#45;c136&#45;4212&#45;9b6d&#45;a4f0df27a398&#45;&gt;3fed59c2&#45;1eef&#45;4088&#45;892d&#45;260a9ae5307b -->
<g id="edge4" class="edge">
<title>c4fd5c91&#45;c136&#45;4212&#45;9b6d&#45;a4f0df27a398&#45;&gt;3fed59c2&#45;1eef&#45;4088&#45;892d&#45;260a9ae5307b</title>
<path fill="none" stroke="purple" d="M103.34,-347.8C103.34,-336.16 103.34,-320.55 103.34,-307.24"/>
<polygon fill="purple" stroke="purple" points="106.84,-307.18 103.34,-297.18 99.84,-307.18 106.84,-307.18"/>
<text text-anchor="middle" x="138.84" y="-318.8" font-family="Times,serif" font-size="14.00" fill="purple">Pass Data</text>
</g>
<!-- fdd08623&#45;399a&#45;4cf0&#45;ac3a&#45;3c078c5d7f02 -->
<g id="node7" class="node">
<title>fdd08623&#45;399a&#45;4cf0&#45;ac3a&#45;3c078c5d7f02</title>
<ellipse fill="none" stroke="black" cx="103.34" cy="-453" rx="32.4" ry="18"/>
<text text-anchor="middle" x="103.34" y="-449.3" font-family="Times,serif" font-size="14.00">Average</text>
</g>
<!-- fdd08623&#45;399a&#45;4cf0&#45;ac3a&#45;3c078c5d7f02&#45;&gt;c4fd5c91&#45;c136&#45;4212&#45;9b6d&#45;a4f0df27a398 -->
<g id="edge5" class="edge">
<title>fdd08623&#45;399a&#45;4cf0&#45;ac3a&#45;3c078c5d7f02&#45;&gt;c4fd5c91&#45;c136&#45;4212&#45;9b6d&#45;a4f0df27a398</title>
<path fill="none" stroke="purple" d="M103.34,-434.8C103.34,-423.16 103.34,-407.55 103.34,-394.24"/>
<polygon fill="purple" stroke="purple" points="106.84,-394.18 103.34,-384.18 99.84,-394.18 106.84,-394.18"/>
<text text-anchor="middle" x="138.84" y="-405.8" font-family="Times,serif" font-size="14.00" fill="purple">Pass Data</text>
</g>
<!-- a8530e7f&#45;7473&#45;495f&#45;955d&#45;19d801f44a93 -->
<g id="node8" class="node">
<title>a8530e7f&#45;7473&#45;495f&#45;955d&#45;19d801f44a93</title>
<ellipse fill="none" stroke="black" cx="103.34" cy="-540" rx="61.1" ry="18"/>
<text text-anchor="middle" x="103.34" y="-536.3" font-family="Times,serif" font-size="14.00">ExtractPosition</text>
</g>
<!-- a8530e7f&#45;7473&#45;495f&#45;955d&#45;19d801f44a93&#45;&gt;fdd08623&#45;399a&#45;4cf0&#45;ac3a&#45;3c078c5d7f02 -->
<g id="edge6" class="edge">
<title>a8530e7f&#45;7473&#45;495f&#45;955d&#45;19d801f44a93&#45;&gt;fdd08623&#45;399a&#45;4cf0&#45;ac3a&#45;3c078c5d7f02</title>
<path fill="none" stroke="purple" d="M103.34,-521.8C103.34,-510.16 103.34,-494.55 103.34,-481.24"/>
<polygon fill="purple" stroke="purple" points="106.84,-481.18 103.34,-471.18 99.84,-481.18 106.84,-481.18"/>
<text text-anchor="middle" x="138.84" y="-492.8" font-family="Times,serif" font-size="14.00" fill="purple">Pass Data</text>
</g>
<!-- 2c736b8f&#45;1edd&#45;4e13&#45;9dbe&#45;b31dfbc84828 -->
<g id="node9" class="node">
<title>2c736b8f&#45;1edd&#45;4e13&#45;9dbe&#45;b31dfbc84828</title>
<ellipse fill="none" stroke="black" cx="103.34" cy="-627" rx="27" ry="18"/>
<text text-anchor="middle" x="103.34" y="-623.3" font-family="Times,serif" font-size="14.00">ToVec</text>
</g>
<!-- 2c736b8f&#45;1edd&#45;4e13&#45;9dbe&#45;b31dfbc84828&#45;&gt;a8530e7f&#45;7473&#45;495f&#45;955d&#45;19d801f44a93 -->
<g id="edge7" class="edge">
<title>2c736b8f&#45;1edd&#45;4e13&#45;9dbe&#45;b31dfbc84828&#45;&gt;a8530e7f&#45;7473&#45;495f&#45;955d&#45;19d801f44a93</title>
<path fill="none" stroke="purple" d="M103.34,-608.8C103.34,-597.16 103.34,-581.55 103.34,-568.24"/>
<polygon fill="purple" stroke="purple" points="106.84,-568.18 103.34,-558.18 99.84,-568.18 106.84,-568.18"/>
<text text-anchor="middle" x="138.84" y="-579.8" font-family="Times,serif" font-size="14.00" fill="purple">Pass Data</text>
</g>
<!-- 311637e8&#45;4bde&#45;4466&#45;9e90&#45;15e76586fc31 -->
<g id="node10" class="node">
<title>311637e8&#45;4bde&#45;4466&#45;9e90&#45;15e76586fc31</title>
<ellipse fill="none" stroke="black" cx="103.34" cy="-714" rx="45.2" ry="18"/>
<text text-anchor="middle" x="103.34" y="-710.3" font-family="Times,serif" font-size="14.00">Detect true</text>
</g>
<!-- 311637e8&#45;4bde&#45;4466&#45;9e90&#45;15e76586fc31&#45;&gt;2c736b8f&#45;1edd&#45;4e13&#45;9dbe&#45;b31dfbc84828 -->
<g id="edge8" class="edge">
<title>311637e8&#45;4bde&#45;4466&#45;9e90&#45;15e76586fc31&#45;&gt;2c736b8f&#45;1edd&#45;4e13&#45;9dbe&#45;b31dfbc84828</title>
<path fill="none" stroke="purple" d="M103.34,-695.8C103.34,-684.16 103.34,-668.55 103.34,-655.24"/>
<polygon fill="purple" stroke="purple" points="106.84,-655.18 103.34,-645.18 99.84,-655.18 106.84,-655.18"/>
<text text-anchor="middle" x="138.84" y="-666.8" font-family="Times,serif" font-size="14.00" fill="purple">Pass Data</text>
</g>
<!-- 396b0120&#45;0b84&#45;4a98&#45;a91e&#45;76de30b7c2bc&#45;&gt;311637e8&#45;4bde&#45;4466&#45;9e90&#45;15e76586fc31 -->
<g id="edge9" class="edge">
<title>396b0120&#45;0b84&#45;4a98&#45;a91e&#45;76de30b7c2bc&#45;&gt;311637e8&#45;4bde&#45;4466&#45;9e90&#45;15e76586fc31</title>
<path fill="none" stroke="purple" d="M103.34,-782.8C103.34,-771.16 103.34,-755.55 103.34,-742.24"/>
<polygon fill="purple" stroke="purple" points="106.84,-742.18 103.34,-732.18 99.84,-742.18 106.84,-742.18"/>
<text text-anchor="middle" x="138.84" y="-753.8" font-family="Times,serif" font-size="14.00" fill="purple">Pass Data</text>
</g>
<!-- 1bf0abc4&#45;0148&#45;4c53&#45;bbc0&#45;ae289d91a80c -->
<g id="node12" class="node">
<title>1bf0abc4&#45;0148&#45;4c53&#45;bbc0&#45;ae289d91a80c</title>
<ellipse fill="none" stroke="black" cx="250.34" cy="-888" rx="47.1" ry="18"/>
<text text-anchor="middle" x="250.34" y="-884.3" font-family="Times,serif" font-size="14.00">DelayAction</text>
</g>
<!-- 1bf0abc4&#45;0148&#45;4c53&#45;bbc0&#45;ae289d91a80c&#45;&gt;396b0120&#45;0b84&#45;4a98&#45;a91e&#45;76de30b7c2bc -->
<g id="edge11" class="edge">
<title>1bf0abc4&#45;0148&#45;4c53&#45;bbc0&#45;ae289d91a80c&#45;&gt;396b0120&#45;0b84&#45;4a98&#45;a91e&#45;76de30b7c2bc</title>
<path fill="none" stroke="black" d="M225.4,-872.58C201.12,-858.54 164.03,-837.09 137.1,-821.52"/>
<polygon fill="black" stroke="black" points="138.81,-818.47 128.4,-816.49 135.3,-824.53 138.81,-818.47"/>
</g>
<!-- be06b38f&#45;2aa8&#45;43da&#45;a2b0&#45;1c5ee4ffcc7e -->
<g id="node13" class="node">
<title>be06b38f&#45;2aa8&#45;43da&#45;a2b0&#45;1c5ee4ffcc7e</title>
<ellipse fill="none" stroke="black" cx="250.34" cy="-961" rx="59.9" ry="18"/>
<text text-anchor="middle" x="250.34" y="-957.3" font-family="Times,serif" font-size="14.00">ZeroMovement</text>
</g>
<!-- be06b38f&#45;2aa8&#45;43da&#45;a2b0&#45;1c5ee4ffcc7e&#45;&gt;1bf0abc4&#45;0148&#45;4c53&#45;bbc0&#45;ae289d91a80c -->
<g id="edge12" class="edge">
<title>be06b38f&#45;2aa8&#45;43da&#45;a2b0&#45;1c5ee4ffcc7e&#45;&gt;1bf0abc4&#45;0148&#45;4c53&#45;bbc0&#45;ae289d91a80c</title>
<path fill="none" stroke="black" d="M250.34,-942.81C250.34,-934.79 250.34,-925.05 250.34,-916.07"/>
<polygon fill="black" stroke="black" points="253.84,-916.03 250.34,-906.03 246.84,-916.03 253.84,-916.03"/>
</g>
</g>
</svg>
