<?xml version="1.0" encoding="UTF-8" standalone="no"?>
<!DOCTYPE svg PUBLIC "-//W3C//DTD SVG 1.1//EN"
 "http://www.w3.org/Graphics/SVG/1.1/DTD/svg11.dtd">
<!-- Generated by graphviz version 2.43.0 (0)
 -->
<!-- Title: G Pages: 1 -->
<svg width="583pt" height="552pt"
 viewBox="0.00 0.00 582.60 552.00" xmlns="http://www.w3.org/2000/svg" xmlns:xlink="http://www.w3.org/1999/xlink">
<g id="graph0" class="graph" transform="scale(1 1) rotate(0) translate(4 548)">
<title>G</title>
<polygon fill="transparent" stroke="transparent" points="-4,4 -4,-548 578.6,-548 578.6,4 -4,4"/>
<!-- 67cf0d35&#45;b0aa&#45;4fc4&#45;acfc&#45;8ed62b076eaa -->
<g id="node1" class="node">
<title>67cf0d35&#45;b0aa&#45;4fc4&#45;acfc&#45;8ed62b076eaa</title>
<polygon fill="none" stroke="black" points="294.3,-384 166.67,-366 294.3,-348 421.93,-366 294.3,-384"/>
<text text-anchor="middle" x="294.3" y="-362.3" font-family="Times,serif" font-size="14.00">Consecutive True &lt; 34</text>
</g>
<!-- 6caaa2b1&#45;6600&#45;4e62&#45;bdb3&#45;e29b4d092c0b -->
<g id="node5" class="node">
<title>6caaa2b1&#45;6600&#45;4e62&#45;bdb3&#45;e29b4d092c0b</title>
<ellipse fill="none" stroke="black" cx="86.3" cy="-279" rx="38.5" ry="18"/>
<text text-anchor="middle" x="86.3" y="-275.3" font-family="Times,serif" font-size="14.00">ConstYaw</text>
</g>
<!-- 67cf0d35&#45;b0aa&#45;4fc4&#45;acfc&#45;8ed62b076eaa&#45;&gt;6caaa2b1&#45;6600&#45;4e62&#45;bdb3&#45;e29b4d092c0b -->
<g id="edge6" class="edge">
<title>67cf0d35&#45;b0aa&#45;4fc4&#45;acfc&#45;8ed62b076eaa&#45;&gt;6caaa2b1&#45;6600&#45;4e62&#45;bdb3&#45;e29b4d092c0b</title>
<path fill="none" stroke="black" d="M263.16,-352.27C225.89,-337.04 163.53,-311.56 123.69,-295.28"/>
<polygon fill="black" stroke="black" points="124.9,-291.99 114.32,-291.45 122.25,-298.47 124.9,-291.99"/>
<text text-anchor="middle" x="220.3" y="-318.8" font-family="Times,serif" font-size="14.00">True</text>
</g>
<!-- 61143e8d&#45;79c9&#45;4e88&#45;810b&#45;893c7a3cc416 -->
<g id="node8" class="node">
<title>61143e8d&#45;79c9&#45;4e88&#45;810b&#45;893c7a3cc416</title>
<ellipse fill="none" stroke="black" cx="294.3" cy="-279" rx="59.9" ry="18"/>
<text text-anchor="middle" x="294.3" y="-275.3" font-family="Times,serif" font-size="14.00">ZeroMovement</text>
</g>
<!-- 67cf0d35&#45;b0aa&#45;4fc4&#45;acfc&#45;8ed62b076eaa&#45;&gt;61143e8d&#45;79c9&#45;4e88&#45;810b&#45;893c7a3cc416 -->
<g id="edge7" class="edge">
<title>67cf0d35&#45;b0aa&#45;4fc4&#45;acfc&#45;8ed62b076eaa&#45;&gt;61143e8d&#45;79c9&#45;4e88&#45;810b&#45;893c7a3cc416</title>
<path fill="none" stroke="black" d="M294.3,-347.8C294.3,-336.16 294.3,-320.55 294.3,-307.24"/>
<polygon fill="black" stroke="black" points="297.8,-307.18 294.3,-297.18 290.8,-307.18 297.8,-307.18"/>
<text text-anchor="middle" x="313.3" y="-318.8" font-family="Times,serif" font-size="14.00">False</text>
</g>
<!-- 972e6270&#45;82e2&#45;4c26&#45;bd9e&#45;4b72d59026b5 -->
<g id="node2" class="node">
<title>972e6270&#45;82e2&#45;4c26&#45;bd9e&#45;4b72d59026b5</title>
<ellipse fill="none" stroke="black" cx="86.3" cy="-105" rx="36.1" ry="18"/>
<text text-anchor="middle" x="86.3" y="-101.3" font-family="Times,serif" font-size="14.00">SideMult</text>
</g>
<!-- c887ff86&#45;aded&#45;423a&#45;bf76&#45;881428db01c3 -->
<g id="node3" class="node">
<title>c887ff86&#45;aded&#45;423a&#45;bf76&#45;881428db01c3</title>
<ellipse fill="none" stroke="black" cx="86.3" cy="-18" rx="80.11" ry="18"/>
<text text-anchor="middle" x="86.3" y="-14.3" font-family="Times,serif" font-size="14.00">Stability2Movement</text>
</g>
<!-- 972e6270&#45;82e2&#45;4c26&#45;bd9e&#45;4b72d59026b5&#45;&gt;c887ff86&#45;aded&#45;423a&#45;bf76&#45;881428db01c3 -->
<g id="edge1" class="edge">
<title>972e6270&#45;82e2&#45;4c26&#45;bd9e&#45;4b72d59026b5&#45;&gt;c887ff86&#45;aded&#45;423a&#45;bf76&#45;881428db01c3</title>
<path fill="none" stroke="purple" d="M86.3,-86.8C86.3,-75.16 86.3,-59.55 86.3,-46.24"/>
<polygon fill="purple" stroke="purple" points="89.8,-46.18 86.3,-36.18 82.8,-46.18 89.8,-46.18"/>
<text text-anchor="middle" x="121.8" y="-57.8" font-family="Times,serif" font-size="14.00" fill="purple">Pass Data</text>
</g>
<!-- 1cbabbb7&#45;1f39&#45;4c9c&#45;8aa7&#45;2552550e7a54 -->
<g id="node4" class="node">
<title>1cbabbb7&#45;1f39&#45;4c9c&#45;8aa7&#45;2552550e7a54</title>
<ellipse fill="none" stroke="black" cx="86.3" cy="-192" rx="27" ry="18"/>
<text text-anchor="middle" x="86.3" y="-188.3" font-family="Times,serif" font-size="14.00">SetX</text>
</g>
<!-- 1cbabbb7&#45;1f39&#45;4c9c&#45;8aa7&#45;2552550e7a54&#45;&gt;972e6270&#45;82e2&#45;4c26&#45;bd9e&#45;4b72d59026b5 -->
<g id="edge2" class="edge">
<title>1cbabbb7&#45;1f39&#45;4c9c&#45;8aa7&#45;2552550e7a54&#45;&gt;972e6270&#45;82e2&#45;4c26&#45;bd9e&#45;4b72d59026b5</title>
<path fill="none" stroke="purple" d="M86.3,-173.8C86.3,-162.16 86.3,-146.55 86.3,-133.24"/>
<polygon fill="purple" stroke="purple" points="89.8,-133.18 86.3,-123.18 82.8,-133.18 89.8,-133.18"/>
<text text-anchor="middle" x="121.8" y="-144.8" font-family="Times,serif" font-size="14.00" fill="purple">Pass Data</text>
</g>
<!-- 6caaa2b1&#45;6600&#45;4e62&#45;bdb3&#45;e29b4d092c0b&#45;&gt;1cbabbb7&#45;1f39&#45;4c9c&#45;8aa7&#45;2552550e7a54 -->
<g id="edge3" class="edge">
<title>6caaa2b1&#45;6600&#45;4e62&#45;bdb3&#45;e29b4d092c0b&#45;&gt;1cbabbb7&#45;1f39&#45;4c9c&#45;8aa7&#45;2552550e7a54</title>
<path fill="none" stroke="purple" d="M86.3,-260.8C86.3,-249.16 86.3,-233.55 86.3,-220.24"/>
<polygon fill="purple" stroke="purple" points="89.8,-220.18 86.3,-210.18 82.8,-220.18 89.8,-220.18"/>
<text text-anchor="middle" x="121.8" y="-231.8" font-family="Times,serif" font-size="14.00" fill="purple">Pass Data</text>
</g>
<!-- 258103e1&#45;9526&#45;4fdf&#45;b30d&#45;d830fbc58ffd -->
<g id="node6" class="node">
<title>258103e1&#45;9526&#45;4fdf&#45;b30d&#45;d830fbc58ffd</title>
<ellipse fill="none" stroke="black" cx="294.3" cy="-453" rx="46.4" ry="18"/>
<text text-anchor="middle" x="294.3" y="-449.3" font-family="Times,serif" font-size="14.00">AlwaysTrue</text>
</g>
<!-- 258103e1&#45;9526&#45;4fdf&#45;b30d&#45;d830fbc58ffd&#45;&gt;67cf0d35&#45;b0aa&#45;4fc4&#45;acfc&#45;8ed62b076eaa -->
<g id="edge4" class="edge">
<title>258103e1&#45;9526&#45;4fdf&#45;b30d&#45;d830fbc58ffd&#45;&gt;67cf0d35&#45;b0aa&#45;4fc4&#45;acfc&#45;8ed62b076eaa</title>
<path fill="none" stroke="purple" d="M294.3,-434.8C294.3,-423.16 294.3,-407.55 294.3,-394.24"/>
<polygon fill="purple" stroke="purple" points="297.8,-394.18 294.3,-384.18 290.8,-394.18 297.8,-394.18"/>
<text text-anchor="middle" x="329.8" y="-405.8" font-family="Times,serif" font-size="14.00" fill="purple">Pass Data</text>
</g>
<!-- 0ee014f4&#45;e2e2&#45;4a49&#45;b058&#45;8d4151eac8bf -->
<g id="node7" class="node">
<title>0ee014f4&#45;e2e2&#45;4a49&#45;b058&#45;8d4151eac8bf</title>
<ellipse fill="none" stroke="black" cx="294.3" cy="-526" rx="47.1" ry="18"/>
<text text-anchor="middle" x="294.3" y="-522.3" font-family="Times,serif" font-size="14.00">DelayAction</text>
</g>
<!-- 0ee014f4&#45;e2e2&#45;4a49&#45;b058&#45;8d4151eac8bf&#45;&gt;258103e1&#45;9526&#45;4fdf&#45;b30d&#45;d830fbc58ffd -->
<g id="edge5" class="edge">
<title>0ee014f4&#45;e2e2&#45;4a49&#45;b058&#45;8d4151eac8bf&#45;&gt;258103e1&#45;9526&#45;4fdf&#45;b30d&#45;d830fbc58ffd</title>
<path fill="none" stroke="black" d="M294.3,-507.81C294.3,-499.79 294.3,-490.05 294.3,-481.07"/>
<polygon fill="black" stroke="black" points="297.8,-481.03 294.3,-471.03 290.8,-481.03 297.8,-481.03"/>
</g>
<!-- cb9523d2&#45;a981&#45;465f&#45;be67&#45;827032062084 -->
<g id="node9" class="node">
<title>cb9523d2&#45;a981&#45;465f&#45;be67&#45;827032062084</title>
<ellipse fill="none" stroke="black" cx="47.3" cy="-366" rx="47.1" ry="18"/>
<text text-anchor="middle" x="47.3" y="-362.3" font-family="Times,serif" font-size="14.00">DelayAction</text>
</g>
<!-- cb9523d2&#45;a981&#45;465f&#45;be67&#45;827032062084&#45;&gt;6caaa2b1&#45;6600&#45;4e62&#45;bdb3&#45;e29b4d092c0b -->
<g id="edge8" class="edge">
<title>cb9523d2&#45;a981&#45;465f&#45;be67&#45;827032062084&#45;&gt;6caaa2b1&#45;6600&#45;4e62&#45;bdb3&#45;e29b4d092c0b</title>
<path fill="none" stroke="black" d="M55.01,-348.21C60.51,-336.22 68.02,-319.85 74.3,-306.16"/>
<polygon fill="black" stroke="black" points="77.62,-307.31 78.61,-296.76 71.26,-304.39 77.62,-307.31"/>
</g>
<!-- 104109fd&#45;d9c3&#45;4c69&#45;97aa&#45;00f168da0bb4 -->
<g id="node10" class="node">
<title>104109fd&#45;d9c3&#45;4c69&#45;97aa&#45;00f168da0bb4</title>
<ellipse fill="none" stroke="black" cx="494.3" cy="-526" rx="80.11" ry="18"/>
<text text-anchor="middle" x="494.3" y="-522.3" font-family="Times,serif" font-size="14.00">Stability2Movement</text>
</g>
</g>
</svg>
