<?xml version="1.0" encoding="UTF-8" standalone="no"?>
<!DOCTYPE svg PUBLIC "-//W3C//DTD SVG 1.1//EN"
 "http://www.w3.org/Graphics/SVG/1.1/DTD/svg11.dtd">
<!-- Generated by graphviz version 2.43.0 (0)
 -->
<!-- Title: G Pages: 1 -->
<svg width="430pt" height="378pt"
 viewBox="0.00 0.00 429.87 378.00" xmlns="http://www.w3.org/2000/svg" xmlns:xlink="http://www.w3.org/1999/xlink">
<g id="graph0" class="graph" transform="scale(1 1) rotate(0) translate(4 374)">
<title>G</title>
<polygon fill="transparent" stroke="transparent" points="-4,4 -4,-374 425.87,-374 425.87,4 -4,4"/>
<!-- f90630ee&#45;473d&#45;4fc0&#45;818d&#45;80873254ee34 -->
<g id="node1" class="node">
<title>f90630ee&#45;473d&#45;4fc0&#45;818d&#45;80873254ee34</title>
<polygon fill="none" stroke="black" points="294.3,-210 166.67,-192 294.3,-174 421.93,-192 294.3,-210"/>
<text text-anchor="middle" x="294.3" y="-188.3" font-family="Times,serif" font-size="14.00">Consecutive True &lt; 28</text>
</g>
<!-- 0d7b7f10&#45;2232&#45;43d5&#45;aa22&#45;3b85ca9997ab -->
<g id="node2" class="node">
<title>0d7b7f10&#45;2232&#45;43d5&#45;aa22&#45;3b85ca9997ab</title>
<ellipse fill="none" stroke="black" cx="97.3" cy="-105" rx="38.5" ry="18"/>
<text text-anchor="middle" x="97.3" y="-101.3" font-family="Times,serif" font-size="14.00">ConstYaw</text>
</g>
<!-- f90630ee&#45;473d&#45;4fc0&#45;818d&#45;80873254ee34&#45;&gt;0d7b7f10&#45;2232&#45;43d5&#45;aa22&#45;3b85ca9997ab -->
<g id="edge4" class="edge">
<title>f90630ee&#45;473d&#45;4fc0&#45;818d&#45;80873254ee34&#45;&gt;0d7b7f10&#45;2232&#45;43d5&#45;aa22&#45;3b85ca9997ab</title>
<path fill="none" stroke="black" d="M264.38,-178.09C229.5,-163.04 171.85,-138.16 134.22,-121.93"/>
<polygon fill="black" stroke="black" points="135.21,-118.54 124.64,-117.8 132.44,-124.97 135.21,-118.54"/>
<text text-anchor="middle" x="225.3" y="-144.8" font-family="Times,serif" font-size="14.00">True</text>
</g>
<!-- 5d9b8171&#45;4e7b&#45;4131&#45;91a2&#45;f2281d0dc50a -->
<g id="node6" class="node">
<title>5d9b8171&#45;4e7b&#45;4131&#45;91a2&#45;f2281d0dc50a</title>
<ellipse fill="none" stroke="black" cx="294.3" cy="-105" rx="59.9" ry="18"/>
<text text-anchor="middle" x="294.3" y="-101.3" font-family="Times,serif" font-size="14.00">ZeroMovement</text>
</g>
<!-- f90630ee&#45;473d&#45;4fc0&#45;818d&#45;80873254ee34&#45;&gt;5d9b8171&#45;4e7b&#45;4131&#45;91a2&#45;f2281d0dc50a -->
<g id="edge5" class="edge">
<title>f90630ee&#45;473d&#45;4fc0&#45;818d&#45;80873254ee34&#45;&gt;5d9b8171&#45;4e7b&#45;4131&#45;91a2&#45;f2281d0dc50a</title>
<path fill="none" stroke="black" d="M294.3,-173.8C294.3,-162.16 294.3,-146.55 294.3,-133.24"/>
<polygon fill="black" stroke="black" points="297.8,-133.18 294.3,-123.18 290.8,-133.18 297.8,-133.18"/>
<text text-anchor="middle" x="313.3" y="-144.8" font-family="Times,serif" font-size="14.00">False</text>
</g>
<!-- 89738e88&#45;85cc&#45;4aa6&#45;ab28&#45;4842ee0372e4 -->
<g id="node3" class="node">
<title>89738e88&#45;85cc&#45;4aa6&#45;ab28&#45;4842ee0372e4</title>
<ellipse fill="none" stroke="black" cx="97.3" cy="-18" rx="80.11" ry="18"/>
<text text-anchor="middle" x="97.3" y="-14.3" font-family="Times,serif" font-size="14.00">Stability2Movement</text>
</g>
<!-- 0d7b7f10&#45;2232&#45;43d5&#45;aa22&#45;3b85ca9997ab&#45;&gt;89738e88&#45;85cc&#45;4aa6&#45;ab28&#45;4842ee0372e4 -->
<g id="edge1" class="edge">
<title>0d7b7f10&#45;2232&#45;43d5&#45;aa22&#45;3b85ca9997ab&#45;&gt;89738e88&#45;85cc&#45;4aa6&#45;ab28&#45;4842ee0372e4</title>
<path fill="none" stroke="purple" d="M97.3,-86.8C97.3,-75.16 97.3,-59.55 97.3,-46.24"/>
<polygon fill="purple" stroke="purple" points="100.8,-46.18 97.3,-36.18 93.8,-46.18 100.8,-46.18"/>
<text text-anchor="middle" x="132.8" y="-57.8" font-family="Times,serif" font-size="14.00" fill="purple">Pass Data</text>
</g>
<!-- 442ae797&#45;f8ec&#45;4521&#45;9929&#45;3e50d395a5a4 -->
<g id="node4" class="node">
<title>442ae797&#45;f8ec&#45;4521&#45;9929&#45;3e50d395a5a4</title>
<ellipse fill="none" stroke="black" cx="294.3" cy="-279" rx="46.4" ry="18"/>
<text text-anchor="middle" x="294.3" y="-275.3" font-family="Times,serif" font-size="14.00">AlwaysTrue</text>
</g>
<!-- 442ae797&#45;f8ec&#45;4521&#45;9929&#45;3e50d395a5a4&#45;&gt;f90630ee&#45;473d&#45;4fc0&#45;818d&#45;80873254ee34 -->
<g id="edge2" class="edge">
<title>442ae797&#45;f8ec&#45;4521&#45;9929&#45;3e50d395a5a4&#45;&gt;f90630ee&#45;473d&#45;4fc0&#45;818d&#45;80873254ee34</title>
<path fill="none" stroke="purple" d="M294.3,-260.8C294.3,-249.16 294.3,-233.55 294.3,-220.24"/>
<polygon fill="purple" stroke="purple" points="297.8,-220.18 294.3,-210.18 290.8,-220.18 297.8,-220.18"/>
<text text-anchor="middle" x="329.8" y="-231.8" font-family="Times,serif" font-size="14.00" fill="purple">Pass Data</text>
</g>
<!-- 6921742c&#45;5f8d&#45;4e15&#45;bc08&#45;51fdca0a359c -->
<g id="node5" class="node">
<title>6921742c&#45;5f8d&#45;4e15&#45;bc08&#45;51fdca0a359c</title>
<ellipse fill="none" stroke="black" cx="294.3" cy="-352" rx="47.1" ry="18"/>
<text text-anchor="middle" x="294.3" y="-348.3" font-family="Times,serif" font-size="14.00">DelayAction</text>
</g>
<!-- 6921742c&#45;5f8d&#45;4e15&#45;bc08&#45;51fdca0a359c&#45;&gt;442ae797&#45;f8ec&#45;4521&#45;9929&#45;3e50d395a5a4 -->
<g id="edge3" class="edge">
<title>6921742c&#45;5f8d&#45;4e15&#45;bc08&#45;51fdca0a359c&#45;&gt;442ae797&#45;f8ec&#45;4521&#45;9929&#45;3e50d395a5a4</title>
<path fill="none" stroke="black" d="M294.3,-333.81C294.3,-325.79 294.3,-316.05 294.3,-307.07"/>
<polygon fill="black" stroke="black" points="297.8,-307.03 294.3,-297.03 290.8,-307.03 297.8,-307.03"/>
</g>
<!-- b69b7c0e&#45;d26e&#45;461a&#45;9d76&#45;363d35f9d7fd -->
<g id="node7" class="node">
<title>b69b7c0e&#45;d26e&#45;461a&#45;9d76&#45;363d35f9d7fd</title>
<ellipse fill="none" stroke="black" cx="47.3" cy="-192" rx="47.1" ry="18"/>
<text text-anchor="middle" x="47.3" y="-188.3" font-family="Times,serif" font-size="14.00">DelayAction</text>
</g>
<!-- b69b7c0e&#45;d26e&#45;461a&#45;9d76&#45;363d35f9d7fd&#45;&gt;0d7b7f10&#45;2232&#45;43d5&#45;aa22&#45;3b85ca9997ab -->
<g id="edge6" class="edge">
<title>b69b7c0e&#45;d26e&#45;461a&#45;9d76&#45;363d35f9d7fd&#45;&gt;0d7b7f10&#45;2232&#45;43d5&#45;aa22&#45;3b85ca9997ab</title>
<path fill="none" stroke="black" d="M57.18,-174.21C64.42,-161.9 74.36,-145 82.54,-131.09"/>
<polygon fill="black" stroke="black" points="85.56,-132.86 87.61,-122.47 79.53,-129.31 85.56,-132.86"/>
</g>
<!-- bac3d5be&#45;9196&#45;4060&#45;851f&#45;f324f24460dd -->
<g id="node8" class="node">
<title>bac3d5be&#45;9196&#45;4060&#45;851f&#45;f324f24460dd</title>
<ellipse fill="none" stroke="black" cx="47.3" cy="-279" rx="33.6" ry="18"/>
<text text-anchor="middle" x="47.3" y="-275.3" font-family="Times,serif" font-size="14.00">Descend</text>
</g>
<!-- bac3d5be&#45;9196&#45;4060&#45;851f&#45;f324f24460dd&#45;&gt;b69b7c0e&#45;d26e&#45;461a&#45;9d76&#45;363d35f9d7fd -->
<g id="edge7" class="edge">
<title>bac3d5be&#45;9196&#45;4060&#45;851f&#45;f324f24460dd&#45;&gt;b69b7c0e&#45;d26e&#45;461a&#45;9d76&#45;363d35f9d7fd</title>
<path fill="none" stroke="black" d="M47.3,-260.8C47.3,-249.16 47.3,-233.55 47.3,-220.24"/>
<polygon fill="black" stroke="black" points="50.8,-220.18 47.3,-210.18 43.8,-220.18 50.8,-220.18"/>
</g>
</g>
</svg>
