<?xml version="1.0" encoding="UTF-8" standalone="no"?>
<!DOCTYPE svg PUBLIC "-//W3C//DTD SVG 1.1//EN"
 "http://www.w3.org/Graphics/SVG/1.1/DTD/svg11.dtd">
<!-- Generated by graphviz version 2.43.0 (0)
 -->
<!-- Title: G Pages: 1 -->
<svg width="743pt" height="1121pt"
 viewBox="0.00 0.00 742.80 1121.00" xmlns="http://www.w3.org/2000/svg" xmlns:xlink="http://www.w3.org/1999/xlink">
<g id="graph0" class="graph" transform="scale(1 1) rotate(0) translate(4 1117)">
<title>G</title>
<polygon fill="transparent" stroke="transparent" points="-4,4 -4,-1117 738.8,-1117 738.8,4 -4,4"/>
<g id="clust1" class="cluster">
<title>cluster_7b67f8e4&#45;743b&#45;47cf&#45;bdbe&#45;c3a79fb1e544</title>
<polygon fill="transparent" stroke="blue" stroke-dasharray="5,2" points="8,-8 8,-829 280,-829 280,-8 8,-8"/>
</g>
<!-- 65bf918f&#45;2d8f&#45;441d&#45;832a&#45;e70d42a6dc37 -->
<g id="node1" class="node">
<title>65bf918f&#45;2d8f&#45;441d&#45;832a&#45;e70d42a6dc37</title>
<polygon fill="none" stroke="black" points="207,-748 141.82,-730 207,-712 272.18,-730 207,-748"/>
<text text-anchor="middle" x="207" y="-726.3" font-family="Times,serif" font-size="14.00">AlwaysTrue</text>
</g>
<!-- 27c1f195&#45;df75&#45;4a56&#45;a9c9&#45;0e571806db88 -->
<g id="node19" class="node">
<title>27c1f195&#45;df75&#45;4a56&#45;a9c9&#45;0e571806db88</title>
<ellipse fill="none" stroke="black" cx="335" cy="-643" rx="46.5" ry="18"/>
<text text-anchor="middle" x="335" y="-639.3" font-family="Times,serif" font-size="14.00">VisionNorm</text>
</g>
<!-- 65bf918f&#45;2d8f&#45;441d&#45;832a&#45;e70d42a6dc37&#45;&gt;27c1f195&#45;df75&#45;4a56&#45;a9c9&#45;0e571806db88 -->
<g id="edge18" class="edge">
<title>65bf918f&#45;2d8f&#45;441d&#45;832a&#45;e70d42a6dc37&#45;&gt;27c1f195&#45;df75&#45;4a56&#45;a9c9&#45;0e571806db88</title>
<path fill="none" stroke="black" d="M225.34,-716.82C245.78,-703.25 279.18,-681.06 303.76,-664.74"/>
<polygon fill="black" stroke="black" points="305.98,-667.47 312.38,-659.02 302.11,-661.64 305.98,-667.47"/>
<text text-anchor="middle" x="296" y="-682.8" font-family="Times,serif" font-size="14.00">True</text>
</g>
<!-- 48e9aaf5&#45;52a2&#45;4c8b&#45;8dc1&#45;a6d9d0822bf0 -->
<g id="node2" class="node">
<title>48e9aaf5&#45;52a2&#45;4c8b&#45;8dc1&#45;a6d9d0822bf0</title>
<ellipse fill="none" stroke="black" cx="95" cy="-121" rx="31.2" ry="18"/>
<text text-anchor="middle" x="95" y="-117.3" font-family="Times,serif" font-size="14.00">MinYaw</text>
</g>
<!-- 17dc25e1&#45;57a1&#45;445e&#45;864d&#45;ebc7b334d12e -->
<g id="node3" class="node">
<title>17dc25e1&#45;57a1&#45;445e&#45;864d&#45;ebc7b334d12e</title>
<ellipse fill="none" stroke="black" cx="96" cy="-34" rx="80.11" ry="18"/>
<text text-anchor="middle" x="96" y="-30.3" font-family="Times,serif" font-size="14.00">Stability1Movement</text>
</g>
<!-- 48e9aaf5&#45;52a2&#45;4c8b&#45;8dc1&#45;a6d9d0822bf0&#45;&gt;17dc25e1&#45;57a1&#45;445e&#45;864d&#45;ebc7b334d12e -->
<g id="edge1" class="edge">
<title>48e9aaf5&#45;52a2&#45;4c8b&#45;8dc1&#45;a6d9d0822bf0&#45;&gt;17dc25e1&#45;57a1&#45;445e&#45;864d&#45;ebc7b334d12e</title>
<path fill="none" stroke="purple" d="M95.2,-102.8C95.34,-91.16 95.52,-75.55 95.68,-62.24"/>
<polygon fill="purple" stroke="purple" points="99.18,-62.22 95.8,-52.18 92.18,-62.13 99.18,-62.22"/>
<text text-anchor="middle" x="131.5" y="-73.8" font-family="Times,serif" font-size="14.00" fill="purple">Pass Data</text>
</g>
<!-- f55e0c0a&#45;dce2&#45;4022&#45;b4c9&#45;87a9fc4dbe28 -->
<g id="node4" class="node">
<title>f55e0c0a&#45;dce2&#45;4022&#45;b4c9&#45;87a9fc4dbe28</title>
<ellipse fill="none" stroke="black" cx="94" cy="-208" rx="27" ry="18"/>
<text text-anchor="middle" x="94" y="-204.3" font-family="Times,serif" font-size="14.00">StripY</text>
</g>
<!-- f55e0c0a&#45;dce2&#45;4022&#45;b4c9&#45;87a9fc4dbe28&#45;&gt;48e9aaf5&#45;52a2&#45;4c8b&#45;8dc1&#45;a6d9d0822bf0 -->
<g id="edge2" class="edge">
<title>f55e0c0a&#45;dce2&#45;4022&#45;b4c9&#45;87a9fc4dbe28&#45;&gt;48e9aaf5&#45;52a2&#45;4c8b&#45;8dc1&#45;a6d9d0822bf0</title>
<path fill="none" stroke="purple" d="M94.2,-189.8C94.34,-178.16 94.52,-162.55 94.68,-149.24"/>
<polygon fill="purple" stroke="purple" points="98.18,-149.22 94.8,-139.18 91.18,-149.13 98.18,-149.22"/>
<text text-anchor="middle" x="130.5" y="-160.8" font-family="Times,serif" font-size="14.00" fill="purple">Pass Data</text>
</g>
<!-- 4f251063&#45;ad5e&#45;41d4&#45;bd47&#45;49442854de52 -->
<g id="node5" class="node">
<title>4f251063&#45;ad5e&#45;41d4&#45;bd47&#45;49442854de52</title>
<ellipse fill="none" stroke="black" cx="94" cy="-295" rx="75.81" ry="18"/>
<text text-anchor="middle" x="94" y="-291.3" font-family="Times,serif" font-size="14.00">CautiousConstantX</text>
</g>
<!-- 4f251063&#45;ad5e&#45;41d4&#45;bd47&#45;49442854de52&#45;&gt;f55e0c0a&#45;dce2&#45;4022&#45;b4c9&#45;87a9fc4dbe28 -->
<g id="edge3" class="edge">
<title>4f251063&#45;ad5e&#45;41d4&#45;bd47&#45;49442854de52&#45;&gt;f55e0c0a&#45;dce2&#45;4022&#45;b4c9&#45;87a9fc4dbe28</title>
<path fill="none" stroke="purple" d="M94,-276.8C94,-265.16 94,-249.55 94,-236.24"/>
<polygon fill="purple" stroke="purple" points="97.5,-236.18 94,-226.18 90.5,-236.18 97.5,-236.18"/>
<text text-anchor="middle" x="129.5" y="-247.8" font-family="Times,serif" font-size="14.00" fill="purple">Pass Data</text>
</g>
<!-- e70da4e8&#45;ddd0&#45;4c04&#45;a849&#45;1c8b137c9d48 -->
<g id="node6" class="node">
<title>e70da4e8&#45;ddd0&#45;4c04&#45;a849&#45;1c8b137c9d48</title>
<ellipse fill="none" stroke="black" cx="93" cy="-382" rx="67.81" ry="18"/>
<text text-anchor="middle" x="93" y="-378.3" font-family="Times,serif" font-size="14.00">LinearYawFromX</text>
</g>
<!-- e70da4e8&#45;ddd0&#45;4c04&#45;a849&#45;1c8b137c9d48&#45;&gt;4f251063&#45;ad5e&#45;41d4&#45;bd47&#45;49442854de52 -->
<g id="edge4" class="edge">
<title>e70da4e8&#45;ddd0&#45;4c04&#45;a849&#45;1c8b137c9d48&#45;&gt;4f251063&#45;ad5e&#45;41d4&#45;bd47&#45;49442854de52</title>
<path fill="none" stroke="purple" d="M93.2,-363.8C93.34,-352.16 93.52,-336.55 93.68,-323.24"/>
<polygon fill="purple" stroke="purple" points="97.18,-323.22 93.8,-313.18 90.18,-323.13 97.18,-323.22"/>
<text text-anchor="middle" x="129.5" y="-334.8" font-family="Times,serif" font-size="14.00" fill="purple">Pass Data</text>
</g>
<!-- 79bd8db6&#45;67d5&#45;4f1c&#45;81be&#45;4924a8da93d2 -->
<g id="node7" class="node">
<title>79bd8db6&#45;67d5&#45;4f1c&#45;81be&#45;4924a8da93d2</title>
<ellipse fill="none" stroke="black" cx="92" cy="-469" rx="51.3" ry="18"/>
<text text-anchor="middle" x="92" y="-465.3" font-family="Times,serif" font-size="14.00">OffsetToPose</text>
</g>
<!-- 79bd8db6&#45;67d5&#45;4f1c&#45;81be&#45;4924a8da93d2&#45;&gt;e70da4e8&#45;ddd0&#45;4c04&#45;a849&#45;1c8b137c9d48 -->
<g id="edge5" class="edge">
<title>79bd8db6&#45;67d5&#45;4f1c&#45;81be&#45;4924a8da93d2&#45;&gt;e70da4e8&#45;ddd0&#45;4c04&#45;a849&#45;1c8b137c9d48</title>
<path fill="none" stroke="purple" d="M92.2,-450.8C92.34,-439.16 92.52,-423.55 92.68,-410.24"/>
<polygon fill="purple" stroke="purple" points="96.18,-410.22 92.8,-400.18 89.18,-410.13 96.18,-410.22"/>
<text text-anchor="middle" x="128.5" y="-421.8" font-family="Times,serif" font-size="14.00" fill="purple">Pass Data</text>
</g>
<!-- 285f08fe&#45;3a38&#45;4bd0&#45;af6e&#45;56f0ee3e55ee -->
<g id="node8" class="node">
<title>285f08fe&#45;3a38&#45;4bd0&#45;af6e&#45;56f0ee3e55ee</title>
<ellipse fill="none" stroke="black" cx="91" cy="-556" rx="32.4" ry="18"/>
<text text-anchor="middle" x="91" y="-552.3" font-family="Times,serif" font-size="14.00">Average</text>
</g>
<!-- 285f08fe&#45;3a38&#45;4bd0&#45;af6e&#45;56f0ee3e55ee&#45;&gt;79bd8db6&#45;67d5&#45;4f1c&#45;81be&#45;4924a8da93d2 -->
<g id="edge6" class="edge">
<title>285f08fe&#45;3a38&#45;4bd0&#45;af6e&#45;56f0ee3e55ee&#45;&gt;79bd8db6&#45;67d5&#45;4f1c&#45;81be&#45;4924a8da93d2</title>
<path fill="none" stroke="purple" d="M91.2,-537.8C91.34,-526.16 91.52,-510.55 91.68,-497.24"/>
<polygon fill="purple" stroke="purple" points="95.18,-497.22 91.8,-487.18 88.18,-497.13 95.18,-497.22"/>
<text text-anchor="middle" x="127.5" y="-508.8" font-family="Times,serif" font-size="14.00" fill="purple">Pass Data</text>
</g>
<!-- 9a6f8720&#45;0969&#45;464c&#45;b0a2&#45;5126ad927f68 -->
<g id="node9" class="node">
<title>9a6f8720&#45;0969&#45;464c&#45;b0a2&#45;5126ad927f68</title>
<ellipse fill="none" stroke="black" cx="90" cy="-643" rx="61.1" ry="18"/>
<text text-anchor="middle" x="90" y="-639.3" font-family="Times,serif" font-size="14.00">ExtractPosition</text>
</g>
<!-- 9a6f8720&#45;0969&#45;464c&#45;b0a2&#45;5126ad927f68&#45;&gt;285f08fe&#45;3a38&#45;4bd0&#45;af6e&#45;56f0ee3e55ee -->
<g id="edge7" class="edge">
<title>9a6f8720&#45;0969&#45;464c&#45;b0a2&#45;5126ad927f68&#45;&gt;285f08fe&#45;3a38&#45;4bd0&#45;af6e&#45;56f0ee3e55ee</title>
<path fill="none" stroke="purple" d="M90.2,-624.8C90.34,-613.16 90.52,-597.55 90.68,-584.24"/>
<polygon fill="purple" stroke="purple" points="94.18,-584.22 90.8,-574.18 87.18,-584.13 94.18,-584.22"/>
<text text-anchor="middle" x="126.5" y="-595.8" font-family="Times,serif" font-size="14.00" fill="purple">Pass Data</text>
</g>
<!-- 0c1d816e&#45;df2a&#45;495c&#45;b150&#45;552a269aac3e -->
<g id="node10" class="node">
<title>0c1d816e&#45;df2a&#45;495c&#45;b150&#45;552a269aac3e</title>
<ellipse fill="none" stroke="black" cx="43" cy="-730" rx="27" ry="18"/>
<text text-anchor="middle" x="43" y="-726.3" font-family="Times,serif" font-size="14.00">ToVec</text>
</g>
<!-- 0c1d816e&#45;df2a&#45;495c&#45;b150&#45;552a269aac3e&#45;&gt;9a6f8720&#45;0969&#45;464c&#45;b0a2&#45;5126ad927f68 -->
<g id="edge8" class="edge">
<title>0c1d816e&#45;df2a&#45;495c&#45;b150&#45;552a269aac3e&#45;&gt;9a6f8720&#45;0969&#45;464c&#45;b0a2&#45;5126ad927f68</title>
<path fill="none" stroke="purple" d="M52.06,-712.61C58.74,-700.54 67.95,-683.88 75.63,-670"/>
<polygon fill="purple" stroke="purple" points="78.87,-671.37 80.64,-660.92 72.74,-667.98 78.87,-671.37"/>
<text text-anchor="middle" x="105.5" y="-682.8" font-family="Times,serif" font-size="14.00" fill="purple">Pass Data</text>
</g>
<!-- 329cfb7d&#45;5199&#45;4458&#45;a435&#45;8a72118dad34 -->
<g id="node11" class="node">
<title>329cfb7d&#45;5199&#45;4458&#45;a435&#45;8a72118dad34</title>
<polygon fill="none" stroke="black" stroke-dasharray="5,2" points="256,-821 158,-821 158,-785 256,-785 256,-821"/>
<text text-anchor="middle" x="207" y="-799.3" font-family="Times,serif" font-size="14.00" fill="blue">Concurrent</text>
</g>
<!-- 329cfb7d&#45;5199&#45;4458&#45;a435&#45;8a72118dad34&#45;&gt;65bf918f&#45;2d8f&#45;441d&#45;832a&#45;e70d42a6dc37 -->
<g id="edge10" class="edge">
<title>329cfb7d&#45;5199&#45;4458&#45;a435&#45;8a72118dad34&#45;&gt;65bf918f&#45;2d8f&#45;441d&#45;832a&#45;e70d42a6dc37</title>
<path fill="none" stroke="black" d="M207,-784.81C207,-776.79 207,-767.05 207,-758.07"/>
<polygon fill="black" stroke="black" points="210.5,-758.03 207,-748.03 203.5,-758.03 210.5,-758.03"/>
</g>
<!-- 329cfb7d&#45;5199&#45;4458&#45;a435&#45;8a72118dad34&#45;&gt;0c1d816e&#45;df2a&#45;495c&#45;b150&#45;552a269aac3e -->
<g id="edge9" class="edge">
<title>329cfb7d&#45;5199&#45;4458&#45;a435&#45;8a72118dad34&#45;&gt;0c1d816e&#45;df2a&#45;495c&#45;b150&#45;552a269aac3e</title>
<path fill="none" stroke="black" d="M167.72,-784.99C139.19,-772.64 101.1,-756.15 74.55,-744.66"/>
<polygon fill="black" stroke="black" points="75.89,-741.43 65.32,-740.66 73.11,-747.85 75.89,-741.43"/>
</g>
<!-- 1dbb55d2&#45;bab2&#45;4794&#45;8591&#45;76fcae858c62 -->
<g id="node12" class="node">
<title>1dbb55d2&#45;bab2&#45;4794&#45;8591&#45;76fcae858c62</title>
<ellipse fill="none" stroke="black" cx="660" cy="-1022" rx="33.6" ry="18"/>
<text text-anchor="middle" x="660" y="-1018.3" font-family="Times,serif" font-size="14.00">Descend</text>
</g>
<!-- 000231db&#45;08ea&#45;4e5e&#45;ad37&#45;3239954c52b7 -->
<g id="node13" class="node">
<title>000231db&#45;08ea&#45;4e5e&#45;ad37&#45;3239954c52b7</title>
<ellipse fill="none" stroke="black" cx="660" cy="-949" rx="47.1" ry="18"/>
<text text-anchor="middle" x="660" y="-945.3" font-family="Times,serif" font-size="14.00">DelayAction</text>
</g>
<!-- 1dbb55d2&#45;bab2&#45;4794&#45;8591&#45;76fcae858c62&#45;&gt;000231db&#45;08ea&#45;4e5e&#45;ad37&#45;3239954c52b7 -->
<g id="edge11" class="edge">
<title>1dbb55d2&#45;bab2&#45;4794&#45;8591&#45;76fcae858c62&#45;&gt;000231db&#45;08ea&#45;4e5e&#45;ad37&#45;3239954c52b7</title>
<path fill="none" stroke="black" d="M660,-1003.81C660,-995.79 660,-986.05 660,-977.07"/>
<polygon fill="black" stroke="black" points="663.5,-977.03 660,-967.03 656.5,-977.03 663.5,-977.03"/>
</g>
<!-- 774381b8&#45;d6ea&#45;4d70&#45;be64&#45;692cf0a2867d -->
<g id="node14" class="node">
<title>774381b8&#45;d6ea&#45;4d70&#45;be64&#45;692cf0a2867d</title>
<ellipse fill="none" stroke="black" cx="660" cy="-876" rx="74.61" ry="18"/>
<text text-anchor="middle" x="660" y="-872.3" font-family="Times,serif" font-size="14.00">StraightMovement</text>
</g>
<!-- 000231db&#45;08ea&#45;4e5e&#45;ad37&#45;3239954c52b7&#45;&gt;774381b8&#45;d6ea&#45;4d70&#45;be64&#45;692cf0a2867d -->
<g id="edge14" class="edge">
<title>000231db&#45;08ea&#45;4e5e&#45;ad37&#45;3239954c52b7&#45;&gt;774381b8&#45;d6ea&#45;4d70&#45;be64&#45;692cf0a2867d</title>
<path fill="none" stroke="black" d="M660,-930.81C660,-922.79 660,-913.05 660,-904.07"/>
<polygon fill="black" stroke="black" points="663.5,-904.03 660,-894.03 656.5,-904.03 663.5,-904.03"/>
</g>
<!-- bd489a20&#45;ad43&#45;4546&#45;b643&#45;bf8b2e8b911c -->
<g id="node15" class="node">
<title>bd489a20&#45;ad43&#45;4546&#45;b643&#45;bf8b2e8b911c</title>
<ellipse fill="none" stroke="black" cx="660" cy="-803" rx="47.1" ry="18"/>
<text text-anchor="middle" x="660" y="-799.3" font-family="Times,serif" font-size="14.00">DelayAction</text>
</g>
<!-- 774381b8&#45;d6ea&#45;4d70&#45;be64&#45;692cf0a2867d&#45;&gt;bd489a20&#45;ad43&#45;4546&#45;b643&#45;bf8b2e8b911c -->
<g id="edge12" class="edge">
<title>774381b8&#45;d6ea&#45;4d70&#45;be64&#45;692cf0a2867d&#45;&gt;bd489a20&#45;ad43&#45;4546&#45;b643&#45;bf8b2e8b911c</title>
<path fill="none" stroke="black" d="M660,-857.81C660,-849.79 660,-840.05 660,-831.07"/>
<polygon fill="black" stroke="black" points="663.5,-831.03 660,-821.03 656.5,-831.03 663.5,-831.03"/>
</g>
<!-- 9970225d&#45;b519&#45;46b0&#45;8364&#45;1342cf452325 -->
<g id="node16" class="node">
<title>9970225d&#45;b519&#45;46b0&#45;8364&#45;1342cf452325</title>
<ellipse fill="none" stroke="black" cx="660" cy="-730" rx="59.9" ry="18"/>
<text text-anchor="middle" x="660" y="-726.3" font-family="Times,serif" font-size="14.00">ZeroMovement</text>
</g>
<!-- bd489a20&#45;ad43&#45;4546&#45;b643&#45;bf8b2e8b911c&#45;&gt;9970225d&#45;b519&#45;46b0&#45;8364&#45;1342cf452325 -->
<g id="edge13" class="edge">
<title>bd489a20&#45;ad43&#45;4546&#45;b643&#45;bf8b2e8b911c&#45;&gt;9970225d&#45;b519&#45;46b0&#45;8364&#45;1342cf452325</title>
<path fill="none" stroke="black" d="M660,-784.81C660,-776.79 660,-767.05 660,-758.07"/>
<polygon fill="black" stroke="black" points="663.5,-758.03 660,-748.03 656.5,-758.03 663.5,-758.03"/>
</g>
<!-- 9970225d&#45;b519&#45;46b0&#45;8364&#45;1342cf452325&#45;&gt;27c1f195&#45;df75&#45;4a56&#45;a9c9&#45;0e571806db88 -->
<g id="edge19" class="edge">
<title>9970225d&#45;b519&#45;46b0&#45;8364&#45;1342cf452325&#45;&gt;27c1f195&#45;df75&#45;4a56&#45;a9c9&#45;0e571806db88</title>
<path fill="none" stroke="black" d="M639.53,-712.83C624.07,-701.49 601.85,-686.98 580,-679 518.08,-656.38 442.38,-648.3 391.65,-645.46"/>
<polygon fill="black" stroke="black" points="391.7,-641.96 381.54,-644.94 391.35,-648.95 391.7,-641.96"/>
</g>
<!-- 9e63000d&#45;364e&#45;4f32&#45;b45d&#45;ca31fe591457 -->
<g id="node17" class="node">
<title>9e63000d&#45;364e&#45;4f32&#45;b45d&#45;ca31fe591457</title>
<ellipse fill="none" stroke="black" cx="660" cy="-1095" rx="34.8" ry="18"/>
<text text-anchor="middle" x="660" y="-1091.3" font-family="Times,serif" font-size="14.00">WaitArm</text>
</g>
<!-- 9e63000d&#45;364e&#45;4f32&#45;b45d&#45;ca31fe591457&#45;&gt;1dbb55d2&#45;bab2&#45;4794&#45;8591&#45;76fcae858c62 -->
<g id="edge15" class="edge">
<title>9e63000d&#45;364e&#45;4f32&#45;b45d&#45;ca31fe591457&#45;&gt;1dbb55d2&#45;bab2&#45;4794&#45;8591&#45;76fcae858c62</title>
<path fill="none" stroke="black" d="M660,-1076.81C660,-1068.79 660,-1059.05 660,-1050.07"/>
<polygon fill="black" stroke="black" points="663.5,-1050.03 660,-1040.03 656.5,-1050.03 663.5,-1050.03"/>
</g>
<!-- 1ecfd88b&#45;481b&#45;4629&#45;ae41&#45;d0a6b0dfa2de -->
<g id="node18" class="node">
<title>1ecfd88b&#45;481b&#45;4629&#45;ae41&#45;d0a6b0dfa2de</title>
<ellipse fill="none" stroke="black" cx="430" cy="-556" rx="48.3" ry="18"/>
<text text-anchor="middle" x="430" y="-552.3" font-family="Times,serif" font-size="14.00">Detect Buoy</text>
</g>
<!-- 1ecfd88b&#45;481b&#45;4629&#45;ae41&#45;d0a6b0dfa2de&#45;&gt;329cfb7d&#45;5199&#45;4458&#45;a435&#45;8a72118dad34 -->
<g id="edge16" class="edge">
<title>1ecfd88b&#45;481b&#45;4629&#45;ae41&#45;d0a6b0dfa2de&#45;&gt;329cfb7d&#45;5199&#45;4458&#45;a435&#45;8a72118dad34</title>
<path fill="none" stroke="purple" d="M442.64,-573.8C448.32,-583.35 453.11,-595.64 450,-607 442.63,-633.91 436.36,-640 418,-661 371.25,-714.49 299.68,-756.54 253.1,-780.34"/>
<polygon fill="purple" stroke="purple" points="251.49,-777.23 244.14,-784.85 254.64,-783.48 251.49,-777.23"/>
<text text-anchor="middle" x="434.5" y="-682.8" font-family="Times,serif" font-size="14.00" fill="purple">Pass Data</text>
</g>
<!-- 27c1f195&#45;df75&#45;4a56&#45;a9c9&#45;0e571806db88&#45;&gt;1ecfd88b&#45;481b&#45;4629&#45;ae41&#45;d0a6b0dfa2de -->
<g id="edge17" class="edge">
<title>27c1f195&#45;df75&#45;4a56&#45;a9c9&#45;0e571806db88&#45;&gt;1ecfd88b&#45;481b&#45;4629&#45;ae41&#45;d0a6b0dfa2de</title>
<path fill="none" stroke="purple" d="M342.26,-625.14C347.43,-614.63 355.19,-601.37 365,-592 372.09,-585.23 380.74,-579.39 389.39,-574.52"/>
<polygon fill="purple" stroke="purple" points="391.12,-577.56 398.33,-569.79 387.85,-571.37 391.12,-577.56"/>
<text text-anchor="middle" x="400.5" y="-595.8" font-family="Times,serif" font-size="14.00" fill="purple">Pass Data</text>
</g>
</g>
</svg>
