<?xml version="1.0" encoding="UTF-8" standalone="no"?>
<!DOCTYPE svg PUBLIC "-//W3C//DTD SVG 1.1//EN"
 "http://www.w3.org/Graphics/SVG/1.1/DTD/svg11.dtd">
<!-- Generated by graphviz version 2.43.0 (0)
 -->
<!-- Title: G Pages: 1 -->
<svg width="140pt" height="684pt"
 viewBox="0.00 0.00 140.05 684.00" xmlns="http://www.w3.org/2000/svg" xmlns:xlink="http://www.w3.org/1999/xlink">
<g id="graph0" class="graph" transform="scale(1 1) rotate(0) translate(4 680)">
<title>G</title>
<polygon fill="transparent" stroke="transparent" points="-4,4 -4,-680 136.05,-680 136.05,4 -4,4"/>
<!-- ec2e2003&#45;9c44&#45;446d&#45;bcfa&#45;9ad222db951a -->
<g id="node1" class="node">
<title>ec2e2003&#45;9c44&#45;446d&#45;bcfa&#45;9ad222db951a</title>
<ellipse fill="none" stroke="black" cx="61.05" cy="-512" rx="47.1" ry="18"/>
<text text-anchor="middle" x="61.05" y="-508.3" font-family="Times,serif" font-size="14.00">DelayAction</text>
</g>
<!-- cdaf71d4&#45;f448&#45;458a&#45;8a0c&#45;84c928c39961 -->
<g id="node2" class="node">
<title>cdaf71d4&#45;f448&#45;458a&#45;8a0c&#45;84c928c39961</title>
<ellipse fill="none" stroke="black" cx="61.05" cy="-439" rx="59.9" ry="18"/>
<text text-anchor="middle" x="61.05" y="-435.3" font-family="Times,serif" font-size="14.00">ZeroMovement</text>
</g>
<!-- ec2e2003&#45;9c44&#45;446d&#45;bcfa&#45;9ad222db951a&#45;&gt;cdaf71d4&#45;f448&#45;458a&#45;8a0c&#45;84c928c39961 -->
<g id="edge1" class="edge">
<title>ec2e2003&#45;9c44&#45;446d&#45;bcfa&#45;9ad222db951a&#45;&gt;cdaf71d4&#45;f448&#45;458a&#45;8a0c&#45;84c928c39961</title>
<path fill="none" stroke="black" d="M61.05,-493.81C61.05,-485.79 61.05,-476.05 61.05,-467.07"/>
<polygon fill="black" stroke="black" points="64.55,-467.03 61.05,-457.03 57.55,-467.03 64.55,-467.03"/>
</g>
<!-- 93497fb3&#45;9ad6&#45;4823&#45;9c1e&#45;9efffcee5467 -->
<g id="node7" class="node">
<title>93497fb3&#45;9ad6&#45;4823&#45;9c1e&#45;9efffcee5467</title>
<ellipse fill="none" stroke="black" cx="61.05" cy="-366" rx="46.5" ry="18"/>
<text text-anchor="middle" x="61.05" y="-362.3" font-family="Times,serif" font-size="14.00">VisionNorm</text>
</g>
<!-- cdaf71d4&#45;f448&#45;458a&#45;8a0c&#45;84c928c39961&#45;&gt;93497fb3&#45;9ad6&#45;4823&#45;9c1e&#45;9efffcee5467 -->
<g id="edge6" class="edge">
<title>cdaf71d4&#45;f448&#45;458a&#45;8a0c&#45;84c928c39961&#45;&gt;93497fb3&#45;9ad6&#45;4823&#45;9c1e&#45;9efffcee5467</title>
<path fill="none" stroke="black" d="M61.05,-420.81C61.05,-412.79 61.05,-403.05 61.05,-394.07"/>
<polygon fill="black" stroke="black" points="64.55,-394.03 61.05,-384.03 57.55,-394.03 64.55,-394.03"/>
</g>
<!-- 526cf5a4&#45;06a4&#45;4e5c&#45;968e&#45;c73313c4e1a4 -->
<g id="node3" class="node">
<title>526cf5a4&#45;06a4&#45;4e5c&#45;968e&#45;c73313c4e1a4</title>
<ellipse fill="none" stroke="black" cx="61.05" cy="-105" rx="32.4" ry="18"/>
<text text-anchor="middle" x="61.05" y="-101.3" font-family="Times,serif" font-size="14.00">Average</text>
</g>
<!-- f917e05c&#45;527a&#45;4219&#45;9ae6&#45;336f5ee1f762 -->
<g id="node4" class="node">
<title>f917e05c&#45;527a&#45;4219&#45;9ae6&#45;336f5ee1f762</title>
<ellipse fill="none" stroke="black" cx="61.05" cy="-18" rx="43.4" ry="18"/>
<text text-anchor="middle" x="61.05" y="-14.3" font-family="Times,serif" font-size="14.00">CircleBuoy</text>
</g>
<!-- 526cf5a4&#45;06a4&#45;4e5c&#45;968e&#45;c73313c4e1a4&#45;&gt;f917e05c&#45;527a&#45;4219&#45;9ae6&#45;336f5ee1f762 -->
<g id="edge2" class="edge">
<title>526cf5a4&#45;06a4&#45;4e5c&#45;968e&#45;c73313c4e1a4&#45;&gt;f917e05c&#45;527a&#45;4219&#45;9ae6&#45;336f5ee1f762</title>
<path fill="none" stroke="purple" d="M61.05,-86.8C61.05,-75.16 61.05,-59.55 61.05,-46.24"/>
<polygon fill="purple" stroke="purple" points="64.55,-46.18 61.05,-36.18 57.55,-46.18 64.55,-46.18"/>
<text text-anchor="middle" x="96.55" y="-57.8" font-family="Times,serif" font-size="14.00" fill="purple">Pass Data</text>
</g>
<!-- 5e515d5d&#45;d463&#45;4271&#45;b1cd&#45;a5d0b3e19a6d -->
<g id="node5" class="node">
<title>5e515d5d&#45;d463&#45;4271&#45;b1cd&#45;a5d0b3e19a6d</title>
<ellipse fill="none" stroke="black" cx="61.05" cy="-192" rx="61.1" ry="18"/>
<text text-anchor="middle" x="61.05" y="-188.3" font-family="Times,serif" font-size="14.00">ExtractPosition</text>
</g>
<!-- 5e515d5d&#45;d463&#45;4271&#45;b1cd&#45;a5d0b3e19a6d&#45;&gt;526cf5a4&#45;06a4&#45;4e5c&#45;968e&#45;c73313c4e1a4 -->
<g id="edge3" class="edge">
<title>5e515d5d&#45;d463&#45;4271&#45;b1cd&#45;a5d0b3e19a6d&#45;&gt;526cf5a4&#45;06a4&#45;4e5c&#45;968e&#45;c73313c4e1a4</title>
<path fill="none" stroke="purple" d="M61.05,-173.8C61.05,-162.16 61.05,-146.55 61.05,-133.24"/>
<polygon fill="purple" stroke="purple" points="64.55,-133.18 61.05,-123.18 57.55,-133.18 64.55,-133.18"/>
<text text-anchor="middle" x="96.55" y="-144.8" font-family="Times,serif" font-size="14.00" fill="purple">Pass Data</text>
</g>
<!-- 73469410&#45;8e48&#45;4364&#45;865c&#45;25147e83883e -->
<g id="node6" class="node">
<title>73469410&#45;8e48&#45;4364&#45;865c&#45;25147e83883e</title>
<ellipse fill="none" stroke="black" cx="61.05" cy="-279" rx="27" ry="18"/>
<text text-anchor="middle" x="61.05" y="-275.3" font-family="Times,serif" font-size="14.00">ToVec</text>
</g>
<!-- 73469410&#45;8e48&#45;4364&#45;865c&#45;25147e83883e&#45;&gt;5e515d5d&#45;d463&#45;4271&#45;b1cd&#45;a5d0b3e19a6d -->
<g id="edge4" class="edge">
<title>73469410&#45;8e48&#45;4364&#45;865c&#45;25147e83883e&#45;&gt;5e515d5d&#45;d463&#45;4271&#45;b1cd&#45;a5d0b3e19a6d</title>
<path fill="none" stroke="purple" d="M61.05,-260.8C61.05,-249.16 61.05,-233.55 61.05,-220.24"/>
<polygon fill="purple" stroke="purple" points="64.55,-220.18 61.05,-210.18 57.55,-220.18 64.55,-220.18"/>
<text text-anchor="middle" x="96.55" y="-231.8" font-family="Times,serif" font-size="14.00" fill="purple">Pass Data</text>
</g>
<!-- 93497fb3&#45;9ad6&#45;4823&#45;9c1e&#45;9efffcee5467&#45;&gt;73469410&#45;8e48&#45;4364&#45;865c&#45;25147e83883e -->
<g id="edge5" class="edge">
<title>93497fb3&#45;9ad6&#45;4823&#45;9c1e&#45;9efffcee5467&#45;&gt;73469410&#45;8e48&#45;4364&#45;865c&#45;25147e83883e</title>
<path fill="none" stroke="purple" d="M61.05,-347.8C61.05,-336.16 61.05,-320.55 61.05,-307.24"/>
<polygon fill="purple" stroke="purple" points="64.55,-307.18 61.05,-297.18 57.55,-307.18 64.55,-307.18"/>
<text text-anchor="middle" x="96.55" y="-318.8" font-family="Times,serif" font-size="14.00" fill="purple">Pass Data</text>
</g>
<!-- c2289980&#45;2010&#45;4c7e&#45;a644&#45;c2f9e6f17314 -->
<g id="node8" class="node">
<title>c2289980&#45;2010&#45;4c7e&#45;a644&#45;c2f9e6f17314</title>
<ellipse fill="none" stroke="black" cx="61.05" cy="-585" rx="59.9" ry="18"/>
<text text-anchor="middle" x="61.05" y="-581.3" font-family="Times,serif" font-size="14.00">ZeroMovement</text>
</g>
<!-- c2289980&#45;2010&#45;4c7e&#45;a644&#45;c2f9e6f17314&#45;&gt;ec2e2003&#45;9c44&#45;446d&#45;bcfa&#45;9ad222db951a -->
<g id="edge7" class="edge">
<title>c2289980&#45;2010&#45;4c7e&#45;a644&#45;c2f9e6f17314&#45;&gt;ec2e2003&#45;9c44&#45;446d&#45;bcfa&#45;9ad222db951a</title>
<path fill="none" stroke="black" d="M61.05,-566.81C61.05,-558.79 61.05,-549.05 61.05,-540.07"/>
<polygon fill="black" stroke="black" points="64.55,-540.03 61.05,-530.03 57.55,-540.03 64.55,-540.03"/>
</g>
<!-- 1672e919&#45;8b92&#45;444f&#45;b72e&#45;4f94bf3c2c59 -->
<g id="node9" class="node">
<title>1672e919&#45;8b92&#45;444f&#45;b72e&#45;4f94bf3c2c59</title>
<ellipse fill="none" stroke="black" cx="61.05" cy="-658" rx="47.1" ry="18"/>
<text text-anchor="middle" x="61.05" y="-654.3" font-family="Times,serif" font-size="14.00">DelayAction</text>
</g>
<!-- 1672e919&#45;8b92&#45;444f&#45;b72e&#45;4f94bf3c2c59&#45;&gt;c2289980&#45;2010&#45;4c7e&#45;a644&#45;c2f9e6f17314 -->
<g id="edge8" class="edge">
<title>1672e919&#45;8b92&#45;444f&#45;b72e&#45;4f94bf3c2c59&#45;&gt;c2289980&#45;2010&#45;4c7e&#45;a644&#45;c2f9e6f17314</title>
<path fill="none" stroke="black" d="M61.05,-639.81C61.05,-631.79 61.05,-622.05 61.05,-613.07"/>
<polygon fill="black" stroke="black" points="64.55,-613.03 61.05,-603.03 57.55,-613.03 64.55,-613.03"/>
</g>
</g>
</svg>
