<?xml version="1.0" encoding="UTF-8" standalone="no"?>
<!DOCTYPE svg PUBLIC "-//W3C//DTD SVG 1.1//EN"
 "http://www.w3.org/Graphics/SVG/1.1/DTD/svg11.dtd">
<!-- Generated by graphviz version 2.43.0 (0)
 -->
<!-- Title: G Pages: 1 -->
<svg width="1817pt" height="693pt"
 viewBox="0.00 0.00 1817.00 693.00" xmlns="http://www.w3.org/2000/svg" xmlns:xlink="http://www.w3.org/1999/xlink">
<g id="graph0" class="graph" transform="scale(1 1) rotate(0) translate(4 689)">
<title>G</title>
<polygon fill="transparent" stroke="transparent" points="-4,4 -4,-689 1813,-689 1813,4 -4,4"/>
<g id="clust1" class="cluster">
<title>cluster_4bc62981&#45;c688&#45;4998&#45;abf0&#45;965dd4f06430</title>
<polygon fill="transparent" stroke="blue" stroke-dasharray="5,2" points="8,-79 8,-677 248,-677 248,-79 8,-79"/>
</g>
<g id="clust2" class="cluster">
<title>cluster_92c65b2b&#45;f2bd&#45;4386&#45;9c47&#45;6202cde7e70f</title>
<polygon fill="transparent" stroke="blue" stroke-dasharray="5,2" points="491,-79 491,-204 1000,-204 1000,-79 491,-79"/>
</g>
<g id="clust3" class="cluster">
<title>cluster_a79a60d8&#45;43e4&#45;41d8&#45;9983&#45;48199ebece6d</title>
<polygon fill="transparent" stroke="blue" stroke-dasharray="5,2" points="1271,-79 1271,-204 1801,-204 1801,-79 1271,-79"/>
</g>
<!-- fc043f14&#45;8b02&#45;4298&#45;8eb5&#45;cf50955340e6 -->
<g id="node1" class="node">
<title>fc043f14&#45;8b02&#45;4298&#45;8eb5&#45;cf50955340e6</title>
<polygon fill="none" stroke="black" points="620,-123 499.37,-105 620,-87 740.63,-105 620,-123"/>
<text text-anchor="middle" x="620" y="-101.3" font-family="Times,serif" font-size="14.00">Consecutive True &lt; 3</text>
</g>
<!-- 1bdf6ead&#45;ce35&#45;49dd&#45;9849&#45;3862269ee49d -->
<g id="node16" class="node">
<title>1bdf6ead&#45;ce35&#45;49dd&#45;9849&#45;3862269ee49d</title>
<ellipse fill="none" stroke="black" cx="356" cy="-18" rx="69.71" ry="18"/>
<text text-anchor="middle" x="356" y="-14.3" font-family="Times,serif" font-size="14.00">VisionNormOffset</text>
</g>
<!-- fc043f14&#45;8b02&#45;4298&#45;8eb5&#45;cf50955340e6&#45;&gt;1bdf6ead&#45;ce35&#45;49dd&#45;9849&#45;3862269ee49d -->
<g id="edge15" class="edge">
<title>fc043f14&#45;8b02&#45;4298&#45;8eb5&#45;cf50955340e6&#45;&gt;1bdf6ead&#45;ce35&#45;49dd&#45;9849&#45;3862269ee49d</title>
<path fill="none" stroke="black" d="M583.85,-92.36C538.21,-77.67 459.41,-52.29 407.49,-35.58"/>
<polygon fill="black" stroke="black" points="408.4,-32.19 397.8,-32.46 406.25,-38.86 408.4,-32.19"/>
<text text-anchor="middle" x="520" y="-57.8" font-family="Times,serif" font-size="14.00">True</text>
</g>
<!-- 5565ab99&#45;970b&#45;4471&#45;b37c&#45;e53ee62a61ee -->
<g id="node17" class="node">
<title>5565ab99&#45;970b&#45;4471&#45;b37c&#45;e53ee62a61ee</title>
<ellipse fill="none" stroke="black" cx="1136" cy="-18" rx="69.71" ry="18"/>
<text text-anchor="middle" x="1136" y="-14.3" font-family="Times,serif" font-size="14.00">VisionNormOffset</text>
</g>
<!-- fc043f14&#45;8b02&#45;4298&#45;8eb5&#45;cf50955340e6&#45;&gt;5565ab99&#45;970b&#45;4471&#45;b37c&#45;e53ee62a61ee -->
<g id="edge18" class="edge">
<title>fc043f14&#45;8b02&#45;4298&#45;8eb5&#45;cf50955340e6&#45;&gt;5565ab99&#45;970b&#45;4471&#45;b37c&#45;e53ee62a61ee</title>
<path fill="none" stroke="black" d="M674.25,-95.06C769.28,-79.41 965.57,-47.07 1068.95,-30.05"/>
<polygon fill="black" stroke="black" points="1069.66,-33.47 1078.96,-28.4 1068.53,-26.57 1069.66,-33.47"/>
<text text-anchor="middle" x="927" y="-57.8" font-family="Times,serif" font-size="14.00">False</text>
</g>
<!-- 5ecf244d&#45;a85e&#45;4759&#45;9962&#45;ed63b2c69a61 -->
<g id="node2" class="node">
<title>5ecf244d&#45;a85e&#45;4759&#45;9962&#45;ed63b2c69a61</title>
<polygon fill="none" stroke="black" points="1410,-123 1278.59,-105 1410,-87 1541.41,-105 1410,-123"/>
<text text-anchor="middle" x="1410" y="-101.3" font-family="Times,serif" font-size="14.00">Consecutive False &lt; 10</text>
</g>
<!-- 5ecf244d&#45;a85e&#45;4759&#45;9962&#45;ed63b2c69a61&#45;&gt;5565ab99&#45;970b&#45;4471&#45;b37c&#45;e53ee62a61ee -->
<g id="edge17" class="edge">
<title>5ecf244d&#45;a85e&#45;4759&#45;9962&#45;ed63b2c69a61&#45;&gt;5565ab99&#45;970b&#45;4471&#45;b37c&#45;e53ee62a61ee</title>
<path fill="none" stroke="black" d="M1371.9,-92.18C1324.14,-77.37 1242.05,-51.9 1188.4,-35.26"/>
<polygon fill="black" stroke="black" points="1189.32,-31.88 1178.73,-32.25 1187.24,-38.56 1189.32,-31.88"/>
<text text-anchor="middle" x="1306" y="-57.8" font-family="Times,serif" font-size="14.00">True</text>
</g>
<!-- d29cf0f1&#45;6653&#45;4a79&#45;b811&#45;17a8398973a9 -->
<g id="node3" class="node">
<title>d29cf0f1&#45;6653&#45;4a79&#45;b811&#45;17a8398973a9</title>
<ellipse fill="none" stroke="black" cx="88" cy="-470" rx="33.6" ry="18"/>
<text text-anchor="middle" x="88" y="-466.3" font-family="Times,serif" font-size="14.00">Descend</text>
</g>
<!-- e275f444&#45;cf3b&#45;4f7d&#45;b3b6&#45;bd41fa08e2a4 -->
<g id="node4" class="node">
<title>e275f444&#45;cf3b&#45;4f7d&#45;b3b6&#45;bd41fa08e2a4</title>
<ellipse fill="none" stroke="black" cx="88" cy="-397" rx="47.1" ry="18"/>
<text text-anchor="middle" x="88" y="-393.3" font-family="Times,serif" font-size="14.00">DelayAction</text>
</g>
<!-- d29cf0f1&#45;6653&#45;4a79&#45;b811&#45;17a8398973a9&#45;&gt;e275f444&#45;cf3b&#45;4f7d&#45;b3b6&#45;bd41fa08e2a4 -->
<g id="edge1" class="edge">
<title>d29cf0f1&#45;6653&#45;4a79&#45;b811&#45;17a8398973a9&#45;&gt;e275f444&#45;cf3b&#45;4f7d&#45;b3b6&#45;bd41fa08e2a4</title>
<path fill="none" stroke="black" d="M88,-451.81C88,-443.79 88,-434.05 88,-425.07"/>
<polygon fill="black" stroke="black" points="91.5,-425.03 88,-415.03 84.5,-425.03 91.5,-425.03"/>
</g>
<!-- 44c42bbc&#45;dc12&#45;4f0a&#45;aa42&#45;fd3c10db5726 -->
<g id="node5" class="node">
<title>44c42bbc&#45;dc12&#45;4f0a&#45;aa42&#45;fd3c10db5726</title>
<ellipse fill="none" stroke="black" cx="91" cy="-324" rx="74.61" ry="18"/>
<text text-anchor="middle" x="91" y="-320.3" font-family="Times,serif" font-size="14.00">StraightMovement</text>
</g>
<!-- e275f444&#45;cf3b&#45;4f7d&#45;b3b6&#45;bd41fa08e2a4&#45;&gt;44c42bbc&#45;dc12&#45;4f0a&#45;aa42&#45;fd3c10db5726 -->
<g id="edge4" class="edge">
<title>e275f444&#45;cf3b&#45;4f7d&#45;b3b6&#45;bd41fa08e2a4&#45;&gt;44c42bbc&#45;dc12&#45;4f0a&#45;aa42&#45;fd3c10db5726</title>
<path fill="none" stroke="black" d="M88.73,-378.81C89.07,-370.79 89.48,-361.05 89.86,-352.07"/>
<polygon fill="black" stroke="black" points="93.36,-352.17 90.28,-342.03 86.36,-351.87 93.36,-352.17"/>
</g>
<!-- f629ec9d&#45;2e0b&#45;4db5&#45;bff1&#45;572909b14bb2 -->
<g id="node6" class="node">
<title>f629ec9d&#45;2e0b&#45;4db5&#45;bff1&#45;572909b14bb2</title>
<ellipse fill="none" stroke="black" cx="93" cy="-251" rx="47.1" ry="18"/>
<text text-anchor="middle" x="93" y="-247.3" font-family="Times,serif" font-size="14.00">DelayAction</text>
</g>
<!-- 44c42bbc&#45;dc12&#45;4f0a&#45;aa42&#45;fd3c10db5726&#45;&gt;f629ec9d&#45;2e0b&#45;4db5&#45;bff1&#45;572909b14bb2 -->
<g id="edge2" class="edge">
<title>44c42bbc&#45;dc12&#45;4f0a&#45;aa42&#45;fd3c10db5726&#45;&gt;f629ec9d&#45;2e0b&#45;4db5&#45;bff1&#45;572909b14bb2</title>
<path fill="none" stroke="black" d="M91.48,-305.81C91.71,-297.79 91.98,-288.05 92.24,-279.07"/>
<polygon fill="black" stroke="black" points="95.74,-279.12 92.52,-269.03 88.74,-278.93 95.74,-279.12"/>
</g>
<!-- 223cceb7&#45;a35d&#45;47a8&#45;98bf&#45;c0b6bbcfa3e6 -->
<g id="node7" class="node">
<title>223cceb7&#45;a35d&#45;47a8&#45;98bf&#45;c0b6bbcfa3e6</title>
<ellipse fill="none" stroke="black" cx="102" cy="-178" rx="59.9" ry="18"/>
<text text-anchor="middle" x="102" y="-174.3" font-family="Times,serif" font-size="14.00">ZeroMovement</text>
</g>
<!-- f629ec9d&#45;2e0b&#45;4db5&#45;bff1&#45;572909b14bb2&#45;&gt;223cceb7&#45;a35d&#45;47a8&#45;98bf&#45;c0b6bbcfa3e6 -->
<g id="edge3" class="edge">
<title>f629ec9d&#45;2e0b&#45;4db5&#45;bff1&#45;572909b14bb2&#45;&gt;223cceb7&#45;a35d&#45;47a8&#45;98bf&#45;c0b6bbcfa3e6</title>
<path fill="none" stroke="black" d="M95.18,-232.81C96.2,-224.79 97.43,-215.05 98.57,-206.07"/>
<polygon fill="black" stroke="black" points="102.06,-206.39 99.84,-196.03 95.11,-205.51 102.06,-206.39"/>
</g>
<!-- 836967e9&#45;3bb9&#45;48b9&#45;80b0&#45;8712e6909cec -->
<g id="node11" class="node">
<title>836967e9&#45;3bb9&#45;48b9&#45;80b0&#45;8712e6909cec</title>
<polygon fill="none" stroke="black" stroke-dasharray="5,2" points="211.5,-123 126.5,-123 126.5,-87 211.5,-87 211.5,-123"/>
<text text-anchor="middle" x="169" y="-101.3" font-family="Times,serif" font-size="14.00" fill="blue">Converge</text>
</g>
<!-- 223cceb7&#45;a35d&#45;47a8&#45;98bf&#45;c0b6bbcfa3e6&#45;&gt;836967e9&#45;3bb9&#45;48b9&#45;80b0&#45;8712e6909cec -->
<g id="edge8" class="edge">
<title>223cceb7&#45;a35d&#45;47a8&#45;98bf&#45;c0b6bbcfa3e6&#45;&gt;836967e9&#45;3bb9&#45;48b9&#45;80b0&#45;8712e6909cec</title>
<path fill="none" stroke="black" d="M117.54,-160.53C125.84,-151.74 136.22,-140.74 145.48,-130.92"/>
<polygon fill="black" stroke="black" points="148.29,-133.04 152.61,-123.37 143.2,-128.24 148.29,-133.04"/>
</g>
<!-- ae3138b4&#45;d6ea&#45;48e9&#45;b1f2&#45;8338195a75c5 -->
<g id="node8" class="node">
<title>ae3138b4&#45;d6ea&#45;48e9&#45;b1f2&#45;8338195a75c5</title>
<ellipse fill="none" stroke="black" cx="82" cy="-578" rx="34.8" ry="18"/>
<text text-anchor="middle" x="82" y="-574.3" font-family="Times,serif" font-size="14.00">WaitArm</text>
</g>
<!-- ae3138b4&#45;d6ea&#45;48e9&#45;b1f2&#45;8338195a75c5&#45;&gt;d29cf0f1&#45;6653&#45;4a79&#45;b811&#45;17a8398973a9 -->
<g id="edge5" class="edge">
<title>ae3138b4&#45;d6ea&#45;48e9&#45;b1f2&#45;8338195a75c5&#45;&gt;d29cf0f1&#45;6653&#45;4a79&#45;b811&#45;17a8398973a9</title>
<path fill="none" stroke="black" d="M82.96,-559.97C83.9,-543.38 85.35,-517.88 86.45,-498.43"/>
<polygon fill="black" stroke="black" points="89.95,-498.52 87.02,-488.34 82.96,-498.13 89.95,-498.52"/>
</g>
<!-- 0b5f55aa&#45;9daa&#45;44ae&#45;8039&#45;481c6ea665b9 -->
<g id="node9" class="node">
<title>0b5f55aa&#45;9daa&#45;44ae&#45;8039&#45;481c6ea665b9</title>
<polygon fill="none" stroke="black" stroke-dasharray="5,2" points="210,-669 112,-669 112,-633 210,-633 210,-669"/>
<text text-anchor="middle" x="161" y="-647.3" font-family="Times,serif" font-size="14.00" fill="blue">Concurrent</text>
</g>
<!-- 0b5f55aa&#45;9daa&#45;44ae&#45;8039&#45;481c6ea665b9&#45;&gt;ae3138b4&#45;d6ea&#45;48e9&#45;b1f2&#45;8338195a75c5 -->
<g id="edge6" class="edge">
<title>0b5f55aa&#45;9daa&#45;44ae&#45;8039&#45;481c6ea665b9&#45;&gt;ae3138b4&#45;d6ea&#45;48e9&#45;b1f2&#45;8338195a75c5</title>
<path fill="none" stroke="black" d="M141.88,-632.81C131.12,-623.14 117.58,-610.98 106.1,-600.66"/>
<polygon fill="black" stroke="black" points="108.32,-597.95 98.54,-593.87 103.64,-603.15 108.32,-597.95"/>
</g>
<!-- 49ee2027&#45;222c&#45;4d9a&#45;9a27&#45;5317fb32786d -->
<g id="node10" class="node">
<title>49ee2027&#45;222c&#45;4d9a&#45;9a27&#45;5317fb32786d</title>
<ellipse fill="none" stroke="black" cx="189" cy="-524" rx="50.7" ry="18"/>
<text text-anchor="middle" x="189" y="-520.3" font-family="Times,serif" font-size="14.00">StartBno055</text>
</g>
<!-- 0b5f55aa&#45;9daa&#45;44ae&#45;8039&#45;481c6ea665b9&#45;&gt;49ee2027&#45;222c&#45;4d9a&#45;9a27&#45;5317fb32786d -->
<g id="edge7" class="edge">
<title>0b5f55aa&#45;9daa&#45;44ae&#45;8039&#45;481c6ea665b9&#45;&gt;49ee2027&#45;222c&#45;4d9a&#45;9a27&#45;5317fb32786d</title>
<path fill="none" stroke="black" d="M164.83,-632.88C169.5,-612.05 177.43,-576.64 182.93,-552.09"/>
<polygon fill="black" stroke="black" points="186.35,-552.84 185.12,-542.31 179.52,-551.31 186.35,-552.84"/>
</g>
<!-- 49ee2027&#45;222c&#45;4d9a&#45;9a27&#45;5317fb32786d&#45;&gt;836967e9&#45;3bb9&#45;48b9&#45;80b0&#45;8712e6909cec -->
<g id="edge9" class="edge">
<title>49ee2027&#45;222c&#45;4d9a&#45;9a27&#45;5317fb32786d&#45;&gt;836967e9&#45;3bb9&#45;48b9&#45;80b0&#45;8712e6909cec</title>
<path fill="none" stroke="black" d="M204.82,-506.8C219.47,-490.03 239,-462.36 239,-434 239,-434 239,-434 239,-177 239,-157.25 225.09,-141 209.67,-129.05"/>
<polygon fill="black" stroke="black" points="211.7,-126.2 201.54,-123.2 207.62,-131.88 211.7,-126.2"/>
</g>
<!-- 836967e9&#45;3bb9&#45;48b9&#45;80b0&#45;8712e6909cec&#45;&gt;1bdf6ead&#45;ce35&#45;49dd&#45;9849&#45;3862269ee49d -->
<g id="edge19" class="edge">
<title>836967e9&#45;3bb9&#45;48b9&#45;80b0&#45;8712e6909cec&#45;&gt;1bdf6ead&#45;ce35&#45;49dd&#45;9849&#45;3862269ee49d</title>
<path fill="none" stroke="black" d="M206.84,-86.8C237.93,-72.67 281.91,-52.68 314.06,-38.06"/>
<polygon fill="black" stroke="black" points="315.56,-41.23 323.21,-33.9 312.66,-34.85 315.56,-41.23"/>
</g>
<!-- e6f9d910&#45;7bcd&#45;4365&#45;885e&#45;ef2c3521de37 -->
<g id="node12" class="node">
<title>e6f9d910&#45;7bcd&#45;4365&#45;885e&#45;ef2c3521de37</title>
<polygon fill="none" stroke="black" stroke-dasharray="5,2" points="669,-196 571,-196 571,-160 669,-160 669,-196"/>
<text text-anchor="middle" x="620" y="-174.3" font-family="Times,serif" font-size="14.00" fill="blue">Concurrent</text>
</g>
<!-- e6f9d910&#45;7bcd&#45;4365&#45;885e&#45;ef2c3521de37&#45;&gt;fc043f14&#45;8b02&#45;4298&#45;8eb5&#45;cf50955340e6 -->
<g id="edge11" class="edge">
<title>e6f9d910&#45;7bcd&#45;4365&#45;885e&#45;ef2c3521de37&#45;&gt;fc043f14&#45;8b02&#45;4298&#45;8eb5&#45;cf50955340e6</title>
<path fill="none" stroke="black" d="M620,-159.81C620,-151.79 620,-142.05 620,-133.07"/>
<polygon fill="black" stroke="black" points="623.5,-133.03 620,-123.03 616.5,-133.03 623.5,-133.03"/>
</g>
<!-- b3103d2b&#45;e1f3&#45;46c0&#45;b429&#45;35bb28aeb56d -->
<g id="node13" class="node">
<title>b3103d2b&#45;e1f3&#45;46c0&#45;b429&#45;35bb28aeb56d</title>
<ellipse fill="none" stroke="black" cx="902" cy="-105" rx="89.81" ry="18"/>
<text text-anchor="middle" x="902" y="-101.3" font-family="Times,serif" font-size="14.00">AdjustMovementAngle</text>
</g>
<!-- e6f9d910&#45;7bcd&#45;4365&#45;885e&#45;ef2c3521de37&#45;&gt;b3103d2b&#45;e1f3&#45;46c0&#45;b429&#45;35bb28aeb56d -->
<g id="edge10" class="edge">
<title>e6f9d910&#45;7bcd&#45;4365&#45;885e&#45;ef2c3521de37&#45;&gt;b3103d2b&#45;e1f3&#45;46c0&#45;b429&#45;35bb28aeb56d</title>
<path fill="none" stroke="black" d="M669.12,-164.63C716.02,-152.83 786.93,-134.97 838.18,-122.07"/>
<polygon fill="black" stroke="black" points="839.32,-125.39 848.16,-119.56 837.61,-118.6 839.32,-125.39"/>
</g>
<!-- ac40918e&#45;fdca&#45;4852&#45;9a18&#45;8cf7b3335247 -->
<g id="node14" class="node">
<title>ac40918e&#45;fdca&#45;4852&#45;9a18&#45;8cf7b3335247</title>
<polygon fill="none" stroke="black" stroke-dasharray="5,2" points="1459,-196 1361,-196 1361,-160 1459,-160 1459,-196"/>
<text text-anchor="middle" x="1410" y="-174.3" font-family="Times,serif" font-size="14.00" fill="blue">Concurrent</text>
</g>
<!-- ac40918e&#45;fdca&#45;4852&#45;9a18&#45;8cf7b3335247&#45;&gt;5ecf244d&#45;a85e&#45;4759&#45;9962&#45;ed63b2c69a61 -->
<g id="edge13" class="edge">
<title>ac40918e&#45;fdca&#45;4852&#45;9a18&#45;8cf7b3335247&#45;&gt;5ecf244d&#45;a85e&#45;4759&#45;9962&#45;ed63b2c69a61</title>
<path fill="none" stroke="black" d="M1410,-159.81C1410,-151.79 1410,-142.05 1410,-133.07"/>
<polygon fill="black" stroke="black" points="1413.5,-133.03 1410,-123.03 1406.5,-133.03 1413.5,-133.03"/>
</g>
<!-- 014f5cff&#45;aa82&#45;4ae8&#45;99e1&#45;1bd1c2f3fab4 -->
<g id="node15" class="node">
<title>014f5cff&#45;aa82&#45;4ae8&#45;99e1&#45;1bd1c2f3fab4</title>
<ellipse fill="none" stroke="black" cx="1703" cy="-105" rx="89.81" ry="18"/>
<text text-anchor="middle" x="1703" y="-101.3" font-family="Times,serif" font-size="14.00">AdjustMovementAngle</text>
</g>
<!-- ac40918e&#45;fdca&#45;4852&#45;9a18&#45;8cf7b3335247&#45;&gt;014f5cff&#45;aa82&#45;4ae8&#45;99e1&#45;1bd1c2f3fab4 -->
<g id="edge12" class="edge">
<title>ac40918e&#45;fdca&#45;4852&#45;9a18&#45;8cf7b3335247&#45;&gt;014f5cff&#45;aa82&#45;4ae8&#45;99e1&#45;1bd1c2f3fab4</title>
<path fill="none" stroke="black" d="M1459.04,-165.12C1508.19,-153.21 1584.14,-134.8 1638.22,-121.7"/>
<polygon fill="black" stroke="black" points="1639.16,-125.07 1648.06,-119.31 1637.51,-118.27 1639.16,-125.07"/>
</g>
<!-- 1bdf6ead&#45;ce35&#45;49dd&#45;9849&#45;3862269ee49d&#45;&gt;e6f9d910&#45;7bcd&#45;4365&#45;885e&#45;ef2c3521de37 -->
<g id="edge14" class="edge">
<title>1bdf6ead&#45;ce35&#45;49dd&#45;9849&#45;3862269ee49d&#45;&gt;e6f9d910&#45;7bcd&#45;4365&#45;885e&#45;ef2c3521de37</title>
<path fill="none" stroke="purple" d="M357,-36.12C359.31,-59.29 366.91,-100.32 392,-123 416.53,-145.18 501.87,-160.97 560.89,-169.54"/>
<polygon fill="purple" stroke="purple" points="560.46,-173.01 570.85,-170.95 561.44,-166.08 560.46,-173.01"/>
<text text-anchor="middle" x="427.5" y="-101.3" font-family="Times,serif" font-size="14.00" fill="purple">Pass Data</text>
</g>
<!-- 5565ab99&#45;970b&#45;4471&#45;b37c&#45;e53ee62a61ee&#45;&gt;ac40918e&#45;fdca&#45;4852&#45;9a18&#45;8cf7b3335247 -->
<g id="edge16" class="edge">
<title>5565ab99&#45;970b&#45;4471&#45;b37c&#45;e53ee62a61ee&#45;&gt;ac40918e&#45;fdca&#45;4852&#45;9a18&#45;8cf7b3335247</title>
<path fill="none" stroke="purple" d="M1136.97,-36.15C1139.24,-59.36 1146.81,-100.44 1172,-123 1198.01,-146.29 1289.19,-161.98 1350.83,-170.19"/>
<polygon fill="purple" stroke="purple" points="1350.47,-173.68 1360.84,-171.5 1351.37,-166.74 1350.47,-173.68"/>
<text text-anchor="middle" x="1207.5" y="-101.3" font-family="Times,serif" font-size="14.00" fill="purple">Pass Data</text>
</g>
</g>
</svg>
