<?xml version="1.0" encoding="UTF-8" standalone="no"?>
<!DOCTYPE svg PUBLIC "-//W3C//DTD SVG 1.1//EN"
 "http://www.w3.org/Graphics/SVG/1.1/DTD/svg11.dtd">
<!-- Generated by graphviz version 2.43.0 (0)
 -->
<!-- Title: G Pages: 1 -->
<svg width="318pt" height="987pt"
 viewBox="0.00 0.00 318.29 987.00" xmlns="http://www.w3.org/2000/svg" xmlns:xlink="http://www.w3.org/1999/xlink">
<g id="graph0" class="graph" transform="scale(1 1) rotate(0) translate(4 983)">
<title>G</title>
<polygon fill="transparent" stroke="transparent" points="-4,4 -4,-983 314.29,-983 314.29,4 -4,4"/>
<!-- 60f1f916&#45;b1a4&#45;49d0&#45;992a&#45;162842b632ef -->
<g id="node1" class="node">
<title>60f1f916&#45;b1a4&#45;49d0&#45;992a&#45;162842b632ef</title>
<polygon fill="none" stroke="black" points="65.34,-906 0.16,-888 65.34,-870 130.52,-888 65.34,-906"/>
<text text-anchor="middle" x="65.34" y="-884.3" font-family="Times,serif" font-size="14.00">AlwaysTrue</text>
</g>
<!-- 56098496&#45;8bee&#45;45df&#45;9bcb&#45;e901e4cb8c18 -->
<g id="node11" class="node">
<title>56098496&#45;8bee&#45;45df&#45;9bcb&#45;e901e4cb8c18</title>
<ellipse fill="none" stroke="black" cx="103.34" cy="-801" rx="46.5" ry="18"/>
<text text-anchor="middle" x="103.34" y="-797.3" font-family="Times,serif" font-size="14.00">VisionNorm</text>
</g>
<!-- 60f1f916&#45;b1a4&#45;49d0&#45;992a&#45;162842b632ef&#45;&gt;56098496&#45;8bee&#45;45df&#45;9bcb&#45;e901e4cb8c18 -->
<g id="edge10" class="edge">
<title>60f1f916&#45;b1a4&#45;49d0&#45;992a&#45;162842b632ef&#45;&gt;56098496&#45;8bee&#45;45df&#45;9bcb&#45;e901e4cb8c18</title>
<path fill="none" stroke="black" d="M72.13,-871.8C77.54,-859.7 85.25,-842.47 91.65,-828.16"/>
<polygon fill="black" stroke="black" points="94.94,-829.37 95.82,-818.81 88.55,-826.51 94.94,-829.37"/>
<text text-anchor="middle" x="104.34" y="-840.8" font-family="Times,serif" font-size="14.00">True</text>
</g>
<!-- a7d70379&#45;a460&#45;46a0&#45;9c0a&#45;43adeb3aaaf6 -->
<g id="node2" class="node">
<title>a7d70379&#45;a460&#45;46a0&#45;9c0a&#45;43adeb3aaaf6</title>
<ellipse fill="none" stroke="black" cx="103.34" cy="-105" rx="27" ry="18"/>
<text text-anchor="middle" x="103.34" y="-101.3" font-family="Times,serif" font-size="14.00">FlatX</text>
</g>
<!-- 29db937f&#45;679a&#45;49c1&#45;b765&#45;4602c7780717 -->
<g id="node3" class="node">
<title>29db937f&#45;679a&#45;49c1&#45;b765&#45;4602c7780717</title>
<ellipse fill="none" stroke="black" cx="103.34" cy="-18" rx="80.11" ry="18"/>
<text text-anchor="middle" x="103.34" y="-14.3" font-family="Times,serif" font-size="14.00">Stability2Movement</text>
</g>
<!-- a7d70379&#45;a460&#45;46a0&#45;9c0a&#45;43adeb3aaaf6&#45;&gt;29db937f&#45;679a&#45;49c1&#45;b765&#45;4602c7780717 -->
<g id="edge1" class="edge">
<title>a7d70379&#45;a460&#45;46a0&#45;9c0a&#45;43adeb3aaaf6&#45;&gt;29db937f&#45;679a&#45;49c1&#45;b765&#45;4602c7780717</title>
<path fill="none" stroke="purple" d="M103.34,-86.8C103.34,-75.16 103.34,-59.55 103.34,-46.24"/>
<polygon fill="purple" stroke="purple" points="106.84,-46.18 103.34,-36.18 99.84,-46.18 106.84,-46.18"/>
<text text-anchor="middle" x="138.84" y="-57.8" font-family="Times,serif" font-size="14.00" fill="purple">Pass Data</text>
</g>
<!-- 465147e9&#45;efc7&#45;41bc&#45;b3fb&#45;448a210f1e2a -->
<g id="node4" class="node">
<title>465147e9&#45;efc7&#45;41bc&#45;b3fb&#45;448a210f1e2a</title>
<ellipse fill="none" stroke="black" cx="103.34" cy="-192" rx="27" ry="18"/>
<text text-anchor="middle" x="103.34" y="-188.3" font-family="Times,serif" font-size="14.00">StripY</text>
</g>
<!-- 465147e9&#45;efc7&#45;41bc&#45;b3fb&#45;448a210f1e2a&#45;&gt;a7d70379&#45;a460&#45;46a0&#45;9c0a&#45;43adeb3aaaf6 -->
<g id="edge2" class="edge">
<title>465147e9&#45;efc7&#45;41bc&#45;b3fb&#45;448a210f1e2a&#45;&gt;a7d70379&#45;a460&#45;46a0&#45;9c0a&#45;43adeb3aaaf6</title>
<path fill="none" stroke="purple" d="M103.34,-173.8C103.34,-162.16 103.34,-146.55 103.34,-133.24"/>
<polygon fill="purple" stroke="purple" points="106.84,-133.18 103.34,-123.18 99.84,-133.18 106.84,-133.18"/>
<text text-anchor="middle" x="138.84" y="-144.8" font-family="Times,serif" font-size="14.00" fill="purple">Pass Data</text>
</g>
<!-- f55c77cf&#45;9ac5&#45;4325&#45;a633&#45;8cb0206f1eed -->
<g id="node5" class="node">
<title>f55c77cf&#45;9ac5&#45;4325&#45;a633&#45;8cb0206f1eed</title>
<ellipse fill="none" stroke="black" cx="103.34" cy="-279" rx="52.6" ry="18"/>
<text text-anchor="middle" x="103.34" y="-275.3" font-family="Times,serif" font-size="14.00">Anon Closure</text>
</g>
<!-- f55c77cf&#45;9ac5&#45;4325&#45;a633&#45;8cb0206f1eed&#45;&gt;465147e9&#45;efc7&#45;41bc&#45;b3fb&#45;448a210f1e2a -->
<g id="edge3" class="edge">
<title>f55c77cf&#45;9ac5&#45;4325&#45;a633&#45;8cb0206f1eed&#45;&gt;465147e9&#45;efc7&#45;41bc&#45;b3fb&#45;448a210f1e2a</title>
<path fill="none" stroke="purple" d="M103.34,-260.8C103.34,-249.16 103.34,-233.55 103.34,-220.24"/>
<polygon fill="purple" stroke="purple" points="106.84,-220.18 103.34,-210.18 99.84,-220.18 106.84,-220.18"/>
<text text-anchor="middle" x="138.84" y="-231.8" font-family="Times,serif" font-size="14.00" fill="purple">Pass Data</text>
</g>
<!-- d25c1a55&#45;272a&#45;403c&#45;9b65&#45;e691ba92847f -->
<g id="node6" class="node">
<title>d25c1a55&#45;272a&#45;403c&#45;9b65&#45;e691ba92847f</title>
<ellipse fill="none" stroke="black" cx="103.34" cy="-366" rx="51.3" ry="18"/>
<text text-anchor="middle" x="103.34" y="-362.3" font-family="Times,serif" font-size="14.00">OffsetToPose</text>
</g>
<!-- d25c1a55&#45;272a&#45;403c&#45;9b65&#45;e691ba92847f&#45;&gt;f55c77cf&#45;9ac5&#45;4325&#45;a633&#45;8cb0206f1eed -->
<g id="edge4" class="edge">
<title>d25c1a55&#45;272a&#45;403c&#45;9b65&#45;e691ba92847f&#45;&gt;f55c77cf&#45;9ac5&#45;4325&#45;a633&#45;8cb0206f1eed</title>
<path fill="none" stroke="purple" d="M103.34,-347.8C103.34,-336.16 103.34,-320.55 103.34,-307.24"/>
<polygon fill="purple" stroke="purple" points="106.84,-307.18 103.34,-297.18 99.84,-307.18 106.84,-307.18"/>
<text text-anchor="middle" x="138.84" y="-318.8" font-family="Times,serif" font-size="14.00" fill="purple">Pass Data</text>
</g>
<!-- e8502145&#45;190a&#45;4b64&#45;8a58&#45;0b77d2283025 -->
<g id="node7" class="node">
<title>e8502145&#45;190a&#45;4b64&#45;8a58&#45;0b77d2283025</title>
<ellipse fill="none" stroke="black" cx="103.34" cy="-453" rx="32.4" ry="18"/>
<text text-anchor="middle" x="103.34" y="-449.3" font-family="Times,serif" font-size="14.00">Average</text>
</g>
<!-- e8502145&#45;190a&#45;4b64&#45;8a58&#45;0b77d2283025&#45;&gt;d25c1a55&#45;272a&#45;403c&#45;9b65&#45;e691ba92847f -->
<g id="edge5" class="edge">
<title>e8502145&#45;190a&#45;4b64&#45;8a58&#45;0b77d2283025&#45;&gt;d25c1a55&#45;272a&#45;403c&#45;9b65&#45;e691ba92847f</title>
<path fill="none" stroke="purple" d="M103.34,-434.8C103.34,-423.16 103.34,-407.55 103.34,-394.24"/>
<polygon fill="purple" stroke="purple" points="106.84,-394.18 103.34,-384.18 99.84,-394.18 106.84,-394.18"/>
<text text-anchor="middle" x="138.84" y="-405.8" font-family="Times,serif" font-size="14.00" fill="purple">Pass Data</text>
</g>
<!-- bacc4dca&#45;198e&#45;44a1&#45;8718&#45;6d939828415e -->
<g id="node8" class="node">
<title>bacc4dca&#45;198e&#45;44a1&#45;8718&#45;6d939828415e</title>
<ellipse fill="none" stroke="black" cx="103.34" cy="-540" rx="61.1" ry="18"/>
<text text-anchor="middle" x="103.34" y="-536.3" font-family="Times,serif" font-size="14.00">ExtractPosition</text>
</g>
<!-- bacc4dca&#45;198e&#45;44a1&#45;8718&#45;6d939828415e&#45;&gt;e8502145&#45;190a&#45;4b64&#45;8a58&#45;0b77d2283025 -->
<g id="edge6" class="edge">
<title>bacc4dca&#45;198e&#45;44a1&#45;8718&#45;6d939828415e&#45;&gt;e8502145&#45;190a&#45;4b64&#45;8a58&#45;0b77d2283025</title>
<path fill="none" stroke="purple" d="M103.34,-521.8C103.34,-510.16 103.34,-494.55 103.34,-481.24"/>
<polygon fill="purple" stroke="purple" points="106.84,-481.18 103.34,-471.18 99.84,-481.18 106.84,-481.18"/>
<text text-anchor="middle" x="138.84" y="-492.8" font-family="Times,serif" font-size="14.00" fill="purple">Pass Data</text>
</g>
<!-- c15d7682&#45;1203&#45;4ad4&#45;8504&#45;014f08995539 -->
<g id="node9" class="node">
<title>c15d7682&#45;1203&#45;4ad4&#45;8504&#45;014f08995539</title>
<ellipse fill="none" stroke="black" cx="103.34" cy="-627" rx="27" ry="18"/>
<text text-anchor="middle" x="103.34" y="-623.3" font-family="Times,serif" font-size="14.00">ToVec</text>
</g>
<!-- c15d7682&#45;1203&#45;4ad4&#45;8504&#45;014f08995539&#45;&gt;bacc4dca&#45;198e&#45;44a1&#45;8718&#45;6d939828415e -->
<g id="edge7" class="edge">
<title>c15d7682&#45;1203&#45;4ad4&#45;8504&#45;014f08995539&#45;&gt;bacc4dca&#45;198e&#45;44a1&#45;8718&#45;6d939828415e</title>
<path fill="none" stroke="purple" d="M103.34,-608.8C103.34,-597.16 103.34,-581.55 103.34,-568.24"/>
<polygon fill="purple" stroke="purple" points="106.84,-568.18 103.34,-558.18 99.84,-568.18 106.84,-568.18"/>
<text text-anchor="middle" x="138.84" y="-579.8" font-family="Times,serif" font-size="14.00" fill="purple">Pass Data</text>
</g>
<!-- 7df82249&#45;fdf9&#45;4048&#45;ab02&#45;bf35e6ff73f8 -->
<g id="node10" class="node">
<title>7df82249&#45;fdf9&#45;4048&#45;ab02&#45;bf35e6ff73f8</title>
<ellipse fill="none" stroke="black" cx="103.34" cy="-714" rx="45.2" ry="18"/>
<text text-anchor="middle" x="103.34" y="-710.3" font-family="Times,serif" font-size="14.00">Detect true</text>
</g>
<!-- 7df82249&#45;fdf9&#45;4048&#45;ab02&#45;bf35e6ff73f8&#45;&gt;c15d7682&#45;1203&#45;4ad4&#45;8504&#45;014f08995539 -->
<g id="edge8" class="edge">
<title>7df82249&#45;fdf9&#45;4048&#45;ab02&#45;bf35e6ff73f8&#45;&gt;c15d7682&#45;1203&#45;4ad4&#45;8504&#45;014f08995539</title>
<path fill="none" stroke="purple" d="M103.34,-695.8C103.34,-684.16 103.34,-668.55 103.34,-655.24"/>
<polygon fill="purple" stroke="purple" points="106.84,-655.18 103.34,-645.18 99.84,-655.18 106.84,-655.18"/>
<text text-anchor="middle" x="138.84" y="-666.8" font-family="Times,serif" font-size="14.00" fill="purple">Pass Data</text>
</g>
<!-- 56098496&#45;8bee&#45;45df&#45;9bcb&#45;e901e4cb8c18&#45;&gt;7df82249&#45;fdf9&#45;4048&#45;ab02&#45;bf35e6ff73f8 -->
<g id="edge9" class="edge">
<title>56098496&#45;8bee&#45;45df&#45;9bcb&#45;e901e4cb8c18&#45;&gt;7df82249&#45;fdf9&#45;4048&#45;ab02&#45;bf35e6ff73f8</title>
<path fill="none" stroke="purple" d="M103.34,-782.8C103.34,-771.16 103.34,-755.55 103.34,-742.24"/>
<polygon fill="purple" stroke="purple" points="106.84,-742.18 103.34,-732.18 99.84,-742.18 106.84,-742.18"/>
<text text-anchor="middle" x="138.84" y="-753.8" font-family="Times,serif" font-size="14.00" fill="purple">Pass Data</text>
</g>
<!-- 531b4127&#45;de46&#45;41bc&#45;9d32&#45;63feff6fc054 -->
<g id="node12" class="node">
<title>531b4127&#45;de46&#45;41bc&#45;9d32&#45;63feff6fc054</title>
<ellipse fill="none" stroke="black" cx="250.34" cy="-888" rx="47.1" ry="18"/>
<text text-anchor="middle" x="250.34" y="-884.3" font-family="Times,serif" font-size="14.00">DelayAction</text>
</g>
<!-- 531b4127&#45;de46&#45;41bc&#45;9d32&#45;63feff6fc054&#45;&gt;56098496&#45;8bee&#45;45df&#45;9bcb&#45;e901e4cb8c18 -->
<g id="edge11" class="edge">
<title>531b4127&#45;de46&#45;41bc&#45;9d32&#45;63feff6fc054&#45;&gt;56098496&#45;8bee&#45;45df&#45;9bcb&#45;e901e4cb8c18</title>
<path fill="none" stroke="black" d="M225.4,-872.58C201.12,-858.54 164.03,-837.09 137.1,-821.52"/>
<polygon fill="black" stroke="black" points="138.81,-818.47 128.4,-816.49 135.3,-824.53 138.81,-818.47"/>
</g>
<!-- e6c6e6af&#45;bd47&#45;4369&#45;89f2&#45;50723cd57adc -->
<g id="node13" class="node">
<title>e6c6e6af&#45;bd47&#45;4369&#45;89f2&#45;50723cd57adc</title>
<ellipse fill="none" stroke="black" cx="250.34" cy="-961" rx="59.9" ry="18"/>
<text text-anchor="middle" x="250.34" y="-957.3" font-family="Times,serif" font-size="14.00">ZeroMovement</text>
</g>
<!-- e6c6e6af&#45;bd47&#45;4369&#45;89f2&#45;50723cd57adc&#45;&gt;531b4127&#45;de46&#45;41bc&#45;9d32&#45;63feff6fc054 -->
<g id="edge12" class="edge">
<title>e6c6e6af&#45;bd47&#45;4369&#45;89f2&#45;50723cd57adc&#45;&gt;531b4127&#45;de46&#45;41bc&#45;9d32&#45;63feff6fc054</title>
<path fill="none" stroke="black" d="M250.34,-942.81C250.34,-934.79 250.34,-925.05 250.34,-916.07"/>
<polygon fill="black" stroke="black" points="253.84,-916.03 250.34,-906.03 246.84,-916.03 253.84,-916.03"/>
</g>
</g>
</svg>
