<?xml version="1.0" encoding="UTF-8" standalone="no"?>
<!DOCTYPE svg PUBLIC "-//W3C//DTD SVG 1.1//EN"
 "http://www.w3.org/Graphics/SVG/1.1/DTD/svg11.dtd">
<!-- Generated by graphviz version 2.43.0 (0)
 -->
<!-- Title: G Pages: 1 -->
<svg width="318pt" height="987pt"
 viewBox="0.00 0.00 318.29 987.00" xmlns="http://www.w3.org/2000/svg" xmlns:xlink="http://www.w3.org/1999/xlink">
<g id="graph0" class="graph" transform="scale(1 1) rotate(0) translate(4 983)">
<title>G</title>
<polygon fill="transparent" stroke="transparent" points="-4,4 -4,-983 314.29,-983 314.29,4 -4,4"/>
<!-- c0da826b&#45;6ec6&#45;4f6a&#45;b6e6&#45;a9094b5f28a3 -->
<g id="node1" class="node">
<title>c0da826b&#45;6ec6&#45;4f6a&#45;b6e6&#45;a9094b5f28a3</title>
<polygon fill="none" stroke="black" points="65.34,-906 0.16,-888 65.34,-870 130.52,-888 65.34,-906"/>
<text text-anchor="middle" x="65.34" y="-884.3" font-family="Times,serif" font-size="14.00">AlwaysTrue</text>
</g>
<!-- c560d053&#45;343a&#45;428a&#45;9e11&#45;9513d2d8b3b1 -->
<g id="node11" class="node">
<title>c560d053&#45;343a&#45;428a&#45;9e11&#45;9513d2d8b3b1</title>
<ellipse fill="none" stroke="black" cx="103.34" cy="-801" rx="46.5" ry="18"/>
<text text-anchor="middle" x="103.34" y="-797.3" font-family="Times,serif" font-size="14.00">VisionNorm</text>
</g>
<!-- c0da826b&#45;6ec6&#45;4f6a&#45;b6e6&#45;a9094b5f28a3&#45;&gt;c560d053&#45;343a&#45;428a&#45;9e11&#45;9513d2d8b3b1 -->
<g id="edge10" class="edge">
<title>c0da826b&#45;6ec6&#45;4f6a&#45;b6e6&#45;a9094b5f28a3&#45;&gt;c560d053&#45;343a&#45;428a&#45;9e11&#45;9513d2d8b3b1</title>
<path fill="none" stroke="black" d="M72.13,-871.8C77.54,-859.7 85.25,-842.47 91.65,-828.16"/>
<polygon fill="black" stroke="black" points="94.94,-829.37 95.82,-818.81 88.55,-826.51 94.94,-829.37"/>
<text text-anchor="middle" x="104.34" y="-840.8" font-family="Times,serif" font-size="14.00">True</text>
</g>
<!-- 35743905&#45;f1e3&#45;4a52&#45;a047&#45;3ee045f71e0a -->
<g id="node2" class="node">
<title>35743905&#45;f1e3&#45;4a52&#45;a047&#45;3ee045f71e0a</title>
<ellipse fill="none" stroke="black" cx="103.34" cy="-105" rx="27" ry="18"/>
<text text-anchor="middle" x="103.34" y="-101.3" font-family="Times,serif" font-size="14.00">FlatX</text>
</g>
<!-- feddca2d&#45;6ad8&#45;4e44&#45;af5e&#45;a1487b4292bd -->
<g id="node3" class="node">
<title>feddca2d&#45;6ad8&#45;4e44&#45;af5e&#45;a1487b4292bd</title>
<ellipse fill="none" stroke="black" cx="103.34" cy="-18" rx="80.11" ry="18"/>
<text text-anchor="middle" x="103.34" y="-14.3" font-family="Times,serif" font-size="14.00">Stability2Movement</text>
</g>
<!-- 35743905&#45;f1e3&#45;4a52&#45;a047&#45;3ee045f71e0a&#45;&gt;feddca2d&#45;6ad8&#45;4e44&#45;af5e&#45;a1487b4292bd -->
<g id="edge1" class="edge">
<title>35743905&#45;f1e3&#45;4a52&#45;a047&#45;3ee045f71e0a&#45;&gt;feddca2d&#45;6ad8&#45;4e44&#45;af5e&#45;a1487b4292bd</title>
<path fill="none" stroke="purple" d="M103.34,-86.8C103.34,-75.16 103.34,-59.55 103.34,-46.24"/>
<polygon fill="purple" stroke="purple" points="106.84,-46.18 103.34,-36.18 99.84,-46.18 106.84,-46.18"/>
<text text-anchor="middle" x="138.84" y="-57.8" font-family="Times,serif" font-size="14.00" fill="purple">Pass Data</text>
</g>
<!-- 211c03d0&#45;ea80&#45;4a58&#45;8b20&#45;c7c32035a886 -->
<g id="node4" class="node">
<title>211c03d0&#45;ea80&#45;4a58&#45;8b20&#45;c7c32035a886</title>
<ellipse fill="none" stroke="black" cx="103.34" cy="-192" rx="27" ry="18"/>
<text text-anchor="middle" x="103.34" y="-188.3" font-family="Times,serif" font-size="14.00">StripY</text>
</g>
<!-- 211c03d0&#45;ea80&#45;4a58&#45;8b20&#45;c7c32035a886&#45;&gt;35743905&#45;f1e3&#45;4a52&#45;a047&#45;3ee045f71e0a -->
<g id="edge2" class="edge">
<title>211c03d0&#45;ea80&#45;4a58&#45;8b20&#45;c7c32035a886&#45;&gt;35743905&#45;f1e3&#45;4a52&#45;a047&#45;3ee045f71e0a</title>
<path fill="none" stroke="purple" d="M103.34,-173.8C103.34,-162.16 103.34,-146.55 103.34,-133.24"/>
<polygon fill="purple" stroke="purple" points="106.84,-133.18 103.34,-123.18 99.84,-133.18 106.84,-133.18"/>
<text text-anchor="middle" x="138.84" y="-144.8" font-family="Times,serif" font-size="14.00" fill="purple">Pass Data</text>
</g>
<!-- af534149&#45;40c2&#45;4fe3&#45;9fed&#45;d8f563d0e7ec -->
<g id="node5" class="node">
<title>af534149&#45;40c2&#45;4fe3&#45;9fed&#45;d8f563d0e7ec</title>
<ellipse fill="none" stroke="black" cx="103.34" cy="-279" rx="52.6" ry="18"/>
<text text-anchor="middle" x="103.34" y="-275.3" font-family="Times,serif" font-size="14.00">Anon Closure</text>
</g>
<!-- af534149&#45;40c2&#45;4fe3&#45;9fed&#45;d8f563d0e7ec&#45;&gt;211c03d0&#45;ea80&#45;4a58&#45;8b20&#45;c7c32035a886 -->
<g id="edge3" class="edge">
<title>af534149&#45;40c2&#45;4fe3&#45;9fed&#45;d8f563d0e7ec&#45;&gt;211c03d0&#45;ea80&#45;4a58&#45;8b20&#45;c7c32035a886</title>
<path fill="none" stroke="purple" d="M103.34,-260.8C103.34,-249.16 103.34,-233.55 103.34,-220.24"/>
<polygon fill="purple" stroke="purple" points="106.84,-220.18 103.34,-210.18 99.84,-220.18 106.84,-220.18"/>
<text text-anchor="middle" x="138.84" y="-231.8" font-family="Times,serif" font-size="14.00" fill="purple">Pass Data</text>
</g>
<!-- bedf57de&#45;3c4c&#45;48e2&#45;9e39&#45;f32338291ad0 -->
<g id="node6" class="node">
<title>bedf57de&#45;3c4c&#45;48e2&#45;9e39&#45;f32338291ad0</title>
<ellipse fill="none" stroke="black" cx="103.34" cy="-366" rx="51.3" ry="18"/>
<text text-anchor="middle" x="103.34" y="-362.3" font-family="Times,serif" font-size="14.00">OffsetToPose</text>
</g>
<!-- bedf57de&#45;3c4c&#45;48e2&#45;9e39&#45;f32338291ad0&#45;&gt;af534149&#45;40c2&#45;4fe3&#45;9fed&#45;d8f563d0e7ec -->
<g id="edge4" class="edge">
<title>bedf57de&#45;3c4c&#45;48e2&#45;9e39&#45;f32338291ad0&#45;&gt;af534149&#45;40c2&#45;4fe3&#45;9fed&#45;d8f563d0e7ec</title>
<path fill="none" stroke="purple" d="M103.34,-347.8C103.34,-336.16 103.34,-320.55 103.34,-307.24"/>
<polygon fill="purple" stroke="purple" points="106.84,-307.18 103.34,-297.18 99.84,-307.18 106.84,-307.18"/>
<text text-anchor="middle" x="138.84" y="-318.8" font-family="Times,serif" font-size="14.00" fill="purple">Pass Data</text>
</g>
<!-- 0c244be9&#45;37fe&#45;49c0&#45;ad85&#45;0d3674eb17e9 -->
<g id="node7" class="node">
<title>0c244be9&#45;37fe&#45;49c0&#45;ad85&#45;0d3674eb17e9</title>
<ellipse fill="none" stroke="black" cx="103.34" cy="-453" rx="32.4" ry="18"/>
<text text-anchor="middle" x="103.34" y="-449.3" font-family="Times,serif" font-size="14.00">Average</text>
</g>
<!-- 0c244be9&#45;37fe&#45;49c0&#45;ad85&#45;0d3674eb17e9&#45;&gt;bedf57de&#45;3c4c&#45;48e2&#45;9e39&#45;f32338291ad0 -->
<g id="edge5" class="edge">
<title>0c244be9&#45;37fe&#45;49c0&#45;ad85&#45;0d3674eb17e9&#45;&gt;bedf57de&#45;3c4c&#45;48e2&#45;9e39&#45;f32338291ad0</title>
<path fill="none" stroke="purple" d="M103.34,-434.8C103.34,-423.16 103.34,-407.55 103.34,-394.24"/>
<polygon fill="purple" stroke="purple" points="106.84,-394.18 103.34,-384.18 99.84,-394.18 106.84,-394.18"/>
<text text-anchor="middle" x="138.84" y="-405.8" font-family="Times,serif" font-size="14.00" fill="purple">Pass Data</text>
</g>
<!-- de65a7be&#45;c9e5&#45;4e48&#45;8788&#45;820b23512bac -->
<g id="node8" class="node">
<title>de65a7be&#45;c9e5&#45;4e48&#45;8788&#45;820b23512bac</title>
<ellipse fill="none" stroke="black" cx="103.34" cy="-540" rx="61.1" ry="18"/>
<text text-anchor="middle" x="103.34" y="-536.3" font-family="Times,serif" font-size="14.00">ExtractPosition</text>
</g>
<!-- de65a7be&#45;c9e5&#45;4e48&#45;8788&#45;820b23512bac&#45;&gt;0c244be9&#45;37fe&#45;49c0&#45;ad85&#45;0d3674eb17e9 -->
<g id="edge6" class="edge">
<title>de65a7be&#45;c9e5&#45;4e48&#45;8788&#45;820b23512bac&#45;&gt;0c244be9&#45;37fe&#45;49c0&#45;ad85&#45;0d3674eb17e9</title>
<path fill="none" stroke="purple" d="M103.34,-521.8C103.34,-510.16 103.34,-494.55 103.34,-481.24"/>
<polygon fill="purple" stroke="purple" points="106.84,-481.18 103.34,-471.18 99.84,-481.18 106.84,-481.18"/>
<text text-anchor="middle" x="138.84" y="-492.8" font-family="Times,serif" font-size="14.00" fill="purple">Pass Data</text>
</g>
<!-- 00330fd9&#45;1b70&#45;4b92&#45;b97f&#45;d1f3ecb1a54e -->
<g id="node9" class="node">
<title>00330fd9&#45;1b70&#45;4b92&#45;b97f&#45;d1f3ecb1a54e</title>
<ellipse fill="none" stroke="black" cx="103.34" cy="-627" rx="27" ry="18"/>
<text text-anchor="middle" x="103.34" y="-623.3" font-family="Times,serif" font-size="14.00">ToVec</text>
</g>
<!-- 00330fd9&#45;1b70&#45;4b92&#45;b97f&#45;d1f3ecb1a54e&#45;&gt;de65a7be&#45;c9e5&#45;4e48&#45;8788&#45;820b23512bac -->
<g id="edge7" class="edge">
<title>00330fd9&#45;1b70&#45;4b92&#45;b97f&#45;d1f3ecb1a54e&#45;&gt;de65a7be&#45;c9e5&#45;4e48&#45;8788&#45;820b23512bac</title>
<path fill="none" stroke="purple" d="M103.34,-608.8C103.34,-597.16 103.34,-581.55 103.34,-568.24"/>
<polygon fill="purple" stroke="purple" points="106.84,-568.18 103.34,-558.18 99.84,-568.18 106.84,-568.18"/>
<text text-anchor="middle" x="138.84" y="-579.8" font-family="Times,serif" font-size="14.00" fill="purple">Pass Data</text>
</g>
<!-- d2e22f68&#45;9aa2&#45;4504&#45;9709&#45;bbeb8b141609 -->
<g id="node10" class="node">
<title>d2e22f68&#45;9aa2&#45;4504&#45;9709&#45;bbeb8b141609</title>
<ellipse fill="none" stroke="black" cx="103.34" cy="-714" rx="45.2" ry="18"/>
<text text-anchor="middle" x="103.34" y="-710.3" font-family="Times,serif" font-size="14.00">Detect true</text>
</g>
<!-- d2e22f68&#45;9aa2&#45;4504&#45;9709&#45;bbeb8b141609&#45;&gt;00330fd9&#45;1b70&#45;4b92&#45;b97f&#45;d1f3ecb1a54e -->
<g id="edge8" class="edge">
<title>d2e22f68&#45;9aa2&#45;4504&#45;9709&#45;bbeb8b141609&#45;&gt;00330fd9&#45;1b70&#45;4b92&#45;b97f&#45;d1f3ecb1a54e</title>
<path fill="none" stroke="purple" d="M103.34,-695.8C103.34,-684.16 103.34,-668.55 103.34,-655.24"/>
<polygon fill="purple" stroke="purple" points="106.84,-655.18 103.34,-645.18 99.84,-655.18 106.84,-655.18"/>
<text text-anchor="middle" x="138.84" y="-666.8" font-family="Times,serif" font-size="14.00" fill="purple">Pass Data</text>
</g>
<!-- c560d053&#45;343a&#45;428a&#45;9e11&#45;9513d2d8b3b1&#45;&gt;d2e22f68&#45;9aa2&#45;4504&#45;9709&#45;bbeb8b141609 -->
<g id="edge9" class="edge">
<title>c560d053&#45;343a&#45;428a&#45;9e11&#45;9513d2d8b3b1&#45;&gt;d2e22f68&#45;9aa2&#45;4504&#45;9709&#45;bbeb8b141609</title>
<path fill="none" stroke="purple" d="M103.34,-782.8C103.34,-771.16 103.34,-755.55 103.34,-742.24"/>
<polygon fill="purple" stroke="purple" points="106.84,-742.18 103.34,-732.18 99.84,-742.18 106.84,-742.18"/>
<text text-anchor="middle" x="138.84" y="-753.8" font-family="Times,serif" font-size="14.00" fill="purple">Pass Data</text>
</g>
<!-- 6075dba6&#45;87e1&#45;4184&#45;b9a5&#45;9d1aadf7958c -->
<g id="node12" class="node">
<title>6075dba6&#45;87e1&#45;4184&#45;b9a5&#45;9d1aadf7958c</title>
<ellipse fill="none" stroke="black" cx="250.34" cy="-888" rx="47.1" ry="18"/>
<text text-anchor="middle" x="250.34" y="-884.3" font-family="Times,serif" font-size="14.00">DelayAction</text>
</g>
<!-- 6075dba6&#45;87e1&#45;4184&#45;b9a5&#45;9d1aadf7958c&#45;&gt;c560d053&#45;343a&#45;428a&#45;9e11&#45;9513d2d8b3b1 -->
<g id="edge11" class="edge">
<title>6075dba6&#45;87e1&#45;4184&#45;b9a5&#45;9d1aadf7958c&#45;&gt;c560d053&#45;343a&#45;428a&#45;9e11&#45;9513d2d8b3b1</title>
<path fill="none" stroke="black" d="M225.4,-872.58C201.12,-858.54 164.03,-837.09 137.1,-821.52"/>
<polygon fill="black" stroke="black" points="138.81,-818.47 128.4,-816.49 135.3,-824.53 138.81,-818.47"/>
</g>
<!-- 37485210&#45;b721&#45;4e82&#45;a0ec&#45;8f8f40c58589 -->
<g id="node13" class="node">
<title>37485210&#45;b721&#45;4e82&#45;a0ec&#45;8f8f40c58589</title>
<ellipse fill="none" stroke="black" cx="250.34" cy="-961" rx="59.9" ry="18"/>
<text text-anchor="middle" x="250.34" y="-957.3" font-family="Times,serif" font-size="14.00">ZeroMovement</text>
</g>
<!-- 37485210&#45;b721&#45;4e82&#45;a0ec&#45;8f8f40c58589&#45;&gt;6075dba6&#45;87e1&#45;4184&#45;b9a5&#45;9d1aadf7958c -->
<g id="edge12" class="edge">
<title>37485210&#45;b721&#45;4e82&#45;a0ec&#45;8f8f40c58589&#45;&gt;6075dba6&#45;87e1&#45;4184&#45;b9a5&#45;9d1aadf7958c</title>
<path fill="none" stroke="black" d="M250.34,-942.81C250.34,-934.79 250.34,-925.05 250.34,-916.07"/>
<polygon fill="black" stroke="black" points="253.84,-916.03 250.34,-906.03 246.84,-916.03 253.84,-916.03"/>
</g>
</g>
</svg>
