<?xml version="1.0" encoding="UTF-8" standalone="no"?>
<!DOCTYPE svg PUBLIC "-//W3C//DTD SVG 1.1//EN"
 "http://www.w3.org/Graphics/SVG/1.1/DTD/svg11.dtd">
<!-- Generated by graphviz version 2.43.0 (0)
 -->
<!-- Title: G Pages: 1 -->
<svg width="318pt" height="987pt"
 viewBox="0.00 0.00 318.29 987.00" xmlns="http://www.w3.org/2000/svg" xmlns:xlink="http://www.w3.org/1999/xlink">
<g id="graph0" class="graph" transform="scale(1 1) rotate(0) translate(4 983)">
<title>G</title>
<polygon fill="transparent" stroke="transparent" points="-4,4 -4,-983 314.29,-983 314.29,4 -4,4"/>
<!-- 27056f2d&#45;4698&#45;4f43&#45;aa6f&#45;03492218091b -->
<g id="node1" class="node">
<title>27056f2d&#45;4698&#45;4f43&#45;aa6f&#45;03492218091b</title>
<polygon fill="none" stroke="black" points="65.34,-906 0.16,-888 65.34,-870 130.52,-888 65.34,-906"/>
<text text-anchor="middle" x="65.34" y="-884.3" font-family="Times,serif" font-size="14.00">AlwaysTrue</text>
</g>
<!-- 984ae7db&#45;3f3f&#45;40c7&#45;8d8b&#45;ba56691ed537 -->
<g id="node11" class="node">
<title>984ae7db&#45;3f3f&#45;40c7&#45;8d8b&#45;ba56691ed537</title>
<ellipse fill="none" stroke="black" cx="103.34" cy="-801" rx="46.5" ry="18"/>
<text text-anchor="middle" x="103.34" y="-797.3" font-family="Times,serif" font-size="14.00">VisionNorm</text>
</g>
<!-- 27056f2d&#45;4698&#45;4f43&#45;aa6f&#45;03492218091b&#45;&gt;984ae7db&#45;3f3f&#45;40c7&#45;8d8b&#45;ba56691ed537 -->
<g id="edge10" class="edge">
<title>27056f2d&#45;4698&#45;4f43&#45;aa6f&#45;03492218091b&#45;&gt;984ae7db&#45;3f3f&#45;40c7&#45;8d8b&#45;ba56691ed537</title>
<path fill="none" stroke="black" d="M72.13,-871.8C77.54,-859.7 85.25,-842.47 91.65,-828.16"/>
<polygon fill="black" stroke="black" points="94.94,-829.37 95.82,-818.81 88.55,-826.51 94.94,-829.37"/>
<text text-anchor="middle" x="104.34" y="-840.8" font-family="Times,serif" font-size="14.00">True</text>
</g>
<!-- 60ce2728&#45;fa23&#45;4e74&#45;b83a&#45;e36581882a6b -->
<g id="node2" class="node">
<title>60ce2728&#45;fa23&#45;4e74&#45;b83a&#45;e36581882a6b</title>
<ellipse fill="none" stroke="black" cx="103.34" cy="-105" rx="27" ry="18"/>
<text text-anchor="middle" x="103.34" y="-101.3" font-family="Times,serif" font-size="14.00">FlatX</text>
</g>
<!-- 12631181&#45;96cf&#45;486b&#45;a25a&#45;2cfe064e0993 -->
<g id="node3" class="node">
<title>12631181&#45;96cf&#45;486b&#45;a25a&#45;2cfe064e0993</title>
<ellipse fill="none" stroke="black" cx="103.34" cy="-18" rx="80.11" ry="18"/>
<text text-anchor="middle" x="103.34" y="-14.3" font-family="Times,serif" font-size="14.00">Stability2Movement</text>
</g>
<!-- 60ce2728&#45;fa23&#45;4e74&#45;b83a&#45;e36581882a6b&#45;&gt;12631181&#45;96cf&#45;486b&#45;a25a&#45;2cfe064e0993 -->
<g id="edge1" class="edge">
<title>60ce2728&#45;fa23&#45;4e74&#45;b83a&#45;e36581882a6b&#45;&gt;12631181&#45;96cf&#45;486b&#45;a25a&#45;2cfe064e0993</title>
<path fill="none" stroke="purple" d="M103.34,-86.8C103.34,-75.16 103.34,-59.55 103.34,-46.24"/>
<polygon fill="purple" stroke="purple" points="106.84,-46.18 103.34,-36.18 99.84,-46.18 106.84,-46.18"/>
<text text-anchor="middle" x="138.84" y="-57.8" font-family="Times,serif" font-size="14.00" fill="purple">Pass Data</text>
</g>
<!-- 7d4bff75&#45;ee2d&#45;4561&#45;980e&#45;a2cee6c62aa2 -->
<g id="node4" class="node">
<title>7d4bff75&#45;ee2d&#45;4561&#45;980e&#45;a2cee6c62aa2</title>
<ellipse fill="none" stroke="black" cx="103.34" cy="-192" rx="27" ry="18"/>
<text text-anchor="middle" x="103.34" y="-188.3" font-family="Times,serif" font-size="14.00">StripY</text>
</g>
<!-- 7d4bff75&#45;ee2d&#45;4561&#45;980e&#45;a2cee6c62aa2&#45;&gt;60ce2728&#45;fa23&#45;4e74&#45;b83a&#45;e36581882a6b -->
<g id="edge2" class="edge">
<title>7d4bff75&#45;ee2d&#45;4561&#45;980e&#45;a2cee6c62aa2&#45;&gt;60ce2728&#45;fa23&#45;4e74&#45;b83a&#45;e36581882a6b</title>
<path fill="none" stroke="purple" d="M103.34,-173.8C103.34,-162.16 103.34,-146.55 103.34,-133.24"/>
<polygon fill="purple" stroke="purple" points="106.84,-133.18 103.34,-123.18 99.84,-133.18 106.84,-133.18"/>
<text text-anchor="middle" x="138.84" y="-144.8" font-family="Times,serif" font-size="14.00" fill="purple">Pass Data</text>
</g>
<!-- 9e91b11e&#45;3b79&#45;4a89&#45;969c&#45;201b587581ab -->
<g id="node5" class="node">
<title>9e91b11e&#45;3b79&#45;4a89&#45;969c&#45;201b587581ab</title>
<ellipse fill="none" stroke="black" cx="103.34" cy="-279" rx="52.6" ry="18"/>
<text text-anchor="middle" x="103.34" y="-275.3" font-family="Times,serif" font-size="14.00">Anon Closure</text>
</g>
<!-- 9e91b11e&#45;3b79&#45;4a89&#45;969c&#45;201b587581ab&#45;&gt;7d4bff75&#45;ee2d&#45;4561&#45;980e&#45;a2cee6c62aa2 -->
<g id="edge3" class="edge">
<title>9e91b11e&#45;3b79&#45;4a89&#45;969c&#45;201b587581ab&#45;&gt;7d4bff75&#45;ee2d&#45;4561&#45;980e&#45;a2cee6c62aa2</title>
<path fill="none" stroke="purple" d="M103.34,-260.8C103.34,-249.16 103.34,-233.55 103.34,-220.24"/>
<polygon fill="purple" stroke="purple" points="106.84,-220.18 103.34,-210.18 99.84,-220.18 106.84,-220.18"/>
<text text-anchor="middle" x="138.84" y="-231.8" font-family="Times,serif" font-size="14.00" fill="purple">Pass Data</text>
</g>
<!-- b0708c62&#45;c785&#45;42bc&#45;b4e3&#45;c37d9969718f -->
<g id="node6" class="node">
<title>b0708c62&#45;c785&#45;42bc&#45;b4e3&#45;c37d9969718f</title>
<ellipse fill="none" stroke="black" cx="103.34" cy="-366" rx="51.3" ry="18"/>
<text text-anchor="middle" x="103.34" y="-362.3" font-family="Times,serif" font-size="14.00">OffsetToPose</text>
</g>
<!-- b0708c62&#45;c785&#45;42bc&#45;b4e3&#45;c37d9969718f&#45;&gt;9e91b11e&#45;3b79&#45;4a89&#45;969c&#45;201b587581ab -->
<g id="edge4" class="edge">
<title>b0708c62&#45;c785&#45;42bc&#45;b4e3&#45;c37d9969718f&#45;&gt;9e91b11e&#45;3b79&#45;4a89&#45;969c&#45;201b587581ab</title>
<path fill="none" stroke="purple" d="M103.34,-347.8C103.34,-336.16 103.34,-320.55 103.34,-307.24"/>
<polygon fill="purple" stroke="purple" points="106.84,-307.18 103.34,-297.18 99.84,-307.18 106.84,-307.18"/>
<text text-anchor="middle" x="138.84" y="-318.8" font-family="Times,serif" font-size="14.00" fill="purple">Pass Data</text>
</g>
<!-- b9309047&#45;046c&#45;4dec&#45;8c7b&#45;baf8972ff28d -->
<g id="node7" class="node">
<title>b9309047&#45;046c&#45;4dec&#45;8c7b&#45;baf8972ff28d</title>
<ellipse fill="none" stroke="black" cx="103.34" cy="-453" rx="32.4" ry="18"/>
<text text-anchor="middle" x="103.34" y="-449.3" font-family="Times,serif" font-size="14.00">Average</text>
</g>
<!-- b9309047&#45;046c&#45;4dec&#45;8c7b&#45;baf8972ff28d&#45;&gt;b0708c62&#45;c785&#45;42bc&#45;b4e3&#45;c37d9969718f -->
<g id="edge5" class="edge">
<title>b9309047&#45;046c&#45;4dec&#45;8c7b&#45;baf8972ff28d&#45;&gt;b0708c62&#45;c785&#45;42bc&#45;b4e3&#45;c37d9969718f</title>
<path fill="none" stroke="purple" d="M103.34,-434.8C103.34,-423.16 103.34,-407.55 103.34,-394.24"/>
<polygon fill="purple" stroke="purple" points="106.84,-394.18 103.34,-384.18 99.84,-394.18 106.84,-394.18"/>
<text text-anchor="middle" x="138.84" y="-405.8" font-family="Times,serif" font-size="14.00" fill="purple">Pass Data</text>
</g>
<!-- 0b990193&#45;e705&#45;43d9&#45;a610&#45;dbaf9c346b24 -->
<g id="node8" class="node">
<title>0b990193&#45;e705&#45;43d9&#45;a610&#45;dbaf9c346b24</title>
<ellipse fill="none" stroke="black" cx="103.34" cy="-540" rx="61.1" ry="18"/>
<text text-anchor="middle" x="103.34" y="-536.3" font-family="Times,serif" font-size="14.00">ExtractPosition</text>
</g>
<!-- 0b990193&#45;e705&#45;43d9&#45;a610&#45;dbaf9c346b24&#45;&gt;b9309047&#45;046c&#45;4dec&#45;8c7b&#45;baf8972ff28d -->
<g id="edge6" class="edge">
<title>0b990193&#45;e705&#45;43d9&#45;a610&#45;dbaf9c346b24&#45;&gt;b9309047&#45;046c&#45;4dec&#45;8c7b&#45;baf8972ff28d</title>
<path fill="none" stroke="purple" d="M103.34,-521.8C103.34,-510.16 103.34,-494.55 103.34,-481.24"/>
<polygon fill="purple" stroke="purple" points="106.84,-481.18 103.34,-471.18 99.84,-481.18 106.84,-481.18"/>
<text text-anchor="middle" x="138.84" y="-492.8" font-family="Times,serif" font-size="14.00" fill="purple">Pass Data</text>
</g>
<!-- 82e25f3e&#45;6718&#45;4e43&#45;8a39&#45;700a24bb53fd -->
<g id="node9" class="node">
<title>82e25f3e&#45;6718&#45;4e43&#45;8a39&#45;700a24bb53fd</title>
<ellipse fill="none" stroke="black" cx="103.34" cy="-627" rx="27" ry="18"/>
<text text-anchor="middle" x="103.34" y="-623.3" font-family="Times,serif" font-size="14.00">ToVec</text>
</g>
<!-- 82e25f3e&#45;6718&#45;4e43&#45;8a39&#45;700a24bb53fd&#45;&gt;0b990193&#45;e705&#45;43d9&#45;a610&#45;dbaf9c346b24 -->
<g id="edge7" class="edge">
<title>82e25f3e&#45;6718&#45;4e43&#45;8a39&#45;700a24bb53fd&#45;&gt;0b990193&#45;e705&#45;43d9&#45;a610&#45;dbaf9c346b24</title>
<path fill="none" stroke="purple" d="M103.34,-608.8C103.34,-597.16 103.34,-581.55 103.34,-568.24"/>
<polygon fill="purple" stroke="purple" points="106.84,-568.18 103.34,-558.18 99.84,-568.18 106.84,-568.18"/>
<text text-anchor="middle" x="138.84" y="-579.8" font-family="Times,serif" font-size="14.00" fill="purple">Pass Data</text>
</g>
<!-- fbb716fb&#45;9c3f&#45;4c78&#45;8dcf&#45;46496cfd2aca -->
<g id="node10" class="node">
<title>fbb716fb&#45;9c3f&#45;4c78&#45;8dcf&#45;46496cfd2aca</title>
<ellipse fill="none" stroke="black" cx="103.34" cy="-714" rx="45.2" ry="18"/>
<text text-anchor="middle" x="103.34" y="-710.3" font-family="Times,serif" font-size="14.00">Detect true</text>
</g>
<!-- fbb716fb&#45;9c3f&#45;4c78&#45;8dcf&#45;46496cfd2aca&#45;&gt;82e25f3e&#45;6718&#45;4e43&#45;8a39&#45;700a24bb53fd -->
<g id="edge8" class="edge">
<title>fbb716fb&#45;9c3f&#45;4c78&#45;8dcf&#45;46496cfd2aca&#45;&gt;82e25f3e&#45;6718&#45;4e43&#45;8a39&#45;700a24bb53fd</title>
<path fill="none" stroke="purple" d="M103.34,-695.8C103.34,-684.16 103.34,-668.55 103.34,-655.24"/>
<polygon fill="purple" stroke="purple" points="106.84,-655.18 103.34,-645.18 99.84,-655.18 106.84,-655.18"/>
<text text-anchor="middle" x="138.84" y="-666.8" font-family="Times,serif" font-size="14.00" fill="purple">Pass Data</text>
</g>
<!-- 984ae7db&#45;3f3f&#45;40c7&#45;8d8b&#45;ba56691ed537&#45;&gt;fbb716fb&#45;9c3f&#45;4c78&#45;8dcf&#45;46496cfd2aca -->
<g id="edge9" class="edge">
<title>984ae7db&#45;3f3f&#45;40c7&#45;8d8b&#45;ba56691ed537&#45;&gt;fbb716fb&#45;9c3f&#45;4c78&#45;8dcf&#45;46496cfd2aca</title>
<path fill="none" stroke="purple" d="M103.34,-782.8C103.34,-771.16 103.34,-755.55 103.34,-742.24"/>
<polygon fill="purple" stroke="purple" points="106.84,-742.18 103.34,-732.18 99.84,-742.18 106.84,-742.18"/>
<text text-anchor="middle" x="138.84" y="-753.8" font-family="Times,serif" font-size="14.00" fill="purple">Pass Data</text>
</g>
<!-- 4d08d0dd&#45;2c58&#45;4523&#45;9160&#45;f1b901f45bc1 -->
<g id="node12" class="node">
<title>4d08d0dd&#45;2c58&#45;4523&#45;9160&#45;f1b901f45bc1</title>
<ellipse fill="none" stroke="black" cx="250.34" cy="-888" rx="47.1" ry="18"/>
<text text-anchor="middle" x="250.34" y="-884.3" font-family="Times,serif" font-size="14.00">DelayAction</text>
</g>
<!-- 4d08d0dd&#45;2c58&#45;4523&#45;9160&#45;f1b901f45bc1&#45;&gt;984ae7db&#45;3f3f&#45;40c7&#45;8d8b&#45;ba56691ed537 -->
<g id="edge11" class="edge">
<title>4d08d0dd&#45;2c58&#45;4523&#45;9160&#45;f1b901f45bc1&#45;&gt;984ae7db&#45;3f3f&#45;40c7&#45;8d8b&#45;ba56691ed537</title>
<path fill="none" stroke="black" d="M225.4,-872.58C201.12,-858.54 164.03,-837.09 137.1,-821.52"/>
<polygon fill="black" stroke="black" points="138.81,-818.47 128.4,-816.49 135.3,-824.53 138.81,-818.47"/>
</g>
<!-- 9a44eeea&#45;c363&#45;4943&#45;932e&#45;fd09019a7bb1 -->
<g id="node13" class="node">
<title>9a44eeea&#45;c363&#45;4943&#45;932e&#45;fd09019a7bb1</title>
<ellipse fill="none" stroke="black" cx="250.34" cy="-961" rx="59.9" ry="18"/>
<text text-anchor="middle" x="250.34" y="-957.3" font-family="Times,serif" font-size="14.00">ZeroMovement</text>
</g>
<!-- 9a44eeea&#45;c363&#45;4943&#45;932e&#45;fd09019a7bb1&#45;&gt;4d08d0dd&#45;2c58&#45;4523&#45;9160&#45;f1b901f45bc1 -->
<g id="edge12" class="edge">
<title>9a44eeea&#45;c363&#45;4943&#45;932e&#45;fd09019a7bb1&#45;&gt;4d08d0dd&#45;2c58&#45;4523&#45;9160&#45;f1b901f45bc1</title>
<path fill="none" stroke="black" d="M250.34,-942.81C250.34,-934.79 250.34,-925.05 250.34,-916.07"/>
<polygon fill="black" stroke="black" points="253.84,-916.03 250.34,-906.03 246.84,-916.03 253.84,-916.03"/>
</g>
</g>
</svg>
