<?xml version="1.0" encoding="UTF-8" standalone="no"?>
<!DOCTYPE svg PUBLIC "-//W3C//DTD SVG 1.1//EN"
 "http://www.w3.org/Graphics/SVG/1.1/DTD/svg11.dtd">
<!-- Generated by graphviz version 2.43.0 (0)
 -->
<!-- Title: G Pages: 1 -->
<svg width="318pt" height="987pt"
 viewBox="0.00 0.00 318.29 987.00" xmlns="http://www.w3.org/2000/svg" xmlns:xlink="http://www.w3.org/1999/xlink">
<g id="graph0" class="graph" transform="scale(1 1) rotate(0) translate(4 983)">
<title>G</title>
<polygon fill="transparent" stroke="transparent" points="-4,4 -4,-983 314.29,-983 314.29,4 -4,4"/>
<!-- 430d39dc&#45;13e9&#45;4b10&#45;be6d&#45;0794c2cec9e3 -->
<g id="node1" class="node">
<title>430d39dc&#45;13e9&#45;4b10&#45;be6d&#45;0794c2cec9e3</title>
<polygon fill="none" stroke="black" points="65.34,-906 0.16,-888 65.34,-870 130.52,-888 65.34,-906"/>
<text text-anchor="middle" x="65.34" y="-884.3" font-family="Times,serif" font-size="14.00">AlwaysTrue</text>
</g>
<!-- 1c02acff&#45;20e4&#45;48ee&#45;912f&#45;a2de532d1eeb -->
<g id="node11" class="node">
<title>1c02acff&#45;20e4&#45;48ee&#45;912f&#45;a2de532d1eeb</title>
<ellipse fill="none" stroke="black" cx="103.34" cy="-801" rx="46.5" ry="18"/>
<text text-anchor="middle" x="103.34" y="-797.3" font-family="Times,serif" font-size="14.00">VisionNorm</text>
</g>
<!-- 430d39dc&#45;13e9&#45;4b10&#45;be6d&#45;0794c2cec9e3&#45;&gt;1c02acff&#45;20e4&#45;48ee&#45;912f&#45;a2de532d1eeb -->
<g id="edge10" class="edge">
<title>430d39dc&#45;13e9&#45;4b10&#45;be6d&#45;0794c2cec9e3&#45;&gt;1c02acff&#45;20e4&#45;48ee&#45;912f&#45;a2de532d1eeb</title>
<path fill="none" stroke="black" d="M72.13,-871.8C77.54,-859.7 85.25,-842.47 91.65,-828.16"/>
<polygon fill="black" stroke="black" points="94.94,-829.37 95.82,-818.81 88.55,-826.51 94.94,-829.37"/>
<text text-anchor="middle" x="104.34" y="-840.8" font-family="Times,serif" font-size="14.00">True</text>
</g>
<!-- bb3fcaef&#45;9e07&#45;4988&#45;b44c&#45;3ee6da968faf -->
<g id="node2" class="node">
<title>bb3fcaef&#45;9e07&#45;4988&#45;b44c&#45;3ee6da968faf</title>
<ellipse fill="none" stroke="black" cx="103.34" cy="-105" rx="27" ry="18"/>
<text text-anchor="middle" x="103.34" y="-101.3" font-family="Times,serif" font-size="14.00">FlatX</text>
</g>
<!-- 09eb7de2&#45;ba09&#45;4b1f&#45;bb92&#45;0e6a94b482e5 -->
<g id="node3" class="node">
<title>09eb7de2&#45;ba09&#45;4b1f&#45;bb92&#45;0e6a94b482e5</title>
<ellipse fill="none" stroke="black" cx="103.34" cy="-18" rx="80.11" ry="18"/>
<text text-anchor="middle" x="103.34" y="-14.3" font-family="Times,serif" font-size="14.00">Stability2Movement</text>
</g>
<!-- bb3fcaef&#45;9e07&#45;4988&#45;b44c&#45;3ee6da968faf&#45;&gt;09eb7de2&#45;ba09&#45;4b1f&#45;bb92&#45;0e6a94b482e5 -->
<g id="edge1" class="edge">
<title>bb3fcaef&#45;9e07&#45;4988&#45;b44c&#45;3ee6da968faf&#45;&gt;09eb7de2&#45;ba09&#45;4b1f&#45;bb92&#45;0e6a94b482e5</title>
<path fill="none" stroke="purple" d="M103.34,-86.8C103.34,-75.16 103.34,-59.55 103.34,-46.24"/>
<polygon fill="purple" stroke="purple" points="106.84,-46.18 103.34,-36.18 99.84,-46.18 106.84,-46.18"/>
<text text-anchor="middle" x="138.84" y="-57.8" font-family="Times,serif" font-size="14.00" fill="purple">Pass Data</text>
</g>
<!-- 5d7c3aca&#45;794c&#45;4d6c&#45;a0df&#45;cfb98e83f724 -->
<g id="node4" class="node">
<title>5d7c3aca&#45;794c&#45;4d6c&#45;a0df&#45;cfb98e83f724</title>
<ellipse fill="none" stroke="black" cx="103.34" cy="-192" rx="27" ry="18"/>
<text text-anchor="middle" x="103.34" y="-188.3" font-family="Times,serif" font-size="14.00">StripY</text>
</g>
<!-- 5d7c3aca&#45;794c&#45;4d6c&#45;a0df&#45;cfb98e83f724&#45;&gt;bb3fcaef&#45;9e07&#45;4988&#45;b44c&#45;3ee6da968faf -->
<g id="edge2" class="edge">
<title>5d7c3aca&#45;794c&#45;4d6c&#45;a0df&#45;cfb98e83f724&#45;&gt;bb3fcaef&#45;9e07&#45;4988&#45;b44c&#45;3ee6da968faf</title>
<path fill="none" stroke="purple" d="M103.34,-173.8C103.34,-162.16 103.34,-146.55 103.34,-133.24"/>
<polygon fill="purple" stroke="purple" points="106.84,-133.18 103.34,-123.18 99.84,-133.18 106.84,-133.18"/>
<text text-anchor="middle" x="138.84" y="-144.8" font-family="Times,serif" font-size="14.00" fill="purple">Pass Data</text>
</g>
<!-- 368dcd4d&#45;348b&#45;47b7&#45;a733&#45;7404c451136e -->
<g id="node5" class="node">
<title>368dcd4d&#45;348b&#45;47b7&#45;a733&#45;7404c451136e</title>
<ellipse fill="none" stroke="black" cx="103.34" cy="-279" rx="52.6" ry="18"/>
<text text-anchor="middle" x="103.34" y="-275.3" font-family="Times,serif" font-size="14.00">Anon Closure</text>
</g>
<!-- 368dcd4d&#45;348b&#45;47b7&#45;a733&#45;7404c451136e&#45;&gt;5d7c3aca&#45;794c&#45;4d6c&#45;a0df&#45;cfb98e83f724 -->
<g id="edge3" class="edge">
<title>368dcd4d&#45;348b&#45;47b7&#45;a733&#45;7404c451136e&#45;&gt;5d7c3aca&#45;794c&#45;4d6c&#45;a0df&#45;cfb98e83f724</title>
<path fill="none" stroke="purple" d="M103.34,-260.8C103.34,-249.16 103.34,-233.55 103.34,-220.24"/>
<polygon fill="purple" stroke="purple" points="106.84,-220.18 103.34,-210.18 99.84,-220.18 106.84,-220.18"/>
<text text-anchor="middle" x="138.84" y="-231.8" font-family="Times,serif" font-size="14.00" fill="purple">Pass Data</text>
</g>
<!-- f12dbae2&#45;a66b&#45;409e&#45;a12a&#45;0bea8a3aa87d -->
<g id="node6" class="node">
<title>f12dbae2&#45;a66b&#45;409e&#45;a12a&#45;0bea8a3aa87d</title>
<ellipse fill="none" stroke="black" cx="103.34" cy="-366" rx="51.3" ry="18"/>
<text text-anchor="middle" x="103.34" y="-362.3" font-family="Times,serif" font-size="14.00">OffsetToPose</text>
</g>
<!-- f12dbae2&#45;a66b&#45;409e&#45;a12a&#45;0bea8a3aa87d&#45;&gt;368dcd4d&#45;348b&#45;47b7&#45;a733&#45;7404c451136e -->
<g id="edge4" class="edge">
<title>f12dbae2&#45;a66b&#45;409e&#45;a12a&#45;0bea8a3aa87d&#45;&gt;368dcd4d&#45;348b&#45;47b7&#45;a733&#45;7404c451136e</title>
<path fill="none" stroke="purple" d="M103.34,-347.8C103.34,-336.16 103.34,-320.55 103.34,-307.24"/>
<polygon fill="purple" stroke="purple" points="106.84,-307.18 103.34,-297.18 99.84,-307.18 106.84,-307.18"/>
<text text-anchor="middle" x="138.84" y="-318.8" font-family="Times,serif" font-size="14.00" fill="purple">Pass Data</text>
</g>
<!-- 2d6d2ec1&#45;5b35&#45;4c65&#45;8a33&#45;71b64e03e05a -->
<g id="node7" class="node">
<title>2d6d2ec1&#45;5b35&#45;4c65&#45;8a33&#45;71b64e03e05a</title>
<ellipse fill="none" stroke="black" cx="103.34" cy="-453" rx="32.4" ry="18"/>
<text text-anchor="middle" x="103.34" y="-449.3" font-family="Times,serif" font-size="14.00">Average</text>
</g>
<!-- 2d6d2ec1&#45;5b35&#45;4c65&#45;8a33&#45;71b64e03e05a&#45;&gt;f12dbae2&#45;a66b&#45;409e&#45;a12a&#45;0bea8a3aa87d -->
<g id="edge5" class="edge">
<title>2d6d2ec1&#45;5b35&#45;4c65&#45;8a33&#45;71b64e03e05a&#45;&gt;f12dbae2&#45;a66b&#45;409e&#45;a12a&#45;0bea8a3aa87d</title>
<path fill="none" stroke="purple" d="M103.34,-434.8C103.34,-423.16 103.34,-407.55 103.34,-394.24"/>
<polygon fill="purple" stroke="purple" points="106.84,-394.18 103.34,-384.18 99.84,-394.18 106.84,-394.18"/>
<text text-anchor="middle" x="138.84" y="-405.8" font-family="Times,serif" font-size="14.00" fill="purple">Pass Data</text>
</g>
<!-- 3253abea&#45;b9ee&#45;432f&#45;a58b&#45;8ff695521cb6 -->
<g id="node8" class="node">
<title>3253abea&#45;b9ee&#45;432f&#45;a58b&#45;8ff695521cb6</title>
<ellipse fill="none" stroke="black" cx="103.34" cy="-540" rx="61.1" ry="18"/>
<text text-anchor="middle" x="103.34" y="-536.3" font-family="Times,serif" font-size="14.00">ExtractPosition</text>
</g>
<!-- 3253abea&#45;b9ee&#45;432f&#45;a58b&#45;8ff695521cb6&#45;&gt;2d6d2ec1&#45;5b35&#45;4c65&#45;8a33&#45;71b64e03e05a -->
<g id="edge6" class="edge">
<title>3253abea&#45;b9ee&#45;432f&#45;a58b&#45;8ff695521cb6&#45;&gt;2d6d2ec1&#45;5b35&#45;4c65&#45;8a33&#45;71b64e03e05a</title>
<path fill="none" stroke="purple" d="M103.34,-521.8C103.34,-510.16 103.34,-494.55 103.34,-481.24"/>
<polygon fill="purple" stroke="purple" points="106.84,-481.18 103.34,-471.18 99.84,-481.18 106.84,-481.18"/>
<text text-anchor="middle" x="138.84" y="-492.8" font-family="Times,serif" font-size="14.00" fill="purple">Pass Data</text>
</g>
<!-- a283167d&#45;9c9b&#45;4893&#45;bcaf&#45;6e6932ba5f10 -->
<g id="node9" class="node">
<title>a283167d&#45;9c9b&#45;4893&#45;bcaf&#45;6e6932ba5f10</title>
<ellipse fill="none" stroke="black" cx="103.34" cy="-627" rx="27" ry="18"/>
<text text-anchor="middle" x="103.34" y="-623.3" font-family="Times,serif" font-size="14.00">ToVec</text>
</g>
<!-- a283167d&#45;9c9b&#45;4893&#45;bcaf&#45;6e6932ba5f10&#45;&gt;3253abea&#45;b9ee&#45;432f&#45;a58b&#45;8ff695521cb6 -->
<g id="edge7" class="edge">
<title>a283167d&#45;9c9b&#45;4893&#45;bcaf&#45;6e6932ba5f10&#45;&gt;3253abea&#45;b9ee&#45;432f&#45;a58b&#45;8ff695521cb6</title>
<path fill="none" stroke="purple" d="M103.34,-608.8C103.34,-597.16 103.34,-581.55 103.34,-568.24"/>
<polygon fill="purple" stroke="purple" points="106.84,-568.18 103.34,-558.18 99.84,-568.18 106.84,-568.18"/>
<text text-anchor="middle" x="138.84" y="-579.8" font-family="Times,serif" font-size="14.00" fill="purple">Pass Data</text>
</g>
<!-- 54eaaaf6&#45;dfb4&#45;439c&#45;9f14&#45;3cafe19329b7 -->
<g id="node10" class="node">
<title>54eaaaf6&#45;dfb4&#45;439c&#45;9f14&#45;3cafe19329b7</title>
<ellipse fill="none" stroke="black" cx="103.34" cy="-714" rx="45.2" ry="18"/>
<text text-anchor="middle" x="103.34" y="-710.3" font-family="Times,serif" font-size="14.00">Detect true</text>
</g>
<!-- 54eaaaf6&#45;dfb4&#45;439c&#45;9f14&#45;3cafe19329b7&#45;&gt;a283167d&#45;9c9b&#45;4893&#45;bcaf&#45;6e6932ba5f10 -->
<g id="edge8" class="edge">
<title>54eaaaf6&#45;dfb4&#45;439c&#45;9f14&#45;3cafe19329b7&#45;&gt;a283167d&#45;9c9b&#45;4893&#45;bcaf&#45;6e6932ba5f10</title>
<path fill="none" stroke="purple" d="M103.34,-695.8C103.34,-684.16 103.34,-668.55 103.34,-655.24"/>
<polygon fill="purple" stroke="purple" points="106.84,-655.18 103.34,-645.18 99.84,-655.18 106.84,-655.18"/>
<text text-anchor="middle" x="138.84" y="-666.8" font-family="Times,serif" font-size="14.00" fill="purple">Pass Data</text>
</g>
<!-- 1c02acff&#45;20e4&#45;48ee&#45;912f&#45;a2de532d1eeb&#45;&gt;54eaaaf6&#45;dfb4&#45;439c&#45;9f14&#45;3cafe19329b7 -->
<g id="edge9" class="edge">
<title>1c02acff&#45;20e4&#45;48ee&#45;912f&#45;a2de532d1eeb&#45;&gt;54eaaaf6&#45;dfb4&#45;439c&#45;9f14&#45;3cafe19329b7</title>
<path fill="none" stroke="purple" d="M103.34,-782.8C103.34,-771.16 103.34,-755.55 103.34,-742.24"/>
<polygon fill="purple" stroke="purple" points="106.84,-742.18 103.34,-732.18 99.84,-742.18 106.84,-742.18"/>
<text text-anchor="middle" x="138.84" y="-753.8" font-family="Times,serif" font-size="14.00" fill="purple">Pass Data</text>
</g>
<!-- 596db148&#45;cac7&#45;4222&#45;ac32&#45;e54243813e58 -->
<g id="node12" class="node">
<title>596db148&#45;cac7&#45;4222&#45;ac32&#45;e54243813e58</title>
<ellipse fill="none" stroke="black" cx="250.34" cy="-888" rx="47.1" ry="18"/>
<text text-anchor="middle" x="250.34" y="-884.3" font-family="Times,serif" font-size="14.00">DelayAction</text>
</g>
<!-- 596db148&#45;cac7&#45;4222&#45;ac32&#45;e54243813e58&#45;&gt;1c02acff&#45;20e4&#45;48ee&#45;912f&#45;a2de532d1eeb -->
<g id="edge11" class="edge">
<title>596db148&#45;cac7&#45;4222&#45;ac32&#45;e54243813e58&#45;&gt;1c02acff&#45;20e4&#45;48ee&#45;912f&#45;a2de532d1eeb</title>
<path fill="none" stroke="black" d="M225.4,-872.58C201.12,-858.54 164.03,-837.09 137.1,-821.52"/>
<polygon fill="black" stroke="black" points="138.81,-818.47 128.4,-816.49 135.3,-824.53 138.81,-818.47"/>
</g>
<!-- 01615763&#45;715c&#45;409c&#45;b111&#45;298f7820e8e4 -->
<g id="node13" class="node">
<title>01615763&#45;715c&#45;409c&#45;b111&#45;298f7820e8e4</title>
<ellipse fill="none" stroke="black" cx="250.34" cy="-961" rx="59.9" ry="18"/>
<text text-anchor="middle" x="250.34" y="-957.3" font-family="Times,serif" font-size="14.00">ZeroMovement</text>
</g>
<!-- 01615763&#45;715c&#45;409c&#45;b111&#45;298f7820e8e4&#45;&gt;596db148&#45;cac7&#45;4222&#45;ac32&#45;e54243813e58 -->
<g id="edge12" class="edge">
<title>01615763&#45;715c&#45;409c&#45;b111&#45;298f7820e8e4&#45;&gt;596db148&#45;cac7&#45;4222&#45;ac32&#45;e54243813e58</title>
<path fill="none" stroke="black" d="M250.34,-942.81C250.34,-934.79 250.34,-925.05 250.34,-916.07"/>
<polygon fill="black" stroke="black" points="253.84,-916.03 250.34,-906.03 246.84,-916.03 253.84,-916.03"/>
</g>
</g>
</svg>
