<?xml version="1.0" encoding="UTF-8" standalone="no"?>
<!DOCTYPE svg PUBLIC "-//W3C//DTD SVG 1.1//EN"
 "http://www.w3.org/Graphics/SVG/1.1/DTD/svg11.dtd">
<!-- Generated by graphviz version 2.43.0 (0)
 -->
<!-- Title: G Pages: 1 -->
<svg width="318pt" height="987pt"
 viewBox="0.00 0.00 318.29 987.00" xmlns="http://www.w3.org/2000/svg" xmlns:xlink="http://www.w3.org/1999/xlink">
<g id="graph0" class="graph" transform="scale(1 1) rotate(0) translate(4 983)">
<title>G</title>
<polygon fill="transparent" stroke="transparent" points="-4,4 -4,-983 314.29,-983 314.29,4 -4,4"/>
<!-- 64f1bb6f&#45;60ac&#45;4105&#45;8956&#45;523adee0a3e4 -->
<g id="node1" class="node">
<title>64f1bb6f&#45;60ac&#45;4105&#45;8956&#45;523adee0a3e4</title>
<polygon fill="none" stroke="black" points="65.34,-906 0.16,-888 65.34,-870 130.52,-888 65.34,-906"/>
<text text-anchor="middle" x="65.34" y="-884.3" font-family="Times,serif" font-size="14.00">AlwaysTrue</text>
</g>
<!-- 9f65fc53&#45;95b8&#45;4d41&#45;884a&#45;481a1d606bb1 -->
<g id="node11" class="node">
<title>9f65fc53&#45;95b8&#45;4d41&#45;884a&#45;481a1d606bb1</title>
<ellipse fill="none" stroke="black" cx="103.34" cy="-801" rx="46.5" ry="18"/>
<text text-anchor="middle" x="103.34" y="-797.3" font-family="Times,serif" font-size="14.00">VisionNorm</text>
</g>
<!-- 64f1bb6f&#45;60ac&#45;4105&#45;8956&#45;523adee0a3e4&#45;&gt;9f65fc53&#45;95b8&#45;4d41&#45;884a&#45;481a1d606bb1 -->
<g id="edge10" class="edge">
<title>64f1bb6f&#45;60ac&#45;4105&#45;8956&#45;523adee0a3e4&#45;&gt;9f65fc53&#45;95b8&#45;4d41&#45;884a&#45;481a1d606bb1</title>
<path fill="none" stroke="black" d="M72.13,-871.8C77.54,-859.7 85.25,-842.47 91.65,-828.16"/>
<polygon fill="black" stroke="black" points="94.94,-829.37 95.82,-818.81 88.55,-826.51 94.94,-829.37"/>
<text text-anchor="middle" x="104.34" y="-840.8" font-family="Times,serif" font-size="14.00">True</text>
</g>
<!-- d01c9653&#45;b901&#45;40f9&#45;a0da&#45;4b6dc5c5285c -->
<g id="node2" class="node">
<title>d01c9653&#45;b901&#45;40f9&#45;a0da&#45;4b6dc5c5285c</title>
<ellipse fill="none" stroke="black" cx="103.34" cy="-105" rx="27" ry="18"/>
<text text-anchor="middle" x="103.34" y="-101.3" font-family="Times,serif" font-size="14.00">FlatX</text>
</g>
<!-- 81e87e22&#45;3a55&#45;4d8a&#45;b0df&#45;5042b57ee4ea -->
<g id="node3" class="node">
<title>81e87e22&#45;3a55&#45;4d8a&#45;b0df&#45;5042b57ee4ea</title>
<ellipse fill="none" stroke="black" cx="103.34" cy="-18" rx="80.11" ry="18"/>
<text text-anchor="middle" x="103.34" y="-14.3" font-family="Times,serif" font-size="14.00">Stability2Movement</text>
</g>
<!-- d01c9653&#45;b901&#45;40f9&#45;a0da&#45;4b6dc5c5285c&#45;&gt;81e87e22&#45;3a55&#45;4d8a&#45;b0df&#45;5042b57ee4ea -->
<g id="edge1" class="edge">
<title>d01c9653&#45;b901&#45;40f9&#45;a0da&#45;4b6dc5c5285c&#45;&gt;81e87e22&#45;3a55&#45;4d8a&#45;b0df&#45;5042b57ee4ea</title>
<path fill="none" stroke="purple" d="M103.34,-86.8C103.34,-75.16 103.34,-59.55 103.34,-46.24"/>
<polygon fill="purple" stroke="purple" points="106.84,-46.18 103.34,-36.18 99.84,-46.18 106.84,-46.18"/>
<text text-anchor="middle" x="138.84" y="-57.8" font-family="Times,serif" font-size="14.00" fill="purple">Pass Data</text>
</g>
<!-- ed2ac9d0&#45;125d&#45;4f40&#45;853c&#45;73af12daf21a -->
<g id="node4" class="node">
<title>ed2ac9d0&#45;125d&#45;4f40&#45;853c&#45;73af12daf21a</title>
<ellipse fill="none" stroke="black" cx="103.34" cy="-192" rx="27" ry="18"/>
<text text-anchor="middle" x="103.34" y="-188.3" font-family="Times,serif" font-size="14.00">StripY</text>
</g>
<!-- ed2ac9d0&#45;125d&#45;4f40&#45;853c&#45;73af12daf21a&#45;&gt;d01c9653&#45;b901&#45;40f9&#45;a0da&#45;4b6dc5c5285c -->
<g id="edge2" class="edge">
<title>ed2ac9d0&#45;125d&#45;4f40&#45;853c&#45;73af12daf21a&#45;&gt;d01c9653&#45;b901&#45;40f9&#45;a0da&#45;4b6dc5c5285c</title>
<path fill="none" stroke="purple" d="M103.34,-173.8C103.34,-162.16 103.34,-146.55 103.34,-133.24"/>
<polygon fill="purple" stroke="purple" points="106.84,-133.18 103.34,-123.18 99.84,-133.18 106.84,-133.18"/>
<text text-anchor="middle" x="138.84" y="-144.8" font-family="Times,serif" font-size="14.00" fill="purple">Pass Data</text>
</g>
<!-- 5ad5c44d&#45;d86d&#45;413d&#45;beaf&#45;021f6f15f8f3 -->
<g id="node5" class="node">
<title>5ad5c44d&#45;d86d&#45;413d&#45;beaf&#45;021f6f15f8f3</title>
<ellipse fill="none" stroke="black" cx="103.34" cy="-279" rx="52.6" ry="18"/>
<text text-anchor="middle" x="103.34" y="-275.3" font-family="Times,serif" font-size="14.00">Anon Closure</text>
</g>
<!-- 5ad5c44d&#45;d86d&#45;413d&#45;beaf&#45;021f6f15f8f3&#45;&gt;ed2ac9d0&#45;125d&#45;4f40&#45;853c&#45;73af12daf21a -->
<g id="edge3" class="edge">
<title>5ad5c44d&#45;d86d&#45;413d&#45;beaf&#45;021f6f15f8f3&#45;&gt;ed2ac9d0&#45;125d&#45;4f40&#45;853c&#45;73af12daf21a</title>
<path fill="none" stroke="purple" d="M103.34,-260.8C103.34,-249.16 103.34,-233.55 103.34,-220.24"/>
<polygon fill="purple" stroke="purple" points="106.84,-220.18 103.34,-210.18 99.84,-220.18 106.84,-220.18"/>
<text text-anchor="middle" x="138.84" y="-231.8" font-family="Times,serif" font-size="14.00" fill="purple">Pass Data</text>
</g>
<!-- da77ef57&#45;2bac&#45;4114&#45;adda&#45;6f58fbd89365 -->
<g id="node6" class="node">
<title>da77ef57&#45;2bac&#45;4114&#45;adda&#45;6f58fbd89365</title>
<ellipse fill="none" stroke="black" cx="103.34" cy="-366" rx="51.3" ry="18"/>
<text text-anchor="middle" x="103.34" y="-362.3" font-family="Times,serif" font-size="14.00">OffsetToPose</text>
</g>
<!-- da77ef57&#45;2bac&#45;4114&#45;adda&#45;6f58fbd89365&#45;&gt;5ad5c44d&#45;d86d&#45;413d&#45;beaf&#45;021f6f15f8f3 -->
<g id="edge4" class="edge">
<title>da77ef57&#45;2bac&#45;4114&#45;adda&#45;6f58fbd89365&#45;&gt;5ad5c44d&#45;d86d&#45;413d&#45;beaf&#45;021f6f15f8f3</title>
<path fill="none" stroke="purple" d="M103.34,-347.8C103.34,-336.16 103.34,-320.55 103.34,-307.24"/>
<polygon fill="purple" stroke="purple" points="106.84,-307.18 103.34,-297.18 99.84,-307.18 106.84,-307.18"/>
<text text-anchor="middle" x="138.84" y="-318.8" font-family="Times,serif" font-size="14.00" fill="purple">Pass Data</text>
</g>
<!-- 29dfac8f&#45;a753&#45;4744&#45;8e3f&#45;a956ae4ce604 -->
<g id="node7" class="node">
<title>29dfac8f&#45;a753&#45;4744&#45;8e3f&#45;a956ae4ce604</title>
<ellipse fill="none" stroke="black" cx="103.34" cy="-453" rx="32.4" ry="18"/>
<text text-anchor="middle" x="103.34" y="-449.3" font-family="Times,serif" font-size="14.00">Average</text>
</g>
<!-- 29dfac8f&#45;a753&#45;4744&#45;8e3f&#45;a956ae4ce604&#45;&gt;da77ef57&#45;2bac&#45;4114&#45;adda&#45;6f58fbd89365 -->
<g id="edge5" class="edge">
<title>29dfac8f&#45;a753&#45;4744&#45;8e3f&#45;a956ae4ce604&#45;&gt;da77ef57&#45;2bac&#45;4114&#45;adda&#45;6f58fbd89365</title>
<path fill="none" stroke="purple" d="M103.34,-434.8C103.34,-423.16 103.34,-407.55 103.34,-394.24"/>
<polygon fill="purple" stroke="purple" points="106.84,-394.18 103.34,-384.18 99.84,-394.18 106.84,-394.18"/>
<text text-anchor="middle" x="138.84" y="-405.8" font-family="Times,serif" font-size="14.00" fill="purple">Pass Data</text>
</g>
<!-- 1b7da1fc&#45;f810&#45;45be&#45;b3f9&#45;82632f487672 -->
<g id="node8" class="node">
<title>1b7da1fc&#45;f810&#45;45be&#45;b3f9&#45;82632f487672</title>
<ellipse fill="none" stroke="black" cx="103.34" cy="-540" rx="61.1" ry="18"/>
<text text-anchor="middle" x="103.34" y="-536.3" font-family="Times,serif" font-size="14.00">ExtractPosition</text>
</g>
<!-- 1b7da1fc&#45;f810&#45;45be&#45;b3f9&#45;82632f487672&#45;&gt;29dfac8f&#45;a753&#45;4744&#45;8e3f&#45;a956ae4ce604 -->
<g id="edge6" class="edge">
<title>1b7da1fc&#45;f810&#45;45be&#45;b3f9&#45;82632f487672&#45;&gt;29dfac8f&#45;a753&#45;4744&#45;8e3f&#45;a956ae4ce604</title>
<path fill="none" stroke="purple" d="M103.34,-521.8C103.34,-510.16 103.34,-494.55 103.34,-481.24"/>
<polygon fill="purple" stroke="purple" points="106.84,-481.18 103.34,-471.18 99.84,-481.18 106.84,-481.18"/>
<text text-anchor="middle" x="138.84" y="-492.8" font-family="Times,serif" font-size="14.00" fill="purple">Pass Data</text>
</g>
<!-- d3b13a1a&#45;45b9&#45;4242&#45;9b8b&#45;c4b950418c6e -->
<g id="node9" class="node">
<title>d3b13a1a&#45;45b9&#45;4242&#45;9b8b&#45;c4b950418c6e</title>
<ellipse fill="none" stroke="black" cx="103.34" cy="-627" rx="27" ry="18"/>
<text text-anchor="middle" x="103.34" y="-623.3" font-family="Times,serif" font-size="14.00">ToVec</text>
</g>
<!-- d3b13a1a&#45;45b9&#45;4242&#45;9b8b&#45;c4b950418c6e&#45;&gt;1b7da1fc&#45;f810&#45;45be&#45;b3f9&#45;82632f487672 -->
<g id="edge7" class="edge">
<title>d3b13a1a&#45;45b9&#45;4242&#45;9b8b&#45;c4b950418c6e&#45;&gt;1b7da1fc&#45;f810&#45;45be&#45;b3f9&#45;82632f487672</title>
<path fill="none" stroke="purple" d="M103.34,-608.8C103.34,-597.16 103.34,-581.55 103.34,-568.24"/>
<polygon fill="purple" stroke="purple" points="106.84,-568.18 103.34,-558.18 99.84,-568.18 106.84,-568.18"/>
<text text-anchor="middle" x="138.84" y="-579.8" font-family="Times,serif" font-size="14.00" fill="purple">Pass Data</text>
</g>
<!-- 34e43965&#45;55e3&#45;46d9&#45;98b8&#45;1fb19a238cb9 -->
<g id="node10" class="node">
<title>34e43965&#45;55e3&#45;46d9&#45;98b8&#45;1fb19a238cb9</title>
<ellipse fill="none" stroke="black" cx="103.34" cy="-714" rx="45.2" ry="18"/>
<text text-anchor="middle" x="103.34" y="-710.3" font-family="Times,serif" font-size="14.00">Detect true</text>
</g>
<!-- 34e43965&#45;55e3&#45;46d9&#45;98b8&#45;1fb19a238cb9&#45;&gt;d3b13a1a&#45;45b9&#45;4242&#45;9b8b&#45;c4b950418c6e -->
<g id="edge8" class="edge">
<title>34e43965&#45;55e3&#45;46d9&#45;98b8&#45;1fb19a238cb9&#45;&gt;d3b13a1a&#45;45b9&#45;4242&#45;9b8b&#45;c4b950418c6e</title>
<path fill="none" stroke="purple" d="M103.34,-695.8C103.34,-684.16 103.34,-668.55 103.34,-655.24"/>
<polygon fill="purple" stroke="purple" points="106.84,-655.18 103.34,-645.18 99.84,-655.18 106.84,-655.18"/>
<text text-anchor="middle" x="138.84" y="-666.8" font-family="Times,serif" font-size="14.00" fill="purple">Pass Data</text>
</g>
<!-- 9f65fc53&#45;95b8&#45;4d41&#45;884a&#45;481a1d606bb1&#45;&gt;34e43965&#45;55e3&#45;46d9&#45;98b8&#45;1fb19a238cb9 -->
<g id="edge9" class="edge">
<title>9f65fc53&#45;95b8&#45;4d41&#45;884a&#45;481a1d606bb1&#45;&gt;34e43965&#45;55e3&#45;46d9&#45;98b8&#45;1fb19a238cb9</title>
<path fill="none" stroke="purple" d="M103.34,-782.8C103.34,-771.16 103.34,-755.55 103.34,-742.24"/>
<polygon fill="purple" stroke="purple" points="106.84,-742.18 103.34,-732.18 99.84,-742.18 106.84,-742.18"/>
<text text-anchor="middle" x="138.84" y="-753.8" font-family="Times,serif" font-size="14.00" fill="purple">Pass Data</text>
</g>
<!-- 5bfbbf31&#45;1277&#45;4b0e&#45;b515&#45;95b9131d2171 -->
<g id="node12" class="node">
<title>5bfbbf31&#45;1277&#45;4b0e&#45;b515&#45;95b9131d2171</title>
<ellipse fill="none" stroke="black" cx="250.34" cy="-888" rx="47.1" ry="18"/>
<text text-anchor="middle" x="250.34" y="-884.3" font-family="Times,serif" font-size="14.00">DelayAction</text>
</g>
<!-- 5bfbbf31&#45;1277&#45;4b0e&#45;b515&#45;95b9131d2171&#45;&gt;9f65fc53&#45;95b8&#45;4d41&#45;884a&#45;481a1d606bb1 -->
<g id="edge11" class="edge">
<title>5bfbbf31&#45;1277&#45;4b0e&#45;b515&#45;95b9131d2171&#45;&gt;9f65fc53&#45;95b8&#45;4d41&#45;884a&#45;481a1d606bb1</title>
<path fill="none" stroke="black" d="M225.4,-872.58C201.12,-858.54 164.03,-837.09 137.1,-821.52"/>
<polygon fill="black" stroke="black" points="138.81,-818.47 128.4,-816.49 135.3,-824.53 138.81,-818.47"/>
</g>
<!-- f96bcd18&#45;a775&#45;4a81&#45;ae2f&#45;dc58445db35b -->
<g id="node13" class="node">
<title>f96bcd18&#45;a775&#45;4a81&#45;ae2f&#45;dc58445db35b</title>
<ellipse fill="none" stroke="black" cx="250.34" cy="-961" rx="59.9" ry="18"/>
<text text-anchor="middle" x="250.34" y="-957.3" font-family="Times,serif" font-size="14.00">ZeroMovement</text>
</g>
<!-- f96bcd18&#45;a775&#45;4a81&#45;ae2f&#45;dc58445db35b&#45;&gt;5bfbbf31&#45;1277&#45;4b0e&#45;b515&#45;95b9131d2171 -->
<g id="edge12" class="edge">
<title>f96bcd18&#45;a775&#45;4a81&#45;ae2f&#45;dc58445db35b&#45;&gt;5bfbbf31&#45;1277&#45;4b0e&#45;b515&#45;95b9131d2171</title>
<path fill="none" stroke="black" d="M250.34,-942.81C250.34,-934.79 250.34,-925.05 250.34,-916.07"/>
<polygon fill="black" stroke="black" points="253.84,-916.03 250.34,-906.03 246.84,-916.03 253.84,-916.03"/>
</g>
</g>
</svg>
