<?xml version="1.0" encoding="UTF-8" standalone="no"?>
<!DOCTYPE svg PUBLIC "-//W3C//DTD SVG 1.1//EN"
 "http://www.w3.org/Graphics/SVG/1.1/DTD/svg11.dtd">
<!-- Generated by graphviz version 2.43.0 (0)
 -->
<!-- Title: G Pages: 1 -->
<svg width="249pt" height="276pt"
 viewBox="0.00 0.00 249.00 276.00" xmlns="http://www.w3.org/2000/svg" xmlns:xlink="http://www.w3.org/1999/xlink">
<g id="graph0" class="graph" transform="scale(1 1) rotate(0) translate(4 272)">
<title>G</title>
<polygon fill="transparent" stroke="transparent" points="-4,4 -4,-272 245,-272 245,4 -4,4"/>
<g id="clust1" class="cluster">
<title>cluster_c2dd5fd2&#45;8785&#45;4518&#45;9b43&#45;9065824ee8a2</title>
<polygon fill="transparent" stroke="blue" stroke-dasharray="5,2" points="8,-64 8,-260 233,-260 233,-64 8,-64"/>
</g>
<!-- 23106c54&#45;1bb3&#45;4dba&#45;8030&#45;03f34fa6f4fd -->
<g id="node1" class="node">
<title>23106c54&#45;1bb3&#45;4dba&#45;8030&#45;03f34fa6f4fd</title>
<polygon fill="none" stroke="black" stroke-dasharray="5,2" points="169,-252 71,-252 71,-216 169,-216 169,-252"/>
<text text-anchor="middle" x="120" y="-230.3" font-family="Times,serif" font-size="14.00" fill="blue">Concurrent</text>
</g>
<!-- a18393cb&#45;d857&#45;43a8&#45;94fc&#45;f01268d54bd7 -->
<g id="node2" class="node">
<title>a18393cb&#45;d857&#45;43a8&#45;94fc&#45;f01268d54bd7</title>
<ellipse fill="none" stroke="black" cx="51" cy="-162" rx="34.8" ry="18"/>
<text text-anchor="middle" x="51" y="-158.3" font-family="Times,serif" font-size="14.00">WaitArm</text>
</g>
<!-- 23106c54&#45;1bb3&#45;4dba&#45;8030&#45;03f34fa6f4fd&#45;&gt;a18393cb&#45;d857&#45;43a8&#45;94fc&#45;f01268d54bd7 -->
<g id="edge1" class="edge">
<title>23106c54&#45;1bb3&#45;4dba&#45;8030&#45;03f34fa6f4fd&#45;&gt;a18393cb&#45;d857&#45;43a8&#45;94fc&#45;f01268d54bd7</title>
<path fill="none" stroke="black" d="M102.94,-215.7C94.13,-206.75 83.25,-195.71 73.73,-186.06"/>
<polygon fill="black" stroke="black" points="75.96,-183.34 66.45,-178.67 70.97,-188.25 75.96,-183.34"/>
</g>
<!-- 90071ae2&#45;8755&#45;4e59&#45;bca5&#45;8333d59d51a8 -->
<g id="node3" class="node">
<title>90071ae2&#45;8755&#45;4e59&#45;bca5&#45;8333d59d51a8</title>
<ellipse fill="none" stroke="black" cx="191" cy="-162" rx="33.6" ry="18"/>
<text text-anchor="middle" x="191" y="-158.3" font-family="Times,serif" font-size="14.00">Descend</text>
</g>
<!-- 23106c54&#45;1bb3&#45;4dba&#45;8030&#45;03f34fa6f4fd&#45;&gt;90071ae2&#45;8755&#45;4e59&#45;bca5&#45;8333d59d51a8 -->
<g id="edge2" class="edge">
<title>23106c54&#45;1bb3&#45;4dba&#45;8030&#45;03f34fa6f4fd&#45;&gt;90071ae2&#45;8755&#45;4e59&#45;bca5&#45;8333d59d51a8</title>
<path fill="none" stroke="black" d="M137.55,-215.7C146.84,-206.53 158.36,-195.18 168.33,-185.35"/>
<polygon fill="black" stroke="black" points="170.92,-187.72 175.58,-178.2 166,-182.73 170.92,-187.72"/>
</g>
<!-- ead59824&#45;2cd7&#45;4458&#45;b081&#45;172e87552aae -->
<g id="node4" class="node">
<title>ead59824&#45;2cd7&#45;4458&#45;b081&#45;172e87552aae</title>
<polygon fill="none" stroke="black" stroke-dasharray="5,2" points="162.5,-108 77.5,-108 77.5,-72 162.5,-72 162.5,-108"/>
<text text-anchor="middle" x="120" y="-86.3" font-family="Times,serif" font-size="14.00" fill="blue">Converge</text>
</g>
<!-- a18393cb&#45;d857&#45;43a8&#45;94fc&#45;f01268d54bd7&#45;&gt;ead59824&#45;2cd7&#45;4458&#45;b081&#45;172e87552aae -->
<g id="edge3" class="edge">
<title>a18393cb&#45;d857&#45;43a8&#45;94fc&#45;f01268d54bd7&#45;&gt;ead59824&#45;2cd7&#45;4458&#45;b081&#45;172e87552aae</title>
<path fill="none" stroke="black" d="M66.31,-145.46C74.92,-136.73 85.86,-125.63 95.62,-115.74"/>
<polygon fill="black" stroke="black" points="98.26,-118.04 102.79,-108.46 93.28,-113.13 98.26,-118.04"/>
</g>
<!-- 90071ae2&#45;8755&#45;4e59&#45;bca5&#45;8333d59d51a8&#45;&gt;ead59824&#45;2cd7&#45;4458&#45;b081&#45;172e87552aae -->
<g id="edge4" class="edge">
<title>90071ae2&#45;8755&#45;4e59&#45;bca5&#45;8333d59d51a8&#45;&gt;ead59824&#45;2cd7&#45;4458&#45;b081&#45;172e87552aae</title>
<path fill="none" stroke="black" d="M175.59,-145.81C166.54,-136.88 154.88,-125.38 144.57,-115.23"/>
<polygon fill="black" stroke="black" points="146.95,-112.66 137.37,-108.13 142.04,-117.64 146.95,-112.66"/>
</g>
<!-- e70580dd&#45;26ef&#45;4d85&#45;aa24&#45;95a6a48593be -->
<g id="node5" class="node">
<title>e70580dd&#45;26ef&#45;4d85&#45;aa24&#45;95a6a48593be</title>
<ellipse fill="none" stroke="black" cx="120" cy="-18" rx="34.8" ry="18"/>
<text text-anchor="middle" x="120" y="-14.3" font-family="Times,serif" font-size="14.00">WaitArm</text>
</g>
<!-- ead59824&#45;2cd7&#45;4458&#45;b081&#45;172e87552aae&#45;&gt;e70580dd&#45;26ef&#45;4d85&#45;aa24&#45;95a6a48593be -->
<g id="edge5" class="edge">
<title>ead59824&#45;2cd7&#45;4458&#45;b081&#45;172e87552aae&#45;&gt;e70580dd&#45;26ef&#45;4d85&#45;aa24&#45;95a6a48593be</title>
<path fill="none" stroke="black" d="M120,-71.7C120,-63.98 120,-54.71 120,-46.11"/>
<polygon fill="black" stroke="black" points="123.5,-46.1 120,-36.1 116.5,-46.1 123.5,-46.1"/>
</g>
</g>
</svg>
